<?xml version="1.0" encoding="utf-8" ?>
<svg xmlns="http://www.w3.org/2000/svg" xmlns:xlink="http://www.w3.org/1999/xlink" width="1200" height="800">
	<rect fill="white" width="1200" height="800"/>
	<path fill="none" stroke="black" stroke-width="1" stroke-miterlimit="10" stroke-opacity="0.10196079" d="M49.5 71.199997L49.5 749"/>
	<path fill="none" stroke="black" stroke-width="1" stroke-miterlimit="10" stroke-opacity="0.10196079" d="M49.5 750L49.5 757.20001"/>
	<path fill="#666" transform="translate(621.875 788.8)" d="M-26.550781 4.1005859L-28.695312 0.67285156L-31.267578 0.67285156L-31.267578 4.1005859L-32.386719 4.1005859L-32.386719 -4.1552734L-28.501953 -4.1552734Q-27.107422 -4.1552734 -26.348633 -3.53125Q-25.589844 -2.9072266 -25.589844 -1.7939453Q-25.589844 -0.87402344 -26.125977 -0.24707031Q-26.662109 0.37988281 -27.605469 0.54394531L-25.261719 4.1005859L-26.550781 4.1005859ZM-26.714844 -1.7822266Q-26.714844 -2.5029297 -27.204102 -2.8808594Q-27.693359 -3.2587891 -28.613281 -3.2587891L-31.267578 -3.2587891L-31.267578 -0.21191406L-28.566406 -0.21191406Q-27.681641 -0.21191406 -27.198242 -0.625Q-26.714844 -1.0380859 -26.714844 -1.7822266ZM-23.087891 1.1533203Q-23.087891 2.2431641 -22.636719 2.8349609Q-22.185547 3.4267578 -21.318359 3.4267578Q-20.632812 3.4267578 -20.219727 3.1513672Q-19.806641 2.8759766 -19.660156 2.4541016L-18.734375 2.7177734Q-19.302734 4.2177734 -21.318359 4.2177734Q-22.724609 4.2177734 -23.459961 3.3798828Q-24.195312 2.5419922 -24.195312 0.88964844Q-24.195312 -0.68066406 -23.459961 -1.5185547Q-22.724609 -2.3564453 -21.359375 -2.3564453Q-18.564453 -2.3564453 -18.564453 1.0126953L-18.564453 1.1533203L-23.087891 1.1533203ZM-19.654297 0.34472656Q-19.742188 -0.65722656 -20.164062 -1.1171875Q-20.585938 -1.5771484 -21.376953 -1.5771484Q-22.144531 -1.5771484 -22.592773 -1.0644531Q-23.041016 -0.55175781 -23.076172 0.34472656L-19.654297 0.34472656ZM-17.222656 4.1005859L-17.222656 -4.5947266L-16.167969 -4.5947266L-16.167969 4.1005859L-17.222656 4.1005859ZM-13.748047 1.1533203Q-13.748047 2.2431641 -13.296875 2.8349609Q-12.845703 3.4267578 -11.978516 3.4267578Q-11.292969 3.4267578 -10.879883 3.1513672Q-10.466797 2.8759766 -10.320312 2.4541016L-9.3945312 2.7177734Q-9.9628906 4.2177734 -11.978516 4.2177734Q-13.384766 4.2177734 -14.120117 3.3798828Q-14.855469 2.5419922 -14.855469 0.88964844Q-14.855469 -0.68066406 -14.120117 -1.5185547Q-13.384766 -2.3564453 -12.019531 -2.3564453Q-9.2246094 -2.3564453 -9.2246094 1.0126953L-9.2246094 1.1533203L-13.748047 1.1533203ZM-10.314453 0.34472656Q-10.402344 -0.65722656 -10.824219 -1.1171875Q-11.246094 -1.5771484 -12.037109 -1.5771484Q-12.804688 -1.5771484 -13.25293 -1.0644531Q-13.701172 -0.55175781 -13.736328 0.34472656L-10.314453 0.34472656ZM-6.265625 4.2177734Q-7.2207031 4.2177734 -7.7011719 3.7138672Q-8.1816406 3.2099609 -8.1816406 2.3310547Q-8.1816406 1.3466797 -7.5341797 0.81933594Q-6.8867188 0.29199219 -5.4453125 0.25683594L-4.0214844 0.23339844L-4.0214844 -0.11230469Q-4.0214844 -0.88574219 -4.3496094 -1.2197266Q-4.6777344 -1.5537109 -5.3808594 -1.5537109Q-6.0898438 -1.5537109 -6.4121094 -1.3134766Q-6.734375 -1.0732422 -6.7988281 -0.54589844L-7.9003906 -0.64550781Q-7.6308594 -2.3564453 -5.3574219 -2.3564453Q-4.1621094 -2.3564453 -3.5585938 -1.8085938Q-2.9550781 -1.2607422 -2.9550781 -0.22363281L-2.9550781 2.5068359Q-2.9550781 2.9755859 -2.8320312 3.2128906Q-2.7089844 3.4501953 -2.3632812 3.4501953Q-2.2109375 3.4501953 -2.0175781 3.4091797L-2.0175781 4.0654297Q-2.4160156 4.1591797 -2.8320312 4.1591797Q-3.4179688 4.1591797 -3.6845703 3.8515625Q-3.9511719 3.5439453 -3.9863281 2.8876953L-4.0214844 2.8876953Q-4.4257812 3.6142578 -4.9619141 3.9160156Q-5.4980469 4.2177734 -6.265625 4.2177734ZM-6.0253906 3.4267578Q-5.4453125 3.4267578 -4.9941406 3.1630859Q-4.5429688 2.8994141 -4.2822266 2.4394531Q-4.0214844 1.9794922 -4.0214844 1.4931641L-4.0214844 0.97167969L-5.1757812 0.99511719Q-5.9199219 1.0068359 -6.3037109 1.1474609Q-6.6875 1.2880859 -6.8925781 1.5810547Q-7.0976562 1.8740234 -7.0976562 2.3486328Q-7.0976562 2.8642578 -6.8193359 3.1455078Q-6.5410156 3.4267578 -6.0253906 3.4267578ZM3.5488281 2.3486328Q3.5488281 3.2451172 2.8720703 3.7314453Q2.1953125 4.2177734 0.9765625 4.2177734Q-0.20703125 4.2177734 -0.84863281 3.828125Q-1.4902344 3.4384766 -1.6835938 2.6123047L-0.75195312 2.4306641Q-0.6171875 2.9404297 -0.1953125 3.1777344Q0.2265625 3.4150391 0.9765625 3.4150391Q1.7792969 3.4150391 2.1513672 3.1689453Q2.5234375 2.9228516 2.5234375 2.4306641Q2.5234375 2.0556641 2.265625 1.8212891Q2.0078125 1.5869141 1.4335938 1.4345703L0.67773438 1.2353516Q-0.23046875 1.0009766 -0.61425781 0.77539062Q-0.99804688 0.54980469 -1.2148438 0.22753906Q-1.4316406 -0.094726562 -1.4316406 -0.56347656Q-1.4316406 -1.4306641 -0.81347656 -1.8847656Q-0.1953125 -2.3388672 0.98828125 -2.3388672Q2.0371094 -2.3388672 2.6552734 -1.9697266Q3.2734375 -1.6005859 3.4375 -0.78613281L2.4882812 -0.66894531Q2.4003906 -1.0908203 2.0166016 -1.3164062Q1.6328125 -1.5419922 0.98828125 -1.5419922Q0.2734375 -1.5419922 -0.06640625 -1.3251953Q-0.40625 -1.1083984 -0.40625 -0.66894531Q-0.40625 -0.39941406 -0.265625 -0.22363281Q-0.125 -0.047851562 0.15039062 0.075195312Q0.42578125 0.19824219 1.3105469 0.41503906Q2.1484375 0.62597656 2.5175781 0.8046875Q2.8867188 0.98339844 3.1005859 1.2001953Q3.3144531 1.4169922 3.4316406 1.7011719Q3.5488281 1.9853516 3.5488281 2.3486328ZM5.5996094 1.1533203Q5.5996094 2.2431641 6.0507812 2.8349609Q6.5019531 3.4267578 7.3691406 3.4267578Q8.0546875 3.4267578 8.4677734 3.1513672Q8.8808594 2.8759766 9.0273438 2.4541016L9.953125 2.7177734Q9.3847656 4.2177734 7.3691406 4.2177734Q5.9628906 4.2177734 5.2275391 3.3798828Q4.4921875 2.5419922 4.4921875 0.88964844Q4.4921875 -0.68066406 5.2275391 -1.5185547Q5.9628906 -2.3564453 7.328125 -2.3564453Q10.123047 -2.3564453 10.123047 1.0126953L10.123047 1.1533203L5.5996094 1.1533203ZM9.0332031 0.34472656Q8.9453125 -0.65722656 8.5234375 -1.1171875Q8.1015625 -1.5771484 7.3105469 -1.5771484Q6.5429688 -1.5771484 6.0947266 -1.0644531Q5.6464844 -0.55175781 5.6113281 0.34472656L9.0332031 0.34472656ZM17.992188 -3.2412109L17.992188 4.1005859L16.878906 4.1005859L16.878906 -3.2412109L14.042969 -3.2412109L14.042969 -4.1552734L20.828125 -4.1552734L20.828125 -3.2412109L17.992188 -3.2412109ZM22.199219 4.2177734Q21.244141 4.2177734 20.763672 3.7138672Q20.283203 3.2099609 20.283203 2.3310547Q20.283203 1.3466797 20.930664 0.81933594Q21.578125 0.29199219 23.019531 0.25683594L24.443359 0.23339844L24.443359 -0.11230469Q24.443359 -0.88574219 24.115234 -1.2197266Q23.787109 -1.5537109 23.083984 -1.5537109Q22.375 -1.5537109 22.052734 -1.3134766Q21.730469 -1.0732422 21.666016 -0.54589844L20.564453 -0.64550781Q20.833984 -2.3564453 23.107422 -2.3564453Q24.302734 -2.3564453 24.90625 -1.8085938Q25.509766 -1.2607422 25.509766 -0.22363281L25.509766 2.5068359Q25.509766 2.9755859 25.632812 3.2128906Q25.755859 3.4501953 26.101562 3.4501953Q26.253906 3.4501953 26.447266 3.4091797L26.447266 4.0654297Q26.048828 4.1591797 25.632812 4.1591797Q25.046875 4.1591797 24.780273 3.8515625Q24.513672 3.5439453 24.478516 2.8876953L24.443359 2.8876953Q24.039062 3.6142578 23.50293 3.9160156Q22.966797 4.2177734 22.199219 4.2177734ZM22.439453 3.4267578Q23.019531 3.4267578 23.470703 3.1630859Q23.921875 2.8994141 24.182617 2.4394531Q24.443359 1.9794922 24.443359 1.4931641L24.443359 0.97167969L23.289062 0.99511719Q22.544922 1.0068359 22.161133 1.1474609Q21.777344 1.2880859 21.572266 1.5810547Q21.367188 1.8740234 21.367188 2.3486328Q21.367188 2.8642578 21.645508 3.1455078Q21.923828 3.4267578 22.439453 3.4267578ZM29.658203 6.5908203Q28.621094 6.5908203 28.005859 6.1835938Q27.390625 5.7763672 27.214844 5.0263672L28.275391 4.8740234Q28.380859 5.3134766 28.741211 5.5507812Q29.101562 5.7880859 29.6875 5.7880859Q31.263672 5.7880859 31.263672 3.9423828L31.263672 2.9228516L31.251953 2.9228516Q30.953125 3.5322266 30.431641 3.8398438Q29.910156 4.1474609 29.212891 4.1474609Q28.046875 4.1474609 27.499023 3.3740234Q26.951172 2.6005859 26.951172 0.94238281Q26.951172 -0.73925781 27.540039 -1.5390625Q28.128906 -2.3388672 29.330078 -2.3388672Q30.003906 -2.3388672 30.499023 -2.03125Q30.994141 -1.7236328 31.263672 -1.1552734L31.275391 -1.1552734Q31.275391 -1.3310547 31.298828 -1.7646484Q31.322266 -2.1982422 31.345703 -2.2392578L32.347656 -2.2392578Q32.3125 -1.9228516 32.3125 -0.92675781L32.3125 3.9189453Q32.3125 6.5908203 29.658203 6.5908203ZM31.263672 0.93066406Q31.263672 0.15722656 31.052734 -0.40234375Q30.841797 -0.96191406 30.458008 -1.2578125Q30.074219 -1.5537109 29.587891 -1.5537109Q28.779297 -1.5537109 28.410156 -0.96777344Q28.041016 -0.38183594 28.041016 0.93066406Q28.041016 2.2314453 28.386719 2.7998047Q28.732422 3.3681641 29.570312 3.3681641Q30.068359 3.3681641 30.455078 3.0751953Q30.841797 2.7822266 31.052734 2.234375Q31.263672 1.6865234 31.263672 0.93066406Z"/>
	<path fill="none" stroke="black" stroke-width="1" stroke-miterlimit="10" stroke-opacity="0.10196079" d="M50 749.5L1194 749.5"/>
	<path fill="none" stroke="black" stroke-width="1" stroke-miterlimit="10" stroke-opacity="0.10196079" d="M41.75 749.5L49 749.5"/>
	<path fill="none" stroke="black" stroke-width="1" stroke-miterlimit="10" stroke-opacity="0.10196079" d="M50 664.5L1194 664.5"/>
	<path fill="none" stroke="black" stroke-width="1" stroke-miterlimit="10" stroke-opacity="0.10196079" d="M41.75 664.5L49 664.5"/>
	<path fill="none" stroke="black" stroke-width="1" stroke-miterlimit="10" stroke-opacity="0.10196079" d="M50 579.5L1194 579.5"/>
	<path fill="none" stroke="black" stroke-width="1" stroke-miterlimit="10" stroke-opacity="0.10196079" d="M41.75 579.5L49 579.5"/>
	<path fill="none" stroke="black" stroke-width="1" stroke-miterlimit="10" stroke-opacity="0.10196079" d="M50 494.5L1194 494.5"/>
	<path fill="none" stroke="black" stroke-width="1" stroke-miterlimit="10" stroke-opacity="0.10196079" d="M41.75 494.5L49 494.5"/>
	<path fill="none" stroke="black" stroke-width="1" stroke-miterlimit="10" stroke-opacity="0.10196079" d="M50 410.5L1194 410.5"/>
	<path fill="none" stroke="black" stroke-width="1" stroke-miterlimit="10" stroke-opacity="0.10196079" d="M41.75 410.5L49 410.5"/>
	<path fill="none" stroke="black" stroke-width="1" stroke-miterlimit="10" stroke-opacity="0.10196079" d="M50 325.5L1194 325.5"/>
	<path fill="none" stroke="black" stroke-width="1" stroke-miterlimit="10" stroke-opacity="0.10196079" d="M41.75 325.5L49 325.5"/>
	<path fill="none" stroke="black" stroke-width="1" stroke-miterlimit="10" stroke-opacity="0.10196079" d="M50 240.5L1194 240.5"/>
	<path fill="none" stroke="black" stroke-width="1" stroke-miterlimit="10" stroke-opacity="0.10196079" d="M41.75 240.5L49 240.5"/>
	<path fill="none" stroke="black" stroke-width="1" stroke-miterlimit="10" stroke-opacity="0.10196079" d="M50 155.5L1194 155.5"/>
	<path fill="none" stroke="black" stroke-width="1" stroke-miterlimit="10" stroke-opacity="0.10196079" d="M41.75 155.5L49 155.5"/>
	<path fill="none" stroke="black" stroke-width="1" stroke-miterlimit="10" stroke-opacity="0.10196079" d="M50 71.5L1194 71.5"/>
	<path fill="none" stroke="black" stroke-width="1" stroke-miterlimit="10" stroke-opacity="0.10196079" d="M41.75 71.5L49 71.5"/>
	<path fill="#666" transform="matrix(0 -1 1 0 11.2 410.2)" d="M-21.591797 -0.11230469Q-21.591797 1.1650391 -22.089844 2.1230469Q-22.587891 3.0810547 -23.501953 3.5908203Q-24.416016 4.1005859 -25.611328 4.1005859L-28.699219 4.1005859L-28.699219 -4.1552734L-25.96875 -4.1552734Q-23.871094 -4.1552734 -22.731445 -3.1035156Q-21.591797 -2.0517578 -21.591797 -0.11230469ZM-22.716797 -0.11230469Q-22.716797 -1.6474609 -23.557617 -2.453125Q-24.398438 -3.2587891 -25.992188 -3.2587891L-27.580078 -3.2587891L-27.580078 3.2041016L-25.740234 3.2041016Q-24.832031 3.2041016 -24.143555 2.8056641Q-23.455078 2.4072266 -23.085938 1.6572266Q-22.716797 0.90722656 -22.716797 -0.11230469ZM-14.847656 0.92480469Q-14.847656 2.5888672 -15.580078 3.4033203Q-16.3125 4.2177734 -17.707031 4.2177734Q-19.095703 4.2177734 -19.804688 3.3710938Q-20.513672 2.5244141 -20.513672 0.92480469Q-20.513672 -2.3564453 -17.671875 -2.3564453Q-16.21875 -2.3564453 -15.533203 -1.5566406Q-14.847656 -0.75683594 -14.847656 0.92480469ZM-15.955078 0.92480469Q-15.955078 -0.38769531 -16.344727 -0.98242188Q-16.734375 -1.5771484 -17.654297 -1.5771484Q-18.580078 -1.5771484 -18.993164 -0.97070312Q-19.40625 -0.36425781 -19.40625 0.92480469Q-19.40625 2.1787109 -18.999023 2.8085938Q-18.591797 3.4384766 -17.71875 3.4384766Q-16.769531 3.4384766 -16.362305 2.8291016Q-15.955078 2.2197266 -15.955078 0.92480469ZM-7.4648438 4.1005859L-8.6894531 4.1005859L-9.796875 -0.38183594L-10.007812 -1.3720703Q-10.060547 -1.1083984 -10.171875 -0.61328125Q-10.283203 -0.11816406 -11.367188 4.1005859L-12.585938 4.1005859L-14.361328 -2.2392578L-13.318359 -2.2392578L-12.246094 2.0673828Q-12.205078 2.2080078 -11.994141 3.2275391L-11.894531 2.7939453L-10.570312 -2.2392578L-9.4394531 -2.2392578L-8.3320312 2.1142578L-8.0625 3.2275391L-7.8808594 2.4130859L-6.6796875 -2.2392578L-5.6484375 -2.2392578L-7.4648438 4.1005859ZM-0.84375 4.1005859L-0.84375 0.081054688Q-0.84375 -0.54589844 -0.96679688 -0.89160156Q-1.0898438 -1.2373047 -1.359375 -1.3896484Q-1.6289062 -1.5419922 -2.1503906 -1.5419922Q-2.9121094 -1.5419922 -3.3515625 -1.0205078Q-3.7910156 -0.49902344 -3.7910156 0.42675781L-3.7910156 4.1005859L-4.8457031 4.1005859L-4.8457031 -0.88574219Q-4.8457031 -1.9931641 -4.8808594 -2.2392578L-3.8847656 -2.2392578Q-3.8789062 -2.2099609 -3.8730469 -2.0810547Q-3.8671875 -1.9521484 -3.8583984 -1.7851562Q-3.8496094 -1.6181641 -3.8378906 -1.1552734L-3.8203125 -1.1552734Q-3.4570312 -1.8115234 -2.9794922 -2.0839844Q-2.5019531 -2.3564453 -1.7929688 -2.3564453Q-0.75 -2.3564453 -0.26660156 -1.8378906Q0.21679688 -1.3193359 0.21679688 -0.12402344L0.21679688 4.1005859L-0.84375 4.1005859ZM1.8046875 4.1005859L1.8046875 -4.5947266L2.859375 -4.5947266L2.859375 4.1005859L1.8046875 4.1005859ZM9.8320312 0.92480469Q9.8320312 2.5888672 9.0996094 3.4033203Q8.3671875 4.2177734 6.9726562 4.2177734Q5.5839844 4.2177734 4.875 3.3710938Q4.1660156 2.5244141 4.1660156 0.92480469Q4.1660156 -2.3564453 7.0078125 -2.3564453Q8.4609375 -2.3564453 9.1464844 -1.5566406Q9.8320312 -0.75683594 9.8320312 0.92480469ZM8.7246094 0.92480469Q8.7246094 -0.38769531 8.3349609 -0.98242188Q7.9453125 -1.5771484 7.0253906 -1.5771484Q6.0996094 -1.5771484 5.6865234 -0.97070312Q5.2734375 -0.36425781 5.2734375 0.92480469Q5.2734375 2.1787109 5.6806641 2.8085938Q6.0878906 3.4384766 6.9609375 3.4384766Q7.9101562 3.4384766 8.3173828 2.8291016Q8.7246094 2.2197266 8.7246094 0.92480469ZM12.761719 4.2177734Q11.806641 4.2177734 11.326172 3.7138672Q10.845703 3.2099609 10.845703 2.3310547Q10.845703 1.3466797 11.493164 0.81933594Q12.140625 0.29199219 13.582031 0.25683594L15.005859 0.23339844L15.005859 -0.11230469Q15.005859 -0.88574219 14.677734 -1.2197266Q14.349609 -1.5537109 13.646484 -1.5537109Q12.9375 -1.5537109 12.615234 -1.3134766Q12.292969 -1.0732422 12.228516 -0.54589844L11.126953 -0.64550781Q11.396484 -2.3564453 13.669922 -2.3564453Q14.865234 -2.3564453 15.46875 -1.8085938Q16.072266 -1.2607422 16.072266 -0.22363281L16.072266 2.5068359Q16.072266 2.9755859 16.195312 3.2128906Q16.318359 3.4501953 16.664062 3.4501953Q16.816406 3.4501953 17.009766 3.4091797L17.009766 4.0654297Q16.611328 4.1591797 16.195312 4.1591797Q15.609375 4.1591797 15.342773 3.8515625Q15.076172 3.5439453 15.041016 2.8876953L15.005859 2.8876953Q14.601562 3.6142578 14.06543 3.9160156Q13.529297 4.2177734 12.761719 4.2177734ZM13.001953 3.4267578Q13.582031 3.4267578 14.033203 3.1630859Q14.484375 2.8994141 14.745117 2.4394531Q15.005859 1.9794922 15.005859 1.4931641L15.005859 0.97167969L13.851562 0.99511719Q13.107422 1.0068359 12.723633 1.1474609Q12.339844 1.2880859 12.134766 1.5810547Q11.929688 1.8740234 11.929688 2.3486328Q11.929688 2.8642578 12.208008 3.1455078Q12.486328 3.4267578 13.001953 3.4267578ZM21.820312 3.0810547Q21.527344 3.6904297 21.043945 3.9541016Q20.560547 4.2177734 19.845703 4.2177734Q18.644531 4.2177734 18.079102 3.4091797Q17.513672 2.6005859 17.513672 0.95996094Q17.513672 -2.3564453 19.845703 -2.3564453Q20.566406 -2.3564453 21.046875 -2.0927734Q21.527344 -1.8291016 21.820312 -1.2548828L21.832031 -1.2548828L21.820312 -1.9638672L21.820312 -4.5947266L22.875 -4.5947266L22.875 2.7939453Q22.875 3.7841797 22.910156 4.1005859L21.902344 4.1005859Q21.884766 4.0068359 21.864258 3.6669922Q21.84375 3.3271484 21.84375 3.0810547L21.820312 3.0810547ZM18.621094 0.92480469Q18.621094 2.2548828 18.972656 2.8291016Q19.324219 3.4033203 20.115234 3.4033203Q21.011719 3.4033203 21.416016 2.7822266Q21.820312 2.1611328 21.820312 0.85449219Q21.820312 -0.40527344 21.416016 -0.99121094Q21.011719 -1.5771484 20.126953 -1.5771484Q19.330078 -1.5771484 18.975586 -0.98828125Q18.621094 -0.39941406 18.621094 0.92480469ZM29.25 2.3486328Q29.25 3.2451172 28.573242 3.7314453Q27.896484 4.2177734 26.677734 4.2177734Q25.494141 4.2177734 24.852539 3.828125Q24.210938 3.4384766 24.017578 2.6123047L24.949219 2.4306641Q25.083984 2.9404297 25.505859 3.1777344Q25.927734 3.4150391 26.677734 3.4150391Q27.480469 3.4150391 27.852539 3.1689453Q28.224609 2.9228516 28.224609 2.4306641Q28.224609 2.0556641 27.966797 1.8212891Q27.708984 1.5869141 27.134766 1.4345703L26.378906 1.2353516Q25.470703 1.0009766 25.086914 0.77539062Q24.703125 0.54980469 24.486328 0.22753906Q24.269531 -0.094726562 24.269531 -0.56347656Q24.269531 -1.4306641 24.887695 -1.8847656Q25.505859 -2.3388672 26.689453 -2.3388672Q27.738281 -2.3388672 28.356445 -1.9697266Q28.974609 -1.6005859 29.138672 -0.78613281L28.189453 -0.66894531Q28.101562 -1.0908203 27.717773 -1.3164062Q27.333984 -1.5419922 26.689453 -1.5419922Q25.974609 -1.5419922 25.634766 -1.3251953Q25.294922 -1.1083984 25.294922 -0.66894531Q25.294922 -0.39941406 25.435547 -0.22363281Q25.576172 -0.047851562 25.851562 0.075195312Q26.126953 0.19824219 27.011719 0.41503906Q27.849609 0.62597656 28.21875 0.8046875Q28.587891 0.98339844 28.801758 1.2001953Q29.015625 1.4169922 29.132812 1.7011719Q29.25 1.9853516 29.25 2.3486328Z"/>
	<clipPath id="cl_161">
		<rect y="39.200001" width="1200" height="31.999996"/>
	</clipPath>
	<g clip-path="url(#cl_161)">
		<path fill="#C32222" fill-opacity="0.2" d="M569.33002 49.200001L609.33002 49.200001L609.33002 61.200001L569.33002 61.200001L569.33002 49.200001Z"/>
		<path fill="none" stroke="#C32222" stroke-width="2" stroke-miterlimit="10" d="M569.33002 49.200001L609.33002 49.200001L609.33002 61.200001L569.33002 61.200001L569.33002 49.200001Z"/>
	</g>
	<clipPath id="cl_162">
		<rect y="39.200001" width="1200" height="31.999996"/>
	</clipPath>
	<g clip-path="url(#cl_162)">
		<path fill="#666" d="M615.81635 59.300587L615.81635 58.497852L619.36127 53.775196L616.01556 53.775196L616.01556 52.960743L620.60931 52.960743L620.60931 53.763477L617.05853 58.486134L620.73236 58.486134L620.73236 59.300587L615.81635 59.300587ZM622.13275 51.613087L622.13275 50.605274L623.18744 50.605274L623.18744 51.613087L622.13275 51.613087ZM622.13275 59.300587L622.13275 52.960743L623.18744 52.960743L623.18744 59.300587L622.13275 59.300587ZM630.16595 56.101368Q630.16595 59.417774 627.83392 59.417774Q626.36908 59.417774 625.86517 58.316212L625.83588 58.316212Q625.85931 58.363087 625.85931 59.312305L625.85931 61.790821L624.80463 61.790821L624.80463 54.255665Q624.80463 53.277149 624.76947 52.960743L625.789 52.960743Q625.79486 52.98418 625.80658 53.127735Q625.8183 53.27129 625.83295 53.570118Q625.8476 53.868946 625.8476 53.980274L625.87103 53.980274Q626.15228 53.394337 626.61517 53.121876Q627.07806 52.849415 627.83392 52.849415Q629.0058 52.849415 629.58588 53.634571Q630.16595 54.419727 630.16595 56.101368ZM629.05853 56.124805Q629.05853 54.800587 628.70111 54.232227Q628.34369 53.663868 627.56439 53.663868Q626.93744 53.663868 626.58295 53.92754Q626.22845 54.191212 626.04388 54.750782Q625.85931 55.310352 625.85931 56.206837Q625.85931 57.454884 626.25775 58.04668Q626.65619 58.638477 627.55267 58.638477Q628.33783 58.638477 628.69818 58.061329Q629.05853 57.48418 629.05853 56.124805Z"/>
	</g>
	<path fill="#666" transform="translate(600 19.6)" d="M-238.27344 3.3320312Q-238.27344 4.5585938 -239.27734 5.2578125Q-240.28125 5.9570312 -242.05469 5.9570312Q-243.79688 5.9570312 -244.72266 5.40625Q-245.64844 4.8554688 -245.95312 3.6914062L-244.02344 3.4023438Q-243.85938 4.0039062 -243.45703 4.2539062Q-243.05469 4.5039062 -242.05469 4.5039062Q-241.13281 4.5039062 -240.71094 4.2695312Q-240.28906 4.0351562 -240.28906 3.5351562Q-240.28906 3.1289062 -240.62891 2.890625Q-240.96875 2.6523438 -241.78125 2.4882812Q-243.64062 2.1210938 -244.28906 1.8046875Q-244.9375 1.4882812 -245.27734 0.984375Q-245.61719 0.48046875 -245.61719 -0.25390625Q-245.61719 -1.4648438 -244.68359 -2.140625Q-243.75 -2.8164062 -242.03906 -2.8164062Q-240.53125 -2.8164062 -239.61328 -2.2304688Q-238.69531 -1.6445312 -238.46875 -0.53515625L-240.41406 -0.33203125Q-240.50781 -0.84765625 -240.875 -1.1015625Q-241.24219 -1.3554688 -242.03906 -1.3554688Q-242.82031 -1.3554688 -243.21094 -1.15625Q-243.60156 -0.95703125 -243.60156 -0.48828125Q-243.60156 -0.12109375 -243.30078 0.09375Q-243 0.30859375 -242.28906 0.44921875Q-241.29688 0.65234375 -240.52734 0.8671875Q-239.75781 1.0820312 -239.29297 1.3789062Q-238.82812 1.6757812 -238.55078 2.140625Q-238.27344 2.6054688 -238.27344 3.3320312ZM-234.54688 5.9570312Q-235.77344 5.9570312 -236.46094 5.2890625Q-237.14844 4.6210938 -237.14844 3.4101562Q-237.14844 2.0976562 -236.29297 1.4101562Q-235.4375 0.72265625 -233.8125 0.70703125L-231.99219 0.67578125L-231.99219 0.24609375Q-231.99219 -0.58203125 -232.28125 -0.984375Q-232.57031 -1.3867188 -233.22656 -1.3867188Q-233.83594 -1.3867188 -234.12109 -1.109375Q-234.40625 -0.83203125 -234.47656 -0.19140625L-236.76562 -0.30078125Q-236.55469 -1.5351562 -235.63672 -2.171875Q-234.71875 -2.8085938 -233.13281 -2.8085938Q-231.53125 -2.8085938 -230.66406 -2.0195312Q-229.79688 -1.2304688 -229.79688 0.22265625L-229.79688 3.3007812Q-229.79688 4.0117188 -229.63672 4.28125Q-229.47656 4.5507812 -229.10156 4.5507812Q-228.85156 4.5507812 -228.61719 4.5039062L-228.61719 5.6914062Q-228.8125 5.7382812 -228.96875 5.7773438Q-229.125 5.8164062 -229.28125 5.8398438Q-229.4375 5.8632812 -229.61328 5.8789062Q-229.78906 5.8945312 -230.02344 5.8945312Q-230.85156 5.8945312 -231.24609 5.4882812Q-231.64062 5.0820312 -231.71875 4.2929688L-231.76562 4.2929688Q-232.6875 5.9570312 -234.54688 5.9570312ZM-231.99219 1.8867188L-233.11719 1.9023438Q-233.88281 1.9335938 -234.20312 2.0703125Q-234.52344 2.2070312 -234.69141 2.4882812Q-234.85938 2.7695312 -234.85938 3.2382812Q-234.85938 3.8398438 -234.58203 4.1328125Q-234.30469 4.4257812 -233.84375 4.4257812Q-233.32812 4.4257812 -232.90234 4.1445312Q-232.47656 3.8632812 -232.23438 3.3671875Q-231.99219 2.8710938 -231.99219 2.3164062L-231.99219 1.8867188ZM-227.60156 -4.1757812L-227.60156 -5.7929688L-225.40625 -5.7929688L-225.40625 -4.1757812L-227.60156 -4.1757812ZM-227.60156 5.8007812L-227.60156 -2.6523438L-225.40625 -2.6523438L-225.40625 5.8007812L-227.60156 5.8007812ZM-223.15625 5.8007812L-223.15625 -5.7929688L-220.96094 -5.7929688L-220.96094 5.8007812L-223.15625 5.8007812ZM-210.71094 1.5351562Q-210.71094 3.6523438 -211.55859 4.8046875Q-212.40625 5.9570312 -213.95312 5.9570312Q-214.84375 5.9570312 -215.50391 5.5703125Q-216.16406 5.1835938 -216.51562 4.4570312L-216.5625 4.4570312Q-216.51562 4.6914062 -216.51562 5.8789062L-216.51562 9.1210938L-218.71094 9.1210938L-218.71094 -0.70703125Q-218.71094 -1.9023438 -218.77344 -2.6523438L-216.64062 -2.6523438Q-216.60156 -2.5117188 -216.57422 -2.0976562Q-216.54688 -1.6835938 -216.54688 -1.2773438L-216.51562 -1.2773438Q-215.77344 -2.8320312 -213.8125 -2.8320312Q-212.33594 -2.8320312 -211.52344 -1.6953125Q-210.71094 -0.55859375 -210.71094 1.5351562ZM-213 1.5351562Q-213 -1.3085938 -214.74219 -1.3085938Q-215.61719 -1.3085938 -216.08203 -0.54296875Q-216.54688 0.22265625 -216.54688 1.5976562Q-216.54688 2.9648438 -216.08203 3.7109375Q-215.61719 4.4570312 -214.75781 4.4570312Q-213 4.4570312 -213 1.5351562ZM-200.90625 1.5664062Q-200.90625 3.6210938 -202.04688 4.7890625Q-203.1875 5.9570312 -205.20312 5.9570312Q-207.17969 5.9570312 -208.30469 4.7851562Q-209.42969 3.6132812 -209.42969 1.5664062Q-209.42969 -0.47265625 -208.30469 -1.640625Q-207.17969 -2.8085938 -205.15625 -2.8085938Q-203.08594 -2.8085938 -201.99609 -1.6796875Q-200.90625 -0.55078125 -200.90625 1.5664062ZM-203.20312 1.5664062Q-203.20312 0.05859375 -203.69531 -0.62109375Q-204.1875 -1.3007812 -205.125 -1.3007812Q-207.125 -1.3007812 -207.125 1.5664062Q-207.125 2.9804688 -206.63672 3.71875Q-206.14844 4.4570312 -205.22656 4.4570312Q-203.20312 4.4570312 -203.20312 1.5664062ZM-199.16406 -4.1757812L-199.16406 -5.7929688L-196.96875 -5.7929688L-196.96875 -4.1757812L-199.16406 -4.1757812ZM-199.16406 5.8007812L-199.16406 -2.6523438L-196.96875 -2.6523438L-196.96875 5.8007812L-199.16406 5.8007812ZM-189.24219 5.8007812L-189.24219 1.0585938Q-189.24219 -1.1679688 -190.75 -1.1679688Q-191.54688 -1.1679688 -192.03516 -0.484375Q-192.52344 0.19921875 -192.52344 1.2695312L-192.52344 5.8007812L-194.71875 5.8007812L-194.71875 -0.76171875Q-194.71875 -1.4414062 -194.73828 -1.875Q-194.75781 -2.3085938 -194.78125 -2.6523438L-192.6875 -2.6523438Q-192.66406 -2.5039062 -192.625 -1.859375Q-192.58594 -1.2148438 -192.58594 -0.97265625L-192.55469 -0.97265625Q-192.10938 -1.9414062 -191.4375 -2.3789062Q-190.76562 -2.8164062 -189.83594 -2.8164062Q-188.49219 -2.8164062 -187.77344 -1.9882812Q-187.05469 -1.1601562 -187.05469 0.43359375L-187.05469 5.8007812L-189.24219 5.8007812ZM-182.78125 5.9414062Q-183.75 5.9414062 -184.27344 5.4140625Q-184.79688 4.8867188 -184.79688 3.8164062L-184.79688 -1.1679688L-185.86719 -1.1679688L-185.86719 -2.6523438L-184.6875 -2.6523438L-184 -4.6367188L-182.625 -4.6367188L-182.625 -2.6523438L-181.02344 -2.6523438L-181.02344 -1.1679688L-182.625 -1.1679688L-182.625 3.2226562Q-182.625 3.8398438 -182.39062 4.1328125Q-182.15625 4.4257812 -181.66406 4.4257812Q-181.40625 4.4257812 -180.92969 4.3164062L-180.92969 5.6757812Q-181.74219 5.9414062 -182.78125 5.9414062ZM-180.10938 2.6054688L-180.10938 0.69921875L-176.04688 0.69921875L-176.04688 2.6054688L-180.10938 2.6054688ZM-166.25781 1.5664062Q-166.25781 3.6210938 -167.39844 4.7890625Q-168.53906 5.9570312 -170.55469 5.9570312Q-172.53125 5.9570312 -173.65625 4.7851562Q-174.78125 3.6132812 -174.78125 1.5664062Q-174.78125 -0.47265625 -173.65625 -1.640625Q-172.53125 -2.8085938 -170.50781 -2.8085938Q-168.4375 -2.8085938 -167.34766 -1.6796875Q-166.25781 -0.55078125 -166.25781 1.5664062ZM-168.55469 1.5664062Q-168.55469 0.05859375 -169.04688 -0.62109375Q-169.53906 -1.3007812 -170.47656 -1.3007812Q-172.47656 -1.3007812 -172.47656 1.5664062Q-172.47656 2.9804688 -171.98828 3.71875Q-171.5 4.4570312 -170.57812 4.4570312Q-168.55469 4.4570312 -168.55469 1.5664062ZM-157.39062 3.3320312Q-157.39062 4.5585938 -158.39453 5.2578125Q-159.39844 5.9570312 -161.17188 5.9570312Q-162.91406 5.9570312 -163.83984 5.40625Q-164.76562 4.8554688 -165.07031 3.6914062L-163.14062 3.4023438Q-162.97656 4.0039062 -162.57422 4.2539062Q-162.17188 4.5039062 -161.17188 4.5039062Q-160.25 4.5039062 -159.82812 4.2695312Q-159.40625 4.0351562 -159.40625 3.5351562Q-159.40625 3.1289062 -159.74609 2.890625Q-160.08594 2.6523438 -160.89844 2.4882812Q-162.75781 2.1210938 -163.40625 1.8046875Q-164.05469 1.4882812 -164.39453 0.984375Q-164.73438 0.48046875 -164.73438 -0.25390625Q-164.73438 -1.4648438 -163.80078 -2.140625Q-162.86719 -2.8164062 -161.15625 -2.8164062Q-159.64844 -2.8164062 -158.73047 -2.2304688Q-157.8125 -1.6445312 -157.58594 -0.53515625L-159.53125 -0.33203125Q-159.625 -0.84765625 -159.99219 -1.1015625Q-160.35938 -1.3554688 -161.15625 -1.3554688Q-161.9375 -1.3554688 -162.32812 -1.15625Q-162.71875 -0.95703125 -162.71875 -0.48828125Q-162.71875 -0.12109375 -162.41797 0.09375Q-162.11719 0.30859375 -161.40625 0.44921875Q-160.41406 0.65234375 -159.64453 0.8671875Q-158.875 1.0820312 -158.41016 1.3789062Q-157.94531 1.6757812 -157.66797 2.140625Q-157.39062 2.6054688 -157.39062 3.3320312ZM-148.49219 3.3320312Q-148.49219 4.5585938 -149.49609 5.2578125Q-150.5 5.9570312 -152.27344 5.9570312Q-154.01562 5.9570312 -154.94141 5.40625Q-155.86719 4.8554688 -156.17188 3.6914062L-154.24219 3.4023438Q-154.07812 4.0039062 -153.67578 4.2539062Q-153.27344 4.5039062 -152.27344 4.5039062Q-151.35156 4.5039062 -150.92969 4.2695312Q-150.50781 4.0351562 -150.50781 3.5351562Q-150.50781 3.1289062 -150.84766 2.890625Q-151.1875 2.6523438 -152 2.4882812Q-153.85938 2.1210938 -154.50781 1.8046875Q-155.15625 1.4882812 -155.49609 0.984375Q-155.83594 0.48046875 -155.83594 -0.25390625Q-155.83594 -1.4648438 -154.90234 -2.140625Q-153.96875 -2.8164062 -152.25781 -2.8164062Q-150.75 -2.8164062 -149.83203 -2.2304688Q-148.91406 -1.6445312 -148.6875 -0.53515625L-150.63281 -0.33203125Q-150.72656 -0.84765625 -151.09375 -1.1015625Q-151.46094 -1.3554688 -152.25781 -1.3554688Q-153.03906 -1.3554688 -153.42969 -1.15625Q-153.82031 -0.95703125 -153.82031 -0.48828125Q-153.82031 -0.12109375 -153.51953 0.09375Q-153.21875 0.30859375 -152.50781 0.44921875Q-151.51562 0.65234375 -150.74609 0.8671875Q-149.97656 1.0820312 -149.51172 1.3789062Q-149.04688 1.6757812 -148.76953 2.140625Q-148.49219 2.6054688 -148.49219 3.3320312ZM-147.67969 6.1210938L-145.40625 -5.7929688L-143.54688 -5.7929688L-145.78125 6.1210938L-147.67969 6.1210938ZM-138.75 5.9570312Q-140.67188 5.9570312 -141.71875 4.8125Q-142.76562 3.6679688 -142.76562 1.6210938Q-142.76562 -0.47265625 -141.71094 -1.640625Q-140.65625 -2.8085938 -138.71875 -2.8085938Q-137.22656 -2.8085938 -136.25 -2.0585938Q-135.27344 -1.3085938 -135.02344 0.01171875L-137.23438 0.12109375Q-137.32812 -0.52734375 -137.70312 -0.9140625Q-138.07812 -1.3007812 -138.76562 -1.3007812Q-140.46094 -1.3007812 -140.46094 1.5351562Q-140.46094 4.4570312 -138.73438 4.4570312Q-138.10938 4.4570312 -137.6875 4.0625Q-137.26562 3.6679688 -137.16406 2.8867188L-134.96094 2.9882812Q-135.07812 3.8554688 -135.58203 4.5351562Q-136.08594 5.2148438 -136.90625 5.5859375Q-137.72656 5.9570312 -138.75 5.9570312ZM-125.34375 1.5664062Q-125.34375 3.6210938 -126.48438 4.7890625Q-127.625 5.9570312 -129.64062 5.9570312Q-131.61719 5.9570312 -132.74219 4.7851562Q-133.86719 3.6132812 -133.86719 1.5664062Q-133.86719 -0.47265625 -132.74219 -1.640625Q-131.61719 -2.8085938 -129.59375 -2.8085938Q-127.52344 -2.8085938 -126.43359 -1.6796875Q-125.34375 -0.55078125 -125.34375 1.5664062ZM-127.64062 1.5664062Q-127.64062 0.05859375 -128.13281 -0.62109375Q-128.625 -1.3007812 -129.5625 -1.3007812Q-131.5625 -1.3007812 -131.5625 1.5664062Q-131.5625 2.9804688 -131.07422 3.71875Q-130.58594 4.4570312 -129.66406 4.4570312Q-127.64062 4.4570312 -127.64062 1.5664062ZM-123.60156 5.8007812L-123.60156 -5.7929688L-121.40625 -5.7929688L-121.40625 5.8007812L-123.60156 5.8007812ZM-117.20312 5.9570312Q-118.42969 5.9570312 -119.11719 5.2890625Q-119.80469 4.6210938 -119.80469 3.4101562Q-119.80469 2.0976562 -118.94922 1.4101562Q-118.09375 0.72265625 -116.46875 0.70703125L-114.64844 0.67578125L-114.64844 0.24609375Q-114.64844 -0.58203125 -114.9375 -0.984375Q-115.22656 -1.3867188 -115.88281 -1.3867188Q-116.49219 -1.3867188 -116.77734 -1.109375Q-117.0625 -0.83203125 -117.13281 -0.19140625L-119.42188 -0.30078125Q-119.21094 -1.5351562 -118.29297 -2.171875Q-117.375 -2.8085938 -115.78906 -2.8085938Q-114.1875 -2.8085938 -113.32031 -2.0195312Q-112.45312 -1.2304688 -112.45312 0.22265625L-112.45312 3.3007812Q-112.45312 4.0117188 -112.29297 4.28125Q-112.13281 4.5507812 -111.75781 4.5507812Q-111.50781 4.5507812 -111.27344 4.5039062L-111.27344 5.6914062Q-111.46875 5.7382812 -111.625 5.7773438Q-111.78125 5.8164062 -111.9375 5.8398438Q-112.09375 5.8632812 -112.26953 5.8789062Q-112.44531 5.8945312 -112.67969 5.8945312Q-113.50781 5.8945312 -113.90234 5.4882812Q-114.29688 5.0820312 -114.375 4.2929688L-114.42188 4.2929688Q-115.34375 5.9570312 -117.20312 5.9570312ZM-114.64844 1.8867188L-115.77344 1.9023438Q-116.53906 1.9335938 -116.85938 2.0703125Q-117.17969 2.2070312 -117.34766 2.4882812Q-117.51562 2.7695312 -117.51562 3.2382812Q-117.51562 3.8398438 -117.23828 4.1328125Q-116.96094 4.4257812 -116.5 4.4257812Q-115.98438 4.4257812 -115.55859 4.1445312Q-115.13281 3.8632812 -114.89062 3.3671875Q-114.64844 2.8710938 -114.64844 2.3164062L-114.64844 1.8867188ZM-102.25781 1.5429688Q-102.25781 3.6367188 -103.09766 4.796875Q-103.9375 5.9570312 -105.5 5.9570312Q-106.39844 5.9570312 -107.05469 5.5664062Q-107.71094 5.1757812 -108.0625 4.4414062L-108.07812 4.4414062Q-108.07812 4.7148438 -108.11328 5.1914062Q-108.14844 5.6679688 -108.1875 5.8007812L-110.32031 5.8007812Q-110.25781 5.0742188 -110.25781 3.8710938L-110.25781 -5.7929688L-108.0625 -5.7929688L-108.0625 -2.5585938L-108.09375 -1.1835938L-108.0625 -1.1835938Q-107.32031 -2.8085938 -105.35938 -2.8085938Q-103.85938 -2.8085938 -103.05859 -1.671875Q-102.25781 -0.53515625 -102.25781 1.5429688ZM-104.54688 1.5429688Q-104.54688 0.10546875 -104.96875 -0.58984375Q-105.39062 -1.2851562 -106.27344 -1.2851562Q-107.16406 -1.2851562 -107.62891 -0.5390625Q-108.09375 0.20703125 -108.09375 1.6132812Q-108.09375 2.9570312 -107.63672 3.7070312Q-107.17969 4.4570312 -106.28906 4.4570312Q-104.54688 4.4570312 -104.54688 1.5429688ZM-100.97656 2.6054688L-100.97656 0.69921875L-96.914062 0.69921875L-96.914062 2.6054688L-100.97656 2.6054688ZM-87.125 1.5664062Q-87.125 3.6210938 -88.265625 4.7890625Q-89.40625 5.9570312 -91.421875 5.9570312Q-93.398438 5.9570312 -94.523438 4.7851562Q-95.648438 3.6132812 -95.648438 1.5664062Q-95.648438 -0.47265625 -94.523438 -1.640625Q-93.398438 -2.8085938 -91.375 -2.8085938Q-89.304688 -2.8085938 -88.214844 -1.6796875Q-87.125 -0.55078125 -87.125 1.5664062ZM-89.421875 1.5664062Q-89.421875 0.05859375 -89.914062 -0.62109375Q-90.40625 -1.3007812 -91.34375 -1.3007812Q-93.34375 -1.3007812 -93.34375 1.5664062Q-93.34375 2.9804688 -92.855469 3.71875Q-92.367188 4.4570312 -91.445312 4.4570312Q-89.421875 4.4570312 -89.421875 1.5664062ZM-85.382812 5.8007812L-85.382812 -0.66796875Q-85.382812 -1.3632812 -85.402344 -1.828125Q-85.421875 -2.2929688 -85.445312 -2.6523438L-83.351562 -2.6523438Q-83.328125 -2.5117188 -83.289062 -1.796875Q-83.25 -1.0820312 -83.25 -0.84765625L-83.21875 -0.84765625Q-82.898438 -1.7382812 -82.648438 -2.1015625Q-82.398438 -2.4648438 -82.054688 -2.640625Q-81.710938 -2.8164062 -81.195312 -2.8164062Q-80.773438 -2.8164062 -80.515625 -2.6992188L-80.515625 -0.86328125Q-81.046875 -0.98046875 -81.453125 -0.98046875Q-82.273438 -0.98046875 -82.730469 -0.31640625Q-83.1875 0.34765625 -83.1875 1.6523438L-83.1875 5.8007812L-85.382812 5.8007812ZM-75.617188 9.1914062Q-77.164062 9.1914062 -78.105469 8.6015625Q-79.046875 8.0117188 -79.265625 6.9179688L-77.070312 6.6601562Q-76.953125 7.1679688 -76.566406 7.4570312Q-76.179688 7.7460938 -75.554688 7.7460938Q-74.640625 7.7460938 -74.21875 7.1835938Q-73.796875 6.6210938 -73.796875 5.5117188L-73.796875 5.0664062L-73.78125 4.2304688L-73.796875 4.2304688Q-74.523438 5.7851562 -76.515625 5.7851562Q-77.992188 5.7851562 -78.804688 4.6757812Q-79.617188 3.5664062 -79.617188 1.5039062Q-79.617188 -0.56640625 -78.78125 -1.6914062Q-77.945312 -2.8164062 -76.351562 -2.8164062Q-74.507812 -2.8164062 -73.796875 -1.2929688L-73.757812 -1.2929688Q-73.757812 -1.5664062 -73.722656 -2.0351562Q-73.6875 -2.5039062 -73.648438 -2.6523438L-71.570312 -2.6523438Q-71.617188 -1.8085938 -71.617188 -0.69921875L-71.617188 5.5429688Q-71.617188 7.3476562 -72.640625 8.2695312Q-73.664062 9.1914062 -75.617188 9.1914062ZM-73.78125 1.4570312Q-73.78125 0.15234375 -74.246094 -0.578125Q-74.710938 -1.3085938 -75.570312 -1.3085938Q-77.328125 -1.3085938 -77.328125 1.5039062Q-77.328125 4.2617188 -75.585938 4.2617188Q-74.710938 4.2617188 -74.246094 3.53125Q-73.78125 2.8007812 -73.78125 1.4570312ZM-69.875 2.6054688L-69.875 0.69921875L-65.8125 0.69921875L-65.8125 2.6054688L-69.875 2.6054688ZM-60.53125 5.9570312Q-62.453125 5.9570312 -63.5 4.8125Q-64.546875 3.6679688 -64.546875 1.6210938Q-64.546875 -0.47265625 -63.492188 -1.640625Q-62.4375 -2.8085938 -60.5 -2.8085938Q-59.007812 -2.8085938 -58.03125 -2.0585938Q-57.054688 -1.3085938 -56.804688 0.01171875L-59.015625 0.12109375Q-59.109375 -0.52734375 -59.484375 -0.9140625Q-59.859375 -1.3007812 -60.546875 -1.3007812Q-62.242188 -1.3007812 -62.242188 1.5351562Q-62.242188 4.4570312 -60.515625 4.4570312Q-59.890625 4.4570312 -59.46875 4.0625Q-59.046875 3.6679688 -58.945312 2.8867188L-56.742188 2.9882812Q-56.859375 3.8554688 -57.363281 4.5351562Q-57.867188 5.2148438 -58.6875 5.5859375Q-59.507812 5.9570312 -60.53125 5.9570312ZM-52.992188 -0.96484375Q-52.546875 -1.9335938 -51.875 -2.3710938Q-51.203125 -2.8085938 -50.273438 -2.8085938Q-48.929688 -2.8085938 -48.210938 -1.9804688Q-47.492188 -1.1523438 -47.492188 0.44140625L-47.492188 5.8007812L-49.679688 5.8007812L-49.679688 1.0664062Q-49.679688 -1.1601562 -51.1875 -1.1601562Q-51.984375 -1.1601562 -52.472656 -0.4765625Q-52.960938 0.20703125 -52.960938 1.2773438L-52.960938 5.8007812L-55.15625 5.8007812L-55.15625 -5.7929688L-52.960938 -5.7929688L-52.960938 -2.6289062Q-52.960938 -1.7773438 -53.023438 -0.96484375L-52.992188 -0.96484375ZM-43.429688 5.9570312Q-44.65625 5.9570312 -45.34375 5.2890625Q-46.03125 4.6210938 -46.03125 3.4101562Q-46.03125 2.0976562 -45.175781 1.4101562Q-44.320312 0.72265625 -42.695312 0.70703125L-40.875 0.67578125L-40.875 0.24609375Q-40.875 -0.58203125 -41.164062 -0.984375Q-41.453125 -1.3867188 -42.109375 -1.3867188Q-42.71875 -1.3867188 -43.003906 -1.109375Q-43.289062 -0.83203125 -43.359375 -0.19140625L-45.648438 -0.30078125Q-45.4375 -1.5351562 -44.519531 -2.171875Q-43.601562 -2.8085938 -42.015625 -2.8085938Q-40.414062 -2.8085938 -39.546875 -2.0195312Q-38.679688 -1.2304688 -38.679688 0.22265625L-38.679688 3.3007812Q-38.679688 4.0117188 -38.519531 4.28125Q-38.359375 4.5507812 -37.984375 4.5507812Q-37.734375 4.5507812 -37.5 4.5039062L-37.5 5.6914062Q-37.695312 5.7382812 -37.851562 5.7773438Q-38.007812 5.8164062 -38.164062 5.8398438Q-38.320312 5.8632812 -38.496094 5.8789062Q-38.671875 5.8945312 -38.90625 5.8945312Q-39.734375 5.8945312 -40.128906 5.4882812Q-40.523438 5.0820312 -40.601562 4.2929688L-40.648438 4.2929688Q-41.570312 5.9570312 -43.429688 5.9570312ZM-40.875 1.8867188L-42 1.9023438Q-42.765625 1.9335938 -43.085938 2.0703125Q-43.40625 2.2070312 -43.574219 2.4882812Q-43.742188 2.7695312 -43.742188 3.2382812Q-43.742188 3.8398438 -43.464844 4.1328125Q-43.1875 4.4257812 -42.726562 4.4257812Q-42.210938 4.4257812 -41.785156 4.1445312Q-41.359375 3.8632812 -41.117188 3.3671875Q-40.875 2.8710938 -40.875 2.3164062L-40.875 1.8867188ZM-36.484375 5.8007812L-36.484375 -0.66796875Q-36.484375 -1.3632812 -36.503906 -1.828125Q-36.523438 -2.2929688 -36.546875 -2.6523438L-34.453125 -2.6523438Q-34.429688 -2.5117188 -34.390625 -1.796875Q-34.351562 -1.0820312 -34.351562 -0.84765625L-34.320312 -0.84765625Q-34 -1.7382812 -33.75 -2.1015625Q-33.5 -2.4648438 -33.15625 -2.640625Q-32.8125 -2.8164062 -32.296875 -2.8164062Q-31.875 -2.8164062 -31.617188 -2.6992188L-31.617188 -0.86328125Q-32.148438 -0.98046875 -32.554688 -0.98046875Q-33.375 -0.98046875 -33.832031 -0.31640625Q-34.289062 0.34765625 -34.289062 1.6523438L-34.289062 5.8007812L-36.484375 5.8007812ZM-28.09375 5.9414062Q-29.0625 5.9414062 -29.585938 5.4140625Q-30.109375 4.8867188 -30.109375 3.8164062L-30.109375 -1.1679688L-31.179688 -1.1679688L-31.179688 -2.6523438L-30 -2.6523438L-29.3125 -4.6367188L-27.9375 -4.6367188L-27.9375 -2.6523438L-26.335938 -2.6523438L-26.335938 -1.1679688L-27.9375 -1.1679688L-27.9375 3.2226562Q-27.9375 3.8398438 -27.703125 4.1328125Q-27.46875 4.4257812 -26.976562 4.4257812Q-26.71875 4.4257812 -26.242188 4.3164062L-26.242188 5.6757812Q-27.054688 5.9414062 -28.09375 5.9414062ZM-25.421875 2.6054688L-25.421875 0.69921875L-21.359375 0.69921875L-21.359375 2.6054688L-25.421875 2.6054688ZM-11.601562 1.5351562Q-11.601562 3.6523438 -12.449219 4.8046875Q-13.296875 5.9570312 -14.84375 5.9570312Q-15.734375 5.9570312 -16.394531 5.5703125Q-17.054688 5.1835938 -17.40625 4.4570312L-17.453125 4.4570312Q-17.40625 4.6914062 -17.40625 5.8789062L-17.40625 9.1210938L-19.601562 9.1210938L-19.601562 -0.70703125Q-19.601562 -1.9023438 -19.664062 -2.6523438L-17.53125 -2.6523438Q-17.492188 -2.5117188 -17.464844 -2.0976562Q-17.4375 -1.6835938 -17.4375 -1.2773438L-17.40625 -1.2773438Q-16.664062 -2.8320312 -14.703125 -2.8320312Q-13.226562 -2.8320312 -12.414062 -1.6953125Q-11.601562 -0.55859375 -11.601562 1.5351562ZM-13.890625 1.5351562Q-13.890625 -1.3085938 -15.632812 -1.3085938Q-16.507812 -1.3085938 -16.972656 -0.54296875Q-17.4375 0.22265625 -17.4375 1.5976562Q-17.4375 2.9648438 -16.972656 3.7109375Q-16.507812 4.4570312 -15.648438 4.4570312Q-13.890625 4.4570312 -13.890625 1.5351562ZM-9.828125 5.8007812L-9.828125 -5.7929688L-7.6328125 -5.7929688L-7.6328125 5.8007812L-9.828125 5.8007812ZM-3.3125 -2.6523438L-3.3125 2.0898438Q-3.3125 4.3164062 -1.8125 4.3164062Q-1.015625 4.3164062 -0.52734375 3.6328125Q-0.0390625 2.9492188 -0.0390625 1.8789062L-0.0390625 -2.6523438L2.15625 -2.6523438L2.15625 3.9101562Q2.15625 4.9882812 2.21875 5.8007812L0.125 5.8007812Q0.03125 4.6757812 0.03125 4.1210938L-0.0078125 4.1210938Q-0.4453125 5.0820312 -1.1210938 5.5195312Q-1.796875 5.9570312 -2.7265625 5.9570312Q-4.0703125 5.9570312 -4.7890625 5.1328125Q-5.5078125 4.3085938 -5.5078125 2.7148438L-5.5078125 -2.6523438L-3.3125 -2.6523438ZM7.9296875 9.1914062Q6.3828125 9.1914062 5.4414062 8.6015625Q4.5 8.0117188 4.28125 6.9179688L6.4765625 6.6601562Q6.59375 7.1679688 6.9804688 7.4570312Q7.3671875 7.7460938 7.9921875 7.7460938Q8.90625 7.7460938 9.328125 7.1835938Q9.75 6.6210938 9.75 5.5117188L9.75 5.0664062L9.765625 4.2304688L9.75 4.2304688Q9.0234375 5.7851562 7.03125 5.7851562Q5.5546875 5.7851562 4.7421875 4.6757812Q3.9296875 3.5664062 3.9296875 1.5039062Q3.9296875 -0.56640625 4.765625 -1.6914062Q5.6015625 -2.8164062 7.1953125 -2.8164062Q9.0390625 -2.8164062 9.75 -1.2929688L9.7890625 -1.2929688Q9.7890625 -1.5664062 9.8242188 -2.0351562Q9.859375 -2.5039062 9.8984375 -2.6523438L11.976562 -2.6523438Q11.929688 -1.8085938 11.929688 -0.69921875L11.929688 5.5429688Q11.929688 7.3476562 10.90625 8.2695312Q9.8828125 9.1914062 7.9296875 9.1914062ZM9.765625 1.4570312Q9.765625 0.15234375 9.3007812 -0.578125Q8.8359375 -1.3085938 7.9765625 -1.3085938Q6.21875 -1.3085938 6.21875 1.5039062Q6.21875 4.2617188 7.9609375 4.2617188Q8.8359375 4.2617188 9.3007812 3.53125Q9.765625 2.8007812 9.765625 1.4570312ZM14.164062 -4.1757812L14.164062 -5.7929688L16.359375 -5.7929688L16.359375 -4.1757812L14.164062 -4.1757812ZM14.164062 5.8007812L14.164062 -2.6523438L16.359375 -2.6523438L16.359375 5.8007812L14.164062 5.8007812ZM24.085938 5.8007812L24.085938 1.0585938Q24.085938 -1.1679688 22.578125 -1.1679688Q21.78125 -1.1679688 21.292969 -0.484375Q20.804688 0.19921875 20.804688 1.2695312L20.804688 5.8007812L18.609375 5.8007812L18.609375 -0.76171875Q18.609375 -1.4414062 18.589844 -1.875Q18.570312 -2.3085938 18.546875 -2.6523438L20.640625 -2.6523438Q20.664062 -2.5039062 20.703125 -1.859375Q20.742188 -1.2148438 20.742188 -0.97265625L20.773438 -0.97265625Q21.21875 -1.9414062 21.890625 -2.3789062Q22.5625 -2.8164062 23.492188 -2.8164062Q24.835938 -2.8164062 25.554688 -1.9882812Q26.273438 -1.1601562 26.273438 0.43359375L26.273438 5.8007812L24.085938 5.8007812ZM32.335938 2.6054688L32.335938 0.69921875L36.398438 0.69921875L36.398438 2.6054688L32.335938 2.6054688ZM44.859375 -3.4257812L44.859375 -0.01953125L50.492188 -0.01953125L50.492188 1.7617188L44.859375 1.7617188L44.859375 5.8007812L42.554688 5.8007812L42.554688 -5.2070312L50.671875 -5.2070312L50.671875 -3.4257812L44.859375 -3.4257812ZM63.03125 0.24609375Q63.03125 1.9648438 62.351562 3.2695312Q61.671875 4.5742188 60.40625 5.265625Q59.140625 5.9570312 57.453125 5.9570312Q54.859375 5.9570312 53.386719 4.4296875Q51.914062 2.9023438 51.914062 0.24609375Q51.914062 -2.4023438 53.382812 -3.8867188Q54.851562 -5.3710938 57.46875 -5.3710938Q60.085938 -5.3710938 61.558594 -3.8710938Q63.03125 -2.3710938 63.03125 0.24609375ZM60.679688 0.24609375Q60.679688 -1.5351562 59.835938 -2.546875Q58.992188 -3.5585938 57.46875 -3.5585938Q55.921875 -3.5585938 55.078125 -2.5546875Q54.234375 -1.5507812 54.234375 0.24609375Q54.234375 2.0585938 55.097656 3.1015625Q55.960938 4.1445312 57.453125 4.1445312Q59 4.1445312 59.839844 3.1289062Q60.679688 2.1132812 60.679688 0.24609375ZM72.335938 5.8007812L69.78125 1.6210938L67.078125 1.6210938L67.078125 5.8007812L64.773438 5.8007812L64.773438 -5.2070312L70.273438 -5.2070312Q72.242188 -5.2070312 73.3125 -4.359375Q74.382812 -3.5117188 74.382812 -1.9257812Q74.382812 -0.76953125 73.726562 0.0703125Q73.070312 0.91015625 71.953125 1.1757812L74.929688 5.8007812L72.335938 5.8007812ZM72.0625 -1.8320312Q72.0625 -3.4179688 70.03125 -3.4179688L67.078125 -3.4179688L67.078125 -0.16796875L70.09375 -0.16796875Q71.0625 -0.16796875 71.5625 -0.60546875Q72.0625 -1.0429688 72.0625 -1.8320312ZM85.46875 5.8007812L85.46875 -0.87109375Q85.46875 -1.0976562 85.472656 -1.3242188Q85.476562 -1.5507812 85.546875 -3.2695312Q84.992188 -1.1679688 84.726562 -0.33984375L82.742188 5.8007812L81.101562 5.8007812L79.117188 -0.33984375L78.28125 -3.2695312Q78.375 -1.4570312 78.375 -0.87109375L78.375 5.8007812L76.328125 5.8007812L76.328125 -5.2070312L79.414062 -5.2070312L81.382812 0.94921875L81.554688 1.5429688L81.929688 3.0195312L82.421875 1.2539062L84.445312 -5.2070312L87.515625 -5.2070312L87.515625 5.8007812L85.46875 5.8007812ZM97.4375 5.8007812L96.460938 2.9882812L92.265625 2.9882812L91.289062 5.8007812L88.984375 5.8007812L93 -5.2070312L95.71875 -5.2070312L99.71875 5.8007812L97.4375 5.8007812ZM94.359375 -3.5117188L94.3125 -3.3398438Q94.234375 -3.0585938 94.125 -2.6992188Q94.015625 -2.3398438 92.78125 1.2539062L95.945312 1.2539062L94.859375 -1.9101562L94.523438 -2.9726562L94.359375 -3.5117188ZM104.99219 -3.4257812L104.99219 5.8007812L102.6875 5.8007812L102.6875 -3.4257812L99.132812 -3.4257812L99.132812 -5.2070312L108.55469 -5.2070312L108.55469 -3.4257812L104.99219 -3.4257812ZM124.05469 0.21484375Q124.05469 1.9179688 123.38672 3.1875Q122.71875 4.4570312 121.49609 5.1289062Q120.27344 5.8007812 118.69531 5.8007812L114.24219 5.8007812L114.24219 -5.2070312L118.22656 -5.2070312Q121.00781 -5.2070312 122.53125 -3.8046875Q124.05469 -2.4023438 124.05469 0.21484375ZM121.73438 0.21484375Q121.73438 -1.5585938 120.8125 -2.4921875Q119.89062 -3.4257812 118.17969 -3.4257812L116.54688 -3.4257812L116.54688 4.0195312L118.5 4.0195312Q119.98438 4.0195312 120.85938 2.9960938Q121.73438 1.9726562 121.73438 0.21484375ZM133.875 1.5664062Q133.875 3.6210938 132.73438 4.7890625Q131.59375 5.9570312 129.57812 5.9570312Q127.60156 5.9570312 126.47656 4.7851562Q125.35156 3.6132812 125.35156 1.5664062Q125.35156 -0.47265625 126.47656 -1.640625Q127.60156 -2.8085938 129.625 -2.8085938Q131.69531 -2.8085938 132.78516 -1.6796875Q133.875 -0.55078125 133.875 1.5664062ZM131.57812 1.5664062Q131.57812 0.05859375 131.08594 -0.62109375Q130.59375 -1.3007812 129.65625 -1.3007812Q127.65625 -1.3007812 127.65625 1.5664062Q127.65625 2.9804688 128.14453 3.71875Q128.63281 4.4570312 129.55469 4.4570312Q131.57812 4.4570312 131.57812 1.5664062ZM144.75781 5.8007812L142.4375 5.8007812L141.09375 0.64453125Q141 0.29296875 140.72656 -1.0898438L140.32031 0.66015625L138.96094 5.8007812L136.64062 5.8007812L134.45312 -2.6523438L136.51562 -2.6523438L137.90625 3.8085938L138.01562 3.2304688L138.21094 2.3164062L139.53906 -2.6523438L141.89062 -2.6523438L143.1875 2.3164062Q143.29688 2.7226562 143.50781 3.8085938L143.72656 2.7773438L144.94531 -2.6523438L146.97656 -2.6523438L144.75781 5.8007812ZM153.53906 5.8007812L153.53906 1.0585938Q153.53906 -1.1679688 152.03125 -1.1679688Q151.23438 -1.1679688 150.74609 -0.484375Q150.25781 0.19921875 150.25781 1.2695312L150.25781 5.8007812L148.0625 5.8007812L148.0625 -0.76171875Q148.0625 -1.4414062 148.04297 -1.875Q148.02344 -2.3085938 148 -2.6523438L150.09375 -2.6523438Q150.11719 -2.5039062 150.15625 -1.859375Q150.19531 -1.2148438 150.19531 -0.97265625L150.22656 -0.97265625Q150.67188 -1.9414062 151.34375 -2.3789062Q152.01562 -2.8164062 152.94531 -2.8164062Q154.28906 -2.8164062 155.00781 -1.9882812Q155.72656 -1.1601562 155.72656 0.43359375L155.72656 5.8007812L153.53906 5.8007812ZM157.83594 5.8007812L157.83594 -5.7929688L160.03125 -5.7929688L160.03125 5.8007812L157.83594 5.8007812ZM170.3125 1.5664062Q170.3125 3.6210938 169.17188 4.7890625Q168.03125 5.9570312 166.01562 5.9570312Q164.03906 5.9570312 162.91406 4.7851562Q161.78906 3.6132812 161.78906 1.5664062Q161.78906 -0.47265625 162.91406 -1.640625Q164.03906 -2.8085938 166.0625 -2.8085938Q168.13281 -2.8085938 169.22266 -1.6796875Q170.3125 -0.55078125 170.3125 1.5664062ZM168.01562 1.5664062Q168.01562 0.05859375 167.52344 -0.62109375Q167.03125 -1.3007812 166.09375 -1.3007812Q164.09375 -1.3007812 164.09375 1.5664062Q164.09375 2.9804688 164.58203 3.71875Q165.07031 4.4570312 165.99219 4.4570312Q168.01562 4.4570312 168.01562 1.5664062ZM174.00781 5.9570312Q172.78125 5.9570312 172.09375 5.2890625Q171.40625 4.6210938 171.40625 3.4101562Q171.40625 2.0976562 172.26172 1.4101562Q173.11719 0.72265625 174.74219 0.70703125L176.5625 0.67578125L176.5625 0.24609375Q176.5625 -0.58203125 176.27344 -0.984375Q175.98438 -1.3867188 175.32812 -1.3867188Q174.71875 -1.3867188 174.43359 -1.109375Q174.14844 -0.83203125 174.07812 -0.19140625L171.78906 -0.30078125Q172 -1.5351562 172.91797 -2.171875Q173.83594 -2.8085938 175.42188 -2.8085938Q177.02344 -2.8085938 177.89062 -2.0195312Q178.75781 -1.2304688 178.75781 0.22265625L178.75781 3.3007812Q178.75781 4.0117188 178.91797 4.28125Q179.07812 4.5507812 179.45312 4.5507812Q179.70312 4.5507812 179.9375 4.5039062L179.9375 5.6914062Q179.74219 5.7382812 179.58594 5.7773438Q179.42969 5.8164062 179.27344 5.8398438Q179.11719 5.8632812 178.94141 5.8789062Q178.76562 5.8945312 178.53125 5.8945312Q177.70312 5.8945312 177.30859 5.4882812Q176.91406 5.0820312 176.83594 4.2929688L176.78906 4.2929688Q175.86719 5.9570312 174.00781 5.9570312ZM176.5625 1.8867188L175.4375 1.9023438Q174.67188 1.9335938 174.35156 2.0703125Q174.03125 2.2070312 173.86328 2.4882812Q173.69531 2.7695312 173.69531 3.2382812Q173.69531 3.8398438 173.97266 4.1328125Q174.25 4.4257812 174.71094 4.4257812Q175.22656 4.4257812 175.65234 4.1445312Q176.07812 3.8632812 176.32031 3.3671875Q176.5625 2.8710938 176.5625 2.3164062L176.5625 1.8867188ZM186.42969 5.8007812Q186.39844 5.6835938 186.35547 5.2109375Q186.3125 4.7382812 186.3125 4.4257812L186.28125 4.4257812Q185.57031 5.9570312 183.57812 5.9570312Q182.10156 5.9570312 181.29688 4.8046875Q180.49219 3.6523438 180.49219 1.5820312Q180.49219 -0.51953125 181.33984 -1.6640625Q182.1875 -2.8085938 183.74219 -2.8085938Q184.64062 -2.8085938 185.29297 -2.4335938Q185.94531 -2.0585938 186.29688 -1.3164062L186.3125 -1.3164062L186.29688 -2.7070312L186.29688 -5.7929688L188.49219 -5.7929688L188.49219 3.9570312Q188.49219 4.7382812 188.55469 5.8007812L186.42969 5.8007812ZM186.32812 1.5273438Q186.32812 0.16015625 185.87109 -0.578125Q185.41406 -1.3164062 184.52344 -1.3164062Q183.64062 -1.3164062 183.21094 -0.6015625Q182.78125 0.11328125 182.78125 1.5820312Q182.78125 4.4570312 184.50781 4.4570312Q185.375 4.4570312 185.85156 3.6953125Q186.32812 2.9335938 186.32812 1.5273438ZM200.09375 -3.4257812L200.09375 5.8007812L197.78906 5.8007812L197.78906 -3.4257812L194.23438 -3.4257812L194.23438 -5.2070312L203.65625 -5.2070312L203.65625 -3.4257812L200.09375 -3.4257812ZM204.0625 5.8007812L204.0625 -0.66796875Q204.0625 -1.3632812 204.04297 -1.828125Q204.02344 -2.2929688 204 -2.6523438L206.09375 -2.6523438Q206.11719 -2.5117188 206.15625 -1.796875Q206.19531 -1.0820312 206.19531 -0.84765625L206.22656 -0.84765625Q206.54688 -1.7382812 206.79688 -2.1015625Q207.04688 -2.4648438 207.39062 -2.640625Q207.73438 -2.8164062 208.25 -2.8164062Q208.67188 -2.8164062 208.92969 -2.6992188L208.92969 -0.86328125Q208.39844 -0.98046875 207.99219 -0.98046875Q207.17188 -0.98046875 206.71484 -0.31640625Q206.25781 0.34765625 206.25781 1.6523438L206.25781 5.8007812L204.0625 5.8007812ZM213.75 5.9570312Q211.84375 5.9570312 210.82031 4.828125Q209.79688 3.6992188 209.79688 1.5351562Q209.79688 -0.55859375 210.83594 -1.6835938Q211.875 -2.8085938 213.78125 -2.8085938Q215.60156 -2.8085938 216.5625 -1.6015625Q217.52344 -0.39453125 217.52344 1.9335938L217.52344 1.9960938L212.10156 1.9960938Q212.10156 3.2304688 212.55859 3.859375Q213.01562 4.4882812 213.85938 4.4882812Q215.02344 4.4882812 215.32812 3.4804688L217.39844 3.6601562Q216.5 5.9570312 213.75 5.9570312ZM213.75 -1.4257812Q212.97656 -1.4257812 212.55859 -0.88671875Q212.14062 -0.34765625 212.11719 0.62109375L215.39844 0.62109375Q215.33594 -0.40234375 214.90625 -0.9140625Q214.47656 -1.4257812 213.75 -1.4257812ZM224.66406 5.8007812L224.66406 1.0585938Q224.66406 -1.1679688 223.15625 -1.1679688Q222.35938 -1.1679688 221.87109 -0.484375Q221.38281 0.19921875 221.38281 1.2695312L221.38281 5.8007812L219.1875 5.8007812L219.1875 -0.76171875Q219.1875 -1.4414062 219.16797 -1.875Q219.14844 -2.3085938 219.125 -2.6523438L221.21875 -2.6523438Q221.24219 -2.5039062 221.28125 -1.859375Q221.32031 -1.2148438 221.32031 -0.97265625L221.35156 -0.97265625Q221.79688 -1.9414062 222.46875 -2.3789062Q223.14062 -2.8164062 224.07031 -2.8164062Q225.41406 -2.8164062 226.13281 -1.9882812Q226.85156 -1.1601562 226.85156 0.43359375L226.85156 5.8007812L224.66406 5.8007812ZM234.4375 5.8007812Q234.40625 5.6835938 234.36328 5.2109375Q234.32031 4.7382812 234.32031 4.4257812L234.28906 4.4257812Q233.57812 5.9570312 231.58594 5.9570312Q230.10938 5.9570312 229.30469 4.8046875Q228.5 3.6523438 228.5 1.5820312Q228.5 -0.51953125 229.34766 -1.6640625Q230.19531 -2.8085938 231.75 -2.8085938Q232.64844 -2.8085938 233.30078 -2.4335938Q233.95312 -2.0585938 234.30469 -1.3164062L234.32031 -1.3164062L234.30469 -2.7070312L234.30469 -5.7929688L236.5 -5.7929688L236.5 3.9570312Q236.5 4.7382812 236.5625 5.8007812L234.4375 5.8007812ZM234.33594 1.5273438Q234.33594 0.16015625 233.87891 -0.578125Q233.42188 -1.3164062 232.53125 -1.3164062Q231.64844 -1.3164062 231.21875 -0.6015625Q230.78906 0.11328125 230.78906 1.5820312Q230.78906 4.4570312 232.51562 4.4570312Q233.38281 4.4570312 233.85938 3.6953125Q234.33594 2.9335938 234.33594 1.5273438ZM245.85938 3.3320312Q245.85938 4.5585938 244.85547 5.2578125Q243.85156 5.9570312 242.07812 5.9570312Q240.33594 5.9570312 239.41016 5.40625Q238.48438 4.8554688 238.17969 3.6914062L240.10938 3.4023438Q240.27344 4.0039062 240.67578 4.2539062Q241.07812 4.5039062 242.07812 4.5039062Q243 4.5039062 243.42188 4.2695312Q243.84375 4.0351562 243.84375 3.5351562Q243.84375 3.1289062 243.50391 2.890625Q243.16406 2.6523438 242.35156 2.4882812Q240.49219 2.1210938 239.84375 1.8046875Q239.19531 1.4882812 238.85547 0.984375Q238.51562 0.48046875 238.51562 -0.25390625Q238.51562 -1.4648438 239.44922 -2.140625Q240.38281 -2.8164062 242.09375 -2.8164062Q243.60156 -2.8164062 244.51953 -2.2304688Q245.4375 -1.6445312 245.66406 -0.53515625L243.71875 -0.33203125Q243.625 -0.84765625 243.25781 -1.1015625Q242.89062 -1.3554688 242.09375 -1.3554688Q241.3125 -1.3554688 240.92188 -1.15625Q240.53125 -0.95703125 240.53125 -0.48828125Q240.53125 -0.12109375 240.83203 0.09375Q241.13281 0.30859375 241.84375 0.44921875Q242.83594 0.65234375 243.60547 0.8671875Q244.375 1.0820312 244.83984 1.3789062Q245.30469 1.6757812 245.58203 2.140625Q245.85938 2.6054688 245.85938 3.3320312Z"/>
	<path fill="none" stroke="black" stroke-width="1" stroke-miterlimit="10" stroke-opacity="0.10196079" d="M49 749.5L1195 749.5"/>
	<clipPath id="cl_164">
		<rect y="749.20001" width="1200" height="50.799988"/>
	</clipPath>
	<g clip-path="url(#cl_164)">
		<path fill="#666" transform="translate(49.75 760.2)" d="M-12.429688 11.300586L-12.429688 10.404101L-10.326172 10.404101L-10.326172 4.0525389L-12.189453 5.382617L-12.189453 4.3865232L-10.238281 3.0447264L-9.265625 3.0447264L-9.265625 10.404101L-7.2558594 10.404101L-7.2558594 11.300586L-12.429688 11.300586ZM-5.5742188 11.300586L-5.5742188 10.017383L-4.4316406 10.017383L-4.4316406 11.300586L-5.5742188 11.300586ZM-2.7324219 11.300586L-2.7324219 10.556445Q-2.4335938 9.8708982 -2.0029297 9.3464842Q-1.5722656 8.8220701 -1.0976562 8.3972654Q-0.62304688 7.9724607 -0.15722656 7.6091795Q0.30859375 7.2458982 0.68359375 6.882617Q1.0585938 6.5193357 1.2900391 6.1208982Q1.5214844 5.7224607 1.5214844 5.2185545Q1.5214844 4.538867 1.1230469 4.163867Q0.72460938 3.788867 0.015625 3.788867Q-0.65820312 3.788867 -1.0947266 4.1550779Q-1.53125 4.5212889 -1.6074219 5.1833982L-2.6855469 5.0837889Q-2.5683594 4.0935545 -1.8447266 3.507617Q-1.1210938 2.9216795 0.015625 2.9216795Q1.2636719 2.9216795 1.9345703 3.5105467Q2.6054688 4.0994139 2.6054688 5.1833982Q2.6054688 5.663867 2.3857422 6.1384764Q2.1660156 6.6130857 1.7324219 7.0876951Q1.2988281 7.5623045 0.07421875 8.5583982Q-0.59960938 9.1091795 -0.99804688 9.5515623Q-1.3964844 9.9939451 -1.5722656 10.404101L2.734375 10.404101L2.734375 11.300586L-2.7324219 11.300586ZM4.4335938 11.300586L4.4335938 10.017383L5.5761719 10.017383L5.5761719 11.300586L4.4335938 11.300586ZM12.876953 7.1697264Q12.876953 9.2380857 12.147461 10.327929Q11.417969 11.417773 9.9941406 11.417773Q8.5703125 11.417773 7.8554688 10.333789Q7.140625 9.2498045 7.140625 7.1697264Q7.140625 5.0427732 7.8349609 3.9822264Q8.5292969 2.9216795 10.029297 2.9216795Q11.488281 2.9216795 12.182617 3.9939451Q12.876953 5.0662107 12.876953 7.1697264ZM11.804688 7.1697264Q11.804688 5.382617 11.391602 4.5798826Q10.978516 3.7771482 10.029297 3.7771482Q9.0566406 3.7771482 8.6318359 4.5681639Q8.2070312 5.3591795 8.2070312 7.1697264Q8.2070312 8.9275389 8.6376953 9.741992Q9.0683594 10.556445 10.005859 10.556445Q10.9375 10.556445 11.371094 9.7244139Q11.804688 8.8923826 11.804688 7.1697264Z"/>
	</g>
	<path fill="none" stroke="black" stroke-width="1" stroke-miterlimit="10" stroke-opacity="0.10196079" d="M49.5 71L49.5 750"/>
	<clipPath id="cl_166">
		<rect width="49.75" height="800"/>
	</clipPath>
	<g clip-path="url(#cl_166)">
		<path fill="#666" transform="translate(38.75 749.2)" d="M-0.46679688 -0.030273438Q-0.46679688 2.0380859 -1.1962891 3.1279297Q-1.9257812 4.2177734 -3.3496094 4.2177734Q-4.7734375 4.2177734 -5.4882812 3.1337891Q-6.203125 2.0498047 -6.203125 -0.030273438Q-6.203125 -2.1572266 -5.5087891 -3.2177734Q-4.8144531 -4.2783203 -3.3144531 -4.2783203Q-1.8554688 -4.2783203 -1.1611328 -3.2060547Q-0.46679688 -2.1337891 -0.46679688 -0.030273438ZM-1.5390625 -0.030273438Q-1.5390625 -1.8173828 -1.9521484 -2.6201172Q-2.3652344 -3.4228516 -3.3144531 -3.4228516Q-4.2871094 -3.4228516 -4.7119141 -2.6318359Q-5.1367188 -1.8408203 -5.1367188 -0.030273438Q-5.1367188 1.7275391 -4.7060547 2.5419922Q-4.2753906 3.3564453 -3.3378906 3.3564453Q-2.40625 3.3564453 -1.9726562 2.5244141Q-1.5390625 1.6923828 -1.5390625 -0.030273438Z"/>
	</g>
	<clipPath id="cl_167">
		<rect width="49.75" height="800"/>
	</clipPath>
	<g clip-path="url(#cl_167)">
		<path fill="#666" transform="translate(38.75 664.45)" d="M-0.50195312 1.4111328Q-0.50195312 2.7177734 -1.2783203 3.4677734Q-2.0546875 4.2177734 -3.4316406 4.2177734Q-4.5859375 4.2177734 -5.2949219 3.7138672Q-6.0039062 3.2099609 -6.1914062 2.2548828L-5.125 2.1318359Q-4.7910156 3.3564453 -3.4082031 3.3564453Q-2.5585938 3.3564453 -2.078125 2.84375Q-1.5976562 2.3310547 -1.5976562 1.4345703Q-1.5976562 0.65527344 -2.0810547 0.17480469Q-2.5644531 -0.30566406 -3.3847656 -0.30566406Q-3.8125 -0.30566406 -4.1816406 -0.17089844Q-4.5507812 -0.036132812 -4.9199219 0.28613281L-5.9511719 0.28613281L-5.6757812 -4.1552734L-0.98242188 -4.1552734L-0.98242188 -3.2587891L-4.7148438 -3.2587891L-4.8730469 -0.63964844Q-4.1875 -1.1669922 -3.1679688 -1.1669922Q-1.9492188 -1.1669922 -1.2255859 -0.45214844Q-0.50195312 0.26269531 -0.50195312 1.4111328Z"/>
	</g>
	<clipPath id="cl_168">
		<rect width="49.75" height="800"/>
	</clipPath>
	<g clip-path="url(#cl_168)">
		<path fill="#666" transform="translate(38.75 579.7)" d="M-12.429688 4.1005859L-12.429688 3.2041016L-10.326172 3.2041016L-10.326172 -3.1474609L-12.189453 -1.8173828L-12.189453 -2.8134766L-10.238281 -4.1552734L-9.265625 -4.1552734L-9.265625 3.2041016L-7.2558594 3.2041016L-7.2558594 4.1005859L-12.429688 4.1005859ZM-0.46484375 -0.030273438Q-0.46484375 2.0380859 -1.1943359 3.1279297Q-1.9238281 4.2177734 -3.3476562 4.2177734Q-4.7714844 4.2177734 -5.4863281 3.1337891Q-6.2011719 2.0498047 -6.2011719 -0.030273438Q-6.2011719 -2.1572266 -5.5068359 -3.2177734Q-4.8125 -4.2783203 -3.3125 -4.2783203Q-1.8535156 -4.2783203 -1.1591797 -3.2060547Q-0.46484375 -2.1337891 -0.46484375 -0.030273438ZM-1.5371094 -0.030273438Q-1.5371094 -1.8173828 -1.9501953 -2.6201172Q-2.3632812 -3.4228516 -3.3125 -3.4228516Q-4.2851562 -3.4228516 -4.7099609 -2.6318359Q-5.1347656 -1.8408203 -5.1347656 -0.030273438Q-5.1347656 1.7275391 -4.7041016 2.5419922Q-4.2734375 3.3564453 -3.3359375 3.3564453Q-2.4042969 3.3564453 -1.9707031 2.5244141Q-1.5371094 1.6923828 -1.5371094 -0.030273438Z"/>
	</g>
	<clipPath id="cl_169">
		<rect width="49.75" height="800"/>
	</clipPath>
	<g clip-path="url(#cl_169)">
		<path fill="#666" transform="translate(38.75 494.95)" d="M-12.429688 4.1005859L-12.429688 3.2041016L-10.326172 3.2041016L-10.326172 -3.1474609L-12.189453 -1.8173828L-12.189453 -2.8134766L-10.238281 -4.1552734L-9.265625 -4.1552734L-9.265625 3.2041016L-7.2558594 3.2041016L-7.2558594 4.1005859L-12.429688 4.1005859ZM-0.5 1.4111328Q-0.5 2.7177734 -1.2763672 3.4677734Q-2.0527344 4.2177734 -3.4296875 4.2177734Q-4.5839844 4.2177734 -5.2929688 3.7138672Q-6.0019531 3.2099609 -6.1894531 2.2548828L-5.1230469 2.1318359Q-4.7890625 3.3564453 -3.40625 3.3564453Q-2.5566406 3.3564453 -2.0761719 2.84375Q-1.5957031 2.3310547 -1.5957031 1.4345703Q-1.5957031 0.65527344 -2.0791016 0.17480469Q-2.5625 -0.30566406 -3.3828125 -0.30566406Q-3.8105469 -0.30566406 -4.1796875 -0.17089844Q-4.5488281 -0.036132812 -4.9179688 0.28613281L-5.9492188 0.28613281L-5.6738281 -4.1552734L-0.98046875 -4.1552734L-0.98046875 -3.2587891L-4.7128906 -3.2587891L-4.8710938 -0.63964844Q-4.1855469 -1.1669922 -3.1660156 -1.1669922Q-1.9472656 -1.1669922 -1.2236328 -0.45214844Q-0.5 0.26269531 -0.5 1.4111328Z"/>
	</g>
	<clipPath id="cl_16a">
		<rect width="49.75" height="800"/>
	</clipPath>
	<g clip-path="url(#cl_16a)">
		<path fill="#666" transform="translate(38.75 410.2)" d="M-12.740234 4.1005859L-12.740234 3.3564453Q-12.441406 2.6708984 -12.010742 2.1464844Q-11.580078 1.6220703 -11.105469 1.1972656Q-10.630859 0.77246094 -10.165039 0.40917969Q-9.6992188 0.045898438 -9.3242188 -0.31738281Q-8.9492188 -0.68066406 -8.7177734 -1.0791016Q-8.4863281 -1.4775391 -8.4863281 -1.9814453Q-8.4863281 -2.6611328 -8.8847656 -3.0361328Q-9.2832031 -3.4111328 -9.9921875 -3.4111328Q-10.666016 -3.4111328 -11.102539 -3.0449219Q-11.539062 -2.6787109 -11.615234 -2.0166016L-12.693359 -2.1162109Q-12.576172 -3.1064453 -11.852539 -3.6923828Q-11.128906 -4.2783203 -9.9921875 -4.2783203Q-8.7441406 -4.2783203 -8.0732422 -3.6894531Q-7.4023438 -3.1005859 -7.4023438 -2.0166016Q-7.4023438 -1.5361328 -7.6220703 -1.0615234Q-7.8417969 -0.58691406 -8.2753906 -0.11230469Q-8.7089844 0.36230469 -9.9335938 1.3583984Q-10.607422 1.9091797 -11.005859 2.3515625Q-11.404297 2.7939453 -11.580078 3.2041016L-7.2734375 3.2041016L-7.2734375 4.1005859L-12.740234 4.1005859ZM-0.46484375 -0.030273438Q-0.46484375 2.0380859 -1.1943359 3.1279297Q-1.9238281 4.2177734 -3.3476562 4.2177734Q-4.7714844 4.2177734 -5.4863281 3.1337891Q-6.2011719 2.0498047 -6.2011719 -0.030273438Q-6.2011719 -2.1572266 -5.5068359 -3.2177734Q-4.8125 -4.2783203 -3.3125 -4.2783203Q-1.8535156 -4.2783203 -1.1591797 -3.2060547Q-0.46484375 -2.1337891 -0.46484375 -0.030273438ZM-1.5371094 -0.030273438Q-1.5371094 -1.8173828 -1.9501953 -2.6201172Q-2.3632812 -3.4228516 -3.3125 -3.4228516Q-4.2851562 -3.4228516 -4.7099609 -2.6318359Q-5.1347656 -1.8408203 -5.1347656 -0.030273438Q-5.1347656 1.7275391 -4.7041016 2.5419922Q-4.2734375 3.3564453 -3.3359375 3.3564453Q-2.4042969 3.3564453 -1.9707031 2.5244141Q-1.5371094 1.6923828 -1.5371094 -0.030273438Z"/>
	</g>
	<clipPath id="cl_16b">
		<rect width="49.75" height="800"/>
	</clipPath>
	<g clip-path="url(#cl_16b)">
		<path fill="#666" transform="translate(38.75 325.45)" d="M-12.740234 4.1005859L-12.740234 3.3564453Q-12.441406 2.6708984 -12.010742 2.1464844Q-11.580078 1.6220703 -11.105469 1.1972656Q-10.630859 0.77246094 -10.165039 0.40917969Q-9.6992188 0.045898438 -9.3242188 -0.31738281Q-8.9492188 -0.68066406 -8.7177734 -1.0791016Q-8.4863281 -1.4775391 -8.4863281 -1.9814453Q-8.4863281 -2.6611328 -8.8847656 -3.0361328Q-9.2832031 -3.4111328 -9.9921875 -3.4111328Q-10.666016 -3.4111328 -11.102539 -3.0449219Q-11.539062 -2.6787109 -11.615234 -2.0166016L-12.693359 -2.1162109Q-12.576172 -3.1064453 -11.852539 -3.6923828Q-11.128906 -4.2783203 -9.9921875 -4.2783203Q-8.7441406 -4.2783203 -8.0732422 -3.6894531Q-7.4023438 -3.1005859 -7.4023438 -2.0166016Q-7.4023438 -1.5361328 -7.6220703 -1.0615234Q-7.8417969 -0.58691406 -8.2753906 -0.11230469Q-8.7089844 0.36230469 -9.9335938 1.3583984Q-10.607422 1.9091797 -11.005859 2.3515625Q-11.404297 2.7939453 -11.580078 3.2041016L-7.2734375 3.2041016L-7.2734375 4.1005859L-12.740234 4.1005859ZM-0.5 1.4111328Q-0.5 2.7177734 -1.2763672 3.4677734Q-2.0527344 4.2177734 -3.4296875 4.2177734Q-4.5839844 4.2177734 -5.2929688 3.7138672Q-6.0019531 3.2099609 -6.1894531 2.2548828L-5.1230469 2.1318359Q-4.7890625 3.3564453 -3.40625 3.3564453Q-2.5566406 3.3564453 -2.0761719 2.84375Q-1.5957031 2.3310547 -1.5957031 1.4345703Q-1.5957031 0.65527344 -2.0791016 0.17480469Q-2.5625 -0.30566406 -3.3828125 -0.30566406Q-3.8105469 -0.30566406 -4.1796875 -0.17089844Q-4.5488281 -0.036132812 -4.9179688 0.28613281L-5.9492188 0.28613281L-5.6738281 -4.1552734L-0.98046875 -4.1552734L-0.98046875 -3.2587891L-4.7128906 -3.2587891L-4.8710938 -0.63964844Q-4.1855469 -1.1669922 -3.1660156 -1.1669922Q-1.9472656 -1.1669922 -1.2236328 -0.45214844Q-0.5 0.26269531 -0.5 1.4111328Z"/>
	</g>
	<clipPath id="cl_16c">
		<rect width="49.75" height="800"/>
	</clipPath>
	<g clip-path="url(#cl_16c)">
		<path fill="#666" transform="translate(38.75 240.7)" d="M-7.1972656 1.8212891Q-7.1972656 2.9638672 -7.9238281 3.5908203Q-8.6503906 4.2177734 -9.9980469 4.2177734Q-11.251953 4.2177734 -11.999023 3.6523438Q-12.746094 3.0869141 -12.886719 1.9794922L-11.796875 1.8798828Q-11.585938 3.3447266 -9.9980469 3.3447266Q-9.2011719 3.3447266 -8.7470703 2.9521484Q-8.2929688 2.5595703 -8.2929688 1.7861328Q-8.2929688 1.1123047 -8.8115234 0.734375Q-9.3300781 0.35644531 -10.308594 0.35644531L-10.90625 0.35644531L-10.90625 -0.55761719L-10.332031 -0.55761719Q-9.4648438 -0.55761719 -8.9873047 -0.93554688Q-8.5097656 -1.3134766 -8.5097656 -1.9814453Q-8.5097656 -2.6435547 -8.8994141 -3.0273438Q-9.2890625 -3.4111328 -10.056641 -3.4111328Q-10.753906 -3.4111328 -11.18457 -3.0537109Q-11.615234 -2.6962891 -11.685547 -2.0458984L-12.746094 -2.1279297Q-12.628906 -3.1416016 -11.905273 -3.7099609Q-11.181641 -4.2783203 -10.044922 -4.2783203Q-8.8027344 -4.2783203 -8.1142578 -3.7011719Q-7.4257812 -3.1240234 -7.4257812 -2.0927734Q-7.4257812 -1.3017578 -7.8681641 -0.80664062Q-8.3105469 -0.31152344 -9.1542969 -0.13574219L-9.1542969 -0.11230469Q-8.2285156 -0.012695312 -7.7128906 0.50878906Q-7.1972656 1.0302734 -7.1972656 1.8212891ZM-0.46484375 -0.030273438Q-0.46484375 2.0380859 -1.1943359 3.1279297Q-1.9238281 4.2177734 -3.3476562 4.2177734Q-4.7714844 4.2177734 -5.4863281 3.1337891Q-6.2011719 2.0498047 -6.2011719 -0.030273438Q-6.2011719 -2.1572266 -5.5068359 -3.2177734Q-4.8125 -4.2783203 -3.3125 -4.2783203Q-1.8535156 -4.2783203 -1.1591797 -3.2060547Q-0.46484375 -2.1337891 -0.46484375 -0.030273438ZM-1.5371094 -0.030273438Q-1.5371094 -1.8173828 -1.9501953 -2.6201172Q-2.3632812 -3.4228516 -3.3125 -3.4228516Q-4.2851562 -3.4228516 -4.7099609 -2.6318359Q-5.1347656 -1.8408203 -5.1347656 -0.030273438Q-5.1347656 1.7275391 -4.7041016 2.5419922Q-4.2734375 3.3564453 -3.3359375 3.3564453Q-2.4042969 3.3564453 -1.9707031 2.5244141Q-1.5371094 1.6923828 -1.5371094 -0.030273438Z"/>
	</g>
	<clipPath id="cl_16d">
		<rect width="49.75" height="800"/>
	</clipPath>
	<g clip-path="url(#cl_16d)">
		<path fill="#666" transform="translate(38.75 155.95)" d="M-7.1972656 1.8212891Q-7.1972656 2.9638672 -7.9238281 3.5908203Q-8.6503906 4.2177734 -9.9980469 4.2177734Q-11.251953 4.2177734 -11.999023 3.6523438Q-12.746094 3.0869141 -12.886719 1.9794922L-11.796875 1.8798828Q-11.585938 3.3447266 -9.9980469 3.3447266Q-9.2011719 3.3447266 -8.7470703 2.9521484Q-8.2929688 2.5595703 -8.2929688 1.7861328Q-8.2929688 1.1123047 -8.8115234 0.734375Q-9.3300781 0.35644531 -10.308594 0.35644531L-10.90625 0.35644531L-10.90625 -0.55761719L-10.332031 -0.55761719Q-9.4648438 -0.55761719 -8.9873047 -0.93554688Q-8.5097656 -1.3134766 -8.5097656 -1.9814453Q-8.5097656 -2.6435547 -8.8994141 -3.0273438Q-9.2890625 -3.4111328 -10.056641 -3.4111328Q-10.753906 -3.4111328 -11.18457 -3.0537109Q-11.615234 -2.6962891 -11.685547 -2.0458984L-12.746094 -2.1279297Q-12.628906 -3.1416016 -11.905273 -3.7099609Q-11.181641 -4.2783203 -10.044922 -4.2783203Q-8.8027344 -4.2783203 -8.1142578 -3.7011719Q-7.4257812 -3.1240234 -7.4257812 -2.0927734Q-7.4257812 -1.3017578 -7.8681641 -0.80664062Q-8.3105469 -0.31152344 -9.1542969 -0.13574219L-9.1542969 -0.11230469Q-8.2285156 -0.012695312 -7.7128906 0.50878906Q-7.1972656 1.0302734 -7.1972656 1.8212891ZM-0.5 1.4111328Q-0.5 2.7177734 -1.2763672 3.4677734Q-2.0527344 4.2177734 -3.4296875 4.2177734Q-4.5839844 4.2177734 -5.2929688 3.7138672Q-6.0019531 3.2099609 -6.1894531 2.2548828L-5.1230469 2.1318359Q-4.7890625 3.3564453 -3.40625 3.3564453Q-2.5566406 3.3564453 -2.0761719 2.84375Q-1.5957031 2.3310547 -1.5957031 1.4345703Q-1.5957031 0.65527344 -2.0791016 0.17480469Q-2.5625 -0.30566406 -3.3828125 -0.30566406Q-3.8105469 -0.30566406 -4.1796875 -0.17089844Q-4.5488281 -0.036132812 -4.9179688 0.28613281L-5.9492188 0.28613281L-5.6738281 -4.1552734L-0.98046875 -4.1552734L-0.98046875 -3.2587891L-4.7128906 -3.2587891L-4.8710938 -0.63964844Q-4.1855469 -1.1669922 -3.1660156 -1.1669922Q-1.9472656 -1.1669922 -1.2236328 -0.45214844Q-0.5 0.26269531 -0.5 1.4111328Z"/>
	</g>
	<clipPath id="cl_16e">
		<rect width="49.75" height="800"/>
	</clipPath>
	<g clip-path="url(#cl_16e)">
		<path fill="#666" transform="translate(38.75 71.2)" d="M-8.1816406 2.2314453L-8.1816406 4.1005859L-9.1777344 4.1005859L-9.1777344 2.2314453L-13.068359 2.2314453L-13.068359 1.4111328L-9.2890625 -4.1552734L-8.1816406 -4.1552734L-8.1816406 1.3994141L-7.0214844 1.3994141L-7.0214844 2.2314453L-8.1816406 2.2314453ZM-9.1777344 -2.9658203Q-9.1894531 -2.9306641 -9.3417969 -2.6552734Q-9.4941406 -2.3798828 -9.5703125 -2.2685547L-11.685547 0.84863281L-12.001953 1.2822266L-12.095703 1.3994141L-9.1777344 1.3994141L-9.1777344 -2.9658203ZM-0.46484375 -0.030273438Q-0.46484375 2.0380859 -1.1943359 3.1279297Q-1.9238281 4.2177734 -3.3476562 4.2177734Q-4.7714844 4.2177734 -5.4863281 3.1337891Q-6.2011719 2.0498047 -6.2011719 -0.030273438Q-6.2011719 -2.1572266 -5.5068359 -3.2177734Q-4.8125 -4.2783203 -3.3125 -4.2783203Q-1.8535156 -4.2783203 -1.1591797 -3.2060547Q-0.46484375 -2.1337891 -0.46484375 -0.030273438ZM-1.5371094 -0.030273438Q-1.5371094 -1.8173828 -1.9501953 -2.6201172Q-2.3632812 -3.4228516 -3.3125 -3.4228516Q-4.2851562 -3.4228516 -4.7099609 -2.6318359Q-5.1347656 -1.8408203 -5.1347656 -0.030273438Q-5.1347656 1.7275391 -4.7041016 2.5419922Q-4.2734375 3.3564453 -3.3359375 3.3564453Q-2.4042969 3.3564453 -1.9707031 2.5244141Q-1.5371094 1.6923828 -1.5371094 -0.030273438Z"/>
	</g>
	<clipPath id="cl_170">
		<rect x="43.75" y="65.199997" width="1156.25" height="690"/>
	</clipPath>
	<g clip-path="url(#cl_170)">
		<path fill="none" stroke="#C32222" stroke-width="2" stroke-miterlimit="10" d=""/>
	</g>
	<clipPath id="cl_171">
		<rect x="43.75" y="65.199997" width="1156.25" height="690"/>
	</clipPath>
	<g clip-path="url(#cl_171)">
		<path fill="#C32222" fill-opacity="0.2" d="M52.75 105.1Q52.75 105.24738 52.73555 105.39405Q52.721107 105.54072 52.692352 105.68526Q52.663601 105.82981 52.620815 105.97084Q52.578033 106.11188 52.521633 106.24803Q52.465233 106.3842 52.39576 106.51418Q52.326286 106.64415 52.244404 106.76669Q52.162525 106.88924 52.069027 107.00317Q51.975533 107.1171 51.871319 107.22131Q51.767105 107.32553 51.653179 107.41904Q51.539253 107.51253 51.416706 107.5944Q51.294167 107.67628 51.164188 107.74577Q51.03421 107.81523 50.898048 107.87163Q50.76189 107.92803 50.620857 107.97081Q50.47982 108.0136 50.33527 108.04234Q50.19072 108.07111 50.044052 108.08556Q49.897381 108.1 49.75 108.1Q49.602619 108.1 49.455948 108.08556Q49.309277 108.07111 49.164726 108.04234Q49.02018 108.0136 48.879143 107.97082Q48.73811 107.92803 48.601944 107.87163Q48.465782 107.81523 48.335808 107.74576Q48.205826 107.67628 48.083282 107.5944Q47.960747 107.51253 47.846817 107.41902Q47.732895 107.32553 47.628677 107.22131Q47.524467 107.1171 47.430969 107.00317Q47.337471 106.88924 47.255585 106.76669Q47.173706 106.64416 47.104233 106.51418Q47.03476 106.3842 46.978359 106.24804Q46.921963 106.11189 46.879177 105.97085Q46.836395 105.82982 46.80764 105.68526Q46.778893 105.54072 46.76445 105.39405Q46.75 105.24738 46.75 105.1Q46.75 104.95262 46.76445 104.80595Q46.778896 104.65927 46.807648 104.51472Q46.836403 104.37018 46.879181 104.22914Q46.921963 104.08811 46.978359 103.95194Q47.03476 103.81578 47.104233 103.68581Q47.173706 103.55582 47.255585 103.43328Q47.337471 103.31075 47.430969 103.19682Q47.524467 103.08289 47.628677 102.97868Q47.732895 102.87447 47.846817 102.78098Q47.960747 102.68747 48.083282 102.60558Q48.205826 102.52371 48.335808 102.45423Q48.465782 102.38476 48.601944 102.32835Q48.73811 102.27196 48.879143 102.22918Q49.02018 102.1864 49.164726 102.15764Q49.309277 102.12889 49.455948 102.11446Q49.602619 102.10001 49.75 102.1Q49.897381 102.10001 50.044052 102.11445Q50.19072 102.12889 50.335266 102.15764Q50.479816 102.1864 50.620853 102.22918Q50.761887 102.27196 50.898045 102.32835Q51.03421 102.38476 51.164188 102.45424Q51.294167 102.52371 51.416706 102.60558Q51.539253 102.68747 51.653179 102.78098Q51.767105 102.87447 51.871315 102.97868Q51.975533 103.08289 52.069023 103.19682Q52.162521 103.31074 52.2444 103.43327Q52.326279 103.55582 52.395756 103.68581Q52.465233 103.81578 52.521633 103.95194Q52.578033 104.08811 52.620815 104.22914Q52.663597 104.37018 52.692348 104.51472Q52.721107 104.65928 52.73555 104.80595Q52.75 104.95262 52.75 105.1Z"/>
		<path fill="none" stroke="#C32222" stroke-width="2" stroke-miterlimit="10" d="M52.75 105.1Q52.75 105.24738 52.73555 105.39405Q52.721107 105.54072 52.692352 105.68526Q52.663601 105.82981 52.620815 105.97084Q52.578033 106.11188 52.521633 106.24803Q52.465233 106.3842 52.39576 106.51418Q52.326286 106.64415 52.244404 106.76669Q52.162525 106.88924 52.069027 107.00317Q51.975533 107.1171 51.871319 107.22131Q51.767105 107.32553 51.653179 107.41904Q51.539253 107.51253 51.416706 107.5944Q51.294167 107.67628 51.164188 107.74577Q51.03421 107.81523 50.898048 107.87163Q50.76189 107.92803 50.620857 107.97081Q50.47982 108.0136 50.33527 108.04234Q50.19072 108.07111 50.044052 108.08556Q49.897381 108.1 49.75 108.1Q49.602619 108.1 49.455948 108.08556Q49.309277 108.07111 49.164726 108.04234Q49.02018 108.0136 48.879143 107.97082Q48.73811 107.92803 48.601944 107.87163Q48.465782 107.81523 48.335808 107.74576Q48.205826 107.67628 48.083282 107.5944Q47.960747 107.51253 47.846817 107.41902Q47.732895 107.32553 47.628677 107.22131Q47.524467 107.1171 47.430969 107.00317Q47.337471 106.88924 47.255585 106.76669Q47.173706 106.64416 47.104233 106.51418Q47.03476 106.3842 46.978359 106.24804Q46.921963 106.11189 46.879177 105.97085Q46.836395 105.82982 46.80764 105.68526Q46.778893 105.54072 46.76445 105.39405Q46.75 105.24738 46.75 105.1Q46.75 104.95262 46.76445 104.80595Q46.778896 104.65927 46.807648 104.51472Q46.836403 104.37018 46.879181 104.22914Q46.921963 104.08811 46.978359 103.95194Q47.03476 103.81578 47.104233 103.68581Q47.173706 103.55582 47.255585 103.43328Q47.337471 103.31075 47.430969 103.19682Q47.524467 103.08289 47.628677 102.97868Q47.732895 102.87447 47.846817 102.78098Q47.960747 102.68747 48.083282 102.60558Q48.205826 102.52371 48.335808 102.45423Q48.465782 102.38476 48.601944 102.32835Q48.73811 102.27196 48.879143 102.22918Q49.02018 102.1864 49.164726 102.15764Q49.309277 102.12889 49.455948 102.11446Q49.602619 102.10001 49.75 102.1Q49.897381 102.10001 50.044052 102.11445Q50.19072 102.12889 50.335266 102.15764Q50.479816 102.1864 50.620853 102.22918Q50.761887 102.27196 50.898045 102.32835Q51.03421 102.38476 51.164188 102.45424Q51.294167 102.52371 51.416706 102.60558Q51.539253 102.68747 51.653179 102.78098Q51.767105 102.87447 51.871315 102.97868Q51.975533 103.08289 52.069023 103.19682Q52.162521 103.31074 52.2444 103.43327Q52.326279 103.55582 52.395756 103.68581Q52.465233 103.81578 52.521633 103.95194Q52.578033 104.08811 52.620815 104.22914Q52.663597 104.37018 52.692348 104.51472Q52.721107 104.65928 52.73555 104.80595Q52.75 104.95262 52.75 105.1Z"/>
	</g>
</svg>
