<?xml version="1.0" encoding="utf-8" ?>
<svg xmlns="http://www.w3.org/2000/svg" xmlns:xlink="http://www.w3.org/1999/xlink" width="1200" height="800">
	<rect fill="white" width="1200" height="800"/>
	<path fill="none" stroke="black" stroke-width="1" stroke-miterlimit="10" stroke-opacity="0.10196079" d="M49.5 71.199997L49.5 749"/>
	<path fill="none" stroke="black" stroke-width="1" stroke-miterlimit="10" stroke-opacity="0.10196079" d="M49.5 750L49.5 757.20001"/>
	<path fill="#666" transform="translate(621.875 788.8)" d="M-26.550781 4.1005859L-28.695312 0.67285156L-31.267578 0.67285156L-31.267578 4.1005859L-32.386719 4.1005859L-32.386719 -4.1552734L-28.501953 -4.1552734Q-27.107422 -4.1552734 -26.348633 -3.53125Q-25.589844 -2.9072266 -25.589844 -1.7939453Q-25.589844 -0.87402344 -26.125977 -0.24707031Q-26.662109 0.37988281 -27.605469 0.54394531L-25.261719 4.1005859L-26.550781 4.1005859ZM-26.714844 -1.7822266Q-26.714844 -2.5029297 -27.204102 -2.8808594Q-27.693359 -3.2587891 -28.613281 -3.2587891L-31.267578 -3.2587891L-31.267578 -0.21191406L-28.566406 -0.21191406Q-27.681641 -0.21191406 -27.198242 -0.625Q-26.714844 -1.0380859 -26.714844 -1.7822266ZM-23.087891 1.1533203Q-23.087891 2.2431641 -22.636719 2.8349609Q-22.185547 3.4267578 -21.318359 3.4267578Q-20.632812 3.4267578 -20.219727 3.1513672Q-19.806641 2.8759766 -19.660156 2.4541016L-18.734375 2.7177734Q-19.302734 4.2177734 -21.318359 4.2177734Q-22.724609 4.2177734 -23.459961 3.3798828Q-24.195312 2.5419922 -24.195312 0.88964844Q-24.195312 -0.68066406 -23.459961 -1.5185547Q-22.724609 -2.3564453 -21.359375 -2.3564453Q-18.564453 -2.3564453 -18.564453 1.0126953L-18.564453 1.1533203L-23.087891 1.1533203ZM-19.654297 0.34472656Q-19.742188 -0.65722656 -20.164062 -1.1171875Q-20.585938 -1.5771484 -21.376953 -1.5771484Q-22.144531 -1.5771484 -22.592773 -1.0644531Q-23.041016 -0.55175781 -23.076172 0.34472656L-19.654297 0.34472656ZM-17.222656 4.1005859L-17.222656 -4.5947266L-16.167969 -4.5947266L-16.167969 4.1005859L-17.222656 4.1005859ZM-13.748047 1.1533203Q-13.748047 2.2431641 -13.296875 2.8349609Q-12.845703 3.4267578 -11.978516 3.4267578Q-11.292969 3.4267578 -10.879883 3.1513672Q-10.466797 2.8759766 -10.320312 2.4541016L-9.3945312 2.7177734Q-9.9628906 4.2177734 -11.978516 4.2177734Q-13.384766 4.2177734 -14.120117 3.3798828Q-14.855469 2.5419922 -14.855469 0.88964844Q-14.855469 -0.68066406 -14.120117 -1.5185547Q-13.384766 -2.3564453 -12.019531 -2.3564453Q-9.2246094 -2.3564453 -9.2246094 1.0126953L-9.2246094 1.1533203L-13.748047 1.1533203ZM-10.314453 0.34472656Q-10.402344 -0.65722656 -10.824219 -1.1171875Q-11.246094 -1.5771484 -12.037109 -1.5771484Q-12.804688 -1.5771484 -13.25293 -1.0644531Q-13.701172 -0.55175781 -13.736328 0.34472656L-10.314453 0.34472656ZM-6.265625 4.2177734Q-7.2207031 4.2177734 -7.7011719 3.7138672Q-8.1816406 3.2099609 -8.1816406 2.3310547Q-8.1816406 1.3466797 -7.5341797 0.81933594Q-6.8867188 0.29199219 -5.4453125 0.25683594L-4.0214844 0.23339844L-4.0214844 -0.11230469Q-4.0214844 -0.88574219 -4.3496094 -1.2197266Q-4.6777344 -1.5537109 -5.3808594 -1.5537109Q-6.0898438 -1.5537109 -6.4121094 -1.3134766Q-6.734375 -1.0732422 -6.7988281 -0.54589844L-7.9003906 -0.64550781Q-7.6308594 -2.3564453 -5.3574219 -2.3564453Q-4.1621094 -2.3564453 -3.5585938 -1.8085938Q-2.9550781 -1.2607422 -2.9550781 -0.22363281L-2.9550781 2.5068359Q-2.9550781 2.9755859 -2.8320312 3.2128906Q-2.7089844 3.4501953 -2.3632812 3.4501953Q-2.2109375 3.4501953 -2.0175781 3.4091797L-2.0175781 4.0654297Q-2.4160156 4.1591797 -2.8320312 4.1591797Q-3.4179688 4.1591797 -3.6845703 3.8515625Q-3.9511719 3.5439453 -3.9863281 2.8876953L-4.0214844 2.8876953Q-4.4257812 3.6142578 -4.9619141 3.9160156Q-5.4980469 4.2177734 -6.265625 4.2177734ZM-6.0253906 3.4267578Q-5.4453125 3.4267578 -4.9941406 3.1630859Q-4.5429688 2.8994141 -4.2822266 2.4394531Q-4.0214844 1.9794922 -4.0214844 1.4931641L-4.0214844 0.97167969L-5.1757812 0.99511719Q-5.9199219 1.0068359 -6.3037109 1.1474609Q-6.6875 1.2880859 -6.8925781 1.5810547Q-7.0976562 1.8740234 -7.0976562 2.3486328Q-7.0976562 2.8642578 -6.8193359 3.1455078Q-6.5410156 3.4267578 -6.0253906 3.4267578ZM3.5488281 2.3486328Q3.5488281 3.2451172 2.8720703 3.7314453Q2.1953125 4.2177734 0.9765625 4.2177734Q-0.20703125 4.2177734 -0.84863281 3.828125Q-1.4902344 3.4384766 -1.6835938 2.6123047L-0.75195312 2.4306641Q-0.6171875 2.9404297 -0.1953125 3.1777344Q0.2265625 3.4150391 0.9765625 3.4150391Q1.7792969 3.4150391 2.1513672 3.1689453Q2.5234375 2.9228516 2.5234375 2.4306641Q2.5234375 2.0556641 2.265625 1.8212891Q2.0078125 1.5869141 1.4335938 1.4345703L0.67773438 1.2353516Q-0.23046875 1.0009766 -0.61425781 0.77539062Q-0.99804688 0.54980469 -1.2148438 0.22753906Q-1.4316406 -0.094726562 -1.4316406 -0.56347656Q-1.4316406 -1.4306641 -0.81347656 -1.8847656Q-0.1953125 -2.3388672 0.98828125 -2.3388672Q2.0371094 -2.3388672 2.6552734 -1.9697266Q3.2734375 -1.6005859 3.4375 -0.78613281L2.4882812 -0.66894531Q2.4003906 -1.0908203 2.0166016 -1.3164062Q1.6328125 -1.5419922 0.98828125 -1.5419922Q0.2734375 -1.5419922 -0.06640625 -1.3251953Q-0.40625 -1.1083984 -0.40625 -0.66894531Q-0.40625 -0.39941406 -0.265625 -0.22363281Q-0.125 -0.047851562 0.15039062 0.075195312Q0.42578125 0.19824219 1.3105469 0.41503906Q2.1484375 0.62597656 2.5175781 0.8046875Q2.8867188 0.98339844 3.1005859 1.2001953Q3.3144531 1.4169922 3.4316406 1.7011719Q3.5488281 1.9853516 3.5488281 2.3486328ZM5.5996094 1.1533203Q5.5996094 2.2431641 6.0507812 2.8349609Q6.5019531 3.4267578 7.3691406 3.4267578Q8.0546875 3.4267578 8.4677734 3.1513672Q8.8808594 2.8759766 9.0273438 2.4541016L9.953125 2.7177734Q9.3847656 4.2177734 7.3691406 4.2177734Q5.9628906 4.2177734 5.2275391 3.3798828Q4.4921875 2.5419922 4.4921875 0.88964844Q4.4921875 -0.68066406 5.2275391 -1.5185547Q5.9628906 -2.3564453 7.328125 -2.3564453Q10.123047 -2.3564453 10.123047 1.0126953L10.123047 1.1533203L5.5996094 1.1533203ZM9.0332031 0.34472656Q8.9453125 -0.65722656 8.5234375 -1.1171875Q8.1015625 -1.5771484 7.3105469 -1.5771484Q6.5429688 -1.5771484 6.0947266 -1.0644531Q5.6464844 -0.55175781 5.6113281 0.34472656L9.0332031 0.34472656ZM17.992188 -3.2412109L17.992188 4.1005859L16.878906 4.1005859L16.878906 -3.2412109L14.042969 -3.2412109L14.042969 -4.1552734L20.828125 -4.1552734L20.828125 -3.2412109L17.992188 -3.2412109ZM22.199219 4.2177734Q21.244141 4.2177734 20.763672 3.7138672Q20.283203 3.2099609 20.283203 2.3310547Q20.283203 1.3466797 20.930664 0.81933594Q21.578125 0.29199219 23.019531 0.25683594L24.443359 0.23339844L24.443359 -0.11230469Q24.443359 -0.88574219 24.115234 -1.2197266Q23.787109 -1.5537109 23.083984 -1.5537109Q22.375 -1.5537109 22.052734 -1.3134766Q21.730469 -1.0732422 21.666016 -0.54589844L20.564453 -0.64550781Q20.833984 -2.3564453 23.107422 -2.3564453Q24.302734 -2.3564453 24.90625 -1.8085938Q25.509766 -1.2607422 25.509766 -0.22363281L25.509766 2.5068359Q25.509766 2.9755859 25.632812 3.2128906Q25.755859 3.4501953 26.101562 3.4501953Q26.253906 3.4501953 26.447266 3.4091797L26.447266 4.0654297Q26.048828 4.1591797 25.632812 4.1591797Q25.046875 4.1591797 24.780273 3.8515625Q24.513672 3.5439453 24.478516 2.8876953L24.443359 2.8876953Q24.039062 3.6142578 23.50293 3.9160156Q22.966797 4.2177734 22.199219 4.2177734ZM22.439453 3.4267578Q23.019531 3.4267578 23.470703 3.1630859Q23.921875 2.8994141 24.182617 2.4394531Q24.443359 1.9794922 24.443359 1.4931641L24.443359 0.97167969L23.289062 0.99511719Q22.544922 1.0068359 22.161133 1.1474609Q21.777344 1.2880859 21.572266 1.5810547Q21.367188 1.8740234 21.367188 2.3486328Q21.367188 2.8642578 21.645508 3.1455078Q21.923828 3.4267578 22.439453 3.4267578ZM29.658203 6.5908203Q28.621094 6.5908203 28.005859 6.1835938Q27.390625 5.7763672 27.214844 5.0263672L28.275391 4.8740234Q28.380859 5.3134766 28.741211 5.5507812Q29.101562 5.7880859 29.6875 5.7880859Q31.263672 5.7880859 31.263672 3.9423828L31.263672 2.9228516L31.251953 2.9228516Q30.953125 3.5322266 30.431641 3.8398438Q29.910156 4.1474609 29.212891 4.1474609Q28.046875 4.1474609 27.499023 3.3740234Q26.951172 2.6005859 26.951172 0.94238281Q26.951172 -0.73925781 27.540039 -1.5390625Q28.128906 -2.3388672 29.330078 -2.3388672Q30.003906 -2.3388672 30.499023 -2.03125Q30.994141 -1.7236328 31.263672 -1.1552734L31.275391 -1.1552734Q31.275391 -1.3310547 31.298828 -1.7646484Q31.322266 -2.1982422 31.345703 -2.2392578L32.347656 -2.2392578Q32.3125 -1.9228516 32.3125 -0.92675781L32.3125 3.9189453Q32.3125 6.5908203 29.658203 6.5908203ZM31.263672 0.93066406Q31.263672 0.15722656 31.052734 -0.40234375Q30.841797 -0.96191406 30.458008 -1.2578125Q30.074219 -1.5537109 29.587891 -1.5537109Q28.779297 -1.5537109 28.410156 -0.96777344Q28.041016 -0.38183594 28.041016 0.93066406Q28.041016 2.2314453 28.386719 2.7998047Q28.732422 3.3681641 29.570312 3.3681641Q30.068359 3.3681641 30.455078 3.0751953Q30.841797 2.7822266 31.052734 2.234375Q31.263672 1.6865234 31.263672 0.93066406Z"/>
	<path fill="none" stroke="black" stroke-width="1" stroke-miterlimit="10" stroke-opacity="0.10196079" d="M50 749.5L1194 749.5"/>
	<path fill="none" stroke="black" stroke-width="1" stroke-miterlimit="10" stroke-opacity="0.10196079" d="M41.75 749.5L49 749.5"/>
	<path fill="none" stroke="black" stroke-width="1" stroke-miterlimit="10" stroke-opacity="0.10196079" d="M50 681.5L1194 681.5"/>
	<path fill="none" stroke="black" stroke-width="1" stroke-miterlimit="10" stroke-opacity="0.10196079" d="M41.75 681.5L49 681.5"/>
	<path fill="none" stroke="black" stroke-width="1" stroke-miterlimit="10" stroke-opacity="0.10196079" d="M50 613.5L1194 613.5"/>
	<path fill="none" stroke="black" stroke-width="1" stroke-miterlimit="10" stroke-opacity="0.10196079" d="M41.75 613.5L49 613.5"/>
	<path fill="none" stroke="black" stroke-width="1" stroke-miterlimit="10" stroke-opacity="0.10196079" d="M50 545.5L1194 545.5"/>
	<path fill="none" stroke="black" stroke-width="1" stroke-miterlimit="10" stroke-opacity="0.10196079" d="M41.75 545.5L49 545.5"/>
	<path fill="none" stroke="black" stroke-width="1" stroke-miterlimit="10" stroke-opacity="0.10196079" d="M50 478.5L1194 478.5"/>
	<path fill="none" stroke="black" stroke-width="1" stroke-miterlimit="10" stroke-opacity="0.10196079" d="M41.75 478.5L49 478.5"/>
	<path fill="none" stroke="black" stroke-width="1" stroke-miterlimit="10" stroke-opacity="0.10196079" d="M50 410.5L1194 410.5"/>
	<path fill="none" stroke="black" stroke-width="1" stroke-miterlimit="10" stroke-opacity="0.10196079" d="M41.75 410.5L49 410.5"/>
	<path fill="none" stroke="black" stroke-width="1" stroke-miterlimit="10" stroke-opacity="0.10196079" d="M50 342.5L1194 342.5"/>
	<path fill="none" stroke="black" stroke-width="1" stroke-miterlimit="10" stroke-opacity="0.10196079" d="M41.75 342.5L49 342.5"/>
	<path fill="none" stroke="black" stroke-width="1" stroke-miterlimit="10" stroke-opacity="0.10196079" d="M50 274.5L1194 274.5"/>
	<path fill="none" stroke="black" stroke-width="1" stroke-miterlimit="10" stroke-opacity="0.10196079" d="M41.75 274.5L49 274.5"/>
	<path fill="none" stroke="black" stroke-width="1" stroke-miterlimit="10" stroke-opacity="0.10196079" d="M50 206.5L1194 206.5"/>
	<path fill="none" stroke="black" stroke-width="1" stroke-miterlimit="10" stroke-opacity="0.10196079" d="M41.75 206.5L49 206.5"/>
	<path fill="none" stroke="black" stroke-width="1" stroke-miterlimit="10" stroke-opacity="0.10196079" d="M50 139.5L1194 139.5"/>
	<path fill="none" stroke="black" stroke-width="1" stroke-miterlimit="10" stroke-opacity="0.10196079" d="M41.75 139.5L49 139.5"/>
	<path fill="none" stroke="black" stroke-width="1" stroke-miterlimit="10" stroke-opacity="0.10196079" d="M50 71.5L1194 71.5"/>
	<path fill="none" stroke="black" stroke-width="1" stroke-miterlimit="10" stroke-opacity="0.10196079" d="M41.75 71.5L49 71.5"/>
	<path fill="#666" transform="matrix(0 -1 1 0 11.2 410.2)" d="M-21.591797 -0.11230469Q-21.591797 1.1650391 -22.089844 2.1230469Q-22.587891 3.0810547 -23.501953 3.5908203Q-24.416016 4.1005859 -25.611328 4.1005859L-28.699219 4.1005859L-28.699219 -4.1552734L-25.96875 -4.1552734Q-23.871094 -4.1552734 -22.731445 -3.1035156Q-21.591797 -2.0517578 -21.591797 -0.11230469ZM-22.716797 -0.11230469Q-22.716797 -1.6474609 -23.557617 -2.453125Q-24.398438 -3.2587891 -25.992188 -3.2587891L-27.580078 -3.2587891L-27.580078 3.2041016L-25.740234 3.2041016Q-24.832031 3.2041016 -24.143555 2.8056641Q-23.455078 2.4072266 -23.085938 1.6572266Q-22.716797 0.90722656 -22.716797 -0.11230469ZM-14.847656 0.92480469Q-14.847656 2.5888672 -15.580078 3.4033203Q-16.3125 4.2177734 -17.707031 4.2177734Q-19.095703 4.2177734 -19.804688 3.3710938Q-20.513672 2.5244141 -20.513672 0.92480469Q-20.513672 -2.3564453 -17.671875 -2.3564453Q-16.21875 -2.3564453 -15.533203 -1.5566406Q-14.847656 -0.75683594 -14.847656 0.92480469ZM-15.955078 0.92480469Q-15.955078 -0.38769531 -16.344727 -0.98242188Q-16.734375 -1.5771484 -17.654297 -1.5771484Q-18.580078 -1.5771484 -18.993164 -0.97070312Q-19.40625 -0.36425781 -19.40625 0.92480469Q-19.40625 2.1787109 -18.999023 2.8085938Q-18.591797 3.4384766 -17.71875 3.4384766Q-16.769531 3.4384766 -16.362305 2.8291016Q-15.955078 2.2197266 -15.955078 0.92480469ZM-7.4648438 4.1005859L-8.6894531 4.1005859L-9.796875 -0.38183594L-10.007812 -1.3720703Q-10.060547 -1.1083984 -10.171875 -0.61328125Q-10.283203 -0.11816406 -11.367188 4.1005859L-12.585938 4.1005859L-14.361328 -2.2392578L-13.318359 -2.2392578L-12.246094 2.0673828Q-12.205078 2.2080078 -11.994141 3.2275391L-11.894531 2.7939453L-10.570312 -2.2392578L-9.4394531 -2.2392578L-8.3320312 2.1142578L-8.0625 3.2275391L-7.8808594 2.4130859L-6.6796875 -2.2392578L-5.6484375 -2.2392578L-7.4648438 4.1005859ZM-0.84375 4.1005859L-0.84375 0.081054688Q-0.84375 -0.54589844 -0.96679688 -0.89160156Q-1.0898438 -1.2373047 -1.359375 -1.3896484Q-1.6289062 -1.5419922 -2.1503906 -1.5419922Q-2.9121094 -1.5419922 -3.3515625 -1.0205078Q-3.7910156 -0.49902344 -3.7910156 0.42675781L-3.7910156 4.1005859L-4.8457031 4.1005859L-4.8457031 -0.88574219Q-4.8457031 -1.9931641 -4.8808594 -2.2392578L-3.8847656 -2.2392578Q-3.8789062 -2.2099609 -3.8730469 -2.0810547Q-3.8671875 -1.9521484 -3.8583984 -1.7851562Q-3.8496094 -1.6181641 -3.8378906 -1.1552734L-3.8203125 -1.1552734Q-3.4570312 -1.8115234 -2.9794922 -2.0839844Q-2.5019531 -2.3564453 -1.7929688 -2.3564453Q-0.75 -2.3564453 -0.26660156 -1.8378906Q0.21679688 -1.3193359 0.21679688 -0.12402344L0.21679688 4.1005859L-0.84375 4.1005859ZM1.8046875 4.1005859L1.8046875 -4.5947266L2.859375 -4.5947266L2.859375 4.1005859L1.8046875 4.1005859ZM9.8320312 0.92480469Q9.8320312 2.5888672 9.0996094 3.4033203Q8.3671875 4.2177734 6.9726562 4.2177734Q5.5839844 4.2177734 4.875 3.3710938Q4.1660156 2.5244141 4.1660156 0.92480469Q4.1660156 -2.3564453 7.0078125 -2.3564453Q8.4609375 -2.3564453 9.1464844 -1.5566406Q9.8320312 -0.75683594 9.8320312 0.92480469ZM8.7246094 0.92480469Q8.7246094 -0.38769531 8.3349609 -0.98242188Q7.9453125 -1.5771484 7.0253906 -1.5771484Q6.0996094 -1.5771484 5.6865234 -0.97070312Q5.2734375 -0.36425781 5.2734375 0.92480469Q5.2734375 2.1787109 5.6806641 2.8085938Q6.0878906 3.4384766 6.9609375 3.4384766Q7.9101562 3.4384766 8.3173828 2.8291016Q8.7246094 2.2197266 8.7246094 0.92480469ZM12.761719 4.2177734Q11.806641 4.2177734 11.326172 3.7138672Q10.845703 3.2099609 10.845703 2.3310547Q10.845703 1.3466797 11.493164 0.81933594Q12.140625 0.29199219 13.582031 0.25683594L15.005859 0.23339844L15.005859 -0.11230469Q15.005859 -0.88574219 14.677734 -1.2197266Q14.349609 -1.5537109 13.646484 -1.5537109Q12.9375 -1.5537109 12.615234 -1.3134766Q12.292969 -1.0732422 12.228516 -0.54589844L11.126953 -0.64550781Q11.396484 -2.3564453 13.669922 -2.3564453Q14.865234 -2.3564453 15.46875 -1.8085938Q16.072266 -1.2607422 16.072266 -0.22363281L16.072266 2.5068359Q16.072266 2.9755859 16.195312 3.2128906Q16.318359 3.4501953 16.664062 3.4501953Q16.816406 3.4501953 17.009766 3.4091797L17.009766 4.0654297Q16.611328 4.1591797 16.195312 4.1591797Q15.609375 4.1591797 15.342773 3.8515625Q15.076172 3.5439453 15.041016 2.8876953L15.005859 2.8876953Q14.601562 3.6142578 14.06543 3.9160156Q13.529297 4.2177734 12.761719 4.2177734ZM13.001953 3.4267578Q13.582031 3.4267578 14.033203 3.1630859Q14.484375 2.8994141 14.745117 2.4394531Q15.005859 1.9794922 15.005859 1.4931641L15.005859 0.97167969L13.851562 0.99511719Q13.107422 1.0068359 12.723633 1.1474609Q12.339844 1.2880859 12.134766 1.5810547Q11.929688 1.8740234 11.929688 2.3486328Q11.929688 2.8642578 12.208008 3.1455078Q12.486328 3.4267578 13.001953 3.4267578ZM21.820312 3.0810547Q21.527344 3.6904297 21.043945 3.9541016Q20.560547 4.2177734 19.845703 4.2177734Q18.644531 4.2177734 18.079102 3.4091797Q17.513672 2.6005859 17.513672 0.95996094Q17.513672 -2.3564453 19.845703 -2.3564453Q20.566406 -2.3564453 21.046875 -2.0927734Q21.527344 -1.8291016 21.820312 -1.2548828L21.832031 -1.2548828L21.820312 -1.9638672L21.820312 -4.5947266L22.875 -4.5947266L22.875 2.7939453Q22.875 3.7841797 22.910156 4.1005859L21.902344 4.1005859Q21.884766 4.0068359 21.864258 3.6669922Q21.84375 3.3271484 21.84375 3.0810547L21.820312 3.0810547ZM18.621094 0.92480469Q18.621094 2.2548828 18.972656 2.8291016Q19.324219 3.4033203 20.115234 3.4033203Q21.011719 3.4033203 21.416016 2.7822266Q21.820312 2.1611328 21.820312 0.85449219Q21.820312 -0.40527344 21.416016 -0.99121094Q21.011719 -1.5771484 20.126953 -1.5771484Q19.330078 -1.5771484 18.975586 -0.98828125Q18.621094 -0.39941406 18.621094 0.92480469ZM29.25 2.3486328Q29.25 3.2451172 28.573242 3.7314453Q27.896484 4.2177734 26.677734 4.2177734Q25.494141 4.2177734 24.852539 3.828125Q24.210938 3.4384766 24.017578 2.6123047L24.949219 2.4306641Q25.083984 2.9404297 25.505859 3.1777344Q25.927734 3.4150391 26.677734 3.4150391Q27.480469 3.4150391 27.852539 3.1689453Q28.224609 2.9228516 28.224609 2.4306641Q28.224609 2.0556641 27.966797 1.8212891Q27.708984 1.5869141 27.134766 1.4345703L26.378906 1.2353516Q25.470703 1.0009766 25.086914 0.77539062Q24.703125 0.54980469 24.486328 0.22753906Q24.269531 -0.094726562 24.269531 -0.56347656Q24.269531 -1.4306641 24.887695 -1.8847656Q25.505859 -2.3388672 26.689453 -2.3388672Q27.738281 -2.3388672 28.356445 -1.9697266Q28.974609 -1.6005859 29.138672 -0.78613281L28.189453 -0.66894531Q28.101562 -1.0908203 27.717773 -1.3164062Q27.333984 -1.5419922 26.689453 -1.5419922Q25.974609 -1.5419922 25.634766 -1.3251953Q25.294922 -1.1083984 25.294922 -0.66894531Q25.294922 -0.39941406 25.435547 -0.22363281Q25.576172 -0.047851562 25.851562 0.075195312Q26.126953 0.19824219 27.011719 0.41503906Q27.849609 0.62597656 28.21875 0.8046875Q28.587891 0.98339844 28.801758 1.2001953Q29.015625 1.4169922 29.132812 1.7011719Q29.25 1.9853516 29.25 2.3486328Z"/>
	<clipPath id="cl_255">
		<rect y="39.200001" width="1200" height="31.999996"/>
	</clipPath>
	<g clip-path="url(#cl_255)">
		<path fill="#C32222" fill-opacity="0.2" d="M569.33002 49.200001L609.33002 49.200001L609.33002 61.200001L569.33002 61.200001L569.33002 49.200001Z"/>
		<path fill="none" stroke="#C32222" stroke-width="2" stroke-miterlimit="10" d="M569.33002 49.200001L609.33002 49.200001L609.33002 61.200001L569.33002 61.200001L569.33002 49.200001Z"/>
	</g>
	<clipPath id="cl_256">
		<rect y="39.200001" width="1200" height="31.999996"/>
	</clipPath>
	<g clip-path="url(#cl_256)">
		<path fill="#666" d="M615.81635 59.300587L615.81635 58.497852L619.36127 53.775196L616.01556 53.775196L616.01556 52.960743L620.60931 52.960743L620.60931 53.763477L617.05853 58.486134L620.73236 58.486134L620.73236 59.300587L615.81635 59.300587ZM622.13275 51.613087L622.13275 50.605274L623.18744 50.605274L623.18744 51.613087L622.13275 51.613087ZM622.13275 59.300587L622.13275 52.960743L623.18744 52.960743L623.18744 59.300587L622.13275 59.300587ZM630.16595 56.101368Q630.16595 59.417774 627.83392 59.417774Q626.36908 59.417774 625.86517 58.316212L625.83588 58.316212Q625.85931 58.363087 625.85931 59.312305L625.85931 61.790821L624.80463 61.790821L624.80463 54.255665Q624.80463 53.277149 624.76947 52.960743L625.789 52.960743Q625.79486 52.98418 625.80658 53.127735Q625.8183 53.27129 625.83295 53.570118Q625.8476 53.868946 625.8476 53.980274L625.87103 53.980274Q626.15228 53.394337 626.61517 53.121876Q627.07806 52.849415 627.83392 52.849415Q629.0058 52.849415 629.58588 53.634571Q630.16595 54.419727 630.16595 56.101368ZM629.05853 56.124805Q629.05853 54.800587 628.70111 54.232227Q628.34369 53.663868 627.56439 53.663868Q626.93744 53.663868 626.58295 53.92754Q626.22845 54.191212 626.04388 54.750782Q625.85931 55.310352 625.85931 56.206837Q625.85931 57.454884 626.25775 58.04668Q626.65619 58.638477 627.55267 58.638477Q628.33783 58.638477 628.69818 58.061329Q629.05853 57.48418 629.05853 56.124805Z"/>
	</g>
	<path fill="#666" transform="translate(600 19.6)" d="M-296.9375 3.3320312Q-296.9375 4.5585938 -297.94141 5.2578125Q-298.94531 5.9570312 -300.71875 5.9570312Q-302.46094 5.9570312 -303.38672 5.40625Q-304.3125 4.8554688 -304.61719 3.6914062L-302.6875 3.4023438Q-302.52344 4.0039062 -302.12109 4.2539062Q-301.71875 4.5039062 -300.71875 4.5039062Q-299.79688 4.5039062 -299.375 4.2695312Q-298.95312 4.0351562 -298.95312 3.5351562Q-298.95312 3.1289062 -299.29297 2.890625Q-299.63281 2.6523438 -300.44531 2.4882812Q-302.30469 2.1210938 -302.95312 1.8046875Q-303.60156 1.4882812 -303.94141 0.984375Q-304.28125 0.48046875 -304.28125 -0.25390625Q-304.28125 -1.4648438 -303.34766 -2.140625Q-302.41406 -2.8164062 -300.70312 -2.8164062Q-299.19531 -2.8164062 -298.27734 -2.2304688Q-297.35938 -1.6445312 -297.13281 -0.53515625L-299.07812 -0.33203125Q-299.17188 -0.84765625 -299.53906 -1.1015625Q-299.90625 -1.3554688 -300.70312 -1.3554688Q-301.48438 -1.3554688 -301.875 -1.15625Q-302.26562 -0.95703125 -302.26562 -0.48828125Q-302.26562 -0.12109375 -301.96484 0.09375Q-301.66406 0.30859375 -300.95312 0.44921875Q-299.96094 0.65234375 -299.19141 0.8671875Q-298.42188 1.0820312 -297.95703 1.3789062Q-297.49219 1.6757812 -297.21484 2.140625Q-296.9375 2.6054688 -296.9375 3.3320312ZM-293.21094 5.9570312Q-294.4375 5.9570312 -295.125 5.2890625Q-295.8125 4.6210938 -295.8125 3.4101562Q-295.8125 2.0976562 -294.95703 1.4101562Q-294.10156 0.72265625 -292.47656 0.70703125L-290.65625 0.67578125L-290.65625 0.24609375Q-290.65625 -0.58203125 -290.94531 -0.984375Q-291.23438 -1.3867188 -291.89062 -1.3867188Q-292.5 -1.3867188 -292.78516 -1.109375Q-293.07031 -0.83203125 -293.14062 -0.19140625L-295.42969 -0.30078125Q-295.21875 -1.5351562 -294.30078 -2.171875Q-293.38281 -2.8085938 -291.79688 -2.8085938Q-290.19531 -2.8085938 -289.32812 -2.0195312Q-288.46094 -1.2304688 -288.46094 0.22265625L-288.46094 3.3007812Q-288.46094 4.0117188 -288.30078 4.28125Q-288.14062 4.5507812 -287.76562 4.5507812Q-287.51562 4.5507812 -287.28125 4.5039062L-287.28125 5.6914062Q-287.47656 5.7382812 -287.63281 5.7773438Q-287.78906 5.8164062 -287.94531 5.8398438Q-288.10156 5.8632812 -288.27734 5.8789062Q-288.45312 5.8945312 -288.6875 5.8945312Q-289.51562 5.8945312 -289.91016 5.4882812Q-290.30469 5.0820312 -290.38281 4.2929688L-290.42969 4.2929688Q-291.35156 5.9570312 -293.21094 5.9570312ZM-290.65625 1.8867188L-291.78125 1.9023438Q-292.54688 1.9335938 -292.86719 2.0703125Q-293.1875 2.2070312 -293.35547 2.4882812Q-293.52344 2.7695312 -293.52344 3.2382812Q-293.52344 3.8398438 -293.24609 4.1328125Q-292.96875 4.4257812 -292.50781 4.4257812Q-291.99219 4.4257812 -291.56641 4.1445312Q-291.14062 3.8632812 -290.89844 3.3671875Q-290.65625 2.8710938 -290.65625 2.3164062L-290.65625 1.8867188ZM-286.26562 -4.1757812L-286.26562 -5.7929688L-284.07031 -5.7929688L-284.07031 -4.1757812L-286.26562 -4.1757812ZM-286.26562 5.8007812L-286.26562 -2.6523438L-284.07031 -2.6523438L-284.07031 5.8007812L-286.26562 5.8007812ZM-281.82031 5.8007812L-281.82031 -5.7929688L-279.625 -5.7929688L-279.625 5.8007812L-281.82031 5.8007812ZM-269.375 1.5351562Q-269.375 3.6523438 -270.22266 4.8046875Q-271.07031 5.9570312 -272.61719 5.9570312Q-273.50781 5.9570312 -274.16797 5.5703125Q-274.82812 5.1835938 -275.17969 4.4570312L-275.22656 4.4570312Q-275.17969 4.6914062 -275.17969 5.8789062L-275.17969 9.1210938L-277.375 9.1210938L-277.375 -0.70703125Q-277.375 -1.9023438 -277.4375 -2.6523438L-275.30469 -2.6523438Q-275.26562 -2.5117188 -275.23828 -2.0976562Q-275.21094 -1.6835938 -275.21094 -1.2773438L-275.17969 -1.2773438Q-274.4375 -2.8320312 -272.47656 -2.8320312Q-271 -2.8320312 -270.1875 -1.6953125Q-269.375 -0.55859375 -269.375 1.5351562ZM-271.66406 1.5351562Q-271.66406 -1.3085938 -273.40625 -1.3085938Q-274.28125 -1.3085938 -274.74609 -0.54296875Q-275.21094 0.22265625 -275.21094 1.5976562Q-275.21094 2.9648438 -274.74609 3.7109375Q-274.28125 4.4570312 -273.42188 4.4570312Q-271.66406 4.4570312 -271.66406 1.5351562ZM-259.57031 1.5664062Q-259.57031 3.6210938 -260.71094 4.7890625Q-261.85156 5.9570312 -263.86719 5.9570312Q-265.84375 5.9570312 -266.96875 4.7851562Q-268.09375 3.6132812 -268.09375 1.5664062Q-268.09375 -0.47265625 -266.96875 -1.640625Q-265.84375 -2.8085938 -263.82031 -2.8085938Q-261.75 -2.8085938 -260.66016 -1.6796875Q-259.57031 -0.55078125 -259.57031 1.5664062ZM-261.86719 1.5664062Q-261.86719 0.05859375 -262.35938 -0.62109375Q-262.85156 -1.3007812 -263.78906 -1.3007812Q-265.78906 -1.3007812 -265.78906 1.5664062Q-265.78906 2.9804688 -265.30078 3.71875Q-264.8125 4.4570312 -263.89062 4.4570312Q-261.86719 4.4570312 -261.86719 1.5664062ZM-257.82812 -4.1757812L-257.82812 -5.7929688L-255.63281 -5.7929688L-255.63281 -4.1757812L-257.82812 -4.1757812ZM-257.82812 5.8007812L-257.82812 -2.6523438L-255.63281 -2.6523438L-255.63281 5.8007812L-257.82812 5.8007812ZM-247.90625 5.8007812L-247.90625 1.0585938Q-247.90625 -1.1679688 -249.41406 -1.1679688Q-250.21094 -1.1679688 -250.69922 -0.484375Q-251.1875 0.19921875 -251.1875 1.2695312L-251.1875 5.8007812L-253.38281 5.8007812L-253.38281 -0.76171875Q-253.38281 -1.4414062 -253.40234 -1.875Q-253.42188 -2.3085938 -253.44531 -2.6523438L-251.35156 -2.6523438Q-251.32812 -2.5039062 -251.28906 -1.859375Q-251.25 -1.2148438 -251.25 -0.97265625L-251.21875 -0.97265625Q-250.77344 -1.9414062 -250.10156 -2.3789062Q-249.42969 -2.8164062 -248.5 -2.8164062Q-247.15625 -2.8164062 -246.4375 -1.9882812Q-245.71875 -1.1601562 -245.71875 0.43359375L-245.71875 5.8007812L-247.90625 5.8007812ZM-241.44531 5.9414062Q-242.41406 5.9414062 -242.9375 5.4140625Q-243.46094 4.8867188 -243.46094 3.8164062L-243.46094 -1.1679688L-244.53125 -1.1679688L-244.53125 -2.6523438L-243.35156 -2.6523438L-242.66406 -4.6367188L-241.28906 -4.6367188L-241.28906 -2.6523438L-239.6875 -2.6523438L-239.6875 -1.1679688L-241.28906 -1.1679688L-241.28906 3.2226562Q-241.28906 3.8398438 -241.05469 4.1328125Q-240.82031 4.4257812 -240.32812 4.4257812Q-240.07031 4.4257812 -239.59375 4.3164062L-239.59375 5.6757812Q-240.40625 5.9414062 -241.44531 5.9414062ZM-238.77344 2.6054688L-238.77344 0.69921875L-234.71094 0.69921875L-234.71094 2.6054688L-238.77344 2.6054688ZM-224.92188 1.5664062Q-224.92188 3.6210938 -226.0625 4.7890625Q-227.20312 5.9570312 -229.21875 5.9570312Q-231.19531 5.9570312 -232.32031 4.7851562Q-233.44531 3.6132812 -233.44531 1.5664062Q-233.44531 -0.47265625 -232.32031 -1.640625Q-231.19531 -2.8085938 -229.17188 -2.8085938Q-227.10156 -2.8085938 -226.01172 -1.6796875Q-224.92188 -0.55078125 -224.92188 1.5664062ZM-227.21875 1.5664062Q-227.21875 0.05859375 -227.71094 -0.62109375Q-228.20312 -1.3007812 -229.14062 -1.3007812Q-231.14062 -1.3007812 -231.14062 1.5664062Q-231.14062 2.9804688 -230.65234 3.71875Q-230.16406 4.4570312 -229.24219 4.4570312Q-227.21875 4.4570312 -227.21875 1.5664062ZM-216.05469 3.3320312Q-216.05469 4.5585938 -217.05859 5.2578125Q-218.0625 5.9570312 -219.83594 5.9570312Q-221.57812 5.9570312 -222.50391 5.40625Q-223.42969 4.8554688 -223.73438 3.6914062L-221.80469 3.4023438Q-221.64062 4.0039062 -221.23828 4.2539062Q-220.83594 4.5039062 -219.83594 4.5039062Q-218.91406 4.5039062 -218.49219 4.2695312Q-218.07031 4.0351562 -218.07031 3.5351562Q-218.07031 3.1289062 -218.41016 2.890625Q-218.75 2.6523438 -219.5625 2.4882812Q-221.42188 2.1210938 -222.07031 1.8046875Q-222.71875 1.4882812 -223.05859 0.984375Q-223.39844 0.48046875 -223.39844 -0.25390625Q-223.39844 -1.4648438 -222.46484 -2.140625Q-221.53125 -2.8164062 -219.82031 -2.8164062Q-218.3125 -2.8164062 -217.39453 -2.2304688Q-216.47656 -1.6445312 -216.25 -0.53515625L-218.19531 -0.33203125Q-218.28906 -0.84765625 -218.65625 -1.1015625Q-219.02344 -1.3554688 -219.82031 -1.3554688Q-220.60156 -1.3554688 -220.99219 -1.15625Q-221.38281 -0.95703125 -221.38281 -0.48828125Q-221.38281 -0.12109375 -221.08203 0.09375Q-220.78125 0.30859375 -220.07031 0.44921875Q-219.07812 0.65234375 -218.30859 0.8671875Q-217.53906 1.0820312 -217.07422 1.3789062Q-216.60938 1.6757812 -216.33203 2.140625Q-216.05469 2.6054688 -216.05469 3.3320312ZM-207.15625 3.3320312Q-207.15625 4.5585938 -208.16016 5.2578125Q-209.16406 5.9570312 -210.9375 5.9570312Q-212.67969 5.9570312 -213.60547 5.40625Q-214.53125 4.8554688 -214.83594 3.6914062L-212.90625 3.4023438Q-212.74219 4.0039062 -212.33984 4.2539062Q-211.9375 4.5039062 -210.9375 4.5039062Q-210.01562 4.5039062 -209.59375 4.2695312Q-209.17188 4.0351562 -209.17188 3.5351562Q-209.17188 3.1289062 -209.51172 2.890625Q-209.85156 2.6523438 -210.66406 2.4882812Q-212.52344 2.1210938 -213.17188 1.8046875Q-213.82031 1.4882812 -214.16016 0.984375Q-214.5 0.48046875 -214.5 -0.25390625Q-214.5 -1.4648438 -213.56641 -2.140625Q-212.63281 -2.8164062 -210.92188 -2.8164062Q-209.41406 -2.8164062 -208.49609 -2.2304688Q-207.57812 -1.6445312 -207.35156 -0.53515625L-209.29688 -0.33203125Q-209.39062 -0.84765625 -209.75781 -1.1015625Q-210.125 -1.3554688 -210.92188 -1.3554688Q-211.70312 -1.3554688 -212.09375 -1.15625Q-212.48438 -0.95703125 -212.48438 -0.48828125Q-212.48438 -0.12109375 -212.18359 0.09375Q-211.88281 0.30859375 -211.17188 0.44921875Q-210.17969 0.65234375 -209.41016 0.8671875Q-208.64062 1.0820312 -208.17578 1.3789062Q-207.71094 1.6757812 -207.43359 2.140625Q-207.15625 2.6054688 -207.15625 3.3320312ZM-206.34375 6.1210938L-204.07031 -5.7929688L-202.21094 -5.7929688L-204.44531 6.1210938L-206.34375 6.1210938ZM-197.41406 5.9570312Q-199.33594 5.9570312 -200.38281 4.8125Q-201.42969 3.6679688 -201.42969 1.6210938Q-201.42969 -0.47265625 -200.375 -1.640625Q-199.32031 -2.8085938 -197.38281 -2.8085938Q-195.89062 -2.8085938 -194.91406 -2.0585938Q-193.9375 -1.3085938 -193.6875 0.01171875L-195.89844 0.12109375Q-195.99219 -0.52734375 -196.36719 -0.9140625Q-196.74219 -1.3007812 -197.42969 -1.3007812Q-199.125 -1.3007812 -199.125 1.5351562Q-199.125 4.4570312 -197.39844 4.4570312Q-196.77344 4.4570312 -196.35156 4.0625Q-195.92969 3.6679688 -195.82812 2.8867188L-193.625 2.9882812Q-193.74219 3.8554688 -194.24609 4.5351562Q-194.75 5.2148438 -195.57031 5.5859375Q-196.39062 5.9570312 -197.41406 5.9570312ZM-184.00781 1.5664062Q-184.00781 3.6210938 -185.14844 4.7890625Q-186.28906 5.9570312 -188.30469 5.9570312Q-190.28125 5.9570312 -191.40625 4.7851562Q-192.53125 3.6132812 -192.53125 1.5664062Q-192.53125 -0.47265625 -191.40625 -1.640625Q-190.28125 -2.8085938 -188.25781 -2.8085938Q-186.1875 -2.8085938 -185.09766 -1.6796875Q-184.00781 -0.55078125 -184.00781 1.5664062ZM-186.30469 1.5664062Q-186.30469 0.05859375 -186.79688 -0.62109375Q-187.28906 -1.3007812 -188.22656 -1.3007812Q-190.22656 -1.3007812 -190.22656 1.5664062Q-190.22656 2.9804688 -189.73828 3.71875Q-189.25 4.4570312 -188.32812 4.4570312Q-186.30469 4.4570312 -186.30469 1.5664062ZM-182.26562 5.8007812L-182.26562 -5.7929688L-180.07031 -5.7929688L-180.07031 5.8007812L-182.26562 5.8007812ZM-175.86719 5.9570312Q-177.09375 5.9570312 -177.78125 5.2890625Q-178.46875 4.6210938 -178.46875 3.4101562Q-178.46875 2.0976562 -177.61328 1.4101562Q-176.75781 0.72265625 -175.13281 0.70703125L-173.3125 0.67578125L-173.3125 0.24609375Q-173.3125 -0.58203125 -173.60156 -0.984375Q-173.89062 -1.3867188 -174.54688 -1.3867188Q-175.15625 -1.3867188 -175.44141 -1.109375Q-175.72656 -0.83203125 -175.79688 -0.19140625L-178.08594 -0.30078125Q-177.875 -1.5351562 -176.95703 -2.171875Q-176.03906 -2.8085938 -174.45312 -2.8085938Q-172.85156 -2.8085938 -171.98438 -2.0195312Q-171.11719 -1.2304688 -171.11719 0.22265625L-171.11719 3.3007812Q-171.11719 4.0117188 -170.95703 4.28125Q-170.79688 4.5507812 -170.42188 4.5507812Q-170.17188 4.5507812 -169.9375 4.5039062L-169.9375 5.6914062Q-170.13281 5.7382812 -170.28906 5.7773438Q-170.44531 5.8164062 -170.60156 5.8398438Q-170.75781 5.8632812 -170.93359 5.8789062Q-171.10938 5.8945312 -171.34375 5.8945312Q-172.17188 5.8945312 -172.56641 5.4882812Q-172.96094 5.0820312 -173.03906 4.2929688L-173.08594 4.2929688Q-174.00781 5.9570312 -175.86719 5.9570312ZM-173.3125 1.8867188L-174.4375 1.9023438Q-175.20312 1.9335938 -175.52344 2.0703125Q-175.84375 2.2070312 -176.01172 2.4882812Q-176.17969 2.7695312 -176.17969 3.2382812Q-176.17969 3.8398438 -175.90234 4.1328125Q-175.625 4.4257812 -175.16406 4.4257812Q-174.64844 4.4257812 -174.22266 4.1445312Q-173.79688 3.8632812 -173.55469 3.3671875Q-173.3125 2.8710938 -173.3125 2.3164062L-173.3125 1.8867188ZM-160.92188 1.5429688Q-160.92188 3.6367188 -161.76172 4.796875Q-162.60156 5.9570312 -164.16406 5.9570312Q-165.0625 5.9570312 -165.71875 5.5664062Q-166.375 5.1757812 -166.72656 4.4414062L-166.74219 4.4414062Q-166.74219 4.7148438 -166.77734 5.1914062Q-166.8125 5.6679688 -166.85156 5.8007812L-168.98438 5.8007812Q-168.92188 5.0742188 -168.92188 3.8710938L-168.92188 -5.7929688L-166.72656 -5.7929688L-166.72656 -2.5585938L-166.75781 -1.1835938L-166.72656 -1.1835938Q-165.98438 -2.8085938 -164.02344 -2.8085938Q-162.52344 -2.8085938 -161.72266 -1.671875Q-160.92188 -0.53515625 -160.92188 1.5429688ZM-163.21094 1.5429688Q-163.21094 0.10546875 -163.63281 -0.58984375Q-164.05469 -1.2851562 -164.9375 -1.2851562Q-165.82812 -1.2851562 -166.29297 -0.5390625Q-166.75781 0.20703125 -166.75781 1.6132812Q-166.75781 2.9570312 -166.30078 3.7070312Q-165.84375 4.4570312 -164.95312 4.4570312Q-163.21094 4.4570312 -163.21094 1.5429688ZM-159.64062 2.6054688L-159.64062 0.69921875L-155.57812 0.69921875L-155.57812 2.6054688L-159.64062 2.6054688ZM-146.69531 3.3320312Q-146.69531 4.5585938 -147.69922 5.2578125Q-148.70312 5.9570312 -150.47656 5.9570312Q-152.21875 5.9570312 -153.14453 5.40625Q-154.07031 4.8554688 -154.375 3.6914062L-152.44531 3.4023438Q-152.28125 4.0039062 -151.87891 4.2539062Q-151.47656 4.5039062 -150.47656 4.5039062Q-149.55469 4.5039062 -149.13281 4.2695312Q-148.71094 4.0351562 -148.71094 3.5351562Q-148.71094 3.1289062 -149.05078 2.890625Q-149.39062 2.6523438 -150.20312 2.4882812Q-152.0625 2.1210938 -152.71094 1.8046875Q-153.35938 1.4882812 -153.69922 0.984375Q-154.03906 0.48046875 -154.03906 -0.25390625Q-154.03906 -1.4648438 -153.10547 -2.140625Q-152.17188 -2.8164062 -150.46094 -2.8164062Q-148.95312 -2.8164062 -148.03516 -2.2304688Q-147.11719 -1.6445312 -146.89062 -0.53515625L-148.83594 -0.33203125Q-148.92969 -0.84765625 -149.29688 -1.1015625Q-149.66406 -1.3554688 -150.46094 -1.3554688Q-151.24219 -1.3554688 -151.63281 -1.15625Q-152.02344 -0.95703125 -152.02344 -0.48828125Q-152.02344 -0.12109375 -151.72266 0.09375Q-151.42188 0.30859375 -150.71094 0.44921875Q-149.71875 0.65234375 -148.94922 0.8671875Q-148.17969 1.0820312 -147.71484 1.3789062Q-147.25 1.6757812 -146.97266 2.140625Q-146.69531 2.6054688 -146.69531 3.3320312ZM-142.96875 5.9570312Q-144.19531 5.9570312 -144.88281 5.2890625Q-145.57031 4.6210938 -145.57031 3.4101562Q-145.57031 2.0976562 -144.71484 1.4101562Q-143.85938 0.72265625 -142.23438 0.70703125L-140.41406 0.67578125L-140.41406 0.24609375Q-140.41406 -0.58203125 -140.70312 -0.984375Q-140.99219 -1.3867188 -141.64844 -1.3867188Q-142.25781 -1.3867188 -142.54297 -1.109375Q-142.82812 -0.83203125 -142.89844 -0.19140625L-145.1875 -0.30078125Q-144.97656 -1.5351562 -144.05859 -2.171875Q-143.14062 -2.8085938 -141.55469 -2.8085938Q-139.95312 -2.8085938 -139.08594 -2.0195312Q-138.21875 -1.2304688 -138.21875 0.22265625L-138.21875 3.3007812Q-138.21875 4.0117188 -138.05859 4.28125Q-137.89844 4.5507812 -137.52344 4.5507812Q-137.27344 4.5507812 -137.03906 4.5039062L-137.03906 5.6914062Q-137.23438 5.7382812 -137.39062 5.7773438Q-137.54688 5.8164062 -137.70312 5.8398438Q-137.85938 5.8632812 -138.03516 5.8789062Q-138.21094 5.8945312 -138.44531 5.8945312Q-139.27344 5.8945312 -139.66797 5.4882812Q-140.0625 5.0820312 -140.14062 4.2929688L-140.1875 4.2929688Q-141.10938 5.9570312 -142.96875 5.9570312ZM-140.41406 1.8867188L-141.53906 1.9023438Q-142.30469 1.9335938 -142.625 2.0703125Q-142.94531 2.2070312 -143.11328 2.4882812Q-143.28125 2.7695312 -143.28125 3.2382812Q-143.28125 3.8398438 -143.00391 4.1328125Q-142.72656 4.4257812 -142.26562 4.4257812Q-141.75 4.4257812 -141.32422 4.1445312Q-140.89844 3.8632812 -140.65625 3.3671875Q-140.41406 2.8710938 -140.41406 2.3164062L-140.41406 1.8867188ZM-134.07031 5.9570312Q-135.29688 5.9570312 -135.98438 5.2890625Q-136.67188 4.6210938 -136.67188 3.4101562Q-136.67188 2.0976562 -135.81641 1.4101562Q-134.96094 0.72265625 -133.33594 0.70703125L-131.51562 0.67578125L-131.51562 0.24609375Q-131.51562 -0.58203125 -131.80469 -0.984375Q-132.09375 -1.3867188 -132.75 -1.3867188Q-133.35938 -1.3867188 -133.64453 -1.109375Q-133.92969 -0.83203125 -134 -0.19140625L-136.28906 -0.30078125Q-136.07812 -1.5351562 -135.16016 -2.171875Q-134.24219 -2.8085938 -132.65625 -2.8085938Q-131.05469 -2.8085938 -130.1875 -2.0195312Q-129.32031 -1.2304688 -129.32031 0.22265625L-129.32031 3.3007812Q-129.32031 4.0117188 -129.16016 4.28125Q-129 4.5507812 -128.625 4.5507812Q-128.375 4.5507812 -128.14062 4.5039062L-128.14062 5.6914062Q-128.33594 5.7382812 -128.49219 5.7773438Q-128.64844 5.8164062 -128.80469 5.8398438Q-128.96094 5.8632812 -129.13672 5.8789062Q-129.3125 5.8945312 -129.54688 5.8945312Q-130.375 5.8945312 -130.76953 5.4882812Q-131.16406 5.0820312 -131.24219 4.2929688L-131.28906 4.2929688Q-132.21094 5.9570312 -134.07031 5.9570312ZM-131.51562 1.8867188L-132.64062 1.9023438Q-133.40625 1.9335938 -133.72656 2.0703125Q-134.04688 2.2070312 -134.21484 2.4882812Q-134.38281 2.7695312 -134.38281 3.2382812Q-134.38281 3.8398438 -134.10547 4.1328125Q-133.82812 4.4257812 -133.36719 4.4257812Q-132.85156 4.4257812 -132.42578 4.1445312Q-132 3.8632812 -131.75781 3.3671875Q-131.51562 2.8710938 -131.51562 2.3164062L-131.51562 1.8867188ZM-120 3.3320312Q-120 4.5585938 -121.00391 5.2578125Q-122.00781 5.9570312 -123.78125 5.9570312Q-125.52344 5.9570312 -126.44922 5.40625Q-127.375 4.8554688 -127.67969 3.6914062L-125.75 3.4023438Q-125.58594 4.0039062 -125.18359 4.2539062Q-124.78125 4.5039062 -123.78125 4.5039062Q-122.85938 4.5039062 -122.4375 4.2695312Q-122.01562 4.0351562 -122.01562 3.5351562Q-122.01562 3.1289062 -122.35547 2.890625Q-122.69531 2.6523438 -123.50781 2.4882812Q-125.36719 2.1210938 -126.01562 1.8046875Q-126.66406 1.4882812 -127.00391 0.984375Q-127.34375 0.48046875 -127.34375 -0.25390625Q-127.34375 -1.4648438 -126.41016 -2.140625Q-125.47656 -2.8164062 -123.76562 -2.8164062Q-122.25781 -2.8164062 -121.33984 -2.2304688Q-120.42188 -1.6445312 -120.19531 -0.53515625L-122.14062 -0.33203125Q-122.23438 -0.84765625 -122.60156 -1.1015625Q-122.96875 -1.3554688 -123.76562 -1.3554688Q-124.54688 -1.3554688 -124.9375 -1.15625Q-125.32812 -0.95703125 -125.32812 -0.48828125Q-125.32812 -0.12109375 -125.02734 0.09375Q-124.72656 0.30859375 -124.01562 0.44921875Q-123.02344 0.65234375 -122.25391 0.8671875Q-121.48438 1.0820312 -121.01953 1.3789062Q-120.55469 1.6757812 -120.27734 2.140625Q-120 2.6054688 -120 3.3320312ZM-118.71875 2.6054688L-118.71875 0.69921875L-114.65625 0.69921875L-114.65625 2.6054688L-118.71875 2.6054688ZM-109.375 5.9570312Q-111.29688 5.9570312 -112.34375 4.8125Q-113.39062 3.6679688 -113.39062 1.6210938Q-113.39062 -0.47265625 -112.33594 -1.640625Q-111.28125 -2.8085938 -109.34375 -2.8085938Q-107.85156 -2.8085938 -106.875 -2.0585938Q-105.89844 -1.3085938 -105.64844 0.01171875L-107.85938 0.12109375Q-107.95312 -0.52734375 -108.32812 -0.9140625Q-108.70312 -1.3007812 -109.39062 -1.3007812Q-111.08594 -1.3007812 -111.08594 1.5351562Q-111.08594 4.4570312 -109.35938 4.4570312Q-108.73438 4.4570312 -108.3125 4.0625Q-107.89062 3.6679688 -107.78906 2.8867188L-105.58594 2.9882812Q-105.70312 3.8554688 -106.20703 4.5351562Q-106.71094 5.2148438 -107.53125 5.5859375Q-108.35156 5.9570312 -109.375 5.9570312ZM-95.96875 1.5664062Q-95.96875 3.6210938 -97.109375 4.7890625Q-98.25 5.9570312 -100.26562 5.9570312Q-102.24219 5.9570312 -103.36719 4.7851562Q-104.49219 3.6132812 -104.49219 1.5664062Q-104.49219 -0.47265625 -103.36719 -1.640625Q-102.24219 -2.8085938 -100.21875 -2.8085938Q-98.148438 -2.8085938 -97.058594 -1.6796875Q-95.96875 -0.55078125 -95.96875 1.5664062ZM-98.265625 1.5664062Q-98.265625 0.05859375 -98.757812 -0.62109375Q-99.25 -1.3007812 -100.1875 -1.3007812Q-102.1875 -1.3007812 -102.1875 1.5664062Q-102.1875 2.9804688 -101.69922 3.71875Q-101.21094 4.4570312 -100.28906 4.4570312Q-98.265625 4.4570312 -98.265625 1.5664062ZM-88.75 5.8007812L-88.75 1.0585938Q-88.75 -1.1679688 -90.257812 -1.1679688Q-91.054688 -1.1679688 -91.542969 -0.484375Q-92.03125 0.19921875 -92.03125 1.2695312L-92.03125 5.8007812L-94.226562 5.8007812L-94.226562 -0.76171875Q-94.226562 -1.4414062 -94.246094 -1.875Q-94.265625 -2.3085938 -94.289062 -2.6523438L-92.195312 -2.6523438Q-92.171875 -2.5039062 -92.132812 -1.859375Q-92.09375 -1.2148438 -92.09375 -0.97265625L-92.0625 -0.97265625Q-91.617188 -1.9414062 -90.945312 -2.3789062Q-90.273438 -2.8164062 -89.34375 -2.8164062Q-88 -2.8164062 -87.28125 -1.9882812Q-86.5625 -1.1601562 -86.5625 0.43359375L-86.5625 5.8007812L-88.75 5.8007812ZM-78.976562 5.8007812L-78.976562 1.0585938Q-78.976562 -1.1679688 -80.484375 -1.1679688Q-81.28125 -1.1679688 -81.769531 -0.484375Q-82.257812 0.19921875 -82.257812 1.2695312L-82.257812 5.8007812L-84.453125 5.8007812L-84.453125 -0.76171875Q-84.453125 -1.4414062 -84.472656 -1.875Q-84.492188 -2.3085938 -84.515625 -2.6523438L-82.421875 -2.6523438Q-82.398438 -2.5039062 -82.359375 -1.859375Q-82.320312 -1.2148438 -82.320312 -0.97265625L-82.289062 -0.97265625Q-81.84375 -1.9414062 -81.171875 -2.3789062Q-80.5 -2.8164062 -79.570312 -2.8164062Q-78.226562 -2.8164062 -77.507812 -1.9882812Q-76.789062 -1.1601562 -76.789062 0.43359375L-76.789062 5.8007812L-78.976562 5.8007812ZM-75.171875 2.6054688L-75.171875 0.69921875L-71.109375 0.69921875L-71.109375 2.6054688L-75.171875 2.6054688ZM-61.320312 1.5664062Q-61.320312 3.6210938 -62.460938 4.7890625Q-63.601562 5.9570312 -65.617188 5.9570312Q-67.59375 5.9570312 -68.71875 4.7851562Q-69.84375 3.6132812 -69.84375 1.5664062Q-69.84375 -0.47265625 -68.71875 -1.640625Q-67.59375 -2.8085938 -65.570312 -2.8085938Q-63.5 -2.8085938 -62.410156 -1.6796875Q-61.320312 -0.55078125 -61.320312 1.5664062ZM-63.617188 1.5664062Q-63.617188 0.05859375 -64.109375 -0.62109375Q-64.601562 -1.3007812 -65.539062 -1.3007812Q-67.539062 -1.3007812 -67.539062 1.5664062Q-67.539062 2.9804688 -67.050781 3.71875Q-66.5625 4.4570312 -65.640625 4.4570312Q-63.617188 4.4570312 -63.617188 1.5664062ZM-57.507812 -2.6523438L-57.507812 2.0898438Q-57.507812 4.3164062 -56.007812 4.3164062Q-55.210938 4.3164062 -54.722656 3.6328125Q-54.234375 2.9492188 -54.234375 1.8789062L-54.234375 -2.6523438L-52.039062 -2.6523438L-52.039062 3.9101562Q-52.039062 4.9882812 -51.976562 5.8007812L-54.070312 5.8007812Q-54.164062 4.6757812 -54.164062 4.1210938L-54.203125 4.1210938Q-54.640625 5.0820312 -55.316406 5.5195312Q-55.992188 5.9570312 -56.921875 5.9570312Q-58.265625 5.9570312 -58.984375 5.1328125Q-59.703125 4.3085938 -59.703125 2.7148438L-59.703125 -2.6523438L-57.507812 -2.6523438ZM-47.640625 5.9414062Q-48.609375 5.9414062 -49.132812 5.4140625Q-49.65625 4.8867188 -49.65625 3.8164062L-49.65625 -1.1679688L-50.726562 -1.1679688L-50.726562 -2.6523438L-49.546875 -2.6523438L-48.859375 -4.6367188L-47.484375 -4.6367188L-47.484375 -2.6523438L-45.882812 -2.6523438L-45.882812 -1.1679688L-47.484375 -1.1679688L-47.484375 3.2226562Q-47.484375 3.8398438 -47.25 4.1328125Q-47.015625 4.4257812 -46.523438 4.4257812Q-46.265625 4.4257812 -45.789062 4.3164062L-45.789062 5.6757812Q-46.601562 5.9414062 -47.640625 5.9414062ZM-44.476562 5.8007812L-44.476562 -5.7929688L-42.28125 -5.7929688L-42.28125 5.8007812L-44.476562 5.8007812ZM-32 1.5664062Q-32 3.6210938 -33.140625 4.7890625Q-34.28125 5.9570312 -36.296875 5.9570312Q-38.273438 5.9570312 -39.398438 4.7851562Q-40.523438 3.6132812 -40.523438 1.5664062Q-40.523438 -0.47265625 -39.398438 -1.640625Q-38.273438 -2.8085938 -36.25 -2.8085938Q-34.179688 -2.8085938 -33.089844 -1.6796875Q-32 -0.55078125 -32 1.5664062ZM-34.296875 1.5664062Q-34.296875 0.05859375 -34.789062 -0.62109375Q-35.28125 -1.3007812 -36.21875 -1.3007812Q-38.21875 -1.3007812 -38.21875 1.5664062Q-38.21875 2.9804688 -37.730469 3.71875Q-37.242188 4.4570312 -36.320312 4.4570312Q-34.296875 4.4570312 -34.296875 1.5664062ZM-22.226562 1.5664062Q-22.226562 3.6210938 -23.367188 4.7890625Q-24.507812 5.9570312 -26.523438 5.9570312Q-28.5 5.9570312 -29.625 4.7851562Q-30.75 3.6132812 -30.75 1.5664062Q-30.75 -0.47265625 -29.625 -1.640625Q-28.5 -2.8085938 -26.476562 -2.8085938Q-24.40625 -2.8085938 -23.316406 -1.6796875Q-22.226562 -0.55078125 -22.226562 1.5664062ZM-24.523438 1.5664062Q-24.523438 0.05859375 -25.015625 -0.62109375Q-25.507812 -1.3007812 -26.445312 -1.3007812Q-28.445312 -1.3007812 -28.445312 1.5664062Q-28.445312 2.9804688 -27.957031 3.71875Q-27.46875 4.4570312 -26.546875 4.4570312Q-24.523438 4.4570312 -24.523438 1.5664062ZM-15.085938 5.8007812L-17.34375 1.9726562L-18.289062 2.6289062L-18.289062 5.8007812L-20.484375 5.8007812L-20.484375 -5.7929688L-18.289062 -5.7929688L-18.289062 0.84765625L-15.273438 -2.6523438L-12.914062 -2.6523438L-15.882812 0.64453125L-12.6875 5.8007812L-15.085938 5.8007812ZM-12.078125 2.6054688L-12.078125 0.69921875L-8.015625 0.69921875L-8.015625 2.6054688L-12.078125 2.6054688ZM1.7734375 1.5664062Q1.7734375 3.6210938 0.6328125 4.7890625Q-0.5078125 5.9570312 -2.5234375 5.9570312Q-4.5 5.9570312 -5.625 4.7851562Q-6.75 3.6132812 -6.75 1.5664062Q-6.75 -0.47265625 -5.625 -1.640625Q-4.5 -2.8085938 -2.4765625 -2.8085938Q-0.40625 -2.8085938 0.68359375 -1.6796875Q1.7734375 -0.55078125 1.7734375 1.5664062ZM-0.5234375 1.5664062Q-0.5234375 0.05859375 -1.015625 -0.62109375Q-1.5078125 -1.3007812 -2.4453125 -1.3007812Q-4.4453125 -1.3007812 -4.4453125 1.5664062Q-4.4453125 2.9804688 -3.9570312 3.71875Q-3.46875 4.4570312 -2.546875 4.4570312Q-0.5234375 4.4570312 -0.5234375 1.5664062ZM5.5859375 -2.6523438L5.5859375 2.0898438Q5.5859375 4.3164062 7.0859375 4.3164062Q7.8828125 4.3164062 8.3710938 3.6328125Q8.859375 2.9492188 8.859375 1.8789062L8.859375 -2.6523438L11.054688 -2.6523438L11.054688 3.9101562Q11.054688 4.9882812 11.117188 5.8007812L9.0234375 5.8007812Q8.9296875 4.6757812 8.9296875 4.1210938L8.890625 4.1210938Q8.453125 5.0820312 7.7773438 5.5195312Q7.1015625 5.9570312 6.171875 5.9570312Q4.828125 5.9570312 4.109375 5.1328125Q3.390625 4.3085938 3.390625 2.7148438L3.390625 -2.6523438L5.5859375 -2.6523438ZM15.453125 5.9414062Q14.484375 5.9414062 13.960938 5.4140625Q13.4375 4.8867188 13.4375 3.8164062L13.4375 -1.1679688L12.367188 -1.1679688L12.367188 -2.6523438L13.546875 -2.6523438L14.234375 -4.6367188L15.609375 -4.6367188L15.609375 -2.6523438L17.210938 -2.6523438L17.210938 -1.1679688L15.609375 -1.1679688L15.609375 3.2226562Q15.609375 3.8398438 15.84375 4.1328125Q16.078125 4.4257812 16.570312 4.4257812Q16.828125 4.4257812 17.304688 4.3164062L17.304688 5.6757812Q16.492188 5.9414062 15.453125 5.9414062ZM18.125 2.6054688L18.125 0.69921875L22.1875 0.69921875L22.1875 2.6054688L18.125 2.6054688ZM31.976562 1.5664062Q31.976562 3.6210938 30.835938 4.7890625Q29.695312 5.9570312 27.679688 5.9570312Q25.703125 5.9570312 24.578125 4.7851562Q23.453125 3.6132812 23.453125 1.5664062Q23.453125 -0.47265625 24.578125 -1.640625Q25.703125 -2.8085938 27.726562 -2.8085938Q29.796875 -2.8085938 30.886719 -1.6796875Q31.976562 -0.55078125 31.976562 1.5664062ZM29.679688 1.5664062Q29.679688 0.05859375 29.1875 -0.62109375Q28.695312 -1.3007812 27.757812 -1.3007812Q25.757812 -1.3007812 25.757812 1.5664062Q25.757812 2.9804688 26.246094 3.71875Q26.734375 4.4570312 27.65625 4.4570312Q29.679688 4.4570312 29.679688 1.5664062ZM36.296875 -1.1679688L36.296875 5.8007812L34.109375 5.8007812L34.109375 -1.1679688L32.875 -1.1679688L32.875 -2.6523438L34.109375 -2.6523438L34.109375 -3.5351562Q34.109375 -4.6835938 34.71875 -5.2382812Q35.328125 -5.7929688 36.570312 -5.7929688Q37.1875 -5.7929688 37.960938 -5.6679688L37.960938 -4.2539062Q37.640625 -4.3242188 37.320312 -4.3242188Q36.757812 -4.3242188 36.527344 -4.1015625Q36.296875 -3.8789062 36.296875 -3.3164062L36.296875 -2.6523438L37.960938 -2.6523438L37.960938 -1.1679688L36.296875 -1.1679688ZM38.554688 2.6054688L38.554688 0.69921875L42.617188 0.69921875L42.617188 2.6054688L38.554688 2.6054688ZM52.40625 1.5664062Q52.40625 3.6210938 51.265625 4.7890625Q50.125 5.9570312 48.109375 5.9570312Q46.132812 5.9570312 45.007812 4.7851562Q43.882812 3.6132812 43.882812 1.5664062Q43.882812 -0.47265625 45.007812 -1.640625Q46.132812 -2.8085938 48.15625 -2.8085938Q50.226562 -2.8085938 51.316406 -1.6796875Q52.40625 -0.55078125 52.40625 1.5664062ZM50.109375 1.5664062Q50.109375 0.05859375 49.617188 -0.62109375Q49.125 -1.3007812 48.1875 -1.3007812Q46.1875 -1.3007812 46.1875 1.5664062Q46.1875 2.9804688 46.675781 3.71875Q47.164062 4.4570312 48.085938 4.4570312Q50.109375 4.4570312 50.109375 1.5664062ZM56.726562 -1.1679688L56.726562 5.8007812L54.539062 5.8007812L54.539062 -1.1679688L53.304688 -1.1679688L53.304688 -2.6523438L54.539062 -2.6523438L54.539062 -3.5351562Q54.539062 -4.6835938 55.148438 -5.2382812Q55.757812 -5.7929688 57 -5.7929688Q57.617188 -5.7929688 58.390625 -5.6679688L58.390625 -4.2539062Q58.070312 -4.3242188 57.75 -4.3242188Q57.1875 -4.3242188 56.957031 -4.1015625Q56.726562 -3.8789062 56.726562 -3.3164062L56.726562 -2.6523438L58.390625 -2.6523438L58.390625 -1.1679688L56.726562 -1.1679688ZM62.054688 -1.1679688L62.054688 5.8007812L59.867188 5.8007812L59.867188 -1.1679688L58.632812 -1.1679688L58.632812 -2.6523438L59.867188 -2.6523438L59.867188 -3.5351562Q59.867188 -4.6835938 60.476562 -5.2382812Q61.085938 -5.7929688 62.328125 -5.7929688Q62.945312 -5.7929688 63.71875 -5.6679688L63.71875 -4.2539062Q63.398438 -4.3242188 63.078125 -4.3242188Q62.515625 -4.3242188 62.285156 -4.1015625Q62.054688 -3.8789062 62.054688 -3.3164062L62.054688 -2.6523438L63.71875 -2.6523438L63.71875 -1.1679688L62.054688 -1.1679688ZM64.804688 -4.1757812L64.804688 -5.7929688L67 -5.7929688L67 -4.1757812L64.804688 -4.1757812ZM64.804688 5.8007812L64.804688 -2.6523438L67 -2.6523438L67 5.8007812L64.804688 5.8007812ZM72.773438 5.9570312Q70.851562 5.9570312 69.804688 4.8125Q68.757812 3.6679688 68.757812 1.6210938Q68.757812 -0.47265625 69.8125 -1.640625Q70.867188 -2.8085938 72.804688 -2.8085938Q74.296875 -2.8085938 75.273438 -2.0585938Q76.25 -1.3085938 76.5 0.01171875L74.289062 0.12109375Q74.195312 -0.52734375 73.820312 -0.9140625Q73.445312 -1.3007812 72.757812 -1.3007812Q71.0625 -1.3007812 71.0625 1.5351562Q71.0625 4.4570312 72.789062 4.4570312Q73.414062 4.4570312 73.835938 4.0625Q74.257812 3.6679688 74.359375 2.8867188L76.5625 2.9882812Q76.445312 3.8554688 75.941406 4.5351562Q75.4375 5.2148438 74.617188 5.5859375Q73.796875 5.9570312 72.773438 5.9570312ZM81.609375 5.9570312Q79.703125 5.9570312 78.679688 4.828125Q77.65625 3.6992188 77.65625 1.5351562Q77.65625 -0.55859375 78.695312 -1.6835938Q79.734375 -2.8085938 81.640625 -2.8085938Q83.460938 -2.8085938 84.421875 -1.6015625Q85.382812 -0.39453125 85.382812 1.9335938L85.382812 1.9960938L79.960938 1.9960938Q79.960938 3.2304688 80.417969 3.859375Q80.875 4.4882812 81.71875 4.4882812Q82.882812 4.4882812 83.1875 3.4804688L85.257812 3.6601562Q84.359375 5.9570312 81.609375 5.9570312ZM81.609375 -1.4257812Q80.835938 -1.4257812 80.417969 -0.88671875Q80 -0.34765625 79.976562 0.62109375L83.257812 0.62109375Q83.195312 -0.40234375 82.765625 -0.9140625Q82.335938 -1.4257812 81.609375 -1.4257812ZM91 2.6054688L91 0.69921875L95.0625 0.69921875L95.0625 2.6054688L91 2.6054688ZM103.52344 -3.4257812L103.52344 -0.01953125L109.15625 -0.01953125L109.15625 1.7617188L103.52344 1.7617188L103.52344 5.8007812L101.21875 5.8007812L101.21875 -5.2070312L109.33594 -5.2070312L109.33594 -3.4257812L103.52344 -3.4257812ZM121.69531 0.24609375Q121.69531 1.9648438 121.01562 3.2695312Q120.33594 4.5742188 119.07031 5.265625Q117.80469 5.9570312 116.11719 5.9570312Q113.52344 5.9570312 112.05078 4.4296875Q110.57812 2.9023438 110.57812 0.24609375Q110.57812 -2.4023438 112.04688 -3.8867188Q113.51562 -5.3710938 116.13281 -5.3710938Q118.75 -5.3710938 120.22266 -3.8710938Q121.69531 -2.3710938 121.69531 0.24609375ZM119.34375 0.24609375Q119.34375 -1.5351562 118.5 -2.546875Q117.65625 -3.5585938 116.13281 -3.5585938Q114.58594 -3.5585938 113.74219 -2.5546875Q112.89844 -1.5507812 112.89844 0.24609375Q112.89844 2.0585938 113.76172 3.1015625Q114.625 4.1445312 116.11719 4.1445312Q117.66406 4.1445312 118.50391 3.1289062Q119.34375 2.1132812 119.34375 0.24609375ZM131 5.8007812L128.44531 1.6210938L125.74219 1.6210938L125.74219 5.8007812L123.4375 5.8007812L123.4375 -5.2070312L128.9375 -5.2070312Q130.90625 -5.2070312 131.97656 -4.359375Q133.04688 -3.5117188 133.04688 -1.9257812Q133.04688 -0.76953125 132.39062 0.0703125Q131.73438 0.91015625 130.61719 1.1757812L133.59375 5.8007812L131 5.8007812ZM130.72656 -1.8320312Q130.72656 -3.4179688 128.69531 -3.4179688L125.74219 -3.4179688L125.74219 -0.16796875L128.75781 -0.16796875Q129.72656 -0.16796875 130.22656 -0.60546875Q130.72656 -1.0429688 130.72656 -1.8320312ZM144.13281 5.8007812L144.13281 -0.87109375Q144.13281 -1.0976562 144.13672 -1.3242188Q144.14062 -1.5507812 144.21094 -3.2695312Q143.65625 -1.1679688 143.39062 -0.33984375L141.40625 5.8007812L139.76562 5.8007812L137.78125 -0.33984375L136.94531 -3.2695312Q137.03906 -1.4570312 137.03906 -0.87109375L137.03906 5.8007812L134.99219 5.8007812L134.99219 -5.2070312L138.07812 -5.2070312L140.04688 0.94921875L140.21875 1.5429688L140.59375 3.0195312L141.08594 1.2539062L143.10938 -5.2070312L146.17969 -5.2070312L146.17969 5.8007812L144.13281 5.8007812ZM156.10156 5.8007812L155.125 2.9882812L150.92969 2.9882812L149.95312 5.8007812L147.64844 5.8007812L151.66406 -5.2070312L154.38281 -5.2070312L158.38281 5.8007812L156.10156 5.8007812ZM153.02344 -3.5117188L152.97656 -3.3398438Q152.89844 -3.0585938 152.78906 -2.6992188Q152.67969 -2.3398438 151.44531 1.2539062L154.60938 1.2539062L153.52344 -1.9101562L153.1875 -2.9726562L153.02344 -3.5117188ZM163.65625 -3.4257812L163.65625 5.8007812L161.35156 5.8007812L161.35156 -3.4257812L157.79688 -3.4257812L157.79688 -5.2070312L167.21875 -5.2070312L167.21875 -3.4257812L163.65625 -3.4257812ZM182.71875 0.21484375Q182.71875 1.9179688 182.05078 3.1875Q181.38281 4.4570312 180.16016 5.1289062Q178.9375 5.8007812 177.35938 5.8007812L172.90625 5.8007812L172.90625 -5.2070312L176.89062 -5.2070312Q179.67188 -5.2070312 181.19531 -3.8046875Q182.71875 -2.4023438 182.71875 0.21484375ZM180.39844 0.21484375Q180.39844 -1.5585938 179.47656 -2.4921875Q178.55469 -3.4257812 176.84375 -3.4257812L175.21094 -3.4257812L175.21094 4.0195312L177.16406 4.0195312Q178.64844 4.0195312 179.52344 2.9960938Q180.39844 1.9726562 180.39844 0.21484375ZM192.53906 1.5664062Q192.53906 3.6210938 191.39844 4.7890625Q190.25781 5.9570312 188.24219 5.9570312Q186.26562 5.9570312 185.14062 4.7851562Q184.01562 3.6132812 184.01562 1.5664062Q184.01562 -0.47265625 185.14062 -1.640625Q186.26562 -2.8085938 188.28906 -2.8085938Q190.35938 -2.8085938 191.44922 -1.6796875Q192.53906 -0.55078125 192.53906 1.5664062ZM190.24219 1.5664062Q190.24219 0.05859375 189.75 -0.62109375Q189.25781 -1.3007812 188.32031 -1.3007812Q186.32031 -1.3007812 186.32031 1.5664062Q186.32031 2.9804688 186.80859 3.71875Q187.29688 4.4570312 188.21875 4.4570312Q190.24219 4.4570312 190.24219 1.5664062ZM203.42188 5.8007812L201.10156 5.8007812L199.75781 0.64453125Q199.66406 0.29296875 199.39062 -1.0898438L198.98438 0.66015625L197.625 5.8007812L195.30469 5.8007812L193.11719 -2.6523438L195.17969 -2.6523438L196.57031 3.8085938L196.67969 3.2304688L196.875 2.3164062L198.20312 -2.6523438L200.55469 -2.6523438L201.85156 2.3164062Q201.96094 2.7226562 202.17188 3.8085938L202.39062 2.7773438L203.60938 -2.6523438L205.64062 -2.6523438L203.42188 5.8007812ZM212.20312 5.8007812L212.20312 1.0585938Q212.20312 -1.1679688 210.69531 -1.1679688Q209.89844 -1.1679688 209.41016 -0.484375Q208.92188 0.19921875 208.92188 1.2695312L208.92188 5.8007812L206.72656 5.8007812L206.72656 -0.76171875Q206.72656 -1.4414062 206.70703 -1.875Q206.6875 -2.3085938 206.66406 -2.6523438L208.75781 -2.6523438Q208.78125 -2.5039062 208.82031 -1.859375Q208.85938 -1.2148438 208.85938 -0.97265625L208.89062 -0.97265625Q209.33594 -1.9414062 210.00781 -2.3789062Q210.67969 -2.8164062 211.60938 -2.8164062Q212.95312 -2.8164062 213.67188 -1.9882812Q214.39062 -1.1601562 214.39062 0.43359375L214.39062 5.8007812L212.20312 5.8007812ZM216.5 5.8007812L216.5 -5.7929688L218.69531 -5.7929688L218.69531 5.8007812L216.5 5.8007812ZM228.97656 1.5664062Q228.97656 3.6210938 227.83594 4.7890625Q226.69531 5.9570312 224.67969 5.9570312Q222.70312 5.9570312 221.57812 4.7851562Q220.45312 3.6132812 220.45312 1.5664062Q220.45312 -0.47265625 221.57812 -1.640625Q222.70312 -2.8085938 224.72656 -2.8085938Q226.79688 -2.8085938 227.88672 -1.6796875Q228.97656 -0.55078125 228.97656 1.5664062ZM226.67969 1.5664062Q226.67969 0.05859375 226.1875 -0.62109375Q225.69531 -1.3007812 224.75781 -1.3007812Q222.75781 -1.3007812 222.75781 1.5664062Q222.75781 2.9804688 223.24609 3.71875Q223.73438 4.4570312 224.65625 4.4570312Q226.67969 4.4570312 226.67969 1.5664062ZM232.67188 5.9570312Q231.44531 5.9570312 230.75781 5.2890625Q230.07031 4.6210938 230.07031 3.4101562Q230.07031 2.0976562 230.92578 1.4101562Q231.78125 0.72265625 233.40625 0.70703125L235.22656 0.67578125L235.22656 0.24609375Q235.22656 -0.58203125 234.9375 -0.984375Q234.64844 -1.3867188 233.99219 -1.3867188Q233.38281 -1.3867188 233.09766 -1.109375Q232.8125 -0.83203125 232.74219 -0.19140625L230.45312 -0.30078125Q230.66406 -1.5351562 231.58203 -2.171875Q232.5 -2.8085938 234.08594 -2.8085938Q235.6875 -2.8085938 236.55469 -2.0195312Q237.42188 -1.2304688 237.42188 0.22265625L237.42188 3.3007812Q237.42188 4.0117188 237.58203 4.28125Q237.74219 4.5507812 238.11719 4.5507812Q238.36719 4.5507812 238.60156 4.5039062L238.60156 5.6914062Q238.40625 5.7382812 238.25 5.7773438Q238.09375 5.8164062 237.9375 5.8398438Q237.78125 5.8632812 237.60547 5.8789062Q237.42969 5.8945312 237.19531 5.8945312Q236.36719 5.8945312 235.97266 5.4882812Q235.57812 5.0820312 235.5 4.2929688L235.45312 4.2929688Q234.53125 5.9570312 232.67188 5.9570312ZM235.22656 1.8867188L234.10156 1.9023438Q233.33594 1.9335938 233.01562 2.0703125Q232.69531 2.2070312 232.52734 2.4882812Q232.35938 2.7695312 232.35938 3.2382812Q232.35938 3.8398438 232.63672 4.1328125Q232.91406 4.4257812 233.375 4.4257812Q233.89062 4.4257812 234.31641 4.1445312Q234.74219 3.8632812 234.98438 3.3671875Q235.22656 2.8710938 235.22656 2.3164062L235.22656 1.8867188ZM245.09375 5.8007812Q245.0625 5.6835938 245.01953 5.2109375Q244.97656 4.7382812 244.97656 4.4257812L244.94531 4.4257812Q244.23438 5.9570312 242.24219 5.9570312Q240.76562 5.9570312 239.96094 4.8046875Q239.15625 3.6523438 239.15625 1.5820312Q239.15625 -0.51953125 240.00391 -1.6640625Q240.85156 -2.8085938 242.40625 -2.8085938Q243.30469 -2.8085938 243.95703 -2.4335938Q244.60938 -2.0585938 244.96094 -1.3164062L244.97656 -1.3164062L244.96094 -2.7070312L244.96094 -5.7929688L247.15625 -5.7929688L247.15625 3.9570312Q247.15625 4.7382812 247.21875 5.8007812L245.09375 5.8007812ZM244.99219 1.5273438Q244.99219 0.16015625 244.53516 -0.578125Q244.07812 -1.3164062 243.1875 -1.3164062Q242.30469 -1.3164062 241.875 -0.6015625Q241.44531 0.11328125 241.44531 1.5820312Q241.44531 4.4570312 243.17188 4.4570312Q244.03906 4.4570312 244.51562 3.6953125Q244.99219 2.9335938 244.99219 1.5273438ZM258.75781 -3.4257812L258.75781 5.8007812L256.45312 5.8007812L256.45312 -3.4257812L252.89844 -3.4257812L252.89844 -5.2070312L262.32031 -5.2070312L262.32031 -3.4257812L258.75781 -3.4257812ZM262.72656 5.8007812L262.72656 -0.66796875Q262.72656 -1.3632812 262.70703 -1.828125Q262.6875 -2.2929688 262.66406 -2.6523438L264.75781 -2.6523438Q264.78125 -2.5117188 264.82031 -1.796875Q264.85938 -1.0820312 264.85938 -0.84765625L264.89062 -0.84765625Q265.21094 -1.7382812 265.46094 -2.1015625Q265.71094 -2.4648438 266.05469 -2.640625Q266.39844 -2.8164062 266.91406 -2.8164062Q267.33594 -2.8164062 267.59375 -2.6992188L267.59375 -0.86328125Q267.0625 -0.98046875 266.65625 -0.98046875Q265.83594 -0.98046875 265.37891 -0.31640625Q264.92188 0.34765625 264.92188 1.6523438L264.92188 5.8007812L262.72656 5.8007812ZM272.41406 5.9570312Q270.50781 5.9570312 269.48438 4.828125Q268.46094 3.6992188 268.46094 1.5351562Q268.46094 -0.55859375 269.5 -1.6835938Q270.53906 -2.8085938 272.44531 -2.8085938Q274.26562 -2.8085938 275.22656 -1.6015625Q276.1875 -0.39453125 276.1875 1.9335938L276.1875 1.9960938L270.76562 1.9960938Q270.76562 3.2304688 271.22266 3.859375Q271.67969 4.4882812 272.52344 4.4882812Q273.6875 4.4882812 273.99219 3.4804688L276.0625 3.6601562Q275.16406 5.9570312 272.41406 5.9570312ZM272.41406 -1.4257812Q271.64062 -1.4257812 271.22266 -0.88671875Q270.80469 -0.34765625 270.78125 0.62109375L274.0625 0.62109375Q274 -0.40234375 273.57031 -0.9140625Q273.14062 -1.4257812 272.41406 -1.4257812ZM283.32812 5.8007812L283.32812 1.0585938Q283.32812 -1.1679688 281.82031 -1.1679688Q281.02344 -1.1679688 280.53516 -0.484375Q280.04688 0.19921875 280.04688 1.2695312L280.04688 5.8007812L277.85156 5.8007812L277.85156 -0.76171875Q277.85156 -1.4414062 277.83203 -1.875Q277.8125 -2.3085938 277.78906 -2.6523438L279.88281 -2.6523438Q279.90625 -2.5039062 279.94531 -1.859375Q279.98438 -1.2148438 279.98438 -0.97265625L280.01562 -0.97265625Q280.46094 -1.9414062 281.13281 -2.3789062Q281.80469 -2.8164062 282.73438 -2.8164062Q284.07812 -2.8164062 284.79688 -1.9882812Q285.51562 -1.1601562 285.51562 0.43359375L285.51562 5.8007812L283.32812 5.8007812ZM293.10156 5.8007812Q293.07031 5.6835938 293.02734 5.2109375Q292.98438 4.7382812 292.98438 4.4257812L292.95312 4.4257812Q292.24219 5.9570312 290.25 5.9570312Q288.77344 5.9570312 287.96875 4.8046875Q287.16406 3.6523438 287.16406 1.5820312Q287.16406 -0.51953125 288.01172 -1.6640625Q288.85938 -2.8085938 290.41406 -2.8085938Q291.3125 -2.8085938 291.96484 -2.4335938Q292.61719 -2.0585938 292.96875 -1.3164062L292.98438 -1.3164062L292.96875 -2.7070312L292.96875 -5.7929688L295.16406 -5.7929688L295.16406 3.9570312Q295.16406 4.7382812 295.22656 5.8007812L293.10156 5.8007812ZM293 1.5273438Q293 0.16015625 292.54297 -0.578125Q292.08594 -1.3164062 291.19531 -1.3164062Q290.3125 -1.3164062 289.88281 -0.6015625Q289.45312 0.11328125 289.45312 1.5820312Q289.45312 4.4570312 291.17969 4.4570312Q292.04688 4.4570312 292.52344 3.6953125Q293 2.9335938 293 1.5273438ZM304.52344 3.3320312Q304.52344 4.5585938 303.51953 5.2578125Q302.51562 5.9570312 300.74219 5.9570312Q299 5.9570312 298.07422 5.40625Q297.14844 4.8554688 296.84375 3.6914062L298.77344 3.4023438Q298.9375 4.0039062 299.33984 4.2539062Q299.74219 4.5039062 300.74219 4.5039062Q301.66406 4.5039062 302.08594 4.2695312Q302.50781 4.0351562 302.50781 3.5351562Q302.50781 3.1289062 302.16797 2.890625Q301.82812 2.6523438 301.01562 2.4882812Q299.15625 2.1210938 298.50781 1.8046875Q297.85938 1.4882812 297.51953 0.984375Q297.17969 0.48046875 297.17969 -0.25390625Q297.17969 -1.4648438 298.11328 -2.140625Q299.04688 -2.8164062 300.75781 -2.8164062Q302.26562 -2.8164062 303.18359 -2.2304688Q304.10156 -1.6445312 304.32812 -0.53515625L302.38281 -0.33203125Q302.28906 -0.84765625 301.92188 -1.1015625Q301.55469 -1.3554688 300.75781 -1.3554688Q299.97656 -1.3554688 299.58594 -1.15625Q299.19531 -0.95703125 299.19531 -0.48828125Q299.19531 -0.12109375 299.49609 0.09375Q299.79688 0.30859375 300.50781 0.44921875Q301.5 0.65234375 302.26953 0.8671875Q303.03906 1.0820312 303.50391 1.3789062Q303.96875 1.6757812 304.24609 2.140625Q304.52344 2.6054688 304.52344 3.3320312Z"/>
	<path fill="none" stroke="black" stroke-width="1" stroke-miterlimit="10" stroke-opacity="0.10196079" d="M49 749.5L1195 749.5"/>
	<clipPath id="cl_258">
		<rect y="749.20001" width="1200" height="50.799988"/>
	</clipPath>
	<g clip-path="url(#cl_258)">
		<path fill="#666" transform="translate(49.75 760.2)" d="M-12.751953 11.300586L-14 11.300586L-16.302734 4.960742L-15.177734 4.960742L-13.783203 9.085742Q-13.707031 9.320117 -13.378906 10.474414L-13.173828 9.788867L-12.945312 9.0974607L-11.503906 4.960742L-10.384766 4.960742L-12.751953 11.300586ZM-9.4296875 11.300586L-9.4296875 10.404101L-7.3261719 10.404101L-7.3261719 4.0525389L-9.1894531 5.382617L-9.1894531 4.3865232L-7.2382812 3.0447264L-6.265625 3.0447264L-6.265625 10.404101L-4.2558594 10.404101L-4.2558594 11.300586L-9.4296875 11.300586ZM-2.5742188 11.300586L-2.5742188 10.017383L-1.4316406 10.017383L-1.4316406 11.300586L-2.5742188 11.300586ZM0.578125 11.300586L0.578125 10.404101L2.6816406 10.404101L2.6816406 4.0525389L0.81835938 5.382617L0.81835938 4.3865232L2.7695312 3.0447264L3.7421875 3.0447264L3.7421875 10.404101L5.7519531 10.404101L5.7519531 11.300586L0.578125 11.300586ZM7.4335938 11.300586L7.4335938 10.017383L8.5761719 10.017383L8.5761719 11.300586L7.4335938 11.300586ZM15.876953 7.1697264Q15.876953 9.2380857 15.147461 10.327929Q14.417969 11.417773 12.994141 11.417773Q11.570312 11.417773 10.855469 10.333789Q10.140625 9.2498045 10.140625 7.1697264Q10.140625 5.0427732 10.834961 3.9822264Q11.529297 2.9216795 13.029297 2.9216795Q14.488281 2.9216795 15.182617 3.9939451Q15.876953 5.0662107 15.876953 7.1697264ZM14.804688 7.1697264Q14.804688 5.382617 14.391602 4.5798826Q13.978516 3.7771482 13.029297 3.7771482Q12.056641 3.7771482 11.631836 4.5681639Q11.207031 5.3591795 11.207031 7.1697264Q11.207031 8.9275389 11.637695 9.741992Q12.068359 10.556445 13.005859 10.556445Q13.9375 10.556445 14.371094 9.7244139Q14.804688 8.8923826 14.804688 7.1697264Z"/>
	</g>
	<path fill="none" stroke="black" stroke-width="1" stroke-miterlimit="10" stroke-opacity="0.10196079" d="M49.5 71L49.5 750"/>
	<clipPath id="cl_25a">
		<rect width="49.75" height="800"/>
	</clipPath>
	<g clip-path="url(#cl_25a)">
		<path fill="#666" transform="translate(38.75 749.2)" d="M-0.46679688 -0.030273438Q-0.46679688 2.0380859 -1.1962891 3.1279297Q-1.9257812 4.2177734 -3.3496094 4.2177734Q-4.7734375 4.2177734 -5.4882812 3.1337891Q-6.203125 2.0498047 -6.203125 -0.030273438Q-6.203125 -2.1572266 -5.5087891 -3.2177734Q-4.8144531 -4.2783203 -3.3144531 -4.2783203Q-1.8554688 -4.2783203 -1.1611328 -3.2060547Q-0.46679688 -2.1337891 -0.46679688 -0.030273438ZM-1.5390625 -0.030273438Q-1.5390625 -1.8173828 -1.9521484 -2.6201172Q-2.3652344 -3.4228516 -3.3144531 -3.4228516Q-4.2871094 -3.4228516 -4.7119141 -2.6318359Q-5.1367188 -1.8408203 -5.1367188 -0.030273438Q-5.1367188 1.7275391 -4.7060547 2.5419922Q-4.2753906 3.3564453 -3.3378906 3.3564453Q-2.40625 3.3564453 -1.9726562 2.5244141Q-1.5390625 1.6923828 -1.5390625 -0.030273438Z"/>
	</g>
	<clipPath id="cl_25b">
		<rect width="49.75" height="800"/>
	</clipPath>
	<g clip-path="url(#cl_25b)">
		<path fill="#666" transform="translate(38.75 681.4)" d="M-5.7578125 4.1005859L-5.7578125 3.2041016L-3.6542969 3.2041016L-3.6542969 -3.1474609L-5.5175781 -1.8173828L-5.5175781 -2.8134766L-3.5664062 -4.1552734L-2.59375 -4.1552734L-2.59375 3.2041016L-0.58398438 3.2041016L-0.58398438 4.1005859L-5.7578125 4.1005859Z"/>
	</g>
	<clipPath id="cl_25c">
		<rect width="49.75" height="800"/>
	</clipPath>
	<g clip-path="url(#cl_25c)">
		<path fill="#666" transform="translate(38.75 613.6)" d="M-6.0683594 4.1005859L-6.0683594 3.3564453Q-5.7695312 2.6708984 -5.3388672 2.1464844Q-4.9082031 1.6220703 -4.4335938 1.1972656Q-3.9589844 0.77246094 -3.4931641 0.40917969Q-3.0273438 0.045898438 -2.6523438 -0.31738281Q-2.2773438 -0.68066406 -2.0458984 -1.0791016Q-1.8144531 -1.4775391 -1.8144531 -1.9814453Q-1.8144531 -2.6611328 -2.2128906 -3.0361328Q-2.6113281 -3.4111328 -3.3203125 -3.4111328Q-3.9941406 -3.4111328 -4.4306641 -3.0449219Q-4.8671875 -2.6787109 -4.9433594 -2.0166016L-6.0214844 -2.1162109Q-5.9042969 -3.1064453 -5.1806641 -3.6923828Q-4.4570312 -4.2783203 -3.3203125 -4.2783203Q-2.0722656 -4.2783203 -1.4013672 -3.6894531Q-0.73046875 -3.1005859 -0.73046875 -2.0166016Q-0.73046875 -1.5361328 -0.95019531 -1.0615234Q-1.1699219 -0.58691406 -1.6035156 -0.11230469Q-2.0371094 0.36230469 -3.2617188 1.3583984Q-3.9355469 1.9091797 -4.3339844 2.3515625Q-4.7324219 2.7939453 -4.9082031 3.2041016L-0.6015625 3.2041016L-0.6015625 4.1005859L-6.0683594 4.1005859Z"/>
	</g>
	<clipPath id="cl_25d">
		<rect width="49.75" height="800"/>
	</clipPath>
	<g clip-path="url(#cl_25d)">
		<path fill="#666" transform="translate(38.75 545.8)" d="M-0.52539062 1.8212891Q-0.52539062 2.9638672 -1.2519531 3.5908203Q-1.9785156 4.2177734 -3.3261719 4.2177734Q-4.5800781 4.2177734 -5.3271484 3.6523438Q-6.0742188 3.0869141 -6.2148438 1.9794922L-5.125 1.8798828Q-4.9140625 3.3447266 -3.3261719 3.3447266Q-2.5292969 3.3447266 -2.0751953 2.9521484Q-1.6210938 2.5595703 -1.6210938 1.7861328Q-1.6210938 1.1123047 -2.1396484 0.734375Q-2.6582031 0.35644531 -3.6367188 0.35644531L-4.234375 0.35644531L-4.234375 -0.55761719L-3.6601562 -0.55761719Q-2.7929688 -0.55761719 -2.3154297 -0.93554688Q-1.8378906 -1.3134766 -1.8378906 -1.9814453Q-1.8378906 -2.6435547 -2.2275391 -3.0273438Q-2.6171875 -3.4111328 -3.3847656 -3.4111328Q-4.0820312 -3.4111328 -4.5126953 -3.0537109Q-4.9433594 -2.6962891 -5.0136719 -2.0458984L-6.0742188 -2.1279297Q-5.9570312 -3.1416016 -5.2333984 -3.7099609Q-4.5097656 -4.2783203 -3.3730469 -4.2783203Q-2.1308594 -4.2783203 -1.4423828 -3.7011719Q-0.75390625 -3.1240234 -0.75390625 -2.0927734Q-0.75390625 -1.3017578 -1.1962891 -0.80664062Q-1.6386719 -0.31152344 -2.4824219 -0.13574219L-2.4824219 -0.11230469Q-1.5566406 -0.012695312 -1.0410156 0.50878906Q-0.52539062 1.0302734 -0.52539062 1.8212891Z"/>
	</g>
	<clipPath id="cl_25e">
		<rect width="49.75" height="800"/>
	</clipPath>
	<g clip-path="url(#cl_25e)">
		<path fill="#666" transform="translate(38.75 478)" d="M-1.5097656 2.2314453L-1.5097656 4.1005859L-2.5058594 4.1005859L-2.5058594 2.2314453L-6.3964844 2.2314453L-6.3964844 1.4111328L-2.6171875 -4.1552734L-1.5097656 -4.1552734L-1.5097656 1.3994141L-0.34960938 1.3994141L-0.34960938 2.2314453L-1.5097656 2.2314453ZM-2.5058594 -2.9658203Q-2.5175781 -2.9306641 -2.6699219 -2.6552734Q-2.8222656 -2.3798828 -2.8984375 -2.2685547L-5.0136719 0.84863281L-5.3300781 1.2822266L-5.4238281 1.3994141L-2.5058594 1.3994141L-2.5058594 -2.9658203Z"/>
	</g>
	<clipPath id="cl_25f">
		<rect width="49.75" height="800"/>
	</clipPath>
	<g clip-path="url(#cl_25f)">
		<path fill="#666" transform="translate(38.75 410.2)" d="M-0.50195312 1.4111328Q-0.50195312 2.7177734 -1.2783203 3.4677734Q-2.0546875 4.2177734 -3.4316406 4.2177734Q-4.5859375 4.2177734 -5.2949219 3.7138672Q-6.0039062 3.2099609 -6.1914062 2.2548828L-5.125 2.1318359Q-4.7910156 3.3564453 -3.4082031 3.3564453Q-2.5585938 3.3564453 -2.078125 2.84375Q-1.5976562 2.3310547 -1.5976562 1.4345703Q-1.5976562 0.65527344 -2.0810547 0.17480469Q-2.5644531 -0.30566406 -3.3847656 -0.30566406Q-3.8125 -0.30566406 -4.1816406 -0.17089844Q-4.5507812 -0.036132812 -4.9199219 0.28613281L-5.9511719 0.28613281L-5.6757812 -4.1552734L-0.98242188 -4.1552734L-0.98242188 -3.2587891L-4.7148438 -3.2587891L-4.8730469 -0.63964844Q-4.1875 -1.1669922 -3.1679688 -1.1669922Q-1.9492188 -1.1669922 -1.2255859 -0.45214844Q-0.50195312 0.26269531 -0.50195312 1.4111328Z"/>
	</g>
	<clipPath id="cl_260">
		<rect width="49.75" height="800"/>
	</clipPath>
	<g clip-path="url(#cl_260)">
		<path fill="#666" transform="translate(38.75 342.4)" d="M-0.52539062 1.3994141Q-0.52539062 2.7060547 -1.234375 3.4619141Q-1.9433594 4.2177734 -3.1914062 4.2177734Q-4.5859375 4.2177734 -5.3242188 3.1806641Q-6.0625 2.1435547 -6.0625 0.16308594Q-6.0625 -1.9814453 -5.2949219 -3.1298828Q-4.5273438 -4.2783203 -3.109375 -4.2783203Q-1.2402344 -4.2783203 -0.75390625 -2.5966797L-1.7617188 -2.4150391Q-2.0722656 -3.4228516 -3.1210938 -3.4228516Q-4.0234375 -3.4228516 -4.5185547 -2.5820312Q-5.0136719 -1.7412109 -5.0136719 -0.14746094Q-4.7265625 -0.68066406 -4.2050781 -0.95898438Q-3.6835938 -1.2373047 -3.0097656 -1.2373047Q-1.8671875 -1.2373047 -1.1962891 -0.52246094Q-0.52539062 0.19238281 -0.52539062 1.3994141ZM-1.5976562 1.4462891Q-1.5976562 0.54980469 -2.0371094 0.063476562Q-2.4765625 -0.42285156 -3.2617188 -0.42285156Q-4 -0.42285156 -4.4541016 0.0078125Q-4.9082031 0.43847656 -4.9082031 1.1943359Q-4.9082031 2.1494141 -4.4365234 2.7587891Q-3.9648438 3.3681641 -3.2265625 3.3681641Q-2.4648438 3.3681641 -2.03125 2.8554688Q-1.5976562 2.3427734 -1.5976562 1.4462891Z"/>
	</g>
	<clipPath id="cl_261">
		<rect width="49.75" height="800"/>
	</clipPath>
	<g clip-path="url(#cl_261)">
		<path fill="#666" transform="translate(38.75 274.6)" d="M-0.6015625 -3.2998047Q-1.8671875 -1.3662109 -2.3886719 -0.27050781Q-2.9101562 0.82519531 -3.1708984 1.8916016Q-3.4316406 2.9580078 -3.4316406 4.1005859L-4.5332031 4.1005859Q-4.5332031 2.5185547 -3.8623047 0.76953125Q-3.1914062 -0.97949219 -1.6210938 -3.2587891L-6.0566406 -3.2587891L-6.0566406 -4.1552734L-0.6015625 -4.1552734L-0.6015625 -3.2998047Z"/>
	</g>
	<clipPath id="cl_262">
		<rect width="49.75" height="800"/>
	</clipPath>
	<g clip-path="url(#cl_262)">
		<path fill="#666" transform="translate(38.75 206.8)" d="M-0.51953125 1.7978516Q-0.51953125 2.9404297 -1.2460938 3.5791016Q-1.9726562 4.2177734 -3.3320312 4.2177734Q-4.65625 4.2177734 -5.4033203 3.5908203Q-6.1503906 2.9638672 -6.1503906 1.8095703Q-6.1503906 1.0009766 -5.6875 0.45019531Q-5.2246094 -0.10058594 -4.5039062 -0.21777344L-4.5039062 -0.24121094Q-5.1777344 -0.39941406 -5.5673828 -0.92675781Q-5.9570312 -1.4541016 -5.9570312 -2.1630859Q-5.9570312 -3.1064453 -5.2509766 -3.6923828Q-4.5449219 -4.2783203 -3.3554688 -4.2783203Q-2.1367188 -4.2783203 -1.4306641 -3.7041016Q-0.72460938 -3.1298828 -0.72460938 -2.1513672Q-0.72460938 -1.4423828 -1.1171875 -0.91503906Q-1.5097656 -0.38769531 -2.1894531 -0.25292969L-2.1894531 -0.22949219Q-1.3984375 -0.10058594 -0.95898438 0.44140625Q-0.51953125 0.98339844 -0.51953125 1.7978516ZM-1.8203125 -2.0927734Q-1.8203125 -3.4931641 -3.3554688 -3.4931641Q-4.0996094 -3.4931641 -4.4892578 -3.1416016Q-4.8789062 -2.7900391 -4.8789062 -2.0927734Q-4.8789062 -1.3837891 -4.4775391 -1.0117188Q-4.0761719 -0.63964844 -3.34375 -0.63964844Q-2.5996094 -0.63964844 -2.2099609 -0.98242188Q-1.8203125 -1.3251953 -1.8203125 -2.0927734ZM-1.6152344 1.6982422Q-1.6152344 0.93066406 -2.0722656 0.54101562Q-2.5292969 0.15136719 -3.3554688 0.15136719Q-4.1582031 0.15136719 -4.609375 0.5703125Q-5.0605469 0.98925781 -5.0605469 1.7216797Q-5.0605469 3.4267578 -3.3203125 3.4267578Q-2.4589844 3.4267578 -2.0371094 3.0136719Q-1.6152344 2.6005859 -1.6152344 1.6982422Z"/>
	</g>
	<clipPath id="cl_263">
		<rect width="49.75" height="800"/>
	</clipPath>
	<g clip-path="url(#cl_263)">
		<path fill="#666" transform="translate(38.75 139)" d="M-0.56640625 -0.19433594Q-0.56640625 1.9326172 -1.3427734 3.0751953Q-2.1191406 4.2177734 -3.5546875 4.2177734Q-4.5214844 4.2177734 -5.1044922 3.8105469Q-5.6875 3.4033203 -5.9394531 2.4951172L-4.9316406 2.3369141Q-4.6152344 3.3681641 -3.5371094 3.3681641Q-2.6289062 3.3681641 -2.1308594 2.5244141Q-1.6328125 1.6806641 -1.609375 0.11621094Q-1.84375 0.64355469 -2.4121094 0.96289062Q-2.9804688 1.2822266 -3.6601562 1.2822266Q-4.7734375 1.2822266 -5.4414062 0.52050781Q-6.109375 -0.24121094 -6.109375 -1.5009766Q-6.109375 -2.7958984 -5.3828125 -3.5371094Q-4.65625 -4.2783203 -3.3613281 -4.2783203Q-1.984375 -4.2783203 -1.2753906 -3.2587891Q-0.56640625 -2.2392578 -0.56640625 -0.19433594ZM-1.7148438 -1.2138672Q-1.7148438 -2.2099609 -2.171875 -2.8164062Q-2.6289062 -3.4228516 -3.3964844 -3.4228516Q-4.1582031 -3.4228516 -4.5976562 -2.9042969Q-5.0371094 -2.3857422 -5.0371094 -1.5009766Q-5.0371094 -0.59863281 -4.5976562 -0.07421875Q-4.1582031 0.45019531 -3.4082031 0.45019531Q-2.9511719 0.45019531 -2.5585938 0.2421875Q-2.1660156 0.034179688 -1.9404297 -0.34667969Q-1.7148438 -0.72753906 -1.7148438 -1.2138672Z"/>
	</g>
	<clipPath id="cl_264">
		<rect width="49.75" height="800"/>
	</clipPath>
	<g clip-path="url(#cl_264)">
		<path fill="#666" transform="translate(38.75 71.2)" d="M-12.429688 4.1005859L-12.429688 3.2041016L-10.326172 3.2041016L-10.326172 -3.1474609L-12.189453 -1.8173828L-12.189453 -2.8134766L-10.238281 -4.1552734L-9.265625 -4.1552734L-9.265625 3.2041016L-7.2558594 3.2041016L-7.2558594 4.1005859L-12.429688 4.1005859ZM-0.46484375 -0.030273438Q-0.46484375 2.0380859 -1.1943359 3.1279297Q-1.9238281 4.2177734 -3.3476562 4.2177734Q-4.7714844 4.2177734 -5.4863281 3.1337891Q-6.2011719 2.0498047 -6.2011719 -0.030273438Q-6.2011719 -2.1572266 -5.5068359 -3.2177734Q-4.8125 -4.2783203 -3.3125 -4.2783203Q-1.8535156 -4.2783203 -1.1591797 -3.2060547Q-0.46484375 -2.1337891 -0.46484375 -0.030273438ZM-1.5371094 -0.030273438Q-1.5371094 -1.8173828 -1.9501953 -2.6201172Q-2.3632812 -3.4228516 -3.3125 -3.4228516Q-4.2851562 -3.4228516 -4.7099609 -2.6318359Q-5.1347656 -1.8408203 -5.1347656 -0.030273438Q-5.1347656 1.7275391 -4.7041016 2.5419922Q-4.2734375 3.3564453 -3.3359375 3.3564453Q-2.4042969 3.3564453 -1.9707031 2.5244141Q-1.5371094 1.6923828 -1.5371094 -0.030273438Z"/>
	</g>
	<clipPath id="cl_266">
		<rect x="43.75" y="65.199997" width="1156.25" height="690"/>
	</clipPath>
	<g clip-path="url(#cl_266)">
		<path fill="none" stroke="#C32222" stroke-width="2" stroke-miterlimit="10" d=""/>
	</g>
	<clipPath id="cl_267">
		<rect x="43.75" y="65.199997" width="1156.25" height="690"/>
	</clipPath>
	<g clip-path="url(#cl_267)">
		<path fill="#C32222" fill-opacity="0.2" d="M52.75 613.59998Q52.75 613.74744 52.73555 613.89404Q52.721107 614.04071 52.692352 614.18518Q52.663601 614.32977 52.620815 614.47083Q52.578033 614.61182 52.521633 614.74792Q52.465233 614.88409 52.39576 615.01404Q52.326286 615.14404 52.244404 615.2666Q52.162525 615.38916 52.069027 615.50311Q51.975533 615.61707 51.871319 615.72125Q51.767105 615.82544 51.653179 615.91895Q51.539253 616.01245 51.416706 616.09436Q51.294167 616.17627 51.164188 616.24573Q51.03421 616.31519 50.898048 616.37158Q50.76189 616.42804 50.620857 616.47083Q50.47982 616.51367 50.33527 616.54236Q50.19072 616.57117 50.044052 616.58557Q49.897381 616.59998 49.75 616.59998Q49.602619 616.59998 49.455948 616.58557Q49.309277 616.57117 49.164726 616.54236Q49.02018 616.51367 48.879143 616.47083Q48.73811 616.42804 48.601944 616.37158Q48.465782 616.31519 48.335808 616.24573Q48.205826 616.17627 48.083282 616.09436Q47.960747 616.01245 47.846817 615.91895Q47.732895 615.82544 47.628677 615.72125Q47.524467 615.61707 47.430969 615.50311Q47.337471 615.38916 47.255585 615.2666Q47.173706 615.14404 47.104233 615.0141Q47.03476 614.88409 46.978359 614.74792Q46.921963 614.61182 46.879177 614.47076Q46.836395 614.32977 46.80764 614.18518Q46.778893 614.04071 46.76445 613.89404Q46.75 613.74744 46.75 613.59998Q46.75 613.45264 46.76445 613.30591Q46.778896 613.15918 46.807648 613.01465Q46.836403 612.87012 46.879181 612.72906Q46.921963 612.58801 46.978359 612.45184Q47.03476 612.31567 47.104233 612.18573Q47.173706 612.05579 47.255585 611.93317Q47.337471 611.81067 47.430969 611.69678Q47.524467 611.58289 47.628677 611.47864Q47.732895 611.37445 47.846817 611.28094Q47.960747 611.18744 48.083282 611.10553Q48.205826 611.02368 48.335808 610.95422Q48.465782 610.88477 48.601944 610.82831Q48.73811 610.77197 48.879143 610.72913Q49.02018 610.6864 49.164726 610.65759Q49.309277 610.62891 49.455948 610.61444Q49.602619 610.59998 49.75 610.59998Q49.897381 610.59998 50.044052 610.61444Q50.19072 610.62891 50.335266 610.65759Q50.479816 610.6864 50.620853 610.72913Q50.761887 610.77191 50.898045 610.82825Q51.03421 610.8847 51.164188 610.95416Q51.294167 611.02368 51.416706 611.10547Q51.539253 611.18738 51.653179 611.28088Q51.767105 611.37439 51.871315 611.47858Q51.975533 611.58282 52.069023 611.69678Q52.162521 611.81067 52.2444 611.93311Q52.326279 612.05573 52.395756 612.18573Q52.465233 612.31567 52.521633 612.45184Q52.578033 612.58801 52.620815 612.72906Q52.663597 612.87012 52.692348 613.01465Q52.721107 613.15918 52.73555 613.30591Q52.75 613.45264 52.75 613.59998Z"/>
		<path fill="none" stroke="#C32222" stroke-width="2" stroke-miterlimit="10" d="M52.75 613.59998Q52.75 613.74744 52.73555 613.89404Q52.721107 614.04071 52.692352 614.18518Q52.663601 614.32977 52.620815 614.47083Q52.578033 614.61182 52.521633 614.74792Q52.465233 614.88409 52.39576 615.01404Q52.326286 615.14404 52.244404 615.2666Q52.162525 615.38916 52.069027 615.50311Q51.975533 615.61707 51.871319 615.72125Q51.767105 615.82544 51.653179 615.91895Q51.539253 616.01245 51.416706 616.09436Q51.294167 616.17627 51.164188 616.24573Q51.03421 616.31519 50.898048 616.37158Q50.76189 616.42804 50.620857 616.47083Q50.47982 616.51367 50.33527 616.54236Q50.19072 616.57117 50.044052 616.58557Q49.897381 616.59998 49.75 616.59998Q49.602619 616.59998 49.455948 616.58557Q49.309277 616.57117 49.164726 616.54236Q49.02018 616.51367 48.879143 616.47083Q48.73811 616.42804 48.601944 616.37158Q48.465782 616.31519 48.335808 616.24573Q48.205826 616.17627 48.083282 616.09436Q47.960747 616.01245 47.846817 615.91895Q47.732895 615.82544 47.628677 615.72125Q47.524467 615.61707 47.430969 615.50311Q47.337471 615.38916 47.255585 615.2666Q47.173706 615.14404 47.104233 615.0141Q47.03476 614.88409 46.978359 614.74792Q46.921963 614.61182 46.879177 614.47076Q46.836395 614.32977 46.80764 614.18518Q46.778893 614.04071 46.76445 613.89404Q46.75 613.74744 46.75 613.59998Q46.75 613.45264 46.76445 613.30591Q46.778896 613.15918 46.807648 613.01465Q46.836403 612.87012 46.879181 612.72906Q46.921963 612.58801 46.978359 612.45184Q47.03476 612.31567 47.104233 612.18573Q47.173706 612.05579 47.255585 611.93317Q47.337471 611.81067 47.430969 611.69678Q47.524467 611.58289 47.628677 611.47864Q47.732895 611.37445 47.846817 611.28094Q47.960747 611.18744 48.083282 611.10553Q48.205826 611.02368 48.335808 610.95422Q48.465782 610.88477 48.601944 610.82831Q48.73811 610.77197 48.879143 610.72913Q49.02018 610.6864 49.164726 610.65759Q49.309277 610.62891 49.455948 610.61444Q49.602619 610.59998 49.75 610.59998Q49.897381 610.59998 50.044052 610.61444Q50.19072 610.62891 50.335266 610.65759Q50.479816 610.6864 50.620853 610.72913Q50.761887 610.77191 50.898045 610.82825Q51.03421 610.8847 51.164188 610.95416Q51.294167 611.02368 51.416706 611.10547Q51.539253 611.18738 51.653179 611.28088Q51.767105 611.37439 51.871315 611.47858Q51.975533 611.58282 52.069023 611.69678Q52.162521 611.81067 52.2444 611.93311Q52.326279 612.05573 52.395756 612.18573Q52.465233 612.31567 52.521633 612.45184Q52.578033 612.58801 52.620815 612.72906Q52.663597 612.87012 52.692348 613.01465Q52.721107 613.15918 52.73555 613.30591Q52.75 613.45264 52.75 613.59998Z"/>
	</g>
</svg>
