<?xml version="1.0" encoding="utf-8" ?>
<svg xmlns="http://www.w3.org/2000/svg" xmlns:xlink="http://www.w3.org/1999/xlink" width="1200" height="800">
	<rect fill="white" width="1200" height="800"/>
	<path fill="none" stroke="black" stroke-width="1" stroke-miterlimit="10" stroke-opacity="0.10196079" d="M49.5 71.199997L49.5 749"/>
	<path fill="none" stroke="black" stroke-width="1" stroke-miterlimit="10" stroke-opacity="0.10196079" d="M49.5 750L49.5 757.20001"/>
	<path fill="none" stroke="black" stroke-width="1" stroke-miterlimit="10" stroke-opacity="0.10196079" d="M1180.5 71.199997L1180.5 749"/>
	<path fill="none" stroke="black" stroke-width="1" stroke-miterlimit="10" stroke-opacity="0.10196079" d="M1180.5 750L1180.5 757.20001"/>
	<path fill="#666" transform="translate(615.203 788.8)" d="M-26.878296 4.1005859L-29.022827 0.67285156L-31.595093 0.67285156L-31.595093 4.1005859L-32.714233 4.1005859L-32.714233 -4.1552734L-28.829468 -4.1552734Q-27.434937 -4.1552734 -26.676147 -3.53125Q-25.917358 -2.9072266 -25.917358 -1.7939453Q-25.917358 -0.87402344 -26.453491 -0.24707031Q-26.989624 0.37988281 -27.932983 0.54394531L-25.589233 4.1005859L-26.878296 4.1005859ZM-27.042358 -1.7822266Q-27.042358 -2.5029297 -27.531616 -2.8808594Q-28.020874 -3.2587891 -28.940796 -3.2587891L-31.595093 -3.2587891L-31.595093 -0.21191406L-28.893921 -0.21191406Q-28.009155 -0.21191406 -27.525757 -0.625Q-27.042358 -1.0380859 -27.042358 -1.7822266ZM-23.415405 1.1533203Q-23.415405 2.2431641 -22.964233 2.8349609Q-22.513062 3.4267578 -21.645874 3.4267578Q-20.960327 3.4267578 -20.547241 3.1513672Q-20.134155 2.8759766 -19.987671 2.4541016L-19.06189 2.7177734Q-19.630249 4.2177734 -21.645874 4.2177734Q-23.052124 4.2177734 -23.787476 3.3798828Q-24.522827 2.5419922 -24.522827 0.88964844Q-24.522827 -0.68066406 -23.787476 -1.5185547Q-23.052124 -2.3564453 -21.68689 -2.3564453Q-18.891968 -2.3564453 -18.891968 1.0126953L-18.891968 1.1533203L-23.415405 1.1533203ZM-19.981812 0.34472656Q-20.069702 -0.65722656 -20.491577 -1.1171875Q-20.913452 -1.5771484 -21.704468 -1.5771484Q-22.472046 -1.5771484 -22.920288 -1.0644531Q-23.36853 -0.55175781 -23.403687 0.34472656L-19.981812 0.34472656ZM-17.550171 4.1005859L-17.550171 -4.5947266L-16.495483 -4.5947266L-16.495483 4.1005859L-17.550171 4.1005859ZM-14.075562 1.1533203Q-14.075562 2.2431641 -13.62439 2.8349609Q-13.173218 3.4267578 -12.30603 3.4267578Q-11.620483 3.4267578 -11.207397 3.1513672Q-10.794312 2.8759766 -10.647827 2.4541016L-9.7220459 2.7177734Q-10.290405 4.2177734 -12.30603 4.2177734Q-13.71228 4.2177734 -14.447632 3.3798828Q-15.182983 2.5419922 -15.182983 0.88964844Q-15.182983 -0.68066406 -14.447632 -1.5185547Q-13.71228 -2.3564453 -12.347046 -2.3564453Q-9.552124 -2.3564453 -9.552124 1.0126953L-9.552124 1.1533203L-14.075562 1.1533203ZM-10.641968 0.34472656Q-10.729858 -0.65722656 -11.151733 -1.1171875Q-11.573608 -1.5771484 -12.364624 -1.5771484Q-13.132202 -1.5771484 -13.580444 -1.0644531Q-14.028687 -0.55175781 -14.063843 0.34472656L-10.641968 0.34472656ZM-6.5931396 4.2177734Q-7.5482178 4.2177734 -8.0286865 3.7138672Q-8.5091553 3.2099609 -8.5091553 2.3310547Q-8.5091553 1.3466797 -7.8616943 0.81933594Q-7.2142334 0.29199219 -5.7728271 0.25683594L-4.348999 0.23339844L-4.348999 -0.11230469Q-4.348999 -0.88574219 -4.677124 -1.2197266Q-5.005249 -1.5537109 -5.708374 -1.5537109Q-6.4173584 -1.5537109 -6.739624 -1.3134766Q-7.0618896 -1.0732422 -7.1263428 -0.54589844L-8.2279053 -0.64550781Q-7.958374 -2.3564453 -5.6849365 -2.3564453Q-4.489624 -2.3564453 -3.8861084 -1.8085938Q-3.2825928 -1.2607422 -3.2825928 -0.22363281L-3.2825928 2.5068359Q-3.2825928 2.9755859 -3.1595459 3.2128906Q-3.036499 3.4501953 -2.6907959 3.4501953Q-2.5384521 3.4501953 -2.3450928 3.4091797L-2.3450928 4.0654297Q-2.7435303 4.1591797 -3.1595459 4.1591797Q-3.7454834 4.1591797 -4.012085 3.8515625Q-4.2786865 3.5439453 -4.3138428 2.8876953L-4.348999 2.8876953Q-4.7532959 3.6142578 -5.2894287 3.9160156Q-5.8255615 4.2177734 -6.5931396 4.2177734ZM-6.3529053 3.4267578Q-5.7728271 3.4267578 -5.3216553 3.1630859Q-4.8704834 2.8994141 -4.6097412 2.4394531Q-4.348999 1.9794922 -4.348999 1.4931641L-4.348999 0.97167969L-5.5032959 0.99511719Q-6.2474365 1.0068359 -6.6312256 1.1474609Q-7.0150146 1.2880859 -7.2200928 1.5810547Q-7.4251709 1.8740234 -7.4251709 2.3486328Q-7.4251709 2.8642578 -7.1468506 3.1455078Q-6.8685303 3.4267578 -6.3529053 3.4267578ZM3.2213135 2.3486328Q3.2213135 3.2451172 2.5445557 3.7314453Q1.8677979 4.2177734 0.64904785 4.2177734Q-0.5345459 4.2177734 -1.1761475 3.828125Q-1.817749 3.4384766 -2.0111084 2.6123047L-1.0794678 2.4306641Q-0.94470215 2.9404297 -0.52282715 3.1777344Q-0.10095215 3.4150391 0.64904785 3.4150391Q1.4517822 3.4150391 1.8238525 3.1689453Q2.1959229 2.9228516 2.1959229 2.4306641Q2.1959229 2.0556641 1.9381104 1.8212891Q1.6802979 1.5869141 1.1060791 1.4345703L0.35021973 1.2353516Q-0.5579834 1.0009766 -0.94177246 0.77539062Q-1.3255615 0.54980469 -1.5423584 0.22753906Q-1.7591553 -0.094726562 -1.7591553 -0.56347656Q-1.7591553 -1.4306641 -1.1409912 -1.8847656Q-0.52282715 -2.3388672 0.6607666 -2.3388672Q1.7095947 -2.3388672 2.3277588 -1.9697266Q2.9459229 -1.6005859 3.1099854 -0.78613281L2.1607666 -0.66894531Q2.072876 -1.0908203 1.6890869 -1.3164062Q1.3052979 -1.5419922 0.6607666 -1.5419922Q-0.054077148 -1.5419922 -0.3939209 -1.3251953Q-0.73376465 -1.1083984 -0.73376465 -0.66894531Q-0.73376465 -0.39941406 -0.59313965 -0.22363281Q-0.45251465 -0.047851562 -0.17712402 0.075195312Q0.098266602 0.19824219 0.98303223 0.41503906Q1.8209229 0.62597656 2.1900635 0.8046875Q2.5592041 0.98339844 2.7730713 1.2001953Q2.9869385 1.4169922 3.104126 1.7011719Q3.2213135 1.9853516 3.2213135 2.3486328ZM5.2720947 1.1533203Q5.2720947 2.2431641 5.7232666 2.8349609Q6.1744385 3.4267578 7.041626 3.4267578Q7.7271729 3.4267578 8.1402588 3.1513672Q8.5533447 2.8759766 8.6998291 2.4541016L9.6256104 2.7177734Q9.057251 4.2177734 7.041626 4.2177734Q5.635376 4.2177734 4.9000244 3.3798828Q4.1646729 2.5419922 4.1646729 0.88964844Q4.1646729 -0.68066406 4.9000244 -1.5185547Q5.635376 -2.3564453 7.0006104 -2.3564453Q9.7955322 -2.3564453 9.7955322 1.0126953L9.7955322 1.1533203L5.2720947 1.1533203ZM8.7056885 0.34472656Q8.6177979 -0.65722656 8.1959229 -1.1171875Q7.7740479 -1.5771484 6.9830322 -1.5771484Q6.2154541 -1.5771484 5.7672119 -1.0644531Q5.3189697 -0.55175781 5.2838135 0.34472656L8.7056885 0.34472656ZM17.664673 -3.2412109L17.664673 4.1005859L16.551392 4.1005859L16.551392 -3.2412109L13.715454 -3.2412109L13.715454 -4.1552734L20.50061 -4.1552734L20.50061 -3.2412109L17.664673 -3.2412109ZM21.871704 4.2177734Q20.916626 4.2177734 20.436157 3.7138672Q19.955688 3.2099609 19.955688 2.3310547Q19.955688 1.3466797 20.603149 0.81933594Q21.25061 0.29199219 22.692017 0.25683594L24.115845 0.23339844L24.115845 -0.11230469Q24.115845 -0.88574219 23.78772 -1.2197266Q23.459595 -1.5537109 22.75647 -1.5537109Q22.047485 -1.5537109 21.72522 -1.3134766Q21.402954 -1.0732422 21.338501 -0.54589844L20.236938 -0.64550781Q20.50647 -2.3564453 22.779907 -2.3564453Q23.97522 -2.3564453 24.578735 -1.8085938Q25.182251 -1.2607422 25.182251 -0.22363281L25.182251 2.5068359Q25.182251 2.9755859 25.305298 3.2128906Q25.428345 3.4501953 25.774048 3.4501953Q25.926392 3.4501953 26.119751 3.4091797L26.119751 4.0654297Q25.721313 4.1591797 25.305298 4.1591797Q24.71936 4.1591797 24.452759 3.8515625Q24.186157 3.5439453 24.151001 2.8876953L24.115845 2.8876953Q23.711548 3.6142578 23.175415 3.9160156Q22.639282 4.2177734 21.871704 4.2177734ZM22.111938 3.4267578Q22.692017 3.4267578 23.143188 3.1630859Q23.59436 2.8994141 23.855103 2.4394531Q24.115845 1.9794922 24.115845 1.4931641L24.115845 0.97167969L22.961548 0.99511719Q22.217407 1.0068359 21.833618 1.1474609Q21.449829 1.2880859 21.244751 1.5810547Q21.039673 1.8740234 21.039673 2.3486328Q21.039673 2.8642578 21.317993 3.1455078Q21.596313 3.4267578 22.111938 3.4267578ZM29.330688 6.5908203Q28.293579 6.5908203 27.678345 6.1835938Q27.06311 5.7763672 26.887329 5.0263672L27.947876 4.8740234Q28.053345 5.3134766 28.413696 5.5507812Q28.774048 5.7880859 29.359985 5.7880859Q30.936157 5.7880859 30.936157 3.9423828L30.936157 2.9228516L30.924438 2.9228516Q30.62561 3.5322266 30.104126 3.8398438Q29.582642 4.1474609 28.885376 4.1474609Q27.71936 4.1474609 27.171509 3.3740234Q26.623657 2.6005859 26.623657 0.94238281Q26.623657 -0.73925781 27.212524 -1.5390625Q27.801392 -2.3388672 29.002563 -2.3388672Q29.676392 -2.3388672 30.171509 -2.03125Q30.666626 -1.7236328 30.936157 -1.1552734L30.947876 -1.1552734Q30.947876 -1.3310547 30.971313 -1.7646484Q30.994751 -2.1982422 31.018188 -2.2392578L32.020142 -2.2392578Q31.984985 -1.9228516 31.984985 -0.92675781L31.984985 3.9189453Q31.984985 6.5908203 29.330688 6.5908203ZM30.936157 0.93066406Q30.936157 0.15722656 30.72522 -0.40234375Q30.514282 -0.96191406 30.130493 -1.2578125Q29.746704 -1.5537109 29.260376 -1.5537109Q28.451782 -1.5537109 28.082642 -0.96777344Q27.713501 -0.38183594 27.713501 0.93066406Q27.713501 2.2314453 28.059204 2.7998047Q28.404907 3.3681641 29.242798 3.3681641Q29.740845 3.3681641 30.127563 3.0751953Q30.514282 2.7822266 30.72522 2.234375Q30.936157 1.6865234 30.936157 0.93066406Z"/>
	<path fill="none" stroke="black" stroke-width="1" stroke-miterlimit="10" stroke-opacity="0.10196079" d="M50 749.5L1180.655 749.5"/>
	<path fill="none" stroke="black" stroke-width="1" stroke-miterlimit="10" stroke-opacity="0.10196079" d="M41.75 749.5L49 749.5"/>
	<path fill="none" stroke="black" stroke-width="1" stroke-miterlimit="10" stroke-opacity="0.10196079" d="M50 681.5L1180.655 681.5"/>
	<path fill="none" stroke="black" stroke-width="1" stroke-miterlimit="10" stroke-opacity="0.10196079" d="M41.75 681.5L49 681.5"/>
	<path fill="none" stroke="black" stroke-width="1" stroke-miterlimit="10" stroke-opacity="0.10196079" d="M50 613.5L1180.655 613.5"/>
	<path fill="none" stroke="black" stroke-width="1" stroke-miterlimit="10" stroke-opacity="0.10196079" d="M41.75 613.5L49 613.5"/>
	<path fill="none" stroke="black" stroke-width="1" stroke-miterlimit="10" stroke-opacity="0.10196079" d="M50 545.5L1180.655 545.5"/>
	<path fill="none" stroke="black" stroke-width="1" stroke-miterlimit="10" stroke-opacity="0.10196079" d="M41.75 545.5L49 545.5"/>
	<path fill="none" stroke="black" stroke-width="1" stroke-miterlimit="10" stroke-opacity="0.10196079" d="M50 478.5L1180.655 478.5"/>
	<path fill="none" stroke="black" stroke-width="1" stroke-miterlimit="10" stroke-opacity="0.10196079" d="M41.75 478.5L49 478.5"/>
	<path fill="none" stroke="black" stroke-width="1" stroke-miterlimit="10" stroke-opacity="0.10196079" d="M50 410.5L1180.655 410.5"/>
	<path fill="none" stroke="black" stroke-width="1" stroke-miterlimit="10" stroke-opacity="0.10196079" d="M41.75 410.5L49 410.5"/>
	<path fill="none" stroke="black" stroke-width="1" stroke-miterlimit="10" stroke-opacity="0.10196079" d="M50 342.5L1180.655 342.5"/>
	<path fill="none" stroke="black" stroke-width="1" stroke-miterlimit="10" stroke-opacity="0.10196079" d="M41.75 342.5L49 342.5"/>
	<path fill="none" stroke="black" stroke-width="1" stroke-miterlimit="10" stroke-opacity="0.10196079" d="M50 274.5L1180.655 274.5"/>
	<path fill="none" stroke="black" stroke-width="1" stroke-miterlimit="10" stroke-opacity="0.10196079" d="M41.75 274.5L49 274.5"/>
	<path fill="none" stroke="black" stroke-width="1" stroke-miterlimit="10" stroke-opacity="0.10196079" d="M50 206.5L1180.655 206.5"/>
	<path fill="none" stroke="black" stroke-width="1" stroke-miterlimit="10" stroke-opacity="0.10196079" d="M41.75 206.5L49 206.5"/>
	<path fill="none" stroke="black" stroke-width="1" stroke-miterlimit="10" stroke-opacity="0.10196079" d="M50 139.5L1180.655 139.5"/>
	<path fill="none" stroke="black" stroke-width="1" stroke-miterlimit="10" stroke-opacity="0.10196079" d="M41.75 139.5L49 139.5"/>
	<path fill="none" stroke="black" stroke-width="1" stroke-miterlimit="10" stroke-opacity="0.10196079" d="M50 71.5L1180.655 71.5"/>
	<path fill="none" stroke="black" stroke-width="1" stroke-miterlimit="10" stroke-opacity="0.10196079" d="M41.75 71.5L49 71.5"/>
	<path fill="#666" transform="matrix(0 -1 1 0 11.2 410.2)" d="M-21.591797 -0.11230469Q-21.591797 1.1650391 -22.089844 2.1230469Q-22.587891 3.0810547 -23.501953 3.5908203Q-24.416016 4.1005859 -25.611328 4.1005859L-28.699219 4.1005859L-28.699219 -4.1552734L-25.96875 -4.1552734Q-23.871094 -4.1552734 -22.731445 -3.1035156Q-21.591797 -2.0517578 -21.591797 -0.11230469ZM-22.716797 -0.11230469Q-22.716797 -1.6474609 -23.557617 -2.453125Q-24.398438 -3.2587891 -25.992188 -3.2587891L-27.580078 -3.2587891L-27.580078 3.2041016L-25.740234 3.2041016Q-24.832031 3.2041016 -24.143555 2.8056641Q-23.455078 2.4072266 -23.085938 1.6572266Q-22.716797 0.90722656 -22.716797 -0.11230469ZM-14.847656 0.92480469Q-14.847656 2.5888672 -15.580078 3.4033203Q-16.3125 4.2177734 -17.707031 4.2177734Q-19.095703 4.2177734 -19.804688 3.3710938Q-20.513672 2.5244141 -20.513672 0.92480469Q-20.513672 -2.3564453 -17.671875 -2.3564453Q-16.21875 -2.3564453 -15.533203 -1.5566406Q-14.847656 -0.75683594 -14.847656 0.92480469ZM-15.955078 0.92480469Q-15.955078 -0.38769531 -16.344727 -0.98242188Q-16.734375 -1.5771484 -17.654297 -1.5771484Q-18.580078 -1.5771484 -18.993164 -0.97070312Q-19.40625 -0.36425781 -19.40625 0.92480469Q-19.40625 2.1787109 -18.999023 2.8085938Q-18.591797 3.4384766 -17.71875 3.4384766Q-16.769531 3.4384766 -16.362305 2.8291016Q-15.955078 2.2197266 -15.955078 0.92480469ZM-7.4648438 4.1005859L-8.6894531 4.1005859L-9.796875 -0.38183594L-10.007812 -1.3720703Q-10.060547 -1.1083984 -10.171875 -0.61328125Q-10.283203 -0.11816406 -11.367188 4.1005859L-12.585938 4.1005859L-14.361328 -2.2392578L-13.318359 -2.2392578L-12.246094 2.0673828Q-12.205078 2.2080078 -11.994141 3.2275391L-11.894531 2.7939453L-10.570312 -2.2392578L-9.4394531 -2.2392578L-8.3320312 2.1142578L-8.0625 3.2275391L-7.8808594 2.4130859L-6.6796875 -2.2392578L-5.6484375 -2.2392578L-7.4648438 4.1005859ZM-0.84375 4.1005859L-0.84375 0.081054688Q-0.84375 -0.54589844 -0.96679688 -0.89160156Q-1.0898438 -1.2373047 -1.359375 -1.3896484Q-1.6289062 -1.5419922 -2.1503906 -1.5419922Q-2.9121094 -1.5419922 -3.3515625 -1.0205078Q-3.7910156 -0.49902344 -3.7910156 0.42675781L-3.7910156 4.1005859L-4.8457031 4.1005859L-4.8457031 -0.88574219Q-4.8457031 -1.9931641 -4.8808594 -2.2392578L-3.8847656 -2.2392578Q-3.8789062 -2.2099609 -3.8730469 -2.0810547Q-3.8671875 -1.9521484 -3.8583984 -1.7851562Q-3.8496094 -1.6181641 -3.8378906 -1.1552734L-3.8203125 -1.1552734Q-3.4570312 -1.8115234 -2.9794922 -2.0839844Q-2.5019531 -2.3564453 -1.7929688 -2.3564453Q-0.75 -2.3564453 -0.26660156 -1.8378906Q0.21679688 -1.3193359 0.21679688 -0.12402344L0.21679688 4.1005859L-0.84375 4.1005859ZM1.8046875 4.1005859L1.8046875 -4.5947266L2.859375 -4.5947266L2.859375 4.1005859L1.8046875 4.1005859ZM9.8320312 0.92480469Q9.8320312 2.5888672 9.0996094 3.4033203Q8.3671875 4.2177734 6.9726562 4.2177734Q5.5839844 4.2177734 4.875 3.3710938Q4.1660156 2.5244141 4.1660156 0.92480469Q4.1660156 -2.3564453 7.0078125 -2.3564453Q8.4609375 -2.3564453 9.1464844 -1.5566406Q9.8320312 -0.75683594 9.8320312 0.92480469ZM8.7246094 0.92480469Q8.7246094 -0.38769531 8.3349609 -0.98242188Q7.9453125 -1.5771484 7.0253906 -1.5771484Q6.0996094 -1.5771484 5.6865234 -0.97070312Q5.2734375 -0.36425781 5.2734375 0.92480469Q5.2734375 2.1787109 5.6806641 2.8085938Q6.0878906 3.4384766 6.9609375 3.4384766Q7.9101562 3.4384766 8.3173828 2.8291016Q8.7246094 2.2197266 8.7246094 0.92480469ZM12.761719 4.2177734Q11.806641 4.2177734 11.326172 3.7138672Q10.845703 3.2099609 10.845703 2.3310547Q10.845703 1.3466797 11.493164 0.81933594Q12.140625 0.29199219 13.582031 0.25683594L15.005859 0.23339844L15.005859 -0.11230469Q15.005859 -0.88574219 14.677734 -1.2197266Q14.349609 -1.5537109 13.646484 -1.5537109Q12.9375 -1.5537109 12.615234 -1.3134766Q12.292969 -1.0732422 12.228516 -0.54589844L11.126953 -0.64550781Q11.396484 -2.3564453 13.669922 -2.3564453Q14.865234 -2.3564453 15.46875 -1.8085938Q16.072266 -1.2607422 16.072266 -0.22363281L16.072266 2.5068359Q16.072266 2.9755859 16.195312 3.2128906Q16.318359 3.4501953 16.664062 3.4501953Q16.816406 3.4501953 17.009766 3.4091797L17.009766 4.0654297Q16.611328 4.1591797 16.195312 4.1591797Q15.609375 4.1591797 15.342773 3.8515625Q15.076172 3.5439453 15.041016 2.8876953L15.005859 2.8876953Q14.601562 3.6142578 14.06543 3.9160156Q13.529297 4.2177734 12.761719 4.2177734ZM13.001953 3.4267578Q13.582031 3.4267578 14.033203 3.1630859Q14.484375 2.8994141 14.745117 2.4394531Q15.005859 1.9794922 15.005859 1.4931641L15.005859 0.97167969L13.851562 0.99511719Q13.107422 1.0068359 12.723633 1.1474609Q12.339844 1.2880859 12.134766 1.5810547Q11.929688 1.8740234 11.929688 2.3486328Q11.929688 2.8642578 12.208008 3.1455078Q12.486328 3.4267578 13.001953 3.4267578ZM21.820312 3.0810547Q21.527344 3.6904297 21.043945 3.9541016Q20.560547 4.2177734 19.845703 4.2177734Q18.644531 4.2177734 18.079102 3.4091797Q17.513672 2.6005859 17.513672 0.95996094Q17.513672 -2.3564453 19.845703 -2.3564453Q20.566406 -2.3564453 21.046875 -2.0927734Q21.527344 -1.8291016 21.820312 -1.2548828L21.832031 -1.2548828L21.820312 -1.9638672L21.820312 -4.5947266L22.875 -4.5947266L22.875 2.7939453Q22.875 3.7841797 22.910156 4.1005859L21.902344 4.1005859Q21.884766 4.0068359 21.864258 3.6669922Q21.84375 3.3271484 21.84375 3.0810547L21.820312 3.0810547ZM18.621094 0.92480469Q18.621094 2.2548828 18.972656 2.8291016Q19.324219 3.4033203 20.115234 3.4033203Q21.011719 3.4033203 21.416016 2.7822266Q21.820312 2.1611328 21.820312 0.85449219Q21.820312 -0.40527344 21.416016 -0.99121094Q21.011719 -1.5771484 20.126953 -1.5771484Q19.330078 -1.5771484 18.975586 -0.98828125Q18.621094 -0.39941406 18.621094 0.92480469ZM29.25 2.3486328Q29.25 3.2451172 28.573242 3.7314453Q27.896484 4.2177734 26.677734 4.2177734Q25.494141 4.2177734 24.852539 3.828125Q24.210938 3.4384766 24.017578 2.6123047L24.949219 2.4306641Q25.083984 2.9404297 25.505859 3.1777344Q25.927734 3.4150391 26.677734 3.4150391Q27.480469 3.4150391 27.852539 3.1689453Q28.224609 2.9228516 28.224609 2.4306641Q28.224609 2.0556641 27.966797 1.8212891Q27.708984 1.5869141 27.134766 1.4345703L26.378906 1.2353516Q25.470703 1.0009766 25.086914 0.77539062Q24.703125 0.54980469 24.486328 0.22753906Q24.269531 -0.094726562 24.269531 -0.56347656Q24.269531 -1.4306641 24.887695 -1.8847656Q25.505859 -2.3388672 26.689453 -2.3388672Q27.738281 -2.3388672 28.356445 -1.9697266Q28.974609 -1.6005859 29.138672 -0.78613281L28.189453 -0.66894531Q28.101562 -1.0908203 27.717773 -1.3164062Q27.333984 -1.5419922 26.689453 -1.5419922Q25.974609 -1.5419922 25.634766 -1.3251953Q25.294922 -1.1083984 25.294922 -0.66894531Q25.294922 -0.39941406 25.435547 -0.22363281Q25.576172 -0.047851562 25.851562 0.075195312Q26.126953 0.19824219 27.011719 0.41503906Q27.849609 0.62597656 28.21875 0.8046875Q28.587891 0.98339844 28.801758 1.2001953Q29.015625 1.4169922 29.132812 1.7011719Q29.25 1.9853516 29.25 2.3486328Z"/>
	<clipPath id="cl_70">
		<rect y="39.200001" width="1200" height="31.999996"/>
	</clipPath>
	<g clip-path="url(#cl_70)">
		<path fill="#C32222" fill-opacity="0.2" d="M569.33002 49.200001L609.33002 49.200001L609.33002 61.200001L569.33002 61.200001L569.33002 49.200001Z"/>
		<path fill="none" stroke="#C32222" stroke-width="2" stroke-miterlimit="10" d="M569.33002 49.200001L609.33002 49.200001L609.33002 61.200001L569.33002 61.200001L569.33002 49.200001Z"/>
	</g>
	<clipPath id="cl_71">
		<rect y="39.200001" width="1200" height="31.999996"/>
	</clipPath>
	<g clip-path="url(#cl_71)">
		<path fill="#666" d="M615.81635 59.300587L615.81635 58.497852L619.36127 53.775196L616.01556 53.775196L616.01556 52.960743L620.60931 52.960743L620.60931 53.763477L617.05853 58.486134L620.73236 58.486134L620.73236 59.300587L615.81635 59.300587ZM622.13275 51.613087L622.13275 50.605274L623.18744 50.605274L623.18744 51.613087L622.13275 51.613087ZM622.13275 59.300587L622.13275 52.960743L623.18744 52.960743L623.18744 59.300587L622.13275 59.300587ZM630.16595 56.101368Q630.16595 59.417774 627.83392 59.417774Q626.36908 59.417774 625.86517 58.316212L625.83588 58.316212Q625.85931 58.363087 625.85931 59.312305L625.85931 61.790821L624.80463 61.790821L624.80463 54.255665Q624.80463 53.277149 624.76947 52.960743L625.789 52.960743Q625.79486 52.98418 625.80658 53.127735Q625.8183 53.27129 625.83295 53.570118Q625.8476 53.868946 625.8476 53.980274L625.87103 53.980274Q626.15228 53.394337 626.61517 53.121876Q627.07806 52.849415 627.83392 52.849415Q629.0058 52.849415 629.58588 53.634571Q630.16595 54.419727 630.16595 56.101368ZM629.05853 56.124805Q629.05853 54.800587 628.70111 54.232227Q628.34369 53.663868 627.56439 53.663868Q626.93744 53.663868 626.58295 53.92754Q626.22845 54.191212 626.04388 54.750782Q625.85931 55.310352 625.85931 56.206837Q625.85931 57.454884 626.25775 58.04668Q626.65619 58.638477 627.55267 58.638477Q628.33783 58.638477 628.69818 58.061329Q629.05853 57.48418 629.05853 56.124805Z"/>
	</g>
	<path fill="#666" transform="translate(600 19.6)" d="M-290.30078 3.3320312Q-290.30078 4.5585938 -291.30469 5.2578125Q-292.30859 5.9570312 -294.08203 5.9570312Q-295.82422 5.9570312 -296.75 5.40625Q-297.67578 4.8554688 -297.98047 3.6914062L-296.05078 3.4023438Q-295.88672 4.0039062 -295.48438 4.2539062Q-295.08203 4.5039062 -294.08203 4.5039062Q-293.16016 4.5039062 -292.73828 4.2695312Q-292.31641 4.0351562 -292.31641 3.5351562Q-292.31641 3.1289062 -292.65625 2.890625Q-292.99609 2.6523438 -293.80859 2.4882812Q-295.66797 2.1210938 -296.31641 1.8046875Q-296.96484 1.4882812 -297.30469 0.984375Q-297.64453 0.48046875 -297.64453 -0.25390625Q-297.64453 -1.4648438 -296.71094 -2.140625Q-295.77734 -2.8164062 -294.06641 -2.8164062Q-292.55859 -2.8164062 -291.64062 -2.2304688Q-290.72266 -1.6445312 -290.49609 -0.53515625L-292.44141 -0.33203125Q-292.53516 -0.84765625 -292.90234 -1.1015625Q-293.26953 -1.3554688 -294.06641 -1.3554688Q-294.84766 -1.3554688 -295.23828 -1.15625Q-295.62891 -0.95703125 -295.62891 -0.48828125Q-295.62891 -0.12109375 -295.32812 0.09375Q-295.02734 0.30859375 -294.31641 0.44921875Q-293.32422 0.65234375 -292.55469 0.8671875Q-291.78516 1.0820312 -291.32031 1.3789062Q-290.85547 1.6757812 -290.57812 2.140625Q-290.30078 2.6054688 -290.30078 3.3320312ZM-286.57422 5.9570312Q-287.80078 5.9570312 -288.48828 5.2890625Q-289.17578 4.6210938 -289.17578 3.4101562Q-289.17578 2.0976562 -288.32031 1.4101562Q-287.46484 0.72265625 -285.83984 0.70703125L-284.01953 0.67578125L-284.01953 0.24609375Q-284.01953 -0.58203125 -284.30859 -0.984375Q-284.59766 -1.3867188 -285.25391 -1.3867188Q-285.86328 -1.3867188 -286.14844 -1.109375Q-286.43359 -0.83203125 -286.50391 -0.19140625L-288.79297 -0.30078125Q-288.58203 -1.5351562 -287.66406 -2.171875Q-286.74609 -2.8085938 -285.16016 -2.8085938Q-283.55859 -2.8085938 -282.69141 -2.0195312Q-281.82422 -1.2304688 -281.82422 0.22265625L-281.82422 3.3007812Q-281.82422 4.0117188 -281.66406 4.28125Q-281.50391 4.5507812 -281.12891 4.5507812Q-280.87891 4.5507812 -280.64453 4.5039062L-280.64453 5.6914062Q-280.83984 5.7382812 -280.99609 5.7773438Q-281.15234 5.8164062 -281.30859 5.8398438Q-281.46484 5.8632812 -281.64062 5.8789062Q-281.81641 5.8945312 -282.05078 5.8945312Q-282.87891 5.8945312 -283.27344 5.4882812Q-283.66797 5.0820312 -283.74609 4.2929688L-283.79297 4.2929688Q-284.71484 5.9570312 -286.57422 5.9570312ZM-284.01953 1.8867188L-285.14453 1.9023438Q-285.91016 1.9335938 -286.23047 2.0703125Q-286.55078 2.2070312 -286.71875 2.4882812Q-286.88672 2.7695312 -286.88672 3.2382812Q-286.88672 3.8398438 -286.60938 4.1328125Q-286.33203 4.4257812 -285.87109 4.4257812Q-285.35547 4.4257812 -284.92969 4.1445312Q-284.50391 3.8632812 -284.26172 3.3671875Q-284.01953 2.8710938 -284.01953 2.3164062L-284.01953 1.8867188ZM-279.62891 -4.1757812L-279.62891 -5.7929688L-277.43359 -5.7929688L-277.43359 -4.1757812L-279.62891 -4.1757812ZM-279.62891 5.8007812L-279.62891 -2.6523438L-277.43359 -2.6523438L-277.43359 5.8007812L-279.62891 5.8007812ZM-275.18359 5.8007812L-275.18359 -5.7929688L-272.98828 -5.7929688L-272.98828 5.8007812L-275.18359 5.8007812ZM-262.73828 1.5351562Q-262.73828 3.6523438 -263.58594 4.8046875Q-264.43359 5.9570312 -265.98047 5.9570312Q-266.87109 5.9570312 -267.53125 5.5703125Q-268.19141 5.1835938 -268.54297 4.4570312L-268.58984 4.4570312Q-268.54297 4.6914062 -268.54297 5.8789062L-268.54297 9.1210938L-270.73828 9.1210938L-270.73828 -0.70703125Q-270.73828 -1.9023438 -270.80078 -2.6523438L-268.66797 -2.6523438Q-268.62891 -2.5117188 -268.60156 -2.0976562Q-268.57422 -1.6835938 -268.57422 -1.2773438L-268.54297 -1.2773438Q-267.80078 -2.8320312 -265.83984 -2.8320312Q-264.36328 -2.8320312 -263.55078 -1.6953125Q-262.73828 -0.55859375 -262.73828 1.5351562ZM-265.02734 1.5351562Q-265.02734 -1.3085938 -266.76953 -1.3085938Q-267.64453 -1.3085938 -268.10938 -0.54296875Q-268.57422 0.22265625 -268.57422 1.5976562Q-268.57422 2.9648438 -268.10938 3.7109375Q-267.64453 4.4570312 -266.78516 4.4570312Q-265.02734 4.4570312 -265.02734 1.5351562ZM-252.93359 1.5664062Q-252.93359 3.6210938 -254.07422 4.7890625Q-255.21484 5.9570312 -257.23047 5.9570312Q-259.20703 5.9570312 -260.33203 4.7851562Q-261.45703 3.6132812 -261.45703 1.5664062Q-261.45703 -0.47265625 -260.33203 -1.640625Q-259.20703 -2.8085938 -257.18359 -2.8085938Q-255.11328 -2.8085938 -254.02344 -1.6796875Q-252.93359 -0.55078125 -252.93359 1.5664062ZM-255.23047 1.5664062Q-255.23047 0.05859375 -255.72266 -0.62109375Q-256.21484 -1.3007812 -257.15234 -1.3007812Q-259.15234 -1.3007812 -259.15234 1.5664062Q-259.15234 2.9804688 -258.66406 3.71875Q-258.17578 4.4570312 -257.25391 4.4570312Q-255.23047 4.4570312 -255.23047 1.5664062ZM-251.19141 -4.1757812L-251.19141 -5.7929688L-248.99609 -5.7929688L-248.99609 -4.1757812L-251.19141 -4.1757812ZM-251.19141 5.8007812L-251.19141 -2.6523438L-248.99609 -2.6523438L-248.99609 5.8007812L-251.19141 5.8007812ZM-241.26953 5.8007812L-241.26953 1.0585938Q-241.26953 -1.1679688 -242.77734 -1.1679688Q-243.57422 -1.1679688 -244.0625 -0.484375Q-244.55078 0.19921875 -244.55078 1.2695312L-244.55078 5.8007812L-246.74609 5.8007812L-246.74609 -0.76171875Q-246.74609 -1.4414062 -246.76562 -1.875Q-246.78516 -2.3085938 -246.80859 -2.6523438L-244.71484 -2.6523438Q-244.69141 -2.5039062 -244.65234 -1.859375Q-244.61328 -1.2148438 -244.61328 -0.97265625L-244.58203 -0.97265625Q-244.13672 -1.9414062 -243.46484 -2.3789062Q-242.79297 -2.8164062 -241.86328 -2.8164062Q-240.51953 -2.8164062 -239.80078 -1.9882812Q-239.08203 -1.1601562 -239.08203 0.43359375L-239.08203 5.8007812L-241.26953 5.8007812ZM-234.80859 5.9414062Q-235.77734 5.9414062 -236.30078 5.4140625Q-236.82422 4.8867188 -236.82422 3.8164062L-236.82422 -1.1679688L-237.89453 -1.1679688L-237.89453 -2.6523438L-236.71484 -2.6523438L-236.02734 -4.6367188L-234.65234 -4.6367188L-234.65234 -2.6523438L-233.05078 -2.6523438L-233.05078 -1.1679688L-234.65234 -1.1679688L-234.65234 3.2226562Q-234.65234 3.8398438 -234.41797 4.1328125Q-234.18359 4.4257812 -233.69141 4.4257812Q-233.43359 4.4257812 -232.95703 4.3164062L-232.95703 5.6757812Q-233.76953 5.9414062 -234.80859 5.9414062ZM-232.13672 2.6054688L-232.13672 0.69921875L-228.07422 0.69921875L-228.07422 2.6054688L-232.13672 2.6054688ZM-218.28516 1.5664062Q-218.28516 3.6210938 -219.42578 4.7890625Q-220.56641 5.9570312 -222.58203 5.9570312Q-224.55859 5.9570312 -225.68359 4.7851562Q-226.80859 3.6132812 -226.80859 1.5664062Q-226.80859 -0.47265625 -225.68359 -1.640625Q-224.55859 -2.8085938 -222.53516 -2.8085938Q-220.46484 -2.8085938 -219.375 -1.6796875Q-218.28516 -0.55078125 -218.28516 1.5664062ZM-220.58203 1.5664062Q-220.58203 0.05859375 -221.07422 -0.62109375Q-221.56641 -1.3007812 -222.50391 -1.3007812Q-224.50391 -1.3007812 -224.50391 1.5664062Q-224.50391 2.9804688 -224.01562 3.71875Q-223.52734 4.4570312 -222.60547 4.4570312Q-220.58203 4.4570312 -220.58203 1.5664062ZM-209.41797 3.3320312Q-209.41797 4.5585938 -210.42188 5.2578125Q-211.42578 5.9570312 -213.19922 5.9570312Q-214.94141 5.9570312 -215.86719 5.40625Q-216.79297 4.8554688 -217.09766 3.6914062L-215.16797 3.4023438Q-215.00391 4.0039062 -214.60156 4.2539062Q-214.19922 4.5039062 -213.19922 4.5039062Q-212.27734 4.5039062 -211.85547 4.2695312Q-211.43359 4.0351562 -211.43359 3.5351562Q-211.43359 3.1289062 -211.77344 2.890625Q-212.11328 2.6523438 -212.92578 2.4882812Q-214.78516 2.1210938 -215.43359 1.8046875Q-216.08203 1.4882812 -216.42188 0.984375Q-216.76172 0.48046875 -216.76172 -0.25390625Q-216.76172 -1.4648438 -215.82812 -2.140625Q-214.89453 -2.8164062 -213.18359 -2.8164062Q-211.67578 -2.8164062 -210.75781 -2.2304688Q-209.83984 -1.6445312 -209.61328 -0.53515625L-211.55859 -0.33203125Q-211.65234 -0.84765625 -212.01953 -1.1015625Q-212.38672 -1.3554688 -213.18359 -1.3554688Q-213.96484 -1.3554688 -214.35547 -1.15625Q-214.74609 -0.95703125 -214.74609 -0.48828125Q-214.74609 -0.12109375 -214.44531 0.09375Q-214.14453 0.30859375 -213.43359 0.44921875Q-212.44141 0.65234375 -211.67188 0.8671875Q-210.90234 1.0820312 -210.4375 1.3789062Q-209.97266 1.6757812 -209.69531 2.140625Q-209.41797 2.6054688 -209.41797 3.3320312ZM-200.51953 3.3320312Q-200.51953 4.5585938 -201.52344 5.2578125Q-202.52734 5.9570312 -204.30078 5.9570312Q-206.04297 5.9570312 -206.96875 5.40625Q-207.89453 4.8554688 -208.19922 3.6914062L-206.26953 3.4023438Q-206.10547 4.0039062 -205.70312 4.2539062Q-205.30078 4.5039062 -204.30078 4.5039062Q-203.37891 4.5039062 -202.95703 4.2695312Q-202.53516 4.0351562 -202.53516 3.5351562Q-202.53516 3.1289062 -202.875 2.890625Q-203.21484 2.6523438 -204.02734 2.4882812Q-205.88672 2.1210938 -206.53516 1.8046875Q-207.18359 1.4882812 -207.52344 0.984375Q-207.86328 0.48046875 -207.86328 -0.25390625Q-207.86328 -1.4648438 -206.92969 -2.140625Q-205.99609 -2.8164062 -204.28516 -2.8164062Q-202.77734 -2.8164062 -201.85938 -2.2304688Q-200.94141 -1.6445312 -200.71484 -0.53515625L-202.66016 -0.33203125Q-202.75391 -0.84765625 -203.12109 -1.1015625Q-203.48828 -1.3554688 -204.28516 -1.3554688Q-205.06641 -1.3554688 -205.45703 -1.15625Q-205.84766 -0.95703125 -205.84766 -0.48828125Q-205.84766 -0.12109375 -205.54688 0.09375Q-205.24609 0.30859375 -204.53516 0.44921875Q-203.54297 0.65234375 -202.77344 0.8671875Q-202.00391 1.0820312 -201.53906 1.3789062Q-201.07422 1.6757812 -200.79688 2.140625Q-200.51953 2.6054688 -200.51953 3.3320312ZM-199.70703 6.1210938L-197.43359 -5.7929688L-195.57422 -5.7929688L-197.80859 6.1210938L-199.70703 6.1210938ZM-190.77734 5.9570312Q-192.69922 5.9570312 -193.74609 4.8125Q-194.79297 3.6679688 -194.79297 1.6210938Q-194.79297 -0.47265625 -193.73828 -1.640625Q-192.68359 -2.8085938 -190.74609 -2.8085938Q-189.25391 -2.8085938 -188.27734 -2.0585938Q-187.30078 -1.3085938 -187.05078 0.01171875L-189.26172 0.12109375Q-189.35547 -0.52734375 -189.73047 -0.9140625Q-190.10547 -1.3007812 -190.79297 -1.3007812Q-192.48828 -1.3007812 -192.48828 1.5351562Q-192.48828 4.4570312 -190.76172 4.4570312Q-190.13672 4.4570312 -189.71484 4.0625Q-189.29297 3.6679688 -189.19141 2.8867188L-186.98828 2.9882812Q-187.10547 3.8554688 -187.60938 4.5351562Q-188.11328 5.2148438 -188.93359 5.5859375Q-189.75391 5.9570312 -190.77734 5.9570312ZM-177.37109 1.5664062Q-177.37109 3.6210938 -178.51172 4.7890625Q-179.65234 5.9570312 -181.66797 5.9570312Q-183.64453 5.9570312 -184.76953 4.7851562Q-185.89453 3.6132812 -185.89453 1.5664062Q-185.89453 -0.47265625 -184.76953 -1.640625Q-183.64453 -2.8085938 -181.62109 -2.8085938Q-179.55078 -2.8085938 -178.46094 -1.6796875Q-177.37109 -0.55078125 -177.37109 1.5664062ZM-179.66797 1.5664062Q-179.66797 0.05859375 -180.16016 -0.62109375Q-180.65234 -1.3007812 -181.58984 -1.3007812Q-183.58984 -1.3007812 -183.58984 1.5664062Q-183.58984 2.9804688 -183.10156 3.71875Q-182.61328 4.4570312 -181.69141 4.4570312Q-179.66797 4.4570312 -179.66797 1.5664062ZM-175.62891 5.8007812L-175.62891 -5.7929688L-173.43359 -5.7929688L-173.43359 5.8007812L-175.62891 5.8007812ZM-169.23047 5.9570312Q-170.45703 5.9570312 -171.14453 5.2890625Q-171.83203 4.6210938 -171.83203 3.4101562Q-171.83203 2.0976562 -170.97656 1.4101562Q-170.12109 0.72265625 -168.49609 0.70703125L-166.67578 0.67578125L-166.67578 0.24609375Q-166.67578 -0.58203125 -166.96484 -0.984375Q-167.25391 -1.3867188 -167.91016 -1.3867188Q-168.51953 -1.3867188 -168.80469 -1.109375Q-169.08984 -0.83203125 -169.16016 -0.19140625L-171.44922 -0.30078125Q-171.23828 -1.5351562 -170.32031 -2.171875Q-169.40234 -2.8085938 -167.81641 -2.8085938Q-166.21484 -2.8085938 -165.34766 -2.0195312Q-164.48047 -1.2304688 -164.48047 0.22265625L-164.48047 3.3007812Q-164.48047 4.0117188 -164.32031 4.28125Q-164.16016 4.5507812 -163.78516 4.5507812Q-163.53516 4.5507812 -163.30078 4.5039062L-163.30078 5.6914062Q-163.49609 5.7382812 -163.65234 5.7773438Q-163.80859 5.8164062 -163.96484 5.8398438Q-164.12109 5.8632812 -164.29688 5.8789062Q-164.47266 5.8945312 -164.70703 5.8945312Q-165.53516 5.8945312 -165.92969 5.4882812Q-166.32422 5.0820312 -166.40234 4.2929688L-166.44922 4.2929688Q-167.37109 5.9570312 -169.23047 5.9570312ZM-166.67578 1.8867188L-167.80078 1.9023438Q-168.56641 1.9335938 -168.88672 2.0703125Q-169.20703 2.2070312 -169.375 2.4882812Q-169.54297 2.7695312 -169.54297 3.2382812Q-169.54297 3.8398438 -169.26562 4.1328125Q-168.98828 4.4257812 -168.52734 4.4257812Q-168.01172 4.4257812 -167.58594 4.1445312Q-167.16016 3.8632812 -166.91797 3.3671875Q-166.67578 2.8710938 -166.67578 2.3164062L-166.67578 1.8867188ZM-154.28516 1.5429688Q-154.28516 3.6367188 -155.125 4.796875Q-155.96484 5.9570312 -157.52734 5.9570312Q-158.42578 5.9570312 -159.08203 5.5664062Q-159.73828 5.1757812 -160.08984 4.4414062L-160.10547 4.4414062Q-160.10547 4.7148438 -160.14062 5.1914062Q-160.17578 5.6679688 -160.21484 5.8007812L-162.34766 5.8007812Q-162.28516 5.0742188 -162.28516 3.8710938L-162.28516 -5.7929688L-160.08984 -5.7929688L-160.08984 -2.5585938L-160.12109 -1.1835938L-160.08984 -1.1835938Q-159.34766 -2.8085938 -157.38672 -2.8085938Q-155.88672 -2.8085938 -155.08594 -1.671875Q-154.28516 -0.53515625 -154.28516 1.5429688ZM-156.57422 1.5429688Q-156.57422 0.10546875 -156.99609 -0.58984375Q-157.41797 -1.2851562 -158.30078 -1.2851562Q-159.19141 -1.2851562 -159.65625 -0.5390625Q-160.12109 0.20703125 -160.12109 1.6132812Q-160.12109 2.9570312 -159.66406 3.7070312Q-159.20703 4.4570312 -158.31641 4.4570312Q-156.57422 4.4570312 -156.57422 1.5429688ZM-153.00391 2.6054688L-153.00391 0.69921875L-148.94141 0.69921875L-148.94141 2.6054688L-153.00391 2.6054688ZM-140.05859 3.3320312Q-140.05859 4.5585938 -141.0625 5.2578125Q-142.06641 5.9570312 -143.83984 5.9570312Q-145.58203 5.9570312 -146.50781 5.40625Q-147.43359 4.8554688 -147.73828 3.6914062L-145.80859 3.4023438Q-145.64453 4.0039062 -145.24219 4.2539062Q-144.83984 4.5039062 -143.83984 4.5039062Q-142.91797 4.5039062 -142.49609 4.2695312Q-142.07422 4.0351562 -142.07422 3.5351562Q-142.07422 3.1289062 -142.41406 2.890625Q-142.75391 2.6523438 -143.56641 2.4882812Q-145.42578 2.1210938 -146.07422 1.8046875Q-146.72266 1.4882812 -147.0625 0.984375Q-147.40234 0.48046875 -147.40234 -0.25390625Q-147.40234 -1.4648438 -146.46875 -2.140625Q-145.53516 -2.8164062 -143.82422 -2.8164062Q-142.31641 -2.8164062 -141.39844 -2.2304688Q-140.48047 -1.6445312 -140.25391 -0.53515625L-142.19922 -0.33203125Q-142.29297 -0.84765625 -142.66016 -1.1015625Q-143.02734 -1.3554688 -143.82422 -1.3554688Q-144.60547 -1.3554688 -144.99609 -1.15625Q-145.38672 -0.95703125 -145.38672 -0.48828125Q-145.38672 -0.12109375 -145.08594 0.09375Q-144.78516 0.30859375 -144.07422 0.44921875Q-143.08203 0.65234375 -142.3125 0.8671875Q-141.54297 1.0820312 -141.07812 1.3789062Q-140.61328 1.6757812 -140.33594 2.140625Q-140.05859 2.6054688 -140.05859 3.3320312ZM-136.33203 5.9570312Q-137.55859 5.9570312 -138.24609 5.2890625Q-138.93359 4.6210938 -138.93359 3.4101562Q-138.93359 2.0976562 -138.07812 1.4101562Q-137.22266 0.72265625 -135.59766 0.70703125L-133.77734 0.67578125L-133.77734 0.24609375Q-133.77734 -0.58203125 -134.06641 -0.984375Q-134.35547 -1.3867188 -135.01172 -1.3867188Q-135.62109 -1.3867188 -135.90625 -1.109375Q-136.19141 -0.83203125 -136.26172 -0.19140625L-138.55078 -0.30078125Q-138.33984 -1.5351562 -137.42188 -2.171875Q-136.50391 -2.8085938 -134.91797 -2.8085938Q-133.31641 -2.8085938 -132.44922 -2.0195312Q-131.58203 -1.2304688 -131.58203 0.22265625L-131.58203 3.3007812Q-131.58203 4.0117188 -131.42188 4.28125Q-131.26172 4.5507812 -130.88672 4.5507812Q-130.63672 4.5507812 -130.40234 4.5039062L-130.40234 5.6914062Q-130.59766 5.7382812 -130.75391 5.7773438Q-130.91016 5.8164062 -131.06641 5.8398438Q-131.22266 5.8632812 -131.39844 5.8789062Q-131.57422 5.8945312 -131.80859 5.8945312Q-132.63672 5.8945312 -133.03125 5.4882812Q-133.42578 5.0820312 -133.50391 4.2929688L-133.55078 4.2929688Q-134.47266 5.9570312 -136.33203 5.9570312ZM-133.77734 1.8867188L-134.90234 1.9023438Q-135.66797 1.9335938 -135.98828 2.0703125Q-136.30859 2.2070312 -136.47656 2.4882812Q-136.64453 2.7695312 -136.64453 3.2382812Q-136.64453 3.8398438 -136.36719 4.1328125Q-136.08984 4.4257812 -135.62891 4.4257812Q-135.11328 4.4257812 -134.6875 4.1445312Q-134.26172 3.8632812 -134.01953 3.3671875Q-133.77734 2.8710938 -133.77734 2.3164062L-133.77734 1.8867188ZM-127.43359 5.9570312Q-128.66016 5.9570312 -129.34766 5.2890625Q-130.03516 4.6210938 -130.03516 3.4101562Q-130.03516 2.0976562 -129.17969 1.4101562Q-128.32422 0.72265625 -126.69922 0.70703125L-124.87891 0.67578125L-124.87891 0.24609375Q-124.87891 -0.58203125 -125.16797 -0.984375Q-125.45703 -1.3867188 -126.11328 -1.3867188Q-126.72266 -1.3867188 -127.00781 -1.109375Q-127.29297 -0.83203125 -127.36328 -0.19140625L-129.65234 -0.30078125Q-129.44141 -1.5351562 -128.52344 -2.171875Q-127.60547 -2.8085938 -126.01953 -2.8085938Q-124.41797 -2.8085938 -123.55078 -2.0195312Q-122.68359 -1.2304688 -122.68359 0.22265625L-122.68359 3.3007812Q-122.68359 4.0117188 -122.52344 4.28125Q-122.36328 4.5507812 -121.98828 4.5507812Q-121.73828 4.5507812 -121.50391 4.5039062L-121.50391 5.6914062Q-121.69922 5.7382812 -121.85547 5.7773438Q-122.01172 5.8164062 -122.16797 5.8398438Q-122.32422 5.8632812 -122.5 5.8789062Q-122.67578 5.8945312 -122.91016 5.8945312Q-123.73828 5.8945312 -124.13281 5.4882812Q-124.52734 5.0820312 -124.60547 4.2929688L-124.65234 4.2929688Q-125.57422 5.9570312 -127.43359 5.9570312ZM-124.87891 1.8867188L-126.00391 1.9023438Q-126.76953 1.9335938 -127.08984 2.0703125Q-127.41016 2.2070312 -127.57812 2.4882812Q-127.74609 2.7695312 -127.74609 3.2382812Q-127.74609 3.8398438 -127.46875 4.1328125Q-127.19141 4.4257812 -126.73047 4.4257812Q-126.21484 4.4257812 -125.78906 4.1445312Q-125.36328 3.8632812 -125.12109 3.3671875Q-124.87891 2.8710938 -124.87891 2.3164062L-124.87891 1.8867188ZM-113.36328 3.3320312Q-113.36328 4.5585938 -114.36719 5.2578125Q-115.37109 5.9570312 -117.14453 5.9570312Q-118.88672 5.9570312 -119.8125 5.40625Q-120.73828 4.8554688 -121.04297 3.6914062L-119.11328 3.4023438Q-118.94922 4.0039062 -118.54688 4.2539062Q-118.14453 4.5039062 -117.14453 4.5039062Q-116.22266 4.5039062 -115.80078 4.2695312Q-115.37891 4.0351562 -115.37891 3.5351562Q-115.37891 3.1289062 -115.71875 2.890625Q-116.05859 2.6523438 -116.87109 2.4882812Q-118.73047 2.1210938 -119.37891 1.8046875Q-120.02734 1.4882812 -120.36719 0.984375Q-120.70703 0.48046875 -120.70703 -0.25390625Q-120.70703 -1.4648438 -119.77344 -2.140625Q-118.83984 -2.8164062 -117.12891 -2.8164062Q-115.62109 -2.8164062 -114.70312 -2.2304688Q-113.78516 -1.6445312 -113.55859 -0.53515625L-115.50391 -0.33203125Q-115.59766 -0.84765625 -115.96484 -1.1015625Q-116.33203 -1.3554688 -117.12891 -1.3554688Q-117.91016 -1.3554688 -118.30078 -1.15625Q-118.69141 -0.95703125 -118.69141 -0.48828125Q-118.69141 -0.12109375 -118.39062 0.09375Q-118.08984 0.30859375 -117.37891 0.44921875Q-116.38672 0.65234375 -115.61719 0.8671875Q-114.84766 1.0820312 -114.38281 1.3789062Q-113.91797 1.6757812 -113.64062 2.140625Q-113.36328 2.6054688 -113.36328 3.3320312ZM-112.08203 2.6054688L-112.08203 0.69921875L-108.01953 0.69921875L-108.01953 2.6054688L-112.08203 2.6054688ZM-102.73828 5.9570312Q-104.66016 5.9570312 -105.70703 4.8125Q-106.75391 3.6679688 -106.75391 1.6210938Q-106.75391 -0.47265625 -105.69922 -1.640625Q-104.64453 -2.8085938 -102.70703 -2.8085938Q-101.21484 -2.8085938 -100.23828 -2.0585938Q-99.261719 -1.3085938 -99.011719 0.01171875L-101.22266 0.12109375Q-101.31641 -0.52734375 -101.69141 -0.9140625Q-102.06641 -1.3007812 -102.75391 -1.3007812Q-104.44922 -1.3007812 -104.44922 1.5351562Q-104.44922 4.4570312 -102.72266 4.4570312Q-102.09766 4.4570312 -101.67578 4.0625Q-101.25391 3.6679688 -101.15234 2.8867188L-98.949219 2.9882812Q-99.066406 3.8554688 -99.570312 4.5351562Q-100.07422 5.2148438 -100.89453 5.5859375Q-101.71484 5.9570312 -102.73828 5.9570312ZM-89.332031 1.5664062Q-89.332031 3.6210938 -90.472656 4.7890625Q-91.613281 5.9570312 -93.628906 5.9570312Q-95.605469 5.9570312 -96.730469 4.7851562Q-97.855469 3.6132812 -97.855469 1.5664062Q-97.855469 -0.47265625 -96.730469 -1.640625Q-95.605469 -2.8085938 -93.582031 -2.8085938Q-91.511719 -2.8085938 -90.421875 -1.6796875Q-89.332031 -0.55078125 -89.332031 1.5664062ZM-91.628906 1.5664062Q-91.628906 0.05859375 -92.121094 -0.62109375Q-92.613281 -1.3007812 -93.550781 -1.3007812Q-95.550781 -1.3007812 -95.550781 1.5664062Q-95.550781 2.9804688 -95.0625 3.71875Q-94.574219 4.4570312 -93.652344 4.4570312Q-91.628906 4.4570312 -91.628906 1.5664062ZM-82.113281 5.8007812L-82.113281 1.0585938Q-82.113281 -1.1679688 -83.621094 -1.1679688Q-84.417969 -1.1679688 -84.90625 -0.484375Q-85.394531 0.19921875 -85.394531 1.2695312L-85.394531 5.8007812L-87.589844 5.8007812L-87.589844 -0.76171875Q-87.589844 -1.4414062 -87.609375 -1.875Q-87.628906 -2.3085938 -87.652344 -2.6523438L-85.558594 -2.6523438Q-85.535156 -2.5039062 -85.496094 -1.859375Q-85.457031 -1.2148438 -85.457031 -0.97265625L-85.425781 -0.97265625Q-84.980469 -1.9414062 -84.308594 -2.3789062Q-83.636719 -2.8164062 -82.707031 -2.8164062Q-81.363281 -2.8164062 -80.644531 -1.9882812Q-79.925781 -1.1601562 -79.925781 0.43359375L-79.925781 5.8007812L-82.113281 5.8007812ZM-72.339844 5.8007812L-72.339844 1.0585938Q-72.339844 -1.1679688 -73.847656 -1.1679688Q-74.644531 -1.1679688 -75.132812 -0.484375Q-75.621094 0.19921875 -75.621094 1.2695312L-75.621094 5.8007812L-77.816406 5.8007812L-77.816406 -0.76171875Q-77.816406 -1.4414062 -77.835938 -1.875Q-77.855469 -2.3085938 -77.878906 -2.6523438L-75.785156 -2.6523438Q-75.761719 -2.5039062 -75.722656 -1.859375Q-75.683594 -1.2148438 -75.683594 -0.97265625L-75.652344 -0.97265625Q-75.207031 -1.9414062 -74.535156 -2.3789062Q-73.863281 -2.8164062 -72.933594 -2.8164062Q-71.589844 -2.8164062 -70.871094 -1.9882812Q-70.152344 -1.1601562 -70.152344 0.43359375L-70.152344 5.8007812L-72.339844 5.8007812ZM-68.535156 2.6054688L-68.535156 0.69921875L-64.472656 0.69921875L-64.472656 2.6054688L-68.535156 2.6054688ZM-60.761719 5.9570312Q-61.988281 5.9570312 -62.675781 5.2890625Q-63.363281 4.6210938 -63.363281 3.4101562Q-63.363281 2.0976562 -62.507812 1.4101562Q-61.652344 0.72265625 -60.027344 0.70703125L-58.207031 0.67578125L-58.207031 0.24609375Q-58.207031 -0.58203125 -58.496094 -0.984375Q-58.785156 -1.3867188 -59.441406 -1.3867188Q-60.050781 -1.3867188 -60.335938 -1.109375Q-60.621094 -0.83203125 -60.691406 -0.19140625L-62.980469 -0.30078125Q-62.769531 -1.5351562 -61.851562 -2.171875Q-60.933594 -2.8085938 -59.347656 -2.8085938Q-57.746094 -2.8085938 -56.878906 -2.0195312Q-56.011719 -1.2304688 -56.011719 0.22265625L-56.011719 3.3007812Q-56.011719 4.0117188 -55.851562 4.28125Q-55.691406 4.5507812 -55.316406 4.5507812Q-55.066406 4.5507812 -54.832031 4.5039062L-54.832031 5.6914062Q-55.027344 5.7382812 -55.183594 5.7773438Q-55.339844 5.8164062 -55.496094 5.8398438Q-55.652344 5.8632812 -55.828125 5.8789062Q-56.003906 5.8945312 -56.238281 5.8945312Q-57.066406 5.8945312 -57.460938 5.4882812Q-57.855469 5.0820312 -57.933594 4.2929688L-57.980469 4.2929688Q-58.902344 5.9570312 -60.761719 5.9570312ZM-58.207031 1.8867188L-59.332031 1.9023438Q-60.097656 1.9335938 -60.417969 2.0703125Q-60.738281 2.2070312 -60.90625 2.4882812Q-61.074219 2.7695312 -61.074219 3.2382812Q-61.074219 3.8398438 -60.796875 4.1328125Q-60.519531 4.4257812 -60.058594 4.4257812Q-59.542969 4.4257812 -59.117188 4.1445312Q-58.691406 3.8632812 -58.449219 3.3671875Q-58.207031 2.8710938 -58.207031 2.3164062L-58.207031 1.8867188ZM-51.652344 5.9414062Q-52.621094 5.9414062 -53.144531 5.4140625Q-53.667969 4.8867188 -53.667969 3.8164062L-53.667969 -1.1679688L-54.738281 -1.1679688L-54.738281 -2.6523438L-53.558594 -2.6523438L-52.871094 -4.6367188L-51.496094 -4.6367188L-51.496094 -2.6523438L-49.894531 -2.6523438L-49.894531 -1.1679688L-51.496094 -1.1679688L-51.496094 3.2226562Q-51.496094 3.8398438 -51.261719 4.1328125Q-51.027344 4.4257812 -50.535156 4.4257812Q-50.277344 4.4257812 -49.800781 4.3164062L-49.800781 5.6757812Q-50.613281 5.9414062 -51.652344 5.9414062ZM-46.324219 5.9414062Q-47.292969 5.9414062 -47.816406 5.4140625Q-48.339844 4.8867188 -48.339844 3.8164062L-48.339844 -1.1679688L-49.410156 -1.1679688L-49.410156 -2.6523438L-48.230469 -2.6523438L-47.542969 -4.6367188L-46.167969 -4.6367188L-46.167969 -2.6523438L-44.566406 -2.6523438L-44.566406 -1.1679688L-46.167969 -1.1679688L-46.167969 3.2226562Q-46.167969 3.8398438 -45.933594 4.1328125Q-45.699219 4.4257812 -45.207031 4.4257812Q-44.949219 4.4257812 -44.472656 4.3164062L-44.472656 5.6757812Q-45.285156 5.9414062 -46.324219 5.9414062ZM-43.160156 5.8007812L-43.160156 -0.66796875Q-43.160156 -1.3632812 -43.179688 -1.828125Q-43.199219 -2.2929688 -43.222656 -2.6523438L-41.128906 -2.6523438Q-41.105469 -2.5117188 -41.066406 -1.796875Q-41.027344 -1.0820312 -41.027344 -0.84765625L-40.996094 -0.84765625Q-40.675781 -1.7382812 -40.425781 -2.1015625Q-40.175781 -2.4648438 -39.832031 -2.640625Q-39.488281 -2.8164062 -38.972656 -2.8164062Q-38.550781 -2.8164062 -38.292969 -2.6992188L-38.292969 -0.86328125Q-38.824219 -0.98046875 -39.230469 -0.98046875Q-40.050781 -0.98046875 -40.507812 -0.31640625Q-40.964844 0.34765625 -40.964844 1.6523438L-40.964844 5.8007812L-43.160156 5.8007812ZM-36.933594 -4.1757812L-36.933594 -5.7929688L-34.738281 -5.7929688L-34.738281 -4.1757812L-36.933594 -4.1757812ZM-36.933594 5.8007812L-36.933594 -2.6523438L-34.738281 -2.6523438L-34.738281 5.8007812L-36.933594 5.8007812ZM-24.488281 1.5429688Q-24.488281 3.6367188 -25.328125 4.796875Q-26.167969 5.9570312 -27.730469 5.9570312Q-28.628906 5.9570312 -29.285156 5.5664062Q-29.941406 5.1757812 -30.292969 4.4414062L-30.308594 4.4414062Q-30.308594 4.7148438 -30.34375 5.1914062Q-30.378906 5.6679688 -30.417969 5.8007812L-32.550781 5.8007812Q-32.488281 5.0742188 -32.488281 3.8710938L-32.488281 -5.7929688L-30.292969 -5.7929688L-30.292969 -2.5585938L-30.324219 -1.1835938L-30.292969 -1.1835938Q-29.550781 -2.8085938 -27.589844 -2.8085938Q-26.089844 -2.8085938 -25.289062 -1.671875Q-24.488281 -0.53515625 -24.488281 1.5429688ZM-26.777344 1.5429688Q-26.777344 0.10546875 -27.199219 -0.58984375Q-27.621094 -1.2851562 -28.503906 -1.2851562Q-29.394531 -1.2851562 -29.859375 -0.5390625Q-30.324219 0.20703125 -30.324219 1.6132812Q-30.324219 2.9570312 -29.867188 3.7070312Q-29.410156 4.4570312 -28.519531 4.4570312Q-26.777344 4.4570312 -26.777344 1.5429688ZM-20.644531 -2.6523438L-20.644531 2.0898438Q-20.644531 4.3164062 -19.144531 4.3164062Q-18.347656 4.3164062 -17.859375 3.6328125Q-17.371094 2.9492188 -17.371094 1.8789062L-17.371094 -2.6523438L-15.175781 -2.6523438L-15.175781 3.9101562Q-15.175781 4.9882812 -15.113281 5.8007812L-17.207031 5.8007812Q-17.300781 4.6757812 -17.300781 4.1210938L-17.339844 4.1210938Q-17.777344 5.0820312 -18.453125 5.5195312Q-19.128906 5.9570312 -20.058594 5.9570312Q-21.402344 5.9570312 -22.121094 5.1328125Q-22.839844 4.3085938 -22.839844 2.7148438L-22.839844 -2.6523438L-20.644531 -2.6523438ZM-10.777344 5.9414062Q-11.746094 5.9414062 -12.269531 5.4140625Q-12.792969 4.8867188 -12.792969 3.8164062L-12.792969 -1.1679688L-13.863281 -1.1679688L-13.863281 -2.6523438L-12.683594 -2.6523438L-11.996094 -4.6367188L-10.621094 -4.6367188L-10.621094 -2.6523438L-9.0195312 -2.6523438L-9.0195312 -1.1679688L-10.621094 -1.1679688L-10.621094 3.2226562Q-10.621094 3.8398438 -10.386719 4.1328125Q-10.152344 4.4257812 -9.6601562 4.4257812Q-9.4023438 4.4257812 -8.9257812 4.3164062L-8.9257812 5.6757812Q-9.7382812 5.9414062 -10.777344 5.9414062ZM-4.1523438 5.9570312Q-6.0585938 5.9570312 -7.0820312 4.828125Q-8.1054688 3.6992188 -8.1054688 1.5351562Q-8.1054688 -0.55859375 -7.0664062 -1.6835938Q-6.0273438 -2.8085938 -4.1210938 -2.8085938Q-2.3007812 -2.8085938 -1.3398438 -1.6015625Q-0.37890625 -0.39453125 -0.37890625 1.9335938L-0.37890625 1.9960938L-5.8007812 1.9960938Q-5.8007812 3.2304688 -5.34375 3.859375Q-4.8867188 4.4882812 -4.0429688 4.4882812Q-2.8789062 4.4882812 -2.5742188 3.4804688L-0.50390625 3.6601562Q-1.4023438 5.9570312 -4.1523438 5.9570312ZM-4.1523438 -1.4257812Q-4.9257812 -1.4257812 -5.34375 -0.88671875Q-5.7617188 -0.34765625 -5.7851562 0.62109375L-2.5039062 0.62109375Q-2.5664062 -0.40234375 -2.9960938 -0.9140625Q-3.4257812 -1.4257812 -4.1523438 -1.4257812ZM0.79296875 2.6054688L0.79296875 0.69921875L4.8554688 0.69921875L4.8554688 2.6054688L0.79296875 2.6054688ZM10.152344 9.1914062Q8.6054688 9.1914062 7.6640625 8.6015625Q6.7226562 8.0117188 6.5039062 6.9179688L8.6992188 6.6601562Q8.8164062 7.1679688 9.203125 7.4570312Q9.5898438 7.7460938 10.214844 7.7460938Q11.128906 7.7460938 11.550781 7.1835938Q11.972656 6.6210938 11.972656 5.5117188L11.972656 5.0664062L11.988281 4.2304688L11.972656 4.2304688Q11.246094 5.7851562 9.2539062 5.7851562Q7.7773438 5.7851562 6.9648438 4.6757812Q6.1523438 3.5664062 6.1523438 1.5039062Q6.1523438 -0.56640625 6.9882812 -1.6914062Q7.8242188 -2.8164062 9.4179688 -2.8164062Q11.261719 -2.8164062 11.972656 -1.2929688L12.011719 -1.2929688Q12.011719 -1.5664062 12.046875 -2.0351562Q12.082031 -2.5039062 12.121094 -2.6523438L14.199219 -2.6523438Q14.152344 -1.8085938 14.152344 -0.69921875L14.152344 5.5429688Q14.152344 7.3476562 13.128906 8.2695312Q12.105469 9.1914062 10.152344 9.1914062ZM11.988281 1.4570312Q11.988281 0.15234375 11.523438 -0.578125Q11.058594 -1.3085938 10.199219 -1.3085938Q8.4414062 -1.3085938 8.4414062 1.5039062Q8.4414062 4.2617188 10.183594 4.2617188Q11.058594 4.2617188 11.523438 3.53125Q11.988281 2.8007812 11.988281 1.4570312ZM19.847656 5.9570312Q17.941406 5.9570312 16.917969 4.828125Q15.894531 3.6992188 15.894531 1.5351562Q15.894531 -0.55859375 16.933594 -1.6835938Q17.972656 -2.8085938 19.878906 -2.8085938Q21.699219 -2.8085938 22.660156 -1.6015625Q23.621094 -0.39453125 23.621094 1.9335938L23.621094 1.9960938L18.199219 1.9960938Q18.199219 3.2304688 18.65625 3.859375Q19.113281 4.4882812 19.957031 4.4882812Q21.121094 4.4882812 21.425781 3.4804688L23.496094 3.6601562Q22.597656 5.9570312 19.847656 5.9570312ZM19.847656 -1.4257812Q19.074219 -1.4257812 18.65625 -0.88671875Q18.238281 -0.34765625 18.214844 0.62109375L21.496094 0.62109375Q21.433594 -0.40234375 21.003906 -0.9140625Q20.574219 -1.4257812 19.847656 -1.4257812ZM30.761719 5.8007812L30.761719 1.0585938Q30.761719 -1.1679688 29.253906 -1.1679688Q28.457031 -1.1679688 27.96875 -0.484375Q27.480469 0.19921875 27.480469 1.2695312L27.480469 5.8007812L25.285156 5.8007812L25.285156 -0.76171875Q25.285156 -1.4414062 25.265625 -1.875Q25.246094 -2.3085938 25.222656 -2.6523438L27.316406 -2.6523438Q27.339844 -2.5039062 27.378906 -1.859375Q27.417969 -1.2148438 27.417969 -0.97265625L27.449219 -0.97265625Q27.894531 -1.9414062 28.566406 -2.3789062Q29.238281 -2.8164062 30.167969 -2.8164062Q31.511719 -2.8164062 32.230469 -1.9882812Q32.949219 -1.1601562 32.949219 0.43359375L32.949219 5.8007812L30.761719 5.8007812ZM38.519531 5.9570312Q36.613281 5.9570312 35.589844 4.828125Q34.566406 3.6992188 34.566406 1.5351562Q34.566406 -0.55859375 35.605469 -1.6835938Q36.644531 -2.8085938 38.550781 -2.8085938Q40.371094 -2.8085938 41.332031 -1.6015625Q42.292969 -0.39453125 42.292969 1.9335938L42.292969 1.9960938L36.871094 1.9960938Q36.871094 3.2304688 37.328125 3.859375Q37.785156 4.4882812 38.628906 4.4882812Q39.792969 4.4882812 40.097656 3.4804688L42.167969 3.6601562Q41.269531 5.9570312 38.519531 5.9570312ZM38.519531 -1.4257812Q37.746094 -1.4257812 37.328125 -0.88671875Q36.910156 -0.34765625 36.886719 0.62109375L40.167969 0.62109375Q40.105469 -0.40234375 39.675781 -0.9140625Q39.246094 -1.4257812 38.519531 -1.4257812ZM43.957031 5.8007812L43.957031 -0.66796875Q43.957031 -1.3632812 43.9375 -1.828125Q43.917969 -2.2929688 43.894531 -2.6523438L45.988281 -2.6523438Q46.011719 -2.5117188 46.050781 -1.796875Q46.089844 -1.0820312 46.089844 -0.84765625L46.121094 -0.84765625Q46.441406 -1.7382812 46.691406 -2.1015625Q46.941406 -2.4648438 47.285156 -2.640625Q47.628906 -2.8164062 48.144531 -2.8164062Q48.566406 -2.8164062 48.824219 -2.6992188L48.824219 -0.86328125Q48.292969 -0.98046875 47.886719 -0.98046875Q47.066406 -0.98046875 46.609375 -0.31640625Q46.152344 0.34765625 46.152344 1.6523438L46.152344 5.8007812L43.957031 5.8007812ZM52.136719 5.9570312Q50.910156 5.9570312 50.222656 5.2890625Q49.535156 4.6210938 49.535156 3.4101562Q49.535156 2.0976562 50.390625 1.4101562Q51.246094 0.72265625 52.871094 0.70703125L54.691406 0.67578125L54.691406 0.24609375Q54.691406 -0.58203125 54.402344 -0.984375Q54.113281 -1.3867188 53.457031 -1.3867188Q52.847656 -1.3867188 52.5625 -1.109375Q52.277344 -0.83203125 52.207031 -0.19140625L49.917969 -0.30078125Q50.128906 -1.5351562 51.046875 -2.171875Q51.964844 -2.8085938 53.550781 -2.8085938Q55.152344 -2.8085938 56.019531 -2.0195312Q56.886719 -1.2304688 56.886719 0.22265625L56.886719 3.3007812Q56.886719 4.0117188 57.046875 4.28125Q57.207031 4.5507812 57.582031 4.5507812Q57.832031 4.5507812 58.066406 4.5039062L58.066406 5.6914062Q57.871094 5.7382812 57.714844 5.7773438Q57.558594 5.8164062 57.402344 5.8398438Q57.246094 5.8632812 57.070312 5.8789062Q56.894531 5.8945312 56.660156 5.8945312Q55.832031 5.8945312 55.4375 5.4882812Q55.042969 5.0820312 54.964844 4.2929688L54.917969 4.2929688Q53.996094 5.9570312 52.136719 5.9570312ZM54.691406 1.8867188L53.566406 1.9023438Q52.800781 1.9335938 52.480469 2.0703125Q52.160156 2.2070312 51.992188 2.4882812Q51.824219 2.7695312 51.824219 3.2382812Q51.824219 3.8398438 52.101562 4.1328125Q52.378906 4.4257812 52.839844 4.4257812Q53.355469 4.4257812 53.78125 4.1445312Q54.207031 3.8632812 54.449219 3.3671875Q54.691406 2.8710938 54.691406 2.3164062L54.691406 1.8867188ZM61.246094 5.9414062Q60.277344 5.9414062 59.753906 5.4140625Q59.230469 4.8867188 59.230469 3.8164062L59.230469 -1.1679688L58.160156 -1.1679688L58.160156 -2.6523438L59.339844 -2.6523438L60.027344 -4.6367188L61.402344 -4.6367188L61.402344 -2.6523438L63.003906 -2.6523438L63.003906 -1.1679688L61.402344 -1.1679688L61.402344 3.2226562Q61.402344 3.8398438 61.636719 4.1328125Q61.871094 4.4257812 62.363281 4.4257812Q62.621094 4.4257812 63.097656 4.3164062L63.097656 5.6757812Q62.285156 5.9414062 61.246094 5.9414062ZM72.441406 1.5664062Q72.441406 3.6210938 71.300781 4.7890625Q70.160156 5.9570312 68.144531 5.9570312Q66.167969 5.9570312 65.042969 4.7851562Q63.917969 3.6132812 63.917969 1.5664062Q63.917969 -0.47265625 65.042969 -1.640625Q66.167969 -2.8085938 68.191406 -2.8085938Q70.261719 -2.8085938 71.351562 -1.6796875Q72.441406 -0.55078125 72.441406 1.5664062ZM70.144531 1.5664062Q70.144531 0.05859375 69.652344 -0.62109375Q69.160156 -1.3007812 68.222656 -1.3007812Q66.222656 -1.3007812 66.222656 1.5664062Q66.222656 2.9804688 66.710938 3.71875Q67.199219 4.4570312 68.121094 4.4570312Q70.144531 4.4570312 70.144531 1.5664062ZM74.183594 5.8007812L74.183594 -0.66796875Q74.183594 -1.3632812 74.164062 -1.828125Q74.144531 -2.2929688 74.121094 -2.6523438L76.214844 -2.6523438Q76.238281 -2.5117188 76.277344 -1.796875Q76.316406 -1.0820312 76.316406 -0.84765625L76.347656 -0.84765625Q76.667969 -1.7382812 76.917969 -2.1015625Q77.167969 -2.4648438 77.511719 -2.640625Q77.855469 -2.8164062 78.371094 -2.8164062Q78.792969 -2.8164062 79.050781 -2.6992188L79.050781 -0.86328125Q78.519531 -0.98046875 78.113281 -0.98046875Q77.292969 -0.98046875 76.835938 -0.31640625Q76.378906 0.34765625 76.378906 1.6523438L76.378906 5.8007812L74.183594 5.8007812ZM84.363281 2.6054688L84.363281 0.69921875L88.425781 0.69921875L88.425781 2.6054688L84.363281 2.6054688ZM96.886719 -3.4257812L96.886719 -0.01953125L102.51953 -0.01953125L102.51953 1.7617188L96.886719 1.7617188L96.886719 5.8007812L94.582031 5.8007812L94.582031 -5.2070312L102.69922 -5.2070312L102.69922 -3.4257812L96.886719 -3.4257812ZM115.05859 0.24609375Q115.05859 1.9648438 114.37891 3.2695312Q113.69922 4.5742188 112.43359 5.265625Q111.16797 5.9570312 109.48047 5.9570312Q106.88672 5.9570312 105.41406 4.4296875Q103.94141 2.9023438 103.94141 0.24609375Q103.94141 -2.4023438 105.41016 -3.8867188Q106.87891 -5.3710938 109.49609 -5.3710938Q112.11328 -5.3710938 113.58594 -3.8710938Q115.05859 -2.3710938 115.05859 0.24609375ZM112.70703 0.24609375Q112.70703 -1.5351562 111.86328 -2.546875Q111.01953 -3.5585938 109.49609 -3.5585938Q107.94922 -3.5585938 107.10547 -2.5546875Q106.26172 -1.5507812 106.26172 0.24609375Q106.26172 2.0585938 107.125 3.1015625Q107.98828 4.1445312 109.48047 4.1445312Q111.02734 4.1445312 111.86719 3.1289062Q112.70703 2.1132812 112.70703 0.24609375ZM124.36328 5.8007812L121.80859 1.6210938L119.10547 1.6210938L119.10547 5.8007812L116.80078 5.8007812L116.80078 -5.2070312L122.30078 -5.2070312Q124.26953 -5.2070312 125.33984 -4.359375Q126.41016 -3.5117188 126.41016 -1.9257812Q126.41016 -0.76953125 125.75391 0.0703125Q125.09766 0.91015625 123.98047 1.1757812L126.95703 5.8007812L124.36328 5.8007812ZM124.08984 -1.8320312Q124.08984 -3.4179688 122.05859 -3.4179688L119.10547 -3.4179688L119.10547 -0.16796875L122.12109 -0.16796875Q123.08984 -0.16796875 123.58984 -0.60546875Q124.08984 -1.0429688 124.08984 -1.8320312ZM137.49609 5.8007812L137.49609 -0.87109375Q137.49609 -1.0976562 137.5 -1.3242188Q137.50391 -1.5507812 137.57422 -3.2695312Q137.01953 -1.1679688 136.75391 -0.33984375L134.76953 5.8007812L133.12891 5.8007812L131.14453 -0.33984375L130.30859 -3.2695312Q130.40234 -1.4570312 130.40234 -0.87109375L130.40234 5.8007812L128.35547 5.8007812L128.35547 -5.2070312L131.44141 -5.2070312L133.41016 0.94921875L133.58203 1.5429688L133.95703 3.0195312L134.44922 1.2539062L136.47266 -5.2070312L139.54297 -5.2070312L139.54297 5.8007812L137.49609 5.8007812ZM149.46484 5.8007812L148.48828 2.9882812L144.29297 2.9882812L143.31641 5.8007812L141.01172 5.8007812L145.02734 -5.2070312L147.74609 -5.2070312L151.74609 5.8007812L149.46484 5.8007812ZM146.38672 -3.5117188L146.33984 -3.3398438Q146.26172 -3.0585938 146.15234 -2.6992188Q146.04297 -2.3398438 144.80859 1.2539062L147.97266 1.2539062L146.88672 -1.9101562L146.55078 -2.9726562L146.38672 -3.5117188ZM157.01953 -3.4257812L157.01953 5.8007812L154.71484 5.8007812L154.71484 -3.4257812L151.16016 -3.4257812L151.16016 -5.2070312L160.58203 -5.2070312L160.58203 -3.4257812L157.01953 -3.4257812ZM176.08203 0.21484375Q176.08203 1.9179688 175.41406 3.1875Q174.74609 4.4570312 173.52344 5.1289062Q172.30078 5.8007812 170.72266 5.8007812L166.26953 5.8007812L166.26953 -5.2070312L170.25391 -5.2070312Q173.03516 -5.2070312 174.55859 -3.8046875Q176.08203 -2.4023438 176.08203 0.21484375ZM173.76172 0.21484375Q173.76172 -1.5585938 172.83984 -2.4921875Q171.91797 -3.4257812 170.20703 -3.4257812L168.57422 -3.4257812L168.57422 4.0195312L170.52734 4.0195312Q172.01172 4.0195312 172.88672 2.9960938Q173.76172 1.9726562 173.76172 0.21484375ZM185.90234 1.5664062Q185.90234 3.6210938 184.76172 4.7890625Q183.62109 5.9570312 181.60547 5.9570312Q179.62891 5.9570312 178.50391 4.7851562Q177.37891 3.6132812 177.37891 1.5664062Q177.37891 -0.47265625 178.50391 -1.640625Q179.62891 -2.8085938 181.65234 -2.8085938Q183.72266 -2.8085938 184.8125 -1.6796875Q185.90234 -0.55078125 185.90234 1.5664062ZM183.60547 1.5664062Q183.60547 0.05859375 183.11328 -0.62109375Q182.62109 -1.3007812 181.68359 -1.3007812Q179.68359 -1.3007812 179.68359 1.5664062Q179.68359 2.9804688 180.17188 3.71875Q180.66016 4.4570312 181.58203 4.4570312Q183.60547 4.4570312 183.60547 1.5664062ZM196.78516 5.8007812L194.46484 5.8007812L193.12109 0.64453125Q193.02734 0.29296875 192.75391 -1.0898438L192.34766 0.66015625L190.98828 5.8007812L188.66797 5.8007812L186.48047 -2.6523438L188.54297 -2.6523438L189.93359 3.8085938L190.04297 3.2304688L190.23828 2.3164062L191.56641 -2.6523438L193.91797 -2.6523438L195.21484 2.3164062Q195.32422 2.7226562 195.53516 3.8085938L195.75391 2.7773438L196.97266 -2.6523438L199.00391 -2.6523438L196.78516 5.8007812ZM205.56641 5.8007812L205.56641 1.0585938Q205.56641 -1.1679688 204.05859 -1.1679688Q203.26172 -1.1679688 202.77344 -0.484375Q202.28516 0.19921875 202.28516 1.2695312L202.28516 5.8007812L200.08984 5.8007812L200.08984 -0.76171875Q200.08984 -1.4414062 200.07031 -1.875Q200.05078 -2.3085938 200.02734 -2.6523438L202.12109 -2.6523438Q202.14453 -2.5039062 202.18359 -1.859375Q202.22266 -1.2148438 202.22266 -0.97265625L202.25391 -0.97265625Q202.69922 -1.9414062 203.37109 -2.3789062Q204.04297 -2.8164062 204.97266 -2.8164062Q206.31641 -2.8164062 207.03516 -1.9882812Q207.75391 -1.1601562 207.75391 0.43359375L207.75391 5.8007812L205.56641 5.8007812ZM209.86328 5.8007812L209.86328 -5.7929688L212.05859 -5.7929688L212.05859 5.8007812L209.86328 5.8007812ZM222.33984 1.5664062Q222.33984 3.6210938 221.19922 4.7890625Q220.05859 5.9570312 218.04297 5.9570312Q216.06641 5.9570312 214.94141 4.7851562Q213.81641 3.6132812 213.81641 1.5664062Q213.81641 -0.47265625 214.94141 -1.640625Q216.06641 -2.8085938 218.08984 -2.8085938Q220.16016 -2.8085938 221.25 -1.6796875Q222.33984 -0.55078125 222.33984 1.5664062ZM220.04297 1.5664062Q220.04297 0.05859375 219.55078 -0.62109375Q219.05859 -1.3007812 218.12109 -1.3007812Q216.12109 -1.3007812 216.12109 1.5664062Q216.12109 2.9804688 216.60938 3.71875Q217.09766 4.4570312 218.01953 4.4570312Q220.04297 4.4570312 220.04297 1.5664062ZM226.03516 5.9570312Q224.80859 5.9570312 224.12109 5.2890625Q223.43359 4.6210938 223.43359 3.4101562Q223.43359 2.0976562 224.28906 1.4101562Q225.14453 0.72265625 226.76953 0.70703125L228.58984 0.67578125L228.58984 0.24609375Q228.58984 -0.58203125 228.30078 -0.984375Q228.01172 -1.3867188 227.35547 -1.3867188Q226.74609 -1.3867188 226.46094 -1.109375Q226.17578 -0.83203125 226.10547 -0.19140625L223.81641 -0.30078125Q224.02734 -1.5351562 224.94531 -2.171875Q225.86328 -2.8085938 227.44922 -2.8085938Q229.05078 -2.8085938 229.91797 -2.0195312Q230.78516 -1.2304688 230.78516 0.22265625L230.78516 3.3007812Q230.78516 4.0117188 230.94531 4.28125Q231.10547 4.5507812 231.48047 4.5507812Q231.73047 4.5507812 231.96484 4.5039062L231.96484 5.6914062Q231.76953 5.7382812 231.61328 5.7773438Q231.45703 5.8164062 231.30078 5.8398438Q231.14453 5.8632812 230.96875 5.8789062Q230.79297 5.8945312 230.55859 5.8945312Q229.73047 5.8945312 229.33594 5.4882812Q228.94141 5.0820312 228.86328 4.2929688L228.81641 4.2929688Q227.89453 5.9570312 226.03516 5.9570312ZM228.58984 1.8867188L227.46484 1.9023438Q226.69922 1.9335938 226.37891 2.0703125Q226.05859 2.2070312 225.89062 2.4882812Q225.72266 2.7695312 225.72266 3.2382812Q225.72266 3.8398438 226 4.1328125Q226.27734 4.4257812 226.73828 4.4257812Q227.25391 4.4257812 227.67969 4.1445312Q228.10547 3.8632812 228.34766 3.3671875Q228.58984 2.8710938 228.58984 2.3164062L228.58984 1.8867188ZM238.45703 5.8007812Q238.42578 5.6835938 238.38281 5.2109375Q238.33984 4.7382812 238.33984 4.4257812L238.30859 4.4257812Q237.59766 5.9570312 235.60547 5.9570312Q234.12891 5.9570312 233.32422 4.8046875Q232.51953 3.6523438 232.51953 1.5820312Q232.51953 -0.51953125 233.36719 -1.6640625Q234.21484 -2.8085938 235.76953 -2.8085938Q236.66797 -2.8085938 237.32031 -2.4335938Q237.97266 -2.0585938 238.32422 -1.3164062L238.33984 -1.3164062L238.32422 -2.7070312L238.32422 -5.7929688L240.51953 -5.7929688L240.51953 3.9570312Q240.51953 4.7382812 240.58203 5.8007812L238.45703 5.8007812ZM238.35547 1.5273438Q238.35547 0.16015625 237.89844 -0.578125Q237.44141 -1.3164062 236.55078 -1.3164062Q235.66797 -1.3164062 235.23828 -0.6015625Q234.80859 0.11328125 234.80859 1.5820312Q234.80859 4.4570312 236.53516 4.4570312Q237.40234 4.4570312 237.87891 3.6953125Q238.35547 2.9335938 238.35547 1.5273438ZM252.12109 -3.4257812L252.12109 5.8007812L249.81641 5.8007812L249.81641 -3.4257812L246.26172 -3.4257812L246.26172 -5.2070312L255.68359 -5.2070312L255.68359 -3.4257812L252.12109 -3.4257812ZM256.08984 5.8007812L256.08984 -0.66796875Q256.08984 -1.3632812 256.07031 -1.828125Q256.05078 -2.2929688 256.02734 -2.6523438L258.12109 -2.6523438Q258.14453 -2.5117188 258.18359 -1.796875Q258.22266 -1.0820312 258.22266 -0.84765625L258.25391 -0.84765625Q258.57422 -1.7382812 258.82422 -2.1015625Q259.07422 -2.4648438 259.41797 -2.640625Q259.76172 -2.8164062 260.27734 -2.8164062Q260.69922 -2.8164062 260.95703 -2.6992188L260.95703 -0.86328125Q260.42578 -0.98046875 260.01953 -0.98046875Q259.19922 -0.98046875 258.74219 -0.31640625Q258.28516 0.34765625 258.28516 1.6523438L258.28516 5.8007812L256.08984 5.8007812ZM265.77734 5.9570312Q263.87109 5.9570312 262.84766 4.828125Q261.82422 3.6992188 261.82422 1.5351562Q261.82422 -0.55859375 262.86328 -1.6835938Q263.90234 -2.8085938 265.80859 -2.8085938Q267.62891 -2.8085938 268.58984 -1.6015625Q269.55078 -0.39453125 269.55078 1.9335938L269.55078 1.9960938L264.12891 1.9960938Q264.12891 3.2304688 264.58594 3.859375Q265.04297 4.4882812 265.88672 4.4882812Q267.05078 4.4882812 267.35547 3.4804688L269.42578 3.6601562Q268.52734 5.9570312 265.77734 5.9570312ZM265.77734 -1.4257812Q265.00391 -1.4257812 264.58594 -0.88671875Q264.16797 -0.34765625 264.14453 0.62109375L267.42578 0.62109375Q267.36328 -0.40234375 266.93359 -0.9140625Q266.50391 -1.4257812 265.77734 -1.4257812ZM276.69141 5.8007812L276.69141 1.0585938Q276.69141 -1.1679688 275.18359 -1.1679688Q274.38672 -1.1679688 273.89844 -0.484375Q273.41016 0.19921875 273.41016 1.2695312L273.41016 5.8007812L271.21484 5.8007812L271.21484 -0.76171875Q271.21484 -1.4414062 271.19531 -1.875Q271.17578 -2.3085938 271.15234 -2.6523438L273.24609 -2.6523438Q273.26953 -2.5039062 273.30859 -1.859375Q273.34766 -1.2148438 273.34766 -0.97265625L273.37891 -0.97265625Q273.82422 -1.9414062 274.49609 -2.3789062Q275.16797 -2.8164062 276.09766 -2.8164062Q277.44141 -2.8164062 278.16016 -1.9882812Q278.87891 -1.1601562 278.87891 0.43359375L278.87891 5.8007812L276.69141 5.8007812ZM286.46484 5.8007812Q286.43359 5.6835938 286.39062 5.2109375Q286.34766 4.7382812 286.34766 4.4257812L286.31641 4.4257812Q285.60547 5.9570312 283.61328 5.9570312Q282.13672 5.9570312 281.33203 4.8046875Q280.52734 3.6523438 280.52734 1.5820312Q280.52734 -0.51953125 281.375 -1.6640625Q282.22266 -2.8085938 283.77734 -2.8085938Q284.67578 -2.8085938 285.32812 -2.4335938Q285.98047 -2.0585938 286.33203 -1.3164062L286.34766 -1.3164062L286.33203 -2.7070312L286.33203 -5.7929688L288.52734 -5.7929688L288.52734 3.9570312Q288.52734 4.7382812 288.58984 5.8007812L286.46484 5.8007812ZM286.36328 1.5273438Q286.36328 0.16015625 285.90625 -0.578125Q285.44922 -1.3164062 284.55859 -1.3164062Q283.67578 -1.3164062 283.24609 -0.6015625Q282.81641 0.11328125 282.81641 1.5820312Q282.81641 4.4570312 284.54297 4.4570312Q285.41016 4.4570312 285.88672 3.6953125Q286.36328 2.9335938 286.36328 1.5273438ZM297.88672 3.3320312Q297.88672 4.5585938 296.88281 5.2578125Q295.87891 5.9570312 294.10547 5.9570312Q292.36328 5.9570312 291.4375 5.40625Q290.51172 4.8554688 290.20703 3.6914062L292.13672 3.4023438Q292.30078 4.0039062 292.70312 4.2539062Q293.10547 4.5039062 294.10547 4.5039062Q295.02734 4.5039062 295.44922 4.2695312Q295.87109 4.0351562 295.87109 3.5351562Q295.87109 3.1289062 295.53125 2.890625Q295.19141 2.6523438 294.37891 2.4882812Q292.51953 2.1210938 291.87109 1.8046875Q291.22266 1.4882812 290.88281 0.984375Q290.54297 0.48046875 290.54297 -0.25390625Q290.54297 -1.4648438 291.47656 -2.140625Q292.41016 -2.8164062 294.12109 -2.8164062Q295.62891 -2.8164062 296.54688 -2.2304688Q297.46484 -1.6445312 297.69141 -0.53515625L295.74609 -0.33203125Q295.65234 -0.84765625 295.28516 -1.1015625Q294.91797 -1.3554688 294.12109 -1.3554688Q293.33984 -1.3554688 292.94922 -1.15625Q292.55859 -0.95703125 292.55859 -0.48828125Q292.55859 -0.12109375 292.85938 0.09375Q293.16016 0.30859375 293.87109 0.44921875Q294.86328 0.65234375 295.63281 0.8671875Q296.40234 1.0820312 296.86719 1.3789062Q297.33203 1.6757812 297.60938 2.140625Q297.88672 2.6054688 297.88672 3.3320312Z"/>
	<path fill="none" stroke="black" stroke-width="1" stroke-miterlimit="10" stroke-opacity="0.10196079" d="M49 749.5L1181 749.5"/>
	<clipPath id="cl_73">
		<rect y="749.20001" width="1200" height="50.799988"/>
	</clipPath>
	<g clip-path="url(#cl_73)">
		<path fill="#666" transform="translate(49.75 760.2)" d="M-12.751953 11.300586L-14 11.300586L-16.302734 4.960742L-15.177734 4.960742L-13.783203 9.085742Q-13.707031 9.320117 -13.378906 10.474414L-13.173828 9.788867L-12.945312 9.0974607L-11.503906 4.960742L-10.384766 4.960742L-12.751953 11.300586ZM-4.1386719 7.1697264Q-4.1386719 9.2380857 -4.8681641 10.327929Q-5.5976562 11.417773 -7.0214844 11.417773Q-8.4453125 11.417773 -9.1601562 10.333789Q-9.875 9.2498045 -9.875 7.1697264Q-9.875 5.0427732 -9.1806641 3.9822264Q-8.4863281 2.9216795 -6.9863281 2.9216795Q-5.5273438 2.9216795 -4.8330078 3.9939451Q-4.1386719 5.0662107 -4.1386719 7.1697264ZM-5.2109375 7.1697264Q-5.2109375 5.382617 -5.6240234 4.5798826Q-6.0371094 3.7771482 -6.9863281 3.7771482Q-7.9589844 3.7771482 -8.3837891 4.5681639Q-8.8085938 5.3591795 -8.8085938 7.1697264Q-8.8085938 8.9275389 -8.3779297 9.741992Q-7.9472656 10.556445 -7.0097656 10.556445Q-6.078125 10.556445 -5.6445312 9.7244139Q-5.2109375 8.8923826 -5.2109375 7.1697264ZM-2.5742188 11.300586L-2.5742188 10.017383L-1.4316406 10.017383L-1.4316406 11.300586L-2.5742188 11.300586ZM0.26757812 11.300586L0.26757812 10.556445Q0.56640625 9.8708982 0.99707031 9.3464842Q1.4277344 8.8220701 1.9023438 8.3972654Q2.3769531 7.9724607 2.8427734 7.6091795Q3.3085938 7.2458982 3.6835938 6.882617Q4.0585938 6.5193357 4.2900391 6.1208982Q4.5214844 5.7224607 4.5214844 5.2185545Q4.5214844 4.538867 4.1230469 4.163867Q3.7246094 3.788867 3.015625 3.788867Q2.3417969 3.788867 1.9052734 4.1550779Q1.46875 4.5212889 1.3925781 5.1833982L0.31445312 5.0837889Q0.43164062 4.0935545 1.1552734 3.507617Q1.8789062 2.9216795 3.015625 2.9216795Q4.2636719 2.9216795 4.9345703 3.5105467Q5.6054688 4.0994139 5.6054688 5.1833982Q5.6054688 5.663867 5.3857422 6.1384764Q5.1660156 6.6130857 4.7324219 7.0876951Q4.2988281 7.5623045 3.0742188 8.5583982Q2.4003906 9.1091795 2.0019531 9.5515623Q1.6035156 9.9939451 1.4277344 10.404101L5.734375 10.404101L5.734375 11.300586L0.26757812 11.300586ZM7.4335938 11.300586L7.4335938 10.017383L8.5761719 10.017383L8.5761719 11.300586L7.4335938 11.300586ZM15.876953 7.1697264Q15.876953 9.2380857 15.147461 10.327929Q14.417969 11.417773 12.994141 11.417773Q11.570312 11.417773 10.855469 10.333789Q10.140625 9.2498045 10.140625 7.1697264Q10.140625 5.0427732 10.834961 3.9822264Q11.529297 2.9216795 13.029297 2.9216795Q14.488281 2.9216795 15.182617 3.9939451Q15.876953 5.0662107 15.876953 7.1697264ZM14.804688 7.1697264Q14.804688 5.382617 14.391602 4.5798826Q13.978516 3.7771482 13.029297 3.7771482Q12.056641 3.7771482 11.631836 4.5681639Q11.207031 5.3591795 11.207031 7.1697264Q11.207031 8.9275389 11.637695 9.741992Q12.068359 10.556445 13.005859 10.556445Q13.9375 10.556445 14.371094 9.7244139Q14.804688 8.8923826 14.804688 7.1697264Z"/>
	</g>
	<clipPath id="cl_74">
		<rect y="749.20001" width="1200" height="50.799988"/>
	</clipPath>
	<g clip-path="url(#cl_74)">
		<path fill="#666" transform="translate(1180.66 760.2)" d="M-12.751953 11.300586L-14 11.300586L-16.302734 4.960742L-15.177734 4.960742L-13.783203 9.085742Q-13.707031 9.320117 -13.378906 10.474414L-13.173828 9.788867L-12.945312 9.0974607L-11.503906 4.960742L-10.384766 4.960742L-12.751953 11.300586ZM-4.1386719 7.1697264Q-4.1386719 9.2380857 -4.8681641 10.327929Q-5.5976562 11.417773 -7.0214844 11.417773Q-8.4453125 11.417773 -9.1601562 10.333789Q-9.875 9.2498045 -9.875 7.1697264Q-9.875 5.0427732 -9.1806641 3.9822264Q-8.4863281 2.9216795 -6.9863281 2.9216795Q-5.5273438 2.9216795 -4.8330078 3.9939451Q-4.1386719 5.0662107 -4.1386719 7.1697264ZM-5.2109375 7.1697264Q-5.2109375 5.382617 -5.6240234 4.5798826Q-6.0371094 3.7771482 -6.9863281 3.7771482Q-7.9589844 3.7771482 -8.3837891 4.5681639Q-8.8085938 5.3591795 -8.8085938 7.1697264Q-8.8085938 8.9275389 -8.3779297 9.741992Q-7.9472656 10.556445 -7.0097656 10.556445Q-6.078125 10.556445 -5.6445312 9.7244139Q-5.2109375 8.8923826 -5.2109375 7.1697264ZM-2.5742188 11.300586L-2.5742188 10.017383L-1.4316406 10.017383L-1.4316406 11.300586L-2.5742188 11.300586ZM0.26757812 11.300586L0.26757812 10.556445Q0.56640625 9.8708982 0.99707031 9.3464842Q1.4277344 8.8220701 1.9023438 8.3972654Q2.3769531 7.9724607 2.8427734 7.6091795Q3.3085938 7.2458982 3.6835938 6.882617Q4.0585938 6.5193357 4.2900391 6.1208982Q4.5214844 5.7224607 4.5214844 5.2185545Q4.5214844 4.538867 4.1230469 4.163867Q3.7246094 3.788867 3.015625 3.788867Q2.3417969 3.788867 1.9052734 4.1550779Q1.46875 4.5212889 1.3925781 5.1833982L0.31445312 5.0837889Q0.43164062 4.0935545 1.1552734 3.507617Q1.8789062 2.9216795 3.015625 2.9216795Q4.2636719 2.9216795 4.9345703 3.5105467Q5.6054688 4.0994139 5.6054688 5.1833982Q5.6054688 5.663867 5.3857422 6.1384764Q5.1660156 6.6130857 4.7324219 7.0876951Q4.2988281 7.5623045 3.0742188 8.5583982Q2.4003906 9.1091795 2.0019531 9.5515623Q1.6035156 9.9939451 1.4277344 10.404101L5.734375 10.404101L5.734375 11.300586L0.26757812 11.300586ZM7.4335938 11.300586L7.4335938 10.017383L8.5761719 10.017383L8.5761719 11.300586L7.4335938 11.300586ZM15.841797 8.6111326Q15.841797 9.9177732 15.06543 10.667773Q14.289062 11.417773 12.912109 11.417773Q11.757812 11.417773 11.048828 10.913867Q10.339844 10.409961 10.152344 9.4548826L11.21875 9.3318357Q11.552734 10.556445 12.935547 10.556445Q13.785156 10.556445 14.265625 10.04375Q14.746094 9.5310545 14.746094 8.6345701Q14.746094 7.8552732 14.262695 7.3748045Q13.779297 6.8943357 12.958984 6.8943357Q12.53125 6.8943357 12.162109 7.0291014Q11.792969 7.163867 11.423828 7.4861326L10.392578 7.4861326L10.667969 3.0447264L15.361328 3.0447264L15.361328 3.9412107L11.628906 3.9412107L11.470703 6.5603514Q12.15625 6.0330076 13.175781 6.0330076Q14.394531 6.0330076 15.118164 6.7478514Q15.841797 7.4626951 15.841797 8.6111326Z"/>
	</g>
	<path fill="none" stroke="black" stroke-width="1" stroke-miterlimit="10" stroke-opacity="0.10196079" d="M49.5 71L49.5 750"/>
	<clipPath id="cl_76">
		<rect width="49.75" height="800"/>
	</clipPath>
	<g clip-path="url(#cl_76)">
		<path fill="#666" transform="translate(38.75 749.2)" d="M-0.46679688 -0.030273438Q-0.46679688 2.0380859 -1.1962891 3.1279297Q-1.9257812 4.2177734 -3.3496094 4.2177734Q-4.7734375 4.2177734 -5.4882812 3.1337891Q-6.203125 2.0498047 -6.203125 -0.030273438Q-6.203125 -2.1572266 -5.5087891 -3.2177734Q-4.8144531 -4.2783203 -3.3144531 -4.2783203Q-1.8554688 -4.2783203 -1.1611328 -3.2060547Q-0.46679688 -2.1337891 -0.46679688 -0.030273438ZM-1.5390625 -0.030273438Q-1.5390625 -1.8173828 -1.9521484 -2.6201172Q-2.3652344 -3.4228516 -3.3144531 -3.4228516Q-4.2871094 -3.4228516 -4.7119141 -2.6318359Q-5.1367188 -1.8408203 -5.1367188 -0.030273438Q-5.1367188 1.7275391 -4.7060547 2.5419922Q-4.2753906 3.3564453 -3.3378906 3.3564453Q-2.40625 3.3564453 -1.9726562 2.5244141Q-1.5390625 1.6923828 -1.5390625 -0.030273438Z"/>
	</g>
	<clipPath id="cl_77">
		<rect width="49.75" height="800"/>
	</clipPath>
	<g clip-path="url(#cl_77)">
		<path fill="#666" transform="translate(38.75 681.4)" d="M-5.7578125 4.1005859L-5.7578125 3.2041016L-3.6542969 3.2041016L-3.6542969 -3.1474609L-5.5175781 -1.8173828L-5.5175781 -2.8134766L-3.5664062 -4.1552734L-2.59375 -4.1552734L-2.59375 3.2041016L-0.58398438 3.2041016L-0.58398438 4.1005859L-5.7578125 4.1005859Z"/>
	</g>
	<clipPath id="cl_78">
		<rect width="49.75" height="800"/>
	</clipPath>
	<g clip-path="url(#cl_78)">
		<path fill="#666" transform="translate(38.75 613.6)" d="M-6.0683594 4.1005859L-6.0683594 3.3564453Q-5.7695312 2.6708984 -5.3388672 2.1464844Q-4.9082031 1.6220703 -4.4335938 1.1972656Q-3.9589844 0.77246094 -3.4931641 0.40917969Q-3.0273438 0.045898438 -2.6523438 -0.31738281Q-2.2773438 -0.68066406 -2.0458984 -1.0791016Q-1.8144531 -1.4775391 -1.8144531 -1.9814453Q-1.8144531 -2.6611328 -2.2128906 -3.0361328Q-2.6113281 -3.4111328 -3.3203125 -3.4111328Q-3.9941406 -3.4111328 -4.4306641 -3.0449219Q-4.8671875 -2.6787109 -4.9433594 -2.0166016L-6.0214844 -2.1162109Q-5.9042969 -3.1064453 -5.1806641 -3.6923828Q-4.4570312 -4.2783203 -3.3203125 -4.2783203Q-2.0722656 -4.2783203 -1.4013672 -3.6894531Q-0.73046875 -3.1005859 -0.73046875 -2.0166016Q-0.73046875 -1.5361328 -0.95019531 -1.0615234Q-1.1699219 -0.58691406 -1.6035156 -0.11230469Q-2.0371094 0.36230469 -3.2617188 1.3583984Q-3.9355469 1.9091797 -4.3339844 2.3515625Q-4.7324219 2.7939453 -4.9082031 3.2041016L-0.6015625 3.2041016L-0.6015625 4.1005859L-6.0683594 4.1005859Z"/>
	</g>
	<clipPath id="cl_79">
		<rect width="49.75" height="800"/>
	</clipPath>
	<g clip-path="url(#cl_79)">
		<path fill="#666" transform="translate(38.75 545.8)" d="M-0.52539062 1.8212891Q-0.52539062 2.9638672 -1.2519531 3.5908203Q-1.9785156 4.2177734 -3.3261719 4.2177734Q-4.5800781 4.2177734 -5.3271484 3.6523438Q-6.0742188 3.0869141 -6.2148438 1.9794922L-5.125 1.8798828Q-4.9140625 3.3447266 -3.3261719 3.3447266Q-2.5292969 3.3447266 -2.0751953 2.9521484Q-1.6210938 2.5595703 -1.6210938 1.7861328Q-1.6210938 1.1123047 -2.1396484 0.734375Q-2.6582031 0.35644531 -3.6367188 0.35644531L-4.234375 0.35644531L-4.234375 -0.55761719L-3.6601562 -0.55761719Q-2.7929688 -0.55761719 -2.3154297 -0.93554688Q-1.8378906 -1.3134766 -1.8378906 -1.9814453Q-1.8378906 -2.6435547 -2.2275391 -3.0273438Q-2.6171875 -3.4111328 -3.3847656 -3.4111328Q-4.0820312 -3.4111328 -4.5126953 -3.0537109Q-4.9433594 -2.6962891 -5.0136719 -2.0458984L-6.0742188 -2.1279297Q-5.9570312 -3.1416016 -5.2333984 -3.7099609Q-4.5097656 -4.2783203 -3.3730469 -4.2783203Q-2.1308594 -4.2783203 -1.4423828 -3.7011719Q-0.75390625 -3.1240234 -0.75390625 -2.0927734Q-0.75390625 -1.3017578 -1.1962891 -0.80664062Q-1.6386719 -0.31152344 -2.4824219 -0.13574219L-2.4824219 -0.11230469Q-1.5566406 -0.012695312 -1.0410156 0.50878906Q-0.52539062 1.0302734 -0.52539062 1.8212891Z"/>
	</g>
	<clipPath id="cl_7a">
		<rect width="49.75" height="800"/>
	</clipPath>
	<g clip-path="url(#cl_7a)">
		<path fill="#666" transform="translate(38.75 478)" d="M-1.5097656 2.2314453L-1.5097656 4.1005859L-2.5058594 4.1005859L-2.5058594 2.2314453L-6.3964844 2.2314453L-6.3964844 1.4111328L-2.6171875 -4.1552734L-1.5097656 -4.1552734L-1.5097656 1.3994141L-0.34960938 1.3994141L-0.34960938 2.2314453L-1.5097656 2.2314453ZM-2.5058594 -2.9658203Q-2.5175781 -2.9306641 -2.6699219 -2.6552734Q-2.8222656 -2.3798828 -2.8984375 -2.2685547L-5.0136719 0.84863281L-5.3300781 1.2822266L-5.4238281 1.3994141L-2.5058594 1.3994141L-2.5058594 -2.9658203Z"/>
	</g>
	<clipPath id="cl_7b">
		<rect width="49.75" height="800"/>
	</clipPath>
	<g clip-path="url(#cl_7b)">
		<path fill="#666" transform="translate(38.75 410.2)" d="M-0.50195312 1.4111328Q-0.50195312 2.7177734 -1.2783203 3.4677734Q-2.0546875 4.2177734 -3.4316406 4.2177734Q-4.5859375 4.2177734 -5.2949219 3.7138672Q-6.0039062 3.2099609 -6.1914062 2.2548828L-5.125 2.1318359Q-4.7910156 3.3564453 -3.4082031 3.3564453Q-2.5585938 3.3564453 -2.078125 2.84375Q-1.5976562 2.3310547 -1.5976562 1.4345703Q-1.5976562 0.65527344 -2.0810547 0.17480469Q-2.5644531 -0.30566406 -3.3847656 -0.30566406Q-3.8125 -0.30566406 -4.1816406 -0.17089844Q-4.5507812 -0.036132812 -4.9199219 0.28613281L-5.9511719 0.28613281L-5.6757812 -4.1552734L-0.98242188 -4.1552734L-0.98242188 -3.2587891L-4.7148438 -3.2587891L-4.8730469 -0.63964844Q-4.1875 -1.1669922 -3.1679688 -1.1669922Q-1.9492188 -1.1669922 -1.2255859 -0.45214844Q-0.50195312 0.26269531 -0.50195312 1.4111328Z"/>
	</g>
	<clipPath id="cl_7c">
		<rect width="49.75" height="800"/>
	</clipPath>
	<g clip-path="url(#cl_7c)">
		<path fill="#666" transform="translate(38.75 342.4)" d="M-0.52539062 1.3994141Q-0.52539062 2.7060547 -1.234375 3.4619141Q-1.9433594 4.2177734 -3.1914062 4.2177734Q-4.5859375 4.2177734 -5.3242188 3.1806641Q-6.0625 2.1435547 -6.0625 0.16308594Q-6.0625 -1.9814453 -5.2949219 -3.1298828Q-4.5273438 -4.2783203 -3.109375 -4.2783203Q-1.2402344 -4.2783203 -0.75390625 -2.5966797L-1.7617188 -2.4150391Q-2.0722656 -3.4228516 -3.1210938 -3.4228516Q-4.0234375 -3.4228516 -4.5185547 -2.5820312Q-5.0136719 -1.7412109 -5.0136719 -0.14746094Q-4.7265625 -0.68066406 -4.2050781 -0.95898438Q-3.6835938 -1.2373047 -3.0097656 -1.2373047Q-1.8671875 -1.2373047 -1.1962891 -0.52246094Q-0.52539062 0.19238281 -0.52539062 1.3994141ZM-1.5976562 1.4462891Q-1.5976562 0.54980469 -2.0371094 0.063476562Q-2.4765625 -0.42285156 -3.2617188 -0.42285156Q-4 -0.42285156 -4.4541016 0.0078125Q-4.9082031 0.43847656 -4.9082031 1.1943359Q-4.9082031 2.1494141 -4.4365234 2.7587891Q-3.9648438 3.3681641 -3.2265625 3.3681641Q-2.4648438 3.3681641 -2.03125 2.8554688Q-1.5976562 2.3427734 -1.5976562 1.4462891Z"/>
	</g>
	<clipPath id="cl_7d">
		<rect width="49.75" height="800"/>
	</clipPath>
	<g clip-path="url(#cl_7d)">
		<path fill="#666" transform="translate(38.75 274.6)" d="M-0.6015625 -3.2998047Q-1.8671875 -1.3662109 -2.3886719 -0.27050781Q-2.9101562 0.82519531 -3.1708984 1.8916016Q-3.4316406 2.9580078 -3.4316406 4.1005859L-4.5332031 4.1005859Q-4.5332031 2.5185547 -3.8623047 0.76953125Q-3.1914062 -0.97949219 -1.6210938 -3.2587891L-6.0566406 -3.2587891L-6.0566406 -4.1552734L-0.6015625 -4.1552734L-0.6015625 -3.2998047Z"/>
	</g>
	<clipPath id="cl_7e">
		<rect width="49.75" height="800"/>
	</clipPath>
	<g clip-path="url(#cl_7e)">
		<path fill="#666" transform="translate(38.75 206.8)" d="M-0.51953125 1.7978516Q-0.51953125 2.9404297 -1.2460938 3.5791016Q-1.9726562 4.2177734 -3.3320312 4.2177734Q-4.65625 4.2177734 -5.4033203 3.5908203Q-6.1503906 2.9638672 -6.1503906 1.8095703Q-6.1503906 1.0009766 -5.6875 0.45019531Q-5.2246094 -0.10058594 -4.5039062 -0.21777344L-4.5039062 -0.24121094Q-5.1777344 -0.39941406 -5.5673828 -0.92675781Q-5.9570312 -1.4541016 -5.9570312 -2.1630859Q-5.9570312 -3.1064453 -5.2509766 -3.6923828Q-4.5449219 -4.2783203 -3.3554688 -4.2783203Q-2.1367188 -4.2783203 -1.4306641 -3.7041016Q-0.72460938 -3.1298828 -0.72460938 -2.1513672Q-0.72460938 -1.4423828 -1.1171875 -0.91503906Q-1.5097656 -0.38769531 -2.1894531 -0.25292969L-2.1894531 -0.22949219Q-1.3984375 -0.10058594 -0.95898438 0.44140625Q-0.51953125 0.98339844 -0.51953125 1.7978516ZM-1.8203125 -2.0927734Q-1.8203125 -3.4931641 -3.3554688 -3.4931641Q-4.0996094 -3.4931641 -4.4892578 -3.1416016Q-4.8789062 -2.7900391 -4.8789062 -2.0927734Q-4.8789062 -1.3837891 -4.4775391 -1.0117188Q-4.0761719 -0.63964844 -3.34375 -0.63964844Q-2.5996094 -0.63964844 -2.2099609 -0.98242188Q-1.8203125 -1.3251953 -1.8203125 -2.0927734ZM-1.6152344 1.6982422Q-1.6152344 0.93066406 -2.0722656 0.54101562Q-2.5292969 0.15136719 -3.3554688 0.15136719Q-4.1582031 0.15136719 -4.609375 0.5703125Q-5.0605469 0.98925781 -5.0605469 1.7216797Q-5.0605469 3.4267578 -3.3203125 3.4267578Q-2.4589844 3.4267578 -2.0371094 3.0136719Q-1.6152344 2.6005859 -1.6152344 1.6982422Z"/>
	</g>
	<clipPath id="cl_7f">
		<rect width="49.75" height="800"/>
	</clipPath>
	<g clip-path="url(#cl_7f)">
		<path fill="#666" transform="translate(38.75 139)" d="M-0.56640625 -0.19433594Q-0.56640625 1.9326172 -1.3427734 3.0751953Q-2.1191406 4.2177734 -3.5546875 4.2177734Q-4.5214844 4.2177734 -5.1044922 3.8105469Q-5.6875 3.4033203 -5.9394531 2.4951172L-4.9316406 2.3369141Q-4.6152344 3.3681641 -3.5371094 3.3681641Q-2.6289062 3.3681641 -2.1308594 2.5244141Q-1.6328125 1.6806641 -1.609375 0.11621094Q-1.84375 0.64355469 -2.4121094 0.96289062Q-2.9804688 1.2822266 -3.6601562 1.2822266Q-4.7734375 1.2822266 -5.4414062 0.52050781Q-6.109375 -0.24121094 -6.109375 -1.5009766Q-6.109375 -2.7958984 -5.3828125 -3.5371094Q-4.65625 -4.2783203 -3.3613281 -4.2783203Q-1.984375 -4.2783203 -1.2753906 -3.2587891Q-0.56640625 -2.2392578 -0.56640625 -0.19433594ZM-1.7148438 -1.2138672Q-1.7148438 -2.2099609 -2.171875 -2.8164062Q-2.6289062 -3.4228516 -3.3964844 -3.4228516Q-4.1582031 -3.4228516 -4.5976562 -2.9042969Q-5.0371094 -2.3857422 -5.0371094 -1.5009766Q-5.0371094 -0.59863281 -4.5976562 -0.07421875Q-4.1582031 0.45019531 -3.4082031 0.45019531Q-2.9511719 0.45019531 -2.5585938 0.2421875Q-2.1660156 0.034179688 -1.9404297 -0.34667969Q-1.7148438 -0.72753906 -1.7148438 -1.2138672Z"/>
	</g>
	<clipPath id="cl_80">
		<rect width="49.75" height="800"/>
	</clipPath>
	<g clip-path="url(#cl_80)">
		<path fill="#666" transform="translate(38.75 71.2)" d="M-12.429688 4.1005859L-12.429688 3.2041016L-10.326172 3.2041016L-10.326172 -3.1474609L-12.189453 -1.8173828L-12.189453 -2.8134766L-10.238281 -4.1552734L-9.265625 -4.1552734L-9.265625 3.2041016L-7.2558594 3.2041016L-7.2558594 4.1005859L-12.429688 4.1005859ZM-0.46484375 -0.030273438Q-0.46484375 2.0380859 -1.1943359 3.1279297Q-1.9238281 4.2177734 -3.3476562 4.2177734Q-4.7714844 4.2177734 -5.4863281 3.1337891Q-6.2011719 2.0498047 -6.2011719 -0.030273438Q-6.2011719 -2.1572266 -5.5068359 -3.2177734Q-4.8125 -4.2783203 -3.3125 -4.2783203Q-1.8535156 -4.2783203 -1.1591797 -3.2060547Q-0.46484375 -2.1337891 -0.46484375 -0.030273438ZM-1.5371094 -0.030273438Q-1.5371094 -1.8173828 -1.9501953 -2.6201172Q-2.3632812 -3.4228516 -3.3125 -3.4228516Q-4.2851562 -3.4228516 -4.7099609 -2.6318359Q-5.1347656 -1.8408203 -5.1347656 -0.030273438Q-5.1347656 1.7275391 -4.7041016 2.5419922Q-4.2734375 3.3564453 -3.3359375 3.3564453Q-2.4042969 3.3564453 -1.9707031 2.5244141Q-1.5371094 1.6923828 -1.5371094 -0.030273438Z"/>
	</g>
	<clipPath id="cl_82">
		<rect x="43.75" y="65.199997" width="1142.905" height="690"/>
	</clipPath>
	<g clip-path="url(#cl_82)">
		<path fill="none" stroke="#C32222" stroke-width="2" stroke-miterlimit="10" d="M49.75 749.20001C162.8405 742.41998 1067.5645 688.17999 1180.655 681.40002"/>
	</g>
	<clipPath id="cl_83">
		<rect x="43.75" y="65.199997" width="1142.905" height="690"/>
	</clipPath>
	<g clip-path="url(#cl_83)">
		<path fill="#C32222" fill-opacity="0.2" d="M52.75 749.20001Q52.75 749.34741 52.73555 749.49414Q52.721107 749.64075 52.692352 749.78522Q52.663601 749.92981 52.620815 750.0708Q52.578033 750.21179 52.521633 750.34796Q52.465233 750.48419 52.39576 750.61414Q52.326286 750.74414 52.244404 750.86658Q52.162525 750.98914 52.069027 751.10309Q51.975533 751.21704 51.871319 751.32129Q51.767105 751.42554 51.653179 751.51898Q51.539253 751.61249 51.416706 751.69434Q51.294167 751.77625 51.164188 751.84583Q51.03421 751.91528 50.898048 751.97162Q50.76189 752.02808 50.620857 752.0708Q50.47982 752.11365 50.33527 752.14233Q50.19072 752.17114 50.044052 752.18555Q49.897381 752.20001 49.75 752.20001Q49.602619 752.20001 49.455948 752.18555Q49.309277 752.17114 49.164726 752.14233Q49.02018 752.11365 48.879143 752.0708Q48.73811 752.02802 48.601944 751.97156Q48.465782 751.91522 48.335808 751.84576Q48.205826 751.77631 48.083282 751.6944Q47.960747 751.61255 47.846817 751.51904Q47.732895 751.4256 47.628677 751.32135Q47.524467 751.21716 47.430969 751.10321Q47.337471 750.98926 47.255585 750.8667Q47.173706 750.74414 47.104233 750.6142Q47.03476 750.48425 46.978359 750.34802Q46.921963 750.21191 46.879177 750.07092Q46.836395 749.92987 46.80764 749.78528Q46.778893 749.64075 46.76445 749.49414Q46.75 749.34741 46.75 749.20001Q46.75 749.05273 46.76445 748.90601Q46.778896 748.75928 46.807648 748.61469Q46.836403 748.47015 46.879181 748.3291Q46.921963 748.18811 46.978359 748.05188Q47.03476 747.91577 47.104233 747.78577Q47.173706 747.65582 47.255585 747.5332Q47.337471 747.41071 47.430969 747.29675Q47.524467 747.18286 47.628677 747.07861Q47.732895 746.97443 47.846817 746.88092Q47.960747 746.78735 48.083282 746.70544Q48.205826 746.62366 48.335808 746.5542Q48.465782 746.48474 48.601944 746.42828Q48.73811 746.37195 48.879143 746.32922Q49.02018 746.28644 49.164726 746.25763Q49.309277 746.22888 49.455948 746.21448Q49.602619 746.20007 49.75 746.20001Q49.897381 746.20007 50.044052 746.21454Q50.19072 746.22894 50.335266 746.25769Q50.479816 746.2865 50.620853 746.32922Q50.761887 746.37201 50.898045 746.42834Q51.03421 746.48474 51.164188 746.55426Q51.294167 746.62372 51.416706 746.70557Q51.539253 746.78748 51.653179 746.88104Q51.767105 746.97449 51.871315 747.07867Q51.975533 747.18292 52.069023 747.29681Q52.162521 747.41077 52.2444 747.53326Q52.326279 747.65588 52.395756 747.78577Q52.465233 747.91577 52.521633 748.05188Q52.578033 748.18811 52.620815 748.3291Q52.663597 748.47021 52.692348 748.61475Q52.721107 748.75934 52.73555 748.90601Q52.75 749.05273 52.75 749.20001Z"/>
		<path fill="none" stroke="#C32222" stroke-width="2" stroke-miterlimit="10" d="M52.75 749.20001Q52.75 749.34741 52.73555 749.49414Q52.721107 749.64075 52.692352 749.78522Q52.663601 749.92981 52.620815 750.0708Q52.578033 750.21179 52.521633 750.34796Q52.465233 750.48419 52.39576 750.61414Q52.326286 750.74414 52.244404 750.86658Q52.162525 750.98914 52.069027 751.10309Q51.975533 751.21704 51.871319 751.32129Q51.767105 751.42554 51.653179 751.51898Q51.539253 751.61249 51.416706 751.69434Q51.294167 751.77625 51.164188 751.84583Q51.03421 751.91528 50.898048 751.97162Q50.76189 752.02808 50.620857 752.0708Q50.47982 752.11365 50.33527 752.14233Q50.19072 752.17114 50.044052 752.18555Q49.897381 752.20001 49.75 752.20001Q49.602619 752.20001 49.455948 752.18555Q49.309277 752.17114 49.164726 752.14233Q49.02018 752.11365 48.879143 752.0708Q48.73811 752.02802 48.601944 751.97156Q48.465782 751.91522 48.335808 751.84576Q48.205826 751.77631 48.083282 751.6944Q47.960747 751.61255 47.846817 751.51904Q47.732895 751.4256 47.628677 751.32135Q47.524467 751.21716 47.430969 751.10321Q47.337471 750.98926 47.255585 750.8667Q47.173706 750.74414 47.104233 750.6142Q47.03476 750.48425 46.978359 750.34802Q46.921963 750.21191 46.879177 750.07092Q46.836395 749.92987 46.80764 749.78528Q46.778893 749.64075 46.76445 749.49414Q46.75 749.34741 46.75 749.20001Q46.75 749.05273 46.76445 748.90601Q46.778896 748.75928 46.807648 748.61469Q46.836403 748.47015 46.879181 748.3291Q46.921963 748.18811 46.978359 748.05188Q47.03476 747.91577 47.104233 747.78577Q47.173706 747.65582 47.255585 747.5332Q47.337471 747.41071 47.430969 747.29675Q47.524467 747.18286 47.628677 747.07861Q47.732895 746.97443 47.846817 746.88092Q47.960747 746.78735 48.083282 746.70544Q48.205826 746.62366 48.335808 746.5542Q48.465782 746.48474 48.601944 746.42828Q48.73811 746.37195 48.879143 746.32922Q49.02018 746.28644 49.164726 746.25763Q49.309277 746.22888 49.455948 746.21448Q49.602619 746.20007 49.75 746.20001Q49.897381 746.20007 50.044052 746.21454Q50.19072 746.22894 50.335266 746.25769Q50.479816 746.2865 50.620853 746.32922Q50.761887 746.37201 50.898045 746.42834Q51.03421 746.48474 51.164188 746.55426Q51.294167 746.62372 51.416706 746.70557Q51.539253 746.78748 51.653179 746.88104Q51.767105 746.97449 51.871315 747.07867Q51.975533 747.18292 52.069023 747.29681Q52.162521 747.41077 52.2444 747.53326Q52.326279 747.65588 52.395756 747.78577Q52.465233 747.91577 52.521633 748.05188Q52.578033 748.18811 52.620815 748.3291Q52.663597 748.47021 52.692348 748.61475Q52.721107 748.75934 52.73555 748.90601Q52.75 749.05273 52.75 749.20001Z"/>
		<path fill="#C32222" fill-opacity="0.2" d="M1183.655 681.40002Q1183.6552 681.54742 1183.6406 681.69409Q1183.6262 681.84076 1183.5973 681.98529Q1183.5686 682.12988 1183.5259 682.27087Q1183.483 682.41187 1183.4265 682.54803Q1183.3701 682.68427 1183.3008 682.81427Q1183.2313 682.94421 1183.1494 683.06671Q1183.0676 683.18927 1182.974 683.30316Q1182.8805 683.41711 1182.7762 683.5213Q1182.6721 683.62555 1182.5581 683.71906Q1182.4441 683.81256 1182.3215 683.89441Q1182.1991 683.97632 1182.0691 684.04578Q1181.9392 684.11523 1181.803 684.17163Q1181.667 684.22803 1181.5259 684.27087Q1181.3849 684.3136 1181.2402 684.34235Q1181.0957 684.37115 1180.9491 684.38562Q1180.8025 684.40002 1180.655 684.40002Q1180.5078 684.40002 1180.3611 684.38562Q1180.2144 684.37115 1180.0697 684.34235Q1179.9253 684.3136 1179.7842 684.27087Q1179.6431 684.22803 1179.5068 684.17163Q1179.3708 684.11523 1179.2407 684.04578Q1179.1108 683.97632 1178.9882 683.89435Q1178.8657 683.8125 1178.7517 683.71899Q1178.6378 683.62555 1178.5336 683.5213Q1178.4294 683.41711 1178.3359 683.30322Q1178.2424 683.18927 1178.1604 683.06671Q1178.0786 682.94421 1178.0092 682.81421Q1177.9397 682.68427 1177.8832 682.54803Q1177.8269 682.41187 1177.7842 682.27087Q1177.7415 682.12988 1177.7126 681.98529Q1177.684 681.84076 1177.6694 681.69409Q1177.655 681.54742 1177.655 681.40002Q1177.655 681.25269 1177.6696 681.10596Q1177.684 680.95923 1177.7126 680.8147Q1177.7415 680.67017 1177.7842 680.52917Q1177.827 680.38812 1177.8833 680.25195Q1177.9397 680.11584 1178.0092 679.98584Q1178.0786 679.85583 1178.1604 679.73328Q1178.2424 679.61072 1178.3359 679.49683Q1178.4294 679.38293 1178.5336 679.27869Q1178.6378 679.1745 1178.7517 679.08099Q1178.8657 678.98749 1178.9882 678.90558Q1179.1108 678.82373 1179.2407 678.75427Q1179.3708 678.68481 1179.5068 678.62836Q1179.6431 678.57202 1179.7842 678.52917Q1179.9253 678.48645 1180.0697 678.45764Q1180.2144 678.42896 1180.3611 678.41449Q1180.5078 678.40002 1180.655 678.40002Q1180.8025 678.40002 1180.9491 678.41449Q1181.0957 678.42896 1181.2402 678.45764Q1181.3849 678.48645 1181.5259 678.52917Q1181.667 678.57202 1181.803 678.62836Q1181.9392 678.68481 1182.0692 678.75427Q1182.1992 678.82373 1182.3217 678.90558Q1182.4443 678.98749 1182.5582 679.08099Q1182.6721 679.1745 1182.7764 679.27869Q1182.8806 679.38293 1182.9741 679.49683Q1183.0676 679.61072 1183.1493 679.73328Q1183.2312 679.85583 1183.3008 679.98584Q1183.3701 680.11584 1183.4265 680.25195Q1183.483 680.38812 1183.5259 680.52911Q1183.5686 680.67017 1183.5974 680.8147Q1183.6262 680.95923 1183.6406 681.10596Q1183.6552 681.25269 1183.655 681.40002Z"/>
		<path fill="none" stroke="#C32222" stroke-width="2" stroke-miterlimit="10" d="M1183.655 681.40002Q1183.6552 681.54742 1183.6406 681.69409Q1183.6262 681.84076 1183.5973 681.98529Q1183.5686 682.12988 1183.5259 682.27087Q1183.483 682.41187 1183.4265 682.54803Q1183.3701 682.68427 1183.3008 682.81427Q1183.2313 682.94421 1183.1494 683.06671Q1183.0676 683.18927 1182.974 683.30316Q1182.8805 683.41711 1182.7762 683.5213Q1182.6721 683.62555 1182.5581 683.71906Q1182.4441 683.81256 1182.3215 683.89441Q1182.1991 683.97632 1182.0691 684.04578Q1181.9392 684.11523 1181.803 684.17163Q1181.667 684.22803 1181.5259 684.27087Q1181.3849 684.3136 1181.2402 684.34235Q1181.0957 684.37115 1180.9491 684.38562Q1180.8025 684.40002 1180.655 684.40002Q1180.5078 684.40002 1180.3611 684.38562Q1180.2144 684.37115 1180.0697 684.34235Q1179.9253 684.3136 1179.7842 684.27087Q1179.6431 684.22803 1179.5068 684.17163Q1179.3708 684.11523 1179.2407 684.04578Q1179.1108 683.97632 1178.9882 683.89435Q1178.8657 683.8125 1178.7517 683.71899Q1178.6378 683.62555 1178.5336 683.5213Q1178.4294 683.41711 1178.3359 683.30322Q1178.2424 683.18927 1178.1604 683.06671Q1178.0786 682.94421 1178.0092 682.81421Q1177.9397 682.68427 1177.8832 682.54803Q1177.8269 682.41187 1177.7842 682.27087Q1177.7415 682.12988 1177.7126 681.98529Q1177.684 681.84076 1177.6694 681.69409Q1177.655 681.54742 1177.655 681.40002Q1177.655 681.25269 1177.6696 681.10596Q1177.684 680.95923 1177.7126 680.8147Q1177.7415 680.67017 1177.7842 680.52917Q1177.827 680.38812 1177.8833 680.25195Q1177.9397 680.11584 1178.0092 679.98584Q1178.0786 679.85583 1178.1604 679.73328Q1178.2424 679.61072 1178.3359 679.49683Q1178.4294 679.38293 1178.5336 679.27869Q1178.6378 679.1745 1178.7517 679.08099Q1178.8657 678.98749 1178.9882 678.90558Q1179.1108 678.82373 1179.2407 678.75427Q1179.3708 678.68481 1179.5068 678.62836Q1179.6431 678.57202 1179.7842 678.52917Q1179.9253 678.48645 1180.0697 678.45764Q1180.2144 678.42896 1180.3611 678.41449Q1180.5078 678.40002 1180.655 678.40002Q1180.8025 678.40002 1180.9491 678.41449Q1181.0957 678.42896 1181.2402 678.45764Q1181.3849 678.48645 1181.5259 678.52917Q1181.667 678.57202 1181.803 678.62836Q1181.9392 678.68481 1182.0692 678.75427Q1182.1992 678.82373 1182.3217 678.90558Q1182.4443 678.98749 1182.5582 679.08099Q1182.6721 679.1745 1182.7764 679.27869Q1182.8806 679.38293 1182.9741 679.49683Q1183.0676 679.61072 1183.1493 679.73328Q1183.2312 679.85583 1183.3008 679.98584Q1183.3701 680.11584 1183.4265 680.25195Q1183.483 680.38812 1183.5259 680.52911Q1183.5686 680.67017 1183.5974 680.8147Q1183.6262 680.95923 1183.6406 681.10596Q1183.6552 681.25269 1183.655 681.40002Z"/>
	</g>
</svg>
