<?xml version="1.0" encoding="utf-8" ?>
<svg xmlns="http://www.w3.org/2000/svg" xmlns:xlink="http://www.w3.org/1999/xlink" width="1200" height="800">
	<rect fill="white" width="1200" height="800"/>
	<path fill="none" stroke="black" stroke-width="1" stroke-miterlimit="10" stroke-opacity="0.10196079" d="M49.5 71.199997L49.5 749"/>
	<path fill="none" stroke="black" stroke-width="1" stroke-miterlimit="10" stroke-opacity="0.10196079" d="M49.5 750L49.5 757.20001"/>
	<path fill="#666" transform="translate(621.875 788.8)" d="M-26.550781 4.1005859L-28.695312 0.67285156L-31.267578 0.67285156L-31.267578 4.1005859L-32.386719 4.1005859L-32.386719 -4.1552734L-28.501953 -4.1552734Q-27.107422 -4.1552734 -26.348633 -3.53125Q-25.589844 -2.9072266 -25.589844 -1.7939453Q-25.589844 -0.87402344 -26.125977 -0.24707031Q-26.662109 0.37988281 -27.605469 0.54394531L-25.261719 4.1005859L-26.550781 4.1005859ZM-26.714844 -1.7822266Q-26.714844 -2.5029297 -27.204102 -2.8808594Q-27.693359 -3.2587891 -28.613281 -3.2587891L-31.267578 -3.2587891L-31.267578 -0.21191406L-28.566406 -0.21191406Q-27.681641 -0.21191406 -27.198242 -0.625Q-26.714844 -1.0380859 -26.714844 -1.7822266ZM-23.087891 1.1533203Q-23.087891 2.2431641 -22.636719 2.8349609Q-22.185547 3.4267578 -21.318359 3.4267578Q-20.632812 3.4267578 -20.219727 3.1513672Q-19.806641 2.8759766 -19.660156 2.4541016L-18.734375 2.7177734Q-19.302734 4.2177734 -21.318359 4.2177734Q-22.724609 4.2177734 -23.459961 3.3798828Q-24.195312 2.5419922 -24.195312 0.88964844Q-24.195312 -0.68066406 -23.459961 -1.5185547Q-22.724609 -2.3564453 -21.359375 -2.3564453Q-18.564453 -2.3564453 -18.564453 1.0126953L-18.564453 1.1533203L-23.087891 1.1533203ZM-19.654297 0.34472656Q-19.742188 -0.65722656 -20.164062 -1.1171875Q-20.585938 -1.5771484 -21.376953 -1.5771484Q-22.144531 -1.5771484 -22.592773 -1.0644531Q-23.041016 -0.55175781 -23.076172 0.34472656L-19.654297 0.34472656ZM-17.222656 4.1005859L-17.222656 -4.5947266L-16.167969 -4.5947266L-16.167969 4.1005859L-17.222656 4.1005859ZM-13.748047 1.1533203Q-13.748047 2.2431641 -13.296875 2.8349609Q-12.845703 3.4267578 -11.978516 3.4267578Q-11.292969 3.4267578 -10.879883 3.1513672Q-10.466797 2.8759766 -10.320312 2.4541016L-9.3945312 2.7177734Q-9.9628906 4.2177734 -11.978516 4.2177734Q-13.384766 4.2177734 -14.120117 3.3798828Q-14.855469 2.5419922 -14.855469 0.88964844Q-14.855469 -0.68066406 -14.120117 -1.5185547Q-13.384766 -2.3564453 -12.019531 -2.3564453Q-9.2246094 -2.3564453 -9.2246094 1.0126953L-9.2246094 1.1533203L-13.748047 1.1533203ZM-10.314453 0.34472656Q-10.402344 -0.65722656 -10.824219 -1.1171875Q-11.246094 -1.5771484 -12.037109 -1.5771484Q-12.804688 -1.5771484 -13.25293 -1.0644531Q-13.701172 -0.55175781 -13.736328 0.34472656L-10.314453 0.34472656ZM-6.265625 4.2177734Q-7.2207031 4.2177734 -7.7011719 3.7138672Q-8.1816406 3.2099609 -8.1816406 2.3310547Q-8.1816406 1.3466797 -7.5341797 0.81933594Q-6.8867188 0.29199219 -5.4453125 0.25683594L-4.0214844 0.23339844L-4.0214844 -0.11230469Q-4.0214844 -0.88574219 -4.3496094 -1.2197266Q-4.6777344 -1.5537109 -5.3808594 -1.5537109Q-6.0898438 -1.5537109 -6.4121094 -1.3134766Q-6.734375 -1.0732422 -6.7988281 -0.54589844L-7.9003906 -0.64550781Q-7.6308594 -2.3564453 -5.3574219 -2.3564453Q-4.1621094 -2.3564453 -3.5585938 -1.8085938Q-2.9550781 -1.2607422 -2.9550781 -0.22363281L-2.9550781 2.5068359Q-2.9550781 2.9755859 -2.8320312 3.2128906Q-2.7089844 3.4501953 -2.3632812 3.4501953Q-2.2109375 3.4501953 -2.0175781 3.4091797L-2.0175781 4.0654297Q-2.4160156 4.1591797 -2.8320312 4.1591797Q-3.4179688 4.1591797 -3.6845703 3.8515625Q-3.9511719 3.5439453 -3.9863281 2.8876953L-4.0214844 2.8876953Q-4.4257812 3.6142578 -4.9619141 3.9160156Q-5.4980469 4.2177734 -6.265625 4.2177734ZM-6.0253906 3.4267578Q-5.4453125 3.4267578 -4.9941406 3.1630859Q-4.5429688 2.8994141 -4.2822266 2.4394531Q-4.0214844 1.9794922 -4.0214844 1.4931641L-4.0214844 0.97167969L-5.1757812 0.99511719Q-5.9199219 1.0068359 -6.3037109 1.1474609Q-6.6875 1.2880859 -6.8925781 1.5810547Q-7.0976562 1.8740234 -7.0976562 2.3486328Q-7.0976562 2.8642578 -6.8193359 3.1455078Q-6.5410156 3.4267578 -6.0253906 3.4267578ZM3.5488281 2.3486328Q3.5488281 3.2451172 2.8720703 3.7314453Q2.1953125 4.2177734 0.9765625 4.2177734Q-0.20703125 4.2177734 -0.84863281 3.828125Q-1.4902344 3.4384766 -1.6835938 2.6123047L-0.75195312 2.4306641Q-0.6171875 2.9404297 -0.1953125 3.1777344Q0.2265625 3.4150391 0.9765625 3.4150391Q1.7792969 3.4150391 2.1513672 3.1689453Q2.5234375 2.9228516 2.5234375 2.4306641Q2.5234375 2.0556641 2.265625 1.8212891Q2.0078125 1.5869141 1.4335938 1.4345703L0.67773438 1.2353516Q-0.23046875 1.0009766 -0.61425781 0.77539062Q-0.99804688 0.54980469 -1.2148438 0.22753906Q-1.4316406 -0.094726562 -1.4316406 -0.56347656Q-1.4316406 -1.4306641 -0.81347656 -1.8847656Q-0.1953125 -2.3388672 0.98828125 -2.3388672Q2.0371094 -2.3388672 2.6552734 -1.9697266Q3.2734375 -1.6005859 3.4375 -0.78613281L2.4882812 -0.66894531Q2.4003906 -1.0908203 2.0166016 -1.3164062Q1.6328125 -1.5419922 0.98828125 -1.5419922Q0.2734375 -1.5419922 -0.06640625 -1.3251953Q-0.40625 -1.1083984 -0.40625 -0.66894531Q-0.40625 -0.39941406 -0.265625 -0.22363281Q-0.125 -0.047851562 0.15039062 0.075195312Q0.42578125 0.19824219 1.3105469 0.41503906Q2.1484375 0.62597656 2.5175781 0.8046875Q2.8867188 0.98339844 3.1005859 1.2001953Q3.3144531 1.4169922 3.4316406 1.7011719Q3.5488281 1.9853516 3.5488281 2.3486328ZM5.5996094 1.1533203Q5.5996094 2.2431641 6.0507812 2.8349609Q6.5019531 3.4267578 7.3691406 3.4267578Q8.0546875 3.4267578 8.4677734 3.1513672Q8.8808594 2.8759766 9.0273438 2.4541016L9.953125 2.7177734Q9.3847656 4.2177734 7.3691406 4.2177734Q5.9628906 4.2177734 5.2275391 3.3798828Q4.4921875 2.5419922 4.4921875 0.88964844Q4.4921875 -0.68066406 5.2275391 -1.5185547Q5.9628906 -2.3564453 7.328125 -2.3564453Q10.123047 -2.3564453 10.123047 1.0126953L10.123047 1.1533203L5.5996094 1.1533203ZM9.0332031 0.34472656Q8.9453125 -0.65722656 8.5234375 -1.1171875Q8.1015625 -1.5771484 7.3105469 -1.5771484Q6.5429688 -1.5771484 6.0947266 -1.0644531Q5.6464844 -0.55175781 5.6113281 0.34472656L9.0332031 0.34472656ZM17.992188 -3.2412109L17.992188 4.1005859L16.878906 4.1005859L16.878906 -3.2412109L14.042969 -3.2412109L14.042969 -4.1552734L20.828125 -4.1552734L20.828125 -3.2412109L17.992188 -3.2412109ZM22.199219 4.2177734Q21.244141 4.2177734 20.763672 3.7138672Q20.283203 3.2099609 20.283203 2.3310547Q20.283203 1.3466797 20.930664 0.81933594Q21.578125 0.29199219 23.019531 0.25683594L24.443359 0.23339844L24.443359 -0.11230469Q24.443359 -0.88574219 24.115234 -1.2197266Q23.787109 -1.5537109 23.083984 -1.5537109Q22.375 -1.5537109 22.052734 -1.3134766Q21.730469 -1.0732422 21.666016 -0.54589844L20.564453 -0.64550781Q20.833984 -2.3564453 23.107422 -2.3564453Q24.302734 -2.3564453 24.90625 -1.8085938Q25.509766 -1.2607422 25.509766 -0.22363281L25.509766 2.5068359Q25.509766 2.9755859 25.632812 3.2128906Q25.755859 3.4501953 26.101562 3.4501953Q26.253906 3.4501953 26.447266 3.4091797L26.447266 4.0654297Q26.048828 4.1591797 25.632812 4.1591797Q25.046875 4.1591797 24.780273 3.8515625Q24.513672 3.5439453 24.478516 2.8876953L24.443359 2.8876953Q24.039062 3.6142578 23.50293 3.9160156Q22.966797 4.2177734 22.199219 4.2177734ZM22.439453 3.4267578Q23.019531 3.4267578 23.470703 3.1630859Q23.921875 2.8994141 24.182617 2.4394531Q24.443359 1.9794922 24.443359 1.4931641L24.443359 0.97167969L23.289062 0.99511719Q22.544922 1.0068359 22.161133 1.1474609Q21.777344 1.2880859 21.572266 1.5810547Q21.367188 1.8740234 21.367188 2.3486328Q21.367188 2.8642578 21.645508 3.1455078Q21.923828 3.4267578 22.439453 3.4267578ZM29.658203 6.5908203Q28.621094 6.5908203 28.005859 6.1835938Q27.390625 5.7763672 27.214844 5.0263672L28.275391 4.8740234Q28.380859 5.3134766 28.741211 5.5507812Q29.101562 5.7880859 29.6875 5.7880859Q31.263672 5.7880859 31.263672 3.9423828L31.263672 2.9228516L31.251953 2.9228516Q30.953125 3.5322266 30.431641 3.8398438Q29.910156 4.1474609 29.212891 4.1474609Q28.046875 4.1474609 27.499023 3.3740234Q26.951172 2.6005859 26.951172 0.94238281Q26.951172 -0.73925781 27.540039 -1.5390625Q28.128906 -2.3388672 29.330078 -2.3388672Q30.003906 -2.3388672 30.499023 -2.03125Q30.994141 -1.7236328 31.263672 -1.1552734L31.275391 -1.1552734Q31.275391 -1.3310547 31.298828 -1.7646484Q31.322266 -2.1982422 31.345703 -2.2392578L32.347656 -2.2392578Q32.3125 -1.9228516 32.3125 -0.92675781L32.3125 3.9189453Q32.3125 6.5908203 29.658203 6.5908203ZM31.263672 0.93066406Q31.263672 0.15722656 31.052734 -0.40234375Q30.841797 -0.96191406 30.458008 -1.2578125Q30.074219 -1.5537109 29.587891 -1.5537109Q28.779297 -1.5537109 28.410156 -0.96777344Q28.041016 -0.38183594 28.041016 0.93066406Q28.041016 2.2314453 28.386719 2.7998047Q28.732422 3.3681641 29.570312 3.3681641Q30.068359 3.3681641 30.455078 3.0751953Q30.841797 2.7822266 31.052734 2.234375Q31.263672 1.6865234 31.263672 0.93066406Z"/>
	<path fill="none" stroke="black" stroke-width="1" stroke-miterlimit="10" stroke-opacity="0.10196079" d="M50 749.5L1194 749.5"/>
	<path fill="none" stroke="black" stroke-width="1" stroke-miterlimit="10" stroke-opacity="0.10196079" d="M41.75 749.5L49 749.5"/>
	<path fill="none" stroke="black" stroke-width="1" stroke-miterlimit="10" stroke-opacity="0.10196079" d="M50 681.5L1194 681.5"/>
	<path fill="none" stroke="black" stroke-width="1" stroke-miterlimit="10" stroke-opacity="0.10196079" d="M41.75 681.5L49 681.5"/>
	<path fill="none" stroke="black" stroke-width="1" stroke-miterlimit="10" stroke-opacity="0.10196079" d="M50 613.5L1194 613.5"/>
	<path fill="none" stroke="black" stroke-width="1" stroke-miterlimit="10" stroke-opacity="0.10196079" d="M41.75 613.5L49 613.5"/>
	<path fill="none" stroke="black" stroke-width="1" stroke-miterlimit="10" stroke-opacity="0.10196079" d="M50 545.5L1194 545.5"/>
	<path fill="none" stroke="black" stroke-width="1" stroke-miterlimit="10" stroke-opacity="0.10196079" d="M41.75 545.5L49 545.5"/>
	<path fill="none" stroke="black" stroke-width="1" stroke-miterlimit="10" stroke-opacity="0.10196079" d="M50 478.5L1194 478.5"/>
	<path fill="none" stroke="black" stroke-width="1" stroke-miterlimit="10" stroke-opacity="0.10196079" d="M41.75 478.5L49 478.5"/>
	<path fill="none" stroke="black" stroke-width="1" stroke-miterlimit="10" stroke-opacity="0.10196079" d="M50 410.5L1194 410.5"/>
	<path fill="none" stroke="black" stroke-width="1" stroke-miterlimit="10" stroke-opacity="0.10196079" d="M41.75 410.5L49 410.5"/>
	<path fill="none" stroke="black" stroke-width="1" stroke-miterlimit="10" stroke-opacity="0.10196079" d="M50 342.5L1194 342.5"/>
	<path fill="none" stroke="black" stroke-width="1" stroke-miterlimit="10" stroke-opacity="0.10196079" d="M41.75 342.5L49 342.5"/>
	<path fill="none" stroke="black" stroke-width="1" stroke-miterlimit="10" stroke-opacity="0.10196079" d="M50 274.5L1194 274.5"/>
	<path fill="none" stroke="black" stroke-width="1" stroke-miterlimit="10" stroke-opacity="0.10196079" d="M41.75 274.5L49 274.5"/>
	<path fill="none" stroke="black" stroke-width="1" stroke-miterlimit="10" stroke-opacity="0.10196079" d="M50 206.5L1194 206.5"/>
	<path fill="none" stroke="black" stroke-width="1" stroke-miterlimit="10" stroke-opacity="0.10196079" d="M41.75 206.5L49 206.5"/>
	<path fill="none" stroke="black" stroke-width="1" stroke-miterlimit="10" stroke-opacity="0.10196079" d="M50 139.5L1194 139.5"/>
	<path fill="none" stroke="black" stroke-width="1" stroke-miterlimit="10" stroke-opacity="0.10196079" d="M41.75 139.5L49 139.5"/>
	<path fill="none" stroke="black" stroke-width="1" stroke-miterlimit="10" stroke-opacity="0.10196079" d="M50 71.5L1194 71.5"/>
	<path fill="none" stroke="black" stroke-width="1" stroke-miterlimit="10" stroke-opacity="0.10196079" d="M41.75 71.5L49 71.5"/>
	<path fill="#666" transform="matrix(0 -1 1 0 11.2 410.2)" d="M-21.591797 -0.11230469Q-21.591797 1.1650391 -22.089844 2.1230469Q-22.587891 3.0810547 -23.501953 3.5908203Q-24.416016 4.1005859 -25.611328 4.1005859L-28.699219 4.1005859L-28.699219 -4.1552734L-25.96875 -4.1552734Q-23.871094 -4.1552734 -22.731445 -3.1035156Q-21.591797 -2.0517578 -21.591797 -0.11230469ZM-22.716797 -0.11230469Q-22.716797 -1.6474609 -23.557617 -2.453125Q-24.398438 -3.2587891 -25.992188 -3.2587891L-27.580078 -3.2587891L-27.580078 3.2041016L-25.740234 3.2041016Q-24.832031 3.2041016 -24.143555 2.8056641Q-23.455078 2.4072266 -23.085938 1.6572266Q-22.716797 0.90722656 -22.716797 -0.11230469ZM-14.847656 0.92480469Q-14.847656 2.5888672 -15.580078 3.4033203Q-16.3125 4.2177734 -17.707031 4.2177734Q-19.095703 4.2177734 -19.804688 3.3710938Q-20.513672 2.5244141 -20.513672 0.92480469Q-20.513672 -2.3564453 -17.671875 -2.3564453Q-16.21875 -2.3564453 -15.533203 -1.5566406Q-14.847656 -0.75683594 -14.847656 0.92480469ZM-15.955078 0.92480469Q-15.955078 -0.38769531 -16.344727 -0.98242188Q-16.734375 -1.5771484 -17.654297 -1.5771484Q-18.580078 -1.5771484 -18.993164 -0.97070312Q-19.40625 -0.36425781 -19.40625 0.92480469Q-19.40625 2.1787109 -18.999023 2.8085938Q-18.591797 3.4384766 -17.71875 3.4384766Q-16.769531 3.4384766 -16.362305 2.8291016Q-15.955078 2.2197266 -15.955078 0.92480469ZM-7.4648438 4.1005859L-8.6894531 4.1005859L-9.796875 -0.38183594L-10.007812 -1.3720703Q-10.060547 -1.1083984 -10.171875 -0.61328125Q-10.283203 -0.11816406 -11.367188 4.1005859L-12.585938 4.1005859L-14.361328 -2.2392578L-13.318359 -2.2392578L-12.246094 2.0673828Q-12.205078 2.2080078 -11.994141 3.2275391L-11.894531 2.7939453L-10.570312 -2.2392578L-9.4394531 -2.2392578L-8.3320312 2.1142578L-8.0625 3.2275391L-7.8808594 2.4130859L-6.6796875 -2.2392578L-5.6484375 -2.2392578L-7.4648438 4.1005859ZM-0.84375 4.1005859L-0.84375 0.081054688Q-0.84375 -0.54589844 -0.96679688 -0.89160156Q-1.0898438 -1.2373047 -1.359375 -1.3896484Q-1.6289062 -1.5419922 -2.1503906 -1.5419922Q-2.9121094 -1.5419922 -3.3515625 -1.0205078Q-3.7910156 -0.49902344 -3.7910156 0.42675781L-3.7910156 4.1005859L-4.8457031 4.1005859L-4.8457031 -0.88574219Q-4.8457031 -1.9931641 -4.8808594 -2.2392578L-3.8847656 -2.2392578Q-3.8789062 -2.2099609 -3.8730469 -2.0810547Q-3.8671875 -1.9521484 -3.8583984 -1.7851562Q-3.8496094 -1.6181641 -3.8378906 -1.1552734L-3.8203125 -1.1552734Q-3.4570312 -1.8115234 -2.9794922 -2.0839844Q-2.5019531 -2.3564453 -1.7929688 -2.3564453Q-0.75 -2.3564453 -0.26660156 -1.8378906Q0.21679688 -1.3193359 0.21679688 -0.12402344L0.21679688 4.1005859L-0.84375 4.1005859ZM1.8046875 4.1005859L1.8046875 -4.5947266L2.859375 -4.5947266L2.859375 4.1005859L1.8046875 4.1005859ZM9.8320312 0.92480469Q9.8320312 2.5888672 9.0996094 3.4033203Q8.3671875 4.2177734 6.9726562 4.2177734Q5.5839844 4.2177734 4.875 3.3710938Q4.1660156 2.5244141 4.1660156 0.92480469Q4.1660156 -2.3564453 7.0078125 -2.3564453Q8.4609375 -2.3564453 9.1464844 -1.5566406Q9.8320312 -0.75683594 9.8320312 0.92480469ZM8.7246094 0.92480469Q8.7246094 -0.38769531 8.3349609 -0.98242188Q7.9453125 -1.5771484 7.0253906 -1.5771484Q6.0996094 -1.5771484 5.6865234 -0.97070312Q5.2734375 -0.36425781 5.2734375 0.92480469Q5.2734375 2.1787109 5.6806641 2.8085938Q6.0878906 3.4384766 6.9609375 3.4384766Q7.9101562 3.4384766 8.3173828 2.8291016Q8.7246094 2.2197266 8.7246094 0.92480469ZM12.761719 4.2177734Q11.806641 4.2177734 11.326172 3.7138672Q10.845703 3.2099609 10.845703 2.3310547Q10.845703 1.3466797 11.493164 0.81933594Q12.140625 0.29199219 13.582031 0.25683594L15.005859 0.23339844L15.005859 -0.11230469Q15.005859 -0.88574219 14.677734 -1.2197266Q14.349609 -1.5537109 13.646484 -1.5537109Q12.9375 -1.5537109 12.615234 -1.3134766Q12.292969 -1.0732422 12.228516 -0.54589844L11.126953 -0.64550781Q11.396484 -2.3564453 13.669922 -2.3564453Q14.865234 -2.3564453 15.46875 -1.8085938Q16.072266 -1.2607422 16.072266 -0.22363281L16.072266 2.5068359Q16.072266 2.9755859 16.195312 3.2128906Q16.318359 3.4501953 16.664062 3.4501953Q16.816406 3.4501953 17.009766 3.4091797L17.009766 4.0654297Q16.611328 4.1591797 16.195312 4.1591797Q15.609375 4.1591797 15.342773 3.8515625Q15.076172 3.5439453 15.041016 2.8876953L15.005859 2.8876953Q14.601562 3.6142578 14.06543 3.9160156Q13.529297 4.2177734 12.761719 4.2177734ZM13.001953 3.4267578Q13.582031 3.4267578 14.033203 3.1630859Q14.484375 2.8994141 14.745117 2.4394531Q15.005859 1.9794922 15.005859 1.4931641L15.005859 0.97167969L13.851562 0.99511719Q13.107422 1.0068359 12.723633 1.1474609Q12.339844 1.2880859 12.134766 1.5810547Q11.929688 1.8740234 11.929688 2.3486328Q11.929688 2.8642578 12.208008 3.1455078Q12.486328 3.4267578 13.001953 3.4267578ZM21.820312 3.0810547Q21.527344 3.6904297 21.043945 3.9541016Q20.560547 4.2177734 19.845703 4.2177734Q18.644531 4.2177734 18.079102 3.4091797Q17.513672 2.6005859 17.513672 0.95996094Q17.513672 -2.3564453 19.845703 -2.3564453Q20.566406 -2.3564453 21.046875 -2.0927734Q21.527344 -1.8291016 21.820312 -1.2548828L21.832031 -1.2548828L21.820312 -1.9638672L21.820312 -4.5947266L22.875 -4.5947266L22.875 2.7939453Q22.875 3.7841797 22.910156 4.1005859L21.902344 4.1005859Q21.884766 4.0068359 21.864258 3.6669922Q21.84375 3.3271484 21.84375 3.0810547L21.820312 3.0810547ZM18.621094 0.92480469Q18.621094 2.2548828 18.972656 2.8291016Q19.324219 3.4033203 20.115234 3.4033203Q21.011719 3.4033203 21.416016 2.7822266Q21.820312 2.1611328 21.820312 0.85449219Q21.820312 -0.40527344 21.416016 -0.99121094Q21.011719 -1.5771484 20.126953 -1.5771484Q19.330078 -1.5771484 18.975586 -0.98828125Q18.621094 -0.39941406 18.621094 0.92480469ZM29.25 2.3486328Q29.25 3.2451172 28.573242 3.7314453Q27.896484 4.2177734 26.677734 4.2177734Q25.494141 4.2177734 24.852539 3.828125Q24.210938 3.4384766 24.017578 2.6123047L24.949219 2.4306641Q25.083984 2.9404297 25.505859 3.1777344Q25.927734 3.4150391 26.677734 3.4150391Q27.480469 3.4150391 27.852539 3.1689453Q28.224609 2.9228516 28.224609 2.4306641Q28.224609 2.0556641 27.966797 1.8212891Q27.708984 1.5869141 27.134766 1.4345703L26.378906 1.2353516Q25.470703 1.0009766 25.086914 0.77539062Q24.703125 0.54980469 24.486328 0.22753906Q24.269531 -0.094726562 24.269531 -0.56347656Q24.269531 -1.4306641 24.887695 -1.8847656Q25.505859 -2.3388672 26.689453 -2.3388672Q27.738281 -2.3388672 28.356445 -1.9697266Q28.974609 -1.6005859 29.138672 -0.78613281L28.189453 -0.66894531Q28.101562 -1.0908203 27.717773 -1.3164062Q27.333984 -1.5419922 26.689453 -1.5419922Q25.974609 -1.5419922 25.634766 -1.3251953Q25.294922 -1.1083984 25.294922 -0.66894531Q25.294922 -0.39941406 25.435547 -0.22363281Q25.576172 -0.047851562 25.851562 0.075195312Q26.126953 0.19824219 27.011719 0.41503906Q27.849609 0.62597656 28.21875 0.8046875Q28.587891 0.98339844 28.801758 1.2001953Q29.015625 1.4169922 29.132812 1.7011719Q29.25 1.9853516 29.25 2.3486328Z"/>
	<clipPath id="cl_445">
		<rect y="39.200001" width="1200" height="31.999996"/>
	</clipPath>
	<g clip-path="url(#cl_445)">
		<path fill="#C32222" fill-opacity="0.2" d="M569.33002 49.200001L609.33002 49.200001L609.33002 61.200001L569.33002 61.200001L569.33002 49.200001Z"/>
		<path fill="none" stroke="#C32222" stroke-width="2" stroke-miterlimit="10" d="M569.33002 49.200001L609.33002 49.200001L609.33002 61.200001L569.33002 61.200001L569.33002 49.200001Z"/>
	</g>
	<clipPath id="cl_446">
		<rect y="39.200001" width="1200" height="31.999996"/>
	</clipPath>
	<g clip-path="url(#cl_446)">
		<path fill="#666" d="M615.81635 59.300587L615.81635 58.497852L619.36127 53.775196L616.01556 53.775196L616.01556 52.960743L620.60931 52.960743L620.60931 53.763477L617.05853 58.486134L620.73236 58.486134L620.73236 59.300587L615.81635 59.300587ZM622.13275 51.613087L622.13275 50.605274L623.18744 50.605274L623.18744 51.613087L622.13275 51.613087ZM622.13275 59.300587L622.13275 52.960743L623.18744 52.960743L623.18744 59.300587L622.13275 59.300587ZM630.16595 56.101368Q630.16595 59.417774 627.83392 59.417774Q626.36908 59.417774 625.86517 58.316212L625.83588 58.316212Q625.85931 58.363087 625.85931 59.312305L625.85931 61.790821L624.80463 61.790821L624.80463 54.255665Q624.80463 53.277149 624.76947 52.960743L625.789 52.960743Q625.79486 52.98418 625.80658 53.127735Q625.8183 53.27129 625.83295 53.570118Q625.8476 53.868946 625.8476 53.980274L625.87103 53.980274Q626.15228 53.394337 626.61517 53.121876Q627.07806 52.849415 627.83392 52.849415Q629.0058 52.849415 629.58588 53.634571Q630.16595 54.419727 630.16595 56.101368ZM629.05853 56.124805Q629.05853 54.800587 628.70111 54.232227Q628.34369 53.663868 627.56439 53.663868Q626.93744 53.663868 626.58295 53.92754Q626.22845 54.191212 626.04388 54.750782Q625.85931 55.310352 625.85931 56.206837Q625.85931 57.454884 626.25775 58.04668Q626.65619 58.638477 627.55267 58.638477Q628.33783 58.638477 628.69818 58.061329Q629.05853 57.48418 629.05853 56.124805Z"/>
	</g>
	<path fill="#666" transform="translate(600 19.6)" d="M-265.43359 3.3320312Q-265.43359 4.5585938 -266.4375 5.2578125Q-267.44141 5.9570312 -269.21484 5.9570312Q-270.95703 5.9570312 -271.88281 5.40625Q-272.80859 4.8554688 -273.11328 3.6914062L-271.18359 3.4023438Q-271.01953 4.0039062 -270.61719 4.2539062Q-270.21484 4.5039062 -269.21484 4.5039062Q-268.29297 4.5039062 -267.87109 4.2695312Q-267.44922 4.0351562 -267.44922 3.5351562Q-267.44922 3.1289062 -267.78906 2.890625Q-268.12891 2.6523438 -268.94141 2.4882812Q-270.80078 2.1210938 -271.44922 1.8046875Q-272.09766 1.4882812 -272.4375 0.984375Q-272.77734 0.48046875 -272.77734 -0.25390625Q-272.77734 -1.4648438 -271.84375 -2.140625Q-270.91016 -2.8164062 -269.19922 -2.8164062Q-267.69141 -2.8164062 -266.77344 -2.2304688Q-265.85547 -1.6445312 -265.62891 -0.53515625L-267.57422 -0.33203125Q-267.66797 -0.84765625 -268.03516 -1.1015625Q-268.40234 -1.3554688 -269.19922 -1.3554688Q-269.98047 -1.3554688 -270.37109 -1.15625Q-270.76172 -0.95703125 -270.76172 -0.48828125Q-270.76172 -0.12109375 -270.46094 0.09375Q-270.16016 0.30859375 -269.44922 0.44921875Q-268.45703 0.65234375 -267.6875 0.8671875Q-266.91797 1.0820312 -266.45312 1.3789062Q-265.98828 1.6757812 -265.71094 2.140625Q-265.43359 2.6054688 -265.43359 3.3320312ZM-261.70703 5.9570312Q-262.93359 5.9570312 -263.62109 5.2890625Q-264.30859 4.6210938 -264.30859 3.4101562Q-264.30859 2.0976562 -263.45312 1.4101562Q-262.59766 0.72265625 -260.97266 0.70703125L-259.15234 0.67578125L-259.15234 0.24609375Q-259.15234 -0.58203125 -259.44141 -0.984375Q-259.73047 -1.3867188 -260.38672 -1.3867188Q-260.99609 -1.3867188 -261.28125 -1.109375Q-261.56641 -0.83203125 -261.63672 -0.19140625L-263.92578 -0.30078125Q-263.71484 -1.5351562 -262.79688 -2.171875Q-261.87891 -2.8085938 -260.29297 -2.8085938Q-258.69141 -2.8085938 -257.82422 -2.0195312Q-256.95703 -1.2304688 -256.95703 0.22265625L-256.95703 3.3007812Q-256.95703 4.0117188 -256.79688 4.28125Q-256.63672 4.5507812 -256.26172 4.5507812Q-256.01172 4.5507812 -255.77734 4.5039062L-255.77734 5.6914062Q-255.97266 5.7382812 -256.12891 5.7773438Q-256.28516 5.8164062 -256.44141 5.8398438Q-256.59766 5.8632812 -256.77344 5.8789062Q-256.94922 5.8945312 -257.18359 5.8945312Q-258.01172 5.8945312 -258.40625 5.4882812Q-258.80078 5.0820312 -258.87891 4.2929688L-258.92578 4.2929688Q-259.84766 5.9570312 -261.70703 5.9570312ZM-259.15234 1.8867188L-260.27734 1.9023438Q-261.04297 1.9335938 -261.36328 2.0703125Q-261.68359 2.2070312 -261.85156 2.4882812Q-262.01953 2.7695312 -262.01953 3.2382812Q-262.01953 3.8398438 -261.74219 4.1328125Q-261.46484 4.4257812 -261.00391 4.4257812Q-260.48828 4.4257812 -260.0625 4.1445312Q-259.63672 3.8632812 -259.39453 3.3671875Q-259.15234 2.8710938 -259.15234 2.3164062L-259.15234 1.8867188ZM-254.76172 -4.1757812L-254.76172 -5.7929688L-252.56641 -5.7929688L-252.56641 -4.1757812L-254.76172 -4.1757812ZM-254.76172 5.8007812L-254.76172 -2.6523438L-252.56641 -2.6523438L-252.56641 5.8007812L-254.76172 5.8007812ZM-250.31641 5.8007812L-250.31641 -5.7929688L-248.12109 -5.7929688L-248.12109 5.8007812L-250.31641 5.8007812ZM-237.87109 1.5351562Q-237.87109 3.6523438 -238.71875 4.8046875Q-239.56641 5.9570312 -241.11328 5.9570312Q-242.00391 5.9570312 -242.66406 5.5703125Q-243.32422 5.1835938 -243.67578 4.4570312L-243.72266 4.4570312Q-243.67578 4.6914062 -243.67578 5.8789062L-243.67578 9.1210938L-245.87109 9.1210938L-245.87109 -0.70703125Q-245.87109 -1.9023438 -245.93359 -2.6523438L-243.80078 -2.6523438Q-243.76172 -2.5117188 -243.73438 -2.0976562Q-243.70703 -1.6835938 -243.70703 -1.2773438L-243.67578 -1.2773438Q-242.93359 -2.8320312 -240.97266 -2.8320312Q-239.49609 -2.8320312 -238.68359 -1.6953125Q-237.87109 -0.55859375 -237.87109 1.5351562ZM-240.16016 1.5351562Q-240.16016 -1.3085938 -241.90234 -1.3085938Q-242.77734 -1.3085938 -243.24219 -0.54296875Q-243.70703 0.22265625 -243.70703 1.5976562Q-243.70703 2.9648438 -243.24219 3.7109375Q-242.77734 4.4570312 -241.91797 4.4570312Q-240.16016 4.4570312 -240.16016 1.5351562ZM-228.06641 1.5664062Q-228.06641 3.6210938 -229.20703 4.7890625Q-230.34766 5.9570312 -232.36328 5.9570312Q-234.33984 5.9570312 -235.46484 4.7851562Q-236.58984 3.6132812 -236.58984 1.5664062Q-236.58984 -0.47265625 -235.46484 -1.640625Q-234.33984 -2.8085938 -232.31641 -2.8085938Q-230.24609 -2.8085938 -229.15625 -1.6796875Q-228.06641 -0.55078125 -228.06641 1.5664062ZM-230.36328 1.5664062Q-230.36328 0.05859375 -230.85547 -0.62109375Q-231.34766 -1.3007812 -232.28516 -1.3007812Q-234.28516 -1.3007812 -234.28516 1.5664062Q-234.28516 2.9804688 -233.79688 3.71875Q-233.30859 4.4570312 -232.38672 4.4570312Q-230.36328 4.4570312 -230.36328 1.5664062ZM-226.32422 -4.1757812L-226.32422 -5.7929688L-224.12891 -5.7929688L-224.12891 -4.1757812L-226.32422 -4.1757812ZM-226.32422 5.8007812L-226.32422 -2.6523438L-224.12891 -2.6523438L-224.12891 5.8007812L-226.32422 5.8007812ZM-216.40234 5.8007812L-216.40234 1.0585938Q-216.40234 -1.1679688 -217.91016 -1.1679688Q-218.70703 -1.1679688 -219.19531 -0.484375Q-219.68359 0.19921875 -219.68359 1.2695312L-219.68359 5.8007812L-221.87891 5.8007812L-221.87891 -0.76171875Q-221.87891 -1.4414062 -221.89844 -1.875Q-221.91797 -2.3085938 -221.94141 -2.6523438L-219.84766 -2.6523438Q-219.82422 -2.5039062 -219.78516 -1.859375Q-219.74609 -1.2148438 -219.74609 -0.97265625L-219.71484 -0.97265625Q-219.26953 -1.9414062 -218.59766 -2.3789062Q-217.92578 -2.8164062 -216.99609 -2.8164062Q-215.65234 -2.8164062 -214.93359 -1.9882812Q-214.21484 -1.1601562 -214.21484 0.43359375L-214.21484 5.8007812L-216.40234 5.8007812ZM-209.94141 5.9414062Q-210.91016 5.9414062 -211.43359 5.4140625Q-211.95703 4.8867188 -211.95703 3.8164062L-211.95703 -1.1679688L-213.02734 -1.1679688L-213.02734 -2.6523438L-211.84766 -2.6523438L-211.16016 -4.6367188L-209.78516 -4.6367188L-209.78516 -2.6523438L-208.18359 -2.6523438L-208.18359 -1.1679688L-209.78516 -1.1679688L-209.78516 3.2226562Q-209.78516 3.8398438 -209.55078 4.1328125Q-209.31641 4.4257812 -208.82422 4.4257812Q-208.56641 4.4257812 -208.08984 4.3164062L-208.08984 5.6757812Q-208.90234 5.9414062 -209.94141 5.9414062ZM-207.26953 2.6054688L-207.26953 0.69921875L-203.20703 0.69921875L-203.20703 2.6054688L-207.26953 2.6054688ZM-193.41797 1.5664062Q-193.41797 3.6210938 -194.55859 4.7890625Q-195.69922 5.9570312 -197.71484 5.9570312Q-199.69141 5.9570312 -200.81641 4.7851562Q-201.94141 3.6132812 -201.94141 1.5664062Q-201.94141 -0.47265625 -200.81641 -1.640625Q-199.69141 -2.8085938 -197.66797 -2.8085938Q-195.59766 -2.8085938 -194.50781 -1.6796875Q-193.41797 -0.55078125 -193.41797 1.5664062ZM-195.71484 1.5664062Q-195.71484 0.05859375 -196.20703 -0.62109375Q-196.69922 -1.3007812 -197.63672 -1.3007812Q-199.63672 -1.3007812 -199.63672 1.5664062Q-199.63672 2.9804688 -199.14844 3.71875Q-198.66016 4.4570312 -197.73828 4.4570312Q-195.71484 4.4570312 -195.71484 1.5664062ZM-184.55078 3.3320312Q-184.55078 4.5585938 -185.55469 5.2578125Q-186.55859 5.9570312 -188.33203 5.9570312Q-190.07422 5.9570312 -191 5.40625Q-191.92578 4.8554688 -192.23047 3.6914062L-190.30078 3.4023438Q-190.13672 4.0039062 -189.73438 4.2539062Q-189.33203 4.5039062 -188.33203 4.5039062Q-187.41016 4.5039062 -186.98828 4.2695312Q-186.56641 4.0351562 -186.56641 3.5351562Q-186.56641 3.1289062 -186.90625 2.890625Q-187.24609 2.6523438 -188.05859 2.4882812Q-189.91797 2.1210938 -190.56641 1.8046875Q-191.21484 1.4882812 -191.55469 0.984375Q-191.89453 0.48046875 -191.89453 -0.25390625Q-191.89453 -1.4648438 -190.96094 -2.140625Q-190.02734 -2.8164062 -188.31641 -2.8164062Q-186.80859 -2.8164062 -185.89062 -2.2304688Q-184.97266 -1.6445312 -184.74609 -0.53515625L-186.69141 -0.33203125Q-186.78516 -0.84765625 -187.15234 -1.1015625Q-187.51953 -1.3554688 -188.31641 -1.3554688Q-189.09766 -1.3554688 -189.48828 -1.15625Q-189.87891 -0.95703125 -189.87891 -0.48828125Q-189.87891 -0.12109375 -189.57812 0.09375Q-189.27734 0.30859375 -188.56641 0.44921875Q-187.57422 0.65234375 -186.80469 0.8671875Q-186.03516 1.0820312 -185.57031 1.3789062Q-185.10547 1.6757812 -184.82812 2.140625Q-184.55078 2.6054688 -184.55078 3.3320312ZM-175.65234 3.3320312Q-175.65234 4.5585938 -176.65625 5.2578125Q-177.66016 5.9570312 -179.43359 5.9570312Q-181.17578 5.9570312 -182.10156 5.40625Q-183.02734 4.8554688 -183.33203 3.6914062L-181.40234 3.4023438Q-181.23828 4.0039062 -180.83594 4.2539062Q-180.43359 4.5039062 -179.43359 4.5039062Q-178.51172 4.5039062 -178.08984 4.2695312Q-177.66797 4.0351562 -177.66797 3.5351562Q-177.66797 3.1289062 -178.00781 2.890625Q-178.34766 2.6523438 -179.16016 2.4882812Q-181.01953 2.1210938 -181.66797 1.8046875Q-182.31641 1.4882812 -182.65625 0.984375Q-182.99609 0.48046875 -182.99609 -0.25390625Q-182.99609 -1.4648438 -182.0625 -2.140625Q-181.12891 -2.8164062 -179.41797 -2.8164062Q-177.91016 -2.8164062 -176.99219 -2.2304688Q-176.07422 -1.6445312 -175.84766 -0.53515625L-177.79297 -0.33203125Q-177.88672 -0.84765625 -178.25391 -1.1015625Q-178.62109 -1.3554688 -179.41797 -1.3554688Q-180.19922 -1.3554688 -180.58984 -1.15625Q-180.98047 -0.95703125 -180.98047 -0.48828125Q-180.98047 -0.12109375 -180.67969 0.09375Q-180.37891 0.30859375 -179.66797 0.44921875Q-178.67578 0.65234375 -177.90625 0.8671875Q-177.13672 1.0820312 -176.67188 1.3789062Q-176.20703 1.6757812 -175.92969 2.140625Q-175.65234 2.6054688 -175.65234 3.3320312ZM-174.83984 6.1210938L-172.56641 -5.7929688L-170.70703 -5.7929688L-172.94141 6.1210938L-174.83984 6.1210938ZM-165.91016 5.9570312Q-167.83203 5.9570312 -168.87891 4.8125Q-169.92578 3.6679688 -169.92578 1.6210938Q-169.92578 -0.47265625 -168.87109 -1.640625Q-167.81641 -2.8085938 -165.87891 -2.8085938Q-164.38672 -2.8085938 -163.41016 -2.0585938Q-162.43359 -1.3085938 -162.18359 0.01171875L-164.39453 0.12109375Q-164.48828 -0.52734375 -164.86328 -0.9140625Q-165.23828 -1.3007812 -165.92578 -1.3007812Q-167.62109 -1.3007812 -167.62109 1.5351562Q-167.62109 4.4570312 -165.89453 4.4570312Q-165.26953 4.4570312 -164.84766 4.0625Q-164.42578 3.6679688 -164.32422 2.8867188L-162.12109 2.9882812Q-162.23828 3.8554688 -162.74219 4.5351562Q-163.24609 5.2148438 -164.06641 5.5859375Q-164.88672 5.9570312 -165.91016 5.9570312ZM-152.50391 1.5664062Q-152.50391 3.6210938 -153.64453 4.7890625Q-154.78516 5.9570312 -156.80078 5.9570312Q-158.77734 5.9570312 -159.90234 4.7851562Q-161.02734 3.6132812 -161.02734 1.5664062Q-161.02734 -0.47265625 -159.90234 -1.640625Q-158.77734 -2.8085938 -156.75391 -2.8085938Q-154.68359 -2.8085938 -153.59375 -1.6796875Q-152.50391 -0.55078125 -152.50391 1.5664062ZM-154.80078 1.5664062Q-154.80078 0.05859375 -155.29297 -0.62109375Q-155.78516 -1.3007812 -156.72266 -1.3007812Q-158.72266 -1.3007812 -158.72266 1.5664062Q-158.72266 2.9804688 -158.23438 3.71875Q-157.74609 4.4570312 -156.82422 4.4570312Q-154.80078 4.4570312 -154.80078 1.5664062ZM-150.76172 5.8007812L-150.76172 -5.7929688L-148.56641 -5.7929688L-148.56641 5.8007812L-150.76172 5.8007812ZM-144.36328 5.9570312Q-145.58984 5.9570312 -146.27734 5.2890625Q-146.96484 4.6210938 -146.96484 3.4101562Q-146.96484 2.0976562 -146.10938 1.4101562Q-145.25391 0.72265625 -143.62891 0.70703125L-141.80859 0.67578125L-141.80859 0.24609375Q-141.80859 -0.58203125 -142.09766 -0.984375Q-142.38672 -1.3867188 -143.04297 -1.3867188Q-143.65234 -1.3867188 -143.9375 -1.109375Q-144.22266 -0.83203125 -144.29297 -0.19140625L-146.58203 -0.30078125Q-146.37109 -1.5351562 -145.45312 -2.171875Q-144.53516 -2.8085938 -142.94922 -2.8085938Q-141.34766 -2.8085938 -140.48047 -2.0195312Q-139.61328 -1.2304688 -139.61328 0.22265625L-139.61328 3.3007812Q-139.61328 4.0117188 -139.45312 4.28125Q-139.29297 4.5507812 -138.91797 4.5507812Q-138.66797 4.5507812 -138.43359 4.5039062L-138.43359 5.6914062Q-138.62891 5.7382812 -138.78516 5.7773438Q-138.94141 5.8164062 -139.09766 5.8398438Q-139.25391 5.8632812 -139.42969 5.8789062Q-139.60547 5.8945312 -139.83984 5.8945312Q-140.66797 5.8945312 -141.0625 5.4882812Q-141.45703 5.0820312 -141.53516 4.2929688L-141.58203 4.2929688Q-142.50391 5.9570312 -144.36328 5.9570312ZM-141.80859 1.8867188L-142.93359 1.9023438Q-143.69922 1.9335938 -144.01953 2.0703125Q-144.33984 2.2070312 -144.50781 2.4882812Q-144.67578 2.7695312 -144.67578 3.2382812Q-144.67578 3.8398438 -144.39844 4.1328125Q-144.12109 4.4257812 -143.66016 4.4257812Q-143.14453 4.4257812 -142.71875 4.1445312Q-142.29297 3.8632812 -142.05078 3.3671875Q-141.80859 2.8710938 -141.80859 2.3164062L-141.80859 1.8867188ZM-129.41797 1.5429688Q-129.41797 3.6367188 -130.25781 4.796875Q-131.09766 5.9570312 -132.66016 5.9570312Q-133.55859 5.9570312 -134.21484 5.5664062Q-134.87109 5.1757812 -135.22266 4.4414062L-135.23828 4.4414062Q-135.23828 4.7148438 -135.27344 5.1914062Q-135.30859 5.6679688 -135.34766 5.8007812L-137.48047 5.8007812Q-137.41797 5.0742188 -137.41797 3.8710938L-137.41797 -5.7929688L-135.22266 -5.7929688L-135.22266 -2.5585938L-135.25391 -1.1835938L-135.22266 -1.1835938Q-134.48047 -2.8085938 -132.51953 -2.8085938Q-131.01953 -2.8085938 -130.21875 -1.671875Q-129.41797 -0.53515625 -129.41797 1.5429688ZM-131.70703 1.5429688Q-131.70703 0.10546875 -132.12891 -0.58984375Q-132.55078 -1.2851562 -133.43359 -1.2851562Q-134.32422 -1.2851562 -134.78906 -0.5390625Q-135.25391 0.20703125 -135.25391 1.6132812Q-135.25391 2.9570312 -134.79688 3.7070312Q-134.33984 4.4570312 -133.44922 4.4570312Q-131.70703 4.4570312 -131.70703 1.5429688ZM-128.13672 2.6054688L-128.13672 0.69921875L-124.07422 0.69921875L-124.07422 2.6054688L-128.13672 2.6054688ZM-115.19141 3.3320312Q-115.19141 4.5585938 -116.19531 5.2578125Q-117.19922 5.9570312 -118.97266 5.9570312Q-120.71484 5.9570312 -121.64062 5.40625Q-122.56641 4.8554688 -122.87109 3.6914062L-120.94141 3.4023438Q-120.77734 4.0039062 -120.375 4.2539062Q-119.97266 4.5039062 -118.97266 4.5039062Q-118.05078 4.5039062 -117.62891 4.2695312Q-117.20703 4.0351562 -117.20703 3.5351562Q-117.20703 3.1289062 -117.54688 2.890625Q-117.88672 2.6523438 -118.69922 2.4882812Q-120.55859 2.1210938 -121.20703 1.8046875Q-121.85547 1.4882812 -122.19531 0.984375Q-122.53516 0.48046875 -122.53516 -0.25390625Q-122.53516 -1.4648438 -121.60156 -2.140625Q-120.66797 -2.8164062 -118.95703 -2.8164062Q-117.44922 -2.8164062 -116.53125 -2.2304688Q-115.61328 -1.6445312 -115.38672 -0.53515625L-117.33203 -0.33203125Q-117.42578 -0.84765625 -117.79297 -1.1015625Q-118.16016 -1.3554688 -118.95703 -1.3554688Q-119.73828 -1.3554688 -120.12891 -1.15625Q-120.51953 -0.95703125 -120.51953 -0.48828125Q-120.51953 -0.12109375 -120.21875 0.09375Q-119.91797 0.30859375 -119.20703 0.44921875Q-118.21484 0.65234375 -117.44531 0.8671875Q-116.67578 1.0820312 -116.21094 1.3789062Q-115.74609 1.6757812 -115.46875 2.140625Q-115.19141 2.6054688 -115.19141 3.3320312ZM-111.46484 5.9570312Q-112.69141 5.9570312 -113.37891 5.2890625Q-114.06641 4.6210938 -114.06641 3.4101562Q-114.06641 2.0976562 -113.21094 1.4101562Q-112.35547 0.72265625 -110.73047 0.70703125L-108.91016 0.67578125L-108.91016 0.24609375Q-108.91016 -0.58203125 -109.19922 -0.984375Q-109.48828 -1.3867188 -110.14453 -1.3867188Q-110.75391 -1.3867188 -111.03906 -1.109375Q-111.32422 -0.83203125 -111.39453 -0.19140625L-113.68359 -0.30078125Q-113.47266 -1.5351562 -112.55469 -2.171875Q-111.63672 -2.8085938 -110.05078 -2.8085938Q-108.44922 -2.8085938 -107.58203 -2.0195312Q-106.71484 -1.2304688 -106.71484 0.22265625L-106.71484 3.3007812Q-106.71484 4.0117188 -106.55469 4.28125Q-106.39453 4.5507812 -106.01953 4.5507812Q-105.76953 4.5507812 -105.53516 4.5039062L-105.53516 5.6914062Q-105.73047 5.7382812 -105.88672 5.7773438Q-106.04297 5.8164062 -106.19922 5.8398438Q-106.35547 5.8632812 -106.53125 5.8789062Q-106.70703 5.8945312 -106.94141 5.8945312Q-107.76953 5.8945312 -108.16406 5.4882812Q-108.55859 5.0820312 -108.63672 4.2929688L-108.68359 4.2929688Q-109.60547 5.9570312 -111.46484 5.9570312ZM-108.91016 1.8867188L-110.03516 1.9023438Q-110.80078 1.9335938 -111.12109 2.0703125Q-111.44141 2.2070312 -111.60938 2.4882812Q-111.77734 2.7695312 -111.77734 3.2382812Q-111.77734 3.8398438 -111.5 4.1328125Q-111.22266 4.4257812 -110.76172 4.4257812Q-110.24609 4.4257812 -109.82031 4.1445312Q-109.39453 3.8632812 -109.15234 3.3671875Q-108.91016 2.8710938 -108.91016 2.3164062L-108.91016 1.8867188ZM-102.56641 5.9570312Q-103.79297 5.9570312 -104.48047 5.2890625Q-105.16797 4.6210938 -105.16797 3.4101562Q-105.16797 2.0976562 -104.3125 1.4101562Q-103.45703 0.72265625 -101.83203 0.70703125L-100.01172 0.67578125L-100.01172 0.24609375Q-100.01172 -0.58203125 -100.30078 -0.984375Q-100.58984 -1.3867188 -101.24609 -1.3867188Q-101.85547 -1.3867188 -102.14062 -1.109375Q-102.42578 -0.83203125 -102.49609 -0.19140625L-104.78516 -0.30078125Q-104.57422 -1.5351562 -103.65625 -2.171875Q-102.73828 -2.8085938 -101.15234 -2.8085938Q-99.550781 -2.8085938 -98.683594 -2.0195312Q-97.816406 -1.2304688 -97.816406 0.22265625L-97.816406 3.3007812Q-97.816406 4.0117188 -97.65625 4.28125Q-97.496094 4.5507812 -97.121094 4.5507812Q-96.871094 4.5507812 -96.636719 4.5039062L-96.636719 5.6914062Q-96.832031 5.7382812 -96.988281 5.7773438Q-97.144531 5.8164062 -97.300781 5.8398438Q-97.457031 5.8632812 -97.632812 5.8789062Q-97.808594 5.8945312 -98.042969 5.8945312Q-98.871094 5.8945312 -99.265625 5.4882812Q-99.660156 5.0820312 -99.738281 4.2929688L-99.785156 4.2929688Q-100.70703 5.9570312 -102.56641 5.9570312ZM-100.01172 1.8867188L-101.13672 1.9023438Q-101.90234 1.9335938 -102.22266 2.0703125Q-102.54297 2.2070312 -102.71094 2.4882812Q-102.87891 2.7695312 -102.87891 3.2382812Q-102.87891 3.8398438 -102.60156 4.1328125Q-102.32422 4.4257812 -101.86328 4.4257812Q-101.34766 4.4257812 -100.92188 4.1445312Q-100.49609 3.8632812 -100.25391 3.3671875Q-100.01172 2.8710938 -100.01172 2.3164062L-100.01172 1.8867188ZM-88.496094 3.3320312Q-88.496094 4.5585938 -89.5 5.2578125Q-90.503906 5.9570312 -92.277344 5.9570312Q-94.019531 5.9570312 -94.945312 5.40625Q-95.871094 4.8554688 -96.175781 3.6914062L-94.246094 3.4023438Q-94.082031 4.0039062 -93.679688 4.2539062Q-93.277344 4.5039062 -92.277344 4.5039062Q-91.355469 4.5039062 -90.933594 4.2695312Q-90.511719 4.0351562 -90.511719 3.5351562Q-90.511719 3.1289062 -90.851562 2.890625Q-91.191406 2.6523438 -92.003906 2.4882812Q-93.863281 2.1210938 -94.511719 1.8046875Q-95.160156 1.4882812 -95.5 0.984375Q-95.839844 0.48046875 -95.839844 -0.25390625Q-95.839844 -1.4648438 -94.90625 -2.140625Q-93.972656 -2.8164062 -92.261719 -2.8164062Q-90.753906 -2.8164062 -89.835938 -2.2304688Q-88.917969 -1.6445312 -88.691406 -0.53515625L-90.636719 -0.33203125Q-90.730469 -0.84765625 -91.097656 -1.1015625Q-91.464844 -1.3554688 -92.261719 -1.3554688Q-93.042969 -1.3554688 -93.433594 -1.15625Q-93.824219 -0.95703125 -93.824219 -0.48828125Q-93.824219 -0.12109375 -93.523438 0.09375Q-93.222656 0.30859375 -92.511719 0.44921875Q-91.519531 0.65234375 -90.75 0.8671875Q-89.980469 1.0820312 -89.515625 1.3789062Q-89.050781 1.6757812 -88.773438 2.140625Q-88.496094 2.6054688 -88.496094 3.3320312ZM-87.214844 2.6054688L-87.214844 0.69921875L-83.152344 0.69921875L-83.152344 2.6054688L-87.214844 2.6054688ZM-77.871094 5.9570312Q-79.792969 5.9570312 -80.839844 4.8125Q-81.886719 3.6679688 -81.886719 1.6210938Q-81.886719 -0.47265625 -80.832031 -1.640625Q-79.777344 -2.8085938 -77.839844 -2.8085938Q-76.347656 -2.8085938 -75.371094 -2.0585938Q-74.394531 -1.3085938 -74.144531 0.01171875L-76.355469 0.12109375Q-76.449219 -0.52734375 -76.824219 -0.9140625Q-77.199219 -1.3007812 -77.886719 -1.3007812Q-79.582031 -1.3007812 -79.582031 1.5351562Q-79.582031 4.4570312 -77.855469 4.4570312Q-77.230469 4.4570312 -76.808594 4.0625Q-76.386719 3.6679688 -76.285156 2.8867188L-74.082031 2.9882812Q-74.199219 3.8554688 -74.703125 4.5351562Q-75.207031 5.2148438 -76.027344 5.5859375Q-76.847656 5.9570312 -77.871094 5.9570312ZM-64.464844 1.5664062Q-64.464844 3.6210938 -65.605469 4.7890625Q-66.746094 5.9570312 -68.761719 5.9570312Q-70.738281 5.9570312 -71.863281 4.7851562Q-72.988281 3.6132812 -72.988281 1.5664062Q-72.988281 -0.47265625 -71.863281 -1.640625Q-70.738281 -2.8085938 -68.714844 -2.8085938Q-66.644531 -2.8085938 -65.554688 -1.6796875Q-64.464844 -0.55078125 -64.464844 1.5664062ZM-66.761719 1.5664062Q-66.761719 0.05859375 -67.253906 -0.62109375Q-67.746094 -1.3007812 -68.683594 -1.3007812Q-70.683594 -1.3007812 -70.683594 1.5664062Q-70.683594 2.9804688 -70.195312 3.71875Q-69.707031 4.4570312 -68.785156 4.4570312Q-66.761719 4.4570312 -66.761719 1.5664062ZM-57.246094 5.8007812L-57.246094 1.0585938Q-57.246094 -1.1679688 -58.753906 -1.1679688Q-59.550781 -1.1679688 -60.039062 -0.484375Q-60.527344 0.19921875 -60.527344 1.2695312L-60.527344 5.8007812L-62.722656 5.8007812L-62.722656 -0.76171875Q-62.722656 -1.4414062 -62.742188 -1.875Q-62.761719 -2.3085938 -62.785156 -2.6523438L-60.691406 -2.6523438Q-60.667969 -2.5039062 -60.628906 -1.859375Q-60.589844 -1.2148438 -60.589844 -0.97265625L-60.558594 -0.97265625Q-60.113281 -1.9414062 -59.441406 -2.3789062Q-58.769531 -2.8164062 -57.839844 -2.8164062Q-56.496094 -2.8164062 -55.777344 -1.9882812Q-55.058594 -1.1601562 -55.058594 0.43359375L-55.058594 5.8007812L-57.246094 5.8007812ZM-47.472656 5.8007812L-47.472656 1.0585938Q-47.472656 -1.1679688 -48.980469 -1.1679688Q-49.777344 -1.1679688 -50.265625 -0.484375Q-50.753906 0.19921875 -50.753906 1.2695312L-50.753906 5.8007812L-52.949219 5.8007812L-52.949219 -0.76171875Q-52.949219 -1.4414062 -52.96875 -1.875Q-52.988281 -2.3085938 -53.011719 -2.6523438L-50.917969 -2.6523438Q-50.894531 -2.5039062 -50.855469 -1.859375Q-50.816406 -1.2148438 -50.816406 -0.97265625L-50.785156 -0.97265625Q-50.339844 -1.9414062 -49.667969 -2.3789062Q-48.996094 -2.8164062 -48.066406 -2.8164062Q-46.722656 -2.8164062 -46.003906 -1.9882812Q-45.285156 -1.1601562 -45.285156 0.43359375L-45.285156 5.8007812L-47.472656 5.8007812ZM-43.667969 2.6054688L-43.667969 0.69921875L-39.605469 0.69921875L-39.605469 2.6054688L-43.667969 2.6054688ZM-29.847656 1.5351562Q-29.847656 3.6523438 -30.695312 4.8046875Q-31.542969 5.9570312 -33.089844 5.9570312Q-33.980469 5.9570312 -34.640625 5.5703125Q-35.300781 5.1835938 -35.652344 4.4570312L-35.699219 4.4570312Q-35.652344 4.6914062 -35.652344 5.8789062L-35.652344 9.1210938L-37.847656 9.1210938L-37.847656 -0.70703125Q-37.847656 -1.9023438 -37.910156 -2.6523438L-35.777344 -2.6523438Q-35.738281 -2.5117188 -35.710938 -2.0976562Q-35.683594 -1.6835938 -35.683594 -1.2773438L-35.652344 -1.2773438Q-34.910156 -2.8320312 -32.949219 -2.8320312Q-31.472656 -2.8320312 -30.660156 -1.6953125Q-29.847656 -0.55859375 -29.847656 1.5351562ZM-32.136719 1.5351562Q-32.136719 -1.3085938 -33.878906 -1.3085938Q-34.753906 -1.3085938 -35.21875 -0.54296875Q-35.683594 0.22265625 -35.683594 1.5976562Q-35.683594 2.9648438 -35.21875 3.7109375Q-34.753906 4.4570312 -33.894531 4.4570312Q-32.136719 4.4570312 -32.136719 1.5351562ZM-28.074219 5.8007812L-28.074219 -0.66796875Q-28.074219 -1.3632812 -28.09375 -1.828125Q-28.113281 -2.2929688 -28.136719 -2.6523438L-26.042969 -2.6523438Q-26.019531 -2.5117188 -25.980469 -1.796875Q-25.941406 -1.0820312 -25.941406 -0.84765625L-25.910156 -0.84765625Q-25.589844 -1.7382812 -25.339844 -2.1015625Q-25.089844 -2.4648438 -24.746094 -2.640625Q-24.402344 -2.8164062 -23.886719 -2.8164062Q-23.464844 -2.8164062 -23.207031 -2.6992188L-23.207031 -0.86328125Q-23.738281 -0.98046875 -24.144531 -0.98046875Q-24.964844 -0.98046875 -25.421875 -0.31640625Q-25.878906 0.34765625 -25.878906 1.6523438L-25.878906 5.8007812L-28.074219 5.8007812ZM-21.847656 -4.1757812L-21.847656 -5.7929688L-19.652344 -5.7929688L-19.652344 -4.1757812L-21.847656 -4.1757812ZM-21.847656 5.8007812L-21.847656 -2.6523438L-19.652344 -2.6523438L-19.652344 5.8007812L-21.847656 5.8007812ZM-10.277344 3.3320312Q-10.277344 4.5585938 -11.28125 5.2578125Q-12.285156 5.9570312 -14.058594 5.9570312Q-15.800781 5.9570312 -16.726562 5.40625Q-17.652344 4.8554688 -17.957031 3.6914062L-16.027344 3.4023438Q-15.863281 4.0039062 -15.460938 4.2539062Q-15.058594 4.5039062 -14.058594 4.5039062Q-13.136719 4.5039062 -12.714844 4.2695312Q-12.292969 4.0351562 -12.292969 3.5351562Q-12.292969 3.1289062 -12.632812 2.890625Q-12.972656 2.6523438 -13.785156 2.4882812Q-15.644531 2.1210938 -16.292969 1.8046875Q-16.941406 1.4882812 -17.28125 0.984375Q-17.621094 0.48046875 -17.621094 -0.25390625Q-17.621094 -1.4648438 -16.6875 -2.140625Q-15.753906 -2.8164062 -14.042969 -2.8164062Q-12.535156 -2.8164062 -11.617188 -2.2304688Q-10.699219 -1.6445312 -10.472656 -0.53515625L-12.417969 -0.33203125Q-12.511719 -0.84765625 -12.878906 -1.1015625Q-13.246094 -1.3554688 -14.042969 -1.3554688Q-14.824219 -1.3554688 -15.214844 -1.15625Q-15.605469 -0.95703125 -15.605469 -0.48828125Q-15.605469 -0.12109375 -15.304688 0.09375Q-15.003906 0.30859375 -14.292969 0.44921875Q-13.300781 0.65234375 -12.53125 0.8671875Q-11.761719 1.0820312 -11.296875 1.3789062Q-10.832031 1.6757812 -10.554688 2.140625Q-10.277344 2.6054688 -10.277344 3.3320312ZM-3.5273438 5.8007812L-3.5273438 1.0585938Q-3.5273438 -1.1679688 -4.8085938 -1.1679688Q-5.4726562 -1.1679688 -5.890625 -0.48828125Q-6.3085938 0.19140625 -6.3085938 1.2695312L-6.3085938 5.8007812L-8.5039062 5.8007812L-8.5039062 -0.76171875Q-8.5039062 -1.4414062 -8.5234375 -1.875Q-8.5429688 -2.3085938 -8.5664062 -2.6523438L-6.4726562 -2.6523438Q-6.4492188 -2.5039062 -6.4101562 -1.859375Q-6.3710938 -1.2148438 -6.3710938 -0.97265625L-6.3398438 -0.97265625Q-5.9335938 -1.9414062 -5.328125 -2.3789062Q-4.7226562 -2.8164062 -3.8789062 -2.8164062Q-1.9414062 -2.8164062 -1.5273438 -0.97265625L-1.4804688 -0.97265625Q-1.0507812 -1.9570312 -0.44921875 -2.3867188Q0.15234375 -2.8164062 1.0820312 -2.8164062Q2.3164062 -2.8164062 2.9648438 -1.9765625Q3.6132812 -1.1367188 3.6132812 0.43359375L3.6132812 5.8007812L1.4335938 5.8007812L1.4335938 1.0585938Q1.4335938 -1.1679688 0.15234375 -1.1679688Q-0.48828125 -1.1679688 -0.8984375 -0.546875Q-1.3085938 0.07421875 -1.3476562 1.1679688L-1.3476562 5.8007812L-3.5273438 5.8007812ZM7.6757812 5.9570312Q6.4492188 5.9570312 5.7617188 5.2890625Q5.0742188 4.6210938 5.0742188 3.4101562Q5.0742188 2.0976562 5.9296875 1.4101562Q6.7851562 0.72265625 8.4101562 0.70703125L10.230469 0.67578125L10.230469 0.24609375Q10.230469 -0.58203125 9.9414062 -0.984375Q9.6523438 -1.3867188 8.9960938 -1.3867188Q8.3867188 -1.3867188 8.1015625 -1.109375Q7.8164062 -0.83203125 7.7460938 -0.19140625L5.4570312 -0.30078125Q5.6679688 -1.5351562 6.5859375 -2.171875Q7.5039062 -2.8085938 9.0898438 -2.8085938Q10.691406 -2.8085938 11.558594 -2.0195312Q12.425781 -1.2304688 12.425781 0.22265625L12.425781 3.3007812Q12.425781 4.0117188 12.585938 4.28125Q12.746094 4.5507812 13.121094 4.5507812Q13.371094 4.5507812 13.605469 4.5039062L13.605469 5.6914062Q13.410156 5.7382812 13.253906 5.7773438Q13.097656 5.8164062 12.941406 5.8398438Q12.785156 5.8632812 12.609375 5.8789062Q12.433594 5.8945312 12.199219 5.8945312Q11.371094 5.8945312 10.976562 5.4882812Q10.582031 5.0820312 10.503906 4.2929688L10.457031 4.2929688Q9.5351562 5.9570312 7.6757812 5.9570312ZM10.230469 1.8867188L9.1054688 1.9023438Q8.3398438 1.9335938 8.0195312 2.0703125Q7.6992188 2.2070312 7.53125 2.4882812Q7.3632812 2.7695312 7.3632812 3.2382812Q7.3632812 3.8398438 7.640625 4.1328125Q7.9179688 4.4257812 8.3789062 4.4257812Q8.8945312 4.4257812 9.3203125 4.1445312Q9.7460938 3.8632812 9.9882812 3.3671875Q10.230469 2.8710938 10.230469 2.3164062L10.230469 1.8867188ZM14.128906 2.6054688L14.128906 0.69921875L18.191406 0.69921875L18.191406 2.6054688L14.128906 2.6054688ZM27.074219 3.3320312Q27.074219 4.5585938 26.070312 5.2578125Q25.066406 5.9570312 23.292969 5.9570312Q21.550781 5.9570312 20.625 5.40625Q19.699219 4.8554688 19.394531 3.6914062L21.324219 3.4023438Q21.488281 4.0039062 21.890625 4.2539062Q22.292969 4.5039062 23.292969 4.5039062Q24.214844 4.5039062 24.636719 4.2695312Q25.058594 4.0351562 25.058594 3.5351562Q25.058594 3.1289062 24.71875 2.890625Q24.378906 2.6523438 23.566406 2.4882812Q21.707031 2.1210938 21.058594 1.8046875Q20.410156 1.4882812 20.070312 0.984375Q19.730469 0.48046875 19.730469 -0.25390625Q19.730469 -1.4648438 20.664062 -2.140625Q21.597656 -2.8164062 23.308594 -2.8164062Q24.816406 -2.8164062 25.734375 -2.2304688Q26.652344 -1.6445312 26.878906 -0.53515625L24.933594 -0.33203125Q24.839844 -0.84765625 24.472656 -1.1015625Q24.105469 -1.3554688 23.308594 -1.3554688Q22.527344 -1.3554688 22.136719 -1.15625Q21.746094 -0.95703125 21.746094 -0.48828125Q21.746094 -0.12109375 22.046875 0.09375Q22.347656 0.30859375 23.058594 0.44921875Q24.050781 0.65234375 24.820312 0.8671875Q25.589844 1.0820312 26.054688 1.3789062Q26.519531 1.6757812 26.796875 2.140625Q27.074219 2.6054688 27.074219 3.3320312ZM30.800781 5.9570312Q29.574219 5.9570312 28.886719 5.2890625Q28.199219 4.6210938 28.199219 3.4101562Q28.199219 2.0976562 29.054688 1.4101562Q29.910156 0.72265625 31.535156 0.70703125L33.355469 0.67578125L33.355469 0.24609375Q33.355469 -0.58203125 33.066406 -0.984375Q32.777344 -1.3867188 32.121094 -1.3867188Q31.511719 -1.3867188 31.226562 -1.109375Q30.941406 -0.83203125 30.871094 -0.19140625L28.582031 -0.30078125Q28.792969 -1.5351562 29.710938 -2.171875Q30.628906 -2.8085938 32.214844 -2.8085938Q33.816406 -2.8085938 34.683594 -2.0195312Q35.550781 -1.2304688 35.550781 0.22265625L35.550781 3.3007812Q35.550781 4.0117188 35.710938 4.28125Q35.871094 4.5507812 36.246094 4.5507812Q36.496094 4.5507812 36.730469 4.5039062L36.730469 5.6914062Q36.535156 5.7382812 36.378906 5.7773438Q36.222656 5.8164062 36.066406 5.8398438Q35.910156 5.8632812 35.734375 5.8789062Q35.558594 5.8945312 35.324219 5.8945312Q34.496094 5.8945312 34.101562 5.4882812Q33.707031 5.0820312 33.628906 4.2929688L33.582031 4.2929688Q32.660156 5.9570312 30.800781 5.9570312ZM33.355469 1.8867188L32.230469 1.9023438Q31.464844 1.9335938 31.144531 2.0703125Q30.824219 2.2070312 30.65625 2.4882812Q30.488281 2.7695312 30.488281 3.2382812Q30.488281 3.8398438 30.765625 4.1328125Q31.042969 4.4257812 31.503906 4.4257812Q32.019531 4.4257812 32.445312 4.1445312Q32.871094 3.8632812 33.113281 3.3671875Q33.355469 2.8710938 33.355469 2.3164062L33.355469 1.8867188ZM44.871094 3.3320312Q44.871094 4.5585938 43.867188 5.2578125Q42.863281 5.9570312 41.089844 5.9570312Q39.347656 5.9570312 38.421875 5.40625Q37.496094 4.8554688 37.191406 3.6914062L39.121094 3.4023438Q39.285156 4.0039062 39.6875 4.2539062Q40.089844 4.5039062 41.089844 4.5039062Q42.011719 4.5039062 42.433594 4.2695312Q42.855469 4.0351562 42.855469 3.5351562Q42.855469 3.1289062 42.515625 2.890625Q42.175781 2.6523438 41.363281 2.4882812Q39.503906 2.1210938 38.855469 1.8046875Q38.207031 1.4882812 37.867188 0.984375Q37.527344 0.48046875 37.527344 -0.25390625Q37.527344 -1.4648438 38.460938 -2.140625Q39.394531 -2.8164062 41.105469 -2.8164062Q42.613281 -2.8164062 43.53125 -2.2304688Q44.449219 -1.6445312 44.675781 -0.53515625L42.730469 -0.33203125Q42.636719 -0.84765625 42.269531 -1.1015625Q41.902344 -1.3554688 41.105469 -1.3554688Q40.324219 -1.3554688 39.933594 -1.15625Q39.542969 -0.95703125 39.542969 -0.48828125Q39.542969 -0.12109375 39.84375 0.09375Q40.144531 0.30859375 40.855469 0.44921875Q41.847656 0.65234375 42.617188 0.8671875Q43.386719 1.0820312 43.851562 1.3789062Q44.316406 1.6757812 44.59375 2.140625Q44.871094 2.6054688 44.871094 3.3320312ZM50.105469 5.9570312Q48.199219 5.9570312 47.175781 4.828125Q46.152344 3.6992188 46.152344 1.5351562Q46.152344 -0.55859375 47.191406 -1.6835938Q48.230469 -2.8085938 50.136719 -2.8085938Q51.957031 -2.8085938 52.917969 -1.6015625Q53.878906 -0.39453125 53.878906 1.9335938L53.878906 1.9960938L48.457031 1.9960938Q48.457031 3.2304688 48.914062 3.859375Q49.371094 4.4882812 50.214844 4.4882812Q51.378906 4.4882812 51.683594 3.4804688L53.753906 3.6601562Q52.855469 5.9570312 50.105469 5.9570312ZM50.105469 -1.4257812Q49.332031 -1.4257812 48.914062 -0.88671875Q48.496094 -0.34765625 48.472656 0.62109375L51.753906 0.62109375Q51.691406 -0.40234375 51.261719 -0.9140625Q50.832031 -1.4257812 50.105469 -1.4257812ZM59.496094 2.6054688L59.496094 0.69921875L63.558594 0.69921875L63.558594 2.6054688L59.496094 2.6054688ZM72.019531 -3.4257812L72.019531 -0.01953125L77.652344 -0.01953125L77.652344 1.7617188L72.019531 1.7617188L72.019531 5.8007812L69.714844 5.8007812L69.714844 -5.2070312L77.832031 -5.2070312L77.832031 -3.4257812L72.019531 -3.4257812ZM90.191406 0.24609375Q90.191406 1.9648438 89.511719 3.2695312Q88.832031 4.5742188 87.566406 5.265625Q86.300781 5.9570312 84.613281 5.9570312Q82.019531 5.9570312 80.546875 4.4296875Q79.074219 2.9023438 79.074219 0.24609375Q79.074219 -2.4023438 80.542969 -3.8867188Q82.011719 -5.3710938 84.628906 -5.3710938Q87.246094 -5.3710938 88.71875 -3.8710938Q90.191406 -2.3710938 90.191406 0.24609375ZM87.839844 0.24609375Q87.839844 -1.5351562 86.996094 -2.546875Q86.152344 -3.5585938 84.628906 -3.5585938Q83.082031 -3.5585938 82.238281 -2.5546875Q81.394531 -1.5507812 81.394531 0.24609375Q81.394531 2.0585938 82.257812 3.1015625Q83.121094 4.1445312 84.613281 4.1445312Q86.160156 4.1445312 87 3.1289062Q87.839844 2.1132812 87.839844 0.24609375ZM99.496094 5.8007812L96.941406 1.6210938L94.238281 1.6210938L94.238281 5.8007812L91.933594 5.8007812L91.933594 -5.2070312L97.433594 -5.2070312Q99.402344 -5.2070312 100.47266 -4.359375Q101.54297 -3.5117188 101.54297 -1.9257812Q101.54297 -0.76953125 100.88672 0.0703125Q100.23047 0.91015625 99.113281 1.1757812L102.08984 5.8007812L99.496094 5.8007812ZM99.222656 -1.8320312Q99.222656 -3.4179688 97.191406 -3.4179688L94.238281 -3.4179688L94.238281 -0.16796875L97.253906 -0.16796875Q98.222656 -0.16796875 98.722656 -0.60546875Q99.222656 -1.0429688 99.222656 -1.8320312ZM112.62891 5.8007812L112.62891 -0.87109375Q112.62891 -1.0976562 112.63281 -1.3242188Q112.63672 -1.5507812 112.70703 -3.2695312Q112.15234 -1.1679688 111.88672 -0.33984375L109.90234 5.8007812L108.26172 5.8007812L106.27734 -0.33984375L105.44141 -3.2695312Q105.53516 -1.4570312 105.53516 -0.87109375L105.53516 5.8007812L103.48828 5.8007812L103.48828 -5.2070312L106.57422 -5.2070312L108.54297 0.94921875L108.71484 1.5429688L109.08984 3.0195312L109.58203 1.2539062L111.60547 -5.2070312L114.67578 -5.2070312L114.67578 5.8007812L112.62891 5.8007812ZM124.59766 5.8007812L123.62109 2.9882812L119.42578 2.9882812L118.44922 5.8007812L116.14453 5.8007812L120.16016 -5.2070312L122.87891 -5.2070312L126.87891 5.8007812L124.59766 5.8007812ZM121.51953 -3.5117188L121.47266 -3.3398438Q121.39453 -3.0585938 121.28516 -2.6992188Q121.17578 -2.3398438 119.94141 1.2539062L123.10547 1.2539062L122.01953 -1.9101562L121.68359 -2.9726562L121.51953 -3.5117188ZM132.15234 -3.4257812L132.15234 5.8007812L129.84766 5.8007812L129.84766 -3.4257812L126.29297 -3.4257812L126.29297 -5.2070312L135.71484 -5.2070312L135.71484 -3.4257812L132.15234 -3.4257812ZM151.21484 0.21484375Q151.21484 1.9179688 150.54688 3.1875Q149.87891 4.4570312 148.65625 5.1289062Q147.43359 5.8007812 145.85547 5.8007812L141.40234 5.8007812L141.40234 -5.2070312L145.38672 -5.2070312Q148.16797 -5.2070312 149.69141 -3.8046875Q151.21484 -2.4023438 151.21484 0.21484375ZM148.89453 0.21484375Q148.89453 -1.5585938 147.97266 -2.4921875Q147.05078 -3.4257812 145.33984 -3.4257812L143.70703 -3.4257812L143.70703 4.0195312L145.66016 4.0195312Q147.14453 4.0195312 148.01953 2.9960938Q148.89453 1.9726562 148.89453 0.21484375ZM161.03516 1.5664062Q161.03516 3.6210938 159.89453 4.7890625Q158.75391 5.9570312 156.73828 5.9570312Q154.76172 5.9570312 153.63672 4.7851562Q152.51172 3.6132812 152.51172 1.5664062Q152.51172 -0.47265625 153.63672 -1.640625Q154.76172 -2.8085938 156.78516 -2.8085938Q158.85547 -2.8085938 159.94531 -1.6796875Q161.03516 -0.55078125 161.03516 1.5664062ZM158.73828 1.5664062Q158.73828 0.05859375 158.24609 -0.62109375Q157.75391 -1.3007812 156.81641 -1.3007812Q154.81641 -1.3007812 154.81641 1.5664062Q154.81641 2.9804688 155.30469 3.71875Q155.79297 4.4570312 156.71484 4.4570312Q158.73828 4.4570312 158.73828 1.5664062ZM171.91797 5.8007812L169.59766 5.8007812L168.25391 0.64453125Q168.16016 0.29296875 167.88672 -1.0898438L167.48047 0.66015625L166.12109 5.8007812L163.80078 5.8007812L161.61328 -2.6523438L163.67578 -2.6523438L165.06641 3.8085938L165.17578 3.2304688L165.37109 2.3164062L166.69922 -2.6523438L169.05078 -2.6523438L170.34766 2.3164062Q170.45703 2.7226562 170.66797 3.8085938L170.88672 2.7773438L172.10547 -2.6523438L174.13672 -2.6523438L171.91797 5.8007812ZM180.69922 5.8007812L180.69922 1.0585938Q180.69922 -1.1679688 179.19141 -1.1679688Q178.39453 -1.1679688 177.90625 -0.484375Q177.41797 0.19921875 177.41797 1.2695312L177.41797 5.8007812L175.22266 5.8007812L175.22266 -0.76171875Q175.22266 -1.4414062 175.20312 -1.875Q175.18359 -2.3085938 175.16016 -2.6523438L177.25391 -2.6523438Q177.27734 -2.5039062 177.31641 -1.859375Q177.35547 -1.2148438 177.35547 -0.97265625L177.38672 -0.97265625Q177.83203 -1.9414062 178.50391 -2.3789062Q179.17578 -2.8164062 180.10547 -2.8164062Q181.44922 -2.8164062 182.16797 -1.9882812Q182.88672 -1.1601562 182.88672 0.43359375L182.88672 5.8007812L180.69922 5.8007812ZM184.99609 5.8007812L184.99609 -5.7929688L187.19141 -5.7929688L187.19141 5.8007812L184.99609 5.8007812ZM197.47266 1.5664062Q197.47266 3.6210938 196.33203 4.7890625Q195.19141 5.9570312 193.17578 5.9570312Q191.19922 5.9570312 190.07422 4.7851562Q188.94922 3.6132812 188.94922 1.5664062Q188.94922 -0.47265625 190.07422 -1.640625Q191.19922 -2.8085938 193.22266 -2.8085938Q195.29297 -2.8085938 196.38281 -1.6796875Q197.47266 -0.55078125 197.47266 1.5664062ZM195.17578 1.5664062Q195.17578 0.05859375 194.68359 -0.62109375Q194.19141 -1.3007812 193.25391 -1.3007812Q191.25391 -1.3007812 191.25391 1.5664062Q191.25391 2.9804688 191.74219 3.71875Q192.23047 4.4570312 193.15234 4.4570312Q195.17578 4.4570312 195.17578 1.5664062ZM201.16797 5.9570312Q199.94141 5.9570312 199.25391 5.2890625Q198.56641 4.6210938 198.56641 3.4101562Q198.56641 2.0976562 199.42188 1.4101562Q200.27734 0.72265625 201.90234 0.70703125L203.72266 0.67578125L203.72266 0.24609375Q203.72266 -0.58203125 203.43359 -0.984375Q203.14453 -1.3867188 202.48828 -1.3867188Q201.87891 -1.3867188 201.59375 -1.109375Q201.30859 -0.83203125 201.23828 -0.19140625L198.94922 -0.30078125Q199.16016 -1.5351562 200.07812 -2.171875Q200.99609 -2.8085938 202.58203 -2.8085938Q204.18359 -2.8085938 205.05078 -2.0195312Q205.91797 -1.2304688 205.91797 0.22265625L205.91797 3.3007812Q205.91797 4.0117188 206.07812 4.28125Q206.23828 4.5507812 206.61328 4.5507812Q206.86328 4.5507812 207.09766 4.5039062L207.09766 5.6914062Q206.90234 5.7382812 206.74609 5.7773438Q206.58984 5.8164062 206.43359 5.8398438Q206.27734 5.8632812 206.10156 5.8789062Q205.92578 5.8945312 205.69141 5.8945312Q204.86328 5.8945312 204.46875 5.4882812Q204.07422 5.0820312 203.99609 4.2929688L203.94922 4.2929688Q203.02734 5.9570312 201.16797 5.9570312ZM203.72266 1.8867188L202.59766 1.9023438Q201.83203 1.9335938 201.51172 2.0703125Q201.19141 2.2070312 201.02344 2.4882812Q200.85547 2.7695312 200.85547 3.2382812Q200.85547 3.8398438 201.13281 4.1328125Q201.41016 4.4257812 201.87109 4.4257812Q202.38672 4.4257812 202.8125 4.1445312Q203.23828 3.8632812 203.48047 3.3671875Q203.72266 2.8710938 203.72266 2.3164062L203.72266 1.8867188ZM213.58984 5.8007812Q213.55859 5.6835938 213.51562 5.2109375Q213.47266 4.7382812 213.47266 4.4257812L213.44141 4.4257812Q212.73047 5.9570312 210.73828 5.9570312Q209.26172 5.9570312 208.45703 4.8046875Q207.65234 3.6523438 207.65234 1.5820312Q207.65234 -0.51953125 208.5 -1.6640625Q209.34766 -2.8085938 210.90234 -2.8085938Q211.80078 -2.8085938 212.45312 -2.4335938Q213.10547 -2.0585938 213.45703 -1.3164062L213.47266 -1.3164062L213.45703 -2.7070312L213.45703 -5.7929688L215.65234 -5.7929688L215.65234 3.9570312Q215.65234 4.7382812 215.71484 5.8007812L213.58984 5.8007812ZM213.48828 1.5273438Q213.48828 0.16015625 213.03125 -0.578125Q212.57422 -1.3164062 211.68359 -1.3164062Q210.80078 -1.3164062 210.37109 -0.6015625Q209.94141 0.11328125 209.94141 1.5820312Q209.94141 4.4570312 211.66797 4.4570312Q212.53516 4.4570312 213.01172 3.6953125Q213.48828 2.9335938 213.48828 1.5273438ZM227.25391 -3.4257812L227.25391 5.8007812L224.94922 5.8007812L224.94922 -3.4257812L221.39453 -3.4257812L221.39453 -5.2070312L230.81641 -5.2070312L230.81641 -3.4257812L227.25391 -3.4257812ZM231.22266 5.8007812L231.22266 -0.66796875Q231.22266 -1.3632812 231.20312 -1.828125Q231.18359 -2.2929688 231.16016 -2.6523438L233.25391 -2.6523438Q233.27734 -2.5117188 233.31641 -1.796875Q233.35547 -1.0820312 233.35547 -0.84765625L233.38672 -0.84765625Q233.70703 -1.7382812 233.95703 -2.1015625Q234.20703 -2.4648438 234.55078 -2.640625Q234.89453 -2.8164062 235.41016 -2.8164062Q235.83203 -2.8164062 236.08984 -2.6992188L236.08984 -0.86328125Q235.55859 -0.98046875 235.15234 -0.98046875Q234.33203 -0.98046875 233.875 -0.31640625Q233.41797 0.34765625 233.41797 1.6523438L233.41797 5.8007812L231.22266 5.8007812ZM240.91016 5.9570312Q239.00391 5.9570312 237.98047 4.828125Q236.95703 3.6992188 236.95703 1.5351562Q236.95703 -0.55859375 237.99609 -1.6835938Q239.03516 -2.8085938 240.94141 -2.8085938Q242.76172 -2.8085938 243.72266 -1.6015625Q244.68359 -0.39453125 244.68359 1.9335938L244.68359 1.9960938L239.26172 1.9960938Q239.26172 3.2304688 239.71875 3.859375Q240.17578 4.4882812 241.01953 4.4882812Q242.18359 4.4882812 242.48828 3.4804688L244.55859 3.6601562Q243.66016 5.9570312 240.91016 5.9570312ZM240.91016 -1.4257812Q240.13672 -1.4257812 239.71875 -0.88671875Q239.30078 -0.34765625 239.27734 0.62109375L242.55859 0.62109375Q242.49609 -0.40234375 242.06641 -0.9140625Q241.63672 -1.4257812 240.91016 -1.4257812ZM251.82422 5.8007812L251.82422 1.0585938Q251.82422 -1.1679688 250.31641 -1.1679688Q249.51953 -1.1679688 249.03125 -0.484375Q248.54297 0.19921875 248.54297 1.2695312L248.54297 5.8007812L246.34766 5.8007812L246.34766 -0.76171875Q246.34766 -1.4414062 246.32812 -1.875Q246.30859 -2.3085938 246.28516 -2.6523438L248.37891 -2.6523438Q248.40234 -2.5039062 248.44141 -1.859375Q248.48047 -1.2148438 248.48047 -0.97265625L248.51172 -0.97265625Q248.95703 -1.9414062 249.62891 -2.3789062Q250.30078 -2.8164062 251.23047 -2.8164062Q252.57422 -2.8164062 253.29297 -1.9882812Q254.01172 -1.1601562 254.01172 0.43359375L254.01172 5.8007812L251.82422 5.8007812ZM261.59766 5.8007812Q261.56641 5.6835938 261.52344 5.2109375Q261.48047 4.7382812 261.48047 4.4257812L261.44922 4.4257812Q260.73828 5.9570312 258.74609 5.9570312Q257.26953 5.9570312 256.46484 4.8046875Q255.66016 3.6523438 255.66016 1.5820312Q255.66016 -0.51953125 256.50781 -1.6640625Q257.35547 -2.8085938 258.91016 -2.8085938Q259.80859 -2.8085938 260.46094 -2.4335938Q261.11328 -2.0585938 261.46484 -1.3164062L261.48047 -1.3164062L261.46484 -2.7070312L261.46484 -5.7929688L263.66016 -5.7929688L263.66016 3.9570312Q263.66016 4.7382812 263.72266 5.8007812L261.59766 5.8007812ZM261.49609 1.5273438Q261.49609 0.16015625 261.03906 -0.578125Q260.58203 -1.3164062 259.69141 -1.3164062Q258.80859 -1.3164062 258.37891 -0.6015625Q257.94922 0.11328125 257.94922 1.5820312Q257.94922 4.4570312 259.67578 4.4570312Q260.54297 4.4570312 261.01953 3.6953125Q261.49609 2.9335938 261.49609 1.5273438ZM273.01953 3.3320312Q273.01953 4.5585938 272.01562 5.2578125Q271.01172 5.9570312 269.23828 5.9570312Q267.49609 5.9570312 266.57031 5.40625Q265.64453 4.8554688 265.33984 3.6914062L267.26953 3.4023438Q267.43359 4.0039062 267.83594 4.2539062Q268.23828 4.5039062 269.23828 4.5039062Q270.16016 4.5039062 270.58203 4.2695312Q271.00391 4.0351562 271.00391 3.5351562Q271.00391 3.1289062 270.66406 2.890625Q270.32422 2.6523438 269.51172 2.4882812Q267.65234 2.1210938 267.00391 1.8046875Q266.35547 1.4882812 266.01562 0.984375Q265.67578 0.48046875 265.67578 -0.25390625Q265.67578 -1.4648438 266.60938 -2.140625Q267.54297 -2.8164062 269.25391 -2.8164062Q270.76172 -2.8164062 271.67969 -2.2304688Q272.59766 -1.6445312 272.82422 -0.53515625L270.87891 -0.33203125Q270.78516 -0.84765625 270.41797 -1.1015625Q270.05078 -1.3554688 269.25391 -1.3554688Q268.47266 -1.3554688 268.08203 -1.15625Q267.69141 -0.95703125 267.69141 -0.48828125Q267.69141 -0.12109375 267.99219 0.09375Q268.29297 0.30859375 269.00391 0.44921875Q269.99609 0.65234375 270.76562 0.8671875Q271.53516 1.0820312 272 1.3789062Q272.46484 1.6757812 272.74219 2.140625Q273.01953 2.6054688 273.01953 3.3320312Z"/>
	<path fill="none" stroke="black" stroke-width="1" stroke-miterlimit="10" stroke-opacity="0.10196079" d="M49 749.5L1195 749.5"/>
	<clipPath id="cl_448">
		<rect y="749.20001" width="1200" height="50.799988"/>
	</clipPath>
	<g clip-path="url(#cl_448)">
		<path fill="#666" transform="translate(49.75 760.2)" d="M-12.751953 11.300586L-14 11.300586L-16.302734 4.960742L-15.177734 4.960742L-13.783203 9.085742Q-13.707031 9.320117 -13.378906 10.474414L-13.173828 9.788867L-12.945312 9.0974607L-11.503906 4.960742L-10.384766 4.960742L-12.751953 11.300586ZM-9.4296875 11.300586L-9.4296875 10.404101L-7.3261719 10.404101L-7.3261719 4.0525389L-9.1894531 5.382617L-9.1894531 4.3865232L-7.2382812 3.0447264L-6.265625 3.0447264L-6.265625 10.404101L-4.2558594 10.404101L-4.2558594 11.300586L-9.4296875 11.300586ZM-2.5742188 11.300586L-2.5742188 10.017383L-1.4316406 10.017383L-1.4316406 11.300586L-2.5742188 11.300586ZM5.8691406 7.1697264Q5.8691406 9.2380857 5.1396484 10.327929Q4.4101562 11.417773 2.9863281 11.417773Q1.5625 11.417773 0.84765625 10.333789Q0.1328125 9.2498045 0.1328125 7.1697264Q0.1328125 5.0427732 0.82714844 3.9822264Q1.5214844 2.9216795 3.0214844 2.9216795Q4.4804688 2.9216795 5.1748047 3.9939451Q5.8691406 5.0662107 5.8691406 7.1697264ZM4.796875 7.1697264Q4.796875 5.382617 4.3837891 4.5798826Q3.9707031 3.7771482 3.0214844 3.7771482Q2.0488281 3.7771482 1.6240234 4.5681639Q1.1992188 5.3591795 1.1992188 7.1697264Q1.1992188 8.9275389 1.6298828 9.741992Q2.0605469 10.556445 2.9980469 10.556445Q3.9296875 10.556445 4.3632812 9.7244139Q4.796875 8.8923826 4.796875 7.1697264ZM7.4335938 11.300586L7.4335938 10.017383L8.5761719 10.017383L8.5761719 11.300586L7.4335938 11.300586ZM15.876953 7.1697264Q15.876953 9.2380857 15.147461 10.327929Q14.417969 11.417773 12.994141 11.417773Q11.570312 11.417773 10.855469 10.333789Q10.140625 9.2498045 10.140625 7.1697264Q10.140625 5.0427732 10.834961 3.9822264Q11.529297 2.9216795 13.029297 2.9216795Q14.488281 2.9216795 15.182617 3.9939451Q15.876953 5.0662107 15.876953 7.1697264ZM14.804688 7.1697264Q14.804688 5.382617 14.391602 4.5798826Q13.978516 3.7771482 13.029297 3.7771482Q12.056641 3.7771482 11.631836 4.5681639Q11.207031 5.3591795 11.207031 7.1697264Q11.207031 8.9275389 11.637695 9.741992Q12.068359 10.556445 13.005859 10.556445Q13.9375 10.556445 14.371094 9.7244139Q14.804688 8.8923826 14.804688 7.1697264Z"/>
	</g>
	<path fill="none" stroke="black" stroke-width="1" stroke-miterlimit="10" stroke-opacity="0.10196079" d="M49.5 71L49.5 750"/>
	<clipPath id="cl_44a">
		<rect width="49.75" height="800"/>
	</clipPath>
	<g clip-path="url(#cl_44a)">
		<path fill="#666" transform="translate(38.75 749.2)" d="M-0.46679688 -0.030273438Q-0.46679688 2.0380859 -1.1962891 3.1279297Q-1.9257812 4.2177734 -3.3496094 4.2177734Q-4.7734375 4.2177734 -5.4882812 3.1337891Q-6.203125 2.0498047 -6.203125 -0.030273438Q-6.203125 -2.1572266 -5.5087891 -3.2177734Q-4.8144531 -4.2783203 -3.3144531 -4.2783203Q-1.8554688 -4.2783203 -1.1611328 -3.2060547Q-0.46679688 -2.1337891 -0.46679688 -0.030273438ZM-1.5390625 -0.030273438Q-1.5390625 -1.8173828 -1.9521484 -2.6201172Q-2.3652344 -3.4228516 -3.3144531 -3.4228516Q-4.2871094 -3.4228516 -4.7119141 -2.6318359Q-5.1367188 -1.8408203 -5.1367188 -0.030273438Q-5.1367188 1.7275391 -4.7060547 2.5419922Q-4.2753906 3.3564453 -3.3378906 3.3564453Q-2.40625 3.3564453 -1.9726562 2.5244141Q-1.5390625 1.6923828 -1.5390625 -0.030273438Z"/>
	</g>
	<clipPath id="cl_44b">
		<rect width="49.75" height="800"/>
	</clipPath>
	<g clip-path="url(#cl_44b)">
		<path fill="#666" transform="translate(38.75 681.4)" d="M-5.7578125 4.1005859L-5.7578125 3.2041016L-3.6542969 3.2041016L-3.6542969 -3.1474609L-5.5175781 -1.8173828L-5.5175781 -2.8134766L-3.5664062 -4.1552734L-2.59375 -4.1552734L-2.59375 3.2041016L-0.58398438 3.2041016L-0.58398438 4.1005859L-5.7578125 4.1005859Z"/>
	</g>
	<clipPath id="cl_44c">
		<rect width="49.75" height="800"/>
	</clipPath>
	<g clip-path="url(#cl_44c)">
		<path fill="#666" transform="translate(38.75 613.6)" d="M-6.0683594 4.1005859L-6.0683594 3.3564453Q-5.7695312 2.6708984 -5.3388672 2.1464844Q-4.9082031 1.6220703 -4.4335938 1.1972656Q-3.9589844 0.77246094 -3.4931641 0.40917969Q-3.0273438 0.045898438 -2.6523438 -0.31738281Q-2.2773438 -0.68066406 -2.0458984 -1.0791016Q-1.8144531 -1.4775391 -1.8144531 -1.9814453Q-1.8144531 -2.6611328 -2.2128906 -3.0361328Q-2.6113281 -3.4111328 -3.3203125 -3.4111328Q-3.9941406 -3.4111328 -4.4306641 -3.0449219Q-4.8671875 -2.6787109 -4.9433594 -2.0166016L-6.0214844 -2.1162109Q-5.9042969 -3.1064453 -5.1806641 -3.6923828Q-4.4570312 -4.2783203 -3.3203125 -4.2783203Q-2.0722656 -4.2783203 -1.4013672 -3.6894531Q-0.73046875 -3.1005859 -0.73046875 -2.0166016Q-0.73046875 -1.5361328 -0.95019531 -1.0615234Q-1.1699219 -0.58691406 -1.6035156 -0.11230469Q-2.0371094 0.36230469 -3.2617188 1.3583984Q-3.9355469 1.9091797 -4.3339844 2.3515625Q-4.7324219 2.7939453 -4.9082031 3.2041016L-0.6015625 3.2041016L-0.6015625 4.1005859L-6.0683594 4.1005859Z"/>
	</g>
	<clipPath id="cl_44d">
		<rect width="49.75" height="800"/>
	</clipPath>
	<g clip-path="url(#cl_44d)">
		<path fill="#666" transform="translate(38.75 545.8)" d="M-0.52539062 1.8212891Q-0.52539062 2.9638672 -1.2519531 3.5908203Q-1.9785156 4.2177734 -3.3261719 4.2177734Q-4.5800781 4.2177734 -5.3271484 3.6523438Q-6.0742188 3.0869141 -6.2148438 1.9794922L-5.125 1.8798828Q-4.9140625 3.3447266 -3.3261719 3.3447266Q-2.5292969 3.3447266 -2.0751953 2.9521484Q-1.6210938 2.5595703 -1.6210938 1.7861328Q-1.6210938 1.1123047 -2.1396484 0.734375Q-2.6582031 0.35644531 -3.6367188 0.35644531L-4.234375 0.35644531L-4.234375 -0.55761719L-3.6601562 -0.55761719Q-2.7929688 -0.55761719 -2.3154297 -0.93554688Q-1.8378906 -1.3134766 -1.8378906 -1.9814453Q-1.8378906 -2.6435547 -2.2275391 -3.0273438Q-2.6171875 -3.4111328 -3.3847656 -3.4111328Q-4.0820312 -3.4111328 -4.5126953 -3.0537109Q-4.9433594 -2.6962891 -5.0136719 -2.0458984L-6.0742188 -2.1279297Q-5.9570312 -3.1416016 -5.2333984 -3.7099609Q-4.5097656 -4.2783203 -3.3730469 -4.2783203Q-2.1308594 -4.2783203 -1.4423828 -3.7011719Q-0.75390625 -3.1240234 -0.75390625 -2.0927734Q-0.75390625 -1.3017578 -1.1962891 -0.80664062Q-1.6386719 -0.31152344 -2.4824219 -0.13574219L-2.4824219 -0.11230469Q-1.5566406 -0.012695312 -1.0410156 0.50878906Q-0.52539062 1.0302734 -0.52539062 1.8212891Z"/>
	</g>
	<clipPath id="cl_44e">
		<rect width="49.75" height="800"/>
	</clipPath>
	<g clip-path="url(#cl_44e)">
		<path fill="#666" transform="translate(38.75 478)" d="M-1.5097656 2.2314453L-1.5097656 4.1005859L-2.5058594 4.1005859L-2.5058594 2.2314453L-6.3964844 2.2314453L-6.3964844 1.4111328L-2.6171875 -4.1552734L-1.5097656 -4.1552734L-1.5097656 1.3994141L-0.34960938 1.3994141L-0.34960938 2.2314453L-1.5097656 2.2314453ZM-2.5058594 -2.9658203Q-2.5175781 -2.9306641 -2.6699219 -2.6552734Q-2.8222656 -2.3798828 -2.8984375 -2.2685547L-5.0136719 0.84863281L-5.3300781 1.2822266L-5.4238281 1.3994141L-2.5058594 1.3994141L-2.5058594 -2.9658203Z"/>
	</g>
	<clipPath id="cl_44f">
		<rect width="49.75" height="800"/>
	</clipPath>
	<g clip-path="url(#cl_44f)">
		<path fill="#666" transform="translate(38.75 410.2)" d="M-0.50195312 1.4111328Q-0.50195312 2.7177734 -1.2783203 3.4677734Q-2.0546875 4.2177734 -3.4316406 4.2177734Q-4.5859375 4.2177734 -5.2949219 3.7138672Q-6.0039062 3.2099609 -6.1914062 2.2548828L-5.125 2.1318359Q-4.7910156 3.3564453 -3.4082031 3.3564453Q-2.5585938 3.3564453 -2.078125 2.84375Q-1.5976562 2.3310547 -1.5976562 1.4345703Q-1.5976562 0.65527344 -2.0810547 0.17480469Q-2.5644531 -0.30566406 -3.3847656 -0.30566406Q-3.8125 -0.30566406 -4.1816406 -0.17089844Q-4.5507812 -0.036132812 -4.9199219 0.28613281L-5.9511719 0.28613281L-5.6757812 -4.1552734L-0.98242188 -4.1552734L-0.98242188 -3.2587891L-4.7148438 -3.2587891L-4.8730469 -0.63964844Q-4.1875 -1.1669922 -3.1679688 -1.1669922Q-1.9492188 -1.1669922 -1.2255859 -0.45214844Q-0.50195312 0.26269531 -0.50195312 1.4111328Z"/>
	</g>
	<clipPath id="cl_450">
		<rect width="49.75" height="800"/>
	</clipPath>
	<g clip-path="url(#cl_450)">
		<path fill="#666" transform="translate(38.75 342.4)" d="M-0.52539062 1.3994141Q-0.52539062 2.7060547 -1.234375 3.4619141Q-1.9433594 4.2177734 -3.1914062 4.2177734Q-4.5859375 4.2177734 -5.3242188 3.1806641Q-6.0625 2.1435547 -6.0625 0.16308594Q-6.0625 -1.9814453 -5.2949219 -3.1298828Q-4.5273438 -4.2783203 -3.109375 -4.2783203Q-1.2402344 -4.2783203 -0.75390625 -2.5966797L-1.7617188 -2.4150391Q-2.0722656 -3.4228516 -3.1210938 -3.4228516Q-4.0234375 -3.4228516 -4.5185547 -2.5820312Q-5.0136719 -1.7412109 -5.0136719 -0.14746094Q-4.7265625 -0.68066406 -4.2050781 -0.95898438Q-3.6835938 -1.2373047 -3.0097656 -1.2373047Q-1.8671875 -1.2373047 -1.1962891 -0.52246094Q-0.52539062 0.19238281 -0.52539062 1.3994141ZM-1.5976562 1.4462891Q-1.5976562 0.54980469 -2.0371094 0.063476562Q-2.4765625 -0.42285156 -3.2617188 -0.42285156Q-4 -0.42285156 -4.4541016 0.0078125Q-4.9082031 0.43847656 -4.9082031 1.1943359Q-4.9082031 2.1494141 -4.4365234 2.7587891Q-3.9648438 3.3681641 -3.2265625 3.3681641Q-2.4648438 3.3681641 -2.03125 2.8554688Q-1.5976562 2.3427734 -1.5976562 1.4462891Z"/>
	</g>
	<clipPath id="cl_451">
		<rect width="49.75" height="800"/>
	</clipPath>
	<g clip-path="url(#cl_451)">
		<path fill="#666" transform="translate(38.75 274.6)" d="M-0.6015625 -3.2998047Q-1.8671875 -1.3662109 -2.3886719 -0.27050781Q-2.9101562 0.82519531 -3.1708984 1.8916016Q-3.4316406 2.9580078 -3.4316406 4.1005859L-4.5332031 4.1005859Q-4.5332031 2.5185547 -3.8623047 0.76953125Q-3.1914062 -0.97949219 -1.6210938 -3.2587891L-6.0566406 -3.2587891L-6.0566406 -4.1552734L-0.6015625 -4.1552734L-0.6015625 -3.2998047Z"/>
	</g>
	<clipPath id="cl_452">
		<rect width="49.75" height="800"/>
	</clipPath>
	<g clip-path="url(#cl_452)">
		<path fill="#666" transform="translate(38.75 206.8)" d="M-0.51953125 1.7978516Q-0.51953125 2.9404297 -1.2460938 3.5791016Q-1.9726562 4.2177734 -3.3320312 4.2177734Q-4.65625 4.2177734 -5.4033203 3.5908203Q-6.1503906 2.9638672 -6.1503906 1.8095703Q-6.1503906 1.0009766 -5.6875 0.45019531Q-5.2246094 -0.10058594 -4.5039062 -0.21777344L-4.5039062 -0.24121094Q-5.1777344 -0.39941406 -5.5673828 -0.92675781Q-5.9570312 -1.4541016 -5.9570312 -2.1630859Q-5.9570312 -3.1064453 -5.2509766 -3.6923828Q-4.5449219 -4.2783203 -3.3554688 -4.2783203Q-2.1367188 -4.2783203 -1.4306641 -3.7041016Q-0.72460938 -3.1298828 -0.72460938 -2.1513672Q-0.72460938 -1.4423828 -1.1171875 -0.91503906Q-1.5097656 -0.38769531 -2.1894531 -0.25292969L-2.1894531 -0.22949219Q-1.3984375 -0.10058594 -0.95898438 0.44140625Q-0.51953125 0.98339844 -0.51953125 1.7978516ZM-1.8203125 -2.0927734Q-1.8203125 -3.4931641 -3.3554688 -3.4931641Q-4.0996094 -3.4931641 -4.4892578 -3.1416016Q-4.8789062 -2.7900391 -4.8789062 -2.0927734Q-4.8789062 -1.3837891 -4.4775391 -1.0117188Q-4.0761719 -0.63964844 -3.34375 -0.63964844Q-2.5996094 -0.63964844 -2.2099609 -0.98242188Q-1.8203125 -1.3251953 -1.8203125 -2.0927734ZM-1.6152344 1.6982422Q-1.6152344 0.93066406 -2.0722656 0.54101562Q-2.5292969 0.15136719 -3.3554688 0.15136719Q-4.1582031 0.15136719 -4.609375 0.5703125Q-5.0605469 0.98925781 -5.0605469 1.7216797Q-5.0605469 3.4267578 -3.3203125 3.4267578Q-2.4589844 3.4267578 -2.0371094 3.0136719Q-1.6152344 2.6005859 -1.6152344 1.6982422Z"/>
	</g>
	<clipPath id="cl_453">
		<rect width="49.75" height="800"/>
	</clipPath>
	<g clip-path="url(#cl_453)">
		<path fill="#666" transform="translate(38.75 139)" d="M-0.56640625 -0.19433594Q-0.56640625 1.9326172 -1.3427734 3.0751953Q-2.1191406 4.2177734 -3.5546875 4.2177734Q-4.5214844 4.2177734 -5.1044922 3.8105469Q-5.6875 3.4033203 -5.9394531 2.4951172L-4.9316406 2.3369141Q-4.6152344 3.3681641 -3.5371094 3.3681641Q-2.6289062 3.3681641 -2.1308594 2.5244141Q-1.6328125 1.6806641 -1.609375 0.11621094Q-1.84375 0.64355469 -2.4121094 0.96289062Q-2.9804688 1.2822266 -3.6601562 1.2822266Q-4.7734375 1.2822266 -5.4414062 0.52050781Q-6.109375 -0.24121094 -6.109375 -1.5009766Q-6.109375 -2.7958984 -5.3828125 -3.5371094Q-4.65625 -4.2783203 -3.3613281 -4.2783203Q-1.984375 -4.2783203 -1.2753906 -3.2587891Q-0.56640625 -2.2392578 -0.56640625 -0.19433594ZM-1.7148438 -1.2138672Q-1.7148438 -2.2099609 -2.171875 -2.8164062Q-2.6289062 -3.4228516 -3.3964844 -3.4228516Q-4.1582031 -3.4228516 -4.5976562 -2.9042969Q-5.0371094 -2.3857422 -5.0371094 -1.5009766Q-5.0371094 -0.59863281 -4.5976562 -0.07421875Q-4.1582031 0.45019531 -3.4082031 0.45019531Q-2.9511719 0.45019531 -2.5585938 0.2421875Q-2.1660156 0.034179688 -1.9404297 -0.34667969Q-1.7148438 -0.72753906 -1.7148438 -1.2138672Z"/>
	</g>
	<clipPath id="cl_454">
		<rect width="49.75" height="800"/>
	</clipPath>
	<g clip-path="url(#cl_454)">
		<path fill="#666" transform="translate(38.75 71.2)" d="M-12.429688 4.1005859L-12.429688 3.2041016L-10.326172 3.2041016L-10.326172 -3.1474609L-12.189453 -1.8173828L-12.189453 -2.8134766L-10.238281 -4.1552734L-9.265625 -4.1552734L-9.265625 3.2041016L-7.2558594 3.2041016L-7.2558594 4.1005859L-12.429688 4.1005859ZM-0.46484375 -0.030273438Q-0.46484375 2.0380859 -1.1943359 3.1279297Q-1.9238281 4.2177734 -3.3476562 4.2177734Q-4.7714844 4.2177734 -5.4863281 3.1337891Q-6.2011719 2.0498047 -6.2011719 -0.030273438Q-6.2011719 -2.1572266 -5.5068359 -3.2177734Q-4.8125 -4.2783203 -3.3125 -4.2783203Q-1.8535156 -4.2783203 -1.1591797 -3.2060547Q-0.46484375 -2.1337891 -0.46484375 -0.030273438ZM-1.5371094 -0.030273438Q-1.5371094 -1.8173828 -1.9501953 -2.6201172Q-2.3632812 -3.4228516 -3.3125 -3.4228516Q-4.2851562 -3.4228516 -4.7099609 -2.6318359Q-5.1347656 -1.8408203 -5.1347656 -0.030273438Q-5.1347656 1.7275391 -4.7041016 2.5419922Q-4.2734375 3.3564453 -3.3359375 3.3564453Q-2.4042969 3.3564453 -1.9707031 2.5244141Q-1.5371094 1.6923828 -1.5371094 -0.030273438Z"/>
	</g>
	<clipPath id="cl_456">
		<rect x="43.75" y="65.199997" width="1156.25" height="690"/>
	</clipPath>
	<g clip-path="url(#cl_456)">
		<path fill="none" stroke="#C32222" stroke-width="2" stroke-miterlimit="10" d=""/>
	</g>
	<clipPath id="cl_457">
		<rect x="43.75" y="65.199997" width="1156.25" height="690"/>
	</clipPath>
	<g clip-path="url(#cl_457)">
		<path fill="#C32222" fill-opacity="0.2" d="M52.75 681.40002Q52.75 681.54742 52.73555 681.69409Q52.721107 681.84076 52.692352 681.98529Q52.663601 682.12988 52.620815 682.27087Q52.578033 682.41187 52.521633 682.54803Q52.465233 682.68427 52.39576 682.81427Q52.326286 682.94421 52.244404 683.06671Q52.162525 683.18927 52.069027 683.30316Q51.975533 683.41711 51.871319 683.5213Q51.767105 683.62555 51.653179 683.71906Q51.539253 683.81256 51.416706 683.89441Q51.294167 683.97632 51.164188 684.04578Q51.03421 684.11523 50.898048 684.17163Q50.76189 684.22803 50.620857 684.27087Q50.47982 684.3136 50.33527 684.34235Q50.19072 684.37115 50.044052 684.38562Q49.897381 684.40002 49.75 684.40002Q49.602619 684.40002 49.455948 684.38562Q49.309277 684.37115 49.164726 684.34235Q49.02018 684.3136 48.879143 684.27087Q48.73811 684.22803 48.601944 684.17163Q48.465782 684.11523 48.335808 684.04578Q48.205826 683.97632 48.083282 683.89435Q47.960747 683.8125 47.846817 683.71899Q47.732895 683.62555 47.628677 683.5213Q47.524467 683.41711 47.430969 683.30322Q47.337471 683.18927 47.255585 683.06671Q47.173706 682.94421 47.104233 682.81421Q47.03476 682.68427 46.978359 682.54803Q46.921963 682.41187 46.879177 682.27087Q46.836395 682.12988 46.80764 681.98529Q46.778893 681.84076 46.76445 681.69409Q46.75 681.54742 46.75 681.40002Q46.75 681.25269 46.76445 681.10596Q46.778896 680.95923 46.807648 680.8147Q46.836403 680.67017 46.879181 680.52917Q46.921963 680.38812 46.978359 680.25195Q47.03476 680.11584 47.104233 679.98584Q47.173706 679.85583 47.255585 679.73328Q47.337471 679.61072 47.430969 679.49683Q47.524467 679.38293 47.628677 679.27869Q47.732895 679.1745 47.846817 679.08099Q47.960747 678.98749 48.083282 678.90558Q48.205826 678.82373 48.335808 678.75427Q48.465782 678.68481 48.601944 678.62836Q48.73811 678.57202 48.879143 678.52917Q49.02018 678.48645 49.164726 678.45764Q49.309277 678.42896 49.455948 678.41449Q49.602619 678.40002 49.75 678.40002Q49.897381 678.40002 50.044052 678.41449Q50.19072 678.42896 50.335266 678.45764Q50.479816 678.48645 50.620853 678.52917Q50.761887 678.57202 50.898045 678.62836Q51.03421 678.68481 51.164188 678.75427Q51.294167 678.82373 51.416706 678.90558Q51.539253 678.98749 51.653179 679.08099Q51.767105 679.1745 51.871315 679.27869Q51.975533 679.38293 52.069023 679.49683Q52.162521 679.61072 52.2444 679.73328Q52.326279 679.85583 52.395756 679.98584Q52.465233 680.11584 52.521633 680.25195Q52.578033 680.38812 52.620815 680.52911Q52.663597 680.67017 52.692348 680.8147Q52.721107 680.95923 52.73555 681.10596Q52.75 681.25269 52.75 681.40002Z"/>
		<path fill="none" stroke="#C32222" stroke-width="2" stroke-miterlimit="10" d="M52.75 681.40002Q52.75 681.54742 52.73555 681.69409Q52.721107 681.84076 52.692352 681.98529Q52.663601 682.12988 52.620815 682.27087Q52.578033 682.41187 52.521633 682.54803Q52.465233 682.68427 52.39576 682.81427Q52.326286 682.94421 52.244404 683.06671Q52.162525 683.18927 52.069027 683.30316Q51.975533 683.41711 51.871319 683.5213Q51.767105 683.62555 51.653179 683.71906Q51.539253 683.81256 51.416706 683.89441Q51.294167 683.97632 51.164188 684.04578Q51.03421 684.11523 50.898048 684.17163Q50.76189 684.22803 50.620857 684.27087Q50.47982 684.3136 50.33527 684.34235Q50.19072 684.37115 50.044052 684.38562Q49.897381 684.40002 49.75 684.40002Q49.602619 684.40002 49.455948 684.38562Q49.309277 684.37115 49.164726 684.34235Q49.02018 684.3136 48.879143 684.27087Q48.73811 684.22803 48.601944 684.17163Q48.465782 684.11523 48.335808 684.04578Q48.205826 683.97632 48.083282 683.89435Q47.960747 683.8125 47.846817 683.71899Q47.732895 683.62555 47.628677 683.5213Q47.524467 683.41711 47.430969 683.30322Q47.337471 683.18927 47.255585 683.06671Q47.173706 682.94421 47.104233 682.81421Q47.03476 682.68427 46.978359 682.54803Q46.921963 682.41187 46.879177 682.27087Q46.836395 682.12988 46.80764 681.98529Q46.778893 681.84076 46.76445 681.69409Q46.75 681.54742 46.75 681.40002Q46.75 681.25269 46.76445 681.10596Q46.778896 680.95923 46.807648 680.8147Q46.836403 680.67017 46.879181 680.52917Q46.921963 680.38812 46.978359 680.25195Q47.03476 680.11584 47.104233 679.98584Q47.173706 679.85583 47.255585 679.73328Q47.337471 679.61072 47.430969 679.49683Q47.524467 679.38293 47.628677 679.27869Q47.732895 679.1745 47.846817 679.08099Q47.960747 678.98749 48.083282 678.90558Q48.205826 678.82373 48.335808 678.75427Q48.465782 678.68481 48.601944 678.62836Q48.73811 678.57202 48.879143 678.52917Q49.02018 678.48645 49.164726 678.45764Q49.309277 678.42896 49.455948 678.41449Q49.602619 678.40002 49.75 678.40002Q49.897381 678.40002 50.044052 678.41449Q50.19072 678.42896 50.335266 678.45764Q50.479816 678.48645 50.620853 678.52917Q50.761887 678.57202 50.898045 678.62836Q51.03421 678.68481 51.164188 678.75427Q51.294167 678.82373 51.416706 678.90558Q51.539253 678.98749 51.653179 679.08099Q51.767105 679.1745 51.871315 679.27869Q51.975533 679.38293 52.069023 679.49683Q52.162521 679.61072 52.2444 679.73328Q52.326279 679.85583 52.395756 679.98584Q52.465233 680.11584 52.521633 680.25195Q52.578033 680.38812 52.620815 680.52911Q52.663597 680.67017 52.692348 680.8147Q52.721107 680.95923 52.73555 681.10596Q52.75 681.25269 52.75 681.40002Z"/>
	</g>
</svg>
