<?xml version="1.0" encoding="utf-8" ?>
<svg xmlns="http://www.w3.org/2000/svg" xmlns:xlink="http://www.w3.org/1999/xlink" width="1200" height="800">
	<rect fill="white" width="1200" height="800"/>
	<path fill="none" stroke="black" stroke-width="1" stroke-miterlimit="10" stroke-opacity="0.10196079" d="M49.5 71.199997L49.5 749"/>
	<path fill="none" stroke="black" stroke-width="1" stroke-miterlimit="10" stroke-opacity="0.10196079" d="M49.5 750L49.5 757.20001"/>
	<path fill="#666" transform="translate(621.875 788.8)" d="M-26.550781 4.1005859L-28.695312 0.67285156L-31.267578 0.67285156L-31.267578 4.1005859L-32.386719 4.1005859L-32.386719 -4.1552734L-28.501953 -4.1552734Q-27.107422 -4.1552734 -26.348633 -3.53125Q-25.589844 -2.9072266 -25.589844 -1.7939453Q-25.589844 -0.87402344 -26.125977 -0.24707031Q-26.662109 0.37988281 -27.605469 0.54394531L-25.261719 4.1005859L-26.550781 4.1005859ZM-26.714844 -1.7822266Q-26.714844 -2.5029297 -27.204102 -2.8808594Q-27.693359 -3.2587891 -28.613281 -3.2587891L-31.267578 -3.2587891L-31.267578 -0.21191406L-28.566406 -0.21191406Q-27.681641 -0.21191406 -27.198242 -0.625Q-26.714844 -1.0380859 -26.714844 -1.7822266ZM-23.087891 1.1533203Q-23.087891 2.2431641 -22.636719 2.8349609Q-22.185547 3.4267578 -21.318359 3.4267578Q-20.632812 3.4267578 -20.219727 3.1513672Q-19.806641 2.8759766 -19.660156 2.4541016L-18.734375 2.7177734Q-19.302734 4.2177734 -21.318359 4.2177734Q-22.724609 4.2177734 -23.459961 3.3798828Q-24.195312 2.5419922 -24.195312 0.88964844Q-24.195312 -0.68066406 -23.459961 -1.5185547Q-22.724609 -2.3564453 -21.359375 -2.3564453Q-18.564453 -2.3564453 -18.564453 1.0126953L-18.564453 1.1533203L-23.087891 1.1533203ZM-19.654297 0.34472656Q-19.742188 -0.65722656 -20.164062 -1.1171875Q-20.585938 -1.5771484 -21.376953 -1.5771484Q-22.144531 -1.5771484 -22.592773 -1.0644531Q-23.041016 -0.55175781 -23.076172 0.34472656L-19.654297 0.34472656ZM-17.222656 4.1005859L-17.222656 -4.5947266L-16.167969 -4.5947266L-16.167969 4.1005859L-17.222656 4.1005859ZM-13.748047 1.1533203Q-13.748047 2.2431641 -13.296875 2.8349609Q-12.845703 3.4267578 -11.978516 3.4267578Q-11.292969 3.4267578 -10.879883 3.1513672Q-10.466797 2.8759766 -10.320312 2.4541016L-9.3945312 2.7177734Q-9.9628906 4.2177734 -11.978516 4.2177734Q-13.384766 4.2177734 -14.120117 3.3798828Q-14.855469 2.5419922 -14.855469 0.88964844Q-14.855469 -0.68066406 -14.120117 -1.5185547Q-13.384766 -2.3564453 -12.019531 -2.3564453Q-9.2246094 -2.3564453 -9.2246094 1.0126953L-9.2246094 1.1533203L-13.748047 1.1533203ZM-10.314453 0.34472656Q-10.402344 -0.65722656 -10.824219 -1.1171875Q-11.246094 -1.5771484 -12.037109 -1.5771484Q-12.804688 -1.5771484 -13.25293 -1.0644531Q-13.701172 -0.55175781 -13.736328 0.34472656L-10.314453 0.34472656ZM-6.265625 4.2177734Q-7.2207031 4.2177734 -7.7011719 3.7138672Q-8.1816406 3.2099609 -8.1816406 2.3310547Q-8.1816406 1.3466797 -7.5341797 0.81933594Q-6.8867188 0.29199219 -5.4453125 0.25683594L-4.0214844 0.23339844L-4.0214844 -0.11230469Q-4.0214844 -0.88574219 -4.3496094 -1.2197266Q-4.6777344 -1.5537109 -5.3808594 -1.5537109Q-6.0898438 -1.5537109 -6.4121094 -1.3134766Q-6.734375 -1.0732422 -6.7988281 -0.54589844L-7.9003906 -0.64550781Q-7.6308594 -2.3564453 -5.3574219 -2.3564453Q-4.1621094 -2.3564453 -3.5585938 -1.8085938Q-2.9550781 -1.2607422 -2.9550781 -0.22363281L-2.9550781 2.5068359Q-2.9550781 2.9755859 -2.8320312 3.2128906Q-2.7089844 3.4501953 -2.3632812 3.4501953Q-2.2109375 3.4501953 -2.0175781 3.4091797L-2.0175781 4.0654297Q-2.4160156 4.1591797 -2.8320312 4.1591797Q-3.4179688 4.1591797 -3.6845703 3.8515625Q-3.9511719 3.5439453 -3.9863281 2.8876953L-4.0214844 2.8876953Q-4.4257812 3.6142578 -4.9619141 3.9160156Q-5.4980469 4.2177734 -6.265625 4.2177734ZM-6.0253906 3.4267578Q-5.4453125 3.4267578 -4.9941406 3.1630859Q-4.5429688 2.8994141 -4.2822266 2.4394531Q-4.0214844 1.9794922 -4.0214844 1.4931641L-4.0214844 0.97167969L-5.1757812 0.99511719Q-5.9199219 1.0068359 -6.3037109 1.1474609Q-6.6875 1.2880859 -6.8925781 1.5810547Q-7.0976562 1.8740234 -7.0976562 2.3486328Q-7.0976562 2.8642578 -6.8193359 3.1455078Q-6.5410156 3.4267578 -6.0253906 3.4267578ZM3.5488281 2.3486328Q3.5488281 3.2451172 2.8720703 3.7314453Q2.1953125 4.2177734 0.9765625 4.2177734Q-0.20703125 4.2177734 -0.84863281 3.828125Q-1.4902344 3.4384766 -1.6835938 2.6123047L-0.75195312 2.4306641Q-0.6171875 2.9404297 -0.1953125 3.1777344Q0.2265625 3.4150391 0.9765625 3.4150391Q1.7792969 3.4150391 2.1513672 3.1689453Q2.5234375 2.9228516 2.5234375 2.4306641Q2.5234375 2.0556641 2.265625 1.8212891Q2.0078125 1.5869141 1.4335938 1.4345703L0.67773438 1.2353516Q-0.23046875 1.0009766 -0.61425781 0.77539062Q-0.99804688 0.54980469 -1.2148438 0.22753906Q-1.4316406 -0.094726562 -1.4316406 -0.56347656Q-1.4316406 -1.4306641 -0.81347656 -1.8847656Q-0.1953125 -2.3388672 0.98828125 -2.3388672Q2.0371094 -2.3388672 2.6552734 -1.9697266Q3.2734375 -1.6005859 3.4375 -0.78613281L2.4882812 -0.66894531Q2.4003906 -1.0908203 2.0166016 -1.3164062Q1.6328125 -1.5419922 0.98828125 -1.5419922Q0.2734375 -1.5419922 -0.06640625 -1.3251953Q-0.40625 -1.1083984 -0.40625 -0.66894531Q-0.40625 -0.39941406 -0.265625 -0.22363281Q-0.125 -0.047851562 0.15039062 0.075195312Q0.42578125 0.19824219 1.3105469 0.41503906Q2.1484375 0.62597656 2.5175781 0.8046875Q2.8867188 0.98339844 3.1005859 1.2001953Q3.3144531 1.4169922 3.4316406 1.7011719Q3.5488281 1.9853516 3.5488281 2.3486328ZM5.5996094 1.1533203Q5.5996094 2.2431641 6.0507812 2.8349609Q6.5019531 3.4267578 7.3691406 3.4267578Q8.0546875 3.4267578 8.4677734 3.1513672Q8.8808594 2.8759766 9.0273438 2.4541016L9.953125 2.7177734Q9.3847656 4.2177734 7.3691406 4.2177734Q5.9628906 4.2177734 5.2275391 3.3798828Q4.4921875 2.5419922 4.4921875 0.88964844Q4.4921875 -0.68066406 5.2275391 -1.5185547Q5.9628906 -2.3564453 7.328125 -2.3564453Q10.123047 -2.3564453 10.123047 1.0126953L10.123047 1.1533203L5.5996094 1.1533203ZM9.0332031 0.34472656Q8.9453125 -0.65722656 8.5234375 -1.1171875Q8.1015625 -1.5771484 7.3105469 -1.5771484Q6.5429688 -1.5771484 6.0947266 -1.0644531Q5.6464844 -0.55175781 5.6113281 0.34472656L9.0332031 0.34472656ZM17.992188 -3.2412109L17.992188 4.1005859L16.878906 4.1005859L16.878906 -3.2412109L14.042969 -3.2412109L14.042969 -4.1552734L20.828125 -4.1552734L20.828125 -3.2412109L17.992188 -3.2412109ZM22.199219 4.2177734Q21.244141 4.2177734 20.763672 3.7138672Q20.283203 3.2099609 20.283203 2.3310547Q20.283203 1.3466797 20.930664 0.81933594Q21.578125 0.29199219 23.019531 0.25683594L24.443359 0.23339844L24.443359 -0.11230469Q24.443359 -0.88574219 24.115234 -1.2197266Q23.787109 -1.5537109 23.083984 -1.5537109Q22.375 -1.5537109 22.052734 -1.3134766Q21.730469 -1.0732422 21.666016 -0.54589844L20.564453 -0.64550781Q20.833984 -2.3564453 23.107422 -2.3564453Q24.302734 -2.3564453 24.90625 -1.8085938Q25.509766 -1.2607422 25.509766 -0.22363281L25.509766 2.5068359Q25.509766 2.9755859 25.632812 3.2128906Q25.755859 3.4501953 26.101562 3.4501953Q26.253906 3.4501953 26.447266 3.4091797L26.447266 4.0654297Q26.048828 4.1591797 25.632812 4.1591797Q25.046875 4.1591797 24.780273 3.8515625Q24.513672 3.5439453 24.478516 2.8876953L24.443359 2.8876953Q24.039062 3.6142578 23.50293 3.9160156Q22.966797 4.2177734 22.199219 4.2177734ZM22.439453 3.4267578Q23.019531 3.4267578 23.470703 3.1630859Q23.921875 2.8994141 24.182617 2.4394531Q24.443359 1.9794922 24.443359 1.4931641L24.443359 0.97167969L23.289062 0.99511719Q22.544922 1.0068359 22.161133 1.1474609Q21.777344 1.2880859 21.572266 1.5810547Q21.367188 1.8740234 21.367188 2.3486328Q21.367188 2.8642578 21.645508 3.1455078Q21.923828 3.4267578 22.439453 3.4267578ZM29.658203 6.5908203Q28.621094 6.5908203 28.005859 6.1835938Q27.390625 5.7763672 27.214844 5.0263672L28.275391 4.8740234Q28.380859 5.3134766 28.741211 5.5507812Q29.101562 5.7880859 29.6875 5.7880859Q31.263672 5.7880859 31.263672 3.9423828L31.263672 2.9228516L31.251953 2.9228516Q30.953125 3.5322266 30.431641 3.8398438Q29.910156 4.1474609 29.212891 4.1474609Q28.046875 4.1474609 27.499023 3.3740234Q26.951172 2.6005859 26.951172 0.94238281Q26.951172 -0.73925781 27.540039 -1.5390625Q28.128906 -2.3388672 29.330078 -2.3388672Q30.003906 -2.3388672 30.499023 -2.03125Q30.994141 -1.7236328 31.263672 -1.1552734L31.275391 -1.1552734Q31.275391 -1.3310547 31.298828 -1.7646484Q31.322266 -2.1982422 31.345703 -2.2392578L32.347656 -2.2392578Q32.3125 -1.9228516 32.3125 -0.92675781L32.3125 3.9189453Q32.3125 6.5908203 29.658203 6.5908203ZM31.263672 0.93066406Q31.263672 0.15722656 31.052734 -0.40234375Q30.841797 -0.96191406 30.458008 -1.2578125Q30.074219 -1.5537109 29.587891 -1.5537109Q28.779297 -1.5537109 28.410156 -0.96777344Q28.041016 -0.38183594 28.041016 0.93066406Q28.041016 2.2314453 28.386719 2.7998047Q28.732422 3.3681641 29.570312 3.3681641Q30.068359 3.3681641 30.455078 3.0751953Q30.841797 2.7822266 31.052734 2.234375Q31.263672 1.6865234 31.263672 0.93066406Z"/>
	<path fill="none" stroke="black" stroke-width="1" stroke-miterlimit="10" stroke-opacity="0.10196079" d="M50 749.5L1194 749.5"/>
	<path fill="none" stroke="black" stroke-width="1" stroke-miterlimit="10" stroke-opacity="0.10196079" d="M41.75 749.5L49 749.5"/>
	<path fill="none" stroke="black" stroke-width="1" stroke-miterlimit="10" stroke-opacity="0.10196079" d="M50 681.5L1194 681.5"/>
	<path fill="none" stroke="black" stroke-width="1" stroke-miterlimit="10" stroke-opacity="0.10196079" d="M41.75 681.5L49 681.5"/>
	<path fill="none" stroke="black" stroke-width="1" stroke-miterlimit="10" stroke-opacity="0.10196079" d="M50 613.5L1194 613.5"/>
	<path fill="none" stroke="black" stroke-width="1" stroke-miterlimit="10" stroke-opacity="0.10196079" d="M41.75 613.5L49 613.5"/>
	<path fill="none" stroke="black" stroke-width="1" stroke-miterlimit="10" stroke-opacity="0.10196079" d="M50 545.5L1194 545.5"/>
	<path fill="none" stroke="black" stroke-width="1" stroke-miterlimit="10" stroke-opacity="0.10196079" d="M41.75 545.5L49 545.5"/>
	<path fill="none" stroke="black" stroke-width="1" stroke-miterlimit="10" stroke-opacity="0.10196079" d="M50 478.5L1194 478.5"/>
	<path fill="none" stroke="black" stroke-width="1" stroke-miterlimit="10" stroke-opacity="0.10196079" d="M41.75 478.5L49 478.5"/>
	<path fill="none" stroke="black" stroke-width="1" stroke-miterlimit="10" stroke-opacity="0.10196079" d="M50 410.5L1194 410.5"/>
	<path fill="none" stroke="black" stroke-width="1" stroke-miterlimit="10" stroke-opacity="0.10196079" d="M41.75 410.5L49 410.5"/>
	<path fill="none" stroke="black" stroke-width="1" stroke-miterlimit="10" stroke-opacity="0.10196079" d="M50 342.5L1194 342.5"/>
	<path fill="none" stroke="black" stroke-width="1" stroke-miterlimit="10" stroke-opacity="0.10196079" d="M41.75 342.5L49 342.5"/>
	<path fill="none" stroke="black" stroke-width="1" stroke-miterlimit="10" stroke-opacity="0.10196079" d="M50 274.5L1194 274.5"/>
	<path fill="none" stroke="black" stroke-width="1" stroke-miterlimit="10" stroke-opacity="0.10196079" d="M41.75 274.5L49 274.5"/>
	<path fill="none" stroke="black" stroke-width="1" stroke-miterlimit="10" stroke-opacity="0.10196079" d="M50 206.5L1194 206.5"/>
	<path fill="none" stroke="black" stroke-width="1" stroke-miterlimit="10" stroke-opacity="0.10196079" d="M41.75 206.5L49 206.5"/>
	<path fill="none" stroke="black" stroke-width="1" stroke-miterlimit="10" stroke-opacity="0.10196079" d="M50 139.5L1194 139.5"/>
	<path fill="none" stroke="black" stroke-width="1" stroke-miterlimit="10" stroke-opacity="0.10196079" d="M41.75 139.5L49 139.5"/>
	<path fill="none" stroke="black" stroke-width="1" stroke-miterlimit="10" stroke-opacity="0.10196079" d="M50 71.5L1194 71.5"/>
	<path fill="none" stroke="black" stroke-width="1" stroke-miterlimit="10" stroke-opacity="0.10196079" d="M41.75 71.5L49 71.5"/>
	<path fill="#666" transform="matrix(0 -1 1 0 11.2 410.2)" d="M-21.591797 -0.11230469Q-21.591797 1.1650391 -22.089844 2.1230469Q-22.587891 3.0810547 -23.501953 3.5908203Q-24.416016 4.1005859 -25.611328 4.1005859L-28.699219 4.1005859L-28.699219 -4.1552734L-25.96875 -4.1552734Q-23.871094 -4.1552734 -22.731445 -3.1035156Q-21.591797 -2.0517578 -21.591797 -0.11230469ZM-22.716797 -0.11230469Q-22.716797 -1.6474609 -23.557617 -2.453125Q-24.398438 -3.2587891 -25.992188 -3.2587891L-27.580078 -3.2587891L-27.580078 3.2041016L-25.740234 3.2041016Q-24.832031 3.2041016 -24.143555 2.8056641Q-23.455078 2.4072266 -23.085938 1.6572266Q-22.716797 0.90722656 -22.716797 -0.11230469ZM-14.847656 0.92480469Q-14.847656 2.5888672 -15.580078 3.4033203Q-16.3125 4.2177734 -17.707031 4.2177734Q-19.095703 4.2177734 -19.804688 3.3710938Q-20.513672 2.5244141 -20.513672 0.92480469Q-20.513672 -2.3564453 -17.671875 -2.3564453Q-16.21875 -2.3564453 -15.533203 -1.5566406Q-14.847656 -0.75683594 -14.847656 0.92480469ZM-15.955078 0.92480469Q-15.955078 -0.38769531 -16.344727 -0.98242188Q-16.734375 -1.5771484 -17.654297 -1.5771484Q-18.580078 -1.5771484 -18.993164 -0.97070312Q-19.40625 -0.36425781 -19.40625 0.92480469Q-19.40625 2.1787109 -18.999023 2.8085938Q-18.591797 3.4384766 -17.71875 3.4384766Q-16.769531 3.4384766 -16.362305 2.8291016Q-15.955078 2.2197266 -15.955078 0.92480469ZM-7.4648438 4.1005859L-8.6894531 4.1005859L-9.796875 -0.38183594L-10.007812 -1.3720703Q-10.060547 -1.1083984 -10.171875 -0.61328125Q-10.283203 -0.11816406 -11.367188 4.1005859L-12.585938 4.1005859L-14.361328 -2.2392578L-13.318359 -2.2392578L-12.246094 2.0673828Q-12.205078 2.2080078 -11.994141 3.2275391L-11.894531 2.7939453L-10.570312 -2.2392578L-9.4394531 -2.2392578L-8.3320312 2.1142578L-8.0625 3.2275391L-7.8808594 2.4130859L-6.6796875 -2.2392578L-5.6484375 -2.2392578L-7.4648438 4.1005859ZM-0.84375 4.1005859L-0.84375 0.081054688Q-0.84375 -0.54589844 -0.96679688 -0.89160156Q-1.0898438 -1.2373047 -1.359375 -1.3896484Q-1.6289062 -1.5419922 -2.1503906 -1.5419922Q-2.9121094 -1.5419922 -3.3515625 -1.0205078Q-3.7910156 -0.49902344 -3.7910156 0.42675781L-3.7910156 4.1005859L-4.8457031 4.1005859L-4.8457031 -0.88574219Q-4.8457031 -1.9931641 -4.8808594 -2.2392578L-3.8847656 -2.2392578Q-3.8789062 -2.2099609 -3.8730469 -2.0810547Q-3.8671875 -1.9521484 -3.8583984 -1.7851562Q-3.8496094 -1.6181641 -3.8378906 -1.1552734L-3.8203125 -1.1552734Q-3.4570312 -1.8115234 -2.9794922 -2.0839844Q-2.5019531 -2.3564453 -1.7929688 -2.3564453Q-0.75 -2.3564453 -0.26660156 -1.8378906Q0.21679688 -1.3193359 0.21679688 -0.12402344L0.21679688 4.1005859L-0.84375 4.1005859ZM1.8046875 4.1005859L1.8046875 -4.5947266L2.859375 -4.5947266L2.859375 4.1005859L1.8046875 4.1005859ZM9.8320312 0.92480469Q9.8320312 2.5888672 9.0996094 3.4033203Q8.3671875 4.2177734 6.9726562 4.2177734Q5.5839844 4.2177734 4.875 3.3710938Q4.1660156 2.5244141 4.1660156 0.92480469Q4.1660156 -2.3564453 7.0078125 -2.3564453Q8.4609375 -2.3564453 9.1464844 -1.5566406Q9.8320312 -0.75683594 9.8320312 0.92480469ZM8.7246094 0.92480469Q8.7246094 -0.38769531 8.3349609 -0.98242188Q7.9453125 -1.5771484 7.0253906 -1.5771484Q6.0996094 -1.5771484 5.6865234 -0.97070312Q5.2734375 -0.36425781 5.2734375 0.92480469Q5.2734375 2.1787109 5.6806641 2.8085938Q6.0878906 3.4384766 6.9609375 3.4384766Q7.9101562 3.4384766 8.3173828 2.8291016Q8.7246094 2.2197266 8.7246094 0.92480469ZM12.761719 4.2177734Q11.806641 4.2177734 11.326172 3.7138672Q10.845703 3.2099609 10.845703 2.3310547Q10.845703 1.3466797 11.493164 0.81933594Q12.140625 0.29199219 13.582031 0.25683594L15.005859 0.23339844L15.005859 -0.11230469Q15.005859 -0.88574219 14.677734 -1.2197266Q14.349609 -1.5537109 13.646484 -1.5537109Q12.9375 -1.5537109 12.615234 -1.3134766Q12.292969 -1.0732422 12.228516 -0.54589844L11.126953 -0.64550781Q11.396484 -2.3564453 13.669922 -2.3564453Q14.865234 -2.3564453 15.46875 -1.8085938Q16.072266 -1.2607422 16.072266 -0.22363281L16.072266 2.5068359Q16.072266 2.9755859 16.195312 3.2128906Q16.318359 3.4501953 16.664062 3.4501953Q16.816406 3.4501953 17.009766 3.4091797L17.009766 4.0654297Q16.611328 4.1591797 16.195312 4.1591797Q15.609375 4.1591797 15.342773 3.8515625Q15.076172 3.5439453 15.041016 2.8876953L15.005859 2.8876953Q14.601562 3.6142578 14.06543 3.9160156Q13.529297 4.2177734 12.761719 4.2177734ZM13.001953 3.4267578Q13.582031 3.4267578 14.033203 3.1630859Q14.484375 2.8994141 14.745117 2.4394531Q15.005859 1.9794922 15.005859 1.4931641L15.005859 0.97167969L13.851562 0.99511719Q13.107422 1.0068359 12.723633 1.1474609Q12.339844 1.2880859 12.134766 1.5810547Q11.929688 1.8740234 11.929688 2.3486328Q11.929688 2.8642578 12.208008 3.1455078Q12.486328 3.4267578 13.001953 3.4267578ZM21.820312 3.0810547Q21.527344 3.6904297 21.043945 3.9541016Q20.560547 4.2177734 19.845703 4.2177734Q18.644531 4.2177734 18.079102 3.4091797Q17.513672 2.6005859 17.513672 0.95996094Q17.513672 -2.3564453 19.845703 -2.3564453Q20.566406 -2.3564453 21.046875 -2.0927734Q21.527344 -1.8291016 21.820312 -1.2548828L21.832031 -1.2548828L21.820312 -1.9638672L21.820312 -4.5947266L22.875 -4.5947266L22.875 2.7939453Q22.875 3.7841797 22.910156 4.1005859L21.902344 4.1005859Q21.884766 4.0068359 21.864258 3.6669922Q21.84375 3.3271484 21.84375 3.0810547L21.820312 3.0810547ZM18.621094 0.92480469Q18.621094 2.2548828 18.972656 2.8291016Q19.324219 3.4033203 20.115234 3.4033203Q21.011719 3.4033203 21.416016 2.7822266Q21.820312 2.1611328 21.820312 0.85449219Q21.820312 -0.40527344 21.416016 -0.99121094Q21.011719 -1.5771484 20.126953 -1.5771484Q19.330078 -1.5771484 18.975586 -0.98828125Q18.621094 -0.39941406 18.621094 0.92480469ZM29.25 2.3486328Q29.25 3.2451172 28.573242 3.7314453Q27.896484 4.2177734 26.677734 4.2177734Q25.494141 4.2177734 24.852539 3.828125Q24.210938 3.4384766 24.017578 2.6123047L24.949219 2.4306641Q25.083984 2.9404297 25.505859 3.1777344Q25.927734 3.4150391 26.677734 3.4150391Q27.480469 3.4150391 27.852539 3.1689453Q28.224609 2.9228516 28.224609 2.4306641Q28.224609 2.0556641 27.966797 1.8212891Q27.708984 1.5869141 27.134766 1.4345703L26.378906 1.2353516Q25.470703 1.0009766 25.086914 0.77539062Q24.703125 0.54980469 24.486328 0.22753906Q24.269531 -0.094726562 24.269531 -0.56347656Q24.269531 -1.4306641 24.887695 -1.8847656Q25.505859 -2.3388672 26.689453 -2.3388672Q27.738281 -2.3388672 28.356445 -1.9697266Q28.974609 -1.6005859 29.138672 -0.78613281L28.189453 -0.66894531Q28.101562 -1.0908203 27.717773 -1.3164062Q27.333984 -1.5419922 26.689453 -1.5419922Q25.974609 -1.5419922 25.634766 -1.3251953Q25.294922 -1.1083984 25.294922 -0.66894531Q25.294922 -0.39941406 25.435547 -0.22363281Q25.576172 -0.047851562 25.851562 0.075195312Q26.126953 0.19824219 27.011719 0.41503906Q27.849609 0.62597656 28.21875 0.8046875Q28.587891 0.98339844 28.801758 1.2001953Q29.015625 1.4169922 29.132812 1.7011719Q29.25 1.9853516 29.25 2.3486328Z"/>
	<clipPath id="cl_59c">
		<rect y="39.200001" width="1200" height="31.999996"/>
	</clipPath>
	<g clip-path="url(#cl_59c)">
		<path fill="#C32222" fill-opacity="0.2" d="M569.33002 49.200001L609.33002 49.200001L609.33002 61.200001L569.33002 61.200001L569.33002 49.200001Z"/>
		<path fill="none" stroke="#C32222" stroke-width="2" stroke-miterlimit="10" d="M569.33002 49.200001L609.33002 49.200001L609.33002 61.200001L569.33002 61.200001L569.33002 49.200001Z"/>
	</g>
	<clipPath id="cl_59d">
		<rect y="39.200001" width="1200" height="31.999996"/>
	</clipPath>
	<g clip-path="url(#cl_59d)">
		<path fill="#666" d="M615.81635 59.300587L615.81635 58.497852L619.36127 53.775196L616.01556 53.775196L616.01556 52.960743L620.60931 52.960743L620.60931 53.763477L617.05853 58.486134L620.73236 58.486134L620.73236 59.300587L615.81635 59.300587ZM622.13275 51.613087L622.13275 50.605274L623.18744 50.605274L623.18744 51.613087L622.13275 51.613087ZM622.13275 59.300587L622.13275 52.960743L623.18744 52.960743L623.18744 59.300587L622.13275 59.300587ZM630.16595 56.101368Q630.16595 59.417774 627.83392 59.417774Q626.36908 59.417774 625.86517 58.316212L625.83588 58.316212Q625.85931 58.363087 625.85931 59.312305L625.85931 61.790821L624.80463 61.790821L624.80463 54.255665Q624.80463 53.277149 624.76947 52.960743L625.789 52.960743Q625.79486 52.98418 625.80658 53.127735Q625.8183 53.27129 625.83295 53.570118Q625.8476 53.868946 625.8476 53.980274L625.87103 53.980274Q626.15228 53.394337 626.61517 53.121876Q627.07806 52.849415 627.83392 52.849415Q629.0058 52.849415 629.58588 53.634571Q630.16595 54.419727 630.16595 56.101368ZM629.05853 56.124805Q629.05853 54.800587 628.70111 54.232227Q628.34369 53.663868 627.56439 53.663868Q626.93744 53.663868 626.58295 53.92754Q626.22845 54.191212 626.04388 54.750782Q625.85931 55.310352 625.85931 56.206837Q625.85931 57.454884 626.25775 58.04668Q626.65619 58.638477 627.55267 58.638477Q628.33783 58.638477 628.69818 58.061329Q629.05853 57.48418 629.05853 56.124805Z"/>
	</g>
	<path fill="#666" transform="translate(600 19.6)" d="M-272.06641 3.3320312Q-272.06641 4.5585938 -273.07031 5.2578125Q-274.07422 5.9570312 -275.84766 5.9570312Q-277.58984 5.9570312 -278.51562 5.40625Q-279.44141 4.8554688 -279.74609 3.6914062L-277.81641 3.4023438Q-277.65234 4.0039062 -277.25 4.2539062Q-276.84766 4.5039062 -275.84766 4.5039062Q-274.92578 4.5039062 -274.50391 4.2695312Q-274.08203 4.0351562 -274.08203 3.5351562Q-274.08203 3.1289062 -274.42188 2.890625Q-274.76172 2.6523438 -275.57422 2.4882812Q-277.43359 2.1210938 -278.08203 1.8046875Q-278.73047 1.4882812 -279.07031 0.984375Q-279.41016 0.48046875 -279.41016 -0.25390625Q-279.41016 -1.4648438 -278.47656 -2.140625Q-277.54297 -2.8164062 -275.83203 -2.8164062Q-274.32422 -2.8164062 -273.40625 -2.2304688Q-272.48828 -1.6445312 -272.26172 -0.53515625L-274.20703 -0.33203125Q-274.30078 -0.84765625 -274.66797 -1.1015625Q-275.03516 -1.3554688 -275.83203 -1.3554688Q-276.61328 -1.3554688 -277.00391 -1.15625Q-277.39453 -0.95703125 -277.39453 -0.48828125Q-277.39453 -0.12109375 -277.09375 0.09375Q-276.79297 0.30859375 -276.08203 0.44921875Q-275.08984 0.65234375 -274.32031 0.8671875Q-273.55078 1.0820312 -273.08594 1.3789062Q-272.62109 1.6757812 -272.34375 2.140625Q-272.06641 2.6054688 -272.06641 3.3320312ZM-268.33984 5.9570312Q-269.56641 5.9570312 -270.25391 5.2890625Q-270.94141 4.6210938 -270.94141 3.4101562Q-270.94141 2.0976562 -270.08594 1.4101562Q-269.23047 0.72265625 -267.60547 0.70703125L-265.78516 0.67578125L-265.78516 0.24609375Q-265.78516 -0.58203125 -266.07422 -0.984375Q-266.36328 -1.3867188 -267.01953 -1.3867188Q-267.62891 -1.3867188 -267.91406 -1.109375Q-268.19922 -0.83203125 -268.26953 -0.19140625L-270.55859 -0.30078125Q-270.34766 -1.5351562 -269.42969 -2.171875Q-268.51172 -2.8085938 -266.92578 -2.8085938Q-265.32422 -2.8085938 -264.45703 -2.0195312Q-263.58984 -1.2304688 -263.58984 0.22265625L-263.58984 3.3007812Q-263.58984 4.0117188 -263.42969 4.28125Q-263.26953 4.5507812 -262.89453 4.5507812Q-262.64453 4.5507812 -262.41016 4.5039062L-262.41016 5.6914062Q-262.60547 5.7382812 -262.76172 5.7773438Q-262.91797 5.8164062 -263.07422 5.8398438Q-263.23047 5.8632812 -263.40625 5.8789062Q-263.58203 5.8945312 -263.81641 5.8945312Q-264.64453 5.8945312 -265.03906 5.4882812Q-265.43359 5.0820312 -265.51172 4.2929688L-265.55859 4.2929688Q-266.48047 5.9570312 -268.33984 5.9570312ZM-265.78516 1.8867188L-266.91016 1.9023438Q-267.67578 1.9335938 -267.99609 2.0703125Q-268.31641 2.2070312 -268.48438 2.4882812Q-268.65234 2.7695312 -268.65234 3.2382812Q-268.65234 3.8398438 -268.375 4.1328125Q-268.09766 4.4257812 -267.63672 4.4257812Q-267.12109 4.4257812 -266.69531 4.1445312Q-266.26953 3.8632812 -266.02734 3.3671875Q-265.78516 2.8710938 -265.78516 2.3164062L-265.78516 1.8867188ZM-261.39453 -4.1757812L-261.39453 -5.7929688L-259.19922 -5.7929688L-259.19922 -4.1757812L-261.39453 -4.1757812ZM-261.39453 5.8007812L-261.39453 -2.6523438L-259.19922 -2.6523438L-259.19922 5.8007812L-261.39453 5.8007812ZM-256.94922 5.8007812L-256.94922 -5.7929688L-254.75391 -5.7929688L-254.75391 5.8007812L-256.94922 5.8007812ZM-244.50391 1.5351562Q-244.50391 3.6523438 -245.35156 4.8046875Q-246.19922 5.9570312 -247.74609 5.9570312Q-248.63672 5.9570312 -249.29688 5.5703125Q-249.95703 5.1835938 -250.30859 4.4570312L-250.35547 4.4570312Q-250.30859 4.6914062 -250.30859 5.8789062L-250.30859 9.1210938L-252.50391 9.1210938L-252.50391 -0.70703125Q-252.50391 -1.9023438 -252.56641 -2.6523438L-250.43359 -2.6523438Q-250.39453 -2.5117188 -250.36719 -2.0976562Q-250.33984 -1.6835938 -250.33984 -1.2773438L-250.30859 -1.2773438Q-249.56641 -2.8320312 -247.60547 -2.8320312Q-246.12891 -2.8320312 -245.31641 -1.6953125Q-244.50391 -0.55859375 -244.50391 1.5351562ZM-246.79297 1.5351562Q-246.79297 -1.3085938 -248.53516 -1.3085938Q-249.41016 -1.3085938 -249.875 -0.54296875Q-250.33984 0.22265625 -250.33984 1.5976562Q-250.33984 2.9648438 -249.875 3.7109375Q-249.41016 4.4570312 -248.55078 4.4570312Q-246.79297 4.4570312 -246.79297 1.5351562ZM-234.69922 1.5664062Q-234.69922 3.6210938 -235.83984 4.7890625Q-236.98047 5.9570312 -238.99609 5.9570312Q-240.97266 5.9570312 -242.09766 4.7851562Q-243.22266 3.6132812 -243.22266 1.5664062Q-243.22266 -0.47265625 -242.09766 -1.640625Q-240.97266 -2.8085938 -238.94922 -2.8085938Q-236.87891 -2.8085938 -235.78906 -1.6796875Q-234.69922 -0.55078125 -234.69922 1.5664062ZM-236.99609 1.5664062Q-236.99609 0.05859375 -237.48828 -0.62109375Q-237.98047 -1.3007812 -238.91797 -1.3007812Q-240.91797 -1.3007812 -240.91797 1.5664062Q-240.91797 2.9804688 -240.42969 3.71875Q-239.94141 4.4570312 -239.01953 4.4570312Q-236.99609 4.4570312 -236.99609 1.5664062ZM-232.95703 -4.1757812L-232.95703 -5.7929688L-230.76172 -5.7929688L-230.76172 -4.1757812L-232.95703 -4.1757812ZM-232.95703 5.8007812L-232.95703 -2.6523438L-230.76172 -2.6523438L-230.76172 5.8007812L-232.95703 5.8007812ZM-223.03516 5.8007812L-223.03516 1.0585938Q-223.03516 -1.1679688 -224.54297 -1.1679688Q-225.33984 -1.1679688 -225.82812 -0.484375Q-226.31641 0.19921875 -226.31641 1.2695312L-226.31641 5.8007812L-228.51172 5.8007812L-228.51172 -0.76171875Q-228.51172 -1.4414062 -228.53125 -1.875Q-228.55078 -2.3085938 -228.57422 -2.6523438L-226.48047 -2.6523438Q-226.45703 -2.5039062 -226.41797 -1.859375Q-226.37891 -1.2148438 -226.37891 -0.97265625L-226.34766 -0.97265625Q-225.90234 -1.9414062 -225.23047 -2.3789062Q-224.55859 -2.8164062 -223.62891 -2.8164062Q-222.28516 -2.8164062 -221.56641 -1.9882812Q-220.84766 -1.1601562 -220.84766 0.43359375L-220.84766 5.8007812L-223.03516 5.8007812ZM-216.57422 5.9414062Q-217.54297 5.9414062 -218.06641 5.4140625Q-218.58984 4.8867188 -218.58984 3.8164062L-218.58984 -1.1679688L-219.66016 -1.1679688L-219.66016 -2.6523438L-218.48047 -2.6523438L-217.79297 -4.6367188L-216.41797 -4.6367188L-216.41797 -2.6523438L-214.81641 -2.6523438L-214.81641 -1.1679688L-216.41797 -1.1679688L-216.41797 3.2226562Q-216.41797 3.8398438 -216.18359 4.1328125Q-215.94922 4.4257812 -215.45703 4.4257812Q-215.19922 4.4257812 -214.72266 4.3164062L-214.72266 5.6757812Q-215.53516 5.9414062 -216.57422 5.9414062ZM-213.90234 2.6054688L-213.90234 0.69921875L-209.83984 0.69921875L-209.83984 2.6054688L-213.90234 2.6054688ZM-200.05078 1.5664062Q-200.05078 3.6210938 -201.19141 4.7890625Q-202.33203 5.9570312 -204.34766 5.9570312Q-206.32422 5.9570312 -207.44922 4.7851562Q-208.57422 3.6132812 -208.57422 1.5664062Q-208.57422 -0.47265625 -207.44922 -1.640625Q-206.32422 -2.8085938 -204.30078 -2.8085938Q-202.23047 -2.8085938 -201.14062 -1.6796875Q-200.05078 -0.55078125 -200.05078 1.5664062ZM-202.34766 1.5664062Q-202.34766 0.05859375 -202.83984 -0.62109375Q-203.33203 -1.3007812 -204.26953 -1.3007812Q-206.26953 -1.3007812 -206.26953 1.5664062Q-206.26953 2.9804688 -205.78125 3.71875Q-205.29297 4.4570312 -204.37109 4.4570312Q-202.34766 4.4570312 -202.34766 1.5664062ZM-191.18359 3.3320312Q-191.18359 4.5585938 -192.1875 5.2578125Q-193.19141 5.9570312 -194.96484 5.9570312Q-196.70703 5.9570312 -197.63281 5.40625Q-198.55859 4.8554688 -198.86328 3.6914062L-196.93359 3.4023438Q-196.76953 4.0039062 -196.36719 4.2539062Q-195.96484 4.5039062 -194.96484 4.5039062Q-194.04297 4.5039062 -193.62109 4.2695312Q-193.19922 4.0351562 -193.19922 3.5351562Q-193.19922 3.1289062 -193.53906 2.890625Q-193.87891 2.6523438 -194.69141 2.4882812Q-196.55078 2.1210938 -197.19922 1.8046875Q-197.84766 1.4882812 -198.1875 0.984375Q-198.52734 0.48046875 -198.52734 -0.25390625Q-198.52734 -1.4648438 -197.59375 -2.140625Q-196.66016 -2.8164062 -194.94922 -2.8164062Q-193.44141 -2.8164062 -192.52344 -2.2304688Q-191.60547 -1.6445312 -191.37891 -0.53515625L-193.32422 -0.33203125Q-193.41797 -0.84765625 -193.78516 -1.1015625Q-194.15234 -1.3554688 -194.94922 -1.3554688Q-195.73047 -1.3554688 -196.12109 -1.15625Q-196.51172 -0.95703125 -196.51172 -0.48828125Q-196.51172 -0.12109375 -196.21094 0.09375Q-195.91016 0.30859375 -195.19922 0.44921875Q-194.20703 0.65234375 -193.4375 0.8671875Q-192.66797 1.0820312 -192.20312 1.3789062Q-191.73828 1.6757812 -191.46094 2.140625Q-191.18359 2.6054688 -191.18359 3.3320312ZM-182.28516 3.3320312Q-182.28516 4.5585938 -183.28906 5.2578125Q-184.29297 5.9570312 -186.06641 5.9570312Q-187.80859 5.9570312 -188.73438 5.40625Q-189.66016 4.8554688 -189.96484 3.6914062L-188.03516 3.4023438Q-187.87109 4.0039062 -187.46875 4.2539062Q-187.06641 4.5039062 -186.06641 4.5039062Q-185.14453 4.5039062 -184.72266 4.2695312Q-184.30078 4.0351562 -184.30078 3.5351562Q-184.30078 3.1289062 -184.64062 2.890625Q-184.98047 2.6523438 -185.79297 2.4882812Q-187.65234 2.1210938 -188.30078 1.8046875Q-188.94922 1.4882812 -189.28906 0.984375Q-189.62891 0.48046875 -189.62891 -0.25390625Q-189.62891 -1.4648438 -188.69531 -2.140625Q-187.76172 -2.8164062 -186.05078 -2.8164062Q-184.54297 -2.8164062 -183.625 -2.2304688Q-182.70703 -1.6445312 -182.48047 -0.53515625L-184.42578 -0.33203125Q-184.51953 -0.84765625 -184.88672 -1.1015625Q-185.25391 -1.3554688 -186.05078 -1.3554688Q-186.83203 -1.3554688 -187.22266 -1.15625Q-187.61328 -0.95703125 -187.61328 -0.48828125Q-187.61328 -0.12109375 -187.3125 0.09375Q-187.01172 0.30859375 -186.30078 0.44921875Q-185.30859 0.65234375 -184.53906 0.8671875Q-183.76953 1.0820312 -183.30469 1.3789062Q-182.83984 1.6757812 -182.5625 2.140625Q-182.28516 2.6054688 -182.28516 3.3320312ZM-181.47266 6.1210938L-179.19922 -5.7929688L-177.33984 -5.7929688L-179.57422 6.1210938L-181.47266 6.1210938ZM-172.54297 5.9570312Q-174.46484 5.9570312 -175.51172 4.8125Q-176.55859 3.6679688 -176.55859 1.6210938Q-176.55859 -0.47265625 -175.50391 -1.640625Q-174.44922 -2.8085938 -172.51172 -2.8085938Q-171.01953 -2.8085938 -170.04297 -2.0585938Q-169.06641 -1.3085938 -168.81641 0.01171875L-171.02734 0.12109375Q-171.12109 -0.52734375 -171.49609 -0.9140625Q-171.87109 -1.3007812 -172.55859 -1.3007812Q-174.25391 -1.3007812 -174.25391 1.5351562Q-174.25391 4.4570312 -172.52734 4.4570312Q-171.90234 4.4570312 -171.48047 4.0625Q-171.05859 3.6679688 -170.95703 2.8867188L-168.75391 2.9882812Q-168.87109 3.8554688 -169.375 4.5351562Q-169.87891 5.2148438 -170.69922 5.5859375Q-171.51953 5.9570312 -172.54297 5.9570312ZM-159.13672 1.5664062Q-159.13672 3.6210938 -160.27734 4.7890625Q-161.41797 5.9570312 -163.43359 5.9570312Q-165.41016 5.9570312 -166.53516 4.7851562Q-167.66016 3.6132812 -167.66016 1.5664062Q-167.66016 -0.47265625 -166.53516 -1.640625Q-165.41016 -2.8085938 -163.38672 -2.8085938Q-161.31641 -2.8085938 -160.22656 -1.6796875Q-159.13672 -0.55078125 -159.13672 1.5664062ZM-161.43359 1.5664062Q-161.43359 0.05859375 -161.92578 -0.62109375Q-162.41797 -1.3007812 -163.35547 -1.3007812Q-165.35547 -1.3007812 -165.35547 1.5664062Q-165.35547 2.9804688 -164.86719 3.71875Q-164.37891 4.4570312 -163.45703 4.4570312Q-161.43359 4.4570312 -161.43359 1.5664062ZM-157.39453 5.8007812L-157.39453 -5.7929688L-155.19922 -5.7929688L-155.19922 5.8007812L-157.39453 5.8007812ZM-150.99609 5.9570312Q-152.22266 5.9570312 -152.91016 5.2890625Q-153.59766 4.6210938 -153.59766 3.4101562Q-153.59766 2.0976562 -152.74219 1.4101562Q-151.88672 0.72265625 -150.26172 0.70703125L-148.44141 0.67578125L-148.44141 0.24609375Q-148.44141 -0.58203125 -148.73047 -0.984375Q-149.01953 -1.3867188 -149.67578 -1.3867188Q-150.28516 -1.3867188 -150.57031 -1.109375Q-150.85547 -0.83203125 -150.92578 -0.19140625L-153.21484 -0.30078125Q-153.00391 -1.5351562 -152.08594 -2.171875Q-151.16797 -2.8085938 -149.58203 -2.8085938Q-147.98047 -2.8085938 -147.11328 -2.0195312Q-146.24609 -1.2304688 -146.24609 0.22265625L-146.24609 3.3007812Q-146.24609 4.0117188 -146.08594 4.28125Q-145.92578 4.5507812 -145.55078 4.5507812Q-145.30078 4.5507812 -145.06641 4.5039062L-145.06641 5.6914062Q-145.26172 5.7382812 -145.41797 5.7773438Q-145.57422 5.8164062 -145.73047 5.8398438Q-145.88672 5.8632812 -146.0625 5.8789062Q-146.23828 5.8945312 -146.47266 5.8945312Q-147.30078 5.8945312 -147.69531 5.4882812Q-148.08984 5.0820312 -148.16797 4.2929688L-148.21484 4.2929688Q-149.13672 5.9570312 -150.99609 5.9570312ZM-148.44141 1.8867188L-149.56641 1.9023438Q-150.33203 1.9335938 -150.65234 2.0703125Q-150.97266 2.2070312 -151.14062 2.4882812Q-151.30859 2.7695312 -151.30859 3.2382812Q-151.30859 3.8398438 -151.03125 4.1328125Q-150.75391 4.4257812 -150.29297 4.4257812Q-149.77734 4.4257812 -149.35156 4.1445312Q-148.92578 3.8632812 -148.68359 3.3671875Q-148.44141 2.8710938 -148.44141 2.3164062L-148.44141 1.8867188ZM-136.05078 1.5429688Q-136.05078 3.6367188 -136.89062 4.796875Q-137.73047 5.9570312 -139.29297 5.9570312Q-140.19141 5.9570312 -140.84766 5.5664062Q-141.50391 5.1757812 -141.85547 4.4414062L-141.87109 4.4414062Q-141.87109 4.7148438 -141.90625 5.1914062Q-141.94141 5.6679688 -141.98047 5.8007812L-144.11328 5.8007812Q-144.05078 5.0742188 -144.05078 3.8710938L-144.05078 -5.7929688L-141.85547 -5.7929688L-141.85547 -2.5585938L-141.88672 -1.1835938L-141.85547 -1.1835938Q-141.11328 -2.8085938 -139.15234 -2.8085938Q-137.65234 -2.8085938 -136.85156 -1.671875Q-136.05078 -0.53515625 -136.05078 1.5429688ZM-138.33984 1.5429688Q-138.33984 0.10546875 -138.76172 -0.58984375Q-139.18359 -1.2851562 -140.06641 -1.2851562Q-140.95703 -1.2851562 -141.42188 -0.5390625Q-141.88672 0.20703125 -141.88672 1.6132812Q-141.88672 2.9570312 -141.42969 3.7070312Q-140.97266 4.4570312 -140.08203 4.4570312Q-138.33984 4.4570312 -138.33984 1.5429688ZM-134.76953 2.6054688L-134.76953 0.69921875L-130.70703 0.69921875L-130.70703 2.6054688L-134.76953 2.6054688ZM-125.48828 5.9570312Q-127.39453 5.9570312 -128.41797 4.828125Q-129.44141 3.6992188 -129.44141 1.5351562Q-129.44141 -0.55859375 -128.40234 -1.6835938Q-127.36328 -2.8085938 -125.45703 -2.8085938Q-123.63672 -2.8085938 -122.67578 -1.6015625Q-121.71484 -0.39453125 -121.71484 1.9335938L-121.71484 1.9960938L-127.13672 1.9960938Q-127.13672 3.2304688 -126.67969 3.859375Q-126.22266 4.4882812 -125.37891 4.4882812Q-124.21484 4.4882812 -123.91016 3.4804688L-121.83984 3.6601562Q-122.73828 5.9570312 -125.48828 5.9570312ZM-125.48828 -1.4257812Q-126.26172 -1.4257812 -126.67969 -0.88671875Q-127.09766 -0.34765625 -127.12109 0.62109375L-123.83984 0.62109375Q-123.90234 -0.40234375 -124.33203 -0.9140625Q-124.76172 -1.4257812 -125.48828 -1.4257812ZM-115.45703 5.8007812L-118.08203 5.8007812L-121.10547 -2.6523438L-118.78516 -2.6523438L-117.30859 2.0742188Q-117.19141 2.4648438 -116.75391 4.0273438Q-116.67578 3.7070312 -116.43359 2.9023438Q-116.19141 2.0976562 -114.63672 -2.6523438L-112.33984 -2.6523438L-115.45703 5.8007812ZM-107.69141 5.9570312Q-109.59766 5.9570312 -110.62109 4.828125Q-111.64453 3.6992188 -111.64453 1.5351562Q-111.64453 -0.55859375 -110.60547 -1.6835938Q-109.56641 -2.8085938 -107.66016 -2.8085938Q-105.83984 -2.8085938 -104.87891 -1.6015625Q-103.91797 -0.39453125 -103.91797 1.9335938L-103.91797 1.9960938L-109.33984 1.9960938Q-109.33984 3.2304688 -108.88281 3.859375Q-108.42578 4.4882812 -107.58203 4.4882812Q-106.41797 4.4882812 -106.11328 3.4804688L-104.04297 3.6601562Q-104.94141 5.9570312 -107.69141 5.9570312ZM-107.69141 -1.4257812Q-108.46484 -1.4257812 -108.88281 -0.88671875Q-109.30078 -0.34765625 -109.32422 0.62109375L-106.04297 0.62109375Q-106.10547 -0.40234375 -106.53516 -0.9140625Q-106.96484 -1.4257812 -107.69141 -1.4257812ZM-96.777344 5.8007812L-96.777344 1.0585938Q-96.777344 -1.1679688 -98.285156 -1.1679688Q-99.082031 -1.1679688 -99.570312 -0.484375Q-100.05859 0.19921875 -100.05859 1.2695312L-100.05859 5.8007812L-102.25391 5.8007812L-102.25391 -0.76171875Q-102.25391 -1.4414062 -102.27344 -1.875Q-102.29297 -2.3085938 -102.31641 -2.6523438L-100.22266 -2.6523438Q-100.19922 -2.5039062 -100.16016 -1.859375Q-100.12109 -1.2148438 -100.12109 -0.97265625L-100.08984 -0.97265625Q-99.644531 -1.9414062 -98.972656 -2.3789062Q-98.300781 -2.8164062 -97.371094 -2.8164062Q-96.027344 -2.8164062 -95.308594 -1.9882812Q-94.589844 -1.1601562 -94.589844 0.43359375L-94.589844 5.8007812L-96.777344 5.8007812ZM-90.316406 5.9414062Q-91.285156 5.9414062 -91.808594 5.4140625Q-92.332031 4.8867188 -92.332031 3.8164062L-92.332031 -1.1679688L-93.402344 -1.1679688L-93.402344 -2.6523438L-92.222656 -2.6523438L-91.535156 -4.6367188L-90.160156 -4.6367188L-90.160156 -2.6523438L-88.558594 -2.6523438L-88.558594 -1.1679688L-90.160156 -1.1679688L-90.160156 3.2226562Q-90.160156 3.8398438 -89.925781 4.1328125Q-89.691406 4.4257812 -89.199219 4.4257812Q-88.941406 4.4257812 -88.464844 4.3164062L-88.464844 5.6757812Q-89.277344 5.9414062 -90.316406 5.9414062ZM-80.027344 3.3320312Q-80.027344 4.5585938 -81.03125 5.2578125Q-82.035156 5.9570312 -83.808594 5.9570312Q-85.550781 5.9570312 -86.476562 5.40625Q-87.402344 4.8554688 -87.707031 3.6914062L-85.777344 3.4023438Q-85.613281 4.0039062 -85.210938 4.2539062Q-84.808594 4.5039062 -83.808594 4.5039062Q-82.886719 4.5039062 -82.464844 4.2695312Q-82.042969 4.0351562 -82.042969 3.5351562Q-82.042969 3.1289062 -82.382812 2.890625Q-82.722656 2.6523438 -83.535156 2.4882812Q-85.394531 2.1210938 -86.042969 1.8046875Q-86.691406 1.4882812 -87.03125 0.984375Q-87.371094 0.48046875 -87.371094 -0.25390625Q-87.371094 -1.4648438 -86.4375 -2.140625Q-85.503906 -2.8164062 -83.792969 -2.8164062Q-82.285156 -2.8164062 -81.367188 -2.2304688Q-80.449219 -1.6445312 -80.222656 -0.53515625L-82.167969 -0.33203125Q-82.261719 -0.84765625 -82.628906 -1.1015625Q-82.996094 -1.3554688 -83.792969 -1.3554688Q-84.574219 -1.3554688 -84.964844 -1.15625Q-85.355469 -0.95703125 -85.355469 -0.48828125Q-85.355469 -0.12109375 -85.054688 0.09375Q-84.753906 0.30859375 -84.042969 0.44921875Q-83.050781 0.65234375 -82.28125 0.8671875Q-81.511719 1.0820312 -81.046875 1.3789062Q-80.582031 1.6757812 -80.304688 2.140625Q-80.027344 2.6054688 -80.027344 3.3320312ZM-78.746094 2.6054688L-78.746094 0.69921875L-74.683594 0.69921875L-74.683594 2.6054688L-78.746094 2.6054688ZM-67.449219 5.8007812Q-67.480469 5.6835938 -67.523438 5.2109375Q-67.566406 4.7382812 -67.566406 4.4257812L-67.597656 4.4257812Q-68.308594 5.9570312 -70.300781 5.9570312Q-71.777344 5.9570312 -72.582031 4.8046875Q-73.386719 3.6523438 -73.386719 1.5820312Q-73.386719 -0.51953125 -72.539062 -1.6640625Q-71.691406 -2.8085938 -70.136719 -2.8085938Q-69.238281 -2.8085938 -68.585938 -2.4335938Q-67.933594 -2.0585938 -67.582031 -1.3164062L-67.566406 -1.3164062L-67.582031 -2.7070312L-67.582031 -5.7929688L-65.386719 -5.7929688L-65.386719 3.9570312Q-65.386719 4.7382812 -65.324219 5.8007812L-67.449219 5.8007812ZM-67.550781 1.5273438Q-67.550781 0.16015625 -68.007812 -0.578125Q-68.464844 -1.3164062 -69.355469 -1.3164062Q-70.238281 -1.3164062 -70.667969 -0.6015625Q-71.097656 0.11328125 -71.097656 1.5820312Q-71.097656 4.4570312 -69.371094 4.4570312Q-68.503906 4.4570312 -68.027344 3.6953125Q-67.550781 2.9335938 -67.550781 1.5273438ZM-61.199219 5.9570312Q-62.425781 5.9570312 -63.113281 5.2890625Q-63.800781 4.6210938 -63.800781 3.4101562Q-63.800781 2.0976562 -62.945312 1.4101562Q-62.089844 0.72265625 -60.464844 0.70703125L-58.644531 0.67578125L-58.644531 0.24609375Q-58.644531 -0.58203125 -58.933594 -0.984375Q-59.222656 -1.3867188 -59.878906 -1.3867188Q-60.488281 -1.3867188 -60.773438 -1.109375Q-61.058594 -0.83203125 -61.128906 -0.19140625L-63.417969 -0.30078125Q-63.207031 -1.5351562 -62.289062 -2.171875Q-61.371094 -2.8085938 -59.785156 -2.8085938Q-58.183594 -2.8085938 -57.316406 -2.0195312Q-56.449219 -1.2304688 -56.449219 0.22265625L-56.449219 3.3007812Q-56.449219 4.0117188 -56.289062 4.28125Q-56.128906 4.5507812 -55.753906 4.5507812Q-55.503906 4.5507812 -55.269531 4.5039062L-55.269531 5.6914062Q-55.464844 5.7382812 -55.621094 5.7773438Q-55.777344 5.8164062 -55.933594 5.8398438Q-56.089844 5.8632812 -56.265625 5.8789062Q-56.441406 5.8945312 -56.675781 5.8945312Q-57.503906 5.8945312 -57.898438 5.4882812Q-58.292969 5.0820312 -58.371094 4.2929688L-58.417969 4.2929688Q-59.339844 5.9570312 -61.199219 5.9570312ZM-58.644531 1.8867188L-59.769531 1.9023438Q-60.535156 1.9335938 -60.855469 2.0703125Q-61.175781 2.2070312 -61.34375 2.4882812Q-61.511719 2.7695312 -61.511719 3.2382812Q-61.511719 3.8398438 -61.234375 4.1328125Q-60.957031 4.4257812 -60.496094 4.4257812Q-59.980469 4.4257812 -59.554688 4.1445312Q-59.128906 3.8632812 -58.886719 3.3671875Q-58.644531 2.8710938 -58.644531 2.3164062L-58.644531 1.8867188ZM-47.128906 3.3320312Q-47.128906 4.5585938 -48.132812 5.2578125Q-49.136719 5.9570312 -50.910156 5.9570312Q-52.652344 5.9570312 -53.578125 5.40625Q-54.503906 4.8554688 -54.808594 3.6914062L-52.878906 3.4023438Q-52.714844 4.0039062 -52.3125 4.2539062Q-51.910156 4.5039062 -50.910156 4.5039062Q-49.988281 4.5039062 -49.566406 4.2695312Q-49.144531 4.0351562 -49.144531 3.5351562Q-49.144531 3.1289062 -49.484375 2.890625Q-49.824219 2.6523438 -50.636719 2.4882812Q-52.496094 2.1210938 -53.144531 1.8046875Q-53.792969 1.4882812 -54.132812 0.984375Q-54.472656 0.48046875 -54.472656 -0.25390625Q-54.472656 -1.4648438 -53.539062 -2.140625Q-52.605469 -2.8164062 -50.894531 -2.8164062Q-49.386719 -2.8164062 -48.46875 -2.2304688Q-47.550781 -1.6445312 -47.324219 -0.53515625L-49.269531 -0.33203125Q-49.363281 -0.84765625 -49.730469 -1.1015625Q-50.097656 -1.3554688 -50.894531 -1.3554688Q-51.675781 -1.3554688 -52.066406 -1.15625Q-52.457031 -0.95703125 -52.457031 -0.48828125Q-52.457031 -0.12109375 -52.15625 0.09375Q-51.855469 0.30859375 -51.144531 0.44921875Q-50.152344 0.65234375 -49.382812 0.8671875Q-48.613281 1.0820312 -48.148438 1.3789062Q-47.683594 1.6757812 -47.40625 2.140625Q-47.128906 2.6054688 -47.128906 3.3320312ZM-43.191406 -0.96484375Q-42.746094 -1.9335938 -42.074219 -2.3710938Q-41.402344 -2.8085938 -40.472656 -2.8085938Q-39.128906 -2.8085938 -38.410156 -1.9804688Q-37.691406 -1.1523438 -37.691406 0.44140625L-37.691406 5.8007812L-39.878906 5.8007812L-39.878906 1.0664062Q-39.878906 -1.1601562 -41.386719 -1.1601562Q-42.183594 -1.1601562 -42.671875 -0.4765625Q-43.160156 0.20703125 -43.160156 1.2773438L-43.160156 5.8007812L-45.355469 5.8007812L-45.355469 -5.7929688L-43.160156 -5.7929688L-43.160156 -2.6289062Q-43.160156 -1.7773438 -43.222656 -0.96484375L-43.191406 -0.96484375ZM-27.582031 1.5429688Q-27.582031 3.6367188 -28.421875 4.796875Q-29.261719 5.9570312 -30.824219 5.9570312Q-31.722656 5.9570312 -32.378906 5.5664062Q-33.035156 5.1757812 -33.386719 4.4414062L-33.402344 4.4414062Q-33.402344 4.7148438 -33.4375 5.1914062Q-33.472656 5.6679688 -33.511719 5.8007812L-35.644531 5.8007812Q-35.582031 5.0742188 -35.582031 3.8710938L-35.582031 -5.7929688L-33.386719 -5.7929688L-33.386719 -2.5585938L-33.417969 -1.1835938L-33.386719 -1.1835938Q-32.644531 -2.8085938 -30.683594 -2.8085938Q-29.183594 -2.8085938 -28.382812 -1.671875Q-27.582031 -0.53515625 -27.582031 1.5429688ZM-29.871094 1.5429688Q-29.871094 0.10546875 -30.292969 -0.58984375Q-30.714844 -1.2851562 -31.597656 -1.2851562Q-32.488281 -1.2851562 -32.953125 -0.5390625Q-33.417969 0.20703125 -33.417969 1.6132812Q-33.417969 2.9570312 -32.960938 3.7070312Q-32.503906 4.4570312 -31.613281 4.4570312Q-29.871094 4.4570312 -29.871094 1.5429688ZM-17.777344 1.5664062Q-17.777344 3.6210938 -18.917969 4.7890625Q-20.058594 5.9570312 -22.074219 5.9570312Q-24.050781 5.9570312 -25.175781 4.7851562Q-26.300781 3.6132812 -26.300781 1.5664062Q-26.300781 -0.47265625 -25.175781 -1.640625Q-24.050781 -2.8085938 -22.027344 -2.8085938Q-19.957031 -2.8085938 -18.867188 -1.6796875Q-17.777344 -0.55078125 -17.777344 1.5664062ZM-20.074219 1.5664062Q-20.074219 0.05859375 -20.566406 -0.62109375Q-21.058594 -1.3007812 -21.996094 -1.3007812Q-23.996094 -1.3007812 -23.996094 1.5664062Q-23.996094 2.9804688 -23.507812 3.71875Q-23.019531 4.4570312 -22.097656 4.4570312Q-20.074219 4.4570312 -20.074219 1.5664062ZM-14.082031 5.9570312Q-15.308594 5.9570312 -15.996094 5.2890625Q-16.683594 4.6210938 -16.683594 3.4101562Q-16.683594 2.0976562 -15.828125 1.4101562Q-14.972656 0.72265625 -13.347656 0.70703125L-11.527344 0.67578125L-11.527344 0.24609375Q-11.527344 -0.58203125 -11.816406 -0.984375Q-12.105469 -1.3867188 -12.761719 -1.3867188Q-13.371094 -1.3867188 -13.65625 -1.109375Q-13.941406 -0.83203125 -14.011719 -0.19140625L-16.300781 -0.30078125Q-16.089844 -1.5351562 -15.171875 -2.171875Q-14.253906 -2.8085938 -12.667969 -2.8085938Q-11.066406 -2.8085938 -10.199219 -2.0195312Q-9.3320312 -1.2304688 -9.3320312 0.22265625L-9.3320312 3.3007812Q-9.3320312 4.0117188 -9.171875 4.28125Q-9.0117188 4.5507812 -8.6367188 4.5507812Q-8.3867188 4.5507812 -8.1523438 4.5039062L-8.1523438 5.6914062Q-8.3476562 5.7382812 -8.5039062 5.7773438Q-8.6601562 5.8164062 -8.8164062 5.8398438Q-8.9726562 5.8632812 -9.1484375 5.8789062Q-9.3242188 5.8945312 -9.5585938 5.8945312Q-10.386719 5.8945312 -10.78125 5.4882812Q-11.175781 5.0820312 -11.253906 4.2929688L-11.300781 4.2929688Q-12.222656 5.9570312 -14.082031 5.9570312ZM-11.527344 1.8867188L-12.652344 1.9023438Q-13.417969 1.9335938 -13.738281 2.0703125Q-14.058594 2.2070312 -14.226562 2.4882812Q-14.394531 2.7695312 -14.394531 3.2382812Q-14.394531 3.8398438 -14.117188 4.1328125Q-13.839844 4.4257812 -13.378906 4.4257812Q-12.863281 4.4257812 -12.4375 4.1445312Q-12.011719 3.8632812 -11.769531 3.3671875Q-11.527344 2.8710938 -11.527344 2.3164062L-11.527344 1.8867188ZM-7.1367188 5.8007812L-7.1367188 -0.66796875Q-7.1367188 -1.3632812 -7.15625 -1.828125Q-7.1757812 -2.2929688 -7.1992188 -2.6523438L-5.1054688 -2.6523438Q-5.0820312 -2.5117188 -5.0429688 -1.796875Q-5.0039062 -1.0820312 -5.0039062 -0.84765625L-4.9726562 -0.84765625Q-4.6523438 -1.7382812 -4.4023438 -2.1015625Q-4.1523438 -2.4648438 -3.8085938 -2.640625Q-3.4648438 -2.8164062 -2.9492188 -2.8164062Q-2.5273438 -2.8164062 -2.2695312 -2.6992188L-2.2695312 -0.86328125Q-2.8007812 -0.98046875 -3.2070312 -0.98046875Q-4.0273438 -0.98046875 -4.484375 -0.31640625Q-4.9414062 0.34765625 -4.9414062 1.6523438L-4.9414062 5.8007812L-7.1367188 5.8007812ZM4.5664062 5.8007812Q4.5351562 5.6835938 4.4921875 5.2109375Q4.4492188 4.7382812 4.4492188 4.4257812L4.4179688 4.4257812Q3.7070312 5.9570312 1.7148438 5.9570312Q0.23828125 5.9570312 -0.56640625 4.8046875Q-1.3710938 3.6523438 -1.3710938 1.5820312Q-1.3710938 -0.51953125 -0.5234375 -1.6640625Q0.32421875 -2.8085938 1.8789062 -2.8085938Q2.7773438 -2.8085938 3.4296875 -2.4335938Q4.0820312 -2.0585938 4.4335938 -1.3164062L4.4492188 -1.3164062L4.4335938 -2.7070312L4.4335938 -5.7929688L6.6289062 -5.7929688L6.6289062 3.9570312Q6.6289062 4.7382812 6.6914062 5.8007812L4.5664062 5.8007812ZM4.4648438 1.5273438Q4.4648438 0.16015625 4.0078125 -0.578125Q3.5507812 -1.3164062 2.6601562 -1.3164062Q1.7773438 -1.3164062 1.3476562 -0.6015625Q0.91796875 0.11328125 0.91796875 1.5820312Q0.91796875 4.4570312 2.6445312 4.4570312Q3.5117188 4.4570312 3.9882812 3.6953125Q4.4648438 2.9335938 4.4648438 1.5273438ZM8.3710938 2.6054688L8.3710938 0.69921875L12.433594 0.69921875L12.433594 2.6054688L8.3710938 2.6054688ZM22.191406 1.5351562Q22.191406 3.6523438 21.34375 4.8046875Q20.496094 5.9570312 18.949219 5.9570312Q18.058594 5.9570312 17.398438 5.5703125Q16.738281 5.1835938 16.386719 4.4570312L16.339844 4.4570312Q16.386719 4.6914062 16.386719 5.8789062L16.386719 9.1210938L14.191406 9.1210938L14.191406 -0.70703125Q14.191406 -1.9023438 14.128906 -2.6523438L16.261719 -2.6523438Q16.300781 -2.5117188 16.328125 -2.0976562Q16.355469 -1.6835938 16.355469 -1.2773438L16.386719 -1.2773438Q17.128906 -2.8320312 19.089844 -2.8320312Q20.566406 -2.8320312 21.378906 -1.6953125Q22.191406 -0.55859375 22.191406 1.5351562ZM19.902344 1.5351562Q19.902344 -1.3085938 18.160156 -1.3085938Q17.285156 -1.3085938 16.820312 -0.54296875Q16.355469 0.22265625 16.355469 1.5976562Q16.355469 2.9648438 16.820312 3.7109375Q17.285156 4.4570312 18.144531 4.4570312Q19.902344 4.4570312 19.902344 1.5351562ZM23.964844 5.8007812L23.964844 -5.7929688L26.160156 -5.7929688L26.160156 5.8007812L23.964844 5.8007812ZM30.480469 -2.6523438L30.480469 2.0898438Q30.480469 4.3164062 31.980469 4.3164062Q32.777344 4.3164062 33.265625 3.6328125Q33.753906 2.9492188 33.753906 1.8789062L33.753906 -2.6523438L35.949219 -2.6523438L35.949219 3.9101562Q35.949219 4.9882812 36.011719 5.8007812L33.917969 5.8007812Q33.824219 4.6757812 33.824219 4.1210938L33.785156 4.1210938Q33.347656 5.0820312 32.671875 5.5195312Q31.996094 5.9570312 31.066406 5.9570312Q29.722656 5.9570312 29.003906 5.1328125Q28.285156 4.3085938 28.285156 2.7148438L28.285156 -2.6523438L30.480469 -2.6523438ZM41.722656 9.1914062Q40.175781 9.1914062 39.234375 8.6015625Q38.292969 8.0117188 38.074219 6.9179688L40.269531 6.6601562Q40.386719 7.1679688 40.773438 7.4570312Q41.160156 7.7460938 41.785156 7.7460938Q42.699219 7.7460938 43.121094 7.1835938Q43.542969 6.6210938 43.542969 5.5117188L43.542969 5.0664062L43.558594 4.2304688L43.542969 4.2304688Q42.816406 5.7851562 40.824219 5.7851562Q39.347656 5.7851562 38.535156 4.6757812Q37.722656 3.5664062 37.722656 1.5039062Q37.722656 -0.56640625 38.558594 -1.6914062Q39.394531 -2.8164062 40.988281 -2.8164062Q42.832031 -2.8164062 43.542969 -1.2929688L43.582031 -1.2929688Q43.582031 -1.5664062 43.617188 -2.0351562Q43.652344 -2.5039062 43.691406 -2.6523438L45.769531 -2.6523438Q45.722656 -1.8085938 45.722656 -0.69921875L45.722656 5.5429688Q45.722656 7.3476562 44.699219 8.2695312Q43.675781 9.1914062 41.722656 9.1914062ZM43.558594 1.4570312Q43.558594 0.15234375 43.09375 -0.578125Q42.628906 -1.3085938 41.769531 -1.3085938Q40.011719 -1.3085938 40.011719 1.5039062Q40.011719 4.2617188 41.753906 4.2617188Q42.628906 4.2617188 43.09375 3.53125Q43.558594 2.8007812 43.558594 1.4570312ZM47.957031 -4.1757812L47.957031 -5.7929688L50.152344 -5.7929688L50.152344 -4.1757812L47.957031 -4.1757812ZM47.957031 5.8007812L47.957031 -2.6523438L50.152344 -2.6523438L50.152344 5.8007812L47.957031 5.8007812ZM57.878906 5.8007812L57.878906 1.0585938Q57.878906 -1.1679688 56.371094 -1.1679688Q55.574219 -1.1679688 55.085938 -0.484375Q54.597656 0.19921875 54.597656 1.2695312L54.597656 5.8007812L52.402344 5.8007812L52.402344 -0.76171875Q52.402344 -1.4414062 52.382812 -1.875Q52.363281 -2.3085938 52.339844 -2.6523438L54.433594 -2.6523438Q54.457031 -2.5039062 54.496094 -1.859375Q54.535156 -1.2148438 54.535156 -0.97265625L54.566406 -0.97265625Q55.011719 -1.9414062 55.683594 -2.3789062Q56.355469 -2.8164062 57.285156 -2.8164062Q58.628906 -2.8164062 59.347656 -1.9882812Q60.066406 -1.1601562 60.066406 0.43359375L60.066406 5.8007812L57.878906 5.8007812ZM66.128906 2.6054688L66.128906 0.69921875L70.191406 0.69921875L70.191406 2.6054688L66.128906 2.6054688ZM78.652344 -3.4257812L78.652344 -0.01953125L84.285156 -0.01953125L84.285156 1.7617188L78.652344 1.7617188L78.652344 5.8007812L76.347656 5.8007812L76.347656 -5.2070312L84.464844 -5.2070312L84.464844 -3.4257812L78.652344 -3.4257812ZM96.824219 0.24609375Q96.824219 1.9648438 96.144531 3.2695312Q95.464844 4.5742188 94.199219 5.265625Q92.933594 5.9570312 91.246094 5.9570312Q88.652344 5.9570312 87.179688 4.4296875Q85.707031 2.9023438 85.707031 0.24609375Q85.707031 -2.4023438 87.175781 -3.8867188Q88.644531 -5.3710938 91.261719 -5.3710938Q93.878906 -5.3710938 95.351562 -3.8710938Q96.824219 -2.3710938 96.824219 0.24609375ZM94.472656 0.24609375Q94.472656 -1.5351562 93.628906 -2.546875Q92.785156 -3.5585938 91.261719 -3.5585938Q89.714844 -3.5585938 88.871094 -2.5546875Q88.027344 -1.5507812 88.027344 0.24609375Q88.027344 2.0585938 88.890625 3.1015625Q89.753906 4.1445312 91.246094 4.1445312Q92.792969 4.1445312 93.632812 3.1289062Q94.472656 2.1132812 94.472656 0.24609375ZM106.12891 5.8007812L103.57422 1.6210938L100.87109 1.6210938L100.87109 5.8007812L98.566406 5.8007812L98.566406 -5.2070312L104.06641 -5.2070312Q106.03516 -5.2070312 107.10547 -4.359375Q108.17578 -3.5117188 108.17578 -1.9257812Q108.17578 -0.76953125 107.51953 0.0703125Q106.86328 0.91015625 105.74609 1.1757812L108.72266 5.8007812L106.12891 5.8007812ZM105.85547 -1.8320312Q105.85547 -3.4179688 103.82422 -3.4179688L100.87109 -3.4179688L100.87109 -0.16796875L103.88672 -0.16796875Q104.85547 -0.16796875 105.35547 -0.60546875Q105.85547 -1.0429688 105.85547 -1.8320312ZM119.26172 5.8007812L119.26172 -0.87109375Q119.26172 -1.0976562 119.26562 -1.3242188Q119.26953 -1.5507812 119.33984 -3.2695312Q118.78516 -1.1679688 118.51953 -0.33984375L116.53516 5.8007812L114.89453 5.8007812L112.91016 -0.33984375L112.07422 -3.2695312Q112.16797 -1.4570312 112.16797 -0.87109375L112.16797 5.8007812L110.12109 5.8007812L110.12109 -5.2070312L113.20703 -5.2070312L115.17578 0.94921875L115.34766 1.5429688L115.72266 3.0195312L116.21484 1.2539062L118.23828 -5.2070312L121.30859 -5.2070312L121.30859 5.8007812L119.26172 5.8007812ZM131.23047 5.8007812L130.25391 2.9882812L126.05859 2.9882812L125.08203 5.8007812L122.77734 5.8007812L126.79297 -5.2070312L129.51172 -5.2070312L133.51172 5.8007812L131.23047 5.8007812ZM128.15234 -3.5117188L128.10547 -3.3398438Q128.02734 -3.0585938 127.91797 -2.6992188Q127.80859 -2.3398438 126.57422 1.2539062L129.73828 1.2539062L128.65234 -1.9101562L128.31641 -2.9726562L128.15234 -3.5117188ZM138.78516 -3.4257812L138.78516 5.8007812L136.48047 5.8007812L136.48047 -3.4257812L132.92578 -3.4257812L132.92578 -5.2070312L142.34766 -5.2070312L142.34766 -3.4257812L138.78516 -3.4257812ZM157.84766 0.21484375Q157.84766 1.9179688 157.17969 3.1875Q156.51172 4.4570312 155.28906 5.1289062Q154.06641 5.8007812 152.48828 5.8007812L148.03516 5.8007812L148.03516 -5.2070312L152.01953 -5.2070312Q154.80078 -5.2070312 156.32422 -3.8046875Q157.84766 -2.4023438 157.84766 0.21484375ZM155.52734 0.21484375Q155.52734 -1.5585938 154.60547 -2.4921875Q153.68359 -3.4257812 151.97266 -3.4257812L150.33984 -3.4257812L150.33984 4.0195312L152.29297 4.0195312Q153.77734 4.0195312 154.65234 2.9960938Q155.52734 1.9726562 155.52734 0.21484375ZM167.66797 1.5664062Q167.66797 3.6210938 166.52734 4.7890625Q165.38672 5.9570312 163.37109 5.9570312Q161.39453 5.9570312 160.26953 4.7851562Q159.14453 3.6132812 159.14453 1.5664062Q159.14453 -0.47265625 160.26953 -1.640625Q161.39453 -2.8085938 163.41797 -2.8085938Q165.48828 -2.8085938 166.57812 -1.6796875Q167.66797 -0.55078125 167.66797 1.5664062ZM165.37109 1.5664062Q165.37109 0.05859375 164.87891 -0.62109375Q164.38672 -1.3007812 163.44922 -1.3007812Q161.44922 -1.3007812 161.44922 1.5664062Q161.44922 2.9804688 161.9375 3.71875Q162.42578 4.4570312 163.34766 4.4570312Q165.37109 4.4570312 165.37109 1.5664062ZM178.55078 5.8007812L176.23047 5.8007812L174.88672 0.64453125Q174.79297 0.29296875 174.51953 -1.0898438L174.11328 0.66015625L172.75391 5.8007812L170.43359 5.8007812L168.24609 -2.6523438L170.30859 -2.6523438L171.69922 3.8085938L171.80859 3.2304688L172.00391 2.3164062L173.33203 -2.6523438L175.68359 -2.6523438L176.98047 2.3164062Q177.08984 2.7226562 177.30078 3.8085938L177.51953 2.7773438L178.73828 -2.6523438L180.76953 -2.6523438L178.55078 5.8007812ZM187.33203 5.8007812L187.33203 1.0585938Q187.33203 -1.1679688 185.82422 -1.1679688Q185.02734 -1.1679688 184.53906 -0.484375Q184.05078 0.19921875 184.05078 1.2695312L184.05078 5.8007812L181.85547 5.8007812L181.85547 -0.76171875Q181.85547 -1.4414062 181.83594 -1.875Q181.81641 -2.3085938 181.79297 -2.6523438L183.88672 -2.6523438Q183.91016 -2.5039062 183.94922 -1.859375Q183.98828 -1.2148438 183.98828 -0.97265625L184.01953 -0.97265625Q184.46484 -1.9414062 185.13672 -2.3789062Q185.80859 -2.8164062 186.73828 -2.8164062Q188.08203 -2.8164062 188.80078 -1.9882812Q189.51953 -1.1601562 189.51953 0.43359375L189.51953 5.8007812L187.33203 5.8007812ZM191.62891 5.8007812L191.62891 -5.7929688L193.82422 -5.7929688L193.82422 5.8007812L191.62891 5.8007812ZM204.10547 1.5664062Q204.10547 3.6210938 202.96484 4.7890625Q201.82422 5.9570312 199.80859 5.9570312Q197.83203 5.9570312 196.70703 4.7851562Q195.58203 3.6132812 195.58203 1.5664062Q195.58203 -0.47265625 196.70703 -1.640625Q197.83203 -2.8085938 199.85547 -2.8085938Q201.92578 -2.8085938 203.01562 -1.6796875Q204.10547 -0.55078125 204.10547 1.5664062ZM201.80859 1.5664062Q201.80859 0.05859375 201.31641 -0.62109375Q200.82422 -1.3007812 199.88672 -1.3007812Q197.88672 -1.3007812 197.88672 1.5664062Q197.88672 2.9804688 198.375 3.71875Q198.86328 4.4570312 199.78516 4.4570312Q201.80859 4.4570312 201.80859 1.5664062ZM207.80078 5.9570312Q206.57422 5.9570312 205.88672 5.2890625Q205.19922 4.6210938 205.19922 3.4101562Q205.19922 2.0976562 206.05469 1.4101562Q206.91016 0.72265625 208.53516 0.70703125L210.35547 0.67578125L210.35547 0.24609375Q210.35547 -0.58203125 210.06641 -0.984375Q209.77734 -1.3867188 209.12109 -1.3867188Q208.51172 -1.3867188 208.22656 -1.109375Q207.94141 -0.83203125 207.87109 -0.19140625L205.58203 -0.30078125Q205.79297 -1.5351562 206.71094 -2.171875Q207.62891 -2.8085938 209.21484 -2.8085938Q210.81641 -2.8085938 211.68359 -2.0195312Q212.55078 -1.2304688 212.55078 0.22265625L212.55078 3.3007812Q212.55078 4.0117188 212.71094 4.28125Q212.87109 4.5507812 213.24609 4.5507812Q213.49609 4.5507812 213.73047 4.5039062L213.73047 5.6914062Q213.53516 5.7382812 213.37891 5.7773438Q213.22266 5.8164062 213.06641 5.8398438Q212.91016 5.8632812 212.73438 5.8789062Q212.55859 5.8945312 212.32422 5.8945312Q211.49609 5.8945312 211.10156 5.4882812Q210.70703 5.0820312 210.62891 4.2929688L210.58203 4.2929688Q209.66016 5.9570312 207.80078 5.9570312ZM210.35547 1.8867188L209.23047 1.9023438Q208.46484 1.9335938 208.14453 2.0703125Q207.82422 2.2070312 207.65625 2.4882812Q207.48828 2.7695312 207.48828 3.2382812Q207.48828 3.8398438 207.76562 4.1328125Q208.04297 4.4257812 208.50391 4.4257812Q209.01953 4.4257812 209.44531 4.1445312Q209.87109 3.8632812 210.11328 3.3671875Q210.35547 2.8710938 210.35547 2.3164062L210.35547 1.8867188ZM220.22266 5.8007812Q220.19141 5.6835938 220.14844 5.2109375Q220.10547 4.7382812 220.10547 4.4257812L220.07422 4.4257812Q219.36328 5.9570312 217.37109 5.9570312Q215.89453 5.9570312 215.08984 4.8046875Q214.28516 3.6523438 214.28516 1.5820312Q214.28516 -0.51953125 215.13281 -1.6640625Q215.98047 -2.8085938 217.53516 -2.8085938Q218.43359 -2.8085938 219.08594 -2.4335938Q219.73828 -2.0585938 220.08984 -1.3164062L220.10547 -1.3164062L220.08984 -2.7070312L220.08984 -5.7929688L222.28516 -5.7929688L222.28516 3.9570312Q222.28516 4.7382812 222.34766 5.8007812L220.22266 5.8007812ZM220.12109 1.5273438Q220.12109 0.16015625 219.66406 -0.578125Q219.20703 -1.3164062 218.31641 -1.3164062Q217.43359 -1.3164062 217.00391 -0.6015625Q216.57422 0.11328125 216.57422 1.5820312Q216.57422 4.4570312 218.30078 4.4570312Q219.16797 4.4570312 219.64453 3.6953125Q220.12109 2.9335938 220.12109 1.5273438ZM233.88672 -3.4257812L233.88672 5.8007812L231.58203 5.8007812L231.58203 -3.4257812L228.02734 -3.4257812L228.02734 -5.2070312L237.44922 -5.2070312L237.44922 -3.4257812L233.88672 -3.4257812ZM237.85547 5.8007812L237.85547 -0.66796875Q237.85547 -1.3632812 237.83594 -1.828125Q237.81641 -2.2929688 237.79297 -2.6523438L239.88672 -2.6523438Q239.91016 -2.5117188 239.94922 -1.796875Q239.98828 -1.0820312 239.98828 -0.84765625L240.01953 -0.84765625Q240.33984 -1.7382812 240.58984 -2.1015625Q240.83984 -2.4648438 241.18359 -2.640625Q241.52734 -2.8164062 242.04297 -2.8164062Q242.46484 -2.8164062 242.72266 -2.6992188L242.72266 -0.86328125Q242.19141 -0.98046875 241.78516 -0.98046875Q240.96484 -0.98046875 240.50781 -0.31640625Q240.05078 0.34765625 240.05078 1.6523438L240.05078 5.8007812L237.85547 5.8007812ZM247.54297 5.9570312Q245.63672 5.9570312 244.61328 4.828125Q243.58984 3.6992188 243.58984 1.5351562Q243.58984 -0.55859375 244.62891 -1.6835938Q245.66797 -2.8085938 247.57422 -2.8085938Q249.39453 -2.8085938 250.35547 -1.6015625Q251.31641 -0.39453125 251.31641 1.9335938L251.31641 1.9960938L245.89453 1.9960938Q245.89453 3.2304688 246.35156 3.859375Q246.80859 4.4882812 247.65234 4.4882812Q248.81641 4.4882812 249.12109 3.4804688L251.19141 3.6601562Q250.29297 5.9570312 247.54297 5.9570312ZM247.54297 -1.4257812Q246.76953 -1.4257812 246.35156 -0.88671875Q245.93359 -0.34765625 245.91016 0.62109375L249.19141 0.62109375Q249.12891 -0.40234375 248.69922 -0.9140625Q248.26953 -1.4257812 247.54297 -1.4257812ZM258.45703 5.8007812L258.45703 1.0585938Q258.45703 -1.1679688 256.94922 -1.1679688Q256.15234 -1.1679688 255.66406 -0.484375Q255.17578 0.19921875 255.17578 1.2695312L255.17578 5.8007812L252.98047 5.8007812L252.98047 -0.76171875Q252.98047 -1.4414062 252.96094 -1.875Q252.94141 -2.3085938 252.91797 -2.6523438L255.01172 -2.6523438Q255.03516 -2.5039062 255.07422 -1.859375Q255.11328 -1.2148438 255.11328 -0.97265625L255.14453 -0.97265625Q255.58984 -1.9414062 256.26172 -2.3789062Q256.93359 -2.8164062 257.86328 -2.8164062Q259.20703 -2.8164062 259.92578 -1.9882812Q260.64453 -1.1601562 260.64453 0.43359375L260.64453 5.8007812L258.45703 5.8007812ZM268.23047 5.8007812Q268.19922 5.6835938 268.15625 5.2109375Q268.11328 4.7382812 268.11328 4.4257812L268.08203 4.4257812Q267.37109 5.9570312 265.37891 5.9570312Q263.90234 5.9570312 263.09766 4.8046875Q262.29297 3.6523438 262.29297 1.5820312Q262.29297 -0.51953125 263.14062 -1.6640625Q263.98828 -2.8085938 265.54297 -2.8085938Q266.44141 -2.8085938 267.09375 -2.4335938Q267.74609 -2.0585938 268.09766 -1.3164062L268.11328 -1.3164062L268.09766 -2.7070312L268.09766 -5.7929688L270.29297 -5.7929688L270.29297 3.9570312Q270.29297 4.7382812 270.35547 5.8007812L268.23047 5.8007812ZM268.12891 1.5273438Q268.12891 0.16015625 267.67188 -0.578125Q267.21484 -1.3164062 266.32422 -1.3164062Q265.44141 -1.3164062 265.01172 -0.6015625Q264.58203 0.11328125 264.58203 1.5820312Q264.58203 4.4570312 266.30859 4.4570312Q267.17578 4.4570312 267.65234 3.6953125Q268.12891 2.9335938 268.12891 1.5273438ZM279.65234 3.3320312Q279.65234 4.5585938 278.64844 5.2578125Q277.64453 5.9570312 275.87109 5.9570312Q274.12891 5.9570312 273.20312 5.40625Q272.27734 4.8554688 271.97266 3.6914062L273.90234 3.4023438Q274.06641 4.0039062 274.46875 4.2539062Q274.87109 4.5039062 275.87109 4.5039062Q276.79297 4.5039062 277.21484 4.2695312Q277.63672 4.0351562 277.63672 3.5351562Q277.63672 3.1289062 277.29688 2.890625Q276.95703 2.6523438 276.14453 2.4882812Q274.28516 2.1210938 273.63672 1.8046875Q272.98828 1.4882812 272.64844 0.984375Q272.30859 0.48046875 272.30859 -0.25390625Q272.30859 -1.4648438 273.24219 -2.140625Q274.17578 -2.8164062 275.88672 -2.8164062Q277.39453 -2.8164062 278.3125 -2.2304688Q279.23047 -1.6445312 279.45703 -0.53515625L277.51172 -0.33203125Q277.41797 -0.84765625 277.05078 -1.1015625Q276.68359 -1.3554688 275.88672 -1.3554688Q275.10547 -1.3554688 274.71484 -1.15625Q274.32422 -0.95703125 274.32422 -0.48828125Q274.32422 -0.12109375 274.625 0.09375Q274.92578 0.30859375 275.63672 0.44921875Q276.62891 0.65234375 277.39844 0.8671875Q278.16797 1.0820312 278.63281 1.3789062Q279.09766 1.6757812 279.375 2.140625Q279.65234 2.6054688 279.65234 3.3320312Z"/>
	<path fill="none" stroke="black" stroke-width="1" stroke-miterlimit="10" stroke-opacity="0.10196079" d="M49 749.5L1195 749.5"/>
	<clipPath id="cl_59f">
		<rect y="749.20001" width="1200" height="50.799988"/>
	</clipPath>
	<g clip-path="url(#cl_59f)">
		<path fill="#666" transform="translate(49.75 760.2)" d="M-7.7480469 11.300586L-8.9960938 11.300586L-11.298828 4.960742L-10.173828 4.960742L-8.7792969 9.085742Q-8.703125 9.320117 -8.375 10.474414L-8.1699219 9.788867L-7.9414062 9.0974607L-6.5 4.960742L-5.3808594 4.960742L-7.7480469 11.300586ZM-4.4257812 11.300586L-4.4257812 10.404101L-2.3222656 10.404101L-2.3222656 4.0525389L-4.1855469 5.382617L-4.1855469 4.3865232L-2.234375 3.0447264L-1.2617188 3.0447264L-1.2617188 10.404101L0.74804688 10.404101L0.74804688 11.300586L-4.4257812 11.300586ZM2.4296875 11.300586L2.4296875 10.017383L3.5722656 10.017383L3.5722656 11.300586L2.4296875 11.300586ZM10.873047 7.1697264Q10.873047 9.2380857 10.143555 10.327929Q9.4140625 11.417773 7.9902344 11.417773Q6.5664062 11.417773 5.8515625 10.333789Q5.1367188 9.2498045 5.1367188 7.1697264Q5.1367188 5.0427732 5.8310547 3.9822264Q6.5253906 2.9216795 8.0253906 2.9216795Q9.484375 2.9216795 10.178711 3.9939451Q10.873047 5.0662107 10.873047 7.1697264ZM9.8007812 7.1697264Q9.8007812 5.382617 9.3876953 4.5798826Q8.9746094 3.7771482 8.0253906 3.7771482Q7.0527344 3.7771482 6.6279297 4.5681639Q6.203125 5.3591795 6.203125 7.1697264Q6.203125 8.9275389 6.6337891 9.741992Q7.0644531 10.556445 8.0019531 10.556445Q8.9335938 10.556445 9.3671875 9.7244139Q9.8007812 8.8923826 9.8007812 7.1697264Z"/>
	</g>
	<path fill="none" stroke="black" stroke-width="1" stroke-miterlimit="10" stroke-opacity="0.10196079" d="M49.5 71L49.5 750"/>
	<clipPath id="cl_5a1">
		<rect width="49.75" height="800"/>
	</clipPath>
	<g clip-path="url(#cl_5a1)">
		<path fill="#666" transform="translate(38.75 749.2)" d="M-0.46679688 -0.030273438Q-0.46679688 2.0380859 -1.1962891 3.1279297Q-1.9257812 4.2177734 -3.3496094 4.2177734Q-4.7734375 4.2177734 -5.4882812 3.1337891Q-6.203125 2.0498047 -6.203125 -0.030273438Q-6.203125 -2.1572266 -5.5087891 -3.2177734Q-4.8144531 -4.2783203 -3.3144531 -4.2783203Q-1.8554688 -4.2783203 -1.1611328 -3.2060547Q-0.46679688 -2.1337891 -0.46679688 -0.030273438ZM-1.5390625 -0.030273438Q-1.5390625 -1.8173828 -1.9521484 -2.6201172Q-2.3652344 -3.4228516 -3.3144531 -3.4228516Q-4.2871094 -3.4228516 -4.7119141 -2.6318359Q-5.1367188 -1.8408203 -5.1367188 -0.030273438Q-5.1367188 1.7275391 -4.7060547 2.5419922Q-4.2753906 3.3564453 -3.3378906 3.3564453Q-2.40625 3.3564453 -1.9726562 2.5244141Q-1.5390625 1.6923828 -1.5390625 -0.030273438Z"/>
	</g>
	<clipPath id="cl_5a2">
		<rect width="49.75" height="800"/>
	</clipPath>
	<g clip-path="url(#cl_5a2)">
		<path fill="#666" transform="translate(38.75 681.4)" d="M-5.7578125 4.1005859L-5.7578125 3.2041016L-3.6542969 3.2041016L-3.6542969 -3.1474609L-5.5175781 -1.8173828L-5.5175781 -2.8134766L-3.5664062 -4.1552734L-2.59375 -4.1552734L-2.59375 3.2041016L-0.58398438 3.2041016L-0.58398438 4.1005859L-5.7578125 4.1005859Z"/>
	</g>
	<clipPath id="cl_5a3">
		<rect width="49.75" height="800"/>
	</clipPath>
	<g clip-path="url(#cl_5a3)">
		<path fill="#666" transform="translate(38.75 613.6)" d="M-6.0683594 4.1005859L-6.0683594 3.3564453Q-5.7695312 2.6708984 -5.3388672 2.1464844Q-4.9082031 1.6220703 -4.4335938 1.1972656Q-3.9589844 0.77246094 -3.4931641 0.40917969Q-3.0273438 0.045898438 -2.6523438 -0.31738281Q-2.2773438 -0.68066406 -2.0458984 -1.0791016Q-1.8144531 -1.4775391 -1.8144531 -1.9814453Q-1.8144531 -2.6611328 -2.2128906 -3.0361328Q-2.6113281 -3.4111328 -3.3203125 -3.4111328Q-3.9941406 -3.4111328 -4.4306641 -3.0449219Q-4.8671875 -2.6787109 -4.9433594 -2.0166016L-6.0214844 -2.1162109Q-5.9042969 -3.1064453 -5.1806641 -3.6923828Q-4.4570312 -4.2783203 -3.3203125 -4.2783203Q-2.0722656 -4.2783203 -1.4013672 -3.6894531Q-0.73046875 -3.1005859 -0.73046875 -2.0166016Q-0.73046875 -1.5361328 -0.95019531 -1.0615234Q-1.1699219 -0.58691406 -1.6035156 -0.11230469Q-2.0371094 0.36230469 -3.2617188 1.3583984Q-3.9355469 1.9091797 -4.3339844 2.3515625Q-4.7324219 2.7939453 -4.9082031 3.2041016L-0.6015625 3.2041016L-0.6015625 4.1005859L-6.0683594 4.1005859Z"/>
	</g>
	<clipPath id="cl_5a4">
		<rect width="49.75" height="800"/>
	</clipPath>
	<g clip-path="url(#cl_5a4)">
		<path fill="#666" transform="translate(38.75 545.8)" d="M-0.52539062 1.8212891Q-0.52539062 2.9638672 -1.2519531 3.5908203Q-1.9785156 4.2177734 -3.3261719 4.2177734Q-4.5800781 4.2177734 -5.3271484 3.6523438Q-6.0742188 3.0869141 -6.2148438 1.9794922L-5.125 1.8798828Q-4.9140625 3.3447266 -3.3261719 3.3447266Q-2.5292969 3.3447266 -2.0751953 2.9521484Q-1.6210938 2.5595703 -1.6210938 1.7861328Q-1.6210938 1.1123047 -2.1396484 0.734375Q-2.6582031 0.35644531 -3.6367188 0.35644531L-4.234375 0.35644531L-4.234375 -0.55761719L-3.6601562 -0.55761719Q-2.7929688 -0.55761719 -2.3154297 -0.93554688Q-1.8378906 -1.3134766 -1.8378906 -1.9814453Q-1.8378906 -2.6435547 -2.2275391 -3.0273438Q-2.6171875 -3.4111328 -3.3847656 -3.4111328Q-4.0820312 -3.4111328 -4.5126953 -3.0537109Q-4.9433594 -2.6962891 -5.0136719 -2.0458984L-6.0742188 -2.1279297Q-5.9570312 -3.1416016 -5.2333984 -3.7099609Q-4.5097656 -4.2783203 -3.3730469 -4.2783203Q-2.1308594 -4.2783203 -1.4423828 -3.7011719Q-0.75390625 -3.1240234 -0.75390625 -2.0927734Q-0.75390625 -1.3017578 -1.1962891 -0.80664062Q-1.6386719 -0.31152344 -2.4824219 -0.13574219L-2.4824219 -0.11230469Q-1.5566406 -0.012695312 -1.0410156 0.50878906Q-0.52539062 1.0302734 -0.52539062 1.8212891Z"/>
	</g>
	<clipPath id="cl_5a5">
		<rect width="49.75" height="800"/>
	</clipPath>
	<g clip-path="url(#cl_5a5)">
		<path fill="#666" transform="translate(38.75 478)" d="M-1.5097656 2.2314453L-1.5097656 4.1005859L-2.5058594 4.1005859L-2.5058594 2.2314453L-6.3964844 2.2314453L-6.3964844 1.4111328L-2.6171875 -4.1552734L-1.5097656 -4.1552734L-1.5097656 1.3994141L-0.34960938 1.3994141L-0.34960938 2.2314453L-1.5097656 2.2314453ZM-2.5058594 -2.9658203Q-2.5175781 -2.9306641 -2.6699219 -2.6552734Q-2.8222656 -2.3798828 -2.8984375 -2.2685547L-5.0136719 0.84863281L-5.3300781 1.2822266L-5.4238281 1.3994141L-2.5058594 1.3994141L-2.5058594 -2.9658203Z"/>
	</g>
	<clipPath id="cl_5a6">
		<rect width="49.75" height="800"/>
	</clipPath>
	<g clip-path="url(#cl_5a6)">
		<path fill="#666" transform="translate(38.75 410.2)" d="M-0.50195312 1.4111328Q-0.50195312 2.7177734 -1.2783203 3.4677734Q-2.0546875 4.2177734 -3.4316406 4.2177734Q-4.5859375 4.2177734 -5.2949219 3.7138672Q-6.0039062 3.2099609 -6.1914062 2.2548828L-5.125 2.1318359Q-4.7910156 3.3564453 -3.4082031 3.3564453Q-2.5585938 3.3564453 -2.078125 2.84375Q-1.5976562 2.3310547 -1.5976562 1.4345703Q-1.5976562 0.65527344 -2.0810547 0.17480469Q-2.5644531 -0.30566406 -3.3847656 -0.30566406Q-3.8125 -0.30566406 -4.1816406 -0.17089844Q-4.5507812 -0.036132812 -4.9199219 0.28613281L-5.9511719 0.28613281L-5.6757812 -4.1552734L-0.98242188 -4.1552734L-0.98242188 -3.2587891L-4.7148438 -3.2587891L-4.8730469 -0.63964844Q-4.1875 -1.1669922 -3.1679688 -1.1669922Q-1.9492188 -1.1669922 -1.2255859 -0.45214844Q-0.50195312 0.26269531 -0.50195312 1.4111328Z"/>
	</g>
	<clipPath id="cl_5a7">
		<rect width="49.75" height="800"/>
	</clipPath>
	<g clip-path="url(#cl_5a7)">
		<path fill="#666" transform="translate(38.75 342.4)" d="M-0.52539062 1.3994141Q-0.52539062 2.7060547 -1.234375 3.4619141Q-1.9433594 4.2177734 -3.1914062 4.2177734Q-4.5859375 4.2177734 -5.3242188 3.1806641Q-6.0625 2.1435547 -6.0625 0.16308594Q-6.0625 -1.9814453 -5.2949219 -3.1298828Q-4.5273438 -4.2783203 -3.109375 -4.2783203Q-1.2402344 -4.2783203 -0.75390625 -2.5966797L-1.7617188 -2.4150391Q-2.0722656 -3.4228516 -3.1210938 -3.4228516Q-4.0234375 -3.4228516 -4.5185547 -2.5820312Q-5.0136719 -1.7412109 -5.0136719 -0.14746094Q-4.7265625 -0.68066406 -4.2050781 -0.95898438Q-3.6835938 -1.2373047 -3.0097656 -1.2373047Q-1.8671875 -1.2373047 -1.1962891 -0.52246094Q-0.52539062 0.19238281 -0.52539062 1.3994141ZM-1.5976562 1.4462891Q-1.5976562 0.54980469 -2.0371094 0.063476562Q-2.4765625 -0.42285156 -3.2617188 -0.42285156Q-4 -0.42285156 -4.4541016 0.0078125Q-4.9082031 0.43847656 -4.9082031 1.1943359Q-4.9082031 2.1494141 -4.4365234 2.7587891Q-3.9648438 3.3681641 -3.2265625 3.3681641Q-2.4648438 3.3681641 -2.03125 2.8554688Q-1.5976562 2.3427734 -1.5976562 1.4462891Z"/>
	</g>
	<clipPath id="cl_5a8">
		<rect width="49.75" height="800"/>
	</clipPath>
	<g clip-path="url(#cl_5a8)">
		<path fill="#666" transform="translate(38.75 274.6)" d="M-0.6015625 -3.2998047Q-1.8671875 -1.3662109 -2.3886719 -0.27050781Q-2.9101562 0.82519531 -3.1708984 1.8916016Q-3.4316406 2.9580078 -3.4316406 4.1005859L-4.5332031 4.1005859Q-4.5332031 2.5185547 -3.8623047 0.76953125Q-3.1914062 -0.97949219 -1.6210938 -3.2587891L-6.0566406 -3.2587891L-6.0566406 -4.1552734L-0.6015625 -4.1552734L-0.6015625 -3.2998047Z"/>
	</g>
	<clipPath id="cl_5a9">
		<rect width="49.75" height="800"/>
	</clipPath>
	<g clip-path="url(#cl_5a9)">
		<path fill="#666" transform="translate(38.75 206.8)" d="M-0.51953125 1.7978516Q-0.51953125 2.9404297 -1.2460938 3.5791016Q-1.9726562 4.2177734 -3.3320312 4.2177734Q-4.65625 4.2177734 -5.4033203 3.5908203Q-6.1503906 2.9638672 -6.1503906 1.8095703Q-6.1503906 1.0009766 -5.6875 0.45019531Q-5.2246094 -0.10058594 -4.5039062 -0.21777344L-4.5039062 -0.24121094Q-5.1777344 -0.39941406 -5.5673828 -0.92675781Q-5.9570312 -1.4541016 -5.9570312 -2.1630859Q-5.9570312 -3.1064453 -5.2509766 -3.6923828Q-4.5449219 -4.2783203 -3.3554688 -4.2783203Q-2.1367188 -4.2783203 -1.4306641 -3.7041016Q-0.72460938 -3.1298828 -0.72460938 -2.1513672Q-0.72460938 -1.4423828 -1.1171875 -0.91503906Q-1.5097656 -0.38769531 -2.1894531 -0.25292969L-2.1894531 -0.22949219Q-1.3984375 -0.10058594 -0.95898438 0.44140625Q-0.51953125 0.98339844 -0.51953125 1.7978516ZM-1.8203125 -2.0927734Q-1.8203125 -3.4931641 -3.3554688 -3.4931641Q-4.0996094 -3.4931641 -4.4892578 -3.1416016Q-4.8789062 -2.7900391 -4.8789062 -2.0927734Q-4.8789062 -1.3837891 -4.4775391 -1.0117188Q-4.0761719 -0.63964844 -3.34375 -0.63964844Q-2.5996094 -0.63964844 -2.2099609 -0.98242188Q-1.8203125 -1.3251953 -1.8203125 -2.0927734ZM-1.6152344 1.6982422Q-1.6152344 0.93066406 -2.0722656 0.54101562Q-2.5292969 0.15136719 -3.3554688 0.15136719Q-4.1582031 0.15136719 -4.609375 0.5703125Q-5.0605469 0.98925781 -5.0605469 1.7216797Q-5.0605469 3.4267578 -3.3203125 3.4267578Q-2.4589844 3.4267578 -2.0371094 3.0136719Q-1.6152344 2.6005859 -1.6152344 1.6982422Z"/>
	</g>
	<clipPath id="cl_5aa">
		<rect width="49.75" height="800"/>
	</clipPath>
	<g clip-path="url(#cl_5aa)">
		<path fill="#666" transform="translate(38.75 139)" d="M-0.56640625 -0.19433594Q-0.56640625 1.9326172 -1.3427734 3.0751953Q-2.1191406 4.2177734 -3.5546875 4.2177734Q-4.5214844 4.2177734 -5.1044922 3.8105469Q-5.6875 3.4033203 -5.9394531 2.4951172L-4.9316406 2.3369141Q-4.6152344 3.3681641 -3.5371094 3.3681641Q-2.6289062 3.3681641 -2.1308594 2.5244141Q-1.6328125 1.6806641 -1.609375 0.11621094Q-1.84375 0.64355469 -2.4121094 0.96289062Q-2.9804688 1.2822266 -3.6601562 1.2822266Q-4.7734375 1.2822266 -5.4414062 0.52050781Q-6.109375 -0.24121094 -6.109375 -1.5009766Q-6.109375 -2.7958984 -5.3828125 -3.5371094Q-4.65625 -4.2783203 -3.3613281 -4.2783203Q-1.984375 -4.2783203 -1.2753906 -3.2587891Q-0.56640625 -2.2392578 -0.56640625 -0.19433594ZM-1.7148438 -1.2138672Q-1.7148438 -2.2099609 -2.171875 -2.8164062Q-2.6289062 -3.4228516 -3.3964844 -3.4228516Q-4.1582031 -3.4228516 -4.5976562 -2.9042969Q-5.0371094 -2.3857422 -5.0371094 -1.5009766Q-5.0371094 -0.59863281 -4.5976562 -0.07421875Q-4.1582031 0.45019531 -3.4082031 0.45019531Q-2.9511719 0.45019531 -2.5585938 0.2421875Q-2.1660156 0.034179688 -1.9404297 -0.34667969Q-1.7148438 -0.72753906 -1.7148438 -1.2138672Z"/>
	</g>
	<clipPath id="cl_5ab">
		<rect width="49.75" height="800"/>
	</clipPath>
	<g clip-path="url(#cl_5ab)">
		<path fill="#666" transform="translate(38.75 71.2)" d="M-12.429688 4.1005859L-12.429688 3.2041016L-10.326172 3.2041016L-10.326172 -3.1474609L-12.189453 -1.8173828L-12.189453 -2.8134766L-10.238281 -4.1552734L-9.265625 -4.1552734L-9.265625 3.2041016L-7.2558594 3.2041016L-7.2558594 4.1005859L-12.429688 4.1005859ZM-0.46484375 -0.030273438Q-0.46484375 2.0380859 -1.1943359 3.1279297Q-1.9238281 4.2177734 -3.3476562 4.2177734Q-4.7714844 4.2177734 -5.4863281 3.1337891Q-6.2011719 2.0498047 -6.2011719 -0.030273438Q-6.2011719 -2.1572266 -5.5068359 -3.2177734Q-4.8125 -4.2783203 -3.3125 -4.2783203Q-1.8535156 -4.2783203 -1.1591797 -3.2060547Q-0.46484375 -2.1337891 -0.46484375 -0.030273438ZM-1.5371094 -0.030273438Q-1.5371094 -1.8173828 -1.9501953 -2.6201172Q-2.3632812 -3.4228516 -3.3125 -3.4228516Q-4.2851562 -3.4228516 -4.7099609 -2.6318359Q-5.1347656 -1.8408203 -5.1347656 -0.030273438Q-5.1347656 1.7275391 -4.7041016 2.5419922Q-4.2734375 3.3564453 -3.3359375 3.3564453Q-2.4042969 3.3564453 -1.9707031 2.5244141Q-1.5371094 1.6923828 -1.5371094 -0.030273438Z"/>
	</g>
	<clipPath id="cl_5ad">
		<rect x="43.75" y="65.199997" width="1156.25" height="690"/>
	</clipPath>
	<g clip-path="url(#cl_5ad)">
		<path fill="none" stroke="#C32222" stroke-width="2" stroke-miterlimit="10" d=""/>
	</g>
	<clipPath id="cl_5ae">
		<rect x="43.75" y="65.199997" width="1156.25" height="690"/>
	</clipPath>
	<g clip-path="url(#cl_5ae)">
		<path fill="#C32222" fill-opacity="0.2" d="M52.75 139Q52.75 139.14738 52.73555 139.29405Q52.721107 139.44072 52.692352 139.58527Q52.663601 139.72983 52.620815 139.87085Q52.578033 140.01189 52.521633 140.14804Q52.465233 140.28421 52.39576 140.41418Q52.326286 140.54416 52.244404 140.66669Q52.162525 140.78925 52.069027 140.90318Q51.975533 141.01711 51.871319 141.12131Q51.767105 141.22552 51.653179 141.31903Q51.539253 141.41254 51.416706 141.4944Q51.294167 141.57629 51.164188 141.64578Q51.03421 141.71524 50.898048 141.77164Q50.76189 141.82803 50.620857 141.87082Q50.47982 141.9136 50.33527 141.94235Q50.19072 141.97112 50.044052 141.98557Q49.897381 142 49.75 142Q49.602619 142 49.455948 141.98557Q49.309277 141.97112 49.164726 141.94235Q49.02018 141.9136 48.879143 141.87082Q48.73811 141.82803 48.601944 141.77164Q48.465782 141.71524 48.335808 141.64578Q48.205826 141.57629 48.083282 141.49442Q47.960747 141.41254 47.846817 141.31903Q47.732895 141.22552 47.628677 141.12131Q47.524467 141.01711 47.430969 140.90318Q47.337471 140.78926 47.255585 140.6667Q47.173706 140.54416 47.104233 140.41418Q47.03476 140.28421 46.978359 140.14804Q46.921963 140.01189 46.879177 139.87085Q46.836395 139.72983 46.80764 139.58527Q46.778893 139.44072 46.76445 139.29405Q46.75 139.14738 46.75 139Q46.75 138.85263 46.76445 138.70596Q46.778896 138.5593 46.807648 138.41473Q46.836403 138.27019 46.879181 138.12915Q46.921963 137.98811 46.978359 137.85194Q47.03476 137.71579 47.104233 137.5858Q47.173706 137.45583 47.255585 137.33328Q47.337471 137.21075 47.430969 137.09682Q47.524467 136.98289 47.628677 136.87868Q47.732895 136.77448 47.846817 136.68097Q47.960747 136.58746 48.083282 136.50558Q48.205826 136.42371 48.335808 136.35423Q48.465782 136.28476 48.601944 136.22835Q48.73811 136.17195 48.879143 136.12918Q49.02018 136.0864 49.164726 136.05765Q49.309277 136.0289 49.455948 136.01445Q49.602619 136 49.75 136Q49.897381 136 50.044052 136.01447Q50.19072 136.0289 50.335266 136.05765Q50.479816 136.0864 50.620853 136.12918Q50.761887 136.17195 50.898045 136.22835Q51.03421 136.28476 51.164188 136.35423Q51.294167 136.42371 51.416706 136.50558Q51.539253 136.58746 51.653179 136.68097Q51.767105 136.77448 51.871315 136.87868Q51.975533 136.98289 52.069023 137.09682Q52.162521 137.21075 52.2444 137.33328Q52.326279 137.45583 52.395756 137.5858Q52.465233 137.71579 52.521633 137.85194Q52.578033 137.98811 52.620815 138.12915Q52.663597 138.27017 52.692348 138.41472Q52.721107 138.55928 52.73555 138.70596Q52.75 138.85263 52.75 139Z"/>
		<path fill="none" stroke="#C32222" stroke-width="2" stroke-miterlimit="10" d="M52.75 139Q52.75 139.14738 52.73555 139.29405Q52.721107 139.44072 52.692352 139.58527Q52.663601 139.72983 52.620815 139.87085Q52.578033 140.01189 52.521633 140.14804Q52.465233 140.28421 52.39576 140.41418Q52.326286 140.54416 52.244404 140.66669Q52.162525 140.78925 52.069027 140.90318Q51.975533 141.01711 51.871319 141.12131Q51.767105 141.22552 51.653179 141.31903Q51.539253 141.41254 51.416706 141.4944Q51.294167 141.57629 51.164188 141.64578Q51.03421 141.71524 50.898048 141.77164Q50.76189 141.82803 50.620857 141.87082Q50.47982 141.9136 50.33527 141.94235Q50.19072 141.97112 50.044052 141.98557Q49.897381 142 49.75 142Q49.602619 142 49.455948 141.98557Q49.309277 141.97112 49.164726 141.94235Q49.02018 141.9136 48.879143 141.87082Q48.73811 141.82803 48.601944 141.77164Q48.465782 141.71524 48.335808 141.64578Q48.205826 141.57629 48.083282 141.49442Q47.960747 141.41254 47.846817 141.31903Q47.732895 141.22552 47.628677 141.12131Q47.524467 141.01711 47.430969 140.90318Q47.337471 140.78926 47.255585 140.6667Q47.173706 140.54416 47.104233 140.41418Q47.03476 140.28421 46.978359 140.14804Q46.921963 140.01189 46.879177 139.87085Q46.836395 139.72983 46.80764 139.58527Q46.778893 139.44072 46.76445 139.29405Q46.75 139.14738 46.75 139Q46.75 138.85263 46.76445 138.70596Q46.778896 138.5593 46.807648 138.41473Q46.836403 138.27019 46.879181 138.12915Q46.921963 137.98811 46.978359 137.85194Q47.03476 137.71579 47.104233 137.5858Q47.173706 137.45583 47.255585 137.33328Q47.337471 137.21075 47.430969 137.09682Q47.524467 136.98289 47.628677 136.87868Q47.732895 136.77448 47.846817 136.68097Q47.960747 136.58746 48.083282 136.50558Q48.205826 136.42371 48.335808 136.35423Q48.465782 136.28476 48.601944 136.22835Q48.73811 136.17195 48.879143 136.12918Q49.02018 136.0864 49.164726 136.05765Q49.309277 136.0289 49.455948 136.01445Q49.602619 136 49.75 136Q49.897381 136 50.044052 136.01447Q50.19072 136.0289 50.335266 136.05765Q50.479816 136.0864 50.620853 136.12918Q50.761887 136.17195 50.898045 136.22835Q51.03421 136.28476 51.164188 136.35423Q51.294167 136.42371 51.416706 136.50558Q51.539253 136.58746 51.653179 136.68097Q51.767105 136.77448 51.871315 136.87868Q51.975533 136.98289 52.069023 137.09682Q52.162521 137.21075 52.2444 137.33328Q52.326279 137.45583 52.395756 137.5858Q52.465233 137.71579 52.521633 137.85194Q52.578033 137.98811 52.620815 138.12915Q52.663597 138.27017 52.692348 138.41472Q52.721107 138.55928 52.73555 138.70596Q52.75 138.85263 52.75 139Z"/>
	</g>
</svg>
