<?xml version="1.0" encoding="utf-8" ?>
<svg xmlns="http://www.w3.org/2000/svg" xmlns:xlink="http://www.w3.org/1999/xlink" width="1200" height="800">
	<rect fill="white" width="1200" height="800"/>
	<path fill="none" stroke="black" stroke-width="1" stroke-miterlimit="10" stroke-opacity="0.10196079" d="M49.5 71.199997L49.5 749"/>
	<path fill="none" stroke="black" stroke-width="1" stroke-miterlimit="10" stroke-opacity="0.10196079" d="M49.5 750L49.5 757.20001"/>
	<path fill="#666" transform="translate(621.875 788.8)" d="M-26.550781 4.1005859L-28.695312 0.67285156L-31.267578 0.67285156L-31.267578 4.1005859L-32.386719 4.1005859L-32.386719 -4.1552734L-28.501953 -4.1552734Q-27.107422 -4.1552734 -26.348633 -3.53125Q-25.589844 -2.9072266 -25.589844 -1.7939453Q-25.589844 -0.87402344 -26.125977 -0.24707031Q-26.662109 0.37988281 -27.605469 0.54394531L-25.261719 4.1005859L-26.550781 4.1005859ZM-26.714844 -1.7822266Q-26.714844 -2.5029297 -27.204102 -2.8808594Q-27.693359 -3.2587891 -28.613281 -3.2587891L-31.267578 -3.2587891L-31.267578 -0.21191406L-28.566406 -0.21191406Q-27.681641 -0.21191406 -27.198242 -0.625Q-26.714844 -1.0380859 -26.714844 -1.7822266ZM-23.087891 1.1533203Q-23.087891 2.2431641 -22.636719 2.8349609Q-22.185547 3.4267578 -21.318359 3.4267578Q-20.632812 3.4267578 -20.219727 3.1513672Q-19.806641 2.8759766 -19.660156 2.4541016L-18.734375 2.7177734Q-19.302734 4.2177734 -21.318359 4.2177734Q-22.724609 4.2177734 -23.459961 3.3798828Q-24.195312 2.5419922 -24.195312 0.88964844Q-24.195312 -0.68066406 -23.459961 -1.5185547Q-22.724609 -2.3564453 -21.359375 -2.3564453Q-18.564453 -2.3564453 -18.564453 1.0126953L-18.564453 1.1533203L-23.087891 1.1533203ZM-19.654297 0.34472656Q-19.742188 -0.65722656 -20.164062 -1.1171875Q-20.585938 -1.5771484 -21.376953 -1.5771484Q-22.144531 -1.5771484 -22.592773 -1.0644531Q-23.041016 -0.55175781 -23.076172 0.34472656L-19.654297 0.34472656ZM-17.222656 4.1005859L-17.222656 -4.5947266L-16.167969 -4.5947266L-16.167969 4.1005859L-17.222656 4.1005859ZM-13.748047 1.1533203Q-13.748047 2.2431641 -13.296875 2.8349609Q-12.845703 3.4267578 -11.978516 3.4267578Q-11.292969 3.4267578 -10.879883 3.1513672Q-10.466797 2.8759766 -10.320312 2.4541016L-9.3945312 2.7177734Q-9.9628906 4.2177734 -11.978516 4.2177734Q-13.384766 4.2177734 -14.120117 3.3798828Q-14.855469 2.5419922 -14.855469 0.88964844Q-14.855469 -0.68066406 -14.120117 -1.5185547Q-13.384766 -2.3564453 -12.019531 -2.3564453Q-9.2246094 -2.3564453 -9.2246094 1.0126953L-9.2246094 1.1533203L-13.748047 1.1533203ZM-10.314453 0.34472656Q-10.402344 -0.65722656 -10.824219 -1.1171875Q-11.246094 -1.5771484 -12.037109 -1.5771484Q-12.804688 -1.5771484 -13.25293 -1.0644531Q-13.701172 -0.55175781 -13.736328 0.34472656L-10.314453 0.34472656ZM-6.265625 4.2177734Q-7.2207031 4.2177734 -7.7011719 3.7138672Q-8.1816406 3.2099609 -8.1816406 2.3310547Q-8.1816406 1.3466797 -7.5341797 0.81933594Q-6.8867188 0.29199219 -5.4453125 0.25683594L-4.0214844 0.23339844L-4.0214844 -0.11230469Q-4.0214844 -0.88574219 -4.3496094 -1.2197266Q-4.6777344 -1.5537109 -5.3808594 -1.5537109Q-6.0898438 -1.5537109 -6.4121094 -1.3134766Q-6.734375 -1.0732422 -6.7988281 -0.54589844L-7.9003906 -0.64550781Q-7.6308594 -2.3564453 -5.3574219 -2.3564453Q-4.1621094 -2.3564453 -3.5585938 -1.8085938Q-2.9550781 -1.2607422 -2.9550781 -0.22363281L-2.9550781 2.5068359Q-2.9550781 2.9755859 -2.8320312 3.2128906Q-2.7089844 3.4501953 -2.3632812 3.4501953Q-2.2109375 3.4501953 -2.0175781 3.4091797L-2.0175781 4.0654297Q-2.4160156 4.1591797 -2.8320312 4.1591797Q-3.4179688 4.1591797 -3.6845703 3.8515625Q-3.9511719 3.5439453 -3.9863281 2.8876953L-4.0214844 2.8876953Q-4.4257812 3.6142578 -4.9619141 3.9160156Q-5.4980469 4.2177734 -6.265625 4.2177734ZM-6.0253906 3.4267578Q-5.4453125 3.4267578 -4.9941406 3.1630859Q-4.5429688 2.8994141 -4.2822266 2.4394531Q-4.0214844 1.9794922 -4.0214844 1.4931641L-4.0214844 0.97167969L-5.1757812 0.99511719Q-5.9199219 1.0068359 -6.3037109 1.1474609Q-6.6875 1.2880859 -6.8925781 1.5810547Q-7.0976562 1.8740234 -7.0976562 2.3486328Q-7.0976562 2.8642578 -6.8193359 3.1455078Q-6.5410156 3.4267578 -6.0253906 3.4267578ZM3.5488281 2.3486328Q3.5488281 3.2451172 2.8720703 3.7314453Q2.1953125 4.2177734 0.9765625 4.2177734Q-0.20703125 4.2177734 -0.84863281 3.828125Q-1.4902344 3.4384766 -1.6835938 2.6123047L-0.75195312 2.4306641Q-0.6171875 2.9404297 -0.1953125 3.1777344Q0.2265625 3.4150391 0.9765625 3.4150391Q1.7792969 3.4150391 2.1513672 3.1689453Q2.5234375 2.9228516 2.5234375 2.4306641Q2.5234375 2.0556641 2.265625 1.8212891Q2.0078125 1.5869141 1.4335938 1.4345703L0.67773438 1.2353516Q-0.23046875 1.0009766 -0.61425781 0.77539062Q-0.99804688 0.54980469 -1.2148438 0.22753906Q-1.4316406 -0.094726562 -1.4316406 -0.56347656Q-1.4316406 -1.4306641 -0.81347656 -1.8847656Q-0.1953125 -2.3388672 0.98828125 -2.3388672Q2.0371094 -2.3388672 2.6552734 -1.9697266Q3.2734375 -1.6005859 3.4375 -0.78613281L2.4882812 -0.66894531Q2.4003906 -1.0908203 2.0166016 -1.3164062Q1.6328125 -1.5419922 0.98828125 -1.5419922Q0.2734375 -1.5419922 -0.06640625 -1.3251953Q-0.40625 -1.1083984 -0.40625 -0.66894531Q-0.40625 -0.39941406 -0.265625 -0.22363281Q-0.125 -0.047851562 0.15039062 0.075195312Q0.42578125 0.19824219 1.3105469 0.41503906Q2.1484375 0.62597656 2.5175781 0.8046875Q2.8867188 0.98339844 3.1005859 1.2001953Q3.3144531 1.4169922 3.4316406 1.7011719Q3.5488281 1.9853516 3.5488281 2.3486328ZM5.5996094 1.1533203Q5.5996094 2.2431641 6.0507812 2.8349609Q6.5019531 3.4267578 7.3691406 3.4267578Q8.0546875 3.4267578 8.4677734 3.1513672Q8.8808594 2.8759766 9.0273438 2.4541016L9.953125 2.7177734Q9.3847656 4.2177734 7.3691406 4.2177734Q5.9628906 4.2177734 5.2275391 3.3798828Q4.4921875 2.5419922 4.4921875 0.88964844Q4.4921875 -0.68066406 5.2275391 -1.5185547Q5.9628906 -2.3564453 7.328125 -2.3564453Q10.123047 -2.3564453 10.123047 1.0126953L10.123047 1.1533203L5.5996094 1.1533203ZM9.0332031 0.34472656Q8.9453125 -0.65722656 8.5234375 -1.1171875Q8.1015625 -1.5771484 7.3105469 -1.5771484Q6.5429688 -1.5771484 6.0947266 -1.0644531Q5.6464844 -0.55175781 5.6113281 0.34472656L9.0332031 0.34472656ZM17.992188 -3.2412109L17.992188 4.1005859L16.878906 4.1005859L16.878906 -3.2412109L14.042969 -3.2412109L14.042969 -4.1552734L20.828125 -4.1552734L20.828125 -3.2412109L17.992188 -3.2412109ZM22.199219 4.2177734Q21.244141 4.2177734 20.763672 3.7138672Q20.283203 3.2099609 20.283203 2.3310547Q20.283203 1.3466797 20.930664 0.81933594Q21.578125 0.29199219 23.019531 0.25683594L24.443359 0.23339844L24.443359 -0.11230469Q24.443359 -0.88574219 24.115234 -1.2197266Q23.787109 -1.5537109 23.083984 -1.5537109Q22.375 -1.5537109 22.052734 -1.3134766Q21.730469 -1.0732422 21.666016 -0.54589844L20.564453 -0.64550781Q20.833984 -2.3564453 23.107422 -2.3564453Q24.302734 -2.3564453 24.90625 -1.8085938Q25.509766 -1.2607422 25.509766 -0.22363281L25.509766 2.5068359Q25.509766 2.9755859 25.632812 3.2128906Q25.755859 3.4501953 26.101562 3.4501953Q26.253906 3.4501953 26.447266 3.4091797L26.447266 4.0654297Q26.048828 4.1591797 25.632812 4.1591797Q25.046875 4.1591797 24.780273 3.8515625Q24.513672 3.5439453 24.478516 2.8876953L24.443359 2.8876953Q24.039062 3.6142578 23.50293 3.9160156Q22.966797 4.2177734 22.199219 4.2177734ZM22.439453 3.4267578Q23.019531 3.4267578 23.470703 3.1630859Q23.921875 2.8994141 24.182617 2.4394531Q24.443359 1.9794922 24.443359 1.4931641L24.443359 0.97167969L23.289062 0.99511719Q22.544922 1.0068359 22.161133 1.1474609Q21.777344 1.2880859 21.572266 1.5810547Q21.367188 1.8740234 21.367188 2.3486328Q21.367188 2.8642578 21.645508 3.1455078Q21.923828 3.4267578 22.439453 3.4267578ZM29.658203 6.5908203Q28.621094 6.5908203 28.005859 6.1835938Q27.390625 5.7763672 27.214844 5.0263672L28.275391 4.8740234Q28.380859 5.3134766 28.741211 5.5507812Q29.101562 5.7880859 29.6875 5.7880859Q31.263672 5.7880859 31.263672 3.9423828L31.263672 2.9228516L31.251953 2.9228516Q30.953125 3.5322266 30.431641 3.8398438Q29.910156 4.1474609 29.212891 4.1474609Q28.046875 4.1474609 27.499023 3.3740234Q26.951172 2.6005859 26.951172 0.94238281Q26.951172 -0.73925781 27.540039 -1.5390625Q28.128906 -2.3388672 29.330078 -2.3388672Q30.003906 -2.3388672 30.499023 -2.03125Q30.994141 -1.7236328 31.263672 -1.1552734L31.275391 -1.1552734Q31.275391 -1.3310547 31.298828 -1.7646484Q31.322266 -2.1982422 31.345703 -2.2392578L32.347656 -2.2392578Q32.3125 -1.9228516 32.3125 -0.92675781L32.3125 3.9189453Q32.3125 6.5908203 29.658203 6.5908203ZM31.263672 0.93066406Q31.263672 0.15722656 31.052734 -0.40234375Q30.841797 -0.96191406 30.458008 -1.2578125Q30.074219 -1.5537109 29.587891 -1.5537109Q28.779297 -1.5537109 28.410156 -0.96777344Q28.041016 -0.38183594 28.041016 0.93066406Q28.041016 2.2314453 28.386719 2.7998047Q28.732422 3.3681641 29.570312 3.3681641Q30.068359 3.3681641 30.455078 3.0751953Q30.841797 2.7822266 31.052734 2.234375Q31.263672 1.6865234 31.263672 0.93066406Z"/>
	<path fill="none" stroke="black" stroke-width="1" stroke-miterlimit="10" stroke-opacity="0.10196079" d="M50 749.5L1194 749.5"/>
	<path fill="none" stroke="black" stroke-width="1" stroke-miterlimit="10" stroke-opacity="0.10196079" d="M41.75 749.5L49 749.5"/>
	<path fill="none" stroke="black" stroke-width="1" stroke-miterlimit="10" stroke-opacity="0.10196079" d="M50 681.5L1194 681.5"/>
	<path fill="none" stroke="black" stroke-width="1" stroke-miterlimit="10" stroke-opacity="0.10196079" d="M41.75 681.5L49 681.5"/>
	<path fill="none" stroke="black" stroke-width="1" stroke-miterlimit="10" stroke-opacity="0.10196079" d="M50 613.5L1194 613.5"/>
	<path fill="none" stroke="black" stroke-width="1" stroke-miterlimit="10" stroke-opacity="0.10196079" d="M41.75 613.5L49 613.5"/>
	<path fill="none" stroke="black" stroke-width="1" stroke-miterlimit="10" stroke-opacity="0.10196079" d="M50 545.5L1194 545.5"/>
	<path fill="none" stroke="black" stroke-width="1" stroke-miterlimit="10" stroke-opacity="0.10196079" d="M41.75 545.5L49 545.5"/>
	<path fill="none" stroke="black" stroke-width="1" stroke-miterlimit="10" stroke-opacity="0.10196079" d="M50 478.5L1194 478.5"/>
	<path fill="none" stroke="black" stroke-width="1" stroke-miterlimit="10" stroke-opacity="0.10196079" d="M41.75 478.5L49 478.5"/>
	<path fill="none" stroke="black" stroke-width="1" stroke-miterlimit="10" stroke-opacity="0.10196079" d="M50 410.5L1194 410.5"/>
	<path fill="none" stroke="black" stroke-width="1" stroke-miterlimit="10" stroke-opacity="0.10196079" d="M41.75 410.5L49 410.5"/>
	<path fill="none" stroke="black" stroke-width="1" stroke-miterlimit="10" stroke-opacity="0.10196079" d="M50 342.5L1194 342.5"/>
	<path fill="none" stroke="black" stroke-width="1" stroke-miterlimit="10" stroke-opacity="0.10196079" d="M41.75 342.5L49 342.5"/>
	<path fill="none" stroke="black" stroke-width="1" stroke-miterlimit="10" stroke-opacity="0.10196079" d="M50 274.5L1194 274.5"/>
	<path fill="none" stroke="black" stroke-width="1" stroke-miterlimit="10" stroke-opacity="0.10196079" d="M41.75 274.5L49 274.5"/>
	<path fill="none" stroke="black" stroke-width="1" stroke-miterlimit="10" stroke-opacity="0.10196079" d="M50 206.5L1194 206.5"/>
	<path fill="none" stroke="black" stroke-width="1" stroke-miterlimit="10" stroke-opacity="0.10196079" d="M41.75 206.5L49 206.5"/>
	<path fill="none" stroke="black" stroke-width="1" stroke-miterlimit="10" stroke-opacity="0.10196079" d="M50 139.5L1194 139.5"/>
	<path fill="none" stroke="black" stroke-width="1" stroke-miterlimit="10" stroke-opacity="0.10196079" d="M41.75 139.5L49 139.5"/>
	<path fill="none" stroke="black" stroke-width="1" stroke-miterlimit="10" stroke-opacity="0.10196079" d="M50 71.5L1194 71.5"/>
	<path fill="none" stroke="black" stroke-width="1" stroke-miterlimit="10" stroke-opacity="0.10196079" d="M41.75 71.5L49 71.5"/>
	<path fill="#666" transform="matrix(0 -1 1 0 11.2 410.2)" d="M-21.591797 -0.11230469Q-21.591797 1.1650391 -22.089844 2.1230469Q-22.587891 3.0810547 -23.501953 3.5908203Q-24.416016 4.1005859 -25.611328 4.1005859L-28.699219 4.1005859L-28.699219 -4.1552734L-25.96875 -4.1552734Q-23.871094 -4.1552734 -22.731445 -3.1035156Q-21.591797 -2.0517578 -21.591797 -0.11230469ZM-22.716797 -0.11230469Q-22.716797 -1.6474609 -23.557617 -2.453125Q-24.398438 -3.2587891 -25.992188 -3.2587891L-27.580078 -3.2587891L-27.580078 3.2041016L-25.740234 3.2041016Q-24.832031 3.2041016 -24.143555 2.8056641Q-23.455078 2.4072266 -23.085938 1.6572266Q-22.716797 0.90722656 -22.716797 -0.11230469ZM-14.847656 0.92480469Q-14.847656 2.5888672 -15.580078 3.4033203Q-16.3125 4.2177734 -17.707031 4.2177734Q-19.095703 4.2177734 -19.804688 3.3710938Q-20.513672 2.5244141 -20.513672 0.92480469Q-20.513672 -2.3564453 -17.671875 -2.3564453Q-16.21875 -2.3564453 -15.533203 -1.5566406Q-14.847656 -0.75683594 -14.847656 0.92480469ZM-15.955078 0.92480469Q-15.955078 -0.38769531 -16.344727 -0.98242188Q-16.734375 -1.5771484 -17.654297 -1.5771484Q-18.580078 -1.5771484 -18.993164 -0.97070312Q-19.40625 -0.36425781 -19.40625 0.92480469Q-19.40625 2.1787109 -18.999023 2.8085938Q-18.591797 3.4384766 -17.71875 3.4384766Q-16.769531 3.4384766 -16.362305 2.8291016Q-15.955078 2.2197266 -15.955078 0.92480469ZM-7.4648438 4.1005859L-8.6894531 4.1005859L-9.796875 -0.38183594L-10.007812 -1.3720703Q-10.060547 -1.1083984 -10.171875 -0.61328125Q-10.283203 -0.11816406 -11.367188 4.1005859L-12.585938 4.1005859L-14.361328 -2.2392578L-13.318359 -2.2392578L-12.246094 2.0673828Q-12.205078 2.2080078 -11.994141 3.2275391L-11.894531 2.7939453L-10.570312 -2.2392578L-9.4394531 -2.2392578L-8.3320312 2.1142578L-8.0625 3.2275391L-7.8808594 2.4130859L-6.6796875 -2.2392578L-5.6484375 -2.2392578L-7.4648438 4.1005859ZM-0.84375 4.1005859L-0.84375 0.081054688Q-0.84375 -0.54589844 -0.96679688 -0.89160156Q-1.0898438 -1.2373047 -1.359375 -1.3896484Q-1.6289062 -1.5419922 -2.1503906 -1.5419922Q-2.9121094 -1.5419922 -3.3515625 -1.0205078Q-3.7910156 -0.49902344 -3.7910156 0.42675781L-3.7910156 4.1005859L-4.8457031 4.1005859L-4.8457031 -0.88574219Q-4.8457031 -1.9931641 -4.8808594 -2.2392578L-3.8847656 -2.2392578Q-3.8789062 -2.2099609 -3.8730469 -2.0810547Q-3.8671875 -1.9521484 -3.8583984 -1.7851562Q-3.8496094 -1.6181641 -3.8378906 -1.1552734L-3.8203125 -1.1552734Q-3.4570312 -1.8115234 -2.9794922 -2.0839844Q-2.5019531 -2.3564453 -1.7929688 -2.3564453Q-0.75 -2.3564453 -0.26660156 -1.8378906Q0.21679688 -1.3193359 0.21679688 -0.12402344L0.21679688 4.1005859L-0.84375 4.1005859ZM1.8046875 4.1005859L1.8046875 -4.5947266L2.859375 -4.5947266L2.859375 4.1005859L1.8046875 4.1005859ZM9.8320312 0.92480469Q9.8320312 2.5888672 9.0996094 3.4033203Q8.3671875 4.2177734 6.9726562 4.2177734Q5.5839844 4.2177734 4.875 3.3710938Q4.1660156 2.5244141 4.1660156 0.92480469Q4.1660156 -2.3564453 7.0078125 -2.3564453Q8.4609375 -2.3564453 9.1464844 -1.5566406Q9.8320312 -0.75683594 9.8320312 0.92480469ZM8.7246094 0.92480469Q8.7246094 -0.38769531 8.3349609 -0.98242188Q7.9453125 -1.5771484 7.0253906 -1.5771484Q6.0996094 -1.5771484 5.6865234 -0.97070312Q5.2734375 -0.36425781 5.2734375 0.92480469Q5.2734375 2.1787109 5.6806641 2.8085938Q6.0878906 3.4384766 6.9609375 3.4384766Q7.9101562 3.4384766 8.3173828 2.8291016Q8.7246094 2.2197266 8.7246094 0.92480469ZM12.761719 4.2177734Q11.806641 4.2177734 11.326172 3.7138672Q10.845703 3.2099609 10.845703 2.3310547Q10.845703 1.3466797 11.493164 0.81933594Q12.140625 0.29199219 13.582031 0.25683594L15.005859 0.23339844L15.005859 -0.11230469Q15.005859 -0.88574219 14.677734 -1.2197266Q14.349609 -1.5537109 13.646484 -1.5537109Q12.9375 -1.5537109 12.615234 -1.3134766Q12.292969 -1.0732422 12.228516 -0.54589844L11.126953 -0.64550781Q11.396484 -2.3564453 13.669922 -2.3564453Q14.865234 -2.3564453 15.46875 -1.8085938Q16.072266 -1.2607422 16.072266 -0.22363281L16.072266 2.5068359Q16.072266 2.9755859 16.195312 3.2128906Q16.318359 3.4501953 16.664062 3.4501953Q16.816406 3.4501953 17.009766 3.4091797L17.009766 4.0654297Q16.611328 4.1591797 16.195312 4.1591797Q15.609375 4.1591797 15.342773 3.8515625Q15.076172 3.5439453 15.041016 2.8876953L15.005859 2.8876953Q14.601562 3.6142578 14.06543 3.9160156Q13.529297 4.2177734 12.761719 4.2177734ZM13.001953 3.4267578Q13.582031 3.4267578 14.033203 3.1630859Q14.484375 2.8994141 14.745117 2.4394531Q15.005859 1.9794922 15.005859 1.4931641L15.005859 0.97167969L13.851562 0.99511719Q13.107422 1.0068359 12.723633 1.1474609Q12.339844 1.2880859 12.134766 1.5810547Q11.929688 1.8740234 11.929688 2.3486328Q11.929688 2.8642578 12.208008 3.1455078Q12.486328 3.4267578 13.001953 3.4267578ZM21.820312 3.0810547Q21.527344 3.6904297 21.043945 3.9541016Q20.560547 4.2177734 19.845703 4.2177734Q18.644531 4.2177734 18.079102 3.4091797Q17.513672 2.6005859 17.513672 0.95996094Q17.513672 -2.3564453 19.845703 -2.3564453Q20.566406 -2.3564453 21.046875 -2.0927734Q21.527344 -1.8291016 21.820312 -1.2548828L21.832031 -1.2548828L21.820312 -1.9638672L21.820312 -4.5947266L22.875 -4.5947266L22.875 2.7939453Q22.875 3.7841797 22.910156 4.1005859L21.902344 4.1005859Q21.884766 4.0068359 21.864258 3.6669922Q21.84375 3.3271484 21.84375 3.0810547L21.820312 3.0810547ZM18.621094 0.92480469Q18.621094 2.2548828 18.972656 2.8291016Q19.324219 3.4033203 20.115234 3.4033203Q21.011719 3.4033203 21.416016 2.7822266Q21.820312 2.1611328 21.820312 0.85449219Q21.820312 -0.40527344 21.416016 -0.99121094Q21.011719 -1.5771484 20.126953 -1.5771484Q19.330078 -1.5771484 18.975586 -0.98828125Q18.621094 -0.39941406 18.621094 0.92480469ZM29.25 2.3486328Q29.25 3.2451172 28.573242 3.7314453Q27.896484 4.2177734 26.677734 4.2177734Q25.494141 4.2177734 24.852539 3.828125Q24.210938 3.4384766 24.017578 2.6123047L24.949219 2.4306641Q25.083984 2.9404297 25.505859 3.1777344Q25.927734 3.4150391 26.677734 3.4150391Q27.480469 3.4150391 27.852539 3.1689453Q28.224609 2.9228516 28.224609 2.4306641Q28.224609 2.0556641 27.966797 1.8212891Q27.708984 1.5869141 27.134766 1.4345703L26.378906 1.2353516Q25.470703 1.0009766 25.086914 0.77539062Q24.703125 0.54980469 24.486328 0.22753906Q24.269531 -0.094726562 24.269531 -0.56347656Q24.269531 -1.4306641 24.887695 -1.8847656Q25.505859 -2.3388672 26.689453 -2.3388672Q27.738281 -2.3388672 28.356445 -1.9697266Q28.974609 -1.6005859 29.138672 -0.78613281L28.189453 -0.66894531Q28.101562 -1.0908203 27.717773 -1.3164062Q27.333984 -1.5419922 26.689453 -1.5419922Q25.974609 -1.5419922 25.634766 -1.3251953Q25.294922 -1.1083984 25.294922 -0.66894531Q25.294922 -0.39941406 25.435547 -0.22363281Q25.576172 -0.047851562 25.851562 0.075195312Q26.126953 0.19824219 27.011719 0.41503906Q27.849609 0.62597656 28.21875 0.8046875Q28.587891 0.98339844 28.801758 1.2001953Q29.015625 1.4169922 29.132812 1.7011719Q29.25 1.9853516 29.25 2.3486328Z"/>
	<clipPath id="cl_567">
		<rect y="39.200001" width="1200" height="31.999996"/>
	</clipPath>
	<g clip-path="url(#cl_567)">
		<path fill="#C32222" fill-opacity="0.2" d="M569.33002 49.200001L609.33002 49.200001L609.33002 61.200001L569.33002 61.200001L569.33002 49.200001Z"/>
		<path fill="none" stroke="#C32222" stroke-width="2" stroke-miterlimit="10" d="M569.33002 49.200001L609.33002 49.200001L609.33002 61.200001L569.33002 61.200001L569.33002 49.200001Z"/>
	</g>
	<clipPath id="cl_568">
		<rect y="39.200001" width="1200" height="31.999996"/>
	</clipPath>
	<g clip-path="url(#cl_568)">
		<path fill="#666" d="M615.81635 59.300587L615.81635 58.497852L619.36127 53.775196L616.01556 53.775196L616.01556 52.960743L620.60931 52.960743L620.60931 53.763477L617.05853 58.486134L620.73236 58.486134L620.73236 59.300587L615.81635 59.300587ZM622.13275 51.613087L622.13275 50.605274L623.18744 50.605274L623.18744 51.613087L622.13275 51.613087ZM622.13275 59.300587L622.13275 52.960743L623.18744 52.960743L623.18744 59.300587L622.13275 59.300587ZM630.16595 56.101368Q630.16595 59.417774 627.83392 59.417774Q626.36908 59.417774 625.86517 58.316212L625.83588 58.316212Q625.85931 58.363087 625.85931 59.312305L625.85931 61.790821L624.80463 61.790821L624.80463 54.255665Q624.80463 53.277149 624.76947 52.960743L625.789 52.960743Q625.79486 52.98418 625.80658 53.127735Q625.8183 53.27129 625.83295 53.570118Q625.8476 53.868946 625.8476 53.980274L625.87103 53.980274Q626.15228 53.394337 626.61517 53.121876Q627.07806 52.849415 627.83392 52.849415Q629.0058 52.849415 629.58588 53.634571Q630.16595 54.419727 630.16595 56.101368ZM629.05853 56.124805Q629.05853 54.800587 628.70111 54.232227Q628.34369 53.663868 627.56439 53.663868Q626.93744 53.663868 626.58295 53.92754Q626.22845 54.191212 626.04388 54.750782Q625.85931 55.310352 625.85931 56.206837Q625.85931 57.454884 626.25775 58.04668Q626.65619 58.638477 627.55267 58.638477Q628.33783 58.638477 628.69818 58.061329Q629.05853 57.48418 629.05853 56.124805Z"/>
	</g>
	<path fill="#666" transform="translate(600 19.6)" d="M-221.39453 3.3320312Q-221.39453 4.5585938 -222.39844 5.2578125Q-223.40234 5.9570312 -225.17578 5.9570312Q-226.91797 5.9570312 -227.84375 5.40625Q-228.76953 4.8554688 -229.07422 3.6914062L-227.14453 3.4023438Q-226.98047 4.0039062 -226.57812 4.2539062Q-226.17578 4.5039062 -225.17578 4.5039062Q-224.25391 4.5039062 -223.83203 4.2695312Q-223.41016 4.0351562 -223.41016 3.5351562Q-223.41016 3.1289062 -223.75 2.890625Q-224.08984 2.6523438 -224.90234 2.4882812Q-226.76172 2.1210938 -227.41016 1.8046875Q-228.05859 1.4882812 -228.39844 0.984375Q-228.73828 0.48046875 -228.73828 -0.25390625Q-228.73828 -1.4648438 -227.80469 -2.140625Q-226.87109 -2.8164062 -225.16016 -2.8164062Q-223.65234 -2.8164062 -222.73438 -2.2304688Q-221.81641 -1.6445312 -221.58984 -0.53515625L-223.53516 -0.33203125Q-223.62891 -0.84765625 -223.99609 -1.1015625Q-224.36328 -1.3554688 -225.16016 -1.3554688Q-225.94141 -1.3554688 -226.33203 -1.15625Q-226.72266 -0.95703125 -226.72266 -0.48828125Q-226.72266 -0.12109375 -226.42188 0.09375Q-226.12109 0.30859375 -225.41016 0.44921875Q-224.41797 0.65234375 -223.64844 0.8671875Q-222.87891 1.0820312 -222.41406 1.3789062Q-221.94922 1.6757812 -221.67188 2.140625Q-221.39453 2.6054688 -221.39453 3.3320312ZM-217.66797 5.9570312Q-218.89453 5.9570312 -219.58203 5.2890625Q-220.26953 4.6210938 -220.26953 3.4101562Q-220.26953 2.0976562 -219.41406 1.4101562Q-218.55859 0.72265625 -216.93359 0.70703125L-215.11328 0.67578125L-215.11328 0.24609375Q-215.11328 -0.58203125 -215.40234 -0.984375Q-215.69141 -1.3867188 -216.34766 -1.3867188Q-216.95703 -1.3867188 -217.24219 -1.109375Q-217.52734 -0.83203125 -217.59766 -0.19140625L-219.88672 -0.30078125Q-219.67578 -1.5351562 -218.75781 -2.171875Q-217.83984 -2.8085938 -216.25391 -2.8085938Q-214.65234 -2.8085938 -213.78516 -2.0195312Q-212.91797 -1.2304688 -212.91797 0.22265625L-212.91797 3.3007812Q-212.91797 4.0117188 -212.75781 4.28125Q-212.59766 4.5507812 -212.22266 4.5507812Q-211.97266 4.5507812 -211.73828 4.5039062L-211.73828 5.6914062Q-211.93359 5.7382812 -212.08984 5.7773438Q-212.24609 5.8164062 -212.40234 5.8398438Q-212.55859 5.8632812 -212.73438 5.8789062Q-212.91016 5.8945312 -213.14453 5.8945312Q-213.97266 5.8945312 -214.36719 5.4882812Q-214.76172 5.0820312 -214.83984 4.2929688L-214.88672 4.2929688Q-215.80859 5.9570312 -217.66797 5.9570312ZM-215.11328 1.8867188L-216.23828 1.9023438Q-217.00391 1.9335938 -217.32422 2.0703125Q-217.64453 2.2070312 -217.8125 2.4882812Q-217.98047 2.7695312 -217.98047 3.2382812Q-217.98047 3.8398438 -217.70312 4.1328125Q-217.42578 4.4257812 -216.96484 4.4257812Q-216.44922 4.4257812 -216.02344 4.1445312Q-215.59766 3.8632812 -215.35547 3.3671875Q-215.11328 2.8710938 -215.11328 2.3164062L-215.11328 1.8867188ZM-210.72266 -4.1757812L-210.72266 -5.7929688L-208.52734 -5.7929688L-208.52734 -4.1757812L-210.72266 -4.1757812ZM-210.72266 5.8007812L-210.72266 -2.6523438L-208.52734 -2.6523438L-208.52734 5.8007812L-210.72266 5.8007812ZM-206.27734 5.8007812L-206.27734 -5.7929688L-204.08203 -5.7929688L-204.08203 5.8007812L-206.27734 5.8007812ZM-193.83203 1.5351562Q-193.83203 3.6523438 -194.67969 4.8046875Q-195.52734 5.9570312 -197.07422 5.9570312Q-197.96484 5.9570312 -198.625 5.5703125Q-199.28516 5.1835938 -199.63672 4.4570312L-199.68359 4.4570312Q-199.63672 4.6914062 -199.63672 5.8789062L-199.63672 9.1210938L-201.83203 9.1210938L-201.83203 -0.70703125Q-201.83203 -1.9023438 -201.89453 -2.6523438L-199.76172 -2.6523438Q-199.72266 -2.5117188 -199.69531 -2.0976562Q-199.66797 -1.6835938 -199.66797 -1.2773438L-199.63672 -1.2773438Q-198.89453 -2.8320312 -196.93359 -2.8320312Q-195.45703 -2.8320312 -194.64453 -1.6953125Q-193.83203 -0.55859375 -193.83203 1.5351562ZM-196.12109 1.5351562Q-196.12109 -1.3085938 -197.86328 -1.3085938Q-198.73828 -1.3085938 -199.20312 -0.54296875Q-199.66797 0.22265625 -199.66797 1.5976562Q-199.66797 2.9648438 -199.20312 3.7109375Q-198.73828 4.4570312 -197.87891 4.4570312Q-196.12109 4.4570312 -196.12109 1.5351562ZM-184.02734 1.5664062Q-184.02734 3.6210938 -185.16797 4.7890625Q-186.30859 5.9570312 -188.32422 5.9570312Q-190.30078 5.9570312 -191.42578 4.7851562Q-192.55078 3.6132812 -192.55078 1.5664062Q-192.55078 -0.47265625 -191.42578 -1.640625Q-190.30078 -2.8085938 -188.27734 -2.8085938Q-186.20703 -2.8085938 -185.11719 -1.6796875Q-184.02734 -0.55078125 -184.02734 1.5664062ZM-186.32422 1.5664062Q-186.32422 0.05859375 -186.81641 -0.62109375Q-187.30859 -1.3007812 -188.24609 -1.3007812Q-190.24609 -1.3007812 -190.24609 1.5664062Q-190.24609 2.9804688 -189.75781 3.71875Q-189.26953 4.4570312 -188.34766 4.4570312Q-186.32422 4.4570312 -186.32422 1.5664062ZM-182.28516 -4.1757812L-182.28516 -5.7929688L-180.08984 -5.7929688L-180.08984 -4.1757812L-182.28516 -4.1757812ZM-182.28516 5.8007812L-182.28516 -2.6523438L-180.08984 -2.6523438L-180.08984 5.8007812L-182.28516 5.8007812ZM-172.36328 5.8007812L-172.36328 1.0585938Q-172.36328 -1.1679688 -173.87109 -1.1679688Q-174.66797 -1.1679688 -175.15625 -0.484375Q-175.64453 0.19921875 -175.64453 1.2695312L-175.64453 5.8007812L-177.83984 5.8007812L-177.83984 -0.76171875Q-177.83984 -1.4414062 -177.85938 -1.875Q-177.87891 -2.3085938 -177.90234 -2.6523438L-175.80859 -2.6523438Q-175.78516 -2.5039062 -175.74609 -1.859375Q-175.70703 -1.2148438 -175.70703 -0.97265625L-175.67578 -0.97265625Q-175.23047 -1.9414062 -174.55859 -2.3789062Q-173.88672 -2.8164062 -172.95703 -2.8164062Q-171.61328 -2.8164062 -170.89453 -1.9882812Q-170.17578 -1.1601562 -170.17578 0.43359375L-170.17578 5.8007812L-172.36328 5.8007812ZM-165.90234 5.9414062Q-166.87109 5.9414062 -167.39453 5.4140625Q-167.91797 4.8867188 -167.91797 3.8164062L-167.91797 -1.1679688L-168.98828 -1.1679688L-168.98828 -2.6523438L-167.80859 -2.6523438L-167.12109 -4.6367188L-165.74609 -4.6367188L-165.74609 -2.6523438L-164.14453 -2.6523438L-164.14453 -1.1679688L-165.74609 -1.1679688L-165.74609 3.2226562Q-165.74609 3.8398438 -165.51172 4.1328125Q-165.27734 4.4257812 -164.78516 4.4257812Q-164.52734 4.4257812 -164.05078 4.3164062L-164.05078 5.6757812Q-164.86328 5.9414062 -165.90234 5.9414062ZM-163.23047 2.6054688L-163.23047 0.69921875L-159.16797 0.69921875L-159.16797 2.6054688L-163.23047 2.6054688ZM-149.37891 1.5664062Q-149.37891 3.6210938 -150.51953 4.7890625Q-151.66016 5.9570312 -153.67578 5.9570312Q-155.65234 5.9570312 -156.77734 4.7851562Q-157.90234 3.6132812 -157.90234 1.5664062Q-157.90234 -0.47265625 -156.77734 -1.640625Q-155.65234 -2.8085938 -153.62891 -2.8085938Q-151.55859 -2.8085938 -150.46875 -1.6796875Q-149.37891 -0.55078125 -149.37891 1.5664062ZM-151.67578 1.5664062Q-151.67578 0.05859375 -152.16797 -0.62109375Q-152.66016 -1.3007812 -153.59766 -1.3007812Q-155.59766 -1.3007812 -155.59766 1.5664062Q-155.59766 2.9804688 -155.10938 3.71875Q-154.62109 4.4570312 -153.69922 4.4570312Q-151.67578 4.4570312 -151.67578 1.5664062ZM-140.51172 3.3320312Q-140.51172 4.5585938 -141.51562 5.2578125Q-142.51953 5.9570312 -144.29297 5.9570312Q-146.03516 5.9570312 -146.96094 5.40625Q-147.88672 4.8554688 -148.19141 3.6914062L-146.26172 3.4023438Q-146.09766 4.0039062 -145.69531 4.2539062Q-145.29297 4.5039062 -144.29297 4.5039062Q-143.37109 4.5039062 -142.94922 4.2695312Q-142.52734 4.0351562 -142.52734 3.5351562Q-142.52734 3.1289062 -142.86719 2.890625Q-143.20703 2.6523438 -144.01953 2.4882812Q-145.87891 2.1210938 -146.52734 1.8046875Q-147.17578 1.4882812 -147.51562 0.984375Q-147.85547 0.48046875 -147.85547 -0.25390625Q-147.85547 -1.4648438 -146.92188 -2.140625Q-145.98828 -2.8164062 -144.27734 -2.8164062Q-142.76953 -2.8164062 -141.85156 -2.2304688Q-140.93359 -1.6445312 -140.70703 -0.53515625L-142.65234 -0.33203125Q-142.74609 -0.84765625 -143.11328 -1.1015625Q-143.48047 -1.3554688 -144.27734 -1.3554688Q-145.05859 -1.3554688 -145.44922 -1.15625Q-145.83984 -0.95703125 -145.83984 -0.48828125Q-145.83984 -0.12109375 -145.53906 0.09375Q-145.23828 0.30859375 -144.52734 0.44921875Q-143.53516 0.65234375 -142.76562 0.8671875Q-141.99609 1.0820312 -141.53125 1.3789062Q-141.06641 1.6757812 -140.78906 2.140625Q-140.51172 2.6054688 -140.51172 3.3320312ZM-131.61328 3.3320312Q-131.61328 4.5585938 -132.61719 5.2578125Q-133.62109 5.9570312 -135.39453 5.9570312Q-137.13672 5.9570312 -138.0625 5.40625Q-138.98828 4.8554688 -139.29297 3.6914062L-137.36328 3.4023438Q-137.19922 4.0039062 -136.79688 4.2539062Q-136.39453 4.5039062 -135.39453 4.5039062Q-134.47266 4.5039062 -134.05078 4.2695312Q-133.62891 4.0351562 -133.62891 3.5351562Q-133.62891 3.1289062 -133.96875 2.890625Q-134.30859 2.6523438 -135.12109 2.4882812Q-136.98047 2.1210938 -137.62891 1.8046875Q-138.27734 1.4882812 -138.61719 0.984375Q-138.95703 0.48046875 -138.95703 -0.25390625Q-138.95703 -1.4648438 -138.02344 -2.140625Q-137.08984 -2.8164062 -135.37891 -2.8164062Q-133.87109 -2.8164062 -132.95312 -2.2304688Q-132.03516 -1.6445312 -131.80859 -0.53515625L-133.75391 -0.33203125Q-133.84766 -0.84765625 -134.21484 -1.1015625Q-134.58203 -1.3554688 -135.37891 -1.3554688Q-136.16016 -1.3554688 -136.55078 -1.15625Q-136.94141 -0.95703125 -136.94141 -0.48828125Q-136.94141 -0.12109375 -136.64062 0.09375Q-136.33984 0.30859375 -135.62891 0.44921875Q-134.63672 0.65234375 -133.86719 0.8671875Q-133.09766 1.0820312 -132.63281 1.3789062Q-132.16797 1.6757812 -131.89062 2.140625Q-131.61328 2.6054688 -131.61328 3.3320312ZM-130.80078 6.1210938L-128.52734 -5.7929688L-126.66797 -5.7929688L-128.90234 6.1210938L-130.80078 6.1210938ZM-121.87109 5.9570312Q-123.79297 5.9570312 -124.83984 4.8125Q-125.88672 3.6679688 -125.88672 1.6210938Q-125.88672 -0.47265625 -124.83203 -1.640625Q-123.77734 -2.8085938 -121.83984 -2.8085938Q-120.34766 -2.8085938 -119.37109 -2.0585938Q-118.39453 -1.3085938 -118.14453 0.01171875L-120.35547 0.12109375Q-120.44922 -0.52734375 -120.82422 -0.9140625Q-121.19922 -1.3007812 -121.88672 -1.3007812Q-123.58203 -1.3007812 -123.58203 1.5351562Q-123.58203 4.4570312 -121.85547 4.4570312Q-121.23047 4.4570312 -120.80859 4.0625Q-120.38672 3.6679688 -120.28516 2.8867188L-118.08203 2.9882812Q-118.19922 3.8554688 -118.70312 4.5351562Q-119.20703 5.2148438 -120.02734 5.5859375Q-120.84766 5.9570312 -121.87109 5.9570312ZM-108.46484 1.5664062Q-108.46484 3.6210938 -109.60547 4.7890625Q-110.74609 5.9570312 -112.76172 5.9570312Q-114.73828 5.9570312 -115.86328 4.7851562Q-116.98828 3.6132812 -116.98828 1.5664062Q-116.98828 -0.47265625 -115.86328 -1.640625Q-114.73828 -2.8085938 -112.71484 -2.8085938Q-110.64453 -2.8085938 -109.55469 -1.6796875Q-108.46484 -0.55078125 -108.46484 1.5664062ZM-110.76172 1.5664062Q-110.76172 0.05859375 -111.25391 -0.62109375Q-111.74609 -1.3007812 -112.68359 -1.3007812Q-114.68359 -1.3007812 -114.68359 1.5664062Q-114.68359 2.9804688 -114.19531 3.71875Q-113.70703 4.4570312 -112.78516 4.4570312Q-110.76172 4.4570312 -110.76172 1.5664062ZM-106.72266 5.8007812L-106.72266 -5.7929688L-104.52734 -5.7929688L-104.52734 5.8007812L-106.72266 5.8007812ZM-100.32422 5.9570312Q-101.55078 5.9570312 -102.23828 5.2890625Q-102.92578 4.6210938 -102.92578 3.4101562Q-102.92578 2.0976562 -102.07031 1.4101562Q-101.21484 0.72265625 -99.589844 0.70703125L-97.769531 0.67578125L-97.769531 0.24609375Q-97.769531 -0.58203125 -98.058594 -0.984375Q-98.347656 -1.3867188 -99.003906 -1.3867188Q-99.613281 -1.3867188 -99.898438 -1.109375Q-100.18359 -0.83203125 -100.25391 -0.19140625L-102.54297 -0.30078125Q-102.33203 -1.5351562 -101.41406 -2.171875Q-100.49609 -2.8085938 -98.910156 -2.8085938Q-97.308594 -2.8085938 -96.441406 -2.0195312Q-95.574219 -1.2304688 -95.574219 0.22265625L-95.574219 3.3007812Q-95.574219 4.0117188 -95.414062 4.28125Q-95.253906 4.5507812 -94.878906 4.5507812Q-94.628906 4.5507812 -94.394531 4.5039062L-94.394531 5.6914062Q-94.589844 5.7382812 -94.746094 5.7773438Q-94.902344 5.8164062 -95.058594 5.8398438Q-95.214844 5.8632812 -95.390625 5.8789062Q-95.566406 5.8945312 -95.800781 5.8945312Q-96.628906 5.8945312 -97.023438 5.4882812Q-97.417969 5.0820312 -97.496094 4.2929688L-97.542969 4.2929688Q-98.464844 5.9570312 -100.32422 5.9570312ZM-97.769531 1.8867188L-98.894531 1.9023438Q-99.660156 1.9335938 -99.980469 2.0703125Q-100.30078 2.2070312 -100.46875 2.4882812Q-100.63672 2.7695312 -100.63672 3.2382812Q-100.63672 3.8398438 -100.35938 4.1328125Q-100.08203 4.4257812 -99.621094 4.4257812Q-99.105469 4.4257812 -98.679688 4.1445312Q-98.253906 3.8632812 -98.011719 3.3671875Q-97.769531 2.8710938 -97.769531 2.3164062L-97.769531 1.8867188ZM-85.378906 1.5429688Q-85.378906 3.6367188 -86.21875 4.796875Q-87.058594 5.9570312 -88.621094 5.9570312Q-89.519531 5.9570312 -90.175781 5.5664062Q-90.832031 5.1757812 -91.183594 4.4414062L-91.199219 4.4414062Q-91.199219 4.7148438 -91.234375 5.1914062Q-91.269531 5.6679688 -91.308594 5.8007812L-93.441406 5.8007812Q-93.378906 5.0742188 -93.378906 3.8710938L-93.378906 -5.7929688L-91.183594 -5.7929688L-91.183594 -2.5585938L-91.214844 -1.1835938L-91.183594 -1.1835938Q-90.441406 -2.8085938 -88.480469 -2.8085938Q-86.980469 -2.8085938 -86.179688 -1.671875Q-85.378906 -0.53515625 -85.378906 1.5429688ZM-87.667969 1.5429688Q-87.667969 0.10546875 -88.089844 -0.58984375Q-88.511719 -1.2851562 -89.394531 -1.2851562Q-90.285156 -1.2851562 -90.75 -0.5390625Q-91.214844 0.20703125 -91.214844 1.6132812Q-91.214844 2.9570312 -90.757812 3.7070312Q-90.300781 4.4570312 -89.410156 4.4570312Q-87.667969 4.4570312 -87.667969 1.5429688ZM-84.097656 2.6054688L-84.097656 0.69921875L-80.035156 0.69921875L-80.035156 2.6054688L-84.097656 2.6054688ZM-71.152344 3.3320312Q-71.152344 4.5585938 -72.15625 5.2578125Q-73.160156 5.9570312 -74.933594 5.9570312Q-76.675781 5.9570312 -77.601562 5.40625Q-78.527344 4.8554688 -78.832031 3.6914062L-76.902344 3.4023438Q-76.738281 4.0039062 -76.335938 4.2539062Q-75.933594 4.5039062 -74.933594 4.5039062Q-74.011719 4.5039062 -73.589844 4.2695312Q-73.167969 4.0351562 -73.167969 3.5351562Q-73.167969 3.1289062 -73.507812 2.890625Q-73.847656 2.6523438 -74.660156 2.4882812Q-76.519531 2.1210938 -77.167969 1.8046875Q-77.816406 1.4882812 -78.15625 0.984375Q-78.496094 0.48046875 -78.496094 -0.25390625Q-78.496094 -1.4648438 -77.5625 -2.140625Q-76.628906 -2.8164062 -74.917969 -2.8164062Q-73.410156 -2.8164062 -72.492188 -2.2304688Q-71.574219 -1.6445312 -71.347656 -0.53515625L-73.292969 -0.33203125Q-73.386719 -0.84765625 -73.753906 -1.1015625Q-74.121094 -1.3554688 -74.917969 -1.3554688Q-75.699219 -1.3554688 -76.089844 -1.15625Q-76.480469 -0.95703125 -76.480469 -0.48828125Q-76.480469 -0.12109375 -76.179688 0.09375Q-75.878906 0.30859375 -75.167969 0.44921875Q-74.175781 0.65234375 -73.40625 0.8671875Q-72.636719 1.0820312 -72.171875 1.3789062Q-71.707031 1.6757812 -71.429688 2.140625Q-71.152344 2.6054688 -71.152344 3.3320312ZM-69.378906 -4.1757812L-69.378906 -5.7929688L-67.183594 -5.7929688L-67.183594 -4.1757812L-69.378906 -4.1757812ZM-69.378906 5.8007812L-69.378906 -2.6523438L-67.183594 -2.6523438L-67.183594 5.8007812L-69.378906 5.8007812ZM-61.472656 5.9570312Q-63.378906 5.9570312 -64.402344 4.828125Q-65.425781 3.6992188 -65.425781 1.5351562Q-65.425781 -0.55859375 -64.386719 -1.6835938Q-63.347656 -2.8085938 -61.441406 -2.8085938Q-59.621094 -2.8085938 -58.660156 -1.6015625Q-57.699219 -0.39453125 -57.699219 1.9335938L-57.699219 1.9960938L-63.121094 1.9960938Q-63.121094 3.2304688 -62.664062 3.859375Q-62.207031 4.4882812 -61.363281 4.4882812Q-60.199219 4.4882812 -59.894531 3.4804688L-57.824219 3.6601562Q-58.722656 5.9570312 -61.472656 5.9570312ZM-61.472656 -1.4257812Q-62.246094 -1.4257812 -62.664062 -0.88671875Q-63.082031 -0.34765625 -63.105469 0.62109375L-59.824219 0.62109375Q-59.886719 -0.40234375 -60.316406 -0.9140625Q-60.746094 -1.4257812 -61.472656 -1.4257812ZM-51.058594 5.8007812L-51.058594 1.0585938Q-51.058594 -1.1679688 -52.339844 -1.1679688Q-53.003906 -1.1679688 -53.421875 -0.48828125Q-53.839844 0.19140625 -53.839844 1.2695312L-53.839844 5.8007812L-56.035156 5.8007812L-56.035156 -0.76171875Q-56.035156 -1.4414062 -56.054688 -1.875Q-56.074219 -2.3085938 -56.097656 -2.6523438L-54.003906 -2.6523438Q-53.980469 -2.5039062 -53.941406 -1.859375Q-53.902344 -1.2148438 -53.902344 -0.97265625L-53.871094 -0.97265625Q-53.464844 -1.9414062 -52.859375 -2.3789062Q-52.253906 -2.8164062 -51.410156 -2.8164062Q-49.472656 -2.8164062 -49.058594 -0.97265625L-49.011719 -0.97265625Q-48.582031 -1.9570312 -47.980469 -2.3867188Q-47.378906 -2.8164062 -46.449219 -2.8164062Q-45.214844 -2.8164062 -44.566406 -1.9765625Q-43.917969 -1.1367188 -43.917969 0.43359375L-43.917969 5.8007812L-46.097656 5.8007812L-46.097656 1.0585938Q-46.097656 -1.1679688 -47.378906 -1.1679688Q-48.019531 -1.1679688 -48.429688 -0.546875Q-48.839844 0.07421875 -48.878906 1.1679688L-48.878906 5.8007812L-51.058594 5.8007812ZM-42.300781 2.6054688L-42.300781 0.69921875L-38.238281 0.69921875L-38.238281 2.6054688L-42.300781 2.6054688ZM-28.480469 1.5351562Q-28.480469 3.6523438 -29.328125 4.8046875Q-30.175781 5.9570312 -31.722656 5.9570312Q-32.613281 5.9570312 -33.273438 5.5703125Q-33.933594 5.1835938 -34.285156 4.4570312L-34.332031 4.4570312Q-34.285156 4.6914062 -34.285156 5.8789062L-34.285156 9.1210938L-36.480469 9.1210938L-36.480469 -0.70703125Q-36.480469 -1.9023438 -36.542969 -2.6523438L-34.410156 -2.6523438Q-34.371094 -2.5117188 -34.34375 -2.0976562Q-34.316406 -1.6835938 -34.316406 -1.2773438L-34.285156 -1.2773438Q-33.542969 -2.8320312 -31.582031 -2.8320312Q-30.105469 -2.8320312 -29.292969 -1.6953125Q-28.480469 -0.55859375 -28.480469 1.5351562ZM-30.769531 1.5351562Q-30.769531 -1.3085938 -32.511719 -1.3085938Q-33.386719 -1.3085938 -33.851562 -0.54296875Q-34.316406 0.22265625 -34.316406 1.5976562Q-34.316406 2.9648438 -33.851562 3.7109375Q-33.386719 4.4570312 -32.527344 4.4570312Q-30.769531 4.4570312 -30.769531 1.5351562ZM-26.707031 5.8007812L-26.707031 -5.7929688L-24.511719 -5.7929688L-24.511719 5.8007812L-26.707031 5.8007812ZM-20.191406 -2.6523438L-20.191406 2.0898438Q-20.191406 4.3164062 -18.691406 4.3164062Q-17.894531 4.3164062 -17.40625 3.6328125Q-16.917969 2.9492188 -16.917969 1.8789062L-16.917969 -2.6523438L-14.722656 -2.6523438L-14.722656 3.9101562Q-14.722656 4.9882812 -14.660156 5.8007812L-16.753906 5.8007812Q-16.847656 4.6757812 -16.847656 4.1210938L-16.886719 4.1210938Q-17.324219 5.0820312 -18 5.5195312Q-18.675781 5.9570312 -19.605469 5.9570312Q-20.949219 5.9570312 -21.667969 5.1328125Q-22.386719 4.3085938 -22.386719 2.7148438L-22.386719 -2.6523438L-20.191406 -2.6523438ZM-8.9492188 9.1914062Q-10.496094 9.1914062 -11.4375 8.6015625Q-12.378906 8.0117188 -12.597656 6.9179688L-10.402344 6.6601562Q-10.285156 7.1679688 -9.8984375 7.4570312Q-9.5117188 7.7460938 -8.8867188 7.7460938Q-7.9726562 7.7460938 -7.5507812 7.1835938Q-7.1289062 6.6210938 -7.1289062 5.5117188L-7.1289062 5.0664062L-7.1132812 4.2304688L-7.1289062 4.2304688Q-7.8554688 5.7851562 -9.8476562 5.7851562Q-11.324219 5.7851562 -12.136719 4.6757812Q-12.949219 3.5664062 -12.949219 1.5039062Q-12.949219 -0.56640625 -12.113281 -1.6914062Q-11.277344 -2.8164062 -9.6835938 -2.8164062Q-7.8398438 -2.8164062 -7.1289062 -1.2929688L-7.0898438 -1.2929688Q-7.0898438 -1.5664062 -7.0546875 -2.0351562Q-7.0195312 -2.5039062 -6.9804688 -2.6523438L-4.9023438 -2.6523438Q-4.9492188 -1.8085938 -4.9492188 -0.69921875L-4.9492188 5.5429688Q-4.9492188 7.3476562 -5.9726562 8.2695312Q-6.9960938 9.1914062 -8.9492188 9.1914062ZM-7.1132812 1.4570312Q-7.1132812 0.15234375 -7.578125 -0.578125Q-8.0429688 -1.3085938 -8.9023438 -1.3085938Q-10.660156 -1.3085938 -10.660156 1.5039062Q-10.660156 4.2617188 -8.9179688 4.2617188Q-8.0429688 4.2617188 -7.578125 3.53125Q-7.1132812 2.8007812 -7.1132812 1.4570312ZM-2.7148438 -4.1757812L-2.7148438 -5.7929688L-0.51953125 -5.7929688L-0.51953125 -4.1757812L-2.7148438 -4.1757812ZM-2.7148438 5.8007812L-2.7148438 -2.6523438L-0.51953125 -2.6523438L-0.51953125 5.8007812L-2.7148438 5.8007812ZM7.2070312 5.8007812L7.2070312 1.0585938Q7.2070312 -1.1679688 5.6992188 -1.1679688Q4.9023438 -1.1679688 4.4140625 -0.484375Q3.9257812 0.19921875 3.9257812 1.2695312L3.9257812 5.8007812L1.7304688 5.8007812L1.7304688 -0.76171875Q1.7304688 -1.4414062 1.7109375 -1.875Q1.6914062 -2.3085938 1.6679688 -2.6523438L3.7617188 -2.6523438Q3.7851562 -2.5039062 3.8242188 -1.859375Q3.8632812 -1.2148438 3.8632812 -0.97265625L3.8945312 -0.97265625Q4.3398438 -1.9414062 5.0117188 -2.3789062Q5.6835938 -2.8164062 6.6132812 -2.8164062Q7.9570312 -2.8164062 8.6757812 -1.9882812Q9.3945312 -1.1601562 9.3945312 0.43359375L9.3945312 5.8007812L7.2070312 5.8007812ZM15.457031 2.6054688L15.457031 0.69921875L19.519531 0.69921875L19.519531 2.6054688L15.457031 2.6054688ZM27.980469 -3.4257812L27.980469 -0.01953125L33.613281 -0.01953125L33.613281 1.7617188L27.980469 1.7617188L27.980469 5.8007812L25.675781 5.8007812L25.675781 -5.2070312L33.792969 -5.2070312L33.792969 -3.4257812L27.980469 -3.4257812ZM46.152344 0.24609375Q46.152344 1.9648438 45.472656 3.2695312Q44.792969 4.5742188 43.527344 5.265625Q42.261719 5.9570312 40.574219 5.9570312Q37.980469 5.9570312 36.507812 4.4296875Q35.035156 2.9023438 35.035156 0.24609375Q35.035156 -2.4023438 36.503906 -3.8867188Q37.972656 -5.3710938 40.589844 -5.3710938Q43.207031 -5.3710938 44.679688 -3.8710938Q46.152344 -2.3710938 46.152344 0.24609375ZM43.800781 0.24609375Q43.800781 -1.5351562 42.957031 -2.546875Q42.113281 -3.5585938 40.589844 -3.5585938Q39.042969 -3.5585938 38.199219 -2.5546875Q37.355469 -1.5507812 37.355469 0.24609375Q37.355469 2.0585938 38.21875 3.1015625Q39.082031 4.1445312 40.574219 4.1445312Q42.121094 4.1445312 42.960938 3.1289062Q43.800781 2.1132812 43.800781 0.24609375ZM55.457031 5.8007812L52.902344 1.6210938L50.199219 1.6210938L50.199219 5.8007812L47.894531 5.8007812L47.894531 -5.2070312L53.394531 -5.2070312Q55.363281 -5.2070312 56.433594 -4.359375Q57.503906 -3.5117188 57.503906 -1.9257812Q57.503906 -0.76953125 56.847656 0.0703125Q56.191406 0.91015625 55.074219 1.1757812L58.050781 5.8007812L55.457031 5.8007812ZM55.183594 -1.8320312Q55.183594 -3.4179688 53.152344 -3.4179688L50.199219 -3.4179688L50.199219 -0.16796875L53.214844 -0.16796875Q54.183594 -0.16796875 54.683594 -0.60546875Q55.183594 -1.0429688 55.183594 -1.8320312ZM68.589844 5.8007812L68.589844 -0.87109375Q68.589844 -1.0976562 68.59375 -1.3242188Q68.597656 -1.5507812 68.667969 -3.2695312Q68.113281 -1.1679688 67.847656 -0.33984375L65.863281 5.8007812L64.222656 5.8007812L62.238281 -0.33984375L61.402344 -3.2695312Q61.496094 -1.4570312 61.496094 -0.87109375L61.496094 5.8007812L59.449219 5.8007812L59.449219 -5.2070312L62.535156 -5.2070312L64.503906 0.94921875L64.675781 1.5429688L65.050781 3.0195312L65.542969 1.2539062L67.566406 -5.2070312L70.636719 -5.2070312L70.636719 5.8007812L68.589844 5.8007812ZM80.558594 5.8007812L79.582031 2.9882812L75.386719 2.9882812L74.410156 5.8007812L72.105469 5.8007812L76.121094 -5.2070312L78.839844 -5.2070312L82.839844 5.8007812L80.558594 5.8007812ZM77.480469 -3.5117188L77.433594 -3.3398438Q77.355469 -3.0585938 77.246094 -2.6992188Q77.136719 -2.3398438 75.902344 1.2539062L79.066406 1.2539062L77.980469 -1.9101562L77.644531 -2.9726562L77.480469 -3.5117188ZM88.113281 -3.4257812L88.113281 5.8007812L85.808594 5.8007812L85.808594 -3.4257812L82.253906 -3.4257812L82.253906 -5.2070312L91.675781 -5.2070312L91.675781 -3.4257812L88.113281 -3.4257812ZM107.17578 0.21484375Q107.17578 1.9179688 106.50781 3.1875Q105.83984 4.4570312 104.61719 5.1289062Q103.39453 5.8007812 101.81641 5.8007812L97.363281 5.8007812L97.363281 -5.2070312L101.34766 -5.2070312Q104.12891 -5.2070312 105.65234 -3.8046875Q107.17578 -2.4023438 107.17578 0.21484375ZM104.85547 0.21484375Q104.85547 -1.5585938 103.93359 -2.4921875Q103.01172 -3.4257812 101.30078 -3.4257812L99.667969 -3.4257812L99.667969 4.0195312L101.62109 4.0195312Q103.10547 4.0195312 103.98047 2.9960938Q104.85547 1.9726562 104.85547 0.21484375ZM116.99609 1.5664062Q116.99609 3.6210938 115.85547 4.7890625Q114.71484 5.9570312 112.69922 5.9570312Q110.72266 5.9570312 109.59766 4.7851562Q108.47266 3.6132812 108.47266 1.5664062Q108.47266 -0.47265625 109.59766 -1.640625Q110.72266 -2.8085938 112.74609 -2.8085938Q114.81641 -2.8085938 115.90625 -1.6796875Q116.99609 -0.55078125 116.99609 1.5664062ZM114.69922 1.5664062Q114.69922 0.05859375 114.20703 -0.62109375Q113.71484 -1.3007812 112.77734 -1.3007812Q110.77734 -1.3007812 110.77734 1.5664062Q110.77734 2.9804688 111.26562 3.71875Q111.75391 4.4570312 112.67578 4.4570312Q114.69922 4.4570312 114.69922 1.5664062ZM127.87891 5.8007812L125.55859 5.8007812L124.21484 0.64453125Q124.12109 0.29296875 123.84766 -1.0898438L123.44141 0.66015625L122.08203 5.8007812L119.76172 5.8007812L117.57422 -2.6523438L119.63672 -2.6523438L121.02734 3.8085938L121.13672 3.2304688L121.33203 2.3164062L122.66016 -2.6523438L125.01172 -2.6523438L126.30859 2.3164062Q126.41797 2.7226562 126.62891 3.8085938L126.84766 2.7773438L128.06641 -2.6523438L130.09766 -2.6523438L127.87891 5.8007812ZM136.66016 5.8007812L136.66016 1.0585938Q136.66016 -1.1679688 135.15234 -1.1679688Q134.35547 -1.1679688 133.86719 -0.484375Q133.37891 0.19921875 133.37891 1.2695312L133.37891 5.8007812L131.18359 5.8007812L131.18359 -0.76171875Q131.18359 -1.4414062 131.16406 -1.875Q131.14453 -2.3085938 131.12109 -2.6523438L133.21484 -2.6523438Q133.23828 -2.5039062 133.27734 -1.859375Q133.31641 -1.2148438 133.31641 -0.97265625L133.34766 -0.97265625Q133.79297 -1.9414062 134.46484 -2.3789062Q135.13672 -2.8164062 136.06641 -2.8164062Q137.41016 -2.8164062 138.12891 -1.9882812Q138.84766 -1.1601562 138.84766 0.43359375L138.84766 5.8007812L136.66016 5.8007812ZM140.95703 5.8007812L140.95703 -5.7929688L143.15234 -5.7929688L143.15234 5.8007812L140.95703 5.8007812ZM153.43359 1.5664062Q153.43359 3.6210938 152.29297 4.7890625Q151.15234 5.9570312 149.13672 5.9570312Q147.16016 5.9570312 146.03516 4.7851562Q144.91016 3.6132812 144.91016 1.5664062Q144.91016 -0.47265625 146.03516 -1.640625Q147.16016 -2.8085938 149.18359 -2.8085938Q151.25391 -2.8085938 152.34375 -1.6796875Q153.43359 -0.55078125 153.43359 1.5664062ZM151.13672 1.5664062Q151.13672 0.05859375 150.64453 -0.62109375Q150.15234 -1.3007812 149.21484 -1.3007812Q147.21484 -1.3007812 147.21484 1.5664062Q147.21484 2.9804688 147.70312 3.71875Q148.19141 4.4570312 149.11328 4.4570312Q151.13672 4.4570312 151.13672 1.5664062ZM157.12891 5.9570312Q155.90234 5.9570312 155.21484 5.2890625Q154.52734 4.6210938 154.52734 3.4101562Q154.52734 2.0976562 155.38281 1.4101562Q156.23828 0.72265625 157.86328 0.70703125L159.68359 0.67578125L159.68359 0.24609375Q159.68359 -0.58203125 159.39453 -0.984375Q159.10547 -1.3867188 158.44922 -1.3867188Q157.83984 -1.3867188 157.55469 -1.109375Q157.26953 -0.83203125 157.19922 -0.19140625L154.91016 -0.30078125Q155.12109 -1.5351562 156.03906 -2.171875Q156.95703 -2.8085938 158.54297 -2.8085938Q160.14453 -2.8085938 161.01172 -2.0195312Q161.87891 -1.2304688 161.87891 0.22265625L161.87891 3.3007812Q161.87891 4.0117188 162.03906 4.28125Q162.19922 4.5507812 162.57422 4.5507812Q162.82422 4.5507812 163.05859 4.5039062L163.05859 5.6914062Q162.86328 5.7382812 162.70703 5.7773438Q162.55078 5.8164062 162.39453 5.8398438Q162.23828 5.8632812 162.0625 5.8789062Q161.88672 5.8945312 161.65234 5.8945312Q160.82422 5.8945312 160.42969 5.4882812Q160.03516 5.0820312 159.95703 4.2929688L159.91016 4.2929688Q158.98828 5.9570312 157.12891 5.9570312ZM159.68359 1.8867188L158.55859 1.9023438Q157.79297 1.9335938 157.47266 2.0703125Q157.15234 2.2070312 156.98438 2.4882812Q156.81641 2.7695312 156.81641 3.2382812Q156.81641 3.8398438 157.09375 4.1328125Q157.37109 4.4257812 157.83203 4.4257812Q158.34766 4.4257812 158.77344 4.1445312Q159.19922 3.8632812 159.44141 3.3671875Q159.68359 2.8710938 159.68359 2.3164062L159.68359 1.8867188ZM169.55078 5.8007812Q169.51953 5.6835938 169.47656 5.2109375Q169.43359 4.7382812 169.43359 4.4257812L169.40234 4.4257812Q168.69141 5.9570312 166.69922 5.9570312Q165.22266 5.9570312 164.41797 4.8046875Q163.61328 3.6523438 163.61328 1.5820312Q163.61328 -0.51953125 164.46094 -1.6640625Q165.30859 -2.8085938 166.86328 -2.8085938Q167.76172 -2.8085938 168.41406 -2.4335938Q169.06641 -2.0585938 169.41797 -1.3164062L169.43359 -1.3164062L169.41797 -2.7070312L169.41797 -5.7929688L171.61328 -5.7929688L171.61328 3.9570312Q171.61328 4.7382812 171.67578 5.8007812L169.55078 5.8007812ZM169.44922 1.5273438Q169.44922 0.16015625 168.99219 -0.578125Q168.53516 -1.3164062 167.64453 -1.3164062Q166.76172 -1.3164062 166.33203 -0.6015625Q165.90234 0.11328125 165.90234 1.5820312Q165.90234 4.4570312 167.62891 4.4570312Q168.49609 4.4570312 168.97266 3.6953125Q169.44922 2.9335938 169.44922 1.5273438ZM183.21484 -3.4257812L183.21484 5.8007812L180.91016 5.8007812L180.91016 -3.4257812L177.35547 -3.4257812L177.35547 -5.2070312L186.77734 -5.2070312L186.77734 -3.4257812L183.21484 -3.4257812ZM187.18359 5.8007812L187.18359 -0.66796875Q187.18359 -1.3632812 187.16406 -1.828125Q187.14453 -2.2929688 187.12109 -2.6523438L189.21484 -2.6523438Q189.23828 -2.5117188 189.27734 -1.796875Q189.31641 -1.0820312 189.31641 -0.84765625L189.34766 -0.84765625Q189.66797 -1.7382812 189.91797 -2.1015625Q190.16797 -2.4648438 190.51172 -2.640625Q190.85547 -2.8164062 191.37109 -2.8164062Q191.79297 -2.8164062 192.05078 -2.6992188L192.05078 -0.86328125Q191.51953 -0.98046875 191.11328 -0.98046875Q190.29297 -0.98046875 189.83594 -0.31640625Q189.37891 0.34765625 189.37891 1.6523438L189.37891 5.8007812L187.18359 5.8007812ZM196.87109 5.9570312Q194.96484 5.9570312 193.94141 4.828125Q192.91797 3.6992188 192.91797 1.5351562Q192.91797 -0.55859375 193.95703 -1.6835938Q194.99609 -2.8085938 196.90234 -2.8085938Q198.72266 -2.8085938 199.68359 -1.6015625Q200.64453 -0.39453125 200.64453 1.9335938L200.64453 1.9960938L195.22266 1.9960938Q195.22266 3.2304688 195.67969 3.859375Q196.13672 4.4882812 196.98047 4.4882812Q198.14453 4.4882812 198.44922 3.4804688L200.51953 3.6601562Q199.62109 5.9570312 196.87109 5.9570312ZM196.87109 -1.4257812Q196.09766 -1.4257812 195.67969 -0.88671875Q195.26172 -0.34765625 195.23828 0.62109375L198.51953 0.62109375Q198.45703 -0.40234375 198.02734 -0.9140625Q197.59766 -1.4257812 196.87109 -1.4257812ZM207.78516 5.8007812L207.78516 1.0585938Q207.78516 -1.1679688 206.27734 -1.1679688Q205.48047 -1.1679688 204.99219 -0.484375Q204.50391 0.19921875 204.50391 1.2695312L204.50391 5.8007812L202.30859 5.8007812L202.30859 -0.76171875Q202.30859 -1.4414062 202.28906 -1.875Q202.26953 -2.3085938 202.24609 -2.6523438L204.33984 -2.6523438Q204.36328 -2.5039062 204.40234 -1.859375Q204.44141 -1.2148438 204.44141 -0.97265625L204.47266 -0.97265625Q204.91797 -1.9414062 205.58984 -2.3789062Q206.26172 -2.8164062 207.19141 -2.8164062Q208.53516 -2.8164062 209.25391 -1.9882812Q209.97266 -1.1601562 209.97266 0.43359375L209.97266 5.8007812L207.78516 5.8007812ZM217.55859 5.8007812Q217.52734 5.6835938 217.48438 5.2109375Q217.44141 4.7382812 217.44141 4.4257812L217.41016 4.4257812Q216.69922 5.9570312 214.70703 5.9570312Q213.23047 5.9570312 212.42578 4.8046875Q211.62109 3.6523438 211.62109 1.5820312Q211.62109 -0.51953125 212.46875 -1.6640625Q213.31641 -2.8085938 214.87109 -2.8085938Q215.76953 -2.8085938 216.42188 -2.4335938Q217.07422 -2.0585938 217.42578 -1.3164062L217.44141 -1.3164062L217.42578 -2.7070312L217.42578 -5.7929688L219.62109 -5.7929688L219.62109 3.9570312Q219.62109 4.7382812 219.68359 5.8007812L217.55859 5.8007812ZM217.45703 1.5273438Q217.45703 0.16015625 217 -0.578125Q216.54297 -1.3164062 215.65234 -1.3164062Q214.76953 -1.3164062 214.33984 -0.6015625Q213.91016 0.11328125 213.91016 1.5820312Q213.91016 4.4570312 215.63672 4.4570312Q216.50391 4.4570312 216.98047 3.6953125Q217.45703 2.9335938 217.45703 1.5273438ZM228.98047 3.3320312Q228.98047 4.5585938 227.97656 5.2578125Q226.97266 5.9570312 225.19922 5.9570312Q223.45703 5.9570312 222.53125 5.40625Q221.60547 4.8554688 221.30078 3.6914062L223.23047 3.4023438Q223.39453 4.0039062 223.79688 4.2539062Q224.19922 4.5039062 225.19922 4.5039062Q226.12109 4.5039062 226.54297 4.2695312Q226.96484 4.0351562 226.96484 3.5351562Q226.96484 3.1289062 226.625 2.890625Q226.28516 2.6523438 225.47266 2.4882812Q223.61328 2.1210938 222.96484 1.8046875Q222.31641 1.4882812 221.97656 0.984375Q221.63672 0.48046875 221.63672 -0.25390625Q221.63672 -1.4648438 222.57031 -2.140625Q223.50391 -2.8164062 225.21484 -2.8164062Q226.72266 -2.8164062 227.64062 -2.2304688Q228.55859 -1.6445312 228.78516 -0.53515625L226.83984 -0.33203125Q226.74609 -0.84765625 226.37891 -1.1015625Q226.01172 -1.3554688 225.21484 -1.3554688Q224.43359 -1.3554688 224.04297 -1.15625Q223.65234 -0.95703125 223.65234 -0.48828125Q223.65234 -0.12109375 223.95312 0.09375Q224.25391 0.30859375 224.96484 0.44921875Q225.95703 0.65234375 226.72656 0.8671875Q227.49609 1.0820312 227.96094 1.3789062Q228.42578 1.6757812 228.70312 2.140625Q228.98047 2.6054688 228.98047 3.3320312Z"/>
	<path fill="none" stroke="black" stroke-width="1" stroke-miterlimit="10" stroke-opacity="0.10196079" d="M49 749.5L1195 749.5"/>
	<clipPath id="cl_56a">
		<rect y="749.20001" width="1200" height="50.799988"/>
	</clipPath>
	<g clip-path="url(#cl_56a)">
		<path fill="#666" transform="translate(49.75 760.2)" d="M-12.751953 11.300586L-14 11.300586L-16.302734 4.960742L-15.177734 4.960742L-13.783203 9.085742Q-13.707031 9.320117 -13.378906 10.474414L-13.173828 9.788867L-12.945312 9.0974607L-11.503906 4.960742L-10.384766 4.960742L-12.751953 11.300586ZM-9.7402344 11.300586L-9.7402344 10.556445Q-9.4414062 9.8708982 -9.0107422 9.3464842Q-8.5800781 8.8220701 -8.1054688 8.3972654Q-7.6308594 7.9724607 -7.1650391 7.6091795Q-6.6992188 7.2458982 -6.3242188 6.882617Q-5.9492188 6.5193357 -5.7177734 6.1208982Q-5.4863281 5.7224607 -5.4863281 5.2185545Q-5.4863281 4.538867 -5.8847656 4.163867Q-6.2832031 3.788867 -6.9921875 3.788867Q-7.6660156 3.788867 -8.1025391 4.1550779Q-8.5390625 4.5212889 -8.6152344 5.1833982L-9.6933594 5.0837889Q-9.5761719 4.0935545 -8.8525391 3.507617Q-8.1289062 2.9216795 -6.9921875 2.9216795Q-5.7441406 2.9216795 -5.0732422 3.5105467Q-4.4023438 4.0994139 -4.4023438 5.1833982Q-4.4023438 5.663867 -4.6220703 6.1384764Q-4.8417969 6.6130857 -5.2753906 7.0876951Q-5.7089844 7.5623045 -6.9335938 8.5583982Q-7.6074219 9.1091795 -8.0058594 9.5515623Q-8.4042969 9.9939451 -8.5800781 10.404101L-4.2734375 10.404101L-4.2734375 11.300586L-9.7402344 11.300586ZM-2.5742188 11.300586L-2.5742188 10.017383L-1.4316406 10.017383L-1.4316406 11.300586L-2.5742188 11.300586ZM0.578125 11.300586L0.578125 10.404101L2.6816406 10.404101L2.6816406 4.0525389L0.81835938 5.382617L0.81835938 4.3865232L2.7695312 3.0447264L3.7421875 3.0447264L3.7421875 10.404101L5.7519531 10.404101L5.7519531 11.300586L0.578125 11.300586ZM7.4335938 11.300586L7.4335938 10.017383L8.5761719 10.017383L8.5761719 11.300586L7.4335938 11.300586ZM15.841797 8.6111326Q15.841797 9.9177732 15.06543 10.667773Q14.289062 11.417773 12.912109 11.417773Q11.757812 11.417773 11.048828 10.913867Q10.339844 10.409961 10.152344 9.4548826L11.21875 9.3318357Q11.552734 10.556445 12.935547 10.556445Q13.785156 10.556445 14.265625 10.04375Q14.746094 9.5310545 14.746094 8.6345701Q14.746094 7.8552732 14.262695 7.3748045Q13.779297 6.8943357 12.958984 6.8943357Q12.53125 6.8943357 12.162109 7.0291014Q11.792969 7.163867 11.423828 7.4861326L10.392578 7.4861326L10.667969 3.0447264L15.361328 3.0447264L15.361328 3.9412107L11.628906 3.9412107L11.470703 6.5603514Q12.15625 6.0330076 13.175781 6.0330076Q14.394531 6.0330076 15.118164 6.7478514Q15.841797 7.4626951 15.841797 8.6111326Z"/>
	</g>
	<path fill="none" stroke="black" stroke-width="1" stroke-miterlimit="10" stroke-opacity="0.10196079" d="M49.5 71L49.5 750"/>
	<clipPath id="cl_56c">
		<rect width="49.75" height="800"/>
	</clipPath>
	<g clip-path="url(#cl_56c)">
		<path fill="#666" transform="translate(38.75 749.2)" d="M-0.46679688 -0.030273438Q-0.46679688 2.0380859 -1.1962891 3.1279297Q-1.9257812 4.2177734 -3.3496094 4.2177734Q-4.7734375 4.2177734 -5.4882812 3.1337891Q-6.203125 2.0498047 -6.203125 -0.030273438Q-6.203125 -2.1572266 -5.5087891 -3.2177734Q-4.8144531 -4.2783203 -3.3144531 -4.2783203Q-1.8554688 -4.2783203 -1.1611328 -3.2060547Q-0.46679688 -2.1337891 -0.46679688 -0.030273438ZM-1.5390625 -0.030273438Q-1.5390625 -1.8173828 -1.9521484 -2.6201172Q-2.3652344 -3.4228516 -3.3144531 -3.4228516Q-4.2871094 -3.4228516 -4.7119141 -2.6318359Q-5.1367188 -1.8408203 -5.1367188 -0.030273438Q-5.1367188 1.7275391 -4.7060547 2.5419922Q-4.2753906 3.3564453 -3.3378906 3.3564453Q-2.40625 3.3564453 -1.9726562 2.5244141Q-1.5390625 1.6923828 -1.5390625 -0.030273438Z"/>
	</g>
	<clipPath id="cl_56d">
		<rect width="49.75" height="800"/>
	</clipPath>
	<g clip-path="url(#cl_56d)">
		<path fill="#666" transform="translate(38.75 681.4)" d="M-6.0683594 4.1005859L-6.0683594 3.3564453Q-5.7695312 2.6708984 -5.3388672 2.1464844Q-4.9082031 1.6220703 -4.4335938 1.1972656Q-3.9589844 0.77246094 -3.4931641 0.40917969Q-3.0273438 0.045898438 -2.6523438 -0.31738281Q-2.2773438 -0.68066406 -2.0458984 -1.0791016Q-1.8144531 -1.4775391 -1.8144531 -1.9814453Q-1.8144531 -2.6611328 -2.2128906 -3.0361328Q-2.6113281 -3.4111328 -3.3203125 -3.4111328Q-3.9941406 -3.4111328 -4.4306641 -3.0449219Q-4.8671875 -2.6787109 -4.9433594 -2.0166016L-6.0214844 -2.1162109Q-5.9042969 -3.1064453 -5.1806641 -3.6923828Q-4.4570312 -4.2783203 -3.3203125 -4.2783203Q-2.0722656 -4.2783203 -1.4013672 -3.6894531Q-0.73046875 -3.1005859 -0.73046875 -2.0166016Q-0.73046875 -1.5361328 -0.95019531 -1.0615234Q-1.1699219 -0.58691406 -1.6035156 -0.11230469Q-2.0371094 0.36230469 -3.2617188 1.3583984Q-3.9355469 1.9091797 -4.3339844 2.3515625Q-4.7324219 2.7939453 -4.9082031 3.2041016L-0.6015625 3.2041016L-0.6015625 4.1005859L-6.0683594 4.1005859Z"/>
	</g>
	<clipPath id="cl_56e">
		<rect width="49.75" height="800"/>
	</clipPath>
	<g clip-path="url(#cl_56e)">
		<path fill="#666" transform="translate(38.75 613.6)" d="M-1.5097656 2.2314453L-1.5097656 4.1005859L-2.5058594 4.1005859L-2.5058594 2.2314453L-6.3964844 2.2314453L-6.3964844 1.4111328L-2.6171875 -4.1552734L-1.5097656 -4.1552734L-1.5097656 1.3994141L-0.34960938 1.3994141L-0.34960938 2.2314453L-1.5097656 2.2314453ZM-2.5058594 -2.9658203Q-2.5175781 -2.9306641 -2.6699219 -2.6552734Q-2.8222656 -2.3798828 -2.8984375 -2.2685547L-5.0136719 0.84863281L-5.3300781 1.2822266L-5.4238281 1.3994141L-2.5058594 1.3994141L-2.5058594 -2.9658203Z"/>
	</g>
	<clipPath id="cl_56f">
		<rect width="49.75" height="800"/>
	</clipPath>
	<g clip-path="url(#cl_56f)">
		<path fill="#666" transform="translate(38.75 545.8)" d="M-0.52539062 1.3994141Q-0.52539062 2.7060547 -1.234375 3.4619141Q-1.9433594 4.2177734 -3.1914062 4.2177734Q-4.5859375 4.2177734 -5.3242188 3.1806641Q-6.0625 2.1435547 -6.0625 0.16308594Q-6.0625 -1.9814453 -5.2949219 -3.1298828Q-4.5273438 -4.2783203 -3.109375 -4.2783203Q-1.2402344 -4.2783203 -0.75390625 -2.5966797L-1.7617188 -2.4150391Q-2.0722656 -3.4228516 -3.1210938 -3.4228516Q-4.0234375 -3.4228516 -4.5185547 -2.5820312Q-5.0136719 -1.7412109 -5.0136719 -0.14746094Q-4.7265625 -0.68066406 -4.2050781 -0.95898438Q-3.6835938 -1.2373047 -3.0097656 -1.2373047Q-1.8671875 -1.2373047 -1.1962891 -0.52246094Q-0.52539062 0.19238281 -0.52539062 1.3994141ZM-1.5976562 1.4462891Q-1.5976562 0.54980469 -2.0371094 0.063476562Q-2.4765625 -0.42285156 -3.2617188 -0.42285156Q-4 -0.42285156 -4.4541016 0.0078125Q-4.9082031 0.43847656 -4.9082031 1.1943359Q-4.9082031 2.1494141 -4.4365234 2.7587891Q-3.9648438 3.3681641 -3.2265625 3.3681641Q-2.4648438 3.3681641 -2.03125 2.8554688Q-1.5976562 2.3427734 -1.5976562 1.4462891Z"/>
	</g>
	<clipPath id="cl_570">
		<rect width="49.75" height="800"/>
	</clipPath>
	<g clip-path="url(#cl_570)">
		<path fill="#666" transform="translate(38.75 478)" d="M-0.51953125 1.7978516Q-0.51953125 2.9404297 -1.2460938 3.5791016Q-1.9726562 4.2177734 -3.3320312 4.2177734Q-4.65625 4.2177734 -5.4033203 3.5908203Q-6.1503906 2.9638672 -6.1503906 1.8095703Q-6.1503906 1.0009766 -5.6875 0.45019531Q-5.2246094 -0.10058594 -4.5039062 -0.21777344L-4.5039062 -0.24121094Q-5.1777344 -0.39941406 -5.5673828 -0.92675781Q-5.9570312 -1.4541016 -5.9570312 -2.1630859Q-5.9570312 -3.1064453 -5.2509766 -3.6923828Q-4.5449219 -4.2783203 -3.3554688 -4.2783203Q-2.1367188 -4.2783203 -1.4306641 -3.7041016Q-0.72460938 -3.1298828 -0.72460938 -2.1513672Q-0.72460938 -1.4423828 -1.1171875 -0.91503906Q-1.5097656 -0.38769531 -2.1894531 -0.25292969L-2.1894531 -0.22949219Q-1.3984375 -0.10058594 -0.95898438 0.44140625Q-0.51953125 0.98339844 -0.51953125 1.7978516ZM-1.8203125 -2.0927734Q-1.8203125 -3.4931641 -3.3554688 -3.4931641Q-4.0996094 -3.4931641 -4.4892578 -3.1416016Q-4.8789062 -2.7900391 -4.8789062 -2.0927734Q-4.8789062 -1.3837891 -4.4775391 -1.0117188Q-4.0761719 -0.63964844 -3.34375 -0.63964844Q-2.5996094 -0.63964844 -2.2099609 -0.98242188Q-1.8203125 -1.3251953 -1.8203125 -2.0927734ZM-1.6152344 1.6982422Q-1.6152344 0.93066406 -2.0722656 0.54101562Q-2.5292969 0.15136719 -3.3554688 0.15136719Q-4.1582031 0.15136719 -4.609375 0.5703125Q-5.0605469 0.98925781 -5.0605469 1.7216797Q-5.0605469 3.4267578 -3.3203125 3.4267578Q-2.4589844 3.4267578 -2.0371094 3.0136719Q-1.6152344 2.6005859 -1.6152344 1.6982422Z"/>
	</g>
	<clipPath id="cl_571">
		<rect width="49.75" height="800"/>
	</clipPath>
	<g clip-path="url(#cl_571)">
		<path fill="#666" transform="translate(38.75 410.2)" d="M-12.429688 4.1005859L-12.429688 3.2041016L-10.326172 3.2041016L-10.326172 -3.1474609L-12.189453 -1.8173828L-12.189453 -2.8134766L-10.238281 -4.1552734L-9.265625 -4.1552734L-9.265625 3.2041016L-7.2558594 3.2041016L-7.2558594 4.1005859L-12.429688 4.1005859ZM-0.46484375 -0.030273438Q-0.46484375 2.0380859 -1.1943359 3.1279297Q-1.9238281 4.2177734 -3.3476562 4.2177734Q-4.7714844 4.2177734 -5.4863281 3.1337891Q-6.2011719 2.0498047 -6.2011719 -0.030273438Q-6.2011719 -2.1572266 -5.5068359 -3.2177734Q-4.8125 -4.2783203 -3.3125 -4.2783203Q-1.8535156 -4.2783203 -1.1591797 -3.2060547Q-0.46484375 -2.1337891 -0.46484375 -0.030273438ZM-1.5371094 -0.030273438Q-1.5371094 -1.8173828 -1.9501953 -2.6201172Q-2.3632812 -3.4228516 -3.3125 -3.4228516Q-4.2851562 -3.4228516 -4.7099609 -2.6318359Q-5.1347656 -1.8408203 -5.1347656 -0.030273438Q-5.1347656 1.7275391 -4.7041016 2.5419922Q-4.2734375 3.3564453 -3.3359375 3.3564453Q-2.4042969 3.3564453 -1.9707031 2.5244141Q-1.5371094 1.6923828 -1.5371094 -0.030273438Z"/>
	</g>
	<clipPath id="cl_572">
		<rect width="49.75" height="800"/>
	</clipPath>
	<g clip-path="url(#cl_572)">
		<path fill="#666" transform="translate(38.75 342.4)" d="M-12.429688 4.1005859L-12.429688 3.2041016L-10.326172 3.2041016L-10.326172 -3.1474609L-12.189453 -1.8173828L-12.189453 -2.8134766L-10.238281 -4.1552734L-9.265625 -4.1552734L-9.265625 3.2041016L-7.2558594 3.2041016L-7.2558594 4.1005859L-12.429688 4.1005859ZM-6.0664062 4.1005859L-6.0664062 3.3564453Q-5.7675781 2.6708984 -5.3369141 2.1464844Q-4.90625 1.6220703 -4.4316406 1.1972656Q-3.9570312 0.77246094 -3.4912109 0.40917969Q-3.0253906 0.045898438 -2.6503906 -0.31738281Q-2.2753906 -0.68066406 -2.0439453 -1.0791016Q-1.8125 -1.4775391 -1.8125 -1.9814453Q-1.8125 -2.6611328 -2.2109375 -3.0361328Q-2.609375 -3.4111328 -3.3183594 -3.4111328Q-3.9921875 -3.4111328 -4.4287109 -3.0449219Q-4.8652344 -2.6787109 -4.9414062 -2.0166016L-6.0195312 -2.1162109Q-5.9023438 -3.1064453 -5.1787109 -3.6923828Q-4.4550781 -4.2783203 -3.3183594 -4.2783203Q-2.0703125 -4.2783203 -1.3994141 -3.6894531Q-0.72851562 -3.1005859 -0.72851562 -2.0166016Q-0.72851562 -1.5361328 -0.94824219 -1.0615234Q-1.1679688 -0.58691406 -1.6015625 -0.11230469Q-2.0351562 0.36230469 -3.2597656 1.3583984Q-3.9335938 1.9091797 -4.3320312 2.3515625Q-4.7304688 2.7939453 -4.90625 3.2041016L-0.59960938 3.2041016L-0.59960938 4.1005859L-6.0664062 4.1005859Z"/>
	</g>
	<clipPath id="cl_573">
		<rect width="49.75" height="800"/>
	</clipPath>
	<g clip-path="url(#cl_573)">
		<path fill="#666" transform="translate(38.75 274.6)" d="M-12.429688 4.1005859L-12.429688 3.2041016L-10.326172 3.2041016L-10.326172 -3.1474609L-12.189453 -1.8173828L-12.189453 -2.8134766L-10.238281 -4.1552734L-9.265625 -4.1552734L-9.265625 3.2041016L-7.2558594 3.2041016L-7.2558594 4.1005859L-12.429688 4.1005859ZM-1.5078125 2.2314453L-1.5078125 4.1005859L-2.5039062 4.1005859L-2.5039062 2.2314453L-6.3945312 2.2314453L-6.3945312 1.4111328L-2.6152344 -4.1552734L-1.5078125 -4.1552734L-1.5078125 1.3994141L-0.34765625 1.3994141L-0.34765625 2.2314453L-1.5078125 2.2314453ZM-2.5039062 -2.9658203Q-2.515625 -2.9306641 -2.6679688 -2.6552734Q-2.8203125 -2.3798828 -2.8964844 -2.2685547L-5.0117188 0.84863281L-5.328125 1.2822266L-5.421875 1.3994141L-2.5039062 1.3994141L-2.5039062 -2.9658203Z"/>
	</g>
	<clipPath id="cl_574">
		<rect width="49.75" height="800"/>
	</clipPath>
	<g clip-path="url(#cl_574)">
		<path fill="#666" transform="translate(38.75 206.8)" d="M-12.429688 4.1005859L-12.429688 3.2041016L-10.326172 3.2041016L-10.326172 -3.1474609L-12.189453 -1.8173828L-12.189453 -2.8134766L-10.238281 -4.1552734L-9.265625 -4.1552734L-9.265625 3.2041016L-7.2558594 3.2041016L-7.2558594 4.1005859L-12.429688 4.1005859ZM-0.5234375 1.3994141Q-0.5234375 2.7060547 -1.2324219 3.4619141Q-1.9414062 4.2177734 -3.1894531 4.2177734Q-4.5839844 4.2177734 -5.3222656 3.1806641Q-6.0605469 2.1435547 -6.0605469 0.16308594Q-6.0605469 -1.9814453 -5.2929688 -3.1298828Q-4.5253906 -4.2783203 -3.1074219 -4.2783203Q-1.2382812 -4.2783203 -0.75195312 -2.5966797L-1.7597656 -2.4150391Q-2.0703125 -3.4228516 -3.1191406 -3.4228516Q-4.0214844 -3.4228516 -4.5166016 -2.5820312Q-5.0117188 -1.7412109 -5.0117188 -0.14746094Q-4.7246094 -0.68066406 -4.203125 -0.95898438Q-3.6816406 -1.2373047 -3.0078125 -1.2373047Q-1.8652344 -1.2373047 -1.1943359 -0.52246094Q-0.5234375 0.19238281 -0.5234375 1.3994141ZM-1.5957031 1.4462891Q-1.5957031 0.54980469 -2.0351562 0.063476562Q-2.4746094 -0.42285156 -3.2597656 -0.42285156Q-3.9980469 -0.42285156 -4.4521484 0.0078125Q-4.90625 0.43847656 -4.90625 1.1943359Q-4.90625 2.1494141 -4.4345703 2.7587891Q-3.9628906 3.3681641 -3.2246094 3.3681641Q-2.4628906 3.3681641 -2.0292969 2.8554688Q-1.5957031 2.3427734 -1.5957031 1.4462891Z"/>
	</g>
	<clipPath id="cl_575">
		<rect width="49.75" height="800"/>
	</clipPath>
	<g clip-path="url(#cl_575)">
		<path fill="#666" transform="translate(38.75 139)" d="M-12.429688 4.1005859L-12.429688 3.2041016L-10.326172 3.2041016L-10.326172 -3.1474609L-12.189453 -1.8173828L-12.189453 -2.8134766L-10.238281 -4.1552734L-9.265625 -4.1552734L-9.265625 3.2041016L-7.2558594 3.2041016L-7.2558594 4.1005859L-12.429688 4.1005859ZM-0.51757812 1.7978516Q-0.51757812 2.9404297 -1.2441406 3.5791016Q-1.9707031 4.2177734 -3.3300781 4.2177734Q-4.6542969 4.2177734 -5.4013672 3.5908203Q-6.1484375 2.9638672 -6.1484375 1.8095703Q-6.1484375 1.0009766 -5.6855469 0.45019531Q-5.2226562 -0.10058594 -4.5019531 -0.21777344L-4.5019531 -0.24121094Q-5.1757812 -0.39941406 -5.5654297 -0.92675781Q-5.9550781 -1.4541016 -5.9550781 -2.1630859Q-5.9550781 -3.1064453 -5.2490234 -3.6923828Q-4.5429688 -4.2783203 -3.3535156 -4.2783203Q-2.1347656 -4.2783203 -1.4287109 -3.7041016Q-0.72265625 -3.1298828 -0.72265625 -2.1513672Q-0.72265625 -1.4423828 -1.1152344 -0.91503906Q-1.5078125 -0.38769531 -2.1875 -0.25292969L-2.1875 -0.22949219Q-1.3964844 -0.10058594 -0.95703125 0.44140625Q-0.51757812 0.98339844 -0.51757812 1.7978516ZM-1.8183594 -2.0927734Q-1.8183594 -3.4931641 -3.3535156 -3.4931641Q-4.0976562 -3.4931641 -4.4873047 -3.1416016Q-4.8769531 -2.7900391 -4.8769531 -2.0927734Q-4.8769531 -1.3837891 -4.4755859 -1.0117188Q-4.0742188 -0.63964844 -3.3417969 -0.63964844Q-2.5976562 -0.63964844 -2.2080078 -0.98242188Q-1.8183594 -1.3251953 -1.8183594 -2.0927734ZM-1.6132812 1.6982422Q-1.6132812 0.93066406 -2.0703125 0.54101562Q-2.5273438 0.15136719 -3.3535156 0.15136719Q-4.15625 0.15136719 -4.6074219 0.5703125Q-5.0585938 0.98925781 -5.0585938 1.7216797Q-5.0585938 3.4267578 -3.3183594 3.4267578Q-2.4570312 3.4267578 -2.0351562 3.0136719Q-1.6132812 2.6005859 -1.6132812 1.6982422Z"/>
	</g>
	<clipPath id="cl_576">
		<rect width="49.75" height="800"/>
	</clipPath>
	<g clip-path="url(#cl_576)">
		<path fill="#666" transform="translate(38.75 71.2)" d="M-12.740234 4.1005859L-12.740234 3.3564453Q-12.441406 2.6708984 -12.010742 2.1464844Q-11.580078 1.6220703 -11.105469 1.1972656Q-10.630859 0.77246094 -10.165039 0.40917969Q-9.6992188 0.045898438 -9.3242188 -0.31738281Q-8.9492188 -0.68066406 -8.7177734 -1.0791016Q-8.4863281 -1.4775391 -8.4863281 -1.9814453Q-8.4863281 -2.6611328 -8.8847656 -3.0361328Q-9.2832031 -3.4111328 -9.9921875 -3.4111328Q-10.666016 -3.4111328 -11.102539 -3.0449219Q-11.539062 -2.6787109 -11.615234 -2.0166016L-12.693359 -2.1162109Q-12.576172 -3.1064453 -11.852539 -3.6923828Q-11.128906 -4.2783203 -9.9921875 -4.2783203Q-8.7441406 -4.2783203 -8.0732422 -3.6894531Q-7.4023438 -3.1005859 -7.4023438 -2.0166016Q-7.4023438 -1.5361328 -7.6220703 -1.0615234Q-7.8417969 -0.58691406 -8.2753906 -0.11230469Q-8.7089844 0.36230469 -9.9335938 1.3583984Q-10.607422 1.9091797 -11.005859 2.3515625Q-11.404297 2.7939453 -11.580078 3.2041016L-7.2734375 3.2041016L-7.2734375 4.1005859L-12.740234 4.1005859ZM-0.46484375 -0.030273438Q-0.46484375 2.0380859 -1.1943359 3.1279297Q-1.9238281 4.2177734 -3.3476562 4.2177734Q-4.7714844 4.2177734 -5.4863281 3.1337891Q-6.2011719 2.0498047 -6.2011719 -0.030273438Q-6.2011719 -2.1572266 -5.5068359 -3.2177734Q-4.8125 -4.2783203 -3.3125 -4.2783203Q-1.8535156 -4.2783203 -1.1591797 -3.2060547Q-0.46484375 -2.1337891 -0.46484375 -0.030273438ZM-1.5371094 -0.030273438Q-1.5371094 -1.8173828 -1.9501953 -2.6201172Q-2.3632812 -3.4228516 -3.3125 -3.4228516Q-4.2851562 -3.4228516 -4.7099609 -2.6318359Q-5.1347656 -1.8408203 -5.1347656 -0.030273438Q-5.1347656 1.7275391 -4.7041016 2.5419922Q-4.2734375 3.3564453 -3.3359375 3.3564453Q-2.4042969 3.3564453 -1.9707031 2.5244141Q-1.5371094 1.6923828 -1.5371094 -0.030273438Z"/>
	</g>
	<clipPath id="cl_578">
		<rect x="43.75" y="65.199997" width="1156.25" height="690"/>
	</clipPath>
	<g clip-path="url(#cl_578)">
		<path fill="none" stroke="#C32222" stroke-width="2" stroke-miterlimit="10" d=""/>
	</g>
	<clipPath id="cl_579">
		<rect x="43.75" y="65.199997" width="1156.25" height="690"/>
	</clipPath>
	<g clip-path="url(#cl_579)">
		<path fill="#C32222" fill-opacity="0.2" d="M52.75 105.1Q52.75 105.24738 52.73555 105.39405Q52.721107 105.54072 52.692352 105.68526Q52.663601 105.82981 52.620815 105.97084Q52.578033 106.11188 52.521633 106.24803Q52.465233 106.3842 52.39576 106.51418Q52.326286 106.64415 52.244404 106.76669Q52.162525 106.88924 52.069027 107.00317Q51.975533 107.1171 51.871319 107.22131Q51.767105 107.32553 51.653179 107.41904Q51.539253 107.51253 51.416706 107.5944Q51.294167 107.67628 51.164188 107.74577Q51.03421 107.81523 50.898048 107.87163Q50.76189 107.92803 50.620857 107.97081Q50.47982 108.0136 50.33527 108.04234Q50.19072 108.07111 50.044052 108.08556Q49.897381 108.1 49.75 108.1Q49.602619 108.1 49.455948 108.08556Q49.309277 108.07111 49.164726 108.04234Q49.02018 108.0136 48.879143 107.97082Q48.73811 107.92803 48.601944 107.87163Q48.465782 107.81523 48.335808 107.74576Q48.205826 107.67628 48.083282 107.5944Q47.960747 107.51253 47.846817 107.41902Q47.732895 107.32553 47.628677 107.22131Q47.524467 107.1171 47.430969 107.00317Q47.337471 106.88924 47.255585 106.76669Q47.173706 106.64416 47.104233 106.51418Q47.03476 106.3842 46.978359 106.24804Q46.921963 106.11189 46.879177 105.97085Q46.836395 105.82982 46.80764 105.68526Q46.778893 105.54072 46.76445 105.39405Q46.75 105.24738 46.75 105.1Q46.75 104.95262 46.76445 104.80595Q46.778896 104.65927 46.807648 104.51472Q46.836403 104.37018 46.879181 104.22914Q46.921963 104.08811 46.978359 103.95194Q47.03476 103.81578 47.104233 103.68581Q47.173706 103.55582 47.255585 103.43328Q47.337471 103.31075 47.430969 103.19682Q47.524467 103.08289 47.628677 102.97868Q47.732895 102.87447 47.846817 102.78098Q47.960747 102.68747 48.083282 102.60558Q48.205826 102.52371 48.335808 102.45423Q48.465782 102.38476 48.601944 102.32835Q48.73811 102.27196 48.879143 102.22918Q49.02018 102.1864 49.164726 102.15764Q49.309277 102.12889 49.455948 102.11446Q49.602619 102.10001 49.75 102.1Q49.897381 102.10001 50.044052 102.11445Q50.19072 102.12889 50.335266 102.15764Q50.479816 102.1864 50.620853 102.22918Q50.761887 102.27196 50.898045 102.32835Q51.03421 102.38476 51.164188 102.45424Q51.294167 102.52371 51.416706 102.60558Q51.539253 102.68747 51.653179 102.78098Q51.767105 102.87447 51.871315 102.97868Q51.975533 103.08289 52.069023 103.19682Q52.162521 103.31074 52.2444 103.43327Q52.326279 103.55582 52.395756 103.68581Q52.465233 103.81578 52.521633 103.95194Q52.578033 104.08811 52.620815 104.22914Q52.663597 104.37018 52.692348 104.51472Q52.721107 104.65928 52.73555 104.80595Q52.75 104.95262 52.75 105.1Z"/>
		<path fill="none" stroke="#C32222" stroke-width="2" stroke-miterlimit="10" d="M52.75 105.1Q52.75 105.24738 52.73555 105.39405Q52.721107 105.54072 52.692352 105.68526Q52.663601 105.82981 52.620815 105.97084Q52.578033 106.11188 52.521633 106.24803Q52.465233 106.3842 52.39576 106.51418Q52.326286 106.64415 52.244404 106.76669Q52.162525 106.88924 52.069027 107.00317Q51.975533 107.1171 51.871319 107.22131Q51.767105 107.32553 51.653179 107.41904Q51.539253 107.51253 51.416706 107.5944Q51.294167 107.67628 51.164188 107.74577Q51.03421 107.81523 50.898048 107.87163Q50.76189 107.92803 50.620857 107.97081Q50.47982 108.0136 50.33527 108.04234Q50.19072 108.07111 50.044052 108.08556Q49.897381 108.1 49.75 108.1Q49.602619 108.1 49.455948 108.08556Q49.309277 108.07111 49.164726 108.04234Q49.02018 108.0136 48.879143 107.97082Q48.73811 107.92803 48.601944 107.87163Q48.465782 107.81523 48.335808 107.74576Q48.205826 107.67628 48.083282 107.5944Q47.960747 107.51253 47.846817 107.41902Q47.732895 107.32553 47.628677 107.22131Q47.524467 107.1171 47.430969 107.00317Q47.337471 106.88924 47.255585 106.76669Q47.173706 106.64416 47.104233 106.51418Q47.03476 106.3842 46.978359 106.24804Q46.921963 106.11189 46.879177 105.97085Q46.836395 105.82982 46.80764 105.68526Q46.778893 105.54072 46.76445 105.39405Q46.75 105.24738 46.75 105.1Q46.75 104.95262 46.76445 104.80595Q46.778896 104.65927 46.807648 104.51472Q46.836403 104.37018 46.879181 104.22914Q46.921963 104.08811 46.978359 103.95194Q47.03476 103.81578 47.104233 103.68581Q47.173706 103.55582 47.255585 103.43328Q47.337471 103.31075 47.430969 103.19682Q47.524467 103.08289 47.628677 102.97868Q47.732895 102.87447 47.846817 102.78098Q47.960747 102.68747 48.083282 102.60558Q48.205826 102.52371 48.335808 102.45423Q48.465782 102.38476 48.601944 102.32835Q48.73811 102.27196 48.879143 102.22918Q49.02018 102.1864 49.164726 102.15764Q49.309277 102.12889 49.455948 102.11446Q49.602619 102.10001 49.75 102.1Q49.897381 102.10001 50.044052 102.11445Q50.19072 102.12889 50.335266 102.15764Q50.479816 102.1864 50.620853 102.22918Q50.761887 102.27196 50.898045 102.32835Q51.03421 102.38476 51.164188 102.45424Q51.294167 102.52371 51.416706 102.60558Q51.539253 102.68747 51.653179 102.78098Q51.767105 102.87447 51.871315 102.97868Q51.975533 103.08289 52.069023 103.19682Q52.162521 103.31074 52.2444 103.43327Q52.326279 103.55582 52.395756 103.68581Q52.465233 103.81578 52.521633 103.95194Q52.578033 104.08811 52.620815 104.22914Q52.663597 104.37018 52.692348 104.51472Q52.721107 104.65928 52.73555 104.80595Q52.75 104.95262 52.75 105.1Z"/>
	</g>
</svg>
