<?xml version="1.0" encoding="utf-8" ?>
<svg xmlns="http://www.w3.org/2000/svg" xmlns:xlink="http://www.w3.org/1999/xlink" width="1200" height="800">
	<rect fill="white" width="1200" height="800"/>
	<path fill="none" stroke="black" stroke-width="1" stroke-miterlimit="10" stroke-opacity="0.10196079" d="M49.5 71.199997L49.5 749"/>
	<path fill="none" stroke="black" stroke-width="1" stroke-miterlimit="10" stroke-opacity="0.10196079" d="M49.5 750L49.5 757.20001"/>
	<path fill="#666" transform="translate(621.875 788.8)" d="M-26.550781 4.1005859L-28.695312 0.67285156L-31.267578 0.67285156L-31.267578 4.1005859L-32.386719 4.1005859L-32.386719 -4.1552734L-28.501953 -4.1552734Q-27.107422 -4.1552734 -26.348633 -3.53125Q-25.589844 -2.9072266 -25.589844 -1.7939453Q-25.589844 -0.87402344 -26.125977 -0.24707031Q-26.662109 0.37988281 -27.605469 0.54394531L-25.261719 4.1005859L-26.550781 4.1005859ZM-26.714844 -1.7822266Q-26.714844 -2.5029297 -27.204102 -2.8808594Q-27.693359 -3.2587891 -28.613281 -3.2587891L-31.267578 -3.2587891L-31.267578 -0.21191406L-28.566406 -0.21191406Q-27.681641 -0.21191406 -27.198242 -0.625Q-26.714844 -1.0380859 -26.714844 -1.7822266ZM-23.087891 1.1533203Q-23.087891 2.2431641 -22.636719 2.8349609Q-22.185547 3.4267578 -21.318359 3.4267578Q-20.632812 3.4267578 -20.219727 3.1513672Q-19.806641 2.8759766 -19.660156 2.4541016L-18.734375 2.7177734Q-19.302734 4.2177734 -21.318359 4.2177734Q-22.724609 4.2177734 -23.459961 3.3798828Q-24.195312 2.5419922 -24.195312 0.88964844Q-24.195312 -0.68066406 -23.459961 -1.5185547Q-22.724609 -2.3564453 -21.359375 -2.3564453Q-18.564453 -2.3564453 -18.564453 1.0126953L-18.564453 1.1533203L-23.087891 1.1533203ZM-19.654297 0.34472656Q-19.742188 -0.65722656 -20.164062 -1.1171875Q-20.585938 -1.5771484 -21.376953 -1.5771484Q-22.144531 -1.5771484 -22.592773 -1.0644531Q-23.041016 -0.55175781 -23.076172 0.34472656L-19.654297 0.34472656ZM-17.222656 4.1005859L-17.222656 -4.5947266L-16.167969 -4.5947266L-16.167969 4.1005859L-17.222656 4.1005859ZM-13.748047 1.1533203Q-13.748047 2.2431641 -13.296875 2.8349609Q-12.845703 3.4267578 -11.978516 3.4267578Q-11.292969 3.4267578 -10.879883 3.1513672Q-10.466797 2.8759766 -10.320312 2.4541016L-9.3945312 2.7177734Q-9.9628906 4.2177734 -11.978516 4.2177734Q-13.384766 4.2177734 -14.120117 3.3798828Q-14.855469 2.5419922 -14.855469 0.88964844Q-14.855469 -0.68066406 -14.120117 -1.5185547Q-13.384766 -2.3564453 -12.019531 -2.3564453Q-9.2246094 -2.3564453 -9.2246094 1.0126953L-9.2246094 1.1533203L-13.748047 1.1533203ZM-10.314453 0.34472656Q-10.402344 -0.65722656 -10.824219 -1.1171875Q-11.246094 -1.5771484 -12.037109 -1.5771484Q-12.804688 -1.5771484 -13.25293 -1.0644531Q-13.701172 -0.55175781 -13.736328 0.34472656L-10.314453 0.34472656ZM-6.265625 4.2177734Q-7.2207031 4.2177734 -7.7011719 3.7138672Q-8.1816406 3.2099609 -8.1816406 2.3310547Q-8.1816406 1.3466797 -7.5341797 0.81933594Q-6.8867188 0.29199219 -5.4453125 0.25683594L-4.0214844 0.23339844L-4.0214844 -0.11230469Q-4.0214844 -0.88574219 -4.3496094 -1.2197266Q-4.6777344 -1.5537109 -5.3808594 -1.5537109Q-6.0898438 -1.5537109 -6.4121094 -1.3134766Q-6.734375 -1.0732422 -6.7988281 -0.54589844L-7.9003906 -0.64550781Q-7.6308594 -2.3564453 -5.3574219 -2.3564453Q-4.1621094 -2.3564453 -3.5585938 -1.8085938Q-2.9550781 -1.2607422 -2.9550781 -0.22363281L-2.9550781 2.5068359Q-2.9550781 2.9755859 -2.8320312 3.2128906Q-2.7089844 3.4501953 -2.3632812 3.4501953Q-2.2109375 3.4501953 -2.0175781 3.4091797L-2.0175781 4.0654297Q-2.4160156 4.1591797 -2.8320312 4.1591797Q-3.4179688 4.1591797 -3.6845703 3.8515625Q-3.9511719 3.5439453 -3.9863281 2.8876953L-4.0214844 2.8876953Q-4.4257812 3.6142578 -4.9619141 3.9160156Q-5.4980469 4.2177734 -6.265625 4.2177734ZM-6.0253906 3.4267578Q-5.4453125 3.4267578 -4.9941406 3.1630859Q-4.5429688 2.8994141 -4.2822266 2.4394531Q-4.0214844 1.9794922 -4.0214844 1.4931641L-4.0214844 0.97167969L-5.1757812 0.99511719Q-5.9199219 1.0068359 -6.3037109 1.1474609Q-6.6875 1.2880859 -6.8925781 1.5810547Q-7.0976562 1.8740234 -7.0976562 2.3486328Q-7.0976562 2.8642578 -6.8193359 3.1455078Q-6.5410156 3.4267578 -6.0253906 3.4267578ZM3.5488281 2.3486328Q3.5488281 3.2451172 2.8720703 3.7314453Q2.1953125 4.2177734 0.9765625 4.2177734Q-0.20703125 4.2177734 -0.84863281 3.828125Q-1.4902344 3.4384766 -1.6835938 2.6123047L-0.75195312 2.4306641Q-0.6171875 2.9404297 -0.1953125 3.1777344Q0.2265625 3.4150391 0.9765625 3.4150391Q1.7792969 3.4150391 2.1513672 3.1689453Q2.5234375 2.9228516 2.5234375 2.4306641Q2.5234375 2.0556641 2.265625 1.8212891Q2.0078125 1.5869141 1.4335938 1.4345703L0.67773438 1.2353516Q-0.23046875 1.0009766 -0.61425781 0.77539062Q-0.99804688 0.54980469 -1.2148438 0.22753906Q-1.4316406 -0.094726562 -1.4316406 -0.56347656Q-1.4316406 -1.4306641 -0.81347656 -1.8847656Q-0.1953125 -2.3388672 0.98828125 -2.3388672Q2.0371094 -2.3388672 2.6552734 -1.9697266Q3.2734375 -1.6005859 3.4375 -0.78613281L2.4882812 -0.66894531Q2.4003906 -1.0908203 2.0166016 -1.3164062Q1.6328125 -1.5419922 0.98828125 -1.5419922Q0.2734375 -1.5419922 -0.06640625 -1.3251953Q-0.40625 -1.1083984 -0.40625 -0.66894531Q-0.40625 -0.39941406 -0.265625 -0.22363281Q-0.125 -0.047851562 0.15039062 0.075195312Q0.42578125 0.19824219 1.3105469 0.41503906Q2.1484375 0.62597656 2.5175781 0.8046875Q2.8867188 0.98339844 3.1005859 1.2001953Q3.3144531 1.4169922 3.4316406 1.7011719Q3.5488281 1.9853516 3.5488281 2.3486328ZM5.5996094 1.1533203Q5.5996094 2.2431641 6.0507812 2.8349609Q6.5019531 3.4267578 7.3691406 3.4267578Q8.0546875 3.4267578 8.4677734 3.1513672Q8.8808594 2.8759766 9.0273438 2.4541016L9.953125 2.7177734Q9.3847656 4.2177734 7.3691406 4.2177734Q5.9628906 4.2177734 5.2275391 3.3798828Q4.4921875 2.5419922 4.4921875 0.88964844Q4.4921875 -0.68066406 5.2275391 -1.5185547Q5.9628906 -2.3564453 7.328125 -2.3564453Q10.123047 -2.3564453 10.123047 1.0126953L10.123047 1.1533203L5.5996094 1.1533203ZM9.0332031 0.34472656Q8.9453125 -0.65722656 8.5234375 -1.1171875Q8.1015625 -1.5771484 7.3105469 -1.5771484Q6.5429688 -1.5771484 6.0947266 -1.0644531Q5.6464844 -0.55175781 5.6113281 0.34472656L9.0332031 0.34472656ZM17.992188 -3.2412109L17.992188 4.1005859L16.878906 4.1005859L16.878906 -3.2412109L14.042969 -3.2412109L14.042969 -4.1552734L20.828125 -4.1552734L20.828125 -3.2412109L17.992188 -3.2412109ZM22.199219 4.2177734Q21.244141 4.2177734 20.763672 3.7138672Q20.283203 3.2099609 20.283203 2.3310547Q20.283203 1.3466797 20.930664 0.81933594Q21.578125 0.29199219 23.019531 0.25683594L24.443359 0.23339844L24.443359 -0.11230469Q24.443359 -0.88574219 24.115234 -1.2197266Q23.787109 -1.5537109 23.083984 -1.5537109Q22.375 -1.5537109 22.052734 -1.3134766Q21.730469 -1.0732422 21.666016 -0.54589844L20.564453 -0.64550781Q20.833984 -2.3564453 23.107422 -2.3564453Q24.302734 -2.3564453 24.90625 -1.8085938Q25.509766 -1.2607422 25.509766 -0.22363281L25.509766 2.5068359Q25.509766 2.9755859 25.632812 3.2128906Q25.755859 3.4501953 26.101562 3.4501953Q26.253906 3.4501953 26.447266 3.4091797L26.447266 4.0654297Q26.048828 4.1591797 25.632812 4.1591797Q25.046875 4.1591797 24.780273 3.8515625Q24.513672 3.5439453 24.478516 2.8876953L24.443359 2.8876953Q24.039062 3.6142578 23.50293 3.9160156Q22.966797 4.2177734 22.199219 4.2177734ZM22.439453 3.4267578Q23.019531 3.4267578 23.470703 3.1630859Q23.921875 2.8994141 24.182617 2.4394531Q24.443359 1.9794922 24.443359 1.4931641L24.443359 0.97167969L23.289062 0.99511719Q22.544922 1.0068359 22.161133 1.1474609Q21.777344 1.2880859 21.572266 1.5810547Q21.367188 1.8740234 21.367188 2.3486328Q21.367188 2.8642578 21.645508 3.1455078Q21.923828 3.4267578 22.439453 3.4267578ZM29.658203 6.5908203Q28.621094 6.5908203 28.005859 6.1835938Q27.390625 5.7763672 27.214844 5.0263672L28.275391 4.8740234Q28.380859 5.3134766 28.741211 5.5507812Q29.101562 5.7880859 29.6875 5.7880859Q31.263672 5.7880859 31.263672 3.9423828L31.263672 2.9228516L31.251953 2.9228516Q30.953125 3.5322266 30.431641 3.8398438Q29.910156 4.1474609 29.212891 4.1474609Q28.046875 4.1474609 27.499023 3.3740234Q26.951172 2.6005859 26.951172 0.94238281Q26.951172 -0.73925781 27.540039 -1.5390625Q28.128906 -2.3388672 29.330078 -2.3388672Q30.003906 -2.3388672 30.499023 -2.03125Q30.994141 -1.7236328 31.263672 -1.1552734L31.275391 -1.1552734Q31.275391 -1.3310547 31.298828 -1.7646484Q31.322266 -2.1982422 31.345703 -2.2392578L32.347656 -2.2392578Q32.3125 -1.9228516 32.3125 -0.92675781L32.3125 3.9189453Q32.3125 6.5908203 29.658203 6.5908203ZM31.263672 0.93066406Q31.263672 0.15722656 31.052734 -0.40234375Q30.841797 -0.96191406 30.458008 -1.2578125Q30.074219 -1.5537109 29.587891 -1.5537109Q28.779297 -1.5537109 28.410156 -0.96777344Q28.041016 -0.38183594 28.041016 0.93066406Q28.041016 2.2314453 28.386719 2.7998047Q28.732422 3.3681641 29.570312 3.3681641Q30.068359 3.3681641 30.455078 3.0751953Q30.841797 2.7822266 31.052734 2.234375Q31.263672 1.6865234 31.263672 0.93066406Z"/>
	<path fill="none" stroke="black" stroke-width="1" stroke-miterlimit="10" stroke-opacity="0.10196079" d="M50 749.5L1194 749.5"/>
	<path fill="none" stroke="black" stroke-width="1" stroke-miterlimit="10" stroke-opacity="0.10196079" d="M41.75 749.5L49 749.5"/>
	<path fill="none" stroke="black" stroke-width="1" stroke-miterlimit="10" stroke-opacity="0.10196079" d="M50 681.5L1194 681.5"/>
	<path fill="none" stroke="black" stroke-width="1" stroke-miterlimit="10" stroke-opacity="0.10196079" d="M41.75 681.5L49 681.5"/>
	<path fill="none" stroke="black" stroke-width="1" stroke-miterlimit="10" stroke-opacity="0.10196079" d="M50 613.5L1194 613.5"/>
	<path fill="none" stroke="black" stroke-width="1" stroke-miterlimit="10" stroke-opacity="0.10196079" d="M41.75 613.5L49 613.5"/>
	<path fill="none" stroke="black" stroke-width="1" stroke-miterlimit="10" stroke-opacity="0.10196079" d="M50 545.5L1194 545.5"/>
	<path fill="none" stroke="black" stroke-width="1" stroke-miterlimit="10" stroke-opacity="0.10196079" d="M41.75 545.5L49 545.5"/>
	<path fill="none" stroke="black" stroke-width="1" stroke-miterlimit="10" stroke-opacity="0.10196079" d="M50 478.5L1194 478.5"/>
	<path fill="none" stroke="black" stroke-width="1" stroke-miterlimit="10" stroke-opacity="0.10196079" d="M41.75 478.5L49 478.5"/>
	<path fill="none" stroke="black" stroke-width="1" stroke-miterlimit="10" stroke-opacity="0.10196079" d="M50 410.5L1194 410.5"/>
	<path fill="none" stroke="black" stroke-width="1" stroke-miterlimit="10" stroke-opacity="0.10196079" d="M41.75 410.5L49 410.5"/>
	<path fill="none" stroke="black" stroke-width="1" stroke-miterlimit="10" stroke-opacity="0.10196079" d="M50 342.5L1194 342.5"/>
	<path fill="none" stroke="black" stroke-width="1" stroke-miterlimit="10" stroke-opacity="0.10196079" d="M41.75 342.5L49 342.5"/>
	<path fill="none" stroke="black" stroke-width="1" stroke-miterlimit="10" stroke-opacity="0.10196079" d="M50 274.5L1194 274.5"/>
	<path fill="none" stroke="black" stroke-width="1" stroke-miterlimit="10" stroke-opacity="0.10196079" d="M41.75 274.5L49 274.5"/>
	<path fill="none" stroke="black" stroke-width="1" stroke-miterlimit="10" stroke-opacity="0.10196079" d="M50 206.5L1194 206.5"/>
	<path fill="none" stroke="black" stroke-width="1" stroke-miterlimit="10" stroke-opacity="0.10196079" d="M41.75 206.5L49 206.5"/>
	<path fill="none" stroke="black" stroke-width="1" stroke-miterlimit="10" stroke-opacity="0.10196079" d="M50 139.5L1194 139.5"/>
	<path fill="none" stroke="black" stroke-width="1" stroke-miterlimit="10" stroke-opacity="0.10196079" d="M41.75 139.5L49 139.5"/>
	<path fill="none" stroke="black" stroke-width="1" stroke-miterlimit="10" stroke-opacity="0.10196079" d="M50 71.5L1194 71.5"/>
	<path fill="none" stroke="black" stroke-width="1" stroke-miterlimit="10" stroke-opacity="0.10196079" d="M41.75 71.5L49 71.5"/>
	<path fill="#666" transform="matrix(0 -1 1 0 11.2 410.2)" d="M-21.591797 -0.11230469Q-21.591797 1.1650391 -22.089844 2.1230469Q-22.587891 3.0810547 -23.501953 3.5908203Q-24.416016 4.1005859 -25.611328 4.1005859L-28.699219 4.1005859L-28.699219 -4.1552734L-25.96875 -4.1552734Q-23.871094 -4.1552734 -22.731445 -3.1035156Q-21.591797 -2.0517578 -21.591797 -0.11230469ZM-22.716797 -0.11230469Q-22.716797 -1.6474609 -23.557617 -2.453125Q-24.398438 -3.2587891 -25.992188 -3.2587891L-27.580078 -3.2587891L-27.580078 3.2041016L-25.740234 3.2041016Q-24.832031 3.2041016 -24.143555 2.8056641Q-23.455078 2.4072266 -23.085938 1.6572266Q-22.716797 0.90722656 -22.716797 -0.11230469ZM-14.847656 0.92480469Q-14.847656 2.5888672 -15.580078 3.4033203Q-16.3125 4.2177734 -17.707031 4.2177734Q-19.095703 4.2177734 -19.804688 3.3710938Q-20.513672 2.5244141 -20.513672 0.92480469Q-20.513672 -2.3564453 -17.671875 -2.3564453Q-16.21875 -2.3564453 -15.533203 -1.5566406Q-14.847656 -0.75683594 -14.847656 0.92480469ZM-15.955078 0.92480469Q-15.955078 -0.38769531 -16.344727 -0.98242188Q-16.734375 -1.5771484 -17.654297 -1.5771484Q-18.580078 -1.5771484 -18.993164 -0.97070312Q-19.40625 -0.36425781 -19.40625 0.92480469Q-19.40625 2.1787109 -18.999023 2.8085938Q-18.591797 3.4384766 -17.71875 3.4384766Q-16.769531 3.4384766 -16.362305 2.8291016Q-15.955078 2.2197266 -15.955078 0.92480469ZM-7.4648438 4.1005859L-8.6894531 4.1005859L-9.796875 -0.38183594L-10.007812 -1.3720703Q-10.060547 -1.1083984 -10.171875 -0.61328125Q-10.283203 -0.11816406 -11.367188 4.1005859L-12.585938 4.1005859L-14.361328 -2.2392578L-13.318359 -2.2392578L-12.246094 2.0673828Q-12.205078 2.2080078 -11.994141 3.2275391L-11.894531 2.7939453L-10.570312 -2.2392578L-9.4394531 -2.2392578L-8.3320312 2.1142578L-8.0625 3.2275391L-7.8808594 2.4130859L-6.6796875 -2.2392578L-5.6484375 -2.2392578L-7.4648438 4.1005859ZM-0.84375 4.1005859L-0.84375 0.081054688Q-0.84375 -0.54589844 -0.96679688 -0.89160156Q-1.0898438 -1.2373047 -1.359375 -1.3896484Q-1.6289062 -1.5419922 -2.1503906 -1.5419922Q-2.9121094 -1.5419922 -3.3515625 -1.0205078Q-3.7910156 -0.49902344 -3.7910156 0.42675781L-3.7910156 4.1005859L-4.8457031 4.1005859L-4.8457031 -0.88574219Q-4.8457031 -1.9931641 -4.8808594 -2.2392578L-3.8847656 -2.2392578Q-3.8789062 -2.2099609 -3.8730469 -2.0810547Q-3.8671875 -1.9521484 -3.8583984 -1.7851562Q-3.8496094 -1.6181641 -3.8378906 -1.1552734L-3.8203125 -1.1552734Q-3.4570312 -1.8115234 -2.9794922 -2.0839844Q-2.5019531 -2.3564453 -1.7929688 -2.3564453Q-0.75 -2.3564453 -0.26660156 -1.8378906Q0.21679688 -1.3193359 0.21679688 -0.12402344L0.21679688 4.1005859L-0.84375 4.1005859ZM1.8046875 4.1005859L1.8046875 -4.5947266L2.859375 -4.5947266L2.859375 4.1005859L1.8046875 4.1005859ZM9.8320312 0.92480469Q9.8320312 2.5888672 9.0996094 3.4033203Q8.3671875 4.2177734 6.9726562 4.2177734Q5.5839844 4.2177734 4.875 3.3710938Q4.1660156 2.5244141 4.1660156 0.92480469Q4.1660156 -2.3564453 7.0078125 -2.3564453Q8.4609375 -2.3564453 9.1464844 -1.5566406Q9.8320312 -0.75683594 9.8320312 0.92480469ZM8.7246094 0.92480469Q8.7246094 -0.38769531 8.3349609 -0.98242188Q7.9453125 -1.5771484 7.0253906 -1.5771484Q6.0996094 -1.5771484 5.6865234 -0.97070312Q5.2734375 -0.36425781 5.2734375 0.92480469Q5.2734375 2.1787109 5.6806641 2.8085938Q6.0878906 3.4384766 6.9609375 3.4384766Q7.9101562 3.4384766 8.3173828 2.8291016Q8.7246094 2.2197266 8.7246094 0.92480469ZM12.761719 4.2177734Q11.806641 4.2177734 11.326172 3.7138672Q10.845703 3.2099609 10.845703 2.3310547Q10.845703 1.3466797 11.493164 0.81933594Q12.140625 0.29199219 13.582031 0.25683594L15.005859 0.23339844L15.005859 -0.11230469Q15.005859 -0.88574219 14.677734 -1.2197266Q14.349609 -1.5537109 13.646484 -1.5537109Q12.9375 -1.5537109 12.615234 -1.3134766Q12.292969 -1.0732422 12.228516 -0.54589844L11.126953 -0.64550781Q11.396484 -2.3564453 13.669922 -2.3564453Q14.865234 -2.3564453 15.46875 -1.8085938Q16.072266 -1.2607422 16.072266 -0.22363281L16.072266 2.5068359Q16.072266 2.9755859 16.195312 3.2128906Q16.318359 3.4501953 16.664062 3.4501953Q16.816406 3.4501953 17.009766 3.4091797L17.009766 4.0654297Q16.611328 4.1591797 16.195312 4.1591797Q15.609375 4.1591797 15.342773 3.8515625Q15.076172 3.5439453 15.041016 2.8876953L15.005859 2.8876953Q14.601562 3.6142578 14.06543 3.9160156Q13.529297 4.2177734 12.761719 4.2177734ZM13.001953 3.4267578Q13.582031 3.4267578 14.033203 3.1630859Q14.484375 2.8994141 14.745117 2.4394531Q15.005859 1.9794922 15.005859 1.4931641L15.005859 0.97167969L13.851562 0.99511719Q13.107422 1.0068359 12.723633 1.1474609Q12.339844 1.2880859 12.134766 1.5810547Q11.929688 1.8740234 11.929688 2.3486328Q11.929688 2.8642578 12.208008 3.1455078Q12.486328 3.4267578 13.001953 3.4267578ZM21.820312 3.0810547Q21.527344 3.6904297 21.043945 3.9541016Q20.560547 4.2177734 19.845703 4.2177734Q18.644531 4.2177734 18.079102 3.4091797Q17.513672 2.6005859 17.513672 0.95996094Q17.513672 -2.3564453 19.845703 -2.3564453Q20.566406 -2.3564453 21.046875 -2.0927734Q21.527344 -1.8291016 21.820312 -1.2548828L21.832031 -1.2548828L21.820312 -1.9638672L21.820312 -4.5947266L22.875 -4.5947266L22.875 2.7939453Q22.875 3.7841797 22.910156 4.1005859L21.902344 4.1005859Q21.884766 4.0068359 21.864258 3.6669922Q21.84375 3.3271484 21.84375 3.0810547L21.820312 3.0810547ZM18.621094 0.92480469Q18.621094 2.2548828 18.972656 2.8291016Q19.324219 3.4033203 20.115234 3.4033203Q21.011719 3.4033203 21.416016 2.7822266Q21.820312 2.1611328 21.820312 0.85449219Q21.820312 -0.40527344 21.416016 -0.99121094Q21.011719 -1.5771484 20.126953 -1.5771484Q19.330078 -1.5771484 18.975586 -0.98828125Q18.621094 -0.39941406 18.621094 0.92480469ZM29.25 2.3486328Q29.25 3.2451172 28.573242 3.7314453Q27.896484 4.2177734 26.677734 4.2177734Q25.494141 4.2177734 24.852539 3.828125Q24.210938 3.4384766 24.017578 2.6123047L24.949219 2.4306641Q25.083984 2.9404297 25.505859 3.1777344Q25.927734 3.4150391 26.677734 3.4150391Q27.480469 3.4150391 27.852539 3.1689453Q28.224609 2.9228516 28.224609 2.4306641Q28.224609 2.0556641 27.966797 1.8212891Q27.708984 1.5869141 27.134766 1.4345703L26.378906 1.2353516Q25.470703 1.0009766 25.086914 0.77539062Q24.703125 0.54980469 24.486328 0.22753906Q24.269531 -0.094726562 24.269531 -0.56347656Q24.269531 -1.4306641 24.887695 -1.8847656Q25.505859 -2.3388672 26.689453 -2.3388672Q27.738281 -2.3388672 28.356445 -1.9697266Q28.974609 -1.6005859 29.138672 -0.78613281L28.189453 -0.66894531Q28.101562 -1.0908203 27.717773 -1.3164062Q27.333984 -1.5419922 26.689453 -1.5419922Q25.974609 -1.5419922 25.634766 -1.3251953Q25.294922 -1.1083984 25.294922 -0.66894531Q25.294922 -0.39941406 25.435547 -0.22363281Q25.576172 -0.047851562 25.851562 0.075195312Q26.126953 0.19824219 27.011719 0.41503906Q27.849609 0.62597656 28.21875 0.8046875Q28.587891 0.98339844 28.801758 1.2001953Q29.015625 1.4169922 29.132812 1.7011719Q29.25 1.9853516 29.25 2.3486328Z"/>
	<clipPath id="cl_720">
		<rect y="39.200001" width="1200" height="31.999996"/>
	</clipPath>
	<g clip-path="url(#cl_720)">
		<path fill="#C32222" fill-opacity="0.2" d="M569.33002 49.200001L609.33002 49.200001L609.33002 61.200001L569.33002 61.200001L569.33002 49.200001Z"/>
		<path fill="none" stroke="#C32222" stroke-width="2" stroke-miterlimit="10" d="M569.33002 49.200001L609.33002 49.200001L609.33002 61.200001L569.33002 61.200001L569.33002 49.200001Z"/>
	</g>
	<clipPath id="cl_721">
		<rect y="39.200001" width="1200" height="31.999996"/>
	</clipPath>
	<g clip-path="url(#cl_721)">
		<path fill="#666" d="M615.81635 59.300587L615.81635 58.497852L619.36127 53.775196L616.01556 53.775196L616.01556 52.960743L620.60931 52.960743L620.60931 53.763477L617.05853 58.486134L620.73236 58.486134L620.73236 59.300587L615.81635 59.300587ZM622.13275 51.613087L622.13275 50.605274L623.18744 50.605274L623.18744 51.613087L622.13275 51.613087ZM622.13275 59.300587L622.13275 52.960743L623.18744 52.960743L623.18744 59.300587L622.13275 59.300587ZM630.16595 56.101368Q630.16595 59.417774 627.83392 59.417774Q626.36908 59.417774 625.86517 58.316212L625.83588 58.316212Q625.85931 58.363087 625.85931 59.312305L625.85931 61.790821L624.80463 61.790821L624.80463 54.255665Q624.80463 53.277149 624.76947 52.960743L625.789 52.960743Q625.79486 52.98418 625.80658 53.127735Q625.8183 53.27129 625.83295 53.570118Q625.8476 53.868946 625.8476 53.980274L625.87103 53.980274Q626.15228 53.394337 626.61517 53.121876Q627.07806 52.849415 627.83392 52.849415Q629.0058 52.849415 629.58588 53.634571Q630.16595 54.419727 630.16595 56.101368ZM629.05853 56.124805Q629.05853 54.800587 628.70111 54.232227Q628.34369 53.663868 627.56439 53.663868Q626.93744 53.663868 626.58295 53.92754Q626.22845 54.191212 626.04388 54.750782Q625.85931 55.310352 625.85931 56.206837Q625.85931 57.454884 626.25775 58.04668Q626.65619 58.638477 627.55267 58.638477Q628.33783 58.638477 628.69818 58.061329Q629.05853 57.48418 629.05853 56.124805Z"/>
	</g>
	<path fill="#666" transform="translate(600 19.6)" d="M-288.96094 3.3320312Q-288.96094 4.5585938 -289.96484 5.2578125Q-290.96875 5.9570312 -292.74219 5.9570312Q-294.48438 5.9570312 -295.41016 5.40625Q-296.33594 4.8554688 -296.64062 3.6914062L-294.71094 3.4023438Q-294.54688 4.0039062 -294.14453 4.2539062Q-293.74219 4.5039062 -292.74219 4.5039062Q-291.82031 4.5039062 -291.39844 4.2695312Q-290.97656 4.0351562 -290.97656 3.5351562Q-290.97656 3.1289062 -291.31641 2.890625Q-291.65625 2.6523438 -292.46875 2.4882812Q-294.32812 2.1210938 -294.97656 1.8046875Q-295.625 1.4882812 -295.96484 0.984375Q-296.30469 0.48046875 -296.30469 -0.25390625Q-296.30469 -1.4648438 -295.37109 -2.140625Q-294.4375 -2.8164062 -292.72656 -2.8164062Q-291.21875 -2.8164062 -290.30078 -2.2304688Q-289.38281 -1.6445312 -289.15625 -0.53515625L-291.10156 -0.33203125Q-291.19531 -0.84765625 -291.5625 -1.1015625Q-291.92969 -1.3554688 -292.72656 -1.3554688Q-293.50781 -1.3554688 -293.89844 -1.15625Q-294.28906 -0.95703125 -294.28906 -0.48828125Q-294.28906 -0.12109375 -293.98828 0.09375Q-293.6875 0.30859375 -292.97656 0.44921875Q-291.98438 0.65234375 -291.21484 0.8671875Q-290.44531 1.0820312 -289.98047 1.3789062Q-289.51562 1.6757812 -289.23828 2.140625Q-288.96094 2.6054688 -288.96094 3.3320312ZM-285.23438 5.9570312Q-286.46094 5.9570312 -287.14844 5.2890625Q-287.83594 4.6210938 -287.83594 3.4101562Q-287.83594 2.0976562 -286.98047 1.4101562Q-286.125 0.72265625 -284.5 0.70703125L-282.67969 0.67578125L-282.67969 0.24609375Q-282.67969 -0.58203125 -282.96875 -0.984375Q-283.25781 -1.3867188 -283.91406 -1.3867188Q-284.52344 -1.3867188 -284.80859 -1.109375Q-285.09375 -0.83203125 -285.16406 -0.19140625L-287.45312 -0.30078125Q-287.24219 -1.5351562 -286.32422 -2.171875Q-285.40625 -2.8085938 -283.82031 -2.8085938Q-282.21875 -2.8085938 -281.35156 -2.0195312Q-280.48438 -1.2304688 -280.48438 0.22265625L-280.48438 3.3007812Q-280.48438 4.0117188 -280.32422 4.28125Q-280.16406 4.5507812 -279.78906 4.5507812Q-279.53906 4.5507812 -279.30469 4.5039062L-279.30469 5.6914062Q-279.5 5.7382812 -279.65625 5.7773438Q-279.8125 5.8164062 -279.96875 5.8398438Q-280.125 5.8632812 -280.30078 5.8789062Q-280.47656 5.8945312 -280.71094 5.8945312Q-281.53906 5.8945312 -281.93359 5.4882812Q-282.32812 5.0820312 -282.40625 4.2929688L-282.45312 4.2929688Q-283.375 5.9570312 -285.23438 5.9570312ZM-282.67969 1.8867188L-283.80469 1.9023438Q-284.57031 1.9335938 -284.89062 2.0703125Q-285.21094 2.2070312 -285.37891 2.4882812Q-285.54688 2.7695312 -285.54688 3.2382812Q-285.54688 3.8398438 -285.26953 4.1328125Q-284.99219 4.4257812 -284.53125 4.4257812Q-284.01562 4.4257812 -283.58984 4.1445312Q-283.16406 3.8632812 -282.92188 3.3671875Q-282.67969 2.8710938 -282.67969 2.3164062L-282.67969 1.8867188ZM-278.28906 -4.1757812L-278.28906 -5.7929688L-276.09375 -5.7929688L-276.09375 -4.1757812L-278.28906 -4.1757812ZM-278.28906 5.8007812L-278.28906 -2.6523438L-276.09375 -2.6523438L-276.09375 5.8007812L-278.28906 5.8007812ZM-273.84375 5.8007812L-273.84375 -5.7929688L-271.64844 -5.7929688L-271.64844 5.8007812L-273.84375 5.8007812ZM-261.39844 1.5351562Q-261.39844 3.6523438 -262.24609 4.8046875Q-263.09375 5.9570312 -264.64062 5.9570312Q-265.53125 5.9570312 -266.19141 5.5703125Q-266.85156 5.1835938 -267.20312 4.4570312L-267.25 4.4570312Q-267.20312 4.6914062 -267.20312 5.8789062L-267.20312 9.1210938L-269.39844 9.1210938L-269.39844 -0.70703125Q-269.39844 -1.9023438 -269.46094 -2.6523438L-267.32812 -2.6523438Q-267.28906 -2.5117188 -267.26172 -2.0976562Q-267.23438 -1.6835938 -267.23438 -1.2773438L-267.20312 -1.2773438Q-266.46094 -2.8320312 -264.5 -2.8320312Q-263.02344 -2.8320312 -262.21094 -1.6953125Q-261.39844 -0.55859375 -261.39844 1.5351562ZM-263.6875 1.5351562Q-263.6875 -1.3085938 -265.42969 -1.3085938Q-266.30469 -1.3085938 -266.76953 -0.54296875Q-267.23438 0.22265625 -267.23438 1.5976562Q-267.23438 2.9648438 -266.76953 3.7109375Q-266.30469 4.4570312 -265.44531 4.4570312Q-263.6875 4.4570312 -263.6875 1.5351562ZM-251.59375 1.5664062Q-251.59375 3.6210938 -252.73438 4.7890625Q-253.875 5.9570312 -255.89062 5.9570312Q-257.86719 5.9570312 -258.99219 4.7851562Q-260.11719 3.6132812 -260.11719 1.5664062Q-260.11719 -0.47265625 -258.99219 -1.640625Q-257.86719 -2.8085938 -255.84375 -2.8085938Q-253.77344 -2.8085938 -252.68359 -1.6796875Q-251.59375 -0.55078125 -251.59375 1.5664062ZM-253.89062 1.5664062Q-253.89062 0.05859375 -254.38281 -0.62109375Q-254.875 -1.3007812 -255.8125 -1.3007812Q-257.8125 -1.3007812 -257.8125 1.5664062Q-257.8125 2.9804688 -257.32422 3.71875Q-256.83594 4.4570312 -255.91406 4.4570312Q-253.89062 4.4570312 -253.89062 1.5664062ZM-249.85156 -4.1757812L-249.85156 -5.7929688L-247.65625 -5.7929688L-247.65625 -4.1757812L-249.85156 -4.1757812ZM-249.85156 5.8007812L-249.85156 -2.6523438L-247.65625 -2.6523438L-247.65625 5.8007812L-249.85156 5.8007812ZM-239.92969 5.8007812L-239.92969 1.0585938Q-239.92969 -1.1679688 -241.4375 -1.1679688Q-242.23438 -1.1679688 -242.72266 -0.484375Q-243.21094 0.19921875 -243.21094 1.2695312L-243.21094 5.8007812L-245.40625 5.8007812L-245.40625 -0.76171875Q-245.40625 -1.4414062 -245.42578 -1.875Q-245.44531 -2.3085938 -245.46875 -2.6523438L-243.375 -2.6523438Q-243.35156 -2.5039062 -243.3125 -1.859375Q-243.27344 -1.2148438 -243.27344 -0.97265625L-243.24219 -0.97265625Q-242.79688 -1.9414062 -242.125 -2.3789062Q-241.45312 -2.8164062 -240.52344 -2.8164062Q-239.17969 -2.8164062 -238.46094 -1.9882812Q-237.74219 -1.1601562 -237.74219 0.43359375L-237.74219 5.8007812L-239.92969 5.8007812ZM-233.46875 5.9414062Q-234.4375 5.9414062 -234.96094 5.4140625Q-235.48438 4.8867188 -235.48438 3.8164062L-235.48438 -1.1679688L-236.55469 -1.1679688L-236.55469 -2.6523438L-235.375 -2.6523438L-234.6875 -4.6367188L-233.3125 -4.6367188L-233.3125 -2.6523438L-231.71094 -2.6523438L-231.71094 -1.1679688L-233.3125 -1.1679688L-233.3125 3.2226562Q-233.3125 3.8398438 -233.07812 4.1328125Q-232.84375 4.4257812 -232.35156 4.4257812Q-232.09375 4.4257812 -231.61719 4.3164062L-231.61719 5.6757812Q-232.42969 5.9414062 -233.46875 5.9414062ZM-230.79688 2.6054688L-230.79688 0.69921875L-226.73438 0.69921875L-226.73438 2.6054688L-230.79688 2.6054688ZM-216.94531 1.5664062Q-216.94531 3.6210938 -218.08594 4.7890625Q-219.22656 5.9570312 -221.24219 5.9570312Q-223.21875 5.9570312 -224.34375 4.7851562Q-225.46875 3.6132812 -225.46875 1.5664062Q-225.46875 -0.47265625 -224.34375 -1.640625Q-223.21875 -2.8085938 -221.19531 -2.8085938Q-219.125 -2.8085938 -218.03516 -1.6796875Q-216.94531 -0.55078125 -216.94531 1.5664062ZM-219.24219 1.5664062Q-219.24219 0.05859375 -219.73438 -0.62109375Q-220.22656 -1.3007812 -221.16406 -1.3007812Q-223.16406 -1.3007812 -223.16406 1.5664062Q-223.16406 2.9804688 -222.67578 3.71875Q-222.1875 4.4570312 -221.26562 4.4570312Q-219.24219 4.4570312 -219.24219 1.5664062ZM-208.07812 3.3320312Q-208.07812 4.5585938 -209.08203 5.2578125Q-210.08594 5.9570312 -211.85938 5.9570312Q-213.60156 5.9570312 -214.52734 5.40625Q-215.45312 4.8554688 -215.75781 3.6914062L-213.82812 3.4023438Q-213.66406 4.0039062 -213.26172 4.2539062Q-212.85938 4.5039062 -211.85938 4.5039062Q-210.9375 4.5039062 -210.51562 4.2695312Q-210.09375 4.0351562 -210.09375 3.5351562Q-210.09375 3.1289062 -210.43359 2.890625Q-210.77344 2.6523438 -211.58594 2.4882812Q-213.44531 2.1210938 -214.09375 1.8046875Q-214.74219 1.4882812 -215.08203 0.984375Q-215.42188 0.48046875 -215.42188 -0.25390625Q-215.42188 -1.4648438 -214.48828 -2.140625Q-213.55469 -2.8164062 -211.84375 -2.8164062Q-210.33594 -2.8164062 -209.41797 -2.2304688Q-208.5 -1.6445312 -208.27344 -0.53515625L-210.21875 -0.33203125Q-210.3125 -0.84765625 -210.67969 -1.1015625Q-211.04688 -1.3554688 -211.84375 -1.3554688Q-212.625 -1.3554688 -213.01562 -1.15625Q-213.40625 -0.95703125 -213.40625 -0.48828125Q-213.40625 -0.12109375 -213.10547 0.09375Q-212.80469 0.30859375 -212.09375 0.44921875Q-211.10156 0.65234375 -210.33203 0.8671875Q-209.5625 1.0820312 -209.09766 1.3789062Q-208.63281 1.6757812 -208.35547 2.140625Q-208.07812 2.6054688 -208.07812 3.3320312ZM-199.17969 3.3320312Q-199.17969 4.5585938 -200.18359 5.2578125Q-201.1875 5.9570312 -202.96094 5.9570312Q-204.70312 5.9570312 -205.62891 5.40625Q-206.55469 4.8554688 -206.85938 3.6914062L-204.92969 3.4023438Q-204.76562 4.0039062 -204.36328 4.2539062Q-203.96094 4.5039062 -202.96094 4.5039062Q-202.03906 4.5039062 -201.61719 4.2695312Q-201.19531 4.0351562 -201.19531 3.5351562Q-201.19531 3.1289062 -201.53516 2.890625Q-201.875 2.6523438 -202.6875 2.4882812Q-204.54688 2.1210938 -205.19531 1.8046875Q-205.84375 1.4882812 -206.18359 0.984375Q-206.52344 0.48046875 -206.52344 -0.25390625Q-206.52344 -1.4648438 -205.58984 -2.140625Q-204.65625 -2.8164062 -202.94531 -2.8164062Q-201.4375 -2.8164062 -200.51953 -2.2304688Q-199.60156 -1.6445312 -199.375 -0.53515625L-201.32031 -0.33203125Q-201.41406 -0.84765625 -201.78125 -1.1015625Q-202.14844 -1.3554688 -202.94531 -1.3554688Q-203.72656 -1.3554688 -204.11719 -1.15625Q-204.50781 -0.95703125 -204.50781 -0.48828125Q-204.50781 -0.12109375 -204.20703 0.09375Q-203.90625 0.30859375 -203.19531 0.44921875Q-202.20312 0.65234375 -201.43359 0.8671875Q-200.66406 1.0820312 -200.19922 1.3789062Q-199.73438 1.6757812 -199.45703 2.140625Q-199.17969 2.6054688 -199.17969 3.3320312ZM-198.36719 6.1210938L-196.09375 -5.7929688L-194.23438 -5.7929688L-196.46875 6.1210938L-198.36719 6.1210938ZM-189.4375 5.9570312Q-191.35938 5.9570312 -192.40625 4.8125Q-193.45312 3.6679688 -193.45312 1.6210938Q-193.45312 -0.47265625 -192.39844 -1.640625Q-191.34375 -2.8085938 -189.40625 -2.8085938Q-187.91406 -2.8085938 -186.9375 -2.0585938Q-185.96094 -1.3085938 -185.71094 0.01171875L-187.92188 0.12109375Q-188.01562 -0.52734375 -188.39062 -0.9140625Q-188.76562 -1.3007812 -189.45312 -1.3007812Q-191.14844 -1.3007812 -191.14844 1.5351562Q-191.14844 4.4570312 -189.42188 4.4570312Q-188.79688 4.4570312 -188.375 4.0625Q-187.95312 3.6679688 -187.85156 2.8867188L-185.64844 2.9882812Q-185.76562 3.8554688 -186.26953 4.5351562Q-186.77344 5.2148438 -187.59375 5.5859375Q-188.41406 5.9570312 -189.4375 5.9570312ZM-176.03125 1.5664062Q-176.03125 3.6210938 -177.17188 4.7890625Q-178.3125 5.9570312 -180.32812 5.9570312Q-182.30469 5.9570312 -183.42969 4.7851562Q-184.55469 3.6132812 -184.55469 1.5664062Q-184.55469 -0.47265625 -183.42969 -1.640625Q-182.30469 -2.8085938 -180.28125 -2.8085938Q-178.21094 -2.8085938 -177.12109 -1.6796875Q-176.03125 -0.55078125 -176.03125 1.5664062ZM-178.32812 1.5664062Q-178.32812 0.05859375 -178.82031 -0.62109375Q-179.3125 -1.3007812 -180.25 -1.3007812Q-182.25 -1.3007812 -182.25 1.5664062Q-182.25 2.9804688 -181.76172 3.71875Q-181.27344 4.4570312 -180.35156 4.4570312Q-178.32812 4.4570312 -178.32812 1.5664062ZM-174.28906 5.8007812L-174.28906 -5.7929688L-172.09375 -5.7929688L-172.09375 5.8007812L-174.28906 5.8007812ZM-167.89062 5.9570312Q-169.11719 5.9570312 -169.80469 5.2890625Q-170.49219 4.6210938 -170.49219 3.4101562Q-170.49219 2.0976562 -169.63672 1.4101562Q-168.78125 0.72265625 -167.15625 0.70703125L-165.33594 0.67578125L-165.33594 0.24609375Q-165.33594 -0.58203125 -165.625 -0.984375Q-165.91406 -1.3867188 -166.57031 -1.3867188Q-167.17969 -1.3867188 -167.46484 -1.109375Q-167.75 -0.83203125 -167.82031 -0.19140625L-170.10938 -0.30078125Q-169.89844 -1.5351562 -168.98047 -2.171875Q-168.0625 -2.8085938 -166.47656 -2.8085938Q-164.875 -2.8085938 -164.00781 -2.0195312Q-163.14062 -1.2304688 -163.14062 0.22265625L-163.14062 3.3007812Q-163.14062 4.0117188 -162.98047 4.28125Q-162.82031 4.5507812 -162.44531 4.5507812Q-162.19531 4.5507812 -161.96094 4.5039062L-161.96094 5.6914062Q-162.15625 5.7382812 -162.3125 5.7773438Q-162.46875 5.8164062 -162.625 5.8398438Q-162.78125 5.8632812 -162.95703 5.8789062Q-163.13281 5.8945312 -163.36719 5.8945312Q-164.19531 5.8945312 -164.58984 5.4882812Q-164.98438 5.0820312 -165.0625 4.2929688L-165.10938 4.2929688Q-166.03125 5.9570312 -167.89062 5.9570312ZM-165.33594 1.8867188L-166.46094 1.9023438Q-167.22656 1.9335938 -167.54688 2.0703125Q-167.86719 2.2070312 -168.03516 2.4882812Q-168.20312 2.7695312 -168.20312 3.2382812Q-168.20312 3.8398438 -167.92578 4.1328125Q-167.64844 4.4257812 -167.1875 4.4257812Q-166.67188 4.4257812 -166.24609 4.1445312Q-165.82031 3.8632812 -165.57812 3.3671875Q-165.33594 2.8710938 -165.33594 2.3164062L-165.33594 1.8867188ZM-152.94531 1.5429688Q-152.94531 3.6367188 -153.78516 4.796875Q-154.625 5.9570312 -156.1875 5.9570312Q-157.08594 5.9570312 -157.74219 5.5664062Q-158.39844 5.1757812 -158.75 4.4414062L-158.76562 4.4414062Q-158.76562 4.7148438 -158.80078 5.1914062Q-158.83594 5.6679688 -158.875 5.8007812L-161.00781 5.8007812Q-160.94531 5.0742188 -160.94531 3.8710938L-160.94531 -5.7929688L-158.75 -5.7929688L-158.75 -2.5585938L-158.78125 -1.1835938L-158.75 -1.1835938Q-158.00781 -2.8085938 -156.04688 -2.8085938Q-154.54688 -2.8085938 -153.74609 -1.671875Q-152.94531 -0.53515625 -152.94531 1.5429688ZM-155.23438 1.5429688Q-155.23438 0.10546875 -155.65625 -0.58984375Q-156.07812 -1.2851562 -156.96094 -1.2851562Q-157.85156 -1.2851562 -158.31641 -0.5390625Q-158.78125 0.20703125 -158.78125 1.6132812Q-158.78125 2.9570312 -158.32422 3.7070312Q-157.86719 4.4570312 -156.97656 4.4570312Q-155.23438 4.4570312 -155.23438 1.5429688ZM-151.66406 2.6054688L-151.66406 0.69921875L-147.60156 0.69921875L-147.60156 2.6054688L-151.66406 2.6054688ZM-145.84375 -4.1757812L-145.84375 -5.7929688L-143.64844 -5.7929688L-143.64844 -4.1757812L-145.84375 -4.1757812ZM-145.84375 5.8007812L-145.84375 -2.6523438L-143.64844 -2.6523438L-143.64844 5.8007812L-145.84375 5.8007812ZM-135.92188 5.8007812Q-135.95312 5.6835938 -135.99609 5.2109375Q-136.03906 4.7382812 -136.03906 4.4257812L-136.07031 4.4257812Q-136.78125 5.9570312 -138.77344 5.9570312Q-140.25 5.9570312 -141.05469 4.8046875Q-141.85938 3.6523438 -141.85938 1.5820312Q-141.85938 -0.51953125 -141.01172 -1.6640625Q-140.16406 -2.8085938 -138.60938 -2.8085938Q-137.71094 -2.8085938 -137.05859 -2.4335938Q-136.40625 -2.0585938 -136.05469 -1.3164062L-136.03906 -1.3164062L-136.05469 -2.7070312L-136.05469 -5.7929688L-133.85938 -5.7929688L-133.85938 3.9570312Q-133.85938 4.7382812 -133.79688 5.8007812L-135.92188 5.8007812ZM-136.02344 1.5273438Q-136.02344 0.16015625 -136.48047 -0.578125Q-136.9375 -1.3164062 -137.82812 -1.3164062Q-138.71094 -1.3164062 -139.14062 -0.6015625Q-139.57031 0.11328125 -139.57031 1.5820312Q-139.57031 4.4570312 -137.84375 4.4570312Q-136.97656 4.4570312 -136.5 3.6953125Q-136.02344 2.9335938 -136.02344 1.5273438ZM-128.16406 5.9570312Q-130.07031 5.9570312 -131.09375 4.828125Q-132.11719 3.6992188 -132.11719 1.5351562Q-132.11719 -0.55859375 -131.07812 -1.6835938Q-130.03906 -2.8085938 -128.13281 -2.8085938Q-126.3125 -2.8085938 -125.35156 -1.6015625Q-124.39062 -0.39453125 -124.39062 1.9335938L-124.39062 1.9960938L-129.8125 1.9960938Q-129.8125 3.2304688 -129.35547 3.859375Q-128.89844 4.4882812 -128.05469 4.4882812Q-126.89062 4.4882812 -126.58594 3.4804688L-124.51562 3.6601562Q-125.41406 5.9570312 -128.16406 5.9570312ZM-128.16406 -1.4257812Q-128.9375 -1.4257812 -129.35547 -0.88671875Q-129.77344 -0.34765625 -129.79688 0.62109375L-126.51562 0.62109375Q-126.57812 -0.40234375 -127.00781 -0.9140625Q-127.4375 -1.4257812 -128.16406 -1.4257812ZM-117.25 5.8007812L-117.25 1.0585938Q-117.25 -1.1679688 -118.75781 -1.1679688Q-119.55469 -1.1679688 -120.04297 -0.484375Q-120.53125 0.19921875 -120.53125 1.2695312L-120.53125 5.8007812L-122.72656 5.8007812L-122.72656 -0.76171875Q-122.72656 -1.4414062 -122.74609 -1.875Q-122.76562 -2.3085938 -122.78906 -2.6523438L-120.69531 -2.6523438Q-120.67188 -2.5039062 -120.63281 -1.859375Q-120.59375 -1.2148438 -120.59375 -0.97265625L-120.5625 -0.97265625Q-120.11719 -1.9414062 -119.44531 -2.3789062Q-118.77344 -2.8164062 -117.84375 -2.8164062Q-116.5 -2.8164062 -115.78125 -1.9882812Q-115.0625 -1.1601562 -115.0625 0.43359375L-115.0625 5.8007812L-117.25 5.8007812ZM-110.78906 5.9414062Q-111.75781 5.9414062 -112.28125 5.4140625Q-112.80469 4.8867188 -112.80469 3.8164062L-112.80469 -1.1679688L-113.875 -1.1679688L-113.875 -2.6523438L-112.69531 -2.6523438L-112.00781 -4.6367188L-110.63281 -4.6367188L-110.63281 -2.6523438L-109.03125 -2.6523438L-109.03125 -1.1679688L-110.63281 -1.1679688L-110.63281 3.2226562Q-110.63281 3.8398438 -110.39844 4.1328125Q-110.16406 4.4257812 -109.67188 4.4257812Q-109.41406 4.4257812 -108.9375 4.3164062L-108.9375 5.6757812Q-109.75 5.9414062 -110.78906 5.9414062ZM-107.625 -4.1757812L-107.625 -5.7929688L-105.42969 -5.7929688L-105.42969 -4.1757812L-107.625 -4.1757812ZM-107.625 5.8007812L-107.625 -2.6523438L-105.42969 -2.6523438L-105.42969 5.8007812L-107.625 5.8007812ZM-101.01562 5.9414062Q-101.98438 5.9414062 -102.50781 5.4140625Q-103.03125 4.8867188 -103.03125 3.8164062L-103.03125 -1.1679688L-104.10156 -1.1679688L-104.10156 -2.6523438L-102.92188 -2.6523438L-102.23438 -4.6367188L-100.85938 -4.6367188L-100.85938 -2.6523438L-99.257812 -2.6523438L-99.257812 -1.1679688L-100.85938 -1.1679688L-100.85938 3.2226562Q-100.85938 3.8398438 -100.625 4.1328125Q-100.39062 4.4257812 -99.898438 4.4257812Q-99.640625 4.4257812 -99.164062 4.3164062L-99.164062 5.6757812Q-99.976562 5.9414062 -101.01562 5.9414062ZM-96.757812 9.1210938Q-97.546875 9.1210938 -98.140625 9.0195312L-98.140625 7.4570312Q-97.726562 7.5195312 -97.382812 7.5195312Q-96.914062 7.5195312 -96.605469 7.3710938Q-96.296875 7.2226562 -96.050781 6.8789062Q-95.804688 6.5351562 -95.5 5.7148438L-98.84375 -2.6523438L-96.523438 -2.6523438L-95.195312 1.3085938Q-94.882812 2.1601562 -94.40625 3.9179688L-94.210938 3.1757812L-93.703125 1.3398438L-92.453125 -2.6523438L-90.15625 -2.6523438L-93.5 6.2460938Q-94.171875 7.8710938 -94.894531 8.4960938Q-95.617188 9.1210938 -96.757812 9.1210938ZM-89.445312 2.6054688L-89.445312 0.69921875L-85.382812 0.69921875L-85.382812 2.6054688L-89.445312 2.6054688ZM-78.148438 5.8007812Q-78.179688 5.6835938 -78.222656 5.2109375Q-78.265625 4.7382812 -78.265625 4.4257812L-78.296875 4.4257812Q-79.007812 5.9570312 -81 5.9570312Q-82.476562 5.9570312 -83.28125 4.8046875Q-84.085938 3.6523438 -84.085938 1.5820312Q-84.085938 -0.51953125 -83.238281 -1.6640625Q-82.390625 -2.8085938 -80.835938 -2.8085938Q-79.9375 -2.8085938 -79.285156 -2.4335938Q-78.632812 -2.0585938 -78.28125 -1.3164062L-78.265625 -1.3164062L-78.28125 -2.7070312L-78.28125 -5.7929688L-76.085938 -5.7929688L-76.085938 3.9570312Q-76.085938 4.7382812 -76.023438 5.8007812L-78.148438 5.8007812ZM-78.25 1.5273438Q-78.25 0.16015625 -78.707031 -0.578125Q-79.164062 -1.3164062 -80.054688 -1.3164062Q-80.9375 -1.3164062 -81.367188 -0.6015625Q-81.796875 0.11328125 -81.796875 1.5820312Q-81.796875 4.4570312 -80.070312 4.4570312Q-79.203125 4.4570312 -78.726562 3.6953125Q-78.25 2.9335938 -78.25 1.5273438ZM-70.390625 5.9570312Q-72.296875 5.9570312 -73.320312 4.828125Q-74.34375 3.6992188 -74.34375 1.5351562Q-74.34375 -0.55859375 -73.304688 -1.6835938Q-72.265625 -2.8085938 -70.359375 -2.8085938Q-68.539062 -2.8085938 -67.578125 -1.6015625Q-66.617188 -0.39453125 -66.617188 1.9335938L-66.617188 1.9960938L-72.039062 1.9960938Q-72.039062 3.2304688 -71.582031 3.859375Q-71.125 4.4882812 -70.28125 4.4882812Q-69.117188 4.4882812 -68.8125 3.4804688L-66.742188 3.6601562Q-67.640625 5.9570312 -70.390625 5.9570312ZM-70.390625 -1.4257812Q-71.164062 -1.4257812 -71.582031 -0.88671875Q-72 -0.34765625 -72.023438 0.62109375L-68.742188 0.62109375Q-68.804688 -0.40234375 -69.234375 -0.9140625Q-69.664062 -1.4257812 -70.390625 -1.4257812ZM-62.789062 5.9414062Q-63.757812 5.9414062 -64.28125 5.4140625Q-64.804688 4.8867188 -64.804688 3.8164062L-64.804688 -1.1679688L-65.875 -1.1679688L-65.875 -2.6523438L-64.695312 -2.6523438L-64.007812 -4.6367188L-62.632812 -4.6367188L-62.632812 -2.6523438L-61.03125 -2.6523438L-61.03125 -1.1679688L-62.632812 -1.1679688L-62.632812 3.2226562Q-62.632812 3.8398438 -62.398438 4.1328125Q-62.164062 4.4257812 -61.671875 4.4257812Q-61.414062 4.4257812 -60.9375 4.3164062L-60.9375 5.6757812Q-61.75 5.9414062 -62.789062 5.9414062ZM-57.671875 5.9570312Q-58.898438 5.9570312 -59.585938 5.2890625Q-60.273438 4.6210938 -60.273438 3.4101562Q-60.273438 2.0976562 -59.417969 1.4101562Q-58.5625 0.72265625 -56.9375 0.70703125L-55.117188 0.67578125L-55.117188 0.24609375Q-55.117188 -0.58203125 -55.40625 -0.984375Q-55.695312 -1.3867188 -56.351562 -1.3867188Q-56.960938 -1.3867188 -57.246094 -1.109375Q-57.53125 -0.83203125 -57.601562 -0.19140625L-59.890625 -0.30078125Q-59.679688 -1.5351562 -58.761719 -2.171875Q-57.84375 -2.8085938 -56.257812 -2.8085938Q-54.65625 -2.8085938 -53.789062 -2.0195312Q-52.921875 -1.2304688 -52.921875 0.22265625L-52.921875 3.3007812Q-52.921875 4.0117188 -52.761719 4.28125Q-52.601562 4.5507812 -52.226562 4.5507812Q-51.976562 4.5507812 -51.742188 4.5039062L-51.742188 5.6914062Q-51.9375 5.7382812 -52.09375 5.7773438Q-52.25 5.8164062 -52.40625 5.8398438Q-52.5625 5.8632812 -52.738281 5.8789062Q-52.914062 5.8945312 -53.148438 5.8945312Q-53.976562 5.8945312 -54.371094 5.4882812Q-54.765625 5.0820312 -54.84375 4.2929688L-54.890625 4.2929688Q-55.8125 5.9570312 -57.671875 5.9570312ZM-55.117188 1.8867188L-56.242188 1.9023438Q-57.007812 1.9335938 -57.328125 2.0703125Q-57.648438 2.2070312 -57.816406 2.4882812Q-57.984375 2.7695312 -57.984375 3.2382812Q-57.984375 3.8398438 -57.707031 4.1328125Q-57.429688 4.4257812 -56.96875 4.4257812Q-56.453125 4.4257812 -56.027344 4.1445312Q-55.601562 3.8632812 -55.359375 3.3671875Q-55.117188 2.8710938 -55.117188 2.3164062L-55.117188 1.8867188ZM-50.726562 -4.1757812L-50.726562 -5.7929688L-48.53125 -5.7929688L-48.53125 -4.1757812L-50.726562 -4.1757812ZM-50.726562 5.8007812L-50.726562 -2.6523438L-48.53125 -2.6523438L-48.53125 5.8007812L-50.726562 5.8007812ZM-46.28125 5.8007812L-46.28125 -5.7929688L-44.085938 -5.7929688L-44.085938 5.8007812L-46.28125 5.8007812ZM-34.710938 3.3320312Q-34.710938 4.5585938 -35.714844 5.2578125Q-36.71875 5.9570312 -38.492188 5.9570312Q-40.234375 5.9570312 -41.160156 5.40625Q-42.085938 4.8554688 -42.390625 3.6914062L-40.460938 3.4023438Q-40.296875 4.0039062 -39.894531 4.2539062Q-39.492188 4.5039062 -38.492188 4.5039062Q-37.570312 4.5039062 -37.148438 4.2695312Q-36.726562 4.0351562 -36.726562 3.5351562Q-36.726562 3.1289062 -37.066406 2.890625Q-37.40625 2.6523438 -38.21875 2.4882812Q-40.078125 2.1210938 -40.726562 1.8046875Q-41.375 1.4882812 -41.714844 0.984375Q-42.054688 0.48046875 -42.054688 -0.25390625Q-42.054688 -1.4648438 -41.121094 -2.140625Q-40.1875 -2.8164062 -38.476562 -2.8164062Q-36.96875 -2.8164062 -36.050781 -2.2304688Q-35.132812 -1.6445312 -34.90625 -0.53515625L-36.851562 -0.33203125Q-36.945312 -0.84765625 -37.3125 -1.1015625Q-37.679688 -1.3554688 -38.476562 -1.3554688Q-39.257812 -1.3554688 -39.648438 -1.15625Q-40.039062 -0.95703125 -40.039062 -0.48828125Q-40.039062 -0.12109375 -39.738281 0.09375Q-39.4375 0.30859375 -38.726562 0.44921875Q-37.734375 0.65234375 -36.964844 0.8671875Q-36.195312 1.0820312 -35.730469 1.3789062Q-35.265625 1.6757812 -34.988281 2.140625Q-34.710938 2.6054688 -34.710938 3.3320312ZM-33.429688 2.6054688L-33.429688 0.69921875L-29.367188 0.69921875L-29.367188 2.6054688L-33.429688 2.6054688ZM-25.445312 5.9414062Q-26.414062 5.9414062 -26.9375 5.4140625Q-27.460938 4.8867188 -27.460938 3.8164062L-27.460938 -1.1679688L-28.53125 -1.1679688L-28.53125 -2.6523438L-27.351562 -2.6523438L-26.664062 -4.6367188L-25.289062 -4.6367188L-25.289062 -2.6523438L-23.6875 -2.6523438L-23.6875 -1.1679688L-25.289062 -1.1679688L-25.289062 3.2226562Q-25.289062 3.8398438 -25.054688 4.1328125Q-24.820312 4.4257812 -24.328125 4.4257812Q-24.070312 4.4257812 -23.59375 4.3164062L-23.59375 5.6757812Q-24.40625 5.9414062 -25.445312 5.9414062ZM-13.140625 5.8007812L-15.460938 5.8007812L-16.804688 0.64453125Q-16.898438 0.29296875 -17.171875 -1.0898438L-17.578125 0.66015625L-18.9375 5.8007812L-21.257812 5.8007812L-23.445312 -2.6523438L-21.382812 -2.6523438L-19.992188 3.8085938L-19.882812 3.2304688L-19.6875 2.3164062L-18.359375 -2.6523438L-16.007812 -2.6523438L-14.710938 2.3164062Q-14.601562 2.7226562 -14.390625 3.8085938L-14.171875 2.7773438L-12.953125 -2.6523438L-10.921875 -2.6523438L-13.140625 5.8007812ZM-6.375 5.9570312Q-8.28125 5.9570312 -9.3046875 4.828125Q-10.328125 3.6992188 -10.328125 1.5351562Q-10.328125 -0.55859375 -9.2890625 -1.6835938Q-8.25 -2.8085938 -6.34375 -2.8085938Q-4.5234375 -2.8085938 -3.5625 -1.6015625Q-2.6015625 -0.39453125 -2.6015625 1.9335938L-2.6015625 1.9960938L-8.0234375 1.9960938Q-8.0234375 3.2304688 -7.5664062 3.859375Q-7.109375 4.4882812 -6.265625 4.4882812Q-5.1015625 4.4882812 -4.796875 3.4804688L-2.7265625 3.6601562Q-3.625 5.9570312 -6.375 5.9570312ZM-6.375 -1.4257812Q-7.1484375 -1.4257812 -7.5664062 -0.88671875Q-7.984375 -0.34765625 -8.0078125 0.62109375L-4.7265625 0.62109375Q-4.7890625 -0.40234375 -5.21875 -0.9140625Q-5.6484375 -1.4257812 -6.375 -1.4257812ZM1.015625 5.9570312Q-0.2109375 5.9570312 -0.8984375 5.2890625Q-1.5859375 4.6210938 -1.5859375 3.4101562Q-1.5859375 2.0976562 -0.73046875 1.4101562Q0.125 0.72265625 1.75 0.70703125L3.5703125 0.67578125L3.5703125 0.24609375Q3.5703125 -0.58203125 3.28125 -0.984375Q2.9921875 -1.3867188 2.3359375 -1.3867188Q1.7265625 -1.3867188 1.4414062 -1.109375Q1.15625 -0.83203125 1.0859375 -0.19140625L-1.203125 -0.30078125Q-0.9921875 -1.5351562 -0.07421875 -2.171875Q0.84375 -2.8085938 2.4296875 -2.8085938Q4.03125 -2.8085938 4.8984375 -2.0195312Q5.765625 -1.2304688 5.765625 0.22265625L5.765625 3.3007812Q5.765625 4.0117188 5.9257812 4.28125Q6.0859375 4.5507812 6.4609375 4.5507812Q6.7109375 4.5507812 6.9453125 4.5039062L6.9453125 5.6914062Q6.75 5.7382812 6.59375 5.7773438Q6.4375 5.8164062 6.28125 5.8398438Q6.125 5.8632812 5.9492188 5.8789062Q5.7734375 5.8945312 5.5390625 5.8945312Q4.7109375 5.8945312 4.3164062 5.4882812Q3.921875 5.0820312 3.84375 4.2929688L3.796875 4.2929688Q2.875 5.9570312 1.015625 5.9570312ZM3.5703125 1.8867188L2.4453125 1.9023438Q1.6796875 1.9335938 1.359375 2.0703125Q1.0390625 2.2070312 0.87109375 2.4882812Q0.703125 2.7695312 0.703125 3.2382812Q0.703125 3.8398438 0.98046875 4.1328125Q1.2578125 4.4257812 1.71875 4.4257812Q2.234375 4.4257812 2.6601562 4.1445312Q3.0859375 3.8632812 3.328125 3.3671875Q3.5703125 2.8710938 3.5703125 2.3164062L3.5703125 1.8867188ZM13.359375 5.8007812L11.101562 1.9726562L10.15625 2.6289062L10.15625 5.8007812L7.9609375 5.8007812L7.9609375 -5.7929688L10.15625 -5.7929688L10.15625 0.84765625L13.171875 -2.6523438L15.53125 -2.6523438L12.5625 0.64453125L15.757812 5.8007812L13.359375 5.8007812ZM23.984375 3.3320312Q23.984375 4.5585938 22.980469 5.2578125Q21.976562 5.9570312 20.203125 5.9570312Q18.460938 5.9570312 17.535156 5.40625Q16.609375 4.8554688 16.304688 3.6914062L18.234375 3.4023438Q18.398438 4.0039062 18.800781 4.2539062Q19.203125 4.5039062 20.203125 4.5039062Q21.125 4.5039062 21.546875 4.2695312Q21.96875 4.0351562 21.96875 3.5351562Q21.96875 3.1289062 21.628906 2.890625Q21.289062 2.6523438 20.476562 2.4882812Q18.617188 2.1210938 17.96875 1.8046875Q17.320312 1.4882812 16.980469 0.984375Q16.640625 0.48046875 16.640625 -0.25390625Q16.640625 -1.4648438 17.574219 -2.140625Q18.507812 -2.8164062 20.21875 -2.8164062Q21.726562 -2.8164062 22.644531 -2.2304688Q23.5625 -1.6445312 23.789062 -0.53515625L21.84375 -0.33203125Q21.75 -0.84765625 21.382812 -1.1015625Q21.015625 -1.3554688 20.21875 -1.3554688Q19.4375 -1.3554688 19.046875 -1.15625Q18.65625 -0.95703125 18.65625 -0.48828125Q18.65625 -0.12109375 18.957031 0.09375Q19.257812 0.30859375 19.96875 0.44921875Q20.960938 0.65234375 21.730469 0.8671875Q22.5 1.0820312 22.964844 1.3789062Q23.429688 1.6757812 23.707031 2.140625Q23.984375 2.6054688 23.984375 3.3320312ZM25.265625 2.6054688L25.265625 0.69921875L29.328125 0.69921875L29.328125 2.6054688L25.265625 2.6054688ZM39.085938 1.5351562Q39.085938 3.6523438 38.238281 4.8046875Q37.390625 5.9570312 35.84375 5.9570312Q34.953125 5.9570312 34.292969 5.5703125Q33.632812 5.1835938 33.28125 4.4570312L33.234375 4.4570312Q33.28125 4.6914062 33.28125 5.8789062L33.28125 9.1210938L31.085938 9.1210938L31.085938 -0.70703125Q31.085938 -1.9023438 31.023438 -2.6523438L33.15625 -2.6523438Q33.195312 -2.5117188 33.222656 -2.0976562Q33.25 -1.6835938 33.25 -1.2773438L33.28125 -1.2773438Q34.023438 -2.8320312 35.984375 -2.8320312Q37.460938 -2.8320312 38.273438 -1.6953125Q39.085938 -0.55859375 39.085938 1.5351562ZM36.796875 1.5351562Q36.796875 -1.3085938 35.054688 -1.3085938Q34.179688 -1.3085938 33.714844 -0.54296875Q33.25 0.22265625 33.25 1.5976562Q33.25 2.9648438 33.714844 3.7109375Q34.179688 4.4570312 35.039062 4.4570312Q36.796875 4.4570312 36.796875 1.5351562ZM40.859375 5.8007812L40.859375 -5.7929688L43.054688 -5.7929688L43.054688 5.8007812L40.859375 5.8007812ZM47.375 -2.6523438L47.375 2.0898438Q47.375 4.3164062 48.875 4.3164062Q49.671875 4.3164062 50.160156 3.6328125Q50.648438 2.9492188 50.648438 1.8789062L50.648438 -2.6523438L52.84375 -2.6523438L52.84375 3.9101562Q52.84375 4.9882812 52.90625 5.8007812L50.8125 5.8007812Q50.71875 4.6757812 50.71875 4.1210938L50.679688 4.1210938Q50.242188 5.0820312 49.566406 5.5195312Q48.890625 5.9570312 47.960938 5.9570312Q46.617188 5.9570312 45.898438 5.1328125Q45.179688 4.3085938 45.179688 2.7148438L45.179688 -2.6523438L47.375 -2.6523438ZM58.617188 9.1914062Q57.070312 9.1914062 56.128906 8.6015625Q55.1875 8.0117188 54.96875 6.9179688L57.164062 6.6601562Q57.28125 7.1679688 57.667969 7.4570312Q58.054688 7.7460938 58.679688 7.7460938Q59.59375 7.7460938 60.015625 7.1835938Q60.4375 6.6210938 60.4375 5.5117188L60.4375 5.0664062L60.453125 4.2304688L60.4375 4.2304688Q59.710938 5.7851562 57.71875 5.7851562Q56.242188 5.7851562 55.429688 4.6757812Q54.617188 3.5664062 54.617188 1.5039062Q54.617188 -0.56640625 55.453125 -1.6914062Q56.289062 -2.8164062 57.882812 -2.8164062Q59.726562 -2.8164062 60.4375 -1.2929688L60.476562 -1.2929688Q60.476562 -1.5664062 60.511719 -2.0351562Q60.546875 -2.5039062 60.585938 -2.6523438L62.664062 -2.6523438Q62.617188 -1.8085938 62.617188 -0.69921875L62.617188 5.5429688Q62.617188 7.3476562 61.59375 8.2695312Q60.570312 9.1914062 58.617188 9.1914062ZM60.453125 1.4570312Q60.453125 0.15234375 59.988281 -0.578125Q59.523438 -1.3085938 58.664062 -1.3085938Q56.90625 -1.3085938 56.90625 1.5039062Q56.90625 4.2617188 58.648438 4.2617188Q59.523438 4.2617188 59.988281 3.53125Q60.453125 2.8007812 60.453125 1.4570312ZM64.851562 -4.1757812L64.851562 -5.7929688L67.046875 -5.7929688L67.046875 -4.1757812L64.851562 -4.1757812ZM64.851562 5.8007812L64.851562 -2.6523438L67.046875 -2.6523438L67.046875 5.8007812L64.851562 5.8007812ZM74.773438 5.8007812L74.773438 1.0585938Q74.773438 -1.1679688 73.265625 -1.1679688Q72.46875 -1.1679688 71.980469 -0.484375Q71.492188 0.19921875 71.492188 1.2695312L71.492188 5.8007812L69.296875 5.8007812L69.296875 -0.76171875Q69.296875 -1.4414062 69.277344 -1.875Q69.257812 -2.3085938 69.234375 -2.6523438L71.328125 -2.6523438Q71.351562 -2.5039062 71.390625 -1.859375Q71.429688 -1.2148438 71.429688 -0.97265625L71.460938 -0.97265625Q71.90625 -1.9414062 72.578125 -2.3789062Q73.25 -2.8164062 74.179688 -2.8164062Q75.523438 -2.8164062 76.242188 -1.9882812Q76.960938 -1.1601562 76.960938 0.43359375L76.960938 5.8007812L74.773438 5.8007812ZM83.023438 2.6054688L83.023438 0.69921875L87.085938 0.69921875L87.085938 2.6054688L83.023438 2.6054688ZM95.546875 -3.4257812L95.546875 -0.01953125L101.17969 -0.01953125L101.17969 1.7617188L95.546875 1.7617188L95.546875 5.8007812L93.242188 5.8007812L93.242188 -5.2070312L101.35938 -5.2070312L101.35938 -3.4257812L95.546875 -3.4257812ZM113.71875 0.24609375Q113.71875 1.9648438 113.03906 3.2695312Q112.35938 4.5742188 111.09375 5.265625Q109.82812 5.9570312 108.14062 5.9570312Q105.54688 5.9570312 104.07422 4.4296875Q102.60156 2.9023438 102.60156 0.24609375Q102.60156 -2.4023438 104.07031 -3.8867188Q105.53906 -5.3710938 108.15625 -5.3710938Q110.77344 -5.3710938 112.24609 -3.8710938Q113.71875 -2.3710938 113.71875 0.24609375ZM111.36719 0.24609375Q111.36719 -1.5351562 110.52344 -2.546875Q109.67969 -3.5585938 108.15625 -3.5585938Q106.60938 -3.5585938 105.76562 -2.5546875Q104.92188 -1.5507812 104.92188 0.24609375Q104.92188 2.0585938 105.78516 3.1015625Q106.64844 4.1445312 108.14062 4.1445312Q109.6875 4.1445312 110.52734 3.1289062Q111.36719 2.1132812 111.36719 0.24609375ZM123.02344 5.8007812L120.46875 1.6210938L117.76562 1.6210938L117.76562 5.8007812L115.46094 5.8007812L115.46094 -5.2070312L120.96094 -5.2070312Q122.92969 -5.2070312 124 -4.359375Q125.07031 -3.5117188 125.07031 -1.9257812Q125.07031 -0.76953125 124.41406 0.0703125Q123.75781 0.91015625 122.64062 1.1757812L125.61719 5.8007812L123.02344 5.8007812ZM122.75 -1.8320312Q122.75 -3.4179688 120.71875 -3.4179688L117.76562 -3.4179688L117.76562 -0.16796875L120.78125 -0.16796875Q121.75 -0.16796875 122.25 -0.60546875Q122.75 -1.0429688 122.75 -1.8320312ZM136.15625 5.8007812L136.15625 -0.87109375Q136.15625 -1.0976562 136.16016 -1.3242188Q136.16406 -1.5507812 136.23438 -3.2695312Q135.67969 -1.1679688 135.41406 -0.33984375L133.42969 5.8007812L131.78906 5.8007812L129.80469 -0.33984375L128.96875 -3.2695312Q129.0625 -1.4570312 129.0625 -0.87109375L129.0625 5.8007812L127.01562 5.8007812L127.01562 -5.2070312L130.10156 -5.2070312L132.07031 0.94921875L132.24219 1.5429688L132.61719 3.0195312L133.10938 1.2539062L135.13281 -5.2070312L138.20312 -5.2070312L138.20312 5.8007812L136.15625 5.8007812ZM148.125 5.8007812L147.14844 2.9882812L142.95312 2.9882812L141.97656 5.8007812L139.67188 5.8007812L143.6875 -5.2070312L146.40625 -5.2070312L150.40625 5.8007812L148.125 5.8007812ZM145.04688 -3.5117188L145 -3.3398438Q144.92188 -3.0585938 144.8125 -2.6992188Q144.70312 -2.3398438 143.46875 1.2539062L146.63281 1.2539062L145.54688 -1.9101562L145.21094 -2.9726562L145.04688 -3.5117188ZM155.67969 -3.4257812L155.67969 5.8007812L153.375 5.8007812L153.375 -3.4257812L149.82031 -3.4257812L149.82031 -5.2070312L159.24219 -5.2070312L159.24219 -3.4257812L155.67969 -3.4257812ZM174.74219 0.21484375Q174.74219 1.9179688 174.07422 3.1875Q173.40625 4.4570312 172.18359 5.1289062Q170.96094 5.8007812 169.38281 5.8007812L164.92969 5.8007812L164.92969 -5.2070312L168.91406 -5.2070312Q171.69531 -5.2070312 173.21875 -3.8046875Q174.74219 -2.4023438 174.74219 0.21484375ZM172.42188 0.21484375Q172.42188 -1.5585938 171.5 -2.4921875Q170.57812 -3.4257812 168.86719 -3.4257812L167.23438 -3.4257812L167.23438 4.0195312L169.1875 4.0195312Q170.67188 4.0195312 171.54688 2.9960938Q172.42188 1.9726562 172.42188 0.21484375ZM184.5625 1.5664062Q184.5625 3.6210938 183.42188 4.7890625Q182.28125 5.9570312 180.26562 5.9570312Q178.28906 5.9570312 177.16406 4.7851562Q176.03906 3.6132812 176.03906 1.5664062Q176.03906 -0.47265625 177.16406 -1.640625Q178.28906 -2.8085938 180.3125 -2.8085938Q182.38281 -2.8085938 183.47266 -1.6796875Q184.5625 -0.55078125 184.5625 1.5664062ZM182.26562 1.5664062Q182.26562 0.05859375 181.77344 -0.62109375Q181.28125 -1.3007812 180.34375 -1.3007812Q178.34375 -1.3007812 178.34375 1.5664062Q178.34375 2.9804688 178.83203 3.71875Q179.32031 4.4570312 180.24219 4.4570312Q182.26562 4.4570312 182.26562 1.5664062ZM195.44531 5.8007812L193.125 5.8007812L191.78125 0.64453125Q191.6875 0.29296875 191.41406 -1.0898438L191.00781 0.66015625L189.64844 5.8007812L187.32812 5.8007812L185.14062 -2.6523438L187.20312 -2.6523438L188.59375 3.8085938L188.70312 3.2304688L188.89844 2.3164062L190.22656 -2.6523438L192.57812 -2.6523438L193.875 2.3164062Q193.98438 2.7226562 194.19531 3.8085938L194.41406 2.7773438L195.63281 -2.6523438L197.66406 -2.6523438L195.44531 5.8007812ZM204.22656 5.8007812L204.22656 1.0585938Q204.22656 -1.1679688 202.71875 -1.1679688Q201.92188 -1.1679688 201.43359 -0.484375Q200.94531 0.19921875 200.94531 1.2695312L200.94531 5.8007812L198.75 5.8007812L198.75 -0.76171875Q198.75 -1.4414062 198.73047 -1.875Q198.71094 -2.3085938 198.6875 -2.6523438L200.78125 -2.6523438Q200.80469 -2.5039062 200.84375 -1.859375Q200.88281 -1.2148438 200.88281 -0.97265625L200.91406 -0.97265625Q201.35938 -1.9414062 202.03125 -2.3789062Q202.70312 -2.8164062 203.63281 -2.8164062Q204.97656 -2.8164062 205.69531 -1.9882812Q206.41406 -1.1601562 206.41406 0.43359375L206.41406 5.8007812L204.22656 5.8007812ZM208.52344 5.8007812L208.52344 -5.7929688L210.71875 -5.7929688L210.71875 5.8007812L208.52344 5.8007812ZM221 1.5664062Q221 3.6210938 219.85938 4.7890625Q218.71875 5.9570312 216.70312 5.9570312Q214.72656 5.9570312 213.60156 4.7851562Q212.47656 3.6132812 212.47656 1.5664062Q212.47656 -0.47265625 213.60156 -1.640625Q214.72656 -2.8085938 216.75 -2.8085938Q218.82031 -2.8085938 219.91016 -1.6796875Q221 -0.55078125 221 1.5664062ZM218.70312 1.5664062Q218.70312 0.05859375 218.21094 -0.62109375Q217.71875 -1.3007812 216.78125 -1.3007812Q214.78125 -1.3007812 214.78125 1.5664062Q214.78125 2.9804688 215.26953 3.71875Q215.75781 4.4570312 216.67969 4.4570312Q218.70312 4.4570312 218.70312 1.5664062ZM224.69531 5.9570312Q223.46875 5.9570312 222.78125 5.2890625Q222.09375 4.6210938 222.09375 3.4101562Q222.09375 2.0976562 222.94922 1.4101562Q223.80469 0.72265625 225.42969 0.70703125L227.25 0.67578125L227.25 0.24609375Q227.25 -0.58203125 226.96094 -0.984375Q226.67188 -1.3867188 226.01562 -1.3867188Q225.40625 -1.3867188 225.12109 -1.109375Q224.83594 -0.83203125 224.76562 -0.19140625L222.47656 -0.30078125Q222.6875 -1.5351562 223.60547 -2.171875Q224.52344 -2.8085938 226.10938 -2.8085938Q227.71094 -2.8085938 228.57812 -2.0195312Q229.44531 -1.2304688 229.44531 0.22265625L229.44531 3.3007812Q229.44531 4.0117188 229.60547 4.28125Q229.76562 4.5507812 230.14062 4.5507812Q230.39062 4.5507812 230.625 4.5039062L230.625 5.6914062Q230.42969 5.7382812 230.27344 5.7773438Q230.11719 5.8164062 229.96094 5.8398438Q229.80469 5.8632812 229.62891 5.8789062Q229.45312 5.8945312 229.21875 5.8945312Q228.39062 5.8945312 227.99609 5.4882812Q227.60156 5.0820312 227.52344 4.2929688L227.47656 4.2929688Q226.55469 5.9570312 224.69531 5.9570312ZM227.25 1.8867188L226.125 1.9023438Q225.35938 1.9335938 225.03906 2.0703125Q224.71875 2.2070312 224.55078 2.4882812Q224.38281 2.7695312 224.38281 3.2382812Q224.38281 3.8398438 224.66016 4.1328125Q224.9375 4.4257812 225.39844 4.4257812Q225.91406 4.4257812 226.33984 4.1445312Q226.76562 3.8632812 227.00781 3.3671875Q227.25 2.8710938 227.25 2.3164062L227.25 1.8867188ZM237.11719 5.8007812Q237.08594 5.6835938 237.04297 5.2109375Q237 4.7382812 237 4.4257812L236.96875 4.4257812Q236.25781 5.9570312 234.26562 5.9570312Q232.78906 5.9570312 231.98438 4.8046875Q231.17969 3.6523438 231.17969 1.5820312Q231.17969 -0.51953125 232.02734 -1.6640625Q232.875 -2.8085938 234.42969 -2.8085938Q235.32812 -2.8085938 235.98047 -2.4335938Q236.63281 -2.0585938 236.98438 -1.3164062L237 -1.3164062L236.98438 -2.7070312L236.98438 -5.7929688L239.17969 -5.7929688L239.17969 3.9570312Q239.17969 4.7382812 239.24219 5.8007812L237.11719 5.8007812ZM237.01562 1.5273438Q237.01562 0.16015625 236.55859 -0.578125Q236.10156 -1.3164062 235.21094 -1.3164062Q234.32812 -1.3164062 233.89844 -0.6015625Q233.46875 0.11328125 233.46875 1.5820312Q233.46875 4.4570312 235.19531 4.4570312Q236.0625 4.4570312 236.53906 3.6953125Q237.01562 2.9335938 237.01562 1.5273438ZM250.78125 -3.4257812L250.78125 5.8007812L248.47656 5.8007812L248.47656 -3.4257812L244.92188 -3.4257812L244.92188 -5.2070312L254.34375 -5.2070312L254.34375 -3.4257812L250.78125 -3.4257812ZM254.75 5.8007812L254.75 -0.66796875Q254.75 -1.3632812 254.73047 -1.828125Q254.71094 -2.2929688 254.6875 -2.6523438L256.78125 -2.6523438Q256.80469 -2.5117188 256.84375 -1.796875Q256.88281 -1.0820312 256.88281 -0.84765625L256.91406 -0.84765625Q257.23438 -1.7382812 257.48438 -2.1015625Q257.73438 -2.4648438 258.07812 -2.640625Q258.42188 -2.8164062 258.9375 -2.8164062Q259.35938 -2.8164062 259.61719 -2.6992188L259.61719 -0.86328125Q259.08594 -0.98046875 258.67969 -0.98046875Q257.85938 -0.98046875 257.40234 -0.31640625Q256.94531 0.34765625 256.94531 1.6523438L256.94531 5.8007812L254.75 5.8007812ZM264.4375 5.9570312Q262.53125 5.9570312 261.50781 4.828125Q260.48438 3.6992188 260.48438 1.5351562Q260.48438 -0.55859375 261.52344 -1.6835938Q262.5625 -2.8085938 264.46875 -2.8085938Q266.28906 -2.8085938 267.25 -1.6015625Q268.21094 -0.39453125 268.21094 1.9335938L268.21094 1.9960938L262.78906 1.9960938Q262.78906 3.2304688 263.24609 3.859375Q263.70312 4.4882812 264.54688 4.4882812Q265.71094 4.4882812 266.01562 3.4804688L268.08594 3.6601562Q267.1875 5.9570312 264.4375 5.9570312ZM264.4375 -1.4257812Q263.66406 -1.4257812 263.24609 -0.88671875Q262.82812 -0.34765625 262.80469 0.62109375L266.08594 0.62109375Q266.02344 -0.40234375 265.59375 -0.9140625Q265.16406 -1.4257812 264.4375 -1.4257812ZM275.35156 5.8007812L275.35156 1.0585938Q275.35156 -1.1679688 273.84375 -1.1679688Q273.04688 -1.1679688 272.55859 -0.484375Q272.07031 0.19921875 272.07031 1.2695312L272.07031 5.8007812L269.875 5.8007812L269.875 -0.76171875Q269.875 -1.4414062 269.85547 -1.875Q269.83594 -2.3085938 269.8125 -2.6523438L271.90625 -2.6523438Q271.92969 -2.5039062 271.96875 -1.859375Q272.00781 -1.2148438 272.00781 -0.97265625L272.03906 -0.97265625Q272.48438 -1.9414062 273.15625 -2.3789062Q273.82812 -2.8164062 274.75781 -2.8164062Q276.10156 -2.8164062 276.82031 -1.9882812Q277.53906 -1.1601562 277.53906 0.43359375L277.53906 5.8007812L275.35156 5.8007812ZM285.125 5.8007812Q285.09375 5.6835938 285.05078 5.2109375Q285.00781 4.7382812 285.00781 4.4257812L284.97656 4.4257812Q284.26562 5.9570312 282.27344 5.9570312Q280.79688 5.9570312 279.99219 4.8046875Q279.1875 3.6523438 279.1875 1.5820312Q279.1875 -0.51953125 280.03516 -1.6640625Q280.88281 -2.8085938 282.4375 -2.8085938Q283.33594 -2.8085938 283.98828 -2.4335938Q284.64062 -2.0585938 284.99219 -1.3164062L285.00781 -1.3164062L284.99219 -2.7070312L284.99219 -5.7929688L287.1875 -5.7929688L287.1875 3.9570312Q287.1875 4.7382812 287.25 5.8007812L285.125 5.8007812ZM285.02344 1.5273438Q285.02344 0.16015625 284.56641 -0.578125Q284.10938 -1.3164062 283.21875 -1.3164062Q282.33594 -1.3164062 281.90625 -0.6015625Q281.47656 0.11328125 281.47656 1.5820312Q281.47656 4.4570312 283.20312 4.4570312Q284.07031 4.4570312 284.54688 3.6953125Q285.02344 2.9335938 285.02344 1.5273438ZM296.54688 3.3320312Q296.54688 4.5585938 295.54297 5.2578125Q294.53906 5.9570312 292.76562 5.9570312Q291.02344 5.9570312 290.09766 5.40625Q289.17188 4.8554688 288.86719 3.6914062L290.79688 3.4023438Q290.96094 4.0039062 291.36328 4.2539062Q291.76562 4.5039062 292.76562 4.5039062Q293.6875 4.5039062 294.10938 4.2695312Q294.53125 4.0351562 294.53125 3.5351562Q294.53125 3.1289062 294.19141 2.890625Q293.85156 2.6523438 293.03906 2.4882812Q291.17969 2.1210938 290.53125 1.8046875Q289.88281 1.4882812 289.54297 0.984375Q289.20312 0.48046875 289.20312 -0.25390625Q289.20312 -1.4648438 290.13672 -2.140625Q291.07031 -2.8164062 292.78125 -2.8164062Q294.28906 -2.8164062 295.20703 -2.2304688Q296.125 -1.6445312 296.35156 -0.53515625L294.40625 -0.33203125Q294.3125 -0.84765625 293.94531 -1.1015625Q293.57812 -1.3554688 292.78125 -1.3554688Q292 -1.3554688 291.60938 -1.15625Q291.21875 -0.95703125 291.21875 -0.48828125Q291.21875 -0.12109375 291.51953 0.09375Q291.82031 0.30859375 292.53125 0.44921875Q293.52344 0.65234375 294.29297 0.8671875Q295.0625 1.0820312 295.52734 1.3789062Q295.99219 1.6757812 296.26953 2.140625Q296.54688 2.6054688 296.54688 3.3320312Z"/>
	<path fill="none" stroke="black" stroke-width="1" stroke-miterlimit="10" stroke-opacity="0.10196079" d="M49 749.5L1195 749.5"/>
	<clipPath id="cl_723">
		<rect y="749.20001" width="1200" height="50.799988"/>
	</clipPath>
	<g clip-path="url(#cl_723)">
		<path fill="#666" transform="translate(49.75 760.2)" d="M-7.7480469 11.300586L-8.9960938 11.300586L-11.298828 4.960742L-10.173828 4.960742L-8.7792969 9.085742Q-8.703125 9.320117 -8.375 10.474414L-8.1699219 9.788867L-7.9414062 9.0974607L-6.5 4.960742L-5.3808594 4.960742L-7.7480469 11.300586ZM-4.4257812 11.300586L-4.4257812 10.404101L-2.3222656 10.404101L-2.3222656 4.0525389L-4.1855469 5.382617L-4.1855469 4.3865232L-2.234375 3.0447264L-1.2617188 3.0447264L-1.2617188 10.404101L0.74804688 10.404101L0.74804688 11.300586L-4.4257812 11.300586ZM2.4296875 11.300586L2.4296875 10.017383L3.5722656 10.017383L3.5722656 11.300586L2.4296875 11.300586ZM10.873047 7.1697264Q10.873047 9.2380857 10.143555 10.327929Q9.4140625 11.417773 7.9902344 11.417773Q6.5664062 11.417773 5.8515625 10.333789Q5.1367188 9.2498045 5.1367188 7.1697264Q5.1367188 5.0427732 5.8310547 3.9822264Q6.5253906 2.9216795 8.0253906 2.9216795Q9.484375 2.9216795 10.178711 3.9939451Q10.873047 5.0662107 10.873047 7.1697264ZM9.8007812 7.1697264Q9.8007812 5.382617 9.3876953 4.5798826Q8.9746094 3.7771482 8.0253906 3.7771482Q7.0527344 3.7771482 6.6279297 4.5681639Q6.203125 5.3591795 6.203125 7.1697264Q6.203125 8.9275389 6.6337891 9.741992Q7.0644531 10.556445 8.0019531 10.556445Q8.9335938 10.556445 9.3671875 9.7244139Q9.8007812 8.8923826 9.8007812 7.1697264Z"/>
	</g>
	<path fill="none" stroke="black" stroke-width="1" stroke-miterlimit="10" stroke-opacity="0.10196079" d="M49.5 71L49.5 750"/>
	<clipPath id="cl_725">
		<rect width="49.75" height="800"/>
	</clipPath>
	<g clip-path="url(#cl_725)">
		<path fill="#666" transform="translate(38.75 749.2)" d="M-0.46679688 -0.030273438Q-0.46679688 2.0380859 -1.1962891 3.1279297Q-1.9257812 4.2177734 -3.3496094 4.2177734Q-4.7734375 4.2177734 -5.4882812 3.1337891Q-6.203125 2.0498047 -6.203125 -0.030273438Q-6.203125 -2.1572266 -5.5087891 -3.2177734Q-4.8144531 -4.2783203 -3.3144531 -4.2783203Q-1.8554688 -4.2783203 -1.1611328 -3.2060547Q-0.46679688 -2.1337891 -0.46679688 -0.030273438ZM-1.5390625 -0.030273438Q-1.5390625 -1.8173828 -1.9521484 -2.6201172Q-2.3652344 -3.4228516 -3.3144531 -3.4228516Q-4.2871094 -3.4228516 -4.7119141 -2.6318359Q-5.1367188 -1.8408203 -5.1367188 -0.030273438Q-5.1367188 1.7275391 -4.7060547 2.5419922Q-4.2753906 3.3564453 -3.3378906 3.3564453Q-2.40625 3.3564453 -1.9726562 2.5244141Q-1.5390625 1.6923828 -1.5390625 -0.030273438Z"/>
	</g>
	<clipPath id="cl_726">
		<rect width="49.75" height="800"/>
	</clipPath>
	<g clip-path="url(#cl_726)">
		<path fill="#666" transform="translate(38.75 681.4)" d="M-5.7578125 4.1005859L-5.7578125 3.2041016L-3.6542969 3.2041016L-3.6542969 -3.1474609L-5.5175781 -1.8173828L-5.5175781 -2.8134766L-3.5664062 -4.1552734L-2.59375 -4.1552734L-2.59375 3.2041016L-0.58398438 3.2041016L-0.58398438 4.1005859L-5.7578125 4.1005859Z"/>
	</g>
	<clipPath id="cl_727">
		<rect width="49.75" height="800"/>
	</clipPath>
	<g clip-path="url(#cl_727)">
		<path fill="#666" transform="translate(38.75 613.6)" d="M-6.0683594 4.1005859L-6.0683594 3.3564453Q-5.7695312 2.6708984 -5.3388672 2.1464844Q-4.9082031 1.6220703 -4.4335938 1.1972656Q-3.9589844 0.77246094 -3.4931641 0.40917969Q-3.0273438 0.045898438 -2.6523438 -0.31738281Q-2.2773438 -0.68066406 -2.0458984 -1.0791016Q-1.8144531 -1.4775391 -1.8144531 -1.9814453Q-1.8144531 -2.6611328 -2.2128906 -3.0361328Q-2.6113281 -3.4111328 -3.3203125 -3.4111328Q-3.9941406 -3.4111328 -4.4306641 -3.0449219Q-4.8671875 -2.6787109 -4.9433594 -2.0166016L-6.0214844 -2.1162109Q-5.9042969 -3.1064453 -5.1806641 -3.6923828Q-4.4570312 -4.2783203 -3.3203125 -4.2783203Q-2.0722656 -4.2783203 -1.4013672 -3.6894531Q-0.73046875 -3.1005859 -0.73046875 -2.0166016Q-0.73046875 -1.5361328 -0.95019531 -1.0615234Q-1.1699219 -0.58691406 -1.6035156 -0.11230469Q-2.0371094 0.36230469 -3.2617188 1.3583984Q-3.9355469 1.9091797 -4.3339844 2.3515625Q-4.7324219 2.7939453 -4.9082031 3.2041016L-0.6015625 3.2041016L-0.6015625 4.1005859L-6.0683594 4.1005859Z"/>
	</g>
	<clipPath id="cl_728">
		<rect width="49.75" height="800"/>
	</clipPath>
	<g clip-path="url(#cl_728)">
		<path fill="#666" transform="translate(38.75 545.8)" d="M-0.52539062 1.8212891Q-0.52539062 2.9638672 -1.2519531 3.5908203Q-1.9785156 4.2177734 -3.3261719 4.2177734Q-4.5800781 4.2177734 -5.3271484 3.6523438Q-6.0742188 3.0869141 -6.2148438 1.9794922L-5.125 1.8798828Q-4.9140625 3.3447266 -3.3261719 3.3447266Q-2.5292969 3.3447266 -2.0751953 2.9521484Q-1.6210938 2.5595703 -1.6210938 1.7861328Q-1.6210938 1.1123047 -2.1396484 0.734375Q-2.6582031 0.35644531 -3.6367188 0.35644531L-4.234375 0.35644531L-4.234375 -0.55761719L-3.6601562 -0.55761719Q-2.7929688 -0.55761719 -2.3154297 -0.93554688Q-1.8378906 -1.3134766 -1.8378906 -1.9814453Q-1.8378906 -2.6435547 -2.2275391 -3.0273438Q-2.6171875 -3.4111328 -3.3847656 -3.4111328Q-4.0820312 -3.4111328 -4.5126953 -3.0537109Q-4.9433594 -2.6962891 -5.0136719 -2.0458984L-6.0742188 -2.1279297Q-5.9570312 -3.1416016 -5.2333984 -3.7099609Q-4.5097656 -4.2783203 -3.3730469 -4.2783203Q-2.1308594 -4.2783203 -1.4423828 -3.7011719Q-0.75390625 -3.1240234 -0.75390625 -2.0927734Q-0.75390625 -1.3017578 -1.1962891 -0.80664062Q-1.6386719 -0.31152344 -2.4824219 -0.13574219L-2.4824219 -0.11230469Q-1.5566406 -0.012695312 -1.0410156 0.50878906Q-0.52539062 1.0302734 -0.52539062 1.8212891Z"/>
	</g>
	<clipPath id="cl_729">
		<rect width="49.75" height="800"/>
	</clipPath>
	<g clip-path="url(#cl_729)">
		<path fill="#666" transform="translate(38.75 478)" d="M-1.5097656 2.2314453L-1.5097656 4.1005859L-2.5058594 4.1005859L-2.5058594 2.2314453L-6.3964844 2.2314453L-6.3964844 1.4111328L-2.6171875 -4.1552734L-1.5097656 -4.1552734L-1.5097656 1.3994141L-0.34960938 1.3994141L-0.34960938 2.2314453L-1.5097656 2.2314453ZM-2.5058594 -2.9658203Q-2.5175781 -2.9306641 -2.6699219 -2.6552734Q-2.8222656 -2.3798828 -2.8984375 -2.2685547L-5.0136719 0.84863281L-5.3300781 1.2822266L-5.4238281 1.3994141L-2.5058594 1.3994141L-2.5058594 -2.9658203Z"/>
	</g>
	<clipPath id="cl_72a">
		<rect width="49.75" height="800"/>
	</clipPath>
	<g clip-path="url(#cl_72a)">
		<path fill="#666" transform="translate(38.75 410.2)" d="M-0.50195312 1.4111328Q-0.50195312 2.7177734 -1.2783203 3.4677734Q-2.0546875 4.2177734 -3.4316406 4.2177734Q-4.5859375 4.2177734 -5.2949219 3.7138672Q-6.0039062 3.2099609 -6.1914062 2.2548828L-5.125 2.1318359Q-4.7910156 3.3564453 -3.4082031 3.3564453Q-2.5585938 3.3564453 -2.078125 2.84375Q-1.5976562 2.3310547 -1.5976562 1.4345703Q-1.5976562 0.65527344 -2.0810547 0.17480469Q-2.5644531 -0.30566406 -3.3847656 -0.30566406Q-3.8125 -0.30566406 -4.1816406 -0.17089844Q-4.5507812 -0.036132812 -4.9199219 0.28613281L-5.9511719 0.28613281L-5.6757812 -4.1552734L-0.98242188 -4.1552734L-0.98242188 -3.2587891L-4.7148438 -3.2587891L-4.8730469 -0.63964844Q-4.1875 -1.1669922 -3.1679688 -1.1669922Q-1.9492188 -1.1669922 -1.2255859 -0.45214844Q-0.50195312 0.26269531 -0.50195312 1.4111328Z"/>
	</g>
	<clipPath id="cl_72b">
		<rect width="49.75" height="800"/>
	</clipPath>
	<g clip-path="url(#cl_72b)">
		<path fill="#666" transform="translate(38.75 342.4)" d="M-0.52539062 1.3994141Q-0.52539062 2.7060547 -1.234375 3.4619141Q-1.9433594 4.2177734 -3.1914062 4.2177734Q-4.5859375 4.2177734 -5.3242188 3.1806641Q-6.0625 2.1435547 -6.0625 0.16308594Q-6.0625 -1.9814453 -5.2949219 -3.1298828Q-4.5273438 -4.2783203 -3.109375 -4.2783203Q-1.2402344 -4.2783203 -0.75390625 -2.5966797L-1.7617188 -2.4150391Q-2.0722656 -3.4228516 -3.1210938 -3.4228516Q-4.0234375 -3.4228516 -4.5185547 -2.5820312Q-5.0136719 -1.7412109 -5.0136719 -0.14746094Q-4.7265625 -0.68066406 -4.2050781 -0.95898438Q-3.6835938 -1.2373047 -3.0097656 -1.2373047Q-1.8671875 -1.2373047 -1.1962891 -0.52246094Q-0.52539062 0.19238281 -0.52539062 1.3994141ZM-1.5976562 1.4462891Q-1.5976562 0.54980469 -2.0371094 0.063476562Q-2.4765625 -0.42285156 -3.2617188 -0.42285156Q-4 -0.42285156 -4.4541016 0.0078125Q-4.9082031 0.43847656 -4.9082031 1.1943359Q-4.9082031 2.1494141 -4.4365234 2.7587891Q-3.9648438 3.3681641 -3.2265625 3.3681641Q-2.4648438 3.3681641 -2.03125 2.8554688Q-1.5976562 2.3427734 -1.5976562 1.4462891Z"/>
	</g>
	<clipPath id="cl_72c">
		<rect width="49.75" height="800"/>
	</clipPath>
	<g clip-path="url(#cl_72c)">
		<path fill="#666" transform="translate(38.75 274.6)" d="M-0.6015625 -3.2998047Q-1.8671875 -1.3662109 -2.3886719 -0.27050781Q-2.9101562 0.82519531 -3.1708984 1.8916016Q-3.4316406 2.9580078 -3.4316406 4.1005859L-4.5332031 4.1005859Q-4.5332031 2.5185547 -3.8623047 0.76953125Q-3.1914062 -0.97949219 -1.6210938 -3.2587891L-6.0566406 -3.2587891L-6.0566406 -4.1552734L-0.6015625 -4.1552734L-0.6015625 -3.2998047Z"/>
	</g>
	<clipPath id="cl_72d">
		<rect width="49.75" height="800"/>
	</clipPath>
	<g clip-path="url(#cl_72d)">
		<path fill="#666" transform="translate(38.75 206.8)" d="M-0.51953125 1.7978516Q-0.51953125 2.9404297 -1.2460938 3.5791016Q-1.9726562 4.2177734 -3.3320312 4.2177734Q-4.65625 4.2177734 -5.4033203 3.5908203Q-6.1503906 2.9638672 -6.1503906 1.8095703Q-6.1503906 1.0009766 -5.6875 0.45019531Q-5.2246094 -0.10058594 -4.5039062 -0.21777344L-4.5039062 -0.24121094Q-5.1777344 -0.39941406 -5.5673828 -0.92675781Q-5.9570312 -1.4541016 -5.9570312 -2.1630859Q-5.9570312 -3.1064453 -5.2509766 -3.6923828Q-4.5449219 -4.2783203 -3.3554688 -4.2783203Q-2.1367188 -4.2783203 -1.4306641 -3.7041016Q-0.72460938 -3.1298828 -0.72460938 -2.1513672Q-0.72460938 -1.4423828 -1.1171875 -0.91503906Q-1.5097656 -0.38769531 -2.1894531 -0.25292969L-2.1894531 -0.22949219Q-1.3984375 -0.10058594 -0.95898438 0.44140625Q-0.51953125 0.98339844 -0.51953125 1.7978516ZM-1.8203125 -2.0927734Q-1.8203125 -3.4931641 -3.3554688 -3.4931641Q-4.0996094 -3.4931641 -4.4892578 -3.1416016Q-4.8789062 -2.7900391 -4.8789062 -2.0927734Q-4.8789062 -1.3837891 -4.4775391 -1.0117188Q-4.0761719 -0.63964844 -3.34375 -0.63964844Q-2.5996094 -0.63964844 -2.2099609 -0.98242188Q-1.8203125 -1.3251953 -1.8203125 -2.0927734ZM-1.6152344 1.6982422Q-1.6152344 0.93066406 -2.0722656 0.54101562Q-2.5292969 0.15136719 -3.3554688 0.15136719Q-4.1582031 0.15136719 -4.609375 0.5703125Q-5.0605469 0.98925781 -5.0605469 1.7216797Q-5.0605469 3.4267578 -3.3203125 3.4267578Q-2.4589844 3.4267578 -2.0371094 3.0136719Q-1.6152344 2.6005859 -1.6152344 1.6982422Z"/>
	</g>
	<clipPath id="cl_72e">
		<rect width="49.75" height="800"/>
	</clipPath>
	<g clip-path="url(#cl_72e)">
		<path fill="#666" transform="translate(38.75 139)" d="M-0.56640625 -0.19433594Q-0.56640625 1.9326172 -1.3427734 3.0751953Q-2.1191406 4.2177734 -3.5546875 4.2177734Q-4.5214844 4.2177734 -5.1044922 3.8105469Q-5.6875 3.4033203 -5.9394531 2.4951172L-4.9316406 2.3369141Q-4.6152344 3.3681641 -3.5371094 3.3681641Q-2.6289062 3.3681641 -2.1308594 2.5244141Q-1.6328125 1.6806641 -1.609375 0.11621094Q-1.84375 0.64355469 -2.4121094 0.96289062Q-2.9804688 1.2822266 -3.6601562 1.2822266Q-4.7734375 1.2822266 -5.4414062 0.52050781Q-6.109375 -0.24121094 -6.109375 -1.5009766Q-6.109375 -2.7958984 -5.3828125 -3.5371094Q-4.65625 -4.2783203 -3.3613281 -4.2783203Q-1.984375 -4.2783203 -1.2753906 -3.2587891Q-0.56640625 -2.2392578 -0.56640625 -0.19433594ZM-1.7148438 -1.2138672Q-1.7148438 -2.2099609 -2.171875 -2.8164062Q-2.6289062 -3.4228516 -3.3964844 -3.4228516Q-4.1582031 -3.4228516 -4.5976562 -2.9042969Q-5.0371094 -2.3857422 -5.0371094 -1.5009766Q-5.0371094 -0.59863281 -4.5976562 -0.07421875Q-4.1582031 0.45019531 -3.4082031 0.45019531Q-2.9511719 0.45019531 -2.5585938 0.2421875Q-2.1660156 0.034179688 -1.9404297 -0.34667969Q-1.7148438 -0.72753906 -1.7148438 -1.2138672Z"/>
	</g>
	<clipPath id="cl_72f">
		<rect width="49.75" height="800"/>
	</clipPath>
	<g clip-path="url(#cl_72f)">
		<path fill="#666" transform="translate(38.75 71.2)" d="M-12.429688 4.1005859L-12.429688 3.2041016L-10.326172 3.2041016L-10.326172 -3.1474609L-12.189453 -1.8173828L-12.189453 -2.8134766L-10.238281 -4.1552734L-9.265625 -4.1552734L-9.265625 3.2041016L-7.2558594 3.2041016L-7.2558594 4.1005859L-12.429688 4.1005859ZM-0.46484375 -0.030273438Q-0.46484375 2.0380859 -1.1943359 3.1279297Q-1.9238281 4.2177734 -3.3476562 4.2177734Q-4.7714844 4.2177734 -5.4863281 3.1337891Q-6.2011719 2.0498047 -6.2011719 -0.030273438Q-6.2011719 -2.1572266 -5.5068359 -3.2177734Q-4.8125 -4.2783203 -3.3125 -4.2783203Q-1.8535156 -4.2783203 -1.1591797 -3.2060547Q-0.46484375 -2.1337891 -0.46484375 -0.030273438ZM-1.5371094 -0.030273438Q-1.5371094 -1.8173828 -1.9501953 -2.6201172Q-2.3632812 -3.4228516 -3.3125 -3.4228516Q-4.2851562 -3.4228516 -4.7099609 -2.6318359Q-5.1347656 -1.8408203 -5.1347656 -0.030273438Q-5.1347656 1.7275391 -4.7041016 2.5419922Q-4.2734375 3.3564453 -3.3359375 3.3564453Q-2.4042969 3.3564453 -1.9707031 2.5244141Q-1.5371094 1.6923828 -1.5371094 -0.030273438Z"/>
	</g>
	<clipPath id="cl_731">
		<rect x="43.75" y="65.199997" width="1156.25" height="690"/>
	</clipPath>
	<g clip-path="url(#cl_731)">
		<path fill="none" stroke="#C32222" stroke-width="2" stroke-miterlimit="10" d=""/>
	</g>
	<clipPath id="cl_732">
		<rect x="43.75" y="65.199997" width="1156.25" height="690"/>
	</clipPath>
	<g clip-path="url(#cl_732)">
		<path fill="#C32222" fill-opacity="0.2" d="M52.75 274.60001Q52.75 274.74738 52.73555 274.89404Q52.721107 275.04071 52.692352 275.18524Q52.663601 275.3298 52.620815 275.47086Q52.578033 275.61188 52.521633 275.74802Q52.465233 275.88422 52.39576 276.01419Q52.326286 276.14417 52.244404 276.26669Q52.162525 276.38928 52.069027 276.5032Q51.975533 276.61713 51.871319 276.72131Q51.767105 276.82556 51.653179 276.91904Q51.539253 277.01251 51.416706 277.09439Q51.294167 277.17627 51.164188 277.24576Q51.03421 277.31525 50.898048 277.37161Q50.76189 277.42804 50.620857 277.47079Q50.47982 277.51361 50.33527 277.54233Q50.19072 277.57111 50.044052 277.58557Q49.897381 277.60001 49.75 277.60001Q49.602619 277.60001 49.455948 277.58554Q49.309277 277.57111 49.164726 277.54233Q49.02018 277.51361 48.879143 277.47079Q48.73811 277.42804 48.601944 277.37161Q48.465782 277.31525 48.335808 277.24576Q48.205826 277.17627 48.083282 277.09439Q47.960747 277.01251 47.846817 276.91904Q47.732895 276.82556 47.628677 276.72131Q47.524467 276.61713 47.430969 276.5032Q47.337471 276.38925 47.255585 276.26666Q47.173706 276.14417 47.104233 276.01419Q47.03476 275.88422 46.978359 275.74802Q46.921963 275.61188 46.879177 275.47083Q46.836395 275.3298 46.80764 275.18524Q46.778893 275.04071 46.76445 274.89404Q46.75 274.74738 46.75 274.60001Q46.75 274.45264 46.76445 274.30594Q46.778896 274.15927 46.807648 274.01471Q46.836403 273.87018 46.879181 273.72916Q46.921963 273.5881 46.978359 273.45193Q47.03476 273.3158 47.104233 273.18582Q47.173706 273.05585 47.255585 272.93329Q47.337471 272.81076 47.430969 272.69684Q47.524467 272.58289 47.628677 272.47867Q47.732895 272.37445 47.846817 272.28094Q47.960747 272.18744 48.083282 272.10556Q48.205826 272.02368 48.335808 271.95422Q48.465782 271.88477 48.601944 271.82837Q48.73811 271.77197 48.879143 271.72919Q49.02018 271.6864 49.164726 271.65765Q49.309277 271.62891 49.455948 271.61447Q49.602619 271.60004 49.75 271.60001Q49.897381 271.60004 50.044052 271.61444Q50.19072 271.62891 50.335266 271.65765Q50.479816 271.6864 50.620853 271.72919Q50.761887 271.77197 50.898045 271.82837Q51.03421 271.88477 51.164188 271.95422Q51.294167 272.02368 51.416706 272.10556Q51.539253 272.18744 51.653179 272.28094Q51.767105 272.37445 51.871315 272.47867Q51.975533 272.58289 52.069023 272.69684Q52.162521 272.81076 52.2444 272.93329Q52.326279 273.05585 52.395756 273.18582Q52.465233 273.3158 52.521633 273.45193Q52.578033 273.5881 52.620815 273.72913Q52.663597 273.87018 52.692348 274.01471Q52.721107 274.15927 52.73555 274.30597Q52.75 274.45264 52.75 274.60001Z"/>
		<path fill="none" stroke="#C32222" stroke-width="2" stroke-miterlimit="10" d="M52.75 274.60001Q52.75 274.74738 52.73555 274.89404Q52.721107 275.04071 52.692352 275.18524Q52.663601 275.3298 52.620815 275.47086Q52.578033 275.61188 52.521633 275.74802Q52.465233 275.88422 52.39576 276.01419Q52.326286 276.14417 52.244404 276.26669Q52.162525 276.38928 52.069027 276.5032Q51.975533 276.61713 51.871319 276.72131Q51.767105 276.82556 51.653179 276.91904Q51.539253 277.01251 51.416706 277.09439Q51.294167 277.17627 51.164188 277.24576Q51.03421 277.31525 50.898048 277.37161Q50.76189 277.42804 50.620857 277.47079Q50.47982 277.51361 50.33527 277.54233Q50.19072 277.57111 50.044052 277.58557Q49.897381 277.60001 49.75 277.60001Q49.602619 277.60001 49.455948 277.58554Q49.309277 277.57111 49.164726 277.54233Q49.02018 277.51361 48.879143 277.47079Q48.73811 277.42804 48.601944 277.37161Q48.465782 277.31525 48.335808 277.24576Q48.205826 277.17627 48.083282 277.09439Q47.960747 277.01251 47.846817 276.91904Q47.732895 276.82556 47.628677 276.72131Q47.524467 276.61713 47.430969 276.5032Q47.337471 276.38925 47.255585 276.26666Q47.173706 276.14417 47.104233 276.01419Q47.03476 275.88422 46.978359 275.74802Q46.921963 275.61188 46.879177 275.47083Q46.836395 275.3298 46.80764 275.18524Q46.778893 275.04071 46.76445 274.89404Q46.75 274.74738 46.75 274.60001Q46.75 274.45264 46.76445 274.30594Q46.778896 274.15927 46.807648 274.01471Q46.836403 273.87018 46.879181 273.72916Q46.921963 273.5881 46.978359 273.45193Q47.03476 273.3158 47.104233 273.18582Q47.173706 273.05585 47.255585 272.93329Q47.337471 272.81076 47.430969 272.69684Q47.524467 272.58289 47.628677 272.47867Q47.732895 272.37445 47.846817 272.28094Q47.960747 272.18744 48.083282 272.10556Q48.205826 272.02368 48.335808 271.95422Q48.465782 271.88477 48.601944 271.82837Q48.73811 271.77197 48.879143 271.72919Q49.02018 271.6864 49.164726 271.65765Q49.309277 271.62891 49.455948 271.61447Q49.602619 271.60004 49.75 271.60001Q49.897381 271.60004 50.044052 271.61444Q50.19072 271.62891 50.335266 271.65765Q50.479816 271.6864 50.620853 271.72919Q50.761887 271.77197 50.898045 271.82837Q51.03421 271.88477 51.164188 271.95422Q51.294167 272.02368 51.416706 272.10556Q51.539253 272.18744 51.653179 272.28094Q51.767105 272.37445 51.871315 272.47867Q51.975533 272.58289 52.069023 272.69684Q52.162521 272.81076 52.2444 272.93329Q52.326279 273.05585 52.395756 273.18582Q52.465233 273.3158 52.521633 273.45193Q52.578033 273.5881 52.620815 273.72913Q52.663597 273.87018 52.692348 274.01471Q52.721107 274.15927 52.73555 274.30597Q52.75 274.45264 52.75 274.60001Z"/>
	</g>
</svg>
