<?xml version="1.0" encoding="utf-8" ?>
<svg xmlns="http://www.w3.org/2000/svg" xmlns:xlink="http://www.w3.org/1999/xlink" width="1200" height="800">
	<rect fill="white" width="1200" height="800"/>
	<path fill="none" stroke="black" stroke-width="1" stroke-miterlimit="10" stroke-opacity="0.10196079" d="M49.5 71.199997L49.5 749"/>
	<path fill="none" stroke="black" stroke-width="1" stroke-miterlimit="10" stroke-opacity="0.10196079" d="M49.5 750L49.5 757.20001"/>
	<path fill="#666" transform="translate(621.875 788.8)" d="M-26.550781 4.1005859L-28.695312 0.67285156L-31.267578 0.67285156L-31.267578 4.1005859L-32.386719 4.1005859L-32.386719 -4.1552734L-28.501953 -4.1552734Q-27.107422 -4.1552734 -26.348633 -3.53125Q-25.589844 -2.9072266 -25.589844 -1.7939453Q-25.589844 -0.87402344 -26.125977 -0.24707031Q-26.662109 0.37988281 -27.605469 0.54394531L-25.261719 4.1005859L-26.550781 4.1005859ZM-26.714844 -1.7822266Q-26.714844 -2.5029297 -27.204102 -2.8808594Q-27.693359 -3.2587891 -28.613281 -3.2587891L-31.267578 -3.2587891L-31.267578 -0.21191406L-28.566406 -0.21191406Q-27.681641 -0.21191406 -27.198242 -0.625Q-26.714844 -1.0380859 -26.714844 -1.7822266ZM-23.087891 1.1533203Q-23.087891 2.2431641 -22.636719 2.8349609Q-22.185547 3.4267578 -21.318359 3.4267578Q-20.632812 3.4267578 -20.219727 3.1513672Q-19.806641 2.8759766 -19.660156 2.4541016L-18.734375 2.7177734Q-19.302734 4.2177734 -21.318359 4.2177734Q-22.724609 4.2177734 -23.459961 3.3798828Q-24.195312 2.5419922 -24.195312 0.88964844Q-24.195312 -0.68066406 -23.459961 -1.5185547Q-22.724609 -2.3564453 -21.359375 -2.3564453Q-18.564453 -2.3564453 -18.564453 1.0126953L-18.564453 1.1533203L-23.087891 1.1533203ZM-19.654297 0.34472656Q-19.742188 -0.65722656 -20.164062 -1.1171875Q-20.585938 -1.5771484 -21.376953 -1.5771484Q-22.144531 -1.5771484 -22.592773 -1.0644531Q-23.041016 -0.55175781 -23.076172 0.34472656L-19.654297 0.34472656ZM-17.222656 4.1005859L-17.222656 -4.5947266L-16.167969 -4.5947266L-16.167969 4.1005859L-17.222656 4.1005859ZM-13.748047 1.1533203Q-13.748047 2.2431641 -13.296875 2.8349609Q-12.845703 3.4267578 -11.978516 3.4267578Q-11.292969 3.4267578 -10.879883 3.1513672Q-10.466797 2.8759766 -10.320312 2.4541016L-9.3945312 2.7177734Q-9.9628906 4.2177734 -11.978516 4.2177734Q-13.384766 4.2177734 -14.120117 3.3798828Q-14.855469 2.5419922 -14.855469 0.88964844Q-14.855469 -0.68066406 -14.120117 -1.5185547Q-13.384766 -2.3564453 -12.019531 -2.3564453Q-9.2246094 -2.3564453 -9.2246094 1.0126953L-9.2246094 1.1533203L-13.748047 1.1533203ZM-10.314453 0.34472656Q-10.402344 -0.65722656 -10.824219 -1.1171875Q-11.246094 -1.5771484 -12.037109 -1.5771484Q-12.804688 -1.5771484 -13.25293 -1.0644531Q-13.701172 -0.55175781 -13.736328 0.34472656L-10.314453 0.34472656ZM-6.265625 4.2177734Q-7.2207031 4.2177734 -7.7011719 3.7138672Q-8.1816406 3.2099609 -8.1816406 2.3310547Q-8.1816406 1.3466797 -7.5341797 0.81933594Q-6.8867188 0.29199219 -5.4453125 0.25683594L-4.0214844 0.23339844L-4.0214844 -0.11230469Q-4.0214844 -0.88574219 -4.3496094 -1.2197266Q-4.6777344 -1.5537109 -5.3808594 -1.5537109Q-6.0898438 -1.5537109 -6.4121094 -1.3134766Q-6.734375 -1.0732422 -6.7988281 -0.54589844L-7.9003906 -0.64550781Q-7.6308594 -2.3564453 -5.3574219 -2.3564453Q-4.1621094 -2.3564453 -3.5585938 -1.8085938Q-2.9550781 -1.2607422 -2.9550781 -0.22363281L-2.9550781 2.5068359Q-2.9550781 2.9755859 -2.8320312 3.2128906Q-2.7089844 3.4501953 -2.3632812 3.4501953Q-2.2109375 3.4501953 -2.0175781 3.4091797L-2.0175781 4.0654297Q-2.4160156 4.1591797 -2.8320312 4.1591797Q-3.4179688 4.1591797 -3.6845703 3.8515625Q-3.9511719 3.5439453 -3.9863281 2.8876953L-4.0214844 2.8876953Q-4.4257812 3.6142578 -4.9619141 3.9160156Q-5.4980469 4.2177734 -6.265625 4.2177734ZM-6.0253906 3.4267578Q-5.4453125 3.4267578 -4.9941406 3.1630859Q-4.5429688 2.8994141 -4.2822266 2.4394531Q-4.0214844 1.9794922 -4.0214844 1.4931641L-4.0214844 0.97167969L-5.1757812 0.99511719Q-5.9199219 1.0068359 -6.3037109 1.1474609Q-6.6875 1.2880859 -6.8925781 1.5810547Q-7.0976562 1.8740234 -7.0976562 2.3486328Q-7.0976562 2.8642578 -6.8193359 3.1455078Q-6.5410156 3.4267578 -6.0253906 3.4267578ZM3.5488281 2.3486328Q3.5488281 3.2451172 2.8720703 3.7314453Q2.1953125 4.2177734 0.9765625 4.2177734Q-0.20703125 4.2177734 -0.84863281 3.828125Q-1.4902344 3.4384766 -1.6835938 2.6123047L-0.75195312 2.4306641Q-0.6171875 2.9404297 -0.1953125 3.1777344Q0.2265625 3.4150391 0.9765625 3.4150391Q1.7792969 3.4150391 2.1513672 3.1689453Q2.5234375 2.9228516 2.5234375 2.4306641Q2.5234375 2.0556641 2.265625 1.8212891Q2.0078125 1.5869141 1.4335938 1.4345703L0.67773438 1.2353516Q-0.23046875 1.0009766 -0.61425781 0.77539062Q-0.99804688 0.54980469 -1.2148438 0.22753906Q-1.4316406 -0.094726562 -1.4316406 -0.56347656Q-1.4316406 -1.4306641 -0.81347656 -1.8847656Q-0.1953125 -2.3388672 0.98828125 -2.3388672Q2.0371094 -2.3388672 2.6552734 -1.9697266Q3.2734375 -1.6005859 3.4375 -0.78613281L2.4882812 -0.66894531Q2.4003906 -1.0908203 2.0166016 -1.3164062Q1.6328125 -1.5419922 0.98828125 -1.5419922Q0.2734375 -1.5419922 -0.06640625 -1.3251953Q-0.40625 -1.1083984 -0.40625 -0.66894531Q-0.40625 -0.39941406 -0.265625 -0.22363281Q-0.125 -0.047851562 0.15039062 0.075195312Q0.42578125 0.19824219 1.3105469 0.41503906Q2.1484375 0.62597656 2.5175781 0.8046875Q2.8867188 0.98339844 3.1005859 1.2001953Q3.3144531 1.4169922 3.4316406 1.7011719Q3.5488281 1.9853516 3.5488281 2.3486328ZM5.5996094 1.1533203Q5.5996094 2.2431641 6.0507812 2.8349609Q6.5019531 3.4267578 7.3691406 3.4267578Q8.0546875 3.4267578 8.4677734 3.1513672Q8.8808594 2.8759766 9.0273438 2.4541016L9.953125 2.7177734Q9.3847656 4.2177734 7.3691406 4.2177734Q5.9628906 4.2177734 5.2275391 3.3798828Q4.4921875 2.5419922 4.4921875 0.88964844Q4.4921875 -0.68066406 5.2275391 -1.5185547Q5.9628906 -2.3564453 7.328125 -2.3564453Q10.123047 -2.3564453 10.123047 1.0126953L10.123047 1.1533203L5.5996094 1.1533203ZM9.0332031 0.34472656Q8.9453125 -0.65722656 8.5234375 -1.1171875Q8.1015625 -1.5771484 7.3105469 -1.5771484Q6.5429688 -1.5771484 6.0947266 -1.0644531Q5.6464844 -0.55175781 5.6113281 0.34472656L9.0332031 0.34472656ZM17.992188 -3.2412109L17.992188 4.1005859L16.878906 4.1005859L16.878906 -3.2412109L14.042969 -3.2412109L14.042969 -4.1552734L20.828125 -4.1552734L20.828125 -3.2412109L17.992188 -3.2412109ZM22.199219 4.2177734Q21.244141 4.2177734 20.763672 3.7138672Q20.283203 3.2099609 20.283203 2.3310547Q20.283203 1.3466797 20.930664 0.81933594Q21.578125 0.29199219 23.019531 0.25683594L24.443359 0.23339844L24.443359 -0.11230469Q24.443359 -0.88574219 24.115234 -1.2197266Q23.787109 -1.5537109 23.083984 -1.5537109Q22.375 -1.5537109 22.052734 -1.3134766Q21.730469 -1.0732422 21.666016 -0.54589844L20.564453 -0.64550781Q20.833984 -2.3564453 23.107422 -2.3564453Q24.302734 -2.3564453 24.90625 -1.8085938Q25.509766 -1.2607422 25.509766 -0.22363281L25.509766 2.5068359Q25.509766 2.9755859 25.632812 3.2128906Q25.755859 3.4501953 26.101562 3.4501953Q26.253906 3.4501953 26.447266 3.4091797L26.447266 4.0654297Q26.048828 4.1591797 25.632812 4.1591797Q25.046875 4.1591797 24.780273 3.8515625Q24.513672 3.5439453 24.478516 2.8876953L24.443359 2.8876953Q24.039062 3.6142578 23.50293 3.9160156Q22.966797 4.2177734 22.199219 4.2177734ZM22.439453 3.4267578Q23.019531 3.4267578 23.470703 3.1630859Q23.921875 2.8994141 24.182617 2.4394531Q24.443359 1.9794922 24.443359 1.4931641L24.443359 0.97167969L23.289062 0.99511719Q22.544922 1.0068359 22.161133 1.1474609Q21.777344 1.2880859 21.572266 1.5810547Q21.367188 1.8740234 21.367188 2.3486328Q21.367188 2.8642578 21.645508 3.1455078Q21.923828 3.4267578 22.439453 3.4267578ZM29.658203 6.5908203Q28.621094 6.5908203 28.005859 6.1835938Q27.390625 5.7763672 27.214844 5.0263672L28.275391 4.8740234Q28.380859 5.3134766 28.741211 5.5507812Q29.101562 5.7880859 29.6875 5.7880859Q31.263672 5.7880859 31.263672 3.9423828L31.263672 2.9228516L31.251953 2.9228516Q30.953125 3.5322266 30.431641 3.8398438Q29.910156 4.1474609 29.212891 4.1474609Q28.046875 4.1474609 27.499023 3.3740234Q26.951172 2.6005859 26.951172 0.94238281Q26.951172 -0.73925781 27.540039 -1.5390625Q28.128906 -2.3388672 29.330078 -2.3388672Q30.003906 -2.3388672 30.499023 -2.03125Q30.994141 -1.7236328 31.263672 -1.1552734L31.275391 -1.1552734Q31.275391 -1.3310547 31.298828 -1.7646484Q31.322266 -2.1982422 31.345703 -2.2392578L32.347656 -2.2392578Q32.3125 -1.9228516 32.3125 -0.92675781L32.3125 3.9189453Q32.3125 6.5908203 29.658203 6.5908203ZM31.263672 0.93066406Q31.263672 0.15722656 31.052734 -0.40234375Q30.841797 -0.96191406 30.458008 -1.2578125Q30.074219 -1.5537109 29.587891 -1.5537109Q28.779297 -1.5537109 28.410156 -0.96777344Q28.041016 -0.38183594 28.041016 0.93066406Q28.041016 2.2314453 28.386719 2.7998047Q28.732422 3.3681641 29.570312 3.3681641Q30.068359 3.3681641 30.455078 3.0751953Q30.841797 2.7822266 31.052734 2.234375Q31.263672 1.6865234 31.263672 0.93066406Z"/>
	<path fill="none" stroke="black" stroke-width="1" stroke-miterlimit="10" stroke-opacity="0.10196079" d="M50 749.5L1194 749.5"/>
	<path fill="none" stroke="black" stroke-width="1" stroke-miterlimit="10" stroke-opacity="0.10196079" d="M41.75 749.5L49 749.5"/>
	<path fill="none" stroke="black" stroke-width="1" stroke-miterlimit="10" stroke-opacity="0.10196079" d="M50 681.5L1194 681.5"/>
	<path fill="none" stroke="black" stroke-width="1" stroke-miterlimit="10" stroke-opacity="0.10196079" d="M41.75 681.5L49 681.5"/>
	<path fill="none" stroke="black" stroke-width="1" stroke-miterlimit="10" stroke-opacity="0.10196079" d="M50 613.5L1194 613.5"/>
	<path fill="none" stroke="black" stroke-width="1" stroke-miterlimit="10" stroke-opacity="0.10196079" d="M41.75 613.5L49 613.5"/>
	<path fill="none" stroke="black" stroke-width="1" stroke-miterlimit="10" stroke-opacity="0.10196079" d="M50 545.5L1194 545.5"/>
	<path fill="none" stroke="black" stroke-width="1" stroke-miterlimit="10" stroke-opacity="0.10196079" d="M41.75 545.5L49 545.5"/>
	<path fill="none" stroke="black" stroke-width="1" stroke-miterlimit="10" stroke-opacity="0.10196079" d="M50 478.5L1194 478.5"/>
	<path fill="none" stroke="black" stroke-width="1" stroke-miterlimit="10" stroke-opacity="0.10196079" d="M41.75 478.5L49 478.5"/>
	<path fill="none" stroke="black" stroke-width="1" stroke-miterlimit="10" stroke-opacity="0.10196079" d="M50 410.5L1194 410.5"/>
	<path fill="none" stroke="black" stroke-width="1" stroke-miterlimit="10" stroke-opacity="0.10196079" d="M41.75 410.5L49 410.5"/>
	<path fill="none" stroke="black" stroke-width="1" stroke-miterlimit="10" stroke-opacity="0.10196079" d="M50 342.5L1194 342.5"/>
	<path fill="none" stroke="black" stroke-width="1" stroke-miterlimit="10" stroke-opacity="0.10196079" d="M41.75 342.5L49 342.5"/>
	<path fill="none" stroke="black" stroke-width="1" stroke-miterlimit="10" stroke-opacity="0.10196079" d="M50 274.5L1194 274.5"/>
	<path fill="none" stroke="black" stroke-width="1" stroke-miterlimit="10" stroke-opacity="0.10196079" d="M41.75 274.5L49 274.5"/>
	<path fill="none" stroke="black" stroke-width="1" stroke-miterlimit="10" stroke-opacity="0.10196079" d="M50 206.5L1194 206.5"/>
	<path fill="none" stroke="black" stroke-width="1" stroke-miterlimit="10" stroke-opacity="0.10196079" d="M41.75 206.5L49 206.5"/>
	<path fill="none" stroke="black" stroke-width="1" stroke-miterlimit="10" stroke-opacity="0.10196079" d="M50 139.5L1194 139.5"/>
	<path fill="none" stroke="black" stroke-width="1" stroke-miterlimit="10" stroke-opacity="0.10196079" d="M41.75 139.5L49 139.5"/>
	<path fill="none" stroke="black" stroke-width="1" stroke-miterlimit="10" stroke-opacity="0.10196079" d="M50 71.5L1194 71.5"/>
	<path fill="none" stroke="black" stroke-width="1" stroke-miterlimit="10" stroke-opacity="0.10196079" d="M41.75 71.5L49 71.5"/>
	<path fill="#666" transform="matrix(0 -1 1 0 11.2 410.2)" d="M-21.591797 -0.11230469Q-21.591797 1.1650391 -22.089844 2.1230469Q-22.587891 3.0810547 -23.501953 3.5908203Q-24.416016 4.1005859 -25.611328 4.1005859L-28.699219 4.1005859L-28.699219 -4.1552734L-25.96875 -4.1552734Q-23.871094 -4.1552734 -22.731445 -3.1035156Q-21.591797 -2.0517578 -21.591797 -0.11230469ZM-22.716797 -0.11230469Q-22.716797 -1.6474609 -23.557617 -2.453125Q-24.398438 -3.2587891 -25.992188 -3.2587891L-27.580078 -3.2587891L-27.580078 3.2041016L-25.740234 3.2041016Q-24.832031 3.2041016 -24.143555 2.8056641Q-23.455078 2.4072266 -23.085938 1.6572266Q-22.716797 0.90722656 -22.716797 -0.11230469ZM-14.847656 0.92480469Q-14.847656 2.5888672 -15.580078 3.4033203Q-16.3125 4.2177734 -17.707031 4.2177734Q-19.095703 4.2177734 -19.804688 3.3710938Q-20.513672 2.5244141 -20.513672 0.92480469Q-20.513672 -2.3564453 -17.671875 -2.3564453Q-16.21875 -2.3564453 -15.533203 -1.5566406Q-14.847656 -0.75683594 -14.847656 0.92480469ZM-15.955078 0.92480469Q-15.955078 -0.38769531 -16.344727 -0.98242188Q-16.734375 -1.5771484 -17.654297 -1.5771484Q-18.580078 -1.5771484 -18.993164 -0.97070312Q-19.40625 -0.36425781 -19.40625 0.92480469Q-19.40625 2.1787109 -18.999023 2.8085938Q-18.591797 3.4384766 -17.71875 3.4384766Q-16.769531 3.4384766 -16.362305 2.8291016Q-15.955078 2.2197266 -15.955078 0.92480469ZM-7.4648438 4.1005859L-8.6894531 4.1005859L-9.796875 -0.38183594L-10.007812 -1.3720703Q-10.060547 -1.1083984 -10.171875 -0.61328125Q-10.283203 -0.11816406 -11.367188 4.1005859L-12.585938 4.1005859L-14.361328 -2.2392578L-13.318359 -2.2392578L-12.246094 2.0673828Q-12.205078 2.2080078 -11.994141 3.2275391L-11.894531 2.7939453L-10.570312 -2.2392578L-9.4394531 -2.2392578L-8.3320312 2.1142578L-8.0625 3.2275391L-7.8808594 2.4130859L-6.6796875 -2.2392578L-5.6484375 -2.2392578L-7.4648438 4.1005859ZM-0.84375 4.1005859L-0.84375 0.081054688Q-0.84375 -0.54589844 -0.96679688 -0.89160156Q-1.0898438 -1.2373047 -1.359375 -1.3896484Q-1.6289062 -1.5419922 -2.1503906 -1.5419922Q-2.9121094 -1.5419922 -3.3515625 -1.0205078Q-3.7910156 -0.49902344 -3.7910156 0.42675781L-3.7910156 4.1005859L-4.8457031 4.1005859L-4.8457031 -0.88574219Q-4.8457031 -1.9931641 -4.8808594 -2.2392578L-3.8847656 -2.2392578Q-3.8789062 -2.2099609 -3.8730469 -2.0810547Q-3.8671875 -1.9521484 -3.8583984 -1.7851562Q-3.8496094 -1.6181641 -3.8378906 -1.1552734L-3.8203125 -1.1552734Q-3.4570312 -1.8115234 -2.9794922 -2.0839844Q-2.5019531 -2.3564453 -1.7929688 -2.3564453Q-0.75 -2.3564453 -0.26660156 -1.8378906Q0.21679688 -1.3193359 0.21679688 -0.12402344L0.21679688 4.1005859L-0.84375 4.1005859ZM1.8046875 4.1005859L1.8046875 -4.5947266L2.859375 -4.5947266L2.859375 4.1005859L1.8046875 4.1005859ZM9.8320312 0.92480469Q9.8320312 2.5888672 9.0996094 3.4033203Q8.3671875 4.2177734 6.9726562 4.2177734Q5.5839844 4.2177734 4.875 3.3710938Q4.1660156 2.5244141 4.1660156 0.92480469Q4.1660156 -2.3564453 7.0078125 -2.3564453Q8.4609375 -2.3564453 9.1464844 -1.5566406Q9.8320312 -0.75683594 9.8320312 0.92480469ZM8.7246094 0.92480469Q8.7246094 -0.38769531 8.3349609 -0.98242188Q7.9453125 -1.5771484 7.0253906 -1.5771484Q6.0996094 -1.5771484 5.6865234 -0.97070312Q5.2734375 -0.36425781 5.2734375 0.92480469Q5.2734375 2.1787109 5.6806641 2.8085938Q6.0878906 3.4384766 6.9609375 3.4384766Q7.9101562 3.4384766 8.3173828 2.8291016Q8.7246094 2.2197266 8.7246094 0.92480469ZM12.761719 4.2177734Q11.806641 4.2177734 11.326172 3.7138672Q10.845703 3.2099609 10.845703 2.3310547Q10.845703 1.3466797 11.493164 0.81933594Q12.140625 0.29199219 13.582031 0.25683594L15.005859 0.23339844L15.005859 -0.11230469Q15.005859 -0.88574219 14.677734 -1.2197266Q14.349609 -1.5537109 13.646484 -1.5537109Q12.9375 -1.5537109 12.615234 -1.3134766Q12.292969 -1.0732422 12.228516 -0.54589844L11.126953 -0.64550781Q11.396484 -2.3564453 13.669922 -2.3564453Q14.865234 -2.3564453 15.46875 -1.8085938Q16.072266 -1.2607422 16.072266 -0.22363281L16.072266 2.5068359Q16.072266 2.9755859 16.195312 3.2128906Q16.318359 3.4501953 16.664062 3.4501953Q16.816406 3.4501953 17.009766 3.4091797L17.009766 4.0654297Q16.611328 4.1591797 16.195312 4.1591797Q15.609375 4.1591797 15.342773 3.8515625Q15.076172 3.5439453 15.041016 2.8876953L15.005859 2.8876953Q14.601562 3.6142578 14.06543 3.9160156Q13.529297 4.2177734 12.761719 4.2177734ZM13.001953 3.4267578Q13.582031 3.4267578 14.033203 3.1630859Q14.484375 2.8994141 14.745117 2.4394531Q15.005859 1.9794922 15.005859 1.4931641L15.005859 0.97167969L13.851562 0.99511719Q13.107422 1.0068359 12.723633 1.1474609Q12.339844 1.2880859 12.134766 1.5810547Q11.929688 1.8740234 11.929688 2.3486328Q11.929688 2.8642578 12.208008 3.1455078Q12.486328 3.4267578 13.001953 3.4267578ZM21.820312 3.0810547Q21.527344 3.6904297 21.043945 3.9541016Q20.560547 4.2177734 19.845703 4.2177734Q18.644531 4.2177734 18.079102 3.4091797Q17.513672 2.6005859 17.513672 0.95996094Q17.513672 -2.3564453 19.845703 -2.3564453Q20.566406 -2.3564453 21.046875 -2.0927734Q21.527344 -1.8291016 21.820312 -1.2548828L21.832031 -1.2548828L21.820312 -1.9638672L21.820312 -4.5947266L22.875 -4.5947266L22.875 2.7939453Q22.875 3.7841797 22.910156 4.1005859L21.902344 4.1005859Q21.884766 4.0068359 21.864258 3.6669922Q21.84375 3.3271484 21.84375 3.0810547L21.820312 3.0810547ZM18.621094 0.92480469Q18.621094 2.2548828 18.972656 2.8291016Q19.324219 3.4033203 20.115234 3.4033203Q21.011719 3.4033203 21.416016 2.7822266Q21.820312 2.1611328 21.820312 0.85449219Q21.820312 -0.40527344 21.416016 -0.99121094Q21.011719 -1.5771484 20.126953 -1.5771484Q19.330078 -1.5771484 18.975586 -0.98828125Q18.621094 -0.39941406 18.621094 0.92480469ZM29.25 2.3486328Q29.25 3.2451172 28.573242 3.7314453Q27.896484 4.2177734 26.677734 4.2177734Q25.494141 4.2177734 24.852539 3.828125Q24.210938 3.4384766 24.017578 2.6123047L24.949219 2.4306641Q25.083984 2.9404297 25.505859 3.1777344Q25.927734 3.4150391 26.677734 3.4150391Q27.480469 3.4150391 27.852539 3.1689453Q28.224609 2.9228516 28.224609 2.4306641Q28.224609 2.0556641 27.966797 1.8212891Q27.708984 1.5869141 27.134766 1.4345703L26.378906 1.2353516Q25.470703 1.0009766 25.086914 0.77539062Q24.703125 0.54980469 24.486328 0.22753906Q24.269531 -0.094726562 24.269531 -0.56347656Q24.269531 -1.4306641 24.887695 -1.8847656Q25.505859 -2.3388672 26.689453 -2.3388672Q27.738281 -2.3388672 28.356445 -1.9697266Q28.974609 -1.6005859 29.138672 -0.78613281L28.189453 -0.66894531Q28.101562 -1.0908203 27.717773 -1.3164062Q27.333984 -1.5419922 26.689453 -1.5419922Q25.974609 -1.5419922 25.634766 -1.3251953Q25.294922 -1.1083984 25.294922 -0.66894531Q25.294922 -0.39941406 25.435547 -0.22363281Q25.576172 -0.047851562 25.851562 0.075195312Q26.126953 0.19824219 27.011719 0.41503906Q27.849609 0.62597656 28.21875 0.8046875Q28.587891 0.98339844 28.801758 1.2001953Q29.015625 1.4169922 29.132812 1.7011719Q29.25 1.9853516 29.25 2.3486328Z"/>
	<clipPath id="cl_2d3">
		<rect y="39.200001" width="1200" height="31.999996"/>
	</clipPath>
	<g clip-path="url(#cl_2d3)">
		<path fill="#C32222" fill-opacity="0.2" d="M569.33002 49.200001L609.33002 49.200001L609.33002 61.200001L569.33002 61.200001L569.33002 49.200001Z"/>
		<path fill="none" stroke="#C32222" stroke-width="2" stroke-miterlimit="10" d="M569.33002 49.200001L609.33002 49.200001L609.33002 61.200001L569.33002 61.200001L569.33002 49.200001Z"/>
	</g>
	<clipPath id="cl_2d4">
		<rect y="39.200001" width="1200" height="31.999996"/>
	</clipPath>
	<g clip-path="url(#cl_2d4)">
		<path fill="#666" d="M615.81635 59.300587L615.81635 58.497852L619.36127 53.775196L616.01556 53.775196L616.01556 52.960743L620.60931 52.960743L620.60931 53.763477L617.05853 58.486134L620.73236 58.486134L620.73236 59.300587L615.81635 59.300587ZM622.13275 51.613087L622.13275 50.605274L623.18744 50.605274L623.18744 51.613087L622.13275 51.613087ZM622.13275 59.300587L622.13275 52.960743L623.18744 52.960743L623.18744 59.300587L622.13275 59.300587ZM630.16595 56.101368Q630.16595 59.417774 627.83392 59.417774Q626.36908 59.417774 625.86517 58.316212L625.83588 58.316212Q625.85931 58.363087 625.85931 59.312305L625.85931 61.790821L624.80463 61.790821L624.80463 54.255665Q624.80463 53.277149 624.76947 52.960743L625.789 52.960743Q625.79486 52.98418 625.80658 53.127735Q625.8183 53.27129 625.83295 53.570118Q625.8476 53.868946 625.8476 53.980274L625.87103 53.980274Q626.15228 53.394337 626.61517 53.121876Q627.07806 52.849415 627.83392 52.849415Q629.0058 52.849415 629.58588 53.634571Q630.16595 54.419727 630.16595 56.101368ZM629.05853 56.124805Q629.05853 54.800587 628.70111 54.232227Q628.34369 53.663868 627.56439 53.663868Q626.93744 53.663868 626.58295 53.92754Q626.22845 54.191212 626.04388 54.750782Q625.85931 55.310352 625.85931 56.206837Q625.85931 57.454884 626.25775 58.04668Q626.65619 58.638477 627.55267 58.638477Q628.33783 58.638477 628.69818 58.061329Q629.05853 57.48418 629.05853 56.124805Z"/>
	</g>
	<path fill="#666" transform="translate(600 19.6)" d="M-268.07812 3.3320312Q-268.07812 4.5585938 -269.08203 5.2578125Q-270.08594 5.9570312 -271.85938 5.9570312Q-273.60156 5.9570312 -274.52734 5.40625Q-275.45312 4.8554688 -275.75781 3.6914062L-273.82812 3.4023438Q-273.66406 4.0039062 -273.26172 4.2539062Q-272.85938 4.5039062 -271.85938 4.5039062Q-270.9375 4.5039062 -270.51562 4.2695312Q-270.09375 4.0351562 -270.09375 3.5351562Q-270.09375 3.1289062 -270.43359 2.890625Q-270.77344 2.6523438 -271.58594 2.4882812Q-273.44531 2.1210938 -274.09375 1.8046875Q-274.74219 1.4882812 -275.08203 0.984375Q-275.42188 0.48046875 -275.42188 -0.25390625Q-275.42188 -1.4648438 -274.48828 -2.140625Q-273.55469 -2.8164062 -271.84375 -2.8164062Q-270.33594 -2.8164062 -269.41797 -2.2304688Q-268.5 -1.6445312 -268.27344 -0.53515625L-270.21875 -0.33203125Q-270.3125 -0.84765625 -270.67969 -1.1015625Q-271.04688 -1.3554688 -271.84375 -1.3554688Q-272.625 -1.3554688 -273.01562 -1.15625Q-273.40625 -0.95703125 -273.40625 -0.48828125Q-273.40625 -0.12109375 -273.10547 0.09375Q-272.80469 0.30859375 -272.09375 0.44921875Q-271.10156 0.65234375 -270.33203 0.8671875Q-269.5625 1.0820312 -269.09766 1.3789062Q-268.63281 1.6757812 -268.35547 2.140625Q-268.07812 2.6054688 -268.07812 3.3320312ZM-264.35156 5.9570312Q-265.57812 5.9570312 -266.26562 5.2890625Q-266.95312 4.6210938 -266.95312 3.4101562Q-266.95312 2.0976562 -266.09766 1.4101562Q-265.24219 0.72265625 -263.61719 0.70703125L-261.79688 0.67578125L-261.79688 0.24609375Q-261.79688 -0.58203125 -262.08594 -0.984375Q-262.375 -1.3867188 -263.03125 -1.3867188Q-263.64062 -1.3867188 -263.92578 -1.109375Q-264.21094 -0.83203125 -264.28125 -0.19140625L-266.57031 -0.30078125Q-266.35938 -1.5351562 -265.44141 -2.171875Q-264.52344 -2.8085938 -262.9375 -2.8085938Q-261.33594 -2.8085938 -260.46875 -2.0195312Q-259.60156 -1.2304688 -259.60156 0.22265625L-259.60156 3.3007812Q-259.60156 4.0117188 -259.44141 4.28125Q-259.28125 4.5507812 -258.90625 4.5507812Q-258.65625 4.5507812 -258.42188 4.5039062L-258.42188 5.6914062Q-258.61719 5.7382812 -258.77344 5.7773438Q-258.92969 5.8164062 -259.08594 5.8398438Q-259.24219 5.8632812 -259.41797 5.8789062Q-259.59375 5.8945312 -259.82812 5.8945312Q-260.65625 5.8945312 -261.05078 5.4882812Q-261.44531 5.0820312 -261.52344 4.2929688L-261.57031 4.2929688Q-262.49219 5.9570312 -264.35156 5.9570312ZM-261.79688 1.8867188L-262.92188 1.9023438Q-263.6875 1.9335938 -264.00781 2.0703125Q-264.32812 2.2070312 -264.49609 2.4882812Q-264.66406 2.7695312 -264.66406 3.2382812Q-264.66406 3.8398438 -264.38672 4.1328125Q-264.10938 4.4257812 -263.64844 4.4257812Q-263.13281 4.4257812 -262.70703 4.1445312Q-262.28125 3.8632812 -262.03906 3.3671875Q-261.79688 2.8710938 -261.79688 2.3164062L-261.79688 1.8867188ZM-257.40625 -4.1757812L-257.40625 -5.7929688L-255.21094 -5.7929688L-255.21094 -4.1757812L-257.40625 -4.1757812ZM-257.40625 5.8007812L-257.40625 -2.6523438L-255.21094 -2.6523438L-255.21094 5.8007812L-257.40625 5.8007812ZM-252.96094 5.8007812L-252.96094 -5.7929688L-250.76562 -5.7929688L-250.76562 5.8007812L-252.96094 5.8007812ZM-240.51562 1.5351562Q-240.51562 3.6523438 -241.36328 4.8046875Q-242.21094 5.9570312 -243.75781 5.9570312Q-244.64844 5.9570312 -245.30859 5.5703125Q-245.96875 5.1835938 -246.32031 4.4570312L-246.36719 4.4570312Q-246.32031 4.6914062 -246.32031 5.8789062L-246.32031 9.1210938L-248.51562 9.1210938L-248.51562 -0.70703125Q-248.51562 -1.9023438 -248.57812 -2.6523438L-246.44531 -2.6523438Q-246.40625 -2.5117188 -246.37891 -2.0976562Q-246.35156 -1.6835938 -246.35156 -1.2773438L-246.32031 -1.2773438Q-245.57812 -2.8320312 -243.61719 -2.8320312Q-242.14062 -2.8320312 -241.32812 -1.6953125Q-240.51562 -0.55859375 -240.51562 1.5351562ZM-242.80469 1.5351562Q-242.80469 -1.3085938 -244.54688 -1.3085938Q-245.42188 -1.3085938 -245.88672 -0.54296875Q-246.35156 0.22265625 -246.35156 1.5976562Q-246.35156 2.9648438 -245.88672 3.7109375Q-245.42188 4.4570312 -244.5625 4.4570312Q-242.80469 4.4570312 -242.80469 1.5351562ZM-230.71094 1.5664062Q-230.71094 3.6210938 -231.85156 4.7890625Q-232.99219 5.9570312 -235.00781 5.9570312Q-236.98438 5.9570312 -238.10938 4.7851562Q-239.23438 3.6132812 -239.23438 1.5664062Q-239.23438 -0.47265625 -238.10938 -1.640625Q-236.98438 -2.8085938 -234.96094 -2.8085938Q-232.89062 -2.8085938 -231.80078 -1.6796875Q-230.71094 -0.55078125 -230.71094 1.5664062ZM-233.00781 1.5664062Q-233.00781 0.05859375 -233.5 -0.62109375Q-233.99219 -1.3007812 -234.92969 -1.3007812Q-236.92969 -1.3007812 -236.92969 1.5664062Q-236.92969 2.9804688 -236.44141 3.71875Q-235.95312 4.4570312 -235.03125 4.4570312Q-233.00781 4.4570312 -233.00781 1.5664062ZM-228.96875 -4.1757812L-228.96875 -5.7929688L-226.77344 -5.7929688L-226.77344 -4.1757812L-228.96875 -4.1757812ZM-228.96875 5.8007812L-228.96875 -2.6523438L-226.77344 -2.6523438L-226.77344 5.8007812L-228.96875 5.8007812ZM-219.04688 5.8007812L-219.04688 1.0585938Q-219.04688 -1.1679688 -220.55469 -1.1679688Q-221.35156 -1.1679688 -221.83984 -0.484375Q-222.32812 0.19921875 -222.32812 1.2695312L-222.32812 5.8007812L-224.52344 5.8007812L-224.52344 -0.76171875Q-224.52344 -1.4414062 -224.54297 -1.875Q-224.5625 -2.3085938 -224.58594 -2.6523438L-222.49219 -2.6523438Q-222.46875 -2.5039062 -222.42969 -1.859375Q-222.39062 -1.2148438 -222.39062 -0.97265625L-222.35938 -0.97265625Q-221.91406 -1.9414062 -221.24219 -2.3789062Q-220.57031 -2.8164062 -219.64062 -2.8164062Q-218.29688 -2.8164062 -217.57812 -1.9882812Q-216.85938 -1.1601562 -216.85938 0.43359375L-216.85938 5.8007812L-219.04688 5.8007812ZM-212.58594 5.9414062Q-213.55469 5.9414062 -214.07812 5.4140625Q-214.60156 4.8867188 -214.60156 3.8164062L-214.60156 -1.1679688L-215.67188 -1.1679688L-215.67188 -2.6523438L-214.49219 -2.6523438L-213.80469 -4.6367188L-212.42969 -4.6367188L-212.42969 -2.6523438L-210.82812 -2.6523438L-210.82812 -1.1679688L-212.42969 -1.1679688L-212.42969 3.2226562Q-212.42969 3.8398438 -212.19531 4.1328125Q-211.96094 4.4257812 -211.46875 4.4257812Q-211.21094 4.4257812 -210.73438 4.3164062L-210.73438 5.6757812Q-211.54688 5.9414062 -212.58594 5.9414062ZM-209.91406 2.6054688L-209.91406 0.69921875L-205.85156 0.69921875L-205.85156 2.6054688L-209.91406 2.6054688ZM-196.0625 1.5664062Q-196.0625 3.6210938 -197.20312 4.7890625Q-198.34375 5.9570312 -200.35938 5.9570312Q-202.33594 5.9570312 -203.46094 4.7851562Q-204.58594 3.6132812 -204.58594 1.5664062Q-204.58594 -0.47265625 -203.46094 -1.640625Q-202.33594 -2.8085938 -200.3125 -2.8085938Q-198.24219 -2.8085938 -197.15234 -1.6796875Q-196.0625 -0.55078125 -196.0625 1.5664062ZM-198.35938 1.5664062Q-198.35938 0.05859375 -198.85156 -0.62109375Q-199.34375 -1.3007812 -200.28125 -1.3007812Q-202.28125 -1.3007812 -202.28125 1.5664062Q-202.28125 2.9804688 -201.79297 3.71875Q-201.30469 4.4570312 -200.38281 4.4570312Q-198.35938 4.4570312 -198.35938 1.5664062ZM-187.19531 3.3320312Q-187.19531 4.5585938 -188.19922 5.2578125Q-189.20312 5.9570312 -190.97656 5.9570312Q-192.71875 5.9570312 -193.64453 5.40625Q-194.57031 4.8554688 -194.875 3.6914062L-192.94531 3.4023438Q-192.78125 4.0039062 -192.37891 4.2539062Q-191.97656 4.5039062 -190.97656 4.5039062Q-190.05469 4.5039062 -189.63281 4.2695312Q-189.21094 4.0351562 -189.21094 3.5351562Q-189.21094 3.1289062 -189.55078 2.890625Q-189.89062 2.6523438 -190.70312 2.4882812Q-192.5625 2.1210938 -193.21094 1.8046875Q-193.85938 1.4882812 -194.19922 0.984375Q-194.53906 0.48046875 -194.53906 -0.25390625Q-194.53906 -1.4648438 -193.60547 -2.140625Q-192.67188 -2.8164062 -190.96094 -2.8164062Q-189.45312 -2.8164062 -188.53516 -2.2304688Q-187.61719 -1.6445312 -187.39062 -0.53515625L-189.33594 -0.33203125Q-189.42969 -0.84765625 -189.79688 -1.1015625Q-190.16406 -1.3554688 -190.96094 -1.3554688Q-191.74219 -1.3554688 -192.13281 -1.15625Q-192.52344 -0.95703125 -192.52344 -0.48828125Q-192.52344 -0.12109375 -192.22266 0.09375Q-191.92188 0.30859375 -191.21094 0.44921875Q-190.21875 0.65234375 -189.44922 0.8671875Q-188.67969 1.0820312 -188.21484 1.3789062Q-187.75 1.6757812 -187.47266 2.140625Q-187.19531 2.6054688 -187.19531 3.3320312ZM-178.29688 3.3320312Q-178.29688 4.5585938 -179.30078 5.2578125Q-180.30469 5.9570312 -182.07812 5.9570312Q-183.82031 5.9570312 -184.74609 5.40625Q-185.67188 4.8554688 -185.97656 3.6914062L-184.04688 3.4023438Q-183.88281 4.0039062 -183.48047 4.2539062Q-183.07812 4.5039062 -182.07812 4.5039062Q-181.15625 4.5039062 -180.73438 4.2695312Q-180.3125 4.0351562 -180.3125 3.5351562Q-180.3125 3.1289062 -180.65234 2.890625Q-180.99219 2.6523438 -181.80469 2.4882812Q-183.66406 2.1210938 -184.3125 1.8046875Q-184.96094 1.4882812 -185.30078 0.984375Q-185.64062 0.48046875 -185.64062 -0.25390625Q-185.64062 -1.4648438 -184.70703 -2.140625Q-183.77344 -2.8164062 -182.0625 -2.8164062Q-180.55469 -2.8164062 -179.63672 -2.2304688Q-178.71875 -1.6445312 -178.49219 -0.53515625L-180.4375 -0.33203125Q-180.53125 -0.84765625 -180.89844 -1.1015625Q-181.26562 -1.3554688 -182.0625 -1.3554688Q-182.84375 -1.3554688 -183.23438 -1.15625Q-183.625 -0.95703125 -183.625 -0.48828125Q-183.625 -0.12109375 -183.32422 0.09375Q-183.02344 0.30859375 -182.3125 0.44921875Q-181.32031 0.65234375 -180.55078 0.8671875Q-179.78125 1.0820312 -179.31641 1.3789062Q-178.85156 1.6757812 -178.57422 2.140625Q-178.29688 2.6054688 -178.29688 3.3320312ZM-177.48438 6.1210938L-175.21094 -5.7929688L-173.35156 -5.7929688L-175.58594 6.1210938L-177.48438 6.1210938ZM-168.55469 5.9570312Q-170.47656 5.9570312 -171.52344 4.8125Q-172.57031 3.6679688 -172.57031 1.6210938Q-172.57031 -0.47265625 -171.51562 -1.640625Q-170.46094 -2.8085938 -168.52344 -2.8085938Q-167.03125 -2.8085938 -166.05469 -2.0585938Q-165.07812 -1.3085938 -164.82812 0.01171875L-167.03906 0.12109375Q-167.13281 -0.52734375 -167.50781 -0.9140625Q-167.88281 -1.3007812 -168.57031 -1.3007812Q-170.26562 -1.3007812 -170.26562 1.5351562Q-170.26562 4.4570312 -168.53906 4.4570312Q-167.91406 4.4570312 -167.49219 4.0625Q-167.07031 3.6679688 -166.96875 2.8867188L-164.76562 2.9882812Q-164.88281 3.8554688 -165.38672 4.5351562Q-165.89062 5.2148438 -166.71094 5.5859375Q-167.53125 5.9570312 -168.55469 5.9570312ZM-155.14844 1.5664062Q-155.14844 3.6210938 -156.28906 4.7890625Q-157.42969 5.9570312 -159.44531 5.9570312Q-161.42188 5.9570312 -162.54688 4.7851562Q-163.67188 3.6132812 -163.67188 1.5664062Q-163.67188 -0.47265625 -162.54688 -1.640625Q-161.42188 -2.8085938 -159.39844 -2.8085938Q-157.32812 -2.8085938 -156.23828 -1.6796875Q-155.14844 -0.55078125 -155.14844 1.5664062ZM-157.44531 1.5664062Q-157.44531 0.05859375 -157.9375 -0.62109375Q-158.42969 -1.3007812 -159.36719 -1.3007812Q-161.36719 -1.3007812 -161.36719 1.5664062Q-161.36719 2.9804688 -160.87891 3.71875Q-160.39062 4.4570312 -159.46875 4.4570312Q-157.44531 4.4570312 -157.44531 1.5664062ZM-153.40625 5.8007812L-153.40625 -5.7929688L-151.21094 -5.7929688L-151.21094 5.8007812L-153.40625 5.8007812ZM-147.00781 5.9570312Q-148.23438 5.9570312 -148.92188 5.2890625Q-149.60938 4.6210938 -149.60938 3.4101562Q-149.60938 2.0976562 -148.75391 1.4101562Q-147.89844 0.72265625 -146.27344 0.70703125L-144.45312 0.67578125L-144.45312 0.24609375Q-144.45312 -0.58203125 -144.74219 -0.984375Q-145.03125 -1.3867188 -145.6875 -1.3867188Q-146.29688 -1.3867188 -146.58203 -1.109375Q-146.86719 -0.83203125 -146.9375 -0.19140625L-149.22656 -0.30078125Q-149.01562 -1.5351562 -148.09766 -2.171875Q-147.17969 -2.8085938 -145.59375 -2.8085938Q-143.99219 -2.8085938 -143.125 -2.0195312Q-142.25781 -1.2304688 -142.25781 0.22265625L-142.25781 3.3007812Q-142.25781 4.0117188 -142.09766 4.28125Q-141.9375 4.5507812 -141.5625 4.5507812Q-141.3125 4.5507812 -141.07812 4.5039062L-141.07812 5.6914062Q-141.27344 5.7382812 -141.42969 5.7773438Q-141.58594 5.8164062 -141.74219 5.8398438Q-141.89844 5.8632812 -142.07422 5.8789062Q-142.25 5.8945312 -142.48438 5.8945312Q-143.3125 5.8945312 -143.70703 5.4882812Q-144.10156 5.0820312 -144.17969 4.2929688L-144.22656 4.2929688Q-145.14844 5.9570312 -147.00781 5.9570312ZM-144.45312 1.8867188L-145.57812 1.9023438Q-146.34375 1.9335938 -146.66406 2.0703125Q-146.98438 2.2070312 -147.15234 2.4882812Q-147.32031 2.7695312 -147.32031 3.2382812Q-147.32031 3.8398438 -147.04297 4.1328125Q-146.76562 4.4257812 -146.30469 4.4257812Q-145.78906 4.4257812 -145.36328 4.1445312Q-144.9375 3.8632812 -144.69531 3.3671875Q-144.45312 2.8710938 -144.45312 2.3164062L-144.45312 1.8867188ZM-132.0625 1.5429688Q-132.0625 3.6367188 -132.90234 4.796875Q-133.74219 5.9570312 -135.30469 5.9570312Q-136.20312 5.9570312 -136.85938 5.5664062Q-137.51562 5.1757812 -137.86719 4.4414062L-137.88281 4.4414062Q-137.88281 4.7148438 -137.91797 5.1914062Q-137.95312 5.6679688 -137.99219 5.8007812L-140.125 5.8007812Q-140.0625 5.0742188 -140.0625 3.8710938L-140.0625 -5.7929688L-137.86719 -5.7929688L-137.86719 -2.5585938L-137.89844 -1.1835938L-137.86719 -1.1835938Q-137.125 -2.8085938 -135.16406 -2.8085938Q-133.66406 -2.8085938 -132.86328 -1.671875Q-132.0625 -0.53515625 -132.0625 1.5429688ZM-134.35156 1.5429688Q-134.35156 0.10546875 -134.77344 -0.58984375Q-135.19531 -1.2851562 -136.07812 -1.2851562Q-136.96875 -1.2851562 -137.43359 -0.5390625Q-137.89844 0.20703125 -137.89844 1.6132812Q-137.89844 2.9570312 -137.44141 3.7070312Q-136.98438 4.4570312 -136.09375 4.4570312Q-134.35156 4.4570312 -134.35156 1.5429688ZM-130.78125 2.6054688L-130.78125 0.69921875L-126.71875 0.69921875L-126.71875 2.6054688L-130.78125 2.6054688ZM-117.83594 3.3320312Q-117.83594 4.5585938 -118.83984 5.2578125Q-119.84375 5.9570312 -121.61719 5.9570312Q-123.35938 5.9570312 -124.28516 5.40625Q-125.21094 4.8554688 -125.51562 3.6914062L-123.58594 3.4023438Q-123.42188 4.0039062 -123.01953 4.2539062Q-122.61719 4.5039062 -121.61719 4.5039062Q-120.69531 4.5039062 -120.27344 4.2695312Q-119.85156 4.0351562 -119.85156 3.5351562Q-119.85156 3.1289062 -120.19141 2.890625Q-120.53125 2.6523438 -121.34375 2.4882812Q-123.20312 2.1210938 -123.85156 1.8046875Q-124.5 1.4882812 -124.83984 0.984375Q-125.17969 0.48046875 -125.17969 -0.25390625Q-125.17969 -1.4648438 -124.24609 -2.140625Q-123.3125 -2.8164062 -121.60156 -2.8164062Q-120.09375 -2.8164062 -119.17578 -2.2304688Q-118.25781 -1.6445312 -118.03125 -0.53515625L-119.97656 -0.33203125Q-120.07031 -0.84765625 -120.4375 -1.1015625Q-120.80469 -1.3554688 -121.60156 -1.3554688Q-122.38281 -1.3554688 -122.77344 -1.15625Q-123.16406 -0.95703125 -123.16406 -0.48828125Q-123.16406 -0.12109375 -122.86328 0.09375Q-122.5625 0.30859375 -121.85156 0.44921875Q-120.85938 0.65234375 -120.08984 0.8671875Q-119.32031 1.0820312 -118.85547 1.3789062Q-118.39062 1.6757812 -118.11328 2.140625Q-117.83594 2.6054688 -117.83594 3.3320312ZM-114.10938 5.9570312Q-115.33594 5.9570312 -116.02344 5.2890625Q-116.71094 4.6210938 -116.71094 3.4101562Q-116.71094 2.0976562 -115.85547 1.4101562Q-115 0.72265625 -113.375 0.70703125L-111.55469 0.67578125L-111.55469 0.24609375Q-111.55469 -0.58203125 -111.84375 -0.984375Q-112.13281 -1.3867188 -112.78906 -1.3867188Q-113.39844 -1.3867188 -113.68359 -1.109375Q-113.96875 -0.83203125 -114.03906 -0.19140625L-116.32812 -0.30078125Q-116.11719 -1.5351562 -115.19922 -2.171875Q-114.28125 -2.8085938 -112.69531 -2.8085938Q-111.09375 -2.8085938 -110.22656 -2.0195312Q-109.35938 -1.2304688 -109.35938 0.22265625L-109.35938 3.3007812Q-109.35938 4.0117188 -109.19922 4.28125Q-109.03906 4.5507812 -108.66406 4.5507812Q-108.41406 4.5507812 -108.17969 4.5039062L-108.17969 5.6914062Q-108.375 5.7382812 -108.53125 5.7773438Q-108.6875 5.8164062 -108.84375 5.8398438Q-109 5.8632812 -109.17578 5.8789062Q-109.35156 5.8945312 -109.58594 5.8945312Q-110.41406 5.8945312 -110.80859 5.4882812Q-111.20312 5.0820312 -111.28125 4.2929688L-111.32812 4.2929688Q-112.25 5.9570312 -114.10938 5.9570312ZM-111.55469 1.8867188L-112.67969 1.9023438Q-113.44531 1.9335938 -113.76562 2.0703125Q-114.08594 2.2070312 -114.25391 2.4882812Q-114.42188 2.7695312 -114.42188 3.2382812Q-114.42188 3.8398438 -114.14453 4.1328125Q-113.86719 4.4257812 -113.40625 4.4257812Q-112.89062 4.4257812 -112.46484 4.1445312Q-112.03906 3.8632812 -111.79688 3.3671875Q-111.55469 2.8710938 -111.55469 2.3164062L-111.55469 1.8867188ZM-105.21094 5.9570312Q-106.4375 5.9570312 -107.125 5.2890625Q-107.8125 4.6210938 -107.8125 3.4101562Q-107.8125 2.0976562 -106.95703 1.4101562Q-106.10156 0.72265625 -104.47656 0.70703125L-102.65625 0.67578125L-102.65625 0.24609375Q-102.65625 -0.58203125 -102.94531 -0.984375Q-103.23438 -1.3867188 -103.89062 -1.3867188Q-104.5 -1.3867188 -104.78516 -1.109375Q-105.07031 -0.83203125 -105.14062 -0.19140625L-107.42969 -0.30078125Q-107.21875 -1.5351562 -106.30078 -2.171875Q-105.38281 -2.8085938 -103.79688 -2.8085938Q-102.19531 -2.8085938 -101.32812 -2.0195312Q-100.46094 -1.2304688 -100.46094 0.22265625L-100.46094 3.3007812Q-100.46094 4.0117188 -100.30078 4.28125Q-100.14062 4.5507812 -99.765625 4.5507812Q-99.515625 4.5507812 -99.28125 4.5039062L-99.28125 5.6914062Q-99.476562 5.7382812 -99.632812 5.7773438Q-99.789062 5.8164062 -99.945312 5.8398438Q-100.10156 5.8632812 -100.27734 5.8789062Q-100.45312 5.8945312 -100.6875 5.8945312Q-101.51562 5.8945312 -101.91016 5.4882812Q-102.30469 5.0820312 -102.38281 4.2929688L-102.42969 4.2929688Q-103.35156 5.9570312 -105.21094 5.9570312ZM-102.65625 1.8867188L-103.78125 1.9023438Q-104.54688 1.9335938 -104.86719 2.0703125Q-105.1875 2.2070312 -105.35547 2.4882812Q-105.52344 2.7695312 -105.52344 3.2382812Q-105.52344 3.8398438 -105.24609 4.1328125Q-104.96875 4.4257812 -104.50781 4.4257812Q-103.99219 4.4257812 -103.56641 4.1445312Q-103.14062 3.8632812 -102.89844 3.3671875Q-102.65625 2.8710938 -102.65625 2.3164062L-102.65625 1.8867188ZM-91.140625 3.3320312Q-91.140625 4.5585938 -92.144531 5.2578125Q-93.148438 5.9570312 -94.921875 5.9570312Q-96.664062 5.9570312 -97.589844 5.40625Q-98.515625 4.8554688 -98.820312 3.6914062L-96.890625 3.4023438Q-96.726562 4.0039062 -96.324219 4.2539062Q-95.921875 4.5039062 -94.921875 4.5039062Q-94 4.5039062 -93.578125 4.2695312Q-93.15625 4.0351562 -93.15625 3.5351562Q-93.15625 3.1289062 -93.496094 2.890625Q-93.835938 2.6523438 -94.648438 2.4882812Q-96.507812 2.1210938 -97.15625 1.8046875Q-97.804688 1.4882812 -98.144531 0.984375Q-98.484375 0.48046875 -98.484375 -0.25390625Q-98.484375 -1.4648438 -97.550781 -2.140625Q-96.617188 -2.8164062 -94.90625 -2.8164062Q-93.398438 -2.8164062 -92.480469 -2.2304688Q-91.5625 -1.6445312 -91.335938 -0.53515625L-93.28125 -0.33203125Q-93.375 -0.84765625 -93.742188 -1.1015625Q-94.109375 -1.3554688 -94.90625 -1.3554688Q-95.6875 -1.3554688 -96.078125 -1.15625Q-96.46875 -0.95703125 -96.46875 -0.48828125Q-96.46875 -0.12109375 -96.167969 0.09375Q-95.867188 0.30859375 -95.15625 0.44921875Q-94.164062 0.65234375 -93.394531 0.8671875Q-92.625 1.0820312 -92.160156 1.3789062Q-91.695312 1.6757812 -91.417969 2.140625Q-91.140625 2.6054688 -91.140625 3.3320312ZM-89.859375 2.6054688L-89.859375 0.69921875L-85.796875 0.69921875L-85.796875 2.6054688L-89.859375 2.6054688ZM-80.515625 5.9570312Q-82.4375 5.9570312 -83.484375 4.8125Q-84.53125 3.6679688 -84.53125 1.6210938Q-84.53125 -0.47265625 -83.476562 -1.640625Q-82.421875 -2.8085938 -80.484375 -2.8085938Q-78.992188 -2.8085938 -78.015625 -2.0585938Q-77.039062 -1.3085938 -76.789062 0.01171875L-79 0.12109375Q-79.09375 -0.52734375 -79.46875 -0.9140625Q-79.84375 -1.3007812 -80.53125 -1.3007812Q-82.226562 -1.3007812 -82.226562 1.5351562Q-82.226562 4.4570312 -80.5 4.4570312Q-79.875 4.4570312 -79.453125 4.0625Q-79.03125 3.6679688 -78.929688 2.8867188L-76.726562 2.9882812Q-76.84375 3.8554688 -77.347656 4.5351562Q-77.851562 5.2148438 -78.671875 5.5859375Q-79.492188 5.9570312 -80.515625 5.9570312ZM-67.109375 1.5664062Q-67.109375 3.6210938 -68.25 4.7890625Q-69.390625 5.9570312 -71.40625 5.9570312Q-73.382812 5.9570312 -74.507812 4.7851562Q-75.632812 3.6132812 -75.632812 1.5664062Q-75.632812 -0.47265625 -74.507812 -1.640625Q-73.382812 -2.8085938 -71.359375 -2.8085938Q-69.289062 -2.8085938 -68.199219 -1.6796875Q-67.109375 -0.55078125 -67.109375 1.5664062ZM-69.40625 1.5664062Q-69.40625 0.05859375 -69.898438 -0.62109375Q-70.390625 -1.3007812 -71.328125 -1.3007812Q-73.328125 -1.3007812 -73.328125 1.5664062Q-73.328125 2.9804688 -72.839844 3.71875Q-72.351562 4.4570312 -71.429688 4.4570312Q-69.40625 4.4570312 -69.40625 1.5664062ZM-59.890625 5.8007812L-59.890625 1.0585938Q-59.890625 -1.1679688 -61.398438 -1.1679688Q-62.195312 -1.1679688 -62.683594 -0.484375Q-63.171875 0.19921875 -63.171875 1.2695312L-63.171875 5.8007812L-65.367188 5.8007812L-65.367188 -0.76171875Q-65.367188 -1.4414062 -65.386719 -1.875Q-65.40625 -2.3085938 -65.429688 -2.6523438L-63.335938 -2.6523438Q-63.3125 -2.5039062 -63.273438 -1.859375Q-63.234375 -1.2148438 -63.234375 -0.97265625L-63.203125 -0.97265625Q-62.757812 -1.9414062 -62.085938 -2.3789062Q-61.414062 -2.8164062 -60.484375 -2.8164062Q-59.140625 -2.8164062 -58.421875 -1.9882812Q-57.703125 -1.1601562 -57.703125 0.43359375L-57.703125 5.8007812L-59.890625 5.8007812ZM-50.117188 5.8007812L-50.117188 1.0585938Q-50.117188 -1.1679688 -51.625 -1.1679688Q-52.421875 -1.1679688 -52.910156 -0.484375Q-53.398438 0.19921875 -53.398438 1.2695312L-53.398438 5.8007812L-55.59375 5.8007812L-55.59375 -0.76171875Q-55.59375 -1.4414062 -55.613281 -1.875Q-55.632812 -2.3085938 -55.65625 -2.6523438L-53.5625 -2.6523438Q-53.539062 -2.5039062 -53.5 -1.859375Q-53.460938 -1.2148438 -53.460938 -0.97265625L-53.429688 -0.97265625Q-52.984375 -1.9414062 -52.3125 -2.3789062Q-51.640625 -2.8164062 -50.710938 -2.8164062Q-49.367188 -2.8164062 -48.648438 -1.9882812Q-47.929688 -1.1601562 -47.929688 0.43359375L-47.929688 5.8007812L-50.117188 5.8007812ZM-46.3125 2.6054688L-46.3125 0.69921875L-42.25 0.69921875L-42.25 2.6054688L-46.3125 2.6054688ZM-35.015625 5.8007812Q-35.046875 5.6835938 -35.089844 5.2109375Q-35.132812 4.7382812 -35.132812 4.4257812L-35.164062 4.4257812Q-35.875 5.9570312 -37.867188 5.9570312Q-39.34375 5.9570312 -40.148438 4.8046875Q-40.953125 3.6523438 -40.953125 1.5820312Q-40.953125 -0.51953125 -40.105469 -1.6640625Q-39.257812 -2.8085938 -37.703125 -2.8085938Q-36.804688 -2.8085938 -36.152344 -2.4335938Q-35.5 -2.0585938 -35.148438 -1.3164062L-35.132812 -1.3164062L-35.148438 -2.7070312L-35.148438 -5.7929688L-32.953125 -5.7929688L-32.953125 3.9570312Q-32.953125 4.7382812 -32.890625 5.8007812L-35.015625 5.8007812ZM-35.117188 1.5273438Q-35.117188 0.16015625 -35.574219 -0.578125Q-36.03125 -1.3164062 -36.921875 -1.3164062Q-37.804688 -1.3164062 -38.234375 -0.6015625Q-38.664062 0.11328125 -38.664062 1.5820312Q-38.664062 4.4570312 -36.9375 4.4570312Q-36.070312 4.4570312 -35.59375 3.6953125Q-35.117188 2.9335938 -35.117188 1.5273438ZM-27.257812 5.9570312Q-29.164062 5.9570312 -30.1875 4.828125Q-31.210938 3.6992188 -31.210938 1.5351562Q-31.210938 -0.55859375 -30.171875 -1.6835938Q-29.132812 -2.8085938 -27.226562 -2.8085938Q-25.40625 -2.8085938 -24.445312 -1.6015625Q-23.484375 -0.39453125 -23.484375 1.9335938L-23.484375 1.9960938L-28.90625 1.9960938Q-28.90625 3.2304688 -28.449219 3.859375Q-27.992188 4.4882812 -27.148438 4.4882812Q-25.984375 4.4882812 -25.679688 3.4804688L-23.609375 3.6601562Q-24.507812 5.9570312 -27.257812 5.9570312ZM-27.257812 -1.4257812Q-28.03125 -1.4257812 -28.449219 -0.88671875Q-28.867188 -0.34765625 -28.890625 0.62109375L-25.609375 0.62109375Q-25.671875 -0.40234375 -26.101562 -0.9140625Q-26.53125 -1.4257812 -27.257812 -1.4257812ZM-21.820312 5.8007812L-21.820312 -5.7929688L-19.625 -5.7929688L-19.625 5.8007812L-21.820312 5.8007812ZM-17.375 -4.1757812L-17.375 -5.7929688L-15.179688 -5.7929688L-15.179688 -4.1757812L-17.375 -4.1757812ZM-17.375 5.8007812L-17.375 -2.6523438L-15.179688 -2.6523438L-15.179688 5.8007812L-17.375 5.8007812ZM-7.953125 5.8007812L-7.953125 1.0585938Q-7.953125 -1.1679688 -9.234375 -1.1679688Q-9.8984375 -1.1679688 -10.316406 -0.48828125Q-10.734375 0.19140625 -10.734375 1.2695312L-10.734375 5.8007812L-12.929688 5.8007812L-12.929688 -0.76171875Q-12.929688 -1.4414062 -12.949219 -1.875Q-12.96875 -2.3085938 -12.992188 -2.6523438L-10.898438 -2.6523438Q-10.875 -2.5039062 -10.835938 -1.859375Q-10.796875 -1.2148438 -10.796875 -0.97265625L-10.765625 -0.97265625Q-10.359375 -1.9414062 -9.7539062 -2.3789062Q-9.1484375 -2.8164062 -8.3046875 -2.8164062Q-6.3671875 -2.8164062 -5.953125 -0.97265625L-5.90625 -0.97265625Q-5.4765625 -1.9570312 -4.875 -2.3867188Q-4.2734375 -2.8164062 -3.34375 -2.8164062Q-2.109375 -2.8164062 -1.4609375 -1.9765625Q-0.8125 -1.1367188 -0.8125 0.43359375L-0.8125 5.8007812L-2.9921875 5.8007812L-2.9921875 1.0585938Q-2.9921875 -1.1679688 -4.2734375 -1.1679688Q-4.9140625 -1.1679688 -5.3242188 -0.546875Q-5.734375 0.07421875 -5.7734375 1.1679688L-5.7734375 5.8007812L-7.953125 5.8007812ZM1.296875 -4.1757812L1.296875 -5.7929688L3.4921875 -5.7929688L3.4921875 -4.1757812L1.296875 -4.1757812ZM1.296875 5.8007812L1.296875 -2.6523438L3.4921875 -2.6523438L3.4921875 5.8007812L1.296875 5.8007812ZM7.90625 5.9414062Q6.9375 5.9414062 6.4140625 5.4140625Q5.890625 4.8867188 5.890625 3.8164062L5.890625 -1.1679688L4.8203125 -1.1679688L4.8203125 -2.6523438L6 -2.6523438L6.6875 -4.6367188L8.0625 -4.6367188L8.0625 -2.6523438L9.6640625 -2.6523438L9.6640625 -1.1679688L8.0625 -1.1679688L8.0625 3.2226562Q8.0625 3.8398438 8.296875 4.1328125Q8.53125 4.4257812 9.0234375 4.4257812Q9.28125 4.4257812 9.7578125 4.3164062L9.7578125 5.6757812Q8.9453125 5.9414062 7.90625 5.9414062ZM14.53125 5.9570312Q12.625 5.9570312 11.601562 4.828125Q10.578125 3.6992188 10.578125 1.5351562Q10.578125 -0.55859375 11.617188 -1.6835938Q12.65625 -2.8085938 14.5625 -2.8085938Q16.382812 -2.8085938 17.34375 -1.6015625Q18.304688 -0.39453125 18.304688 1.9335938L18.304688 1.9960938L12.882812 1.9960938Q12.882812 3.2304688 13.339844 3.859375Q13.796875 4.4882812 14.640625 4.4882812Q15.804688 4.4882812 16.109375 3.4804688L18.179688 3.6601562Q17.28125 5.9570312 14.53125 5.9570312ZM14.53125 -1.4257812Q13.757812 -1.4257812 13.339844 -0.88671875Q12.921875 -0.34765625 12.898438 0.62109375L16.179688 0.62109375Q16.117188 -0.40234375 15.6875 -0.9140625Q15.257812 -1.4257812 14.53125 -1.4257812ZM25.445312 5.8007812Q25.414062 5.6835938 25.371094 5.2109375Q25.328125 4.7382812 25.328125 4.4257812L25.296875 4.4257812Q24.585938 5.9570312 22.59375 5.9570312Q21.117188 5.9570312 20.3125 4.8046875Q19.507812 3.6523438 19.507812 1.5820312Q19.507812 -0.51953125 20.355469 -1.6640625Q21.203125 -2.8085938 22.757812 -2.8085938Q23.65625 -2.8085938 24.308594 -2.4335938Q24.960938 -2.0585938 25.3125 -1.3164062L25.328125 -1.3164062L25.3125 -2.7070312L25.3125 -5.7929688L27.507812 -5.7929688L27.507812 3.9570312Q27.507812 4.7382812 27.570312 5.8007812L25.445312 5.8007812ZM25.34375 1.5273438Q25.34375 0.16015625 24.886719 -0.578125Q24.429688 -1.3164062 23.539062 -1.3164062Q22.65625 -1.3164062 22.226562 -0.6015625Q21.796875 0.11328125 21.796875 1.5820312Q21.796875 4.4570312 23.523438 4.4570312Q24.390625 4.4570312 24.867188 3.6953125Q25.34375 2.9335938 25.34375 1.5273438ZM29.25 2.6054688L29.25 0.69921875L33.3125 0.69921875L33.3125 2.6054688L29.25 2.6054688ZM37.648438 -1.1679688L37.648438 5.8007812L35.460938 5.8007812L35.460938 -1.1679688L34.226562 -1.1679688L34.226562 -2.6523438L35.460938 -2.6523438L35.460938 -3.5351562Q35.460938 -4.6835938 36.070312 -5.2382812Q36.679688 -5.7929688 37.921875 -5.7929688Q38.539062 -5.7929688 39.3125 -5.6679688L39.3125 -4.2539062Q38.992188 -4.3242188 38.671875 -4.3242188Q38.109375 -4.3242188 37.878906 -4.1015625Q37.648438 -3.8789062 37.648438 -3.3164062L37.648438 -2.6523438L39.3125 -2.6523438L39.3125 -1.1679688L37.648438 -1.1679688ZM40.398438 -4.1757812L40.398438 -5.7929688L42.59375 -5.7929688L42.59375 -4.1757812L40.398438 -4.1757812ZM40.398438 5.8007812L40.398438 -2.6523438L42.59375 -2.6523438L42.59375 5.8007812L40.398438 5.8007812ZM44.84375 5.8007812L44.84375 -5.7929688L47.039062 -5.7929688L47.039062 5.8007812L44.84375 5.8007812ZM52.75 5.9570312Q50.84375 5.9570312 49.820312 4.828125Q48.796875 3.6992188 48.796875 1.5351562Q48.796875 -0.55859375 49.835938 -1.6835938Q50.875 -2.8085938 52.78125 -2.8085938Q54.601562 -2.8085938 55.5625 -1.6015625Q56.523438 -0.39453125 56.523438 1.9335938L56.523438 1.9960938L51.101562 1.9960938Q51.101562 3.2304688 51.558594 3.859375Q52.015625 4.4882812 52.859375 4.4882812Q54.023438 4.4882812 54.328125 3.4804688L56.398438 3.6601562Q55.5 5.9570312 52.75 5.9570312ZM52.75 -1.4257812Q51.976562 -1.4257812 51.558594 -0.88671875Q51.140625 -0.34765625 51.117188 0.62109375L54.398438 0.62109375Q54.335938 -0.40234375 53.90625 -0.9140625Q53.476562 -1.4257812 52.75 -1.4257812ZM62.140625 2.6054688L62.140625 0.69921875L66.203125 0.69921875L66.203125 2.6054688L62.140625 2.6054688ZM74.664062 -3.4257812L74.664062 -0.01953125L80.296875 -0.01953125L80.296875 1.7617188L74.664062 1.7617188L74.664062 5.8007812L72.359375 5.8007812L72.359375 -5.2070312L80.476562 -5.2070312L80.476562 -3.4257812L74.664062 -3.4257812ZM92.835938 0.24609375Q92.835938 1.9648438 92.15625 3.2695312Q91.476562 4.5742188 90.210938 5.265625Q88.945312 5.9570312 87.257812 5.9570312Q84.664062 5.9570312 83.191406 4.4296875Q81.71875 2.9023438 81.71875 0.24609375Q81.71875 -2.4023438 83.1875 -3.8867188Q84.65625 -5.3710938 87.273438 -5.3710938Q89.890625 -5.3710938 91.363281 -3.8710938Q92.835938 -2.3710938 92.835938 0.24609375ZM90.484375 0.24609375Q90.484375 -1.5351562 89.640625 -2.546875Q88.796875 -3.5585938 87.273438 -3.5585938Q85.726562 -3.5585938 84.882812 -2.5546875Q84.039062 -1.5507812 84.039062 0.24609375Q84.039062 2.0585938 84.902344 3.1015625Q85.765625 4.1445312 87.257812 4.1445312Q88.804688 4.1445312 89.644531 3.1289062Q90.484375 2.1132812 90.484375 0.24609375ZM102.14062 5.8007812L99.585938 1.6210938L96.882812 1.6210938L96.882812 5.8007812L94.578125 5.8007812L94.578125 -5.2070312L100.07812 -5.2070312Q102.04688 -5.2070312 103.11719 -4.359375Q104.1875 -3.5117188 104.1875 -1.9257812Q104.1875 -0.76953125 103.53125 0.0703125Q102.875 0.91015625 101.75781 1.1757812L104.73438 5.8007812L102.14062 5.8007812ZM101.86719 -1.8320312Q101.86719 -3.4179688 99.835938 -3.4179688L96.882812 -3.4179688L96.882812 -0.16796875L99.898438 -0.16796875Q100.86719 -0.16796875 101.36719 -0.60546875Q101.86719 -1.0429688 101.86719 -1.8320312ZM115.27344 5.8007812L115.27344 -0.87109375Q115.27344 -1.0976562 115.27734 -1.3242188Q115.28125 -1.5507812 115.35156 -3.2695312Q114.79688 -1.1679688 114.53125 -0.33984375L112.54688 5.8007812L110.90625 5.8007812L108.92188 -0.33984375L108.08594 -3.2695312Q108.17969 -1.4570312 108.17969 -0.87109375L108.17969 5.8007812L106.13281 5.8007812L106.13281 -5.2070312L109.21875 -5.2070312L111.1875 0.94921875L111.35938 1.5429688L111.73438 3.0195312L112.22656 1.2539062L114.25 -5.2070312L117.32031 -5.2070312L117.32031 5.8007812L115.27344 5.8007812ZM127.24219 5.8007812L126.26562 2.9882812L122.07031 2.9882812L121.09375 5.8007812L118.78906 5.8007812L122.80469 -5.2070312L125.52344 -5.2070312L129.52344 5.8007812L127.24219 5.8007812ZM124.16406 -3.5117188L124.11719 -3.3398438Q124.03906 -3.0585938 123.92969 -2.6992188Q123.82031 -2.3398438 122.58594 1.2539062L125.75 1.2539062L124.66406 -1.9101562L124.32812 -2.9726562L124.16406 -3.5117188ZM134.79688 -3.4257812L134.79688 5.8007812L132.49219 5.8007812L132.49219 -3.4257812L128.9375 -3.4257812L128.9375 -5.2070312L138.35938 -5.2070312L138.35938 -3.4257812L134.79688 -3.4257812ZM153.85938 0.21484375Q153.85938 1.9179688 153.19141 3.1875Q152.52344 4.4570312 151.30078 5.1289062Q150.07812 5.8007812 148.5 5.8007812L144.04688 5.8007812L144.04688 -5.2070312L148.03125 -5.2070312Q150.8125 -5.2070312 152.33594 -3.8046875Q153.85938 -2.4023438 153.85938 0.21484375ZM151.53906 0.21484375Q151.53906 -1.5585938 150.61719 -2.4921875Q149.69531 -3.4257812 147.98438 -3.4257812L146.35156 -3.4257812L146.35156 4.0195312L148.30469 4.0195312Q149.78906 4.0195312 150.66406 2.9960938Q151.53906 1.9726562 151.53906 0.21484375ZM163.67969 1.5664062Q163.67969 3.6210938 162.53906 4.7890625Q161.39844 5.9570312 159.38281 5.9570312Q157.40625 5.9570312 156.28125 4.7851562Q155.15625 3.6132812 155.15625 1.5664062Q155.15625 -0.47265625 156.28125 -1.640625Q157.40625 -2.8085938 159.42969 -2.8085938Q161.5 -2.8085938 162.58984 -1.6796875Q163.67969 -0.55078125 163.67969 1.5664062ZM161.38281 1.5664062Q161.38281 0.05859375 160.89062 -0.62109375Q160.39844 -1.3007812 159.46094 -1.3007812Q157.46094 -1.3007812 157.46094 1.5664062Q157.46094 2.9804688 157.94922 3.71875Q158.4375 4.4570312 159.35938 4.4570312Q161.38281 4.4570312 161.38281 1.5664062ZM174.5625 5.8007812L172.24219 5.8007812L170.89844 0.64453125Q170.80469 0.29296875 170.53125 -1.0898438L170.125 0.66015625L168.76562 5.8007812L166.44531 5.8007812L164.25781 -2.6523438L166.32031 -2.6523438L167.71094 3.8085938L167.82031 3.2304688L168.01562 2.3164062L169.34375 -2.6523438L171.69531 -2.6523438L172.99219 2.3164062Q173.10156 2.7226562 173.3125 3.8085938L173.53125 2.7773438L174.75 -2.6523438L176.78125 -2.6523438L174.5625 5.8007812ZM183.34375 5.8007812L183.34375 1.0585938Q183.34375 -1.1679688 181.83594 -1.1679688Q181.03906 -1.1679688 180.55078 -0.484375Q180.0625 0.19921875 180.0625 1.2695312L180.0625 5.8007812L177.86719 5.8007812L177.86719 -0.76171875Q177.86719 -1.4414062 177.84766 -1.875Q177.82812 -2.3085938 177.80469 -2.6523438L179.89844 -2.6523438Q179.92188 -2.5039062 179.96094 -1.859375Q180 -1.2148438 180 -0.97265625L180.03125 -0.97265625Q180.47656 -1.9414062 181.14844 -2.3789062Q181.82031 -2.8164062 182.75 -2.8164062Q184.09375 -2.8164062 184.8125 -1.9882812Q185.53125 -1.1601562 185.53125 0.43359375L185.53125 5.8007812L183.34375 5.8007812ZM187.64062 5.8007812L187.64062 -5.7929688L189.83594 -5.7929688L189.83594 5.8007812L187.64062 5.8007812ZM200.11719 1.5664062Q200.11719 3.6210938 198.97656 4.7890625Q197.83594 5.9570312 195.82031 5.9570312Q193.84375 5.9570312 192.71875 4.7851562Q191.59375 3.6132812 191.59375 1.5664062Q191.59375 -0.47265625 192.71875 -1.640625Q193.84375 -2.8085938 195.86719 -2.8085938Q197.9375 -2.8085938 199.02734 -1.6796875Q200.11719 -0.55078125 200.11719 1.5664062ZM197.82031 1.5664062Q197.82031 0.05859375 197.32812 -0.62109375Q196.83594 -1.3007812 195.89844 -1.3007812Q193.89844 -1.3007812 193.89844 1.5664062Q193.89844 2.9804688 194.38672 3.71875Q194.875 4.4570312 195.79688 4.4570312Q197.82031 4.4570312 197.82031 1.5664062ZM203.8125 5.9570312Q202.58594 5.9570312 201.89844 5.2890625Q201.21094 4.6210938 201.21094 3.4101562Q201.21094 2.0976562 202.06641 1.4101562Q202.92188 0.72265625 204.54688 0.70703125L206.36719 0.67578125L206.36719 0.24609375Q206.36719 -0.58203125 206.07812 -0.984375Q205.78906 -1.3867188 205.13281 -1.3867188Q204.52344 -1.3867188 204.23828 -1.109375Q203.95312 -0.83203125 203.88281 -0.19140625L201.59375 -0.30078125Q201.80469 -1.5351562 202.72266 -2.171875Q203.64062 -2.8085938 205.22656 -2.8085938Q206.82812 -2.8085938 207.69531 -2.0195312Q208.5625 -1.2304688 208.5625 0.22265625L208.5625 3.3007812Q208.5625 4.0117188 208.72266 4.28125Q208.88281 4.5507812 209.25781 4.5507812Q209.50781 4.5507812 209.74219 4.5039062L209.74219 5.6914062Q209.54688 5.7382812 209.39062 5.7773438Q209.23438 5.8164062 209.07812 5.8398438Q208.92188 5.8632812 208.74609 5.8789062Q208.57031 5.8945312 208.33594 5.8945312Q207.50781 5.8945312 207.11328 5.4882812Q206.71875 5.0820312 206.64062 4.2929688L206.59375 4.2929688Q205.67188 5.9570312 203.8125 5.9570312ZM206.36719 1.8867188L205.24219 1.9023438Q204.47656 1.9335938 204.15625 2.0703125Q203.83594 2.2070312 203.66797 2.4882812Q203.5 2.7695312 203.5 3.2382812Q203.5 3.8398438 203.77734 4.1328125Q204.05469 4.4257812 204.51562 4.4257812Q205.03125 4.4257812 205.45703 4.1445312Q205.88281 3.8632812 206.125 3.3671875Q206.36719 2.8710938 206.36719 2.3164062L206.36719 1.8867188ZM216.23438 5.8007812Q216.20312 5.6835938 216.16016 5.2109375Q216.11719 4.7382812 216.11719 4.4257812L216.08594 4.4257812Q215.375 5.9570312 213.38281 5.9570312Q211.90625 5.9570312 211.10156 4.8046875Q210.29688 3.6523438 210.29688 1.5820312Q210.29688 -0.51953125 211.14453 -1.6640625Q211.99219 -2.8085938 213.54688 -2.8085938Q214.44531 -2.8085938 215.09766 -2.4335938Q215.75 -2.0585938 216.10156 -1.3164062L216.11719 -1.3164062L216.10156 -2.7070312L216.10156 -5.7929688L218.29688 -5.7929688L218.29688 3.9570312Q218.29688 4.7382812 218.35938 5.8007812L216.23438 5.8007812ZM216.13281 1.5273438Q216.13281 0.16015625 215.67578 -0.578125Q215.21875 -1.3164062 214.32812 -1.3164062Q213.44531 -1.3164062 213.01562 -0.6015625Q212.58594 0.11328125 212.58594 1.5820312Q212.58594 4.4570312 214.3125 4.4570312Q215.17969 4.4570312 215.65625 3.6953125Q216.13281 2.9335938 216.13281 1.5273438ZM229.89844 -3.4257812L229.89844 5.8007812L227.59375 5.8007812L227.59375 -3.4257812L224.03906 -3.4257812L224.03906 -5.2070312L233.46094 -5.2070312L233.46094 -3.4257812L229.89844 -3.4257812ZM233.86719 5.8007812L233.86719 -0.66796875Q233.86719 -1.3632812 233.84766 -1.828125Q233.82812 -2.2929688 233.80469 -2.6523438L235.89844 -2.6523438Q235.92188 -2.5117188 235.96094 -1.796875Q236 -1.0820312 236 -0.84765625L236.03125 -0.84765625Q236.35156 -1.7382812 236.60156 -2.1015625Q236.85156 -2.4648438 237.19531 -2.640625Q237.53906 -2.8164062 238.05469 -2.8164062Q238.47656 -2.8164062 238.73438 -2.6992188L238.73438 -0.86328125Q238.20312 -0.98046875 237.79688 -0.98046875Q236.97656 -0.98046875 236.51953 -0.31640625Q236.0625 0.34765625 236.0625 1.6523438L236.0625 5.8007812L233.86719 5.8007812ZM243.55469 5.9570312Q241.64844 5.9570312 240.625 4.828125Q239.60156 3.6992188 239.60156 1.5351562Q239.60156 -0.55859375 240.64062 -1.6835938Q241.67969 -2.8085938 243.58594 -2.8085938Q245.40625 -2.8085938 246.36719 -1.6015625Q247.32812 -0.39453125 247.32812 1.9335938L247.32812 1.9960938L241.90625 1.9960938Q241.90625 3.2304688 242.36328 3.859375Q242.82031 4.4882812 243.66406 4.4882812Q244.82812 4.4882812 245.13281 3.4804688L247.20312 3.6601562Q246.30469 5.9570312 243.55469 5.9570312ZM243.55469 -1.4257812Q242.78125 -1.4257812 242.36328 -0.88671875Q241.94531 -0.34765625 241.92188 0.62109375L245.20312 0.62109375Q245.14062 -0.40234375 244.71094 -0.9140625Q244.28125 -1.4257812 243.55469 -1.4257812ZM254.46875 5.8007812L254.46875 1.0585938Q254.46875 -1.1679688 252.96094 -1.1679688Q252.16406 -1.1679688 251.67578 -0.484375Q251.1875 0.19921875 251.1875 1.2695312L251.1875 5.8007812L248.99219 5.8007812L248.99219 -0.76171875Q248.99219 -1.4414062 248.97266 -1.875Q248.95312 -2.3085938 248.92969 -2.6523438L251.02344 -2.6523438Q251.04688 -2.5039062 251.08594 -1.859375Q251.125 -1.2148438 251.125 -0.97265625L251.15625 -0.97265625Q251.60156 -1.9414062 252.27344 -2.3789062Q252.94531 -2.8164062 253.875 -2.8164062Q255.21875 -2.8164062 255.9375 -1.9882812Q256.65625 -1.1601562 256.65625 0.43359375L256.65625 5.8007812L254.46875 5.8007812ZM264.24219 5.8007812Q264.21094 5.6835938 264.16797 5.2109375Q264.125 4.7382812 264.125 4.4257812L264.09375 4.4257812Q263.38281 5.9570312 261.39062 5.9570312Q259.91406 5.9570312 259.10938 4.8046875Q258.30469 3.6523438 258.30469 1.5820312Q258.30469 -0.51953125 259.15234 -1.6640625Q260 -2.8085938 261.55469 -2.8085938Q262.45312 -2.8085938 263.10547 -2.4335938Q263.75781 -2.0585938 264.10938 -1.3164062L264.125 -1.3164062L264.10938 -2.7070312L264.10938 -5.7929688L266.30469 -5.7929688L266.30469 3.9570312Q266.30469 4.7382812 266.36719 5.8007812L264.24219 5.8007812ZM264.14062 1.5273438Q264.14062 0.16015625 263.68359 -0.578125Q263.22656 -1.3164062 262.33594 -1.3164062Q261.45312 -1.3164062 261.02344 -0.6015625Q260.59375 0.11328125 260.59375 1.5820312Q260.59375 4.4570312 262.32031 4.4570312Q263.1875 4.4570312 263.66406 3.6953125Q264.14062 2.9335938 264.14062 1.5273438ZM275.66406 3.3320312Q275.66406 4.5585938 274.66016 5.2578125Q273.65625 5.9570312 271.88281 5.9570312Q270.14062 5.9570312 269.21484 5.40625Q268.28906 4.8554688 267.98438 3.6914062L269.91406 3.4023438Q270.07812 4.0039062 270.48047 4.2539062Q270.88281 4.5039062 271.88281 4.5039062Q272.80469 4.5039062 273.22656 4.2695312Q273.64844 4.0351562 273.64844 3.5351562Q273.64844 3.1289062 273.30859 2.890625Q272.96875 2.6523438 272.15625 2.4882812Q270.29688 2.1210938 269.64844 1.8046875Q269 1.4882812 268.66016 0.984375Q268.32031 0.48046875 268.32031 -0.25390625Q268.32031 -1.4648438 269.25391 -2.140625Q270.1875 -2.8164062 271.89844 -2.8164062Q273.40625 -2.8164062 274.32422 -2.2304688Q275.24219 -1.6445312 275.46875 -0.53515625L273.52344 -0.33203125Q273.42969 -0.84765625 273.0625 -1.1015625Q272.69531 -1.3554688 271.89844 -1.3554688Q271.11719 -1.3554688 270.72656 -1.15625Q270.33594 -0.95703125 270.33594 -0.48828125Q270.33594 -0.12109375 270.63672 0.09375Q270.9375 0.30859375 271.64844 0.44921875Q272.64062 0.65234375 273.41016 0.8671875Q274.17969 1.0820312 274.64453 1.3789062Q275.10938 1.6757812 275.38672 2.140625Q275.66406 2.6054688 275.66406 3.3320312Z"/>
	<path fill="none" stroke="black" stroke-width="1" stroke-miterlimit="10" stroke-opacity="0.10196079" d="M49 749.5L1195 749.5"/>
	<clipPath id="cl_2d6">
		<rect y="749.20001" width="1200" height="50.799988"/>
	</clipPath>
	<g clip-path="url(#cl_2d6)">
		<path fill="#666" transform="translate(49.75 760.2)" d="M-12.751953 11.300586L-14 11.300586L-16.302734 4.960742L-15.177734 4.960742L-13.783203 9.085742Q-13.707031 9.320117 -13.378906 10.474414L-13.173828 9.788867L-12.945312 9.0974607L-11.503906 4.960742L-10.384766 4.960742L-12.751953 11.300586ZM-4.1386719 7.1697264Q-4.1386719 9.2380857 -4.8681641 10.327929Q-5.5976562 11.417773 -7.0214844 11.417773Q-8.4453125 11.417773 -9.1601562 10.333789Q-9.875 9.2498045 -9.875 7.1697264Q-9.875 5.0427732 -9.1806641 3.9822264Q-8.4863281 2.9216795 -6.9863281 2.9216795Q-5.5273438 2.9216795 -4.8330078 3.9939451Q-4.1386719 5.0662107 -4.1386719 7.1697264ZM-5.2109375 7.1697264Q-5.2109375 5.382617 -5.6240234 4.5798826Q-6.0371094 3.7771482 -6.9863281 3.7771482Q-7.9589844 3.7771482 -8.3837891 4.5681639Q-8.8085938 5.3591795 -8.8085938 7.1697264Q-8.8085938 8.9275389 -8.3779297 9.741992Q-7.9472656 10.556445 -7.0097656 10.556445Q-6.078125 10.556445 -5.6445312 9.7244139Q-5.2109375 8.8923826 -5.2109375 7.1697264ZM-2.5742188 11.300586L-2.5742188 10.017383L-1.4316406 10.017383L-1.4316406 11.300586L-2.5742188 11.300586ZM0.578125 11.300586L0.578125 10.404101L2.6816406 10.404101L2.6816406 4.0525389L0.81835938 5.382617L0.81835938 4.3865232L2.7695312 3.0447264L3.7421875 3.0447264L3.7421875 10.404101L5.7519531 10.404101L5.7519531 11.300586L0.578125 11.300586ZM7.4335938 11.300586L7.4335938 10.017383L8.5761719 10.017383L8.5761719 11.300586L7.4335938 11.300586ZM15.841797 8.6111326Q15.841797 9.9177732 15.06543 10.667773Q14.289062 11.417773 12.912109 11.417773Q11.757812 11.417773 11.048828 10.913867Q10.339844 10.409961 10.152344 9.4548826L11.21875 9.3318357Q11.552734 10.556445 12.935547 10.556445Q13.785156 10.556445 14.265625 10.04375Q14.746094 9.5310545 14.746094 8.6345701Q14.746094 7.8552732 14.262695 7.3748045Q13.779297 6.8943357 12.958984 6.8943357Q12.53125 6.8943357 12.162109 7.0291014Q11.792969 7.163867 11.423828 7.4861326L10.392578 7.4861326L10.667969 3.0447264L15.361328 3.0447264L15.361328 3.9412107L11.628906 3.9412107L11.470703 6.5603514Q12.15625 6.0330076 13.175781 6.0330076Q14.394531 6.0330076 15.118164 6.7478514Q15.841797 7.4626951 15.841797 8.6111326Z"/>
	</g>
	<path fill="none" stroke="black" stroke-width="1" stroke-miterlimit="10" stroke-opacity="0.10196079" d="M49.5 71L49.5 750"/>
	<clipPath id="cl_2d8">
		<rect width="49.75" height="800"/>
	</clipPath>
	<g clip-path="url(#cl_2d8)">
		<path fill="#666" transform="translate(38.75 749.2)" d="M-0.46679688 -0.030273438Q-0.46679688 2.0380859 -1.1962891 3.1279297Q-1.9257812 4.2177734 -3.3496094 4.2177734Q-4.7734375 4.2177734 -5.4882812 3.1337891Q-6.203125 2.0498047 -6.203125 -0.030273438Q-6.203125 -2.1572266 -5.5087891 -3.2177734Q-4.8144531 -4.2783203 -3.3144531 -4.2783203Q-1.8554688 -4.2783203 -1.1611328 -3.2060547Q-0.46679688 -2.1337891 -0.46679688 -0.030273438ZM-1.5390625 -0.030273438Q-1.5390625 -1.8173828 -1.9521484 -2.6201172Q-2.3652344 -3.4228516 -3.3144531 -3.4228516Q-4.2871094 -3.4228516 -4.7119141 -2.6318359Q-5.1367188 -1.8408203 -5.1367188 -0.030273438Q-5.1367188 1.7275391 -4.7060547 2.5419922Q-4.2753906 3.3564453 -3.3378906 3.3564453Q-2.40625 3.3564453 -1.9726562 2.5244141Q-1.5390625 1.6923828 -1.5390625 -0.030273438Z"/>
	</g>
	<clipPath id="cl_2d9">
		<rect width="49.75" height="800"/>
	</clipPath>
	<g clip-path="url(#cl_2d9)">
		<path fill="#666" transform="translate(38.75 681.4)" d="M-5.7578125 4.1005859L-5.7578125 3.2041016L-3.6542969 3.2041016L-3.6542969 -3.1474609L-5.5175781 -1.8173828L-5.5175781 -2.8134766L-3.5664062 -4.1552734L-2.59375 -4.1552734L-2.59375 3.2041016L-0.58398438 3.2041016L-0.58398438 4.1005859L-5.7578125 4.1005859Z"/>
	</g>
	<clipPath id="cl_2da">
		<rect width="49.75" height="800"/>
	</clipPath>
	<g clip-path="url(#cl_2da)">
		<path fill="#666" transform="translate(38.75 613.6)" d="M-6.0683594 4.1005859L-6.0683594 3.3564453Q-5.7695312 2.6708984 -5.3388672 2.1464844Q-4.9082031 1.6220703 -4.4335938 1.1972656Q-3.9589844 0.77246094 -3.4931641 0.40917969Q-3.0273438 0.045898438 -2.6523438 -0.31738281Q-2.2773438 -0.68066406 -2.0458984 -1.0791016Q-1.8144531 -1.4775391 -1.8144531 -1.9814453Q-1.8144531 -2.6611328 -2.2128906 -3.0361328Q-2.6113281 -3.4111328 -3.3203125 -3.4111328Q-3.9941406 -3.4111328 -4.4306641 -3.0449219Q-4.8671875 -2.6787109 -4.9433594 -2.0166016L-6.0214844 -2.1162109Q-5.9042969 -3.1064453 -5.1806641 -3.6923828Q-4.4570312 -4.2783203 -3.3203125 -4.2783203Q-2.0722656 -4.2783203 -1.4013672 -3.6894531Q-0.73046875 -3.1005859 -0.73046875 -2.0166016Q-0.73046875 -1.5361328 -0.95019531 -1.0615234Q-1.1699219 -0.58691406 -1.6035156 -0.11230469Q-2.0371094 0.36230469 -3.2617188 1.3583984Q-3.9355469 1.9091797 -4.3339844 2.3515625Q-4.7324219 2.7939453 -4.9082031 3.2041016L-0.6015625 3.2041016L-0.6015625 4.1005859L-6.0683594 4.1005859Z"/>
	</g>
	<clipPath id="cl_2db">
		<rect width="49.75" height="800"/>
	</clipPath>
	<g clip-path="url(#cl_2db)">
		<path fill="#666" transform="translate(38.75 545.8)" d="M-0.52539062 1.8212891Q-0.52539062 2.9638672 -1.2519531 3.5908203Q-1.9785156 4.2177734 -3.3261719 4.2177734Q-4.5800781 4.2177734 -5.3271484 3.6523438Q-6.0742188 3.0869141 -6.2148438 1.9794922L-5.125 1.8798828Q-4.9140625 3.3447266 -3.3261719 3.3447266Q-2.5292969 3.3447266 -2.0751953 2.9521484Q-1.6210938 2.5595703 -1.6210938 1.7861328Q-1.6210938 1.1123047 -2.1396484 0.734375Q-2.6582031 0.35644531 -3.6367188 0.35644531L-4.234375 0.35644531L-4.234375 -0.55761719L-3.6601562 -0.55761719Q-2.7929688 -0.55761719 -2.3154297 -0.93554688Q-1.8378906 -1.3134766 -1.8378906 -1.9814453Q-1.8378906 -2.6435547 -2.2275391 -3.0273438Q-2.6171875 -3.4111328 -3.3847656 -3.4111328Q-4.0820312 -3.4111328 -4.5126953 -3.0537109Q-4.9433594 -2.6962891 -5.0136719 -2.0458984L-6.0742188 -2.1279297Q-5.9570312 -3.1416016 -5.2333984 -3.7099609Q-4.5097656 -4.2783203 -3.3730469 -4.2783203Q-2.1308594 -4.2783203 -1.4423828 -3.7011719Q-0.75390625 -3.1240234 -0.75390625 -2.0927734Q-0.75390625 -1.3017578 -1.1962891 -0.80664062Q-1.6386719 -0.31152344 -2.4824219 -0.13574219L-2.4824219 -0.11230469Q-1.5566406 -0.012695312 -1.0410156 0.50878906Q-0.52539062 1.0302734 -0.52539062 1.8212891Z"/>
	</g>
	<clipPath id="cl_2dc">
		<rect width="49.75" height="800"/>
	</clipPath>
	<g clip-path="url(#cl_2dc)">
		<path fill="#666" transform="translate(38.75 478)" d="M-1.5097656 2.2314453L-1.5097656 4.1005859L-2.5058594 4.1005859L-2.5058594 2.2314453L-6.3964844 2.2314453L-6.3964844 1.4111328L-2.6171875 -4.1552734L-1.5097656 -4.1552734L-1.5097656 1.3994141L-0.34960938 1.3994141L-0.34960938 2.2314453L-1.5097656 2.2314453ZM-2.5058594 -2.9658203Q-2.5175781 -2.9306641 -2.6699219 -2.6552734Q-2.8222656 -2.3798828 -2.8984375 -2.2685547L-5.0136719 0.84863281L-5.3300781 1.2822266L-5.4238281 1.3994141L-2.5058594 1.3994141L-2.5058594 -2.9658203Z"/>
	</g>
	<clipPath id="cl_2dd">
		<rect width="49.75" height="800"/>
	</clipPath>
	<g clip-path="url(#cl_2dd)">
		<path fill="#666" transform="translate(38.75 410.2)" d="M-0.50195312 1.4111328Q-0.50195312 2.7177734 -1.2783203 3.4677734Q-2.0546875 4.2177734 -3.4316406 4.2177734Q-4.5859375 4.2177734 -5.2949219 3.7138672Q-6.0039062 3.2099609 -6.1914062 2.2548828L-5.125 2.1318359Q-4.7910156 3.3564453 -3.4082031 3.3564453Q-2.5585938 3.3564453 -2.078125 2.84375Q-1.5976562 2.3310547 -1.5976562 1.4345703Q-1.5976562 0.65527344 -2.0810547 0.17480469Q-2.5644531 -0.30566406 -3.3847656 -0.30566406Q-3.8125 -0.30566406 -4.1816406 -0.17089844Q-4.5507812 -0.036132812 -4.9199219 0.28613281L-5.9511719 0.28613281L-5.6757812 -4.1552734L-0.98242188 -4.1552734L-0.98242188 -3.2587891L-4.7148438 -3.2587891L-4.8730469 -0.63964844Q-4.1875 -1.1669922 -3.1679688 -1.1669922Q-1.9492188 -1.1669922 -1.2255859 -0.45214844Q-0.50195312 0.26269531 -0.50195312 1.4111328Z"/>
	</g>
	<clipPath id="cl_2de">
		<rect width="49.75" height="800"/>
	</clipPath>
	<g clip-path="url(#cl_2de)">
		<path fill="#666" transform="translate(38.75 342.4)" d="M-0.52539062 1.3994141Q-0.52539062 2.7060547 -1.234375 3.4619141Q-1.9433594 4.2177734 -3.1914062 4.2177734Q-4.5859375 4.2177734 -5.3242188 3.1806641Q-6.0625 2.1435547 -6.0625 0.16308594Q-6.0625 -1.9814453 -5.2949219 -3.1298828Q-4.5273438 -4.2783203 -3.109375 -4.2783203Q-1.2402344 -4.2783203 -0.75390625 -2.5966797L-1.7617188 -2.4150391Q-2.0722656 -3.4228516 -3.1210938 -3.4228516Q-4.0234375 -3.4228516 -4.5185547 -2.5820312Q-5.0136719 -1.7412109 -5.0136719 -0.14746094Q-4.7265625 -0.68066406 -4.2050781 -0.95898438Q-3.6835938 -1.2373047 -3.0097656 -1.2373047Q-1.8671875 -1.2373047 -1.1962891 -0.52246094Q-0.52539062 0.19238281 -0.52539062 1.3994141ZM-1.5976562 1.4462891Q-1.5976562 0.54980469 -2.0371094 0.063476562Q-2.4765625 -0.42285156 -3.2617188 -0.42285156Q-4 -0.42285156 -4.4541016 0.0078125Q-4.9082031 0.43847656 -4.9082031 1.1943359Q-4.9082031 2.1494141 -4.4365234 2.7587891Q-3.9648438 3.3681641 -3.2265625 3.3681641Q-2.4648438 3.3681641 -2.03125 2.8554688Q-1.5976562 2.3427734 -1.5976562 1.4462891Z"/>
	</g>
	<clipPath id="cl_2df">
		<rect width="49.75" height="800"/>
	</clipPath>
	<g clip-path="url(#cl_2df)">
		<path fill="#666" transform="translate(38.75 274.6)" d="M-0.6015625 -3.2998047Q-1.8671875 -1.3662109 -2.3886719 -0.27050781Q-2.9101562 0.82519531 -3.1708984 1.8916016Q-3.4316406 2.9580078 -3.4316406 4.1005859L-4.5332031 4.1005859Q-4.5332031 2.5185547 -3.8623047 0.76953125Q-3.1914062 -0.97949219 -1.6210938 -3.2587891L-6.0566406 -3.2587891L-6.0566406 -4.1552734L-0.6015625 -4.1552734L-0.6015625 -3.2998047Z"/>
	</g>
	<clipPath id="cl_2e0">
		<rect width="49.75" height="800"/>
	</clipPath>
	<g clip-path="url(#cl_2e0)">
		<path fill="#666" transform="translate(38.75 206.8)" d="M-0.51953125 1.7978516Q-0.51953125 2.9404297 -1.2460938 3.5791016Q-1.9726562 4.2177734 -3.3320312 4.2177734Q-4.65625 4.2177734 -5.4033203 3.5908203Q-6.1503906 2.9638672 -6.1503906 1.8095703Q-6.1503906 1.0009766 -5.6875 0.45019531Q-5.2246094 -0.10058594 -4.5039062 -0.21777344L-4.5039062 -0.24121094Q-5.1777344 -0.39941406 -5.5673828 -0.92675781Q-5.9570312 -1.4541016 -5.9570312 -2.1630859Q-5.9570312 -3.1064453 -5.2509766 -3.6923828Q-4.5449219 -4.2783203 -3.3554688 -4.2783203Q-2.1367188 -4.2783203 -1.4306641 -3.7041016Q-0.72460938 -3.1298828 -0.72460938 -2.1513672Q-0.72460938 -1.4423828 -1.1171875 -0.91503906Q-1.5097656 -0.38769531 -2.1894531 -0.25292969L-2.1894531 -0.22949219Q-1.3984375 -0.10058594 -0.95898438 0.44140625Q-0.51953125 0.98339844 -0.51953125 1.7978516ZM-1.8203125 -2.0927734Q-1.8203125 -3.4931641 -3.3554688 -3.4931641Q-4.0996094 -3.4931641 -4.4892578 -3.1416016Q-4.8789062 -2.7900391 -4.8789062 -2.0927734Q-4.8789062 -1.3837891 -4.4775391 -1.0117188Q-4.0761719 -0.63964844 -3.34375 -0.63964844Q-2.5996094 -0.63964844 -2.2099609 -0.98242188Q-1.8203125 -1.3251953 -1.8203125 -2.0927734ZM-1.6152344 1.6982422Q-1.6152344 0.93066406 -2.0722656 0.54101562Q-2.5292969 0.15136719 -3.3554688 0.15136719Q-4.1582031 0.15136719 -4.609375 0.5703125Q-5.0605469 0.98925781 -5.0605469 1.7216797Q-5.0605469 3.4267578 -3.3203125 3.4267578Q-2.4589844 3.4267578 -2.0371094 3.0136719Q-1.6152344 2.6005859 -1.6152344 1.6982422Z"/>
	</g>
	<clipPath id="cl_2e1">
		<rect width="49.75" height="800"/>
	</clipPath>
	<g clip-path="url(#cl_2e1)">
		<path fill="#666" transform="translate(38.75 139)" d="M-0.56640625 -0.19433594Q-0.56640625 1.9326172 -1.3427734 3.0751953Q-2.1191406 4.2177734 -3.5546875 4.2177734Q-4.5214844 4.2177734 -5.1044922 3.8105469Q-5.6875 3.4033203 -5.9394531 2.4951172L-4.9316406 2.3369141Q-4.6152344 3.3681641 -3.5371094 3.3681641Q-2.6289062 3.3681641 -2.1308594 2.5244141Q-1.6328125 1.6806641 -1.609375 0.11621094Q-1.84375 0.64355469 -2.4121094 0.96289062Q-2.9804688 1.2822266 -3.6601562 1.2822266Q-4.7734375 1.2822266 -5.4414062 0.52050781Q-6.109375 -0.24121094 -6.109375 -1.5009766Q-6.109375 -2.7958984 -5.3828125 -3.5371094Q-4.65625 -4.2783203 -3.3613281 -4.2783203Q-1.984375 -4.2783203 -1.2753906 -3.2587891Q-0.56640625 -2.2392578 -0.56640625 -0.19433594ZM-1.7148438 -1.2138672Q-1.7148438 -2.2099609 -2.171875 -2.8164062Q-2.6289062 -3.4228516 -3.3964844 -3.4228516Q-4.1582031 -3.4228516 -4.5976562 -2.9042969Q-5.0371094 -2.3857422 -5.0371094 -1.5009766Q-5.0371094 -0.59863281 -4.5976562 -0.07421875Q-4.1582031 0.45019531 -3.4082031 0.45019531Q-2.9511719 0.45019531 -2.5585938 0.2421875Q-2.1660156 0.034179688 -1.9404297 -0.34667969Q-1.7148438 -0.72753906 -1.7148438 -1.2138672Z"/>
	</g>
	<clipPath id="cl_2e2">
		<rect width="49.75" height="800"/>
	</clipPath>
	<g clip-path="url(#cl_2e2)">
		<path fill="#666" transform="translate(38.75 71.2)" d="M-12.429688 4.1005859L-12.429688 3.2041016L-10.326172 3.2041016L-10.326172 -3.1474609L-12.189453 -1.8173828L-12.189453 -2.8134766L-10.238281 -4.1552734L-9.265625 -4.1552734L-9.265625 3.2041016L-7.2558594 3.2041016L-7.2558594 4.1005859L-12.429688 4.1005859ZM-0.46484375 -0.030273438Q-0.46484375 2.0380859 -1.1943359 3.1279297Q-1.9238281 4.2177734 -3.3476562 4.2177734Q-4.7714844 4.2177734 -5.4863281 3.1337891Q-6.2011719 2.0498047 -6.2011719 -0.030273438Q-6.2011719 -2.1572266 -5.5068359 -3.2177734Q-4.8125 -4.2783203 -3.3125 -4.2783203Q-1.8535156 -4.2783203 -1.1591797 -3.2060547Q-0.46484375 -2.1337891 -0.46484375 -0.030273438ZM-1.5371094 -0.030273438Q-1.5371094 -1.8173828 -1.9501953 -2.6201172Q-2.3632812 -3.4228516 -3.3125 -3.4228516Q-4.2851562 -3.4228516 -4.7099609 -2.6318359Q-5.1347656 -1.8408203 -5.1347656 -0.030273438Q-5.1347656 1.7275391 -4.7041016 2.5419922Q-4.2734375 3.3564453 -3.3359375 3.3564453Q-2.4042969 3.3564453 -1.9707031 2.5244141Q-1.5371094 1.6923828 -1.5371094 -0.030273438Z"/>
	</g>
	<clipPath id="cl_2e4">
		<rect x="43.75" y="65.199997" width="1156.25" height="690"/>
	</clipPath>
	<g clip-path="url(#cl_2e4)">
		<path fill="none" stroke="#C32222" stroke-width="2" stroke-miterlimit="10" d=""/>
	</g>
	<clipPath id="cl_2e5">
		<rect x="43.75" y="65.199997" width="1156.25" height="690"/>
	</clipPath>
	<g clip-path="url(#cl_2e5)">
		<path fill="#C32222" fill-opacity="0.2" d="M52.75 613.59998Q52.75 613.74744 52.73555 613.89404Q52.721107 614.04071 52.692352 614.18518Q52.663601 614.32977 52.620815 614.47083Q52.578033 614.61182 52.521633 614.74792Q52.465233 614.88409 52.39576 615.01404Q52.326286 615.14404 52.244404 615.2666Q52.162525 615.38916 52.069027 615.50311Q51.975533 615.61707 51.871319 615.72125Q51.767105 615.82544 51.653179 615.91895Q51.539253 616.01245 51.416706 616.09436Q51.294167 616.17627 51.164188 616.24573Q51.03421 616.31519 50.898048 616.37158Q50.76189 616.42804 50.620857 616.47083Q50.47982 616.51367 50.33527 616.54236Q50.19072 616.57117 50.044052 616.58557Q49.897381 616.59998 49.75 616.59998Q49.602619 616.59998 49.455948 616.58557Q49.309277 616.57117 49.164726 616.54236Q49.02018 616.51367 48.879143 616.47083Q48.73811 616.42804 48.601944 616.37158Q48.465782 616.31519 48.335808 616.24573Q48.205826 616.17627 48.083282 616.09436Q47.960747 616.01245 47.846817 615.91895Q47.732895 615.82544 47.628677 615.72125Q47.524467 615.61707 47.430969 615.50311Q47.337471 615.38916 47.255585 615.2666Q47.173706 615.14404 47.104233 615.0141Q47.03476 614.88409 46.978359 614.74792Q46.921963 614.61182 46.879177 614.47076Q46.836395 614.32977 46.80764 614.18518Q46.778893 614.04071 46.76445 613.89404Q46.75 613.74744 46.75 613.59998Q46.75 613.45264 46.76445 613.30591Q46.778896 613.15918 46.807648 613.01465Q46.836403 612.87012 46.879181 612.72906Q46.921963 612.58801 46.978359 612.45184Q47.03476 612.31567 47.104233 612.18573Q47.173706 612.05579 47.255585 611.93317Q47.337471 611.81067 47.430969 611.69678Q47.524467 611.58289 47.628677 611.47864Q47.732895 611.37445 47.846817 611.28094Q47.960747 611.18744 48.083282 611.10553Q48.205826 611.02368 48.335808 610.95422Q48.465782 610.88477 48.601944 610.82831Q48.73811 610.77197 48.879143 610.72913Q49.02018 610.6864 49.164726 610.65759Q49.309277 610.62891 49.455948 610.61444Q49.602619 610.59998 49.75 610.59998Q49.897381 610.59998 50.044052 610.61444Q50.19072 610.62891 50.335266 610.65759Q50.479816 610.6864 50.620853 610.72913Q50.761887 610.77191 50.898045 610.82825Q51.03421 610.8847 51.164188 610.95416Q51.294167 611.02368 51.416706 611.10547Q51.539253 611.18738 51.653179 611.28088Q51.767105 611.37439 51.871315 611.47858Q51.975533 611.58282 52.069023 611.69678Q52.162521 611.81067 52.2444 611.93311Q52.326279 612.05573 52.395756 612.18573Q52.465233 612.31567 52.521633 612.45184Q52.578033 612.58801 52.620815 612.72906Q52.663597 612.87012 52.692348 613.01465Q52.721107 613.15918 52.73555 613.30591Q52.75 613.45264 52.75 613.59998Z"/>
		<path fill="none" stroke="#C32222" stroke-width="2" stroke-miterlimit="10" d="M52.75 613.59998Q52.75 613.74744 52.73555 613.89404Q52.721107 614.04071 52.692352 614.18518Q52.663601 614.32977 52.620815 614.47083Q52.578033 614.61182 52.521633 614.74792Q52.465233 614.88409 52.39576 615.01404Q52.326286 615.14404 52.244404 615.2666Q52.162525 615.38916 52.069027 615.50311Q51.975533 615.61707 51.871319 615.72125Q51.767105 615.82544 51.653179 615.91895Q51.539253 616.01245 51.416706 616.09436Q51.294167 616.17627 51.164188 616.24573Q51.03421 616.31519 50.898048 616.37158Q50.76189 616.42804 50.620857 616.47083Q50.47982 616.51367 50.33527 616.54236Q50.19072 616.57117 50.044052 616.58557Q49.897381 616.59998 49.75 616.59998Q49.602619 616.59998 49.455948 616.58557Q49.309277 616.57117 49.164726 616.54236Q49.02018 616.51367 48.879143 616.47083Q48.73811 616.42804 48.601944 616.37158Q48.465782 616.31519 48.335808 616.24573Q48.205826 616.17627 48.083282 616.09436Q47.960747 616.01245 47.846817 615.91895Q47.732895 615.82544 47.628677 615.72125Q47.524467 615.61707 47.430969 615.50311Q47.337471 615.38916 47.255585 615.2666Q47.173706 615.14404 47.104233 615.0141Q47.03476 614.88409 46.978359 614.74792Q46.921963 614.61182 46.879177 614.47076Q46.836395 614.32977 46.80764 614.18518Q46.778893 614.04071 46.76445 613.89404Q46.75 613.74744 46.75 613.59998Q46.75 613.45264 46.76445 613.30591Q46.778896 613.15918 46.807648 613.01465Q46.836403 612.87012 46.879181 612.72906Q46.921963 612.58801 46.978359 612.45184Q47.03476 612.31567 47.104233 612.18573Q47.173706 612.05579 47.255585 611.93317Q47.337471 611.81067 47.430969 611.69678Q47.524467 611.58289 47.628677 611.47864Q47.732895 611.37445 47.846817 611.28094Q47.960747 611.18744 48.083282 611.10553Q48.205826 611.02368 48.335808 610.95422Q48.465782 610.88477 48.601944 610.82831Q48.73811 610.77197 48.879143 610.72913Q49.02018 610.6864 49.164726 610.65759Q49.309277 610.62891 49.455948 610.61444Q49.602619 610.59998 49.75 610.59998Q49.897381 610.59998 50.044052 610.61444Q50.19072 610.62891 50.335266 610.65759Q50.479816 610.6864 50.620853 610.72913Q50.761887 610.77191 50.898045 610.82825Q51.03421 610.8847 51.164188 610.95416Q51.294167 611.02368 51.416706 611.10547Q51.539253 611.18738 51.653179 611.28088Q51.767105 611.37439 51.871315 611.47858Q51.975533 611.58282 52.069023 611.69678Q52.162521 611.81067 52.2444 611.93311Q52.326279 612.05573 52.395756 612.18573Q52.465233 612.31567 52.521633 612.45184Q52.578033 612.58801 52.620815 612.72906Q52.663597 612.87012 52.692348 613.01465Q52.721107 613.15918 52.73555 613.30591Q52.75 613.45264 52.75 613.59998Z"/>
	</g>
</svg>
