<?xml version="1.0" encoding="utf-8" ?>
<svg xmlns="http://www.w3.org/2000/svg" xmlns:xlink="http://www.w3.org/1999/xlink" width="1200" height="800">
	<rect fill="white" width="1200" height="800"/>
	<path fill="none" stroke="black" stroke-width="1" stroke-miterlimit="10" stroke-opacity="0.10196079" d="M49.5 71.199997L49.5 749"/>
	<path fill="none" stroke="black" stroke-width="1" stroke-miterlimit="10" stroke-opacity="0.10196079" d="M49.5 750L49.5 757.20001"/>
	<path fill="none" stroke="black" stroke-width="1" stroke-miterlimit="10" stroke-opacity="0.10196079" d="M1188.5 71.199997L1188.5 749"/>
	<path fill="none" stroke="black" stroke-width="1" stroke-miterlimit="10" stroke-opacity="0.10196079" d="M1188.5 750L1188.5 757.20001"/>
	<path fill="#666" transform="translate(619.205 788.8)" d="M-26.880798 4.1005859L-29.02533 0.67285156L-31.597595 0.67285156L-31.597595 4.1005859L-32.716736 4.1005859L-32.716736 -4.1552734L-28.83197 -4.1552734Q-27.437439 -4.1552734 -26.67865 -3.53125Q-25.919861 -2.9072266 -25.919861 -1.7939453Q-25.919861 -0.87402344 -26.455994 -0.24707031Q-26.992126 0.37988281 -27.935486 0.54394531L-25.591736 4.1005859L-26.880798 4.1005859ZM-27.044861 -1.7822266Q-27.044861 -2.5029297 -27.534119 -2.8808594Q-28.023376 -3.2587891 -28.943298 -3.2587891L-31.597595 -3.2587891L-31.597595 -0.21191406L-28.896423 -0.21191406Q-28.011658 -0.21191406 -27.528259 -0.625Q-27.044861 -1.0380859 -27.044861 -1.7822266ZM-23.417908 1.1533203Q-23.417908 2.2431641 -22.966736 2.8349609Q-22.515564 3.4267578 -21.648376 3.4267578Q-20.96283 3.4267578 -20.549744 3.1513672Q-20.136658 2.8759766 -19.990173 2.4541016L-19.064392 2.7177734Q-19.632751 4.2177734 -21.648376 4.2177734Q-23.054626 4.2177734 -23.789978 3.3798828Q-24.52533 2.5419922 -24.52533 0.88964844Q-24.52533 -0.68066406 -23.789978 -1.5185547Q-23.054626 -2.3564453 -21.689392 -2.3564453Q-18.89447 -2.3564453 -18.89447 1.0126953L-18.89447 1.1533203L-23.417908 1.1533203ZM-19.984314 0.34472656Q-20.072205 -0.65722656 -20.49408 -1.1171875Q-20.915955 -1.5771484 -21.70697 -1.5771484Q-22.474548 -1.5771484 -22.922791 -1.0644531Q-23.371033 -0.55175781 -23.406189 0.34472656L-19.984314 0.34472656ZM-17.552673 4.1005859L-17.552673 -4.5947266L-16.497986 -4.5947266L-16.497986 4.1005859L-17.552673 4.1005859ZM-14.078064 1.1533203Q-14.078064 2.2431641 -13.626892 2.8349609Q-13.17572 3.4267578 -12.308533 3.4267578Q-11.622986 3.4267578 -11.2099 3.1513672Q-10.796814 2.8759766 -10.65033 2.4541016L-9.7245483 2.7177734Q-10.292908 4.2177734 -12.308533 4.2177734Q-13.714783 4.2177734 -14.450134 3.3798828Q-15.185486 2.5419922 -15.185486 0.88964844Q-15.185486 -0.68066406 -14.450134 -1.5185547Q-13.714783 -2.3564453 -12.349548 -2.3564453Q-9.5546265 -2.3564453 -9.5546265 1.0126953L-9.5546265 1.1533203L-14.078064 1.1533203ZM-10.64447 0.34472656Q-10.732361 -0.65722656 -11.154236 -1.1171875Q-11.576111 -1.5771484 -12.367126 -1.5771484Q-13.134705 -1.5771484 -13.582947 -1.0644531Q-14.031189 -0.55175781 -14.066345 0.34472656L-10.64447 0.34472656ZM-6.5956421 4.2177734Q-7.5507202 4.2177734 -8.031189 3.7138672Q-8.5116577 3.2099609 -8.5116577 2.3310547Q-8.5116577 1.3466797 -7.8641968 0.81933594Q-7.2167358 0.29199219 -5.7753296 0.25683594L-4.3515015 0.23339844L-4.3515015 -0.11230469Q-4.3515015 -0.88574219 -4.6796265 -1.2197266Q-5.0077515 -1.5537109 -5.7108765 -1.5537109Q-6.4198608 -1.5537109 -6.7421265 -1.3134766Q-7.0643921 -1.0732422 -7.1288452 -0.54589844L-8.2304077 -0.64550781Q-7.9608765 -2.3564453 -5.687439 -2.3564453Q-4.4921265 -2.3564453 -3.8886108 -1.8085938Q-3.2850952 -1.2607422 -3.2850952 -0.22363281L-3.2850952 2.5068359Q-3.2850952 2.9755859 -3.1620483 3.2128906Q-3.0390015 3.4501953 -2.6932983 3.4501953Q-2.5409546 3.4501953 -2.3475952 3.4091797L-2.3475952 4.0654297Q-2.7460327 4.1591797 -3.1620483 4.1591797Q-3.7479858 4.1591797 -4.0145874 3.8515625Q-4.281189 3.5439453 -4.3163452 2.8876953L-4.3515015 2.8876953Q-4.7557983 3.6142578 -5.2919312 3.9160156Q-5.828064 4.2177734 -6.5956421 4.2177734ZM-6.3554077 3.4267578Q-5.7753296 3.4267578 -5.3241577 3.1630859Q-4.8729858 2.8994141 -4.6122437 2.4394531Q-4.3515015 1.9794922 -4.3515015 1.4931641L-4.3515015 0.97167969L-5.5057983 0.99511719Q-6.249939 1.0068359 -6.633728 1.1474609Q-7.0175171 1.2880859 -7.2225952 1.5810547Q-7.4276733 1.8740234 -7.4276733 2.3486328Q-7.4276733 2.8642578 -7.149353 3.1455078Q-6.8710327 3.4267578 -6.3554077 3.4267578ZM3.218811 2.3486328Q3.218811 3.2451172 2.5420532 3.7314453Q1.8652954 4.2177734 0.64654541 4.2177734Q-0.53704834 4.2177734 -1.1786499 3.828125Q-1.8202515 3.4384766 -2.0136108 2.6123047L-1.0819702 2.4306641Q-0.94720459 2.9404297 -0.52532959 3.1777344Q-0.10345459 3.4150391 0.64654541 3.4150391Q1.4492798 3.4150391 1.8213501 3.1689453Q2.1934204 2.9228516 2.1934204 2.4306641Q2.1934204 2.0556641 1.9356079 1.8212891Q1.6777954 1.5869141 1.1035767 1.4345703L0.34771729 1.2353516Q-0.56048584 1.0009766 -0.9442749 0.77539062Q-1.328064 0.54980469 -1.5448608 0.22753906Q-1.7616577 -0.094726562 -1.7616577 -0.56347656Q-1.7616577 -1.4306641 -1.1434937 -1.8847656Q-0.52532959 -2.3388672 0.65826416 -2.3388672Q1.7070923 -2.3388672 2.3252563 -1.9697266Q2.9434204 -1.6005859 3.1074829 -0.78613281L2.1582642 -0.66894531Q2.0703735 -1.0908203 1.6865845 -1.3164062Q1.3027954 -1.5419922 0.65826416 -1.5419922Q-0.05657959 -1.5419922 -0.39642334 -1.3251953Q-0.73626709 -1.1083984 -0.73626709 -0.66894531Q-0.73626709 -0.39941406 -0.59564209 -0.22363281Q-0.45501709 -0.047851562 -0.17962646 0.075195312Q0.09576416 0.19824219 0.98052979 0.41503906Q1.8184204 0.62597656 2.187561 0.8046875Q2.5567017 0.98339844 2.7705688 1.2001953Q2.984436 1.4169922 3.1016235 1.7011719Q3.218811 1.9853516 3.218811 2.3486328ZM5.2695923 1.1533203Q5.2695923 2.2431641 5.7207642 2.8349609Q6.171936 3.4267578 7.0391235 3.4267578Q7.7246704 3.4267578 8.1377563 3.1513672Q8.5508423 2.8759766 8.6973267 2.4541016L9.6231079 2.7177734Q9.0547485 4.2177734 7.0391235 4.2177734Q5.6328735 4.2177734 4.897522 3.3798828Q4.1621704 2.5419922 4.1621704 0.88964844Q4.1621704 -0.68066406 4.897522 -1.5185547Q5.6328735 -2.3564453 6.9981079 -2.3564453Q9.7930298 -2.3564453 9.7930298 1.0126953L9.7930298 1.1533203L5.2695923 1.1533203ZM8.703186 0.34472656Q8.6152954 -0.65722656 8.1934204 -1.1171875Q7.7715454 -1.5771484 6.9805298 -1.5771484Q6.2129517 -1.5771484 5.7647095 -1.0644531Q5.3164673 -0.55175781 5.281311 0.34472656L8.703186 0.34472656ZM17.66217 -3.2412109L17.66217 4.1005859L16.548889 4.1005859L16.548889 -3.2412109L13.712952 -3.2412109L13.712952 -4.1552734L20.498108 -4.1552734L20.498108 -3.2412109L17.66217 -3.2412109ZM21.869202 4.2177734Q20.914124 4.2177734 20.433655 3.7138672Q19.953186 3.2099609 19.953186 2.3310547Q19.953186 1.3466797 20.600647 0.81933594Q21.248108 0.29199219 22.689514 0.25683594L24.113342 0.23339844L24.113342 -0.11230469Q24.113342 -0.88574219 23.785217 -1.2197266Q23.457092 -1.5537109 22.753967 -1.5537109Q22.044983 -1.5537109 21.722717 -1.3134766Q21.400452 -1.0732422 21.335999 -0.54589844L20.234436 -0.64550781Q20.503967 -2.3564453 22.777405 -2.3564453Q23.972717 -2.3564453 24.576233 -1.8085938Q25.179749 -1.2607422 25.179749 -0.22363281L25.179749 2.5068359Q25.179749 2.9755859 25.302795 3.2128906Q25.425842 3.4501953 25.771545 3.4501953Q25.923889 3.4501953 26.117249 3.4091797L26.117249 4.0654297Q25.718811 4.1591797 25.302795 4.1591797Q24.716858 4.1591797 24.450256 3.8515625Q24.183655 3.5439453 24.148499 2.8876953L24.113342 2.8876953Q23.709045 3.6142578 23.172913 3.9160156Q22.63678 4.2177734 21.869202 4.2177734ZM22.109436 3.4267578Q22.689514 3.4267578 23.140686 3.1630859Q23.591858 2.8994141 23.8526 2.4394531Q24.113342 1.9794922 24.113342 1.4931641L24.113342 0.97167969L22.959045 0.99511719Q22.214905 1.0068359 21.831116 1.1474609Q21.447327 1.2880859 21.242249 1.5810547Q21.03717 1.8740234 21.03717 2.3486328Q21.03717 2.8642578 21.315491 3.1455078Q21.593811 3.4267578 22.109436 3.4267578ZM29.328186 6.5908203Q28.291077 6.5908203 27.675842 6.1835938Q27.060608 5.7763672 26.884827 5.0263672L27.945374 4.8740234Q28.050842 5.3134766 28.411194 5.5507812Q28.771545 5.7880859 29.357483 5.7880859Q30.933655 5.7880859 30.933655 3.9423828L30.933655 2.9228516L30.921936 2.9228516Q30.623108 3.5322266 30.101624 3.8398438Q29.580139 4.1474609 28.882874 4.1474609Q27.716858 4.1474609 27.169006 3.3740234Q26.621155 2.6005859 26.621155 0.94238281Q26.621155 -0.73925781 27.210022 -1.5390625Q27.798889 -2.3388672 29.000061 -2.3388672Q29.673889 -2.3388672 30.169006 -2.03125Q30.664124 -1.7236328 30.933655 -1.1552734L30.945374 -1.1552734Q30.945374 -1.3310547 30.968811 -1.7646484Q30.992249 -2.1982422 31.015686 -2.2392578L32.017639 -2.2392578Q31.982483 -1.9228516 31.982483 -0.92675781L31.982483 3.9189453Q31.982483 6.5908203 29.328186 6.5908203ZM30.933655 0.93066406Q30.933655 0.15722656 30.722717 -0.40234375Q30.51178 -0.96191406 30.127991 -1.2578125Q29.744202 -1.5537109 29.257874 -1.5537109Q28.44928 -1.5537109 28.080139 -0.96777344Q27.710999 -0.38183594 27.710999 0.93066406Q27.710999 2.2314453 28.056702 2.7998047Q28.402405 3.3681641 29.240295 3.3681641Q29.738342 3.3681641 30.125061 3.0751953Q30.51178 2.7822266 30.722717 2.234375Q30.933655 1.6865234 30.933655 0.93066406Z"/>
	<path fill="none" stroke="black" stroke-width="1" stroke-miterlimit="10" stroke-opacity="0.10196079" d="M50 749.5L1188.66 749.5"/>
	<path fill="none" stroke="black" stroke-width="1" stroke-miterlimit="10" stroke-opacity="0.10196079" d="M41.75 749.5L49 749.5"/>
	<path fill="none" stroke="black" stroke-width="1" stroke-miterlimit="10" stroke-opacity="0.10196079" d="M50 681.5L1188.66 681.5"/>
	<path fill="none" stroke="black" stroke-width="1" stroke-miterlimit="10" stroke-opacity="0.10196079" d="M41.75 681.5L49 681.5"/>
	<path fill="none" stroke="black" stroke-width="1" stroke-miterlimit="10" stroke-opacity="0.10196079" d="M50 613.5L1188.66 613.5"/>
	<path fill="none" stroke="black" stroke-width="1" stroke-miterlimit="10" stroke-opacity="0.10196079" d="M41.75 613.5L49 613.5"/>
	<path fill="none" stroke="black" stroke-width="1" stroke-miterlimit="10" stroke-opacity="0.10196079" d="M50 545.5L1188.66 545.5"/>
	<path fill="none" stroke="black" stroke-width="1" stroke-miterlimit="10" stroke-opacity="0.10196079" d="M41.75 545.5L49 545.5"/>
	<path fill="none" stroke="black" stroke-width="1" stroke-miterlimit="10" stroke-opacity="0.10196079" d="M50 478.5L1188.66 478.5"/>
	<path fill="none" stroke="black" stroke-width="1" stroke-miterlimit="10" stroke-opacity="0.10196079" d="M41.75 478.5L49 478.5"/>
	<path fill="none" stroke="black" stroke-width="1" stroke-miterlimit="10" stroke-opacity="0.10196079" d="M50 410.5L1188.66 410.5"/>
	<path fill="none" stroke="black" stroke-width="1" stroke-miterlimit="10" stroke-opacity="0.10196079" d="M41.75 410.5L49 410.5"/>
	<path fill="none" stroke="black" stroke-width="1" stroke-miterlimit="10" stroke-opacity="0.10196079" d="M50 342.5L1188.66 342.5"/>
	<path fill="none" stroke="black" stroke-width="1" stroke-miterlimit="10" stroke-opacity="0.10196079" d="M41.75 342.5L49 342.5"/>
	<path fill="none" stroke="black" stroke-width="1" stroke-miterlimit="10" stroke-opacity="0.10196079" d="M50 274.5L1188.66 274.5"/>
	<path fill="none" stroke="black" stroke-width="1" stroke-miterlimit="10" stroke-opacity="0.10196079" d="M41.75 274.5L49 274.5"/>
	<path fill="none" stroke="black" stroke-width="1" stroke-miterlimit="10" stroke-opacity="0.10196079" d="M50 206.5L1188.66 206.5"/>
	<path fill="none" stroke="black" stroke-width="1" stroke-miterlimit="10" stroke-opacity="0.10196079" d="M41.75 206.5L49 206.5"/>
	<path fill="none" stroke="black" stroke-width="1" stroke-miterlimit="10" stroke-opacity="0.10196079" d="M50 139.5L1188.66 139.5"/>
	<path fill="none" stroke="black" stroke-width="1" stroke-miterlimit="10" stroke-opacity="0.10196079" d="M41.75 139.5L49 139.5"/>
	<path fill="none" stroke="black" stroke-width="1" stroke-miterlimit="10" stroke-opacity="0.10196079" d="M50 71.5L1188.66 71.5"/>
	<path fill="none" stroke="black" stroke-width="1" stroke-miterlimit="10" stroke-opacity="0.10196079" d="M41.75 71.5L49 71.5"/>
	<path fill="#666" transform="matrix(0 -1 1 0 11.2 410.2)" d="M-21.591797 -0.11230469Q-21.591797 1.1650391 -22.089844 2.1230469Q-22.587891 3.0810547 -23.501953 3.5908203Q-24.416016 4.1005859 -25.611328 4.1005859L-28.699219 4.1005859L-28.699219 -4.1552734L-25.96875 -4.1552734Q-23.871094 -4.1552734 -22.731445 -3.1035156Q-21.591797 -2.0517578 -21.591797 -0.11230469ZM-22.716797 -0.11230469Q-22.716797 -1.6474609 -23.557617 -2.453125Q-24.398438 -3.2587891 -25.992188 -3.2587891L-27.580078 -3.2587891L-27.580078 3.2041016L-25.740234 3.2041016Q-24.832031 3.2041016 -24.143555 2.8056641Q-23.455078 2.4072266 -23.085938 1.6572266Q-22.716797 0.90722656 -22.716797 -0.11230469ZM-14.847656 0.92480469Q-14.847656 2.5888672 -15.580078 3.4033203Q-16.3125 4.2177734 -17.707031 4.2177734Q-19.095703 4.2177734 -19.804688 3.3710938Q-20.513672 2.5244141 -20.513672 0.92480469Q-20.513672 -2.3564453 -17.671875 -2.3564453Q-16.21875 -2.3564453 -15.533203 -1.5566406Q-14.847656 -0.75683594 -14.847656 0.92480469ZM-15.955078 0.92480469Q-15.955078 -0.38769531 -16.344727 -0.98242188Q-16.734375 -1.5771484 -17.654297 -1.5771484Q-18.580078 -1.5771484 -18.993164 -0.97070312Q-19.40625 -0.36425781 -19.40625 0.92480469Q-19.40625 2.1787109 -18.999023 2.8085938Q-18.591797 3.4384766 -17.71875 3.4384766Q-16.769531 3.4384766 -16.362305 2.8291016Q-15.955078 2.2197266 -15.955078 0.92480469ZM-7.4648438 4.1005859L-8.6894531 4.1005859L-9.796875 -0.38183594L-10.007812 -1.3720703Q-10.060547 -1.1083984 -10.171875 -0.61328125Q-10.283203 -0.11816406 -11.367188 4.1005859L-12.585938 4.1005859L-14.361328 -2.2392578L-13.318359 -2.2392578L-12.246094 2.0673828Q-12.205078 2.2080078 -11.994141 3.2275391L-11.894531 2.7939453L-10.570312 -2.2392578L-9.4394531 -2.2392578L-8.3320312 2.1142578L-8.0625 3.2275391L-7.8808594 2.4130859L-6.6796875 -2.2392578L-5.6484375 -2.2392578L-7.4648438 4.1005859ZM-0.84375 4.1005859L-0.84375 0.081054688Q-0.84375 -0.54589844 -0.96679688 -0.89160156Q-1.0898438 -1.2373047 -1.359375 -1.3896484Q-1.6289062 -1.5419922 -2.1503906 -1.5419922Q-2.9121094 -1.5419922 -3.3515625 -1.0205078Q-3.7910156 -0.49902344 -3.7910156 0.42675781L-3.7910156 4.1005859L-4.8457031 4.1005859L-4.8457031 -0.88574219Q-4.8457031 -1.9931641 -4.8808594 -2.2392578L-3.8847656 -2.2392578Q-3.8789062 -2.2099609 -3.8730469 -2.0810547Q-3.8671875 -1.9521484 -3.8583984 -1.7851562Q-3.8496094 -1.6181641 -3.8378906 -1.1552734L-3.8203125 -1.1552734Q-3.4570312 -1.8115234 -2.9794922 -2.0839844Q-2.5019531 -2.3564453 -1.7929688 -2.3564453Q-0.75 -2.3564453 -0.26660156 -1.8378906Q0.21679688 -1.3193359 0.21679688 -0.12402344L0.21679688 4.1005859L-0.84375 4.1005859ZM1.8046875 4.1005859L1.8046875 -4.5947266L2.859375 -4.5947266L2.859375 4.1005859L1.8046875 4.1005859ZM9.8320312 0.92480469Q9.8320312 2.5888672 9.0996094 3.4033203Q8.3671875 4.2177734 6.9726562 4.2177734Q5.5839844 4.2177734 4.875 3.3710938Q4.1660156 2.5244141 4.1660156 0.92480469Q4.1660156 -2.3564453 7.0078125 -2.3564453Q8.4609375 -2.3564453 9.1464844 -1.5566406Q9.8320312 -0.75683594 9.8320312 0.92480469ZM8.7246094 0.92480469Q8.7246094 -0.38769531 8.3349609 -0.98242188Q7.9453125 -1.5771484 7.0253906 -1.5771484Q6.0996094 -1.5771484 5.6865234 -0.97070312Q5.2734375 -0.36425781 5.2734375 0.92480469Q5.2734375 2.1787109 5.6806641 2.8085938Q6.0878906 3.4384766 6.9609375 3.4384766Q7.9101562 3.4384766 8.3173828 2.8291016Q8.7246094 2.2197266 8.7246094 0.92480469ZM12.761719 4.2177734Q11.806641 4.2177734 11.326172 3.7138672Q10.845703 3.2099609 10.845703 2.3310547Q10.845703 1.3466797 11.493164 0.81933594Q12.140625 0.29199219 13.582031 0.25683594L15.005859 0.23339844L15.005859 -0.11230469Q15.005859 -0.88574219 14.677734 -1.2197266Q14.349609 -1.5537109 13.646484 -1.5537109Q12.9375 -1.5537109 12.615234 -1.3134766Q12.292969 -1.0732422 12.228516 -0.54589844L11.126953 -0.64550781Q11.396484 -2.3564453 13.669922 -2.3564453Q14.865234 -2.3564453 15.46875 -1.8085938Q16.072266 -1.2607422 16.072266 -0.22363281L16.072266 2.5068359Q16.072266 2.9755859 16.195312 3.2128906Q16.318359 3.4501953 16.664062 3.4501953Q16.816406 3.4501953 17.009766 3.4091797L17.009766 4.0654297Q16.611328 4.1591797 16.195312 4.1591797Q15.609375 4.1591797 15.342773 3.8515625Q15.076172 3.5439453 15.041016 2.8876953L15.005859 2.8876953Q14.601562 3.6142578 14.06543 3.9160156Q13.529297 4.2177734 12.761719 4.2177734ZM13.001953 3.4267578Q13.582031 3.4267578 14.033203 3.1630859Q14.484375 2.8994141 14.745117 2.4394531Q15.005859 1.9794922 15.005859 1.4931641L15.005859 0.97167969L13.851562 0.99511719Q13.107422 1.0068359 12.723633 1.1474609Q12.339844 1.2880859 12.134766 1.5810547Q11.929688 1.8740234 11.929688 2.3486328Q11.929688 2.8642578 12.208008 3.1455078Q12.486328 3.4267578 13.001953 3.4267578ZM21.820312 3.0810547Q21.527344 3.6904297 21.043945 3.9541016Q20.560547 4.2177734 19.845703 4.2177734Q18.644531 4.2177734 18.079102 3.4091797Q17.513672 2.6005859 17.513672 0.95996094Q17.513672 -2.3564453 19.845703 -2.3564453Q20.566406 -2.3564453 21.046875 -2.0927734Q21.527344 -1.8291016 21.820312 -1.2548828L21.832031 -1.2548828L21.820312 -1.9638672L21.820312 -4.5947266L22.875 -4.5947266L22.875 2.7939453Q22.875 3.7841797 22.910156 4.1005859L21.902344 4.1005859Q21.884766 4.0068359 21.864258 3.6669922Q21.84375 3.3271484 21.84375 3.0810547L21.820312 3.0810547ZM18.621094 0.92480469Q18.621094 2.2548828 18.972656 2.8291016Q19.324219 3.4033203 20.115234 3.4033203Q21.011719 3.4033203 21.416016 2.7822266Q21.820312 2.1611328 21.820312 0.85449219Q21.820312 -0.40527344 21.416016 -0.99121094Q21.011719 -1.5771484 20.126953 -1.5771484Q19.330078 -1.5771484 18.975586 -0.98828125Q18.621094 -0.39941406 18.621094 0.92480469ZM29.25 2.3486328Q29.25 3.2451172 28.573242 3.7314453Q27.896484 4.2177734 26.677734 4.2177734Q25.494141 4.2177734 24.852539 3.828125Q24.210938 3.4384766 24.017578 2.6123047L24.949219 2.4306641Q25.083984 2.9404297 25.505859 3.1777344Q25.927734 3.4150391 26.677734 3.4150391Q27.480469 3.4150391 27.852539 3.1689453Q28.224609 2.9228516 28.224609 2.4306641Q28.224609 2.0556641 27.966797 1.8212891Q27.708984 1.5869141 27.134766 1.4345703L26.378906 1.2353516Q25.470703 1.0009766 25.086914 0.77539062Q24.703125 0.54980469 24.486328 0.22753906Q24.269531 -0.094726562 24.269531 -0.56347656Q24.269531 -1.4306641 24.887695 -1.8847656Q25.505859 -2.3388672 26.689453 -2.3388672Q27.738281 -2.3388672 28.356445 -1.9697266Q28.974609 -1.6005859 29.138672 -0.78613281L28.189453 -0.66894531Q28.101562 -1.0908203 27.717773 -1.3164062Q27.333984 -1.5419922 26.689453 -1.5419922Q25.974609 -1.5419922 25.634766 -1.3251953Q25.294922 -1.1083984 25.294922 -0.66894531Q25.294922 -0.39941406 25.435547 -0.22363281Q25.576172 -0.047851562 25.851562 0.075195312Q26.126953 0.19824219 27.011719 0.41503906Q27.849609 0.62597656 28.21875 0.8046875Q28.587891 0.98339844 28.801758 1.2001953Q29.015625 1.4169922 29.132812 1.7011719Q29.25 1.9853516 29.25 2.3486328Z"/>
	<clipPath id="cl_64a">
		<rect y="39.200001" width="1200" height="31.999996"/>
	</clipPath>
	<g clip-path="url(#cl_64a)">
		<path fill="#C32222" fill-opacity="0.2" d="M569.33002 49.200001L609.33002 49.200001L609.33002 61.200001L569.33002 61.200001L569.33002 49.200001Z"/>
		<path fill="none" stroke="#C32222" stroke-width="2" stroke-miterlimit="10" d="M569.33002 49.200001L609.33002 49.200001L609.33002 61.200001L569.33002 61.200001L569.33002 49.200001Z"/>
	</g>
	<clipPath id="cl_64b">
		<rect y="39.200001" width="1200" height="31.999996"/>
	</clipPath>
	<g clip-path="url(#cl_64b)">
		<path fill="#666" d="M615.81635 59.300587L615.81635 58.497852L619.36127 53.775196L616.01556 53.775196L616.01556 52.960743L620.60931 52.960743L620.60931 53.763477L617.05853 58.486134L620.73236 58.486134L620.73236 59.300587L615.81635 59.300587ZM622.13275 51.613087L622.13275 50.605274L623.18744 50.605274L623.18744 51.613087L622.13275 51.613087ZM622.13275 59.300587L622.13275 52.960743L623.18744 52.960743L623.18744 59.300587L622.13275 59.300587ZM630.16595 56.101368Q630.16595 59.417774 627.83392 59.417774Q626.36908 59.417774 625.86517 58.316212L625.83588 58.316212Q625.85931 58.363087 625.85931 59.312305L625.85931 61.790821L624.80463 61.790821L624.80463 54.255665Q624.80463 53.277149 624.76947 52.960743L625.789 52.960743Q625.79486 52.98418 625.80658 53.127735Q625.8183 53.27129 625.83295 53.570118Q625.8476 53.868946 625.8476 53.980274L625.87103 53.980274Q626.15228 53.394337 626.61517 53.121876Q627.07806 52.849415 627.83392 52.849415Q629.0058 52.849415 629.58588 53.634571Q630.16595 54.419727 630.16595 56.101368ZM629.05853 56.124805Q629.05853 54.800587 628.70111 54.232227Q628.34369 53.663868 627.56439 53.663868Q626.93744 53.663868 626.58295 53.92754Q626.22845 54.191212 626.04388 54.750782Q625.85931 55.310352 625.85931 56.206837Q625.85931 57.454884 626.25775 58.04668Q626.65619 58.638477 627.55267 58.638477Q628.33783 58.638477 628.69818 58.061329Q629.05853 57.48418 629.05853 56.124805Z"/>
	</g>
	<path fill="#666" transform="translate(600 19.6)" d="M-289.83203 3.3320312Q-289.83203 4.5585938 -290.83594 5.2578125Q-291.83984 5.9570312 -293.61328 5.9570312Q-295.35547 5.9570312 -296.28125 5.40625Q-297.20703 4.8554688 -297.51172 3.6914062L-295.58203 3.4023438Q-295.41797 4.0039062 -295.01562 4.2539062Q-294.61328 4.5039062 -293.61328 4.5039062Q-292.69141 4.5039062 -292.26953 4.2695312Q-291.84766 4.0351562 -291.84766 3.5351562Q-291.84766 3.1289062 -292.1875 2.890625Q-292.52734 2.6523438 -293.33984 2.4882812Q-295.19922 2.1210938 -295.84766 1.8046875Q-296.49609 1.4882812 -296.83594 0.984375Q-297.17578 0.48046875 -297.17578 -0.25390625Q-297.17578 -1.4648438 -296.24219 -2.140625Q-295.30859 -2.8164062 -293.59766 -2.8164062Q-292.08984 -2.8164062 -291.17188 -2.2304688Q-290.25391 -1.6445312 -290.02734 -0.53515625L-291.97266 -0.33203125Q-292.06641 -0.84765625 -292.43359 -1.1015625Q-292.80078 -1.3554688 -293.59766 -1.3554688Q-294.37891 -1.3554688 -294.76953 -1.15625Q-295.16016 -0.95703125 -295.16016 -0.48828125Q-295.16016 -0.12109375 -294.85938 0.09375Q-294.55859 0.30859375 -293.84766 0.44921875Q-292.85547 0.65234375 -292.08594 0.8671875Q-291.31641 1.0820312 -290.85156 1.3789062Q-290.38672 1.6757812 -290.10938 2.140625Q-289.83203 2.6054688 -289.83203 3.3320312ZM-286.10547 5.9570312Q-287.33203 5.9570312 -288.01953 5.2890625Q-288.70703 4.6210938 -288.70703 3.4101562Q-288.70703 2.0976562 -287.85156 1.4101562Q-286.99609 0.72265625 -285.37109 0.70703125L-283.55078 0.67578125L-283.55078 0.24609375Q-283.55078 -0.58203125 -283.83984 -0.984375Q-284.12891 -1.3867188 -284.78516 -1.3867188Q-285.39453 -1.3867188 -285.67969 -1.109375Q-285.96484 -0.83203125 -286.03516 -0.19140625L-288.32422 -0.30078125Q-288.11328 -1.5351562 -287.19531 -2.171875Q-286.27734 -2.8085938 -284.69141 -2.8085938Q-283.08984 -2.8085938 -282.22266 -2.0195312Q-281.35547 -1.2304688 -281.35547 0.22265625L-281.35547 3.3007812Q-281.35547 4.0117188 -281.19531 4.28125Q-281.03516 4.5507812 -280.66016 4.5507812Q-280.41016 4.5507812 -280.17578 4.5039062L-280.17578 5.6914062Q-280.37109 5.7382812 -280.52734 5.7773438Q-280.68359 5.8164062 -280.83984 5.8398438Q-280.99609 5.8632812 -281.17188 5.8789062Q-281.34766 5.8945312 -281.58203 5.8945312Q-282.41016 5.8945312 -282.80469 5.4882812Q-283.19922 5.0820312 -283.27734 4.2929688L-283.32422 4.2929688Q-284.24609 5.9570312 -286.10547 5.9570312ZM-283.55078 1.8867188L-284.67578 1.9023438Q-285.44141 1.9335938 -285.76172 2.0703125Q-286.08203 2.2070312 -286.25 2.4882812Q-286.41797 2.7695312 -286.41797 3.2382812Q-286.41797 3.8398438 -286.14062 4.1328125Q-285.86328 4.4257812 -285.40234 4.4257812Q-284.88672 4.4257812 -284.46094 4.1445312Q-284.03516 3.8632812 -283.79297 3.3671875Q-283.55078 2.8710938 -283.55078 2.3164062L-283.55078 1.8867188ZM-279.16016 -4.1757812L-279.16016 -5.7929688L-276.96484 -5.7929688L-276.96484 -4.1757812L-279.16016 -4.1757812ZM-279.16016 5.8007812L-279.16016 -2.6523438L-276.96484 -2.6523438L-276.96484 5.8007812L-279.16016 5.8007812ZM-274.71484 5.8007812L-274.71484 -5.7929688L-272.51953 -5.7929688L-272.51953 5.8007812L-274.71484 5.8007812ZM-262.26953 1.5351562Q-262.26953 3.6523438 -263.11719 4.8046875Q-263.96484 5.9570312 -265.51172 5.9570312Q-266.40234 5.9570312 -267.0625 5.5703125Q-267.72266 5.1835938 -268.07422 4.4570312L-268.12109 4.4570312Q-268.07422 4.6914062 -268.07422 5.8789062L-268.07422 9.1210938L-270.26953 9.1210938L-270.26953 -0.70703125Q-270.26953 -1.9023438 -270.33203 -2.6523438L-268.19922 -2.6523438Q-268.16016 -2.5117188 -268.13281 -2.0976562Q-268.10547 -1.6835938 -268.10547 -1.2773438L-268.07422 -1.2773438Q-267.33203 -2.8320312 -265.37109 -2.8320312Q-263.89453 -2.8320312 -263.08203 -1.6953125Q-262.26953 -0.55859375 -262.26953 1.5351562ZM-264.55859 1.5351562Q-264.55859 -1.3085938 -266.30078 -1.3085938Q-267.17578 -1.3085938 -267.64062 -0.54296875Q-268.10547 0.22265625 -268.10547 1.5976562Q-268.10547 2.9648438 -267.64062 3.7109375Q-267.17578 4.4570312 -266.31641 4.4570312Q-264.55859 4.4570312 -264.55859 1.5351562ZM-252.46484 1.5664062Q-252.46484 3.6210938 -253.60547 4.7890625Q-254.74609 5.9570312 -256.76172 5.9570312Q-258.73828 5.9570312 -259.86328 4.7851562Q-260.98828 3.6132812 -260.98828 1.5664062Q-260.98828 -0.47265625 -259.86328 -1.640625Q-258.73828 -2.8085938 -256.71484 -2.8085938Q-254.64453 -2.8085938 -253.55469 -1.6796875Q-252.46484 -0.55078125 -252.46484 1.5664062ZM-254.76172 1.5664062Q-254.76172 0.05859375 -255.25391 -0.62109375Q-255.74609 -1.3007812 -256.68359 -1.3007812Q-258.68359 -1.3007812 -258.68359 1.5664062Q-258.68359 2.9804688 -258.19531 3.71875Q-257.70703 4.4570312 -256.78516 4.4570312Q-254.76172 4.4570312 -254.76172 1.5664062ZM-250.72266 -4.1757812L-250.72266 -5.7929688L-248.52734 -5.7929688L-248.52734 -4.1757812L-250.72266 -4.1757812ZM-250.72266 5.8007812L-250.72266 -2.6523438L-248.52734 -2.6523438L-248.52734 5.8007812L-250.72266 5.8007812ZM-240.80078 5.8007812L-240.80078 1.0585938Q-240.80078 -1.1679688 -242.30859 -1.1679688Q-243.10547 -1.1679688 -243.59375 -0.484375Q-244.08203 0.19921875 -244.08203 1.2695312L-244.08203 5.8007812L-246.27734 5.8007812L-246.27734 -0.76171875Q-246.27734 -1.4414062 -246.29688 -1.875Q-246.31641 -2.3085938 -246.33984 -2.6523438L-244.24609 -2.6523438Q-244.22266 -2.5039062 -244.18359 -1.859375Q-244.14453 -1.2148438 -244.14453 -0.97265625L-244.11328 -0.97265625Q-243.66797 -1.9414062 -242.99609 -2.3789062Q-242.32422 -2.8164062 -241.39453 -2.8164062Q-240.05078 -2.8164062 -239.33203 -1.9882812Q-238.61328 -1.1601562 -238.61328 0.43359375L-238.61328 5.8007812L-240.80078 5.8007812ZM-234.33984 5.9414062Q-235.30859 5.9414062 -235.83203 5.4140625Q-236.35547 4.8867188 -236.35547 3.8164062L-236.35547 -1.1679688L-237.42578 -1.1679688L-237.42578 -2.6523438L-236.24609 -2.6523438L-235.55859 -4.6367188L-234.18359 -4.6367188L-234.18359 -2.6523438L-232.58203 -2.6523438L-232.58203 -1.1679688L-234.18359 -1.1679688L-234.18359 3.2226562Q-234.18359 3.8398438 -233.94922 4.1328125Q-233.71484 4.4257812 -233.22266 4.4257812Q-232.96484 4.4257812 -232.48828 4.3164062L-232.48828 5.6757812Q-233.30078 5.9414062 -234.33984 5.9414062ZM-231.66797 2.6054688L-231.66797 0.69921875L-227.60547 0.69921875L-227.60547 2.6054688L-231.66797 2.6054688ZM-217.81641 1.5664062Q-217.81641 3.6210938 -218.95703 4.7890625Q-220.09766 5.9570312 -222.11328 5.9570312Q-224.08984 5.9570312 -225.21484 4.7851562Q-226.33984 3.6132812 -226.33984 1.5664062Q-226.33984 -0.47265625 -225.21484 -1.640625Q-224.08984 -2.8085938 -222.06641 -2.8085938Q-219.99609 -2.8085938 -218.90625 -1.6796875Q-217.81641 -0.55078125 -217.81641 1.5664062ZM-220.11328 1.5664062Q-220.11328 0.05859375 -220.60547 -0.62109375Q-221.09766 -1.3007812 -222.03516 -1.3007812Q-224.03516 -1.3007812 -224.03516 1.5664062Q-224.03516 2.9804688 -223.54688 3.71875Q-223.05859 4.4570312 -222.13672 4.4570312Q-220.11328 4.4570312 -220.11328 1.5664062ZM-208.94922 3.3320312Q-208.94922 4.5585938 -209.95312 5.2578125Q-210.95703 5.9570312 -212.73047 5.9570312Q-214.47266 5.9570312 -215.39844 5.40625Q-216.32422 4.8554688 -216.62891 3.6914062L-214.69922 3.4023438Q-214.53516 4.0039062 -214.13281 4.2539062Q-213.73047 4.5039062 -212.73047 4.5039062Q-211.80859 4.5039062 -211.38672 4.2695312Q-210.96484 4.0351562 -210.96484 3.5351562Q-210.96484 3.1289062 -211.30469 2.890625Q-211.64453 2.6523438 -212.45703 2.4882812Q-214.31641 2.1210938 -214.96484 1.8046875Q-215.61328 1.4882812 -215.95312 0.984375Q-216.29297 0.48046875 -216.29297 -0.25390625Q-216.29297 -1.4648438 -215.35938 -2.140625Q-214.42578 -2.8164062 -212.71484 -2.8164062Q-211.20703 -2.8164062 -210.28906 -2.2304688Q-209.37109 -1.6445312 -209.14453 -0.53515625L-211.08984 -0.33203125Q-211.18359 -0.84765625 -211.55078 -1.1015625Q-211.91797 -1.3554688 -212.71484 -1.3554688Q-213.49609 -1.3554688 -213.88672 -1.15625Q-214.27734 -0.95703125 -214.27734 -0.48828125Q-214.27734 -0.12109375 -213.97656 0.09375Q-213.67578 0.30859375 -212.96484 0.44921875Q-211.97266 0.65234375 -211.20312 0.8671875Q-210.43359 1.0820312 -209.96875 1.3789062Q-209.50391 1.6757812 -209.22656 2.140625Q-208.94922 2.6054688 -208.94922 3.3320312ZM-200.05078 3.3320312Q-200.05078 4.5585938 -201.05469 5.2578125Q-202.05859 5.9570312 -203.83203 5.9570312Q-205.57422 5.9570312 -206.5 5.40625Q-207.42578 4.8554688 -207.73047 3.6914062L-205.80078 3.4023438Q-205.63672 4.0039062 -205.23438 4.2539062Q-204.83203 4.5039062 -203.83203 4.5039062Q-202.91016 4.5039062 -202.48828 4.2695312Q-202.06641 4.0351562 -202.06641 3.5351562Q-202.06641 3.1289062 -202.40625 2.890625Q-202.74609 2.6523438 -203.55859 2.4882812Q-205.41797 2.1210938 -206.06641 1.8046875Q-206.71484 1.4882812 -207.05469 0.984375Q-207.39453 0.48046875 -207.39453 -0.25390625Q-207.39453 -1.4648438 -206.46094 -2.140625Q-205.52734 -2.8164062 -203.81641 -2.8164062Q-202.30859 -2.8164062 -201.39062 -2.2304688Q-200.47266 -1.6445312 -200.24609 -0.53515625L-202.19141 -0.33203125Q-202.28516 -0.84765625 -202.65234 -1.1015625Q-203.01953 -1.3554688 -203.81641 -1.3554688Q-204.59766 -1.3554688 -204.98828 -1.15625Q-205.37891 -0.95703125 -205.37891 -0.48828125Q-205.37891 -0.12109375 -205.07812 0.09375Q-204.77734 0.30859375 -204.06641 0.44921875Q-203.07422 0.65234375 -202.30469 0.8671875Q-201.53516 1.0820312 -201.07031 1.3789062Q-200.60547 1.6757812 -200.32812 2.140625Q-200.05078 2.6054688 -200.05078 3.3320312ZM-199.23828 6.1210938L-196.96484 -5.7929688L-195.10547 -5.7929688L-197.33984 6.1210938L-199.23828 6.1210938ZM-190.30859 5.9570312Q-192.23047 5.9570312 -193.27734 4.8125Q-194.32422 3.6679688 -194.32422 1.6210938Q-194.32422 -0.47265625 -193.26953 -1.640625Q-192.21484 -2.8085938 -190.27734 -2.8085938Q-188.78516 -2.8085938 -187.80859 -2.0585938Q-186.83203 -1.3085938 -186.58203 0.01171875L-188.79297 0.12109375Q-188.88672 -0.52734375 -189.26172 -0.9140625Q-189.63672 -1.3007812 -190.32422 -1.3007812Q-192.01953 -1.3007812 -192.01953 1.5351562Q-192.01953 4.4570312 -190.29297 4.4570312Q-189.66797 4.4570312 -189.24609 4.0625Q-188.82422 3.6679688 -188.72266 2.8867188L-186.51953 2.9882812Q-186.63672 3.8554688 -187.14062 4.5351562Q-187.64453 5.2148438 -188.46484 5.5859375Q-189.28516 5.9570312 -190.30859 5.9570312ZM-176.90234 1.5664062Q-176.90234 3.6210938 -178.04297 4.7890625Q-179.18359 5.9570312 -181.19922 5.9570312Q-183.17578 5.9570312 -184.30078 4.7851562Q-185.42578 3.6132812 -185.42578 1.5664062Q-185.42578 -0.47265625 -184.30078 -1.640625Q-183.17578 -2.8085938 -181.15234 -2.8085938Q-179.08203 -2.8085938 -177.99219 -1.6796875Q-176.90234 -0.55078125 -176.90234 1.5664062ZM-179.19922 1.5664062Q-179.19922 0.05859375 -179.69141 -0.62109375Q-180.18359 -1.3007812 -181.12109 -1.3007812Q-183.12109 -1.3007812 -183.12109 1.5664062Q-183.12109 2.9804688 -182.63281 3.71875Q-182.14453 4.4570312 -181.22266 4.4570312Q-179.19922 4.4570312 -179.19922 1.5664062ZM-175.16016 5.8007812L-175.16016 -5.7929688L-172.96484 -5.7929688L-172.96484 5.8007812L-175.16016 5.8007812ZM-168.76172 5.9570312Q-169.98828 5.9570312 -170.67578 5.2890625Q-171.36328 4.6210938 -171.36328 3.4101562Q-171.36328 2.0976562 -170.50781 1.4101562Q-169.65234 0.72265625 -168.02734 0.70703125L-166.20703 0.67578125L-166.20703 0.24609375Q-166.20703 -0.58203125 -166.49609 -0.984375Q-166.78516 -1.3867188 -167.44141 -1.3867188Q-168.05078 -1.3867188 -168.33594 -1.109375Q-168.62109 -0.83203125 -168.69141 -0.19140625L-170.98047 -0.30078125Q-170.76953 -1.5351562 -169.85156 -2.171875Q-168.93359 -2.8085938 -167.34766 -2.8085938Q-165.74609 -2.8085938 -164.87891 -2.0195312Q-164.01172 -1.2304688 -164.01172 0.22265625L-164.01172 3.3007812Q-164.01172 4.0117188 -163.85156 4.28125Q-163.69141 4.5507812 -163.31641 4.5507812Q-163.06641 4.5507812 -162.83203 4.5039062L-162.83203 5.6914062Q-163.02734 5.7382812 -163.18359 5.7773438Q-163.33984 5.8164062 -163.49609 5.8398438Q-163.65234 5.8632812 -163.82812 5.8789062Q-164.00391 5.8945312 -164.23828 5.8945312Q-165.06641 5.8945312 -165.46094 5.4882812Q-165.85547 5.0820312 -165.93359 4.2929688L-165.98047 4.2929688Q-166.90234 5.9570312 -168.76172 5.9570312ZM-166.20703 1.8867188L-167.33203 1.9023438Q-168.09766 1.9335938 -168.41797 2.0703125Q-168.73828 2.2070312 -168.90625 2.4882812Q-169.07422 2.7695312 -169.07422 3.2382812Q-169.07422 3.8398438 -168.79688 4.1328125Q-168.51953 4.4257812 -168.05859 4.4257812Q-167.54297 4.4257812 -167.11719 4.1445312Q-166.69141 3.8632812 -166.44922 3.3671875Q-166.20703 2.8710938 -166.20703 2.3164062L-166.20703 1.8867188ZM-153.81641 1.5429688Q-153.81641 3.6367188 -154.65625 4.796875Q-155.49609 5.9570312 -157.05859 5.9570312Q-157.95703 5.9570312 -158.61328 5.5664062Q-159.26953 5.1757812 -159.62109 4.4414062L-159.63672 4.4414062Q-159.63672 4.7148438 -159.67188 5.1914062Q-159.70703 5.6679688 -159.74609 5.8007812L-161.87891 5.8007812Q-161.81641 5.0742188 -161.81641 3.8710938L-161.81641 -5.7929688L-159.62109 -5.7929688L-159.62109 -2.5585938L-159.65234 -1.1835938L-159.62109 -1.1835938Q-158.87891 -2.8085938 -156.91797 -2.8085938Q-155.41797 -2.8085938 -154.61719 -1.671875Q-153.81641 -0.53515625 -153.81641 1.5429688ZM-156.10547 1.5429688Q-156.10547 0.10546875 -156.52734 -0.58984375Q-156.94922 -1.2851562 -157.83203 -1.2851562Q-158.72266 -1.2851562 -159.1875 -0.5390625Q-159.65234 0.20703125 -159.65234 1.6132812Q-159.65234 2.9570312 -159.19531 3.7070312Q-158.73828 4.4570312 -157.84766 4.4570312Q-156.10547 4.4570312 -156.10547 1.5429688ZM-152.53516 2.6054688L-152.53516 0.69921875L-148.47266 0.69921875L-148.47266 2.6054688L-152.53516 2.6054688ZM-138.71484 1.5351562Q-138.71484 3.6523438 -139.5625 4.8046875Q-140.41016 5.9570312 -141.95703 5.9570312Q-142.84766 5.9570312 -143.50781 5.5703125Q-144.16797 5.1835938 -144.51953 4.4570312L-144.56641 4.4570312Q-144.51953 4.6914062 -144.51953 5.8789062L-144.51953 9.1210938L-146.71484 9.1210938L-146.71484 -0.70703125Q-146.71484 -1.9023438 -146.77734 -2.6523438L-144.64453 -2.6523438Q-144.60547 -2.5117188 -144.57812 -2.0976562Q-144.55078 -1.6835938 -144.55078 -1.2773438L-144.51953 -1.2773438Q-143.77734 -2.8320312 -141.81641 -2.8320312Q-140.33984 -2.8320312 -139.52734 -1.6953125Q-138.71484 -0.55859375 -138.71484 1.5351562ZM-141.00391 1.5351562Q-141.00391 -1.3085938 -142.74609 -1.3085938Q-143.62109 -1.3085938 -144.08594 -0.54296875Q-144.55078 0.22265625 -144.55078 1.5976562Q-144.55078 2.9648438 -144.08594 3.7109375Q-143.62109 4.4570312 -142.76172 4.4570312Q-141.00391 4.4570312 -141.00391 1.5351562ZM-136.94141 5.8007812L-136.94141 -0.66796875Q-136.94141 -1.3632812 -136.96094 -1.828125Q-136.98047 -2.2929688 -137.00391 -2.6523438L-134.91016 -2.6523438Q-134.88672 -2.5117188 -134.84766 -1.796875Q-134.80859 -1.0820312 -134.80859 -0.84765625L-134.77734 -0.84765625Q-134.45703 -1.7382812 -134.20703 -2.1015625Q-133.95703 -2.4648438 -133.61328 -2.640625Q-133.26953 -2.8164062 -132.75391 -2.8164062Q-132.33203 -2.8164062 -132.07422 -2.6992188L-132.07422 -0.86328125Q-132.60547 -0.98046875 -133.01172 -0.98046875Q-133.83203 -0.98046875 -134.28906 -0.31640625Q-134.74609 0.34765625 -134.74609 1.6523438L-134.74609 5.8007812L-136.94141 5.8007812ZM-122.68359 1.5664062Q-122.68359 3.6210938 -123.82422 4.7890625Q-124.96484 5.9570312 -126.98047 5.9570312Q-128.95703 5.9570312 -130.08203 4.7851562Q-131.20703 3.6132812 -131.20703 1.5664062Q-131.20703 -0.47265625 -130.08203 -1.640625Q-128.95703 -2.8085938 -126.93359 -2.8085938Q-124.86328 -2.8085938 -123.77344 -1.6796875Q-122.68359 -0.55078125 -122.68359 1.5664062ZM-124.98047 1.5664062Q-124.98047 0.05859375 -125.47266 -0.62109375Q-125.96484 -1.3007812 -126.90234 -1.3007812Q-128.90234 -1.3007812 -128.90234 1.5664062Q-128.90234 2.9804688 -128.41406 3.71875Q-127.92578 4.4570312 -127.00391 4.4570312Q-124.98047 4.4570312 -124.98047 1.5664062ZM-116.34766 5.8007812L-118.97266 5.8007812L-121.99609 -2.6523438L-119.67578 -2.6523438L-118.19922 2.0742188Q-118.08203 2.4648438 -117.64453 4.0273438Q-117.56641 3.7070312 -117.32422 2.9023438Q-117.08203 2.0976562 -115.52734 -2.6523438L-113.23047 -2.6523438L-116.34766 5.8007812ZM-112.04297 -4.1757812L-112.04297 -5.7929688L-109.84766 -5.7929688L-109.84766 -4.1757812L-112.04297 -4.1757812ZM-112.04297 5.8007812L-112.04297 -2.6523438L-109.84766 -2.6523438L-109.84766 5.8007812L-112.04297 5.8007812ZM-100.47266 3.3320312Q-100.47266 4.5585938 -101.47656 5.2578125Q-102.48047 5.9570312 -104.25391 5.9570312Q-105.99609 5.9570312 -106.92188 5.40625Q-107.84766 4.8554688 -108.15234 3.6914062L-106.22266 3.4023438Q-106.05859 4.0039062 -105.65625 4.2539062Q-105.25391 4.5039062 -104.25391 4.5039062Q-103.33203 4.5039062 -102.91016 4.2695312Q-102.48828 4.0351562 -102.48828 3.5351562Q-102.48828 3.1289062 -102.82812 2.890625Q-103.16797 2.6523438 -103.98047 2.4882812Q-105.83984 2.1210938 -106.48828 1.8046875Q-107.13672 1.4882812 -107.47656 0.984375Q-107.81641 0.48046875 -107.81641 -0.25390625Q-107.81641 -1.4648438 -106.88281 -2.140625Q-105.94922 -2.8164062 -104.23828 -2.8164062Q-102.73047 -2.8164062 -101.8125 -2.2304688Q-100.89453 -1.6445312 -100.66797 -0.53515625L-102.61328 -0.33203125Q-102.70703 -0.84765625 -103.07422 -1.1015625Q-103.44141 -1.3554688 -104.23828 -1.3554688Q-105.01953 -1.3554688 -105.41016 -1.15625Q-105.80078 -0.95703125 -105.80078 -0.48828125Q-105.80078 -0.12109375 -105.5 0.09375Q-105.19922 0.30859375 -104.48828 0.44921875Q-103.49609 0.65234375 -102.72656 0.8671875Q-101.95703 1.0820312 -101.49219 1.3789062Q-101.02734 1.6757812 -100.75 2.140625Q-100.47266 2.6054688 -100.47266 3.3320312ZM-98.699219 -4.1757812L-98.699219 -5.7929688L-96.503906 -5.7929688L-96.503906 -4.1757812L-98.699219 -4.1757812ZM-98.699219 5.8007812L-98.699219 -2.6523438L-96.503906 -2.6523438L-96.503906 5.8007812L-98.699219 5.8007812ZM-86.222656 1.5664062Q-86.222656 3.6210938 -87.363281 4.7890625Q-88.503906 5.9570312 -90.519531 5.9570312Q-92.496094 5.9570312 -93.621094 4.7851562Q-94.746094 3.6132812 -94.746094 1.5664062Q-94.746094 -0.47265625 -93.621094 -1.640625Q-92.496094 -2.8085938 -90.472656 -2.8085938Q-88.402344 -2.8085938 -87.3125 -1.6796875Q-86.222656 -0.55078125 -86.222656 1.5664062ZM-88.519531 1.5664062Q-88.519531 0.05859375 -89.011719 -0.62109375Q-89.503906 -1.3007812 -90.441406 -1.3007812Q-92.441406 -1.3007812 -92.441406 1.5664062Q-92.441406 2.9804688 -91.953125 3.71875Q-91.464844 4.4570312 -90.542969 4.4570312Q-88.519531 4.4570312 -88.519531 1.5664062ZM-79.003906 5.8007812L-79.003906 1.0585938Q-79.003906 -1.1679688 -80.511719 -1.1679688Q-81.308594 -1.1679688 -81.796875 -0.484375Q-82.285156 0.19921875 -82.285156 1.2695312L-82.285156 5.8007812L-84.480469 5.8007812L-84.480469 -0.76171875Q-84.480469 -1.4414062 -84.5 -1.875Q-84.519531 -2.3085938 -84.542969 -2.6523438L-82.449219 -2.6523438Q-82.425781 -2.5039062 -82.386719 -1.859375Q-82.347656 -1.2148438 -82.347656 -0.97265625L-82.316406 -0.97265625Q-81.871094 -1.9414062 -81.199219 -2.3789062Q-80.527344 -2.8164062 -79.597656 -2.8164062Q-78.253906 -2.8164062 -77.535156 -1.9882812Q-76.816406 -1.1601562 -76.816406 0.43359375L-76.816406 5.8007812L-79.003906 5.8007812ZM-74.707031 -4.1757812L-74.707031 -5.7929688L-72.511719 -5.7929688L-72.511719 -4.1757812L-74.707031 -4.1757812ZM-74.707031 5.8007812L-74.707031 -2.6523438L-72.511719 -2.6523438L-72.511719 5.8007812L-74.707031 5.8007812ZM-64.785156 5.8007812L-64.785156 1.0585938Q-64.785156 -1.1679688 -66.292969 -1.1679688Q-67.089844 -1.1679688 -67.578125 -0.484375Q-68.066406 0.19921875 -68.066406 1.2695312L-68.066406 5.8007812L-70.261719 5.8007812L-70.261719 -0.76171875Q-70.261719 -1.4414062 -70.28125 -1.875Q-70.300781 -2.3085938 -70.324219 -2.6523438L-68.230469 -2.6523438Q-68.207031 -2.5039062 -68.167969 -1.859375Q-68.128906 -1.2148438 -68.128906 -0.97265625L-68.097656 -0.97265625Q-67.652344 -1.9414062 -66.980469 -2.3789062Q-66.308594 -2.8164062 -65.378906 -2.8164062Q-64.035156 -2.8164062 -63.316406 -1.9882812Q-62.597656 -1.1601562 -62.597656 0.43359375L-62.597656 5.8007812L-64.785156 5.8007812ZM-56.949219 9.1914062Q-58.496094 9.1914062 -59.4375 8.6015625Q-60.378906 8.0117188 -60.597656 6.9179688L-58.402344 6.6601562Q-58.285156 7.1679688 -57.898438 7.4570312Q-57.511719 7.7460938 -56.886719 7.7460938Q-55.972656 7.7460938 -55.550781 7.1835938Q-55.128906 6.6210938 -55.128906 5.5117188L-55.128906 5.0664062L-55.113281 4.2304688L-55.128906 4.2304688Q-55.855469 5.7851562 -57.847656 5.7851562Q-59.324219 5.7851562 -60.136719 4.6757812Q-60.949219 3.5664062 -60.949219 1.5039062Q-60.949219 -0.56640625 -60.113281 -1.6914062Q-59.277344 -2.8164062 -57.683594 -2.8164062Q-55.839844 -2.8164062 -55.128906 -1.2929688L-55.089844 -1.2929688Q-55.089844 -1.5664062 -55.054688 -2.0351562Q-55.019531 -2.5039062 -54.980469 -2.6523438L-52.902344 -2.6523438Q-52.949219 -1.8085938 -52.949219 -0.69921875L-52.949219 5.5429688Q-52.949219 7.3476562 -53.972656 8.2695312Q-54.996094 9.1914062 -56.949219 9.1914062ZM-55.113281 1.4570312Q-55.113281 0.15234375 -55.578125 -0.578125Q-56.042969 -1.3085938 -56.902344 -1.3085938Q-58.660156 -1.3085938 -58.660156 1.5039062Q-58.660156 4.2617188 -56.917969 4.2617188Q-56.042969 4.2617188 -55.578125 3.53125Q-55.113281 2.8007812 -55.113281 1.4570312ZM-51.207031 2.6054688L-51.207031 0.69921875L-47.144531 0.69921875L-47.144531 2.6054688L-51.207031 2.6054688ZM-38.261719 3.3320312Q-38.261719 4.5585938 -39.265625 5.2578125Q-40.269531 5.9570312 -42.042969 5.9570312Q-43.785156 5.9570312 -44.710938 5.40625Q-45.636719 4.8554688 -45.941406 3.6914062L-44.011719 3.4023438Q-43.847656 4.0039062 -43.445312 4.2539062Q-43.042969 4.5039062 -42.042969 4.5039062Q-41.121094 4.5039062 -40.699219 4.2695312Q-40.277344 4.0351562 -40.277344 3.5351562Q-40.277344 3.1289062 -40.617188 2.890625Q-40.957031 2.6523438 -41.769531 2.4882812Q-43.628906 2.1210938 -44.277344 1.8046875Q-44.925781 1.4882812 -45.265625 0.984375Q-45.605469 0.48046875 -45.605469 -0.25390625Q-45.605469 -1.4648438 -44.671875 -2.140625Q-43.738281 -2.8164062 -42.027344 -2.8164062Q-40.519531 -2.8164062 -39.601562 -2.2304688Q-38.683594 -1.6445312 -38.457031 -0.53515625L-40.402344 -0.33203125Q-40.496094 -0.84765625 -40.863281 -1.1015625Q-41.230469 -1.3554688 -42.027344 -1.3554688Q-42.808594 -1.3554688 -43.199219 -1.15625Q-43.589844 -0.95703125 -43.589844 -0.48828125Q-43.589844 -0.12109375 -43.289062 0.09375Q-42.988281 0.30859375 -42.277344 0.44921875Q-41.285156 0.65234375 -40.515625 0.8671875Q-39.746094 1.0820312 -39.28125 1.3789062Q-38.816406 1.6757812 -38.539062 2.140625Q-38.261719 2.6054688 -38.261719 3.3320312ZM-36.488281 -4.1757812L-36.488281 -5.7929688L-34.292969 -5.7929688L-34.292969 -4.1757812L-36.488281 -4.1757812ZM-36.488281 5.8007812L-36.488281 -2.6523438L-34.292969 -2.6523438L-34.292969 5.8007812L-36.488281 5.8007812ZM-27.066406 5.8007812L-27.066406 1.0585938Q-27.066406 -1.1679688 -28.347656 -1.1679688Q-29.011719 -1.1679688 -29.429688 -0.48828125Q-29.847656 0.19140625 -29.847656 1.2695312L-29.847656 5.8007812L-32.042969 5.8007812L-32.042969 -0.76171875Q-32.042969 -1.4414062 -32.0625 -1.875Q-32.082031 -2.3085938 -32.105469 -2.6523438L-30.011719 -2.6523438Q-29.988281 -2.5039062 -29.949219 -1.859375Q-29.910156 -1.2148438 -29.910156 -0.97265625L-29.878906 -0.97265625Q-29.472656 -1.9414062 -28.867188 -2.3789062Q-28.261719 -2.8164062 -27.417969 -2.8164062Q-25.480469 -2.8164062 -25.066406 -0.97265625L-25.019531 -0.97265625Q-24.589844 -1.9570312 -23.988281 -2.3867188Q-23.386719 -2.8164062 -22.457031 -2.8164062Q-21.222656 -2.8164062 -20.574219 -1.9765625Q-19.925781 -1.1367188 -19.925781 0.43359375L-19.925781 5.8007812L-22.105469 5.8007812L-22.105469 1.0585938Q-22.105469 -1.1679688 -23.386719 -1.1679688Q-24.027344 -1.1679688 -24.4375 -0.546875Q-24.847656 0.07421875 -24.886719 1.1679688L-24.886719 5.8007812L-27.066406 5.8007812ZM-15.746094 -2.6523438L-15.746094 2.0898438Q-15.746094 4.3164062 -14.246094 4.3164062Q-13.449219 4.3164062 -12.960938 3.6328125Q-12.472656 2.9492188 -12.472656 1.8789062L-12.472656 -2.6523438L-10.277344 -2.6523438L-10.277344 3.9101562Q-10.277344 4.9882812 -10.214844 5.8007812L-12.308594 5.8007812Q-12.402344 4.6757812 -12.402344 4.1210938L-12.441406 4.1210938Q-12.878906 5.0820312 -13.554688 5.5195312Q-14.230469 5.9570312 -15.160156 5.9570312Q-16.503906 5.9570312 -17.222656 5.1328125Q-17.941406 4.3085938 -17.941406 2.7148438L-17.941406 -2.6523438L-15.746094 -2.6523438ZM-8.0429688 5.8007812L-8.0429688 -5.7929688L-5.8476562 -5.7929688L-5.8476562 5.8007812L-8.0429688 5.8007812ZM-1.6445312 5.9570312Q-2.8710938 5.9570312 -3.5585938 5.2890625Q-4.2460938 4.6210938 -4.2460938 3.4101562Q-4.2460938 2.0976562 -3.390625 1.4101562Q-2.5351562 0.72265625 -0.91015625 0.70703125L0.91015625 0.67578125L0.91015625 0.24609375Q0.91015625 -0.58203125 0.62109375 -0.984375Q0.33203125 -1.3867188 -0.32421875 -1.3867188Q-0.93359375 -1.3867188 -1.21875 -1.109375Q-1.5039062 -0.83203125 -1.5742188 -0.19140625L-3.8632812 -0.30078125Q-3.6523438 -1.5351562 -2.734375 -2.171875Q-1.8164062 -2.8085938 -0.23046875 -2.8085938Q1.3710938 -2.8085938 2.2382812 -2.0195312Q3.1054688 -1.2304688 3.1054688 0.22265625L3.1054688 3.3007812Q3.1054688 4.0117188 3.265625 4.28125Q3.4257812 4.5507812 3.8007812 4.5507812Q4.0507812 4.5507812 4.2851562 4.5039062L4.2851562 5.6914062Q4.0898438 5.7382812 3.9335938 5.7773438Q3.7773438 5.8164062 3.6210938 5.8398438Q3.4648438 5.8632812 3.2890625 5.8789062Q3.1132812 5.8945312 2.8789062 5.8945312Q2.0507812 5.8945312 1.65625 5.4882812Q1.2617188 5.0820312 1.1835938 4.2929688L1.1367188 4.2929688Q0.21484375 5.9570312 -1.6445312 5.9570312ZM0.91015625 1.8867188L-0.21484375 1.9023438Q-0.98046875 1.9335938 -1.3007812 2.0703125Q-1.6210938 2.2070312 -1.7890625 2.4882812Q-1.9570312 2.7695312 -1.9570312 3.2382812Q-1.9570312 3.8398438 -1.6796875 4.1328125Q-1.4023438 4.4257812 -0.94140625 4.4257812Q-0.42578125 4.4257812 0 4.1445312Q0.42578125 3.8632812 0.66796875 3.3671875Q0.91015625 2.8710938 0.91015625 2.3164062L0.91015625 1.8867188ZM7.4648438 5.9414062Q6.4960938 5.9414062 5.9726562 5.4140625Q5.4492188 4.8867188 5.4492188 3.8164062L5.4492188 -1.1679688L4.3789062 -1.1679688L4.3789062 -2.6523438L5.5585938 -2.6523438L6.2460938 -4.6367188L7.6210938 -4.6367188L7.6210938 -2.6523438L9.2226562 -2.6523438L9.2226562 -1.1679688L7.6210938 -1.1679688L7.6210938 3.2226562Q7.6210938 3.8398438 7.8554688 4.1328125Q8.0898438 4.4257812 8.5820312 4.4257812Q8.8398438 4.4257812 9.3164062 4.3164062L9.3164062 5.6757812Q8.5039062 5.9414062 7.4648438 5.9414062ZM18.660156 1.5664062Q18.660156 3.6210938 17.519531 4.7890625Q16.378906 5.9570312 14.363281 5.9570312Q12.386719 5.9570312 11.261719 4.7851562Q10.136719 3.6132812 10.136719 1.5664062Q10.136719 -0.47265625 11.261719 -1.640625Q12.386719 -2.8085938 14.410156 -2.8085938Q16.480469 -2.8085938 17.570312 -1.6796875Q18.660156 -0.55078125 18.660156 1.5664062ZM16.363281 1.5664062Q16.363281 0.05859375 15.871094 -0.62109375Q15.378906 -1.3007812 14.441406 -1.3007812Q12.441406 -1.3007812 12.441406 1.5664062Q12.441406 2.9804688 12.929688 3.71875Q13.417969 4.4570312 14.339844 4.4570312Q16.363281 4.4570312 16.363281 1.5664062ZM20.402344 5.8007812L20.402344 -0.66796875Q20.402344 -1.3632812 20.382812 -1.828125Q20.363281 -2.2929688 20.339844 -2.6523438L22.433594 -2.6523438Q22.457031 -2.5117188 22.496094 -1.796875Q22.535156 -1.0820312 22.535156 -0.84765625L22.566406 -0.84765625Q22.886719 -1.7382812 23.136719 -2.1015625Q23.386719 -2.4648438 23.730469 -2.640625Q24.074219 -2.8164062 24.589844 -2.8164062Q25.011719 -2.8164062 25.269531 -2.6992188L25.269531 -0.86328125Q24.738281 -0.98046875 24.332031 -0.98046875Q23.511719 -0.98046875 23.054688 -0.31640625Q22.597656 0.34765625 22.597656 1.6523438L22.597656 5.8007812L20.402344 5.8007812ZM26.136719 2.6054688L26.136719 0.69921875L30.199219 0.69921875L30.199219 2.6054688L26.136719 2.6054688ZM39.957031 1.5351562Q39.957031 3.6523438 39.109375 4.8046875Q38.261719 5.9570312 36.714844 5.9570312Q35.824219 5.9570312 35.164062 5.5703125Q34.503906 5.1835938 34.152344 4.4570312L34.105469 4.4570312Q34.152344 4.6914062 34.152344 5.8789062L34.152344 9.1210938L31.957031 9.1210938L31.957031 -0.70703125Q31.957031 -1.9023438 31.894531 -2.6523438L34.027344 -2.6523438Q34.066406 -2.5117188 34.09375 -2.0976562Q34.121094 -1.6835938 34.121094 -1.2773438L34.152344 -1.2773438Q34.894531 -2.8320312 36.855469 -2.8320312Q38.332031 -2.8320312 39.144531 -1.6953125Q39.957031 -0.55859375 39.957031 1.5351562ZM37.667969 1.5351562Q37.667969 -1.3085938 35.925781 -1.3085938Q35.050781 -1.3085938 34.585938 -0.54296875Q34.121094 0.22265625 34.121094 1.5976562Q34.121094 2.9648438 34.585938 3.7109375Q35.050781 4.4570312 35.910156 4.4570312Q37.667969 4.4570312 37.667969 1.5351562ZM41.730469 5.8007812L41.730469 -5.7929688L43.925781 -5.7929688L43.925781 5.8007812L41.730469 5.8007812ZM48.246094 -2.6523438L48.246094 2.0898438Q48.246094 4.3164062 49.746094 4.3164062Q50.542969 4.3164062 51.03125 3.6328125Q51.519531 2.9492188 51.519531 1.8789062L51.519531 -2.6523438L53.714844 -2.6523438L53.714844 3.9101562Q53.714844 4.9882812 53.777344 5.8007812L51.683594 5.8007812Q51.589844 4.6757812 51.589844 4.1210938L51.550781 4.1210938Q51.113281 5.0820312 50.4375 5.5195312Q49.761719 5.9570312 48.832031 5.9570312Q47.488281 5.9570312 46.769531 5.1328125Q46.050781 4.3085938 46.050781 2.7148438L46.050781 -2.6523438L48.246094 -2.6523438ZM59.488281 9.1914062Q57.941406 9.1914062 57 8.6015625Q56.058594 8.0117188 55.839844 6.9179688L58.035156 6.6601562Q58.152344 7.1679688 58.539062 7.4570312Q58.925781 7.7460938 59.550781 7.7460938Q60.464844 7.7460938 60.886719 7.1835938Q61.308594 6.6210938 61.308594 5.5117188L61.308594 5.0664062L61.324219 4.2304688L61.308594 4.2304688Q60.582031 5.7851562 58.589844 5.7851562Q57.113281 5.7851562 56.300781 4.6757812Q55.488281 3.5664062 55.488281 1.5039062Q55.488281 -0.56640625 56.324219 -1.6914062Q57.160156 -2.8164062 58.753906 -2.8164062Q60.597656 -2.8164062 61.308594 -1.2929688L61.347656 -1.2929688Q61.347656 -1.5664062 61.382812 -2.0351562Q61.417969 -2.5039062 61.457031 -2.6523438L63.535156 -2.6523438Q63.488281 -1.8085938 63.488281 -0.69921875L63.488281 5.5429688Q63.488281 7.3476562 62.464844 8.2695312Q61.441406 9.1914062 59.488281 9.1914062ZM61.324219 1.4570312Q61.324219 0.15234375 60.859375 -0.578125Q60.394531 -1.3085938 59.535156 -1.3085938Q57.777344 -1.3085938 57.777344 1.5039062Q57.777344 4.2617188 59.519531 4.2617188Q60.394531 4.2617188 60.859375 3.53125Q61.324219 2.8007812 61.324219 1.4570312ZM65.722656 -4.1757812L65.722656 -5.7929688L67.917969 -5.7929688L67.917969 -4.1757812L65.722656 -4.1757812ZM65.722656 5.8007812L65.722656 -2.6523438L67.917969 -2.6523438L67.917969 5.8007812L65.722656 5.8007812ZM75.644531 5.8007812L75.644531 1.0585938Q75.644531 -1.1679688 74.136719 -1.1679688Q73.339844 -1.1679688 72.851562 -0.484375Q72.363281 0.19921875 72.363281 1.2695312L72.363281 5.8007812L70.167969 5.8007812L70.167969 -0.76171875Q70.167969 -1.4414062 70.148438 -1.875Q70.128906 -2.3085938 70.105469 -2.6523438L72.199219 -2.6523438Q72.222656 -2.5039062 72.261719 -1.859375Q72.300781 -1.2148438 72.300781 -0.97265625L72.332031 -0.97265625Q72.777344 -1.9414062 73.449219 -2.3789062Q74.121094 -2.8164062 75.050781 -2.8164062Q76.394531 -2.8164062 77.113281 -1.9882812Q77.832031 -1.1601562 77.832031 0.43359375L77.832031 5.8007812L75.644531 5.8007812ZM83.894531 2.6054688L83.894531 0.69921875L87.957031 0.69921875L87.957031 2.6054688L83.894531 2.6054688ZM96.417969 -3.4257812L96.417969 -0.01953125L102.05078 -0.01953125L102.05078 1.7617188L96.417969 1.7617188L96.417969 5.8007812L94.113281 5.8007812L94.113281 -5.2070312L102.23047 -5.2070312L102.23047 -3.4257812L96.417969 -3.4257812ZM114.58984 0.24609375Q114.58984 1.9648438 113.91016 3.2695312Q113.23047 4.5742188 111.96484 5.265625Q110.69922 5.9570312 109.01172 5.9570312Q106.41797 5.9570312 104.94531 4.4296875Q103.47266 2.9023438 103.47266 0.24609375Q103.47266 -2.4023438 104.94141 -3.8867188Q106.41016 -5.3710938 109.02734 -5.3710938Q111.64453 -5.3710938 113.11719 -3.8710938Q114.58984 -2.3710938 114.58984 0.24609375ZM112.23828 0.24609375Q112.23828 -1.5351562 111.39453 -2.546875Q110.55078 -3.5585938 109.02734 -3.5585938Q107.48047 -3.5585938 106.63672 -2.5546875Q105.79297 -1.5507812 105.79297 0.24609375Q105.79297 2.0585938 106.65625 3.1015625Q107.51953 4.1445312 109.01172 4.1445312Q110.55859 4.1445312 111.39844 3.1289062Q112.23828 2.1132812 112.23828 0.24609375ZM123.89453 5.8007812L121.33984 1.6210938L118.63672 1.6210938L118.63672 5.8007812L116.33203 5.8007812L116.33203 -5.2070312L121.83203 -5.2070312Q123.80078 -5.2070312 124.87109 -4.359375Q125.94141 -3.5117188 125.94141 -1.9257812Q125.94141 -0.76953125 125.28516 0.0703125Q124.62891 0.91015625 123.51172 1.1757812L126.48828 5.8007812L123.89453 5.8007812ZM123.62109 -1.8320312Q123.62109 -3.4179688 121.58984 -3.4179688L118.63672 -3.4179688L118.63672 -0.16796875L121.65234 -0.16796875Q122.62109 -0.16796875 123.12109 -0.60546875Q123.62109 -1.0429688 123.62109 -1.8320312ZM137.02734 5.8007812L137.02734 -0.87109375Q137.02734 -1.0976562 137.03125 -1.3242188Q137.03516 -1.5507812 137.10547 -3.2695312Q136.55078 -1.1679688 136.28516 -0.33984375L134.30078 5.8007812L132.66016 5.8007812L130.67578 -0.33984375L129.83984 -3.2695312Q129.93359 -1.4570312 129.93359 -0.87109375L129.93359 5.8007812L127.88672 5.8007812L127.88672 -5.2070312L130.97266 -5.2070312L132.94141 0.94921875L133.11328 1.5429688L133.48828 3.0195312L133.98047 1.2539062L136.00391 -5.2070312L139.07422 -5.2070312L139.07422 5.8007812L137.02734 5.8007812ZM148.99609 5.8007812L148.01953 2.9882812L143.82422 2.9882812L142.84766 5.8007812L140.54297 5.8007812L144.55859 -5.2070312L147.27734 -5.2070312L151.27734 5.8007812L148.99609 5.8007812ZM145.91797 -3.5117188L145.87109 -3.3398438Q145.79297 -3.0585938 145.68359 -2.6992188Q145.57422 -2.3398438 144.33984 1.2539062L147.50391 1.2539062L146.41797 -1.9101562L146.08203 -2.9726562L145.91797 -3.5117188ZM156.55078 -3.4257812L156.55078 5.8007812L154.24609 5.8007812L154.24609 -3.4257812L150.69141 -3.4257812L150.69141 -5.2070312L160.11328 -5.2070312L160.11328 -3.4257812L156.55078 -3.4257812ZM175.61328 0.21484375Q175.61328 1.9179688 174.94531 3.1875Q174.27734 4.4570312 173.05469 5.1289062Q171.83203 5.8007812 170.25391 5.8007812L165.80078 5.8007812L165.80078 -5.2070312L169.78516 -5.2070312Q172.56641 -5.2070312 174.08984 -3.8046875Q175.61328 -2.4023438 175.61328 0.21484375ZM173.29297 0.21484375Q173.29297 -1.5585938 172.37109 -2.4921875Q171.44922 -3.4257812 169.73828 -3.4257812L168.10547 -3.4257812L168.10547 4.0195312L170.05859 4.0195312Q171.54297 4.0195312 172.41797 2.9960938Q173.29297 1.9726562 173.29297 0.21484375ZM185.43359 1.5664062Q185.43359 3.6210938 184.29297 4.7890625Q183.15234 5.9570312 181.13672 5.9570312Q179.16016 5.9570312 178.03516 4.7851562Q176.91016 3.6132812 176.91016 1.5664062Q176.91016 -0.47265625 178.03516 -1.640625Q179.16016 -2.8085938 181.18359 -2.8085938Q183.25391 -2.8085938 184.34375 -1.6796875Q185.43359 -0.55078125 185.43359 1.5664062ZM183.13672 1.5664062Q183.13672 0.05859375 182.64453 -0.62109375Q182.15234 -1.3007812 181.21484 -1.3007812Q179.21484 -1.3007812 179.21484 1.5664062Q179.21484 2.9804688 179.70312 3.71875Q180.19141 4.4570312 181.11328 4.4570312Q183.13672 4.4570312 183.13672 1.5664062ZM196.31641 5.8007812L193.99609 5.8007812L192.65234 0.64453125Q192.55859 0.29296875 192.28516 -1.0898438L191.87891 0.66015625L190.51953 5.8007812L188.19922 5.8007812L186.01172 -2.6523438L188.07422 -2.6523438L189.46484 3.8085938L189.57422 3.2304688L189.76953 2.3164062L191.09766 -2.6523438L193.44922 -2.6523438L194.74609 2.3164062Q194.85547 2.7226562 195.06641 3.8085938L195.28516 2.7773438L196.50391 -2.6523438L198.53516 -2.6523438L196.31641 5.8007812ZM205.09766 5.8007812L205.09766 1.0585938Q205.09766 -1.1679688 203.58984 -1.1679688Q202.79297 -1.1679688 202.30469 -0.484375Q201.81641 0.19921875 201.81641 1.2695312L201.81641 5.8007812L199.62109 5.8007812L199.62109 -0.76171875Q199.62109 -1.4414062 199.60156 -1.875Q199.58203 -2.3085938 199.55859 -2.6523438L201.65234 -2.6523438Q201.67578 -2.5039062 201.71484 -1.859375Q201.75391 -1.2148438 201.75391 -0.97265625L201.78516 -0.97265625Q202.23047 -1.9414062 202.90234 -2.3789062Q203.57422 -2.8164062 204.50391 -2.8164062Q205.84766 -2.8164062 206.56641 -1.9882812Q207.28516 -1.1601562 207.28516 0.43359375L207.28516 5.8007812L205.09766 5.8007812ZM209.39453 5.8007812L209.39453 -5.7929688L211.58984 -5.7929688L211.58984 5.8007812L209.39453 5.8007812ZM221.87109 1.5664062Q221.87109 3.6210938 220.73047 4.7890625Q219.58984 5.9570312 217.57422 5.9570312Q215.59766 5.9570312 214.47266 4.7851562Q213.34766 3.6132812 213.34766 1.5664062Q213.34766 -0.47265625 214.47266 -1.640625Q215.59766 -2.8085938 217.62109 -2.8085938Q219.69141 -2.8085938 220.78125 -1.6796875Q221.87109 -0.55078125 221.87109 1.5664062ZM219.57422 1.5664062Q219.57422 0.05859375 219.08203 -0.62109375Q218.58984 -1.3007812 217.65234 -1.3007812Q215.65234 -1.3007812 215.65234 1.5664062Q215.65234 2.9804688 216.14062 3.71875Q216.62891 4.4570312 217.55078 4.4570312Q219.57422 4.4570312 219.57422 1.5664062ZM225.56641 5.9570312Q224.33984 5.9570312 223.65234 5.2890625Q222.96484 4.6210938 222.96484 3.4101562Q222.96484 2.0976562 223.82031 1.4101562Q224.67578 0.72265625 226.30078 0.70703125L228.12109 0.67578125L228.12109 0.24609375Q228.12109 -0.58203125 227.83203 -0.984375Q227.54297 -1.3867188 226.88672 -1.3867188Q226.27734 -1.3867188 225.99219 -1.109375Q225.70703 -0.83203125 225.63672 -0.19140625L223.34766 -0.30078125Q223.55859 -1.5351562 224.47656 -2.171875Q225.39453 -2.8085938 226.98047 -2.8085938Q228.58203 -2.8085938 229.44922 -2.0195312Q230.31641 -1.2304688 230.31641 0.22265625L230.31641 3.3007812Q230.31641 4.0117188 230.47656 4.28125Q230.63672 4.5507812 231.01172 4.5507812Q231.26172 4.5507812 231.49609 4.5039062L231.49609 5.6914062Q231.30078 5.7382812 231.14453 5.7773438Q230.98828 5.8164062 230.83203 5.8398438Q230.67578 5.8632812 230.5 5.8789062Q230.32422 5.8945312 230.08984 5.8945312Q229.26172 5.8945312 228.86719 5.4882812Q228.47266 5.0820312 228.39453 4.2929688L228.34766 4.2929688Q227.42578 5.9570312 225.56641 5.9570312ZM228.12109 1.8867188L226.99609 1.9023438Q226.23047 1.9335938 225.91016 2.0703125Q225.58984 2.2070312 225.42188 2.4882812Q225.25391 2.7695312 225.25391 3.2382812Q225.25391 3.8398438 225.53125 4.1328125Q225.80859 4.4257812 226.26953 4.4257812Q226.78516 4.4257812 227.21094 4.1445312Q227.63672 3.8632812 227.87891 3.3671875Q228.12109 2.8710938 228.12109 2.3164062L228.12109 1.8867188ZM237.98828 5.8007812Q237.95703 5.6835938 237.91406 5.2109375Q237.87109 4.7382812 237.87109 4.4257812L237.83984 4.4257812Q237.12891 5.9570312 235.13672 5.9570312Q233.66016 5.9570312 232.85547 4.8046875Q232.05078 3.6523438 232.05078 1.5820312Q232.05078 -0.51953125 232.89844 -1.6640625Q233.74609 -2.8085938 235.30078 -2.8085938Q236.19922 -2.8085938 236.85156 -2.4335938Q237.50391 -2.0585938 237.85547 -1.3164062L237.87109 -1.3164062L237.85547 -2.7070312L237.85547 -5.7929688L240.05078 -5.7929688L240.05078 3.9570312Q240.05078 4.7382812 240.11328 5.8007812L237.98828 5.8007812ZM237.88672 1.5273438Q237.88672 0.16015625 237.42969 -0.578125Q236.97266 -1.3164062 236.08203 -1.3164062Q235.19922 -1.3164062 234.76953 -0.6015625Q234.33984 0.11328125 234.33984 1.5820312Q234.33984 4.4570312 236.06641 4.4570312Q236.93359 4.4570312 237.41016 3.6953125Q237.88672 2.9335938 237.88672 1.5273438ZM251.65234 -3.4257812L251.65234 5.8007812L249.34766 5.8007812L249.34766 -3.4257812L245.79297 -3.4257812L245.79297 -5.2070312L255.21484 -5.2070312L255.21484 -3.4257812L251.65234 -3.4257812ZM255.62109 5.8007812L255.62109 -0.66796875Q255.62109 -1.3632812 255.60156 -1.828125Q255.58203 -2.2929688 255.55859 -2.6523438L257.65234 -2.6523438Q257.67578 -2.5117188 257.71484 -1.796875Q257.75391 -1.0820312 257.75391 -0.84765625L257.78516 -0.84765625Q258.10547 -1.7382812 258.35547 -2.1015625Q258.60547 -2.4648438 258.94922 -2.640625Q259.29297 -2.8164062 259.80859 -2.8164062Q260.23047 -2.8164062 260.48828 -2.6992188L260.48828 -0.86328125Q259.95703 -0.98046875 259.55078 -0.98046875Q258.73047 -0.98046875 258.27344 -0.31640625Q257.81641 0.34765625 257.81641 1.6523438L257.81641 5.8007812L255.62109 5.8007812ZM265.30859 5.9570312Q263.40234 5.9570312 262.37891 4.828125Q261.35547 3.6992188 261.35547 1.5351562Q261.35547 -0.55859375 262.39453 -1.6835938Q263.43359 -2.8085938 265.33984 -2.8085938Q267.16016 -2.8085938 268.12109 -1.6015625Q269.08203 -0.39453125 269.08203 1.9335938L269.08203 1.9960938L263.66016 1.9960938Q263.66016 3.2304688 264.11719 3.859375Q264.57422 4.4882812 265.41797 4.4882812Q266.58203 4.4882812 266.88672 3.4804688L268.95703 3.6601562Q268.05859 5.9570312 265.30859 5.9570312ZM265.30859 -1.4257812Q264.53516 -1.4257812 264.11719 -0.88671875Q263.69922 -0.34765625 263.67578 0.62109375L266.95703 0.62109375Q266.89453 -0.40234375 266.46484 -0.9140625Q266.03516 -1.4257812 265.30859 -1.4257812ZM276.22266 5.8007812L276.22266 1.0585938Q276.22266 -1.1679688 274.71484 -1.1679688Q273.91797 -1.1679688 273.42969 -0.484375Q272.94141 0.19921875 272.94141 1.2695312L272.94141 5.8007812L270.74609 5.8007812L270.74609 -0.76171875Q270.74609 -1.4414062 270.72656 -1.875Q270.70703 -2.3085938 270.68359 -2.6523438L272.77734 -2.6523438Q272.80078 -2.5039062 272.83984 -1.859375Q272.87891 -1.2148438 272.87891 -0.97265625L272.91016 -0.97265625Q273.35547 -1.9414062 274.02734 -2.3789062Q274.69922 -2.8164062 275.62891 -2.8164062Q276.97266 -2.8164062 277.69141 -1.9882812Q278.41016 -1.1601562 278.41016 0.43359375L278.41016 5.8007812L276.22266 5.8007812ZM285.99609 5.8007812Q285.96484 5.6835938 285.92188 5.2109375Q285.87891 4.7382812 285.87891 4.4257812L285.84766 4.4257812Q285.13672 5.9570312 283.14453 5.9570312Q281.66797 5.9570312 280.86328 4.8046875Q280.05859 3.6523438 280.05859 1.5820312Q280.05859 -0.51953125 280.90625 -1.6640625Q281.75391 -2.8085938 283.30859 -2.8085938Q284.20703 -2.8085938 284.85938 -2.4335938Q285.51172 -2.0585938 285.86328 -1.3164062L285.87891 -1.3164062L285.86328 -2.7070312L285.86328 -5.7929688L288.05859 -5.7929688L288.05859 3.9570312Q288.05859 4.7382812 288.12109 5.8007812L285.99609 5.8007812ZM285.89453 1.5273438Q285.89453 0.16015625 285.4375 -0.578125Q284.98047 -1.3164062 284.08984 -1.3164062Q283.20703 -1.3164062 282.77734 -0.6015625Q282.34766 0.11328125 282.34766 1.5820312Q282.34766 4.4570312 284.07422 4.4570312Q284.94141 4.4570312 285.41797 3.6953125Q285.89453 2.9335938 285.89453 1.5273438ZM297.41797 3.3320312Q297.41797 4.5585938 296.41406 5.2578125Q295.41016 5.9570312 293.63672 5.9570312Q291.89453 5.9570312 290.96875 5.40625Q290.04297 4.8554688 289.73828 3.6914062L291.66797 3.4023438Q291.83203 4.0039062 292.23438 4.2539062Q292.63672 4.5039062 293.63672 4.5039062Q294.55859 4.5039062 294.98047 4.2695312Q295.40234 4.0351562 295.40234 3.5351562Q295.40234 3.1289062 295.0625 2.890625Q294.72266 2.6523438 293.91016 2.4882812Q292.05078 2.1210938 291.40234 1.8046875Q290.75391 1.4882812 290.41406 0.984375Q290.07422 0.48046875 290.07422 -0.25390625Q290.07422 -1.4648438 291.00781 -2.140625Q291.94141 -2.8164062 293.65234 -2.8164062Q295.16016 -2.8164062 296.07812 -2.2304688Q296.99609 -1.6445312 297.22266 -0.53515625L295.27734 -0.33203125Q295.18359 -0.84765625 294.81641 -1.1015625Q294.44922 -1.3554688 293.65234 -1.3554688Q292.87109 -1.3554688 292.48047 -1.15625Q292.08984 -0.95703125 292.08984 -0.48828125Q292.08984 -0.12109375 292.39062 0.09375Q292.69141 0.30859375 293.40234 0.44921875Q294.39453 0.65234375 295.16406 0.8671875Q295.93359 1.0820312 296.39844 1.3789062Q296.86328 1.6757812 297.14062 2.140625Q297.41797 2.6054688 297.41797 3.3320312Z"/>
	<path fill="none" stroke="black" stroke-width="1" stroke-miterlimit="10" stroke-opacity="0.10196079" d="M49 749.5L1189 749.5"/>
	<clipPath id="cl_64d">
		<rect y="749.20001" width="1200" height="50.799988"/>
	</clipPath>
	<g clip-path="url(#cl_64d)">
		<path fill="#666" transform="translate(49.75 760.2)" d="M-7.4257812 11.300586L-7.4257812 10.404101L-5.3222656 10.404101L-5.3222656 4.0525389L-7.1855469 5.382617L-7.1855469 4.3865232L-5.234375 3.0447264L-4.2617188 3.0447264L-4.2617188 10.404101L-2.2519531 10.404101L-2.2519531 11.300586L-7.4257812 11.300586ZM-0.5703125 11.300586L-0.5703125 10.017383L0.57226562 10.017383L0.57226562 11.300586L-0.5703125 11.300586ZM2.5820312 11.300586L2.5820312 10.404101L4.6855469 10.404101L4.6855469 4.0525389L2.8222656 5.382617L2.8222656 4.3865232L4.7734375 3.0447264L5.7460938 3.0447264L5.7460938 10.404101L7.7558594 10.404101L7.7558594 11.300586L2.5820312 11.300586Z"/>
	</g>
	<clipPath id="cl_64e">
		<rect y="749.20001" width="1200" height="50.799988"/>
	</clipPath>
	<g clip-path="url(#cl_64e)">
		<path fill="#666" transform="translate(1188.66 760.2)" d="M-7.4257812 11.300586L-7.4257812 10.404101L-5.3222656 10.404101L-5.3222656 4.0525389L-7.1855469 5.382617L-7.1855469 4.3865232L-5.234375 3.0447264L-4.2617188 3.0447264L-4.2617188 10.404101L-2.2519531 10.404101L-2.2519531 11.300586L-7.4257812 11.300586ZM-0.5703125 11.300586L-0.5703125 10.017383L0.57226562 10.017383L0.57226562 11.300586L-0.5703125 11.300586ZM2.2714844 11.300586L2.2714844 10.556445Q2.5703125 9.8708982 3.0009766 9.3464842Q3.4316406 8.8220701 3.90625 8.3972654Q4.3808594 7.9724607 4.8466797 7.6091795Q5.3125 7.2458982 5.6875 6.882617Q6.0625 6.5193357 6.2939453 6.1208982Q6.5253906 5.7224607 6.5253906 5.2185545Q6.5253906 4.538867 6.1269531 4.163867Q5.7285156 3.788867 5.0195312 3.788867Q4.3457031 3.788867 3.9091797 4.1550779Q3.4726562 4.5212889 3.3964844 5.1833982L2.3183594 5.0837889Q2.4355469 4.0935545 3.1591797 3.507617Q3.8828125 2.9216795 5.0195312 2.9216795Q6.2675781 2.9216795 6.9384766 3.5105467Q7.609375 4.0994139 7.609375 5.1833982Q7.609375 5.663867 7.3896484 6.1384764Q7.1699219 6.6130857 6.7363281 7.0876951Q6.3027344 7.5623045 5.078125 8.5583982Q4.4042969 9.1091795 4.0058594 9.5515623Q3.6074219 9.9939451 3.4316406 10.404101L7.7382812 10.404101L7.7382812 11.300586L2.2714844 11.300586Z"/>
	</g>
	<path fill="none" stroke="black" stroke-width="1" stroke-miterlimit="10" stroke-opacity="0.10196079" d="M49.5 71L49.5 750"/>
	<clipPath id="cl_650">
		<rect width="49.75" height="800"/>
	</clipPath>
	<g clip-path="url(#cl_650)">
		<path fill="#666" transform="translate(38.75 749.2)" d="M-0.46679688 -0.030273438Q-0.46679688 2.0380859 -1.1962891 3.1279297Q-1.9257812 4.2177734 -3.3496094 4.2177734Q-4.7734375 4.2177734 -5.4882812 3.1337891Q-6.203125 2.0498047 -6.203125 -0.030273438Q-6.203125 -2.1572266 -5.5087891 -3.2177734Q-4.8144531 -4.2783203 -3.3144531 -4.2783203Q-1.8554688 -4.2783203 -1.1611328 -3.2060547Q-0.46679688 -2.1337891 -0.46679688 -0.030273438ZM-1.5390625 -0.030273438Q-1.5390625 -1.8173828 -1.9521484 -2.6201172Q-2.3652344 -3.4228516 -3.3144531 -3.4228516Q-4.2871094 -3.4228516 -4.7119141 -2.6318359Q-5.1367188 -1.8408203 -5.1367188 -0.030273438Q-5.1367188 1.7275391 -4.7060547 2.5419922Q-4.2753906 3.3564453 -3.3378906 3.3564453Q-2.40625 3.3564453 -1.9726562 2.5244141Q-1.5390625 1.6923828 -1.5390625 -0.030273438Z"/>
	</g>
	<clipPath id="cl_651">
		<rect width="49.75" height="800"/>
	</clipPath>
	<g clip-path="url(#cl_651)">
		<path fill="#666" transform="translate(38.75 681.4)" d="M-5.7578125 4.1005859L-5.7578125 3.2041016L-3.6542969 3.2041016L-3.6542969 -3.1474609L-5.5175781 -1.8173828L-5.5175781 -2.8134766L-3.5664062 -4.1552734L-2.59375 -4.1552734L-2.59375 3.2041016L-0.58398438 3.2041016L-0.58398438 4.1005859L-5.7578125 4.1005859Z"/>
	</g>
	<clipPath id="cl_652">
		<rect width="49.75" height="800"/>
	</clipPath>
	<g clip-path="url(#cl_652)">
		<path fill="#666" transform="translate(38.75 613.6)" d="M-6.0683594 4.1005859L-6.0683594 3.3564453Q-5.7695312 2.6708984 -5.3388672 2.1464844Q-4.9082031 1.6220703 -4.4335938 1.1972656Q-3.9589844 0.77246094 -3.4931641 0.40917969Q-3.0273438 0.045898438 -2.6523438 -0.31738281Q-2.2773438 -0.68066406 -2.0458984 -1.0791016Q-1.8144531 -1.4775391 -1.8144531 -1.9814453Q-1.8144531 -2.6611328 -2.2128906 -3.0361328Q-2.6113281 -3.4111328 -3.3203125 -3.4111328Q-3.9941406 -3.4111328 -4.4306641 -3.0449219Q-4.8671875 -2.6787109 -4.9433594 -2.0166016L-6.0214844 -2.1162109Q-5.9042969 -3.1064453 -5.1806641 -3.6923828Q-4.4570312 -4.2783203 -3.3203125 -4.2783203Q-2.0722656 -4.2783203 -1.4013672 -3.6894531Q-0.73046875 -3.1005859 -0.73046875 -2.0166016Q-0.73046875 -1.5361328 -0.95019531 -1.0615234Q-1.1699219 -0.58691406 -1.6035156 -0.11230469Q-2.0371094 0.36230469 -3.2617188 1.3583984Q-3.9355469 1.9091797 -4.3339844 2.3515625Q-4.7324219 2.7939453 -4.9082031 3.2041016L-0.6015625 3.2041016L-0.6015625 4.1005859L-6.0683594 4.1005859Z"/>
	</g>
	<clipPath id="cl_653">
		<rect width="49.75" height="800"/>
	</clipPath>
	<g clip-path="url(#cl_653)">
		<path fill="#666" transform="translate(38.75 545.8)" d="M-0.52539062 1.8212891Q-0.52539062 2.9638672 -1.2519531 3.5908203Q-1.9785156 4.2177734 -3.3261719 4.2177734Q-4.5800781 4.2177734 -5.3271484 3.6523438Q-6.0742188 3.0869141 -6.2148438 1.9794922L-5.125 1.8798828Q-4.9140625 3.3447266 -3.3261719 3.3447266Q-2.5292969 3.3447266 -2.0751953 2.9521484Q-1.6210938 2.5595703 -1.6210938 1.7861328Q-1.6210938 1.1123047 -2.1396484 0.734375Q-2.6582031 0.35644531 -3.6367188 0.35644531L-4.234375 0.35644531L-4.234375 -0.55761719L-3.6601562 -0.55761719Q-2.7929688 -0.55761719 -2.3154297 -0.93554688Q-1.8378906 -1.3134766 -1.8378906 -1.9814453Q-1.8378906 -2.6435547 -2.2275391 -3.0273438Q-2.6171875 -3.4111328 -3.3847656 -3.4111328Q-4.0820312 -3.4111328 -4.5126953 -3.0537109Q-4.9433594 -2.6962891 -5.0136719 -2.0458984L-6.0742188 -2.1279297Q-5.9570312 -3.1416016 -5.2333984 -3.7099609Q-4.5097656 -4.2783203 -3.3730469 -4.2783203Q-2.1308594 -4.2783203 -1.4423828 -3.7011719Q-0.75390625 -3.1240234 -0.75390625 -2.0927734Q-0.75390625 -1.3017578 -1.1962891 -0.80664062Q-1.6386719 -0.31152344 -2.4824219 -0.13574219L-2.4824219 -0.11230469Q-1.5566406 -0.012695312 -1.0410156 0.50878906Q-0.52539062 1.0302734 -0.52539062 1.8212891Z"/>
	</g>
	<clipPath id="cl_654">
		<rect width="49.75" height="800"/>
	</clipPath>
	<g clip-path="url(#cl_654)">
		<path fill="#666" transform="translate(38.75 478)" d="M-1.5097656 2.2314453L-1.5097656 4.1005859L-2.5058594 4.1005859L-2.5058594 2.2314453L-6.3964844 2.2314453L-6.3964844 1.4111328L-2.6171875 -4.1552734L-1.5097656 -4.1552734L-1.5097656 1.3994141L-0.34960938 1.3994141L-0.34960938 2.2314453L-1.5097656 2.2314453ZM-2.5058594 -2.9658203Q-2.5175781 -2.9306641 -2.6699219 -2.6552734Q-2.8222656 -2.3798828 -2.8984375 -2.2685547L-5.0136719 0.84863281L-5.3300781 1.2822266L-5.4238281 1.3994141L-2.5058594 1.3994141L-2.5058594 -2.9658203Z"/>
	</g>
	<clipPath id="cl_655">
		<rect width="49.75" height="800"/>
	</clipPath>
	<g clip-path="url(#cl_655)">
		<path fill="#666" transform="translate(38.75 410.2)" d="M-0.50195312 1.4111328Q-0.50195312 2.7177734 -1.2783203 3.4677734Q-2.0546875 4.2177734 -3.4316406 4.2177734Q-4.5859375 4.2177734 -5.2949219 3.7138672Q-6.0039062 3.2099609 -6.1914062 2.2548828L-5.125 2.1318359Q-4.7910156 3.3564453 -3.4082031 3.3564453Q-2.5585938 3.3564453 -2.078125 2.84375Q-1.5976562 2.3310547 -1.5976562 1.4345703Q-1.5976562 0.65527344 -2.0810547 0.17480469Q-2.5644531 -0.30566406 -3.3847656 -0.30566406Q-3.8125 -0.30566406 -4.1816406 -0.17089844Q-4.5507812 -0.036132812 -4.9199219 0.28613281L-5.9511719 0.28613281L-5.6757812 -4.1552734L-0.98242188 -4.1552734L-0.98242188 -3.2587891L-4.7148438 -3.2587891L-4.8730469 -0.63964844Q-4.1875 -1.1669922 -3.1679688 -1.1669922Q-1.9492188 -1.1669922 -1.2255859 -0.45214844Q-0.50195312 0.26269531 -0.50195312 1.4111328Z"/>
	</g>
	<clipPath id="cl_656">
		<rect width="49.75" height="800"/>
	</clipPath>
	<g clip-path="url(#cl_656)">
		<path fill="#666" transform="translate(38.75 342.4)" d="M-0.52539062 1.3994141Q-0.52539062 2.7060547 -1.234375 3.4619141Q-1.9433594 4.2177734 -3.1914062 4.2177734Q-4.5859375 4.2177734 -5.3242188 3.1806641Q-6.0625 2.1435547 -6.0625 0.16308594Q-6.0625 -1.9814453 -5.2949219 -3.1298828Q-4.5273438 -4.2783203 -3.109375 -4.2783203Q-1.2402344 -4.2783203 -0.75390625 -2.5966797L-1.7617188 -2.4150391Q-2.0722656 -3.4228516 -3.1210938 -3.4228516Q-4.0234375 -3.4228516 -4.5185547 -2.5820312Q-5.0136719 -1.7412109 -5.0136719 -0.14746094Q-4.7265625 -0.68066406 -4.2050781 -0.95898438Q-3.6835938 -1.2373047 -3.0097656 -1.2373047Q-1.8671875 -1.2373047 -1.1962891 -0.52246094Q-0.52539062 0.19238281 -0.52539062 1.3994141ZM-1.5976562 1.4462891Q-1.5976562 0.54980469 -2.0371094 0.063476562Q-2.4765625 -0.42285156 -3.2617188 -0.42285156Q-4 -0.42285156 -4.4541016 0.0078125Q-4.9082031 0.43847656 -4.9082031 1.1943359Q-4.9082031 2.1494141 -4.4365234 2.7587891Q-3.9648438 3.3681641 -3.2265625 3.3681641Q-2.4648438 3.3681641 -2.03125 2.8554688Q-1.5976562 2.3427734 -1.5976562 1.4462891Z"/>
	</g>
	<clipPath id="cl_657">
		<rect width="49.75" height="800"/>
	</clipPath>
	<g clip-path="url(#cl_657)">
		<path fill="#666" transform="translate(38.75 274.6)" d="M-0.6015625 -3.2998047Q-1.8671875 -1.3662109 -2.3886719 -0.27050781Q-2.9101562 0.82519531 -3.1708984 1.8916016Q-3.4316406 2.9580078 -3.4316406 4.1005859L-4.5332031 4.1005859Q-4.5332031 2.5185547 -3.8623047 0.76953125Q-3.1914062 -0.97949219 -1.6210938 -3.2587891L-6.0566406 -3.2587891L-6.0566406 -4.1552734L-0.6015625 -4.1552734L-0.6015625 -3.2998047Z"/>
	</g>
	<clipPath id="cl_658">
		<rect width="49.75" height="800"/>
	</clipPath>
	<g clip-path="url(#cl_658)">
		<path fill="#666" transform="translate(38.75 206.8)" d="M-0.51953125 1.7978516Q-0.51953125 2.9404297 -1.2460938 3.5791016Q-1.9726562 4.2177734 -3.3320312 4.2177734Q-4.65625 4.2177734 -5.4033203 3.5908203Q-6.1503906 2.9638672 -6.1503906 1.8095703Q-6.1503906 1.0009766 -5.6875 0.45019531Q-5.2246094 -0.10058594 -4.5039062 -0.21777344L-4.5039062 -0.24121094Q-5.1777344 -0.39941406 -5.5673828 -0.92675781Q-5.9570312 -1.4541016 -5.9570312 -2.1630859Q-5.9570312 -3.1064453 -5.2509766 -3.6923828Q-4.5449219 -4.2783203 -3.3554688 -4.2783203Q-2.1367188 -4.2783203 -1.4306641 -3.7041016Q-0.72460938 -3.1298828 -0.72460938 -2.1513672Q-0.72460938 -1.4423828 -1.1171875 -0.91503906Q-1.5097656 -0.38769531 -2.1894531 -0.25292969L-2.1894531 -0.22949219Q-1.3984375 -0.10058594 -0.95898438 0.44140625Q-0.51953125 0.98339844 -0.51953125 1.7978516ZM-1.8203125 -2.0927734Q-1.8203125 -3.4931641 -3.3554688 -3.4931641Q-4.0996094 -3.4931641 -4.4892578 -3.1416016Q-4.8789062 -2.7900391 -4.8789062 -2.0927734Q-4.8789062 -1.3837891 -4.4775391 -1.0117188Q-4.0761719 -0.63964844 -3.34375 -0.63964844Q-2.5996094 -0.63964844 -2.2099609 -0.98242188Q-1.8203125 -1.3251953 -1.8203125 -2.0927734ZM-1.6152344 1.6982422Q-1.6152344 0.93066406 -2.0722656 0.54101562Q-2.5292969 0.15136719 -3.3554688 0.15136719Q-4.1582031 0.15136719 -4.609375 0.5703125Q-5.0605469 0.98925781 -5.0605469 1.7216797Q-5.0605469 3.4267578 -3.3203125 3.4267578Q-2.4589844 3.4267578 -2.0371094 3.0136719Q-1.6152344 2.6005859 -1.6152344 1.6982422Z"/>
	</g>
	<clipPath id="cl_659">
		<rect width="49.75" height="800"/>
	</clipPath>
	<g clip-path="url(#cl_659)">
		<path fill="#666" transform="translate(38.75 139)" d="M-0.56640625 -0.19433594Q-0.56640625 1.9326172 -1.3427734 3.0751953Q-2.1191406 4.2177734 -3.5546875 4.2177734Q-4.5214844 4.2177734 -5.1044922 3.8105469Q-5.6875 3.4033203 -5.9394531 2.4951172L-4.9316406 2.3369141Q-4.6152344 3.3681641 -3.5371094 3.3681641Q-2.6289062 3.3681641 -2.1308594 2.5244141Q-1.6328125 1.6806641 -1.609375 0.11621094Q-1.84375 0.64355469 -2.4121094 0.96289062Q-2.9804688 1.2822266 -3.6601562 1.2822266Q-4.7734375 1.2822266 -5.4414062 0.52050781Q-6.109375 -0.24121094 -6.109375 -1.5009766Q-6.109375 -2.7958984 -5.3828125 -3.5371094Q-4.65625 -4.2783203 -3.3613281 -4.2783203Q-1.984375 -4.2783203 -1.2753906 -3.2587891Q-0.56640625 -2.2392578 -0.56640625 -0.19433594ZM-1.7148438 -1.2138672Q-1.7148438 -2.2099609 -2.171875 -2.8164062Q-2.6289062 -3.4228516 -3.3964844 -3.4228516Q-4.1582031 -3.4228516 -4.5976562 -2.9042969Q-5.0371094 -2.3857422 -5.0371094 -1.5009766Q-5.0371094 -0.59863281 -4.5976562 -0.07421875Q-4.1582031 0.45019531 -3.4082031 0.45019531Q-2.9511719 0.45019531 -2.5585938 0.2421875Q-2.1660156 0.034179688 -1.9404297 -0.34667969Q-1.7148438 -0.72753906 -1.7148438 -1.2138672Z"/>
	</g>
	<clipPath id="cl_65a">
		<rect width="49.75" height="800"/>
	</clipPath>
	<g clip-path="url(#cl_65a)">
		<path fill="#666" transform="translate(38.75 71.2)" d="M-12.429688 4.1005859L-12.429688 3.2041016L-10.326172 3.2041016L-10.326172 -3.1474609L-12.189453 -1.8173828L-12.189453 -2.8134766L-10.238281 -4.1552734L-9.265625 -4.1552734L-9.265625 3.2041016L-7.2558594 3.2041016L-7.2558594 4.1005859L-12.429688 4.1005859ZM-0.46484375 -0.030273438Q-0.46484375 2.0380859 -1.1943359 3.1279297Q-1.9238281 4.2177734 -3.3476562 4.2177734Q-4.7714844 4.2177734 -5.4863281 3.1337891Q-6.2011719 2.0498047 -6.2011719 -0.030273438Q-6.2011719 -2.1572266 -5.5068359 -3.2177734Q-4.8125 -4.2783203 -3.3125 -4.2783203Q-1.8535156 -4.2783203 -1.1591797 -3.2060547Q-0.46484375 -2.1337891 -0.46484375 -0.030273438ZM-1.5371094 -0.030273438Q-1.5371094 -1.8173828 -1.9501953 -2.6201172Q-2.3632812 -3.4228516 -3.3125 -3.4228516Q-4.2851562 -3.4228516 -4.7099609 -2.6318359Q-5.1347656 -1.8408203 -5.1347656 -0.030273438Q-5.1347656 1.7275391 -4.7041016 2.5419922Q-4.2734375 3.3564453 -3.3359375 3.3564453Q-2.4042969 3.3564453 -1.9707031 2.5244141Q-1.5371094 1.6923828 -1.5371094 -0.030273438Z"/>
	</g>
	<clipPath id="cl_65c">
		<rect x="43.75" y="65.199997" width="1150.91" height="690"/>
	</clipPath>
	<g clip-path="url(#cl_65c)">
		<path fill="none" stroke="#C32222" stroke-width="2" stroke-miterlimit="10" d="M49.75 749.20001C163.64101 722.08002 1074.769 505.12 1188.66 478"/>
	</g>
	<clipPath id="cl_65d">
		<rect x="43.75" y="65.199997" width="1150.91" height="690"/>
	</clipPath>
	<g clip-path="url(#cl_65d)">
		<path fill="#C32222" fill-opacity="0.2" d="M52.75 749.20001Q52.75 749.34741 52.73555 749.49414Q52.721107 749.64075 52.692352 749.78522Q52.663601 749.92981 52.620815 750.0708Q52.578033 750.21179 52.521633 750.34796Q52.465233 750.48419 52.39576 750.61414Q52.326286 750.74414 52.244404 750.86658Q52.162525 750.98914 52.069027 751.10309Q51.975533 751.21704 51.871319 751.32129Q51.767105 751.42554 51.653179 751.51898Q51.539253 751.61249 51.416706 751.69434Q51.294167 751.77625 51.164188 751.84583Q51.03421 751.91528 50.898048 751.97162Q50.76189 752.02808 50.620857 752.0708Q50.47982 752.11365 50.33527 752.14233Q50.19072 752.17114 50.044052 752.18555Q49.897381 752.20001 49.75 752.20001Q49.602619 752.20001 49.455948 752.18555Q49.309277 752.17114 49.164726 752.14233Q49.02018 752.11365 48.879143 752.0708Q48.73811 752.02802 48.601944 751.97156Q48.465782 751.91522 48.335808 751.84576Q48.205826 751.77631 48.083282 751.6944Q47.960747 751.61255 47.846817 751.51904Q47.732895 751.4256 47.628677 751.32135Q47.524467 751.21716 47.430969 751.10321Q47.337471 750.98926 47.255585 750.8667Q47.173706 750.74414 47.104233 750.6142Q47.03476 750.48425 46.978359 750.34802Q46.921963 750.21191 46.879177 750.07092Q46.836395 749.92987 46.80764 749.78528Q46.778893 749.64075 46.76445 749.49414Q46.75 749.34741 46.75 749.20001Q46.75 749.05273 46.76445 748.90601Q46.778896 748.75928 46.807648 748.61469Q46.836403 748.47015 46.879181 748.3291Q46.921963 748.18811 46.978359 748.05188Q47.03476 747.91577 47.104233 747.78577Q47.173706 747.65582 47.255585 747.5332Q47.337471 747.41071 47.430969 747.29675Q47.524467 747.18286 47.628677 747.07861Q47.732895 746.97443 47.846817 746.88092Q47.960747 746.78735 48.083282 746.70544Q48.205826 746.62366 48.335808 746.5542Q48.465782 746.48474 48.601944 746.42828Q48.73811 746.37195 48.879143 746.32922Q49.02018 746.28644 49.164726 746.25763Q49.309277 746.22888 49.455948 746.21448Q49.602619 746.20007 49.75 746.20001Q49.897381 746.20007 50.044052 746.21454Q50.19072 746.22894 50.335266 746.25769Q50.479816 746.2865 50.620853 746.32922Q50.761887 746.37201 50.898045 746.42834Q51.03421 746.48474 51.164188 746.55426Q51.294167 746.62372 51.416706 746.70557Q51.539253 746.78748 51.653179 746.88104Q51.767105 746.97449 51.871315 747.07867Q51.975533 747.18292 52.069023 747.29681Q52.162521 747.41077 52.2444 747.53326Q52.326279 747.65588 52.395756 747.78577Q52.465233 747.91577 52.521633 748.05188Q52.578033 748.18811 52.620815 748.3291Q52.663597 748.47021 52.692348 748.61475Q52.721107 748.75934 52.73555 748.90601Q52.75 749.05273 52.75 749.20001Z"/>
		<path fill="none" stroke="#C32222" stroke-width="2" stroke-miterlimit="10" d="M52.75 749.20001Q52.75 749.34741 52.73555 749.49414Q52.721107 749.64075 52.692352 749.78522Q52.663601 749.92981 52.620815 750.0708Q52.578033 750.21179 52.521633 750.34796Q52.465233 750.48419 52.39576 750.61414Q52.326286 750.74414 52.244404 750.86658Q52.162525 750.98914 52.069027 751.10309Q51.975533 751.21704 51.871319 751.32129Q51.767105 751.42554 51.653179 751.51898Q51.539253 751.61249 51.416706 751.69434Q51.294167 751.77625 51.164188 751.84583Q51.03421 751.91528 50.898048 751.97162Q50.76189 752.02808 50.620857 752.0708Q50.47982 752.11365 50.33527 752.14233Q50.19072 752.17114 50.044052 752.18555Q49.897381 752.20001 49.75 752.20001Q49.602619 752.20001 49.455948 752.18555Q49.309277 752.17114 49.164726 752.14233Q49.02018 752.11365 48.879143 752.0708Q48.73811 752.02802 48.601944 751.97156Q48.465782 751.91522 48.335808 751.84576Q48.205826 751.77631 48.083282 751.6944Q47.960747 751.61255 47.846817 751.51904Q47.732895 751.4256 47.628677 751.32135Q47.524467 751.21716 47.430969 751.10321Q47.337471 750.98926 47.255585 750.8667Q47.173706 750.74414 47.104233 750.6142Q47.03476 750.48425 46.978359 750.34802Q46.921963 750.21191 46.879177 750.07092Q46.836395 749.92987 46.80764 749.78528Q46.778893 749.64075 46.76445 749.49414Q46.75 749.34741 46.75 749.20001Q46.75 749.05273 46.76445 748.90601Q46.778896 748.75928 46.807648 748.61469Q46.836403 748.47015 46.879181 748.3291Q46.921963 748.18811 46.978359 748.05188Q47.03476 747.91577 47.104233 747.78577Q47.173706 747.65582 47.255585 747.5332Q47.337471 747.41071 47.430969 747.29675Q47.524467 747.18286 47.628677 747.07861Q47.732895 746.97443 47.846817 746.88092Q47.960747 746.78735 48.083282 746.70544Q48.205826 746.62366 48.335808 746.5542Q48.465782 746.48474 48.601944 746.42828Q48.73811 746.37195 48.879143 746.32922Q49.02018 746.28644 49.164726 746.25763Q49.309277 746.22888 49.455948 746.21448Q49.602619 746.20007 49.75 746.20001Q49.897381 746.20007 50.044052 746.21454Q50.19072 746.22894 50.335266 746.25769Q50.479816 746.2865 50.620853 746.32922Q50.761887 746.37201 50.898045 746.42834Q51.03421 746.48474 51.164188 746.55426Q51.294167 746.62372 51.416706 746.70557Q51.539253 746.78748 51.653179 746.88104Q51.767105 746.97449 51.871315 747.07867Q51.975533 747.18292 52.069023 747.29681Q52.162521 747.41077 52.2444 747.53326Q52.326279 747.65588 52.395756 747.78577Q52.465233 747.91577 52.521633 748.05188Q52.578033 748.18811 52.620815 748.3291Q52.663597 748.47021 52.692348 748.61475Q52.721107 748.75934 52.73555 748.90601Q52.75 749.05273 52.75 749.20001Z"/>
		<path fill="#C32222" fill-opacity="0.2" d="M1191.66 478Q1191.66 478.1474 1191.6455 478.29407Q1191.6311 478.44073 1191.6023 478.58524Q1191.5737 478.7298 1191.5309 478.87085Q1191.488 479.01187 1191.4315 479.14801Q1191.3751 479.28418 1191.3057 479.41415Q1191.2362 479.54413 1191.1543 479.66663Q1191.0725 479.78922 1190.9791 479.90314Q1190.8856 480.01709 1190.7812 480.12128Q1190.6771 480.22552 1190.5632 480.31903Q1190.4492 480.41251 1190.3267 480.49435Q1190.2041 480.57626 1190.0742 480.64572Q1189.9441 480.71521 1189.808 480.77158Q1189.6719 480.828 1189.5308 480.87079Q1189.3896 480.91357 1189.2451 480.94232Q1189.1007 480.97113 1188.9541 480.98557Q1188.8075 481 1188.66 481Q1188.5127 481 1188.366 480.98553Q1188.2192 480.97113 1188.0747 480.94232Q1187.9302 480.91357 1187.7892 480.87079Q1187.6482 480.828 1187.5118 480.77158Q1187.3757 480.71521 1187.2457 480.64575Q1187.1157 480.57626 1186.9932 480.49435Q1186.8706 480.41251 1186.7567 480.319Q1186.6428 480.22552 1186.5386 480.12128Q1186.4344 480.01709 1186.3409 479.90317Q1186.2473 479.78925 1186.1654 479.66666Q1186.0835 479.54413 1186.0142 479.41415Q1185.9446 479.28418 1185.8882 479.14801Q1185.8319 479.01187 1185.7891 478.87085Q1185.7463 478.7298 1185.7175 478.58524Q1185.6888 478.44073 1185.6744 478.29407Q1185.66 478.1474 1185.66 478Q1185.66 477.85263 1185.6744 477.70593Q1185.6888 477.55927 1185.7175 477.4147Q1185.7463 477.27017 1185.7892 477.12912Q1185.832 476.9881 1185.8883 476.8519Q1185.9448 476.71576 1186.0142 476.58578Q1186.0837 476.45581 1186.1655 476.33325Q1186.2474 476.21075 1186.3409 476.09683Q1186.4344 475.98291 1186.5386 475.87866Q1186.6428 475.77448 1186.7567 475.68097Q1186.8706 475.58746 1186.9932 475.50555Q1187.1157 475.42371 1187.2457 475.35425Q1187.3757 475.28476 1187.5118 475.22833Q1187.6482 475.17197 1187.7892 475.12918Q1187.9302 475.08643 1188.0747 475.05765Q1188.2192 475.02893 1188.366 475.01447Q1188.5127 475.00003 1188.66 475Q1188.8075 475.00003 1188.9541 475.01447Q1189.1007 475.0289 1189.2451 475.05762Q1189.3896 475.0864 1189.5308 475.12915Q1189.6718 475.17197 1189.8079 475.22833Q1189.9441 475.28476 1190.0741 475.35422Q1190.2041 475.42371 1190.3267 475.50555Q1190.4492 475.58746 1190.5632 475.681Q1190.6771 475.77448 1190.7812 475.87866Q1190.8856 475.98291 1190.9791 476.09683Q1191.0725 476.21075 1191.1543 476.33328Q1191.2362 476.45581 1191.3057 476.58578Q1191.3751 476.71576 1191.4315 476.8519Q1191.488 476.9881 1191.5308 477.12912Q1191.5737 477.27014 1191.6023 477.41467Q1191.6311 477.55927 1191.6455 477.70596Q1191.66 477.85263 1191.66 478Z"/>
		<path fill="none" stroke="#C32222" stroke-width="2" stroke-miterlimit="10" d="M1191.66 478Q1191.66 478.1474 1191.6455 478.29407Q1191.6311 478.44073 1191.6023 478.58524Q1191.5737 478.7298 1191.5309 478.87085Q1191.488 479.01187 1191.4315 479.14801Q1191.3751 479.28418 1191.3057 479.41415Q1191.2362 479.54413 1191.1543 479.66663Q1191.0725 479.78922 1190.9791 479.90314Q1190.8856 480.01709 1190.7812 480.12128Q1190.6771 480.22552 1190.5632 480.31903Q1190.4492 480.41251 1190.3267 480.49435Q1190.2041 480.57626 1190.0742 480.64572Q1189.9441 480.71521 1189.808 480.77158Q1189.6719 480.828 1189.5308 480.87079Q1189.3896 480.91357 1189.2451 480.94232Q1189.1007 480.97113 1188.9541 480.98557Q1188.8075 481 1188.66 481Q1188.5127 481 1188.366 480.98553Q1188.2192 480.97113 1188.0747 480.94232Q1187.9302 480.91357 1187.7892 480.87079Q1187.6482 480.828 1187.5118 480.77158Q1187.3757 480.71521 1187.2457 480.64575Q1187.1157 480.57626 1186.9932 480.49435Q1186.8706 480.41251 1186.7567 480.319Q1186.6428 480.22552 1186.5386 480.12128Q1186.4344 480.01709 1186.3409 479.90317Q1186.2473 479.78925 1186.1654 479.66666Q1186.0835 479.54413 1186.0142 479.41415Q1185.9446 479.28418 1185.8882 479.14801Q1185.8319 479.01187 1185.7891 478.87085Q1185.7463 478.7298 1185.7175 478.58524Q1185.6888 478.44073 1185.6744 478.29407Q1185.66 478.1474 1185.66 478Q1185.66 477.85263 1185.6744 477.70593Q1185.6888 477.55927 1185.7175 477.4147Q1185.7463 477.27017 1185.7892 477.12912Q1185.832 476.9881 1185.8883 476.8519Q1185.9448 476.71576 1186.0142 476.58578Q1186.0837 476.45581 1186.1655 476.33325Q1186.2474 476.21075 1186.3409 476.09683Q1186.4344 475.98291 1186.5386 475.87866Q1186.6428 475.77448 1186.7567 475.68097Q1186.8706 475.58746 1186.9932 475.50555Q1187.1157 475.42371 1187.2457 475.35425Q1187.3757 475.28476 1187.5118 475.22833Q1187.6482 475.17197 1187.7892 475.12918Q1187.9302 475.08643 1188.0747 475.05765Q1188.2192 475.02893 1188.366 475.01447Q1188.5127 475.00003 1188.66 475Q1188.8075 475.00003 1188.9541 475.01447Q1189.1007 475.0289 1189.2451 475.05762Q1189.3896 475.0864 1189.5308 475.12915Q1189.6718 475.17197 1189.8079 475.22833Q1189.9441 475.28476 1190.0741 475.35422Q1190.2041 475.42371 1190.3267 475.50555Q1190.4492 475.58746 1190.5632 475.681Q1190.6771 475.77448 1190.7812 475.87866Q1190.8856 475.98291 1190.9791 476.09683Q1191.0725 476.21075 1191.1543 476.33328Q1191.2362 476.45581 1191.3057 476.58578Q1191.3751 476.71576 1191.4315 476.8519Q1191.488 476.9881 1191.5308 477.12912Q1191.5737 477.27014 1191.6023 477.41467Q1191.6311 477.55927 1191.6455 477.70596Q1191.66 477.85263 1191.66 478Z"/>
	</g>
</svg>
