<?xml version="1.0" encoding="utf-8" ?>
<svg xmlns="http://www.w3.org/2000/svg" xmlns:xlink="http://www.w3.org/1999/xlink" width="1200" height="800">
	<rect fill="white" width="1200" height="800"/>
	<path fill="none" stroke="black" stroke-width="1" stroke-miterlimit="10" stroke-opacity="0.10196079" d="M49.5 71.199997L49.5 749"/>
	<path fill="none" stroke="black" stroke-width="1" stroke-miterlimit="10" stroke-opacity="0.10196079" d="M49.5 750L49.5 757.20001"/>
	<path fill="#666" transform="translate(621.875 788.8)" d="M-26.550781 4.1005859L-28.695312 0.67285156L-31.267578 0.67285156L-31.267578 4.1005859L-32.386719 4.1005859L-32.386719 -4.1552734L-28.501953 -4.1552734Q-27.107422 -4.1552734 -26.348633 -3.53125Q-25.589844 -2.9072266 -25.589844 -1.7939453Q-25.589844 -0.87402344 -26.125977 -0.24707031Q-26.662109 0.37988281 -27.605469 0.54394531L-25.261719 4.1005859L-26.550781 4.1005859ZM-26.714844 -1.7822266Q-26.714844 -2.5029297 -27.204102 -2.8808594Q-27.693359 -3.2587891 -28.613281 -3.2587891L-31.267578 -3.2587891L-31.267578 -0.21191406L-28.566406 -0.21191406Q-27.681641 -0.21191406 -27.198242 -0.625Q-26.714844 -1.0380859 -26.714844 -1.7822266ZM-23.087891 1.1533203Q-23.087891 2.2431641 -22.636719 2.8349609Q-22.185547 3.4267578 -21.318359 3.4267578Q-20.632812 3.4267578 -20.219727 3.1513672Q-19.806641 2.8759766 -19.660156 2.4541016L-18.734375 2.7177734Q-19.302734 4.2177734 -21.318359 4.2177734Q-22.724609 4.2177734 -23.459961 3.3798828Q-24.195312 2.5419922 -24.195312 0.88964844Q-24.195312 -0.68066406 -23.459961 -1.5185547Q-22.724609 -2.3564453 -21.359375 -2.3564453Q-18.564453 -2.3564453 -18.564453 1.0126953L-18.564453 1.1533203L-23.087891 1.1533203ZM-19.654297 0.34472656Q-19.742188 -0.65722656 -20.164062 -1.1171875Q-20.585938 -1.5771484 -21.376953 -1.5771484Q-22.144531 -1.5771484 -22.592773 -1.0644531Q-23.041016 -0.55175781 -23.076172 0.34472656L-19.654297 0.34472656ZM-17.222656 4.1005859L-17.222656 -4.5947266L-16.167969 -4.5947266L-16.167969 4.1005859L-17.222656 4.1005859ZM-13.748047 1.1533203Q-13.748047 2.2431641 -13.296875 2.8349609Q-12.845703 3.4267578 -11.978516 3.4267578Q-11.292969 3.4267578 -10.879883 3.1513672Q-10.466797 2.8759766 -10.320312 2.4541016L-9.3945312 2.7177734Q-9.9628906 4.2177734 -11.978516 4.2177734Q-13.384766 4.2177734 -14.120117 3.3798828Q-14.855469 2.5419922 -14.855469 0.88964844Q-14.855469 -0.68066406 -14.120117 -1.5185547Q-13.384766 -2.3564453 -12.019531 -2.3564453Q-9.2246094 -2.3564453 -9.2246094 1.0126953L-9.2246094 1.1533203L-13.748047 1.1533203ZM-10.314453 0.34472656Q-10.402344 -0.65722656 -10.824219 -1.1171875Q-11.246094 -1.5771484 -12.037109 -1.5771484Q-12.804688 -1.5771484 -13.25293 -1.0644531Q-13.701172 -0.55175781 -13.736328 0.34472656L-10.314453 0.34472656ZM-6.265625 4.2177734Q-7.2207031 4.2177734 -7.7011719 3.7138672Q-8.1816406 3.2099609 -8.1816406 2.3310547Q-8.1816406 1.3466797 -7.5341797 0.81933594Q-6.8867188 0.29199219 -5.4453125 0.25683594L-4.0214844 0.23339844L-4.0214844 -0.11230469Q-4.0214844 -0.88574219 -4.3496094 -1.2197266Q-4.6777344 -1.5537109 -5.3808594 -1.5537109Q-6.0898438 -1.5537109 -6.4121094 -1.3134766Q-6.734375 -1.0732422 -6.7988281 -0.54589844L-7.9003906 -0.64550781Q-7.6308594 -2.3564453 -5.3574219 -2.3564453Q-4.1621094 -2.3564453 -3.5585938 -1.8085938Q-2.9550781 -1.2607422 -2.9550781 -0.22363281L-2.9550781 2.5068359Q-2.9550781 2.9755859 -2.8320312 3.2128906Q-2.7089844 3.4501953 -2.3632812 3.4501953Q-2.2109375 3.4501953 -2.0175781 3.4091797L-2.0175781 4.0654297Q-2.4160156 4.1591797 -2.8320312 4.1591797Q-3.4179688 4.1591797 -3.6845703 3.8515625Q-3.9511719 3.5439453 -3.9863281 2.8876953L-4.0214844 2.8876953Q-4.4257812 3.6142578 -4.9619141 3.9160156Q-5.4980469 4.2177734 -6.265625 4.2177734ZM-6.0253906 3.4267578Q-5.4453125 3.4267578 -4.9941406 3.1630859Q-4.5429688 2.8994141 -4.2822266 2.4394531Q-4.0214844 1.9794922 -4.0214844 1.4931641L-4.0214844 0.97167969L-5.1757812 0.99511719Q-5.9199219 1.0068359 -6.3037109 1.1474609Q-6.6875 1.2880859 -6.8925781 1.5810547Q-7.0976562 1.8740234 -7.0976562 2.3486328Q-7.0976562 2.8642578 -6.8193359 3.1455078Q-6.5410156 3.4267578 -6.0253906 3.4267578ZM3.5488281 2.3486328Q3.5488281 3.2451172 2.8720703 3.7314453Q2.1953125 4.2177734 0.9765625 4.2177734Q-0.20703125 4.2177734 -0.84863281 3.828125Q-1.4902344 3.4384766 -1.6835938 2.6123047L-0.75195312 2.4306641Q-0.6171875 2.9404297 -0.1953125 3.1777344Q0.2265625 3.4150391 0.9765625 3.4150391Q1.7792969 3.4150391 2.1513672 3.1689453Q2.5234375 2.9228516 2.5234375 2.4306641Q2.5234375 2.0556641 2.265625 1.8212891Q2.0078125 1.5869141 1.4335938 1.4345703L0.67773438 1.2353516Q-0.23046875 1.0009766 -0.61425781 0.77539062Q-0.99804688 0.54980469 -1.2148438 0.22753906Q-1.4316406 -0.094726562 -1.4316406 -0.56347656Q-1.4316406 -1.4306641 -0.81347656 -1.8847656Q-0.1953125 -2.3388672 0.98828125 -2.3388672Q2.0371094 -2.3388672 2.6552734 -1.9697266Q3.2734375 -1.6005859 3.4375 -0.78613281L2.4882812 -0.66894531Q2.4003906 -1.0908203 2.0166016 -1.3164062Q1.6328125 -1.5419922 0.98828125 -1.5419922Q0.2734375 -1.5419922 -0.06640625 -1.3251953Q-0.40625 -1.1083984 -0.40625 -0.66894531Q-0.40625 -0.39941406 -0.265625 -0.22363281Q-0.125 -0.047851562 0.15039062 0.075195312Q0.42578125 0.19824219 1.3105469 0.41503906Q2.1484375 0.62597656 2.5175781 0.8046875Q2.8867188 0.98339844 3.1005859 1.2001953Q3.3144531 1.4169922 3.4316406 1.7011719Q3.5488281 1.9853516 3.5488281 2.3486328ZM5.5996094 1.1533203Q5.5996094 2.2431641 6.0507812 2.8349609Q6.5019531 3.4267578 7.3691406 3.4267578Q8.0546875 3.4267578 8.4677734 3.1513672Q8.8808594 2.8759766 9.0273438 2.4541016L9.953125 2.7177734Q9.3847656 4.2177734 7.3691406 4.2177734Q5.9628906 4.2177734 5.2275391 3.3798828Q4.4921875 2.5419922 4.4921875 0.88964844Q4.4921875 -0.68066406 5.2275391 -1.5185547Q5.9628906 -2.3564453 7.328125 -2.3564453Q10.123047 -2.3564453 10.123047 1.0126953L10.123047 1.1533203L5.5996094 1.1533203ZM9.0332031 0.34472656Q8.9453125 -0.65722656 8.5234375 -1.1171875Q8.1015625 -1.5771484 7.3105469 -1.5771484Q6.5429688 -1.5771484 6.0947266 -1.0644531Q5.6464844 -0.55175781 5.6113281 0.34472656L9.0332031 0.34472656ZM17.992188 -3.2412109L17.992188 4.1005859L16.878906 4.1005859L16.878906 -3.2412109L14.042969 -3.2412109L14.042969 -4.1552734L20.828125 -4.1552734L20.828125 -3.2412109L17.992188 -3.2412109ZM22.199219 4.2177734Q21.244141 4.2177734 20.763672 3.7138672Q20.283203 3.2099609 20.283203 2.3310547Q20.283203 1.3466797 20.930664 0.81933594Q21.578125 0.29199219 23.019531 0.25683594L24.443359 0.23339844L24.443359 -0.11230469Q24.443359 -0.88574219 24.115234 -1.2197266Q23.787109 -1.5537109 23.083984 -1.5537109Q22.375 -1.5537109 22.052734 -1.3134766Q21.730469 -1.0732422 21.666016 -0.54589844L20.564453 -0.64550781Q20.833984 -2.3564453 23.107422 -2.3564453Q24.302734 -2.3564453 24.90625 -1.8085938Q25.509766 -1.2607422 25.509766 -0.22363281L25.509766 2.5068359Q25.509766 2.9755859 25.632812 3.2128906Q25.755859 3.4501953 26.101562 3.4501953Q26.253906 3.4501953 26.447266 3.4091797L26.447266 4.0654297Q26.048828 4.1591797 25.632812 4.1591797Q25.046875 4.1591797 24.780273 3.8515625Q24.513672 3.5439453 24.478516 2.8876953L24.443359 2.8876953Q24.039062 3.6142578 23.50293 3.9160156Q22.966797 4.2177734 22.199219 4.2177734ZM22.439453 3.4267578Q23.019531 3.4267578 23.470703 3.1630859Q23.921875 2.8994141 24.182617 2.4394531Q24.443359 1.9794922 24.443359 1.4931641L24.443359 0.97167969L23.289062 0.99511719Q22.544922 1.0068359 22.161133 1.1474609Q21.777344 1.2880859 21.572266 1.5810547Q21.367188 1.8740234 21.367188 2.3486328Q21.367188 2.8642578 21.645508 3.1455078Q21.923828 3.4267578 22.439453 3.4267578ZM29.658203 6.5908203Q28.621094 6.5908203 28.005859 6.1835938Q27.390625 5.7763672 27.214844 5.0263672L28.275391 4.8740234Q28.380859 5.3134766 28.741211 5.5507812Q29.101562 5.7880859 29.6875 5.7880859Q31.263672 5.7880859 31.263672 3.9423828L31.263672 2.9228516L31.251953 2.9228516Q30.953125 3.5322266 30.431641 3.8398438Q29.910156 4.1474609 29.212891 4.1474609Q28.046875 4.1474609 27.499023 3.3740234Q26.951172 2.6005859 26.951172 0.94238281Q26.951172 -0.73925781 27.540039 -1.5390625Q28.128906 -2.3388672 29.330078 -2.3388672Q30.003906 -2.3388672 30.499023 -2.03125Q30.994141 -1.7236328 31.263672 -1.1552734L31.275391 -1.1552734Q31.275391 -1.3310547 31.298828 -1.7646484Q31.322266 -2.1982422 31.345703 -2.2392578L32.347656 -2.2392578Q32.3125 -1.9228516 32.3125 -0.92675781L32.3125 3.9189453Q32.3125 6.5908203 29.658203 6.5908203ZM31.263672 0.93066406Q31.263672 0.15722656 31.052734 -0.40234375Q30.841797 -0.96191406 30.458008 -1.2578125Q30.074219 -1.5537109 29.587891 -1.5537109Q28.779297 -1.5537109 28.410156 -0.96777344Q28.041016 -0.38183594 28.041016 0.93066406Q28.041016 2.2314453 28.386719 2.7998047Q28.732422 3.3681641 29.570312 3.3681641Q30.068359 3.3681641 30.455078 3.0751953Q30.841797 2.7822266 31.052734 2.234375Q31.263672 1.6865234 31.263672 0.93066406Z"/>
	<path fill="none" stroke="black" stroke-width="1" stroke-miterlimit="10" stroke-opacity="0.10196079" d="M50 749.5L1194 749.5"/>
	<path fill="none" stroke="black" stroke-width="1" stroke-miterlimit="10" stroke-opacity="0.10196079" d="M41.75 749.5L49 749.5"/>
	<path fill="none" stroke="black" stroke-width="1" stroke-miterlimit="10" stroke-opacity="0.10196079" d="M50 681.5L1194 681.5"/>
	<path fill="none" stroke="black" stroke-width="1" stroke-miterlimit="10" stroke-opacity="0.10196079" d="M41.75 681.5L49 681.5"/>
	<path fill="none" stroke="black" stroke-width="1" stroke-miterlimit="10" stroke-opacity="0.10196079" d="M50 613.5L1194 613.5"/>
	<path fill="none" stroke="black" stroke-width="1" stroke-miterlimit="10" stroke-opacity="0.10196079" d="M41.75 613.5L49 613.5"/>
	<path fill="none" stroke="black" stroke-width="1" stroke-miterlimit="10" stroke-opacity="0.10196079" d="M50 545.5L1194 545.5"/>
	<path fill="none" stroke="black" stroke-width="1" stroke-miterlimit="10" stroke-opacity="0.10196079" d="M41.75 545.5L49 545.5"/>
	<path fill="none" stroke="black" stroke-width="1" stroke-miterlimit="10" stroke-opacity="0.10196079" d="M50 478.5L1194 478.5"/>
	<path fill="none" stroke="black" stroke-width="1" stroke-miterlimit="10" stroke-opacity="0.10196079" d="M41.75 478.5L49 478.5"/>
	<path fill="none" stroke="black" stroke-width="1" stroke-miterlimit="10" stroke-opacity="0.10196079" d="M50 410.5L1194 410.5"/>
	<path fill="none" stroke="black" stroke-width="1" stroke-miterlimit="10" stroke-opacity="0.10196079" d="M41.75 410.5L49 410.5"/>
	<path fill="none" stroke="black" stroke-width="1" stroke-miterlimit="10" stroke-opacity="0.10196079" d="M50 342.5L1194 342.5"/>
	<path fill="none" stroke="black" stroke-width="1" stroke-miterlimit="10" stroke-opacity="0.10196079" d="M41.75 342.5L49 342.5"/>
	<path fill="none" stroke="black" stroke-width="1" stroke-miterlimit="10" stroke-opacity="0.10196079" d="M50 274.5L1194 274.5"/>
	<path fill="none" stroke="black" stroke-width="1" stroke-miterlimit="10" stroke-opacity="0.10196079" d="M41.75 274.5L49 274.5"/>
	<path fill="none" stroke="black" stroke-width="1" stroke-miterlimit="10" stroke-opacity="0.10196079" d="M50 206.5L1194 206.5"/>
	<path fill="none" stroke="black" stroke-width="1" stroke-miterlimit="10" stroke-opacity="0.10196079" d="M41.75 206.5L49 206.5"/>
	<path fill="none" stroke="black" stroke-width="1" stroke-miterlimit="10" stroke-opacity="0.10196079" d="M50 139.5L1194 139.5"/>
	<path fill="none" stroke="black" stroke-width="1" stroke-miterlimit="10" stroke-opacity="0.10196079" d="M41.75 139.5L49 139.5"/>
	<path fill="none" stroke="black" stroke-width="1" stroke-miterlimit="10" stroke-opacity="0.10196079" d="M50 71.5L1194 71.5"/>
	<path fill="none" stroke="black" stroke-width="1" stroke-miterlimit="10" stroke-opacity="0.10196079" d="M41.75 71.5L49 71.5"/>
	<path fill="#666" transform="matrix(0 -1 1 0 11.2 410.2)" d="M-21.591797 -0.11230469Q-21.591797 1.1650391 -22.089844 2.1230469Q-22.587891 3.0810547 -23.501953 3.5908203Q-24.416016 4.1005859 -25.611328 4.1005859L-28.699219 4.1005859L-28.699219 -4.1552734L-25.96875 -4.1552734Q-23.871094 -4.1552734 -22.731445 -3.1035156Q-21.591797 -2.0517578 -21.591797 -0.11230469ZM-22.716797 -0.11230469Q-22.716797 -1.6474609 -23.557617 -2.453125Q-24.398438 -3.2587891 -25.992188 -3.2587891L-27.580078 -3.2587891L-27.580078 3.2041016L-25.740234 3.2041016Q-24.832031 3.2041016 -24.143555 2.8056641Q-23.455078 2.4072266 -23.085938 1.6572266Q-22.716797 0.90722656 -22.716797 -0.11230469ZM-14.847656 0.92480469Q-14.847656 2.5888672 -15.580078 3.4033203Q-16.3125 4.2177734 -17.707031 4.2177734Q-19.095703 4.2177734 -19.804688 3.3710938Q-20.513672 2.5244141 -20.513672 0.92480469Q-20.513672 -2.3564453 -17.671875 -2.3564453Q-16.21875 -2.3564453 -15.533203 -1.5566406Q-14.847656 -0.75683594 -14.847656 0.92480469ZM-15.955078 0.92480469Q-15.955078 -0.38769531 -16.344727 -0.98242188Q-16.734375 -1.5771484 -17.654297 -1.5771484Q-18.580078 -1.5771484 -18.993164 -0.97070312Q-19.40625 -0.36425781 -19.40625 0.92480469Q-19.40625 2.1787109 -18.999023 2.8085938Q-18.591797 3.4384766 -17.71875 3.4384766Q-16.769531 3.4384766 -16.362305 2.8291016Q-15.955078 2.2197266 -15.955078 0.92480469ZM-7.4648438 4.1005859L-8.6894531 4.1005859L-9.796875 -0.38183594L-10.007812 -1.3720703Q-10.060547 -1.1083984 -10.171875 -0.61328125Q-10.283203 -0.11816406 -11.367188 4.1005859L-12.585938 4.1005859L-14.361328 -2.2392578L-13.318359 -2.2392578L-12.246094 2.0673828Q-12.205078 2.2080078 -11.994141 3.2275391L-11.894531 2.7939453L-10.570312 -2.2392578L-9.4394531 -2.2392578L-8.3320312 2.1142578L-8.0625 3.2275391L-7.8808594 2.4130859L-6.6796875 -2.2392578L-5.6484375 -2.2392578L-7.4648438 4.1005859ZM-0.84375 4.1005859L-0.84375 0.081054688Q-0.84375 -0.54589844 -0.96679688 -0.89160156Q-1.0898438 -1.2373047 -1.359375 -1.3896484Q-1.6289062 -1.5419922 -2.1503906 -1.5419922Q-2.9121094 -1.5419922 -3.3515625 -1.0205078Q-3.7910156 -0.49902344 -3.7910156 0.42675781L-3.7910156 4.1005859L-4.8457031 4.1005859L-4.8457031 -0.88574219Q-4.8457031 -1.9931641 -4.8808594 -2.2392578L-3.8847656 -2.2392578Q-3.8789062 -2.2099609 -3.8730469 -2.0810547Q-3.8671875 -1.9521484 -3.8583984 -1.7851562Q-3.8496094 -1.6181641 -3.8378906 -1.1552734L-3.8203125 -1.1552734Q-3.4570312 -1.8115234 -2.9794922 -2.0839844Q-2.5019531 -2.3564453 -1.7929688 -2.3564453Q-0.75 -2.3564453 -0.26660156 -1.8378906Q0.21679688 -1.3193359 0.21679688 -0.12402344L0.21679688 4.1005859L-0.84375 4.1005859ZM1.8046875 4.1005859L1.8046875 -4.5947266L2.859375 -4.5947266L2.859375 4.1005859L1.8046875 4.1005859ZM9.8320312 0.92480469Q9.8320312 2.5888672 9.0996094 3.4033203Q8.3671875 4.2177734 6.9726562 4.2177734Q5.5839844 4.2177734 4.875 3.3710938Q4.1660156 2.5244141 4.1660156 0.92480469Q4.1660156 -2.3564453 7.0078125 -2.3564453Q8.4609375 -2.3564453 9.1464844 -1.5566406Q9.8320312 -0.75683594 9.8320312 0.92480469ZM8.7246094 0.92480469Q8.7246094 -0.38769531 8.3349609 -0.98242188Q7.9453125 -1.5771484 7.0253906 -1.5771484Q6.0996094 -1.5771484 5.6865234 -0.97070312Q5.2734375 -0.36425781 5.2734375 0.92480469Q5.2734375 2.1787109 5.6806641 2.8085938Q6.0878906 3.4384766 6.9609375 3.4384766Q7.9101562 3.4384766 8.3173828 2.8291016Q8.7246094 2.2197266 8.7246094 0.92480469ZM12.761719 4.2177734Q11.806641 4.2177734 11.326172 3.7138672Q10.845703 3.2099609 10.845703 2.3310547Q10.845703 1.3466797 11.493164 0.81933594Q12.140625 0.29199219 13.582031 0.25683594L15.005859 0.23339844L15.005859 -0.11230469Q15.005859 -0.88574219 14.677734 -1.2197266Q14.349609 -1.5537109 13.646484 -1.5537109Q12.9375 -1.5537109 12.615234 -1.3134766Q12.292969 -1.0732422 12.228516 -0.54589844L11.126953 -0.64550781Q11.396484 -2.3564453 13.669922 -2.3564453Q14.865234 -2.3564453 15.46875 -1.8085938Q16.072266 -1.2607422 16.072266 -0.22363281L16.072266 2.5068359Q16.072266 2.9755859 16.195312 3.2128906Q16.318359 3.4501953 16.664062 3.4501953Q16.816406 3.4501953 17.009766 3.4091797L17.009766 4.0654297Q16.611328 4.1591797 16.195312 4.1591797Q15.609375 4.1591797 15.342773 3.8515625Q15.076172 3.5439453 15.041016 2.8876953L15.005859 2.8876953Q14.601562 3.6142578 14.06543 3.9160156Q13.529297 4.2177734 12.761719 4.2177734ZM13.001953 3.4267578Q13.582031 3.4267578 14.033203 3.1630859Q14.484375 2.8994141 14.745117 2.4394531Q15.005859 1.9794922 15.005859 1.4931641L15.005859 0.97167969L13.851562 0.99511719Q13.107422 1.0068359 12.723633 1.1474609Q12.339844 1.2880859 12.134766 1.5810547Q11.929688 1.8740234 11.929688 2.3486328Q11.929688 2.8642578 12.208008 3.1455078Q12.486328 3.4267578 13.001953 3.4267578ZM21.820312 3.0810547Q21.527344 3.6904297 21.043945 3.9541016Q20.560547 4.2177734 19.845703 4.2177734Q18.644531 4.2177734 18.079102 3.4091797Q17.513672 2.6005859 17.513672 0.95996094Q17.513672 -2.3564453 19.845703 -2.3564453Q20.566406 -2.3564453 21.046875 -2.0927734Q21.527344 -1.8291016 21.820312 -1.2548828L21.832031 -1.2548828L21.820312 -1.9638672L21.820312 -4.5947266L22.875 -4.5947266L22.875 2.7939453Q22.875 3.7841797 22.910156 4.1005859L21.902344 4.1005859Q21.884766 4.0068359 21.864258 3.6669922Q21.84375 3.3271484 21.84375 3.0810547L21.820312 3.0810547ZM18.621094 0.92480469Q18.621094 2.2548828 18.972656 2.8291016Q19.324219 3.4033203 20.115234 3.4033203Q21.011719 3.4033203 21.416016 2.7822266Q21.820312 2.1611328 21.820312 0.85449219Q21.820312 -0.40527344 21.416016 -0.99121094Q21.011719 -1.5771484 20.126953 -1.5771484Q19.330078 -1.5771484 18.975586 -0.98828125Q18.621094 -0.39941406 18.621094 0.92480469ZM29.25 2.3486328Q29.25 3.2451172 28.573242 3.7314453Q27.896484 4.2177734 26.677734 4.2177734Q25.494141 4.2177734 24.852539 3.828125Q24.210938 3.4384766 24.017578 2.6123047L24.949219 2.4306641Q25.083984 2.9404297 25.505859 3.1777344Q25.927734 3.4150391 26.677734 3.4150391Q27.480469 3.4150391 27.852539 3.1689453Q28.224609 2.9228516 28.224609 2.4306641Q28.224609 2.0556641 27.966797 1.8212891Q27.708984 1.5869141 27.134766 1.4345703L26.378906 1.2353516Q25.470703 1.0009766 25.086914 0.77539062Q24.703125 0.54980469 24.486328 0.22753906Q24.269531 -0.094726562 24.269531 -0.56347656Q24.269531 -1.4306641 24.887695 -1.8847656Q25.505859 -2.3388672 26.689453 -2.3388672Q27.738281 -2.3388672 28.356445 -1.9697266Q28.974609 -1.6005859 29.138672 -0.78613281L28.189453 -0.66894531Q28.101562 -1.0908203 27.717773 -1.3164062Q27.333984 -1.5419922 26.689453 -1.5419922Q25.974609 -1.5419922 25.634766 -1.3251953Q25.294922 -1.1083984 25.294922 -0.66894531Q25.294922 -0.39941406 25.435547 -0.22363281Q25.576172 -0.047851562 25.851562 0.075195312Q26.126953 0.19824219 27.011719 0.41503906Q27.849609 0.62597656 28.21875 0.8046875Q28.587891 0.98339844 28.801758 1.2001953Q29.015625 1.4169922 29.132812 1.7011719Q29.25 1.9853516 29.25 2.3486328Z"/>
	<clipPath id="cl_71">
		<rect y="39.200001" width="1200" height="31.999996"/>
	</clipPath>
	<g clip-path="url(#cl_71)">
		<path fill="#C32222" fill-opacity="0.2" d="M569.33002 49.200001L609.33002 49.200001L609.33002 61.200001L569.33002 61.200001L569.33002 49.200001Z"/>
		<path fill="none" stroke="#C32222" stroke-width="2" stroke-miterlimit="10" d="M569.33002 49.200001L609.33002 49.200001L609.33002 61.200001L569.33002 61.200001L569.33002 49.200001Z"/>
	</g>
	<clipPath id="cl_72">
		<rect y="39.200001" width="1200" height="31.999996"/>
	</clipPath>
	<g clip-path="url(#cl_72)">
		<path fill="#666" d="M615.81635 59.300587L615.81635 58.497852L619.36127 53.775196L616.01556 53.775196L616.01556 52.960743L620.60931 52.960743L620.60931 53.763477L617.05853 58.486134L620.73236 58.486134L620.73236 59.300587L615.81635 59.300587ZM622.13275 51.613087L622.13275 50.605274L623.18744 50.605274L623.18744 51.613087L622.13275 51.613087ZM622.13275 59.300587L622.13275 52.960743L623.18744 52.960743L623.18744 59.300587L622.13275 59.300587ZM630.16595 56.101368Q630.16595 59.417774 627.83392 59.417774Q626.36908 59.417774 625.86517 58.316212L625.83588 58.316212Q625.85931 58.363087 625.85931 59.312305L625.85931 61.790821L624.80463 61.790821L624.80463 54.255665Q624.80463 53.277149 624.76947 52.960743L625.789 52.960743Q625.79486 52.98418 625.80658 53.127735Q625.8183 53.27129 625.83295 53.570118Q625.8476 53.868946 625.8476 53.980274L625.87103 53.980274Q626.15228 53.394337 626.61517 53.121876Q627.07806 52.849415 627.83392 52.849415Q629.0058 52.849415 629.58588 53.634571Q630.16595 54.419727 630.16595 56.101368ZM629.05853 56.124805Q629.05853 54.800587 628.70111 54.232227Q628.34369 53.663868 627.56439 53.663868Q626.93744 53.663868 626.58295 53.92754Q626.22845 54.191212 626.04388 54.750782Q625.85931 55.310352 625.85931 56.206837Q625.85931 57.454884 626.25775 58.04668Q626.65619 58.638477 627.55267 58.638477Q628.33783 58.638477 628.69818 58.061329Q629.05853 57.48418 629.05853 56.124805Z"/>
	</g>
	<path fill="#666" transform="translate(600 19.6)" d="M-297.44531 3.3320312Q-297.44531 4.5585938 -298.44922 5.2578125Q-299.45312 5.9570312 -301.22656 5.9570312Q-302.96875 5.9570312 -303.89453 5.40625Q-304.82031 4.8554688 -305.125 3.6914062L-303.19531 3.4023438Q-303.03125 4.0039062 -302.62891 4.2539062Q-302.22656 4.5039062 -301.22656 4.5039062Q-300.30469 4.5039062 -299.88281 4.2695312Q-299.46094 4.0351562 -299.46094 3.5351562Q-299.46094 3.1289062 -299.80078 2.890625Q-300.14062 2.6523438 -300.95312 2.4882812Q-302.8125 2.1210938 -303.46094 1.8046875Q-304.10938 1.4882812 -304.44922 0.984375Q-304.78906 0.48046875 -304.78906 -0.25390625Q-304.78906 -1.4648438 -303.85547 -2.140625Q-302.92188 -2.8164062 -301.21094 -2.8164062Q-299.70312 -2.8164062 -298.78516 -2.2304688Q-297.86719 -1.6445312 -297.64062 -0.53515625L-299.58594 -0.33203125Q-299.67969 -0.84765625 -300.04688 -1.1015625Q-300.41406 -1.3554688 -301.21094 -1.3554688Q-301.99219 -1.3554688 -302.38281 -1.15625Q-302.77344 -0.95703125 -302.77344 -0.48828125Q-302.77344 -0.12109375 -302.47266 0.09375Q-302.17188 0.30859375 -301.46094 0.44921875Q-300.46875 0.65234375 -299.69922 0.8671875Q-298.92969 1.0820312 -298.46484 1.3789062Q-298 1.6757812 -297.72266 2.140625Q-297.44531 2.6054688 -297.44531 3.3320312ZM-293.71875 5.9570312Q-294.94531 5.9570312 -295.63281 5.2890625Q-296.32031 4.6210938 -296.32031 3.4101562Q-296.32031 2.0976562 -295.46484 1.4101562Q-294.60938 0.72265625 -292.98438 0.70703125L-291.16406 0.67578125L-291.16406 0.24609375Q-291.16406 -0.58203125 -291.45312 -0.984375Q-291.74219 -1.3867188 -292.39844 -1.3867188Q-293.00781 -1.3867188 -293.29297 -1.109375Q-293.57812 -0.83203125 -293.64844 -0.19140625L-295.9375 -0.30078125Q-295.72656 -1.5351562 -294.80859 -2.171875Q-293.89062 -2.8085938 -292.30469 -2.8085938Q-290.70312 -2.8085938 -289.83594 -2.0195312Q-288.96875 -1.2304688 -288.96875 0.22265625L-288.96875 3.3007812Q-288.96875 4.0117188 -288.80859 4.28125Q-288.64844 4.5507812 -288.27344 4.5507812Q-288.02344 4.5507812 -287.78906 4.5039062L-287.78906 5.6914062Q-287.98438 5.7382812 -288.14062 5.7773438Q-288.29688 5.8164062 -288.45312 5.8398438Q-288.60938 5.8632812 -288.78516 5.8789062Q-288.96094 5.8945312 -289.19531 5.8945312Q-290.02344 5.8945312 -290.41797 5.4882812Q-290.8125 5.0820312 -290.89062 4.2929688L-290.9375 4.2929688Q-291.85938 5.9570312 -293.71875 5.9570312ZM-291.16406 1.8867188L-292.28906 1.9023438Q-293.05469 1.9335938 -293.375 2.0703125Q-293.69531 2.2070312 -293.86328 2.4882812Q-294.03125 2.7695312 -294.03125 3.2382812Q-294.03125 3.8398438 -293.75391 4.1328125Q-293.47656 4.4257812 -293.01562 4.4257812Q-292.5 4.4257812 -292.07422 4.1445312Q-291.64844 3.8632812 -291.40625 3.3671875Q-291.16406 2.8710938 -291.16406 2.3164062L-291.16406 1.8867188ZM-286.77344 -4.1757812L-286.77344 -5.7929688L-284.57812 -5.7929688L-284.57812 -4.1757812L-286.77344 -4.1757812ZM-286.77344 5.8007812L-286.77344 -2.6523438L-284.57812 -2.6523438L-284.57812 5.8007812L-286.77344 5.8007812ZM-282.32812 5.8007812L-282.32812 -5.7929688L-280.13281 -5.7929688L-280.13281 5.8007812L-282.32812 5.8007812ZM-269.88281 1.5351562Q-269.88281 3.6523438 -270.73047 4.8046875Q-271.57812 5.9570312 -273.125 5.9570312Q-274.01562 5.9570312 -274.67578 5.5703125Q-275.33594 5.1835938 -275.6875 4.4570312L-275.73438 4.4570312Q-275.6875 4.6914062 -275.6875 5.8789062L-275.6875 9.1210938L-277.88281 9.1210938L-277.88281 -0.70703125Q-277.88281 -1.9023438 -277.94531 -2.6523438L-275.8125 -2.6523438Q-275.77344 -2.5117188 -275.74609 -2.0976562Q-275.71875 -1.6835938 -275.71875 -1.2773438L-275.6875 -1.2773438Q-274.94531 -2.8320312 -272.98438 -2.8320312Q-271.50781 -2.8320312 -270.69531 -1.6953125Q-269.88281 -0.55859375 -269.88281 1.5351562ZM-272.17188 1.5351562Q-272.17188 -1.3085938 -273.91406 -1.3085938Q-274.78906 -1.3085938 -275.25391 -0.54296875Q-275.71875 0.22265625 -275.71875 1.5976562Q-275.71875 2.9648438 -275.25391 3.7109375Q-274.78906 4.4570312 -273.92969 4.4570312Q-272.17188 4.4570312 -272.17188 1.5351562ZM-260.07812 1.5664062Q-260.07812 3.6210938 -261.21875 4.7890625Q-262.35938 5.9570312 -264.375 5.9570312Q-266.35156 5.9570312 -267.47656 4.7851562Q-268.60156 3.6132812 -268.60156 1.5664062Q-268.60156 -0.47265625 -267.47656 -1.640625Q-266.35156 -2.8085938 -264.32812 -2.8085938Q-262.25781 -2.8085938 -261.16797 -1.6796875Q-260.07812 -0.55078125 -260.07812 1.5664062ZM-262.375 1.5664062Q-262.375 0.05859375 -262.86719 -0.62109375Q-263.35938 -1.3007812 -264.29688 -1.3007812Q-266.29688 -1.3007812 -266.29688 1.5664062Q-266.29688 2.9804688 -265.80859 3.71875Q-265.32031 4.4570312 -264.39844 4.4570312Q-262.375 4.4570312 -262.375 1.5664062ZM-258.33594 -4.1757812L-258.33594 -5.7929688L-256.14062 -5.7929688L-256.14062 -4.1757812L-258.33594 -4.1757812ZM-258.33594 5.8007812L-258.33594 -2.6523438L-256.14062 -2.6523438L-256.14062 5.8007812L-258.33594 5.8007812ZM-248.41406 5.8007812L-248.41406 1.0585938Q-248.41406 -1.1679688 -249.92188 -1.1679688Q-250.71875 -1.1679688 -251.20703 -0.484375Q-251.69531 0.19921875 -251.69531 1.2695312L-251.69531 5.8007812L-253.89062 5.8007812L-253.89062 -0.76171875Q-253.89062 -1.4414062 -253.91016 -1.875Q-253.92969 -2.3085938 -253.95312 -2.6523438L-251.85938 -2.6523438Q-251.83594 -2.5039062 -251.79688 -1.859375Q-251.75781 -1.2148438 -251.75781 -0.97265625L-251.72656 -0.97265625Q-251.28125 -1.9414062 -250.60938 -2.3789062Q-249.9375 -2.8164062 -249.00781 -2.8164062Q-247.66406 -2.8164062 -246.94531 -1.9882812Q-246.22656 -1.1601562 -246.22656 0.43359375L-246.22656 5.8007812L-248.41406 5.8007812ZM-241.95312 5.9414062Q-242.92188 5.9414062 -243.44531 5.4140625Q-243.96875 4.8867188 -243.96875 3.8164062L-243.96875 -1.1679688L-245.03906 -1.1679688L-245.03906 -2.6523438L-243.85938 -2.6523438L-243.17188 -4.6367188L-241.79688 -4.6367188L-241.79688 -2.6523438L-240.19531 -2.6523438L-240.19531 -1.1679688L-241.79688 -1.1679688L-241.79688 3.2226562Q-241.79688 3.8398438 -241.5625 4.1328125Q-241.32812 4.4257812 -240.83594 4.4257812Q-240.57812 4.4257812 -240.10156 4.3164062L-240.10156 5.6757812Q-240.91406 5.9414062 -241.95312 5.9414062ZM-239.28125 2.6054688L-239.28125 0.69921875L-235.21875 0.69921875L-235.21875 2.6054688L-239.28125 2.6054688ZM-225.42969 1.5664062Q-225.42969 3.6210938 -226.57031 4.7890625Q-227.71094 5.9570312 -229.72656 5.9570312Q-231.70312 5.9570312 -232.82812 4.7851562Q-233.95312 3.6132812 -233.95312 1.5664062Q-233.95312 -0.47265625 -232.82812 -1.640625Q-231.70312 -2.8085938 -229.67969 -2.8085938Q-227.60938 -2.8085938 -226.51953 -1.6796875Q-225.42969 -0.55078125 -225.42969 1.5664062ZM-227.72656 1.5664062Q-227.72656 0.05859375 -228.21875 -0.62109375Q-228.71094 -1.3007812 -229.64844 -1.3007812Q-231.64844 -1.3007812 -231.64844 1.5664062Q-231.64844 2.9804688 -231.16016 3.71875Q-230.67188 4.4570312 -229.75 4.4570312Q-227.72656 4.4570312 -227.72656 1.5664062ZM-216.5625 3.3320312Q-216.5625 4.5585938 -217.56641 5.2578125Q-218.57031 5.9570312 -220.34375 5.9570312Q-222.08594 5.9570312 -223.01172 5.40625Q-223.9375 4.8554688 -224.24219 3.6914062L-222.3125 3.4023438Q-222.14844 4.0039062 -221.74609 4.2539062Q-221.34375 4.5039062 -220.34375 4.5039062Q-219.42188 4.5039062 -219 4.2695312Q-218.57812 4.0351562 -218.57812 3.5351562Q-218.57812 3.1289062 -218.91797 2.890625Q-219.25781 2.6523438 -220.07031 2.4882812Q-221.92969 2.1210938 -222.57812 1.8046875Q-223.22656 1.4882812 -223.56641 0.984375Q-223.90625 0.48046875 -223.90625 -0.25390625Q-223.90625 -1.4648438 -222.97266 -2.140625Q-222.03906 -2.8164062 -220.32812 -2.8164062Q-218.82031 -2.8164062 -217.90234 -2.2304688Q-216.98438 -1.6445312 -216.75781 -0.53515625L-218.70312 -0.33203125Q-218.79688 -0.84765625 -219.16406 -1.1015625Q-219.53125 -1.3554688 -220.32812 -1.3554688Q-221.10938 -1.3554688 -221.5 -1.15625Q-221.89062 -0.95703125 -221.89062 -0.48828125Q-221.89062 -0.12109375 -221.58984 0.09375Q-221.28906 0.30859375 -220.57812 0.44921875Q-219.58594 0.65234375 -218.81641 0.8671875Q-218.04688 1.0820312 -217.58203 1.3789062Q-217.11719 1.6757812 -216.83984 2.140625Q-216.5625 2.6054688 -216.5625 3.3320312ZM-207.66406 3.3320312Q-207.66406 4.5585938 -208.66797 5.2578125Q-209.67188 5.9570312 -211.44531 5.9570312Q-213.1875 5.9570312 -214.11328 5.40625Q-215.03906 4.8554688 -215.34375 3.6914062L-213.41406 3.4023438Q-213.25 4.0039062 -212.84766 4.2539062Q-212.44531 4.5039062 -211.44531 4.5039062Q-210.52344 4.5039062 -210.10156 4.2695312Q-209.67969 4.0351562 -209.67969 3.5351562Q-209.67969 3.1289062 -210.01953 2.890625Q-210.35938 2.6523438 -211.17188 2.4882812Q-213.03125 2.1210938 -213.67969 1.8046875Q-214.32812 1.4882812 -214.66797 0.984375Q-215.00781 0.48046875 -215.00781 -0.25390625Q-215.00781 -1.4648438 -214.07422 -2.140625Q-213.14062 -2.8164062 -211.42969 -2.8164062Q-209.92188 -2.8164062 -209.00391 -2.2304688Q-208.08594 -1.6445312 -207.85938 -0.53515625L-209.80469 -0.33203125Q-209.89844 -0.84765625 -210.26562 -1.1015625Q-210.63281 -1.3554688 -211.42969 -1.3554688Q-212.21094 -1.3554688 -212.60156 -1.15625Q-212.99219 -0.95703125 -212.99219 -0.48828125Q-212.99219 -0.12109375 -212.69141 0.09375Q-212.39062 0.30859375 -211.67969 0.44921875Q-210.6875 0.65234375 -209.91797 0.8671875Q-209.14844 1.0820312 -208.68359 1.3789062Q-208.21875 1.6757812 -207.94141 2.140625Q-207.66406 2.6054688 -207.66406 3.3320312ZM-206.85156 6.1210938L-204.57812 -5.7929688L-202.71875 -5.7929688L-204.95312 6.1210938L-206.85156 6.1210938ZM-197.92188 5.9570312Q-199.84375 5.9570312 -200.89062 4.8125Q-201.9375 3.6679688 -201.9375 1.6210938Q-201.9375 -0.47265625 -200.88281 -1.640625Q-199.82812 -2.8085938 -197.89062 -2.8085938Q-196.39844 -2.8085938 -195.42188 -2.0585938Q-194.44531 -1.3085938 -194.19531 0.01171875L-196.40625 0.12109375Q-196.5 -0.52734375 -196.875 -0.9140625Q-197.25 -1.3007812 -197.9375 -1.3007812Q-199.63281 -1.3007812 -199.63281 1.5351562Q-199.63281 4.4570312 -197.90625 4.4570312Q-197.28125 4.4570312 -196.85938 4.0625Q-196.4375 3.6679688 -196.33594 2.8867188L-194.13281 2.9882812Q-194.25 3.8554688 -194.75391 4.5351562Q-195.25781 5.2148438 -196.07812 5.5859375Q-196.89844 5.9570312 -197.92188 5.9570312ZM-184.51562 1.5664062Q-184.51562 3.6210938 -185.65625 4.7890625Q-186.79688 5.9570312 -188.8125 5.9570312Q-190.78906 5.9570312 -191.91406 4.7851562Q-193.03906 3.6132812 -193.03906 1.5664062Q-193.03906 -0.47265625 -191.91406 -1.640625Q-190.78906 -2.8085938 -188.76562 -2.8085938Q-186.69531 -2.8085938 -185.60547 -1.6796875Q-184.51562 -0.55078125 -184.51562 1.5664062ZM-186.8125 1.5664062Q-186.8125 0.05859375 -187.30469 -0.62109375Q-187.79688 -1.3007812 -188.73438 -1.3007812Q-190.73438 -1.3007812 -190.73438 1.5664062Q-190.73438 2.9804688 -190.24609 3.71875Q-189.75781 4.4570312 -188.83594 4.4570312Q-186.8125 4.4570312 -186.8125 1.5664062ZM-182.77344 5.8007812L-182.77344 -5.7929688L-180.57812 -5.7929688L-180.57812 5.8007812L-182.77344 5.8007812ZM-176.375 5.9570312Q-177.60156 5.9570312 -178.28906 5.2890625Q-178.97656 4.6210938 -178.97656 3.4101562Q-178.97656 2.0976562 -178.12109 1.4101562Q-177.26562 0.72265625 -175.64062 0.70703125L-173.82031 0.67578125L-173.82031 0.24609375Q-173.82031 -0.58203125 -174.10938 -0.984375Q-174.39844 -1.3867188 -175.05469 -1.3867188Q-175.66406 -1.3867188 -175.94922 -1.109375Q-176.23438 -0.83203125 -176.30469 -0.19140625L-178.59375 -0.30078125Q-178.38281 -1.5351562 -177.46484 -2.171875Q-176.54688 -2.8085938 -174.96094 -2.8085938Q-173.35938 -2.8085938 -172.49219 -2.0195312Q-171.625 -1.2304688 -171.625 0.22265625L-171.625 3.3007812Q-171.625 4.0117188 -171.46484 4.28125Q-171.30469 4.5507812 -170.92969 4.5507812Q-170.67969 4.5507812 -170.44531 4.5039062L-170.44531 5.6914062Q-170.64062 5.7382812 -170.79688 5.7773438Q-170.95312 5.8164062 -171.10938 5.8398438Q-171.26562 5.8632812 -171.44141 5.8789062Q-171.61719 5.8945312 -171.85156 5.8945312Q-172.67969 5.8945312 -173.07422 5.4882812Q-173.46875 5.0820312 -173.54688 4.2929688L-173.59375 4.2929688Q-174.51562 5.9570312 -176.375 5.9570312ZM-173.82031 1.8867188L-174.94531 1.9023438Q-175.71094 1.9335938 -176.03125 2.0703125Q-176.35156 2.2070312 -176.51953 2.4882812Q-176.6875 2.7695312 -176.6875 3.2382812Q-176.6875 3.8398438 -176.41016 4.1328125Q-176.13281 4.4257812 -175.67188 4.4257812Q-175.15625 4.4257812 -174.73047 4.1445312Q-174.30469 3.8632812 -174.0625 3.3671875Q-173.82031 2.8710938 -173.82031 2.3164062L-173.82031 1.8867188ZM-161.42969 1.5429688Q-161.42969 3.6367188 -162.26953 4.796875Q-163.10938 5.9570312 -164.67188 5.9570312Q-165.57031 5.9570312 -166.22656 5.5664062Q-166.88281 5.1757812 -167.23438 4.4414062L-167.25 4.4414062Q-167.25 4.7148438 -167.28516 5.1914062Q-167.32031 5.6679688 -167.35938 5.8007812L-169.49219 5.8007812Q-169.42969 5.0742188 -169.42969 3.8710938L-169.42969 -5.7929688L-167.23438 -5.7929688L-167.23438 -2.5585938L-167.26562 -1.1835938L-167.23438 -1.1835938Q-166.49219 -2.8085938 -164.53125 -2.8085938Q-163.03125 -2.8085938 -162.23047 -1.671875Q-161.42969 -0.53515625 -161.42969 1.5429688ZM-163.71875 1.5429688Q-163.71875 0.10546875 -164.14062 -0.58984375Q-164.5625 -1.2851562 -165.44531 -1.2851562Q-166.33594 -1.2851562 -166.80078 -0.5390625Q-167.26562 0.20703125 -167.26562 1.6132812Q-167.26562 2.9570312 -166.80859 3.7070312Q-166.35156 4.4570312 -165.46094 4.4570312Q-163.71875 4.4570312 -163.71875 1.5429688ZM-160.14844 2.6054688L-160.14844 0.69921875L-156.08594 0.69921875L-156.08594 2.6054688L-160.14844 2.6054688ZM-147.20312 3.3320312Q-147.20312 4.5585938 -148.20703 5.2578125Q-149.21094 5.9570312 -150.98438 5.9570312Q-152.72656 5.9570312 -153.65234 5.40625Q-154.57812 4.8554688 -154.88281 3.6914062L-152.95312 3.4023438Q-152.78906 4.0039062 -152.38672 4.2539062Q-151.98438 4.5039062 -150.98438 4.5039062Q-150.0625 4.5039062 -149.64062 4.2695312Q-149.21875 4.0351562 -149.21875 3.5351562Q-149.21875 3.1289062 -149.55859 2.890625Q-149.89844 2.6523438 -150.71094 2.4882812Q-152.57031 2.1210938 -153.21875 1.8046875Q-153.86719 1.4882812 -154.20703 0.984375Q-154.54688 0.48046875 -154.54688 -0.25390625Q-154.54688 -1.4648438 -153.61328 -2.140625Q-152.67969 -2.8164062 -150.96875 -2.8164062Q-149.46094 -2.8164062 -148.54297 -2.2304688Q-147.625 -1.6445312 -147.39844 -0.53515625L-149.34375 -0.33203125Q-149.4375 -0.84765625 -149.80469 -1.1015625Q-150.17188 -1.3554688 -150.96875 -1.3554688Q-151.75 -1.3554688 -152.14062 -1.15625Q-152.53125 -0.95703125 -152.53125 -0.48828125Q-152.53125 -0.12109375 -152.23047 0.09375Q-151.92969 0.30859375 -151.21875 0.44921875Q-150.22656 0.65234375 -149.45703 0.8671875Q-148.6875 1.0820312 -148.22266 1.3789062Q-147.75781 1.6757812 -147.48047 2.140625Q-147.20312 2.6054688 -147.20312 3.3320312ZM-143.47656 5.9570312Q-144.70312 5.9570312 -145.39062 5.2890625Q-146.07812 4.6210938 -146.07812 3.4101562Q-146.07812 2.0976562 -145.22266 1.4101562Q-144.36719 0.72265625 -142.74219 0.70703125L-140.92188 0.67578125L-140.92188 0.24609375Q-140.92188 -0.58203125 -141.21094 -0.984375Q-141.5 -1.3867188 -142.15625 -1.3867188Q-142.76562 -1.3867188 -143.05078 -1.109375Q-143.33594 -0.83203125 -143.40625 -0.19140625L-145.69531 -0.30078125Q-145.48438 -1.5351562 -144.56641 -2.171875Q-143.64844 -2.8085938 -142.0625 -2.8085938Q-140.46094 -2.8085938 -139.59375 -2.0195312Q-138.72656 -1.2304688 -138.72656 0.22265625L-138.72656 3.3007812Q-138.72656 4.0117188 -138.56641 4.28125Q-138.40625 4.5507812 -138.03125 4.5507812Q-137.78125 4.5507812 -137.54688 4.5039062L-137.54688 5.6914062Q-137.74219 5.7382812 -137.89844 5.7773438Q-138.05469 5.8164062 -138.21094 5.8398438Q-138.36719 5.8632812 -138.54297 5.8789062Q-138.71875 5.8945312 -138.95312 5.8945312Q-139.78125 5.8945312 -140.17578 5.4882812Q-140.57031 5.0820312 -140.64844 4.2929688L-140.69531 4.2929688Q-141.61719 5.9570312 -143.47656 5.9570312ZM-140.92188 1.8867188L-142.04688 1.9023438Q-142.8125 1.9335938 -143.13281 2.0703125Q-143.45312 2.2070312 -143.62109 2.4882812Q-143.78906 2.7695312 -143.78906 3.2382812Q-143.78906 3.8398438 -143.51172 4.1328125Q-143.23438 4.4257812 -142.77344 4.4257812Q-142.25781 4.4257812 -141.83203 4.1445312Q-141.40625 3.8632812 -141.16406 3.3671875Q-140.92188 2.8710938 -140.92188 2.3164062L-140.92188 1.8867188ZM-134.57812 5.9570312Q-135.80469 5.9570312 -136.49219 5.2890625Q-137.17969 4.6210938 -137.17969 3.4101562Q-137.17969 2.0976562 -136.32422 1.4101562Q-135.46875 0.72265625 -133.84375 0.70703125L-132.02344 0.67578125L-132.02344 0.24609375Q-132.02344 -0.58203125 -132.3125 -0.984375Q-132.60156 -1.3867188 -133.25781 -1.3867188Q-133.86719 -1.3867188 -134.15234 -1.109375Q-134.4375 -0.83203125 -134.50781 -0.19140625L-136.79688 -0.30078125Q-136.58594 -1.5351562 -135.66797 -2.171875Q-134.75 -2.8085938 -133.16406 -2.8085938Q-131.5625 -2.8085938 -130.69531 -2.0195312Q-129.82812 -1.2304688 -129.82812 0.22265625L-129.82812 3.3007812Q-129.82812 4.0117188 -129.66797 4.28125Q-129.50781 4.5507812 -129.13281 4.5507812Q-128.88281 4.5507812 -128.64844 4.5039062L-128.64844 5.6914062Q-128.84375 5.7382812 -129 5.7773438Q-129.15625 5.8164062 -129.3125 5.8398438Q-129.46875 5.8632812 -129.64453 5.8789062Q-129.82031 5.8945312 -130.05469 5.8945312Q-130.88281 5.8945312 -131.27734 5.4882812Q-131.67188 5.0820312 -131.75 4.2929688L-131.79688 4.2929688Q-132.71875 5.9570312 -134.57812 5.9570312ZM-132.02344 1.8867188L-133.14844 1.9023438Q-133.91406 1.9335938 -134.23438 2.0703125Q-134.55469 2.2070312 -134.72266 2.4882812Q-134.89062 2.7695312 -134.89062 3.2382812Q-134.89062 3.8398438 -134.61328 4.1328125Q-134.33594 4.4257812 -133.875 4.4257812Q-133.35938 4.4257812 -132.93359 4.1445312Q-132.50781 3.8632812 -132.26562 3.3671875Q-132.02344 2.8710938 -132.02344 2.3164062L-132.02344 1.8867188ZM-120.50781 3.3320312Q-120.50781 4.5585938 -121.51172 5.2578125Q-122.51562 5.9570312 -124.28906 5.9570312Q-126.03125 5.9570312 -126.95703 5.40625Q-127.88281 4.8554688 -128.1875 3.6914062L-126.25781 3.4023438Q-126.09375 4.0039062 -125.69141 4.2539062Q-125.28906 4.5039062 -124.28906 4.5039062Q-123.36719 4.5039062 -122.94531 4.2695312Q-122.52344 4.0351562 -122.52344 3.5351562Q-122.52344 3.1289062 -122.86328 2.890625Q-123.20312 2.6523438 -124.01562 2.4882812Q-125.875 2.1210938 -126.52344 1.8046875Q-127.17188 1.4882812 -127.51172 0.984375Q-127.85156 0.48046875 -127.85156 -0.25390625Q-127.85156 -1.4648438 -126.91797 -2.140625Q-125.98438 -2.8164062 -124.27344 -2.8164062Q-122.76562 -2.8164062 -121.84766 -2.2304688Q-120.92969 -1.6445312 -120.70312 -0.53515625L-122.64844 -0.33203125Q-122.74219 -0.84765625 -123.10938 -1.1015625Q-123.47656 -1.3554688 -124.27344 -1.3554688Q-125.05469 -1.3554688 -125.44531 -1.15625Q-125.83594 -0.95703125 -125.83594 -0.48828125Q-125.83594 -0.12109375 -125.53516 0.09375Q-125.23438 0.30859375 -124.52344 0.44921875Q-123.53125 0.65234375 -122.76172 0.8671875Q-121.99219 1.0820312 -121.52734 1.3789062Q-121.0625 1.6757812 -120.78516 2.140625Q-120.50781 2.6054688 -120.50781 3.3320312ZM-119.22656 2.6054688L-119.22656 0.69921875L-115.16406 0.69921875L-115.16406 2.6054688L-119.22656 2.6054688ZM-109.88281 5.9570312Q-111.80469 5.9570312 -112.85156 4.8125Q-113.89844 3.6679688 -113.89844 1.6210938Q-113.89844 -0.47265625 -112.84375 -1.640625Q-111.78906 -2.8085938 -109.85156 -2.8085938Q-108.35938 -2.8085938 -107.38281 -2.0585938Q-106.40625 -1.3085938 -106.15625 0.01171875L-108.36719 0.12109375Q-108.46094 -0.52734375 -108.83594 -0.9140625Q-109.21094 -1.3007812 -109.89844 -1.3007812Q-111.59375 -1.3007812 -111.59375 1.5351562Q-111.59375 4.4570312 -109.86719 4.4570312Q-109.24219 4.4570312 -108.82031 4.0625Q-108.39844 3.6679688 -108.29688 2.8867188L-106.09375 2.9882812Q-106.21094 3.8554688 -106.71484 4.5351562Q-107.21875 5.2148438 -108.03906 5.5859375Q-108.85938 5.9570312 -109.88281 5.9570312ZM-96.476562 1.5664062Q-96.476562 3.6210938 -97.617188 4.7890625Q-98.757812 5.9570312 -100.77344 5.9570312Q-102.75 5.9570312 -103.875 4.7851562Q-105 3.6132812 -105 1.5664062Q-105 -0.47265625 -103.875 -1.640625Q-102.75 -2.8085938 -100.72656 -2.8085938Q-98.65625 -2.8085938 -97.566406 -1.6796875Q-96.476562 -0.55078125 -96.476562 1.5664062ZM-98.773438 1.5664062Q-98.773438 0.05859375 -99.265625 -0.62109375Q-99.757812 -1.3007812 -100.69531 -1.3007812Q-102.69531 -1.3007812 -102.69531 1.5664062Q-102.69531 2.9804688 -102.20703 3.71875Q-101.71875 4.4570312 -100.79688 4.4570312Q-98.773438 4.4570312 -98.773438 1.5664062ZM-89.257812 5.8007812L-89.257812 1.0585938Q-89.257812 -1.1679688 -90.765625 -1.1679688Q-91.5625 -1.1679688 -92.050781 -0.484375Q-92.539062 0.19921875 -92.539062 1.2695312L-92.539062 5.8007812L-94.734375 5.8007812L-94.734375 -0.76171875Q-94.734375 -1.4414062 -94.753906 -1.875Q-94.773438 -2.3085938 -94.796875 -2.6523438L-92.703125 -2.6523438Q-92.679688 -2.5039062 -92.640625 -1.859375Q-92.601562 -1.2148438 -92.601562 -0.97265625L-92.570312 -0.97265625Q-92.125 -1.9414062 -91.453125 -2.3789062Q-90.78125 -2.8164062 -89.851562 -2.8164062Q-88.507812 -2.8164062 -87.789062 -1.9882812Q-87.070312 -1.1601562 -87.070312 0.43359375L-87.070312 5.8007812L-89.257812 5.8007812ZM-79.484375 5.8007812L-79.484375 1.0585938Q-79.484375 -1.1679688 -80.992188 -1.1679688Q-81.789062 -1.1679688 -82.277344 -0.484375Q-82.765625 0.19921875 -82.765625 1.2695312L-82.765625 5.8007812L-84.960938 5.8007812L-84.960938 -0.76171875Q-84.960938 -1.4414062 -84.980469 -1.875Q-85 -2.3085938 -85.023438 -2.6523438L-82.929688 -2.6523438Q-82.90625 -2.5039062 -82.867188 -1.859375Q-82.828125 -1.2148438 -82.828125 -0.97265625L-82.796875 -0.97265625Q-82.351562 -1.9414062 -81.679688 -2.3789062Q-81.007812 -2.8164062 -80.078125 -2.8164062Q-78.734375 -2.8164062 -78.015625 -1.9882812Q-77.296875 -1.1601562 -77.296875 0.43359375L-77.296875 5.8007812L-79.484375 5.8007812ZM-75.679688 2.6054688L-75.679688 0.69921875L-71.617188 0.69921875L-71.617188 2.6054688L-75.679688 2.6054688ZM-67.90625 5.9570312Q-69.132812 5.9570312 -69.820312 5.2890625Q-70.507812 4.6210938 -70.507812 3.4101562Q-70.507812 2.0976562 -69.652344 1.4101562Q-68.796875 0.72265625 -67.171875 0.70703125L-65.351562 0.67578125L-65.351562 0.24609375Q-65.351562 -0.58203125 -65.640625 -0.984375Q-65.929688 -1.3867188 -66.585938 -1.3867188Q-67.195312 -1.3867188 -67.480469 -1.109375Q-67.765625 -0.83203125 -67.835938 -0.19140625L-70.125 -0.30078125Q-69.914062 -1.5351562 -68.996094 -2.171875Q-68.078125 -2.8085938 -66.492188 -2.8085938Q-64.890625 -2.8085938 -64.023438 -2.0195312Q-63.15625 -1.2304688 -63.15625 0.22265625L-63.15625 3.3007812Q-63.15625 4.0117188 -62.996094 4.28125Q-62.835938 4.5507812 -62.460938 4.5507812Q-62.210938 4.5507812 -61.976562 4.5039062L-61.976562 5.6914062Q-62.171875 5.7382812 -62.328125 5.7773438Q-62.484375 5.8164062 -62.640625 5.8398438Q-62.796875 5.8632812 -62.972656 5.8789062Q-63.148438 5.8945312 -63.382812 5.8945312Q-64.210938 5.8945312 -64.605469 5.4882812Q-65 5.0820312 -65.078125 4.2929688L-65.125 4.2929688Q-66.046875 5.9570312 -67.90625 5.9570312ZM-65.351562 1.8867188L-66.476562 1.9023438Q-67.242188 1.9335938 -67.5625 2.0703125Q-67.882812 2.2070312 -68.050781 2.4882812Q-68.21875 2.7695312 -68.21875 3.2382812Q-68.21875 3.8398438 -67.941406 4.1328125Q-67.664062 4.4257812 -67.203125 4.4257812Q-66.6875 4.4257812 -66.261719 4.1445312Q-65.835938 3.8632812 -65.59375 3.3671875Q-65.351562 2.8710938 -65.351562 2.3164062L-65.351562 1.8867188ZM-57.4375 5.9570312Q-59.359375 5.9570312 -60.40625 4.8125Q-61.453125 3.6679688 -61.453125 1.6210938Q-61.453125 -0.47265625 -60.398438 -1.640625Q-59.34375 -2.8085938 -57.40625 -2.8085938Q-55.914062 -2.8085938 -54.9375 -2.0585938Q-53.960938 -1.3085938 -53.710938 0.01171875L-55.921875 0.12109375Q-56.015625 -0.52734375 -56.390625 -0.9140625Q-56.765625 -1.3007812 -57.453125 -1.3007812Q-59.148438 -1.3007812 -59.148438 1.5351562Q-59.148438 4.4570312 -57.421875 4.4570312Q-56.796875 4.4570312 -56.375 4.0625Q-55.953125 3.6679688 -55.851562 2.8867188L-53.648438 2.9882812Q-53.765625 3.8554688 -54.269531 4.5351562Q-54.773438 5.2148438 -55.59375 5.5859375Q-56.414062 5.9570312 -57.4375 5.9570312ZM-48.539062 5.9570312Q-50.460938 5.9570312 -51.507812 4.8125Q-52.554688 3.6679688 -52.554688 1.6210938Q-52.554688 -0.47265625 -51.5 -1.640625Q-50.445312 -2.8085938 -48.507812 -2.8085938Q-47.015625 -2.8085938 -46.039062 -2.0585938Q-45.0625 -1.3085938 -44.8125 0.01171875L-47.023438 0.12109375Q-47.117188 -0.52734375 -47.492188 -0.9140625Q-47.867188 -1.3007812 -48.554688 -1.3007812Q-50.25 -1.3007812 -50.25 1.5351562Q-50.25 4.4570312 -48.523438 4.4570312Q-47.898438 4.4570312 -47.476562 4.0625Q-47.054688 3.6679688 -46.953125 2.8867188L-44.75 2.9882812Q-44.867188 3.8554688 -45.371094 4.5351562Q-45.875 5.2148438 -46.695312 5.5859375Q-47.515625 5.9570312 -48.539062 5.9570312ZM-39.703125 5.9570312Q-41.609375 5.9570312 -42.632812 4.828125Q-43.65625 3.6992188 -43.65625 1.5351562Q-43.65625 -0.55859375 -42.617188 -1.6835938Q-41.578125 -2.8085938 -39.671875 -2.8085938Q-37.851562 -2.8085938 -36.890625 -1.6015625Q-35.929688 -0.39453125 -35.929688 1.9335938L-35.929688 1.9960938L-41.351562 1.9960938Q-41.351562 3.2304688 -40.894531 3.859375Q-40.4375 4.4882812 -39.59375 4.4882812Q-38.429688 4.4882812 -38.125 3.4804688L-36.054688 3.6601562Q-36.953125 5.9570312 -39.703125 5.9570312ZM-39.703125 -1.4257812Q-40.476562 -1.4257812 -40.894531 -0.88671875Q-41.3125 -0.34765625 -41.335938 0.62109375L-38.054688 0.62109375Q-38.117188 -0.40234375 -38.546875 -0.9140625Q-38.976562 -1.4257812 -39.703125 -1.4257812ZM-27.140625 3.3320312Q-27.140625 4.5585938 -28.144531 5.2578125Q-29.148438 5.9570312 -30.921875 5.9570312Q-32.664062 5.9570312 -33.589844 5.40625Q-34.515625 4.8554688 -34.820312 3.6914062L-32.890625 3.4023438Q-32.726562 4.0039062 -32.324219 4.2539062Q-31.921875 4.5039062 -30.921875 4.5039062Q-30 4.5039062 -29.578125 4.2695312Q-29.15625 4.0351562 -29.15625 3.5351562Q-29.15625 3.1289062 -29.496094 2.890625Q-29.835938 2.6523438 -30.648438 2.4882812Q-32.507812 2.1210938 -33.15625 1.8046875Q-33.804688 1.4882812 -34.144531 0.984375Q-34.484375 0.48046875 -34.484375 -0.25390625Q-34.484375 -1.4648438 -33.550781 -2.140625Q-32.617188 -2.8164062 -30.90625 -2.8164062Q-29.398438 -2.8164062 -28.480469 -2.2304688Q-27.5625 -1.6445312 -27.335938 -0.53515625L-29.28125 -0.33203125Q-29.375 -0.84765625 -29.742188 -1.1015625Q-30.109375 -1.3554688 -30.90625 -1.3554688Q-31.6875 -1.3554688 -32.078125 -1.15625Q-32.46875 -0.95703125 -32.46875 -0.48828125Q-32.46875 -0.12109375 -32.167969 0.09375Q-31.867188 0.30859375 -31.15625 0.44921875Q-30.164062 0.65234375 -29.394531 0.8671875Q-28.625 1.0820312 -28.160156 1.3789062Q-27.695312 1.6757812 -27.417969 2.140625Q-27.140625 2.6054688 -27.140625 3.3320312ZM-18.242188 3.3320312Q-18.242188 4.5585938 -19.246094 5.2578125Q-20.25 5.9570312 -22.023438 5.9570312Q-23.765625 5.9570312 -24.691406 5.40625Q-25.617188 4.8554688 -25.921875 3.6914062L-23.992188 3.4023438Q-23.828125 4.0039062 -23.425781 4.2539062Q-23.023438 4.5039062 -22.023438 4.5039062Q-21.101562 4.5039062 -20.679688 4.2695312Q-20.257812 4.0351562 -20.257812 3.5351562Q-20.257812 3.1289062 -20.597656 2.890625Q-20.9375 2.6523438 -21.75 2.4882812Q-23.609375 2.1210938 -24.257812 1.8046875Q-24.90625 1.4882812 -25.246094 0.984375Q-25.585938 0.48046875 -25.585938 -0.25390625Q-25.585938 -1.4648438 -24.652344 -2.140625Q-23.71875 -2.8164062 -22.007812 -2.8164062Q-20.5 -2.8164062 -19.582031 -2.2304688Q-18.664062 -1.6445312 -18.4375 -0.53515625L-20.382812 -0.33203125Q-20.476562 -0.84765625 -20.84375 -1.1015625Q-21.210938 -1.3554688 -22.007812 -1.3554688Q-22.789062 -1.3554688 -23.179688 -1.15625Q-23.570312 -0.95703125 -23.570312 -0.48828125Q-23.570312 -0.12109375 -23.269531 0.09375Q-22.96875 0.30859375 -22.257812 0.44921875Q-21.265625 0.65234375 -20.496094 0.8671875Q-19.726562 1.0820312 -19.261719 1.3789062Q-18.796875 1.6757812 -18.519531 2.140625Q-18.242188 2.6054688 -18.242188 3.3320312ZM-16.960938 2.6054688L-16.960938 0.69921875L-12.898438 0.69921875L-12.898438 2.6054688L-16.960938 2.6054688ZM-6.1640625 5.8007812L-6.1640625 1.0585938Q-6.1640625 -1.1679688 -7.4453125 -1.1679688Q-8.109375 -1.1679688 -8.5273438 -0.48828125Q-8.9453125 0.19140625 -8.9453125 1.2695312L-8.9453125 5.8007812L-11.140625 5.8007812L-11.140625 -0.76171875Q-11.140625 -1.4414062 -11.160156 -1.875Q-11.179688 -2.3085938 -11.203125 -2.6523438L-9.109375 -2.6523438Q-9.0859375 -2.5039062 -9.046875 -1.859375Q-9.0078125 -1.2148438 -9.0078125 -0.97265625L-8.9765625 -0.97265625Q-8.5703125 -1.9414062 -7.9648438 -2.3789062Q-7.359375 -2.8164062 -6.515625 -2.8164062Q-4.578125 -2.8164062 -4.1640625 -0.97265625L-4.1171875 -0.97265625Q-3.6875 -1.9570312 -3.0859375 -2.3867188Q-2.484375 -2.8164062 -1.5546875 -2.8164062Q-0.3203125 -2.8164062 0.328125 -1.9765625Q0.9765625 -1.1367188 0.9765625 0.43359375L0.9765625 5.8007812L-1.203125 5.8007812L-1.203125 1.0585938Q-1.203125 -1.1679688 -2.484375 -1.1679688Q-3.125 -1.1679688 -3.5351562 -0.546875Q-3.9453125 0.07421875 -3.984375 1.1679688L-3.984375 5.8007812L-6.1640625 5.8007812ZM5.0390625 5.9570312Q3.8125 5.9570312 3.125 5.2890625Q2.4375 4.6210938 2.4375 3.4101562Q2.4375 2.0976562 3.2929688 1.4101562Q4.1484375 0.72265625 5.7734375 0.70703125L7.59375 0.67578125L7.59375 0.24609375Q7.59375 -0.58203125 7.3046875 -0.984375Q7.015625 -1.3867188 6.359375 -1.3867188Q5.75 -1.3867188 5.4648438 -1.109375Q5.1796875 -0.83203125 5.109375 -0.19140625L2.8203125 -0.30078125Q3.03125 -1.5351562 3.9492188 -2.171875Q4.8671875 -2.8085938 6.453125 -2.8085938Q8.0546875 -2.8085938 8.921875 -2.0195312Q9.7890625 -1.2304688 9.7890625 0.22265625L9.7890625 3.3007812Q9.7890625 4.0117188 9.9492188 4.28125Q10.109375 4.5507812 10.484375 4.5507812Q10.734375 4.5507812 10.96875 4.5039062L10.96875 5.6914062Q10.773438 5.7382812 10.617188 5.7773438Q10.460938 5.8164062 10.304688 5.8398438Q10.148438 5.8632812 9.9726562 5.8789062Q9.796875 5.8945312 9.5625 5.8945312Q8.734375 5.8945312 8.3398438 5.4882812Q7.9453125 5.0820312 7.8671875 4.2929688L7.8203125 4.2929688Q6.8984375 5.9570312 5.0390625 5.9570312ZM7.59375 1.8867188L6.46875 1.9023438Q5.703125 1.9335938 5.3828125 2.0703125Q5.0625 2.2070312 4.8945312 2.4882812Q4.7265625 2.7695312 4.7265625 3.2382812Q4.7265625 3.8398438 5.0039062 4.1328125Q5.28125 4.4257812 5.7421875 4.4257812Q6.2578125 4.4257812 6.6835938 4.1445312Q7.109375 3.8632812 7.3515625 3.3671875Q7.59375 2.8710938 7.59375 2.3164062L7.59375 1.8867188ZM17.460938 5.8007812L17.460938 1.0585938Q17.460938 -1.1679688 15.953125 -1.1679688Q15.15625 -1.1679688 14.667969 -0.484375Q14.179688 0.19921875 14.179688 1.2695312L14.179688 5.8007812L11.984375 5.8007812L11.984375 -0.76171875Q11.984375 -1.4414062 11.964844 -1.875Q11.945312 -2.3085938 11.921875 -2.6523438L14.015625 -2.6523438Q14.039062 -2.5039062 14.078125 -1.859375Q14.117188 -1.2148438 14.117188 -0.97265625L14.148438 -0.97265625Q14.59375 -1.9414062 15.265625 -2.3789062Q15.9375 -2.8164062 16.867188 -2.8164062Q18.210938 -2.8164062 18.929688 -1.9882812Q19.648438 -1.1601562 19.648438 0.43359375L19.648438 5.8007812L17.460938 5.8007812ZM23.710938 5.9570312Q22.484375 5.9570312 21.796875 5.2890625Q21.109375 4.6210938 21.109375 3.4101562Q21.109375 2.0976562 21.964844 1.4101562Q22.820312 0.72265625 24.445312 0.70703125L26.265625 0.67578125L26.265625 0.24609375Q26.265625 -0.58203125 25.976562 -0.984375Q25.6875 -1.3867188 25.03125 -1.3867188Q24.421875 -1.3867188 24.136719 -1.109375Q23.851562 -0.83203125 23.78125 -0.19140625L21.492188 -0.30078125Q21.703125 -1.5351562 22.621094 -2.171875Q23.539062 -2.8085938 25.125 -2.8085938Q26.726562 -2.8085938 27.59375 -2.0195312Q28.460938 -1.2304688 28.460938 0.22265625L28.460938 3.3007812Q28.460938 4.0117188 28.621094 4.28125Q28.78125 4.5507812 29.15625 4.5507812Q29.40625 4.5507812 29.640625 4.5039062L29.640625 5.6914062Q29.445312 5.7382812 29.289062 5.7773438Q29.132812 5.8164062 28.976562 5.8398438Q28.820312 5.8632812 28.644531 5.8789062Q28.46875 5.8945312 28.234375 5.8945312Q27.40625 5.8945312 27.011719 5.4882812Q26.617188 5.0820312 26.539062 4.2929688L26.492188 4.2929688Q25.570312 5.9570312 23.710938 5.9570312ZM26.265625 1.8867188L25.140625 1.9023438Q24.375 1.9335938 24.054688 2.0703125Q23.734375 2.2070312 23.566406 2.4882812Q23.398438 2.7695312 23.398438 3.2382812Q23.398438 3.8398438 23.675781 4.1328125Q23.953125 4.4257812 24.414062 4.4257812Q24.929688 4.4257812 25.355469 4.1445312Q25.78125 3.8632812 26.023438 3.3671875Q26.265625 2.8710938 26.265625 2.3164062L26.265625 1.8867188ZM34.195312 9.1914062Q32.648438 9.1914062 31.707031 8.6015625Q30.765625 8.0117188 30.546875 6.9179688L32.742188 6.6601562Q32.859375 7.1679688 33.246094 7.4570312Q33.632812 7.7460938 34.257812 7.7460938Q35.171875 7.7460938 35.59375 7.1835938Q36.015625 6.6210938 36.015625 5.5117188L36.015625 5.0664062L36.03125 4.2304688L36.015625 4.2304688Q35.289062 5.7851562 33.296875 5.7851562Q31.820312 5.7851562 31.007812 4.6757812Q30.195312 3.5664062 30.195312 1.5039062Q30.195312 -0.56640625 31.03125 -1.6914062Q31.867188 -2.8164062 33.460938 -2.8164062Q35.304688 -2.8164062 36.015625 -1.2929688L36.054688 -1.2929688Q36.054688 -1.5664062 36.089844 -2.0351562Q36.125 -2.5039062 36.164062 -2.6523438L38.242188 -2.6523438Q38.195312 -1.8085938 38.195312 -0.69921875L38.195312 5.5429688Q38.195312 7.3476562 37.171875 8.2695312Q36.148438 9.1914062 34.195312 9.1914062ZM36.03125 1.4570312Q36.03125 0.15234375 35.566406 -0.578125Q35.101562 -1.3085938 34.242188 -1.3085938Q32.484375 -1.3085938 32.484375 1.5039062Q32.484375 4.2617188 34.226562 4.2617188Q35.101562 4.2617188 35.566406 3.53125Q36.03125 2.8007812 36.03125 1.4570312ZM43.890625 5.9570312Q41.984375 5.9570312 40.960938 4.828125Q39.9375 3.6992188 39.9375 1.5351562Q39.9375 -0.55859375 40.976562 -1.6835938Q42.015625 -2.8085938 43.921875 -2.8085938Q45.742188 -2.8085938 46.703125 -1.6015625Q47.664062 -0.39453125 47.664062 1.9335938L47.664062 1.9960938L42.242188 1.9960938Q42.242188 3.2304688 42.699219 3.859375Q43.15625 4.4882812 44 4.4882812Q45.164062 4.4882812 45.46875 3.4804688L47.539062 3.6601562Q46.640625 5.9570312 43.890625 5.9570312ZM43.890625 -1.4257812Q43.117188 -1.4257812 42.699219 -0.88671875Q42.28125 -0.34765625 42.257812 0.62109375L45.539062 0.62109375Q45.476562 -0.40234375 45.046875 -0.9140625Q44.617188 -1.4257812 43.890625 -1.4257812ZM54.304688 5.8007812L54.304688 1.0585938Q54.304688 -1.1679688 53.023438 -1.1679688Q52.359375 -1.1679688 51.941406 -0.48828125Q51.523438 0.19140625 51.523438 1.2695312L51.523438 5.8007812L49.328125 5.8007812L49.328125 -0.76171875Q49.328125 -1.4414062 49.308594 -1.875Q49.289062 -2.3085938 49.265625 -2.6523438L51.359375 -2.6523438Q51.382812 -2.5039062 51.421875 -1.859375Q51.460938 -1.2148438 51.460938 -0.97265625L51.492188 -0.97265625Q51.898438 -1.9414062 52.503906 -2.3789062Q53.109375 -2.8164062 53.953125 -2.8164062Q55.890625 -2.8164062 56.304688 -0.97265625L56.351562 -0.97265625Q56.78125 -1.9570312 57.382812 -2.3867188Q57.984375 -2.8164062 58.914062 -2.8164062Q60.148438 -2.8164062 60.796875 -1.9765625Q61.445312 -1.1367188 61.445312 0.43359375L61.445312 5.8007812L59.265625 5.8007812L59.265625 1.0585938Q59.265625 -1.1679688 57.984375 -1.1679688Q57.34375 -1.1679688 56.933594 -0.546875Q56.523438 0.07421875 56.484375 1.1679688L56.484375 5.8007812L54.304688 5.8007812ZM67.015625 5.9570312Q65.109375 5.9570312 64.085938 4.828125Q63.0625 3.6992188 63.0625 1.5351562Q63.0625 -0.55859375 64.101562 -1.6835938Q65.140625 -2.8085938 67.046875 -2.8085938Q68.867188 -2.8085938 69.828125 -1.6015625Q70.789062 -0.39453125 70.789062 1.9335938L70.789062 1.9960938L65.367188 1.9960938Q65.367188 3.2304688 65.824219 3.859375Q66.28125 4.4882812 67.125 4.4882812Q68.289062 4.4882812 68.59375 3.4804688L70.664062 3.6601562Q69.765625 5.9570312 67.015625 5.9570312ZM67.015625 -1.4257812Q66.242188 -1.4257812 65.824219 -0.88671875Q65.40625 -0.34765625 65.382812 0.62109375L68.664062 0.62109375Q68.601562 -0.40234375 68.171875 -0.9140625Q67.742188 -1.4257812 67.015625 -1.4257812ZM77.929688 5.8007812L77.929688 1.0585938Q77.929688 -1.1679688 76.421875 -1.1679688Q75.625 -1.1679688 75.136719 -0.484375Q74.648438 0.19921875 74.648438 1.2695312L74.648438 5.8007812L72.453125 5.8007812L72.453125 -0.76171875Q72.453125 -1.4414062 72.433594 -1.875Q72.414062 -2.3085938 72.390625 -2.6523438L74.484375 -2.6523438Q74.507812 -2.5039062 74.546875 -1.859375Q74.585938 -1.2148438 74.585938 -0.97265625L74.617188 -0.97265625Q75.0625 -1.9414062 75.734375 -2.3789062Q76.40625 -2.8164062 77.335938 -2.8164062Q78.679688 -2.8164062 79.398438 -1.9882812Q80.117188 -1.1601562 80.117188 0.43359375L80.117188 5.8007812L77.929688 5.8007812ZM84.390625 5.9414062Q83.421875 5.9414062 82.898438 5.4140625Q82.375 4.8867188 82.375 3.8164062L82.375 -1.1679688L81.304688 -1.1679688L81.304688 -2.6523438L82.484375 -2.6523438L83.171875 -4.6367188L84.546875 -4.6367188L84.546875 -2.6523438L86.148438 -2.6523438L86.148438 -1.1679688L84.546875 -1.1679688L84.546875 3.2226562Q84.546875 3.8398438 84.78125 4.1328125Q85.015625 4.4257812 85.507812 4.4257812Q85.765625 4.4257812 86.242188 4.3164062L86.242188 5.6757812Q85.429688 5.9414062 84.390625 5.9414062ZM91.507812 2.6054688L91.507812 0.69921875L95.570312 0.69921875L95.570312 2.6054688L91.507812 2.6054688ZM104.03125 -3.4257812L104.03125 -0.01953125L109.66406 -0.01953125L109.66406 1.7617188L104.03125 1.7617188L104.03125 5.8007812L101.72656 5.8007812L101.72656 -5.2070312L109.84375 -5.2070312L109.84375 -3.4257812L104.03125 -3.4257812ZM122.20312 0.24609375Q122.20312 1.9648438 121.52344 3.2695312Q120.84375 4.5742188 119.57812 5.265625Q118.3125 5.9570312 116.625 5.9570312Q114.03125 5.9570312 112.55859 4.4296875Q111.08594 2.9023438 111.08594 0.24609375Q111.08594 -2.4023438 112.55469 -3.8867188Q114.02344 -5.3710938 116.64062 -5.3710938Q119.25781 -5.3710938 120.73047 -3.8710938Q122.20312 -2.3710938 122.20312 0.24609375ZM119.85156 0.24609375Q119.85156 -1.5351562 119.00781 -2.546875Q118.16406 -3.5585938 116.64062 -3.5585938Q115.09375 -3.5585938 114.25 -2.5546875Q113.40625 -1.5507812 113.40625 0.24609375Q113.40625 2.0585938 114.26953 3.1015625Q115.13281 4.1445312 116.625 4.1445312Q118.17188 4.1445312 119.01172 3.1289062Q119.85156 2.1132812 119.85156 0.24609375ZM131.50781 5.8007812L128.95312 1.6210938L126.25 1.6210938L126.25 5.8007812L123.94531 5.8007812L123.94531 -5.2070312L129.44531 -5.2070312Q131.41406 -5.2070312 132.48438 -4.359375Q133.55469 -3.5117188 133.55469 -1.9257812Q133.55469 -0.76953125 132.89844 0.0703125Q132.24219 0.91015625 131.125 1.1757812L134.10156 5.8007812L131.50781 5.8007812ZM131.23438 -1.8320312Q131.23438 -3.4179688 129.20312 -3.4179688L126.25 -3.4179688L126.25 -0.16796875L129.26562 -0.16796875Q130.23438 -0.16796875 130.73438 -0.60546875Q131.23438 -1.0429688 131.23438 -1.8320312ZM144.64062 5.8007812L144.64062 -0.87109375Q144.64062 -1.0976562 144.64453 -1.3242188Q144.64844 -1.5507812 144.71875 -3.2695312Q144.16406 -1.1679688 143.89844 -0.33984375L141.91406 5.8007812L140.27344 5.8007812L138.28906 -0.33984375L137.45312 -3.2695312Q137.54688 -1.4570312 137.54688 -0.87109375L137.54688 5.8007812L135.5 5.8007812L135.5 -5.2070312L138.58594 -5.2070312L140.55469 0.94921875L140.72656 1.5429688L141.10156 3.0195312L141.59375 1.2539062L143.61719 -5.2070312L146.6875 -5.2070312L146.6875 5.8007812L144.64062 5.8007812ZM156.60938 5.8007812L155.63281 2.9882812L151.4375 2.9882812L150.46094 5.8007812L148.15625 5.8007812L152.17188 -5.2070312L154.89062 -5.2070312L158.89062 5.8007812L156.60938 5.8007812ZM153.53125 -3.5117188L153.48438 -3.3398438Q153.40625 -3.0585938 153.29688 -2.6992188Q153.1875 -2.3398438 151.95312 1.2539062L155.11719 1.2539062L154.03125 -1.9101562L153.69531 -2.9726562L153.53125 -3.5117188ZM164.16406 -3.4257812L164.16406 5.8007812L161.85938 5.8007812L161.85938 -3.4257812L158.30469 -3.4257812L158.30469 -5.2070312L167.72656 -5.2070312L167.72656 -3.4257812L164.16406 -3.4257812ZM183.22656 0.21484375Q183.22656 1.9179688 182.55859 3.1875Q181.89062 4.4570312 180.66797 5.1289062Q179.44531 5.8007812 177.86719 5.8007812L173.41406 5.8007812L173.41406 -5.2070312L177.39844 -5.2070312Q180.17969 -5.2070312 181.70312 -3.8046875Q183.22656 -2.4023438 183.22656 0.21484375ZM180.90625 0.21484375Q180.90625 -1.5585938 179.98438 -2.4921875Q179.0625 -3.4257812 177.35156 -3.4257812L175.71875 -3.4257812L175.71875 4.0195312L177.67188 4.0195312Q179.15625 4.0195312 180.03125 2.9960938Q180.90625 1.9726562 180.90625 0.21484375ZM193.04688 1.5664062Q193.04688 3.6210938 191.90625 4.7890625Q190.76562 5.9570312 188.75 5.9570312Q186.77344 5.9570312 185.64844 4.7851562Q184.52344 3.6132812 184.52344 1.5664062Q184.52344 -0.47265625 185.64844 -1.640625Q186.77344 -2.8085938 188.79688 -2.8085938Q190.86719 -2.8085938 191.95703 -1.6796875Q193.04688 -0.55078125 193.04688 1.5664062ZM190.75 1.5664062Q190.75 0.05859375 190.25781 -0.62109375Q189.76562 -1.3007812 188.82812 -1.3007812Q186.82812 -1.3007812 186.82812 1.5664062Q186.82812 2.9804688 187.31641 3.71875Q187.80469 4.4570312 188.72656 4.4570312Q190.75 4.4570312 190.75 1.5664062ZM203.92969 5.8007812L201.60938 5.8007812L200.26562 0.64453125Q200.17188 0.29296875 199.89844 -1.0898438L199.49219 0.66015625L198.13281 5.8007812L195.8125 5.8007812L193.625 -2.6523438L195.6875 -2.6523438L197.07812 3.8085938L197.1875 3.2304688L197.38281 2.3164062L198.71094 -2.6523438L201.0625 -2.6523438L202.35938 2.3164062Q202.46875 2.7226562 202.67969 3.8085938L202.89844 2.7773438L204.11719 -2.6523438L206.14844 -2.6523438L203.92969 5.8007812ZM212.71094 5.8007812L212.71094 1.0585938Q212.71094 -1.1679688 211.20312 -1.1679688Q210.40625 -1.1679688 209.91797 -0.484375Q209.42969 0.19921875 209.42969 1.2695312L209.42969 5.8007812L207.23438 5.8007812L207.23438 -0.76171875Q207.23438 -1.4414062 207.21484 -1.875Q207.19531 -2.3085938 207.17188 -2.6523438L209.26562 -2.6523438Q209.28906 -2.5039062 209.32812 -1.859375Q209.36719 -1.2148438 209.36719 -0.97265625L209.39844 -0.97265625Q209.84375 -1.9414062 210.51562 -2.3789062Q211.1875 -2.8164062 212.11719 -2.8164062Q213.46094 -2.8164062 214.17969 -1.9882812Q214.89844 -1.1601562 214.89844 0.43359375L214.89844 5.8007812L212.71094 5.8007812ZM217.00781 5.8007812L217.00781 -5.7929688L219.20312 -5.7929688L219.20312 5.8007812L217.00781 5.8007812ZM229.48438 1.5664062Q229.48438 3.6210938 228.34375 4.7890625Q227.20312 5.9570312 225.1875 5.9570312Q223.21094 5.9570312 222.08594 4.7851562Q220.96094 3.6132812 220.96094 1.5664062Q220.96094 -0.47265625 222.08594 -1.640625Q223.21094 -2.8085938 225.23438 -2.8085938Q227.30469 -2.8085938 228.39453 -1.6796875Q229.48438 -0.55078125 229.48438 1.5664062ZM227.1875 1.5664062Q227.1875 0.05859375 226.69531 -0.62109375Q226.20312 -1.3007812 225.26562 -1.3007812Q223.26562 -1.3007812 223.26562 1.5664062Q223.26562 2.9804688 223.75391 3.71875Q224.24219 4.4570312 225.16406 4.4570312Q227.1875 4.4570312 227.1875 1.5664062ZM233.17969 5.9570312Q231.95312 5.9570312 231.26562 5.2890625Q230.57812 4.6210938 230.57812 3.4101562Q230.57812 2.0976562 231.43359 1.4101562Q232.28906 0.72265625 233.91406 0.70703125L235.73438 0.67578125L235.73438 0.24609375Q235.73438 -0.58203125 235.44531 -0.984375Q235.15625 -1.3867188 234.5 -1.3867188Q233.89062 -1.3867188 233.60547 -1.109375Q233.32031 -0.83203125 233.25 -0.19140625L230.96094 -0.30078125Q231.17188 -1.5351562 232.08984 -2.171875Q233.00781 -2.8085938 234.59375 -2.8085938Q236.19531 -2.8085938 237.0625 -2.0195312Q237.92969 -1.2304688 237.92969 0.22265625L237.92969 3.3007812Q237.92969 4.0117188 238.08984 4.28125Q238.25 4.5507812 238.625 4.5507812Q238.875 4.5507812 239.10938 4.5039062L239.10938 5.6914062Q238.91406 5.7382812 238.75781 5.7773438Q238.60156 5.8164062 238.44531 5.8398438Q238.28906 5.8632812 238.11328 5.8789062Q237.9375 5.8945312 237.70312 5.8945312Q236.875 5.8945312 236.48047 5.4882812Q236.08594 5.0820312 236.00781 4.2929688L235.96094 4.2929688Q235.03906 5.9570312 233.17969 5.9570312ZM235.73438 1.8867188L234.60938 1.9023438Q233.84375 1.9335938 233.52344 2.0703125Q233.20312 2.2070312 233.03516 2.4882812Q232.86719 2.7695312 232.86719 3.2382812Q232.86719 3.8398438 233.14453 4.1328125Q233.42188 4.4257812 233.88281 4.4257812Q234.39844 4.4257812 234.82422 4.1445312Q235.25 3.8632812 235.49219 3.3671875Q235.73438 2.8710938 235.73438 2.3164062L235.73438 1.8867188ZM245.60156 5.8007812Q245.57031 5.6835938 245.52734 5.2109375Q245.48438 4.7382812 245.48438 4.4257812L245.45312 4.4257812Q244.74219 5.9570312 242.75 5.9570312Q241.27344 5.9570312 240.46875 4.8046875Q239.66406 3.6523438 239.66406 1.5820312Q239.66406 -0.51953125 240.51172 -1.6640625Q241.35938 -2.8085938 242.91406 -2.8085938Q243.8125 -2.8085938 244.46484 -2.4335938Q245.11719 -2.0585938 245.46875 -1.3164062L245.48438 -1.3164062L245.46875 -2.7070312L245.46875 -5.7929688L247.66406 -5.7929688L247.66406 3.9570312Q247.66406 4.7382812 247.72656 5.8007812L245.60156 5.8007812ZM245.5 1.5273438Q245.5 0.16015625 245.04297 -0.578125Q244.58594 -1.3164062 243.69531 -1.3164062Q242.8125 -1.3164062 242.38281 -0.6015625Q241.95312 0.11328125 241.95312 1.5820312Q241.95312 4.4570312 243.67969 4.4570312Q244.54688 4.4570312 245.02344 3.6953125Q245.5 2.9335938 245.5 1.5273438ZM259.26562 -3.4257812L259.26562 5.8007812L256.96094 5.8007812L256.96094 -3.4257812L253.40625 -3.4257812L253.40625 -5.2070312L262.82812 -5.2070312L262.82812 -3.4257812L259.26562 -3.4257812ZM263.23438 5.8007812L263.23438 -0.66796875Q263.23438 -1.3632812 263.21484 -1.828125Q263.19531 -2.2929688 263.17188 -2.6523438L265.26562 -2.6523438Q265.28906 -2.5117188 265.32812 -1.796875Q265.36719 -1.0820312 265.36719 -0.84765625L265.39844 -0.84765625Q265.71875 -1.7382812 265.96875 -2.1015625Q266.21875 -2.4648438 266.5625 -2.640625Q266.90625 -2.8164062 267.42188 -2.8164062Q267.84375 -2.8164062 268.10156 -2.6992188L268.10156 -0.86328125Q267.57031 -0.98046875 267.16406 -0.98046875Q266.34375 -0.98046875 265.88672 -0.31640625Q265.42969 0.34765625 265.42969 1.6523438L265.42969 5.8007812L263.23438 5.8007812ZM272.92188 5.9570312Q271.01562 5.9570312 269.99219 4.828125Q268.96875 3.6992188 268.96875 1.5351562Q268.96875 -0.55859375 270.00781 -1.6835938Q271.04688 -2.8085938 272.95312 -2.8085938Q274.77344 -2.8085938 275.73438 -1.6015625Q276.69531 -0.39453125 276.69531 1.9335938L276.69531 1.9960938L271.27344 1.9960938Q271.27344 3.2304688 271.73047 3.859375Q272.1875 4.4882812 273.03125 4.4882812Q274.19531 4.4882812 274.5 3.4804688L276.57031 3.6601562Q275.67188 5.9570312 272.92188 5.9570312ZM272.92188 -1.4257812Q272.14844 -1.4257812 271.73047 -0.88671875Q271.3125 -0.34765625 271.28906 0.62109375L274.57031 0.62109375Q274.50781 -0.40234375 274.07812 -0.9140625Q273.64844 -1.4257812 272.92188 -1.4257812ZM283.83594 5.8007812L283.83594 1.0585938Q283.83594 -1.1679688 282.32812 -1.1679688Q281.53125 -1.1679688 281.04297 -0.484375Q280.55469 0.19921875 280.55469 1.2695312L280.55469 5.8007812L278.35938 5.8007812L278.35938 -0.76171875Q278.35938 -1.4414062 278.33984 -1.875Q278.32031 -2.3085938 278.29688 -2.6523438L280.39062 -2.6523438Q280.41406 -2.5039062 280.45312 -1.859375Q280.49219 -1.2148438 280.49219 -0.97265625L280.52344 -0.97265625Q280.96875 -1.9414062 281.64062 -2.3789062Q282.3125 -2.8164062 283.24219 -2.8164062Q284.58594 -2.8164062 285.30469 -1.9882812Q286.02344 -1.1601562 286.02344 0.43359375L286.02344 5.8007812L283.83594 5.8007812ZM293.60938 5.8007812Q293.57812 5.6835938 293.53516 5.2109375Q293.49219 4.7382812 293.49219 4.4257812L293.46094 4.4257812Q292.75 5.9570312 290.75781 5.9570312Q289.28125 5.9570312 288.47656 4.8046875Q287.67188 3.6523438 287.67188 1.5820312Q287.67188 -0.51953125 288.51953 -1.6640625Q289.36719 -2.8085938 290.92188 -2.8085938Q291.82031 -2.8085938 292.47266 -2.4335938Q293.125 -2.0585938 293.47656 -1.3164062L293.49219 -1.3164062L293.47656 -2.7070312L293.47656 -5.7929688L295.67188 -5.7929688L295.67188 3.9570312Q295.67188 4.7382812 295.73438 5.8007812L293.60938 5.8007812ZM293.50781 1.5273438Q293.50781 0.16015625 293.05078 -0.578125Q292.59375 -1.3164062 291.70312 -1.3164062Q290.82031 -1.3164062 290.39062 -0.6015625Q289.96094 0.11328125 289.96094 1.5820312Q289.96094 4.4570312 291.6875 4.4570312Q292.55469 4.4570312 293.03125 3.6953125Q293.50781 2.9335938 293.50781 1.5273438ZM305.03125 3.3320312Q305.03125 4.5585938 304.02734 5.2578125Q303.02344 5.9570312 301.25 5.9570312Q299.50781 5.9570312 298.58203 5.40625Q297.65625 4.8554688 297.35156 3.6914062L299.28125 3.4023438Q299.44531 4.0039062 299.84766 4.2539062Q300.25 4.5039062 301.25 4.5039062Q302.17188 4.5039062 302.59375 4.2695312Q303.01562 4.0351562 303.01562 3.5351562Q303.01562 3.1289062 302.67578 2.890625Q302.33594 2.6523438 301.52344 2.4882812Q299.66406 2.1210938 299.01562 1.8046875Q298.36719 1.4882812 298.02734 0.984375Q297.6875 0.48046875 297.6875 -0.25390625Q297.6875 -1.4648438 298.62109 -2.140625Q299.55469 -2.8164062 301.26562 -2.8164062Q302.77344 -2.8164062 303.69141 -2.2304688Q304.60938 -1.6445312 304.83594 -0.53515625L302.89062 -0.33203125Q302.79688 -0.84765625 302.42969 -1.1015625Q302.0625 -1.3554688 301.26562 -1.3554688Q300.48438 -1.3554688 300.09375 -1.15625Q299.70312 -0.95703125 299.70312 -0.48828125Q299.70312 -0.12109375 300.00391 0.09375Q300.30469 0.30859375 301.01562 0.44921875Q302.00781 0.65234375 302.77734 0.8671875Q303.54688 1.0820312 304.01172 1.3789062Q304.47656 1.6757812 304.75391 2.140625Q305.03125 2.6054688 305.03125 3.3320312Z"/>
	<path fill="none" stroke="black" stroke-width="1" stroke-miterlimit="10" stroke-opacity="0.10196079" d="M49 749.5L1195 749.5"/>
	<clipPath id="cl_74">
		<rect y="749.20001" width="1200" height="50.799988"/>
	</clipPath>
	<g clip-path="url(#cl_74)">
		<path fill="#666" transform="translate(49.75 760.2)" d="M-12.751953 11.300586L-14 11.300586L-16.302734 4.960742L-15.177734 4.960742L-13.783203 9.085742Q-13.707031 9.320117 -13.378906 10.474414L-13.173828 9.788867L-12.945312 9.0974607L-11.503906 4.960742L-10.384766 4.960742L-12.751953 11.300586ZM-4.1386719 7.1697264Q-4.1386719 9.2380857 -4.8681641 10.327929Q-5.5976562 11.417773 -7.0214844 11.417773Q-8.4453125 11.417773 -9.1601562 10.333789Q-9.875 9.2498045 -9.875 7.1697264Q-9.875 5.0427732 -9.1806641 3.9822264Q-8.4863281 2.9216795 -6.9863281 2.9216795Q-5.5273438 2.9216795 -4.8330078 3.9939451Q-4.1386719 5.0662107 -4.1386719 7.1697264ZM-5.2109375 7.1697264Q-5.2109375 5.382617 -5.6240234 4.5798826Q-6.0371094 3.7771482 -6.9863281 3.7771482Q-7.9589844 3.7771482 -8.3837891 4.5681639Q-8.8085938 5.3591795 -8.8085938 7.1697264Q-8.8085938 8.9275389 -8.3779297 9.741992Q-7.9472656 10.556445 -7.0097656 10.556445Q-6.078125 10.556445 -5.6445312 9.7244139Q-5.2109375 8.8923826 -5.2109375 7.1697264ZM-2.5742188 11.300586L-2.5742188 10.017383L-1.4316406 10.017383L-1.4316406 11.300586L-2.5742188 11.300586ZM0.578125 11.300586L0.578125 10.404101L2.6816406 10.404101L2.6816406 4.0525389L0.81835938 5.382617L0.81835938 4.3865232L2.7695312 3.0447264L3.7421875 3.0447264L3.7421875 10.404101L5.7519531 10.404101L5.7519531 11.300586L0.578125 11.300586ZM7.4335938 11.300586L7.4335938 10.017383L8.5761719 10.017383L8.5761719 11.300586L7.4335938 11.300586ZM10.585938 11.300586L10.585938 10.404101L12.689453 10.404101L12.689453 4.0525389L10.826172 5.382617L10.826172 4.3865232L12.777344 3.0447264L13.75 3.0447264L13.75 10.404101L15.759766 10.404101L15.759766 11.300586L10.585938 11.300586Z"/>
	</g>
	<path fill="none" stroke="black" stroke-width="1" stroke-miterlimit="10" stroke-opacity="0.10196079" d="M49.5 71L49.5 750"/>
	<clipPath id="cl_76">
		<rect width="49.75" height="800"/>
	</clipPath>
	<g clip-path="url(#cl_76)">
		<path fill="#666" transform="translate(38.75 749.2)" d="M-0.46679688 -0.030273438Q-0.46679688 2.0380859 -1.1962891 3.1279297Q-1.9257812 4.2177734 -3.3496094 4.2177734Q-4.7734375 4.2177734 -5.4882812 3.1337891Q-6.203125 2.0498047 -6.203125 -0.030273438Q-6.203125 -2.1572266 -5.5087891 -3.2177734Q-4.8144531 -4.2783203 -3.3144531 -4.2783203Q-1.8554688 -4.2783203 -1.1611328 -3.2060547Q-0.46679688 -2.1337891 -0.46679688 -0.030273438ZM-1.5390625 -0.030273438Q-1.5390625 -1.8173828 -1.9521484 -2.6201172Q-2.3652344 -3.4228516 -3.3144531 -3.4228516Q-4.2871094 -3.4228516 -4.7119141 -2.6318359Q-5.1367188 -1.8408203 -5.1367188 -0.030273438Q-5.1367188 1.7275391 -4.7060547 2.5419922Q-4.2753906 3.3564453 -3.3378906 3.3564453Q-2.40625 3.3564453 -1.9726562 2.5244141Q-1.5390625 1.6923828 -1.5390625 -0.030273438Z"/>
	</g>
	<clipPath id="cl_77">
		<rect width="49.75" height="800"/>
	</clipPath>
	<g clip-path="url(#cl_77)">
		<path fill="#666" transform="translate(38.75 681.4)" d="M-5.7578125 4.1005859L-5.7578125 3.2041016L-3.6542969 3.2041016L-3.6542969 -3.1474609L-5.5175781 -1.8173828L-5.5175781 -2.8134766L-3.5664062 -4.1552734L-2.59375 -4.1552734L-2.59375 3.2041016L-0.58398438 3.2041016L-0.58398438 4.1005859L-5.7578125 4.1005859Z"/>
	</g>
	<clipPath id="cl_78">
		<rect width="49.75" height="800"/>
	</clipPath>
	<g clip-path="url(#cl_78)">
		<path fill="#666" transform="translate(38.75 613.6)" d="M-6.0683594 4.1005859L-6.0683594 3.3564453Q-5.7695312 2.6708984 -5.3388672 2.1464844Q-4.9082031 1.6220703 -4.4335938 1.1972656Q-3.9589844 0.77246094 -3.4931641 0.40917969Q-3.0273438 0.045898438 -2.6523438 -0.31738281Q-2.2773438 -0.68066406 -2.0458984 -1.0791016Q-1.8144531 -1.4775391 -1.8144531 -1.9814453Q-1.8144531 -2.6611328 -2.2128906 -3.0361328Q-2.6113281 -3.4111328 -3.3203125 -3.4111328Q-3.9941406 -3.4111328 -4.4306641 -3.0449219Q-4.8671875 -2.6787109 -4.9433594 -2.0166016L-6.0214844 -2.1162109Q-5.9042969 -3.1064453 -5.1806641 -3.6923828Q-4.4570312 -4.2783203 -3.3203125 -4.2783203Q-2.0722656 -4.2783203 -1.4013672 -3.6894531Q-0.73046875 -3.1005859 -0.73046875 -2.0166016Q-0.73046875 -1.5361328 -0.95019531 -1.0615234Q-1.1699219 -0.58691406 -1.6035156 -0.11230469Q-2.0371094 0.36230469 -3.2617188 1.3583984Q-3.9355469 1.9091797 -4.3339844 2.3515625Q-4.7324219 2.7939453 -4.9082031 3.2041016L-0.6015625 3.2041016L-0.6015625 4.1005859L-6.0683594 4.1005859Z"/>
	</g>
	<clipPath id="cl_79">
		<rect width="49.75" height="800"/>
	</clipPath>
	<g clip-path="url(#cl_79)">
		<path fill="#666" transform="translate(38.75 545.8)" d="M-0.52539062 1.8212891Q-0.52539062 2.9638672 -1.2519531 3.5908203Q-1.9785156 4.2177734 -3.3261719 4.2177734Q-4.5800781 4.2177734 -5.3271484 3.6523438Q-6.0742188 3.0869141 -6.2148438 1.9794922L-5.125 1.8798828Q-4.9140625 3.3447266 -3.3261719 3.3447266Q-2.5292969 3.3447266 -2.0751953 2.9521484Q-1.6210938 2.5595703 -1.6210938 1.7861328Q-1.6210938 1.1123047 -2.1396484 0.734375Q-2.6582031 0.35644531 -3.6367188 0.35644531L-4.234375 0.35644531L-4.234375 -0.55761719L-3.6601562 -0.55761719Q-2.7929688 -0.55761719 -2.3154297 -0.93554688Q-1.8378906 -1.3134766 -1.8378906 -1.9814453Q-1.8378906 -2.6435547 -2.2275391 -3.0273438Q-2.6171875 -3.4111328 -3.3847656 -3.4111328Q-4.0820312 -3.4111328 -4.5126953 -3.0537109Q-4.9433594 -2.6962891 -5.0136719 -2.0458984L-6.0742188 -2.1279297Q-5.9570312 -3.1416016 -5.2333984 -3.7099609Q-4.5097656 -4.2783203 -3.3730469 -4.2783203Q-2.1308594 -4.2783203 -1.4423828 -3.7011719Q-0.75390625 -3.1240234 -0.75390625 -2.0927734Q-0.75390625 -1.3017578 -1.1962891 -0.80664062Q-1.6386719 -0.31152344 -2.4824219 -0.13574219L-2.4824219 -0.11230469Q-1.5566406 -0.012695312 -1.0410156 0.50878906Q-0.52539062 1.0302734 -0.52539062 1.8212891Z"/>
	</g>
	<clipPath id="cl_7a">
		<rect width="49.75" height="800"/>
	</clipPath>
	<g clip-path="url(#cl_7a)">
		<path fill="#666" transform="translate(38.75 478)" d="M-1.5097656 2.2314453L-1.5097656 4.1005859L-2.5058594 4.1005859L-2.5058594 2.2314453L-6.3964844 2.2314453L-6.3964844 1.4111328L-2.6171875 -4.1552734L-1.5097656 -4.1552734L-1.5097656 1.3994141L-0.34960938 1.3994141L-0.34960938 2.2314453L-1.5097656 2.2314453ZM-2.5058594 -2.9658203Q-2.5175781 -2.9306641 -2.6699219 -2.6552734Q-2.8222656 -2.3798828 -2.8984375 -2.2685547L-5.0136719 0.84863281L-5.3300781 1.2822266L-5.4238281 1.3994141L-2.5058594 1.3994141L-2.5058594 -2.9658203Z"/>
	</g>
	<clipPath id="cl_7b">
		<rect width="49.75" height="800"/>
	</clipPath>
	<g clip-path="url(#cl_7b)">
		<path fill="#666" transform="translate(38.75 410.2)" d="M-0.50195312 1.4111328Q-0.50195312 2.7177734 -1.2783203 3.4677734Q-2.0546875 4.2177734 -3.4316406 4.2177734Q-4.5859375 4.2177734 -5.2949219 3.7138672Q-6.0039062 3.2099609 -6.1914062 2.2548828L-5.125 2.1318359Q-4.7910156 3.3564453 -3.4082031 3.3564453Q-2.5585938 3.3564453 -2.078125 2.84375Q-1.5976562 2.3310547 -1.5976562 1.4345703Q-1.5976562 0.65527344 -2.0810547 0.17480469Q-2.5644531 -0.30566406 -3.3847656 -0.30566406Q-3.8125 -0.30566406 -4.1816406 -0.17089844Q-4.5507812 -0.036132812 -4.9199219 0.28613281L-5.9511719 0.28613281L-5.6757812 -4.1552734L-0.98242188 -4.1552734L-0.98242188 -3.2587891L-4.7148438 -3.2587891L-4.8730469 -0.63964844Q-4.1875 -1.1669922 -3.1679688 -1.1669922Q-1.9492188 -1.1669922 -1.2255859 -0.45214844Q-0.50195312 0.26269531 -0.50195312 1.4111328Z"/>
	</g>
	<clipPath id="cl_7c">
		<rect width="49.75" height="800"/>
	</clipPath>
	<g clip-path="url(#cl_7c)">
		<path fill="#666" transform="translate(38.75 342.4)" d="M-0.52539062 1.3994141Q-0.52539062 2.7060547 -1.234375 3.4619141Q-1.9433594 4.2177734 -3.1914062 4.2177734Q-4.5859375 4.2177734 -5.3242188 3.1806641Q-6.0625 2.1435547 -6.0625 0.16308594Q-6.0625 -1.9814453 -5.2949219 -3.1298828Q-4.5273438 -4.2783203 -3.109375 -4.2783203Q-1.2402344 -4.2783203 -0.75390625 -2.5966797L-1.7617188 -2.4150391Q-2.0722656 -3.4228516 -3.1210938 -3.4228516Q-4.0234375 -3.4228516 -4.5185547 -2.5820312Q-5.0136719 -1.7412109 -5.0136719 -0.14746094Q-4.7265625 -0.68066406 -4.2050781 -0.95898438Q-3.6835938 -1.2373047 -3.0097656 -1.2373047Q-1.8671875 -1.2373047 -1.1962891 -0.52246094Q-0.52539062 0.19238281 -0.52539062 1.3994141ZM-1.5976562 1.4462891Q-1.5976562 0.54980469 -2.0371094 0.063476562Q-2.4765625 -0.42285156 -3.2617188 -0.42285156Q-4 -0.42285156 -4.4541016 0.0078125Q-4.9082031 0.43847656 -4.9082031 1.1943359Q-4.9082031 2.1494141 -4.4365234 2.7587891Q-3.9648438 3.3681641 -3.2265625 3.3681641Q-2.4648438 3.3681641 -2.03125 2.8554688Q-1.5976562 2.3427734 -1.5976562 1.4462891Z"/>
	</g>
	<clipPath id="cl_7d">
		<rect width="49.75" height="800"/>
	</clipPath>
	<g clip-path="url(#cl_7d)">
		<path fill="#666" transform="translate(38.75 274.6)" d="M-0.6015625 -3.2998047Q-1.8671875 -1.3662109 -2.3886719 -0.27050781Q-2.9101562 0.82519531 -3.1708984 1.8916016Q-3.4316406 2.9580078 -3.4316406 4.1005859L-4.5332031 4.1005859Q-4.5332031 2.5185547 -3.8623047 0.76953125Q-3.1914062 -0.97949219 -1.6210938 -3.2587891L-6.0566406 -3.2587891L-6.0566406 -4.1552734L-0.6015625 -4.1552734L-0.6015625 -3.2998047Z"/>
	</g>
	<clipPath id="cl_7e">
		<rect width="49.75" height="800"/>
	</clipPath>
	<g clip-path="url(#cl_7e)">
		<path fill="#666" transform="translate(38.75 206.8)" d="M-0.51953125 1.7978516Q-0.51953125 2.9404297 -1.2460938 3.5791016Q-1.9726562 4.2177734 -3.3320312 4.2177734Q-4.65625 4.2177734 -5.4033203 3.5908203Q-6.1503906 2.9638672 -6.1503906 1.8095703Q-6.1503906 1.0009766 -5.6875 0.45019531Q-5.2246094 -0.10058594 -4.5039062 -0.21777344L-4.5039062 -0.24121094Q-5.1777344 -0.39941406 -5.5673828 -0.92675781Q-5.9570312 -1.4541016 -5.9570312 -2.1630859Q-5.9570312 -3.1064453 -5.2509766 -3.6923828Q-4.5449219 -4.2783203 -3.3554688 -4.2783203Q-2.1367188 -4.2783203 -1.4306641 -3.7041016Q-0.72460938 -3.1298828 -0.72460938 -2.1513672Q-0.72460938 -1.4423828 -1.1171875 -0.91503906Q-1.5097656 -0.38769531 -2.1894531 -0.25292969L-2.1894531 -0.22949219Q-1.3984375 -0.10058594 -0.95898438 0.44140625Q-0.51953125 0.98339844 -0.51953125 1.7978516ZM-1.8203125 -2.0927734Q-1.8203125 -3.4931641 -3.3554688 -3.4931641Q-4.0996094 -3.4931641 -4.4892578 -3.1416016Q-4.8789062 -2.7900391 -4.8789062 -2.0927734Q-4.8789062 -1.3837891 -4.4775391 -1.0117188Q-4.0761719 -0.63964844 -3.34375 -0.63964844Q-2.5996094 -0.63964844 -2.2099609 -0.98242188Q-1.8203125 -1.3251953 -1.8203125 -2.0927734ZM-1.6152344 1.6982422Q-1.6152344 0.93066406 -2.0722656 0.54101562Q-2.5292969 0.15136719 -3.3554688 0.15136719Q-4.1582031 0.15136719 -4.609375 0.5703125Q-5.0605469 0.98925781 -5.0605469 1.7216797Q-5.0605469 3.4267578 -3.3203125 3.4267578Q-2.4589844 3.4267578 -2.0371094 3.0136719Q-1.6152344 2.6005859 -1.6152344 1.6982422Z"/>
	</g>
	<clipPath id="cl_7f">
		<rect width="49.75" height="800"/>
	</clipPath>
	<g clip-path="url(#cl_7f)">
		<path fill="#666" transform="translate(38.75 139)" d="M-0.56640625 -0.19433594Q-0.56640625 1.9326172 -1.3427734 3.0751953Q-2.1191406 4.2177734 -3.5546875 4.2177734Q-4.5214844 4.2177734 -5.1044922 3.8105469Q-5.6875 3.4033203 -5.9394531 2.4951172L-4.9316406 2.3369141Q-4.6152344 3.3681641 -3.5371094 3.3681641Q-2.6289062 3.3681641 -2.1308594 2.5244141Q-1.6328125 1.6806641 -1.609375 0.11621094Q-1.84375 0.64355469 -2.4121094 0.96289062Q-2.9804688 1.2822266 -3.6601562 1.2822266Q-4.7734375 1.2822266 -5.4414062 0.52050781Q-6.109375 -0.24121094 -6.109375 -1.5009766Q-6.109375 -2.7958984 -5.3828125 -3.5371094Q-4.65625 -4.2783203 -3.3613281 -4.2783203Q-1.984375 -4.2783203 -1.2753906 -3.2587891Q-0.56640625 -2.2392578 -0.56640625 -0.19433594ZM-1.7148438 -1.2138672Q-1.7148438 -2.2099609 -2.171875 -2.8164062Q-2.6289062 -3.4228516 -3.3964844 -3.4228516Q-4.1582031 -3.4228516 -4.5976562 -2.9042969Q-5.0371094 -2.3857422 -5.0371094 -1.5009766Q-5.0371094 -0.59863281 -4.5976562 -0.07421875Q-4.1582031 0.45019531 -3.4082031 0.45019531Q-2.9511719 0.45019531 -2.5585938 0.2421875Q-2.1660156 0.034179688 -1.9404297 -0.34667969Q-1.7148438 -0.72753906 -1.7148438 -1.2138672Z"/>
	</g>
	<clipPath id="cl_80">
		<rect width="49.75" height="800"/>
	</clipPath>
	<g clip-path="url(#cl_80)">
		<path fill="#666" transform="translate(38.75 71.2)" d="M-12.429688 4.1005859L-12.429688 3.2041016L-10.326172 3.2041016L-10.326172 -3.1474609L-12.189453 -1.8173828L-12.189453 -2.8134766L-10.238281 -4.1552734L-9.265625 -4.1552734L-9.265625 3.2041016L-7.2558594 3.2041016L-7.2558594 4.1005859L-12.429688 4.1005859ZM-0.46484375 -0.030273438Q-0.46484375 2.0380859 -1.1943359 3.1279297Q-1.9238281 4.2177734 -3.3476562 4.2177734Q-4.7714844 4.2177734 -5.4863281 3.1337891Q-6.2011719 2.0498047 -6.2011719 -0.030273438Q-6.2011719 -2.1572266 -5.5068359 -3.2177734Q-4.8125 -4.2783203 -3.3125 -4.2783203Q-1.8535156 -4.2783203 -1.1591797 -3.2060547Q-0.46484375 -2.1337891 -0.46484375 -0.030273438ZM-1.5371094 -0.030273438Q-1.5371094 -1.8173828 -1.9501953 -2.6201172Q-2.3632812 -3.4228516 -3.3125 -3.4228516Q-4.2851562 -3.4228516 -4.7099609 -2.6318359Q-5.1347656 -1.8408203 -5.1347656 -0.030273438Q-5.1347656 1.7275391 -4.7041016 2.5419922Q-4.2734375 3.3564453 -3.3359375 3.3564453Q-2.4042969 3.3564453 -1.9707031 2.5244141Q-1.5371094 1.6923828 -1.5371094 -0.030273438Z"/>
	</g>
	<clipPath id="cl_82">
		<rect x="43.75" y="65.199997" width="1156.25" height="690"/>
	</clipPath>
	<g clip-path="url(#cl_82)">
		<path fill="none" stroke="#C32222" stroke-width="2" stroke-miterlimit="10" d=""/>
	</g>
	<clipPath id="cl_83">
		<rect x="43.75" y="65.199997" width="1156.25" height="690"/>
	</clipPath>
	<g clip-path="url(#cl_83)">
		<path fill="#C32222" fill-opacity="0.2" d="M52.75 681.40002Q52.75 681.54742 52.73555 681.69409Q52.721107 681.84076 52.692352 681.98529Q52.663601 682.12988 52.620815 682.27087Q52.578033 682.41187 52.521633 682.54803Q52.465233 682.68427 52.39576 682.81427Q52.326286 682.94421 52.244404 683.06671Q52.162525 683.18927 52.069027 683.30316Q51.975533 683.41711 51.871319 683.5213Q51.767105 683.62555 51.653179 683.71906Q51.539253 683.81256 51.416706 683.89441Q51.294167 683.97632 51.164188 684.04578Q51.03421 684.11523 50.898048 684.17163Q50.76189 684.22803 50.620857 684.27087Q50.47982 684.3136 50.33527 684.34235Q50.19072 684.37115 50.044052 684.38562Q49.897381 684.40002 49.75 684.40002Q49.602619 684.40002 49.455948 684.38562Q49.309277 684.37115 49.164726 684.34235Q49.02018 684.3136 48.879143 684.27087Q48.73811 684.22803 48.601944 684.17163Q48.465782 684.11523 48.335808 684.04578Q48.205826 683.97632 48.083282 683.89435Q47.960747 683.8125 47.846817 683.71899Q47.732895 683.62555 47.628677 683.5213Q47.524467 683.41711 47.430969 683.30322Q47.337471 683.18927 47.255585 683.06671Q47.173706 682.94421 47.104233 682.81421Q47.03476 682.68427 46.978359 682.54803Q46.921963 682.41187 46.879177 682.27087Q46.836395 682.12988 46.80764 681.98529Q46.778893 681.84076 46.76445 681.69409Q46.75 681.54742 46.75 681.40002Q46.75 681.25269 46.76445 681.10596Q46.778896 680.95923 46.807648 680.8147Q46.836403 680.67017 46.879181 680.52917Q46.921963 680.38812 46.978359 680.25195Q47.03476 680.11584 47.104233 679.98584Q47.173706 679.85583 47.255585 679.73328Q47.337471 679.61072 47.430969 679.49683Q47.524467 679.38293 47.628677 679.27869Q47.732895 679.1745 47.846817 679.08099Q47.960747 678.98749 48.083282 678.90558Q48.205826 678.82373 48.335808 678.75427Q48.465782 678.68481 48.601944 678.62836Q48.73811 678.57202 48.879143 678.52917Q49.02018 678.48645 49.164726 678.45764Q49.309277 678.42896 49.455948 678.41449Q49.602619 678.40002 49.75 678.40002Q49.897381 678.40002 50.044052 678.41449Q50.19072 678.42896 50.335266 678.45764Q50.479816 678.48645 50.620853 678.52917Q50.761887 678.57202 50.898045 678.62836Q51.03421 678.68481 51.164188 678.75427Q51.294167 678.82373 51.416706 678.90558Q51.539253 678.98749 51.653179 679.08099Q51.767105 679.1745 51.871315 679.27869Q51.975533 679.38293 52.069023 679.49683Q52.162521 679.61072 52.2444 679.73328Q52.326279 679.85583 52.395756 679.98584Q52.465233 680.11584 52.521633 680.25195Q52.578033 680.38812 52.620815 680.52911Q52.663597 680.67017 52.692348 680.8147Q52.721107 680.95923 52.73555 681.10596Q52.75 681.25269 52.75 681.40002Z"/>
		<path fill="none" stroke="#C32222" stroke-width="2" stroke-miterlimit="10" d="M52.75 681.40002Q52.75 681.54742 52.73555 681.69409Q52.721107 681.84076 52.692352 681.98529Q52.663601 682.12988 52.620815 682.27087Q52.578033 682.41187 52.521633 682.54803Q52.465233 682.68427 52.39576 682.81427Q52.326286 682.94421 52.244404 683.06671Q52.162525 683.18927 52.069027 683.30316Q51.975533 683.41711 51.871319 683.5213Q51.767105 683.62555 51.653179 683.71906Q51.539253 683.81256 51.416706 683.89441Q51.294167 683.97632 51.164188 684.04578Q51.03421 684.11523 50.898048 684.17163Q50.76189 684.22803 50.620857 684.27087Q50.47982 684.3136 50.33527 684.34235Q50.19072 684.37115 50.044052 684.38562Q49.897381 684.40002 49.75 684.40002Q49.602619 684.40002 49.455948 684.38562Q49.309277 684.37115 49.164726 684.34235Q49.02018 684.3136 48.879143 684.27087Q48.73811 684.22803 48.601944 684.17163Q48.465782 684.11523 48.335808 684.04578Q48.205826 683.97632 48.083282 683.89435Q47.960747 683.8125 47.846817 683.71899Q47.732895 683.62555 47.628677 683.5213Q47.524467 683.41711 47.430969 683.30322Q47.337471 683.18927 47.255585 683.06671Q47.173706 682.94421 47.104233 682.81421Q47.03476 682.68427 46.978359 682.54803Q46.921963 682.41187 46.879177 682.27087Q46.836395 682.12988 46.80764 681.98529Q46.778893 681.84076 46.76445 681.69409Q46.75 681.54742 46.75 681.40002Q46.75 681.25269 46.76445 681.10596Q46.778896 680.95923 46.807648 680.8147Q46.836403 680.67017 46.879181 680.52917Q46.921963 680.38812 46.978359 680.25195Q47.03476 680.11584 47.104233 679.98584Q47.173706 679.85583 47.255585 679.73328Q47.337471 679.61072 47.430969 679.49683Q47.524467 679.38293 47.628677 679.27869Q47.732895 679.1745 47.846817 679.08099Q47.960747 678.98749 48.083282 678.90558Q48.205826 678.82373 48.335808 678.75427Q48.465782 678.68481 48.601944 678.62836Q48.73811 678.57202 48.879143 678.52917Q49.02018 678.48645 49.164726 678.45764Q49.309277 678.42896 49.455948 678.41449Q49.602619 678.40002 49.75 678.40002Q49.897381 678.40002 50.044052 678.41449Q50.19072 678.42896 50.335266 678.45764Q50.479816 678.48645 50.620853 678.52917Q50.761887 678.57202 50.898045 678.62836Q51.03421 678.68481 51.164188 678.75427Q51.294167 678.82373 51.416706 678.90558Q51.539253 678.98749 51.653179 679.08099Q51.767105 679.1745 51.871315 679.27869Q51.975533 679.38293 52.069023 679.49683Q52.162521 679.61072 52.2444 679.73328Q52.326279 679.85583 52.395756 679.98584Q52.465233 680.11584 52.521633 680.25195Q52.578033 680.38812 52.620815 680.52911Q52.663597 680.67017 52.692348 680.8147Q52.721107 680.95923 52.73555 681.10596Q52.75 681.25269 52.75 681.40002Z"/>
	</g>
</svg>
