<?xml version="1.0" encoding="utf-8" ?>
<svg xmlns="http://www.w3.org/2000/svg" xmlns:xlink="http://www.w3.org/1999/xlink" width="1200" height="800">
	<rect fill="white" width="1200" height="800"/>
	<path fill="none" stroke="black" stroke-width="1" stroke-miterlimit="10" stroke-opacity="0.10196079" d="M49.5 71.199997L49.5 749"/>
	<path fill="none" stroke="black" stroke-width="1" stroke-miterlimit="10" stroke-opacity="0.10196079" d="M49.5 750L49.5 757.20001"/>
	<path fill="#666" transform="translate(621.875 788.8)" d="M-26.550781 4.1005859L-28.695312 0.67285156L-31.267578 0.67285156L-31.267578 4.1005859L-32.386719 4.1005859L-32.386719 -4.1552734L-28.501953 -4.1552734Q-27.107422 -4.1552734 -26.348633 -3.53125Q-25.589844 -2.9072266 -25.589844 -1.7939453Q-25.589844 -0.87402344 -26.125977 -0.24707031Q-26.662109 0.37988281 -27.605469 0.54394531L-25.261719 4.1005859L-26.550781 4.1005859ZM-26.714844 -1.7822266Q-26.714844 -2.5029297 -27.204102 -2.8808594Q-27.693359 -3.2587891 -28.613281 -3.2587891L-31.267578 -3.2587891L-31.267578 -0.21191406L-28.566406 -0.21191406Q-27.681641 -0.21191406 -27.198242 -0.625Q-26.714844 -1.0380859 -26.714844 -1.7822266ZM-23.087891 1.1533203Q-23.087891 2.2431641 -22.636719 2.8349609Q-22.185547 3.4267578 -21.318359 3.4267578Q-20.632812 3.4267578 -20.219727 3.1513672Q-19.806641 2.8759766 -19.660156 2.4541016L-18.734375 2.7177734Q-19.302734 4.2177734 -21.318359 4.2177734Q-22.724609 4.2177734 -23.459961 3.3798828Q-24.195312 2.5419922 -24.195312 0.88964844Q-24.195312 -0.68066406 -23.459961 -1.5185547Q-22.724609 -2.3564453 -21.359375 -2.3564453Q-18.564453 -2.3564453 -18.564453 1.0126953L-18.564453 1.1533203L-23.087891 1.1533203ZM-19.654297 0.34472656Q-19.742188 -0.65722656 -20.164062 -1.1171875Q-20.585938 -1.5771484 -21.376953 -1.5771484Q-22.144531 -1.5771484 -22.592773 -1.0644531Q-23.041016 -0.55175781 -23.076172 0.34472656L-19.654297 0.34472656ZM-17.222656 4.1005859L-17.222656 -4.5947266L-16.167969 -4.5947266L-16.167969 4.1005859L-17.222656 4.1005859ZM-13.748047 1.1533203Q-13.748047 2.2431641 -13.296875 2.8349609Q-12.845703 3.4267578 -11.978516 3.4267578Q-11.292969 3.4267578 -10.879883 3.1513672Q-10.466797 2.8759766 -10.320312 2.4541016L-9.3945312 2.7177734Q-9.9628906 4.2177734 -11.978516 4.2177734Q-13.384766 4.2177734 -14.120117 3.3798828Q-14.855469 2.5419922 -14.855469 0.88964844Q-14.855469 -0.68066406 -14.120117 -1.5185547Q-13.384766 -2.3564453 -12.019531 -2.3564453Q-9.2246094 -2.3564453 -9.2246094 1.0126953L-9.2246094 1.1533203L-13.748047 1.1533203ZM-10.314453 0.34472656Q-10.402344 -0.65722656 -10.824219 -1.1171875Q-11.246094 -1.5771484 -12.037109 -1.5771484Q-12.804688 -1.5771484 -13.25293 -1.0644531Q-13.701172 -0.55175781 -13.736328 0.34472656L-10.314453 0.34472656ZM-6.265625 4.2177734Q-7.2207031 4.2177734 -7.7011719 3.7138672Q-8.1816406 3.2099609 -8.1816406 2.3310547Q-8.1816406 1.3466797 -7.5341797 0.81933594Q-6.8867188 0.29199219 -5.4453125 0.25683594L-4.0214844 0.23339844L-4.0214844 -0.11230469Q-4.0214844 -0.88574219 -4.3496094 -1.2197266Q-4.6777344 -1.5537109 -5.3808594 -1.5537109Q-6.0898438 -1.5537109 -6.4121094 -1.3134766Q-6.734375 -1.0732422 -6.7988281 -0.54589844L-7.9003906 -0.64550781Q-7.6308594 -2.3564453 -5.3574219 -2.3564453Q-4.1621094 -2.3564453 -3.5585938 -1.8085938Q-2.9550781 -1.2607422 -2.9550781 -0.22363281L-2.9550781 2.5068359Q-2.9550781 2.9755859 -2.8320312 3.2128906Q-2.7089844 3.4501953 -2.3632812 3.4501953Q-2.2109375 3.4501953 -2.0175781 3.4091797L-2.0175781 4.0654297Q-2.4160156 4.1591797 -2.8320312 4.1591797Q-3.4179688 4.1591797 -3.6845703 3.8515625Q-3.9511719 3.5439453 -3.9863281 2.8876953L-4.0214844 2.8876953Q-4.4257812 3.6142578 -4.9619141 3.9160156Q-5.4980469 4.2177734 -6.265625 4.2177734ZM-6.0253906 3.4267578Q-5.4453125 3.4267578 -4.9941406 3.1630859Q-4.5429688 2.8994141 -4.2822266 2.4394531Q-4.0214844 1.9794922 -4.0214844 1.4931641L-4.0214844 0.97167969L-5.1757812 0.99511719Q-5.9199219 1.0068359 -6.3037109 1.1474609Q-6.6875 1.2880859 -6.8925781 1.5810547Q-7.0976562 1.8740234 -7.0976562 2.3486328Q-7.0976562 2.8642578 -6.8193359 3.1455078Q-6.5410156 3.4267578 -6.0253906 3.4267578ZM3.5488281 2.3486328Q3.5488281 3.2451172 2.8720703 3.7314453Q2.1953125 4.2177734 0.9765625 4.2177734Q-0.20703125 4.2177734 -0.84863281 3.828125Q-1.4902344 3.4384766 -1.6835938 2.6123047L-0.75195312 2.4306641Q-0.6171875 2.9404297 -0.1953125 3.1777344Q0.2265625 3.4150391 0.9765625 3.4150391Q1.7792969 3.4150391 2.1513672 3.1689453Q2.5234375 2.9228516 2.5234375 2.4306641Q2.5234375 2.0556641 2.265625 1.8212891Q2.0078125 1.5869141 1.4335938 1.4345703L0.67773438 1.2353516Q-0.23046875 1.0009766 -0.61425781 0.77539062Q-0.99804688 0.54980469 -1.2148438 0.22753906Q-1.4316406 -0.094726562 -1.4316406 -0.56347656Q-1.4316406 -1.4306641 -0.81347656 -1.8847656Q-0.1953125 -2.3388672 0.98828125 -2.3388672Q2.0371094 -2.3388672 2.6552734 -1.9697266Q3.2734375 -1.6005859 3.4375 -0.78613281L2.4882812 -0.66894531Q2.4003906 -1.0908203 2.0166016 -1.3164062Q1.6328125 -1.5419922 0.98828125 -1.5419922Q0.2734375 -1.5419922 -0.06640625 -1.3251953Q-0.40625 -1.1083984 -0.40625 -0.66894531Q-0.40625 -0.39941406 -0.265625 -0.22363281Q-0.125 -0.047851562 0.15039062 0.075195312Q0.42578125 0.19824219 1.3105469 0.41503906Q2.1484375 0.62597656 2.5175781 0.8046875Q2.8867188 0.98339844 3.1005859 1.2001953Q3.3144531 1.4169922 3.4316406 1.7011719Q3.5488281 1.9853516 3.5488281 2.3486328ZM5.5996094 1.1533203Q5.5996094 2.2431641 6.0507812 2.8349609Q6.5019531 3.4267578 7.3691406 3.4267578Q8.0546875 3.4267578 8.4677734 3.1513672Q8.8808594 2.8759766 9.0273438 2.4541016L9.953125 2.7177734Q9.3847656 4.2177734 7.3691406 4.2177734Q5.9628906 4.2177734 5.2275391 3.3798828Q4.4921875 2.5419922 4.4921875 0.88964844Q4.4921875 -0.68066406 5.2275391 -1.5185547Q5.9628906 -2.3564453 7.328125 -2.3564453Q10.123047 -2.3564453 10.123047 1.0126953L10.123047 1.1533203L5.5996094 1.1533203ZM9.0332031 0.34472656Q8.9453125 -0.65722656 8.5234375 -1.1171875Q8.1015625 -1.5771484 7.3105469 -1.5771484Q6.5429688 -1.5771484 6.0947266 -1.0644531Q5.6464844 -0.55175781 5.6113281 0.34472656L9.0332031 0.34472656ZM17.992188 -3.2412109L17.992188 4.1005859L16.878906 4.1005859L16.878906 -3.2412109L14.042969 -3.2412109L14.042969 -4.1552734L20.828125 -4.1552734L20.828125 -3.2412109L17.992188 -3.2412109ZM22.199219 4.2177734Q21.244141 4.2177734 20.763672 3.7138672Q20.283203 3.2099609 20.283203 2.3310547Q20.283203 1.3466797 20.930664 0.81933594Q21.578125 0.29199219 23.019531 0.25683594L24.443359 0.23339844L24.443359 -0.11230469Q24.443359 -0.88574219 24.115234 -1.2197266Q23.787109 -1.5537109 23.083984 -1.5537109Q22.375 -1.5537109 22.052734 -1.3134766Q21.730469 -1.0732422 21.666016 -0.54589844L20.564453 -0.64550781Q20.833984 -2.3564453 23.107422 -2.3564453Q24.302734 -2.3564453 24.90625 -1.8085938Q25.509766 -1.2607422 25.509766 -0.22363281L25.509766 2.5068359Q25.509766 2.9755859 25.632812 3.2128906Q25.755859 3.4501953 26.101562 3.4501953Q26.253906 3.4501953 26.447266 3.4091797L26.447266 4.0654297Q26.048828 4.1591797 25.632812 4.1591797Q25.046875 4.1591797 24.780273 3.8515625Q24.513672 3.5439453 24.478516 2.8876953L24.443359 2.8876953Q24.039062 3.6142578 23.50293 3.9160156Q22.966797 4.2177734 22.199219 4.2177734ZM22.439453 3.4267578Q23.019531 3.4267578 23.470703 3.1630859Q23.921875 2.8994141 24.182617 2.4394531Q24.443359 1.9794922 24.443359 1.4931641L24.443359 0.97167969L23.289062 0.99511719Q22.544922 1.0068359 22.161133 1.1474609Q21.777344 1.2880859 21.572266 1.5810547Q21.367188 1.8740234 21.367188 2.3486328Q21.367188 2.8642578 21.645508 3.1455078Q21.923828 3.4267578 22.439453 3.4267578ZM29.658203 6.5908203Q28.621094 6.5908203 28.005859 6.1835938Q27.390625 5.7763672 27.214844 5.0263672L28.275391 4.8740234Q28.380859 5.3134766 28.741211 5.5507812Q29.101562 5.7880859 29.6875 5.7880859Q31.263672 5.7880859 31.263672 3.9423828L31.263672 2.9228516L31.251953 2.9228516Q30.953125 3.5322266 30.431641 3.8398438Q29.910156 4.1474609 29.212891 4.1474609Q28.046875 4.1474609 27.499023 3.3740234Q26.951172 2.6005859 26.951172 0.94238281Q26.951172 -0.73925781 27.540039 -1.5390625Q28.128906 -2.3388672 29.330078 -2.3388672Q30.003906 -2.3388672 30.499023 -2.03125Q30.994141 -1.7236328 31.263672 -1.1552734L31.275391 -1.1552734Q31.275391 -1.3310547 31.298828 -1.7646484Q31.322266 -2.1982422 31.345703 -2.2392578L32.347656 -2.2392578Q32.3125 -1.9228516 32.3125 -0.92675781L32.3125 3.9189453Q32.3125 6.5908203 29.658203 6.5908203ZM31.263672 0.93066406Q31.263672 0.15722656 31.052734 -0.40234375Q30.841797 -0.96191406 30.458008 -1.2578125Q30.074219 -1.5537109 29.587891 -1.5537109Q28.779297 -1.5537109 28.410156 -0.96777344Q28.041016 -0.38183594 28.041016 0.93066406Q28.041016 2.2314453 28.386719 2.7998047Q28.732422 3.3681641 29.570312 3.3681641Q30.068359 3.3681641 30.455078 3.0751953Q30.841797 2.7822266 31.052734 2.234375Q31.263672 1.6865234 31.263672 0.93066406Z"/>
	<path fill="none" stroke="black" stroke-width="1" stroke-miterlimit="10" stroke-opacity="0.10196079" d="M50 749.5L1194 749.5"/>
	<path fill="none" stroke="black" stroke-width="1" stroke-miterlimit="10" stroke-opacity="0.10196079" d="M41.75 749.5L49 749.5"/>
	<path fill="none" stroke="black" stroke-width="1" stroke-miterlimit="10" stroke-opacity="0.10196079" d="M50 681.5L1194 681.5"/>
	<path fill="none" stroke="black" stroke-width="1" stroke-miterlimit="10" stroke-opacity="0.10196079" d="M41.75 681.5L49 681.5"/>
	<path fill="none" stroke="black" stroke-width="1" stroke-miterlimit="10" stroke-opacity="0.10196079" d="M50 613.5L1194 613.5"/>
	<path fill="none" stroke="black" stroke-width="1" stroke-miterlimit="10" stroke-opacity="0.10196079" d="M41.75 613.5L49 613.5"/>
	<path fill="none" stroke="black" stroke-width="1" stroke-miterlimit="10" stroke-opacity="0.10196079" d="M50 545.5L1194 545.5"/>
	<path fill="none" stroke="black" stroke-width="1" stroke-miterlimit="10" stroke-opacity="0.10196079" d="M41.75 545.5L49 545.5"/>
	<path fill="none" stroke="black" stroke-width="1" stroke-miterlimit="10" stroke-opacity="0.10196079" d="M50 478.5L1194 478.5"/>
	<path fill="none" stroke="black" stroke-width="1" stroke-miterlimit="10" stroke-opacity="0.10196079" d="M41.75 478.5L49 478.5"/>
	<path fill="none" stroke="black" stroke-width="1" stroke-miterlimit="10" stroke-opacity="0.10196079" d="M50 410.5L1194 410.5"/>
	<path fill="none" stroke="black" stroke-width="1" stroke-miterlimit="10" stroke-opacity="0.10196079" d="M41.75 410.5L49 410.5"/>
	<path fill="none" stroke="black" stroke-width="1" stroke-miterlimit="10" stroke-opacity="0.10196079" d="M50 342.5L1194 342.5"/>
	<path fill="none" stroke="black" stroke-width="1" stroke-miterlimit="10" stroke-opacity="0.10196079" d="M41.75 342.5L49 342.5"/>
	<path fill="none" stroke="black" stroke-width="1" stroke-miterlimit="10" stroke-opacity="0.10196079" d="M50 274.5L1194 274.5"/>
	<path fill="none" stroke="black" stroke-width="1" stroke-miterlimit="10" stroke-opacity="0.10196079" d="M41.75 274.5L49 274.5"/>
	<path fill="none" stroke="black" stroke-width="1" stroke-miterlimit="10" stroke-opacity="0.10196079" d="M50 206.5L1194 206.5"/>
	<path fill="none" stroke="black" stroke-width="1" stroke-miterlimit="10" stroke-opacity="0.10196079" d="M41.75 206.5L49 206.5"/>
	<path fill="none" stroke="black" stroke-width="1" stroke-miterlimit="10" stroke-opacity="0.10196079" d="M50 139.5L1194 139.5"/>
	<path fill="none" stroke="black" stroke-width="1" stroke-miterlimit="10" stroke-opacity="0.10196079" d="M41.75 139.5L49 139.5"/>
	<path fill="none" stroke="black" stroke-width="1" stroke-miterlimit="10" stroke-opacity="0.10196079" d="M50 71.5L1194 71.5"/>
	<path fill="none" stroke="black" stroke-width="1" stroke-miterlimit="10" stroke-opacity="0.10196079" d="M41.75 71.5L49 71.5"/>
	<path fill="#666" transform="matrix(0 -1 1 0 11.2 410.2)" d="M-21.591797 -0.11230469Q-21.591797 1.1650391 -22.089844 2.1230469Q-22.587891 3.0810547 -23.501953 3.5908203Q-24.416016 4.1005859 -25.611328 4.1005859L-28.699219 4.1005859L-28.699219 -4.1552734L-25.96875 -4.1552734Q-23.871094 -4.1552734 -22.731445 -3.1035156Q-21.591797 -2.0517578 -21.591797 -0.11230469ZM-22.716797 -0.11230469Q-22.716797 -1.6474609 -23.557617 -2.453125Q-24.398438 -3.2587891 -25.992188 -3.2587891L-27.580078 -3.2587891L-27.580078 3.2041016L-25.740234 3.2041016Q-24.832031 3.2041016 -24.143555 2.8056641Q-23.455078 2.4072266 -23.085938 1.6572266Q-22.716797 0.90722656 -22.716797 -0.11230469ZM-14.847656 0.92480469Q-14.847656 2.5888672 -15.580078 3.4033203Q-16.3125 4.2177734 -17.707031 4.2177734Q-19.095703 4.2177734 -19.804688 3.3710938Q-20.513672 2.5244141 -20.513672 0.92480469Q-20.513672 -2.3564453 -17.671875 -2.3564453Q-16.21875 -2.3564453 -15.533203 -1.5566406Q-14.847656 -0.75683594 -14.847656 0.92480469ZM-15.955078 0.92480469Q-15.955078 -0.38769531 -16.344727 -0.98242188Q-16.734375 -1.5771484 -17.654297 -1.5771484Q-18.580078 -1.5771484 -18.993164 -0.97070312Q-19.40625 -0.36425781 -19.40625 0.92480469Q-19.40625 2.1787109 -18.999023 2.8085938Q-18.591797 3.4384766 -17.71875 3.4384766Q-16.769531 3.4384766 -16.362305 2.8291016Q-15.955078 2.2197266 -15.955078 0.92480469ZM-7.4648438 4.1005859L-8.6894531 4.1005859L-9.796875 -0.38183594L-10.007812 -1.3720703Q-10.060547 -1.1083984 -10.171875 -0.61328125Q-10.283203 -0.11816406 -11.367188 4.1005859L-12.585938 4.1005859L-14.361328 -2.2392578L-13.318359 -2.2392578L-12.246094 2.0673828Q-12.205078 2.2080078 -11.994141 3.2275391L-11.894531 2.7939453L-10.570312 -2.2392578L-9.4394531 -2.2392578L-8.3320312 2.1142578L-8.0625 3.2275391L-7.8808594 2.4130859L-6.6796875 -2.2392578L-5.6484375 -2.2392578L-7.4648438 4.1005859ZM-0.84375 4.1005859L-0.84375 0.081054688Q-0.84375 -0.54589844 -0.96679688 -0.89160156Q-1.0898438 -1.2373047 -1.359375 -1.3896484Q-1.6289062 -1.5419922 -2.1503906 -1.5419922Q-2.9121094 -1.5419922 -3.3515625 -1.0205078Q-3.7910156 -0.49902344 -3.7910156 0.42675781L-3.7910156 4.1005859L-4.8457031 4.1005859L-4.8457031 -0.88574219Q-4.8457031 -1.9931641 -4.8808594 -2.2392578L-3.8847656 -2.2392578Q-3.8789062 -2.2099609 -3.8730469 -2.0810547Q-3.8671875 -1.9521484 -3.8583984 -1.7851562Q-3.8496094 -1.6181641 -3.8378906 -1.1552734L-3.8203125 -1.1552734Q-3.4570312 -1.8115234 -2.9794922 -2.0839844Q-2.5019531 -2.3564453 -1.7929688 -2.3564453Q-0.75 -2.3564453 -0.26660156 -1.8378906Q0.21679688 -1.3193359 0.21679688 -0.12402344L0.21679688 4.1005859L-0.84375 4.1005859ZM1.8046875 4.1005859L1.8046875 -4.5947266L2.859375 -4.5947266L2.859375 4.1005859L1.8046875 4.1005859ZM9.8320312 0.92480469Q9.8320312 2.5888672 9.0996094 3.4033203Q8.3671875 4.2177734 6.9726562 4.2177734Q5.5839844 4.2177734 4.875 3.3710938Q4.1660156 2.5244141 4.1660156 0.92480469Q4.1660156 -2.3564453 7.0078125 -2.3564453Q8.4609375 -2.3564453 9.1464844 -1.5566406Q9.8320312 -0.75683594 9.8320312 0.92480469ZM8.7246094 0.92480469Q8.7246094 -0.38769531 8.3349609 -0.98242188Q7.9453125 -1.5771484 7.0253906 -1.5771484Q6.0996094 -1.5771484 5.6865234 -0.97070312Q5.2734375 -0.36425781 5.2734375 0.92480469Q5.2734375 2.1787109 5.6806641 2.8085938Q6.0878906 3.4384766 6.9609375 3.4384766Q7.9101562 3.4384766 8.3173828 2.8291016Q8.7246094 2.2197266 8.7246094 0.92480469ZM12.761719 4.2177734Q11.806641 4.2177734 11.326172 3.7138672Q10.845703 3.2099609 10.845703 2.3310547Q10.845703 1.3466797 11.493164 0.81933594Q12.140625 0.29199219 13.582031 0.25683594L15.005859 0.23339844L15.005859 -0.11230469Q15.005859 -0.88574219 14.677734 -1.2197266Q14.349609 -1.5537109 13.646484 -1.5537109Q12.9375 -1.5537109 12.615234 -1.3134766Q12.292969 -1.0732422 12.228516 -0.54589844L11.126953 -0.64550781Q11.396484 -2.3564453 13.669922 -2.3564453Q14.865234 -2.3564453 15.46875 -1.8085938Q16.072266 -1.2607422 16.072266 -0.22363281L16.072266 2.5068359Q16.072266 2.9755859 16.195312 3.2128906Q16.318359 3.4501953 16.664062 3.4501953Q16.816406 3.4501953 17.009766 3.4091797L17.009766 4.0654297Q16.611328 4.1591797 16.195312 4.1591797Q15.609375 4.1591797 15.342773 3.8515625Q15.076172 3.5439453 15.041016 2.8876953L15.005859 2.8876953Q14.601562 3.6142578 14.06543 3.9160156Q13.529297 4.2177734 12.761719 4.2177734ZM13.001953 3.4267578Q13.582031 3.4267578 14.033203 3.1630859Q14.484375 2.8994141 14.745117 2.4394531Q15.005859 1.9794922 15.005859 1.4931641L15.005859 0.97167969L13.851562 0.99511719Q13.107422 1.0068359 12.723633 1.1474609Q12.339844 1.2880859 12.134766 1.5810547Q11.929688 1.8740234 11.929688 2.3486328Q11.929688 2.8642578 12.208008 3.1455078Q12.486328 3.4267578 13.001953 3.4267578ZM21.820312 3.0810547Q21.527344 3.6904297 21.043945 3.9541016Q20.560547 4.2177734 19.845703 4.2177734Q18.644531 4.2177734 18.079102 3.4091797Q17.513672 2.6005859 17.513672 0.95996094Q17.513672 -2.3564453 19.845703 -2.3564453Q20.566406 -2.3564453 21.046875 -2.0927734Q21.527344 -1.8291016 21.820312 -1.2548828L21.832031 -1.2548828L21.820312 -1.9638672L21.820312 -4.5947266L22.875 -4.5947266L22.875 2.7939453Q22.875 3.7841797 22.910156 4.1005859L21.902344 4.1005859Q21.884766 4.0068359 21.864258 3.6669922Q21.84375 3.3271484 21.84375 3.0810547L21.820312 3.0810547ZM18.621094 0.92480469Q18.621094 2.2548828 18.972656 2.8291016Q19.324219 3.4033203 20.115234 3.4033203Q21.011719 3.4033203 21.416016 2.7822266Q21.820312 2.1611328 21.820312 0.85449219Q21.820312 -0.40527344 21.416016 -0.99121094Q21.011719 -1.5771484 20.126953 -1.5771484Q19.330078 -1.5771484 18.975586 -0.98828125Q18.621094 -0.39941406 18.621094 0.92480469ZM29.25 2.3486328Q29.25 3.2451172 28.573242 3.7314453Q27.896484 4.2177734 26.677734 4.2177734Q25.494141 4.2177734 24.852539 3.828125Q24.210938 3.4384766 24.017578 2.6123047L24.949219 2.4306641Q25.083984 2.9404297 25.505859 3.1777344Q25.927734 3.4150391 26.677734 3.4150391Q27.480469 3.4150391 27.852539 3.1689453Q28.224609 2.9228516 28.224609 2.4306641Q28.224609 2.0556641 27.966797 1.8212891Q27.708984 1.5869141 27.134766 1.4345703L26.378906 1.2353516Q25.470703 1.0009766 25.086914 0.77539062Q24.703125 0.54980469 24.486328 0.22753906Q24.269531 -0.094726562 24.269531 -0.56347656Q24.269531 -1.4306641 24.887695 -1.8847656Q25.505859 -2.3388672 26.689453 -2.3388672Q27.738281 -2.3388672 28.356445 -1.9697266Q28.974609 -1.6005859 29.138672 -0.78613281L28.189453 -0.66894531Q28.101562 -1.0908203 27.717773 -1.3164062Q27.333984 -1.5419922 26.689453 -1.5419922Q25.974609 -1.5419922 25.634766 -1.3251953Q25.294922 -1.1083984 25.294922 -0.66894531Q25.294922 -0.39941406 25.435547 -0.22363281Q25.576172 -0.047851562 25.851562 0.075195312Q26.126953 0.19824219 27.011719 0.41503906Q27.849609 0.62597656 28.21875 0.8046875Q28.587891 0.98339844 28.801758 1.2001953Q29.015625 1.4169922 29.132812 1.7011719Q29.25 1.9853516 29.25 2.3486328Z"/>
	<clipPath id="cl_3c9">
		<rect y="39.200001" width="1200" height="31.999996"/>
	</clipPath>
	<g clip-path="url(#cl_3c9)">
		<path fill="#C32222" fill-opacity="0.2" d="M569.33002 49.200001L609.33002 49.200001L609.33002 61.200001L569.33002 61.200001L569.33002 49.200001Z"/>
		<path fill="none" stroke="#C32222" stroke-width="2" stroke-miterlimit="10" d="M569.33002 49.200001L609.33002 49.200001L609.33002 61.200001L569.33002 61.200001L569.33002 49.200001Z"/>
	</g>
	<clipPath id="cl_3ca">
		<rect y="39.200001" width="1200" height="31.999996"/>
	</clipPath>
	<g clip-path="url(#cl_3ca)">
		<path fill="#666" d="M615.81635 59.300587L615.81635 58.497852L619.36127 53.775196L616.01556 53.775196L616.01556 52.960743L620.60931 52.960743L620.60931 53.763477L617.05853 58.486134L620.73236 58.486134L620.73236 59.300587L615.81635 59.300587ZM622.13275 51.613087L622.13275 50.605274L623.18744 50.605274L623.18744 51.613087L622.13275 51.613087ZM622.13275 59.300587L622.13275 52.960743L623.18744 52.960743L623.18744 59.300587L622.13275 59.300587ZM630.16595 56.101368Q630.16595 59.417774 627.83392 59.417774Q626.36908 59.417774 625.86517 58.316212L625.83588 58.316212Q625.85931 58.363087 625.85931 59.312305L625.85931 61.790821L624.80463 61.790821L624.80463 54.255665Q624.80463 53.277149 624.76947 52.960743L625.789 52.960743Q625.79486 52.98418 625.80658 53.127735Q625.8183 53.27129 625.83295 53.570118Q625.8476 53.868946 625.8476 53.980274L625.87103 53.980274Q626.15228 53.394337 626.61517 53.121876Q627.07806 52.849415 627.83392 52.849415Q629.0058 52.849415 629.58588 53.634571Q630.16595 54.419727 630.16595 56.101368ZM629.05853 56.124805Q629.05853 54.800587 628.70111 54.232227Q628.34369 53.663868 627.56439 53.663868Q626.93744 53.663868 626.58295 53.92754Q626.22845 54.191212 626.04388 54.750782Q625.85931 55.310352 625.85931 56.206837Q625.85931 57.454884 626.25775 58.04668Q626.65619 58.638477 627.55267 58.638477Q628.33783 58.638477 628.69818 58.061329Q629.05853 57.48418 629.05853 56.124805Z"/>
	</g>
	<path fill="#666" transform="translate(600 19.6)" d="M-367.19922 3.3320312Q-367.19922 4.5585938 -368.20312 5.2578125Q-369.20703 5.9570312 -370.98047 5.9570312Q-372.72266 5.9570312 -373.64844 5.40625Q-374.57422 4.8554688 -374.87891 3.6914062L-372.94922 3.4023438Q-372.78516 4.0039062 -372.38281 4.2539062Q-371.98047 4.5039062 -370.98047 4.5039062Q-370.05859 4.5039062 -369.63672 4.2695312Q-369.21484 4.0351562 -369.21484 3.5351562Q-369.21484 3.1289062 -369.55469 2.890625Q-369.89453 2.6523438 -370.70703 2.4882812Q-372.56641 2.1210938 -373.21484 1.8046875Q-373.86328 1.4882812 -374.20312 0.984375Q-374.54297 0.48046875 -374.54297 -0.25390625Q-374.54297 -1.4648438 -373.60938 -2.140625Q-372.67578 -2.8164062 -370.96484 -2.8164062Q-369.45703 -2.8164062 -368.53906 -2.2304688Q-367.62109 -1.6445312 -367.39453 -0.53515625L-369.33984 -0.33203125Q-369.43359 -0.84765625 -369.80078 -1.1015625Q-370.16797 -1.3554688 -370.96484 -1.3554688Q-371.74609 -1.3554688 -372.13672 -1.15625Q-372.52734 -0.95703125 -372.52734 -0.48828125Q-372.52734 -0.12109375 -372.22656 0.09375Q-371.92578 0.30859375 -371.21484 0.44921875Q-370.22266 0.65234375 -369.45312 0.8671875Q-368.68359 1.0820312 -368.21875 1.3789062Q-367.75391 1.6757812 -367.47656 2.140625Q-367.19922 2.6054688 -367.19922 3.3320312ZM-363.47266 5.9570312Q-364.69922 5.9570312 -365.38672 5.2890625Q-366.07422 4.6210938 -366.07422 3.4101562Q-366.07422 2.0976562 -365.21875 1.4101562Q-364.36328 0.72265625 -362.73828 0.70703125L-360.91797 0.67578125L-360.91797 0.24609375Q-360.91797 -0.58203125 -361.20703 -0.984375Q-361.49609 -1.3867188 -362.15234 -1.3867188Q-362.76172 -1.3867188 -363.04688 -1.109375Q-363.33203 -0.83203125 -363.40234 -0.19140625L-365.69141 -0.30078125Q-365.48047 -1.5351562 -364.5625 -2.171875Q-363.64453 -2.8085938 -362.05859 -2.8085938Q-360.45703 -2.8085938 -359.58984 -2.0195312Q-358.72266 -1.2304688 -358.72266 0.22265625L-358.72266 3.3007812Q-358.72266 4.0117188 -358.5625 4.28125Q-358.40234 4.5507812 -358.02734 4.5507812Q-357.77734 4.5507812 -357.54297 4.5039062L-357.54297 5.6914062Q-357.73828 5.7382812 -357.89453 5.7773438Q-358.05078 5.8164062 -358.20703 5.8398438Q-358.36328 5.8632812 -358.53906 5.8789062Q-358.71484 5.8945312 -358.94922 5.8945312Q-359.77734 5.8945312 -360.17188 5.4882812Q-360.56641 5.0820312 -360.64453 4.2929688L-360.69141 4.2929688Q-361.61328 5.9570312 -363.47266 5.9570312ZM-360.91797 1.8867188L-362.04297 1.9023438Q-362.80859 1.9335938 -363.12891 2.0703125Q-363.44922 2.2070312 -363.61719 2.4882812Q-363.78516 2.7695312 -363.78516 3.2382812Q-363.78516 3.8398438 -363.50781 4.1328125Q-363.23047 4.4257812 -362.76953 4.4257812Q-362.25391 4.4257812 -361.82812 4.1445312Q-361.40234 3.8632812 -361.16016 3.3671875Q-360.91797 2.8710938 -360.91797 2.3164062L-360.91797 1.8867188ZM-356.52734 -4.1757812L-356.52734 -5.7929688L-354.33203 -5.7929688L-354.33203 -4.1757812L-356.52734 -4.1757812ZM-356.52734 5.8007812L-356.52734 -2.6523438L-354.33203 -2.6523438L-354.33203 5.8007812L-356.52734 5.8007812ZM-352.08203 5.8007812L-352.08203 -5.7929688L-349.88672 -5.7929688L-349.88672 5.8007812L-352.08203 5.8007812ZM-339.63672 1.5351562Q-339.63672 3.6523438 -340.48438 4.8046875Q-341.33203 5.9570312 -342.87891 5.9570312Q-343.76953 5.9570312 -344.42969 5.5703125Q-345.08984 5.1835938 -345.44141 4.4570312L-345.48828 4.4570312Q-345.44141 4.6914062 -345.44141 5.8789062L-345.44141 9.1210938L-347.63672 9.1210938L-347.63672 -0.70703125Q-347.63672 -1.9023438 -347.69922 -2.6523438L-345.56641 -2.6523438Q-345.52734 -2.5117188 -345.5 -2.0976562Q-345.47266 -1.6835938 -345.47266 -1.2773438L-345.44141 -1.2773438Q-344.69922 -2.8320312 -342.73828 -2.8320312Q-341.26172 -2.8320312 -340.44922 -1.6953125Q-339.63672 -0.55859375 -339.63672 1.5351562ZM-341.92578 1.5351562Q-341.92578 -1.3085938 -343.66797 -1.3085938Q-344.54297 -1.3085938 -345.00781 -0.54296875Q-345.47266 0.22265625 -345.47266 1.5976562Q-345.47266 2.9648438 -345.00781 3.7109375Q-344.54297 4.4570312 -343.68359 4.4570312Q-341.92578 4.4570312 -341.92578 1.5351562ZM-329.83203 1.5664062Q-329.83203 3.6210938 -330.97266 4.7890625Q-332.11328 5.9570312 -334.12891 5.9570312Q-336.10547 5.9570312 -337.23047 4.7851562Q-338.35547 3.6132812 -338.35547 1.5664062Q-338.35547 -0.47265625 -337.23047 -1.640625Q-336.10547 -2.8085938 -334.08203 -2.8085938Q-332.01172 -2.8085938 -330.92188 -1.6796875Q-329.83203 -0.55078125 -329.83203 1.5664062ZM-332.12891 1.5664062Q-332.12891 0.05859375 -332.62109 -0.62109375Q-333.11328 -1.3007812 -334.05078 -1.3007812Q-336.05078 -1.3007812 -336.05078 1.5664062Q-336.05078 2.9804688 -335.5625 3.71875Q-335.07422 4.4570312 -334.15234 4.4570312Q-332.12891 4.4570312 -332.12891 1.5664062ZM-328.08984 -4.1757812L-328.08984 -5.7929688L-325.89453 -5.7929688L-325.89453 -4.1757812L-328.08984 -4.1757812ZM-328.08984 5.8007812L-328.08984 -2.6523438L-325.89453 -2.6523438L-325.89453 5.8007812L-328.08984 5.8007812ZM-318.16797 5.8007812L-318.16797 1.0585938Q-318.16797 -1.1679688 -319.67578 -1.1679688Q-320.47266 -1.1679688 -320.96094 -0.484375Q-321.44922 0.19921875 -321.44922 1.2695312L-321.44922 5.8007812L-323.64453 5.8007812L-323.64453 -0.76171875Q-323.64453 -1.4414062 -323.66406 -1.875Q-323.68359 -2.3085938 -323.70703 -2.6523438L-321.61328 -2.6523438Q-321.58984 -2.5039062 -321.55078 -1.859375Q-321.51172 -1.2148438 -321.51172 -0.97265625L-321.48047 -0.97265625Q-321.03516 -1.9414062 -320.36328 -2.3789062Q-319.69141 -2.8164062 -318.76172 -2.8164062Q-317.41797 -2.8164062 -316.69922 -1.9882812Q-315.98047 -1.1601562 -315.98047 0.43359375L-315.98047 5.8007812L-318.16797 5.8007812ZM-311.70703 5.9414062Q-312.67578 5.9414062 -313.19922 5.4140625Q-313.72266 4.8867188 -313.72266 3.8164062L-313.72266 -1.1679688L-314.79297 -1.1679688L-314.79297 -2.6523438L-313.61328 -2.6523438L-312.92578 -4.6367188L-311.55078 -4.6367188L-311.55078 -2.6523438L-309.94922 -2.6523438L-309.94922 -1.1679688L-311.55078 -1.1679688L-311.55078 3.2226562Q-311.55078 3.8398438 -311.31641 4.1328125Q-311.08203 4.4257812 -310.58984 4.4257812Q-310.33203 4.4257812 -309.85547 4.3164062L-309.85547 5.6757812Q-310.66797 5.9414062 -311.70703 5.9414062ZM-309.03516 2.6054688L-309.03516 0.69921875L-304.97266 0.69921875L-304.97266 2.6054688L-309.03516 2.6054688ZM-295.18359 1.5664062Q-295.18359 3.6210938 -296.32422 4.7890625Q-297.46484 5.9570312 -299.48047 5.9570312Q-301.45703 5.9570312 -302.58203 4.7851562Q-303.70703 3.6132812 -303.70703 1.5664062Q-303.70703 -0.47265625 -302.58203 -1.640625Q-301.45703 -2.8085938 -299.43359 -2.8085938Q-297.36328 -2.8085938 -296.27344 -1.6796875Q-295.18359 -0.55078125 -295.18359 1.5664062ZM-297.48047 1.5664062Q-297.48047 0.05859375 -297.97266 -0.62109375Q-298.46484 -1.3007812 -299.40234 -1.3007812Q-301.40234 -1.3007812 -301.40234 1.5664062Q-301.40234 2.9804688 -300.91406 3.71875Q-300.42578 4.4570312 -299.50391 4.4570312Q-297.48047 4.4570312 -297.48047 1.5664062ZM-286.31641 3.3320312Q-286.31641 4.5585938 -287.32031 5.2578125Q-288.32422 5.9570312 -290.09766 5.9570312Q-291.83984 5.9570312 -292.76562 5.40625Q-293.69141 4.8554688 -293.99609 3.6914062L-292.06641 3.4023438Q-291.90234 4.0039062 -291.5 4.2539062Q-291.09766 4.5039062 -290.09766 4.5039062Q-289.17578 4.5039062 -288.75391 4.2695312Q-288.33203 4.0351562 -288.33203 3.5351562Q-288.33203 3.1289062 -288.67188 2.890625Q-289.01172 2.6523438 -289.82422 2.4882812Q-291.68359 2.1210938 -292.33203 1.8046875Q-292.98047 1.4882812 -293.32031 0.984375Q-293.66016 0.48046875 -293.66016 -0.25390625Q-293.66016 -1.4648438 -292.72656 -2.140625Q-291.79297 -2.8164062 -290.08203 -2.8164062Q-288.57422 -2.8164062 -287.65625 -2.2304688Q-286.73828 -1.6445312 -286.51172 -0.53515625L-288.45703 -0.33203125Q-288.55078 -0.84765625 -288.91797 -1.1015625Q-289.28516 -1.3554688 -290.08203 -1.3554688Q-290.86328 -1.3554688 -291.25391 -1.15625Q-291.64453 -0.95703125 -291.64453 -0.48828125Q-291.64453 -0.12109375 -291.34375 0.09375Q-291.04297 0.30859375 -290.33203 0.44921875Q-289.33984 0.65234375 -288.57031 0.8671875Q-287.80078 1.0820312 -287.33594 1.3789062Q-286.87109 1.6757812 -286.59375 2.140625Q-286.31641 2.6054688 -286.31641 3.3320312ZM-277.41797 3.3320312Q-277.41797 4.5585938 -278.42188 5.2578125Q-279.42578 5.9570312 -281.19922 5.9570312Q-282.94141 5.9570312 -283.86719 5.40625Q-284.79297 4.8554688 -285.09766 3.6914062L-283.16797 3.4023438Q-283.00391 4.0039062 -282.60156 4.2539062Q-282.19922 4.5039062 -281.19922 4.5039062Q-280.27734 4.5039062 -279.85547 4.2695312Q-279.43359 4.0351562 -279.43359 3.5351562Q-279.43359 3.1289062 -279.77344 2.890625Q-280.11328 2.6523438 -280.92578 2.4882812Q-282.78516 2.1210938 -283.43359 1.8046875Q-284.08203 1.4882812 -284.42188 0.984375Q-284.76172 0.48046875 -284.76172 -0.25390625Q-284.76172 -1.4648438 -283.82812 -2.140625Q-282.89453 -2.8164062 -281.18359 -2.8164062Q-279.67578 -2.8164062 -278.75781 -2.2304688Q-277.83984 -1.6445312 -277.61328 -0.53515625L-279.55859 -0.33203125Q-279.65234 -0.84765625 -280.01953 -1.1015625Q-280.38672 -1.3554688 -281.18359 -1.3554688Q-281.96484 -1.3554688 -282.35547 -1.15625Q-282.74609 -0.95703125 -282.74609 -0.48828125Q-282.74609 -0.12109375 -282.44531 0.09375Q-282.14453 0.30859375 -281.43359 0.44921875Q-280.44141 0.65234375 -279.67188 0.8671875Q-278.90234 1.0820312 -278.4375 1.3789062Q-277.97266 1.6757812 -277.69531 2.140625Q-277.41797 2.6054688 -277.41797 3.3320312ZM-276.60547 6.1210938L-274.33203 -5.7929688L-272.47266 -5.7929688L-274.70703 6.1210938L-276.60547 6.1210938ZM-267.67578 5.9570312Q-269.59766 5.9570312 -270.64453 4.8125Q-271.69141 3.6679688 -271.69141 1.6210938Q-271.69141 -0.47265625 -270.63672 -1.640625Q-269.58203 -2.8085938 -267.64453 -2.8085938Q-266.15234 -2.8085938 -265.17578 -2.0585938Q-264.19922 -1.3085938 -263.94922 0.01171875L-266.16016 0.12109375Q-266.25391 -0.52734375 -266.62891 -0.9140625Q-267.00391 -1.3007812 -267.69141 -1.3007812Q-269.38672 -1.3007812 -269.38672 1.5351562Q-269.38672 4.4570312 -267.66016 4.4570312Q-267.03516 4.4570312 -266.61328 4.0625Q-266.19141 3.6679688 -266.08984 2.8867188L-263.88672 2.9882812Q-264.00391 3.8554688 -264.50781 4.5351562Q-265.01172 5.2148438 -265.83203 5.5859375Q-266.65234 5.9570312 -267.67578 5.9570312ZM-254.26953 1.5664062Q-254.26953 3.6210938 -255.41016 4.7890625Q-256.55078 5.9570312 -258.56641 5.9570312Q-260.54297 5.9570312 -261.66797 4.7851562Q-262.79297 3.6132812 -262.79297 1.5664062Q-262.79297 -0.47265625 -261.66797 -1.640625Q-260.54297 -2.8085938 -258.51953 -2.8085938Q-256.44922 -2.8085938 -255.35938 -1.6796875Q-254.26953 -0.55078125 -254.26953 1.5664062ZM-256.56641 1.5664062Q-256.56641 0.05859375 -257.05859 -0.62109375Q-257.55078 -1.3007812 -258.48828 -1.3007812Q-260.48828 -1.3007812 -260.48828 1.5664062Q-260.48828 2.9804688 -260 3.71875Q-259.51172 4.4570312 -258.58984 4.4570312Q-256.56641 4.4570312 -256.56641 1.5664062ZM-252.52734 5.8007812L-252.52734 -5.7929688L-250.33203 -5.7929688L-250.33203 5.8007812L-252.52734 5.8007812ZM-246.12891 5.9570312Q-247.35547 5.9570312 -248.04297 5.2890625Q-248.73047 4.6210938 -248.73047 3.4101562Q-248.73047 2.0976562 -247.875 1.4101562Q-247.01953 0.72265625 -245.39453 0.70703125L-243.57422 0.67578125L-243.57422 0.24609375Q-243.57422 -0.58203125 -243.86328 -0.984375Q-244.15234 -1.3867188 -244.80859 -1.3867188Q-245.41797 -1.3867188 -245.70312 -1.109375Q-245.98828 -0.83203125 -246.05859 -0.19140625L-248.34766 -0.30078125Q-248.13672 -1.5351562 -247.21875 -2.171875Q-246.30078 -2.8085938 -244.71484 -2.8085938Q-243.11328 -2.8085938 -242.24609 -2.0195312Q-241.37891 -1.2304688 -241.37891 0.22265625L-241.37891 3.3007812Q-241.37891 4.0117188 -241.21875 4.28125Q-241.05859 4.5507812 -240.68359 4.5507812Q-240.43359 4.5507812 -240.19922 4.5039062L-240.19922 5.6914062Q-240.39453 5.7382812 -240.55078 5.7773438Q-240.70703 5.8164062 -240.86328 5.8398438Q-241.01953 5.8632812 -241.19531 5.8789062Q-241.37109 5.8945312 -241.60547 5.8945312Q-242.43359 5.8945312 -242.82812 5.4882812Q-243.22266 5.0820312 -243.30078 4.2929688L-243.34766 4.2929688Q-244.26953 5.9570312 -246.12891 5.9570312ZM-243.57422 1.8867188L-244.69922 1.9023438Q-245.46484 1.9335938 -245.78516 2.0703125Q-246.10547 2.2070312 -246.27344 2.4882812Q-246.44141 2.7695312 -246.44141 3.2382812Q-246.44141 3.8398438 -246.16406 4.1328125Q-245.88672 4.4257812 -245.42578 4.4257812Q-244.91016 4.4257812 -244.48438 4.1445312Q-244.05859 3.8632812 -243.81641 3.3671875Q-243.57422 2.8710938 -243.57422 2.3164062L-243.57422 1.8867188ZM-231.18359 1.5429688Q-231.18359 3.6367188 -232.02344 4.796875Q-232.86328 5.9570312 -234.42578 5.9570312Q-235.32422 5.9570312 -235.98047 5.5664062Q-236.63672 5.1757812 -236.98828 4.4414062L-237.00391 4.4414062Q-237.00391 4.7148438 -237.03906 5.1914062Q-237.07422 5.6679688 -237.11328 5.8007812L-239.24609 5.8007812Q-239.18359 5.0742188 -239.18359 3.8710938L-239.18359 -5.7929688L-236.98828 -5.7929688L-236.98828 -2.5585938L-237.01953 -1.1835938L-236.98828 -1.1835938Q-236.24609 -2.8085938 -234.28516 -2.8085938Q-232.78516 -2.8085938 -231.98438 -1.671875Q-231.18359 -0.53515625 -231.18359 1.5429688ZM-233.47266 1.5429688Q-233.47266 0.10546875 -233.89453 -0.58984375Q-234.31641 -1.2851562 -235.19922 -1.2851562Q-236.08984 -1.2851562 -236.55469 -0.5390625Q-237.01953 0.20703125 -237.01953 1.6132812Q-237.01953 2.9570312 -236.5625 3.7070312Q-236.10547 4.4570312 -235.21484 4.4570312Q-233.47266 4.4570312 -233.47266 1.5429688ZM-229.90234 2.6054688L-229.90234 0.69921875L-225.83984 0.69921875L-225.83984 2.6054688L-229.90234 2.6054688ZM-216.95703 3.3320312Q-216.95703 4.5585938 -217.96094 5.2578125Q-218.96484 5.9570312 -220.73828 5.9570312Q-222.48047 5.9570312 -223.40625 5.40625Q-224.33203 4.8554688 -224.63672 3.6914062L-222.70703 3.4023438Q-222.54297 4.0039062 -222.14062 4.2539062Q-221.73828 4.5039062 -220.73828 4.5039062Q-219.81641 4.5039062 -219.39453 4.2695312Q-218.97266 4.0351562 -218.97266 3.5351562Q-218.97266 3.1289062 -219.3125 2.890625Q-219.65234 2.6523438 -220.46484 2.4882812Q-222.32422 2.1210938 -222.97266 1.8046875Q-223.62109 1.4882812 -223.96094 0.984375Q-224.30078 0.48046875 -224.30078 -0.25390625Q-224.30078 -1.4648438 -223.36719 -2.140625Q-222.43359 -2.8164062 -220.72266 -2.8164062Q-219.21484 -2.8164062 -218.29688 -2.2304688Q-217.37891 -1.6445312 -217.15234 -0.53515625L-219.09766 -0.33203125Q-219.19141 -0.84765625 -219.55859 -1.1015625Q-219.92578 -1.3554688 -220.72266 -1.3554688Q-221.50391 -1.3554688 -221.89453 -1.15625Q-222.28516 -0.95703125 -222.28516 -0.48828125Q-222.28516 -0.12109375 -221.98438 0.09375Q-221.68359 0.30859375 -220.97266 0.44921875Q-219.98047 0.65234375 -219.21094 0.8671875Q-218.44141 1.0820312 -217.97656 1.3789062Q-217.51172 1.6757812 -217.23438 2.140625Q-216.95703 2.6054688 -216.95703 3.3320312ZM-213.23047 5.9570312Q-214.45703 5.9570312 -215.14453 5.2890625Q-215.83203 4.6210938 -215.83203 3.4101562Q-215.83203 2.0976562 -214.97656 1.4101562Q-214.12109 0.72265625 -212.49609 0.70703125L-210.67578 0.67578125L-210.67578 0.24609375Q-210.67578 -0.58203125 -210.96484 -0.984375Q-211.25391 -1.3867188 -211.91016 -1.3867188Q-212.51953 -1.3867188 -212.80469 -1.109375Q-213.08984 -0.83203125 -213.16016 -0.19140625L-215.44922 -0.30078125Q-215.23828 -1.5351562 -214.32031 -2.171875Q-213.40234 -2.8085938 -211.81641 -2.8085938Q-210.21484 -2.8085938 -209.34766 -2.0195312Q-208.48047 -1.2304688 -208.48047 0.22265625L-208.48047 3.3007812Q-208.48047 4.0117188 -208.32031 4.28125Q-208.16016 4.5507812 -207.78516 4.5507812Q-207.53516 4.5507812 -207.30078 4.5039062L-207.30078 5.6914062Q-207.49609 5.7382812 -207.65234 5.7773438Q-207.80859 5.8164062 -207.96484 5.8398438Q-208.12109 5.8632812 -208.29688 5.8789062Q-208.47266 5.8945312 -208.70703 5.8945312Q-209.53516 5.8945312 -209.92969 5.4882812Q-210.32422 5.0820312 -210.40234 4.2929688L-210.44922 4.2929688Q-211.37109 5.9570312 -213.23047 5.9570312ZM-210.67578 1.8867188L-211.80078 1.9023438Q-212.56641 1.9335938 -212.88672 2.0703125Q-213.20703 2.2070312 -213.375 2.4882812Q-213.54297 2.7695312 -213.54297 3.2382812Q-213.54297 3.8398438 -213.26562 4.1328125Q-212.98828 4.4257812 -212.52734 4.4257812Q-212.01172 4.4257812 -211.58594 4.1445312Q-211.16016 3.8632812 -210.91797 3.3671875Q-210.67578 2.8710938 -210.67578 2.3164062L-210.67578 1.8867188ZM-204.33203 5.9570312Q-205.55859 5.9570312 -206.24609 5.2890625Q-206.93359 4.6210938 -206.93359 3.4101562Q-206.93359 2.0976562 -206.07812 1.4101562Q-205.22266 0.72265625 -203.59766 0.70703125L-201.77734 0.67578125L-201.77734 0.24609375Q-201.77734 -0.58203125 -202.06641 -0.984375Q-202.35547 -1.3867188 -203.01172 -1.3867188Q-203.62109 -1.3867188 -203.90625 -1.109375Q-204.19141 -0.83203125 -204.26172 -0.19140625L-206.55078 -0.30078125Q-206.33984 -1.5351562 -205.42188 -2.171875Q-204.50391 -2.8085938 -202.91797 -2.8085938Q-201.31641 -2.8085938 -200.44922 -2.0195312Q-199.58203 -1.2304688 -199.58203 0.22265625L-199.58203 3.3007812Q-199.58203 4.0117188 -199.42188 4.28125Q-199.26172 4.5507812 -198.88672 4.5507812Q-198.63672 4.5507812 -198.40234 4.5039062L-198.40234 5.6914062Q-198.59766 5.7382812 -198.75391 5.7773438Q-198.91016 5.8164062 -199.06641 5.8398438Q-199.22266 5.8632812 -199.39844 5.8789062Q-199.57422 5.8945312 -199.80859 5.8945312Q-200.63672 5.8945312 -201.03125 5.4882812Q-201.42578 5.0820312 -201.50391 4.2929688L-201.55078 4.2929688Q-202.47266 5.9570312 -204.33203 5.9570312ZM-201.77734 1.8867188L-202.90234 1.9023438Q-203.66797 1.9335938 -203.98828 2.0703125Q-204.30859 2.2070312 -204.47656 2.4882812Q-204.64453 2.7695312 -204.64453 3.2382812Q-204.64453 3.8398438 -204.36719 4.1328125Q-204.08984 4.4257812 -203.62891 4.4257812Q-203.11328 4.4257812 -202.6875 4.1445312Q-202.26172 3.8632812 -202.01953 3.3671875Q-201.77734 2.8710938 -201.77734 2.3164062L-201.77734 1.8867188ZM-190.26172 3.3320312Q-190.26172 4.5585938 -191.26562 5.2578125Q-192.26953 5.9570312 -194.04297 5.9570312Q-195.78516 5.9570312 -196.71094 5.40625Q-197.63672 4.8554688 -197.94141 3.6914062L-196.01172 3.4023438Q-195.84766 4.0039062 -195.44531 4.2539062Q-195.04297 4.5039062 -194.04297 4.5039062Q-193.12109 4.5039062 -192.69922 4.2695312Q-192.27734 4.0351562 -192.27734 3.5351562Q-192.27734 3.1289062 -192.61719 2.890625Q-192.95703 2.6523438 -193.76953 2.4882812Q-195.62891 2.1210938 -196.27734 1.8046875Q-196.92578 1.4882812 -197.26562 0.984375Q-197.60547 0.48046875 -197.60547 -0.25390625Q-197.60547 -1.4648438 -196.67188 -2.140625Q-195.73828 -2.8164062 -194.02734 -2.8164062Q-192.51953 -2.8164062 -191.60156 -2.2304688Q-190.68359 -1.6445312 -190.45703 -0.53515625L-192.40234 -0.33203125Q-192.49609 -0.84765625 -192.86328 -1.1015625Q-193.23047 -1.3554688 -194.02734 -1.3554688Q-194.80859 -1.3554688 -195.19922 -1.15625Q-195.58984 -0.95703125 -195.58984 -0.48828125Q-195.58984 -0.12109375 -195.28906 0.09375Q-194.98828 0.30859375 -194.27734 0.44921875Q-193.28516 0.65234375 -192.51562 0.8671875Q-191.74609 1.0820312 -191.28125 1.3789062Q-190.81641 1.6757812 -190.53906 2.140625Q-190.26172 2.6054688 -190.26172 3.3320312ZM-188.98047 2.6054688L-188.98047 0.69921875L-184.91797 0.69921875L-184.91797 2.6054688L-188.98047 2.6054688ZM-179.63672 5.9570312Q-181.55859 5.9570312 -182.60547 4.8125Q-183.65234 3.6679688 -183.65234 1.6210938Q-183.65234 -0.47265625 -182.59766 -1.640625Q-181.54297 -2.8085938 -179.60547 -2.8085938Q-178.11328 -2.8085938 -177.13672 -2.0585938Q-176.16016 -1.3085938 -175.91016 0.01171875L-178.12109 0.12109375Q-178.21484 -0.52734375 -178.58984 -0.9140625Q-178.96484 -1.3007812 -179.65234 -1.3007812Q-181.34766 -1.3007812 -181.34766 1.5351562Q-181.34766 4.4570312 -179.62109 4.4570312Q-178.99609 4.4570312 -178.57422 4.0625Q-178.15234 3.6679688 -178.05078 2.8867188L-175.84766 2.9882812Q-175.96484 3.8554688 -176.46875 4.5351562Q-176.97266 5.2148438 -177.79297 5.5859375Q-178.61328 5.9570312 -179.63672 5.9570312ZM-166.23047 1.5664062Q-166.23047 3.6210938 -167.37109 4.7890625Q-168.51172 5.9570312 -170.52734 5.9570312Q-172.50391 5.9570312 -173.62891 4.7851562Q-174.75391 3.6132812 -174.75391 1.5664062Q-174.75391 -0.47265625 -173.62891 -1.640625Q-172.50391 -2.8085938 -170.48047 -2.8085938Q-168.41016 -2.8085938 -167.32031 -1.6796875Q-166.23047 -0.55078125 -166.23047 1.5664062ZM-168.52734 1.5664062Q-168.52734 0.05859375 -169.01953 -0.62109375Q-169.51172 -1.3007812 -170.44922 -1.3007812Q-172.44922 -1.3007812 -172.44922 1.5664062Q-172.44922 2.9804688 -171.96094 3.71875Q-171.47266 4.4570312 -170.55078 4.4570312Q-168.52734 4.4570312 -168.52734 1.5664062ZM-159.01172 5.8007812L-159.01172 1.0585938Q-159.01172 -1.1679688 -160.51953 -1.1679688Q-161.31641 -1.1679688 -161.80469 -0.484375Q-162.29297 0.19921875 -162.29297 1.2695312L-162.29297 5.8007812L-164.48828 5.8007812L-164.48828 -0.76171875Q-164.48828 -1.4414062 -164.50781 -1.875Q-164.52734 -2.3085938 -164.55078 -2.6523438L-162.45703 -2.6523438Q-162.43359 -2.5039062 -162.39453 -1.859375Q-162.35547 -1.2148438 -162.35547 -0.97265625L-162.32422 -0.97265625Q-161.87891 -1.9414062 -161.20703 -2.3789062Q-160.53516 -2.8164062 -159.60547 -2.8164062Q-158.26172 -2.8164062 -157.54297 -1.9882812Q-156.82422 -1.1601562 -156.82422 0.43359375L-156.82422 5.8007812L-159.01172 5.8007812ZM-149.23828 5.8007812L-149.23828 1.0585938Q-149.23828 -1.1679688 -150.74609 -1.1679688Q-151.54297 -1.1679688 -152.03125 -0.484375Q-152.51953 0.19921875 -152.51953 1.2695312L-152.51953 5.8007812L-154.71484 5.8007812L-154.71484 -0.76171875Q-154.71484 -1.4414062 -154.73438 -1.875Q-154.75391 -2.3085938 -154.77734 -2.6523438L-152.68359 -2.6523438Q-152.66016 -2.5039062 -152.62109 -1.859375Q-152.58203 -1.2148438 -152.58203 -0.97265625L-152.55078 -0.97265625Q-152.10547 -1.9414062 -151.43359 -2.3789062Q-150.76172 -2.8164062 -149.83203 -2.8164062Q-148.48828 -2.8164062 -147.76953 -1.9882812Q-147.05078 -1.1601562 -147.05078 0.43359375L-147.05078 5.8007812L-149.23828 5.8007812ZM-145.43359 2.6054688L-145.43359 0.69921875L-141.37109 0.69921875L-141.37109 2.6054688L-145.43359 2.6054688ZM-137.44922 5.9414062Q-138.41797 5.9414062 -138.94141 5.4140625Q-139.46484 4.8867188 -139.46484 3.8164062L-139.46484 -1.1679688L-140.53516 -1.1679688L-140.53516 -2.6523438L-139.35547 -2.6523438L-138.66797 -4.6367188L-137.29297 -4.6367188L-137.29297 -2.6523438L-135.69141 -2.6523438L-135.69141 -1.1679688L-137.29297 -1.1679688L-137.29297 3.2226562Q-137.29297 3.8398438 -137.05859 4.1328125Q-136.82422 4.4257812 -136.33203 4.4257812Q-136.07422 4.4257812 -135.59766 4.3164062L-135.59766 5.6757812Q-136.41016 5.9414062 -137.44922 5.9414062ZM-132.12109 -0.96484375Q-131.67578 -1.9335938 -131.00391 -2.3710938Q-130.33203 -2.8085938 -129.40234 -2.8085938Q-128.05859 -2.8085938 -127.33984 -1.9804688Q-126.62109 -1.1523438 -126.62109 0.44140625L-126.62109 5.8007812L-128.80859 5.8007812L-128.80859 1.0664062Q-128.80859 -1.1601562 -130.31641 -1.1601562Q-131.11328 -1.1601562 -131.60156 -0.4765625Q-132.08984 0.20703125 -132.08984 1.2773438L-132.08984 5.8007812L-134.28516 5.8007812L-134.28516 -5.7929688L-132.08984 -5.7929688L-132.08984 -2.6289062Q-132.08984 -1.7773438 -132.15234 -0.96484375L-132.12109 -0.96484375ZM-116.48047 1.5664062Q-116.48047 3.6210938 -117.62109 4.7890625Q-118.76172 5.9570312 -120.77734 5.9570312Q-122.75391 5.9570312 -123.87891 4.7851562Q-125.00391 3.6132812 -125.00391 1.5664062Q-125.00391 -0.47265625 -123.87891 -1.640625Q-122.75391 -2.8085938 -120.73047 -2.8085938Q-118.66016 -2.8085938 -117.57031 -1.6796875Q-116.48047 -0.55078125 -116.48047 1.5664062ZM-118.77734 1.5664062Q-118.77734 0.05859375 -119.26953 -0.62109375Q-119.76172 -1.3007812 -120.69922 -1.3007812Q-122.69922 -1.3007812 -122.69922 1.5664062Q-122.69922 2.9804688 -122.21094 3.71875Q-121.72266 4.4570312 -120.80078 4.4570312Q-118.77734 4.4570312 -118.77734 1.5664062ZM-109.76172 5.8007812L-109.76172 1.0585938Q-109.76172 -1.1679688 -111.04297 -1.1679688Q-111.70703 -1.1679688 -112.125 -0.48828125Q-112.54297 0.19140625 -112.54297 1.2695312L-112.54297 5.8007812L-114.73828 5.8007812L-114.73828 -0.76171875Q-114.73828 -1.4414062 -114.75781 -1.875Q-114.77734 -2.3085938 -114.80078 -2.6523438L-112.70703 -2.6523438Q-112.68359 -2.5039062 -112.64453 -1.859375Q-112.60547 -1.2148438 -112.60547 -0.97265625L-112.57422 -0.97265625Q-112.16797 -1.9414062 -111.5625 -2.3789062Q-110.95703 -2.8164062 -110.11328 -2.8164062Q-108.17578 -2.8164062 -107.76172 -0.97265625L-107.71484 -0.97265625Q-107.28516 -1.9570312 -106.68359 -2.3867188Q-106.08203 -2.8164062 -105.15234 -2.8164062Q-103.91797 -2.8164062 -103.26953 -1.9765625Q-102.62109 -1.1367188 -102.62109 0.43359375L-102.62109 5.8007812L-104.80078 5.8007812L-104.80078 1.0585938Q-104.80078 -1.1679688 -106.08203 -1.1679688Q-106.72266 -1.1679688 -107.13281 -0.546875Q-107.54297 0.07421875 -107.58203 1.1679688L-107.58203 5.8007812L-109.76172 5.8007812ZM-93.386719 3.3320312Q-93.386719 4.5585938 -94.390625 5.2578125Q-95.394531 5.9570312 -97.167969 5.9570312Q-98.910156 5.9570312 -99.835938 5.40625Q-100.76172 4.8554688 -101.06641 3.6914062L-99.136719 3.4023438Q-98.972656 4.0039062 -98.570312 4.2539062Q-98.167969 4.5039062 -97.167969 4.5039062Q-96.246094 4.5039062 -95.824219 4.2695312Q-95.402344 4.0351562 -95.402344 3.5351562Q-95.402344 3.1289062 -95.742188 2.890625Q-96.082031 2.6523438 -96.894531 2.4882812Q-98.753906 2.1210938 -99.402344 1.8046875Q-100.05078 1.4882812 -100.39062 0.984375Q-100.73047 0.48046875 -100.73047 -0.25390625Q-100.73047 -1.4648438 -99.796875 -2.140625Q-98.863281 -2.8164062 -97.152344 -2.8164062Q-95.644531 -2.8164062 -94.726562 -2.2304688Q-93.808594 -1.6445312 -93.582031 -0.53515625L-95.527344 -0.33203125Q-95.621094 -0.84765625 -95.988281 -1.1015625Q-96.355469 -1.3554688 -97.152344 -1.3554688Q-97.933594 -1.3554688 -98.324219 -1.15625Q-98.714844 -0.95703125 -98.714844 -0.48828125Q-98.714844 -0.12109375 -98.414062 0.09375Q-98.113281 0.30859375 -97.402344 0.44921875Q-96.410156 0.65234375 -95.640625 0.8671875Q-94.871094 1.0820312 -94.40625 1.3789062Q-93.941406 1.6757812 -93.664062 2.140625Q-93.386719 2.6054688 -93.386719 3.3320312ZM-83.582031 1.5664062Q-83.582031 3.6210938 -84.722656 4.7890625Q-85.863281 5.9570312 -87.878906 5.9570312Q-89.855469 5.9570312 -90.980469 4.7851562Q-92.105469 3.6132812 -92.105469 1.5664062Q-92.105469 -0.47265625 -90.980469 -1.640625Q-89.855469 -2.8085938 -87.832031 -2.8085938Q-85.761719 -2.8085938 -84.671875 -1.6796875Q-83.582031 -0.55078125 -83.582031 1.5664062ZM-85.878906 1.5664062Q-85.878906 0.05859375 -86.371094 -0.62109375Q-86.863281 -1.3007812 -87.800781 -1.3007812Q-89.800781 -1.3007812 -89.800781 1.5664062Q-89.800781 2.9804688 -89.3125 3.71875Q-88.824219 4.4570312 -87.902344 4.4570312Q-85.878906 4.4570312 -85.878906 1.5664062ZM-76.363281 5.8007812L-76.363281 1.0585938Q-76.363281 -1.1679688 -77.871094 -1.1679688Q-78.667969 -1.1679688 -79.15625 -0.484375Q-79.644531 0.19921875 -79.644531 1.2695312L-79.644531 5.8007812L-81.839844 5.8007812L-81.839844 -0.76171875Q-81.839844 -1.4414062 -81.859375 -1.875Q-81.878906 -2.3085938 -81.902344 -2.6523438L-79.808594 -2.6523438Q-79.785156 -2.5039062 -79.746094 -1.859375Q-79.707031 -1.2148438 -79.707031 -0.97265625L-79.675781 -0.97265625Q-79.230469 -1.9414062 -78.558594 -2.3789062Q-77.886719 -2.8164062 -76.957031 -2.8164062Q-75.613281 -2.8164062 -74.894531 -1.9882812Q-74.175781 -1.1601562 -74.175781 0.43359375L-74.175781 5.8007812L-76.363281 5.8007812ZM-72.066406 5.8007812L-72.066406 -0.66796875Q-72.066406 -1.3632812 -72.085938 -1.828125Q-72.105469 -2.2929688 -72.128906 -2.6523438L-70.035156 -2.6523438Q-70.011719 -2.5117188 -69.972656 -1.796875Q-69.933594 -1.0820312 -69.933594 -0.84765625L-69.902344 -0.84765625Q-69.582031 -1.7382812 -69.332031 -2.1015625Q-69.082031 -2.4648438 -68.738281 -2.640625Q-68.394531 -2.8164062 -67.878906 -2.8164062Q-67.457031 -2.8164062 -67.199219 -2.6992188L-67.199219 -0.86328125Q-67.730469 -0.98046875 -68.136719 -0.98046875Q-68.957031 -0.98046875 -69.414062 -0.31640625Q-69.871094 0.34765625 -69.871094 1.6523438L-69.871094 5.8007812L-72.066406 5.8007812ZM-62.378906 5.9570312Q-64.285156 5.9570312 -65.308594 4.828125Q-66.332031 3.6992188 -66.332031 1.5351562Q-66.332031 -0.55859375 -65.292969 -1.6835938Q-64.253906 -2.8085938 -62.347656 -2.8085938Q-60.527344 -2.8085938 -59.566406 -1.6015625Q-58.605469 -0.39453125 -58.605469 1.9335938L-58.605469 1.9960938L-64.027344 1.9960938Q-64.027344 3.2304688 -63.570312 3.859375Q-63.113281 4.4882812 -62.269531 4.4882812Q-61.105469 4.4882812 -60.800781 3.4804688L-58.730469 3.6601562Q-59.628906 5.9570312 -62.378906 5.9570312ZM-62.378906 -1.4257812Q-63.152344 -1.4257812 -63.570312 -0.88671875Q-63.988281 -0.34765625 -64.011719 0.62109375L-60.730469 0.62109375Q-60.792969 -0.40234375 -61.222656 -0.9140625Q-61.652344 -1.4257812 -62.378906 -1.4257812ZM-54.871094 -2.6523438L-54.871094 2.0898438Q-54.871094 4.3164062 -53.371094 4.3164062Q-52.574219 4.3164062 -52.085938 3.6328125Q-51.597656 2.9492188 -51.597656 1.8789062L-51.597656 -2.6523438L-49.402344 -2.6523438L-49.402344 3.9101562Q-49.402344 4.9882812 -49.339844 5.8007812L-51.433594 5.8007812Q-51.527344 4.6757812 -51.527344 4.1210938L-51.566406 4.1210938Q-52.003906 5.0820312 -52.679688 5.5195312Q-53.355469 5.9570312 -54.285156 5.9570312Q-55.628906 5.9570312 -56.347656 5.1328125Q-57.066406 4.3085938 -57.066406 2.7148438L-57.066406 -2.6523438L-54.871094 -2.6523438ZM-45.003906 5.9414062Q-45.972656 5.9414062 -46.496094 5.4140625Q-47.019531 4.8867188 -47.019531 3.8164062L-47.019531 -1.1679688L-48.089844 -1.1679688L-48.089844 -2.6523438L-46.910156 -2.6523438L-46.222656 -4.6367188L-44.847656 -4.6367188L-44.847656 -2.6523438L-43.246094 -2.6523438L-43.246094 -1.1679688L-44.847656 -1.1679688L-44.847656 3.2226562Q-44.847656 3.8398438 -44.613281 4.1328125Q-44.378906 4.4257812 -43.886719 4.4257812Q-43.628906 4.4257812 -43.152344 4.3164062L-43.152344 5.6757812Q-43.964844 5.9414062 -45.003906 5.9414062ZM-38.378906 5.9570312Q-40.285156 5.9570312 -41.308594 4.828125Q-42.332031 3.6992188 -42.332031 1.5351562Q-42.332031 -0.55859375 -41.292969 -1.6835938Q-40.253906 -2.8085938 -38.347656 -2.8085938Q-36.527344 -2.8085938 -35.566406 -1.6015625Q-34.605469 -0.39453125 -34.605469 1.9335938L-34.605469 1.9960938L-40.027344 1.9960938Q-40.027344 3.2304688 -39.570312 3.859375Q-39.113281 4.4882812 -38.269531 4.4882812Q-37.105469 4.4882812 -36.800781 3.4804688L-34.730469 3.6601562Q-35.628906 5.9570312 -38.378906 5.9570312ZM-38.378906 -1.4257812Q-39.152344 -1.4257812 -39.570312 -0.88671875Q-39.988281 -0.34765625 -40.011719 0.62109375L-36.730469 0.62109375Q-36.792969 -0.40234375 -37.222656 -0.9140625Q-37.652344 -1.4257812 -38.378906 -1.4257812ZM-32.941406 5.8007812L-32.941406 -0.66796875Q-32.941406 -1.3632812 -32.960938 -1.828125Q-32.980469 -2.2929688 -33.003906 -2.6523438L-30.910156 -2.6523438Q-30.886719 -2.5117188 -30.847656 -1.796875Q-30.808594 -1.0820312 -30.808594 -0.84765625L-30.777344 -0.84765625Q-30.457031 -1.7382812 -30.207031 -2.1015625Q-29.957031 -2.4648438 -29.613281 -2.640625Q-29.269531 -2.8164062 -28.753906 -2.8164062Q-28.332031 -2.8164062 -28.074219 -2.6992188L-28.074219 -0.86328125Q-28.605469 -0.98046875 -29.011719 -0.98046875Q-29.832031 -0.98046875 -30.289062 -0.31640625Q-30.746094 0.34765625 -30.746094 1.6523438L-30.746094 5.8007812L-32.941406 5.8007812ZM-19.589844 3.3320312Q-19.589844 4.5585938 -20.59375 5.2578125Q-21.597656 5.9570312 -23.371094 5.9570312Q-25.113281 5.9570312 -26.039062 5.40625Q-26.964844 4.8554688 -27.269531 3.6914062L-25.339844 3.4023438Q-25.175781 4.0039062 -24.773438 4.2539062Q-24.371094 4.5039062 -23.371094 4.5039062Q-22.449219 4.5039062 -22.027344 4.2695312Q-21.605469 4.0351562 -21.605469 3.5351562Q-21.605469 3.1289062 -21.945312 2.890625Q-22.285156 2.6523438 -23.097656 2.4882812Q-24.957031 2.1210938 -25.605469 1.8046875Q-26.253906 1.4882812 -26.59375 0.984375Q-26.933594 0.48046875 -26.933594 -0.25390625Q-26.933594 -1.4648438 -26 -2.140625Q-25.066406 -2.8164062 -23.355469 -2.8164062Q-21.847656 -2.8164062 -20.929688 -2.2304688Q-20.011719 -1.6445312 -19.785156 -0.53515625L-21.730469 -0.33203125Q-21.824219 -0.84765625 -22.191406 -1.1015625Q-22.558594 -1.3554688 -23.355469 -1.3554688Q-24.136719 -1.3554688 -24.527344 -1.15625Q-24.917969 -0.95703125 -24.917969 -0.48828125Q-24.917969 -0.12109375 -24.617188 0.09375Q-24.316406 0.30859375 -23.605469 0.44921875Q-22.613281 0.65234375 -21.84375 0.8671875Q-21.074219 1.0820312 -20.609375 1.3789062Q-20.144531 1.6757812 -19.867188 2.140625Q-19.589844 2.6054688 -19.589844 3.3320312ZM-18.308594 2.6054688L-18.308594 0.69921875L-14.246094 0.69921875L-14.246094 2.6054688L-18.308594 2.6054688ZM-7.0117188 5.8007812Q-7.0429688 5.6835938 -7.0859375 5.2109375Q-7.1289062 4.7382812 -7.1289062 4.4257812L-7.1601562 4.4257812Q-7.8710938 5.9570312 -9.8632812 5.9570312Q-11.339844 5.9570312 -12.144531 4.8046875Q-12.949219 3.6523438 -12.949219 1.5820312Q-12.949219 -0.51953125 -12.101562 -1.6640625Q-11.253906 -2.8085938 -9.6992188 -2.8085938Q-8.8007812 -2.8085938 -8.1484375 -2.4335938Q-7.4960938 -2.0585938 -7.1445312 -1.3164062L-7.1289062 -1.3164062L-7.1445312 -2.7070312L-7.1445312 -5.7929688L-4.9492188 -5.7929688L-4.9492188 3.9570312Q-4.9492188 4.7382812 -4.8867188 5.8007812L-7.0117188 5.8007812ZM-7.1132812 1.5273438Q-7.1132812 0.16015625 -7.5703125 -0.578125Q-8.0273438 -1.3164062 -8.9179688 -1.3164062Q-9.8007812 -1.3164062 -10.230469 -0.6015625Q-10.660156 0.11328125 -10.660156 1.5820312Q-10.660156 4.4570312 -8.9335938 4.4570312Q-8.0664062 4.4570312 -7.5898438 3.6953125Q-7.1132812 2.9335938 -7.1132812 1.5273438ZM5.3164062 1.5664062Q5.3164062 3.6210938 4.1757812 4.7890625Q3.0351562 5.9570312 1.0195312 5.9570312Q-0.95703125 5.9570312 -2.0820312 4.7851562Q-3.2070312 3.6132812 -3.2070312 1.5664062Q-3.2070312 -0.47265625 -2.0820312 -1.640625Q-0.95703125 -2.8085938 1.0664062 -2.8085938Q3.1367188 -2.8085938 4.2265625 -1.6796875Q5.3164062 -0.55078125 5.3164062 1.5664062ZM3.0195312 1.5664062Q3.0195312 0.05859375 2.5273438 -0.62109375Q2.0351562 -1.3007812 1.0976562 -1.3007812Q-0.90234375 -1.3007812 -0.90234375 1.5664062Q-0.90234375 2.9804688 -0.4140625 3.71875Q0.07421875 4.4570312 0.99609375 4.4570312Q3.0195312 4.4570312 3.0195312 1.5664062ZM10.582031 5.9570312Q8.6601562 5.9570312 7.6132812 4.8125Q6.5664062 3.6679688 6.5664062 1.6210938Q6.5664062 -0.47265625 7.6210938 -1.640625Q8.6757812 -2.8085938 10.613281 -2.8085938Q12.105469 -2.8085938 13.082031 -2.0585938Q14.058594 -1.3085938 14.308594 0.01171875L12.097656 0.12109375Q12.003906 -0.52734375 11.628906 -0.9140625Q11.253906 -1.3007812 10.566406 -1.3007812Q8.8710938 -1.3007812 8.8710938 1.5351562Q8.8710938 4.4570312 10.597656 4.4570312Q11.222656 4.4570312 11.644531 4.0625Q12.066406 3.6679688 12.167969 2.8867188L14.371094 2.9882812Q14.253906 3.8554688 13.75 4.5351562Q13.246094 5.2148438 12.425781 5.5859375Q11.605469 5.9570312 10.582031 5.9570312ZM18.027344 -2.6523438L18.027344 2.0898438Q18.027344 4.3164062 19.527344 4.3164062Q20.324219 4.3164062 20.8125 3.6328125Q21.300781 2.9492188 21.300781 1.8789062L21.300781 -2.6523438L23.496094 -2.6523438L23.496094 3.9101562Q23.496094 4.9882812 23.558594 5.8007812L21.464844 5.8007812Q21.371094 4.6757812 21.371094 4.1210938L21.332031 4.1210938Q20.894531 5.0820312 20.21875 5.5195312Q19.542969 5.9570312 18.613281 5.9570312Q17.269531 5.9570312 16.550781 5.1328125Q15.832031 4.3085938 15.832031 2.7148438L15.832031 -2.6523438L18.027344 -2.6523438ZM30.707031 5.8007812L30.707031 1.0585938Q30.707031 -1.1679688 29.425781 -1.1679688Q28.761719 -1.1679688 28.34375 -0.48828125Q27.925781 0.19140625 27.925781 1.2695312L27.925781 5.8007812L25.730469 5.8007812L25.730469 -0.76171875Q25.730469 -1.4414062 25.710938 -1.875Q25.691406 -2.3085938 25.667969 -2.6523438L27.761719 -2.6523438Q27.785156 -2.5039062 27.824219 -1.859375Q27.863281 -1.2148438 27.863281 -0.97265625L27.894531 -0.97265625Q28.300781 -1.9414062 28.90625 -2.3789062Q29.511719 -2.8164062 30.355469 -2.8164062Q32.292969 -2.8164062 32.707031 -0.97265625L32.753906 -0.97265625Q33.183594 -1.9570312 33.785156 -2.3867188Q34.386719 -2.8164062 35.316406 -2.8164062Q36.550781 -2.8164062 37.199219 -1.9765625Q37.847656 -1.1367188 37.847656 0.43359375L37.847656 5.8007812L35.667969 5.8007812L35.667969 1.0585938Q35.667969 -1.1679688 34.386719 -1.1679688Q33.746094 -1.1679688 33.335938 -0.546875Q32.925781 0.07421875 32.886719 1.1679688L32.886719 5.8007812L30.707031 5.8007812ZM43.417969 5.9570312Q41.511719 5.9570312 40.488281 4.828125Q39.464844 3.6992188 39.464844 1.5351562Q39.464844 -0.55859375 40.503906 -1.6835938Q41.542969 -2.8085938 43.449219 -2.8085938Q45.269531 -2.8085938 46.230469 -1.6015625Q47.191406 -0.39453125 47.191406 1.9335938L47.191406 1.9960938L41.769531 1.9960938Q41.769531 3.2304688 42.226562 3.859375Q42.683594 4.4882812 43.527344 4.4882812Q44.691406 4.4882812 44.996094 3.4804688L47.066406 3.6601562Q46.167969 5.9570312 43.417969 5.9570312ZM43.417969 -1.4257812Q42.644531 -1.4257812 42.226562 -0.88671875Q41.808594 -0.34765625 41.785156 0.62109375L45.066406 0.62109375Q45.003906 -0.40234375 44.574219 -0.9140625Q44.144531 -1.4257812 43.417969 -1.4257812ZM54.332031 5.8007812L54.332031 1.0585938Q54.332031 -1.1679688 52.824219 -1.1679688Q52.027344 -1.1679688 51.539062 -0.484375Q51.050781 0.19921875 51.050781 1.2695312L51.050781 5.8007812L48.855469 5.8007812L48.855469 -0.76171875Q48.855469 -1.4414062 48.835938 -1.875Q48.816406 -2.3085938 48.792969 -2.6523438L50.886719 -2.6523438Q50.910156 -2.5039062 50.949219 -1.859375Q50.988281 -1.2148438 50.988281 -0.97265625L51.019531 -0.97265625Q51.464844 -1.9414062 52.136719 -2.3789062Q52.808594 -2.8164062 53.738281 -2.8164062Q55.082031 -2.8164062 55.800781 -1.9882812Q56.519531 -1.1601562 56.519531 0.43359375L56.519531 5.8007812L54.332031 5.8007812ZM60.792969 5.9414062Q59.824219 5.9414062 59.300781 5.4140625Q58.777344 4.8867188 58.777344 3.8164062L58.777344 -1.1679688L57.707031 -1.1679688L57.707031 -2.6523438L58.886719 -2.6523438L59.574219 -4.6367188L60.949219 -4.6367188L60.949219 -2.6523438L62.550781 -2.6523438L62.550781 -1.1679688L60.949219 -1.1679688L60.949219 3.2226562Q60.949219 3.8398438 61.183594 4.1328125Q61.417969 4.4257812 61.910156 4.4257812Q62.167969 4.4257812 62.644531 4.3164062L62.644531 5.6757812Q61.832031 5.9414062 60.792969 5.9414062ZM63.464844 2.6054688L63.464844 0.69921875L67.527344 0.69921875L67.527344 2.6054688L63.464844 2.6054688ZM69.285156 -4.1757812L69.285156 -5.7929688L71.480469 -5.7929688L71.480469 -4.1757812L69.285156 -4.1757812ZM69.285156 5.8007812L69.285156 -2.6523438L71.480469 -2.6523438L71.480469 5.8007812L69.285156 5.8007812ZM79.207031 5.8007812L79.207031 1.0585938Q79.207031 -1.1679688 77.699219 -1.1679688Q76.902344 -1.1679688 76.414062 -0.484375Q75.925781 0.19921875 75.925781 1.2695312L75.925781 5.8007812L73.730469 5.8007812L73.730469 -0.76171875Q73.730469 -1.4414062 73.710938 -1.875Q73.691406 -2.3085938 73.667969 -2.6523438L75.761719 -2.6523438Q75.785156 -2.5039062 75.824219 -1.859375Q75.863281 -1.2148438 75.863281 -0.97265625L75.894531 -0.97265625Q76.339844 -1.9414062 77.011719 -2.3789062Q77.683594 -2.8164062 78.613281 -2.8164062Q79.957031 -2.8164062 80.675781 -1.9882812Q81.394531 -1.1601562 81.394531 0.43359375L81.394531 5.8007812L79.207031 5.8007812ZM85.667969 5.9414062Q84.699219 5.9414062 84.175781 5.4140625Q83.652344 4.8867188 83.652344 3.8164062L83.652344 -1.1679688L82.582031 -1.1679688L82.582031 -2.6523438L83.761719 -2.6523438L84.449219 -4.6367188L85.824219 -4.6367188L85.824219 -2.6523438L87.425781 -2.6523438L87.425781 -1.1679688L85.824219 -1.1679688L85.824219 3.2226562Q85.824219 3.8398438 86.058594 4.1328125Q86.292969 4.4257812 86.785156 4.4257812Q87.042969 4.4257812 87.519531 4.3164062L87.519531 5.6757812Q86.707031 5.9414062 85.667969 5.9414062ZM92.292969 5.9570312Q90.386719 5.9570312 89.363281 4.828125Q88.339844 3.6992188 88.339844 1.5351562Q88.339844 -0.55859375 89.378906 -1.6835938Q90.417969 -2.8085938 92.324219 -2.8085938Q94.144531 -2.8085938 95.105469 -1.6015625Q96.066406 -0.39453125 96.066406 1.9335938L96.066406 1.9960938L90.644531 1.9960938Q90.644531 3.2304688 91.101562 3.859375Q91.558594 4.4882812 92.402344 4.4882812Q93.566406 4.4882812 93.871094 3.4804688L95.941406 3.6601562Q95.042969 5.9570312 92.292969 5.9570312ZM92.292969 -1.4257812Q91.519531 -1.4257812 91.101562 -0.88671875Q90.683594 -0.34765625 90.660156 0.62109375L93.941406 0.62109375Q93.878906 -0.40234375 93.449219 -0.9140625Q93.019531 -1.4257812 92.292969 -1.4257812ZM97.730469 5.8007812L97.730469 -5.7929688L99.925781 -5.7929688L99.925781 5.8007812L97.730469 5.8007812ZM102.17578 5.8007812L102.17578 -5.7929688L104.37109 -5.7929688L104.37109 5.8007812L102.17578 5.8007812ZM106.62109 -4.1757812L106.62109 -5.7929688L108.81641 -5.7929688L108.81641 -4.1757812L106.62109 -4.1757812ZM106.62109 5.8007812L106.62109 -2.6523438L108.81641 -2.6523438L108.81641 5.8007812L106.62109 5.8007812ZM114.60547 9.1914062Q113.05859 9.1914062 112.11719 8.6015625Q111.17578 8.0117188 110.95703 6.9179688L113.15234 6.6601562Q113.26953 7.1679688 113.65625 7.4570312Q114.04297 7.7460938 114.66797 7.7460938Q115.58203 7.7460938 116.00391 7.1835938Q116.42578 6.6210938 116.42578 5.5117188L116.42578 5.0664062L116.44141 4.2304688L116.42578 4.2304688Q115.69922 5.7851562 113.70703 5.7851562Q112.23047 5.7851562 111.41797 4.6757812Q110.60547 3.5664062 110.60547 1.5039062Q110.60547 -0.56640625 111.44141 -1.6914062Q112.27734 -2.8164062 113.87109 -2.8164062Q115.71484 -2.8164062 116.42578 -1.2929688L116.46484 -1.2929688Q116.46484 -1.5664062 116.5 -2.0351562Q116.53516 -2.5039062 116.57422 -2.6523438L118.65234 -2.6523438Q118.60547 -1.8085938 118.60547 -0.69921875L118.60547 5.5429688Q118.60547 7.3476562 117.58203 8.2695312Q116.55859 9.1914062 114.60547 9.1914062ZM116.44141 1.4570312Q116.44141 0.15234375 115.97656 -0.578125Q115.51172 -1.3085938 114.65234 -1.3085938Q112.89453 -1.3085938 112.89453 1.5039062Q112.89453 4.2617188 114.63672 4.2617188Q115.51172 4.2617188 115.97656 3.53125Q116.44141 2.8007812 116.44141 1.4570312ZM124.30078 5.9570312Q122.39453 5.9570312 121.37109 4.828125Q120.34766 3.6992188 120.34766 1.5351562Q120.34766 -0.55859375 121.38672 -1.6835938Q122.42578 -2.8085938 124.33203 -2.8085938Q126.15234 -2.8085938 127.11328 -1.6015625Q128.07422 -0.39453125 128.07422 1.9335938L128.07422 1.9960938L122.65234 1.9960938Q122.65234 3.2304688 123.10938 3.859375Q123.56641 4.4882812 124.41016 4.4882812Q125.57422 4.4882812 125.87891 3.4804688L127.94922 3.6601562Q127.05078 5.9570312 124.30078 5.9570312ZM124.30078 -1.4257812Q123.52734 -1.4257812 123.10938 -0.88671875Q122.69141 -0.34765625 122.66797 0.62109375L125.94922 0.62109375Q125.88672 -0.40234375 125.45703 -0.9140625Q125.02734 -1.4257812 124.30078 -1.4257812ZM135.21484 5.8007812L135.21484 1.0585938Q135.21484 -1.1679688 133.70703 -1.1679688Q132.91016 -1.1679688 132.42188 -0.484375Q131.93359 0.19921875 131.93359 1.2695312L131.93359 5.8007812L129.73828 5.8007812L129.73828 -0.76171875Q129.73828 -1.4414062 129.71875 -1.875Q129.69922 -2.3085938 129.67578 -2.6523438L131.76953 -2.6523438Q131.79297 -2.5039062 131.83203 -1.859375Q131.87109 -1.2148438 131.87109 -0.97265625L131.90234 -0.97265625Q132.34766 -1.9414062 133.01953 -2.3789062Q133.69141 -2.8164062 134.62109 -2.8164062Q135.96484 -2.8164062 136.68359 -1.9882812Q137.40234 -1.1601562 137.40234 0.43359375L137.40234 5.8007812L135.21484 5.8007812ZM143.03516 5.9570312Q141.11328 5.9570312 140.06641 4.8125Q139.01953 3.6679688 139.01953 1.6210938Q139.01953 -0.47265625 140.07422 -1.640625Q141.12891 -2.8085938 143.06641 -2.8085938Q144.55859 -2.8085938 145.53516 -2.0585938Q146.51172 -1.3085938 146.76172 0.01171875L144.55078 0.12109375Q144.45703 -0.52734375 144.08203 -0.9140625Q143.70703 -1.3007812 143.01953 -1.3007812Q141.32422 -1.3007812 141.32422 1.5351562Q141.32422 4.4570312 143.05078 4.4570312Q143.67578 4.4570312 144.09766 4.0625Q144.51953 3.6679688 144.62109 2.8867188L146.82422 2.9882812Q146.70703 3.8554688 146.20312 4.5351562Q145.69922 5.2148438 144.87891 5.5859375Q144.05859 5.9570312 143.03516 5.9570312ZM151.87109 5.9570312Q149.96484 5.9570312 148.94141 4.828125Q147.91797 3.6992188 147.91797 1.5351562Q147.91797 -0.55859375 148.95703 -1.6835938Q149.99609 -2.8085938 151.90234 -2.8085938Q153.72266 -2.8085938 154.68359 -1.6015625Q155.64453 -0.39453125 155.64453 1.9335938L155.64453 1.9960938L150.22266 1.9960938Q150.22266 3.2304688 150.67969 3.859375Q151.13672 4.4882812 151.98047 4.4882812Q153.14453 4.4882812 153.44922 3.4804688L155.51953 3.6601562Q154.62109 5.9570312 151.87109 5.9570312ZM151.87109 -1.4257812Q151.09766 -1.4257812 150.67969 -0.88671875Q150.26172 -0.34765625 150.23828 0.62109375L153.51953 0.62109375Q153.45703 -0.40234375 153.02734 -0.9140625Q152.59766 -1.4257812 151.87109 -1.4257812ZM161.26172 2.6054688L161.26172 0.69921875L165.32422 0.69921875L165.32422 2.6054688L161.26172 2.6054688ZM173.78516 -3.4257812L173.78516 -0.01953125L179.41797 -0.01953125L179.41797 1.7617188L173.78516 1.7617188L173.78516 5.8007812L171.48047 5.8007812L171.48047 -5.2070312L179.59766 -5.2070312L179.59766 -3.4257812L173.78516 -3.4257812ZM191.95703 0.24609375Q191.95703 1.9648438 191.27734 3.2695312Q190.59766 4.5742188 189.33203 5.265625Q188.06641 5.9570312 186.37891 5.9570312Q183.78516 5.9570312 182.3125 4.4296875Q180.83984 2.9023438 180.83984 0.24609375Q180.83984 -2.4023438 182.30859 -3.8867188Q183.77734 -5.3710938 186.39453 -5.3710938Q189.01172 -5.3710938 190.48438 -3.8710938Q191.95703 -2.3710938 191.95703 0.24609375ZM189.60547 0.24609375Q189.60547 -1.5351562 188.76172 -2.546875Q187.91797 -3.5585938 186.39453 -3.5585938Q184.84766 -3.5585938 184.00391 -2.5546875Q183.16016 -1.5507812 183.16016 0.24609375Q183.16016 2.0585938 184.02344 3.1015625Q184.88672 4.1445312 186.37891 4.1445312Q187.92578 4.1445312 188.76562 3.1289062Q189.60547 2.1132812 189.60547 0.24609375ZM201.26172 5.8007812L198.70703 1.6210938L196.00391 1.6210938L196.00391 5.8007812L193.69922 5.8007812L193.69922 -5.2070312L199.19922 -5.2070312Q201.16797 -5.2070312 202.23828 -4.359375Q203.30859 -3.5117188 203.30859 -1.9257812Q203.30859 -0.76953125 202.65234 0.0703125Q201.99609 0.91015625 200.87891 1.1757812L203.85547 5.8007812L201.26172 5.8007812ZM200.98828 -1.8320312Q200.98828 -3.4179688 198.95703 -3.4179688L196.00391 -3.4179688L196.00391 -0.16796875L199.01953 -0.16796875Q199.98828 -0.16796875 200.48828 -0.60546875Q200.98828 -1.0429688 200.98828 -1.8320312ZM214.39453 5.8007812L214.39453 -0.87109375Q214.39453 -1.0976562 214.39844 -1.3242188Q214.40234 -1.5507812 214.47266 -3.2695312Q213.91797 -1.1679688 213.65234 -0.33984375L211.66797 5.8007812L210.02734 5.8007812L208.04297 -0.33984375L207.20703 -3.2695312Q207.30078 -1.4570312 207.30078 -0.87109375L207.30078 5.8007812L205.25391 5.8007812L205.25391 -5.2070312L208.33984 -5.2070312L210.30859 0.94921875L210.48047 1.5429688L210.85547 3.0195312L211.34766 1.2539062L213.37109 -5.2070312L216.44141 -5.2070312L216.44141 5.8007812L214.39453 5.8007812ZM226.36328 5.8007812L225.38672 2.9882812L221.19141 2.9882812L220.21484 5.8007812L217.91016 5.8007812L221.92578 -5.2070312L224.64453 -5.2070312L228.64453 5.8007812L226.36328 5.8007812ZM223.28516 -3.5117188L223.23828 -3.3398438Q223.16016 -3.0585938 223.05078 -2.6992188Q222.94141 -2.3398438 221.70703 1.2539062L224.87109 1.2539062L223.78516 -1.9101562L223.44922 -2.9726562L223.28516 -3.5117188ZM233.91797 -3.4257812L233.91797 5.8007812L231.61328 5.8007812L231.61328 -3.4257812L228.05859 -3.4257812L228.05859 -5.2070312L237.48047 -5.2070312L237.48047 -3.4257812L233.91797 -3.4257812ZM252.98047 0.21484375Q252.98047 1.9179688 252.3125 3.1875Q251.64453 4.4570312 250.42188 5.1289062Q249.19922 5.8007812 247.62109 5.8007812L243.16797 5.8007812L243.16797 -5.2070312L247.15234 -5.2070312Q249.93359 -5.2070312 251.45703 -3.8046875Q252.98047 -2.4023438 252.98047 0.21484375ZM250.66016 0.21484375Q250.66016 -1.5585938 249.73828 -2.4921875Q248.81641 -3.4257812 247.10547 -3.4257812L245.47266 -3.4257812L245.47266 4.0195312L247.42578 4.0195312Q248.91016 4.0195312 249.78516 2.9960938Q250.66016 1.9726562 250.66016 0.21484375ZM262.80078 1.5664062Q262.80078 3.6210938 261.66016 4.7890625Q260.51953 5.9570312 258.50391 5.9570312Q256.52734 5.9570312 255.40234 4.7851562Q254.27734 3.6132812 254.27734 1.5664062Q254.27734 -0.47265625 255.40234 -1.640625Q256.52734 -2.8085938 258.55078 -2.8085938Q260.62109 -2.8085938 261.71094 -1.6796875Q262.80078 -0.55078125 262.80078 1.5664062ZM260.50391 1.5664062Q260.50391 0.05859375 260.01172 -0.62109375Q259.51953 -1.3007812 258.58203 -1.3007812Q256.58203 -1.3007812 256.58203 1.5664062Q256.58203 2.9804688 257.07031 3.71875Q257.55859 4.4570312 258.48047 4.4570312Q260.50391 4.4570312 260.50391 1.5664062ZM273.68359 5.8007812L271.36328 5.8007812L270.01953 0.64453125Q269.92578 0.29296875 269.65234 -1.0898438L269.24609 0.66015625L267.88672 5.8007812L265.56641 5.8007812L263.37891 -2.6523438L265.44141 -2.6523438L266.83203 3.8085938L266.94141 3.2304688L267.13672 2.3164062L268.46484 -2.6523438L270.81641 -2.6523438L272.11328 2.3164062Q272.22266 2.7226562 272.43359 3.8085938L272.65234 2.7773438L273.87109 -2.6523438L275.90234 -2.6523438L273.68359 5.8007812ZM282.46484 5.8007812L282.46484 1.0585938Q282.46484 -1.1679688 280.95703 -1.1679688Q280.16016 -1.1679688 279.67188 -0.484375Q279.18359 0.19921875 279.18359 1.2695312L279.18359 5.8007812L276.98828 5.8007812L276.98828 -0.76171875Q276.98828 -1.4414062 276.96875 -1.875Q276.94922 -2.3085938 276.92578 -2.6523438L279.01953 -2.6523438Q279.04297 -2.5039062 279.08203 -1.859375Q279.12109 -1.2148438 279.12109 -0.97265625L279.15234 -0.97265625Q279.59766 -1.9414062 280.26953 -2.3789062Q280.94141 -2.8164062 281.87109 -2.8164062Q283.21484 -2.8164062 283.93359 -1.9882812Q284.65234 -1.1601562 284.65234 0.43359375L284.65234 5.8007812L282.46484 5.8007812ZM286.76172 5.8007812L286.76172 -5.7929688L288.95703 -5.7929688L288.95703 5.8007812L286.76172 5.8007812ZM299.23828 1.5664062Q299.23828 3.6210938 298.09766 4.7890625Q296.95703 5.9570312 294.94141 5.9570312Q292.96484 5.9570312 291.83984 4.7851562Q290.71484 3.6132812 290.71484 1.5664062Q290.71484 -0.47265625 291.83984 -1.640625Q292.96484 -2.8085938 294.98828 -2.8085938Q297.05859 -2.8085938 298.14844 -1.6796875Q299.23828 -0.55078125 299.23828 1.5664062ZM296.94141 1.5664062Q296.94141 0.05859375 296.44922 -0.62109375Q295.95703 -1.3007812 295.01953 -1.3007812Q293.01953 -1.3007812 293.01953 1.5664062Q293.01953 2.9804688 293.50781 3.71875Q293.99609 4.4570312 294.91797 4.4570312Q296.94141 4.4570312 296.94141 1.5664062ZM302.93359 5.9570312Q301.70703 5.9570312 301.01953 5.2890625Q300.33203 4.6210938 300.33203 3.4101562Q300.33203 2.0976562 301.1875 1.4101562Q302.04297 0.72265625 303.66797 0.70703125L305.48828 0.67578125L305.48828 0.24609375Q305.48828 -0.58203125 305.19922 -0.984375Q304.91016 -1.3867188 304.25391 -1.3867188Q303.64453 -1.3867188 303.35938 -1.109375Q303.07422 -0.83203125 303.00391 -0.19140625L300.71484 -0.30078125Q300.92578 -1.5351562 301.84375 -2.171875Q302.76172 -2.8085938 304.34766 -2.8085938Q305.94922 -2.8085938 306.81641 -2.0195312Q307.68359 -1.2304688 307.68359 0.22265625L307.68359 3.3007812Q307.68359 4.0117188 307.84375 4.28125Q308.00391 4.5507812 308.37891 4.5507812Q308.62891 4.5507812 308.86328 4.5039062L308.86328 5.6914062Q308.66797 5.7382812 308.51172 5.7773438Q308.35547 5.8164062 308.19922 5.8398438Q308.04297 5.8632812 307.86719 5.8789062Q307.69141 5.8945312 307.45703 5.8945312Q306.62891 5.8945312 306.23438 5.4882812Q305.83984 5.0820312 305.76172 4.2929688L305.71484 4.2929688Q304.79297 5.9570312 302.93359 5.9570312ZM305.48828 1.8867188L304.36328 1.9023438Q303.59766 1.9335938 303.27734 2.0703125Q302.95703 2.2070312 302.78906 2.4882812Q302.62109 2.7695312 302.62109 3.2382812Q302.62109 3.8398438 302.89844 4.1328125Q303.17578 4.4257812 303.63672 4.4257812Q304.15234 4.4257812 304.57812 4.1445312Q305.00391 3.8632812 305.24609 3.3671875Q305.48828 2.8710938 305.48828 2.3164062L305.48828 1.8867188ZM315.35547 5.8007812Q315.32422 5.6835938 315.28125 5.2109375Q315.23828 4.7382812 315.23828 4.4257812L315.20703 4.4257812Q314.49609 5.9570312 312.50391 5.9570312Q311.02734 5.9570312 310.22266 4.8046875Q309.41797 3.6523438 309.41797 1.5820312Q309.41797 -0.51953125 310.26562 -1.6640625Q311.11328 -2.8085938 312.66797 -2.8085938Q313.56641 -2.8085938 314.21875 -2.4335938Q314.87109 -2.0585938 315.22266 -1.3164062L315.23828 -1.3164062L315.22266 -2.7070312L315.22266 -5.7929688L317.41797 -5.7929688L317.41797 3.9570312Q317.41797 4.7382812 317.48047 5.8007812L315.35547 5.8007812ZM315.25391 1.5273438Q315.25391 0.16015625 314.79688 -0.578125Q314.33984 -1.3164062 313.44922 -1.3164062Q312.56641 -1.3164062 312.13672 -0.6015625Q311.70703 0.11328125 311.70703 1.5820312Q311.70703 4.4570312 313.43359 4.4570312Q314.30078 4.4570312 314.77734 3.6953125Q315.25391 2.9335938 315.25391 1.5273438ZM329.01953 -3.4257812L329.01953 5.8007812L326.71484 5.8007812L326.71484 -3.4257812L323.16016 -3.4257812L323.16016 -5.2070312L332.58203 -5.2070312L332.58203 -3.4257812L329.01953 -3.4257812ZM332.98828 5.8007812L332.98828 -0.66796875Q332.98828 -1.3632812 332.96875 -1.828125Q332.94922 -2.2929688 332.92578 -2.6523438L335.01953 -2.6523438Q335.04297 -2.5117188 335.08203 -1.796875Q335.12109 -1.0820312 335.12109 -0.84765625L335.15234 -0.84765625Q335.47266 -1.7382812 335.72266 -2.1015625Q335.97266 -2.4648438 336.31641 -2.640625Q336.66016 -2.8164062 337.17578 -2.8164062Q337.59766 -2.8164062 337.85547 -2.6992188L337.85547 -0.86328125Q337.32422 -0.98046875 336.91797 -0.98046875Q336.09766 -0.98046875 335.64062 -0.31640625Q335.18359 0.34765625 335.18359 1.6523438L335.18359 5.8007812L332.98828 5.8007812ZM342.67578 5.9570312Q340.76953 5.9570312 339.74609 4.828125Q338.72266 3.6992188 338.72266 1.5351562Q338.72266 -0.55859375 339.76172 -1.6835938Q340.80078 -2.8085938 342.70703 -2.8085938Q344.52734 -2.8085938 345.48828 -1.6015625Q346.44922 -0.39453125 346.44922 1.9335938L346.44922 1.9960938L341.02734 1.9960938Q341.02734 3.2304688 341.48438 3.859375Q341.94141 4.4882812 342.78516 4.4882812Q343.94922 4.4882812 344.25391 3.4804688L346.32422 3.6601562Q345.42578 5.9570312 342.67578 5.9570312ZM342.67578 -1.4257812Q341.90234 -1.4257812 341.48438 -0.88671875Q341.06641 -0.34765625 341.04297 0.62109375L344.32422 0.62109375Q344.26172 -0.40234375 343.83203 -0.9140625Q343.40234 -1.4257812 342.67578 -1.4257812ZM353.58984 5.8007812L353.58984 1.0585938Q353.58984 -1.1679688 352.08203 -1.1679688Q351.28516 -1.1679688 350.79688 -0.484375Q350.30859 0.19921875 350.30859 1.2695312L350.30859 5.8007812L348.11328 5.8007812L348.11328 -0.76171875Q348.11328 -1.4414062 348.09375 -1.875Q348.07422 -2.3085938 348.05078 -2.6523438L350.14453 -2.6523438Q350.16797 -2.5039062 350.20703 -1.859375Q350.24609 -1.2148438 350.24609 -0.97265625L350.27734 -0.97265625Q350.72266 -1.9414062 351.39453 -2.3789062Q352.06641 -2.8164062 352.99609 -2.8164062Q354.33984 -2.8164062 355.05859 -1.9882812Q355.77734 -1.1601562 355.77734 0.43359375L355.77734 5.8007812L353.58984 5.8007812ZM363.36328 5.8007812Q363.33203 5.6835938 363.28906 5.2109375Q363.24609 4.7382812 363.24609 4.4257812L363.21484 4.4257812Q362.50391 5.9570312 360.51172 5.9570312Q359.03516 5.9570312 358.23047 4.8046875Q357.42578 3.6523438 357.42578 1.5820312Q357.42578 -0.51953125 358.27344 -1.6640625Q359.12109 -2.8085938 360.67578 -2.8085938Q361.57422 -2.8085938 362.22656 -2.4335938Q362.87891 -2.0585938 363.23047 -1.3164062L363.24609 -1.3164062L363.23047 -2.7070312L363.23047 -5.7929688L365.42578 -5.7929688L365.42578 3.9570312Q365.42578 4.7382812 365.48828 5.8007812L363.36328 5.8007812ZM363.26172 1.5273438Q363.26172 0.16015625 362.80469 -0.578125Q362.34766 -1.3164062 361.45703 -1.3164062Q360.57422 -1.3164062 360.14453 -0.6015625Q359.71484 0.11328125 359.71484 1.5820312Q359.71484 4.4570312 361.44141 4.4570312Q362.30859 4.4570312 362.78516 3.6953125Q363.26172 2.9335938 363.26172 1.5273438ZM374.78516 3.3320312Q374.78516 4.5585938 373.78125 5.2578125Q372.77734 5.9570312 371.00391 5.9570312Q369.26172 5.9570312 368.33594 5.40625Q367.41016 4.8554688 367.10547 3.6914062L369.03516 3.4023438Q369.19922 4.0039062 369.60156 4.2539062Q370.00391 4.5039062 371.00391 4.5039062Q371.92578 4.5039062 372.34766 4.2695312Q372.76953 4.0351562 372.76953 3.5351562Q372.76953 3.1289062 372.42969 2.890625Q372.08984 2.6523438 371.27734 2.4882812Q369.41797 2.1210938 368.76953 1.8046875Q368.12109 1.4882812 367.78125 0.984375Q367.44141 0.48046875 367.44141 -0.25390625Q367.44141 -1.4648438 368.375 -2.140625Q369.30859 -2.8164062 371.01953 -2.8164062Q372.52734 -2.8164062 373.44531 -2.2304688Q374.36328 -1.6445312 374.58984 -0.53515625L372.64453 -0.33203125Q372.55078 -0.84765625 372.18359 -1.1015625Q371.81641 -1.3554688 371.01953 -1.3554688Q370.23828 -1.3554688 369.84766 -1.15625Q369.45703 -0.95703125 369.45703 -0.48828125Q369.45703 -0.12109375 369.75781 0.09375Q370.05859 0.30859375 370.76953 0.44921875Q371.76172 0.65234375 372.53125 0.8671875Q373.30078 1.0820312 373.76562 1.3789062Q374.23047 1.6757812 374.50781 2.140625Q374.78516 2.6054688 374.78516 3.3320312Z"/>
	<path fill="none" stroke="black" stroke-width="1" stroke-miterlimit="10" stroke-opacity="0.10196079" d="M49 749.5L1195 749.5"/>
	<clipPath id="cl_3cc">
		<rect y="749.20001" width="1200" height="50.799988"/>
	</clipPath>
	<g clip-path="url(#cl_3cc)">
		<path fill="#666" transform="translate(49.75 760.2)" d="M-12.751953 11.300586L-14 11.300586L-16.302734 4.960742L-15.177734 4.960742L-13.783203 9.085742Q-13.707031 9.320117 -13.378906 10.474414L-13.173828 9.788867L-12.945312 9.0974607L-11.503906 4.960742L-10.384766 4.960742L-12.751953 11.300586ZM-4.1386719 7.1697264Q-4.1386719 9.2380857 -4.8681641 10.327929Q-5.5976562 11.417773 -7.0214844 11.417773Q-8.4453125 11.417773 -9.1601562 10.333789Q-9.875 9.2498045 -9.875 7.1697264Q-9.875 5.0427732 -9.1806641 3.9822264Q-8.4863281 2.9216795 -6.9863281 2.9216795Q-5.5273438 2.9216795 -4.8330078 3.9939451Q-4.1386719 5.0662107 -4.1386719 7.1697264ZM-5.2109375 7.1697264Q-5.2109375 5.382617 -5.6240234 4.5798826Q-6.0371094 3.7771482 -6.9863281 3.7771482Q-7.9589844 3.7771482 -8.3837891 4.5681639Q-8.8085938 5.3591795 -8.8085938 7.1697264Q-8.8085938 8.9275389 -8.3779297 9.741992Q-7.9472656 10.556445 -7.0097656 10.556445Q-6.078125 10.556445 -5.6445312 9.7244139Q-5.2109375 8.8923826 -5.2109375 7.1697264ZM-2.5742188 11.300586L-2.5742188 10.017383L-1.4316406 10.017383L-1.4316406 11.300586L-2.5742188 11.300586ZM0.578125 11.300586L0.578125 10.404101L2.6816406 10.404101L2.6816406 4.0525389L0.81835938 5.382617L0.81835938 4.3865232L2.7695312 3.0447264L3.7421875 3.0447264L3.7421875 10.404101L5.7519531 10.404101L5.7519531 11.300586L0.578125 11.300586ZM7.4335938 11.300586L7.4335938 10.017383L8.5761719 10.017383L8.5761719 11.300586L7.4335938 11.300586ZM15.876953 7.1697264Q15.876953 9.2380857 15.147461 10.327929Q14.417969 11.417773 12.994141 11.417773Q11.570312 11.417773 10.855469 10.333789Q10.140625 9.2498045 10.140625 7.1697264Q10.140625 5.0427732 10.834961 3.9822264Q11.529297 2.9216795 13.029297 2.9216795Q14.488281 2.9216795 15.182617 3.9939451Q15.876953 5.0662107 15.876953 7.1697264ZM14.804688 7.1697264Q14.804688 5.382617 14.391602 4.5798826Q13.978516 3.7771482 13.029297 3.7771482Q12.056641 3.7771482 11.631836 4.5681639Q11.207031 5.3591795 11.207031 7.1697264Q11.207031 8.9275389 11.637695 9.741992Q12.068359 10.556445 13.005859 10.556445Q13.9375 10.556445 14.371094 9.7244139Q14.804688 8.8923826 14.804688 7.1697264Z"/>
	</g>
	<path fill="none" stroke="black" stroke-width="1" stroke-miterlimit="10" stroke-opacity="0.10196079" d="M49.5 71L49.5 750"/>
	<clipPath id="cl_3ce">
		<rect width="49.75" height="800"/>
	</clipPath>
	<g clip-path="url(#cl_3ce)">
		<path fill="#666" transform="translate(38.75 749.2)" d="M-0.46679688 -0.030273438Q-0.46679688 2.0380859 -1.1962891 3.1279297Q-1.9257812 4.2177734 -3.3496094 4.2177734Q-4.7734375 4.2177734 -5.4882812 3.1337891Q-6.203125 2.0498047 -6.203125 -0.030273438Q-6.203125 -2.1572266 -5.5087891 -3.2177734Q-4.8144531 -4.2783203 -3.3144531 -4.2783203Q-1.8554688 -4.2783203 -1.1611328 -3.2060547Q-0.46679688 -2.1337891 -0.46679688 -0.030273438ZM-1.5390625 -0.030273438Q-1.5390625 -1.8173828 -1.9521484 -2.6201172Q-2.3652344 -3.4228516 -3.3144531 -3.4228516Q-4.2871094 -3.4228516 -4.7119141 -2.6318359Q-5.1367188 -1.8408203 -5.1367188 -0.030273438Q-5.1367188 1.7275391 -4.7060547 2.5419922Q-4.2753906 3.3564453 -3.3378906 3.3564453Q-2.40625 3.3564453 -1.9726562 2.5244141Q-1.5390625 1.6923828 -1.5390625 -0.030273438Z"/>
	</g>
	<clipPath id="cl_3cf">
		<rect width="49.75" height="800"/>
	</clipPath>
	<g clip-path="url(#cl_3cf)">
		<path fill="#666" transform="translate(38.75 681.4)" d="M-5.7578125 4.1005859L-5.7578125 3.2041016L-3.6542969 3.2041016L-3.6542969 -3.1474609L-5.5175781 -1.8173828L-5.5175781 -2.8134766L-3.5664062 -4.1552734L-2.59375 -4.1552734L-2.59375 3.2041016L-0.58398438 3.2041016L-0.58398438 4.1005859L-5.7578125 4.1005859Z"/>
	</g>
	<clipPath id="cl_3d0">
		<rect width="49.75" height="800"/>
	</clipPath>
	<g clip-path="url(#cl_3d0)">
		<path fill="#666" transform="translate(38.75 613.6)" d="M-6.0683594 4.1005859L-6.0683594 3.3564453Q-5.7695312 2.6708984 -5.3388672 2.1464844Q-4.9082031 1.6220703 -4.4335938 1.1972656Q-3.9589844 0.77246094 -3.4931641 0.40917969Q-3.0273438 0.045898438 -2.6523438 -0.31738281Q-2.2773438 -0.68066406 -2.0458984 -1.0791016Q-1.8144531 -1.4775391 -1.8144531 -1.9814453Q-1.8144531 -2.6611328 -2.2128906 -3.0361328Q-2.6113281 -3.4111328 -3.3203125 -3.4111328Q-3.9941406 -3.4111328 -4.4306641 -3.0449219Q-4.8671875 -2.6787109 -4.9433594 -2.0166016L-6.0214844 -2.1162109Q-5.9042969 -3.1064453 -5.1806641 -3.6923828Q-4.4570312 -4.2783203 -3.3203125 -4.2783203Q-2.0722656 -4.2783203 -1.4013672 -3.6894531Q-0.73046875 -3.1005859 -0.73046875 -2.0166016Q-0.73046875 -1.5361328 -0.95019531 -1.0615234Q-1.1699219 -0.58691406 -1.6035156 -0.11230469Q-2.0371094 0.36230469 -3.2617188 1.3583984Q-3.9355469 1.9091797 -4.3339844 2.3515625Q-4.7324219 2.7939453 -4.9082031 3.2041016L-0.6015625 3.2041016L-0.6015625 4.1005859L-6.0683594 4.1005859Z"/>
	</g>
	<clipPath id="cl_3d1">
		<rect width="49.75" height="800"/>
	</clipPath>
	<g clip-path="url(#cl_3d1)">
		<path fill="#666" transform="translate(38.75 545.8)" d="M-0.52539062 1.8212891Q-0.52539062 2.9638672 -1.2519531 3.5908203Q-1.9785156 4.2177734 -3.3261719 4.2177734Q-4.5800781 4.2177734 -5.3271484 3.6523438Q-6.0742188 3.0869141 -6.2148438 1.9794922L-5.125 1.8798828Q-4.9140625 3.3447266 -3.3261719 3.3447266Q-2.5292969 3.3447266 -2.0751953 2.9521484Q-1.6210938 2.5595703 -1.6210938 1.7861328Q-1.6210938 1.1123047 -2.1396484 0.734375Q-2.6582031 0.35644531 -3.6367188 0.35644531L-4.234375 0.35644531L-4.234375 -0.55761719L-3.6601562 -0.55761719Q-2.7929688 -0.55761719 -2.3154297 -0.93554688Q-1.8378906 -1.3134766 -1.8378906 -1.9814453Q-1.8378906 -2.6435547 -2.2275391 -3.0273438Q-2.6171875 -3.4111328 -3.3847656 -3.4111328Q-4.0820312 -3.4111328 -4.5126953 -3.0537109Q-4.9433594 -2.6962891 -5.0136719 -2.0458984L-6.0742188 -2.1279297Q-5.9570312 -3.1416016 -5.2333984 -3.7099609Q-4.5097656 -4.2783203 -3.3730469 -4.2783203Q-2.1308594 -4.2783203 -1.4423828 -3.7011719Q-0.75390625 -3.1240234 -0.75390625 -2.0927734Q-0.75390625 -1.3017578 -1.1962891 -0.80664062Q-1.6386719 -0.31152344 -2.4824219 -0.13574219L-2.4824219 -0.11230469Q-1.5566406 -0.012695312 -1.0410156 0.50878906Q-0.52539062 1.0302734 -0.52539062 1.8212891Z"/>
	</g>
	<clipPath id="cl_3d2">
		<rect width="49.75" height="800"/>
	</clipPath>
	<g clip-path="url(#cl_3d2)">
		<path fill="#666" transform="translate(38.75 478)" d="M-1.5097656 2.2314453L-1.5097656 4.1005859L-2.5058594 4.1005859L-2.5058594 2.2314453L-6.3964844 2.2314453L-6.3964844 1.4111328L-2.6171875 -4.1552734L-1.5097656 -4.1552734L-1.5097656 1.3994141L-0.34960938 1.3994141L-0.34960938 2.2314453L-1.5097656 2.2314453ZM-2.5058594 -2.9658203Q-2.5175781 -2.9306641 -2.6699219 -2.6552734Q-2.8222656 -2.3798828 -2.8984375 -2.2685547L-5.0136719 0.84863281L-5.3300781 1.2822266L-5.4238281 1.3994141L-2.5058594 1.3994141L-2.5058594 -2.9658203Z"/>
	</g>
	<clipPath id="cl_3d3">
		<rect width="49.75" height="800"/>
	</clipPath>
	<g clip-path="url(#cl_3d3)">
		<path fill="#666" transform="translate(38.75 410.2)" d="M-0.50195312 1.4111328Q-0.50195312 2.7177734 -1.2783203 3.4677734Q-2.0546875 4.2177734 -3.4316406 4.2177734Q-4.5859375 4.2177734 -5.2949219 3.7138672Q-6.0039062 3.2099609 -6.1914062 2.2548828L-5.125 2.1318359Q-4.7910156 3.3564453 -3.4082031 3.3564453Q-2.5585938 3.3564453 -2.078125 2.84375Q-1.5976562 2.3310547 -1.5976562 1.4345703Q-1.5976562 0.65527344 -2.0810547 0.17480469Q-2.5644531 -0.30566406 -3.3847656 -0.30566406Q-3.8125 -0.30566406 -4.1816406 -0.17089844Q-4.5507812 -0.036132812 -4.9199219 0.28613281L-5.9511719 0.28613281L-5.6757812 -4.1552734L-0.98242188 -4.1552734L-0.98242188 -3.2587891L-4.7148438 -3.2587891L-4.8730469 -0.63964844Q-4.1875 -1.1669922 -3.1679688 -1.1669922Q-1.9492188 -1.1669922 -1.2255859 -0.45214844Q-0.50195312 0.26269531 -0.50195312 1.4111328Z"/>
	</g>
	<clipPath id="cl_3d4">
		<rect width="49.75" height="800"/>
	</clipPath>
	<g clip-path="url(#cl_3d4)">
		<path fill="#666" transform="translate(38.75 342.4)" d="M-0.52539062 1.3994141Q-0.52539062 2.7060547 -1.234375 3.4619141Q-1.9433594 4.2177734 -3.1914062 4.2177734Q-4.5859375 4.2177734 -5.3242188 3.1806641Q-6.0625 2.1435547 -6.0625 0.16308594Q-6.0625 -1.9814453 -5.2949219 -3.1298828Q-4.5273438 -4.2783203 -3.109375 -4.2783203Q-1.2402344 -4.2783203 -0.75390625 -2.5966797L-1.7617188 -2.4150391Q-2.0722656 -3.4228516 -3.1210938 -3.4228516Q-4.0234375 -3.4228516 -4.5185547 -2.5820312Q-5.0136719 -1.7412109 -5.0136719 -0.14746094Q-4.7265625 -0.68066406 -4.2050781 -0.95898438Q-3.6835938 -1.2373047 -3.0097656 -1.2373047Q-1.8671875 -1.2373047 -1.1962891 -0.52246094Q-0.52539062 0.19238281 -0.52539062 1.3994141ZM-1.5976562 1.4462891Q-1.5976562 0.54980469 -2.0371094 0.063476562Q-2.4765625 -0.42285156 -3.2617188 -0.42285156Q-4 -0.42285156 -4.4541016 0.0078125Q-4.9082031 0.43847656 -4.9082031 1.1943359Q-4.9082031 2.1494141 -4.4365234 2.7587891Q-3.9648438 3.3681641 -3.2265625 3.3681641Q-2.4648438 3.3681641 -2.03125 2.8554688Q-1.5976562 2.3427734 -1.5976562 1.4462891Z"/>
	</g>
	<clipPath id="cl_3d5">
		<rect width="49.75" height="800"/>
	</clipPath>
	<g clip-path="url(#cl_3d5)">
		<path fill="#666" transform="translate(38.75 274.6)" d="M-0.6015625 -3.2998047Q-1.8671875 -1.3662109 -2.3886719 -0.27050781Q-2.9101562 0.82519531 -3.1708984 1.8916016Q-3.4316406 2.9580078 -3.4316406 4.1005859L-4.5332031 4.1005859Q-4.5332031 2.5185547 -3.8623047 0.76953125Q-3.1914062 -0.97949219 -1.6210938 -3.2587891L-6.0566406 -3.2587891L-6.0566406 -4.1552734L-0.6015625 -4.1552734L-0.6015625 -3.2998047Z"/>
	</g>
	<clipPath id="cl_3d6">
		<rect width="49.75" height="800"/>
	</clipPath>
	<g clip-path="url(#cl_3d6)">
		<path fill="#666" transform="translate(38.75 206.8)" d="M-0.51953125 1.7978516Q-0.51953125 2.9404297 -1.2460938 3.5791016Q-1.9726562 4.2177734 -3.3320312 4.2177734Q-4.65625 4.2177734 -5.4033203 3.5908203Q-6.1503906 2.9638672 -6.1503906 1.8095703Q-6.1503906 1.0009766 -5.6875 0.45019531Q-5.2246094 -0.10058594 -4.5039062 -0.21777344L-4.5039062 -0.24121094Q-5.1777344 -0.39941406 -5.5673828 -0.92675781Q-5.9570312 -1.4541016 -5.9570312 -2.1630859Q-5.9570312 -3.1064453 -5.2509766 -3.6923828Q-4.5449219 -4.2783203 -3.3554688 -4.2783203Q-2.1367188 -4.2783203 -1.4306641 -3.7041016Q-0.72460938 -3.1298828 -0.72460938 -2.1513672Q-0.72460938 -1.4423828 -1.1171875 -0.91503906Q-1.5097656 -0.38769531 -2.1894531 -0.25292969L-2.1894531 -0.22949219Q-1.3984375 -0.10058594 -0.95898438 0.44140625Q-0.51953125 0.98339844 -0.51953125 1.7978516ZM-1.8203125 -2.0927734Q-1.8203125 -3.4931641 -3.3554688 -3.4931641Q-4.0996094 -3.4931641 -4.4892578 -3.1416016Q-4.8789062 -2.7900391 -4.8789062 -2.0927734Q-4.8789062 -1.3837891 -4.4775391 -1.0117188Q-4.0761719 -0.63964844 -3.34375 -0.63964844Q-2.5996094 -0.63964844 -2.2099609 -0.98242188Q-1.8203125 -1.3251953 -1.8203125 -2.0927734ZM-1.6152344 1.6982422Q-1.6152344 0.93066406 -2.0722656 0.54101562Q-2.5292969 0.15136719 -3.3554688 0.15136719Q-4.1582031 0.15136719 -4.609375 0.5703125Q-5.0605469 0.98925781 -5.0605469 1.7216797Q-5.0605469 3.4267578 -3.3203125 3.4267578Q-2.4589844 3.4267578 -2.0371094 3.0136719Q-1.6152344 2.6005859 -1.6152344 1.6982422Z"/>
	</g>
	<clipPath id="cl_3d7">
		<rect width="49.75" height="800"/>
	</clipPath>
	<g clip-path="url(#cl_3d7)">
		<path fill="#666" transform="translate(38.75 139)" d="M-0.56640625 -0.19433594Q-0.56640625 1.9326172 -1.3427734 3.0751953Q-2.1191406 4.2177734 -3.5546875 4.2177734Q-4.5214844 4.2177734 -5.1044922 3.8105469Q-5.6875 3.4033203 -5.9394531 2.4951172L-4.9316406 2.3369141Q-4.6152344 3.3681641 -3.5371094 3.3681641Q-2.6289062 3.3681641 -2.1308594 2.5244141Q-1.6328125 1.6806641 -1.609375 0.11621094Q-1.84375 0.64355469 -2.4121094 0.96289062Q-2.9804688 1.2822266 -3.6601562 1.2822266Q-4.7734375 1.2822266 -5.4414062 0.52050781Q-6.109375 -0.24121094 -6.109375 -1.5009766Q-6.109375 -2.7958984 -5.3828125 -3.5371094Q-4.65625 -4.2783203 -3.3613281 -4.2783203Q-1.984375 -4.2783203 -1.2753906 -3.2587891Q-0.56640625 -2.2392578 -0.56640625 -0.19433594ZM-1.7148438 -1.2138672Q-1.7148438 -2.2099609 -2.171875 -2.8164062Q-2.6289062 -3.4228516 -3.3964844 -3.4228516Q-4.1582031 -3.4228516 -4.5976562 -2.9042969Q-5.0371094 -2.3857422 -5.0371094 -1.5009766Q-5.0371094 -0.59863281 -4.5976562 -0.07421875Q-4.1582031 0.45019531 -3.4082031 0.45019531Q-2.9511719 0.45019531 -2.5585938 0.2421875Q-2.1660156 0.034179688 -1.9404297 -0.34667969Q-1.7148438 -0.72753906 -1.7148438 -1.2138672Z"/>
	</g>
	<clipPath id="cl_3d8">
		<rect width="49.75" height="800"/>
	</clipPath>
	<g clip-path="url(#cl_3d8)">
		<path fill="#666" transform="translate(38.75 71.2)" d="M-12.429688 4.1005859L-12.429688 3.2041016L-10.326172 3.2041016L-10.326172 -3.1474609L-12.189453 -1.8173828L-12.189453 -2.8134766L-10.238281 -4.1552734L-9.265625 -4.1552734L-9.265625 3.2041016L-7.2558594 3.2041016L-7.2558594 4.1005859L-12.429688 4.1005859ZM-0.46484375 -0.030273438Q-0.46484375 2.0380859 -1.1943359 3.1279297Q-1.9238281 4.2177734 -3.3476562 4.2177734Q-4.7714844 4.2177734 -5.4863281 3.1337891Q-6.2011719 2.0498047 -6.2011719 -0.030273438Q-6.2011719 -2.1572266 -5.5068359 -3.2177734Q-4.8125 -4.2783203 -3.3125 -4.2783203Q-1.8535156 -4.2783203 -1.1591797 -3.2060547Q-0.46484375 -2.1337891 -0.46484375 -0.030273438ZM-1.5371094 -0.030273438Q-1.5371094 -1.8173828 -1.9501953 -2.6201172Q-2.3632812 -3.4228516 -3.3125 -3.4228516Q-4.2851562 -3.4228516 -4.7099609 -2.6318359Q-5.1347656 -1.8408203 -5.1347656 -0.030273438Q-5.1347656 1.7275391 -4.7041016 2.5419922Q-4.2734375 3.3564453 -3.3359375 3.3564453Q-2.4042969 3.3564453 -1.9707031 2.5244141Q-1.5371094 1.6923828 -1.5371094 -0.030273438Z"/>
	</g>
	<clipPath id="cl_3da">
		<rect x="43.75" y="65.199997" width="1156.25" height="690"/>
	</clipPath>
	<g clip-path="url(#cl_3da)">
		<path fill="none" stroke="#C32222" stroke-width="2" stroke-miterlimit="10" d=""/>
	</g>
	<clipPath id="cl_3db">
		<rect x="43.75" y="65.199997" width="1156.25" height="690"/>
	</clipPath>
	<g clip-path="url(#cl_3db)">
		<path fill="#C32222" fill-opacity="0.2" d="M52.75 681.40002Q52.75 681.54742 52.73555 681.69409Q52.721107 681.84076 52.692352 681.98529Q52.663601 682.12988 52.620815 682.27087Q52.578033 682.41187 52.521633 682.54803Q52.465233 682.68427 52.39576 682.81427Q52.326286 682.94421 52.244404 683.06671Q52.162525 683.18927 52.069027 683.30316Q51.975533 683.41711 51.871319 683.5213Q51.767105 683.62555 51.653179 683.71906Q51.539253 683.81256 51.416706 683.89441Q51.294167 683.97632 51.164188 684.04578Q51.03421 684.11523 50.898048 684.17163Q50.76189 684.22803 50.620857 684.27087Q50.47982 684.3136 50.33527 684.34235Q50.19072 684.37115 50.044052 684.38562Q49.897381 684.40002 49.75 684.40002Q49.602619 684.40002 49.455948 684.38562Q49.309277 684.37115 49.164726 684.34235Q49.02018 684.3136 48.879143 684.27087Q48.73811 684.22803 48.601944 684.17163Q48.465782 684.11523 48.335808 684.04578Q48.205826 683.97632 48.083282 683.89435Q47.960747 683.8125 47.846817 683.71899Q47.732895 683.62555 47.628677 683.5213Q47.524467 683.41711 47.430969 683.30322Q47.337471 683.18927 47.255585 683.06671Q47.173706 682.94421 47.104233 682.81421Q47.03476 682.68427 46.978359 682.54803Q46.921963 682.41187 46.879177 682.27087Q46.836395 682.12988 46.80764 681.98529Q46.778893 681.84076 46.76445 681.69409Q46.75 681.54742 46.75 681.40002Q46.75 681.25269 46.76445 681.10596Q46.778896 680.95923 46.807648 680.8147Q46.836403 680.67017 46.879181 680.52917Q46.921963 680.38812 46.978359 680.25195Q47.03476 680.11584 47.104233 679.98584Q47.173706 679.85583 47.255585 679.73328Q47.337471 679.61072 47.430969 679.49683Q47.524467 679.38293 47.628677 679.27869Q47.732895 679.1745 47.846817 679.08099Q47.960747 678.98749 48.083282 678.90558Q48.205826 678.82373 48.335808 678.75427Q48.465782 678.68481 48.601944 678.62836Q48.73811 678.57202 48.879143 678.52917Q49.02018 678.48645 49.164726 678.45764Q49.309277 678.42896 49.455948 678.41449Q49.602619 678.40002 49.75 678.40002Q49.897381 678.40002 50.044052 678.41449Q50.19072 678.42896 50.335266 678.45764Q50.479816 678.48645 50.620853 678.52917Q50.761887 678.57202 50.898045 678.62836Q51.03421 678.68481 51.164188 678.75427Q51.294167 678.82373 51.416706 678.90558Q51.539253 678.98749 51.653179 679.08099Q51.767105 679.1745 51.871315 679.27869Q51.975533 679.38293 52.069023 679.49683Q52.162521 679.61072 52.2444 679.73328Q52.326279 679.85583 52.395756 679.98584Q52.465233 680.11584 52.521633 680.25195Q52.578033 680.38812 52.620815 680.52911Q52.663597 680.67017 52.692348 680.8147Q52.721107 680.95923 52.73555 681.10596Q52.75 681.25269 52.75 681.40002Z"/>
		<path fill="none" stroke="#C32222" stroke-width="2" stroke-miterlimit="10" d="M52.75 681.40002Q52.75 681.54742 52.73555 681.69409Q52.721107 681.84076 52.692352 681.98529Q52.663601 682.12988 52.620815 682.27087Q52.578033 682.41187 52.521633 682.54803Q52.465233 682.68427 52.39576 682.81427Q52.326286 682.94421 52.244404 683.06671Q52.162525 683.18927 52.069027 683.30316Q51.975533 683.41711 51.871319 683.5213Q51.767105 683.62555 51.653179 683.71906Q51.539253 683.81256 51.416706 683.89441Q51.294167 683.97632 51.164188 684.04578Q51.03421 684.11523 50.898048 684.17163Q50.76189 684.22803 50.620857 684.27087Q50.47982 684.3136 50.33527 684.34235Q50.19072 684.37115 50.044052 684.38562Q49.897381 684.40002 49.75 684.40002Q49.602619 684.40002 49.455948 684.38562Q49.309277 684.37115 49.164726 684.34235Q49.02018 684.3136 48.879143 684.27087Q48.73811 684.22803 48.601944 684.17163Q48.465782 684.11523 48.335808 684.04578Q48.205826 683.97632 48.083282 683.89435Q47.960747 683.8125 47.846817 683.71899Q47.732895 683.62555 47.628677 683.5213Q47.524467 683.41711 47.430969 683.30322Q47.337471 683.18927 47.255585 683.06671Q47.173706 682.94421 47.104233 682.81421Q47.03476 682.68427 46.978359 682.54803Q46.921963 682.41187 46.879177 682.27087Q46.836395 682.12988 46.80764 681.98529Q46.778893 681.84076 46.76445 681.69409Q46.75 681.54742 46.75 681.40002Q46.75 681.25269 46.76445 681.10596Q46.778896 680.95923 46.807648 680.8147Q46.836403 680.67017 46.879181 680.52917Q46.921963 680.38812 46.978359 680.25195Q47.03476 680.11584 47.104233 679.98584Q47.173706 679.85583 47.255585 679.73328Q47.337471 679.61072 47.430969 679.49683Q47.524467 679.38293 47.628677 679.27869Q47.732895 679.1745 47.846817 679.08099Q47.960747 678.98749 48.083282 678.90558Q48.205826 678.82373 48.335808 678.75427Q48.465782 678.68481 48.601944 678.62836Q48.73811 678.57202 48.879143 678.52917Q49.02018 678.48645 49.164726 678.45764Q49.309277 678.42896 49.455948 678.41449Q49.602619 678.40002 49.75 678.40002Q49.897381 678.40002 50.044052 678.41449Q50.19072 678.42896 50.335266 678.45764Q50.479816 678.48645 50.620853 678.52917Q50.761887 678.57202 50.898045 678.62836Q51.03421 678.68481 51.164188 678.75427Q51.294167 678.82373 51.416706 678.90558Q51.539253 678.98749 51.653179 679.08099Q51.767105 679.1745 51.871315 679.27869Q51.975533 679.38293 52.069023 679.49683Q52.162521 679.61072 52.2444 679.73328Q52.326279 679.85583 52.395756 679.98584Q52.465233 680.11584 52.521633 680.25195Q52.578033 680.38812 52.620815 680.52911Q52.663597 680.67017 52.692348 680.8147Q52.721107 680.95923 52.73555 681.10596Q52.75 681.25269 52.75 681.40002Z"/>
	</g>
</svg>
