<?xml version="1.0" encoding="utf-8" ?>
<svg xmlns="http://www.w3.org/2000/svg" xmlns:xlink="http://www.w3.org/1999/xlink" width="1200" height="800">
	<rect fill="white" width="1200" height="800"/>
	<path fill="none" stroke="black" stroke-width="1" stroke-miterlimit="10" stroke-opacity="0.10196079" d="M49.5 71.199997L49.5 749"/>
	<path fill="none" stroke="black" stroke-width="1" stroke-miterlimit="10" stroke-opacity="0.10196079" d="M49.5 750L49.5 757.20001"/>
	<path fill="#666" transform="translate(621.875 788.8)" d="M-26.550781 4.1005859L-28.695312 0.67285156L-31.267578 0.67285156L-31.267578 4.1005859L-32.386719 4.1005859L-32.386719 -4.1552734L-28.501953 -4.1552734Q-27.107422 -4.1552734 -26.348633 -3.53125Q-25.589844 -2.9072266 -25.589844 -1.7939453Q-25.589844 -0.87402344 -26.125977 -0.24707031Q-26.662109 0.37988281 -27.605469 0.54394531L-25.261719 4.1005859L-26.550781 4.1005859ZM-26.714844 -1.7822266Q-26.714844 -2.5029297 -27.204102 -2.8808594Q-27.693359 -3.2587891 -28.613281 -3.2587891L-31.267578 -3.2587891L-31.267578 -0.21191406L-28.566406 -0.21191406Q-27.681641 -0.21191406 -27.198242 -0.625Q-26.714844 -1.0380859 -26.714844 -1.7822266ZM-23.087891 1.1533203Q-23.087891 2.2431641 -22.636719 2.8349609Q-22.185547 3.4267578 -21.318359 3.4267578Q-20.632812 3.4267578 -20.219727 3.1513672Q-19.806641 2.8759766 -19.660156 2.4541016L-18.734375 2.7177734Q-19.302734 4.2177734 -21.318359 4.2177734Q-22.724609 4.2177734 -23.459961 3.3798828Q-24.195312 2.5419922 -24.195312 0.88964844Q-24.195312 -0.68066406 -23.459961 -1.5185547Q-22.724609 -2.3564453 -21.359375 -2.3564453Q-18.564453 -2.3564453 -18.564453 1.0126953L-18.564453 1.1533203L-23.087891 1.1533203ZM-19.654297 0.34472656Q-19.742188 -0.65722656 -20.164062 -1.1171875Q-20.585938 -1.5771484 -21.376953 -1.5771484Q-22.144531 -1.5771484 -22.592773 -1.0644531Q-23.041016 -0.55175781 -23.076172 0.34472656L-19.654297 0.34472656ZM-17.222656 4.1005859L-17.222656 -4.5947266L-16.167969 -4.5947266L-16.167969 4.1005859L-17.222656 4.1005859ZM-13.748047 1.1533203Q-13.748047 2.2431641 -13.296875 2.8349609Q-12.845703 3.4267578 -11.978516 3.4267578Q-11.292969 3.4267578 -10.879883 3.1513672Q-10.466797 2.8759766 -10.320312 2.4541016L-9.3945312 2.7177734Q-9.9628906 4.2177734 -11.978516 4.2177734Q-13.384766 4.2177734 -14.120117 3.3798828Q-14.855469 2.5419922 -14.855469 0.88964844Q-14.855469 -0.68066406 -14.120117 -1.5185547Q-13.384766 -2.3564453 -12.019531 -2.3564453Q-9.2246094 -2.3564453 -9.2246094 1.0126953L-9.2246094 1.1533203L-13.748047 1.1533203ZM-10.314453 0.34472656Q-10.402344 -0.65722656 -10.824219 -1.1171875Q-11.246094 -1.5771484 -12.037109 -1.5771484Q-12.804688 -1.5771484 -13.25293 -1.0644531Q-13.701172 -0.55175781 -13.736328 0.34472656L-10.314453 0.34472656ZM-6.265625 4.2177734Q-7.2207031 4.2177734 -7.7011719 3.7138672Q-8.1816406 3.2099609 -8.1816406 2.3310547Q-8.1816406 1.3466797 -7.5341797 0.81933594Q-6.8867188 0.29199219 -5.4453125 0.25683594L-4.0214844 0.23339844L-4.0214844 -0.11230469Q-4.0214844 -0.88574219 -4.3496094 -1.2197266Q-4.6777344 -1.5537109 -5.3808594 -1.5537109Q-6.0898438 -1.5537109 -6.4121094 -1.3134766Q-6.734375 -1.0732422 -6.7988281 -0.54589844L-7.9003906 -0.64550781Q-7.6308594 -2.3564453 -5.3574219 -2.3564453Q-4.1621094 -2.3564453 -3.5585938 -1.8085938Q-2.9550781 -1.2607422 -2.9550781 -0.22363281L-2.9550781 2.5068359Q-2.9550781 2.9755859 -2.8320312 3.2128906Q-2.7089844 3.4501953 -2.3632812 3.4501953Q-2.2109375 3.4501953 -2.0175781 3.4091797L-2.0175781 4.0654297Q-2.4160156 4.1591797 -2.8320312 4.1591797Q-3.4179688 4.1591797 -3.6845703 3.8515625Q-3.9511719 3.5439453 -3.9863281 2.8876953L-4.0214844 2.8876953Q-4.4257812 3.6142578 -4.9619141 3.9160156Q-5.4980469 4.2177734 -6.265625 4.2177734ZM-6.0253906 3.4267578Q-5.4453125 3.4267578 -4.9941406 3.1630859Q-4.5429688 2.8994141 -4.2822266 2.4394531Q-4.0214844 1.9794922 -4.0214844 1.4931641L-4.0214844 0.97167969L-5.1757812 0.99511719Q-5.9199219 1.0068359 -6.3037109 1.1474609Q-6.6875 1.2880859 -6.8925781 1.5810547Q-7.0976562 1.8740234 -7.0976562 2.3486328Q-7.0976562 2.8642578 -6.8193359 3.1455078Q-6.5410156 3.4267578 -6.0253906 3.4267578ZM3.5488281 2.3486328Q3.5488281 3.2451172 2.8720703 3.7314453Q2.1953125 4.2177734 0.9765625 4.2177734Q-0.20703125 4.2177734 -0.84863281 3.828125Q-1.4902344 3.4384766 -1.6835938 2.6123047L-0.75195312 2.4306641Q-0.6171875 2.9404297 -0.1953125 3.1777344Q0.2265625 3.4150391 0.9765625 3.4150391Q1.7792969 3.4150391 2.1513672 3.1689453Q2.5234375 2.9228516 2.5234375 2.4306641Q2.5234375 2.0556641 2.265625 1.8212891Q2.0078125 1.5869141 1.4335938 1.4345703L0.67773438 1.2353516Q-0.23046875 1.0009766 -0.61425781 0.77539062Q-0.99804688 0.54980469 -1.2148438 0.22753906Q-1.4316406 -0.094726562 -1.4316406 -0.56347656Q-1.4316406 -1.4306641 -0.81347656 -1.8847656Q-0.1953125 -2.3388672 0.98828125 -2.3388672Q2.0371094 -2.3388672 2.6552734 -1.9697266Q3.2734375 -1.6005859 3.4375 -0.78613281L2.4882812 -0.66894531Q2.4003906 -1.0908203 2.0166016 -1.3164062Q1.6328125 -1.5419922 0.98828125 -1.5419922Q0.2734375 -1.5419922 -0.06640625 -1.3251953Q-0.40625 -1.1083984 -0.40625 -0.66894531Q-0.40625 -0.39941406 -0.265625 -0.22363281Q-0.125 -0.047851562 0.15039062 0.075195312Q0.42578125 0.19824219 1.3105469 0.41503906Q2.1484375 0.62597656 2.5175781 0.8046875Q2.8867188 0.98339844 3.1005859 1.2001953Q3.3144531 1.4169922 3.4316406 1.7011719Q3.5488281 1.9853516 3.5488281 2.3486328ZM5.5996094 1.1533203Q5.5996094 2.2431641 6.0507812 2.8349609Q6.5019531 3.4267578 7.3691406 3.4267578Q8.0546875 3.4267578 8.4677734 3.1513672Q8.8808594 2.8759766 9.0273438 2.4541016L9.953125 2.7177734Q9.3847656 4.2177734 7.3691406 4.2177734Q5.9628906 4.2177734 5.2275391 3.3798828Q4.4921875 2.5419922 4.4921875 0.88964844Q4.4921875 -0.68066406 5.2275391 -1.5185547Q5.9628906 -2.3564453 7.328125 -2.3564453Q10.123047 -2.3564453 10.123047 1.0126953L10.123047 1.1533203L5.5996094 1.1533203ZM9.0332031 0.34472656Q8.9453125 -0.65722656 8.5234375 -1.1171875Q8.1015625 -1.5771484 7.3105469 -1.5771484Q6.5429688 -1.5771484 6.0947266 -1.0644531Q5.6464844 -0.55175781 5.6113281 0.34472656L9.0332031 0.34472656ZM17.992188 -3.2412109L17.992188 4.1005859L16.878906 4.1005859L16.878906 -3.2412109L14.042969 -3.2412109L14.042969 -4.1552734L20.828125 -4.1552734L20.828125 -3.2412109L17.992188 -3.2412109ZM22.199219 4.2177734Q21.244141 4.2177734 20.763672 3.7138672Q20.283203 3.2099609 20.283203 2.3310547Q20.283203 1.3466797 20.930664 0.81933594Q21.578125 0.29199219 23.019531 0.25683594L24.443359 0.23339844L24.443359 -0.11230469Q24.443359 -0.88574219 24.115234 -1.2197266Q23.787109 -1.5537109 23.083984 -1.5537109Q22.375 -1.5537109 22.052734 -1.3134766Q21.730469 -1.0732422 21.666016 -0.54589844L20.564453 -0.64550781Q20.833984 -2.3564453 23.107422 -2.3564453Q24.302734 -2.3564453 24.90625 -1.8085938Q25.509766 -1.2607422 25.509766 -0.22363281L25.509766 2.5068359Q25.509766 2.9755859 25.632812 3.2128906Q25.755859 3.4501953 26.101562 3.4501953Q26.253906 3.4501953 26.447266 3.4091797L26.447266 4.0654297Q26.048828 4.1591797 25.632812 4.1591797Q25.046875 4.1591797 24.780273 3.8515625Q24.513672 3.5439453 24.478516 2.8876953L24.443359 2.8876953Q24.039062 3.6142578 23.50293 3.9160156Q22.966797 4.2177734 22.199219 4.2177734ZM22.439453 3.4267578Q23.019531 3.4267578 23.470703 3.1630859Q23.921875 2.8994141 24.182617 2.4394531Q24.443359 1.9794922 24.443359 1.4931641L24.443359 0.97167969L23.289062 0.99511719Q22.544922 1.0068359 22.161133 1.1474609Q21.777344 1.2880859 21.572266 1.5810547Q21.367188 1.8740234 21.367188 2.3486328Q21.367188 2.8642578 21.645508 3.1455078Q21.923828 3.4267578 22.439453 3.4267578ZM29.658203 6.5908203Q28.621094 6.5908203 28.005859 6.1835938Q27.390625 5.7763672 27.214844 5.0263672L28.275391 4.8740234Q28.380859 5.3134766 28.741211 5.5507812Q29.101562 5.7880859 29.6875 5.7880859Q31.263672 5.7880859 31.263672 3.9423828L31.263672 2.9228516L31.251953 2.9228516Q30.953125 3.5322266 30.431641 3.8398438Q29.910156 4.1474609 29.212891 4.1474609Q28.046875 4.1474609 27.499023 3.3740234Q26.951172 2.6005859 26.951172 0.94238281Q26.951172 -0.73925781 27.540039 -1.5390625Q28.128906 -2.3388672 29.330078 -2.3388672Q30.003906 -2.3388672 30.499023 -2.03125Q30.994141 -1.7236328 31.263672 -1.1552734L31.275391 -1.1552734Q31.275391 -1.3310547 31.298828 -1.7646484Q31.322266 -2.1982422 31.345703 -2.2392578L32.347656 -2.2392578Q32.3125 -1.9228516 32.3125 -0.92675781L32.3125 3.9189453Q32.3125 6.5908203 29.658203 6.5908203ZM31.263672 0.93066406Q31.263672 0.15722656 31.052734 -0.40234375Q30.841797 -0.96191406 30.458008 -1.2578125Q30.074219 -1.5537109 29.587891 -1.5537109Q28.779297 -1.5537109 28.410156 -0.96777344Q28.041016 -0.38183594 28.041016 0.93066406Q28.041016 2.2314453 28.386719 2.7998047Q28.732422 3.3681641 29.570312 3.3681641Q30.068359 3.3681641 30.455078 3.0751953Q30.841797 2.7822266 31.052734 2.234375Q31.263672 1.6865234 31.263672 0.93066406Z"/>
	<path fill="none" stroke="black" stroke-width="1" stroke-miterlimit="10" stroke-opacity="0.10196079" d="M50 749.5L1194 749.5"/>
	<path fill="none" stroke="black" stroke-width="1" stroke-miterlimit="10" stroke-opacity="0.10196079" d="M41.75 749.5L49 749.5"/>
	<path fill="none" stroke="black" stroke-width="1" stroke-miterlimit="10" stroke-opacity="0.10196079" d="M50 681.5L1194 681.5"/>
	<path fill="none" stroke="black" stroke-width="1" stroke-miterlimit="10" stroke-opacity="0.10196079" d="M41.75 681.5L49 681.5"/>
	<path fill="none" stroke="black" stroke-width="1" stroke-miterlimit="10" stroke-opacity="0.10196079" d="M50 613.5L1194 613.5"/>
	<path fill="none" stroke="black" stroke-width="1" stroke-miterlimit="10" stroke-opacity="0.10196079" d="M41.75 613.5L49 613.5"/>
	<path fill="none" stroke="black" stroke-width="1" stroke-miterlimit="10" stroke-opacity="0.10196079" d="M50 545.5L1194 545.5"/>
	<path fill="none" stroke="black" stroke-width="1" stroke-miterlimit="10" stroke-opacity="0.10196079" d="M41.75 545.5L49 545.5"/>
	<path fill="none" stroke="black" stroke-width="1" stroke-miterlimit="10" stroke-opacity="0.10196079" d="M50 478.5L1194 478.5"/>
	<path fill="none" stroke="black" stroke-width="1" stroke-miterlimit="10" stroke-opacity="0.10196079" d="M41.75 478.5L49 478.5"/>
	<path fill="none" stroke="black" stroke-width="1" stroke-miterlimit="10" stroke-opacity="0.10196079" d="M50 410.5L1194 410.5"/>
	<path fill="none" stroke="black" stroke-width="1" stroke-miterlimit="10" stroke-opacity="0.10196079" d="M41.75 410.5L49 410.5"/>
	<path fill="none" stroke="black" stroke-width="1" stroke-miterlimit="10" stroke-opacity="0.10196079" d="M50 342.5L1194 342.5"/>
	<path fill="none" stroke="black" stroke-width="1" stroke-miterlimit="10" stroke-opacity="0.10196079" d="M41.75 342.5L49 342.5"/>
	<path fill="none" stroke="black" stroke-width="1" stroke-miterlimit="10" stroke-opacity="0.10196079" d="M50 274.5L1194 274.5"/>
	<path fill="none" stroke="black" stroke-width="1" stroke-miterlimit="10" stroke-opacity="0.10196079" d="M41.75 274.5L49 274.5"/>
	<path fill="none" stroke="black" stroke-width="1" stroke-miterlimit="10" stroke-opacity="0.10196079" d="M50 206.5L1194 206.5"/>
	<path fill="none" stroke="black" stroke-width="1" stroke-miterlimit="10" stroke-opacity="0.10196079" d="M41.75 206.5L49 206.5"/>
	<path fill="none" stroke="black" stroke-width="1" stroke-miterlimit="10" stroke-opacity="0.10196079" d="M50 139.5L1194 139.5"/>
	<path fill="none" stroke="black" stroke-width="1" stroke-miterlimit="10" stroke-opacity="0.10196079" d="M41.75 139.5L49 139.5"/>
	<path fill="none" stroke="black" stroke-width="1" stroke-miterlimit="10" stroke-opacity="0.10196079" d="M50 71.5L1194 71.5"/>
	<path fill="none" stroke="black" stroke-width="1" stroke-miterlimit="10" stroke-opacity="0.10196079" d="M41.75 71.5L49 71.5"/>
	<path fill="#666" transform="matrix(0 -1 1 0 11.2 410.2)" d="M-21.591797 -0.11230469Q-21.591797 1.1650391 -22.089844 2.1230469Q-22.587891 3.0810547 -23.501953 3.5908203Q-24.416016 4.1005859 -25.611328 4.1005859L-28.699219 4.1005859L-28.699219 -4.1552734L-25.96875 -4.1552734Q-23.871094 -4.1552734 -22.731445 -3.1035156Q-21.591797 -2.0517578 -21.591797 -0.11230469ZM-22.716797 -0.11230469Q-22.716797 -1.6474609 -23.557617 -2.453125Q-24.398438 -3.2587891 -25.992188 -3.2587891L-27.580078 -3.2587891L-27.580078 3.2041016L-25.740234 3.2041016Q-24.832031 3.2041016 -24.143555 2.8056641Q-23.455078 2.4072266 -23.085938 1.6572266Q-22.716797 0.90722656 -22.716797 -0.11230469ZM-14.847656 0.92480469Q-14.847656 2.5888672 -15.580078 3.4033203Q-16.3125 4.2177734 -17.707031 4.2177734Q-19.095703 4.2177734 -19.804688 3.3710938Q-20.513672 2.5244141 -20.513672 0.92480469Q-20.513672 -2.3564453 -17.671875 -2.3564453Q-16.21875 -2.3564453 -15.533203 -1.5566406Q-14.847656 -0.75683594 -14.847656 0.92480469ZM-15.955078 0.92480469Q-15.955078 -0.38769531 -16.344727 -0.98242188Q-16.734375 -1.5771484 -17.654297 -1.5771484Q-18.580078 -1.5771484 -18.993164 -0.97070312Q-19.40625 -0.36425781 -19.40625 0.92480469Q-19.40625 2.1787109 -18.999023 2.8085938Q-18.591797 3.4384766 -17.71875 3.4384766Q-16.769531 3.4384766 -16.362305 2.8291016Q-15.955078 2.2197266 -15.955078 0.92480469ZM-7.4648438 4.1005859L-8.6894531 4.1005859L-9.796875 -0.38183594L-10.007812 -1.3720703Q-10.060547 -1.1083984 -10.171875 -0.61328125Q-10.283203 -0.11816406 -11.367188 4.1005859L-12.585938 4.1005859L-14.361328 -2.2392578L-13.318359 -2.2392578L-12.246094 2.0673828Q-12.205078 2.2080078 -11.994141 3.2275391L-11.894531 2.7939453L-10.570312 -2.2392578L-9.4394531 -2.2392578L-8.3320312 2.1142578L-8.0625 3.2275391L-7.8808594 2.4130859L-6.6796875 -2.2392578L-5.6484375 -2.2392578L-7.4648438 4.1005859ZM-0.84375 4.1005859L-0.84375 0.081054688Q-0.84375 -0.54589844 -0.96679688 -0.89160156Q-1.0898438 -1.2373047 -1.359375 -1.3896484Q-1.6289062 -1.5419922 -2.1503906 -1.5419922Q-2.9121094 -1.5419922 -3.3515625 -1.0205078Q-3.7910156 -0.49902344 -3.7910156 0.42675781L-3.7910156 4.1005859L-4.8457031 4.1005859L-4.8457031 -0.88574219Q-4.8457031 -1.9931641 -4.8808594 -2.2392578L-3.8847656 -2.2392578Q-3.8789062 -2.2099609 -3.8730469 -2.0810547Q-3.8671875 -1.9521484 -3.8583984 -1.7851562Q-3.8496094 -1.6181641 -3.8378906 -1.1552734L-3.8203125 -1.1552734Q-3.4570312 -1.8115234 -2.9794922 -2.0839844Q-2.5019531 -2.3564453 -1.7929688 -2.3564453Q-0.75 -2.3564453 -0.26660156 -1.8378906Q0.21679688 -1.3193359 0.21679688 -0.12402344L0.21679688 4.1005859L-0.84375 4.1005859ZM1.8046875 4.1005859L1.8046875 -4.5947266L2.859375 -4.5947266L2.859375 4.1005859L1.8046875 4.1005859ZM9.8320312 0.92480469Q9.8320312 2.5888672 9.0996094 3.4033203Q8.3671875 4.2177734 6.9726562 4.2177734Q5.5839844 4.2177734 4.875 3.3710938Q4.1660156 2.5244141 4.1660156 0.92480469Q4.1660156 -2.3564453 7.0078125 -2.3564453Q8.4609375 -2.3564453 9.1464844 -1.5566406Q9.8320312 -0.75683594 9.8320312 0.92480469ZM8.7246094 0.92480469Q8.7246094 -0.38769531 8.3349609 -0.98242188Q7.9453125 -1.5771484 7.0253906 -1.5771484Q6.0996094 -1.5771484 5.6865234 -0.97070312Q5.2734375 -0.36425781 5.2734375 0.92480469Q5.2734375 2.1787109 5.6806641 2.8085938Q6.0878906 3.4384766 6.9609375 3.4384766Q7.9101562 3.4384766 8.3173828 2.8291016Q8.7246094 2.2197266 8.7246094 0.92480469ZM12.761719 4.2177734Q11.806641 4.2177734 11.326172 3.7138672Q10.845703 3.2099609 10.845703 2.3310547Q10.845703 1.3466797 11.493164 0.81933594Q12.140625 0.29199219 13.582031 0.25683594L15.005859 0.23339844L15.005859 -0.11230469Q15.005859 -0.88574219 14.677734 -1.2197266Q14.349609 -1.5537109 13.646484 -1.5537109Q12.9375 -1.5537109 12.615234 -1.3134766Q12.292969 -1.0732422 12.228516 -0.54589844L11.126953 -0.64550781Q11.396484 -2.3564453 13.669922 -2.3564453Q14.865234 -2.3564453 15.46875 -1.8085938Q16.072266 -1.2607422 16.072266 -0.22363281L16.072266 2.5068359Q16.072266 2.9755859 16.195312 3.2128906Q16.318359 3.4501953 16.664062 3.4501953Q16.816406 3.4501953 17.009766 3.4091797L17.009766 4.0654297Q16.611328 4.1591797 16.195312 4.1591797Q15.609375 4.1591797 15.342773 3.8515625Q15.076172 3.5439453 15.041016 2.8876953L15.005859 2.8876953Q14.601562 3.6142578 14.06543 3.9160156Q13.529297 4.2177734 12.761719 4.2177734ZM13.001953 3.4267578Q13.582031 3.4267578 14.033203 3.1630859Q14.484375 2.8994141 14.745117 2.4394531Q15.005859 1.9794922 15.005859 1.4931641L15.005859 0.97167969L13.851562 0.99511719Q13.107422 1.0068359 12.723633 1.1474609Q12.339844 1.2880859 12.134766 1.5810547Q11.929688 1.8740234 11.929688 2.3486328Q11.929688 2.8642578 12.208008 3.1455078Q12.486328 3.4267578 13.001953 3.4267578ZM21.820312 3.0810547Q21.527344 3.6904297 21.043945 3.9541016Q20.560547 4.2177734 19.845703 4.2177734Q18.644531 4.2177734 18.079102 3.4091797Q17.513672 2.6005859 17.513672 0.95996094Q17.513672 -2.3564453 19.845703 -2.3564453Q20.566406 -2.3564453 21.046875 -2.0927734Q21.527344 -1.8291016 21.820312 -1.2548828L21.832031 -1.2548828L21.820312 -1.9638672L21.820312 -4.5947266L22.875 -4.5947266L22.875 2.7939453Q22.875 3.7841797 22.910156 4.1005859L21.902344 4.1005859Q21.884766 4.0068359 21.864258 3.6669922Q21.84375 3.3271484 21.84375 3.0810547L21.820312 3.0810547ZM18.621094 0.92480469Q18.621094 2.2548828 18.972656 2.8291016Q19.324219 3.4033203 20.115234 3.4033203Q21.011719 3.4033203 21.416016 2.7822266Q21.820312 2.1611328 21.820312 0.85449219Q21.820312 -0.40527344 21.416016 -0.99121094Q21.011719 -1.5771484 20.126953 -1.5771484Q19.330078 -1.5771484 18.975586 -0.98828125Q18.621094 -0.39941406 18.621094 0.92480469ZM29.25 2.3486328Q29.25 3.2451172 28.573242 3.7314453Q27.896484 4.2177734 26.677734 4.2177734Q25.494141 4.2177734 24.852539 3.828125Q24.210938 3.4384766 24.017578 2.6123047L24.949219 2.4306641Q25.083984 2.9404297 25.505859 3.1777344Q25.927734 3.4150391 26.677734 3.4150391Q27.480469 3.4150391 27.852539 3.1689453Q28.224609 2.9228516 28.224609 2.4306641Q28.224609 2.0556641 27.966797 1.8212891Q27.708984 1.5869141 27.134766 1.4345703L26.378906 1.2353516Q25.470703 1.0009766 25.086914 0.77539062Q24.703125 0.54980469 24.486328 0.22753906Q24.269531 -0.094726562 24.269531 -0.56347656Q24.269531 -1.4306641 24.887695 -1.8847656Q25.505859 -2.3388672 26.689453 -2.3388672Q27.738281 -2.3388672 28.356445 -1.9697266Q28.974609 -1.6005859 29.138672 -0.78613281L28.189453 -0.66894531Q28.101562 -1.0908203 27.717773 -1.3164062Q27.333984 -1.5419922 26.689453 -1.5419922Q25.974609 -1.5419922 25.634766 -1.3251953Q25.294922 -1.1083984 25.294922 -0.66894531Q25.294922 -0.39941406 25.435547 -0.22363281Q25.576172 -0.047851562 25.851562 0.075195312Q26.126953 0.19824219 27.011719 0.41503906Q27.849609 0.62597656 28.21875 0.8046875Q28.587891 0.98339844 28.801758 1.2001953Q29.015625 1.4169922 29.132812 1.7011719Q29.25 1.9853516 29.25 2.3486328Z"/>
	<clipPath id="cl_e4">
		<rect y="39.200001" width="1200" height="31.999996"/>
	</clipPath>
	<g clip-path="url(#cl_e4)">
		<path fill="#C32222" fill-opacity="0.2" d="M569.33002 49.200001L609.33002 49.200001L609.33002 61.200001L569.33002 61.200001L569.33002 49.200001Z"/>
		<path fill="none" stroke="#C32222" stroke-width="2" stroke-miterlimit="10" d="M569.33002 49.200001L609.33002 49.200001L609.33002 61.200001L569.33002 61.200001L569.33002 49.200001Z"/>
	</g>
	<clipPath id="cl_e5">
		<rect y="39.200001" width="1200" height="31.999996"/>
	</clipPath>
	<g clip-path="url(#cl_e5)">
		<path fill="#666" d="M615.81635 59.300587L615.81635 58.497852L619.36127 53.775196L616.01556 53.775196L616.01556 52.960743L620.60931 52.960743L620.60931 53.763477L617.05853 58.486134L620.73236 58.486134L620.73236 59.300587L615.81635 59.300587ZM622.13275 51.613087L622.13275 50.605274L623.18744 50.605274L623.18744 51.613087L622.13275 51.613087ZM622.13275 59.300587L622.13275 52.960743L623.18744 52.960743L623.18744 59.300587L622.13275 59.300587ZM630.16595 56.101368Q630.16595 59.417774 627.83392 59.417774Q626.36908 59.417774 625.86517 58.316212L625.83588 58.316212Q625.85931 58.363087 625.85931 59.312305L625.85931 61.790821L624.80463 61.790821L624.80463 54.255665Q624.80463 53.277149 624.76947 52.960743L625.789 52.960743Q625.79486 52.98418 625.80658 53.127735Q625.8183 53.27129 625.83295 53.570118Q625.8476 53.868946 625.8476 53.980274L625.87103 53.980274Q626.15228 53.394337 626.61517 53.121876Q627.07806 52.849415 627.83392 52.849415Q629.0058 52.849415 629.58588 53.634571Q630.16595 54.419727 630.16595 56.101368ZM629.05853 56.124805Q629.05853 54.800587 628.70111 54.232227Q628.34369 53.663868 627.56439 53.663868Q626.93744 53.663868 626.58295 53.92754Q626.22845 54.191212 626.04388 54.750782Q625.85931 55.310352 625.85931 56.206837Q625.85931 57.454884 626.25775 58.04668Q626.65619 58.638477 627.55267 58.638477Q628.33783 58.638477 628.69818 58.061329Q629.05853 57.48418 629.05853 56.124805Z"/>
	</g>
	<path fill="#666" transform="translate(600 19.6)" d="M-279.61328 3.3320312Q-279.61328 4.5585938 -280.61719 5.2578125Q-281.62109 5.9570312 -283.39453 5.9570312Q-285.13672 5.9570312 -286.0625 5.40625Q-286.98828 4.8554688 -287.29297 3.6914062L-285.36328 3.4023438Q-285.19922 4.0039062 -284.79688 4.2539062Q-284.39453 4.5039062 -283.39453 4.5039062Q-282.47266 4.5039062 -282.05078 4.2695312Q-281.62891 4.0351562 -281.62891 3.5351562Q-281.62891 3.1289062 -281.96875 2.890625Q-282.30859 2.6523438 -283.12109 2.4882812Q-284.98047 2.1210938 -285.62891 1.8046875Q-286.27734 1.4882812 -286.61719 0.984375Q-286.95703 0.48046875 -286.95703 -0.25390625Q-286.95703 -1.4648438 -286.02344 -2.140625Q-285.08984 -2.8164062 -283.37891 -2.8164062Q-281.87109 -2.8164062 -280.95312 -2.2304688Q-280.03516 -1.6445312 -279.80859 -0.53515625L-281.75391 -0.33203125Q-281.84766 -0.84765625 -282.21484 -1.1015625Q-282.58203 -1.3554688 -283.37891 -1.3554688Q-284.16016 -1.3554688 -284.55078 -1.15625Q-284.94141 -0.95703125 -284.94141 -0.48828125Q-284.94141 -0.12109375 -284.64062 0.09375Q-284.33984 0.30859375 -283.62891 0.44921875Q-282.63672 0.65234375 -281.86719 0.8671875Q-281.09766 1.0820312 -280.63281 1.3789062Q-280.16797 1.6757812 -279.89062 2.140625Q-279.61328 2.6054688 -279.61328 3.3320312ZM-275.88672 5.9570312Q-277.11328 5.9570312 -277.80078 5.2890625Q-278.48828 4.6210938 -278.48828 3.4101562Q-278.48828 2.0976562 -277.63281 1.4101562Q-276.77734 0.72265625 -275.15234 0.70703125L-273.33203 0.67578125L-273.33203 0.24609375Q-273.33203 -0.58203125 -273.62109 -0.984375Q-273.91016 -1.3867188 -274.56641 -1.3867188Q-275.17578 -1.3867188 -275.46094 -1.109375Q-275.74609 -0.83203125 -275.81641 -0.19140625L-278.10547 -0.30078125Q-277.89453 -1.5351562 -276.97656 -2.171875Q-276.05859 -2.8085938 -274.47266 -2.8085938Q-272.87109 -2.8085938 -272.00391 -2.0195312Q-271.13672 -1.2304688 -271.13672 0.22265625L-271.13672 3.3007812Q-271.13672 4.0117188 -270.97656 4.28125Q-270.81641 4.5507812 -270.44141 4.5507812Q-270.19141 4.5507812 -269.95703 4.5039062L-269.95703 5.6914062Q-270.15234 5.7382812 -270.30859 5.7773438Q-270.46484 5.8164062 -270.62109 5.8398438Q-270.77734 5.8632812 -270.95312 5.8789062Q-271.12891 5.8945312 -271.36328 5.8945312Q-272.19141 5.8945312 -272.58594 5.4882812Q-272.98047 5.0820312 -273.05859 4.2929688L-273.10547 4.2929688Q-274.02734 5.9570312 -275.88672 5.9570312ZM-273.33203 1.8867188L-274.45703 1.9023438Q-275.22266 1.9335938 -275.54297 2.0703125Q-275.86328 2.2070312 -276.03125 2.4882812Q-276.19922 2.7695312 -276.19922 3.2382812Q-276.19922 3.8398438 -275.92188 4.1328125Q-275.64453 4.4257812 -275.18359 4.4257812Q-274.66797 4.4257812 -274.24219 4.1445312Q-273.81641 3.8632812 -273.57422 3.3671875Q-273.33203 2.8710938 -273.33203 2.3164062L-273.33203 1.8867188ZM-268.94141 -4.1757812L-268.94141 -5.7929688L-266.74609 -5.7929688L-266.74609 -4.1757812L-268.94141 -4.1757812ZM-268.94141 5.8007812L-268.94141 -2.6523438L-266.74609 -2.6523438L-266.74609 5.8007812L-268.94141 5.8007812ZM-264.49609 5.8007812L-264.49609 -5.7929688L-262.30078 -5.7929688L-262.30078 5.8007812L-264.49609 5.8007812ZM-252.05078 1.5351562Q-252.05078 3.6523438 -252.89844 4.8046875Q-253.74609 5.9570312 -255.29297 5.9570312Q-256.18359 5.9570312 -256.84375 5.5703125Q-257.50391 5.1835938 -257.85547 4.4570312L-257.90234 4.4570312Q-257.85547 4.6914062 -257.85547 5.8789062L-257.85547 9.1210938L-260.05078 9.1210938L-260.05078 -0.70703125Q-260.05078 -1.9023438 -260.11328 -2.6523438L-257.98047 -2.6523438Q-257.94141 -2.5117188 -257.91406 -2.0976562Q-257.88672 -1.6835938 -257.88672 -1.2773438L-257.85547 -1.2773438Q-257.11328 -2.8320312 -255.15234 -2.8320312Q-253.67578 -2.8320312 -252.86328 -1.6953125Q-252.05078 -0.55859375 -252.05078 1.5351562ZM-254.33984 1.5351562Q-254.33984 -1.3085938 -256.08203 -1.3085938Q-256.95703 -1.3085938 -257.42188 -0.54296875Q-257.88672 0.22265625 -257.88672 1.5976562Q-257.88672 2.9648438 -257.42188 3.7109375Q-256.95703 4.4570312 -256.09766 4.4570312Q-254.33984 4.4570312 -254.33984 1.5351562ZM-242.24609 1.5664062Q-242.24609 3.6210938 -243.38672 4.7890625Q-244.52734 5.9570312 -246.54297 5.9570312Q-248.51953 5.9570312 -249.64453 4.7851562Q-250.76953 3.6132812 -250.76953 1.5664062Q-250.76953 -0.47265625 -249.64453 -1.640625Q-248.51953 -2.8085938 -246.49609 -2.8085938Q-244.42578 -2.8085938 -243.33594 -1.6796875Q-242.24609 -0.55078125 -242.24609 1.5664062ZM-244.54297 1.5664062Q-244.54297 0.05859375 -245.03516 -0.62109375Q-245.52734 -1.3007812 -246.46484 -1.3007812Q-248.46484 -1.3007812 -248.46484 1.5664062Q-248.46484 2.9804688 -247.97656 3.71875Q-247.48828 4.4570312 -246.56641 4.4570312Q-244.54297 4.4570312 -244.54297 1.5664062ZM-240.50391 -4.1757812L-240.50391 -5.7929688L-238.30859 -5.7929688L-238.30859 -4.1757812L-240.50391 -4.1757812ZM-240.50391 5.8007812L-240.50391 -2.6523438L-238.30859 -2.6523438L-238.30859 5.8007812L-240.50391 5.8007812ZM-230.58203 5.8007812L-230.58203 1.0585938Q-230.58203 -1.1679688 -232.08984 -1.1679688Q-232.88672 -1.1679688 -233.375 -0.484375Q-233.86328 0.19921875 -233.86328 1.2695312L-233.86328 5.8007812L-236.05859 5.8007812L-236.05859 -0.76171875Q-236.05859 -1.4414062 -236.07812 -1.875Q-236.09766 -2.3085938 -236.12109 -2.6523438L-234.02734 -2.6523438Q-234.00391 -2.5039062 -233.96484 -1.859375Q-233.92578 -1.2148438 -233.92578 -0.97265625L-233.89453 -0.97265625Q-233.44922 -1.9414062 -232.77734 -2.3789062Q-232.10547 -2.8164062 -231.17578 -2.8164062Q-229.83203 -2.8164062 -229.11328 -1.9882812Q-228.39453 -1.1601562 -228.39453 0.43359375L-228.39453 5.8007812L-230.58203 5.8007812ZM-224.12109 5.9414062Q-225.08984 5.9414062 -225.61328 5.4140625Q-226.13672 4.8867188 -226.13672 3.8164062L-226.13672 -1.1679688L-227.20703 -1.1679688L-227.20703 -2.6523438L-226.02734 -2.6523438L-225.33984 -4.6367188L-223.96484 -4.6367188L-223.96484 -2.6523438L-222.36328 -2.6523438L-222.36328 -1.1679688L-223.96484 -1.1679688L-223.96484 3.2226562Q-223.96484 3.8398438 -223.73047 4.1328125Q-223.49609 4.4257812 -223.00391 4.4257812Q-222.74609 4.4257812 -222.26953 4.3164062L-222.26953 5.6757812Q-223.08203 5.9414062 -224.12109 5.9414062ZM-221.44922 2.6054688L-221.44922 0.69921875L-217.38672 0.69921875L-217.38672 2.6054688L-221.44922 2.6054688ZM-207.59766 1.5664062Q-207.59766 3.6210938 -208.73828 4.7890625Q-209.87891 5.9570312 -211.89453 5.9570312Q-213.87109 5.9570312 -214.99609 4.7851562Q-216.12109 3.6132812 -216.12109 1.5664062Q-216.12109 -0.47265625 -214.99609 -1.640625Q-213.87109 -2.8085938 -211.84766 -2.8085938Q-209.77734 -2.8085938 -208.6875 -1.6796875Q-207.59766 -0.55078125 -207.59766 1.5664062ZM-209.89453 1.5664062Q-209.89453 0.05859375 -210.38672 -0.62109375Q-210.87891 -1.3007812 -211.81641 -1.3007812Q-213.81641 -1.3007812 -213.81641 1.5664062Q-213.81641 2.9804688 -213.32812 3.71875Q-212.83984 4.4570312 -211.91797 4.4570312Q-209.89453 4.4570312 -209.89453 1.5664062ZM-198.73047 3.3320312Q-198.73047 4.5585938 -199.73438 5.2578125Q-200.73828 5.9570312 -202.51172 5.9570312Q-204.25391 5.9570312 -205.17969 5.40625Q-206.10547 4.8554688 -206.41016 3.6914062L-204.48047 3.4023438Q-204.31641 4.0039062 -203.91406 4.2539062Q-203.51172 4.5039062 -202.51172 4.5039062Q-201.58984 4.5039062 -201.16797 4.2695312Q-200.74609 4.0351562 -200.74609 3.5351562Q-200.74609 3.1289062 -201.08594 2.890625Q-201.42578 2.6523438 -202.23828 2.4882812Q-204.09766 2.1210938 -204.74609 1.8046875Q-205.39453 1.4882812 -205.73438 0.984375Q-206.07422 0.48046875 -206.07422 -0.25390625Q-206.07422 -1.4648438 -205.14062 -2.140625Q-204.20703 -2.8164062 -202.49609 -2.8164062Q-200.98828 -2.8164062 -200.07031 -2.2304688Q-199.15234 -1.6445312 -198.92578 -0.53515625L-200.87109 -0.33203125Q-200.96484 -0.84765625 -201.33203 -1.1015625Q-201.69922 -1.3554688 -202.49609 -1.3554688Q-203.27734 -1.3554688 -203.66797 -1.15625Q-204.05859 -0.95703125 -204.05859 -0.48828125Q-204.05859 -0.12109375 -203.75781 0.09375Q-203.45703 0.30859375 -202.74609 0.44921875Q-201.75391 0.65234375 -200.98438 0.8671875Q-200.21484 1.0820312 -199.75 1.3789062Q-199.28516 1.6757812 -199.00781 2.140625Q-198.73047 2.6054688 -198.73047 3.3320312ZM-189.83203 3.3320312Q-189.83203 4.5585938 -190.83594 5.2578125Q-191.83984 5.9570312 -193.61328 5.9570312Q-195.35547 5.9570312 -196.28125 5.40625Q-197.20703 4.8554688 -197.51172 3.6914062L-195.58203 3.4023438Q-195.41797 4.0039062 -195.01562 4.2539062Q-194.61328 4.5039062 -193.61328 4.5039062Q-192.69141 4.5039062 -192.26953 4.2695312Q-191.84766 4.0351562 -191.84766 3.5351562Q-191.84766 3.1289062 -192.1875 2.890625Q-192.52734 2.6523438 -193.33984 2.4882812Q-195.19922 2.1210938 -195.84766 1.8046875Q-196.49609 1.4882812 -196.83594 0.984375Q-197.17578 0.48046875 -197.17578 -0.25390625Q-197.17578 -1.4648438 -196.24219 -2.140625Q-195.30859 -2.8164062 -193.59766 -2.8164062Q-192.08984 -2.8164062 -191.17188 -2.2304688Q-190.25391 -1.6445312 -190.02734 -0.53515625L-191.97266 -0.33203125Q-192.06641 -0.84765625 -192.43359 -1.1015625Q-192.80078 -1.3554688 -193.59766 -1.3554688Q-194.37891 -1.3554688 -194.76953 -1.15625Q-195.16016 -0.95703125 -195.16016 -0.48828125Q-195.16016 -0.12109375 -194.85938 0.09375Q-194.55859 0.30859375 -193.84766 0.44921875Q-192.85547 0.65234375 -192.08594 0.8671875Q-191.31641 1.0820312 -190.85156 1.3789062Q-190.38672 1.6757812 -190.10938 2.140625Q-189.83203 2.6054688 -189.83203 3.3320312ZM-189.01953 6.1210938L-186.74609 -5.7929688L-184.88672 -5.7929688L-187.12109 6.1210938L-189.01953 6.1210938ZM-180.08984 5.9570312Q-182.01172 5.9570312 -183.05859 4.8125Q-184.10547 3.6679688 -184.10547 1.6210938Q-184.10547 -0.47265625 -183.05078 -1.640625Q-181.99609 -2.8085938 -180.05859 -2.8085938Q-178.56641 -2.8085938 -177.58984 -2.0585938Q-176.61328 -1.3085938 -176.36328 0.01171875L-178.57422 0.12109375Q-178.66797 -0.52734375 -179.04297 -0.9140625Q-179.41797 -1.3007812 -180.10547 -1.3007812Q-181.80078 -1.3007812 -181.80078 1.5351562Q-181.80078 4.4570312 -180.07422 4.4570312Q-179.44922 4.4570312 -179.02734 4.0625Q-178.60547 3.6679688 -178.50391 2.8867188L-176.30078 2.9882812Q-176.41797 3.8554688 -176.92188 4.5351562Q-177.42578 5.2148438 -178.24609 5.5859375Q-179.06641 5.9570312 -180.08984 5.9570312ZM-166.68359 1.5664062Q-166.68359 3.6210938 -167.82422 4.7890625Q-168.96484 5.9570312 -170.98047 5.9570312Q-172.95703 5.9570312 -174.08203 4.7851562Q-175.20703 3.6132812 -175.20703 1.5664062Q-175.20703 -0.47265625 -174.08203 -1.640625Q-172.95703 -2.8085938 -170.93359 -2.8085938Q-168.86328 -2.8085938 -167.77344 -1.6796875Q-166.68359 -0.55078125 -166.68359 1.5664062ZM-168.98047 1.5664062Q-168.98047 0.05859375 -169.47266 -0.62109375Q-169.96484 -1.3007812 -170.90234 -1.3007812Q-172.90234 -1.3007812 -172.90234 1.5664062Q-172.90234 2.9804688 -172.41406 3.71875Q-171.92578 4.4570312 -171.00391 4.4570312Q-168.98047 4.4570312 -168.98047 1.5664062ZM-164.94141 5.8007812L-164.94141 -5.7929688L-162.74609 -5.7929688L-162.74609 5.8007812L-164.94141 5.8007812ZM-158.54297 5.9570312Q-159.76953 5.9570312 -160.45703 5.2890625Q-161.14453 4.6210938 -161.14453 3.4101562Q-161.14453 2.0976562 -160.28906 1.4101562Q-159.43359 0.72265625 -157.80859 0.70703125L-155.98828 0.67578125L-155.98828 0.24609375Q-155.98828 -0.58203125 -156.27734 -0.984375Q-156.56641 -1.3867188 -157.22266 -1.3867188Q-157.83203 -1.3867188 -158.11719 -1.109375Q-158.40234 -0.83203125 -158.47266 -0.19140625L-160.76172 -0.30078125Q-160.55078 -1.5351562 -159.63281 -2.171875Q-158.71484 -2.8085938 -157.12891 -2.8085938Q-155.52734 -2.8085938 -154.66016 -2.0195312Q-153.79297 -1.2304688 -153.79297 0.22265625L-153.79297 3.3007812Q-153.79297 4.0117188 -153.63281 4.28125Q-153.47266 4.5507812 -153.09766 4.5507812Q-152.84766 4.5507812 -152.61328 4.5039062L-152.61328 5.6914062Q-152.80859 5.7382812 -152.96484 5.7773438Q-153.12109 5.8164062 -153.27734 5.8398438Q-153.43359 5.8632812 -153.60938 5.8789062Q-153.78516 5.8945312 -154.01953 5.8945312Q-154.84766 5.8945312 -155.24219 5.4882812Q-155.63672 5.0820312 -155.71484 4.2929688L-155.76172 4.2929688Q-156.68359 5.9570312 -158.54297 5.9570312ZM-155.98828 1.8867188L-157.11328 1.9023438Q-157.87891 1.9335938 -158.19922 2.0703125Q-158.51953 2.2070312 -158.6875 2.4882812Q-158.85547 2.7695312 -158.85547 3.2382812Q-158.85547 3.8398438 -158.57812 4.1328125Q-158.30078 4.4257812 -157.83984 4.4257812Q-157.32422 4.4257812 -156.89844 4.1445312Q-156.47266 3.8632812 -156.23047 3.3671875Q-155.98828 2.8710938 -155.98828 2.3164062L-155.98828 1.8867188ZM-143.59766 1.5429688Q-143.59766 3.6367188 -144.4375 4.796875Q-145.27734 5.9570312 -146.83984 5.9570312Q-147.73828 5.9570312 -148.39453 5.5664062Q-149.05078 5.1757812 -149.40234 4.4414062L-149.41797 4.4414062Q-149.41797 4.7148438 -149.45312 5.1914062Q-149.48828 5.6679688 -149.52734 5.8007812L-151.66016 5.8007812Q-151.59766 5.0742188 -151.59766 3.8710938L-151.59766 -5.7929688L-149.40234 -5.7929688L-149.40234 -2.5585938L-149.43359 -1.1835938L-149.40234 -1.1835938Q-148.66016 -2.8085938 -146.69922 -2.8085938Q-145.19922 -2.8085938 -144.39844 -1.671875Q-143.59766 -0.53515625 -143.59766 1.5429688ZM-145.88672 1.5429688Q-145.88672 0.10546875 -146.30859 -0.58984375Q-146.73047 -1.2851562 -147.61328 -1.2851562Q-148.50391 -1.2851562 -148.96875 -0.5390625Q-149.43359 0.20703125 -149.43359 1.6132812Q-149.43359 2.9570312 -148.97656 3.7070312Q-148.51953 4.4570312 -147.62891 4.4570312Q-145.88672 4.4570312 -145.88672 1.5429688ZM-142.31641 2.6054688L-142.31641 0.69921875L-138.25391 0.69921875L-138.25391 2.6054688L-142.31641 2.6054688ZM-136.49609 -4.1757812L-136.49609 -5.7929688L-134.30078 -5.7929688L-134.30078 -4.1757812L-136.49609 -4.1757812ZM-136.49609 5.8007812L-136.49609 -2.6523438L-134.30078 -2.6523438L-134.30078 5.8007812L-136.49609 5.8007812ZM-132.05078 -4.1757812L-132.05078 -5.7929688L-129.85547 -5.7929688L-129.85547 -4.1757812L-132.05078 -4.1757812ZM-132.05078 5.8007812L-132.05078 -2.6523438L-129.85547 -2.6523438L-129.85547 5.8007812L-132.05078 5.8007812ZM-128.06641 1.5820312Q-128.06641 -0.51171875 -127.21094 -1.6640625Q-126.35547 -2.8164062 -124.80078 -2.8164062Q-122.95703 -2.8164062 -122.24609 -1.2929688Q-122.24609 -1.6523438 -122.20312 -2.09375Q-122.16016 -2.5351562 -122.12891 -2.6523438L-120.01953 -2.6523438Q-120.06641 -1.8085938 -120.06641 -0.70703125L-120.06641 9.1210938L-122.24609 9.1210938L-122.24609 5.6054688L-122.20703 4.3945312L-122.22266 4.3945312Q-122.94922 5.9570312 -124.98047 5.9570312Q-126.45703 5.9570312 -127.26172 4.8046875Q-128.06641 3.6523438 -128.06641 1.5820312ZM-122.23047 1.5351562Q-122.23047 0.18359375 -122.68359 -0.5625Q-123.13672 -1.3085938 -124.01953 -1.3085938Q-125.77734 -1.3085938 -125.77734 1.5820312Q-125.77734 4.4570312 -124.03516 4.4570312Q-123.17578 4.4570312 -122.70312 3.6953125Q-122.23047 2.9335938 -122.23047 1.5351562ZM-118.32422 2.6054688L-118.32422 0.69921875L-114.26172 0.69921875L-114.26172 2.6054688L-118.32422 2.6054688ZM-108.98047 5.9570312Q-110.90234 5.9570312 -111.94922 4.8125Q-112.99609 3.6679688 -112.99609 1.6210938Q-112.99609 -0.47265625 -111.94141 -1.640625Q-110.88672 -2.8085938 -108.94922 -2.8085938Q-107.45703 -2.8085938 -106.48047 -2.0585938Q-105.50391 -1.3085938 -105.25391 0.01171875L-107.46484 0.12109375Q-107.55859 -0.52734375 -107.93359 -0.9140625Q-108.30859 -1.3007812 -108.99609 -1.3007812Q-110.69141 -1.3007812 -110.69141 1.5351562Q-110.69141 4.4570312 -108.96484 4.4570312Q-108.33984 4.4570312 -107.91797 4.0625Q-107.49609 3.6679688 -107.39453 2.8867188L-105.19141 2.9882812Q-105.30859 3.8554688 -105.8125 4.5351562Q-106.31641 5.2148438 -107.13672 5.5859375Q-107.95703 5.9570312 -108.98047 5.9570312ZM-101.53516 -2.6523438L-101.53516 2.0898438Q-101.53516 4.3164062 -100.03516 4.3164062Q-99.238281 4.3164062 -98.75 3.6328125Q-98.261719 2.9492188 -98.261719 1.8789062L-98.261719 -2.6523438L-96.066406 -2.6523438L-96.066406 3.9101562Q-96.066406 4.9882812 -96.003906 5.8007812L-98.097656 5.8007812Q-98.191406 4.6757812 -98.191406 4.1210938L-98.230469 4.1210938Q-98.667969 5.0820312 -99.34375 5.5195312Q-100.01953 5.9570312 -100.94922 5.9570312Q-102.29297 5.9570312 -103.01172 5.1328125Q-103.73047 4.3085938 -103.73047 2.7148438L-103.73047 -2.6523438L-101.53516 -2.6523438ZM-86.707031 3.3320312Q-86.707031 4.5585938 -87.710938 5.2578125Q-88.714844 5.9570312 -90.488281 5.9570312Q-92.230469 5.9570312 -93.15625 5.40625Q-94.082031 4.8554688 -94.386719 3.6914062L-92.457031 3.4023438Q-92.292969 4.0039062 -91.890625 4.2539062Q-91.488281 4.5039062 -90.488281 4.5039062Q-89.566406 4.5039062 -89.144531 4.2695312Q-88.722656 4.0351562 -88.722656 3.5351562Q-88.722656 3.1289062 -89.0625 2.890625Q-89.402344 2.6523438 -90.214844 2.4882812Q-92.074219 2.1210938 -92.722656 1.8046875Q-93.371094 1.4882812 -93.710938 0.984375Q-94.050781 0.48046875 -94.050781 -0.25390625Q-94.050781 -1.4648438 -93.117188 -2.140625Q-92.183594 -2.8164062 -90.472656 -2.8164062Q-88.964844 -2.8164062 -88.046875 -2.2304688Q-87.128906 -1.6445312 -86.902344 -0.53515625L-88.847656 -0.33203125Q-88.941406 -0.84765625 -89.308594 -1.1015625Q-89.675781 -1.3554688 -90.472656 -1.3554688Q-91.253906 -1.3554688 -91.644531 -1.15625Q-92.035156 -0.95703125 -92.035156 -0.48828125Q-92.035156 -0.12109375 -91.734375 0.09375Q-91.433594 0.30859375 -90.722656 0.44921875Q-89.730469 0.65234375 -88.960938 0.8671875Q-88.191406 1.0820312 -87.726562 1.3789062Q-87.261719 1.6757812 -86.984375 2.140625Q-86.707031 2.6054688 -86.707031 3.3320312ZM-82.769531 5.9414062Q-83.738281 5.9414062 -84.261719 5.4140625Q-84.785156 4.8867188 -84.785156 3.8164062L-84.785156 -1.1679688L-85.855469 -1.1679688L-85.855469 -2.6523438L-84.675781 -2.6523438L-83.988281 -4.6367188L-82.613281 -4.6367188L-82.613281 -2.6523438L-81.011719 -2.6523438L-81.011719 -1.1679688L-82.613281 -1.1679688L-82.613281 3.2226562Q-82.613281 3.8398438 -82.378906 4.1328125Q-82.144531 4.4257812 -81.652344 4.4257812Q-81.394531 4.4257812 -80.917969 4.3164062L-80.917969 5.6757812Q-81.730469 5.9414062 -82.769531 5.9414062ZM-71.574219 1.5664062Q-71.574219 3.6210938 -72.714844 4.7890625Q-73.855469 5.9570312 -75.871094 5.9570312Q-77.847656 5.9570312 -78.972656 4.7851562Q-80.097656 3.6132812 -80.097656 1.5664062Q-80.097656 -0.47265625 -78.972656 -1.640625Q-77.847656 -2.8085938 -75.824219 -2.8085938Q-73.753906 -2.8085938 -72.664062 -1.6796875Q-71.574219 -0.55078125 -71.574219 1.5664062ZM-73.871094 1.5664062Q-73.871094 0.05859375 -74.363281 -0.62109375Q-74.855469 -1.3007812 -75.792969 -1.3007812Q-77.792969 -1.3007812 -77.792969 1.5664062Q-77.792969 2.9804688 -77.304688 3.71875Q-76.816406 4.4570312 -75.894531 4.4570312Q-73.871094 4.4570312 -73.871094 1.5664062ZM-64.855469 5.8007812L-64.855469 1.0585938Q-64.855469 -1.1679688 -66.136719 -1.1679688Q-66.800781 -1.1679688 -67.21875 -0.48828125Q-67.636719 0.19140625 -67.636719 1.2695312L-67.636719 5.8007812L-69.832031 5.8007812L-69.832031 -0.76171875Q-69.832031 -1.4414062 -69.851562 -1.875Q-69.871094 -2.3085938 -69.894531 -2.6523438L-67.800781 -2.6523438Q-67.777344 -2.5039062 -67.738281 -1.859375Q-67.699219 -1.2148438 -67.699219 -0.97265625L-67.667969 -0.97265625Q-67.261719 -1.9414062 -66.65625 -2.3789062Q-66.050781 -2.8164062 -65.207031 -2.8164062Q-63.269531 -2.8164062 -62.855469 -0.97265625L-62.808594 -0.97265625Q-62.378906 -1.9570312 -61.777344 -2.3867188Q-61.175781 -2.8164062 -60.246094 -2.8164062Q-59.011719 -2.8164062 -58.363281 -1.9765625Q-57.714844 -1.1367188 -57.714844 0.43359375L-57.714844 5.8007812L-59.894531 5.8007812L-59.894531 1.0585938Q-59.894531 -1.1679688 -61.175781 -1.1679688Q-61.816406 -1.1679688 -62.226562 -0.546875Q-62.636719 0.07421875 -62.675781 1.1679688L-62.675781 5.8007812L-64.855469 5.8007812ZM-56.097656 2.6054688L-56.097656 0.69921875L-52.035156 0.69921875L-52.035156 2.6054688L-56.097656 2.6054688ZM-50.277344 5.8007812L-50.277344 -5.7929688L-48.082031 -5.7929688L-48.082031 5.8007812L-50.277344 5.8007812ZM-37.800781 1.5664062Q-37.800781 3.6210938 -38.941406 4.7890625Q-40.082031 5.9570312 -42.097656 5.9570312Q-44.074219 5.9570312 -45.199219 4.7851562Q-46.324219 3.6132812 -46.324219 1.5664062Q-46.324219 -0.47265625 -45.199219 -1.640625Q-44.074219 -2.8085938 -42.050781 -2.8085938Q-39.980469 -2.8085938 -38.890625 -1.6796875Q-37.800781 -0.55078125 -37.800781 1.5664062ZM-40.097656 1.5664062Q-40.097656 0.05859375 -40.589844 -0.62109375Q-41.082031 -1.3007812 -42.019531 -1.3007812Q-44.019531 -1.3007812 -44.019531 1.5664062Q-44.019531 2.9804688 -43.53125 3.71875Q-43.042969 4.4570312 -42.121094 4.4570312Q-40.097656 4.4570312 -40.097656 1.5664062ZM-34.105469 5.9570312Q-35.332031 5.9570312 -36.019531 5.2890625Q-36.707031 4.6210938 -36.707031 3.4101562Q-36.707031 2.0976562 -35.851562 1.4101562Q-34.996094 0.72265625 -33.371094 0.70703125L-31.550781 0.67578125L-31.550781 0.24609375Q-31.550781 -0.58203125 -31.839844 -0.984375Q-32.128906 -1.3867188 -32.785156 -1.3867188Q-33.394531 -1.3867188 -33.679688 -1.109375Q-33.964844 -0.83203125 -34.035156 -0.19140625L-36.324219 -0.30078125Q-36.113281 -1.5351562 -35.195312 -2.171875Q-34.277344 -2.8085938 -32.691406 -2.8085938Q-31.089844 -2.8085938 -30.222656 -2.0195312Q-29.355469 -1.2304688 -29.355469 0.22265625L-29.355469 3.3007812Q-29.355469 4.0117188 -29.195312 4.28125Q-29.035156 4.5507812 -28.660156 4.5507812Q-28.410156 4.5507812 -28.175781 4.5039062L-28.175781 5.6914062Q-28.371094 5.7382812 -28.527344 5.7773438Q-28.683594 5.8164062 -28.839844 5.8398438Q-28.996094 5.8632812 -29.171875 5.8789062Q-29.347656 5.8945312 -29.582031 5.8945312Q-30.410156 5.8945312 -30.804688 5.4882812Q-31.199219 5.0820312 -31.277344 4.2929688L-31.324219 4.2929688Q-32.246094 5.9570312 -34.105469 5.9570312ZM-31.550781 1.8867188L-32.675781 1.9023438Q-33.441406 1.9335938 -33.761719 2.0703125Q-34.082031 2.2070312 -34.25 2.4882812Q-34.417969 2.7695312 -34.417969 3.2382812Q-34.417969 3.8398438 -34.140625 4.1328125Q-33.863281 4.4257812 -33.402344 4.4257812Q-32.886719 4.4257812 -32.460938 4.1445312Q-32.035156 3.8632812 -31.792969 3.3671875Q-31.550781 2.8710938 -31.550781 2.3164062L-31.550781 1.8867188ZM-21.683594 5.8007812Q-21.714844 5.6835938 -21.757812 5.2109375Q-21.800781 4.7382812 -21.800781 4.4257812L-21.832031 4.4257812Q-22.542969 5.9570312 -24.535156 5.9570312Q-26.011719 5.9570312 -26.816406 4.8046875Q-27.621094 3.6523438 -27.621094 1.5820312Q-27.621094 -0.51953125 -26.773438 -1.6640625Q-25.925781 -2.8085938 -24.371094 -2.8085938Q-23.472656 -2.8085938 -22.820312 -2.4335938Q-22.167969 -2.0585938 -21.816406 -1.3164062L-21.800781 -1.3164062L-21.816406 -2.7070312L-21.816406 -5.7929688L-19.621094 -5.7929688L-19.621094 3.9570312Q-19.621094 4.7382812 -19.558594 5.8007812L-21.683594 5.8007812ZM-21.785156 1.5273438Q-21.785156 0.16015625 -22.242188 -0.578125Q-22.699219 -1.3164062 -23.589844 -1.3164062Q-24.472656 -1.3164062 -24.902344 -0.6015625Q-25.332031 0.11328125 -25.332031 1.5820312Q-25.332031 4.4570312 -23.605469 4.4570312Q-22.738281 4.4570312 -22.261719 3.6953125Q-21.785156 2.9335938 -21.785156 1.5273438ZM-17.386719 -4.1757812L-17.386719 -5.7929688L-15.191406 -5.7929688L-15.191406 -4.1757812L-17.386719 -4.1757812ZM-17.386719 5.8007812L-17.386719 -2.6523438L-15.191406 -2.6523438L-15.191406 5.8007812L-17.386719 5.8007812ZM-7.4648438 5.8007812L-7.4648438 1.0585938Q-7.4648438 -1.1679688 -8.9726562 -1.1679688Q-9.7695312 -1.1679688 -10.257812 -0.484375Q-10.746094 0.19921875 -10.746094 1.2695312L-10.746094 5.8007812L-12.941406 5.8007812L-12.941406 -0.76171875Q-12.941406 -1.4414062 -12.960938 -1.875Q-12.980469 -2.3085938 -13.003906 -2.6523438L-10.910156 -2.6523438Q-10.886719 -2.5039062 -10.847656 -1.859375Q-10.808594 -1.2148438 -10.808594 -0.97265625L-10.777344 -0.97265625Q-10.332031 -1.9414062 -9.6601562 -2.3789062Q-8.9882812 -2.8164062 -8.0585938 -2.8164062Q-6.7148438 -2.8164062 -5.9960938 -1.9882812Q-5.2773438 -1.1601562 -5.2773438 0.43359375L-5.2773438 5.8007812L-7.4648438 5.8007812ZM0.37109375 9.1914062Q-1.1757812 9.1914062 -2.1171875 8.6015625Q-3.0585938 8.0117188 -3.2773438 6.9179688L-1.0820312 6.6601562Q-0.96484375 7.1679688 -0.578125 7.4570312Q-0.19140625 7.7460938 0.43359375 7.7460938Q1.3476562 7.7460938 1.7695312 7.1835938Q2.1914062 6.6210938 2.1914062 5.5117188L2.1914062 5.0664062L2.2070312 4.2304688L2.1914062 4.2304688Q1.4648438 5.7851562 -0.52734375 5.7851562Q-2.0039062 5.7851562 -2.8164062 4.6757812Q-3.6289062 3.5664062 -3.6289062 1.5039062Q-3.6289062 -0.56640625 -2.7929688 -1.6914062Q-1.9570312 -2.8164062 -0.36328125 -2.8164062Q1.4804688 -2.8164062 2.1914062 -1.2929688L2.2304688 -1.2929688Q2.2304688 -1.5664062 2.265625 -2.0351562Q2.3007812 -2.5039062 2.3398438 -2.6523438L4.4179688 -2.6523438Q4.3710938 -1.8085938 4.3710938 -0.69921875L4.3710938 5.5429688Q4.3710938 7.3476562 3.3476562 8.2695312Q2.3242188 9.1914062 0.37109375 9.1914062ZM2.2070312 1.4570312Q2.2070312 0.15234375 1.7421875 -0.578125Q1.2773438 -1.3085938 0.41796875 -1.3085938Q-1.3398438 -1.3085938 -1.3398438 1.5039062Q-1.3398438 4.2617188 0.40234375 4.2617188Q1.2773438 4.2617188 1.7421875 3.53125Q2.2070312 2.8007812 2.2070312 1.4570312ZM6.1132812 2.6054688L6.1132812 0.69921875L10.175781 0.69921875L10.175781 2.6054688L6.1132812 2.6054688ZM19.058594 3.3320312Q19.058594 4.5585938 18.054688 5.2578125Q17.050781 5.9570312 15.277344 5.9570312Q13.535156 5.9570312 12.609375 5.40625Q11.683594 4.8554688 11.378906 3.6914062L13.308594 3.4023438Q13.472656 4.0039062 13.875 4.2539062Q14.277344 4.5039062 15.277344 4.5039062Q16.199219 4.5039062 16.621094 4.2695312Q17.042969 4.0351562 17.042969 3.5351562Q17.042969 3.1289062 16.703125 2.890625Q16.363281 2.6523438 15.550781 2.4882812Q13.691406 2.1210938 13.042969 1.8046875Q12.394531 1.4882812 12.054688 0.984375Q11.714844 0.48046875 11.714844 -0.25390625Q11.714844 -1.4648438 12.648438 -2.140625Q13.582031 -2.8164062 15.292969 -2.8164062Q16.800781 -2.8164062 17.71875 -2.2304688Q18.636719 -1.6445312 18.863281 -0.53515625L16.917969 -0.33203125Q16.824219 -0.84765625 16.457031 -1.1015625Q16.089844 -1.3554688 15.292969 -1.3554688Q14.511719 -1.3554688 14.121094 -1.15625Q13.730469 -0.95703125 13.730469 -0.48828125Q13.730469 -0.12109375 14.03125 0.09375Q14.332031 0.30859375 15.042969 0.44921875Q16.035156 0.65234375 16.804688 0.8671875Q17.574219 1.0820312 18.039062 1.3789062Q18.503906 1.6757812 18.78125 2.140625Q19.058594 2.6054688 19.058594 3.3320312ZM28.832031 1.5351562Q28.832031 3.6523438 27.984375 4.8046875Q27.136719 5.9570312 25.589844 5.9570312Q24.699219 5.9570312 24.039062 5.5703125Q23.378906 5.1835938 23.027344 4.4570312L22.980469 4.4570312Q23.027344 4.6914062 23.027344 5.8789062L23.027344 9.1210938L20.832031 9.1210938L20.832031 -0.70703125Q20.832031 -1.9023438 20.769531 -2.6523438L22.902344 -2.6523438Q22.941406 -2.5117188 22.96875 -2.0976562Q22.996094 -1.6835938 22.996094 -1.2773438L23.027344 -1.2773438Q23.769531 -2.8320312 25.730469 -2.8320312Q27.207031 -2.8320312 28.019531 -1.6953125Q28.832031 -0.55859375 28.832031 1.5351562ZM26.542969 1.5351562Q26.542969 -1.3085938 24.800781 -1.3085938Q23.925781 -1.3085938 23.460938 -0.54296875Q22.996094 0.22265625 22.996094 1.5976562Q22.996094 2.9648438 23.460938 3.7109375Q23.925781 4.4570312 24.785156 4.4570312Q26.542969 4.4570312 26.542969 1.5351562ZM30.605469 -4.1757812L30.605469 -5.7929688L32.800781 -5.7929688L32.800781 -4.1757812L30.605469 -4.1757812ZM30.605469 5.8007812L30.605469 -2.6523438L32.800781 -2.6523438L32.800781 5.8007812L30.605469 5.8007812ZM40.527344 5.8007812L40.527344 1.0585938Q40.527344 -1.1679688 39.019531 -1.1679688Q38.222656 -1.1679688 37.734375 -0.484375Q37.246094 0.19921875 37.246094 1.2695312L37.246094 5.8007812L35.050781 5.8007812L35.050781 -0.76171875Q35.050781 -1.4414062 35.03125 -1.875Q35.011719 -2.3085938 34.988281 -2.6523438L37.082031 -2.6523438Q37.105469 -2.5039062 37.144531 -1.859375Q37.183594 -1.2148438 37.183594 -0.97265625L37.214844 -0.97265625Q37.660156 -1.9414062 38.332031 -2.3789062Q39.003906 -2.8164062 39.933594 -2.8164062Q41.277344 -2.8164062 41.996094 -1.9882812Q42.714844 -1.1601562 42.714844 0.43359375L42.714844 5.8007812L40.527344 5.8007812ZM50.300781 5.8007812L50.300781 1.0585938Q50.300781 -1.1679688 48.792969 -1.1679688Q47.996094 -1.1679688 47.507812 -0.484375Q47.019531 0.19921875 47.019531 1.2695312L47.019531 5.8007812L44.824219 5.8007812L44.824219 -0.76171875Q44.824219 -1.4414062 44.804688 -1.875Q44.785156 -2.3085938 44.761719 -2.6523438L46.855469 -2.6523438Q46.878906 -2.5039062 46.917969 -1.859375Q46.957031 -1.2148438 46.957031 -0.97265625L46.988281 -0.97265625Q47.433594 -1.9414062 48.105469 -2.3789062Q48.777344 -2.8164062 49.707031 -2.8164062Q51.050781 -2.8164062 51.769531 -1.9882812Q52.488281 -1.1601562 52.488281 0.43359375L52.488281 5.8007812L50.300781 5.8007812ZM58.058594 5.9570312Q56.152344 5.9570312 55.128906 4.828125Q54.105469 3.6992188 54.105469 1.5351562Q54.105469 -0.55859375 55.144531 -1.6835938Q56.183594 -2.8085938 58.089844 -2.8085938Q59.910156 -2.8085938 60.871094 -1.6015625Q61.832031 -0.39453125 61.832031 1.9335938L61.832031 1.9960938L56.410156 1.9960938Q56.410156 3.2304688 56.867188 3.859375Q57.324219 4.4882812 58.167969 4.4882812Q59.332031 4.4882812 59.636719 3.4804688L61.707031 3.6601562Q60.808594 5.9570312 58.058594 5.9570312ZM58.058594 -1.4257812Q57.285156 -1.4257812 56.867188 -0.88671875Q56.449219 -0.34765625 56.425781 0.62109375L59.707031 0.62109375Q59.644531 -0.40234375 59.214844 -0.9140625Q58.785156 -1.4257812 58.058594 -1.4257812ZM63.496094 5.8007812L63.496094 -0.66796875Q63.496094 -1.3632812 63.476562 -1.828125Q63.457031 -2.2929688 63.433594 -2.6523438L65.527344 -2.6523438Q65.550781 -2.5117188 65.589844 -1.796875Q65.628906 -1.0820312 65.628906 -0.84765625L65.660156 -0.84765625Q65.980469 -1.7382812 66.230469 -2.1015625Q66.480469 -2.4648438 66.824219 -2.640625Q67.167969 -2.8164062 67.683594 -2.8164062Q68.105469 -2.8164062 68.363281 -2.6992188L68.363281 -0.86328125Q67.832031 -0.98046875 67.425781 -0.98046875Q66.605469 -0.98046875 66.148438 -0.31640625Q65.691406 0.34765625 65.691406 1.6523438L65.691406 5.8007812L63.496094 5.8007812ZM73.675781 2.6054688L73.675781 0.69921875L77.738281 0.69921875L77.738281 2.6054688L73.675781 2.6054688ZM86.199219 -3.4257812L86.199219 -0.01953125L91.832031 -0.01953125L91.832031 1.7617188L86.199219 1.7617188L86.199219 5.8007812L83.894531 5.8007812L83.894531 -5.2070312L92.011719 -5.2070312L92.011719 -3.4257812L86.199219 -3.4257812ZM104.37109 0.24609375Q104.37109 1.9648438 103.69141 3.2695312Q103.01172 4.5742188 101.74609 5.265625Q100.48047 5.9570312 98.792969 5.9570312Q96.199219 5.9570312 94.726562 4.4296875Q93.253906 2.9023438 93.253906 0.24609375Q93.253906 -2.4023438 94.722656 -3.8867188Q96.191406 -5.3710938 98.808594 -5.3710938Q101.42578 -5.3710938 102.89844 -3.8710938Q104.37109 -2.3710938 104.37109 0.24609375ZM102.01953 0.24609375Q102.01953 -1.5351562 101.17578 -2.546875Q100.33203 -3.5585938 98.808594 -3.5585938Q97.261719 -3.5585938 96.417969 -2.5546875Q95.574219 -1.5507812 95.574219 0.24609375Q95.574219 2.0585938 96.4375 3.1015625Q97.300781 4.1445312 98.792969 4.1445312Q100.33984 4.1445312 101.17969 3.1289062Q102.01953 2.1132812 102.01953 0.24609375ZM113.67578 5.8007812L111.12109 1.6210938L108.41797 1.6210938L108.41797 5.8007812L106.11328 5.8007812L106.11328 -5.2070312L111.61328 -5.2070312Q113.58203 -5.2070312 114.65234 -4.359375Q115.72266 -3.5117188 115.72266 -1.9257812Q115.72266 -0.76953125 115.06641 0.0703125Q114.41016 0.91015625 113.29297 1.1757812L116.26953 5.8007812L113.67578 5.8007812ZM113.40234 -1.8320312Q113.40234 -3.4179688 111.37109 -3.4179688L108.41797 -3.4179688L108.41797 -0.16796875L111.43359 -0.16796875Q112.40234 -0.16796875 112.90234 -0.60546875Q113.40234 -1.0429688 113.40234 -1.8320312ZM126.80859 5.8007812L126.80859 -0.87109375Q126.80859 -1.0976562 126.8125 -1.3242188Q126.81641 -1.5507812 126.88672 -3.2695312Q126.33203 -1.1679688 126.06641 -0.33984375L124.08203 5.8007812L122.44141 5.8007812L120.45703 -0.33984375L119.62109 -3.2695312Q119.71484 -1.4570312 119.71484 -0.87109375L119.71484 5.8007812L117.66797 5.8007812L117.66797 -5.2070312L120.75391 -5.2070312L122.72266 0.94921875L122.89453 1.5429688L123.26953 3.0195312L123.76172 1.2539062L125.78516 -5.2070312L128.85547 -5.2070312L128.85547 5.8007812L126.80859 5.8007812ZM138.77734 5.8007812L137.80078 2.9882812L133.60547 2.9882812L132.62891 5.8007812L130.32422 5.8007812L134.33984 -5.2070312L137.05859 -5.2070312L141.05859 5.8007812L138.77734 5.8007812ZM135.69922 -3.5117188L135.65234 -3.3398438Q135.57422 -3.0585938 135.46484 -2.6992188Q135.35547 -2.3398438 134.12109 1.2539062L137.28516 1.2539062L136.19922 -1.9101562L135.86328 -2.9726562L135.69922 -3.5117188ZM146.33203 -3.4257812L146.33203 5.8007812L144.02734 5.8007812L144.02734 -3.4257812L140.47266 -3.4257812L140.47266 -5.2070312L149.89453 -5.2070312L149.89453 -3.4257812L146.33203 -3.4257812ZM165.39453 0.21484375Q165.39453 1.9179688 164.72656 3.1875Q164.05859 4.4570312 162.83594 5.1289062Q161.61328 5.8007812 160.03516 5.8007812L155.58203 5.8007812L155.58203 -5.2070312L159.56641 -5.2070312Q162.34766 -5.2070312 163.87109 -3.8046875Q165.39453 -2.4023438 165.39453 0.21484375ZM163.07422 0.21484375Q163.07422 -1.5585938 162.15234 -2.4921875Q161.23047 -3.4257812 159.51953 -3.4257812L157.88672 -3.4257812L157.88672 4.0195312L159.83984 4.0195312Q161.32422 4.0195312 162.19922 2.9960938Q163.07422 1.9726562 163.07422 0.21484375ZM175.21484 1.5664062Q175.21484 3.6210938 174.07422 4.7890625Q172.93359 5.9570312 170.91797 5.9570312Q168.94141 5.9570312 167.81641 4.7851562Q166.69141 3.6132812 166.69141 1.5664062Q166.69141 -0.47265625 167.81641 -1.640625Q168.94141 -2.8085938 170.96484 -2.8085938Q173.03516 -2.8085938 174.125 -1.6796875Q175.21484 -0.55078125 175.21484 1.5664062ZM172.91797 1.5664062Q172.91797 0.05859375 172.42578 -0.62109375Q171.93359 -1.3007812 170.99609 -1.3007812Q168.99609 -1.3007812 168.99609 1.5664062Q168.99609 2.9804688 169.48438 3.71875Q169.97266 4.4570312 170.89453 4.4570312Q172.91797 4.4570312 172.91797 1.5664062ZM186.09766 5.8007812L183.77734 5.8007812L182.43359 0.64453125Q182.33984 0.29296875 182.06641 -1.0898438L181.66016 0.66015625L180.30078 5.8007812L177.98047 5.8007812L175.79297 -2.6523438L177.85547 -2.6523438L179.24609 3.8085938L179.35547 3.2304688L179.55078 2.3164062L180.87891 -2.6523438L183.23047 -2.6523438L184.52734 2.3164062Q184.63672 2.7226562 184.84766 3.8085938L185.06641 2.7773438L186.28516 -2.6523438L188.31641 -2.6523438L186.09766 5.8007812ZM194.87891 5.8007812L194.87891 1.0585938Q194.87891 -1.1679688 193.37109 -1.1679688Q192.57422 -1.1679688 192.08594 -0.484375Q191.59766 0.19921875 191.59766 1.2695312L191.59766 5.8007812L189.40234 5.8007812L189.40234 -0.76171875Q189.40234 -1.4414062 189.38281 -1.875Q189.36328 -2.3085938 189.33984 -2.6523438L191.43359 -2.6523438Q191.45703 -2.5039062 191.49609 -1.859375Q191.53516 -1.2148438 191.53516 -0.97265625L191.56641 -0.97265625Q192.01172 -1.9414062 192.68359 -2.3789062Q193.35547 -2.8164062 194.28516 -2.8164062Q195.62891 -2.8164062 196.34766 -1.9882812Q197.06641 -1.1601562 197.06641 0.43359375L197.06641 5.8007812L194.87891 5.8007812ZM199.17578 5.8007812L199.17578 -5.7929688L201.37109 -5.7929688L201.37109 5.8007812L199.17578 5.8007812ZM211.65234 1.5664062Q211.65234 3.6210938 210.51172 4.7890625Q209.37109 5.9570312 207.35547 5.9570312Q205.37891 5.9570312 204.25391 4.7851562Q203.12891 3.6132812 203.12891 1.5664062Q203.12891 -0.47265625 204.25391 -1.640625Q205.37891 -2.8085938 207.40234 -2.8085938Q209.47266 -2.8085938 210.5625 -1.6796875Q211.65234 -0.55078125 211.65234 1.5664062ZM209.35547 1.5664062Q209.35547 0.05859375 208.86328 -0.62109375Q208.37109 -1.3007812 207.43359 -1.3007812Q205.43359 -1.3007812 205.43359 1.5664062Q205.43359 2.9804688 205.92188 3.71875Q206.41016 4.4570312 207.33203 4.4570312Q209.35547 4.4570312 209.35547 1.5664062ZM215.34766 5.9570312Q214.12109 5.9570312 213.43359 5.2890625Q212.74609 4.6210938 212.74609 3.4101562Q212.74609 2.0976562 213.60156 1.4101562Q214.45703 0.72265625 216.08203 0.70703125L217.90234 0.67578125L217.90234 0.24609375Q217.90234 -0.58203125 217.61328 -0.984375Q217.32422 -1.3867188 216.66797 -1.3867188Q216.05859 -1.3867188 215.77344 -1.109375Q215.48828 -0.83203125 215.41797 -0.19140625L213.12891 -0.30078125Q213.33984 -1.5351562 214.25781 -2.171875Q215.17578 -2.8085938 216.76172 -2.8085938Q218.36328 -2.8085938 219.23047 -2.0195312Q220.09766 -1.2304688 220.09766 0.22265625L220.09766 3.3007812Q220.09766 4.0117188 220.25781 4.28125Q220.41797 4.5507812 220.79297 4.5507812Q221.04297 4.5507812 221.27734 4.5039062L221.27734 5.6914062Q221.08203 5.7382812 220.92578 5.7773438Q220.76953 5.8164062 220.61328 5.8398438Q220.45703 5.8632812 220.28125 5.8789062Q220.10547 5.8945312 219.87109 5.8945312Q219.04297 5.8945312 218.64844 5.4882812Q218.25391 5.0820312 218.17578 4.2929688L218.12891 4.2929688Q217.20703 5.9570312 215.34766 5.9570312ZM217.90234 1.8867188L216.77734 1.9023438Q216.01172 1.9335938 215.69141 2.0703125Q215.37109 2.2070312 215.20312 2.4882812Q215.03516 2.7695312 215.03516 3.2382812Q215.03516 3.8398438 215.3125 4.1328125Q215.58984 4.4257812 216.05078 4.4257812Q216.56641 4.4257812 216.99219 4.1445312Q217.41797 3.8632812 217.66016 3.3671875Q217.90234 2.8710938 217.90234 2.3164062L217.90234 1.8867188ZM227.76953 5.8007812Q227.73828 5.6835938 227.69531 5.2109375Q227.65234 4.7382812 227.65234 4.4257812L227.62109 4.4257812Q226.91016 5.9570312 224.91797 5.9570312Q223.44141 5.9570312 222.63672 4.8046875Q221.83203 3.6523438 221.83203 1.5820312Q221.83203 -0.51953125 222.67969 -1.6640625Q223.52734 -2.8085938 225.08203 -2.8085938Q225.98047 -2.8085938 226.63281 -2.4335938Q227.28516 -2.0585938 227.63672 -1.3164062L227.65234 -1.3164062L227.63672 -2.7070312L227.63672 -5.7929688L229.83203 -5.7929688L229.83203 3.9570312Q229.83203 4.7382812 229.89453 5.8007812L227.76953 5.8007812ZM227.66797 1.5273438Q227.66797 0.16015625 227.21094 -0.578125Q226.75391 -1.3164062 225.86328 -1.3164062Q224.98047 -1.3164062 224.55078 -0.6015625Q224.12109 0.11328125 224.12109 1.5820312Q224.12109 4.4570312 225.84766 4.4570312Q226.71484 4.4570312 227.19141 3.6953125Q227.66797 2.9335938 227.66797 1.5273438ZM241.43359 -3.4257812L241.43359 5.8007812L239.12891 5.8007812L239.12891 -3.4257812L235.57422 -3.4257812L235.57422 -5.2070312L244.99609 -5.2070312L244.99609 -3.4257812L241.43359 -3.4257812ZM245.40234 5.8007812L245.40234 -0.66796875Q245.40234 -1.3632812 245.38281 -1.828125Q245.36328 -2.2929688 245.33984 -2.6523438L247.43359 -2.6523438Q247.45703 -2.5117188 247.49609 -1.796875Q247.53516 -1.0820312 247.53516 -0.84765625L247.56641 -0.84765625Q247.88672 -1.7382812 248.13672 -2.1015625Q248.38672 -2.4648438 248.73047 -2.640625Q249.07422 -2.8164062 249.58984 -2.8164062Q250.01172 -2.8164062 250.26953 -2.6992188L250.26953 -0.86328125Q249.73828 -0.98046875 249.33203 -0.98046875Q248.51172 -0.98046875 248.05469 -0.31640625Q247.59766 0.34765625 247.59766 1.6523438L247.59766 5.8007812L245.40234 5.8007812ZM255.08984 5.9570312Q253.18359 5.9570312 252.16016 4.828125Q251.13672 3.6992188 251.13672 1.5351562Q251.13672 -0.55859375 252.17578 -1.6835938Q253.21484 -2.8085938 255.12109 -2.8085938Q256.94141 -2.8085938 257.90234 -1.6015625Q258.86328 -0.39453125 258.86328 1.9335938L258.86328 1.9960938L253.44141 1.9960938Q253.44141 3.2304688 253.89844 3.859375Q254.35547 4.4882812 255.19922 4.4882812Q256.36328 4.4882812 256.66797 3.4804688L258.73828 3.6601562Q257.83984 5.9570312 255.08984 5.9570312ZM255.08984 -1.4257812Q254.31641 -1.4257812 253.89844 -0.88671875Q253.48047 -0.34765625 253.45703 0.62109375L256.73828 0.62109375Q256.67578 -0.40234375 256.24609 -0.9140625Q255.81641 -1.4257812 255.08984 -1.4257812ZM266.00391 5.8007812L266.00391 1.0585938Q266.00391 -1.1679688 264.49609 -1.1679688Q263.69922 -1.1679688 263.21094 -0.484375Q262.72266 0.19921875 262.72266 1.2695312L262.72266 5.8007812L260.52734 5.8007812L260.52734 -0.76171875Q260.52734 -1.4414062 260.50781 -1.875Q260.48828 -2.3085938 260.46484 -2.6523438L262.55859 -2.6523438Q262.58203 -2.5039062 262.62109 -1.859375Q262.66016 -1.2148438 262.66016 -0.97265625L262.69141 -0.97265625Q263.13672 -1.9414062 263.80859 -2.3789062Q264.48047 -2.8164062 265.41016 -2.8164062Q266.75391 -2.8164062 267.47266 -1.9882812Q268.19141 -1.1601562 268.19141 0.43359375L268.19141 5.8007812L266.00391 5.8007812ZM275.77734 5.8007812Q275.74609 5.6835938 275.70312 5.2109375Q275.66016 4.7382812 275.66016 4.4257812L275.62891 4.4257812Q274.91797 5.9570312 272.92578 5.9570312Q271.44922 5.9570312 270.64453 4.8046875Q269.83984 3.6523438 269.83984 1.5820312Q269.83984 -0.51953125 270.6875 -1.6640625Q271.53516 -2.8085938 273.08984 -2.8085938Q273.98828 -2.8085938 274.64062 -2.4335938Q275.29297 -2.0585938 275.64453 -1.3164062L275.66016 -1.3164062L275.64453 -2.7070312L275.64453 -5.7929688L277.83984 -5.7929688L277.83984 3.9570312Q277.83984 4.7382812 277.90234 5.8007812L275.77734 5.8007812ZM275.67578 1.5273438Q275.67578 0.16015625 275.21875 -0.578125Q274.76172 -1.3164062 273.87109 -1.3164062Q272.98828 -1.3164062 272.55859 -0.6015625Q272.12891 0.11328125 272.12891 1.5820312Q272.12891 4.4570312 273.85547 4.4570312Q274.72266 4.4570312 275.19922 3.6953125Q275.67578 2.9335938 275.67578 1.5273438ZM287.19922 3.3320312Q287.19922 4.5585938 286.19531 5.2578125Q285.19141 5.9570312 283.41797 5.9570312Q281.67578 5.9570312 280.75 5.40625Q279.82422 4.8554688 279.51953 3.6914062L281.44922 3.4023438Q281.61328 4.0039062 282.01562 4.2539062Q282.41797 4.5039062 283.41797 4.5039062Q284.33984 4.5039062 284.76172 4.2695312Q285.18359 4.0351562 285.18359 3.5351562Q285.18359 3.1289062 284.84375 2.890625Q284.50391 2.6523438 283.69141 2.4882812Q281.83203 2.1210938 281.18359 1.8046875Q280.53516 1.4882812 280.19531 0.984375Q279.85547 0.48046875 279.85547 -0.25390625Q279.85547 -1.4648438 280.78906 -2.140625Q281.72266 -2.8164062 283.43359 -2.8164062Q284.94141 -2.8164062 285.85938 -2.2304688Q286.77734 -1.6445312 287.00391 -0.53515625L285.05859 -0.33203125Q284.96484 -0.84765625 284.59766 -1.1015625Q284.23047 -1.3554688 283.43359 -1.3554688Q282.65234 -1.3554688 282.26172 -1.15625Q281.87109 -0.95703125 281.87109 -0.48828125Q281.87109 -0.12109375 282.17188 0.09375Q282.47266 0.30859375 283.18359 0.44921875Q284.17578 0.65234375 284.94531 0.8671875Q285.71484 1.0820312 286.17969 1.3789062Q286.64453 1.6757812 286.92188 2.140625Q287.19922 2.6054688 287.19922 3.3320312Z"/>
	<path fill="none" stroke="black" stroke-width="1" stroke-miterlimit="10" stroke-opacity="0.10196079" d="M49 749.5L1195 749.5"/>
	<clipPath id="cl_e7">
		<rect y="749.20001" width="1200" height="50.799988"/>
	</clipPath>
	<g clip-path="url(#cl_e7)">
		<path fill="#666" transform="translate(49.75 760.2)" d="M-7.7480469 11.300586L-8.9960938 11.300586L-11.298828 4.960742L-10.173828 4.960742L-8.7792969 9.085742Q-8.703125 9.320117 -8.375 10.474414L-8.1699219 9.788867L-7.9414062 9.0974607L-6.5 4.960742L-5.3808594 4.960742L-7.7480469 11.300586ZM-4.4257812 11.300586L-4.4257812 10.404101L-2.3222656 10.404101L-2.3222656 4.0525389L-4.1855469 5.382617L-4.1855469 4.3865232L-2.234375 3.0447264L-1.2617188 3.0447264L-1.2617188 10.404101L0.74804688 10.404101L0.74804688 11.300586L-4.4257812 11.300586ZM2.4296875 11.300586L2.4296875 10.017383L3.5722656 10.017383L3.5722656 11.300586L2.4296875 11.300586ZM10.873047 7.1697264Q10.873047 9.2380857 10.143555 10.327929Q9.4140625 11.417773 7.9902344 11.417773Q6.5664062 11.417773 5.8515625 10.333789Q5.1367188 9.2498045 5.1367188 7.1697264Q5.1367188 5.0427732 5.8310547 3.9822264Q6.5253906 2.9216795 8.0253906 2.9216795Q9.484375 2.9216795 10.178711 3.9939451Q10.873047 5.0662107 10.873047 7.1697264ZM9.8007812 7.1697264Q9.8007812 5.382617 9.3876953 4.5798826Q8.9746094 3.7771482 8.0253906 3.7771482Q7.0527344 3.7771482 6.6279297 4.5681639Q6.203125 5.3591795 6.203125 7.1697264Q6.203125 8.9275389 6.6337891 9.741992Q7.0644531 10.556445 8.0019531 10.556445Q8.9335938 10.556445 9.3671875 9.7244139Q9.8007812 8.8923826 9.8007812 7.1697264Z"/>
	</g>
	<path fill="none" stroke="black" stroke-width="1" stroke-miterlimit="10" stroke-opacity="0.10196079" d="M49.5 71L49.5 750"/>
	<clipPath id="cl_e9">
		<rect width="49.75" height="800"/>
	</clipPath>
	<g clip-path="url(#cl_e9)">
		<path fill="#666" transform="translate(38.75 749.2)" d="M-0.46679688 -0.030273438Q-0.46679688 2.0380859 -1.1962891 3.1279297Q-1.9257812 4.2177734 -3.3496094 4.2177734Q-4.7734375 4.2177734 -5.4882812 3.1337891Q-6.203125 2.0498047 -6.203125 -0.030273438Q-6.203125 -2.1572266 -5.5087891 -3.2177734Q-4.8144531 -4.2783203 -3.3144531 -4.2783203Q-1.8554688 -4.2783203 -1.1611328 -3.2060547Q-0.46679688 -2.1337891 -0.46679688 -0.030273438ZM-1.5390625 -0.030273438Q-1.5390625 -1.8173828 -1.9521484 -2.6201172Q-2.3652344 -3.4228516 -3.3144531 -3.4228516Q-4.2871094 -3.4228516 -4.7119141 -2.6318359Q-5.1367188 -1.8408203 -5.1367188 -0.030273438Q-5.1367188 1.7275391 -4.7060547 2.5419922Q-4.2753906 3.3564453 -3.3378906 3.3564453Q-2.40625 3.3564453 -1.9726562 2.5244141Q-1.5390625 1.6923828 -1.5390625 -0.030273438Z"/>
	</g>
	<clipPath id="cl_ea">
		<rect width="49.75" height="800"/>
	</clipPath>
	<g clip-path="url(#cl_ea)">
		<path fill="#666" transform="translate(38.75 681.4)" d="M-5.7578125 4.1005859L-5.7578125 3.2041016L-3.6542969 3.2041016L-3.6542969 -3.1474609L-5.5175781 -1.8173828L-5.5175781 -2.8134766L-3.5664062 -4.1552734L-2.59375 -4.1552734L-2.59375 3.2041016L-0.58398438 3.2041016L-0.58398438 4.1005859L-5.7578125 4.1005859Z"/>
	</g>
	<clipPath id="cl_eb">
		<rect width="49.75" height="800"/>
	</clipPath>
	<g clip-path="url(#cl_eb)">
		<path fill="#666" transform="translate(38.75 613.6)" d="M-6.0683594 4.1005859L-6.0683594 3.3564453Q-5.7695312 2.6708984 -5.3388672 2.1464844Q-4.9082031 1.6220703 -4.4335938 1.1972656Q-3.9589844 0.77246094 -3.4931641 0.40917969Q-3.0273438 0.045898438 -2.6523438 -0.31738281Q-2.2773438 -0.68066406 -2.0458984 -1.0791016Q-1.8144531 -1.4775391 -1.8144531 -1.9814453Q-1.8144531 -2.6611328 -2.2128906 -3.0361328Q-2.6113281 -3.4111328 -3.3203125 -3.4111328Q-3.9941406 -3.4111328 -4.4306641 -3.0449219Q-4.8671875 -2.6787109 -4.9433594 -2.0166016L-6.0214844 -2.1162109Q-5.9042969 -3.1064453 -5.1806641 -3.6923828Q-4.4570312 -4.2783203 -3.3203125 -4.2783203Q-2.0722656 -4.2783203 -1.4013672 -3.6894531Q-0.73046875 -3.1005859 -0.73046875 -2.0166016Q-0.73046875 -1.5361328 -0.95019531 -1.0615234Q-1.1699219 -0.58691406 -1.6035156 -0.11230469Q-2.0371094 0.36230469 -3.2617188 1.3583984Q-3.9355469 1.9091797 -4.3339844 2.3515625Q-4.7324219 2.7939453 -4.9082031 3.2041016L-0.6015625 3.2041016L-0.6015625 4.1005859L-6.0683594 4.1005859Z"/>
	</g>
	<clipPath id="cl_ec">
		<rect width="49.75" height="800"/>
	</clipPath>
	<g clip-path="url(#cl_ec)">
		<path fill="#666" transform="translate(38.75 545.8)" d="M-0.52539062 1.8212891Q-0.52539062 2.9638672 -1.2519531 3.5908203Q-1.9785156 4.2177734 -3.3261719 4.2177734Q-4.5800781 4.2177734 -5.3271484 3.6523438Q-6.0742188 3.0869141 -6.2148438 1.9794922L-5.125 1.8798828Q-4.9140625 3.3447266 -3.3261719 3.3447266Q-2.5292969 3.3447266 -2.0751953 2.9521484Q-1.6210938 2.5595703 -1.6210938 1.7861328Q-1.6210938 1.1123047 -2.1396484 0.734375Q-2.6582031 0.35644531 -3.6367188 0.35644531L-4.234375 0.35644531L-4.234375 -0.55761719L-3.6601562 -0.55761719Q-2.7929688 -0.55761719 -2.3154297 -0.93554688Q-1.8378906 -1.3134766 -1.8378906 -1.9814453Q-1.8378906 -2.6435547 -2.2275391 -3.0273438Q-2.6171875 -3.4111328 -3.3847656 -3.4111328Q-4.0820312 -3.4111328 -4.5126953 -3.0537109Q-4.9433594 -2.6962891 -5.0136719 -2.0458984L-6.0742188 -2.1279297Q-5.9570312 -3.1416016 -5.2333984 -3.7099609Q-4.5097656 -4.2783203 -3.3730469 -4.2783203Q-2.1308594 -4.2783203 -1.4423828 -3.7011719Q-0.75390625 -3.1240234 -0.75390625 -2.0927734Q-0.75390625 -1.3017578 -1.1962891 -0.80664062Q-1.6386719 -0.31152344 -2.4824219 -0.13574219L-2.4824219 -0.11230469Q-1.5566406 -0.012695312 -1.0410156 0.50878906Q-0.52539062 1.0302734 -0.52539062 1.8212891Z"/>
	</g>
	<clipPath id="cl_ed">
		<rect width="49.75" height="800"/>
	</clipPath>
	<g clip-path="url(#cl_ed)">
		<path fill="#666" transform="translate(38.75 478)" d="M-1.5097656 2.2314453L-1.5097656 4.1005859L-2.5058594 4.1005859L-2.5058594 2.2314453L-6.3964844 2.2314453L-6.3964844 1.4111328L-2.6171875 -4.1552734L-1.5097656 -4.1552734L-1.5097656 1.3994141L-0.34960938 1.3994141L-0.34960938 2.2314453L-1.5097656 2.2314453ZM-2.5058594 -2.9658203Q-2.5175781 -2.9306641 -2.6699219 -2.6552734Q-2.8222656 -2.3798828 -2.8984375 -2.2685547L-5.0136719 0.84863281L-5.3300781 1.2822266L-5.4238281 1.3994141L-2.5058594 1.3994141L-2.5058594 -2.9658203Z"/>
	</g>
	<clipPath id="cl_ee">
		<rect width="49.75" height="800"/>
	</clipPath>
	<g clip-path="url(#cl_ee)">
		<path fill="#666" transform="translate(38.75 410.2)" d="M-0.50195312 1.4111328Q-0.50195312 2.7177734 -1.2783203 3.4677734Q-2.0546875 4.2177734 -3.4316406 4.2177734Q-4.5859375 4.2177734 -5.2949219 3.7138672Q-6.0039062 3.2099609 -6.1914062 2.2548828L-5.125 2.1318359Q-4.7910156 3.3564453 -3.4082031 3.3564453Q-2.5585938 3.3564453 -2.078125 2.84375Q-1.5976562 2.3310547 -1.5976562 1.4345703Q-1.5976562 0.65527344 -2.0810547 0.17480469Q-2.5644531 -0.30566406 -3.3847656 -0.30566406Q-3.8125 -0.30566406 -4.1816406 -0.17089844Q-4.5507812 -0.036132812 -4.9199219 0.28613281L-5.9511719 0.28613281L-5.6757812 -4.1552734L-0.98242188 -4.1552734L-0.98242188 -3.2587891L-4.7148438 -3.2587891L-4.8730469 -0.63964844Q-4.1875 -1.1669922 -3.1679688 -1.1669922Q-1.9492188 -1.1669922 -1.2255859 -0.45214844Q-0.50195312 0.26269531 -0.50195312 1.4111328Z"/>
	</g>
	<clipPath id="cl_ef">
		<rect width="49.75" height="800"/>
	</clipPath>
	<g clip-path="url(#cl_ef)">
		<path fill="#666" transform="translate(38.75 342.4)" d="M-0.52539062 1.3994141Q-0.52539062 2.7060547 -1.234375 3.4619141Q-1.9433594 4.2177734 -3.1914062 4.2177734Q-4.5859375 4.2177734 -5.3242188 3.1806641Q-6.0625 2.1435547 -6.0625 0.16308594Q-6.0625 -1.9814453 -5.2949219 -3.1298828Q-4.5273438 -4.2783203 -3.109375 -4.2783203Q-1.2402344 -4.2783203 -0.75390625 -2.5966797L-1.7617188 -2.4150391Q-2.0722656 -3.4228516 -3.1210938 -3.4228516Q-4.0234375 -3.4228516 -4.5185547 -2.5820312Q-5.0136719 -1.7412109 -5.0136719 -0.14746094Q-4.7265625 -0.68066406 -4.2050781 -0.95898438Q-3.6835938 -1.2373047 -3.0097656 -1.2373047Q-1.8671875 -1.2373047 -1.1962891 -0.52246094Q-0.52539062 0.19238281 -0.52539062 1.3994141ZM-1.5976562 1.4462891Q-1.5976562 0.54980469 -2.0371094 0.063476562Q-2.4765625 -0.42285156 -3.2617188 -0.42285156Q-4 -0.42285156 -4.4541016 0.0078125Q-4.9082031 0.43847656 -4.9082031 1.1943359Q-4.9082031 2.1494141 -4.4365234 2.7587891Q-3.9648438 3.3681641 -3.2265625 3.3681641Q-2.4648438 3.3681641 -2.03125 2.8554688Q-1.5976562 2.3427734 -1.5976562 1.4462891Z"/>
	</g>
	<clipPath id="cl_f0">
		<rect width="49.75" height="800"/>
	</clipPath>
	<g clip-path="url(#cl_f0)">
		<path fill="#666" transform="translate(38.75 274.6)" d="M-0.6015625 -3.2998047Q-1.8671875 -1.3662109 -2.3886719 -0.27050781Q-2.9101562 0.82519531 -3.1708984 1.8916016Q-3.4316406 2.9580078 -3.4316406 4.1005859L-4.5332031 4.1005859Q-4.5332031 2.5185547 -3.8623047 0.76953125Q-3.1914062 -0.97949219 -1.6210938 -3.2587891L-6.0566406 -3.2587891L-6.0566406 -4.1552734L-0.6015625 -4.1552734L-0.6015625 -3.2998047Z"/>
	</g>
	<clipPath id="cl_f1">
		<rect width="49.75" height="800"/>
	</clipPath>
	<g clip-path="url(#cl_f1)">
		<path fill="#666" transform="translate(38.75 206.8)" d="M-0.51953125 1.7978516Q-0.51953125 2.9404297 -1.2460938 3.5791016Q-1.9726562 4.2177734 -3.3320312 4.2177734Q-4.65625 4.2177734 -5.4033203 3.5908203Q-6.1503906 2.9638672 -6.1503906 1.8095703Q-6.1503906 1.0009766 -5.6875 0.45019531Q-5.2246094 -0.10058594 -4.5039062 -0.21777344L-4.5039062 -0.24121094Q-5.1777344 -0.39941406 -5.5673828 -0.92675781Q-5.9570312 -1.4541016 -5.9570312 -2.1630859Q-5.9570312 -3.1064453 -5.2509766 -3.6923828Q-4.5449219 -4.2783203 -3.3554688 -4.2783203Q-2.1367188 -4.2783203 -1.4306641 -3.7041016Q-0.72460938 -3.1298828 -0.72460938 -2.1513672Q-0.72460938 -1.4423828 -1.1171875 -0.91503906Q-1.5097656 -0.38769531 -2.1894531 -0.25292969L-2.1894531 -0.22949219Q-1.3984375 -0.10058594 -0.95898438 0.44140625Q-0.51953125 0.98339844 -0.51953125 1.7978516ZM-1.8203125 -2.0927734Q-1.8203125 -3.4931641 -3.3554688 -3.4931641Q-4.0996094 -3.4931641 -4.4892578 -3.1416016Q-4.8789062 -2.7900391 -4.8789062 -2.0927734Q-4.8789062 -1.3837891 -4.4775391 -1.0117188Q-4.0761719 -0.63964844 -3.34375 -0.63964844Q-2.5996094 -0.63964844 -2.2099609 -0.98242188Q-1.8203125 -1.3251953 -1.8203125 -2.0927734ZM-1.6152344 1.6982422Q-1.6152344 0.93066406 -2.0722656 0.54101562Q-2.5292969 0.15136719 -3.3554688 0.15136719Q-4.1582031 0.15136719 -4.609375 0.5703125Q-5.0605469 0.98925781 -5.0605469 1.7216797Q-5.0605469 3.4267578 -3.3203125 3.4267578Q-2.4589844 3.4267578 -2.0371094 3.0136719Q-1.6152344 2.6005859 -1.6152344 1.6982422Z"/>
	</g>
	<clipPath id="cl_f2">
		<rect width="49.75" height="800"/>
	</clipPath>
	<g clip-path="url(#cl_f2)">
		<path fill="#666" transform="translate(38.75 139)" d="M-0.56640625 -0.19433594Q-0.56640625 1.9326172 -1.3427734 3.0751953Q-2.1191406 4.2177734 -3.5546875 4.2177734Q-4.5214844 4.2177734 -5.1044922 3.8105469Q-5.6875 3.4033203 -5.9394531 2.4951172L-4.9316406 2.3369141Q-4.6152344 3.3681641 -3.5371094 3.3681641Q-2.6289062 3.3681641 -2.1308594 2.5244141Q-1.6328125 1.6806641 -1.609375 0.11621094Q-1.84375 0.64355469 -2.4121094 0.96289062Q-2.9804688 1.2822266 -3.6601562 1.2822266Q-4.7734375 1.2822266 -5.4414062 0.52050781Q-6.109375 -0.24121094 -6.109375 -1.5009766Q-6.109375 -2.7958984 -5.3828125 -3.5371094Q-4.65625 -4.2783203 -3.3613281 -4.2783203Q-1.984375 -4.2783203 -1.2753906 -3.2587891Q-0.56640625 -2.2392578 -0.56640625 -0.19433594ZM-1.7148438 -1.2138672Q-1.7148438 -2.2099609 -2.171875 -2.8164062Q-2.6289062 -3.4228516 -3.3964844 -3.4228516Q-4.1582031 -3.4228516 -4.5976562 -2.9042969Q-5.0371094 -2.3857422 -5.0371094 -1.5009766Q-5.0371094 -0.59863281 -4.5976562 -0.07421875Q-4.1582031 0.45019531 -3.4082031 0.45019531Q-2.9511719 0.45019531 -2.5585938 0.2421875Q-2.1660156 0.034179688 -1.9404297 -0.34667969Q-1.7148438 -0.72753906 -1.7148438 -1.2138672Z"/>
	</g>
	<clipPath id="cl_f3">
		<rect width="49.75" height="800"/>
	</clipPath>
	<g clip-path="url(#cl_f3)">
		<path fill="#666" transform="translate(38.75 71.2)" d="M-12.429688 4.1005859L-12.429688 3.2041016L-10.326172 3.2041016L-10.326172 -3.1474609L-12.189453 -1.8173828L-12.189453 -2.8134766L-10.238281 -4.1552734L-9.265625 -4.1552734L-9.265625 3.2041016L-7.2558594 3.2041016L-7.2558594 4.1005859L-12.429688 4.1005859ZM-0.46484375 -0.030273438Q-0.46484375 2.0380859 -1.1943359 3.1279297Q-1.9238281 4.2177734 -3.3476562 4.2177734Q-4.7714844 4.2177734 -5.4863281 3.1337891Q-6.2011719 2.0498047 -6.2011719 -0.030273438Q-6.2011719 -2.1572266 -5.5068359 -3.2177734Q-4.8125 -4.2783203 -3.3125 -4.2783203Q-1.8535156 -4.2783203 -1.1591797 -3.2060547Q-0.46484375 -2.1337891 -0.46484375 -0.030273438ZM-1.5371094 -0.030273438Q-1.5371094 -1.8173828 -1.9501953 -2.6201172Q-2.3632812 -3.4228516 -3.3125 -3.4228516Q-4.2851562 -3.4228516 -4.7099609 -2.6318359Q-5.1347656 -1.8408203 -5.1347656 -0.030273438Q-5.1347656 1.7275391 -4.7041016 2.5419922Q-4.2734375 3.3564453 -3.3359375 3.3564453Q-2.4042969 3.3564453 -1.9707031 2.5244141Q-1.5371094 1.6923828 -1.5371094 -0.030273438Z"/>
	</g>
	<clipPath id="cl_f5">
		<rect x="43.75" y="65.199997" width="1156.25" height="690"/>
	</clipPath>
	<g clip-path="url(#cl_f5)">
		<path fill="none" stroke="#C32222" stroke-width="2" stroke-miterlimit="10" d=""/>
	</g>
	<clipPath id="cl_f6">
		<rect x="43.75" y="65.199997" width="1156.25" height="690"/>
	</clipPath>
	<g clip-path="url(#cl_f6)">
		<path fill="#C32222" fill-opacity="0.2" d="M52.75 478Q52.75 478.1474 52.73555 478.29407Q52.721107 478.44073 52.692352 478.58524Q52.663601 478.7298 52.620815 478.87085Q52.578033 479.01187 52.521633 479.14801Q52.465233 479.28418 52.39576 479.41415Q52.326286 479.54413 52.244404 479.66663Q52.162525 479.78922 52.069027 479.90314Q51.975533 480.01709 51.871319 480.12128Q51.767105 480.22552 51.653179 480.31903Q51.539253 480.41251 51.416706 480.49435Q51.294167 480.57626 51.164188 480.64572Q51.03421 480.71521 50.898048 480.77158Q50.76189 480.828 50.620857 480.87079Q50.47982 480.91357 50.33527 480.94232Q50.19072 480.97113 50.044052 480.98557Q49.897381 481 49.75 481Q49.602619 481 49.455948 480.98553Q49.309277 480.97113 49.164726 480.94232Q49.02018 480.91357 48.879143 480.87079Q48.73811 480.828 48.601944 480.77158Q48.465782 480.71521 48.335808 480.64575Q48.205826 480.57626 48.083282 480.49435Q47.960747 480.41251 47.846817 480.319Q47.732895 480.22552 47.628677 480.12128Q47.524467 480.01709 47.430969 479.90317Q47.337471 479.78925 47.255585 479.66666Q47.173706 479.54413 47.104233 479.41415Q47.03476 479.28418 46.978359 479.14801Q46.921963 479.01187 46.879177 478.87085Q46.836395 478.7298 46.80764 478.58524Q46.778893 478.44073 46.76445 478.29407Q46.75 478.1474 46.75 478Q46.75 477.85263 46.76445 477.70593Q46.778896 477.55927 46.807648 477.4147Q46.836403 477.27017 46.879181 477.12912Q46.921963 476.9881 46.978359 476.8519Q47.03476 476.71576 47.104233 476.58578Q47.173706 476.45581 47.255585 476.33325Q47.337471 476.21075 47.430969 476.09683Q47.524467 475.98291 47.628677 475.87866Q47.732895 475.77448 47.846817 475.68097Q47.960747 475.58746 48.083282 475.50555Q48.205826 475.42371 48.335808 475.35425Q48.465782 475.28476 48.601944 475.22833Q48.73811 475.17197 48.879143 475.12918Q49.02018 475.08643 49.164726 475.05765Q49.309277 475.02893 49.455948 475.01447Q49.602619 475.00003 49.75 475Q49.897381 475.00003 50.044052 475.01447Q50.19072 475.0289 50.335266 475.05762Q50.479816 475.0864 50.620853 475.12915Q50.761887 475.17197 50.898045 475.22833Q51.03421 475.28476 51.164188 475.35422Q51.294167 475.42371 51.416706 475.50555Q51.539253 475.58746 51.653179 475.681Q51.767105 475.77448 51.871315 475.87866Q51.975533 475.98291 52.069023 476.09683Q52.162521 476.21075 52.2444 476.33328Q52.326279 476.45581 52.395756 476.58578Q52.465233 476.71576 52.521633 476.8519Q52.578033 476.9881 52.620815 477.12912Q52.663597 477.27014 52.692348 477.41467Q52.721107 477.55927 52.73555 477.70596Q52.75 477.85263 52.75 478Z"/>
		<path fill="none" stroke="#C32222" stroke-width="2" stroke-miterlimit="10" d="M52.75 478Q52.75 478.1474 52.73555 478.29407Q52.721107 478.44073 52.692352 478.58524Q52.663601 478.7298 52.620815 478.87085Q52.578033 479.01187 52.521633 479.14801Q52.465233 479.28418 52.39576 479.41415Q52.326286 479.54413 52.244404 479.66663Q52.162525 479.78922 52.069027 479.90314Q51.975533 480.01709 51.871319 480.12128Q51.767105 480.22552 51.653179 480.31903Q51.539253 480.41251 51.416706 480.49435Q51.294167 480.57626 51.164188 480.64572Q51.03421 480.71521 50.898048 480.77158Q50.76189 480.828 50.620857 480.87079Q50.47982 480.91357 50.33527 480.94232Q50.19072 480.97113 50.044052 480.98557Q49.897381 481 49.75 481Q49.602619 481 49.455948 480.98553Q49.309277 480.97113 49.164726 480.94232Q49.02018 480.91357 48.879143 480.87079Q48.73811 480.828 48.601944 480.77158Q48.465782 480.71521 48.335808 480.64575Q48.205826 480.57626 48.083282 480.49435Q47.960747 480.41251 47.846817 480.319Q47.732895 480.22552 47.628677 480.12128Q47.524467 480.01709 47.430969 479.90317Q47.337471 479.78925 47.255585 479.66666Q47.173706 479.54413 47.104233 479.41415Q47.03476 479.28418 46.978359 479.14801Q46.921963 479.01187 46.879177 478.87085Q46.836395 478.7298 46.80764 478.58524Q46.778893 478.44073 46.76445 478.29407Q46.75 478.1474 46.75 478Q46.75 477.85263 46.76445 477.70593Q46.778896 477.55927 46.807648 477.4147Q46.836403 477.27017 46.879181 477.12912Q46.921963 476.9881 46.978359 476.8519Q47.03476 476.71576 47.104233 476.58578Q47.173706 476.45581 47.255585 476.33325Q47.337471 476.21075 47.430969 476.09683Q47.524467 475.98291 47.628677 475.87866Q47.732895 475.77448 47.846817 475.68097Q47.960747 475.58746 48.083282 475.50555Q48.205826 475.42371 48.335808 475.35425Q48.465782 475.28476 48.601944 475.22833Q48.73811 475.17197 48.879143 475.12918Q49.02018 475.08643 49.164726 475.05765Q49.309277 475.02893 49.455948 475.01447Q49.602619 475.00003 49.75 475Q49.897381 475.00003 50.044052 475.01447Q50.19072 475.0289 50.335266 475.05762Q50.479816 475.0864 50.620853 475.12915Q50.761887 475.17197 50.898045 475.22833Q51.03421 475.28476 51.164188 475.35422Q51.294167 475.42371 51.416706 475.50555Q51.539253 475.58746 51.653179 475.681Q51.767105 475.77448 51.871315 475.87866Q51.975533 475.98291 52.069023 476.09683Q52.162521 476.21075 52.2444 476.33328Q52.326279 476.45581 52.395756 476.58578Q52.465233 476.71576 52.521633 476.8519Q52.578033 476.9881 52.620815 477.12912Q52.663597 477.27014 52.692348 477.41467Q52.721107 477.55927 52.73555 477.70596Q52.75 477.85263 52.75 478Z"/>
	</g>
</svg>
