<?xml version="1.0" encoding="utf-8" ?>
<svg xmlns="http://www.w3.org/2000/svg" xmlns:xlink="http://www.w3.org/1999/xlink" width="1200" height="800">
	<rect fill="white" width="1200" height="800"/>
	<path fill="none" stroke="black" stroke-width="1" stroke-miterlimit="10" stroke-opacity="0.10196079" d="M49.5 71.199997L49.5 749"/>
	<path fill="none" stroke="black" stroke-width="1" stroke-miterlimit="10" stroke-opacity="0.10196079" d="M49.5 750L49.5 757.20001"/>
	<path fill="#666" transform="translate(621.875 788.8)" d="M-26.550781 4.1005859L-28.695312 0.67285156L-31.267578 0.67285156L-31.267578 4.1005859L-32.386719 4.1005859L-32.386719 -4.1552734L-28.501953 -4.1552734Q-27.107422 -4.1552734 -26.348633 -3.53125Q-25.589844 -2.9072266 -25.589844 -1.7939453Q-25.589844 -0.87402344 -26.125977 -0.24707031Q-26.662109 0.37988281 -27.605469 0.54394531L-25.261719 4.1005859L-26.550781 4.1005859ZM-26.714844 -1.7822266Q-26.714844 -2.5029297 -27.204102 -2.8808594Q-27.693359 -3.2587891 -28.613281 -3.2587891L-31.267578 -3.2587891L-31.267578 -0.21191406L-28.566406 -0.21191406Q-27.681641 -0.21191406 -27.198242 -0.625Q-26.714844 -1.0380859 -26.714844 -1.7822266ZM-23.087891 1.1533203Q-23.087891 2.2431641 -22.636719 2.8349609Q-22.185547 3.4267578 -21.318359 3.4267578Q-20.632812 3.4267578 -20.219727 3.1513672Q-19.806641 2.8759766 -19.660156 2.4541016L-18.734375 2.7177734Q-19.302734 4.2177734 -21.318359 4.2177734Q-22.724609 4.2177734 -23.459961 3.3798828Q-24.195312 2.5419922 -24.195312 0.88964844Q-24.195312 -0.68066406 -23.459961 -1.5185547Q-22.724609 -2.3564453 -21.359375 -2.3564453Q-18.564453 -2.3564453 -18.564453 1.0126953L-18.564453 1.1533203L-23.087891 1.1533203ZM-19.654297 0.34472656Q-19.742188 -0.65722656 -20.164062 -1.1171875Q-20.585938 -1.5771484 -21.376953 -1.5771484Q-22.144531 -1.5771484 -22.592773 -1.0644531Q-23.041016 -0.55175781 -23.076172 0.34472656L-19.654297 0.34472656ZM-17.222656 4.1005859L-17.222656 -4.5947266L-16.167969 -4.5947266L-16.167969 4.1005859L-17.222656 4.1005859ZM-13.748047 1.1533203Q-13.748047 2.2431641 -13.296875 2.8349609Q-12.845703 3.4267578 -11.978516 3.4267578Q-11.292969 3.4267578 -10.879883 3.1513672Q-10.466797 2.8759766 -10.320312 2.4541016L-9.3945312 2.7177734Q-9.9628906 4.2177734 -11.978516 4.2177734Q-13.384766 4.2177734 -14.120117 3.3798828Q-14.855469 2.5419922 -14.855469 0.88964844Q-14.855469 -0.68066406 -14.120117 -1.5185547Q-13.384766 -2.3564453 -12.019531 -2.3564453Q-9.2246094 -2.3564453 -9.2246094 1.0126953L-9.2246094 1.1533203L-13.748047 1.1533203ZM-10.314453 0.34472656Q-10.402344 -0.65722656 -10.824219 -1.1171875Q-11.246094 -1.5771484 -12.037109 -1.5771484Q-12.804688 -1.5771484 -13.25293 -1.0644531Q-13.701172 -0.55175781 -13.736328 0.34472656L-10.314453 0.34472656ZM-6.265625 4.2177734Q-7.2207031 4.2177734 -7.7011719 3.7138672Q-8.1816406 3.2099609 -8.1816406 2.3310547Q-8.1816406 1.3466797 -7.5341797 0.81933594Q-6.8867188 0.29199219 -5.4453125 0.25683594L-4.0214844 0.23339844L-4.0214844 -0.11230469Q-4.0214844 -0.88574219 -4.3496094 -1.2197266Q-4.6777344 -1.5537109 -5.3808594 -1.5537109Q-6.0898438 -1.5537109 -6.4121094 -1.3134766Q-6.734375 -1.0732422 -6.7988281 -0.54589844L-7.9003906 -0.64550781Q-7.6308594 -2.3564453 -5.3574219 -2.3564453Q-4.1621094 -2.3564453 -3.5585938 -1.8085938Q-2.9550781 -1.2607422 -2.9550781 -0.22363281L-2.9550781 2.5068359Q-2.9550781 2.9755859 -2.8320312 3.2128906Q-2.7089844 3.4501953 -2.3632812 3.4501953Q-2.2109375 3.4501953 -2.0175781 3.4091797L-2.0175781 4.0654297Q-2.4160156 4.1591797 -2.8320312 4.1591797Q-3.4179688 4.1591797 -3.6845703 3.8515625Q-3.9511719 3.5439453 -3.9863281 2.8876953L-4.0214844 2.8876953Q-4.4257812 3.6142578 -4.9619141 3.9160156Q-5.4980469 4.2177734 -6.265625 4.2177734ZM-6.0253906 3.4267578Q-5.4453125 3.4267578 -4.9941406 3.1630859Q-4.5429688 2.8994141 -4.2822266 2.4394531Q-4.0214844 1.9794922 -4.0214844 1.4931641L-4.0214844 0.97167969L-5.1757812 0.99511719Q-5.9199219 1.0068359 -6.3037109 1.1474609Q-6.6875 1.2880859 -6.8925781 1.5810547Q-7.0976562 1.8740234 -7.0976562 2.3486328Q-7.0976562 2.8642578 -6.8193359 3.1455078Q-6.5410156 3.4267578 -6.0253906 3.4267578ZM3.5488281 2.3486328Q3.5488281 3.2451172 2.8720703 3.7314453Q2.1953125 4.2177734 0.9765625 4.2177734Q-0.20703125 4.2177734 -0.84863281 3.828125Q-1.4902344 3.4384766 -1.6835938 2.6123047L-0.75195312 2.4306641Q-0.6171875 2.9404297 -0.1953125 3.1777344Q0.2265625 3.4150391 0.9765625 3.4150391Q1.7792969 3.4150391 2.1513672 3.1689453Q2.5234375 2.9228516 2.5234375 2.4306641Q2.5234375 2.0556641 2.265625 1.8212891Q2.0078125 1.5869141 1.4335938 1.4345703L0.67773438 1.2353516Q-0.23046875 1.0009766 -0.61425781 0.77539062Q-0.99804688 0.54980469 -1.2148438 0.22753906Q-1.4316406 -0.094726562 -1.4316406 -0.56347656Q-1.4316406 -1.4306641 -0.81347656 -1.8847656Q-0.1953125 -2.3388672 0.98828125 -2.3388672Q2.0371094 -2.3388672 2.6552734 -1.9697266Q3.2734375 -1.6005859 3.4375 -0.78613281L2.4882812 -0.66894531Q2.4003906 -1.0908203 2.0166016 -1.3164062Q1.6328125 -1.5419922 0.98828125 -1.5419922Q0.2734375 -1.5419922 -0.06640625 -1.3251953Q-0.40625 -1.1083984 -0.40625 -0.66894531Q-0.40625 -0.39941406 -0.265625 -0.22363281Q-0.125 -0.047851562 0.15039062 0.075195312Q0.42578125 0.19824219 1.3105469 0.41503906Q2.1484375 0.62597656 2.5175781 0.8046875Q2.8867188 0.98339844 3.1005859 1.2001953Q3.3144531 1.4169922 3.4316406 1.7011719Q3.5488281 1.9853516 3.5488281 2.3486328ZM5.5996094 1.1533203Q5.5996094 2.2431641 6.0507812 2.8349609Q6.5019531 3.4267578 7.3691406 3.4267578Q8.0546875 3.4267578 8.4677734 3.1513672Q8.8808594 2.8759766 9.0273438 2.4541016L9.953125 2.7177734Q9.3847656 4.2177734 7.3691406 4.2177734Q5.9628906 4.2177734 5.2275391 3.3798828Q4.4921875 2.5419922 4.4921875 0.88964844Q4.4921875 -0.68066406 5.2275391 -1.5185547Q5.9628906 -2.3564453 7.328125 -2.3564453Q10.123047 -2.3564453 10.123047 1.0126953L10.123047 1.1533203L5.5996094 1.1533203ZM9.0332031 0.34472656Q8.9453125 -0.65722656 8.5234375 -1.1171875Q8.1015625 -1.5771484 7.3105469 -1.5771484Q6.5429688 -1.5771484 6.0947266 -1.0644531Q5.6464844 -0.55175781 5.6113281 0.34472656L9.0332031 0.34472656ZM17.992188 -3.2412109L17.992188 4.1005859L16.878906 4.1005859L16.878906 -3.2412109L14.042969 -3.2412109L14.042969 -4.1552734L20.828125 -4.1552734L20.828125 -3.2412109L17.992188 -3.2412109ZM22.199219 4.2177734Q21.244141 4.2177734 20.763672 3.7138672Q20.283203 3.2099609 20.283203 2.3310547Q20.283203 1.3466797 20.930664 0.81933594Q21.578125 0.29199219 23.019531 0.25683594L24.443359 0.23339844L24.443359 -0.11230469Q24.443359 -0.88574219 24.115234 -1.2197266Q23.787109 -1.5537109 23.083984 -1.5537109Q22.375 -1.5537109 22.052734 -1.3134766Q21.730469 -1.0732422 21.666016 -0.54589844L20.564453 -0.64550781Q20.833984 -2.3564453 23.107422 -2.3564453Q24.302734 -2.3564453 24.90625 -1.8085938Q25.509766 -1.2607422 25.509766 -0.22363281L25.509766 2.5068359Q25.509766 2.9755859 25.632812 3.2128906Q25.755859 3.4501953 26.101562 3.4501953Q26.253906 3.4501953 26.447266 3.4091797L26.447266 4.0654297Q26.048828 4.1591797 25.632812 4.1591797Q25.046875 4.1591797 24.780273 3.8515625Q24.513672 3.5439453 24.478516 2.8876953L24.443359 2.8876953Q24.039062 3.6142578 23.50293 3.9160156Q22.966797 4.2177734 22.199219 4.2177734ZM22.439453 3.4267578Q23.019531 3.4267578 23.470703 3.1630859Q23.921875 2.8994141 24.182617 2.4394531Q24.443359 1.9794922 24.443359 1.4931641L24.443359 0.97167969L23.289062 0.99511719Q22.544922 1.0068359 22.161133 1.1474609Q21.777344 1.2880859 21.572266 1.5810547Q21.367188 1.8740234 21.367188 2.3486328Q21.367188 2.8642578 21.645508 3.1455078Q21.923828 3.4267578 22.439453 3.4267578ZM29.658203 6.5908203Q28.621094 6.5908203 28.005859 6.1835938Q27.390625 5.7763672 27.214844 5.0263672L28.275391 4.8740234Q28.380859 5.3134766 28.741211 5.5507812Q29.101562 5.7880859 29.6875 5.7880859Q31.263672 5.7880859 31.263672 3.9423828L31.263672 2.9228516L31.251953 2.9228516Q30.953125 3.5322266 30.431641 3.8398438Q29.910156 4.1474609 29.212891 4.1474609Q28.046875 4.1474609 27.499023 3.3740234Q26.951172 2.6005859 26.951172 0.94238281Q26.951172 -0.73925781 27.540039 -1.5390625Q28.128906 -2.3388672 29.330078 -2.3388672Q30.003906 -2.3388672 30.499023 -2.03125Q30.994141 -1.7236328 31.263672 -1.1552734L31.275391 -1.1552734Q31.275391 -1.3310547 31.298828 -1.7646484Q31.322266 -2.1982422 31.345703 -2.2392578L32.347656 -2.2392578Q32.3125 -1.9228516 32.3125 -0.92675781L32.3125 3.9189453Q32.3125 6.5908203 29.658203 6.5908203ZM31.263672 0.93066406Q31.263672 0.15722656 31.052734 -0.40234375Q30.841797 -0.96191406 30.458008 -1.2578125Q30.074219 -1.5537109 29.587891 -1.5537109Q28.779297 -1.5537109 28.410156 -0.96777344Q28.041016 -0.38183594 28.041016 0.93066406Q28.041016 2.2314453 28.386719 2.7998047Q28.732422 3.3681641 29.570312 3.3681641Q30.068359 3.3681641 30.455078 3.0751953Q30.841797 2.7822266 31.052734 2.234375Q31.263672 1.6865234 31.263672 0.93066406Z"/>
	<path fill="none" stroke="black" stroke-width="1" stroke-miterlimit="10" stroke-opacity="0.10196079" d="M50 749.5L1194 749.5"/>
	<path fill="none" stroke="black" stroke-width="1" stroke-miterlimit="10" stroke-opacity="0.10196079" d="M41.75 749.5L49 749.5"/>
	<path fill="none" stroke="black" stroke-width="1" stroke-miterlimit="10" stroke-opacity="0.10196079" d="M50 681.5L1194 681.5"/>
	<path fill="none" stroke="black" stroke-width="1" stroke-miterlimit="10" stroke-opacity="0.10196079" d="M41.75 681.5L49 681.5"/>
	<path fill="none" stroke="black" stroke-width="1" stroke-miterlimit="10" stroke-opacity="0.10196079" d="M50 613.5L1194 613.5"/>
	<path fill="none" stroke="black" stroke-width="1" stroke-miterlimit="10" stroke-opacity="0.10196079" d="M41.75 613.5L49 613.5"/>
	<path fill="none" stroke="black" stroke-width="1" stroke-miterlimit="10" stroke-opacity="0.10196079" d="M50 545.5L1194 545.5"/>
	<path fill="none" stroke="black" stroke-width="1" stroke-miterlimit="10" stroke-opacity="0.10196079" d="M41.75 545.5L49 545.5"/>
	<path fill="none" stroke="black" stroke-width="1" stroke-miterlimit="10" stroke-opacity="0.10196079" d="M50 478.5L1194 478.5"/>
	<path fill="none" stroke="black" stroke-width="1" stroke-miterlimit="10" stroke-opacity="0.10196079" d="M41.75 478.5L49 478.5"/>
	<path fill="none" stroke="black" stroke-width="1" stroke-miterlimit="10" stroke-opacity="0.10196079" d="M50 410.5L1194 410.5"/>
	<path fill="none" stroke="black" stroke-width="1" stroke-miterlimit="10" stroke-opacity="0.10196079" d="M41.75 410.5L49 410.5"/>
	<path fill="none" stroke="black" stroke-width="1" stroke-miterlimit="10" stroke-opacity="0.10196079" d="M50 342.5L1194 342.5"/>
	<path fill="none" stroke="black" stroke-width="1" stroke-miterlimit="10" stroke-opacity="0.10196079" d="M41.75 342.5L49 342.5"/>
	<path fill="none" stroke="black" stroke-width="1" stroke-miterlimit="10" stroke-opacity="0.10196079" d="M50 274.5L1194 274.5"/>
	<path fill="none" stroke="black" stroke-width="1" stroke-miterlimit="10" stroke-opacity="0.10196079" d="M41.75 274.5L49 274.5"/>
	<path fill="none" stroke="black" stroke-width="1" stroke-miterlimit="10" stroke-opacity="0.10196079" d="M50 206.5L1194 206.5"/>
	<path fill="none" stroke="black" stroke-width="1" stroke-miterlimit="10" stroke-opacity="0.10196079" d="M41.75 206.5L49 206.5"/>
	<path fill="none" stroke="black" stroke-width="1" stroke-miterlimit="10" stroke-opacity="0.10196079" d="M50 139.5L1194 139.5"/>
	<path fill="none" stroke="black" stroke-width="1" stroke-miterlimit="10" stroke-opacity="0.10196079" d="M41.75 139.5L49 139.5"/>
	<path fill="none" stroke="black" stroke-width="1" stroke-miterlimit="10" stroke-opacity="0.10196079" d="M50 71.5L1194 71.5"/>
	<path fill="none" stroke="black" stroke-width="1" stroke-miterlimit="10" stroke-opacity="0.10196079" d="M41.75 71.5L49 71.5"/>
	<path fill="#666" transform="matrix(0 -1 1 0 11.2 410.2)" d="M-21.591797 -0.11230469Q-21.591797 1.1650391 -22.089844 2.1230469Q-22.587891 3.0810547 -23.501953 3.5908203Q-24.416016 4.1005859 -25.611328 4.1005859L-28.699219 4.1005859L-28.699219 -4.1552734L-25.96875 -4.1552734Q-23.871094 -4.1552734 -22.731445 -3.1035156Q-21.591797 -2.0517578 -21.591797 -0.11230469ZM-22.716797 -0.11230469Q-22.716797 -1.6474609 -23.557617 -2.453125Q-24.398438 -3.2587891 -25.992188 -3.2587891L-27.580078 -3.2587891L-27.580078 3.2041016L-25.740234 3.2041016Q-24.832031 3.2041016 -24.143555 2.8056641Q-23.455078 2.4072266 -23.085938 1.6572266Q-22.716797 0.90722656 -22.716797 -0.11230469ZM-14.847656 0.92480469Q-14.847656 2.5888672 -15.580078 3.4033203Q-16.3125 4.2177734 -17.707031 4.2177734Q-19.095703 4.2177734 -19.804688 3.3710938Q-20.513672 2.5244141 -20.513672 0.92480469Q-20.513672 -2.3564453 -17.671875 -2.3564453Q-16.21875 -2.3564453 -15.533203 -1.5566406Q-14.847656 -0.75683594 -14.847656 0.92480469ZM-15.955078 0.92480469Q-15.955078 -0.38769531 -16.344727 -0.98242188Q-16.734375 -1.5771484 -17.654297 -1.5771484Q-18.580078 -1.5771484 -18.993164 -0.97070312Q-19.40625 -0.36425781 -19.40625 0.92480469Q-19.40625 2.1787109 -18.999023 2.8085938Q-18.591797 3.4384766 -17.71875 3.4384766Q-16.769531 3.4384766 -16.362305 2.8291016Q-15.955078 2.2197266 -15.955078 0.92480469ZM-7.4648438 4.1005859L-8.6894531 4.1005859L-9.796875 -0.38183594L-10.007812 -1.3720703Q-10.060547 -1.1083984 -10.171875 -0.61328125Q-10.283203 -0.11816406 -11.367188 4.1005859L-12.585938 4.1005859L-14.361328 -2.2392578L-13.318359 -2.2392578L-12.246094 2.0673828Q-12.205078 2.2080078 -11.994141 3.2275391L-11.894531 2.7939453L-10.570312 -2.2392578L-9.4394531 -2.2392578L-8.3320312 2.1142578L-8.0625 3.2275391L-7.8808594 2.4130859L-6.6796875 -2.2392578L-5.6484375 -2.2392578L-7.4648438 4.1005859ZM-0.84375 4.1005859L-0.84375 0.081054688Q-0.84375 -0.54589844 -0.96679688 -0.89160156Q-1.0898438 -1.2373047 -1.359375 -1.3896484Q-1.6289062 -1.5419922 -2.1503906 -1.5419922Q-2.9121094 -1.5419922 -3.3515625 -1.0205078Q-3.7910156 -0.49902344 -3.7910156 0.42675781L-3.7910156 4.1005859L-4.8457031 4.1005859L-4.8457031 -0.88574219Q-4.8457031 -1.9931641 -4.8808594 -2.2392578L-3.8847656 -2.2392578Q-3.8789062 -2.2099609 -3.8730469 -2.0810547Q-3.8671875 -1.9521484 -3.8583984 -1.7851562Q-3.8496094 -1.6181641 -3.8378906 -1.1552734L-3.8203125 -1.1552734Q-3.4570312 -1.8115234 -2.9794922 -2.0839844Q-2.5019531 -2.3564453 -1.7929688 -2.3564453Q-0.75 -2.3564453 -0.26660156 -1.8378906Q0.21679688 -1.3193359 0.21679688 -0.12402344L0.21679688 4.1005859L-0.84375 4.1005859ZM1.8046875 4.1005859L1.8046875 -4.5947266L2.859375 -4.5947266L2.859375 4.1005859L1.8046875 4.1005859ZM9.8320312 0.92480469Q9.8320312 2.5888672 9.0996094 3.4033203Q8.3671875 4.2177734 6.9726562 4.2177734Q5.5839844 4.2177734 4.875 3.3710938Q4.1660156 2.5244141 4.1660156 0.92480469Q4.1660156 -2.3564453 7.0078125 -2.3564453Q8.4609375 -2.3564453 9.1464844 -1.5566406Q9.8320312 -0.75683594 9.8320312 0.92480469ZM8.7246094 0.92480469Q8.7246094 -0.38769531 8.3349609 -0.98242188Q7.9453125 -1.5771484 7.0253906 -1.5771484Q6.0996094 -1.5771484 5.6865234 -0.97070312Q5.2734375 -0.36425781 5.2734375 0.92480469Q5.2734375 2.1787109 5.6806641 2.8085938Q6.0878906 3.4384766 6.9609375 3.4384766Q7.9101562 3.4384766 8.3173828 2.8291016Q8.7246094 2.2197266 8.7246094 0.92480469ZM12.761719 4.2177734Q11.806641 4.2177734 11.326172 3.7138672Q10.845703 3.2099609 10.845703 2.3310547Q10.845703 1.3466797 11.493164 0.81933594Q12.140625 0.29199219 13.582031 0.25683594L15.005859 0.23339844L15.005859 -0.11230469Q15.005859 -0.88574219 14.677734 -1.2197266Q14.349609 -1.5537109 13.646484 -1.5537109Q12.9375 -1.5537109 12.615234 -1.3134766Q12.292969 -1.0732422 12.228516 -0.54589844L11.126953 -0.64550781Q11.396484 -2.3564453 13.669922 -2.3564453Q14.865234 -2.3564453 15.46875 -1.8085938Q16.072266 -1.2607422 16.072266 -0.22363281L16.072266 2.5068359Q16.072266 2.9755859 16.195312 3.2128906Q16.318359 3.4501953 16.664062 3.4501953Q16.816406 3.4501953 17.009766 3.4091797L17.009766 4.0654297Q16.611328 4.1591797 16.195312 4.1591797Q15.609375 4.1591797 15.342773 3.8515625Q15.076172 3.5439453 15.041016 2.8876953L15.005859 2.8876953Q14.601562 3.6142578 14.06543 3.9160156Q13.529297 4.2177734 12.761719 4.2177734ZM13.001953 3.4267578Q13.582031 3.4267578 14.033203 3.1630859Q14.484375 2.8994141 14.745117 2.4394531Q15.005859 1.9794922 15.005859 1.4931641L15.005859 0.97167969L13.851562 0.99511719Q13.107422 1.0068359 12.723633 1.1474609Q12.339844 1.2880859 12.134766 1.5810547Q11.929688 1.8740234 11.929688 2.3486328Q11.929688 2.8642578 12.208008 3.1455078Q12.486328 3.4267578 13.001953 3.4267578ZM21.820312 3.0810547Q21.527344 3.6904297 21.043945 3.9541016Q20.560547 4.2177734 19.845703 4.2177734Q18.644531 4.2177734 18.079102 3.4091797Q17.513672 2.6005859 17.513672 0.95996094Q17.513672 -2.3564453 19.845703 -2.3564453Q20.566406 -2.3564453 21.046875 -2.0927734Q21.527344 -1.8291016 21.820312 -1.2548828L21.832031 -1.2548828L21.820312 -1.9638672L21.820312 -4.5947266L22.875 -4.5947266L22.875 2.7939453Q22.875 3.7841797 22.910156 4.1005859L21.902344 4.1005859Q21.884766 4.0068359 21.864258 3.6669922Q21.84375 3.3271484 21.84375 3.0810547L21.820312 3.0810547ZM18.621094 0.92480469Q18.621094 2.2548828 18.972656 2.8291016Q19.324219 3.4033203 20.115234 3.4033203Q21.011719 3.4033203 21.416016 2.7822266Q21.820312 2.1611328 21.820312 0.85449219Q21.820312 -0.40527344 21.416016 -0.99121094Q21.011719 -1.5771484 20.126953 -1.5771484Q19.330078 -1.5771484 18.975586 -0.98828125Q18.621094 -0.39941406 18.621094 0.92480469ZM29.25 2.3486328Q29.25 3.2451172 28.573242 3.7314453Q27.896484 4.2177734 26.677734 4.2177734Q25.494141 4.2177734 24.852539 3.828125Q24.210938 3.4384766 24.017578 2.6123047L24.949219 2.4306641Q25.083984 2.9404297 25.505859 3.1777344Q25.927734 3.4150391 26.677734 3.4150391Q27.480469 3.4150391 27.852539 3.1689453Q28.224609 2.9228516 28.224609 2.4306641Q28.224609 2.0556641 27.966797 1.8212891Q27.708984 1.5869141 27.134766 1.4345703L26.378906 1.2353516Q25.470703 1.0009766 25.086914 0.77539062Q24.703125 0.54980469 24.486328 0.22753906Q24.269531 -0.094726562 24.269531 -0.56347656Q24.269531 -1.4306641 24.887695 -1.8847656Q25.505859 -2.3388672 26.689453 -2.3388672Q27.738281 -2.3388672 28.356445 -1.9697266Q28.974609 -1.6005859 29.138672 -0.78613281L28.189453 -0.66894531Q28.101562 -1.0908203 27.717773 -1.3164062Q27.333984 -1.5419922 26.689453 -1.5419922Q25.974609 -1.5419922 25.634766 -1.3251953Q25.294922 -1.1083984 25.294922 -0.66894531Q25.294922 -0.39941406 25.435547 -0.22363281Q25.576172 -0.047851562 25.851562 0.075195312Q26.126953 0.19824219 27.011719 0.41503906Q27.849609 0.62597656 28.21875 0.8046875Q28.587891 0.98339844 28.801758 1.2001953Q29.015625 1.4169922 29.132812 1.7011719Q29.25 1.9853516 29.25 2.3486328Z"/>
	<clipPath id="cl_3e7">
		<rect y="39.200001" width="1200" height="31.999996"/>
	</clipPath>
	<g clip-path="url(#cl_3e7)">
		<path fill="#C32222" fill-opacity="0.2" d="M569.33002 49.200001L609.33002 49.200001L609.33002 61.200001L569.33002 61.200001L569.33002 49.200001Z"/>
		<path fill="none" stroke="#C32222" stroke-width="2" stroke-miterlimit="10" d="M569.33002 49.200001L609.33002 49.200001L609.33002 61.200001L569.33002 61.200001L569.33002 49.200001Z"/>
	</g>
	<clipPath id="cl_3e8">
		<rect y="39.200001" width="1200" height="31.999996"/>
	</clipPath>
	<g clip-path="url(#cl_3e8)">
		<path fill="#666" d="M615.81635 59.300587L615.81635 58.497852L619.36127 53.775196L616.01556 53.775196L616.01556 52.960743L620.60931 52.960743L620.60931 53.763477L617.05853 58.486134L620.73236 58.486134L620.73236 59.300587L615.81635 59.300587ZM622.13275 51.613087L622.13275 50.605274L623.18744 50.605274L623.18744 51.613087L622.13275 51.613087ZM622.13275 59.300587L622.13275 52.960743L623.18744 52.960743L623.18744 59.300587L622.13275 59.300587ZM630.16595 56.101368Q630.16595 59.417774 627.83392 59.417774Q626.36908 59.417774 625.86517 58.316212L625.83588 58.316212Q625.85931 58.363087 625.85931 59.312305L625.85931 61.790821L624.80463 61.790821L624.80463 54.255665Q624.80463 53.277149 624.76947 52.960743L625.789 52.960743Q625.79486 52.98418 625.80658 53.127735Q625.8183 53.27129 625.83295 53.570118Q625.8476 53.868946 625.8476 53.980274L625.87103 53.980274Q626.15228 53.394337 626.61517 53.121876Q627.07806 52.849415 627.83392 52.849415Q629.0058 52.849415 629.58588 53.634571Q630.16595 54.419727 630.16595 56.101368ZM629.05853 56.124805Q629.05853 54.800587 628.70111 54.232227Q628.34369 53.663868 627.56439 53.663868Q626.93744 53.663868 626.58295 53.92754Q626.22845 54.191212 626.04388 54.750782Q625.85931 55.310352 625.85931 56.206837Q625.85931 57.454884 626.25775 58.04668Q626.65619 58.638477 627.55267 58.638477Q628.33783 58.638477 628.69818 58.061329Q629.05853 57.48418 629.05853 56.124805Z"/>
	</g>
	<path fill="#666" transform="translate(600 19.6)" d="M-274.32422 3.3320312Q-274.32422 4.5585938 -275.32812 5.2578125Q-276.33203 5.9570312 -278.10547 5.9570312Q-279.84766 5.9570312 -280.77344 5.40625Q-281.69922 4.8554688 -282.00391 3.6914062L-280.07422 3.4023438Q-279.91016 4.0039062 -279.50781 4.2539062Q-279.10547 4.5039062 -278.10547 4.5039062Q-277.18359 4.5039062 -276.76172 4.2695312Q-276.33984 4.0351562 -276.33984 3.5351562Q-276.33984 3.1289062 -276.67969 2.890625Q-277.01953 2.6523438 -277.83203 2.4882812Q-279.69141 2.1210938 -280.33984 1.8046875Q-280.98828 1.4882812 -281.32812 0.984375Q-281.66797 0.48046875 -281.66797 -0.25390625Q-281.66797 -1.4648438 -280.73438 -2.140625Q-279.80078 -2.8164062 -278.08984 -2.8164062Q-276.58203 -2.8164062 -275.66406 -2.2304688Q-274.74609 -1.6445312 -274.51953 -0.53515625L-276.46484 -0.33203125Q-276.55859 -0.84765625 -276.92578 -1.1015625Q-277.29297 -1.3554688 -278.08984 -1.3554688Q-278.87109 -1.3554688 -279.26172 -1.15625Q-279.65234 -0.95703125 -279.65234 -0.48828125Q-279.65234 -0.12109375 -279.35156 0.09375Q-279.05078 0.30859375 -278.33984 0.44921875Q-277.34766 0.65234375 -276.57812 0.8671875Q-275.80859 1.0820312 -275.34375 1.3789062Q-274.87891 1.6757812 -274.60156 2.140625Q-274.32422 2.6054688 -274.32422 3.3320312ZM-270.59766 5.9570312Q-271.82422 5.9570312 -272.51172 5.2890625Q-273.19922 4.6210938 -273.19922 3.4101562Q-273.19922 2.0976562 -272.34375 1.4101562Q-271.48828 0.72265625 -269.86328 0.70703125L-268.04297 0.67578125L-268.04297 0.24609375Q-268.04297 -0.58203125 -268.33203 -0.984375Q-268.62109 -1.3867188 -269.27734 -1.3867188Q-269.88672 -1.3867188 -270.17188 -1.109375Q-270.45703 -0.83203125 -270.52734 -0.19140625L-272.81641 -0.30078125Q-272.60547 -1.5351562 -271.6875 -2.171875Q-270.76953 -2.8085938 -269.18359 -2.8085938Q-267.58203 -2.8085938 -266.71484 -2.0195312Q-265.84766 -1.2304688 -265.84766 0.22265625L-265.84766 3.3007812Q-265.84766 4.0117188 -265.6875 4.28125Q-265.52734 4.5507812 -265.15234 4.5507812Q-264.90234 4.5507812 -264.66797 4.5039062L-264.66797 5.6914062Q-264.86328 5.7382812 -265.01953 5.7773438Q-265.17578 5.8164062 -265.33203 5.8398438Q-265.48828 5.8632812 -265.66406 5.8789062Q-265.83984 5.8945312 -266.07422 5.8945312Q-266.90234 5.8945312 -267.29688 5.4882812Q-267.69141 5.0820312 -267.76953 4.2929688L-267.81641 4.2929688Q-268.73828 5.9570312 -270.59766 5.9570312ZM-268.04297 1.8867188L-269.16797 1.9023438Q-269.93359 1.9335938 -270.25391 2.0703125Q-270.57422 2.2070312 -270.74219 2.4882812Q-270.91016 2.7695312 -270.91016 3.2382812Q-270.91016 3.8398438 -270.63281 4.1328125Q-270.35547 4.4257812 -269.89453 4.4257812Q-269.37891 4.4257812 -268.95312 4.1445312Q-268.52734 3.8632812 -268.28516 3.3671875Q-268.04297 2.8710938 -268.04297 2.3164062L-268.04297 1.8867188ZM-263.65234 -4.1757812L-263.65234 -5.7929688L-261.45703 -5.7929688L-261.45703 -4.1757812L-263.65234 -4.1757812ZM-263.65234 5.8007812L-263.65234 -2.6523438L-261.45703 -2.6523438L-261.45703 5.8007812L-263.65234 5.8007812ZM-259.20703 5.8007812L-259.20703 -5.7929688L-257.01172 -5.7929688L-257.01172 5.8007812L-259.20703 5.8007812ZM-246.76172 1.5351562Q-246.76172 3.6523438 -247.60938 4.8046875Q-248.45703 5.9570312 -250.00391 5.9570312Q-250.89453 5.9570312 -251.55469 5.5703125Q-252.21484 5.1835938 -252.56641 4.4570312L-252.61328 4.4570312Q-252.56641 4.6914062 -252.56641 5.8789062L-252.56641 9.1210938L-254.76172 9.1210938L-254.76172 -0.70703125Q-254.76172 -1.9023438 -254.82422 -2.6523438L-252.69141 -2.6523438Q-252.65234 -2.5117188 -252.625 -2.0976562Q-252.59766 -1.6835938 -252.59766 -1.2773438L-252.56641 -1.2773438Q-251.82422 -2.8320312 -249.86328 -2.8320312Q-248.38672 -2.8320312 -247.57422 -1.6953125Q-246.76172 -0.55859375 -246.76172 1.5351562ZM-249.05078 1.5351562Q-249.05078 -1.3085938 -250.79297 -1.3085938Q-251.66797 -1.3085938 -252.13281 -0.54296875Q-252.59766 0.22265625 -252.59766 1.5976562Q-252.59766 2.9648438 -252.13281 3.7109375Q-251.66797 4.4570312 -250.80859 4.4570312Q-249.05078 4.4570312 -249.05078 1.5351562ZM-236.95703 1.5664062Q-236.95703 3.6210938 -238.09766 4.7890625Q-239.23828 5.9570312 -241.25391 5.9570312Q-243.23047 5.9570312 -244.35547 4.7851562Q-245.48047 3.6132812 -245.48047 1.5664062Q-245.48047 -0.47265625 -244.35547 -1.640625Q-243.23047 -2.8085938 -241.20703 -2.8085938Q-239.13672 -2.8085938 -238.04688 -1.6796875Q-236.95703 -0.55078125 -236.95703 1.5664062ZM-239.25391 1.5664062Q-239.25391 0.05859375 -239.74609 -0.62109375Q-240.23828 -1.3007812 -241.17578 -1.3007812Q-243.17578 -1.3007812 -243.17578 1.5664062Q-243.17578 2.9804688 -242.6875 3.71875Q-242.19922 4.4570312 -241.27734 4.4570312Q-239.25391 4.4570312 -239.25391 1.5664062ZM-235.21484 -4.1757812L-235.21484 -5.7929688L-233.01953 -5.7929688L-233.01953 -4.1757812L-235.21484 -4.1757812ZM-235.21484 5.8007812L-235.21484 -2.6523438L-233.01953 -2.6523438L-233.01953 5.8007812L-235.21484 5.8007812ZM-225.29297 5.8007812L-225.29297 1.0585938Q-225.29297 -1.1679688 -226.80078 -1.1679688Q-227.59766 -1.1679688 -228.08594 -0.484375Q-228.57422 0.19921875 -228.57422 1.2695312L-228.57422 5.8007812L-230.76953 5.8007812L-230.76953 -0.76171875Q-230.76953 -1.4414062 -230.78906 -1.875Q-230.80859 -2.3085938 -230.83203 -2.6523438L-228.73828 -2.6523438Q-228.71484 -2.5039062 -228.67578 -1.859375Q-228.63672 -1.2148438 -228.63672 -0.97265625L-228.60547 -0.97265625Q-228.16016 -1.9414062 -227.48828 -2.3789062Q-226.81641 -2.8164062 -225.88672 -2.8164062Q-224.54297 -2.8164062 -223.82422 -1.9882812Q-223.10547 -1.1601562 -223.10547 0.43359375L-223.10547 5.8007812L-225.29297 5.8007812ZM-218.83203 5.9414062Q-219.80078 5.9414062 -220.32422 5.4140625Q-220.84766 4.8867188 -220.84766 3.8164062L-220.84766 -1.1679688L-221.91797 -1.1679688L-221.91797 -2.6523438L-220.73828 -2.6523438L-220.05078 -4.6367188L-218.67578 -4.6367188L-218.67578 -2.6523438L-217.07422 -2.6523438L-217.07422 -1.1679688L-218.67578 -1.1679688L-218.67578 3.2226562Q-218.67578 3.8398438 -218.44141 4.1328125Q-218.20703 4.4257812 -217.71484 4.4257812Q-217.45703 4.4257812 -216.98047 4.3164062L-216.98047 5.6757812Q-217.79297 5.9414062 -218.83203 5.9414062ZM-216.16016 2.6054688L-216.16016 0.69921875L-212.09766 0.69921875L-212.09766 2.6054688L-216.16016 2.6054688ZM-202.30859 1.5664062Q-202.30859 3.6210938 -203.44922 4.7890625Q-204.58984 5.9570312 -206.60547 5.9570312Q-208.58203 5.9570312 -209.70703 4.7851562Q-210.83203 3.6132812 -210.83203 1.5664062Q-210.83203 -0.47265625 -209.70703 -1.640625Q-208.58203 -2.8085938 -206.55859 -2.8085938Q-204.48828 -2.8085938 -203.39844 -1.6796875Q-202.30859 -0.55078125 -202.30859 1.5664062ZM-204.60547 1.5664062Q-204.60547 0.05859375 -205.09766 -0.62109375Q-205.58984 -1.3007812 -206.52734 -1.3007812Q-208.52734 -1.3007812 -208.52734 1.5664062Q-208.52734 2.9804688 -208.03906 3.71875Q-207.55078 4.4570312 -206.62891 4.4570312Q-204.60547 4.4570312 -204.60547 1.5664062ZM-193.44141 3.3320312Q-193.44141 4.5585938 -194.44531 5.2578125Q-195.44922 5.9570312 -197.22266 5.9570312Q-198.96484 5.9570312 -199.89062 5.40625Q-200.81641 4.8554688 -201.12109 3.6914062L-199.19141 3.4023438Q-199.02734 4.0039062 -198.625 4.2539062Q-198.22266 4.5039062 -197.22266 4.5039062Q-196.30078 4.5039062 -195.87891 4.2695312Q-195.45703 4.0351562 -195.45703 3.5351562Q-195.45703 3.1289062 -195.79688 2.890625Q-196.13672 2.6523438 -196.94922 2.4882812Q-198.80859 2.1210938 -199.45703 1.8046875Q-200.10547 1.4882812 -200.44531 0.984375Q-200.78516 0.48046875 -200.78516 -0.25390625Q-200.78516 -1.4648438 -199.85156 -2.140625Q-198.91797 -2.8164062 -197.20703 -2.8164062Q-195.69922 -2.8164062 -194.78125 -2.2304688Q-193.86328 -1.6445312 -193.63672 -0.53515625L-195.58203 -0.33203125Q-195.67578 -0.84765625 -196.04297 -1.1015625Q-196.41016 -1.3554688 -197.20703 -1.3554688Q-197.98828 -1.3554688 -198.37891 -1.15625Q-198.76953 -0.95703125 -198.76953 -0.48828125Q-198.76953 -0.12109375 -198.46875 0.09375Q-198.16797 0.30859375 -197.45703 0.44921875Q-196.46484 0.65234375 -195.69531 0.8671875Q-194.92578 1.0820312 -194.46094 1.3789062Q-193.99609 1.6757812 -193.71875 2.140625Q-193.44141 2.6054688 -193.44141 3.3320312ZM-184.54297 3.3320312Q-184.54297 4.5585938 -185.54688 5.2578125Q-186.55078 5.9570312 -188.32422 5.9570312Q-190.06641 5.9570312 -190.99219 5.40625Q-191.91797 4.8554688 -192.22266 3.6914062L-190.29297 3.4023438Q-190.12891 4.0039062 -189.72656 4.2539062Q-189.32422 4.5039062 -188.32422 4.5039062Q-187.40234 4.5039062 -186.98047 4.2695312Q-186.55859 4.0351562 -186.55859 3.5351562Q-186.55859 3.1289062 -186.89844 2.890625Q-187.23828 2.6523438 -188.05078 2.4882812Q-189.91016 2.1210938 -190.55859 1.8046875Q-191.20703 1.4882812 -191.54688 0.984375Q-191.88672 0.48046875 -191.88672 -0.25390625Q-191.88672 -1.4648438 -190.95312 -2.140625Q-190.01953 -2.8164062 -188.30859 -2.8164062Q-186.80078 -2.8164062 -185.88281 -2.2304688Q-184.96484 -1.6445312 -184.73828 -0.53515625L-186.68359 -0.33203125Q-186.77734 -0.84765625 -187.14453 -1.1015625Q-187.51172 -1.3554688 -188.30859 -1.3554688Q-189.08984 -1.3554688 -189.48047 -1.15625Q-189.87109 -0.95703125 -189.87109 -0.48828125Q-189.87109 -0.12109375 -189.57031 0.09375Q-189.26953 0.30859375 -188.55859 0.44921875Q-187.56641 0.65234375 -186.79688 0.8671875Q-186.02734 1.0820312 -185.5625 1.3789062Q-185.09766 1.6757812 -184.82031 2.140625Q-184.54297 2.6054688 -184.54297 3.3320312ZM-183.73047 6.1210938L-181.45703 -5.7929688L-179.59766 -5.7929688L-181.83203 6.1210938L-183.73047 6.1210938ZM-174.80078 5.9570312Q-176.72266 5.9570312 -177.76953 4.8125Q-178.81641 3.6679688 -178.81641 1.6210938Q-178.81641 -0.47265625 -177.76172 -1.640625Q-176.70703 -2.8085938 -174.76953 -2.8085938Q-173.27734 -2.8085938 -172.30078 -2.0585938Q-171.32422 -1.3085938 -171.07422 0.01171875L-173.28516 0.12109375Q-173.37891 -0.52734375 -173.75391 -0.9140625Q-174.12891 -1.3007812 -174.81641 -1.3007812Q-176.51172 -1.3007812 -176.51172 1.5351562Q-176.51172 4.4570312 -174.78516 4.4570312Q-174.16016 4.4570312 -173.73828 4.0625Q-173.31641 3.6679688 -173.21484 2.8867188L-171.01172 2.9882812Q-171.12891 3.8554688 -171.63281 4.5351562Q-172.13672 5.2148438 -172.95703 5.5859375Q-173.77734 5.9570312 -174.80078 5.9570312ZM-161.39453 1.5664062Q-161.39453 3.6210938 -162.53516 4.7890625Q-163.67578 5.9570312 -165.69141 5.9570312Q-167.66797 5.9570312 -168.79297 4.7851562Q-169.91797 3.6132812 -169.91797 1.5664062Q-169.91797 -0.47265625 -168.79297 -1.640625Q-167.66797 -2.8085938 -165.64453 -2.8085938Q-163.57422 -2.8085938 -162.48438 -1.6796875Q-161.39453 -0.55078125 -161.39453 1.5664062ZM-163.69141 1.5664062Q-163.69141 0.05859375 -164.18359 -0.62109375Q-164.67578 -1.3007812 -165.61328 -1.3007812Q-167.61328 -1.3007812 -167.61328 1.5664062Q-167.61328 2.9804688 -167.125 3.71875Q-166.63672 4.4570312 -165.71484 4.4570312Q-163.69141 4.4570312 -163.69141 1.5664062ZM-159.65234 5.8007812L-159.65234 -5.7929688L-157.45703 -5.7929688L-157.45703 5.8007812L-159.65234 5.8007812ZM-153.25391 5.9570312Q-154.48047 5.9570312 -155.16797 5.2890625Q-155.85547 4.6210938 -155.85547 3.4101562Q-155.85547 2.0976562 -155 1.4101562Q-154.14453 0.72265625 -152.51953 0.70703125L-150.69922 0.67578125L-150.69922 0.24609375Q-150.69922 -0.58203125 -150.98828 -0.984375Q-151.27734 -1.3867188 -151.93359 -1.3867188Q-152.54297 -1.3867188 -152.82812 -1.109375Q-153.11328 -0.83203125 -153.18359 -0.19140625L-155.47266 -0.30078125Q-155.26172 -1.5351562 -154.34375 -2.171875Q-153.42578 -2.8085938 -151.83984 -2.8085938Q-150.23828 -2.8085938 -149.37109 -2.0195312Q-148.50391 -1.2304688 -148.50391 0.22265625L-148.50391 3.3007812Q-148.50391 4.0117188 -148.34375 4.28125Q-148.18359 4.5507812 -147.80859 4.5507812Q-147.55859 4.5507812 -147.32422 4.5039062L-147.32422 5.6914062Q-147.51953 5.7382812 -147.67578 5.7773438Q-147.83203 5.8164062 -147.98828 5.8398438Q-148.14453 5.8632812 -148.32031 5.8789062Q-148.49609 5.8945312 -148.73047 5.8945312Q-149.55859 5.8945312 -149.95312 5.4882812Q-150.34766 5.0820312 -150.42578 4.2929688L-150.47266 4.2929688Q-151.39453 5.9570312 -153.25391 5.9570312ZM-150.69922 1.8867188L-151.82422 1.9023438Q-152.58984 1.9335938 -152.91016 2.0703125Q-153.23047 2.2070312 -153.39844 2.4882812Q-153.56641 2.7695312 -153.56641 3.2382812Q-153.56641 3.8398438 -153.28906 4.1328125Q-153.01172 4.4257812 -152.55078 4.4257812Q-152.03516 4.4257812 -151.60938 4.1445312Q-151.18359 3.8632812 -150.94141 3.3671875Q-150.69922 2.8710938 -150.69922 2.3164062L-150.69922 1.8867188ZM-138.30859 1.5429688Q-138.30859 3.6367188 -139.14844 4.796875Q-139.98828 5.9570312 -141.55078 5.9570312Q-142.44922 5.9570312 -143.10547 5.5664062Q-143.76172 5.1757812 -144.11328 4.4414062L-144.12891 4.4414062Q-144.12891 4.7148438 -144.16406 5.1914062Q-144.19922 5.6679688 -144.23828 5.8007812L-146.37109 5.8007812Q-146.30859 5.0742188 -146.30859 3.8710938L-146.30859 -5.7929688L-144.11328 -5.7929688L-144.11328 -2.5585938L-144.14453 -1.1835938L-144.11328 -1.1835938Q-143.37109 -2.8085938 -141.41016 -2.8085938Q-139.91016 -2.8085938 -139.10938 -1.671875Q-138.30859 -0.53515625 -138.30859 1.5429688ZM-140.59766 1.5429688Q-140.59766 0.10546875 -141.01953 -0.58984375Q-141.44141 -1.2851562 -142.32422 -1.2851562Q-143.21484 -1.2851562 -143.67969 -0.5390625Q-144.14453 0.20703125 -144.14453 1.6132812Q-144.14453 2.9570312 -143.6875 3.7070312Q-143.23047 4.4570312 -142.33984 4.4570312Q-140.59766 4.4570312 -140.59766 1.5429688ZM-137.02734 2.6054688L-137.02734 0.69921875L-132.96484 0.69921875L-132.96484 2.6054688L-137.02734 2.6054688ZM-124.08203 3.3320312Q-124.08203 4.5585938 -125.08594 5.2578125Q-126.08984 5.9570312 -127.86328 5.9570312Q-129.60547 5.9570312 -130.53125 5.40625Q-131.45703 4.8554688 -131.76172 3.6914062L-129.83203 3.4023438Q-129.66797 4.0039062 -129.26562 4.2539062Q-128.86328 4.5039062 -127.86328 4.5039062Q-126.94141 4.5039062 -126.51953 4.2695312Q-126.09766 4.0351562 -126.09766 3.5351562Q-126.09766 3.1289062 -126.4375 2.890625Q-126.77734 2.6523438 -127.58984 2.4882812Q-129.44922 2.1210938 -130.09766 1.8046875Q-130.74609 1.4882812 -131.08594 0.984375Q-131.42578 0.48046875 -131.42578 -0.25390625Q-131.42578 -1.4648438 -130.49219 -2.140625Q-129.55859 -2.8164062 -127.84766 -2.8164062Q-126.33984 -2.8164062 -125.42188 -2.2304688Q-124.50391 -1.6445312 -124.27734 -0.53515625L-126.22266 -0.33203125Q-126.31641 -0.84765625 -126.68359 -1.1015625Q-127.05078 -1.3554688 -127.84766 -1.3554688Q-128.62891 -1.3554688 -129.01953 -1.15625Q-129.41016 -0.95703125 -129.41016 -0.48828125Q-129.41016 -0.12109375 -129.10938 0.09375Q-128.80859 0.30859375 -128.09766 0.44921875Q-127.10547 0.65234375 -126.33594 0.8671875Q-125.56641 1.0820312 -125.10156 1.3789062Q-124.63672 1.6757812 -124.35938 2.140625Q-124.08203 2.6054688 -124.08203 3.3320312ZM-120.35547 5.9570312Q-121.58203 5.9570312 -122.26953 5.2890625Q-122.95703 4.6210938 -122.95703 3.4101562Q-122.95703 2.0976562 -122.10156 1.4101562Q-121.24609 0.72265625 -119.62109 0.70703125L-117.80078 0.67578125L-117.80078 0.24609375Q-117.80078 -0.58203125 -118.08984 -0.984375Q-118.37891 -1.3867188 -119.03516 -1.3867188Q-119.64453 -1.3867188 -119.92969 -1.109375Q-120.21484 -0.83203125 -120.28516 -0.19140625L-122.57422 -0.30078125Q-122.36328 -1.5351562 -121.44531 -2.171875Q-120.52734 -2.8085938 -118.94141 -2.8085938Q-117.33984 -2.8085938 -116.47266 -2.0195312Q-115.60547 -1.2304688 -115.60547 0.22265625L-115.60547 3.3007812Q-115.60547 4.0117188 -115.44531 4.28125Q-115.28516 4.5507812 -114.91016 4.5507812Q-114.66016 4.5507812 -114.42578 4.5039062L-114.42578 5.6914062Q-114.62109 5.7382812 -114.77734 5.7773438Q-114.93359 5.8164062 -115.08984 5.8398438Q-115.24609 5.8632812 -115.42188 5.8789062Q-115.59766 5.8945312 -115.83203 5.8945312Q-116.66016 5.8945312 -117.05469 5.4882812Q-117.44922 5.0820312 -117.52734 4.2929688L-117.57422 4.2929688Q-118.49609 5.9570312 -120.35547 5.9570312ZM-117.80078 1.8867188L-118.92578 1.9023438Q-119.69141 1.9335938 -120.01172 2.0703125Q-120.33203 2.2070312 -120.5 2.4882812Q-120.66797 2.7695312 -120.66797 3.2382812Q-120.66797 3.8398438 -120.39062 4.1328125Q-120.11328 4.4257812 -119.65234 4.4257812Q-119.13672 4.4257812 -118.71094 4.1445312Q-118.28516 3.8632812 -118.04297 3.3671875Q-117.80078 2.8710938 -117.80078 2.3164062L-117.80078 1.8867188ZM-111.45703 5.9570312Q-112.68359 5.9570312 -113.37109 5.2890625Q-114.05859 4.6210938 -114.05859 3.4101562Q-114.05859 2.0976562 -113.20312 1.4101562Q-112.34766 0.72265625 -110.72266 0.70703125L-108.90234 0.67578125L-108.90234 0.24609375Q-108.90234 -0.58203125 -109.19141 -0.984375Q-109.48047 -1.3867188 -110.13672 -1.3867188Q-110.74609 -1.3867188 -111.03125 -1.109375Q-111.31641 -0.83203125 -111.38672 -0.19140625L-113.67578 -0.30078125Q-113.46484 -1.5351562 -112.54688 -2.171875Q-111.62891 -2.8085938 -110.04297 -2.8085938Q-108.44141 -2.8085938 -107.57422 -2.0195312Q-106.70703 -1.2304688 -106.70703 0.22265625L-106.70703 3.3007812Q-106.70703 4.0117188 -106.54688 4.28125Q-106.38672 4.5507812 -106.01172 4.5507812Q-105.76172 4.5507812 -105.52734 4.5039062L-105.52734 5.6914062Q-105.72266 5.7382812 -105.87891 5.7773438Q-106.03516 5.8164062 -106.19141 5.8398438Q-106.34766 5.8632812 -106.52344 5.8789062Q-106.69922 5.8945312 -106.93359 5.8945312Q-107.76172 5.8945312 -108.15625 5.4882812Q-108.55078 5.0820312 -108.62891 4.2929688L-108.67578 4.2929688Q-109.59766 5.9570312 -111.45703 5.9570312ZM-108.90234 1.8867188L-110.02734 1.9023438Q-110.79297 1.9335938 -111.11328 2.0703125Q-111.43359 2.2070312 -111.60156 2.4882812Q-111.76953 2.7695312 -111.76953 3.2382812Q-111.76953 3.8398438 -111.49219 4.1328125Q-111.21484 4.4257812 -110.75391 4.4257812Q-110.23828 4.4257812 -109.8125 4.1445312Q-109.38672 3.8632812 -109.14453 3.3671875Q-108.90234 2.8710938 -108.90234 2.3164062L-108.90234 1.8867188ZM-97.386719 3.3320312Q-97.386719 4.5585938 -98.390625 5.2578125Q-99.394531 5.9570312 -101.16797 5.9570312Q-102.91016 5.9570312 -103.83594 5.40625Q-104.76172 4.8554688 -105.06641 3.6914062L-103.13672 3.4023438Q-102.97266 4.0039062 -102.57031 4.2539062Q-102.16797 4.5039062 -101.16797 4.5039062Q-100.24609 4.5039062 -99.824219 4.2695312Q-99.402344 4.0351562 -99.402344 3.5351562Q-99.402344 3.1289062 -99.742188 2.890625Q-100.08203 2.6523438 -100.89453 2.4882812Q-102.75391 2.1210938 -103.40234 1.8046875Q-104.05078 1.4882812 -104.39062 0.984375Q-104.73047 0.48046875 -104.73047 -0.25390625Q-104.73047 -1.4648438 -103.79688 -2.140625Q-102.86328 -2.8164062 -101.15234 -2.8164062Q-99.644531 -2.8164062 -98.726562 -2.2304688Q-97.808594 -1.6445312 -97.582031 -0.53515625L-99.527344 -0.33203125Q-99.621094 -0.84765625 -99.988281 -1.1015625Q-100.35547 -1.3554688 -101.15234 -1.3554688Q-101.93359 -1.3554688 -102.32422 -1.15625Q-102.71484 -0.95703125 -102.71484 -0.48828125Q-102.71484 -0.12109375 -102.41406 0.09375Q-102.11328 0.30859375 -101.40234 0.44921875Q-100.41016 0.65234375 -99.640625 0.8671875Q-98.871094 1.0820312 -98.40625 1.3789062Q-97.941406 1.6757812 -97.664062 2.140625Q-97.386719 2.6054688 -97.386719 3.3320312ZM-96.105469 2.6054688L-96.105469 0.69921875L-92.042969 0.69921875L-92.042969 2.6054688L-96.105469 2.6054688ZM-86.761719 5.9570312Q-88.683594 5.9570312 -89.730469 4.8125Q-90.777344 3.6679688 -90.777344 1.6210938Q-90.777344 -0.47265625 -89.722656 -1.640625Q-88.667969 -2.8085938 -86.730469 -2.8085938Q-85.238281 -2.8085938 -84.261719 -2.0585938Q-83.285156 -1.3085938 -83.035156 0.01171875L-85.246094 0.12109375Q-85.339844 -0.52734375 -85.714844 -0.9140625Q-86.089844 -1.3007812 -86.777344 -1.3007812Q-88.472656 -1.3007812 -88.472656 1.5351562Q-88.472656 4.4570312 -86.746094 4.4570312Q-86.121094 4.4570312 -85.699219 4.0625Q-85.277344 3.6679688 -85.175781 2.8867188L-82.972656 2.9882812Q-83.089844 3.8554688 -83.59375 4.5351562Q-84.097656 5.2148438 -84.917969 5.5859375Q-85.738281 5.9570312 -86.761719 5.9570312ZM-73.355469 1.5664062Q-73.355469 3.6210938 -74.496094 4.7890625Q-75.636719 5.9570312 -77.652344 5.9570312Q-79.628906 5.9570312 -80.753906 4.7851562Q-81.878906 3.6132812 -81.878906 1.5664062Q-81.878906 -0.47265625 -80.753906 -1.640625Q-79.628906 -2.8085938 -77.605469 -2.8085938Q-75.535156 -2.8085938 -74.445312 -1.6796875Q-73.355469 -0.55078125 -73.355469 1.5664062ZM-75.652344 1.5664062Q-75.652344 0.05859375 -76.144531 -0.62109375Q-76.636719 -1.3007812 -77.574219 -1.3007812Q-79.574219 -1.3007812 -79.574219 1.5664062Q-79.574219 2.9804688 -79.085938 3.71875Q-78.597656 4.4570312 -77.675781 4.4570312Q-75.652344 4.4570312 -75.652344 1.5664062ZM-66.136719 5.8007812L-66.136719 1.0585938Q-66.136719 -1.1679688 -67.644531 -1.1679688Q-68.441406 -1.1679688 -68.929688 -0.484375Q-69.417969 0.19921875 -69.417969 1.2695312L-69.417969 5.8007812L-71.613281 5.8007812L-71.613281 -0.76171875Q-71.613281 -1.4414062 -71.632812 -1.875Q-71.652344 -2.3085938 -71.675781 -2.6523438L-69.582031 -2.6523438Q-69.558594 -2.5039062 -69.519531 -1.859375Q-69.480469 -1.2148438 -69.480469 -0.97265625L-69.449219 -0.97265625Q-69.003906 -1.9414062 -68.332031 -2.3789062Q-67.660156 -2.8164062 -66.730469 -2.8164062Q-65.386719 -2.8164062 -64.667969 -1.9882812Q-63.949219 -1.1601562 -63.949219 0.43359375L-63.949219 5.8007812L-66.136719 5.8007812ZM-56.363281 5.8007812L-56.363281 1.0585938Q-56.363281 -1.1679688 -57.871094 -1.1679688Q-58.667969 -1.1679688 -59.15625 -0.484375Q-59.644531 0.19921875 -59.644531 1.2695312L-59.644531 5.8007812L-61.839844 5.8007812L-61.839844 -0.76171875Q-61.839844 -1.4414062 -61.859375 -1.875Q-61.878906 -2.3085938 -61.902344 -2.6523438L-59.808594 -2.6523438Q-59.785156 -2.5039062 -59.746094 -1.859375Q-59.707031 -1.2148438 -59.707031 -0.97265625L-59.675781 -0.97265625Q-59.230469 -1.9414062 -58.558594 -2.3789062Q-57.886719 -2.8164062 -56.957031 -2.8164062Q-55.613281 -2.8164062 -54.894531 -1.9882812Q-54.175781 -1.1601562 -54.175781 0.43359375L-54.175781 5.8007812L-56.363281 5.8007812ZM-52.558594 2.6054688L-52.558594 0.69921875L-48.496094 0.69921875L-48.496094 2.6054688L-52.558594 2.6054688ZM-43.214844 5.9570312Q-45.136719 5.9570312 -46.183594 4.8125Q-47.230469 3.6679688 -47.230469 1.6210938Q-47.230469 -0.47265625 -46.175781 -1.640625Q-45.121094 -2.8085938 -43.183594 -2.8085938Q-41.691406 -2.8085938 -40.714844 -2.0585938Q-39.738281 -1.3085938 -39.488281 0.01171875L-41.699219 0.12109375Q-41.792969 -0.52734375 -42.167969 -0.9140625Q-42.542969 -1.3007812 -43.230469 -1.3007812Q-44.925781 -1.3007812 -44.925781 1.5351562Q-44.925781 4.4570312 -43.199219 4.4570312Q-42.574219 4.4570312 -42.152344 4.0625Q-41.730469 3.6679688 -41.628906 2.8867188L-39.425781 2.9882812Q-39.542969 3.8554688 -40.046875 4.5351562Q-40.550781 5.2148438 -41.371094 5.5859375Q-42.191406 5.9570312 -43.214844 5.9570312ZM-36.746094 9.1210938Q-37.535156 9.1210938 -38.128906 9.0195312L-38.128906 7.4570312Q-37.714844 7.5195312 -37.371094 7.5195312Q-36.902344 7.5195312 -36.59375 7.3710938Q-36.285156 7.2226562 -36.039062 6.8789062Q-35.792969 6.5351562 -35.488281 5.7148438L-38.832031 -2.6523438L-36.511719 -2.6523438L-35.183594 1.3085938Q-34.871094 2.1601562 -34.394531 3.9179688L-34.199219 3.1757812L-33.691406 1.3398438L-32.441406 -2.6523438L-30.144531 -2.6523438L-33.488281 6.2460938Q-34.160156 7.8710938 -34.882812 8.4960938Q-35.605469 9.1210938 -36.746094 9.1210938ZM-20.941406 1.5429688Q-20.941406 3.6367188 -21.78125 4.796875Q-22.621094 5.9570312 -24.183594 5.9570312Q-25.082031 5.9570312 -25.738281 5.5664062Q-26.394531 5.1757812 -26.746094 4.4414062L-26.761719 4.4414062Q-26.761719 4.7148438 -26.796875 5.1914062Q-26.832031 5.6679688 -26.871094 5.8007812L-29.003906 5.8007812Q-28.941406 5.0742188 -28.941406 3.8710938L-28.941406 -5.7929688L-26.746094 -5.7929688L-26.746094 -2.5585938L-26.777344 -1.1835938L-26.746094 -1.1835938Q-26.003906 -2.8085938 -24.042969 -2.8085938Q-22.542969 -2.8085938 -21.742188 -1.671875Q-20.941406 -0.53515625 -20.941406 1.5429688ZM-23.230469 1.5429688Q-23.230469 0.10546875 -23.652344 -0.58984375Q-24.074219 -1.2851562 -24.957031 -1.2851562Q-25.847656 -1.2851562 -26.3125 -0.5390625Q-26.777344 0.20703125 -26.777344 1.6132812Q-26.777344 2.9570312 -26.320312 3.7070312Q-25.863281 4.4570312 -24.972656 4.4570312Q-23.230469 4.4570312 -23.230469 1.5429688ZM-15.707031 5.9570312Q-17.613281 5.9570312 -18.636719 4.828125Q-19.660156 3.6992188 -19.660156 1.5351562Q-19.660156 -0.55859375 -18.621094 -1.6835938Q-17.582031 -2.8085938 -15.675781 -2.8085938Q-13.855469 -2.8085938 -12.894531 -1.6015625Q-11.933594 -0.39453125 -11.933594 1.9335938L-11.933594 1.9960938L-17.355469 1.9960938Q-17.355469 3.2304688 -16.898438 3.859375Q-16.441406 4.4882812 -15.597656 4.4882812Q-14.433594 4.4882812 -14.128906 3.4804688L-12.058594 3.6601562Q-12.957031 5.9570312 -15.707031 5.9570312ZM-15.707031 -1.4257812Q-16.480469 -1.4257812 -16.898438 -0.88671875Q-17.316406 -0.34765625 -17.339844 0.62109375L-14.058594 0.62109375Q-14.121094 -0.40234375 -14.550781 -0.9140625Q-14.980469 -1.4257812 -15.707031 -1.4257812ZM-10.269531 5.8007812L-10.269531 -0.66796875Q-10.269531 -1.3632812 -10.289062 -1.828125Q-10.308594 -2.2929688 -10.332031 -2.6523438L-8.2382812 -2.6523438Q-8.2148438 -2.5117188 -8.1757812 -1.796875Q-8.1367188 -1.0820312 -8.1367188 -0.84765625L-8.1054688 -0.84765625Q-7.7851562 -1.7382812 -7.5351562 -2.1015625Q-7.2851562 -2.4648438 -6.9414062 -2.640625Q-6.5976562 -2.8164062 -6.0820312 -2.8164062Q-5.6601562 -2.8164062 -5.4023438 -2.6992188L-5.4023438 -0.86328125Q-5.9335938 -0.98046875 -6.3398438 -0.98046875Q-7.1601562 -0.98046875 -7.6171875 -0.31640625Q-8.0742188 0.34765625 -8.0742188 1.6523438L-8.0742188 5.8007812L-10.269531 5.8007812ZM-4.5351562 2.6054688L-4.5351562 0.69921875L-0.47265625 0.69921875L-0.47265625 2.6054688L-4.5351562 2.6054688ZM3.2382812 5.9570312Q2.0117188 5.9570312 1.3242188 5.2890625Q0.63671875 4.6210938 0.63671875 3.4101562Q0.63671875 2.0976562 1.4921875 1.4101562Q2.3476562 0.72265625 3.9726562 0.70703125L5.7929688 0.67578125L5.7929688 0.24609375Q5.7929688 -0.58203125 5.5039062 -0.984375Q5.2148438 -1.3867188 4.5585938 -1.3867188Q3.9492188 -1.3867188 3.6640625 -1.109375Q3.3789062 -0.83203125 3.3085938 -0.19140625L1.0195312 -0.30078125Q1.2304688 -1.5351562 2.1484375 -2.171875Q3.0664062 -2.8085938 4.6523438 -2.8085938Q6.2539062 -2.8085938 7.1210938 -2.0195312Q7.9882812 -1.2304688 7.9882812 0.22265625L7.9882812 3.3007812Q7.9882812 4.0117188 8.1484375 4.28125Q8.3085938 4.5507812 8.6835938 4.5507812Q8.9335938 4.5507812 9.1679688 4.5039062L9.1679688 5.6914062Q8.9726562 5.7382812 8.8164062 5.7773438Q8.6601562 5.8164062 8.5039062 5.8398438Q8.3476562 5.8632812 8.171875 5.8789062Q7.9960938 5.8945312 7.7617188 5.8945312Q6.9335938 5.8945312 6.5390625 5.4882812Q6.1445312 5.0820312 6.0664062 4.2929688L6.0195312 4.2929688Q5.0976562 5.9570312 3.2382812 5.9570312ZM5.7929688 1.8867188L4.6679688 1.9023438Q3.9023438 1.9335938 3.5820312 2.0703125Q3.2617188 2.2070312 3.09375 2.4882812Q2.9257812 2.7695312 2.9257812 3.2382812Q2.9257812 3.8398438 3.203125 4.1328125Q3.4804688 4.4257812 3.9414062 4.4257812Q4.4570312 4.4257812 4.8828125 4.1445312Q5.3085938 3.8632812 5.5507812 3.3671875Q5.7929688 2.8710938 5.7929688 2.3164062L5.7929688 1.8867188ZM10.183594 5.8007812L10.183594 -0.66796875Q10.183594 -1.3632812 10.164062 -1.828125Q10.144531 -2.2929688 10.121094 -2.6523438L12.214844 -2.6523438Q12.238281 -2.5117188 12.277344 -1.796875Q12.316406 -1.0820312 12.316406 -0.84765625L12.347656 -0.84765625Q12.667969 -1.7382812 12.917969 -2.1015625Q13.167969 -2.4648438 13.511719 -2.640625Q13.855469 -2.8164062 14.371094 -2.8164062Q14.792969 -2.8164062 15.050781 -2.6992188L15.050781 -0.86328125Q14.519531 -0.98046875 14.113281 -0.98046875Q13.292969 -0.98046875 12.835938 -0.31640625Q12.378906 0.34765625 12.378906 1.6523438L12.378906 5.8007812L10.183594 5.8007812ZM21.808594 5.8007812L19.550781 1.9726562L18.605469 2.6289062L18.605469 5.8007812L16.410156 5.8007812L16.410156 -5.7929688L18.605469 -5.7929688L18.605469 0.84765625L21.621094 -2.6523438L23.980469 -2.6523438L21.011719 0.64453125L24.207031 5.8007812L21.808594 5.8007812ZM24.816406 2.6054688L24.816406 0.69921875L28.878906 0.69921875L28.878906 2.6054688L24.816406 2.6054688ZM30.636719 5.8007812L30.636719 -0.66796875Q30.636719 -1.3632812 30.617188 -1.828125Q30.597656 -2.2929688 30.574219 -2.6523438L32.667969 -2.6523438Q32.691406 -2.5117188 32.730469 -1.796875Q32.769531 -1.0820312 32.769531 -0.84765625L32.800781 -0.84765625Q33.121094 -1.7382812 33.371094 -2.1015625Q33.621094 -2.4648438 33.964844 -2.640625Q34.308594 -2.8164062 34.824219 -2.8164062Q35.246094 -2.8164062 35.503906 -2.6992188L35.503906 -0.86328125Q34.972656 -0.98046875 34.566406 -0.98046875Q33.746094 -0.98046875 33.289062 -0.31640625Q32.832031 0.34765625 32.832031 1.6523438L32.832031 5.8007812L30.636719 5.8007812ZM44.863281 1.5429688Q44.863281 3.6367188 44.023438 4.796875Q43.183594 5.9570312 41.621094 5.9570312Q40.722656 5.9570312 40.066406 5.5664062Q39.410156 5.1757812 39.058594 4.4414062L39.042969 4.4414062Q39.042969 4.7148438 39.007812 5.1914062Q38.972656 5.6679688 38.933594 5.8007812L36.800781 5.8007812Q36.863281 5.0742188 36.863281 3.8710938L36.863281 -5.7929688L39.058594 -5.7929688L39.058594 -2.5585938L39.027344 -1.1835938L39.058594 -1.1835938Q39.800781 -2.8085938 41.761719 -2.8085938Q43.261719 -2.8085938 44.0625 -1.671875Q44.863281 -0.53515625 44.863281 1.5429688ZM42.574219 1.5429688Q42.574219 0.10546875 42.152344 -0.58984375Q41.730469 -1.2851562 40.847656 -1.2851562Q39.957031 -1.2851562 39.492188 -0.5390625Q39.027344 0.20703125 39.027344 1.6132812Q39.027344 2.9570312 39.484375 3.7070312Q39.941406 4.4570312 40.832031 4.4570312Q42.574219 4.4570312 42.574219 1.5429688ZM48.589844 5.9570312Q47.363281 5.9570312 46.675781 5.2890625Q45.988281 4.6210938 45.988281 3.4101562Q45.988281 2.0976562 46.84375 1.4101562Q47.699219 0.72265625 49.324219 0.70703125L51.144531 0.67578125L51.144531 0.24609375Q51.144531 -0.58203125 50.855469 -0.984375Q50.566406 -1.3867188 49.910156 -1.3867188Q49.300781 -1.3867188 49.015625 -1.109375Q48.730469 -0.83203125 48.660156 -0.19140625L46.371094 -0.30078125Q46.582031 -1.5351562 47.5 -2.171875Q48.417969 -2.8085938 50.003906 -2.8085938Q51.605469 -2.8085938 52.472656 -2.0195312Q53.339844 -1.2304688 53.339844 0.22265625L53.339844 3.3007812Q53.339844 4.0117188 53.5 4.28125Q53.660156 4.5507812 54.035156 4.5507812Q54.285156 4.5507812 54.519531 4.5039062L54.519531 5.6914062Q54.324219 5.7382812 54.167969 5.7773438Q54.011719 5.8164062 53.855469 5.8398438Q53.699219 5.8632812 53.523438 5.8789062Q53.347656 5.8945312 53.113281 5.8945312Q52.285156 5.8945312 51.890625 5.4882812Q51.496094 5.0820312 51.417969 4.2929688L51.371094 4.2929688Q50.449219 5.9570312 48.589844 5.9570312ZM51.144531 1.8867188L50.019531 1.9023438Q49.253906 1.9335938 48.933594 2.0703125Q48.613281 2.2070312 48.445312 2.4882812Q48.277344 2.7695312 48.277344 3.2382812Q48.277344 3.8398438 48.554688 4.1328125Q48.832031 4.4257812 49.292969 4.4257812Q49.808594 4.4257812 50.234375 4.1445312Q50.660156 3.8632812 50.902344 3.3671875Q51.144531 2.8710938 51.144531 2.3164062L51.144531 1.8867188ZM59.058594 5.9570312Q57.136719 5.9570312 56.089844 4.8125Q55.042969 3.6679688 55.042969 1.6210938Q55.042969 -0.47265625 56.097656 -1.640625Q57.152344 -2.8085938 59.089844 -2.8085938Q60.582031 -2.8085938 61.558594 -2.0585938Q62.535156 -1.3085938 62.785156 0.01171875L60.574219 0.12109375Q60.480469 -0.52734375 60.105469 -0.9140625Q59.730469 -1.3007812 59.042969 -1.3007812Q57.347656 -1.3007812 57.347656 1.5351562Q57.347656 4.4570312 59.074219 4.4570312Q59.699219 4.4570312 60.121094 4.0625Q60.542969 3.6679688 60.644531 2.8867188L62.847656 2.9882812Q62.730469 3.8554688 62.226562 4.5351562Q61.722656 5.2148438 60.902344 5.5859375Q60.082031 5.9570312 59.058594 5.9570312ZM68.386719 2.6054688L68.386719 0.69921875L72.449219 0.69921875L72.449219 2.6054688L68.386719 2.6054688ZM80.910156 -3.4257812L80.910156 -0.01953125L86.542969 -0.01953125L86.542969 1.7617188L80.910156 1.7617188L80.910156 5.8007812L78.605469 5.8007812L78.605469 -5.2070312L86.722656 -5.2070312L86.722656 -3.4257812L80.910156 -3.4257812ZM99.082031 0.24609375Q99.082031 1.9648438 98.402344 3.2695312Q97.722656 4.5742188 96.457031 5.265625Q95.191406 5.9570312 93.503906 5.9570312Q90.910156 5.9570312 89.4375 4.4296875Q87.964844 2.9023438 87.964844 0.24609375Q87.964844 -2.4023438 89.433594 -3.8867188Q90.902344 -5.3710938 93.519531 -5.3710938Q96.136719 -5.3710938 97.609375 -3.8710938Q99.082031 -2.3710938 99.082031 0.24609375ZM96.730469 0.24609375Q96.730469 -1.5351562 95.886719 -2.546875Q95.042969 -3.5585938 93.519531 -3.5585938Q91.972656 -3.5585938 91.128906 -2.5546875Q90.285156 -1.5507812 90.285156 0.24609375Q90.285156 2.0585938 91.148438 3.1015625Q92.011719 4.1445312 93.503906 4.1445312Q95.050781 4.1445312 95.890625 3.1289062Q96.730469 2.1132812 96.730469 0.24609375ZM108.38672 5.8007812L105.83203 1.6210938L103.12891 1.6210938L103.12891 5.8007812L100.82422 5.8007812L100.82422 -5.2070312L106.32422 -5.2070312Q108.29297 -5.2070312 109.36328 -4.359375Q110.43359 -3.5117188 110.43359 -1.9257812Q110.43359 -0.76953125 109.77734 0.0703125Q109.12109 0.91015625 108.00391 1.1757812L110.98047 5.8007812L108.38672 5.8007812ZM108.11328 -1.8320312Q108.11328 -3.4179688 106.08203 -3.4179688L103.12891 -3.4179688L103.12891 -0.16796875L106.14453 -0.16796875Q107.11328 -0.16796875 107.61328 -0.60546875Q108.11328 -1.0429688 108.11328 -1.8320312ZM121.51953 5.8007812L121.51953 -0.87109375Q121.51953 -1.0976562 121.52344 -1.3242188Q121.52734 -1.5507812 121.59766 -3.2695312Q121.04297 -1.1679688 120.77734 -0.33984375L118.79297 5.8007812L117.15234 5.8007812L115.16797 -0.33984375L114.33203 -3.2695312Q114.42578 -1.4570312 114.42578 -0.87109375L114.42578 5.8007812L112.37891 5.8007812L112.37891 -5.2070312L115.46484 -5.2070312L117.43359 0.94921875L117.60547 1.5429688L117.98047 3.0195312L118.47266 1.2539062L120.49609 -5.2070312L123.56641 -5.2070312L123.56641 5.8007812L121.51953 5.8007812ZM133.48828 5.8007812L132.51172 2.9882812L128.31641 2.9882812L127.33984 5.8007812L125.03516 5.8007812L129.05078 -5.2070312L131.76953 -5.2070312L135.76953 5.8007812L133.48828 5.8007812ZM130.41016 -3.5117188L130.36328 -3.3398438Q130.28516 -3.0585938 130.17578 -2.6992188Q130.06641 -2.3398438 128.83203 1.2539062L131.99609 1.2539062L130.91016 -1.9101562L130.57422 -2.9726562L130.41016 -3.5117188ZM141.04297 -3.4257812L141.04297 5.8007812L138.73828 5.8007812L138.73828 -3.4257812L135.18359 -3.4257812L135.18359 -5.2070312L144.60547 -5.2070312L144.60547 -3.4257812L141.04297 -3.4257812ZM160.10547 0.21484375Q160.10547 1.9179688 159.4375 3.1875Q158.76953 4.4570312 157.54688 5.1289062Q156.32422 5.8007812 154.74609 5.8007812L150.29297 5.8007812L150.29297 -5.2070312L154.27734 -5.2070312Q157.05859 -5.2070312 158.58203 -3.8046875Q160.10547 -2.4023438 160.10547 0.21484375ZM157.78516 0.21484375Q157.78516 -1.5585938 156.86328 -2.4921875Q155.94141 -3.4257812 154.23047 -3.4257812L152.59766 -3.4257812L152.59766 4.0195312L154.55078 4.0195312Q156.03516 4.0195312 156.91016 2.9960938Q157.78516 1.9726562 157.78516 0.21484375ZM169.92578 1.5664062Q169.92578 3.6210938 168.78516 4.7890625Q167.64453 5.9570312 165.62891 5.9570312Q163.65234 5.9570312 162.52734 4.7851562Q161.40234 3.6132812 161.40234 1.5664062Q161.40234 -0.47265625 162.52734 -1.640625Q163.65234 -2.8085938 165.67578 -2.8085938Q167.74609 -2.8085938 168.83594 -1.6796875Q169.92578 -0.55078125 169.92578 1.5664062ZM167.62891 1.5664062Q167.62891 0.05859375 167.13672 -0.62109375Q166.64453 -1.3007812 165.70703 -1.3007812Q163.70703 -1.3007812 163.70703 1.5664062Q163.70703 2.9804688 164.19531 3.71875Q164.68359 4.4570312 165.60547 4.4570312Q167.62891 4.4570312 167.62891 1.5664062ZM180.80859 5.8007812L178.48828 5.8007812L177.14453 0.64453125Q177.05078 0.29296875 176.77734 -1.0898438L176.37109 0.66015625L175.01172 5.8007812L172.69141 5.8007812L170.50391 -2.6523438L172.56641 -2.6523438L173.95703 3.8085938L174.06641 3.2304688L174.26172 2.3164062L175.58984 -2.6523438L177.94141 -2.6523438L179.23828 2.3164062Q179.34766 2.7226562 179.55859 3.8085938L179.77734 2.7773438L180.99609 -2.6523438L183.02734 -2.6523438L180.80859 5.8007812ZM189.58984 5.8007812L189.58984 1.0585938Q189.58984 -1.1679688 188.08203 -1.1679688Q187.28516 -1.1679688 186.79688 -0.484375Q186.30859 0.19921875 186.30859 1.2695312L186.30859 5.8007812L184.11328 5.8007812L184.11328 -0.76171875Q184.11328 -1.4414062 184.09375 -1.875Q184.07422 -2.3085938 184.05078 -2.6523438L186.14453 -2.6523438Q186.16797 -2.5039062 186.20703 -1.859375Q186.24609 -1.2148438 186.24609 -0.97265625L186.27734 -0.97265625Q186.72266 -1.9414062 187.39453 -2.3789062Q188.06641 -2.8164062 188.99609 -2.8164062Q190.33984 -2.8164062 191.05859 -1.9882812Q191.77734 -1.1601562 191.77734 0.43359375L191.77734 5.8007812L189.58984 5.8007812ZM193.88672 5.8007812L193.88672 -5.7929688L196.08203 -5.7929688L196.08203 5.8007812L193.88672 5.8007812ZM206.36328 1.5664062Q206.36328 3.6210938 205.22266 4.7890625Q204.08203 5.9570312 202.06641 5.9570312Q200.08984 5.9570312 198.96484 4.7851562Q197.83984 3.6132812 197.83984 1.5664062Q197.83984 -0.47265625 198.96484 -1.640625Q200.08984 -2.8085938 202.11328 -2.8085938Q204.18359 -2.8085938 205.27344 -1.6796875Q206.36328 -0.55078125 206.36328 1.5664062ZM204.06641 1.5664062Q204.06641 0.05859375 203.57422 -0.62109375Q203.08203 -1.3007812 202.14453 -1.3007812Q200.14453 -1.3007812 200.14453 1.5664062Q200.14453 2.9804688 200.63281 3.71875Q201.12109 4.4570312 202.04297 4.4570312Q204.06641 4.4570312 204.06641 1.5664062ZM210.05859 5.9570312Q208.83203 5.9570312 208.14453 5.2890625Q207.45703 4.6210938 207.45703 3.4101562Q207.45703 2.0976562 208.3125 1.4101562Q209.16797 0.72265625 210.79297 0.70703125L212.61328 0.67578125L212.61328 0.24609375Q212.61328 -0.58203125 212.32422 -0.984375Q212.03516 -1.3867188 211.37891 -1.3867188Q210.76953 -1.3867188 210.48438 -1.109375Q210.19922 -0.83203125 210.12891 -0.19140625L207.83984 -0.30078125Q208.05078 -1.5351562 208.96875 -2.171875Q209.88672 -2.8085938 211.47266 -2.8085938Q213.07422 -2.8085938 213.94141 -2.0195312Q214.80859 -1.2304688 214.80859 0.22265625L214.80859 3.3007812Q214.80859 4.0117188 214.96875 4.28125Q215.12891 4.5507812 215.50391 4.5507812Q215.75391 4.5507812 215.98828 4.5039062L215.98828 5.6914062Q215.79297 5.7382812 215.63672 5.7773438Q215.48047 5.8164062 215.32422 5.8398438Q215.16797 5.8632812 214.99219 5.8789062Q214.81641 5.8945312 214.58203 5.8945312Q213.75391 5.8945312 213.35938 5.4882812Q212.96484 5.0820312 212.88672 4.2929688L212.83984 4.2929688Q211.91797 5.9570312 210.05859 5.9570312ZM212.61328 1.8867188L211.48828 1.9023438Q210.72266 1.9335938 210.40234 2.0703125Q210.08203 2.2070312 209.91406 2.4882812Q209.74609 2.7695312 209.74609 3.2382812Q209.74609 3.8398438 210.02344 4.1328125Q210.30078 4.4257812 210.76172 4.4257812Q211.27734 4.4257812 211.70312 4.1445312Q212.12891 3.8632812 212.37109 3.3671875Q212.61328 2.8710938 212.61328 2.3164062L212.61328 1.8867188ZM222.48047 5.8007812Q222.44922 5.6835938 222.40625 5.2109375Q222.36328 4.7382812 222.36328 4.4257812L222.33203 4.4257812Q221.62109 5.9570312 219.62891 5.9570312Q218.15234 5.9570312 217.34766 4.8046875Q216.54297 3.6523438 216.54297 1.5820312Q216.54297 -0.51953125 217.39062 -1.6640625Q218.23828 -2.8085938 219.79297 -2.8085938Q220.69141 -2.8085938 221.34375 -2.4335938Q221.99609 -2.0585938 222.34766 -1.3164062L222.36328 -1.3164062L222.34766 -2.7070312L222.34766 -5.7929688L224.54297 -5.7929688L224.54297 3.9570312Q224.54297 4.7382812 224.60547 5.8007812L222.48047 5.8007812ZM222.37891 1.5273438Q222.37891 0.16015625 221.92188 -0.578125Q221.46484 -1.3164062 220.57422 -1.3164062Q219.69141 -1.3164062 219.26172 -0.6015625Q218.83203 0.11328125 218.83203 1.5820312Q218.83203 4.4570312 220.55859 4.4570312Q221.42578 4.4570312 221.90234 3.6953125Q222.37891 2.9335938 222.37891 1.5273438ZM236.14453 -3.4257812L236.14453 5.8007812L233.83984 5.8007812L233.83984 -3.4257812L230.28516 -3.4257812L230.28516 -5.2070312L239.70703 -5.2070312L239.70703 -3.4257812L236.14453 -3.4257812ZM240.11328 5.8007812L240.11328 -0.66796875Q240.11328 -1.3632812 240.09375 -1.828125Q240.07422 -2.2929688 240.05078 -2.6523438L242.14453 -2.6523438Q242.16797 -2.5117188 242.20703 -1.796875Q242.24609 -1.0820312 242.24609 -0.84765625L242.27734 -0.84765625Q242.59766 -1.7382812 242.84766 -2.1015625Q243.09766 -2.4648438 243.44141 -2.640625Q243.78516 -2.8164062 244.30078 -2.8164062Q244.72266 -2.8164062 244.98047 -2.6992188L244.98047 -0.86328125Q244.44922 -0.98046875 244.04297 -0.98046875Q243.22266 -0.98046875 242.76562 -0.31640625Q242.30859 0.34765625 242.30859 1.6523438L242.30859 5.8007812L240.11328 5.8007812ZM249.80078 5.9570312Q247.89453 5.9570312 246.87109 4.828125Q245.84766 3.6992188 245.84766 1.5351562Q245.84766 -0.55859375 246.88672 -1.6835938Q247.92578 -2.8085938 249.83203 -2.8085938Q251.65234 -2.8085938 252.61328 -1.6015625Q253.57422 -0.39453125 253.57422 1.9335938L253.57422 1.9960938L248.15234 1.9960938Q248.15234 3.2304688 248.60938 3.859375Q249.06641 4.4882812 249.91016 4.4882812Q251.07422 4.4882812 251.37891 3.4804688L253.44922 3.6601562Q252.55078 5.9570312 249.80078 5.9570312ZM249.80078 -1.4257812Q249.02734 -1.4257812 248.60938 -0.88671875Q248.19141 -0.34765625 248.16797 0.62109375L251.44922 0.62109375Q251.38672 -0.40234375 250.95703 -0.9140625Q250.52734 -1.4257812 249.80078 -1.4257812ZM260.71484 5.8007812L260.71484 1.0585938Q260.71484 -1.1679688 259.20703 -1.1679688Q258.41016 -1.1679688 257.92188 -0.484375Q257.43359 0.19921875 257.43359 1.2695312L257.43359 5.8007812L255.23828 5.8007812L255.23828 -0.76171875Q255.23828 -1.4414062 255.21875 -1.875Q255.19922 -2.3085938 255.17578 -2.6523438L257.26953 -2.6523438Q257.29297 -2.5039062 257.33203 -1.859375Q257.37109 -1.2148438 257.37109 -0.97265625L257.40234 -0.97265625Q257.84766 -1.9414062 258.51953 -2.3789062Q259.19141 -2.8164062 260.12109 -2.8164062Q261.46484 -2.8164062 262.18359 -1.9882812Q262.90234 -1.1601562 262.90234 0.43359375L262.90234 5.8007812L260.71484 5.8007812ZM270.48828 5.8007812Q270.45703 5.6835938 270.41406 5.2109375Q270.37109 4.7382812 270.37109 4.4257812L270.33984 4.4257812Q269.62891 5.9570312 267.63672 5.9570312Q266.16016 5.9570312 265.35547 4.8046875Q264.55078 3.6523438 264.55078 1.5820312Q264.55078 -0.51953125 265.39844 -1.6640625Q266.24609 -2.8085938 267.80078 -2.8085938Q268.69922 -2.8085938 269.35156 -2.4335938Q270.00391 -2.0585938 270.35547 -1.3164062L270.37109 -1.3164062L270.35547 -2.7070312L270.35547 -5.7929688L272.55078 -5.7929688L272.55078 3.9570312Q272.55078 4.7382812 272.61328 5.8007812L270.48828 5.8007812ZM270.38672 1.5273438Q270.38672 0.16015625 269.92969 -0.578125Q269.47266 -1.3164062 268.58203 -1.3164062Q267.69922 -1.3164062 267.26953 -0.6015625Q266.83984 0.11328125 266.83984 1.5820312Q266.83984 4.4570312 268.56641 4.4570312Q269.43359 4.4570312 269.91016 3.6953125Q270.38672 2.9335938 270.38672 1.5273438ZM281.91016 3.3320312Q281.91016 4.5585938 280.90625 5.2578125Q279.90234 5.9570312 278.12891 5.9570312Q276.38672 5.9570312 275.46094 5.40625Q274.53516 4.8554688 274.23047 3.6914062L276.16016 3.4023438Q276.32422 4.0039062 276.72656 4.2539062Q277.12891 4.5039062 278.12891 4.5039062Q279.05078 4.5039062 279.47266 4.2695312Q279.89453 4.0351562 279.89453 3.5351562Q279.89453 3.1289062 279.55469 2.890625Q279.21484 2.6523438 278.40234 2.4882812Q276.54297 2.1210938 275.89453 1.8046875Q275.24609 1.4882812 274.90625 0.984375Q274.56641 0.48046875 274.56641 -0.25390625Q274.56641 -1.4648438 275.5 -2.140625Q276.43359 -2.8164062 278.14453 -2.8164062Q279.65234 -2.8164062 280.57031 -2.2304688Q281.48828 -1.6445312 281.71484 -0.53515625L279.76953 -0.33203125Q279.67578 -0.84765625 279.30859 -1.1015625Q278.94141 -1.3554688 278.14453 -1.3554688Q277.36328 -1.3554688 276.97266 -1.15625Q276.58203 -0.95703125 276.58203 -0.48828125Q276.58203 -0.12109375 276.88281 0.09375Q277.18359 0.30859375 277.89453 0.44921875Q278.88672 0.65234375 279.65625 0.8671875Q280.42578 1.0820312 280.89062 1.3789062Q281.35547 1.6757812 281.63281 2.140625Q281.91016 2.6054688 281.91016 3.3320312Z"/>
	<path fill="none" stroke="black" stroke-width="1" stroke-miterlimit="10" stroke-opacity="0.10196079" d="M49 749.5L1195 749.5"/>
	<clipPath id="cl_3ea">
		<rect y="749.20001" width="1200" height="50.799988"/>
	</clipPath>
	<g clip-path="url(#cl_3ea)">
		<path fill="#666" transform="translate(49.75 760.2)" d="M-12.751953 11.300586L-14 11.300586L-16.302734 4.960742L-15.177734 4.960742L-13.783203 9.085742Q-13.707031 9.320117 -13.378906 10.474414L-13.173828 9.788867L-12.945312 9.0974607L-11.503906 4.960742L-10.384766 4.960742L-12.751953 11.300586ZM-4.1386719 7.1697264Q-4.1386719 9.2380857 -4.8681641 10.327929Q-5.5976562 11.417773 -7.0214844 11.417773Q-8.4453125 11.417773 -9.1601562 10.333789Q-9.875 9.2498045 -9.875 7.1697264Q-9.875 5.0427732 -9.1806641 3.9822264Q-8.4863281 2.9216795 -6.9863281 2.9216795Q-5.5273438 2.9216795 -4.8330078 3.9939451Q-4.1386719 5.0662107 -4.1386719 7.1697264ZM-5.2109375 7.1697264Q-5.2109375 5.382617 -5.6240234 4.5798826Q-6.0371094 3.7771482 -6.9863281 3.7771482Q-7.9589844 3.7771482 -8.3837891 4.5681639Q-8.8085938 5.3591795 -8.8085938 7.1697264Q-8.8085938 8.9275389 -8.3779297 9.741992Q-7.9472656 10.556445 -7.0097656 10.556445Q-6.078125 10.556445 -5.6445312 9.7244139Q-5.2109375 8.8923826 -5.2109375 7.1697264ZM-2.5742188 11.300586L-2.5742188 10.017383L-1.4316406 10.017383L-1.4316406 11.300586L-2.5742188 11.300586ZM0.578125 11.300586L0.578125 10.404101L2.6816406 10.404101L2.6816406 4.0525389L0.81835938 5.382617L0.81835938 4.3865232L2.7695312 3.0447264L3.7421875 3.0447264L3.7421875 10.404101L5.7519531 10.404101L5.7519531 11.300586L0.578125 11.300586ZM7.4335938 11.300586L7.4335938 10.017383L8.5761719 10.017383L8.5761719 11.300586L7.4335938 11.300586ZM15.876953 7.1697264Q15.876953 9.2380857 15.147461 10.327929Q14.417969 11.417773 12.994141 11.417773Q11.570312 11.417773 10.855469 10.333789Q10.140625 9.2498045 10.140625 7.1697264Q10.140625 5.0427732 10.834961 3.9822264Q11.529297 2.9216795 13.029297 2.9216795Q14.488281 2.9216795 15.182617 3.9939451Q15.876953 5.0662107 15.876953 7.1697264ZM14.804688 7.1697264Q14.804688 5.382617 14.391602 4.5798826Q13.978516 3.7771482 13.029297 3.7771482Q12.056641 3.7771482 11.631836 4.5681639Q11.207031 5.3591795 11.207031 7.1697264Q11.207031 8.9275389 11.637695 9.741992Q12.068359 10.556445 13.005859 10.556445Q13.9375 10.556445 14.371094 9.7244139Q14.804688 8.8923826 14.804688 7.1697264Z"/>
	</g>
	<path fill="none" stroke="black" stroke-width="1" stroke-miterlimit="10" stroke-opacity="0.10196079" d="M49.5 71L49.5 750"/>
	<clipPath id="cl_3ec">
		<rect width="49.75" height="800"/>
	</clipPath>
	<g clip-path="url(#cl_3ec)">
		<path fill="#666" transform="translate(38.75 749.2)" d="M-0.46679688 -0.030273438Q-0.46679688 2.0380859 -1.1962891 3.1279297Q-1.9257812 4.2177734 -3.3496094 4.2177734Q-4.7734375 4.2177734 -5.4882812 3.1337891Q-6.203125 2.0498047 -6.203125 -0.030273438Q-6.203125 -2.1572266 -5.5087891 -3.2177734Q-4.8144531 -4.2783203 -3.3144531 -4.2783203Q-1.8554688 -4.2783203 -1.1611328 -3.2060547Q-0.46679688 -2.1337891 -0.46679688 -0.030273438ZM-1.5390625 -0.030273438Q-1.5390625 -1.8173828 -1.9521484 -2.6201172Q-2.3652344 -3.4228516 -3.3144531 -3.4228516Q-4.2871094 -3.4228516 -4.7119141 -2.6318359Q-5.1367188 -1.8408203 -5.1367188 -0.030273438Q-5.1367188 1.7275391 -4.7060547 2.5419922Q-4.2753906 3.3564453 -3.3378906 3.3564453Q-2.40625 3.3564453 -1.9726562 2.5244141Q-1.5390625 1.6923828 -1.5390625 -0.030273438Z"/>
	</g>
	<clipPath id="cl_3ed">
		<rect width="49.75" height="800"/>
	</clipPath>
	<g clip-path="url(#cl_3ed)">
		<path fill="#666" transform="translate(38.75 681.4)" d="M-5.7578125 4.1005859L-5.7578125 3.2041016L-3.6542969 3.2041016L-3.6542969 -3.1474609L-5.5175781 -1.8173828L-5.5175781 -2.8134766L-3.5664062 -4.1552734L-2.59375 -4.1552734L-2.59375 3.2041016L-0.58398438 3.2041016L-0.58398438 4.1005859L-5.7578125 4.1005859Z"/>
	</g>
	<clipPath id="cl_3ee">
		<rect width="49.75" height="800"/>
	</clipPath>
	<g clip-path="url(#cl_3ee)">
		<path fill="#666" transform="translate(38.75 613.6)" d="M-6.0683594 4.1005859L-6.0683594 3.3564453Q-5.7695312 2.6708984 -5.3388672 2.1464844Q-4.9082031 1.6220703 -4.4335938 1.1972656Q-3.9589844 0.77246094 -3.4931641 0.40917969Q-3.0273438 0.045898438 -2.6523438 -0.31738281Q-2.2773438 -0.68066406 -2.0458984 -1.0791016Q-1.8144531 -1.4775391 -1.8144531 -1.9814453Q-1.8144531 -2.6611328 -2.2128906 -3.0361328Q-2.6113281 -3.4111328 -3.3203125 -3.4111328Q-3.9941406 -3.4111328 -4.4306641 -3.0449219Q-4.8671875 -2.6787109 -4.9433594 -2.0166016L-6.0214844 -2.1162109Q-5.9042969 -3.1064453 -5.1806641 -3.6923828Q-4.4570312 -4.2783203 -3.3203125 -4.2783203Q-2.0722656 -4.2783203 -1.4013672 -3.6894531Q-0.73046875 -3.1005859 -0.73046875 -2.0166016Q-0.73046875 -1.5361328 -0.95019531 -1.0615234Q-1.1699219 -0.58691406 -1.6035156 -0.11230469Q-2.0371094 0.36230469 -3.2617188 1.3583984Q-3.9355469 1.9091797 -4.3339844 2.3515625Q-4.7324219 2.7939453 -4.9082031 3.2041016L-0.6015625 3.2041016L-0.6015625 4.1005859L-6.0683594 4.1005859Z"/>
	</g>
	<clipPath id="cl_3ef">
		<rect width="49.75" height="800"/>
	</clipPath>
	<g clip-path="url(#cl_3ef)">
		<path fill="#666" transform="translate(38.75 545.8)" d="M-0.52539062 1.8212891Q-0.52539062 2.9638672 -1.2519531 3.5908203Q-1.9785156 4.2177734 -3.3261719 4.2177734Q-4.5800781 4.2177734 -5.3271484 3.6523438Q-6.0742188 3.0869141 -6.2148438 1.9794922L-5.125 1.8798828Q-4.9140625 3.3447266 -3.3261719 3.3447266Q-2.5292969 3.3447266 -2.0751953 2.9521484Q-1.6210938 2.5595703 -1.6210938 1.7861328Q-1.6210938 1.1123047 -2.1396484 0.734375Q-2.6582031 0.35644531 -3.6367188 0.35644531L-4.234375 0.35644531L-4.234375 -0.55761719L-3.6601562 -0.55761719Q-2.7929688 -0.55761719 -2.3154297 -0.93554688Q-1.8378906 -1.3134766 -1.8378906 -1.9814453Q-1.8378906 -2.6435547 -2.2275391 -3.0273438Q-2.6171875 -3.4111328 -3.3847656 -3.4111328Q-4.0820312 -3.4111328 -4.5126953 -3.0537109Q-4.9433594 -2.6962891 -5.0136719 -2.0458984L-6.0742188 -2.1279297Q-5.9570312 -3.1416016 -5.2333984 -3.7099609Q-4.5097656 -4.2783203 -3.3730469 -4.2783203Q-2.1308594 -4.2783203 -1.4423828 -3.7011719Q-0.75390625 -3.1240234 -0.75390625 -2.0927734Q-0.75390625 -1.3017578 -1.1962891 -0.80664062Q-1.6386719 -0.31152344 -2.4824219 -0.13574219L-2.4824219 -0.11230469Q-1.5566406 -0.012695312 -1.0410156 0.50878906Q-0.52539062 1.0302734 -0.52539062 1.8212891Z"/>
	</g>
	<clipPath id="cl_3f0">
		<rect width="49.75" height="800"/>
	</clipPath>
	<g clip-path="url(#cl_3f0)">
		<path fill="#666" transform="translate(38.75 478)" d="M-1.5097656 2.2314453L-1.5097656 4.1005859L-2.5058594 4.1005859L-2.5058594 2.2314453L-6.3964844 2.2314453L-6.3964844 1.4111328L-2.6171875 -4.1552734L-1.5097656 -4.1552734L-1.5097656 1.3994141L-0.34960938 1.3994141L-0.34960938 2.2314453L-1.5097656 2.2314453ZM-2.5058594 -2.9658203Q-2.5175781 -2.9306641 -2.6699219 -2.6552734Q-2.8222656 -2.3798828 -2.8984375 -2.2685547L-5.0136719 0.84863281L-5.3300781 1.2822266L-5.4238281 1.3994141L-2.5058594 1.3994141L-2.5058594 -2.9658203Z"/>
	</g>
	<clipPath id="cl_3f1">
		<rect width="49.75" height="800"/>
	</clipPath>
	<g clip-path="url(#cl_3f1)">
		<path fill="#666" transform="translate(38.75 410.2)" d="M-0.50195312 1.4111328Q-0.50195312 2.7177734 -1.2783203 3.4677734Q-2.0546875 4.2177734 -3.4316406 4.2177734Q-4.5859375 4.2177734 -5.2949219 3.7138672Q-6.0039062 3.2099609 -6.1914062 2.2548828L-5.125 2.1318359Q-4.7910156 3.3564453 -3.4082031 3.3564453Q-2.5585938 3.3564453 -2.078125 2.84375Q-1.5976562 2.3310547 -1.5976562 1.4345703Q-1.5976562 0.65527344 -2.0810547 0.17480469Q-2.5644531 -0.30566406 -3.3847656 -0.30566406Q-3.8125 -0.30566406 -4.1816406 -0.17089844Q-4.5507812 -0.036132812 -4.9199219 0.28613281L-5.9511719 0.28613281L-5.6757812 -4.1552734L-0.98242188 -4.1552734L-0.98242188 -3.2587891L-4.7148438 -3.2587891L-4.8730469 -0.63964844Q-4.1875 -1.1669922 -3.1679688 -1.1669922Q-1.9492188 -1.1669922 -1.2255859 -0.45214844Q-0.50195312 0.26269531 -0.50195312 1.4111328Z"/>
	</g>
	<clipPath id="cl_3f2">
		<rect width="49.75" height="800"/>
	</clipPath>
	<g clip-path="url(#cl_3f2)">
		<path fill="#666" transform="translate(38.75 342.4)" d="M-0.52539062 1.3994141Q-0.52539062 2.7060547 -1.234375 3.4619141Q-1.9433594 4.2177734 -3.1914062 4.2177734Q-4.5859375 4.2177734 -5.3242188 3.1806641Q-6.0625 2.1435547 -6.0625 0.16308594Q-6.0625 -1.9814453 -5.2949219 -3.1298828Q-4.5273438 -4.2783203 -3.109375 -4.2783203Q-1.2402344 -4.2783203 -0.75390625 -2.5966797L-1.7617188 -2.4150391Q-2.0722656 -3.4228516 -3.1210938 -3.4228516Q-4.0234375 -3.4228516 -4.5185547 -2.5820312Q-5.0136719 -1.7412109 -5.0136719 -0.14746094Q-4.7265625 -0.68066406 -4.2050781 -0.95898438Q-3.6835938 -1.2373047 -3.0097656 -1.2373047Q-1.8671875 -1.2373047 -1.1962891 -0.52246094Q-0.52539062 0.19238281 -0.52539062 1.3994141ZM-1.5976562 1.4462891Q-1.5976562 0.54980469 -2.0371094 0.063476562Q-2.4765625 -0.42285156 -3.2617188 -0.42285156Q-4 -0.42285156 -4.4541016 0.0078125Q-4.9082031 0.43847656 -4.9082031 1.1943359Q-4.9082031 2.1494141 -4.4365234 2.7587891Q-3.9648438 3.3681641 -3.2265625 3.3681641Q-2.4648438 3.3681641 -2.03125 2.8554688Q-1.5976562 2.3427734 -1.5976562 1.4462891Z"/>
	</g>
	<clipPath id="cl_3f3">
		<rect width="49.75" height="800"/>
	</clipPath>
	<g clip-path="url(#cl_3f3)">
		<path fill="#666" transform="translate(38.75 274.6)" d="M-0.6015625 -3.2998047Q-1.8671875 -1.3662109 -2.3886719 -0.27050781Q-2.9101562 0.82519531 -3.1708984 1.8916016Q-3.4316406 2.9580078 -3.4316406 4.1005859L-4.5332031 4.1005859Q-4.5332031 2.5185547 -3.8623047 0.76953125Q-3.1914062 -0.97949219 -1.6210938 -3.2587891L-6.0566406 -3.2587891L-6.0566406 -4.1552734L-0.6015625 -4.1552734L-0.6015625 -3.2998047Z"/>
	</g>
	<clipPath id="cl_3f4">
		<rect width="49.75" height="800"/>
	</clipPath>
	<g clip-path="url(#cl_3f4)">
		<path fill="#666" transform="translate(38.75 206.8)" d="M-0.51953125 1.7978516Q-0.51953125 2.9404297 -1.2460938 3.5791016Q-1.9726562 4.2177734 -3.3320312 4.2177734Q-4.65625 4.2177734 -5.4033203 3.5908203Q-6.1503906 2.9638672 -6.1503906 1.8095703Q-6.1503906 1.0009766 -5.6875 0.45019531Q-5.2246094 -0.10058594 -4.5039062 -0.21777344L-4.5039062 -0.24121094Q-5.1777344 -0.39941406 -5.5673828 -0.92675781Q-5.9570312 -1.4541016 -5.9570312 -2.1630859Q-5.9570312 -3.1064453 -5.2509766 -3.6923828Q-4.5449219 -4.2783203 -3.3554688 -4.2783203Q-2.1367188 -4.2783203 -1.4306641 -3.7041016Q-0.72460938 -3.1298828 -0.72460938 -2.1513672Q-0.72460938 -1.4423828 -1.1171875 -0.91503906Q-1.5097656 -0.38769531 -2.1894531 -0.25292969L-2.1894531 -0.22949219Q-1.3984375 -0.10058594 -0.95898438 0.44140625Q-0.51953125 0.98339844 -0.51953125 1.7978516ZM-1.8203125 -2.0927734Q-1.8203125 -3.4931641 -3.3554688 -3.4931641Q-4.0996094 -3.4931641 -4.4892578 -3.1416016Q-4.8789062 -2.7900391 -4.8789062 -2.0927734Q-4.8789062 -1.3837891 -4.4775391 -1.0117188Q-4.0761719 -0.63964844 -3.34375 -0.63964844Q-2.5996094 -0.63964844 -2.2099609 -0.98242188Q-1.8203125 -1.3251953 -1.8203125 -2.0927734ZM-1.6152344 1.6982422Q-1.6152344 0.93066406 -2.0722656 0.54101562Q-2.5292969 0.15136719 -3.3554688 0.15136719Q-4.1582031 0.15136719 -4.609375 0.5703125Q-5.0605469 0.98925781 -5.0605469 1.7216797Q-5.0605469 3.4267578 -3.3203125 3.4267578Q-2.4589844 3.4267578 -2.0371094 3.0136719Q-1.6152344 2.6005859 -1.6152344 1.6982422Z"/>
	</g>
	<clipPath id="cl_3f5">
		<rect width="49.75" height="800"/>
	</clipPath>
	<g clip-path="url(#cl_3f5)">
		<path fill="#666" transform="translate(38.75 139)" d="M-0.56640625 -0.19433594Q-0.56640625 1.9326172 -1.3427734 3.0751953Q-2.1191406 4.2177734 -3.5546875 4.2177734Q-4.5214844 4.2177734 -5.1044922 3.8105469Q-5.6875 3.4033203 -5.9394531 2.4951172L-4.9316406 2.3369141Q-4.6152344 3.3681641 -3.5371094 3.3681641Q-2.6289062 3.3681641 -2.1308594 2.5244141Q-1.6328125 1.6806641 -1.609375 0.11621094Q-1.84375 0.64355469 -2.4121094 0.96289062Q-2.9804688 1.2822266 -3.6601562 1.2822266Q-4.7734375 1.2822266 -5.4414062 0.52050781Q-6.109375 -0.24121094 -6.109375 -1.5009766Q-6.109375 -2.7958984 -5.3828125 -3.5371094Q-4.65625 -4.2783203 -3.3613281 -4.2783203Q-1.984375 -4.2783203 -1.2753906 -3.2587891Q-0.56640625 -2.2392578 -0.56640625 -0.19433594ZM-1.7148438 -1.2138672Q-1.7148438 -2.2099609 -2.171875 -2.8164062Q-2.6289062 -3.4228516 -3.3964844 -3.4228516Q-4.1582031 -3.4228516 -4.5976562 -2.9042969Q-5.0371094 -2.3857422 -5.0371094 -1.5009766Q-5.0371094 -0.59863281 -4.5976562 -0.07421875Q-4.1582031 0.45019531 -3.4082031 0.45019531Q-2.9511719 0.45019531 -2.5585938 0.2421875Q-2.1660156 0.034179688 -1.9404297 -0.34667969Q-1.7148438 -0.72753906 -1.7148438 -1.2138672Z"/>
	</g>
	<clipPath id="cl_3f6">
		<rect width="49.75" height="800"/>
	</clipPath>
	<g clip-path="url(#cl_3f6)">
		<path fill="#666" transform="translate(38.75 71.2)" d="M-12.429688 4.1005859L-12.429688 3.2041016L-10.326172 3.2041016L-10.326172 -3.1474609L-12.189453 -1.8173828L-12.189453 -2.8134766L-10.238281 -4.1552734L-9.265625 -4.1552734L-9.265625 3.2041016L-7.2558594 3.2041016L-7.2558594 4.1005859L-12.429688 4.1005859ZM-0.46484375 -0.030273438Q-0.46484375 2.0380859 -1.1943359 3.1279297Q-1.9238281 4.2177734 -3.3476562 4.2177734Q-4.7714844 4.2177734 -5.4863281 3.1337891Q-6.2011719 2.0498047 -6.2011719 -0.030273438Q-6.2011719 -2.1572266 -5.5068359 -3.2177734Q-4.8125 -4.2783203 -3.3125 -4.2783203Q-1.8535156 -4.2783203 -1.1591797 -3.2060547Q-0.46484375 -2.1337891 -0.46484375 -0.030273438ZM-1.5371094 -0.030273438Q-1.5371094 -1.8173828 -1.9501953 -2.6201172Q-2.3632812 -3.4228516 -3.3125 -3.4228516Q-4.2851562 -3.4228516 -4.7099609 -2.6318359Q-5.1347656 -1.8408203 -5.1347656 -0.030273438Q-5.1347656 1.7275391 -4.7041016 2.5419922Q-4.2734375 3.3564453 -3.3359375 3.3564453Q-2.4042969 3.3564453 -1.9707031 2.5244141Q-1.5371094 1.6923828 -1.5371094 -0.030273438Z"/>
	</g>
	<clipPath id="cl_3f8">
		<rect x="43.75" y="65.199997" width="1156.25" height="690"/>
	</clipPath>
	<g clip-path="url(#cl_3f8)">
		<path fill="none" stroke="#C32222" stroke-width="2" stroke-miterlimit="10" d=""/>
	</g>
	<clipPath id="cl_3f9">
		<rect x="43.75" y="65.199997" width="1156.25" height="690"/>
	</clipPath>
	<g clip-path="url(#cl_3f9)">
		<path fill="#C32222" fill-opacity="0.2" d="M52.75 613.59998Q52.75 613.74744 52.73555 613.89404Q52.721107 614.04071 52.692352 614.18518Q52.663601 614.32977 52.620815 614.47083Q52.578033 614.61182 52.521633 614.74792Q52.465233 614.88409 52.39576 615.01404Q52.326286 615.14404 52.244404 615.2666Q52.162525 615.38916 52.069027 615.50311Q51.975533 615.61707 51.871319 615.72125Q51.767105 615.82544 51.653179 615.91895Q51.539253 616.01245 51.416706 616.09436Q51.294167 616.17627 51.164188 616.24573Q51.03421 616.31519 50.898048 616.37158Q50.76189 616.42804 50.620857 616.47083Q50.47982 616.51367 50.33527 616.54236Q50.19072 616.57117 50.044052 616.58557Q49.897381 616.59998 49.75 616.59998Q49.602619 616.59998 49.455948 616.58557Q49.309277 616.57117 49.164726 616.54236Q49.02018 616.51367 48.879143 616.47083Q48.73811 616.42804 48.601944 616.37158Q48.465782 616.31519 48.335808 616.24573Q48.205826 616.17627 48.083282 616.09436Q47.960747 616.01245 47.846817 615.91895Q47.732895 615.82544 47.628677 615.72125Q47.524467 615.61707 47.430969 615.50311Q47.337471 615.38916 47.255585 615.2666Q47.173706 615.14404 47.104233 615.0141Q47.03476 614.88409 46.978359 614.74792Q46.921963 614.61182 46.879177 614.47076Q46.836395 614.32977 46.80764 614.18518Q46.778893 614.04071 46.76445 613.89404Q46.75 613.74744 46.75 613.59998Q46.75 613.45264 46.76445 613.30591Q46.778896 613.15918 46.807648 613.01465Q46.836403 612.87012 46.879181 612.72906Q46.921963 612.58801 46.978359 612.45184Q47.03476 612.31567 47.104233 612.18573Q47.173706 612.05579 47.255585 611.93317Q47.337471 611.81067 47.430969 611.69678Q47.524467 611.58289 47.628677 611.47864Q47.732895 611.37445 47.846817 611.28094Q47.960747 611.18744 48.083282 611.10553Q48.205826 611.02368 48.335808 610.95422Q48.465782 610.88477 48.601944 610.82831Q48.73811 610.77197 48.879143 610.72913Q49.02018 610.6864 49.164726 610.65759Q49.309277 610.62891 49.455948 610.61444Q49.602619 610.59998 49.75 610.59998Q49.897381 610.59998 50.044052 610.61444Q50.19072 610.62891 50.335266 610.65759Q50.479816 610.6864 50.620853 610.72913Q50.761887 610.77191 50.898045 610.82825Q51.03421 610.8847 51.164188 610.95416Q51.294167 611.02368 51.416706 611.10547Q51.539253 611.18738 51.653179 611.28088Q51.767105 611.37439 51.871315 611.47858Q51.975533 611.58282 52.069023 611.69678Q52.162521 611.81067 52.2444 611.93311Q52.326279 612.05573 52.395756 612.18573Q52.465233 612.31567 52.521633 612.45184Q52.578033 612.58801 52.620815 612.72906Q52.663597 612.87012 52.692348 613.01465Q52.721107 613.15918 52.73555 613.30591Q52.75 613.45264 52.75 613.59998Z"/>
		<path fill="none" stroke="#C32222" stroke-width="2" stroke-miterlimit="10" d="M52.75 613.59998Q52.75 613.74744 52.73555 613.89404Q52.721107 614.04071 52.692352 614.18518Q52.663601 614.32977 52.620815 614.47083Q52.578033 614.61182 52.521633 614.74792Q52.465233 614.88409 52.39576 615.01404Q52.326286 615.14404 52.244404 615.2666Q52.162525 615.38916 52.069027 615.50311Q51.975533 615.61707 51.871319 615.72125Q51.767105 615.82544 51.653179 615.91895Q51.539253 616.01245 51.416706 616.09436Q51.294167 616.17627 51.164188 616.24573Q51.03421 616.31519 50.898048 616.37158Q50.76189 616.42804 50.620857 616.47083Q50.47982 616.51367 50.33527 616.54236Q50.19072 616.57117 50.044052 616.58557Q49.897381 616.59998 49.75 616.59998Q49.602619 616.59998 49.455948 616.58557Q49.309277 616.57117 49.164726 616.54236Q49.02018 616.51367 48.879143 616.47083Q48.73811 616.42804 48.601944 616.37158Q48.465782 616.31519 48.335808 616.24573Q48.205826 616.17627 48.083282 616.09436Q47.960747 616.01245 47.846817 615.91895Q47.732895 615.82544 47.628677 615.72125Q47.524467 615.61707 47.430969 615.50311Q47.337471 615.38916 47.255585 615.2666Q47.173706 615.14404 47.104233 615.0141Q47.03476 614.88409 46.978359 614.74792Q46.921963 614.61182 46.879177 614.47076Q46.836395 614.32977 46.80764 614.18518Q46.778893 614.04071 46.76445 613.89404Q46.75 613.74744 46.75 613.59998Q46.75 613.45264 46.76445 613.30591Q46.778896 613.15918 46.807648 613.01465Q46.836403 612.87012 46.879181 612.72906Q46.921963 612.58801 46.978359 612.45184Q47.03476 612.31567 47.104233 612.18573Q47.173706 612.05579 47.255585 611.93317Q47.337471 611.81067 47.430969 611.69678Q47.524467 611.58289 47.628677 611.47864Q47.732895 611.37445 47.846817 611.28094Q47.960747 611.18744 48.083282 611.10553Q48.205826 611.02368 48.335808 610.95422Q48.465782 610.88477 48.601944 610.82831Q48.73811 610.77197 48.879143 610.72913Q49.02018 610.6864 49.164726 610.65759Q49.309277 610.62891 49.455948 610.61444Q49.602619 610.59998 49.75 610.59998Q49.897381 610.59998 50.044052 610.61444Q50.19072 610.62891 50.335266 610.65759Q50.479816 610.6864 50.620853 610.72913Q50.761887 610.77191 50.898045 610.82825Q51.03421 610.8847 51.164188 610.95416Q51.294167 611.02368 51.416706 611.10547Q51.539253 611.18738 51.653179 611.28088Q51.767105 611.37439 51.871315 611.47858Q51.975533 611.58282 52.069023 611.69678Q52.162521 611.81067 52.2444 611.93311Q52.326279 612.05573 52.395756 612.18573Q52.465233 612.31567 52.521633 612.45184Q52.578033 612.58801 52.620815 612.72906Q52.663597 612.87012 52.692348 613.01465Q52.721107 613.15918 52.73555 613.30591Q52.75 613.45264 52.75 613.59998Z"/>
	</g>
</svg>
