<?xml version="1.0" encoding="utf-8" ?>
<svg xmlns="http://www.w3.org/2000/svg" xmlns:xlink="http://www.w3.org/1999/xlink" width="1200" height="800">
	<rect fill="white" width="1200" height="800"/>
	<path fill="none" stroke="black" stroke-width="1" stroke-miterlimit="10" stroke-opacity="0.10196079" d="M49.5 71.199997L49.5 749"/>
	<path fill="none" stroke="black" stroke-width="1" stroke-miterlimit="10" stroke-opacity="0.10196079" d="M49.5 750L49.5 757.20001"/>
	<path fill="#666" transform="translate(621.875 788.8)" d="M-26.550781 4.1005859L-28.695312 0.67285156L-31.267578 0.67285156L-31.267578 4.1005859L-32.386719 4.1005859L-32.386719 -4.1552734L-28.501953 -4.1552734Q-27.107422 -4.1552734 -26.348633 -3.53125Q-25.589844 -2.9072266 -25.589844 -1.7939453Q-25.589844 -0.87402344 -26.125977 -0.24707031Q-26.662109 0.37988281 -27.605469 0.54394531L-25.261719 4.1005859L-26.550781 4.1005859ZM-26.714844 -1.7822266Q-26.714844 -2.5029297 -27.204102 -2.8808594Q-27.693359 -3.2587891 -28.613281 -3.2587891L-31.267578 -3.2587891L-31.267578 -0.21191406L-28.566406 -0.21191406Q-27.681641 -0.21191406 -27.198242 -0.625Q-26.714844 -1.0380859 -26.714844 -1.7822266ZM-23.087891 1.1533203Q-23.087891 2.2431641 -22.636719 2.8349609Q-22.185547 3.4267578 -21.318359 3.4267578Q-20.632812 3.4267578 -20.219727 3.1513672Q-19.806641 2.8759766 -19.660156 2.4541016L-18.734375 2.7177734Q-19.302734 4.2177734 -21.318359 4.2177734Q-22.724609 4.2177734 -23.459961 3.3798828Q-24.195312 2.5419922 -24.195312 0.88964844Q-24.195312 -0.68066406 -23.459961 -1.5185547Q-22.724609 -2.3564453 -21.359375 -2.3564453Q-18.564453 -2.3564453 -18.564453 1.0126953L-18.564453 1.1533203L-23.087891 1.1533203ZM-19.654297 0.34472656Q-19.742188 -0.65722656 -20.164062 -1.1171875Q-20.585938 -1.5771484 -21.376953 -1.5771484Q-22.144531 -1.5771484 -22.592773 -1.0644531Q-23.041016 -0.55175781 -23.076172 0.34472656L-19.654297 0.34472656ZM-17.222656 4.1005859L-17.222656 -4.5947266L-16.167969 -4.5947266L-16.167969 4.1005859L-17.222656 4.1005859ZM-13.748047 1.1533203Q-13.748047 2.2431641 -13.296875 2.8349609Q-12.845703 3.4267578 -11.978516 3.4267578Q-11.292969 3.4267578 -10.879883 3.1513672Q-10.466797 2.8759766 -10.320312 2.4541016L-9.3945312 2.7177734Q-9.9628906 4.2177734 -11.978516 4.2177734Q-13.384766 4.2177734 -14.120117 3.3798828Q-14.855469 2.5419922 -14.855469 0.88964844Q-14.855469 -0.68066406 -14.120117 -1.5185547Q-13.384766 -2.3564453 -12.019531 -2.3564453Q-9.2246094 -2.3564453 -9.2246094 1.0126953L-9.2246094 1.1533203L-13.748047 1.1533203ZM-10.314453 0.34472656Q-10.402344 -0.65722656 -10.824219 -1.1171875Q-11.246094 -1.5771484 -12.037109 -1.5771484Q-12.804688 -1.5771484 -13.25293 -1.0644531Q-13.701172 -0.55175781 -13.736328 0.34472656L-10.314453 0.34472656ZM-6.265625 4.2177734Q-7.2207031 4.2177734 -7.7011719 3.7138672Q-8.1816406 3.2099609 -8.1816406 2.3310547Q-8.1816406 1.3466797 -7.5341797 0.81933594Q-6.8867188 0.29199219 -5.4453125 0.25683594L-4.0214844 0.23339844L-4.0214844 -0.11230469Q-4.0214844 -0.88574219 -4.3496094 -1.2197266Q-4.6777344 -1.5537109 -5.3808594 -1.5537109Q-6.0898438 -1.5537109 -6.4121094 -1.3134766Q-6.734375 -1.0732422 -6.7988281 -0.54589844L-7.9003906 -0.64550781Q-7.6308594 -2.3564453 -5.3574219 -2.3564453Q-4.1621094 -2.3564453 -3.5585938 -1.8085938Q-2.9550781 -1.2607422 -2.9550781 -0.22363281L-2.9550781 2.5068359Q-2.9550781 2.9755859 -2.8320312 3.2128906Q-2.7089844 3.4501953 -2.3632812 3.4501953Q-2.2109375 3.4501953 -2.0175781 3.4091797L-2.0175781 4.0654297Q-2.4160156 4.1591797 -2.8320312 4.1591797Q-3.4179688 4.1591797 -3.6845703 3.8515625Q-3.9511719 3.5439453 -3.9863281 2.8876953L-4.0214844 2.8876953Q-4.4257812 3.6142578 -4.9619141 3.9160156Q-5.4980469 4.2177734 -6.265625 4.2177734ZM-6.0253906 3.4267578Q-5.4453125 3.4267578 -4.9941406 3.1630859Q-4.5429688 2.8994141 -4.2822266 2.4394531Q-4.0214844 1.9794922 -4.0214844 1.4931641L-4.0214844 0.97167969L-5.1757812 0.99511719Q-5.9199219 1.0068359 -6.3037109 1.1474609Q-6.6875 1.2880859 -6.8925781 1.5810547Q-7.0976562 1.8740234 -7.0976562 2.3486328Q-7.0976562 2.8642578 -6.8193359 3.1455078Q-6.5410156 3.4267578 -6.0253906 3.4267578ZM3.5488281 2.3486328Q3.5488281 3.2451172 2.8720703 3.7314453Q2.1953125 4.2177734 0.9765625 4.2177734Q-0.20703125 4.2177734 -0.84863281 3.828125Q-1.4902344 3.4384766 -1.6835938 2.6123047L-0.75195312 2.4306641Q-0.6171875 2.9404297 -0.1953125 3.1777344Q0.2265625 3.4150391 0.9765625 3.4150391Q1.7792969 3.4150391 2.1513672 3.1689453Q2.5234375 2.9228516 2.5234375 2.4306641Q2.5234375 2.0556641 2.265625 1.8212891Q2.0078125 1.5869141 1.4335938 1.4345703L0.67773438 1.2353516Q-0.23046875 1.0009766 -0.61425781 0.77539062Q-0.99804688 0.54980469 -1.2148438 0.22753906Q-1.4316406 -0.094726562 -1.4316406 -0.56347656Q-1.4316406 -1.4306641 -0.81347656 -1.8847656Q-0.1953125 -2.3388672 0.98828125 -2.3388672Q2.0371094 -2.3388672 2.6552734 -1.9697266Q3.2734375 -1.6005859 3.4375 -0.78613281L2.4882812 -0.66894531Q2.4003906 -1.0908203 2.0166016 -1.3164062Q1.6328125 -1.5419922 0.98828125 -1.5419922Q0.2734375 -1.5419922 -0.06640625 -1.3251953Q-0.40625 -1.1083984 -0.40625 -0.66894531Q-0.40625 -0.39941406 -0.265625 -0.22363281Q-0.125 -0.047851562 0.15039062 0.075195312Q0.42578125 0.19824219 1.3105469 0.41503906Q2.1484375 0.62597656 2.5175781 0.8046875Q2.8867188 0.98339844 3.1005859 1.2001953Q3.3144531 1.4169922 3.4316406 1.7011719Q3.5488281 1.9853516 3.5488281 2.3486328ZM5.5996094 1.1533203Q5.5996094 2.2431641 6.0507812 2.8349609Q6.5019531 3.4267578 7.3691406 3.4267578Q8.0546875 3.4267578 8.4677734 3.1513672Q8.8808594 2.8759766 9.0273438 2.4541016L9.953125 2.7177734Q9.3847656 4.2177734 7.3691406 4.2177734Q5.9628906 4.2177734 5.2275391 3.3798828Q4.4921875 2.5419922 4.4921875 0.88964844Q4.4921875 -0.68066406 5.2275391 -1.5185547Q5.9628906 -2.3564453 7.328125 -2.3564453Q10.123047 -2.3564453 10.123047 1.0126953L10.123047 1.1533203L5.5996094 1.1533203ZM9.0332031 0.34472656Q8.9453125 -0.65722656 8.5234375 -1.1171875Q8.1015625 -1.5771484 7.3105469 -1.5771484Q6.5429688 -1.5771484 6.0947266 -1.0644531Q5.6464844 -0.55175781 5.6113281 0.34472656L9.0332031 0.34472656ZM17.992188 -3.2412109L17.992188 4.1005859L16.878906 4.1005859L16.878906 -3.2412109L14.042969 -3.2412109L14.042969 -4.1552734L20.828125 -4.1552734L20.828125 -3.2412109L17.992188 -3.2412109ZM22.199219 4.2177734Q21.244141 4.2177734 20.763672 3.7138672Q20.283203 3.2099609 20.283203 2.3310547Q20.283203 1.3466797 20.930664 0.81933594Q21.578125 0.29199219 23.019531 0.25683594L24.443359 0.23339844L24.443359 -0.11230469Q24.443359 -0.88574219 24.115234 -1.2197266Q23.787109 -1.5537109 23.083984 -1.5537109Q22.375 -1.5537109 22.052734 -1.3134766Q21.730469 -1.0732422 21.666016 -0.54589844L20.564453 -0.64550781Q20.833984 -2.3564453 23.107422 -2.3564453Q24.302734 -2.3564453 24.90625 -1.8085938Q25.509766 -1.2607422 25.509766 -0.22363281L25.509766 2.5068359Q25.509766 2.9755859 25.632812 3.2128906Q25.755859 3.4501953 26.101562 3.4501953Q26.253906 3.4501953 26.447266 3.4091797L26.447266 4.0654297Q26.048828 4.1591797 25.632812 4.1591797Q25.046875 4.1591797 24.780273 3.8515625Q24.513672 3.5439453 24.478516 2.8876953L24.443359 2.8876953Q24.039062 3.6142578 23.50293 3.9160156Q22.966797 4.2177734 22.199219 4.2177734ZM22.439453 3.4267578Q23.019531 3.4267578 23.470703 3.1630859Q23.921875 2.8994141 24.182617 2.4394531Q24.443359 1.9794922 24.443359 1.4931641L24.443359 0.97167969L23.289062 0.99511719Q22.544922 1.0068359 22.161133 1.1474609Q21.777344 1.2880859 21.572266 1.5810547Q21.367188 1.8740234 21.367188 2.3486328Q21.367188 2.8642578 21.645508 3.1455078Q21.923828 3.4267578 22.439453 3.4267578ZM29.658203 6.5908203Q28.621094 6.5908203 28.005859 6.1835938Q27.390625 5.7763672 27.214844 5.0263672L28.275391 4.8740234Q28.380859 5.3134766 28.741211 5.5507812Q29.101562 5.7880859 29.6875 5.7880859Q31.263672 5.7880859 31.263672 3.9423828L31.263672 2.9228516L31.251953 2.9228516Q30.953125 3.5322266 30.431641 3.8398438Q29.910156 4.1474609 29.212891 4.1474609Q28.046875 4.1474609 27.499023 3.3740234Q26.951172 2.6005859 26.951172 0.94238281Q26.951172 -0.73925781 27.540039 -1.5390625Q28.128906 -2.3388672 29.330078 -2.3388672Q30.003906 -2.3388672 30.499023 -2.03125Q30.994141 -1.7236328 31.263672 -1.1552734L31.275391 -1.1552734Q31.275391 -1.3310547 31.298828 -1.7646484Q31.322266 -2.1982422 31.345703 -2.2392578L32.347656 -2.2392578Q32.3125 -1.9228516 32.3125 -0.92675781L32.3125 3.9189453Q32.3125 6.5908203 29.658203 6.5908203ZM31.263672 0.93066406Q31.263672 0.15722656 31.052734 -0.40234375Q30.841797 -0.96191406 30.458008 -1.2578125Q30.074219 -1.5537109 29.587891 -1.5537109Q28.779297 -1.5537109 28.410156 -0.96777344Q28.041016 -0.38183594 28.041016 0.93066406Q28.041016 2.2314453 28.386719 2.7998047Q28.732422 3.3681641 29.570312 3.3681641Q30.068359 3.3681641 30.455078 3.0751953Q30.841797 2.7822266 31.052734 2.234375Q31.263672 1.6865234 31.263672 0.93066406Z"/>
	<path fill="none" stroke="black" stroke-width="1" stroke-miterlimit="10" stroke-opacity="0.10196079" d="M50 749.5L1194 749.5"/>
	<path fill="none" stroke="black" stroke-width="1" stroke-miterlimit="10" stroke-opacity="0.10196079" d="M41.75 749.5L49 749.5"/>
	<path fill="none" stroke="black" stroke-width="1" stroke-miterlimit="10" stroke-opacity="0.10196079" d="M50 681.5L1194 681.5"/>
	<path fill="none" stroke="black" stroke-width="1" stroke-miterlimit="10" stroke-opacity="0.10196079" d="M41.75 681.5L49 681.5"/>
	<path fill="none" stroke="black" stroke-width="1" stroke-miterlimit="10" stroke-opacity="0.10196079" d="M50 613.5L1194 613.5"/>
	<path fill="none" stroke="black" stroke-width="1" stroke-miterlimit="10" stroke-opacity="0.10196079" d="M41.75 613.5L49 613.5"/>
	<path fill="none" stroke="black" stroke-width="1" stroke-miterlimit="10" stroke-opacity="0.10196079" d="M50 545.5L1194 545.5"/>
	<path fill="none" stroke="black" stroke-width="1" stroke-miterlimit="10" stroke-opacity="0.10196079" d="M41.75 545.5L49 545.5"/>
	<path fill="none" stroke="black" stroke-width="1" stroke-miterlimit="10" stroke-opacity="0.10196079" d="M50 478.5L1194 478.5"/>
	<path fill="none" stroke="black" stroke-width="1" stroke-miterlimit="10" stroke-opacity="0.10196079" d="M41.75 478.5L49 478.5"/>
	<path fill="none" stroke="black" stroke-width="1" stroke-miterlimit="10" stroke-opacity="0.10196079" d="M50 410.5L1194 410.5"/>
	<path fill="none" stroke="black" stroke-width="1" stroke-miterlimit="10" stroke-opacity="0.10196079" d="M41.75 410.5L49 410.5"/>
	<path fill="none" stroke="black" stroke-width="1" stroke-miterlimit="10" stroke-opacity="0.10196079" d="M50 342.5L1194 342.5"/>
	<path fill="none" stroke="black" stroke-width="1" stroke-miterlimit="10" stroke-opacity="0.10196079" d="M41.75 342.5L49 342.5"/>
	<path fill="none" stroke="black" stroke-width="1" stroke-miterlimit="10" stroke-opacity="0.10196079" d="M50 274.5L1194 274.5"/>
	<path fill="none" stroke="black" stroke-width="1" stroke-miterlimit="10" stroke-opacity="0.10196079" d="M41.75 274.5L49 274.5"/>
	<path fill="none" stroke="black" stroke-width="1" stroke-miterlimit="10" stroke-opacity="0.10196079" d="M50 206.5L1194 206.5"/>
	<path fill="none" stroke="black" stroke-width="1" stroke-miterlimit="10" stroke-opacity="0.10196079" d="M41.75 206.5L49 206.5"/>
	<path fill="none" stroke="black" stroke-width="1" stroke-miterlimit="10" stroke-opacity="0.10196079" d="M50 139.5L1194 139.5"/>
	<path fill="none" stroke="black" stroke-width="1" stroke-miterlimit="10" stroke-opacity="0.10196079" d="M41.75 139.5L49 139.5"/>
	<path fill="none" stroke="black" stroke-width="1" stroke-miterlimit="10" stroke-opacity="0.10196079" d="M50 71.5L1194 71.5"/>
	<path fill="none" stroke="black" stroke-width="1" stroke-miterlimit="10" stroke-opacity="0.10196079" d="M41.75 71.5L49 71.5"/>
	<path fill="#666" transform="matrix(0 -1 1 0 11.2 410.2)" d="M-21.591797 -0.11230469Q-21.591797 1.1650391 -22.089844 2.1230469Q-22.587891 3.0810547 -23.501953 3.5908203Q-24.416016 4.1005859 -25.611328 4.1005859L-28.699219 4.1005859L-28.699219 -4.1552734L-25.96875 -4.1552734Q-23.871094 -4.1552734 -22.731445 -3.1035156Q-21.591797 -2.0517578 -21.591797 -0.11230469ZM-22.716797 -0.11230469Q-22.716797 -1.6474609 -23.557617 -2.453125Q-24.398438 -3.2587891 -25.992188 -3.2587891L-27.580078 -3.2587891L-27.580078 3.2041016L-25.740234 3.2041016Q-24.832031 3.2041016 -24.143555 2.8056641Q-23.455078 2.4072266 -23.085938 1.6572266Q-22.716797 0.90722656 -22.716797 -0.11230469ZM-14.847656 0.92480469Q-14.847656 2.5888672 -15.580078 3.4033203Q-16.3125 4.2177734 -17.707031 4.2177734Q-19.095703 4.2177734 -19.804688 3.3710938Q-20.513672 2.5244141 -20.513672 0.92480469Q-20.513672 -2.3564453 -17.671875 -2.3564453Q-16.21875 -2.3564453 -15.533203 -1.5566406Q-14.847656 -0.75683594 -14.847656 0.92480469ZM-15.955078 0.92480469Q-15.955078 -0.38769531 -16.344727 -0.98242188Q-16.734375 -1.5771484 -17.654297 -1.5771484Q-18.580078 -1.5771484 -18.993164 -0.97070312Q-19.40625 -0.36425781 -19.40625 0.92480469Q-19.40625 2.1787109 -18.999023 2.8085938Q-18.591797 3.4384766 -17.71875 3.4384766Q-16.769531 3.4384766 -16.362305 2.8291016Q-15.955078 2.2197266 -15.955078 0.92480469ZM-7.4648438 4.1005859L-8.6894531 4.1005859L-9.796875 -0.38183594L-10.007812 -1.3720703Q-10.060547 -1.1083984 -10.171875 -0.61328125Q-10.283203 -0.11816406 -11.367188 4.1005859L-12.585938 4.1005859L-14.361328 -2.2392578L-13.318359 -2.2392578L-12.246094 2.0673828Q-12.205078 2.2080078 -11.994141 3.2275391L-11.894531 2.7939453L-10.570312 -2.2392578L-9.4394531 -2.2392578L-8.3320312 2.1142578L-8.0625 3.2275391L-7.8808594 2.4130859L-6.6796875 -2.2392578L-5.6484375 -2.2392578L-7.4648438 4.1005859ZM-0.84375 4.1005859L-0.84375 0.081054688Q-0.84375 -0.54589844 -0.96679688 -0.89160156Q-1.0898438 -1.2373047 -1.359375 -1.3896484Q-1.6289062 -1.5419922 -2.1503906 -1.5419922Q-2.9121094 -1.5419922 -3.3515625 -1.0205078Q-3.7910156 -0.49902344 -3.7910156 0.42675781L-3.7910156 4.1005859L-4.8457031 4.1005859L-4.8457031 -0.88574219Q-4.8457031 -1.9931641 -4.8808594 -2.2392578L-3.8847656 -2.2392578Q-3.8789062 -2.2099609 -3.8730469 -2.0810547Q-3.8671875 -1.9521484 -3.8583984 -1.7851562Q-3.8496094 -1.6181641 -3.8378906 -1.1552734L-3.8203125 -1.1552734Q-3.4570312 -1.8115234 -2.9794922 -2.0839844Q-2.5019531 -2.3564453 -1.7929688 -2.3564453Q-0.75 -2.3564453 -0.26660156 -1.8378906Q0.21679688 -1.3193359 0.21679688 -0.12402344L0.21679688 4.1005859L-0.84375 4.1005859ZM1.8046875 4.1005859L1.8046875 -4.5947266L2.859375 -4.5947266L2.859375 4.1005859L1.8046875 4.1005859ZM9.8320312 0.92480469Q9.8320312 2.5888672 9.0996094 3.4033203Q8.3671875 4.2177734 6.9726562 4.2177734Q5.5839844 4.2177734 4.875 3.3710938Q4.1660156 2.5244141 4.1660156 0.92480469Q4.1660156 -2.3564453 7.0078125 -2.3564453Q8.4609375 -2.3564453 9.1464844 -1.5566406Q9.8320312 -0.75683594 9.8320312 0.92480469ZM8.7246094 0.92480469Q8.7246094 -0.38769531 8.3349609 -0.98242188Q7.9453125 -1.5771484 7.0253906 -1.5771484Q6.0996094 -1.5771484 5.6865234 -0.97070312Q5.2734375 -0.36425781 5.2734375 0.92480469Q5.2734375 2.1787109 5.6806641 2.8085938Q6.0878906 3.4384766 6.9609375 3.4384766Q7.9101562 3.4384766 8.3173828 2.8291016Q8.7246094 2.2197266 8.7246094 0.92480469ZM12.761719 4.2177734Q11.806641 4.2177734 11.326172 3.7138672Q10.845703 3.2099609 10.845703 2.3310547Q10.845703 1.3466797 11.493164 0.81933594Q12.140625 0.29199219 13.582031 0.25683594L15.005859 0.23339844L15.005859 -0.11230469Q15.005859 -0.88574219 14.677734 -1.2197266Q14.349609 -1.5537109 13.646484 -1.5537109Q12.9375 -1.5537109 12.615234 -1.3134766Q12.292969 -1.0732422 12.228516 -0.54589844L11.126953 -0.64550781Q11.396484 -2.3564453 13.669922 -2.3564453Q14.865234 -2.3564453 15.46875 -1.8085938Q16.072266 -1.2607422 16.072266 -0.22363281L16.072266 2.5068359Q16.072266 2.9755859 16.195312 3.2128906Q16.318359 3.4501953 16.664062 3.4501953Q16.816406 3.4501953 17.009766 3.4091797L17.009766 4.0654297Q16.611328 4.1591797 16.195312 4.1591797Q15.609375 4.1591797 15.342773 3.8515625Q15.076172 3.5439453 15.041016 2.8876953L15.005859 2.8876953Q14.601562 3.6142578 14.06543 3.9160156Q13.529297 4.2177734 12.761719 4.2177734ZM13.001953 3.4267578Q13.582031 3.4267578 14.033203 3.1630859Q14.484375 2.8994141 14.745117 2.4394531Q15.005859 1.9794922 15.005859 1.4931641L15.005859 0.97167969L13.851562 0.99511719Q13.107422 1.0068359 12.723633 1.1474609Q12.339844 1.2880859 12.134766 1.5810547Q11.929688 1.8740234 11.929688 2.3486328Q11.929688 2.8642578 12.208008 3.1455078Q12.486328 3.4267578 13.001953 3.4267578ZM21.820312 3.0810547Q21.527344 3.6904297 21.043945 3.9541016Q20.560547 4.2177734 19.845703 4.2177734Q18.644531 4.2177734 18.079102 3.4091797Q17.513672 2.6005859 17.513672 0.95996094Q17.513672 -2.3564453 19.845703 -2.3564453Q20.566406 -2.3564453 21.046875 -2.0927734Q21.527344 -1.8291016 21.820312 -1.2548828L21.832031 -1.2548828L21.820312 -1.9638672L21.820312 -4.5947266L22.875 -4.5947266L22.875 2.7939453Q22.875 3.7841797 22.910156 4.1005859L21.902344 4.1005859Q21.884766 4.0068359 21.864258 3.6669922Q21.84375 3.3271484 21.84375 3.0810547L21.820312 3.0810547ZM18.621094 0.92480469Q18.621094 2.2548828 18.972656 2.8291016Q19.324219 3.4033203 20.115234 3.4033203Q21.011719 3.4033203 21.416016 2.7822266Q21.820312 2.1611328 21.820312 0.85449219Q21.820312 -0.40527344 21.416016 -0.99121094Q21.011719 -1.5771484 20.126953 -1.5771484Q19.330078 -1.5771484 18.975586 -0.98828125Q18.621094 -0.39941406 18.621094 0.92480469ZM29.25 2.3486328Q29.25 3.2451172 28.573242 3.7314453Q27.896484 4.2177734 26.677734 4.2177734Q25.494141 4.2177734 24.852539 3.828125Q24.210938 3.4384766 24.017578 2.6123047L24.949219 2.4306641Q25.083984 2.9404297 25.505859 3.1777344Q25.927734 3.4150391 26.677734 3.4150391Q27.480469 3.4150391 27.852539 3.1689453Q28.224609 2.9228516 28.224609 2.4306641Q28.224609 2.0556641 27.966797 1.8212891Q27.708984 1.5869141 27.134766 1.4345703L26.378906 1.2353516Q25.470703 1.0009766 25.086914 0.77539062Q24.703125 0.54980469 24.486328 0.22753906Q24.269531 -0.094726562 24.269531 -0.56347656Q24.269531 -1.4306641 24.887695 -1.8847656Q25.505859 -2.3388672 26.689453 -2.3388672Q27.738281 -2.3388672 28.356445 -1.9697266Q28.974609 -1.6005859 29.138672 -0.78613281L28.189453 -0.66894531Q28.101562 -1.0908203 27.717773 -1.3164062Q27.333984 -1.5419922 26.689453 -1.5419922Q25.974609 -1.5419922 25.634766 -1.3251953Q25.294922 -1.1083984 25.294922 -0.66894531Q25.294922 -0.39941406 25.435547 -0.22363281Q25.576172 -0.047851562 25.851562 0.075195312Q26.126953 0.19824219 27.011719 0.41503906Q27.849609 0.62597656 28.21875 0.8046875Q28.587891 0.98339844 28.801758 1.2001953Q29.015625 1.4169922 29.132812 1.7011719Q29.25 1.9853516 29.25 2.3486328Z"/>
	<clipPath id="cl_4c3">
		<rect y="39.200001" width="1200" height="31.999996"/>
	</clipPath>
	<g clip-path="url(#cl_4c3)">
		<path fill="#C32222" fill-opacity="0.2" d="M569.33002 49.200001L609.33002 49.200001L609.33002 61.200001L569.33002 61.200001L569.33002 49.200001Z"/>
		<path fill="none" stroke="#C32222" stroke-width="2" stroke-miterlimit="10" d="M569.33002 49.200001L609.33002 49.200001L609.33002 61.200001L569.33002 61.200001L569.33002 49.200001Z"/>
	</g>
	<clipPath id="cl_4c4">
		<rect y="39.200001" width="1200" height="31.999996"/>
	</clipPath>
	<g clip-path="url(#cl_4c4)">
		<path fill="#666" d="M615.81635 59.300587L615.81635 58.497852L619.36127 53.775196L616.01556 53.775196L616.01556 52.960743L620.60931 52.960743L620.60931 53.763477L617.05853 58.486134L620.73236 58.486134L620.73236 59.300587L615.81635 59.300587ZM622.13275 51.613087L622.13275 50.605274L623.18744 50.605274L623.18744 51.613087L622.13275 51.613087ZM622.13275 59.300587L622.13275 52.960743L623.18744 52.960743L623.18744 59.300587L622.13275 59.300587ZM630.16595 56.101368Q630.16595 59.417774 627.83392 59.417774Q626.36908 59.417774 625.86517 58.316212L625.83588 58.316212Q625.85931 58.363087 625.85931 59.312305L625.85931 61.790821L624.80463 61.790821L624.80463 54.255665Q624.80463 53.277149 624.76947 52.960743L625.789 52.960743Q625.79486 52.98418 625.80658 53.127735Q625.8183 53.27129 625.83295 53.570118Q625.8476 53.868946 625.8476 53.980274L625.87103 53.980274Q626.15228 53.394337 626.61517 53.121876Q627.07806 52.849415 627.83392 52.849415Q629.0058 52.849415 629.58588 53.634571Q630.16595 54.419727 630.16595 56.101368ZM629.05853 56.124805Q629.05853 54.800587 628.70111 54.232227Q628.34369 53.663868 627.56439 53.663868Q626.93744 53.663868 626.58295 53.92754Q626.22845 54.191212 626.04388 54.750782Q625.85931 55.310352 625.85931 56.206837Q625.85931 57.454884 626.25775 58.04668Q626.65619 58.638477 627.55267 58.638477Q628.33783 58.638477 628.69818 58.061329Q629.05853 57.48418 629.05853 56.124805Z"/>
	</g>
	<path fill="#666" transform="translate(600 19.6)" d="M-284.07422 3.3320312Q-284.07422 4.5585938 -285.07812 5.2578125Q-286.08203 5.9570312 -287.85547 5.9570312Q-289.59766 5.9570312 -290.52344 5.40625Q-291.44922 4.8554688 -291.75391 3.6914062L-289.82422 3.4023438Q-289.66016 4.0039062 -289.25781 4.2539062Q-288.85547 4.5039062 -287.85547 4.5039062Q-286.93359 4.5039062 -286.51172 4.2695312Q-286.08984 4.0351562 -286.08984 3.5351562Q-286.08984 3.1289062 -286.42969 2.890625Q-286.76953 2.6523438 -287.58203 2.4882812Q-289.44141 2.1210938 -290.08984 1.8046875Q-290.73828 1.4882812 -291.07812 0.984375Q-291.41797 0.48046875 -291.41797 -0.25390625Q-291.41797 -1.4648438 -290.48438 -2.140625Q-289.55078 -2.8164062 -287.83984 -2.8164062Q-286.33203 -2.8164062 -285.41406 -2.2304688Q-284.49609 -1.6445312 -284.26953 -0.53515625L-286.21484 -0.33203125Q-286.30859 -0.84765625 -286.67578 -1.1015625Q-287.04297 -1.3554688 -287.83984 -1.3554688Q-288.62109 -1.3554688 -289.01172 -1.15625Q-289.40234 -0.95703125 -289.40234 -0.48828125Q-289.40234 -0.12109375 -289.10156 0.09375Q-288.80078 0.30859375 -288.08984 0.44921875Q-287.09766 0.65234375 -286.32812 0.8671875Q-285.55859 1.0820312 -285.09375 1.3789062Q-284.62891 1.6757812 -284.35156 2.140625Q-284.07422 2.6054688 -284.07422 3.3320312ZM-280.34766 5.9570312Q-281.57422 5.9570312 -282.26172 5.2890625Q-282.94922 4.6210938 -282.94922 3.4101562Q-282.94922 2.0976562 -282.09375 1.4101562Q-281.23828 0.72265625 -279.61328 0.70703125L-277.79297 0.67578125L-277.79297 0.24609375Q-277.79297 -0.58203125 -278.08203 -0.984375Q-278.37109 -1.3867188 -279.02734 -1.3867188Q-279.63672 -1.3867188 -279.92188 -1.109375Q-280.20703 -0.83203125 -280.27734 -0.19140625L-282.56641 -0.30078125Q-282.35547 -1.5351562 -281.4375 -2.171875Q-280.51953 -2.8085938 -278.93359 -2.8085938Q-277.33203 -2.8085938 -276.46484 -2.0195312Q-275.59766 -1.2304688 -275.59766 0.22265625L-275.59766 3.3007812Q-275.59766 4.0117188 -275.4375 4.28125Q-275.27734 4.5507812 -274.90234 4.5507812Q-274.65234 4.5507812 -274.41797 4.5039062L-274.41797 5.6914062Q-274.61328 5.7382812 -274.76953 5.7773438Q-274.92578 5.8164062 -275.08203 5.8398438Q-275.23828 5.8632812 -275.41406 5.8789062Q-275.58984 5.8945312 -275.82422 5.8945312Q-276.65234 5.8945312 -277.04688 5.4882812Q-277.44141 5.0820312 -277.51953 4.2929688L-277.56641 4.2929688Q-278.48828 5.9570312 -280.34766 5.9570312ZM-277.79297 1.8867188L-278.91797 1.9023438Q-279.68359 1.9335938 -280.00391 2.0703125Q-280.32422 2.2070312 -280.49219 2.4882812Q-280.66016 2.7695312 -280.66016 3.2382812Q-280.66016 3.8398438 -280.38281 4.1328125Q-280.10547 4.4257812 -279.64453 4.4257812Q-279.12891 4.4257812 -278.70312 4.1445312Q-278.27734 3.8632812 -278.03516 3.3671875Q-277.79297 2.8710938 -277.79297 2.3164062L-277.79297 1.8867188ZM-273.40234 -4.1757812L-273.40234 -5.7929688L-271.20703 -5.7929688L-271.20703 -4.1757812L-273.40234 -4.1757812ZM-273.40234 5.8007812L-273.40234 -2.6523438L-271.20703 -2.6523438L-271.20703 5.8007812L-273.40234 5.8007812ZM-268.95703 5.8007812L-268.95703 -5.7929688L-266.76172 -5.7929688L-266.76172 5.8007812L-268.95703 5.8007812ZM-256.51172 1.5351562Q-256.51172 3.6523438 -257.35938 4.8046875Q-258.20703 5.9570312 -259.75391 5.9570312Q-260.64453 5.9570312 -261.30469 5.5703125Q-261.96484 5.1835938 -262.31641 4.4570312L-262.36328 4.4570312Q-262.31641 4.6914062 -262.31641 5.8789062L-262.31641 9.1210938L-264.51172 9.1210938L-264.51172 -0.70703125Q-264.51172 -1.9023438 -264.57422 -2.6523438L-262.44141 -2.6523438Q-262.40234 -2.5117188 -262.375 -2.0976562Q-262.34766 -1.6835938 -262.34766 -1.2773438L-262.31641 -1.2773438Q-261.57422 -2.8320312 -259.61328 -2.8320312Q-258.13672 -2.8320312 -257.32422 -1.6953125Q-256.51172 -0.55859375 -256.51172 1.5351562ZM-258.80078 1.5351562Q-258.80078 -1.3085938 -260.54297 -1.3085938Q-261.41797 -1.3085938 -261.88281 -0.54296875Q-262.34766 0.22265625 -262.34766 1.5976562Q-262.34766 2.9648438 -261.88281 3.7109375Q-261.41797 4.4570312 -260.55859 4.4570312Q-258.80078 4.4570312 -258.80078 1.5351562ZM-246.70703 1.5664062Q-246.70703 3.6210938 -247.84766 4.7890625Q-248.98828 5.9570312 -251.00391 5.9570312Q-252.98047 5.9570312 -254.10547 4.7851562Q-255.23047 3.6132812 -255.23047 1.5664062Q-255.23047 -0.47265625 -254.10547 -1.640625Q-252.98047 -2.8085938 -250.95703 -2.8085938Q-248.88672 -2.8085938 -247.79688 -1.6796875Q-246.70703 -0.55078125 -246.70703 1.5664062ZM-249.00391 1.5664062Q-249.00391 0.05859375 -249.49609 -0.62109375Q-249.98828 -1.3007812 -250.92578 -1.3007812Q-252.92578 -1.3007812 -252.92578 1.5664062Q-252.92578 2.9804688 -252.4375 3.71875Q-251.94922 4.4570312 -251.02734 4.4570312Q-249.00391 4.4570312 -249.00391 1.5664062ZM-244.96484 -4.1757812L-244.96484 -5.7929688L-242.76953 -5.7929688L-242.76953 -4.1757812L-244.96484 -4.1757812ZM-244.96484 5.8007812L-244.96484 -2.6523438L-242.76953 -2.6523438L-242.76953 5.8007812L-244.96484 5.8007812ZM-235.04297 5.8007812L-235.04297 1.0585938Q-235.04297 -1.1679688 -236.55078 -1.1679688Q-237.34766 -1.1679688 -237.83594 -0.484375Q-238.32422 0.19921875 -238.32422 1.2695312L-238.32422 5.8007812L-240.51953 5.8007812L-240.51953 -0.76171875Q-240.51953 -1.4414062 -240.53906 -1.875Q-240.55859 -2.3085938 -240.58203 -2.6523438L-238.48828 -2.6523438Q-238.46484 -2.5039062 -238.42578 -1.859375Q-238.38672 -1.2148438 -238.38672 -0.97265625L-238.35547 -0.97265625Q-237.91016 -1.9414062 -237.23828 -2.3789062Q-236.56641 -2.8164062 -235.63672 -2.8164062Q-234.29297 -2.8164062 -233.57422 -1.9882812Q-232.85547 -1.1601562 -232.85547 0.43359375L-232.85547 5.8007812L-235.04297 5.8007812ZM-228.58203 5.9414062Q-229.55078 5.9414062 -230.07422 5.4140625Q-230.59766 4.8867188 -230.59766 3.8164062L-230.59766 -1.1679688L-231.66797 -1.1679688L-231.66797 -2.6523438L-230.48828 -2.6523438L-229.80078 -4.6367188L-228.42578 -4.6367188L-228.42578 -2.6523438L-226.82422 -2.6523438L-226.82422 -1.1679688L-228.42578 -1.1679688L-228.42578 3.2226562Q-228.42578 3.8398438 -228.19141 4.1328125Q-227.95703 4.4257812 -227.46484 4.4257812Q-227.20703 4.4257812 -226.73047 4.3164062L-226.73047 5.6757812Q-227.54297 5.9414062 -228.58203 5.9414062ZM-225.91016 2.6054688L-225.91016 0.69921875L-221.84766 0.69921875L-221.84766 2.6054688L-225.91016 2.6054688ZM-212.05859 1.5664062Q-212.05859 3.6210938 -213.19922 4.7890625Q-214.33984 5.9570312 -216.35547 5.9570312Q-218.33203 5.9570312 -219.45703 4.7851562Q-220.58203 3.6132812 -220.58203 1.5664062Q-220.58203 -0.47265625 -219.45703 -1.640625Q-218.33203 -2.8085938 -216.30859 -2.8085938Q-214.23828 -2.8085938 -213.14844 -1.6796875Q-212.05859 -0.55078125 -212.05859 1.5664062ZM-214.35547 1.5664062Q-214.35547 0.05859375 -214.84766 -0.62109375Q-215.33984 -1.3007812 -216.27734 -1.3007812Q-218.27734 -1.3007812 -218.27734 1.5664062Q-218.27734 2.9804688 -217.78906 3.71875Q-217.30078 4.4570312 -216.37891 4.4570312Q-214.35547 4.4570312 -214.35547 1.5664062ZM-203.19141 3.3320312Q-203.19141 4.5585938 -204.19531 5.2578125Q-205.19922 5.9570312 -206.97266 5.9570312Q-208.71484 5.9570312 -209.64062 5.40625Q-210.56641 4.8554688 -210.87109 3.6914062L-208.94141 3.4023438Q-208.77734 4.0039062 -208.375 4.2539062Q-207.97266 4.5039062 -206.97266 4.5039062Q-206.05078 4.5039062 -205.62891 4.2695312Q-205.20703 4.0351562 -205.20703 3.5351562Q-205.20703 3.1289062 -205.54688 2.890625Q-205.88672 2.6523438 -206.69922 2.4882812Q-208.55859 2.1210938 -209.20703 1.8046875Q-209.85547 1.4882812 -210.19531 0.984375Q-210.53516 0.48046875 -210.53516 -0.25390625Q-210.53516 -1.4648438 -209.60156 -2.140625Q-208.66797 -2.8164062 -206.95703 -2.8164062Q-205.44922 -2.8164062 -204.53125 -2.2304688Q-203.61328 -1.6445312 -203.38672 -0.53515625L-205.33203 -0.33203125Q-205.42578 -0.84765625 -205.79297 -1.1015625Q-206.16016 -1.3554688 -206.95703 -1.3554688Q-207.73828 -1.3554688 -208.12891 -1.15625Q-208.51953 -0.95703125 -208.51953 -0.48828125Q-208.51953 -0.12109375 -208.21875 0.09375Q-207.91797 0.30859375 -207.20703 0.44921875Q-206.21484 0.65234375 -205.44531 0.8671875Q-204.67578 1.0820312 -204.21094 1.3789062Q-203.74609 1.6757812 -203.46875 2.140625Q-203.19141 2.6054688 -203.19141 3.3320312ZM-194.29297 3.3320312Q-194.29297 4.5585938 -195.29688 5.2578125Q-196.30078 5.9570312 -198.07422 5.9570312Q-199.81641 5.9570312 -200.74219 5.40625Q-201.66797 4.8554688 -201.97266 3.6914062L-200.04297 3.4023438Q-199.87891 4.0039062 -199.47656 4.2539062Q-199.07422 4.5039062 -198.07422 4.5039062Q-197.15234 4.5039062 -196.73047 4.2695312Q-196.30859 4.0351562 -196.30859 3.5351562Q-196.30859 3.1289062 -196.64844 2.890625Q-196.98828 2.6523438 -197.80078 2.4882812Q-199.66016 2.1210938 -200.30859 1.8046875Q-200.95703 1.4882812 -201.29688 0.984375Q-201.63672 0.48046875 -201.63672 -0.25390625Q-201.63672 -1.4648438 -200.70312 -2.140625Q-199.76953 -2.8164062 -198.05859 -2.8164062Q-196.55078 -2.8164062 -195.63281 -2.2304688Q-194.71484 -1.6445312 -194.48828 -0.53515625L-196.43359 -0.33203125Q-196.52734 -0.84765625 -196.89453 -1.1015625Q-197.26172 -1.3554688 -198.05859 -1.3554688Q-198.83984 -1.3554688 -199.23047 -1.15625Q-199.62109 -0.95703125 -199.62109 -0.48828125Q-199.62109 -0.12109375 -199.32031 0.09375Q-199.01953 0.30859375 -198.30859 0.44921875Q-197.31641 0.65234375 -196.54688 0.8671875Q-195.77734 1.0820312 -195.3125 1.3789062Q-194.84766 1.6757812 -194.57031 2.140625Q-194.29297 2.6054688 -194.29297 3.3320312ZM-193.48047 6.1210938L-191.20703 -5.7929688L-189.34766 -5.7929688L-191.58203 6.1210938L-193.48047 6.1210938ZM-184.55078 5.9570312Q-186.47266 5.9570312 -187.51953 4.8125Q-188.56641 3.6679688 -188.56641 1.6210938Q-188.56641 -0.47265625 -187.51172 -1.640625Q-186.45703 -2.8085938 -184.51953 -2.8085938Q-183.02734 -2.8085938 -182.05078 -2.0585938Q-181.07422 -1.3085938 -180.82422 0.01171875L-183.03516 0.12109375Q-183.12891 -0.52734375 -183.50391 -0.9140625Q-183.87891 -1.3007812 -184.56641 -1.3007812Q-186.26172 -1.3007812 -186.26172 1.5351562Q-186.26172 4.4570312 -184.53516 4.4570312Q-183.91016 4.4570312 -183.48828 4.0625Q-183.06641 3.6679688 -182.96484 2.8867188L-180.76172 2.9882812Q-180.87891 3.8554688 -181.38281 4.5351562Q-181.88672 5.2148438 -182.70703 5.5859375Q-183.52734 5.9570312 -184.55078 5.9570312ZM-171.14453 1.5664062Q-171.14453 3.6210938 -172.28516 4.7890625Q-173.42578 5.9570312 -175.44141 5.9570312Q-177.41797 5.9570312 -178.54297 4.7851562Q-179.66797 3.6132812 -179.66797 1.5664062Q-179.66797 -0.47265625 -178.54297 -1.640625Q-177.41797 -2.8085938 -175.39453 -2.8085938Q-173.32422 -2.8085938 -172.23438 -1.6796875Q-171.14453 -0.55078125 -171.14453 1.5664062ZM-173.44141 1.5664062Q-173.44141 0.05859375 -173.93359 -0.62109375Q-174.42578 -1.3007812 -175.36328 -1.3007812Q-177.36328 -1.3007812 -177.36328 1.5664062Q-177.36328 2.9804688 -176.875 3.71875Q-176.38672 4.4570312 -175.46484 4.4570312Q-173.44141 4.4570312 -173.44141 1.5664062ZM-169.40234 5.8007812L-169.40234 -5.7929688L-167.20703 -5.7929688L-167.20703 5.8007812L-169.40234 5.8007812ZM-163.00391 5.9570312Q-164.23047 5.9570312 -164.91797 5.2890625Q-165.60547 4.6210938 -165.60547 3.4101562Q-165.60547 2.0976562 -164.75 1.4101562Q-163.89453 0.72265625 -162.26953 0.70703125L-160.44922 0.67578125L-160.44922 0.24609375Q-160.44922 -0.58203125 -160.73828 -0.984375Q-161.02734 -1.3867188 -161.68359 -1.3867188Q-162.29297 -1.3867188 -162.57812 -1.109375Q-162.86328 -0.83203125 -162.93359 -0.19140625L-165.22266 -0.30078125Q-165.01172 -1.5351562 -164.09375 -2.171875Q-163.17578 -2.8085938 -161.58984 -2.8085938Q-159.98828 -2.8085938 -159.12109 -2.0195312Q-158.25391 -1.2304688 -158.25391 0.22265625L-158.25391 3.3007812Q-158.25391 4.0117188 -158.09375 4.28125Q-157.93359 4.5507812 -157.55859 4.5507812Q-157.30859 4.5507812 -157.07422 4.5039062L-157.07422 5.6914062Q-157.26953 5.7382812 -157.42578 5.7773438Q-157.58203 5.8164062 -157.73828 5.8398438Q-157.89453 5.8632812 -158.07031 5.8789062Q-158.24609 5.8945312 -158.48047 5.8945312Q-159.30859 5.8945312 -159.70312 5.4882812Q-160.09766 5.0820312 -160.17578 4.2929688L-160.22266 4.2929688Q-161.14453 5.9570312 -163.00391 5.9570312ZM-160.44922 1.8867188L-161.57422 1.9023438Q-162.33984 1.9335938 -162.66016 2.0703125Q-162.98047 2.2070312 -163.14844 2.4882812Q-163.31641 2.7695312 -163.31641 3.2382812Q-163.31641 3.8398438 -163.03906 4.1328125Q-162.76172 4.4257812 -162.30078 4.4257812Q-161.78516 4.4257812 -161.35938 4.1445312Q-160.93359 3.8632812 -160.69141 3.3671875Q-160.44922 2.8710938 -160.44922 2.3164062L-160.44922 1.8867188ZM-148.05859 1.5429688Q-148.05859 3.6367188 -148.89844 4.796875Q-149.73828 5.9570312 -151.30078 5.9570312Q-152.19922 5.9570312 -152.85547 5.5664062Q-153.51172 5.1757812 -153.86328 4.4414062L-153.87891 4.4414062Q-153.87891 4.7148438 -153.91406 5.1914062Q-153.94922 5.6679688 -153.98828 5.8007812L-156.12109 5.8007812Q-156.05859 5.0742188 -156.05859 3.8710938L-156.05859 -5.7929688L-153.86328 -5.7929688L-153.86328 -2.5585938L-153.89453 -1.1835938L-153.86328 -1.1835938Q-153.12109 -2.8085938 -151.16016 -2.8085938Q-149.66016 -2.8085938 -148.85938 -1.671875Q-148.05859 -0.53515625 -148.05859 1.5429688ZM-150.34766 1.5429688Q-150.34766 0.10546875 -150.76953 -0.58984375Q-151.19141 -1.2851562 -152.07422 -1.2851562Q-152.96484 -1.2851562 -153.42969 -0.5390625Q-153.89453 0.20703125 -153.89453 1.6132812Q-153.89453 2.9570312 -153.4375 3.7070312Q-152.98047 4.4570312 -152.08984 4.4570312Q-150.34766 4.4570312 -150.34766 1.5429688ZM-146.77734 2.6054688L-146.77734 0.69921875L-142.71484 0.69921875L-142.71484 2.6054688L-146.77734 2.6054688ZM-133.83203 3.3320312Q-133.83203 4.5585938 -134.83594 5.2578125Q-135.83984 5.9570312 -137.61328 5.9570312Q-139.35547 5.9570312 -140.28125 5.40625Q-141.20703 4.8554688 -141.51172 3.6914062L-139.58203 3.4023438Q-139.41797 4.0039062 -139.01562 4.2539062Q-138.61328 4.5039062 -137.61328 4.5039062Q-136.69141 4.5039062 -136.26953 4.2695312Q-135.84766 4.0351562 -135.84766 3.5351562Q-135.84766 3.1289062 -136.1875 2.890625Q-136.52734 2.6523438 -137.33984 2.4882812Q-139.19922 2.1210938 -139.84766 1.8046875Q-140.49609 1.4882812 -140.83594 0.984375Q-141.17578 0.48046875 -141.17578 -0.25390625Q-141.17578 -1.4648438 -140.24219 -2.140625Q-139.30859 -2.8164062 -137.59766 -2.8164062Q-136.08984 -2.8164062 -135.17188 -2.2304688Q-134.25391 -1.6445312 -134.02734 -0.53515625L-135.97266 -0.33203125Q-136.06641 -0.84765625 -136.43359 -1.1015625Q-136.80078 -1.3554688 -137.59766 -1.3554688Q-138.37891 -1.3554688 -138.76953 -1.15625Q-139.16016 -0.95703125 -139.16016 -0.48828125Q-139.16016 -0.12109375 -138.85938 0.09375Q-138.55859 0.30859375 -137.84766 0.44921875Q-136.85547 0.65234375 -136.08594 0.8671875Q-135.31641 1.0820312 -134.85156 1.3789062Q-134.38672 1.6757812 -134.10938 2.140625Q-133.83203 2.6054688 -133.83203 3.3320312ZM-130.10547 5.9570312Q-131.33203 5.9570312 -132.01953 5.2890625Q-132.70703 4.6210938 -132.70703 3.4101562Q-132.70703 2.0976562 -131.85156 1.4101562Q-130.99609 0.72265625 -129.37109 0.70703125L-127.55078 0.67578125L-127.55078 0.24609375Q-127.55078 -0.58203125 -127.83984 -0.984375Q-128.12891 -1.3867188 -128.78516 -1.3867188Q-129.39453 -1.3867188 -129.67969 -1.109375Q-129.96484 -0.83203125 -130.03516 -0.19140625L-132.32422 -0.30078125Q-132.11328 -1.5351562 -131.19531 -2.171875Q-130.27734 -2.8085938 -128.69141 -2.8085938Q-127.08984 -2.8085938 -126.22266 -2.0195312Q-125.35547 -1.2304688 -125.35547 0.22265625L-125.35547 3.3007812Q-125.35547 4.0117188 -125.19531 4.28125Q-125.03516 4.5507812 -124.66016 4.5507812Q-124.41016 4.5507812 -124.17578 4.5039062L-124.17578 5.6914062Q-124.37109 5.7382812 -124.52734 5.7773438Q-124.68359 5.8164062 -124.83984 5.8398438Q-124.99609 5.8632812 -125.17188 5.8789062Q-125.34766 5.8945312 -125.58203 5.8945312Q-126.41016 5.8945312 -126.80469 5.4882812Q-127.19922 5.0820312 -127.27734 4.2929688L-127.32422 4.2929688Q-128.24609 5.9570312 -130.10547 5.9570312ZM-127.55078 1.8867188L-128.67578 1.9023438Q-129.44141 1.9335938 -129.76172 2.0703125Q-130.08203 2.2070312 -130.25 2.4882812Q-130.41797 2.7695312 -130.41797 3.2382812Q-130.41797 3.8398438 -130.14062 4.1328125Q-129.86328 4.4257812 -129.40234 4.4257812Q-128.88672 4.4257812 -128.46094 4.1445312Q-128.03516 3.8632812 -127.79297 3.3671875Q-127.55078 2.8710938 -127.55078 2.3164062L-127.55078 1.8867188ZM-121.20703 5.9570312Q-122.43359 5.9570312 -123.12109 5.2890625Q-123.80859 4.6210938 -123.80859 3.4101562Q-123.80859 2.0976562 -122.95312 1.4101562Q-122.09766 0.72265625 -120.47266 0.70703125L-118.65234 0.67578125L-118.65234 0.24609375Q-118.65234 -0.58203125 -118.94141 -0.984375Q-119.23047 -1.3867188 -119.88672 -1.3867188Q-120.49609 -1.3867188 -120.78125 -1.109375Q-121.06641 -0.83203125 -121.13672 -0.19140625L-123.42578 -0.30078125Q-123.21484 -1.5351562 -122.29688 -2.171875Q-121.37891 -2.8085938 -119.79297 -2.8085938Q-118.19141 -2.8085938 -117.32422 -2.0195312Q-116.45703 -1.2304688 -116.45703 0.22265625L-116.45703 3.3007812Q-116.45703 4.0117188 -116.29688 4.28125Q-116.13672 4.5507812 -115.76172 4.5507812Q-115.51172 4.5507812 -115.27734 4.5039062L-115.27734 5.6914062Q-115.47266 5.7382812 -115.62891 5.7773438Q-115.78516 5.8164062 -115.94141 5.8398438Q-116.09766 5.8632812 -116.27344 5.8789062Q-116.44922 5.8945312 -116.68359 5.8945312Q-117.51172 5.8945312 -117.90625 5.4882812Q-118.30078 5.0820312 -118.37891 4.2929688L-118.42578 4.2929688Q-119.34766 5.9570312 -121.20703 5.9570312ZM-118.65234 1.8867188L-119.77734 1.9023438Q-120.54297 1.9335938 -120.86328 2.0703125Q-121.18359 2.2070312 -121.35156 2.4882812Q-121.51953 2.7695312 -121.51953 3.2382812Q-121.51953 3.8398438 -121.24219 4.1328125Q-120.96484 4.4257812 -120.50391 4.4257812Q-119.98828 4.4257812 -119.5625 4.1445312Q-119.13672 3.8632812 -118.89453 3.3671875Q-118.65234 2.8710938 -118.65234 2.3164062L-118.65234 1.8867188ZM-107.13672 3.3320312Q-107.13672 4.5585938 -108.14062 5.2578125Q-109.14453 5.9570312 -110.91797 5.9570312Q-112.66016 5.9570312 -113.58594 5.40625Q-114.51172 4.8554688 -114.81641 3.6914062L-112.88672 3.4023438Q-112.72266 4.0039062 -112.32031 4.2539062Q-111.91797 4.5039062 -110.91797 4.5039062Q-109.99609 4.5039062 -109.57422 4.2695312Q-109.15234 4.0351562 -109.15234 3.5351562Q-109.15234 3.1289062 -109.49219 2.890625Q-109.83203 2.6523438 -110.64453 2.4882812Q-112.50391 2.1210938 -113.15234 1.8046875Q-113.80078 1.4882812 -114.14062 0.984375Q-114.48047 0.48046875 -114.48047 -0.25390625Q-114.48047 -1.4648438 -113.54688 -2.140625Q-112.61328 -2.8164062 -110.90234 -2.8164062Q-109.39453 -2.8164062 -108.47656 -2.2304688Q-107.55859 -1.6445312 -107.33203 -0.53515625L-109.27734 -0.33203125Q-109.37109 -0.84765625 -109.73828 -1.1015625Q-110.10547 -1.3554688 -110.90234 -1.3554688Q-111.68359 -1.3554688 -112.07422 -1.15625Q-112.46484 -0.95703125 -112.46484 -0.48828125Q-112.46484 -0.12109375 -112.16406 0.09375Q-111.86328 0.30859375 -111.15234 0.44921875Q-110.16016 0.65234375 -109.39062 0.8671875Q-108.62109 1.0820312 -108.15625 1.3789062Q-107.69141 1.6757812 -107.41406 2.140625Q-107.13672 2.6054688 -107.13672 3.3320312ZM-105.85547 2.6054688L-105.85547 0.69921875L-101.79297 0.69921875L-101.79297 2.6054688L-105.85547 2.6054688ZM-96.511719 5.9570312Q-98.433594 5.9570312 -99.480469 4.8125Q-100.52734 3.6679688 -100.52734 1.6210938Q-100.52734 -0.47265625 -99.472656 -1.640625Q-98.417969 -2.8085938 -96.480469 -2.8085938Q-94.988281 -2.8085938 -94.011719 -2.0585938Q-93.035156 -1.3085938 -92.785156 0.01171875L-94.996094 0.12109375Q-95.089844 -0.52734375 -95.464844 -0.9140625Q-95.839844 -1.3007812 -96.527344 -1.3007812Q-98.222656 -1.3007812 -98.222656 1.5351562Q-98.222656 4.4570312 -96.496094 4.4570312Q-95.871094 4.4570312 -95.449219 4.0625Q-95.027344 3.6679688 -94.925781 2.8867188L-92.722656 2.9882812Q-92.839844 3.8554688 -93.34375 4.5351562Q-93.847656 5.2148438 -94.667969 5.5859375Q-95.488281 5.9570312 -96.511719 5.9570312ZM-83.105469 1.5664062Q-83.105469 3.6210938 -84.246094 4.7890625Q-85.386719 5.9570312 -87.402344 5.9570312Q-89.378906 5.9570312 -90.503906 4.7851562Q-91.628906 3.6132812 -91.628906 1.5664062Q-91.628906 -0.47265625 -90.503906 -1.640625Q-89.378906 -2.8085938 -87.355469 -2.8085938Q-85.285156 -2.8085938 -84.195312 -1.6796875Q-83.105469 -0.55078125 -83.105469 1.5664062ZM-85.402344 1.5664062Q-85.402344 0.05859375 -85.894531 -0.62109375Q-86.386719 -1.3007812 -87.324219 -1.3007812Q-89.324219 -1.3007812 -89.324219 1.5664062Q-89.324219 2.9804688 -88.835938 3.71875Q-88.347656 4.4570312 -87.425781 4.4570312Q-85.402344 4.4570312 -85.402344 1.5664062ZM-75.886719 5.8007812L-75.886719 1.0585938Q-75.886719 -1.1679688 -77.394531 -1.1679688Q-78.191406 -1.1679688 -78.679688 -0.484375Q-79.167969 0.19921875 -79.167969 1.2695312L-79.167969 5.8007812L-81.363281 5.8007812L-81.363281 -0.76171875Q-81.363281 -1.4414062 -81.382812 -1.875Q-81.402344 -2.3085938 -81.425781 -2.6523438L-79.332031 -2.6523438Q-79.308594 -2.5039062 -79.269531 -1.859375Q-79.230469 -1.2148438 -79.230469 -0.97265625L-79.199219 -0.97265625Q-78.753906 -1.9414062 -78.082031 -2.3789062Q-77.410156 -2.8164062 -76.480469 -2.8164062Q-75.136719 -2.8164062 -74.417969 -1.9882812Q-73.699219 -1.1601562 -73.699219 0.43359375L-73.699219 5.8007812L-75.886719 5.8007812ZM-66.113281 5.8007812L-66.113281 1.0585938Q-66.113281 -1.1679688 -67.621094 -1.1679688Q-68.417969 -1.1679688 -68.90625 -0.484375Q-69.394531 0.19921875 -69.394531 1.2695312L-69.394531 5.8007812L-71.589844 5.8007812L-71.589844 -0.76171875Q-71.589844 -1.4414062 -71.609375 -1.875Q-71.628906 -2.3085938 -71.652344 -2.6523438L-69.558594 -2.6523438Q-69.535156 -2.5039062 -69.496094 -1.859375Q-69.457031 -1.2148438 -69.457031 -0.97265625L-69.425781 -0.97265625Q-68.980469 -1.9414062 -68.308594 -2.3789062Q-67.636719 -2.8164062 -66.707031 -2.8164062Q-65.363281 -2.8164062 -64.644531 -1.9882812Q-63.925781 -1.1601562 -63.925781 0.43359375L-63.925781 5.8007812L-66.113281 5.8007812ZM-62.308594 2.6054688L-62.308594 0.69921875L-58.246094 0.69921875L-58.246094 2.6054688L-62.308594 2.6054688ZM-48.488281 1.5351562Q-48.488281 3.6523438 -49.335938 4.8046875Q-50.183594 5.9570312 -51.730469 5.9570312Q-52.621094 5.9570312 -53.28125 5.5703125Q-53.941406 5.1835938 -54.292969 4.4570312L-54.339844 4.4570312Q-54.292969 4.6914062 -54.292969 5.8789062L-54.292969 9.1210938L-56.488281 9.1210938L-56.488281 -0.70703125Q-56.488281 -1.9023438 -56.550781 -2.6523438L-54.417969 -2.6523438Q-54.378906 -2.5117188 -54.351562 -2.0976562Q-54.324219 -1.6835938 -54.324219 -1.2773438L-54.292969 -1.2773438Q-53.550781 -2.8320312 -51.589844 -2.8320312Q-50.113281 -2.8320312 -49.300781 -1.6953125Q-48.488281 -0.55859375 -48.488281 1.5351562ZM-50.777344 1.5351562Q-50.777344 -1.3085938 -52.519531 -1.3085938Q-53.394531 -1.3085938 -53.859375 -0.54296875Q-54.324219 0.22265625 -54.324219 1.5976562Q-54.324219 2.9648438 -53.859375 3.7109375Q-53.394531 4.4570312 -52.535156 4.4570312Q-50.777344 4.4570312 -50.777344 1.5351562ZM-43.253906 5.9570312Q-45.160156 5.9570312 -46.183594 4.828125Q-47.207031 3.6992188 -47.207031 1.5351562Q-47.207031 -0.55859375 -46.167969 -1.6835938Q-45.128906 -2.8085938 -43.222656 -2.8085938Q-41.402344 -2.8085938 -40.441406 -1.6015625Q-39.480469 -0.39453125 -39.480469 1.9335938L-39.480469 1.9960938L-44.902344 1.9960938Q-44.902344 3.2304688 -44.445312 3.859375Q-43.988281 4.4882812 -43.144531 4.4882812Q-41.980469 4.4882812 -41.675781 3.4804688L-39.605469 3.6601562Q-40.503906 5.9570312 -43.253906 5.9570312ZM-43.253906 -1.4257812Q-44.027344 -1.4257812 -44.445312 -0.88671875Q-44.863281 -0.34765625 -44.886719 0.62109375L-41.605469 0.62109375Q-41.667969 -0.40234375 -42.097656 -0.9140625Q-42.527344 -1.4257812 -43.253906 -1.4257812ZM-37.816406 5.8007812L-37.816406 -5.7929688L-35.621094 -5.7929688L-35.621094 5.8007812L-37.816406 5.8007812ZM-25.339844 1.5664062Q-25.339844 3.6210938 -26.480469 4.7890625Q-27.621094 5.9570312 -29.636719 5.9570312Q-31.613281 5.9570312 -32.738281 4.7851562Q-33.863281 3.6132812 -33.863281 1.5664062Q-33.863281 -0.47265625 -32.738281 -1.640625Q-31.613281 -2.8085938 -29.589844 -2.8085938Q-27.519531 -2.8085938 -26.429688 -1.6796875Q-25.339844 -0.55078125 -25.339844 1.5664062ZM-27.636719 1.5664062Q-27.636719 0.05859375 -28.128906 -0.62109375Q-28.621094 -1.3007812 -29.558594 -1.3007812Q-31.558594 -1.3007812 -31.558594 1.5664062Q-31.558594 2.9804688 -31.070312 3.71875Q-30.582031 4.4570312 -29.660156 4.4570312Q-27.636719 4.4570312 -27.636719 1.5664062ZM-21.433594 5.9414062Q-22.402344 5.9414062 -22.925781 5.4140625Q-23.449219 4.8867188 -23.449219 3.8164062L-23.449219 -1.1679688L-24.519531 -1.1679688L-24.519531 -2.6523438L-23.339844 -2.6523438L-22.652344 -4.6367188L-21.277344 -4.6367188L-21.277344 -2.6523438L-19.675781 -2.6523438L-19.675781 -1.1679688L-21.277344 -1.1679688L-21.277344 3.2226562Q-21.277344 3.8398438 -21.042969 4.1328125Q-20.808594 4.4257812 -20.316406 4.4257812Q-20.058594 4.4257812 -19.582031 4.3164062L-19.582031 5.6757812Q-20.394531 5.9414062 -21.433594 5.9414062ZM-10.238281 1.5664062Q-10.238281 3.6210938 -11.378906 4.7890625Q-12.519531 5.9570312 -14.535156 5.9570312Q-16.511719 5.9570312 -17.636719 4.7851562Q-18.761719 3.6132812 -18.761719 1.5664062Q-18.761719 -0.47265625 -17.636719 -1.640625Q-16.511719 -2.8085938 -14.488281 -2.8085938Q-12.417969 -2.8085938 -11.328125 -1.6796875Q-10.238281 -0.55078125 -10.238281 1.5664062ZM-12.535156 1.5664062Q-12.535156 0.05859375 -13.027344 -0.62109375Q-13.519531 -1.3007812 -14.457031 -1.3007812Q-16.457031 -1.3007812 -16.457031 1.5664062Q-16.457031 2.9804688 -15.96875 3.71875Q-15.480469 4.4570312 -14.558594 4.4570312Q-12.535156 4.4570312 -12.535156 1.5664062ZM-3.0195312 5.8007812L-3.0195312 1.0585938Q-3.0195312 -1.1679688 -4.5273438 -1.1679688Q-5.3242188 -1.1679688 -5.8125 -0.484375Q-6.3007812 0.19921875 -6.3007812 1.2695312L-6.3007812 5.8007812L-8.4960938 5.8007812L-8.4960938 -0.76171875Q-8.4960938 -1.4414062 -8.515625 -1.875Q-8.5351562 -2.3085938 -8.5585938 -2.6523438L-6.4648438 -2.6523438Q-6.4414062 -2.5039062 -6.4023438 -1.859375Q-6.3632812 -1.2148438 -6.3632812 -0.97265625L-6.3320312 -0.97265625Q-5.8867188 -1.9414062 -5.2148438 -2.3789062Q-4.5429688 -2.8164062 -3.6132812 -2.8164062Q-2.2695312 -2.8164062 -1.5507812 -1.9882812Q-0.83203125 -1.1601562 -0.83203125 0.43359375L-0.83203125 5.8007812L-3.0195312 5.8007812ZM0.78515625 2.6054688L0.78515625 0.69921875L4.8476562 0.69921875L4.8476562 2.6054688L0.78515625 2.6054688ZM6.6054688 5.8007812L6.6054688 -5.7929688L8.8007812 -5.7929688L8.8007812 5.8007812L6.6054688 5.8007812ZM13.003906 5.9570312Q11.777344 5.9570312 11.089844 5.2890625Q10.402344 4.6210938 10.402344 3.4101562Q10.402344 2.0976562 11.257812 1.4101562Q12.113281 0.72265625 13.738281 0.70703125L15.558594 0.67578125L15.558594 0.24609375Q15.558594 -0.58203125 15.269531 -0.984375Q14.980469 -1.3867188 14.324219 -1.3867188Q13.714844 -1.3867188 13.429688 -1.109375Q13.144531 -0.83203125 13.074219 -0.19140625L10.785156 -0.30078125Q10.996094 -1.5351562 11.914062 -2.171875Q12.832031 -2.8085938 14.417969 -2.8085938Q16.019531 -2.8085938 16.886719 -2.0195312Q17.753906 -1.2304688 17.753906 0.22265625L17.753906 3.3007812Q17.753906 4.0117188 17.914062 4.28125Q18.074219 4.5507812 18.449219 4.5507812Q18.699219 4.5507812 18.933594 4.5039062L18.933594 5.6914062Q18.738281 5.7382812 18.582031 5.7773438Q18.425781 5.8164062 18.269531 5.8398438Q18.113281 5.8632812 17.9375 5.8789062Q17.761719 5.8945312 17.527344 5.8945312Q16.699219 5.8945312 16.304688 5.4882812Q15.910156 5.0820312 15.832031 4.2929688L15.785156 4.2929688Q14.863281 5.9570312 13.003906 5.9570312ZM15.558594 1.8867188L14.433594 1.9023438Q13.667969 1.9335938 13.347656 2.0703125Q13.027344 2.2070312 12.859375 2.4882812Q12.691406 2.7695312 12.691406 3.2382812Q12.691406 3.8398438 12.96875 4.1328125Q13.246094 4.4257812 13.707031 4.4257812Q14.222656 4.4257812 14.648438 4.1445312Q15.074219 3.8632812 15.316406 3.3671875Q15.558594 2.8710938 15.558594 2.3164062L15.558594 1.8867188ZM25.425781 5.8007812L25.425781 1.0585938Q25.425781 -1.1679688 23.917969 -1.1679688Q23.121094 -1.1679688 22.632812 -0.484375Q22.144531 0.19921875 22.144531 1.2695312L22.144531 5.8007812L19.949219 5.8007812L19.949219 -0.76171875Q19.949219 -1.4414062 19.929688 -1.875Q19.910156 -2.3085938 19.886719 -2.6523438L21.980469 -2.6523438Q22.003906 -2.5039062 22.042969 -1.859375Q22.082031 -1.2148438 22.082031 -0.97265625L22.113281 -0.97265625Q22.558594 -1.9414062 23.230469 -2.3789062Q23.902344 -2.8164062 24.832031 -2.8164062Q26.175781 -2.8164062 26.894531 -1.9882812Q27.613281 -1.1601562 27.613281 0.43359375L27.613281 5.8007812L25.425781 5.8007812ZM35.199219 5.8007812Q35.167969 5.6835938 35.125 5.2109375Q35.082031 4.7382812 35.082031 4.4257812L35.050781 4.4257812Q34.339844 5.9570312 32.347656 5.9570312Q30.871094 5.9570312 30.066406 4.8046875Q29.261719 3.6523438 29.261719 1.5820312Q29.261719 -0.51953125 30.109375 -1.6640625Q30.957031 -2.8085938 32.511719 -2.8085938Q33.410156 -2.8085938 34.0625 -2.4335938Q34.714844 -2.0585938 35.066406 -1.3164062L35.082031 -1.3164062L35.066406 -2.7070312L35.066406 -5.7929688L37.261719 -5.7929688L37.261719 3.9570312Q37.261719 4.7382812 37.324219 5.8007812L35.199219 5.8007812ZM35.097656 1.5273438Q35.097656 0.16015625 34.640625 -0.578125Q34.183594 -1.3164062 33.292969 -1.3164062Q32.410156 -1.3164062 31.980469 -0.6015625Q31.550781 0.11328125 31.550781 1.5820312Q31.550781 4.4570312 33.277344 4.4570312Q34.144531 4.4570312 34.621094 3.6953125Q35.097656 2.9335938 35.097656 1.5273438ZM44.089844 5.8007812L41.464844 5.8007812L38.441406 -2.6523438L40.761719 -2.6523438L42.238281 2.0742188Q42.355469 2.4648438 42.792969 4.0273438Q42.871094 3.7070312 43.113281 2.9023438Q43.355469 2.0976562 44.910156 -2.6523438L47.207031 -2.6523438L44.089844 5.8007812ZM48.394531 -4.1757812L48.394531 -5.7929688L50.589844 -5.7929688L50.589844 -4.1757812L48.394531 -4.1757812ZM48.394531 5.8007812L48.394531 -2.6523438L50.589844 -2.6523438L50.589844 5.8007812L48.394531 5.8007812ZM56.300781 5.9570312Q54.394531 5.9570312 53.371094 4.828125Q52.347656 3.6992188 52.347656 1.5351562Q52.347656 -0.55859375 53.386719 -1.6835938Q54.425781 -2.8085938 56.332031 -2.8085938Q58.152344 -2.8085938 59.113281 -1.6015625Q60.074219 -0.39453125 60.074219 1.9335938L60.074219 1.9960938L54.652344 1.9960938Q54.652344 3.2304688 55.109375 3.859375Q55.566406 4.4882812 56.410156 4.4882812Q57.574219 4.4882812 57.878906 3.4804688L59.949219 3.6601562Q59.050781 5.9570312 56.300781 5.9570312ZM56.300781 -1.4257812Q55.527344 -1.4257812 55.109375 -0.88671875Q54.691406 -0.34765625 54.667969 0.62109375L57.949219 0.62109375Q57.886719 -0.40234375 57.457031 -0.9140625Q57.027344 -1.4257812 56.300781 -1.4257812ZM70.878906 5.8007812L68.558594 5.8007812L67.214844 0.64453125Q67.121094 0.29296875 66.847656 -1.0898438L66.441406 0.66015625L65.082031 5.8007812L62.761719 5.8007812L60.574219 -2.6523438L62.636719 -2.6523438L64.027344 3.8085938L64.136719 3.2304688L64.332031 2.3164062L65.660156 -2.6523438L68.011719 -2.6523438L69.308594 2.3164062Q69.417969 2.7226562 69.628906 3.8085938L69.847656 2.7773438L71.066406 -2.6523438L73.097656 -2.6523438L70.878906 5.8007812ZM78.136719 2.6054688L78.136719 0.69921875L82.199219 0.69921875L82.199219 2.6054688L78.136719 2.6054688ZM90.660156 -3.4257812L90.660156 -0.01953125L96.292969 -0.01953125L96.292969 1.7617188L90.660156 1.7617188L90.660156 5.8007812L88.355469 5.8007812L88.355469 -5.2070312L96.472656 -5.2070312L96.472656 -3.4257812L90.660156 -3.4257812ZM108.83203 0.24609375Q108.83203 1.9648438 108.15234 3.2695312Q107.47266 4.5742188 106.20703 5.265625Q104.94141 5.9570312 103.25391 5.9570312Q100.66016 5.9570312 99.1875 4.4296875Q97.714844 2.9023438 97.714844 0.24609375Q97.714844 -2.4023438 99.183594 -3.8867188Q100.65234 -5.3710938 103.26953 -5.3710938Q105.88672 -5.3710938 107.35938 -3.8710938Q108.83203 -2.3710938 108.83203 0.24609375ZM106.48047 0.24609375Q106.48047 -1.5351562 105.63672 -2.546875Q104.79297 -3.5585938 103.26953 -3.5585938Q101.72266 -3.5585938 100.87891 -2.5546875Q100.03516 -1.5507812 100.03516 0.24609375Q100.03516 2.0585938 100.89844 3.1015625Q101.76172 4.1445312 103.25391 4.1445312Q104.80078 4.1445312 105.64062 3.1289062Q106.48047 2.1132812 106.48047 0.24609375ZM118.13672 5.8007812L115.58203 1.6210938L112.87891 1.6210938L112.87891 5.8007812L110.57422 5.8007812L110.57422 -5.2070312L116.07422 -5.2070312Q118.04297 -5.2070312 119.11328 -4.359375Q120.18359 -3.5117188 120.18359 -1.9257812Q120.18359 -0.76953125 119.52734 0.0703125Q118.87109 0.91015625 117.75391 1.1757812L120.73047 5.8007812L118.13672 5.8007812ZM117.86328 -1.8320312Q117.86328 -3.4179688 115.83203 -3.4179688L112.87891 -3.4179688L112.87891 -0.16796875L115.89453 -0.16796875Q116.86328 -0.16796875 117.36328 -0.60546875Q117.86328 -1.0429688 117.86328 -1.8320312ZM131.26953 5.8007812L131.26953 -0.87109375Q131.26953 -1.0976562 131.27344 -1.3242188Q131.27734 -1.5507812 131.34766 -3.2695312Q130.79297 -1.1679688 130.52734 -0.33984375L128.54297 5.8007812L126.90234 5.8007812L124.91797 -0.33984375L124.08203 -3.2695312Q124.17578 -1.4570312 124.17578 -0.87109375L124.17578 5.8007812L122.12891 5.8007812L122.12891 -5.2070312L125.21484 -5.2070312L127.18359 0.94921875L127.35547 1.5429688L127.73047 3.0195312L128.22266 1.2539062L130.24609 -5.2070312L133.31641 -5.2070312L133.31641 5.8007812L131.26953 5.8007812ZM143.23828 5.8007812L142.26172 2.9882812L138.06641 2.9882812L137.08984 5.8007812L134.78516 5.8007812L138.80078 -5.2070312L141.51953 -5.2070312L145.51953 5.8007812L143.23828 5.8007812ZM140.16016 -3.5117188L140.11328 -3.3398438Q140.03516 -3.0585938 139.92578 -2.6992188Q139.81641 -2.3398438 138.58203 1.2539062L141.74609 1.2539062L140.66016 -1.9101562L140.32422 -2.9726562L140.16016 -3.5117188ZM150.79297 -3.4257812L150.79297 5.8007812L148.48828 5.8007812L148.48828 -3.4257812L144.93359 -3.4257812L144.93359 -5.2070312L154.35547 -5.2070312L154.35547 -3.4257812L150.79297 -3.4257812ZM169.85547 0.21484375Q169.85547 1.9179688 169.1875 3.1875Q168.51953 4.4570312 167.29688 5.1289062Q166.07422 5.8007812 164.49609 5.8007812L160.04297 5.8007812L160.04297 -5.2070312L164.02734 -5.2070312Q166.80859 -5.2070312 168.33203 -3.8046875Q169.85547 -2.4023438 169.85547 0.21484375ZM167.53516 0.21484375Q167.53516 -1.5585938 166.61328 -2.4921875Q165.69141 -3.4257812 163.98047 -3.4257812L162.34766 -3.4257812L162.34766 4.0195312L164.30078 4.0195312Q165.78516 4.0195312 166.66016 2.9960938Q167.53516 1.9726562 167.53516 0.21484375ZM179.67578 1.5664062Q179.67578 3.6210938 178.53516 4.7890625Q177.39453 5.9570312 175.37891 5.9570312Q173.40234 5.9570312 172.27734 4.7851562Q171.15234 3.6132812 171.15234 1.5664062Q171.15234 -0.47265625 172.27734 -1.640625Q173.40234 -2.8085938 175.42578 -2.8085938Q177.49609 -2.8085938 178.58594 -1.6796875Q179.67578 -0.55078125 179.67578 1.5664062ZM177.37891 1.5664062Q177.37891 0.05859375 176.88672 -0.62109375Q176.39453 -1.3007812 175.45703 -1.3007812Q173.45703 -1.3007812 173.45703 1.5664062Q173.45703 2.9804688 173.94531 3.71875Q174.43359 4.4570312 175.35547 4.4570312Q177.37891 4.4570312 177.37891 1.5664062ZM190.55859 5.8007812L188.23828 5.8007812L186.89453 0.64453125Q186.80078 0.29296875 186.52734 -1.0898438L186.12109 0.66015625L184.76172 5.8007812L182.44141 5.8007812L180.25391 -2.6523438L182.31641 -2.6523438L183.70703 3.8085938L183.81641 3.2304688L184.01172 2.3164062L185.33984 -2.6523438L187.69141 -2.6523438L188.98828 2.3164062Q189.09766 2.7226562 189.30859 3.8085938L189.52734 2.7773438L190.74609 -2.6523438L192.77734 -2.6523438L190.55859 5.8007812ZM199.33984 5.8007812L199.33984 1.0585938Q199.33984 -1.1679688 197.83203 -1.1679688Q197.03516 -1.1679688 196.54688 -0.484375Q196.05859 0.19921875 196.05859 1.2695312L196.05859 5.8007812L193.86328 5.8007812L193.86328 -0.76171875Q193.86328 -1.4414062 193.84375 -1.875Q193.82422 -2.3085938 193.80078 -2.6523438L195.89453 -2.6523438Q195.91797 -2.5039062 195.95703 -1.859375Q195.99609 -1.2148438 195.99609 -0.97265625L196.02734 -0.97265625Q196.47266 -1.9414062 197.14453 -2.3789062Q197.81641 -2.8164062 198.74609 -2.8164062Q200.08984 -2.8164062 200.80859 -1.9882812Q201.52734 -1.1601562 201.52734 0.43359375L201.52734 5.8007812L199.33984 5.8007812ZM203.63672 5.8007812L203.63672 -5.7929688L205.83203 -5.7929688L205.83203 5.8007812L203.63672 5.8007812ZM216.11328 1.5664062Q216.11328 3.6210938 214.97266 4.7890625Q213.83203 5.9570312 211.81641 5.9570312Q209.83984 5.9570312 208.71484 4.7851562Q207.58984 3.6132812 207.58984 1.5664062Q207.58984 -0.47265625 208.71484 -1.640625Q209.83984 -2.8085938 211.86328 -2.8085938Q213.93359 -2.8085938 215.02344 -1.6796875Q216.11328 -0.55078125 216.11328 1.5664062ZM213.81641 1.5664062Q213.81641 0.05859375 213.32422 -0.62109375Q212.83203 -1.3007812 211.89453 -1.3007812Q209.89453 -1.3007812 209.89453 1.5664062Q209.89453 2.9804688 210.38281 3.71875Q210.87109 4.4570312 211.79297 4.4570312Q213.81641 4.4570312 213.81641 1.5664062ZM219.80859 5.9570312Q218.58203 5.9570312 217.89453 5.2890625Q217.20703 4.6210938 217.20703 3.4101562Q217.20703 2.0976562 218.0625 1.4101562Q218.91797 0.72265625 220.54297 0.70703125L222.36328 0.67578125L222.36328 0.24609375Q222.36328 -0.58203125 222.07422 -0.984375Q221.78516 -1.3867188 221.12891 -1.3867188Q220.51953 -1.3867188 220.23438 -1.109375Q219.94922 -0.83203125 219.87891 -0.19140625L217.58984 -0.30078125Q217.80078 -1.5351562 218.71875 -2.171875Q219.63672 -2.8085938 221.22266 -2.8085938Q222.82422 -2.8085938 223.69141 -2.0195312Q224.55859 -1.2304688 224.55859 0.22265625L224.55859 3.3007812Q224.55859 4.0117188 224.71875 4.28125Q224.87891 4.5507812 225.25391 4.5507812Q225.50391 4.5507812 225.73828 4.5039062L225.73828 5.6914062Q225.54297 5.7382812 225.38672 5.7773438Q225.23047 5.8164062 225.07422 5.8398438Q224.91797 5.8632812 224.74219 5.8789062Q224.56641 5.8945312 224.33203 5.8945312Q223.50391 5.8945312 223.10938 5.4882812Q222.71484 5.0820312 222.63672 4.2929688L222.58984 4.2929688Q221.66797 5.9570312 219.80859 5.9570312ZM222.36328 1.8867188L221.23828 1.9023438Q220.47266 1.9335938 220.15234 2.0703125Q219.83203 2.2070312 219.66406 2.4882812Q219.49609 2.7695312 219.49609 3.2382812Q219.49609 3.8398438 219.77344 4.1328125Q220.05078 4.4257812 220.51172 4.4257812Q221.02734 4.4257812 221.45312 4.1445312Q221.87891 3.8632812 222.12109 3.3671875Q222.36328 2.8710938 222.36328 2.3164062L222.36328 1.8867188ZM232.23047 5.8007812Q232.19922 5.6835938 232.15625 5.2109375Q232.11328 4.7382812 232.11328 4.4257812L232.08203 4.4257812Q231.37109 5.9570312 229.37891 5.9570312Q227.90234 5.9570312 227.09766 4.8046875Q226.29297 3.6523438 226.29297 1.5820312Q226.29297 -0.51953125 227.14062 -1.6640625Q227.98828 -2.8085938 229.54297 -2.8085938Q230.44141 -2.8085938 231.09375 -2.4335938Q231.74609 -2.0585938 232.09766 -1.3164062L232.11328 -1.3164062L232.09766 -2.7070312L232.09766 -5.7929688L234.29297 -5.7929688L234.29297 3.9570312Q234.29297 4.7382812 234.35547 5.8007812L232.23047 5.8007812ZM232.12891 1.5273438Q232.12891 0.16015625 231.67188 -0.578125Q231.21484 -1.3164062 230.32422 -1.3164062Q229.44141 -1.3164062 229.01172 -0.6015625Q228.58203 0.11328125 228.58203 1.5820312Q228.58203 4.4570312 230.30859 4.4570312Q231.17578 4.4570312 231.65234 3.6953125Q232.12891 2.9335938 232.12891 1.5273438ZM245.89453 -3.4257812L245.89453 5.8007812L243.58984 5.8007812L243.58984 -3.4257812L240.03516 -3.4257812L240.03516 -5.2070312L249.45703 -5.2070312L249.45703 -3.4257812L245.89453 -3.4257812ZM249.86328 5.8007812L249.86328 -0.66796875Q249.86328 -1.3632812 249.84375 -1.828125Q249.82422 -2.2929688 249.80078 -2.6523438L251.89453 -2.6523438Q251.91797 -2.5117188 251.95703 -1.796875Q251.99609 -1.0820312 251.99609 -0.84765625L252.02734 -0.84765625Q252.34766 -1.7382812 252.59766 -2.1015625Q252.84766 -2.4648438 253.19141 -2.640625Q253.53516 -2.8164062 254.05078 -2.8164062Q254.47266 -2.8164062 254.73047 -2.6992188L254.73047 -0.86328125Q254.19922 -0.98046875 253.79297 -0.98046875Q252.97266 -0.98046875 252.51562 -0.31640625Q252.05859 0.34765625 252.05859 1.6523438L252.05859 5.8007812L249.86328 5.8007812ZM259.55078 5.9570312Q257.64453 5.9570312 256.62109 4.828125Q255.59766 3.6992188 255.59766 1.5351562Q255.59766 -0.55859375 256.63672 -1.6835938Q257.67578 -2.8085938 259.58203 -2.8085938Q261.40234 -2.8085938 262.36328 -1.6015625Q263.32422 -0.39453125 263.32422 1.9335938L263.32422 1.9960938L257.90234 1.9960938Q257.90234 3.2304688 258.35938 3.859375Q258.81641 4.4882812 259.66016 4.4882812Q260.82422 4.4882812 261.12891 3.4804688L263.19922 3.6601562Q262.30078 5.9570312 259.55078 5.9570312ZM259.55078 -1.4257812Q258.77734 -1.4257812 258.35938 -0.88671875Q257.94141 -0.34765625 257.91797 0.62109375L261.19922 0.62109375Q261.13672 -0.40234375 260.70703 -0.9140625Q260.27734 -1.4257812 259.55078 -1.4257812ZM270.46484 5.8007812L270.46484 1.0585938Q270.46484 -1.1679688 268.95703 -1.1679688Q268.16016 -1.1679688 267.67188 -0.484375Q267.18359 0.19921875 267.18359 1.2695312L267.18359 5.8007812L264.98828 5.8007812L264.98828 -0.76171875Q264.98828 -1.4414062 264.96875 -1.875Q264.94922 -2.3085938 264.92578 -2.6523438L267.01953 -2.6523438Q267.04297 -2.5039062 267.08203 -1.859375Q267.12109 -1.2148438 267.12109 -0.97265625L267.15234 -0.97265625Q267.59766 -1.9414062 268.26953 -2.3789062Q268.94141 -2.8164062 269.87109 -2.8164062Q271.21484 -2.8164062 271.93359 -1.9882812Q272.65234 -1.1601562 272.65234 0.43359375L272.65234 5.8007812L270.46484 5.8007812ZM280.23828 5.8007812Q280.20703 5.6835938 280.16406 5.2109375Q280.12109 4.7382812 280.12109 4.4257812L280.08984 4.4257812Q279.37891 5.9570312 277.38672 5.9570312Q275.91016 5.9570312 275.10547 4.8046875Q274.30078 3.6523438 274.30078 1.5820312Q274.30078 -0.51953125 275.14844 -1.6640625Q275.99609 -2.8085938 277.55078 -2.8085938Q278.44922 -2.8085938 279.10156 -2.4335938Q279.75391 -2.0585938 280.10547 -1.3164062L280.12109 -1.3164062L280.10547 -2.7070312L280.10547 -5.7929688L282.30078 -5.7929688L282.30078 3.9570312Q282.30078 4.7382812 282.36328 5.8007812L280.23828 5.8007812ZM280.13672 1.5273438Q280.13672 0.16015625 279.67969 -0.578125Q279.22266 -1.3164062 278.33203 -1.3164062Q277.44922 -1.3164062 277.01953 -0.6015625Q276.58984 0.11328125 276.58984 1.5820312Q276.58984 4.4570312 278.31641 4.4570312Q279.18359 4.4570312 279.66016 3.6953125Q280.13672 2.9335938 280.13672 1.5273438ZM291.66016 3.3320312Q291.66016 4.5585938 290.65625 5.2578125Q289.65234 5.9570312 287.87891 5.9570312Q286.13672 5.9570312 285.21094 5.40625Q284.28516 4.8554688 283.98047 3.6914062L285.91016 3.4023438Q286.07422 4.0039062 286.47656 4.2539062Q286.87891 4.5039062 287.87891 4.5039062Q288.80078 4.5039062 289.22266 4.2695312Q289.64453 4.0351562 289.64453 3.5351562Q289.64453 3.1289062 289.30469 2.890625Q288.96484 2.6523438 288.15234 2.4882812Q286.29297 2.1210938 285.64453 1.8046875Q284.99609 1.4882812 284.65625 0.984375Q284.31641 0.48046875 284.31641 -0.25390625Q284.31641 -1.4648438 285.25 -2.140625Q286.18359 -2.8164062 287.89453 -2.8164062Q289.40234 -2.8164062 290.32031 -2.2304688Q291.23828 -1.6445312 291.46484 -0.53515625L289.51953 -0.33203125Q289.42578 -0.84765625 289.05859 -1.1015625Q288.69141 -1.3554688 287.89453 -1.3554688Q287.11328 -1.3554688 286.72266 -1.15625Q286.33203 -0.95703125 286.33203 -0.48828125Q286.33203 -0.12109375 286.63281 0.09375Q286.93359 0.30859375 287.64453 0.44921875Q288.63672 0.65234375 289.40625 0.8671875Q290.17578 1.0820312 290.64062 1.3789062Q291.10547 1.6757812 291.38281 2.140625Q291.66016 2.6054688 291.66016 3.3320312Z"/>
	<path fill="none" stroke="black" stroke-width="1" stroke-miterlimit="10" stroke-opacity="0.10196079" d="M49 749.5L1195 749.5"/>
	<clipPath id="cl_4c6">
		<rect y="749.20001" width="1200" height="50.799988"/>
	</clipPath>
	<g clip-path="url(#cl_4c6)">
		<path fill="#666" transform="translate(49.75 760.2)" d="M-12.751953 11.300586L-14 11.300586L-16.302734 4.960742L-15.177734 4.960742L-13.783203 9.085742Q-13.707031 9.320117 -13.378906 10.474414L-13.173828 9.788867L-12.945312 9.0974607L-11.503906 4.960742L-10.384766 4.960742L-12.751953 11.300586ZM-4.1386719 7.1697264Q-4.1386719 9.2380857 -4.8681641 10.327929Q-5.5976562 11.417773 -7.0214844 11.417773Q-8.4453125 11.417773 -9.1601562 10.333789Q-9.875 9.2498045 -9.875 7.1697264Q-9.875 5.0427732 -9.1806641 3.9822264Q-8.4863281 2.9216795 -6.9863281 2.9216795Q-5.5273438 2.9216795 -4.8330078 3.9939451Q-4.1386719 5.0662107 -4.1386719 7.1697264ZM-5.2109375 7.1697264Q-5.2109375 5.382617 -5.6240234 4.5798826Q-6.0371094 3.7771482 -6.9863281 3.7771482Q-7.9589844 3.7771482 -8.3837891 4.5681639Q-8.8085938 5.3591795 -8.8085938 7.1697264Q-8.8085938 8.9275389 -8.3779297 9.741992Q-7.9472656 10.556445 -7.0097656 10.556445Q-6.078125 10.556445 -5.6445312 9.7244139Q-5.2109375 8.8923826 -5.2109375 7.1697264ZM-2.5742188 11.300586L-2.5742188 10.017383L-1.4316406 10.017383L-1.4316406 11.300586L-2.5742188 11.300586ZM0.26757812 11.300586L0.26757812 10.556445Q0.56640625 9.8708982 0.99707031 9.3464842Q1.4277344 8.8220701 1.9023438 8.3972654Q2.3769531 7.9724607 2.8427734 7.6091795Q3.3085938 7.2458982 3.6835938 6.882617Q4.0585938 6.5193357 4.2900391 6.1208982Q4.5214844 5.7224607 4.5214844 5.2185545Q4.5214844 4.538867 4.1230469 4.163867Q3.7246094 3.788867 3.015625 3.788867Q2.3417969 3.788867 1.9052734 4.1550779Q1.46875 4.5212889 1.3925781 5.1833982L0.31445312 5.0837889Q0.43164062 4.0935545 1.1552734 3.507617Q1.8789062 2.9216795 3.015625 2.9216795Q4.2636719 2.9216795 4.9345703 3.5105467Q5.6054688 4.0994139 5.6054688 5.1833982Q5.6054688 5.663867 5.3857422 6.1384764Q5.1660156 6.6130857 4.7324219 7.0876951Q4.2988281 7.5623045 3.0742188 8.5583982Q2.4003906 9.1091795 2.0019531 9.5515623Q1.6035156 9.9939451 1.4277344 10.404101L5.734375 10.404101L5.734375 11.300586L0.26757812 11.300586ZM7.4335938 11.300586L7.4335938 10.017383L8.5761719 10.017383L8.5761719 11.300586L7.4335938 11.300586ZM15.876953 7.1697264Q15.876953 9.2380857 15.147461 10.327929Q14.417969 11.417773 12.994141 11.417773Q11.570312 11.417773 10.855469 10.333789Q10.140625 9.2498045 10.140625 7.1697264Q10.140625 5.0427732 10.834961 3.9822264Q11.529297 2.9216795 13.029297 2.9216795Q14.488281 2.9216795 15.182617 3.9939451Q15.876953 5.0662107 15.876953 7.1697264ZM14.804688 7.1697264Q14.804688 5.382617 14.391602 4.5798826Q13.978516 3.7771482 13.029297 3.7771482Q12.056641 3.7771482 11.631836 4.5681639Q11.207031 5.3591795 11.207031 7.1697264Q11.207031 8.9275389 11.637695 9.741992Q12.068359 10.556445 13.005859 10.556445Q13.9375 10.556445 14.371094 9.7244139Q14.804688 8.8923826 14.804688 7.1697264Z"/>
	</g>
	<path fill="none" stroke="black" stroke-width="1" stroke-miterlimit="10" stroke-opacity="0.10196079" d="M49.5 71L49.5 750"/>
	<clipPath id="cl_4c8">
		<rect width="49.75" height="800"/>
	</clipPath>
	<g clip-path="url(#cl_4c8)">
		<path fill="#666" transform="translate(38.75 749.2)" d="M-0.46679688 -0.030273438Q-0.46679688 2.0380859 -1.1962891 3.1279297Q-1.9257812 4.2177734 -3.3496094 4.2177734Q-4.7734375 4.2177734 -5.4882812 3.1337891Q-6.203125 2.0498047 -6.203125 -0.030273438Q-6.203125 -2.1572266 -5.5087891 -3.2177734Q-4.8144531 -4.2783203 -3.3144531 -4.2783203Q-1.8554688 -4.2783203 -1.1611328 -3.2060547Q-0.46679688 -2.1337891 -0.46679688 -0.030273438ZM-1.5390625 -0.030273438Q-1.5390625 -1.8173828 -1.9521484 -2.6201172Q-2.3652344 -3.4228516 -3.3144531 -3.4228516Q-4.2871094 -3.4228516 -4.7119141 -2.6318359Q-5.1367188 -1.8408203 -5.1367188 -0.030273438Q-5.1367188 1.7275391 -4.7060547 2.5419922Q-4.2753906 3.3564453 -3.3378906 3.3564453Q-2.40625 3.3564453 -1.9726562 2.5244141Q-1.5390625 1.6923828 -1.5390625 -0.030273438Z"/>
	</g>
	<clipPath id="cl_4c9">
		<rect width="49.75" height="800"/>
	</clipPath>
	<g clip-path="url(#cl_4c9)">
		<path fill="#666" transform="translate(38.75 681.4)" d="M-5.7578125 4.1005859L-5.7578125 3.2041016L-3.6542969 3.2041016L-3.6542969 -3.1474609L-5.5175781 -1.8173828L-5.5175781 -2.8134766L-3.5664062 -4.1552734L-2.59375 -4.1552734L-2.59375 3.2041016L-0.58398438 3.2041016L-0.58398438 4.1005859L-5.7578125 4.1005859Z"/>
	</g>
	<clipPath id="cl_4ca">
		<rect width="49.75" height="800"/>
	</clipPath>
	<g clip-path="url(#cl_4ca)">
		<path fill="#666" transform="translate(38.75 613.6)" d="M-6.0683594 4.1005859L-6.0683594 3.3564453Q-5.7695312 2.6708984 -5.3388672 2.1464844Q-4.9082031 1.6220703 -4.4335938 1.1972656Q-3.9589844 0.77246094 -3.4931641 0.40917969Q-3.0273438 0.045898438 -2.6523438 -0.31738281Q-2.2773438 -0.68066406 -2.0458984 -1.0791016Q-1.8144531 -1.4775391 -1.8144531 -1.9814453Q-1.8144531 -2.6611328 -2.2128906 -3.0361328Q-2.6113281 -3.4111328 -3.3203125 -3.4111328Q-3.9941406 -3.4111328 -4.4306641 -3.0449219Q-4.8671875 -2.6787109 -4.9433594 -2.0166016L-6.0214844 -2.1162109Q-5.9042969 -3.1064453 -5.1806641 -3.6923828Q-4.4570312 -4.2783203 -3.3203125 -4.2783203Q-2.0722656 -4.2783203 -1.4013672 -3.6894531Q-0.73046875 -3.1005859 -0.73046875 -2.0166016Q-0.73046875 -1.5361328 -0.95019531 -1.0615234Q-1.1699219 -0.58691406 -1.6035156 -0.11230469Q-2.0371094 0.36230469 -3.2617188 1.3583984Q-3.9355469 1.9091797 -4.3339844 2.3515625Q-4.7324219 2.7939453 -4.9082031 3.2041016L-0.6015625 3.2041016L-0.6015625 4.1005859L-6.0683594 4.1005859Z"/>
	</g>
	<clipPath id="cl_4cb">
		<rect width="49.75" height="800"/>
	</clipPath>
	<g clip-path="url(#cl_4cb)">
		<path fill="#666" transform="translate(38.75 545.8)" d="M-0.52539062 1.8212891Q-0.52539062 2.9638672 -1.2519531 3.5908203Q-1.9785156 4.2177734 -3.3261719 4.2177734Q-4.5800781 4.2177734 -5.3271484 3.6523438Q-6.0742188 3.0869141 -6.2148438 1.9794922L-5.125 1.8798828Q-4.9140625 3.3447266 -3.3261719 3.3447266Q-2.5292969 3.3447266 -2.0751953 2.9521484Q-1.6210938 2.5595703 -1.6210938 1.7861328Q-1.6210938 1.1123047 -2.1396484 0.734375Q-2.6582031 0.35644531 -3.6367188 0.35644531L-4.234375 0.35644531L-4.234375 -0.55761719L-3.6601562 -0.55761719Q-2.7929688 -0.55761719 -2.3154297 -0.93554688Q-1.8378906 -1.3134766 -1.8378906 -1.9814453Q-1.8378906 -2.6435547 -2.2275391 -3.0273438Q-2.6171875 -3.4111328 -3.3847656 -3.4111328Q-4.0820312 -3.4111328 -4.5126953 -3.0537109Q-4.9433594 -2.6962891 -5.0136719 -2.0458984L-6.0742188 -2.1279297Q-5.9570312 -3.1416016 -5.2333984 -3.7099609Q-4.5097656 -4.2783203 -3.3730469 -4.2783203Q-2.1308594 -4.2783203 -1.4423828 -3.7011719Q-0.75390625 -3.1240234 -0.75390625 -2.0927734Q-0.75390625 -1.3017578 -1.1962891 -0.80664062Q-1.6386719 -0.31152344 -2.4824219 -0.13574219L-2.4824219 -0.11230469Q-1.5566406 -0.012695312 -1.0410156 0.50878906Q-0.52539062 1.0302734 -0.52539062 1.8212891Z"/>
	</g>
	<clipPath id="cl_4cc">
		<rect width="49.75" height="800"/>
	</clipPath>
	<g clip-path="url(#cl_4cc)">
		<path fill="#666" transform="translate(38.75 478)" d="M-1.5097656 2.2314453L-1.5097656 4.1005859L-2.5058594 4.1005859L-2.5058594 2.2314453L-6.3964844 2.2314453L-6.3964844 1.4111328L-2.6171875 -4.1552734L-1.5097656 -4.1552734L-1.5097656 1.3994141L-0.34960938 1.3994141L-0.34960938 2.2314453L-1.5097656 2.2314453ZM-2.5058594 -2.9658203Q-2.5175781 -2.9306641 -2.6699219 -2.6552734Q-2.8222656 -2.3798828 -2.8984375 -2.2685547L-5.0136719 0.84863281L-5.3300781 1.2822266L-5.4238281 1.3994141L-2.5058594 1.3994141L-2.5058594 -2.9658203Z"/>
	</g>
	<clipPath id="cl_4cd">
		<rect width="49.75" height="800"/>
	</clipPath>
	<g clip-path="url(#cl_4cd)">
		<path fill="#666" transform="translate(38.75 410.2)" d="M-0.50195312 1.4111328Q-0.50195312 2.7177734 -1.2783203 3.4677734Q-2.0546875 4.2177734 -3.4316406 4.2177734Q-4.5859375 4.2177734 -5.2949219 3.7138672Q-6.0039062 3.2099609 -6.1914062 2.2548828L-5.125 2.1318359Q-4.7910156 3.3564453 -3.4082031 3.3564453Q-2.5585938 3.3564453 -2.078125 2.84375Q-1.5976562 2.3310547 -1.5976562 1.4345703Q-1.5976562 0.65527344 -2.0810547 0.17480469Q-2.5644531 -0.30566406 -3.3847656 -0.30566406Q-3.8125 -0.30566406 -4.1816406 -0.17089844Q-4.5507812 -0.036132812 -4.9199219 0.28613281L-5.9511719 0.28613281L-5.6757812 -4.1552734L-0.98242188 -4.1552734L-0.98242188 -3.2587891L-4.7148438 -3.2587891L-4.8730469 -0.63964844Q-4.1875 -1.1669922 -3.1679688 -1.1669922Q-1.9492188 -1.1669922 -1.2255859 -0.45214844Q-0.50195312 0.26269531 -0.50195312 1.4111328Z"/>
	</g>
	<clipPath id="cl_4ce">
		<rect width="49.75" height="800"/>
	</clipPath>
	<g clip-path="url(#cl_4ce)">
		<path fill="#666" transform="translate(38.75 342.4)" d="M-0.52539062 1.3994141Q-0.52539062 2.7060547 -1.234375 3.4619141Q-1.9433594 4.2177734 -3.1914062 4.2177734Q-4.5859375 4.2177734 -5.3242188 3.1806641Q-6.0625 2.1435547 -6.0625 0.16308594Q-6.0625 -1.9814453 -5.2949219 -3.1298828Q-4.5273438 -4.2783203 -3.109375 -4.2783203Q-1.2402344 -4.2783203 -0.75390625 -2.5966797L-1.7617188 -2.4150391Q-2.0722656 -3.4228516 -3.1210938 -3.4228516Q-4.0234375 -3.4228516 -4.5185547 -2.5820312Q-5.0136719 -1.7412109 -5.0136719 -0.14746094Q-4.7265625 -0.68066406 -4.2050781 -0.95898438Q-3.6835938 -1.2373047 -3.0097656 -1.2373047Q-1.8671875 -1.2373047 -1.1962891 -0.52246094Q-0.52539062 0.19238281 -0.52539062 1.3994141ZM-1.5976562 1.4462891Q-1.5976562 0.54980469 -2.0371094 0.063476562Q-2.4765625 -0.42285156 -3.2617188 -0.42285156Q-4 -0.42285156 -4.4541016 0.0078125Q-4.9082031 0.43847656 -4.9082031 1.1943359Q-4.9082031 2.1494141 -4.4365234 2.7587891Q-3.9648438 3.3681641 -3.2265625 3.3681641Q-2.4648438 3.3681641 -2.03125 2.8554688Q-1.5976562 2.3427734 -1.5976562 1.4462891Z"/>
	</g>
	<clipPath id="cl_4cf">
		<rect width="49.75" height="800"/>
	</clipPath>
	<g clip-path="url(#cl_4cf)">
		<path fill="#666" transform="translate(38.75 274.6)" d="M-0.6015625 -3.2998047Q-1.8671875 -1.3662109 -2.3886719 -0.27050781Q-2.9101562 0.82519531 -3.1708984 1.8916016Q-3.4316406 2.9580078 -3.4316406 4.1005859L-4.5332031 4.1005859Q-4.5332031 2.5185547 -3.8623047 0.76953125Q-3.1914062 -0.97949219 -1.6210938 -3.2587891L-6.0566406 -3.2587891L-6.0566406 -4.1552734L-0.6015625 -4.1552734L-0.6015625 -3.2998047Z"/>
	</g>
	<clipPath id="cl_4d0">
		<rect width="49.75" height="800"/>
	</clipPath>
	<g clip-path="url(#cl_4d0)">
		<path fill="#666" transform="translate(38.75 206.8)" d="M-0.51953125 1.7978516Q-0.51953125 2.9404297 -1.2460938 3.5791016Q-1.9726562 4.2177734 -3.3320312 4.2177734Q-4.65625 4.2177734 -5.4033203 3.5908203Q-6.1503906 2.9638672 -6.1503906 1.8095703Q-6.1503906 1.0009766 -5.6875 0.45019531Q-5.2246094 -0.10058594 -4.5039062 -0.21777344L-4.5039062 -0.24121094Q-5.1777344 -0.39941406 -5.5673828 -0.92675781Q-5.9570312 -1.4541016 -5.9570312 -2.1630859Q-5.9570312 -3.1064453 -5.2509766 -3.6923828Q-4.5449219 -4.2783203 -3.3554688 -4.2783203Q-2.1367188 -4.2783203 -1.4306641 -3.7041016Q-0.72460938 -3.1298828 -0.72460938 -2.1513672Q-0.72460938 -1.4423828 -1.1171875 -0.91503906Q-1.5097656 -0.38769531 -2.1894531 -0.25292969L-2.1894531 -0.22949219Q-1.3984375 -0.10058594 -0.95898438 0.44140625Q-0.51953125 0.98339844 -0.51953125 1.7978516ZM-1.8203125 -2.0927734Q-1.8203125 -3.4931641 -3.3554688 -3.4931641Q-4.0996094 -3.4931641 -4.4892578 -3.1416016Q-4.8789062 -2.7900391 -4.8789062 -2.0927734Q-4.8789062 -1.3837891 -4.4775391 -1.0117188Q-4.0761719 -0.63964844 -3.34375 -0.63964844Q-2.5996094 -0.63964844 -2.2099609 -0.98242188Q-1.8203125 -1.3251953 -1.8203125 -2.0927734ZM-1.6152344 1.6982422Q-1.6152344 0.93066406 -2.0722656 0.54101562Q-2.5292969 0.15136719 -3.3554688 0.15136719Q-4.1582031 0.15136719 -4.609375 0.5703125Q-5.0605469 0.98925781 -5.0605469 1.7216797Q-5.0605469 3.4267578 -3.3203125 3.4267578Q-2.4589844 3.4267578 -2.0371094 3.0136719Q-1.6152344 2.6005859 -1.6152344 1.6982422Z"/>
	</g>
	<clipPath id="cl_4d1">
		<rect width="49.75" height="800"/>
	</clipPath>
	<g clip-path="url(#cl_4d1)">
		<path fill="#666" transform="translate(38.75 139)" d="M-0.56640625 -0.19433594Q-0.56640625 1.9326172 -1.3427734 3.0751953Q-2.1191406 4.2177734 -3.5546875 4.2177734Q-4.5214844 4.2177734 -5.1044922 3.8105469Q-5.6875 3.4033203 -5.9394531 2.4951172L-4.9316406 2.3369141Q-4.6152344 3.3681641 -3.5371094 3.3681641Q-2.6289062 3.3681641 -2.1308594 2.5244141Q-1.6328125 1.6806641 -1.609375 0.11621094Q-1.84375 0.64355469 -2.4121094 0.96289062Q-2.9804688 1.2822266 -3.6601562 1.2822266Q-4.7734375 1.2822266 -5.4414062 0.52050781Q-6.109375 -0.24121094 -6.109375 -1.5009766Q-6.109375 -2.7958984 -5.3828125 -3.5371094Q-4.65625 -4.2783203 -3.3613281 -4.2783203Q-1.984375 -4.2783203 -1.2753906 -3.2587891Q-0.56640625 -2.2392578 -0.56640625 -0.19433594ZM-1.7148438 -1.2138672Q-1.7148438 -2.2099609 -2.171875 -2.8164062Q-2.6289062 -3.4228516 -3.3964844 -3.4228516Q-4.1582031 -3.4228516 -4.5976562 -2.9042969Q-5.0371094 -2.3857422 -5.0371094 -1.5009766Q-5.0371094 -0.59863281 -4.5976562 -0.07421875Q-4.1582031 0.45019531 -3.4082031 0.45019531Q-2.9511719 0.45019531 -2.5585938 0.2421875Q-2.1660156 0.034179688 -1.9404297 -0.34667969Q-1.7148438 -0.72753906 -1.7148438 -1.2138672Z"/>
	</g>
	<clipPath id="cl_4d2">
		<rect width="49.75" height="800"/>
	</clipPath>
	<g clip-path="url(#cl_4d2)">
		<path fill="#666" transform="translate(38.75 71.2)" d="M-12.429688 4.1005859L-12.429688 3.2041016L-10.326172 3.2041016L-10.326172 -3.1474609L-12.189453 -1.8173828L-12.189453 -2.8134766L-10.238281 -4.1552734L-9.265625 -4.1552734L-9.265625 3.2041016L-7.2558594 3.2041016L-7.2558594 4.1005859L-12.429688 4.1005859ZM-0.46484375 -0.030273438Q-0.46484375 2.0380859 -1.1943359 3.1279297Q-1.9238281 4.2177734 -3.3476562 4.2177734Q-4.7714844 4.2177734 -5.4863281 3.1337891Q-6.2011719 2.0498047 -6.2011719 -0.030273438Q-6.2011719 -2.1572266 -5.5068359 -3.2177734Q-4.8125 -4.2783203 -3.3125 -4.2783203Q-1.8535156 -4.2783203 -1.1591797 -3.2060547Q-0.46484375 -2.1337891 -0.46484375 -0.030273438ZM-1.5371094 -0.030273438Q-1.5371094 -1.8173828 -1.9501953 -2.6201172Q-2.3632812 -3.4228516 -3.3125 -3.4228516Q-4.2851562 -3.4228516 -4.7099609 -2.6318359Q-5.1347656 -1.8408203 -5.1347656 -0.030273438Q-5.1347656 1.7275391 -4.7041016 2.5419922Q-4.2734375 3.3564453 -3.3359375 3.3564453Q-2.4042969 3.3564453 -1.9707031 2.5244141Q-1.5371094 1.6923828 -1.5371094 -0.030273438Z"/>
	</g>
	<clipPath id="cl_4d4">
		<rect x="43.75" y="65.199997" width="1156.25" height="690"/>
	</clipPath>
	<g clip-path="url(#cl_4d4)">
		<path fill="none" stroke="#C32222" stroke-width="2" stroke-miterlimit="10" d=""/>
	</g>
	<clipPath id="cl_4d5">
		<rect x="43.75" y="65.199997" width="1156.25" height="690"/>
	</clipPath>
	<g clip-path="url(#cl_4d5)">
		<path fill="#C32222" fill-opacity="0.2" d="M52.75 681.40002Q52.75 681.54742 52.73555 681.69409Q52.721107 681.84076 52.692352 681.98529Q52.663601 682.12988 52.620815 682.27087Q52.578033 682.41187 52.521633 682.54803Q52.465233 682.68427 52.39576 682.81427Q52.326286 682.94421 52.244404 683.06671Q52.162525 683.18927 52.069027 683.30316Q51.975533 683.41711 51.871319 683.5213Q51.767105 683.62555 51.653179 683.71906Q51.539253 683.81256 51.416706 683.89441Q51.294167 683.97632 51.164188 684.04578Q51.03421 684.11523 50.898048 684.17163Q50.76189 684.22803 50.620857 684.27087Q50.47982 684.3136 50.33527 684.34235Q50.19072 684.37115 50.044052 684.38562Q49.897381 684.40002 49.75 684.40002Q49.602619 684.40002 49.455948 684.38562Q49.309277 684.37115 49.164726 684.34235Q49.02018 684.3136 48.879143 684.27087Q48.73811 684.22803 48.601944 684.17163Q48.465782 684.11523 48.335808 684.04578Q48.205826 683.97632 48.083282 683.89435Q47.960747 683.8125 47.846817 683.71899Q47.732895 683.62555 47.628677 683.5213Q47.524467 683.41711 47.430969 683.30322Q47.337471 683.18927 47.255585 683.06671Q47.173706 682.94421 47.104233 682.81421Q47.03476 682.68427 46.978359 682.54803Q46.921963 682.41187 46.879177 682.27087Q46.836395 682.12988 46.80764 681.98529Q46.778893 681.84076 46.76445 681.69409Q46.75 681.54742 46.75 681.40002Q46.75 681.25269 46.76445 681.10596Q46.778896 680.95923 46.807648 680.8147Q46.836403 680.67017 46.879181 680.52917Q46.921963 680.38812 46.978359 680.25195Q47.03476 680.11584 47.104233 679.98584Q47.173706 679.85583 47.255585 679.73328Q47.337471 679.61072 47.430969 679.49683Q47.524467 679.38293 47.628677 679.27869Q47.732895 679.1745 47.846817 679.08099Q47.960747 678.98749 48.083282 678.90558Q48.205826 678.82373 48.335808 678.75427Q48.465782 678.68481 48.601944 678.62836Q48.73811 678.57202 48.879143 678.52917Q49.02018 678.48645 49.164726 678.45764Q49.309277 678.42896 49.455948 678.41449Q49.602619 678.40002 49.75 678.40002Q49.897381 678.40002 50.044052 678.41449Q50.19072 678.42896 50.335266 678.45764Q50.479816 678.48645 50.620853 678.52917Q50.761887 678.57202 50.898045 678.62836Q51.03421 678.68481 51.164188 678.75427Q51.294167 678.82373 51.416706 678.90558Q51.539253 678.98749 51.653179 679.08099Q51.767105 679.1745 51.871315 679.27869Q51.975533 679.38293 52.069023 679.49683Q52.162521 679.61072 52.2444 679.73328Q52.326279 679.85583 52.395756 679.98584Q52.465233 680.11584 52.521633 680.25195Q52.578033 680.38812 52.620815 680.52911Q52.663597 680.67017 52.692348 680.8147Q52.721107 680.95923 52.73555 681.10596Q52.75 681.25269 52.75 681.40002Z"/>
		<path fill="none" stroke="#C32222" stroke-width="2" stroke-miterlimit="10" d="M52.75 681.40002Q52.75 681.54742 52.73555 681.69409Q52.721107 681.84076 52.692352 681.98529Q52.663601 682.12988 52.620815 682.27087Q52.578033 682.41187 52.521633 682.54803Q52.465233 682.68427 52.39576 682.81427Q52.326286 682.94421 52.244404 683.06671Q52.162525 683.18927 52.069027 683.30316Q51.975533 683.41711 51.871319 683.5213Q51.767105 683.62555 51.653179 683.71906Q51.539253 683.81256 51.416706 683.89441Q51.294167 683.97632 51.164188 684.04578Q51.03421 684.11523 50.898048 684.17163Q50.76189 684.22803 50.620857 684.27087Q50.47982 684.3136 50.33527 684.34235Q50.19072 684.37115 50.044052 684.38562Q49.897381 684.40002 49.75 684.40002Q49.602619 684.40002 49.455948 684.38562Q49.309277 684.37115 49.164726 684.34235Q49.02018 684.3136 48.879143 684.27087Q48.73811 684.22803 48.601944 684.17163Q48.465782 684.11523 48.335808 684.04578Q48.205826 683.97632 48.083282 683.89435Q47.960747 683.8125 47.846817 683.71899Q47.732895 683.62555 47.628677 683.5213Q47.524467 683.41711 47.430969 683.30322Q47.337471 683.18927 47.255585 683.06671Q47.173706 682.94421 47.104233 682.81421Q47.03476 682.68427 46.978359 682.54803Q46.921963 682.41187 46.879177 682.27087Q46.836395 682.12988 46.80764 681.98529Q46.778893 681.84076 46.76445 681.69409Q46.75 681.54742 46.75 681.40002Q46.75 681.25269 46.76445 681.10596Q46.778896 680.95923 46.807648 680.8147Q46.836403 680.67017 46.879181 680.52917Q46.921963 680.38812 46.978359 680.25195Q47.03476 680.11584 47.104233 679.98584Q47.173706 679.85583 47.255585 679.73328Q47.337471 679.61072 47.430969 679.49683Q47.524467 679.38293 47.628677 679.27869Q47.732895 679.1745 47.846817 679.08099Q47.960747 678.98749 48.083282 678.90558Q48.205826 678.82373 48.335808 678.75427Q48.465782 678.68481 48.601944 678.62836Q48.73811 678.57202 48.879143 678.52917Q49.02018 678.48645 49.164726 678.45764Q49.309277 678.42896 49.455948 678.41449Q49.602619 678.40002 49.75 678.40002Q49.897381 678.40002 50.044052 678.41449Q50.19072 678.42896 50.335266 678.45764Q50.479816 678.48645 50.620853 678.52917Q50.761887 678.57202 50.898045 678.62836Q51.03421 678.68481 51.164188 678.75427Q51.294167 678.82373 51.416706 678.90558Q51.539253 678.98749 51.653179 679.08099Q51.767105 679.1745 51.871315 679.27869Q51.975533 679.38293 52.069023 679.49683Q52.162521 679.61072 52.2444 679.73328Q52.326279 679.85583 52.395756 679.98584Q52.465233 680.11584 52.521633 680.25195Q52.578033 680.38812 52.620815 680.52911Q52.663597 680.67017 52.692348 680.8147Q52.721107 680.95923 52.73555 681.10596Q52.75 681.25269 52.75 681.40002Z"/>
	</g>
</svg>
