<?xml version="1.0" encoding="utf-8" ?>
<svg xmlns="http://www.w3.org/2000/svg" xmlns:xlink="http://www.w3.org/1999/xlink" width="1200" height="800">
	<rect fill="white" width="1200" height="800"/>
	<path fill="none" stroke="black" stroke-width="1" stroke-miterlimit="10" stroke-opacity="0.10196079" d="M49.5 71.199997L49.5 749"/>
	<path fill="none" stroke="black" stroke-width="1" stroke-miterlimit="10" stroke-opacity="0.10196079" d="M49.5 750L49.5 757.20001"/>
	<path fill="#666" transform="translate(621.875 788.8)" d="M-26.550781 4.1005859L-28.695312 0.67285156L-31.267578 0.67285156L-31.267578 4.1005859L-32.386719 4.1005859L-32.386719 -4.1552734L-28.501953 -4.1552734Q-27.107422 -4.1552734 -26.348633 -3.53125Q-25.589844 -2.9072266 -25.589844 -1.7939453Q-25.589844 -0.87402344 -26.125977 -0.24707031Q-26.662109 0.37988281 -27.605469 0.54394531L-25.261719 4.1005859L-26.550781 4.1005859ZM-26.714844 -1.7822266Q-26.714844 -2.5029297 -27.204102 -2.8808594Q-27.693359 -3.2587891 -28.613281 -3.2587891L-31.267578 -3.2587891L-31.267578 -0.21191406L-28.566406 -0.21191406Q-27.681641 -0.21191406 -27.198242 -0.625Q-26.714844 -1.0380859 -26.714844 -1.7822266ZM-23.087891 1.1533203Q-23.087891 2.2431641 -22.636719 2.8349609Q-22.185547 3.4267578 -21.318359 3.4267578Q-20.632812 3.4267578 -20.219727 3.1513672Q-19.806641 2.8759766 -19.660156 2.4541016L-18.734375 2.7177734Q-19.302734 4.2177734 -21.318359 4.2177734Q-22.724609 4.2177734 -23.459961 3.3798828Q-24.195312 2.5419922 -24.195312 0.88964844Q-24.195312 -0.68066406 -23.459961 -1.5185547Q-22.724609 -2.3564453 -21.359375 -2.3564453Q-18.564453 -2.3564453 -18.564453 1.0126953L-18.564453 1.1533203L-23.087891 1.1533203ZM-19.654297 0.34472656Q-19.742188 -0.65722656 -20.164062 -1.1171875Q-20.585938 -1.5771484 -21.376953 -1.5771484Q-22.144531 -1.5771484 -22.592773 -1.0644531Q-23.041016 -0.55175781 -23.076172 0.34472656L-19.654297 0.34472656ZM-17.222656 4.1005859L-17.222656 -4.5947266L-16.167969 -4.5947266L-16.167969 4.1005859L-17.222656 4.1005859ZM-13.748047 1.1533203Q-13.748047 2.2431641 -13.296875 2.8349609Q-12.845703 3.4267578 -11.978516 3.4267578Q-11.292969 3.4267578 -10.879883 3.1513672Q-10.466797 2.8759766 -10.320312 2.4541016L-9.3945312 2.7177734Q-9.9628906 4.2177734 -11.978516 4.2177734Q-13.384766 4.2177734 -14.120117 3.3798828Q-14.855469 2.5419922 -14.855469 0.88964844Q-14.855469 -0.68066406 -14.120117 -1.5185547Q-13.384766 -2.3564453 -12.019531 -2.3564453Q-9.2246094 -2.3564453 -9.2246094 1.0126953L-9.2246094 1.1533203L-13.748047 1.1533203ZM-10.314453 0.34472656Q-10.402344 -0.65722656 -10.824219 -1.1171875Q-11.246094 -1.5771484 -12.037109 -1.5771484Q-12.804688 -1.5771484 -13.25293 -1.0644531Q-13.701172 -0.55175781 -13.736328 0.34472656L-10.314453 0.34472656ZM-6.265625 4.2177734Q-7.2207031 4.2177734 -7.7011719 3.7138672Q-8.1816406 3.2099609 -8.1816406 2.3310547Q-8.1816406 1.3466797 -7.5341797 0.81933594Q-6.8867188 0.29199219 -5.4453125 0.25683594L-4.0214844 0.23339844L-4.0214844 -0.11230469Q-4.0214844 -0.88574219 -4.3496094 -1.2197266Q-4.6777344 -1.5537109 -5.3808594 -1.5537109Q-6.0898438 -1.5537109 -6.4121094 -1.3134766Q-6.734375 -1.0732422 -6.7988281 -0.54589844L-7.9003906 -0.64550781Q-7.6308594 -2.3564453 -5.3574219 -2.3564453Q-4.1621094 -2.3564453 -3.5585938 -1.8085938Q-2.9550781 -1.2607422 -2.9550781 -0.22363281L-2.9550781 2.5068359Q-2.9550781 2.9755859 -2.8320312 3.2128906Q-2.7089844 3.4501953 -2.3632812 3.4501953Q-2.2109375 3.4501953 -2.0175781 3.4091797L-2.0175781 4.0654297Q-2.4160156 4.1591797 -2.8320312 4.1591797Q-3.4179688 4.1591797 -3.6845703 3.8515625Q-3.9511719 3.5439453 -3.9863281 2.8876953L-4.0214844 2.8876953Q-4.4257812 3.6142578 -4.9619141 3.9160156Q-5.4980469 4.2177734 -6.265625 4.2177734ZM-6.0253906 3.4267578Q-5.4453125 3.4267578 -4.9941406 3.1630859Q-4.5429688 2.8994141 -4.2822266 2.4394531Q-4.0214844 1.9794922 -4.0214844 1.4931641L-4.0214844 0.97167969L-5.1757812 0.99511719Q-5.9199219 1.0068359 -6.3037109 1.1474609Q-6.6875 1.2880859 -6.8925781 1.5810547Q-7.0976562 1.8740234 -7.0976562 2.3486328Q-7.0976562 2.8642578 -6.8193359 3.1455078Q-6.5410156 3.4267578 -6.0253906 3.4267578ZM3.5488281 2.3486328Q3.5488281 3.2451172 2.8720703 3.7314453Q2.1953125 4.2177734 0.9765625 4.2177734Q-0.20703125 4.2177734 -0.84863281 3.828125Q-1.4902344 3.4384766 -1.6835938 2.6123047L-0.75195312 2.4306641Q-0.6171875 2.9404297 -0.1953125 3.1777344Q0.2265625 3.4150391 0.9765625 3.4150391Q1.7792969 3.4150391 2.1513672 3.1689453Q2.5234375 2.9228516 2.5234375 2.4306641Q2.5234375 2.0556641 2.265625 1.8212891Q2.0078125 1.5869141 1.4335938 1.4345703L0.67773438 1.2353516Q-0.23046875 1.0009766 -0.61425781 0.77539062Q-0.99804688 0.54980469 -1.2148438 0.22753906Q-1.4316406 -0.094726562 -1.4316406 -0.56347656Q-1.4316406 -1.4306641 -0.81347656 -1.8847656Q-0.1953125 -2.3388672 0.98828125 -2.3388672Q2.0371094 -2.3388672 2.6552734 -1.9697266Q3.2734375 -1.6005859 3.4375 -0.78613281L2.4882812 -0.66894531Q2.4003906 -1.0908203 2.0166016 -1.3164062Q1.6328125 -1.5419922 0.98828125 -1.5419922Q0.2734375 -1.5419922 -0.06640625 -1.3251953Q-0.40625 -1.1083984 -0.40625 -0.66894531Q-0.40625 -0.39941406 -0.265625 -0.22363281Q-0.125 -0.047851562 0.15039062 0.075195312Q0.42578125 0.19824219 1.3105469 0.41503906Q2.1484375 0.62597656 2.5175781 0.8046875Q2.8867188 0.98339844 3.1005859 1.2001953Q3.3144531 1.4169922 3.4316406 1.7011719Q3.5488281 1.9853516 3.5488281 2.3486328ZM5.5996094 1.1533203Q5.5996094 2.2431641 6.0507812 2.8349609Q6.5019531 3.4267578 7.3691406 3.4267578Q8.0546875 3.4267578 8.4677734 3.1513672Q8.8808594 2.8759766 9.0273438 2.4541016L9.953125 2.7177734Q9.3847656 4.2177734 7.3691406 4.2177734Q5.9628906 4.2177734 5.2275391 3.3798828Q4.4921875 2.5419922 4.4921875 0.88964844Q4.4921875 -0.68066406 5.2275391 -1.5185547Q5.9628906 -2.3564453 7.328125 -2.3564453Q10.123047 -2.3564453 10.123047 1.0126953L10.123047 1.1533203L5.5996094 1.1533203ZM9.0332031 0.34472656Q8.9453125 -0.65722656 8.5234375 -1.1171875Q8.1015625 -1.5771484 7.3105469 -1.5771484Q6.5429688 -1.5771484 6.0947266 -1.0644531Q5.6464844 -0.55175781 5.6113281 0.34472656L9.0332031 0.34472656ZM17.992188 -3.2412109L17.992188 4.1005859L16.878906 4.1005859L16.878906 -3.2412109L14.042969 -3.2412109L14.042969 -4.1552734L20.828125 -4.1552734L20.828125 -3.2412109L17.992188 -3.2412109ZM22.199219 4.2177734Q21.244141 4.2177734 20.763672 3.7138672Q20.283203 3.2099609 20.283203 2.3310547Q20.283203 1.3466797 20.930664 0.81933594Q21.578125 0.29199219 23.019531 0.25683594L24.443359 0.23339844L24.443359 -0.11230469Q24.443359 -0.88574219 24.115234 -1.2197266Q23.787109 -1.5537109 23.083984 -1.5537109Q22.375 -1.5537109 22.052734 -1.3134766Q21.730469 -1.0732422 21.666016 -0.54589844L20.564453 -0.64550781Q20.833984 -2.3564453 23.107422 -2.3564453Q24.302734 -2.3564453 24.90625 -1.8085938Q25.509766 -1.2607422 25.509766 -0.22363281L25.509766 2.5068359Q25.509766 2.9755859 25.632812 3.2128906Q25.755859 3.4501953 26.101562 3.4501953Q26.253906 3.4501953 26.447266 3.4091797L26.447266 4.0654297Q26.048828 4.1591797 25.632812 4.1591797Q25.046875 4.1591797 24.780273 3.8515625Q24.513672 3.5439453 24.478516 2.8876953L24.443359 2.8876953Q24.039062 3.6142578 23.50293 3.9160156Q22.966797 4.2177734 22.199219 4.2177734ZM22.439453 3.4267578Q23.019531 3.4267578 23.470703 3.1630859Q23.921875 2.8994141 24.182617 2.4394531Q24.443359 1.9794922 24.443359 1.4931641L24.443359 0.97167969L23.289062 0.99511719Q22.544922 1.0068359 22.161133 1.1474609Q21.777344 1.2880859 21.572266 1.5810547Q21.367188 1.8740234 21.367188 2.3486328Q21.367188 2.8642578 21.645508 3.1455078Q21.923828 3.4267578 22.439453 3.4267578ZM29.658203 6.5908203Q28.621094 6.5908203 28.005859 6.1835938Q27.390625 5.7763672 27.214844 5.0263672L28.275391 4.8740234Q28.380859 5.3134766 28.741211 5.5507812Q29.101562 5.7880859 29.6875 5.7880859Q31.263672 5.7880859 31.263672 3.9423828L31.263672 2.9228516L31.251953 2.9228516Q30.953125 3.5322266 30.431641 3.8398438Q29.910156 4.1474609 29.212891 4.1474609Q28.046875 4.1474609 27.499023 3.3740234Q26.951172 2.6005859 26.951172 0.94238281Q26.951172 -0.73925781 27.540039 -1.5390625Q28.128906 -2.3388672 29.330078 -2.3388672Q30.003906 -2.3388672 30.499023 -2.03125Q30.994141 -1.7236328 31.263672 -1.1552734L31.275391 -1.1552734Q31.275391 -1.3310547 31.298828 -1.7646484Q31.322266 -2.1982422 31.345703 -2.2392578L32.347656 -2.2392578Q32.3125 -1.9228516 32.3125 -0.92675781L32.3125 3.9189453Q32.3125 6.5908203 29.658203 6.5908203ZM31.263672 0.93066406Q31.263672 0.15722656 31.052734 -0.40234375Q30.841797 -0.96191406 30.458008 -1.2578125Q30.074219 -1.5537109 29.587891 -1.5537109Q28.779297 -1.5537109 28.410156 -0.96777344Q28.041016 -0.38183594 28.041016 0.93066406Q28.041016 2.2314453 28.386719 2.7998047Q28.732422 3.3681641 29.570312 3.3681641Q30.068359 3.3681641 30.455078 3.0751953Q30.841797 2.7822266 31.052734 2.234375Q31.263672 1.6865234 31.263672 0.93066406Z"/>
	<path fill="none" stroke="black" stroke-width="1" stroke-miterlimit="10" stroke-opacity="0.10196079" d="M50 749.5L1194 749.5"/>
	<path fill="none" stroke="black" stroke-width="1" stroke-miterlimit="10" stroke-opacity="0.10196079" d="M41.75 749.5L49 749.5"/>
	<path fill="none" stroke="black" stroke-width="1" stroke-miterlimit="10" stroke-opacity="0.10196079" d="M50 681.5L1194 681.5"/>
	<path fill="none" stroke="black" stroke-width="1" stroke-miterlimit="10" stroke-opacity="0.10196079" d="M41.75 681.5L49 681.5"/>
	<path fill="none" stroke="black" stroke-width="1" stroke-miterlimit="10" stroke-opacity="0.10196079" d="M50 613.5L1194 613.5"/>
	<path fill="none" stroke="black" stroke-width="1" stroke-miterlimit="10" stroke-opacity="0.10196079" d="M41.75 613.5L49 613.5"/>
	<path fill="none" stroke="black" stroke-width="1" stroke-miterlimit="10" stroke-opacity="0.10196079" d="M50 545.5L1194 545.5"/>
	<path fill="none" stroke="black" stroke-width="1" stroke-miterlimit="10" stroke-opacity="0.10196079" d="M41.75 545.5L49 545.5"/>
	<path fill="none" stroke="black" stroke-width="1" stroke-miterlimit="10" stroke-opacity="0.10196079" d="M50 478.5L1194 478.5"/>
	<path fill="none" stroke="black" stroke-width="1" stroke-miterlimit="10" stroke-opacity="0.10196079" d="M41.75 478.5L49 478.5"/>
	<path fill="none" stroke="black" stroke-width="1" stroke-miterlimit="10" stroke-opacity="0.10196079" d="M50 410.5L1194 410.5"/>
	<path fill="none" stroke="black" stroke-width="1" stroke-miterlimit="10" stroke-opacity="0.10196079" d="M41.75 410.5L49 410.5"/>
	<path fill="none" stroke="black" stroke-width="1" stroke-miterlimit="10" stroke-opacity="0.10196079" d="M50 342.5L1194 342.5"/>
	<path fill="none" stroke="black" stroke-width="1" stroke-miterlimit="10" stroke-opacity="0.10196079" d="M41.75 342.5L49 342.5"/>
	<path fill="none" stroke="black" stroke-width="1" stroke-miterlimit="10" stroke-opacity="0.10196079" d="M50 274.5L1194 274.5"/>
	<path fill="none" stroke="black" stroke-width="1" stroke-miterlimit="10" stroke-opacity="0.10196079" d="M41.75 274.5L49 274.5"/>
	<path fill="none" stroke="black" stroke-width="1" stroke-miterlimit="10" stroke-opacity="0.10196079" d="M50 206.5L1194 206.5"/>
	<path fill="none" stroke="black" stroke-width="1" stroke-miterlimit="10" stroke-opacity="0.10196079" d="M41.75 206.5L49 206.5"/>
	<path fill="none" stroke="black" stroke-width="1" stroke-miterlimit="10" stroke-opacity="0.10196079" d="M50 139.5L1194 139.5"/>
	<path fill="none" stroke="black" stroke-width="1" stroke-miterlimit="10" stroke-opacity="0.10196079" d="M41.75 139.5L49 139.5"/>
	<path fill="none" stroke="black" stroke-width="1" stroke-miterlimit="10" stroke-opacity="0.10196079" d="M50 71.5L1194 71.5"/>
	<path fill="none" stroke="black" stroke-width="1" stroke-miterlimit="10" stroke-opacity="0.10196079" d="M41.75 71.5L49 71.5"/>
	<path fill="#666" transform="matrix(0 -1 1 0 11.2 410.2)" d="M-21.591797 -0.11230469Q-21.591797 1.1650391 -22.089844 2.1230469Q-22.587891 3.0810547 -23.501953 3.5908203Q-24.416016 4.1005859 -25.611328 4.1005859L-28.699219 4.1005859L-28.699219 -4.1552734L-25.96875 -4.1552734Q-23.871094 -4.1552734 -22.731445 -3.1035156Q-21.591797 -2.0517578 -21.591797 -0.11230469ZM-22.716797 -0.11230469Q-22.716797 -1.6474609 -23.557617 -2.453125Q-24.398438 -3.2587891 -25.992188 -3.2587891L-27.580078 -3.2587891L-27.580078 3.2041016L-25.740234 3.2041016Q-24.832031 3.2041016 -24.143555 2.8056641Q-23.455078 2.4072266 -23.085938 1.6572266Q-22.716797 0.90722656 -22.716797 -0.11230469ZM-14.847656 0.92480469Q-14.847656 2.5888672 -15.580078 3.4033203Q-16.3125 4.2177734 -17.707031 4.2177734Q-19.095703 4.2177734 -19.804688 3.3710938Q-20.513672 2.5244141 -20.513672 0.92480469Q-20.513672 -2.3564453 -17.671875 -2.3564453Q-16.21875 -2.3564453 -15.533203 -1.5566406Q-14.847656 -0.75683594 -14.847656 0.92480469ZM-15.955078 0.92480469Q-15.955078 -0.38769531 -16.344727 -0.98242188Q-16.734375 -1.5771484 -17.654297 -1.5771484Q-18.580078 -1.5771484 -18.993164 -0.97070312Q-19.40625 -0.36425781 -19.40625 0.92480469Q-19.40625 2.1787109 -18.999023 2.8085938Q-18.591797 3.4384766 -17.71875 3.4384766Q-16.769531 3.4384766 -16.362305 2.8291016Q-15.955078 2.2197266 -15.955078 0.92480469ZM-7.4648438 4.1005859L-8.6894531 4.1005859L-9.796875 -0.38183594L-10.007812 -1.3720703Q-10.060547 -1.1083984 -10.171875 -0.61328125Q-10.283203 -0.11816406 -11.367188 4.1005859L-12.585938 4.1005859L-14.361328 -2.2392578L-13.318359 -2.2392578L-12.246094 2.0673828Q-12.205078 2.2080078 -11.994141 3.2275391L-11.894531 2.7939453L-10.570312 -2.2392578L-9.4394531 -2.2392578L-8.3320312 2.1142578L-8.0625 3.2275391L-7.8808594 2.4130859L-6.6796875 -2.2392578L-5.6484375 -2.2392578L-7.4648438 4.1005859ZM-0.84375 4.1005859L-0.84375 0.081054688Q-0.84375 -0.54589844 -0.96679688 -0.89160156Q-1.0898438 -1.2373047 -1.359375 -1.3896484Q-1.6289062 -1.5419922 -2.1503906 -1.5419922Q-2.9121094 -1.5419922 -3.3515625 -1.0205078Q-3.7910156 -0.49902344 -3.7910156 0.42675781L-3.7910156 4.1005859L-4.8457031 4.1005859L-4.8457031 -0.88574219Q-4.8457031 -1.9931641 -4.8808594 -2.2392578L-3.8847656 -2.2392578Q-3.8789062 -2.2099609 -3.8730469 -2.0810547Q-3.8671875 -1.9521484 -3.8583984 -1.7851562Q-3.8496094 -1.6181641 -3.8378906 -1.1552734L-3.8203125 -1.1552734Q-3.4570312 -1.8115234 -2.9794922 -2.0839844Q-2.5019531 -2.3564453 -1.7929688 -2.3564453Q-0.75 -2.3564453 -0.26660156 -1.8378906Q0.21679688 -1.3193359 0.21679688 -0.12402344L0.21679688 4.1005859L-0.84375 4.1005859ZM1.8046875 4.1005859L1.8046875 -4.5947266L2.859375 -4.5947266L2.859375 4.1005859L1.8046875 4.1005859ZM9.8320312 0.92480469Q9.8320312 2.5888672 9.0996094 3.4033203Q8.3671875 4.2177734 6.9726562 4.2177734Q5.5839844 4.2177734 4.875 3.3710938Q4.1660156 2.5244141 4.1660156 0.92480469Q4.1660156 -2.3564453 7.0078125 -2.3564453Q8.4609375 -2.3564453 9.1464844 -1.5566406Q9.8320312 -0.75683594 9.8320312 0.92480469ZM8.7246094 0.92480469Q8.7246094 -0.38769531 8.3349609 -0.98242188Q7.9453125 -1.5771484 7.0253906 -1.5771484Q6.0996094 -1.5771484 5.6865234 -0.97070312Q5.2734375 -0.36425781 5.2734375 0.92480469Q5.2734375 2.1787109 5.6806641 2.8085938Q6.0878906 3.4384766 6.9609375 3.4384766Q7.9101562 3.4384766 8.3173828 2.8291016Q8.7246094 2.2197266 8.7246094 0.92480469ZM12.761719 4.2177734Q11.806641 4.2177734 11.326172 3.7138672Q10.845703 3.2099609 10.845703 2.3310547Q10.845703 1.3466797 11.493164 0.81933594Q12.140625 0.29199219 13.582031 0.25683594L15.005859 0.23339844L15.005859 -0.11230469Q15.005859 -0.88574219 14.677734 -1.2197266Q14.349609 -1.5537109 13.646484 -1.5537109Q12.9375 -1.5537109 12.615234 -1.3134766Q12.292969 -1.0732422 12.228516 -0.54589844L11.126953 -0.64550781Q11.396484 -2.3564453 13.669922 -2.3564453Q14.865234 -2.3564453 15.46875 -1.8085938Q16.072266 -1.2607422 16.072266 -0.22363281L16.072266 2.5068359Q16.072266 2.9755859 16.195312 3.2128906Q16.318359 3.4501953 16.664062 3.4501953Q16.816406 3.4501953 17.009766 3.4091797L17.009766 4.0654297Q16.611328 4.1591797 16.195312 4.1591797Q15.609375 4.1591797 15.342773 3.8515625Q15.076172 3.5439453 15.041016 2.8876953L15.005859 2.8876953Q14.601562 3.6142578 14.06543 3.9160156Q13.529297 4.2177734 12.761719 4.2177734ZM13.001953 3.4267578Q13.582031 3.4267578 14.033203 3.1630859Q14.484375 2.8994141 14.745117 2.4394531Q15.005859 1.9794922 15.005859 1.4931641L15.005859 0.97167969L13.851562 0.99511719Q13.107422 1.0068359 12.723633 1.1474609Q12.339844 1.2880859 12.134766 1.5810547Q11.929688 1.8740234 11.929688 2.3486328Q11.929688 2.8642578 12.208008 3.1455078Q12.486328 3.4267578 13.001953 3.4267578ZM21.820312 3.0810547Q21.527344 3.6904297 21.043945 3.9541016Q20.560547 4.2177734 19.845703 4.2177734Q18.644531 4.2177734 18.079102 3.4091797Q17.513672 2.6005859 17.513672 0.95996094Q17.513672 -2.3564453 19.845703 -2.3564453Q20.566406 -2.3564453 21.046875 -2.0927734Q21.527344 -1.8291016 21.820312 -1.2548828L21.832031 -1.2548828L21.820312 -1.9638672L21.820312 -4.5947266L22.875 -4.5947266L22.875 2.7939453Q22.875 3.7841797 22.910156 4.1005859L21.902344 4.1005859Q21.884766 4.0068359 21.864258 3.6669922Q21.84375 3.3271484 21.84375 3.0810547L21.820312 3.0810547ZM18.621094 0.92480469Q18.621094 2.2548828 18.972656 2.8291016Q19.324219 3.4033203 20.115234 3.4033203Q21.011719 3.4033203 21.416016 2.7822266Q21.820312 2.1611328 21.820312 0.85449219Q21.820312 -0.40527344 21.416016 -0.99121094Q21.011719 -1.5771484 20.126953 -1.5771484Q19.330078 -1.5771484 18.975586 -0.98828125Q18.621094 -0.39941406 18.621094 0.92480469ZM29.25 2.3486328Q29.25 3.2451172 28.573242 3.7314453Q27.896484 4.2177734 26.677734 4.2177734Q25.494141 4.2177734 24.852539 3.828125Q24.210938 3.4384766 24.017578 2.6123047L24.949219 2.4306641Q25.083984 2.9404297 25.505859 3.1777344Q25.927734 3.4150391 26.677734 3.4150391Q27.480469 3.4150391 27.852539 3.1689453Q28.224609 2.9228516 28.224609 2.4306641Q28.224609 2.0556641 27.966797 1.8212891Q27.708984 1.5869141 27.134766 1.4345703L26.378906 1.2353516Q25.470703 1.0009766 25.086914 0.77539062Q24.703125 0.54980469 24.486328 0.22753906Q24.269531 -0.094726562 24.269531 -0.56347656Q24.269531 -1.4306641 24.887695 -1.8847656Q25.505859 -2.3388672 26.689453 -2.3388672Q27.738281 -2.3388672 28.356445 -1.9697266Q28.974609 -1.6005859 29.138672 -0.78613281L28.189453 -0.66894531Q28.101562 -1.0908203 27.717773 -1.3164062Q27.333984 -1.5419922 26.689453 -1.5419922Q25.974609 -1.5419922 25.634766 -1.3251953Q25.294922 -1.1083984 25.294922 -0.66894531Q25.294922 -0.39941406 25.435547 -0.22363281Q25.576172 -0.047851562 25.851562 0.075195312Q26.126953 0.19824219 27.011719 0.41503906Q27.849609 0.62597656 28.21875 0.8046875Q28.587891 0.98339844 28.801758 1.2001953Q29.015625 1.4169922 29.132812 1.7011719Q29.25 1.9853516 29.25 2.3486328Z"/>
	<clipPath id="cl_161">
		<rect y="39.200001" width="1200" height="31.999996"/>
	</clipPath>
	<g clip-path="url(#cl_161)">
		<path fill="#C32222" fill-opacity="0.2" d="M569.33002 49.200001L609.33002 49.200001L609.33002 61.200001L569.33002 61.200001L569.33002 49.200001Z"/>
		<path fill="none" stroke="#C32222" stroke-width="2" stroke-miterlimit="10" d="M569.33002 49.200001L609.33002 49.200001L609.33002 61.200001L569.33002 61.200001L569.33002 49.200001Z"/>
	</g>
	<clipPath id="cl_162">
		<rect y="39.200001" width="1200" height="31.999996"/>
	</clipPath>
	<g clip-path="url(#cl_162)">
		<path fill="#666" d="M615.81635 59.300587L615.81635 58.497852L619.36127 53.775196L616.01556 53.775196L616.01556 52.960743L620.60931 52.960743L620.60931 53.763477L617.05853 58.486134L620.73236 58.486134L620.73236 59.300587L615.81635 59.300587ZM622.13275 51.613087L622.13275 50.605274L623.18744 50.605274L623.18744 51.613087L622.13275 51.613087ZM622.13275 59.300587L622.13275 52.960743L623.18744 52.960743L623.18744 59.300587L622.13275 59.300587ZM630.16595 56.101368Q630.16595 59.417774 627.83392 59.417774Q626.36908 59.417774 625.86517 58.316212L625.83588 58.316212Q625.85931 58.363087 625.85931 59.312305L625.85931 61.790821L624.80463 61.790821L624.80463 54.255665Q624.80463 53.277149 624.76947 52.960743L625.789 52.960743Q625.79486 52.98418 625.80658 53.127735Q625.8183 53.27129 625.83295 53.570118Q625.8476 53.868946 625.8476 53.980274L625.87103 53.980274Q626.15228 53.394337 626.61517 53.121876Q627.07806 52.849415 627.83392 52.849415Q629.0058 52.849415 629.58588 53.634571Q630.16595 54.419727 630.16595 56.101368ZM629.05853 56.124805Q629.05853 54.800587 628.70111 54.232227Q628.34369 53.663868 627.56439 53.663868Q626.93744 53.663868 626.58295 53.92754Q626.22845 54.191212 626.04388 54.750782Q625.85931 55.310352 625.85931 56.206837Q625.85931 57.454884 626.25775 58.04668Q626.65619 58.638477 627.55267 58.638477Q628.33783 58.638477 628.69818 58.061329Q629.05853 57.48418 629.05853 56.124805Z"/>
	</g>
	<path fill="#666" transform="translate(600 19.6)" d="M-326.76953 3.3320312Q-326.76953 4.5585938 -327.77344 5.2578125Q-328.77734 5.9570312 -330.55078 5.9570312Q-332.29297 5.9570312 -333.21875 5.40625Q-334.14453 4.8554688 -334.44922 3.6914062L-332.51953 3.4023438Q-332.35547 4.0039062 -331.95312 4.2539062Q-331.55078 4.5039062 -330.55078 4.5039062Q-329.62891 4.5039062 -329.20703 4.2695312Q-328.78516 4.0351562 -328.78516 3.5351562Q-328.78516 3.1289062 -329.125 2.890625Q-329.46484 2.6523438 -330.27734 2.4882812Q-332.13672 2.1210938 -332.78516 1.8046875Q-333.43359 1.4882812 -333.77344 0.984375Q-334.11328 0.48046875 -334.11328 -0.25390625Q-334.11328 -1.4648438 -333.17969 -2.140625Q-332.24609 -2.8164062 -330.53516 -2.8164062Q-329.02734 -2.8164062 -328.10938 -2.2304688Q-327.19141 -1.6445312 -326.96484 -0.53515625L-328.91016 -0.33203125Q-329.00391 -0.84765625 -329.37109 -1.1015625Q-329.73828 -1.3554688 -330.53516 -1.3554688Q-331.31641 -1.3554688 -331.70703 -1.15625Q-332.09766 -0.95703125 -332.09766 -0.48828125Q-332.09766 -0.12109375 -331.79688 0.09375Q-331.49609 0.30859375 -330.78516 0.44921875Q-329.79297 0.65234375 -329.02344 0.8671875Q-328.25391 1.0820312 -327.78906 1.3789062Q-327.32422 1.6757812 -327.04688 2.140625Q-326.76953 2.6054688 -326.76953 3.3320312ZM-323.04297 5.9570312Q-324.26953 5.9570312 -324.95703 5.2890625Q-325.64453 4.6210938 -325.64453 3.4101562Q-325.64453 2.0976562 -324.78906 1.4101562Q-323.93359 0.72265625 -322.30859 0.70703125L-320.48828 0.67578125L-320.48828 0.24609375Q-320.48828 -0.58203125 -320.77734 -0.984375Q-321.06641 -1.3867188 -321.72266 -1.3867188Q-322.33203 -1.3867188 -322.61719 -1.109375Q-322.90234 -0.83203125 -322.97266 -0.19140625L-325.26172 -0.30078125Q-325.05078 -1.5351562 -324.13281 -2.171875Q-323.21484 -2.8085938 -321.62891 -2.8085938Q-320.02734 -2.8085938 -319.16016 -2.0195312Q-318.29297 -1.2304688 -318.29297 0.22265625L-318.29297 3.3007812Q-318.29297 4.0117188 -318.13281 4.28125Q-317.97266 4.5507812 -317.59766 4.5507812Q-317.34766 4.5507812 -317.11328 4.5039062L-317.11328 5.6914062Q-317.30859 5.7382812 -317.46484 5.7773438Q-317.62109 5.8164062 -317.77734 5.8398438Q-317.93359 5.8632812 -318.10938 5.8789062Q-318.28516 5.8945312 -318.51953 5.8945312Q-319.34766 5.8945312 -319.74219 5.4882812Q-320.13672 5.0820312 -320.21484 4.2929688L-320.26172 4.2929688Q-321.18359 5.9570312 -323.04297 5.9570312ZM-320.48828 1.8867188L-321.61328 1.9023438Q-322.37891 1.9335938 -322.69922 2.0703125Q-323.01953 2.2070312 -323.1875 2.4882812Q-323.35547 2.7695312 -323.35547 3.2382812Q-323.35547 3.8398438 -323.07812 4.1328125Q-322.80078 4.4257812 -322.33984 4.4257812Q-321.82422 4.4257812 -321.39844 4.1445312Q-320.97266 3.8632812 -320.73047 3.3671875Q-320.48828 2.8710938 -320.48828 2.3164062L-320.48828 1.8867188ZM-316.09766 -4.1757812L-316.09766 -5.7929688L-313.90234 -5.7929688L-313.90234 -4.1757812L-316.09766 -4.1757812ZM-316.09766 5.8007812L-316.09766 -2.6523438L-313.90234 -2.6523438L-313.90234 5.8007812L-316.09766 5.8007812ZM-311.65234 5.8007812L-311.65234 -5.7929688L-309.45703 -5.7929688L-309.45703 5.8007812L-311.65234 5.8007812ZM-299.20703 1.5351562Q-299.20703 3.6523438 -300.05469 4.8046875Q-300.90234 5.9570312 -302.44922 5.9570312Q-303.33984 5.9570312 -304 5.5703125Q-304.66016 5.1835938 -305.01172 4.4570312L-305.05859 4.4570312Q-305.01172 4.6914062 -305.01172 5.8789062L-305.01172 9.1210938L-307.20703 9.1210938L-307.20703 -0.70703125Q-307.20703 -1.9023438 -307.26953 -2.6523438L-305.13672 -2.6523438Q-305.09766 -2.5117188 -305.07031 -2.0976562Q-305.04297 -1.6835938 -305.04297 -1.2773438L-305.01172 -1.2773438Q-304.26953 -2.8320312 -302.30859 -2.8320312Q-300.83203 -2.8320312 -300.01953 -1.6953125Q-299.20703 -0.55859375 -299.20703 1.5351562ZM-301.49609 1.5351562Q-301.49609 -1.3085938 -303.23828 -1.3085938Q-304.11328 -1.3085938 -304.57812 -0.54296875Q-305.04297 0.22265625 -305.04297 1.5976562Q-305.04297 2.9648438 -304.57812 3.7109375Q-304.11328 4.4570312 -303.25391 4.4570312Q-301.49609 4.4570312 -301.49609 1.5351562ZM-289.40234 1.5664062Q-289.40234 3.6210938 -290.54297 4.7890625Q-291.68359 5.9570312 -293.69922 5.9570312Q-295.67578 5.9570312 -296.80078 4.7851562Q-297.92578 3.6132812 -297.92578 1.5664062Q-297.92578 -0.47265625 -296.80078 -1.640625Q-295.67578 -2.8085938 -293.65234 -2.8085938Q-291.58203 -2.8085938 -290.49219 -1.6796875Q-289.40234 -0.55078125 -289.40234 1.5664062ZM-291.69922 1.5664062Q-291.69922 0.05859375 -292.19141 -0.62109375Q-292.68359 -1.3007812 -293.62109 -1.3007812Q-295.62109 -1.3007812 -295.62109 1.5664062Q-295.62109 2.9804688 -295.13281 3.71875Q-294.64453 4.4570312 -293.72266 4.4570312Q-291.69922 4.4570312 -291.69922 1.5664062ZM-287.66016 -4.1757812L-287.66016 -5.7929688L-285.46484 -5.7929688L-285.46484 -4.1757812L-287.66016 -4.1757812ZM-287.66016 5.8007812L-287.66016 -2.6523438L-285.46484 -2.6523438L-285.46484 5.8007812L-287.66016 5.8007812ZM-277.73828 5.8007812L-277.73828 1.0585938Q-277.73828 -1.1679688 -279.24609 -1.1679688Q-280.04297 -1.1679688 -280.53125 -0.484375Q-281.01953 0.19921875 -281.01953 1.2695312L-281.01953 5.8007812L-283.21484 5.8007812L-283.21484 -0.76171875Q-283.21484 -1.4414062 -283.23438 -1.875Q-283.25391 -2.3085938 -283.27734 -2.6523438L-281.18359 -2.6523438Q-281.16016 -2.5039062 -281.12109 -1.859375Q-281.08203 -1.2148438 -281.08203 -0.97265625L-281.05078 -0.97265625Q-280.60547 -1.9414062 -279.93359 -2.3789062Q-279.26172 -2.8164062 -278.33203 -2.8164062Q-276.98828 -2.8164062 -276.26953 -1.9882812Q-275.55078 -1.1601562 -275.55078 0.43359375L-275.55078 5.8007812L-277.73828 5.8007812ZM-271.27734 5.9414062Q-272.24609 5.9414062 -272.76953 5.4140625Q-273.29297 4.8867188 -273.29297 3.8164062L-273.29297 -1.1679688L-274.36328 -1.1679688L-274.36328 -2.6523438L-273.18359 -2.6523438L-272.49609 -4.6367188L-271.12109 -4.6367188L-271.12109 -2.6523438L-269.51953 -2.6523438L-269.51953 -1.1679688L-271.12109 -1.1679688L-271.12109 3.2226562Q-271.12109 3.8398438 -270.88672 4.1328125Q-270.65234 4.4257812 -270.16016 4.4257812Q-269.90234 4.4257812 -269.42578 4.3164062L-269.42578 5.6757812Q-270.23828 5.9414062 -271.27734 5.9414062ZM-268.60547 2.6054688L-268.60547 0.69921875L-264.54297 0.69921875L-264.54297 2.6054688L-268.60547 2.6054688ZM-254.75391 1.5664062Q-254.75391 3.6210938 -255.89453 4.7890625Q-257.03516 5.9570312 -259.05078 5.9570312Q-261.02734 5.9570312 -262.15234 4.7851562Q-263.27734 3.6132812 -263.27734 1.5664062Q-263.27734 -0.47265625 -262.15234 -1.640625Q-261.02734 -2.8085938 -259.00391 -2.8085938Q-256.93359 -2.8085938 -255.84375 -1.6796875Q-254.75391 -0.55078125 -254.75391 1.5664062ZM-257.05078 1.5664062Q-257.05078 0.05859375 -257.54297 -0.62109375Q-258.03516 -1.3007812 -258.97266 -1.3007812Q-260.97266 -1.3007812 -260.97266 1.5664062Q-260.97266 2.9804688 -260.48438 3.71875Q-259.99609 4.4570312 -259.07422 4.4570312Q-257.05078 4.4570312 -257.05078 1.5664062ZM-245.88672 3.3320312Q-245.88672 4.5585938 -246.89062 5.2578125Q-247.89453 5.9570312 -249.66797 5.9570312Q-251.41016 5.9570312 -252.33594 5.40625Q-253.26172 4.8554688 -253.56641 3.6914062L-251.63672 3.4023438Q-251.47266 4.0039062 -251.07031 4.2539062Q-250.66797 4.5039062 -249.66797 4.5039062Q-248.74609 4.5039062 -248.32422 4.2695312Q-247.90234 4.0351562 -247.90234 3.5351562Q-247.90234 3.1289062 -248.24219 2.890625Q-248.58203 2.6523438 -249.39453 2.4882812Q-251.25391 2.1210938 -251.90234 1.8046875Q-252.55078 1.4882812 -252.89062 0.984375Q-253.23047 0.48046875 -253.23047 -0.25390625Q-253.23047 -1.4648438 -252.29688 -2.140625Q-251.36328 -2.8164062 -249.65234 -2.8164062Q-248.14453 -2.8164062 -247.22656 -2.2304688Q-246.30859 -1.6445312 -246.08203 -0.53515625L-248.02734 -0.33203125Q-248.12109 -0.84765625 -248.48828 -1.1015625Q-248.85547 -1.3554688 -249.65234 -1.3554688Q-250.43359 -1.3554688 -250.82422 -1.15625Q-251.21484 -0.95703125 -251.21484 -0.48828125Q-251.21484 -0.12109375 -250.91406 0.09375Q-250.61328 0.30859375 -249.90234 0.44921875Q-248.91016 0.65234375 -248.14062 0.8671875Q-247.37109 1.0820312 -246.90625 1.3789062Q-246.44141 1.6757812 -246.16406 2.140625Q-245.88672 2.6054688 -245.88672 3.3320312ZM-236.98828 3.3320312Q-236.98828 4.5585938 -237.99219 5.2578125Q-238.99609 5.9570312 -240.76953 5.9570312Q-242.51172 5.9570312 -243.4375 5.40625Q-244.36328 4.8554688 -244.66797 3.6914062L-242.73828 3.4023438Q-242.57422 4.0039062 -242.17188 4.2539062Q-241.76953 4.5039062 -240.76953 4.5039062Q-239.84766 4.5039062 -239.42578 4.2695312Q-239.00391 4.0351562 -239.00391 3.5351562Q-239.00391 3.1289062 -239.34375 2.890625Q-239.68359 2.6523438 -240.49609 2.4882812Q-242.35547 2.1210938 -243.00391 1.8046875Q-243.65234 1.4882812 -243.99219 0.984375Q-244.33203 0.48046875 -244.33203 -0.25390625Q-244.33203 -1.4648438 -243.39844 -2.140625Q-242.46484 -2.8164062 -240.75391 -2.8164062Q-239.24609 -2.8164062 -238.32812 -2.2304688Q-237.41016 -1.6445312 -237.18359 -0.53515625L-239.12891 -0.33203125Q-239.22266 -0.84765625 -239.58984 -1.1015625Q-239.95703 -1.3554688 -240.75391 -1.3554688Q-241.53516 -1.3554688 -241.92578 -1.15625Q-242.31641 -0.95703125 -242.31641 -0.48828125Q-242.31641 -0.12109375 -242.01562 0.09375Q-241.71484 0.30859375 -241.00391 0.44921875Q-240.01172 0.65234375 -239.24219 0.8671875Q-238.47266 1.0820312 -238.00781 1.3789062Q-237.54297 1.6757812 -237.26562 2.140625Q-236.98828 2.6054688 -236.98828 3.3320312ZM-236.17578 6.1210938L-233.90234 -5.7929688L-232.04297 -5.7929688L-234.27734 6.1210938L-236.17578 6.1210938ZM-227.24609 5.9570312Q-229.16797 5.9570312 -230.21484 4.8125Q-231.26172 3.6679688 -231.26172 1.6210938Q-231.26172 -0.47265625 -230.20703 -1.640625Q-229.15234 -2.8085938 -227.21484 -2.8085938Q-225.72266 -2.8085938 -224.74609 -2.0585938Q-223.76953 -1.3085938 -223.51953 0.01171875L-225.73047 0.12109375Q-225.82422 -0.52734375 -226.19922 -0.9140625Q-226.57422 -1.3007812 -227.26172 -1.3007812Q-228.95703 -1.3007812 -228.95703 1.5351562Q-228.95703 4.4570312 -227.23047 4.4570312Q-226.60547 4.4570312 -226.18359 4.0625Q-225.76172 3.6679688 -225.66016 2.8867188L-223.45703 2.9882812Q-223.57422 3.8554688 -224.07812 4.5351562Q-224.58203 5.2148438 -225.40234 5.5859375Q-226.22266 5.9570312 -227.24609 5.9570312ZM-213.83984 1.5664062Q-213.83984 3.6210938 -214.98047 4.7890625Q-216.12109 5.9570312 -218.13672 5.9570312Q-220.11328 5.9570312 -221.23828 4.7851562Q-222.36328 3.6132812 -222.36328 1.5664062Q-222.36328 -0.47265625 -221.23828 -1.640625Q-220.11328 -2.8085938 -218.08984 -2.8085938Q-216.01953 -2.8085938 -214.92969 -1.6796875Q-213.83984 -0.55078125 -213.83984 1.5664062ZM-216.13672 1.5664062Q-216.13672 0.05859375 -216.62891 -0.62109375Q-217.12109 -1.3007812 -218.05859 -1.3007812Q-220.05859 -1.3007812 -220.05859 1.5664062Q-220.05859 2.9804688 -219.57031 3.71875Q-219.08203 4.4570312 -218.16016 4.4570312Q-216.13672 4.4570312 -216.13672 1.5664062ZM-212.09766 5.8007812L-212.09766 -5.7929688L-209.90234 -5.7929688L-209.90234 5.8007812L-212.09766 5.8007812ZM-205.69922 5.9570312Q-206.92578 5.9570312 -207.61328 5.2890625Q-208.30078 4.6210938 -208.30078 3.4101562Q-208.30078 2.0976562 -207.44531 1.4101562Q-206.58984 0.72265625 -204.96484 0.70703125L-203.14453 0.67578125L-203.14453 0.24609375Q-203.14453 -0.58203125 -203.43359 -0.984375Q-203.72266 -1.3867188 -204.37891 -1.3867188Q-204.98828 -1.3867188 -205.27344 -1.109375Q-205.55859 -0.83203125 -205.62891 -0.19140625L-207.91797 -0.30078125Q-207.70703 -1.5351562 -206.78906 -2.171875Q-205.87109 -2.8085938 -204.28516 -2.8085938Q-202.68359 -2.8085938 -201.81641 -2.0195312Q-200.94922 -1.2304688 -200.94922 0.22265625L-200.94922 3.3007812Q-200.94922 4.0117188 -200.78906 4.28125Q-200.62891 4.5507812 -200.25391 4.5507812Q-200.00391 4.5507812 -199.76953 4.5039062L-199.76953 5.6914062Q-199.96484 5.7382812 -200.12109 5.7773438Q-200.27734 5.8164062 -200.43359 5.8398438Q-200.58984 5.8632812 -200.76562 5.8789062Q-200.94141 5.8945312 -201.17578 5.8945312Q-202.00391 5.8945312 -202.39844 5.4882812Q-202.79297 5.0820312 -202.87109 4.2929688L-202.91797 4.2929688Q-203.83984 5.9570312 -205.69922 5.9570312ZM-203.14453 1.8867188L-204.26953 1.9023438Q-205.03516 1.9335938 -205.35547 2.0703125Q-205.67578 2.2070312 -205.84375 2.4882812Q-206.01172 2.7695312 -206.01172 3.2382812Q-206.01172 3.8398438 -205.73438 4.1328125Q-205.45703 4.4257812 -204.99609 4.4257812Q-204.48047 4.4257812 -204.05469 4.1445312Q-203.62891 3.8632812 -203.38672 3.3671875Q-203.14453 2.8710938 -203.14453 2.3164062L-203.14453 1.8867188ZM-190.75391 1.5429688Q-190.75391 3.6367188 -191.59375 4.796875Q-192.43359 5.9570312 -193.99609 5.9570312Q-194.89453 5.9570312 -195.55078 5.5664062Q-196.20703 5.1757812 -196.55859 4.4414062L-196.57422 4.4414062Q-196.57422 4.7148438 -196.60938 5.1914062Q-196.64453 5.6679688 -196.68359 5.8007812L-198.81641 5.8007812Q-198.75391 5.0742188 -198.75391 3.8710938L-198.75391 -5.7929688L-196.55859 -5.7929688L-196.55859 -2.5585938L-196.58984 -1.1835938L-196.55859 -1.1835938Q-195.81641 -2.8085938 -193.85547 -2.8085938Q-192.35547 -2.8085938 -191.55469 -1.671875Q-190.75391 -0.53515625 -190.75391 1.5429688ZM-193.04297 1.5429688Q-193.04297 0.10546875 -193.46484 -0.58984375Q-193.88672 -1.2851562 -194.76953 -1.2851562Q-195.66016 -1.2851562 -196.125 -0.5390625Q-196.58984 0.20703125 -196.58984 1.6132812Q-196.58984 2.9570312 -196.13281 3.7070312Q-195.67578 4.4570312 -194.78516 4.4570312Q-193.04297 4.4570312 -193.04297 1.5429688ZM-189.47266 2.6054688L-189.47266 0.69921875L-185.41016 0.69921875L-185.41016 2.6054688L-189.47266 2.6054688ZM-176.52734 3.3320312Q-176.52734 4.5585938 -177.53125 5.2578125Q-178.53516 5.9570312 -180.30859 5.9570312Q-182.05078 5.9570312 -182.97656 5.40625Q-183.90234 4.8554688 -184.20703 3.6914062L-182.27734 3.4023438Q-182.11328 4.0039062 -181.71094 4.2539062Q-181.30859 4.5039062 -180.30859 4.5039062Q-179.38672 4.5039062 -178.96484 4.2695312Q-178.54297 4.0351562 -178.54297 3.5351562Q-178.54297 3.1289062 -178.88281 2.890625Q-179.22266 2.6523438 -180.03516 2.4882812Q-181.89453 2.1210938 -182.54297 1.8046875Q-183.19141 1.4882812 -183.53125 0.984375Q-183.87109 0.48046875 -183.87109 -0.25390625Q-183.87109 -1.4648438 -182.9375 -2.140625Q-182.00391 -2.8164062 -180.29297 -2.8164062Q-178.78516 -2.8164062 -177.86719 -2.2304688Q-176.94922 -1.6445312 -176.72266 -0.53515625L-178.66797 -0.33203125Q-178.76172 -0.84765625 -179.12891 -1.1015625Q-179.49609 -1.3554688 -180.29297 -1.3554688Q-181.07422 -1.3554688 -181.46484 -1.15625Q-181.85547 -0.95703125 -181.85547 -0.48828125Q-181.85547 -0.12109375 -181.55469 0.09375Q-181.25391 0.30859375 -180.54297 0.44921875Q-179.55078 0.65234375 -178.78125 0.8671875Q-178.01172 1.0820312 -177.54688 1.3789062Q-177.08203 1.6757812 -176.80469 2.140625Q-176.52734 2.6054688 -176.52734 3.3320312ZM-172.80078 5.9570312Q-174.02734 5.9570312 -174.71484 5.2890625Q-175.40234 4.6210938 -175.40234 3.4101562Q-175.40234 2.0976562 -174.54688 1.4101562Q-173.69141 0.72265625 -172.06641 0.70703125L-170.24609 0.67578125L-170.24609 0.24609375Q-170.24609 -0.58203125 -170.53516 -0.984375Q-170.82422 -1.3867188 -171.48047 -1.3867188Q-172.08984 -1.3867188 -172.375 -1.109375Q-172.66016 -0.83203125 -172.73047 -0.19140625L-175.01953 -0.30078125Q-174.80859 -1.5351562 -173.89062 -2.171875Q-172.97266 -2.8085938 -171.38672 -2.8085938Q-169.78516 -2.8085938 -168.91797 -2.0195312Q-168.05078 -1.2304688 -168.05078 0.22265625L-168.05078 3.3007812Q-168.05078 4.0117188 -167.89062 4.28125Q-167.73047 4.5507812 -167.35547 4.5507812Q-167.10547 4.5507812 -166.87109 4.5039062L-166.87109 5.6914062Q-167.06641 5.7382812 -167.22266 5.7773438Q-167.37891 5.8164062 -167.53516 5.8398438Q-167.69141 5.8632812 -167.86719 5.8789062Q-168.04297 5.8945312 -168.27734 5.8945312Q-169.10547 5.8945312 -169.5 5.4882812Q-169.89453 5.0820312 -169.97266 4.2929688L-170.01953 4.2929688Q-170.94141 5.9570312 -172.80078 5.9570312ZM-170.24609 1.8867188L-171.37109 1.9023438Q-172.13672 1.9335938 -172.45703 2.0703125Q-172.77734 2.2070312 -172.94531 2.4882812Q-173.11328 2.7695312 -173.11328 3.2382812Q-173.11328 3.8398438 -172.83594 4.1328125Q-172.55859 4.4257812 -172.09766 4.4257812Q-171.58203 4.4257812 -171.15625 4.1445312Q-170.73047 3.8632812 -170.48828 3.3671875Q-170.24609 2.8710938 -170.24609 2.3164062L-170.24609 1.8867188ZM-163.90234 5.9570312Q-165.12891 5.9570312 -165.81641 5.2890625Q-166.50391 4.6210938 -166.50391 3.4101562Q-166.50391 2.0976562 -165.64844 1.4101562Q-164.79297 0.72265625 -163.16797 0.70703125L-161.34766 0.67578125L-161.34766 0.24609375Q-161.34766 -0.58203125 -161.63672 -0.984375Q-161.92578 -1.3867188 -162.58203 -1.3867188Q-163.19141 -1.3867188 -163.47656 -1.109375Q-163.76172 -0.83203125 -163.83203 -0.19140625L-166.12109 -0.30078125Q-165.91016 -1.5351562 -164.99219 -2.171875Q-164.07422 -2.8085938 -162.48828 -2.8085938Q-160.88672 -2.8085938 -160.01953 -2.0195312Q-159.15234 -1.2304688 -159.15234 0.22265625L-159.15234 3.3007812Q-159.15234 4.0117188 -158.99219 4.28125Q-158.83203 4.5507812 -158.45703 4.5507812Q-158.20703 4.5507812 -157.97266 4.5039062L-157.97266 5.6914062Q-158.16797 5.7382812 -158.32422 5.7773438Q-158.48047 5.8164062 -158.63672 5.8398438Q-158.79297 5.8632812 -158.96875 5.8789062Q-159.14453 5.8945312 -159.37891 5.8945312Q-160.20703 5.8945312 -160.60156 5.4882812Q-160.99609 5.0820312 -161.07422 4.2929688L-161.12109 4.2929688Q-162.04297 5.9570312 -163.90234 5.9570312ZM-161.34766 1.8867188L-162.47266 1.9023438Q-163.23828 1.9335938 -163.55859 2.0703125Q-163.87891 2.2070312 -164.04688 2.4882812Q-164.21484 2.7695312 -164.21484 3.2382812Q-164.21484 3.8398438 -163.9375 4.1328125Q-163.66016 4.4257812 -163.19922 4.4257812Q-162.68359 4.4257812 -162.25781 4.1445312Q-161.83203 3.8632812 -161.58984 3.3671875Q-161.34766 2.8710938 -161.34766 2.3164062L-161.34766 1.8867188ZM-149.83203 3.3320312Q-149.83203 4.5585938 -150.83594 5.2578125Q-151.83984 5.9570312 -153.61328 5.9570312Q-155.35547 5.9570312 -156.28125 5.40625Q-157.20703 4.8554688 -157.51172 3.6914062L-155.58203 3.4023438Q-155.41797 4.0039062 -155.01562 4.2539062Q-154.61328 4.5039062 -153.61328 4.5039062Q-152.69141 4.5039062 -152.26953 4.2695312Q-151.84766 4.0351562 -151.84766 3.5351562Q-151.84766 3.1289062 -152.1875 2.890625Q-152.52734 2.6523438 -153.33984 2.4882812Q-155.19922 2.1210938 -155.84766 1.8046875Q-156.49609 1.4882812 -156.83594 0.984375Q-157.17578 0.48046875 -157.17578 -0.25390625Q-157.17578 -1.4648438 -156.24219 -2.140625Q-155.30859 -2.8164062 -153.59766 -2.8164062Q-152.08984 -2.8164062 -151.17188 -2.2304688Q-150.25391 -1.6445312 -150.02734 -0.53515625L-151.97266 -0.33203125Q-152.06641 -0.84765625 -152.43359 -1.1015625Q-152.80078 -1.3554688 -153.59766 -1.3554688Q-154.37891 -1.3554688 -154.76953 -1.15625Q-155.16016 -0.95703125 -155.16016 -0.48828125Q-155.16016 -0.12109375 -154.85938 0.09375Q-154.55859 0.30859375 -153.84766 0.44921875Q-152.85547 0.65234375 -152.08594 0.8671875Q-151.31641 1.0820312 -150.85156 1.3789062Q-150.38672 1.6757812 -150.10938 2.140625Q-149.83203 2.6054688 -149.83203 3.3320312ZM-148.55078 2.6054688L-148.55078 0.69921875L-144.48828 0.69921875L-144.48828 2.6054688L-148.55078 2.6054688ZM-139.20703 5.9570312Q-141.12891 5.9570312 -142.17578 4.8125Q-143.22266 3.6679688 -143.22266 1.6210938Q-143.22266 -0.47265625 -142.16797 -1.640625Q-141.11328 -2.8085938 -139.17578 -2.8085938Q-137.68359 -2.8085938 -136.70703 -2.0585938Q-135.73047 -1.3085938 -135.48047 0.01171875L-137.69141 0.12109375Q-137.78516 -0.52734375 -138.16016 -0.9140625Q-138.53516 -1.3007812 -139.22266 -1.3007812Q-140.91797 -1.3007812 -140.91797 1.5351562Q-140.91797 4.4570312 -139.19141 4.4570312Q-138.56641 4.4570312 -138.14453 4.0625Q-137.72266 3.6679688 -137.62109 2.8867188L-135.41797 2.9882812Q-135.53516 3.8554688 -136.03906 4.5351562Q-136.54297 5.2148438 -137.36328 5.5859375Q-138.18359 5.9570312 -139.20703 5.9570312ZM-125.80078 1.5664062Q-125.80078 3.6210938 -126.94141 4.7890625Q-128.08203 5.9570312 -130.09766 5.9570312Q-132.07422 5.9570312 -133.19922 4.7851562Q-134.32422 3.6132812 -134.32422 1.5664062Q-134.32422 -0.47265625 -133.19922 -1.640625Q-132.07422 -2.8085938 -130.05078 -2.8085938Q-127.98047 -2.8085938 -126.89062 -1.6796875Q-125.80078 -0.55078125 -125.80078 1.5664062ZM-128.09766 1.5664062Q-128.09766 0.05859375 -128.58984 -0.62109375Q-129.08203 -1.3007812 -130.01953 -1.3007812Q-132.01953 -1.3007812 -132.01953 1.5664062Q-132.01953 2.9804688 -131.53125 3.71875Q-131.04297 4.4570312 -130.12109 4.4570312Q-128.09766 4.4570312 -128.09766 1.5664062ZM-118.58203 5.8007812L-118.58203 1.0585938Q-118.58203 -1.1679688 -120.08984 -1.1679688Q-120.88672 -1.1679688 -121.375 -0.484375Q-121.86328 0.19921875 -121.86328 1.2695312L-121.86328 5.8007812L-124.05859 5.8007812L-124.05859 -0.76171875Q-124.05859 -1.4414062 -124.07812 -1.875Q-124.09766 -2.3085938 -124.12109 -2.6523438L-122.02734 -2.6523438Q-122.00391 -2.5039062 -121.96484 -1.859375Q-121.92578 -1.2148438 -121.92578 -0.97265625L-121.89453 -0.97265625Q-121.44922 -1.9414062 -120.77734 -2.3789062Q-120.10547 -2.8164062 -119.17578 -2.8164062Q-117.83203 -2.8164062 -117.11328 -1.9882812Q-116.39453 -1.1601562 -116.39453 0.43359375L-116.39453 5.8007812L-118.58203 5.8007812ZM-108.80859 5.8007812L-108.80859 1.0585938Q-108.80859 -1.1679688 -110.31641 -1.1679688Q-111.11328 -1.1679688 -111.60156 -0.484375Q-112.08984 0.19921875 -112.08984 1.2695312L-112.08984 5.8007812L-114.28516 5.8007812L-114.28516 -0.76171875Q-114.28516 -1.4414062 -114.30469 -1.875Q-114.32422 -2.3085938 -114.34766 -2.6523438L-112.25391 -2.6523438Q-112.23047 -2.5039062 -112.19141 -1.859375Q-112.15234 -1.2148438 -112.15234 -0.97265625L-112.12109 -0.97265625Q-111.67578 -1.9414062 -111.00391 -2.3789062Q-110.33203 -2.8164062 -109.40234 -2.8164062Q-108.05859 -2.8164062 -107.33984 -1.9882812Q-106.62109 -1.1601562 -106.62109 0.43359375L-106.62109 5.8007812L-108.80859 5.8007812ZM-105.00391 2.6054688L-105.00391 0.69921875L-100.94141 0.69921875L-100.94141 2.6054688L-105.00391 2.6054688ZM-91.183594 1.5429688Q-91.183594 3.6367188 -92.023438 4.796875Q-92.863281 5.9570312 -94.425781 5.9570312Q-95.324219 5.9570312 -95.980469 5.5664062Q-96.636719 5.1757812 -96.988281 4.4414062L-97.003906 4.4414062Q-97.003906 4.7148438 -97.039062 5.1914062Q-97.074219 5.6679688 -97.113281 5.8007812L-99.246094 5.8007812Q-99.183594 5.0742188 -99.183594 3.8710938L-99.183594 -5.7929688L-96.988281 -5.7929688L-96.988281 -2.5585938L-97.019531 -1.1835938L-96.988281 -1.1835938Q-96.246094 -2.8085938 -94.285156 -2.8085938Q-92.785156 -2.8085938 -91.984375 -1.671875Q-91.183594 -0.53515625 -91.183594 1.5429688ZM-93.472656 1.5429688Q-93.472656 0.10546875 -93.894531 -0.58984375Q-94.316406 -1.2851562 -95.199219 -1.2851562Q-96.089844 -1.2851562 -96.554688 -0.5390625Q-97.019531 0.20703125 -97.019531 1.6132812Q-97.019531 2.9570312 -96.5625 3.7070312Q-96.105469 4.4570312 -95.214844 4.4570312Q-93.472656 4.4570312 -93.472656 1.5429688ZM-85.949219 5.9570312Q-87.855469 5.9570312 -88.878906 4.828125Q-89.902344 3.6992188 -89.902344 1.5351562Q-89.902344 -0.55859375 -88.863281 -1.6835938Q-87.824219 -2.8085938 -85.917969 -2.8085938Q-84.097656 -2.8085938 -83.136719 -1.6015625Q-82.175781 -0.39453125 -82.175781 1.9335938L-82.175781 1.9960938L-87.597656 1.9960938Q-87.597656 3.2304688 -87.140625 3.859375Q-86.683594 4.4882812 -85.839844 4.4882812Q-84.675781 4.4882812 -84.371094 3.4804688L-82.300781 3.6601562Q-83.199219 5.9570312 -85.949219 5.9570312ZM-85.949219 -1.4257812Q-86.722656 -1.4257812 -87.140625 -0.88671875Q-87.558594 -0.34765625 -87.582031 0.62109375L-84.300781 0.62109375Q-84.363281 -0.40234375 -84.792969 -0.9140625Q-85.222656 -1.4257812 -85.949219 -1.4257812ZM-79.417969 9.1210938Q-80.207031 9.1210938 -80.800781 9.0195312L-80.800781 7.4570312Q-80.386719 7.5195312 -80.042969 7.5195312Q-79.574219 7.5195312 -79.265625 7.3710938Q-78.957031 7.2226562 -78.710938 6.8789062Q-78.464844 6.5351562 -78.160156 5.7148438L-81.503906 -2.6523438L-79.183594 -2.6523438L-77.855469 1.3085938Q-77.542969 2.1601562 -77.066406 3.9179688L-76.871094 3.1757812L-76.363281 1.3398438L-75.113281 -2.6523438L-72.816406 -2.6523438L-76.160156 6.2460938Q-76.832031 7.8710938 -77.554688 8.4960938Q-78.277344 9.1210938 -79.417969 9.1210938ZM-63.582031 1.5664062Q-63.582031 3.6210938 -64.722656 4.7890625Q-65.863281 5.9570312 -67.878906 5.9570312Q-69.855469 5.9570312 -70.980469 4.7851562Q-72.105469 3.6132812 -72.105469 1.5664062Q-72.105469 -0.47265625 -70.980469 -1.640625Q-69.855469 -2.8085938 -67.832031 -2.8085938Q-65.761719 -2.8085938 -64.671875 -1.6796875Q-63.582031 -0.55078125 -63.582031 1.5664062ZM-65.878906 1.5664062Q-65.878906 0.05859375 -66.371094 -0.62109375Q-66.863281 -1.3007812 -67.800781 -1.3007812Q-69.800781 -1.3007812 -69.800781 1.5664062Q-69.800781 2.9804688 -69.3125 3.71875Q-68.824219 4.4570312 -67.902344 4.4570312Q-65.878906 4.4570312 -65.878906 1.5664062ZM-56.363281 5.8007812L-56.363281 1.0585938Q-56.363281 -1.1679688 -57.871094 -1.1679688Q-58.667969 -1.1679688 -59.15625 -0.484375Q-59.644531 0.19921875 -59.644531 1.2695312L-59.644531 5.8007812L-61.839844 5.8007812L-61.839844 -0.76171875Q-61.839844 -1.4414062 -61.859375 -1.875Q-61.878906 -2.3085938 -61.902344 -2.6523438L-59.808594 -2.6523438Q-59.785156 -2.5039062 -59.746094 -1.859375Q-59.707031 -1.2148438 -59.707031 -0.97265625L-59.675781 -0.97265625Q-59.230469 -1.9414062 -58.558594 -2.3789062Q-57.886719 -2.8164062 -56.957031 -2.8164062Q-55.613281 -2.8164062 -54.894531 -1.9882812Q-54.175781 -1.1601562 -54.175781 0.43359375L-54.175781 5.8007812L-56.363281 5.8007812ZM-46.589844 5.8007812Q-46.621094 5.6835938 -46.664062 5.2109375Q-46.707031 4.7382812 -46.707031 4.4257812L-46.738281 4.4257812Q-47.449219 5.9570312 -49.441406 5.9570312Q-50.917969 5.9570312 -51.722656 4.8046875Q-52.527344 3.6523438 -52.527344 1.5820312Q-52.527344 -0.51953125 -51.679688 -1.6640625Q-50.832031 -2.8085938 -49.277344 -2.8085938Q-48.378906 -2.8085938 -47.726562 -2.4335938Q-47.074219 -2.0585938 -46.722656 -1.3164062L-46.707031 -1.3164062L-46.722656 -2.7070312L-46.722656 -5.7929688L-44.527344 -5.7929688L-44.527344 3.9570312Q-44.527344 4.7382812 -44.464844 5.8007812L-46.589844 5.8007812ZM-46.691406 1.5273438Q-46.691406 0.16015625 -47.148438 -0.578125Q-47.605469 -1.3164062 -48.496094 -1.3164062Q-49.378906 -1.3164062 -49.808594 -0.6015625Q-50.238281 0.11328125 -50.238281 1.5820312Q-50.238281 4.4570312 -48.511719 4.4570312Q-47.644531 4.4570312 -47.167969 3.6953125Q-46.691406 2.9335938 -46.691406 1.5273438ZM-40.128906 5.9414062Q-41.097656 5.9414062 -41.621094 5.4140625Q-42.144531 4.8867188 -42.144531 3.8164062L-42.144531 -1.1679688L-43.214844 -1.1679688L-43.214844 -2.6523438L-42.035156 -2.6523438L-41.347656 -4.6367188L-39.972656 -4.6367188L-39.972656 -2.6523438L-38.371094 -2.6523438L-38.371094 -1.1679688L-39.972656 -1.1679688L-39.972656 3.2226562Q-39.972656 3.8398438 -39.738281 4.1328125Q-39.503906 4.4257812 -39.011719 4.4257812Q-38.753906 4.4257812 -38.277344 4.3164062L-38.277344 5.6757812Q-39.089844 5.9414062 -40.128906 5.9414062ZM-36.964844 5.8007812L-36.964844 -0.66796875Q-36.964844 -1.3632812 -36.984375 -1.828125Q-37.003906 -2.2929688 -37.027344 -2.6523438L-34.933594 -2.6523438Q-34.910156 -2.5117188 -34.871094 -1.796875Q-34.832031 -1.0820312 -34.832031 -0.84765625L-34.800781 -0.84765625Q-34.480469 -1.7382812 -34.230469 -2.1015625Q-33.980469 -2.4648438 -33.636719 -2.640625Q-33.292969 -2.8164062 -32.777344 -2.8164062Q-32.355469 -2.8164062 -32.097656 -2.6992188L-32.097656 -0.86328125Q-32.628906 -0.98046875 -33.035156 -0.98046875Q-33.855469 -0.98046875 -34.3125 -0.31640625Q-34.769531 0.34765625 -34.769531 1.6523438L-34.769531 5.8007812L-36.964844 5.8007812ZM-28.667969 -2.6523438L-28.667969 2.0898438Q-28.667969 4.3164062 -27.167969 4.3164062Q-26.371094 4.3164062 -25.882812 3.6328125Q-25.394531 2.9492188 -25.394531 1.8789062L-25.394531 -2.6523438L-23.199219 -2.6523438L-23.199219 3.9101562Q-23.199219 4.9882812 -23.136719 5.8007812L-25.230469 5.8007812Q-25.324219 4.6757812 -25.324219 4.1210938L-25.363281 4.1210938Q-25.800781 5.0820312 -26.476562 5.5195312Q-27.152344 5.9570312 -28.082031 5.9570312Q-29.425781 5.9570312 -30.144531 5.1328125Q-30.863281 4.3085938 -30.863281 2.7148438L-30.863281 -2.6523438L-28.667969 -2.6523438ZM-13.839844 3.3320312Q-13.839844 4.5585938 -14.84375 5.2578125Q-15.847656 5.9570312 -17.621094 5.9570312Q-19.363281 5.9570312 -20.289062 5.40625Q-21.214844 4.8554688 -21.519531 3.6914062L-19.589844 3.4023438Q-19.425781 4.0039062 -19.023438 4.2539062Q-18.621094 4.5039062 -17.621094 4.5039062Q-16.699219 4.5039062 -16.277344 4.2695312Q-15.855469 4.0351562 -15.855469 3.5351562Q-15.855469 3.1289062 -16.195312 2.890625Q-16.535156 2.6523438 -17.347656 2.4882812Q-19.207031 2.1210938 -19.855469 1.8046875Q-20.503906 1.4882812 -20.84375 0.984375Q-21.183594 0.48046875 -21.183594 -0.25390625Q-21.183594 -1.4648438 -20.25 -2.140625Q-19.316406 -2.8164062 -17.605469 -2.8164062Q-16.097656 -2.8164062 -15.179688 -2.2304688Q-14.261719 -1.6445312 -14.035156 -0.53515625L-15.980469 -0.33203125Q-16.074219 -0.84765625 -16.441406 -1.1015625Q-16.808594 -1.3554688 -17.605469 -1.3554688Q-18.386719 -1.3554688 -18.777344 -1.15625Q-19.167969 -0.95703125 -19.167969 -0.48828125Q-19.167969 -0.12109375 -18.867188 0.09375Q-18.566406 0.30859375 -17.855469 0.44921875Q-16.863281 0.65234375 -16.09375 0.8671875Q-15.324219 1.0820312 -14.859375 1.3789062Q-14.394531 1.6757812 -14.117188 2.140625Q-13.839844 2.6054688 -13.839844 3.3320312ZM-9.9023438 5.9414062Q-10.871094 5.9414062 -11.394531 5.4140625Q-11.917969 4.8867188 -11.917969 3.8164062L-11.917969 -1.1679688L-12.988281 -1.1679688L-12.988281 -2.6523438L-11.808594 -2.6523438L-11.121094 -4.6367188L-9.7460938 -4.6367188L-9.7460938 -2.6523438L-8.1445312 -2.6523438L-8.1445312 -1.1679688L-9.7460938 -1.1679688L-9.7460938 3.2226562Q-9.7460938 3.8398438 -9.5117188 4.1328125Q-9.2773438 4.4257812 -8.7851562 4.4257812Q-8.5273438 4.4257812 -8.0507812 4.3164062L-8.0507812 5.6757812Q-8.8632812 5.9414062 -9.9023438 5.9414062ZM-7.2304688 2.6054688L-7.2304688 0.69921875L-3.1679688 0.69921875L-3.1679688 2.6054688L-7.2304688 2.6054688ZM-1.4101562 5.8007812L-1.4101562 -0.66796875Q-1.4101562 -1.3632812 -1.4296875 -1.828125Q-1.4492188 -2.2929688 -1.4726562 -2.6523438L0.62109375 -2.6523438Q0.64453125 -2.5117188 0.68359375 -1.796875Q0.72265625 -1.0820312 0.72265625 -0.84765625L0.75390625 -0.84765625Q1.0742188 -1.7382812 1.3242188 -2.1015625Q1.5742188 -2.4648438 1.9179688 -2.640625Q2.2617188 -2.8164062 2.7773438 -2.8164062Q3.1992188 -2.8164062 3.4570312 -2.6992188L3.4570312 -0.86328125Q2.9257812 -0.98046875 2.5195312 -0.98046875Q1.6992188 -0.98046875 1.2421875 -0.31640625Q0.78515625 0.34765625 0.78515625 1.6523438L0.78515625 5.8007812L-1.4101562 5.8007812ZM8.2773438 5.9570312Q6.3710938 5.9570312 5.3476562 4.828125Q4.3242188 3.6992188 4.3242188 1.5351562Q4.3242188 -0.55859375 5.3632812 -1.6835938Q6.4023438 -2.8085938 8.3085938 -2.8085938Q10.128906 -2.8085938 11.089844 -1.6015625Q12.050781 -0.39453125 12.050781 1.9335938L12.050781 1.9960938L6.6289062 1.9960938Q6.6289062 3.2304688 7.0859375 3.859375Q7.5429688 4.4882812 8.3867188 4.4882812Q9.5507812 4.4882812 9.8554688 3.4804688L11.925781 3.6601562Q11.027344 5.9570312 8.2773438 5.9570312ZM8.2773438 -1.4257812Q7.5039062 -1.4257812 7.0859375 -0.88671875Q6.6679688 -0.34765625 6.6445312 0.62109375L9.9257812 0.62109375Q9.8632812 -0.40234375 9.4335938 -0.9140625Q9.0039062 -1.4257812 8.2773438 -1.4257812ZM21.714844 1.5351562Q21.714844 3.6523438 20.867188 4.8046875Q20.019531 5.9570312 18.472656 5.9570312Q17.582031 5.9570312 16.921875 5.5703125Q16.261719 5.1835938 15.910156 4.4570312L15.863281 4.4570312Q15.910156 4.6914062 15.910156 5.8789062L15.910156 9.1210938L13.714844 9.1210938L13.714844 -0.70703125Q13.714844 -1.9023438 13.652344 -2.6523438L15.785156 -2.6523438Q15.824219 -2.5117188 15.851562 -2.0976562Q15.878906 -1.6835938 15.878906 -1.2773438L15.910156 -1.2773438Q16.652344 -2.8320312 18.613281 -2.8320312Q20.089844 -2.8320312 20.902344 -1.6953125Q21.714844 -0.55859375 21.714844 1.5351562ZM19.425781 1.5351562Q19.425781 -1.3085938 17.683594 -1.3085938Q16.808594 -1.3085938 16.34375 -0.54296875Q15.878906 0.22265625 15.878906 1.5976562Q15.878906 2.9648438 16.34375 3.7109375Q16.808594 4.4570312 17.667969 4.4570312Q19.425781 4.4570312 19.425781 1.5351562ZM23.488281 5.8007812L23.488281 -0.66796875Q23.488281 -1.3632812 23.46875 -1.828125Q23.449219 -2.2929688 23.425781 -2.6523438L25.519531 -2.6523438Q25.542969 -2.5117188 25.582031 -1.796875Q25.621094 -1.0820312 25.621094 -0.84765625L25.652344 -0.84765625Q25.972656 -1.7382812 26.222656 -2.1015625Q26.472656 -2.4648438 26.816406 -2.640625Q27.160156 -2.8164062 27.675781 -2.8164062Q28.097656 -2.8164062 28.355469 -2.6992188L28.355469 -0.86328125Q27.824219 -0.98046875 27.417969 -0.98046875Q26.597656 -0.98046875 26.140625 -0.31640625Q25.683594 0.34765625 25.683594 1.6523438L25.683594 5.8007812L23.488281 5.8007812ZM33.175781 5.9570312Q31.269531 5.9570312 30.246094 4.828125Q29.222656 3.6992188 29.222656 1.5351562Q29.222656 -0.55859375 30.261719 -1.6835938Q31.300781 -2.8085938 33.207031 -2.8085938Q35.027344 -2.8085938 35.988281 -1.6015625Q36.949219 -0.39453125 36.949219 1.9335938L36.949219 1.9960938L31.527344 1.9960938Q31.527344 3.2304688 31.984375 3.859375Q32.441406 4.4882812 33.285156 4.4882812Q34.449219 4.4882812 34.753906 3.4804688L36.824219 3.6601562Q35.925781 5.9570312 33.175781 5.9570312ZM33.175781 -1.4257812Q32.402344 -1.4257812 31.984375 -0.88671875Q31.566406 -0.34765625 31.542969 0.62109375L34.824219 0.62109375Q34.761719 -0.40234375 34.332031 -0.9140625Q33.902344 -1.4257812 33.175781 -1.4257812ZM45.738281 3.3320312Q45.738281 4.5585938 44.734375 5.2578125Q43.730469 5.9570312 41.957031 5.9570312Q40.214844 5.9570312 39.289062 5.40625Q38.363281 4.8554688 38.058594 3.6914062L39.988281 3.4023438Q40.152344 4.0039062 40.554688 4.2539062Q40.957031 4.5039062 41.957031 4.5039062Q42.878906 4.5039062 43.300781 4.2695312Q43.722656 4.0351562 43.722656 3.5351562Q43.722656 3.1289062 43.382812 2.890625Q43.042969 2.6523438 42.230469 2.4882812Q40.371094 2.1210938 39.722656 1.8046875Q39.074219 1.4882812 38.734375 0.984375Q38.394531 0.48046875 38.394531 -0.25390625Q38.394531 -1.4648438 39.328125 -2.140625Q40.261719 -2.8164062 41.972656 -2.8164062Q43.480469 -2.8164062 44.398438 -2.2304688Q45.316406 -1.6445312 45.542969 -0.53515625L43.597656 -0.33203125Q43.503906 -0.84765625 43.136719 -1.1015625Q42.769531 -1.3554688 41.972656 -1.3554688Q41.191406 -1.3554688 40.800781 -1.15625Q40.410156 -0.95703125 40.410156 -0.48828125Q40.410156 -0.12109375 40.710938 0.09375Q41.011719 0.30859375 41.722656 0.44921875Q42.714844 0.65234375 43.484375 0.8671875Q44.253906 1.0820312 44.71875 1.3789062Q45.183594 1.6757812 45.460938 2.140625Q45.738281 2.6054688 45.738281 3.3320312ZM50.972656 5.9570312Q49.066406 5.9570312 48.042969 4.828125Q47.019531 3.6992188 47.019531 1.5351562Q47.019531 -0.55859375 48.058594 -1.6835938Q49.097656 -2.8085938 51.003906 -2.8085938Q52.824219 -2.8085938 53.785156 -1.6015625Q54.746094 -0.39453125 54.746094 1.9335938L54.746094 1.9960938L49.324219 1.9960938Q49.324219 3.2304688 49.78125 3.859375Q50.238281 4.4882812 51.082031 4.4882812Q52.246094 4.4882812 52.550781 3.4804688L54.621094 3.6601562Q53.722656 5.9570312 50.972656 5.9570312ZM50.972656 -1.4257812Q50.199219 -1.4257812 49.78125 -0.88671875Q49.363281 -0.34765625 49.339844 0.62109375L52.621094 0.62109375Q52.558594 -0.40234375 52.128906 -0.9140625Q51.699219 -1.4257812 50.972656 -1.4257812ZM61.886719 5.8007812L61.886719 1.0585938Q61.886719 -1.1679688 60.378906 -1.1679688Q59.582031 -1.1679688 59.09375 -0.484375Q58.605469 0.19921875 58.605469 1.2695312L58.605469 5.8007812L56.410156 5.8007812L56.410156 -0.76171875Q56.410156 -1.4414062 56.390625 -1.875Q56.371094 -2.3085938 56.347656 -2.6523438L58.441406 -2.6523438Q58.464844 -2.5039062 58.503906 -1.859375Q58.542969 -1.2148438 58.542969 -0.97265625L58.574219 -0.97265625Q59.019531 -1.9414062 59.691406 -2.3789062Q60.363281 -2.8164062 61.292969 -2.8164062Q62.636719 -2.8164062 63.355469 -1.9882812Q64.074219 -1.1601562 64.074219 0.43359375L64.074219 5.8007812L61.886719 5.8007812ZM68.347656 5.9414062Q67.378906 5.9414062 66.855469 5.4140625Q66.332031 4.8867188 66.332031 3.8164062L66.332031 -1.1679688L65.261719 -1.1679688L65.261719 -2.6523438L66.441406 -2.6523438L67.128906 -4.6367188L68.503906 -4.6367188L68.503906 -2.6523438L70.105469 -2.6523438L70.105469 -1.1679688L68.503906 -1.1679688L68.503906 3.2226562Q68.503906 3.8398438 68.738281 4.1328125Q68.972656 4.4257812 69.464844 4.4257812Q69.722656 4.4257812 70.199219 4.3164062L70.199219 5.6757812Q69.386719 5.9414062 68.347656 5.9414062ZM73.464844 5.9570312Q72.238281 5.9570312 71.550781 5.2890625Q70.863281 4.6210938 70.863281 3.4101562Q70.863281 2.0976562 71.71875 1.4101562Q72.574219 0.72265625 74.199219 0.70703125L76.019531 0.67578125L76.019531 0.24609375Q76.019531 -0.58203125 75.730469 -0.984375Q75.441406 -1.3867188 74.785156 -1.3867188Q74.175781 -1.3867188 73.890625 -1.109375Q73.605469 -0.83203125 73.535156 -0.19140625L71.246094 -0.30078125Q71.457031 -1.5351562 72.375 -2.171875Q73.292969 -2.8085938 74.878906 -2.8085938Q76.480469 -2.8085938 77.347656 -2.0195312Q78.214844 -1.2304688 78.214844 0.22265625L78.214844 3.3007812Q78.214844 4.0117188 78.375 4.28125Q78.535156 4.5507812 78.910156 4.5507812Q79.160156 4.5507812 79.394531 4.5039062L79.394531 5.6914062Q79.199219 5.7382812 79.042969 5.7773438Q78.886719 5.8164062 78.730469 5.8398438Q78.574219 5.8632812 78.398438 5.8789062Q78.222656 5.8945312 77.988281 5.8945312Q77.160156 5.8945312 76.765625 5.4882812Q76.371094 5.0820312 76.292969 4.2929688L76.246094 4.2929688Q75.324219 5.9570312 73.464844 5.9570312ZM76.019531 1.8867188L74.894531 1.9023438Q74.128906 1.9335938 73.808594 2.0703125Q73.488281 2.2070312 73.320312 2.4882812Q73.152344 2.7695312 73.152344 3.2382812Q73.152344 3.8398438 73.429688 4.1328125Q73.707031 4.4257812 74.167969 4.4257812Q74.683594 4.4257812 75.109375 4.1445312Q75.535156 3.8632812 75.777344 3.3671875Q76.019531 2.8710938 76.019531 2.3164062L76.019531 1.8867188ZM82.574219 5.9414062Q81.605469 5.9414062 81.082031 5.4140625Q80.558594 4.8867188 80.558594 3.8164062L80.558594 -1.1679688L79.488281 -1.1679688L79.488281 -2.6523438L80.667969 -2.6523438L81.355469 -4.6367188L82.730469 -4.6367188L82.730469 -2.6523438L84.332031 -2.6523438L84.332031 -1.1679688L82.730469 -1.1679688L82.730469 3.2226562Q82.730469 3.8398438 82.964844 4.1328125Q83.199219 4.4257812 83.691406 4.4257812Q83.949219 4.4257812 84.425781 4.3164062L84.425781 5.6757812Q83.613281 5.9414062 82.574219 5.9414062ZM85.738281 -4.1757812L85.738281 -5.7929688L87.933594 -5.7929688L87.933594 -4.1757812L85.738281 -4.1757812ZM85.738281 5.8007812L85.738281 -2.6523438L87.933594 -2.6523438L87.933594 5.8007812L85.738281 5.8007812ZM94.777344 5.8007812L92.152344 5.8007812L89.128906 -2.6523438L91.449219 -2.6523438L92.925781 2.0742188Q93.042969 2.4648438 93.480469 4.0273438Q93.558594 3.7070312 93.800781 2.9023438Q94.042969 2.0976562 95.597656 -2.6523438L97.894531 -2.6523438L94.777344 5.8007812ZM102.54297 5.9570312Q100.63672 5.9570312 99.613281 4.828125Q98.589844 3.6992188 98.589844 1.5351562Q98.589844 -0.55859375 99.628906 -1.6835938Q100.66797 -2.8085938 102.57422 -2.8085938Q104.39453 -2.8085938 105.35547 -1.6015625Q106.31641 -0.39453125 106.31641 1.9335938L106.31641 1.9960938L100.89453 1.9960938Q100.89453 3.2304688 101.35156 3.859375Q101.80859 4.4882812 102.65234 4.4882812Q103.81641 4.4882812 104.12109 3.4804688L106.19141 3.6601562Q105.29297 5.9570312 102.54297 5.9570312ZM102.54297 -1.4257812Q101.76953 -1.4257812 101.35156 -0.88671875Q100.93359 -0.34765625 100.91016 0.62109375L104.19141 0.62109375Q104.12891 -0.40234375 103.69922 -0.9140625Q103.26953 -1.4257812 102.54297 -1.4257812ZM115.10547 3.3320312Q115.10547 4.5585938 114.10156 5.2578125Q113.09766 5.9570312 111.32422 5.9570312Q109.58203 5.9570312 108.65625 5.40625Q107.73047 4.8554688 107.42578 3.6914062L109.35547 3.4023438Q109.51953 4.0039062 109.92188 4.2539062Q110.32422 4.5039062 111.32422 4.5039062Q112.24609 4.5039062 112.66797 4.2695312Q113.08984 4.0351562 113.08984 3.5351562Q113.08984 3.1289062 112.75 2.890625Q112.41016 2.6523438 111.59766 2.4882812Q109.73828 2.1210938 109.08984 1.8046875Q108.44141 1.4882812 108.10156 0.984375Q107.76172 0.48046875 107.76172 -0.25390625Q107.76172 -1.4648438 108.69531 -2.140625Q109.62891 -2.8164062 111.33984 -2.8164062Q112.84766 -2.8164062 113.76562 -2.2304688Q114.68359 -1.6445312 114.91016 -0.53515625L112.96484 -0.33203125Q112.87109 -0.84765625 112.50391 -1.1015625Q112.13672 -1.3554688 111.33984 -1.3554688Q110.55859 -1.3554688 110.16797 -1.15625Q109.77734 -0.95703125 109.77734 -0.48828125Q109.77734 -0.12109375 110.07812 0.09375Q110.37891 0.30859375 111.08984 0.44921875Q112.08203 0.65234375 112.85156 0.8671875Q113.62109 1.0820312 114.08594 1.3789062Q114.55078 1.6757812 114.82812 2.140625Q115.10547 2.6054688 115.10547 3.3320312ZM120.83203 2.6054688L120.83203 0.69921875L124.89453 0.69921875L124.89453 2.6054688L120.83203 2.6054688ZM133.35547 -3.4257812L133.35547 -0.01953125L138.98828 -0.01953125L138.98828 1.7617188L133.35547 1.7617188L133.35547 5.8007812L131.05078 5.8007812L131.05078 -5.2070312L139.16797 -5.2070312L139.16797 -3.4257812L133.35547 -3.4257812ZM151.52734 0.24609375Q151.52734 1.9648438 150.84766 3.2695312Q150.16797 4.5742188 148.90234 5.265625Q147.63672 5.9570312 145.94922 5.9570312Q143.35547 5.9570312 141.88281 4.4296875Q140.41016 2.9023438 140.41016 0.24609375Q140.41016 -2.4023438 141.87891 -3.8867188Q143.34766 -5.3710938 145.96484 -5.3710938Q148.58203 -5.3710938 150.05469 -3.8710938Q151.52734 -2.3710938 151.52734 0.24609375ZM149.17578 0.24609375Q149.17578 -1.5351562 148.33203 -2.546875Q147.48828 -3.5585938 145.96484 -3.5585938Q144.41797 -3.5585938 143.57422 -2.5546875Q142.73047 -1.5507812 142.73047 0.24609375Q142.73047 2.0585938 143.59375 3.1015625Q144.45703 4.1445312 145.94922 4.1445312Q147.49609 4.1445312 148.33594 3.1289062Q149.17578 2.1132812 149.17578 0.24609375ZM160.83203 5.8007812L158.27734 1.6210938L155.57422 1.6210938L155.57422 5.8007812L153.26953 5.8007812L153.26953 -5.2070312L158.76953 -5.2070312Q160.73828 -5.2070312 161.80859 -4.359375Q162.87891 -3.5117188 162.87891 -1.9257812Q162.87891 -0.76953125 162.22266 0.0703125Q161.56641 0.91015625 160.44922 1.1757812L163.42578 5.8007812L160.83203 5.8007812ZM160.55859 -1.8320312Q160.55859 -3.4179688 158.52734 -3.4179688L155.57422 -3.4179688L155.57422 -0.16796875L158.58984 -0.16796875Q159.55859 -0.16796875 160.05859 -0.60546875Q160.55859 -1.0429688 160.55859 -1.8320312ZM173.96484 5.8007812L173.96484 -0.87109375Q173.96484 -1.0976562 173.96875 -1.3242188Q173.97266 -1.5507812 174.04297 -3.2695312Q173.48828 -1.1679688 173.22266 -0.33984375L171.23828 5.8007812L169.59766 5.8007812L167.61328 -0.33984375L166.77734 -3.2695312Q166.87109 -1.4570312 166.87109 -0.87109375L166.87109 5.8007812L164.82422 5.8007812L164.82422 -5.2070312L167.91016 -5.2070312L169.87891 0.94921875L170.05078 1.5429688L170.42578 3.0195312L170.91797 1.2539062L172.94141 -5.2070312L176.01172 -5.2070312L176.01172 5.8007812L173.96484 5.8007812ZM185.93359 5.8007812L184.95703 2.9882812L180.76172 2.9882812L179.78516 5.8007812L177.48047 5.8007812L181.49609 -5.2070312L184.21484 -5.2070312L188.21484 5.8007812L185.93359 5.8007812ZM182.85547 -3.5117188L182.80859 -3.3398438Q182.73047 -3.0585938 182.62109 -2.6992188Q182.51172 -2.3398438 181.27734 1.2539062L184.44141 1.2539062L183.35547 -1.9101562L183.01953 -2.9726562L182.85547 -3.5117188ZM193.48828 -3.4257812L193.48828 5.8007812L191.18359 5.8007812L191.18359 -3.4257812L187.62891 -3.4257812L187.62891 -5.2070312L197.05078 -5.2070312L197.05078 -3.4257812L193.48828 -3.4257812ZM212.55078 0.21484375Q212.55078 1.9179688 211.88281 3.1875Q211.21484 4.4570312 209.99219 5.1289062Q208.76953 5.8007812 207.19141 5.8007812L202.73828 5.8007812L202.73828 -5.2070312L206.72266 -5.2070312Q209.50391 -5.2070312 211.02734 -3.8046875Q212.55078 -2.4023438 212.55078 0.21484375ZM210.23047 0.21484375Q210.23047 -1.5585938 209.30859 -2.4921875Q208.38672 -3.4257812 206.67578 -3.4257812L205.04297 -3.4257812L205.04297 4.0195312L206.99609 4.0195312Q208.48047 4.0195312 209.35547 2.9960938Q210.23047 1.9726562 210.23047 0.21484375ZM222.37109 1.5664062Q222.37109 3.6210938 221.23047 4.7890625Q220.08984 5.9570312 218.07422 5.9570312Q216.09766 5.9570312 214.97266 4.7851562Q213.84766 3.6132812 213.84766 1.5664062Q213.84766 -0.47265625 214.97266 -1.640625Q216.09766 -2.8085938 218.12109 -2.8085938Q220.19141 -2.8085938 221.28125 -1.6796875Q222.37109 -0.55078125 222.37109 1.5664062ZM220.07422 1.5664062Q220.07422 0.05859375 219.58203 -0.62109375Q219.08984 -1.3007812 218.15234 -1.3007812Q216.15234 -1.3007812 216.15234 1.5664062Q216.15234 2.9804688 216.64062 3.71875Q217.12891 4.4570312 218.05078 4.4570312Q220.07422 4.4570312 220.07422 1.5664062ZM233.25391 5.8007812L230.93359 5.8007812L229.58984 0.64453125Q229.49609 0.29296875 229.22266 -1.0898438L228.81641 0.66015625L227.45703 5.8007812L225.13672 5.8007812L222.94922 -2.6523438L225.01172 -2.6523438L226.40234 3.8085938L226.51172 3.2304688L226.70703 2.3164062L228.03516 -2.6523438L230.38672 -2.6523438L231.68359 2.3164062Q231.79297 2.7226562 232.00391 3.8085938L232.22266 2.7773438L233.44141 -2.6523438L235.47266 -2.6523438L233.25391 5.8007812ZM242.03516 5.8007812L242.03516 1.0585938Q242.03516 -1.1679688 240.52734 -1.1679688Q239.73047 -1.1679688 239.24219 -0.484375Q238.75391 0.19921875 238.75391 1.2695312L238.75391 5.8007812L236.55859 5.8007812L236.55859 -0.76171875Q236.55859 -1.4414062 236.53906 -1.875Q236.51953 -2.3085938 236.49609 -2.6523438L238.58984 -2.6523438Q238.61328 -2.5039062 238.65234 -1.859375Q238.69141 -1.2148438 238.69141 -0.97265625L238.72266 -0.97265625Q239.16797 -1.9414062 239.83984 -2.3789062Q240.51172 -2.8164062 241.44141 -2.8164062Q242.78516 -2.8164062 243.50391 -1.9882812Q244.22266 -1.1601562 244.22266 0.43359375L244.22266 5.8007812L242.03516 5.8007812ZM246.33203 5.8007812L246.33203 -5.7929688L248.52734 -5.7929688L248.52734 5.8007812L246.33203 5.8007812ZM258.80859 1.5664062Q258.80859 3.6210938 257.66797 4.7890625Q256.52734 5.9570312 254.51172 5.9570312Q252.53516 5.9570312 251.41016 4.7851562Q250.28516 3.6132812 250.28516 1.5664062Q250.28516 -0.47265625 251.41016 -1.640625Q252.53516 -2.8085938 254.55859 -2.8085938Q256.62891 -2.8085938 257.71875 -1.6796875Q258.80859 -0.55078125 258.80859 1.5664062ZM256.51172 1.5664062Q256.51172 0.05859375 256.01953 -0.62109375Q255.52734 -1.3007812 254.58984 -1.3007812Q252.58984 -1.3007812 252.58984 1.5664062Q252.58984 2.9804688 253.07812 3.71875Q253.56641 4.4570312 254.48828 4.4570312Q256.51172 4.4570312 256.51172 1.5664062ZM262.50391 5.9570312Q261.27734 5.9570312 260.58984 5.2890625Q259.90234 4.6210938 259.90234 3.4101562Q259.90234 2.0976562 260.75781 1.4101562Q261.61328 0.72265625 263.23828 0.70703125L265.05859 0.67578125L265.05859 0.24609375Q265.05859 -0.58203125 264.76953 -0.984375Q264.48047 -1.3867188 263.82422 -1.3867188Q263.21484 -1.3867188 262.92969 -1.109375Q262.64453 -0.83203125 262.57422 -0.19140625L260.28516 -0.30078125Q260.49609 -1.5351562 261.41406 -2.171875Q262.33203 -2.8085938 263.91797 -2.8085938Q265.51953 -2.8085938 266.38672 -2.0195312Q267.25391 -1.2304688 267.25391 0.22265625L267.25391 3.3007812Q267.25391 4.0117188 267.41406 4.28125Q267.57422 4.5507812 267.94922 4.5507812Q268.19922 4.5507812 268.43359 4.5039062L268.43359 5.6914062Q268.23828 5.7382812 268.08203 5.7773438Q267.92578 5.8164062 267.76953 5.8398438Q267.61328 5.8632812 267.4375 5.8789062Q267.26172 5.8945312 267.02734 5.8945312Q266.19922 5.8945312 265.80469 5.4882812Q265.41016 5.0820312 265.33203 4.2929688L265.28516 4.2929688Q264.36328 5.9570312 262.50391 5.9570312ZM265.05859 1.8867188L263.93359 1.9023438Q263.16797 1.9335938 262.84766 2.0703125Q262.52734 2.2070312 262.35938 2.4882812Q262.19141 2.7695312 262.19141 3.2382812Q262.19141 3.8398438 262.46875 4.1328125Q262.74609 4.4257812 263.20703 4.4257812Q263.72266 4.4257812 264.14844 4.1445312Q264.57422 3.8632812 264.81641 3.3671875Q265.05859 2.8710938 265.05859 2.3164062L265.05859 1.8867188ZM274.92578 5.8007812Q274.89453 5.6835938 274.85156 5.2109375Q274.80859 4.7382812 274.80859 4.4257812L274.77734 4.4257812Q274.06641 5.9570312 272.07422 5.9570312Q270.59766 5.9570312 269.79297 4.8046875Q268.98828 3.6523438 268.98828 1.5820312Q268.98828 -0.51953125 269.83594 -1.6640625Q270.68359 -2.8085938 272.23828 -2.8085938Q273.13672 -2.8085938 273.78906 -2.4335938Q274.44141 -2.0585938 274.79297 -1.3164062L274.80859 -1.3164062L274.79297 -2.7070312L274.79297 -5.7929688L276.98828 -5.7929688L276.98828 3.9570312Q276.98828 4.7382812 277.05078 5.8007812L274.92578 5.8007812ZM274.82422 1.5273438Q274.82422 0.16015625 274.36719 -0.578125Q273.91016 -1.3164062 273.01953 -1.3164062Q272.13672 -1.3164062 271.70703 -0.6015625Q271.27734 0.11328125 271.27734 1.5820312Q271.27734 4.4570312 273.00391 4.4570312Q273.87109 4.4570312 274.34766 3.6953125Q274.82422 2.9335938 274.82422 1.5273438ZM288.58984 -3.4257812L288.58984 5.8007812L286.28516 5.8007812L286.28516 -3.4257812L282.73047 -3.4257812L282.73047 -5.2070312L292.15234 -5.2070312L292.15234 -3.4257812L288.58984 -3.4257812ZM292.55859 5.8007812L292.55859 -0.66796875Q292.55859 -1.3632812 292.53906 -1.828125Q292.51953 -2.2929688 292.49609 -2.6523438L294.58984 -2.6523438Q294.61328 -2.5117188 294.65234 -1.796875Q294.69141 -1.0820312 294.69141 -0.84765625L294.72266 -0.84765625Q295.04297 -1.7382812 295.29297 -2.1015625Q295.54297 -2.4648438 295.88672 -2.640625Q296.23047 -2.8164062 296.74609 -2.8164062Q297.16797 -2.8164062 297.42578 -2.6992188L297.42578 -0.86328125Q296.89453 -0.98046875 296.48828 -0.98046875Q295.66797 -0.98046875 295.21094 -0.31640625Q294.75391 0.34765625 294.75391 1.6523438L294.75391 5.8007812L292.55859 5.8007812ZM302.24609 5.9570312Q300.33984 5.9570312 299.31641 4.828125Q298.29297 3.6992188 298.29297 1.5351562Q298.29297 -0.55859375 299.33203 -1.6835938Q300.37109 -2.8085938 302.27734 -2.8085938Q304.09766 -2.8085938 305.05859 -1.6015625Q306.01953 -0.39453125 306.01953 1.9335938L306.01953 1.9960938L300.59766 1.9960938Q300.59766 3.2304688 301.05469 3.859375Q301.51172 4.4882812 302.35547 4.4882812Q303.51953 4.4882812 303.82422 3.4804688L305.89453 3.6601562Q304.99609 5.9570312 302.24609 5.9570312ZM302.24609 -1.4257812Q301.47266 -1.4257812 301.05469 -0.88671875Q300.63672 -0.34765625 300.61328 0.62109375L303.89453 0.62109375Q303.83203 -0.40234375 303.40234 -0.9140625Q302.97266 -1.4257812 302.24609 -1.4257812ZM313.16016 5.8007812L313.16016 1.0585938Q313.16016 -1.1679688 311.65234 -1.1679688Q310.85547 -1.1679688 310.36719 -0.484375Q309.87891 0.19921875 309.87891 1.2695312L309.87891 5.8007812L307.68359 5.8007812L307.68359 -0.76171875Q307.68359 -1.4414062 307.66406 -1.875Q307.64453 -2.3085938 307.62109 -2.6523438L309.71484 -2.6523438Q309.73828 -2.5039062 309.77734 -1.859375Q309.81641 -1.2148438 309.81641 -0.97265625L309.84766 -0.97265625Q310.29297 -1.9414062 310.96484 -2.3789062Q311.63672 -2.8164062 312.56641 -2.8164062Q313.91016 -2.8164062 314.62891 -1.9882812Q315.34766 -1.1601562 315.34766 0.43359375L315.34766 5.8007812L313.16016 5.8007812ZM322.93359 5.8007812Q322.90234 5.6835938 322.85938 5.2109375Q322.81641 4.7382812 322.81641 4.4257812L322.78516 4.4257812Q322.07422 5.9570312 320.08203 5.9570312Q318.60547 5.9570312 317.80078 4.8046875Q316.99609 3.6523438 316.99609 1.5820312Q316.99609 -0.51953125 317.84375 -1.6640625Q318.69141 -2.8085938 320.24609 -2.8085938Q321.14453 -2.8085938 321.79688 -2.4335938Q322.44922 -2.0585938 322.80078 -1.3164062L322.81641 -1.3164062L322.80078 -2.7070312L322.80078 -5.7929688L324.99609 -5.7929688L324.99609 3.9570312Q324.99609 4.7382812 325.05859 5.8007812L322.93359 5.8007812ZM322.83203 1.5273438Q322.83203 0.16015625 322.375 -0.578125Q321.91797 -1.3164062 321.02734 -1.3164062Q320.14453 -1.3164062 319.71484 -0.6015625Q319.28516 0.11328125 319.28516 1.5820312Q319.28516 4.4570312 321.01172 4.4570312Q321.87891 4.4570312 322.35547 3.6953125Q322.83203 2.9335938 322.83203 1.5273438ZM334.35547 3.3320312Q334.35547 4.5585938 333.35156 5.2578125Q332.34766 5.9570312 330.57422 5.9570312Q328.83203 5.9570312 327.90625 5.40625Q326.98047 4.8554688 326.67578 3.6914062L328.60547 3.4023438Q328.76953 4.0039062 329.17188 4.2539062Q329.57422 4.5039062 330.57422 4.5039062Q331.49609 4.5039062 331.91797 4.2695312Q332.33984 4.0351562 332.33984 3.5351562Q332.33984 3.1289062 332 2.890625Q331.66016 2.6523438 330.84766 2.4882812Q328.98828 2.1210938 328.33984 1.8046875Q327.69141 1.4882812 327.35156 0.984375Q327.01172 0.48046875 327.01172 -0.25390625Q327.01172 -1.4648438 327.94531 -2.140625Q328.87891 -2.8164062 330.58984 -2.8164062Q332.09766 -2.8164062 333.01562 -2.2304688Q333.93359 -1.6445312 334.16016 -0.53515625L332.21484 -0.33203125Q332.12109 -0.84765625 331.75391 -1.1015625Q331.38672 -1.3554688 330.58984 -1.3554688Q329.80859 -1.3554688 329.41797 -1.15625Q329.02734 -0.95703125 329.02734 -0.48828125Q329.02734 -0.12109375 329.32812 0.09375Q329.62891 0.30859375 330.33984 0.44921875Q331.33203 0.65234375 332.10156 0.8671875Q332.87109 1.0820312 333.33594 1.3789062Q333.80078 1.6757812 334.07812 2.140625Q334.35547 2.6054688 334.35547 3.3320312Z"/>
	<path fill="none" stroke="black" stroke-width="1" stroke-miterlimit="10" stroke-opacity="0.10196079" d="M49 749.5L1195 749.5"/>
	<clipPath id="cl_164">
		<rect y="749.20001" width="1200" height="50.799988"/>
	</clipPath>
	<g clip-path="url(#cl_164)">
		<path fill="#666" transform="translate(49.75 760.2)" d="M-12.751953 11.300586L-14 11.300586L-16.302734 4.960742L-15.177734 4.960742L-13.783203 9.085742Q-13.707031 9.320117 -13.378906 10.474414L-13.173828 9.788867L-12.945312 9.0974607L-11.503906 4.960742L-10.384766 4.960742L-12.751953 11.300586ZM-4.1386719 7.1697264Q-4.1386719 9.2380857 -4.8681641 10.327929Q-5.5976562 11.417773 -7.0214844 11.417773Q-8.4453125 11.417773 -9.1601562 10.333789Q-9.875 9.2498045 -9.875 7.1697264Q-9.875 5.0427732 -9.1806641 3.9822264Q-8.4863281 2.9216795 -6.9863281 2.9216795Q-5.5273438 2.9216795 -4.8330078 3.9939451Q-4.1386719 5.0662107 -4.1386719 7.1697264ZM-5.2109375 7.1697264Q-5.2109375 5.382617 -5.6240234 4.5798826Q-6.0371094 3.7771482 -6.9863281 3.7771482Q-7.9589844 3.7771482 -8.3837891 4.5681639Q-8.8085938 5.3591795 -8.8085938 7.1697264Q-8.8085938 8.9275389 -8.3779297 9.741992Q-7.9472656 10.556445 -7.0097656 10.556445Q-6.078125 10.556445 -5.6445312 9.7244139Q-5.2109375 8.8923826 -5.2109375 7.1697264ZM-2.5742188 11.300586L-2.5742188 10.017383L-1.4316406 10.017383L-1.4316406 11.300586L-2.5742188 11.300586ZM0.578125 11.300586L0.578125 10.404101L2.6816406 10.404101L2.6816406 4.0525389L0.81835938 5.382617L0.81835938 4.3865232L2.7695312 3.0447264L3.7421875 3.0447264L3.7421875 10.404101L5.7519531 10.404101L5.7519531 11.300586L0.578125 11.300586ZM7.4335938 11.300586L7.4335938 10.017383L8.5761719 10.017383L8.5761719 11.300586L7.4335938 11.300586ZM15.876953 7.1697264Q15.876953 9.2380857 15.147461 10.327929Q14.417969 11.417773 12.994141 11.417773Q11.570312 11.417773 10.855469 10.333789Q10.140625 9.2498045 10.140625 7.1697264Q10.140625 5.0427732 10.834961 3.9822264Q11.529297 2.9216795 13.029297 2.9216795Q14.488281 2.9216795 15.182617 3.9939451Q15.876953 5.0662107 15.876953 7.1697264ZM14.804688 7.1697264Q14.804688 5.382617 14.391602 4.5798826Q13.978516 3.7771482 13.029297 3.7771482Q12.056641 3.7771482 11.631836 4.5681639Q11.207031 5.3591795 11.207031 7.1697264Q11.207031 8.9275389 11.637695 9.741992Q12.068359 10.556445 13.005859 10.556445Q13.9375 10.556445 14.371094 9.7244139Q14.804688 8.8923826 14.804688 7.1697264Z"/>
	</g>
	<path fill="none" stroke="black" stroke-width="1" stroke-miterlimit="10" stroke-opacity="0.10196079" d="M49.5 71L49.5 750"/>
	<clipPath id="cl_166">
		<rect width="49.75" height="800"/>
	</clipPath>
	<g clip-path="url(#cl_166)">
		<path fill="#666" transform="translate(38.75 749.2)" d="M-0.46679688 -0.030273438Q-0.46679688 2.0380859 -1.1962891 3.1279297Q-1.9257812 4.2177734 -3.3496094 4.2177734Q-4.7734375 4.2177734 -5.4882812 3.1337891Q-6.203125 2.0498047 -6.203125 -0.030273438Q-6.203125 -2.1572266 -5.5087891 -3.2177734Q-4.8144531 -4.2783203 -3.3144531 -4.2783203Q-1.8554688 -4.2783203 -1.1611328 -3.2060547Q-0.46679688 -2.1337891 -0.46679688 -0.030273438ZM-1.5390625 -0.030273438Q-1.5390625 -1.8173828 -1.9521484 -2.6201172Q-2.3652344 -3.4228516 -3.3144531 -3.4228516Q-4.2871094 -3.4228516 -4.7119141 -2.6318359Q-5.1367188 -1.8408203 -5.1367188 -0.030273438Q-5.1367188 1.7275391 -4.7060547 2.5419922Q-4.2753906 3.3564453 -3.3378906 3.3564453Q-2.40625 3.3564453 -1.9726562 2.5244141Q-1.5390625 1.6923828 -1.5390625 -0.030273438Z"/>
	</g>
	<clipPath id="cl_167">
		<rect width="49.75" height="800"/>
	</clipPath>
	<g clip-path="url(#cl_167)">
		<path fill="#666" transform="translate(38.75 681.4)" d="M-5.7578125 4.1005859L-5.7578125 3.2041016L-3.6542969 3.2041016L-3.6542969 -3.1474609L-5.5175781 -1.8173828L-5.5175781 -2.8134766L-3.5664062 -4.1552734L-2.59375 -4.1552734L-2.59375 3.2041016L-0.58398438 3.2041016L-0.58398438 4.1005859L-5.7578125 4.1005859Z"/>
	</g>
	<clipPath id="cl_168">
		<rect width="49.75" height="800"/>
	</clipPath>
	<g clip-path="url(#cl_168)">
		<path fill="#666" transform="translate(38.75 613.6)" d="M-6.0683594 4.1005859L-6.0683594 3.3564453Q-5.7695312 2.6708984 -5.3388672 2.1464844Q-4.9082031 1.6220703 -4.4335938 1.1972656Q-3.9589844 0.77246094 -3.4931641 0.40917969Q-3.0273438 0.045898438 -2.6523438 -0.31738281Q-2.2773438 -0.68066406 -2.0458984 -1.0791016Q-1.8144531 -1.4775391 -1.8144531 -1.9814453Q-1.8144531 -2.6611328 -2.2128906 -3.0361328Q-2.6113281 -3.4111328 -3.3203125 -3.4111328Q-3.9941406 -3.4111328 -4.4306641 -3.0449219Q-4.8671875 -2.6787109 -4.9433594 -2.0166016L-6.0214844 -2.1162109Q-5.9042969 -3.1064453 -5.1806641 -3.6923828Q-4.4570312 -4.2783203 -3.3203125 -4.2783203Q-2.0722656 -4.2783203 -1.4013672 -3.6894531Q-0.73046875 -3.1005859 -0.73046875 -2.0166016Q-0.73046875 -1.5361328 -0.95019531 -1.0615234Q-1.1699219 -0.58691406 -1.6035156 -0.11230469Q-2.0371094 0.36230469 -3.2617188 1.3583984Q-3.9355469 1.9091797 -4.3339844 2.3515625Q-4.7324219 2.7939453 -4.9082031 3.2041016L-0.6015625 3.2041016L-0.6015625 4.1005859L-6.0683594 4.1005859Z"/>
	</g>
	<clipPath id="cl_169">
		<rect width="49.75" height="800"/>
	</clipPath>
	<g clip-path="url(#cl_169)">
		<path fill="#666" transform="translate(38.75 545.8)" d="M-0.52539062 1.8212891Q-0.52539062 2.9638672 -1.2519531 3.5908203Q-1.9785156 4.2177734 -3.3261719 4.2177734Q-4.5800781 4.2177734 -5.3271484 3.6523438Q-6.0742188 3.0869141 -6.2148438 1.9794922L-5.125 1.8798828Q-4.9140625 3.3447266 -3.3261719 3.3447266Q-2.5292969 3.3447266 -2.0751953 2.9521484Q-1.6210938 2.5595703 -1.6210938 1.7861328Q-1.6210938 1.1123047 -2.1396484 0.734375Q-2.6582031 0.35644531 -3.6367188 0.35644531L-4.234375 0.35644531L-4.234375 -0.55761719L-3.6601562 -0.55761719Q-2.7929688 -0.55761719 -2.3154297 -0.93554688Q-1.8378906 -1.3134766 -1.8378906 -1.9814453Q-1.8378906 -2.6435547 -2.2275391 -3.0273438Q-2.6171875 -3.4111328 -3.3847656 -3.4111328Q-4.0820312 -3.4111328 -4.5126953 -3.0537109Q-4.9433594 -2.6962891 -5.0136719 -2.0458984L-6.0742188 -2.1279297Q-5.9570312 -3.1416016 -5.2333984 -3.7099609Q-4.5097656 -4.2783203 -3.3730469 -4.2783203Q-2.1308594 -4.2783203 -1.4423828 -3.7011719Q-0.75390625 -3.1240234 -0.75390625 -2.0927734Q-0.75390625 -1.3017578 -1.1962891 -0.80664062Q-1.6386719 -0.31152344 -2.4824219 -0.13574219L-2.4824219 -0.11230469Q-1.5566406 -0.012695312 -1.0410156 0.50878906Q-0.52539062 1.0302734 -0.52539062 1.8212891Z"/>
	</g>
	<clipPath id="cl_16a">
		<rect width="49.75" height="800"/>
	</clipPath>
	<g clip-path="url(#cl_16a)">
		<path fill="#666" transform="translate(38.75 478)" d="M-1.5097656 2.2314453L-1.5097656 4.1005859L-2.5058594 4.1005859L-2.5058594 2.2314453L-6.3964844 2.2314453L-6.3964844 1.4111328L-2.6171875 -4.1552734L-1.5097656 -4.1552734L-1.5097656 1.3994141L-0.34960938 1.3994141L-0.34960938 2.2314453L-1.5097656 2.2314453ZM-2.5058594 -2.9658203Q-2.5175781 -2.9306641 -2.6699219 -2.6552734Q-2.8222656 -2.3798828 -2.8984375 -2.2685547L-5.0136719 0.84863281L-5.3300781 1.2822266L-5.4238281 1.3994141L-2.5058594 1.3994141L-2.5058594 -2.9658203Z"/>
	</g>
	<clipPath id="cl_16b">
		<rect width="49.75" height="800"/>
	</clipPath>
	<g clip-path="url(#cl_16b)">
		<path fill="#666" transform="translate(38.75 410.2)" d="M-0.50195312 1.4111328Q-0.50195312 2.7177734 -1.2783203 3.4677734Q-2.0546875 4.2177734 -3.4316406 4.2177734Q-4.5859375 4.2177734 -5.2949219 3.7138672Q-6.0039062 3.2099609 -6.1914062 2.2548828L-5.125 2.1318359Q-4.7910156 3.3564453 -3.4082031 3.3564453Q-2.5585938 3.3564453 -2.078125 2.84375Q-1.5976562 2.3310547 -1.5976562 1.4345703Q-1.5976562 0.65527344 -2.0810547 0.17480469Q-2.5644531 -0.30566406 -3.3847656 -0.30566406Q-3.8125 -0.30566406 -4.1816406 -0.17089844Q-4.5507812 -0.036132812 -4.9199219 0.28613281L-5.9511719 0.28613281L-5.6757812 -4.1552734L-0.98242188 -4.1552734L-0.98242188 -3.2587891L-4.7148438 -3.2587891L-4.8730469 -0.63964844Q-4.1875 -1.1669922 -3.1679688 -1.1669922Q-1.9492188 -1.1669922 -1.2255859 -0.45214844Q-0.50195312 0.26269531 -0.50195312 1.4111328Z"/>
	</g>
	<clipPath id="cl_16c">
		<rect width="49.75" height="800"/>
	</clipPath>
	<g clip-path="url(#cl_16c)">
		<path fill="#666" transform="translate(38.75 342.4)" d="M-0.52539062 1.3994141Q-0.52539062 2.7060547 -1.234375 3.4619141Q-1.9433594 4.2177734 -3.1914062 4.2177734Q-4.5859375 4.2177734 -5.3242188 3.1806641Q-6.0625 2.1435547 -6.0625 0.16308594Q-6.0625 -1.9814453 -5.2949219 -3.1298828Q-4.5273438 -4.2783203 -3.109375 -4.2783203Q-1.2402344 -4.2783203 -0.75390625 -2.5966797L-1.7617188 -2.4150391Q-2.0722656 -3.4228516 -3.1210938 -3.4228516Q-4.0234375 -3.4228516 -4.5185547 -2.5820312Q-5.0136719 -1.7412109 -5.0136719 -0.14746094Q-4.7265625 -0.68066406 -4.2050781 -0.95898438Q-3.6835938 -1.2373047 -3.0097656 -1.2373047Q-1.8671875 -1.2373047 -1.1962891 -0.52246094Q-0.52539062 0.19238281 -0.52539062 1.3994141ZM-1.5976562 1.4462891Q-1.5976562 0.54980469 -2.0371094 0.063476562Q-2.4765625 -0.42285156 -3.2617188 -0.42285156Q-4 -0.42285156 -4.4541016 0.0078125Q-4.9082031 0.43847656 -4.9082031 1.1943359Q-4.9082031 2.1494141 -4.4365234 2.7587891Q-3.9648438 3.3681641 -3.2265625 3.3681641Q-2.4648438 3.3681641 -2.03125 2.8554688Q-1.5976562 2.3427734 -1.5976562 1.4462891Z"/>
	</g>
	<clipPath id="cl_16d">
		<rect width="49.75" height="800"/>
	</clipPath>
	<g clip-path="url(#cl_16d)">
		<path fill="#666" transform="translate(38.75 274.6)" d="M-0.6015625 -3.2998047Q-1.8671875 -1.3662109 -2.3886719 -0.27050781Q-2.9101562 0.82519531 -3.1708984 1.8916016Q-3.4316406 2.9580078 -3.4316406 4.1005859L-4.5332031 4.1005859Q-4.5332031 2.5185547 -3.8623047 0.76953125Q-3.1914062 -0.97949219 -1.6210938 -3.2587891L-6.0566406 -3.2587891L-6.0566406 -4.1552734L-0.6015625 -4.1552734L-0.6015625 -3.2998047Z"/>
	</g>
	<clipPath id="cl_16e">
		<rect width="49.75" height="800"/>
	</clipPath>
	<g clip-path="url(#cl_16e)">
		<path fill="#666" transform="translate(38.75 206.8)" d="M-0.51953125 1.7978516Q-0.51953125 2.9404297 -1.2460938 3.5791016Q-1.9726562 4.2177734 -3.3320312 4.2177734Q-4.65625 4.2177734 -5.4033203 3.5908203Q-6.1503906 2.9638672 -6.1503906 1.8095703Q-6.1503906 1.0009766 -5.6875 0.45019531Q-5.2246094 -0.10058594 -4.5039062 -0.21777344L-4.5039062 -0.24121094Q-5.1777344 -0.39941406 -5.5673828 -0.92675781Q-5.9570312 -1.4541016 -5.9570312 -2.1630859Q-5.9570312 -3.1064453 -5.2509766 -3.6923828Q-4.5449219 -4.2783203 -3.3554688 -4.2783203Q-2.1367188 -4.2783203 -1.4306641 -3.7041016Q-0.72460938 -3.1298828 -0.72460938 -2.1513672Q-0.72460938 -1.4423828 -1.1171875 -0.91503906Q-1.5097656 -0.38769531 -2.1894531 -0.25292969L-2.1894531 -0.22949219Q-1.3984375 -0.10058594 -0.95898438 0.44140625Q-0.51953125 0.98339844 -0.51953125 1.7978516ZM-1.8203125 -2.0927734Q-1.8203125 -3.4931641 -3.3554688 -3.4931641Q-4.0996094 -3.4931641 -4.4892578 -3.1416016Q-4.8789062 -2.7900391 -4.8789062 -2.0927734Q-4.8789062 -1.3837891 -4.4775391 -1.0117188Q-4.0761719 -0.63964844 -3.34375 -0.63964844Q-2.5996094 -0.63964844 -2.2099609 -0.98242188Q-1.8203125 -1.3251953 -1.8203125 -2.0927734ZM-1.6152344 1.6982422Q-1.6152344 0.93066406 -2.0722656 0.54101562Q-2.5292969 0.15136719 -3.3554688 0.15136719Q-4.1582031 0.15136719 -4.609375 0.5703125Q-5.0605469 0.98925781 -5.0605469 1.7216797Q-5.0605469 3.4267578 -3.3203125 3.4267578Q-2.4589844 3.4267578 -2.0371094 3.0136719Q-1.6152344 2.6005859 -1.6152344 1.6982422Z"/>
	</g>
	<clipPath id="cl_16f">
		<rect width="49.75" height="800"/>
	</clipPath>
	<g clip-path="url(#cl_16f)">
		<path fill="#666" transform="translate(38.75 139)" d="M-0.56640625 -0.19433594Q-0.56640625 1.9326172 -1.3427734 3.0751953Q-2.1191406 4.2177734 -3.5546875 4.2177734Q-4.5214844 4.2177734 -5.1044922 3.8105469Q-5.6875 3.4033203 -5.9394531 2.4951172L-4.9316406 2.3369141Q-4.6152344 3.3681641 -3.5371094 3.3681641Q-2.6289062 3.3681641 -2.1308594 2.5244141Q-1.6328125 1.6806641 -1.609375 0.11621094Q-1.84375 0.64355469 -2.4121094 0.96289062Q-2.9804688 1.2822266 -3.6601562 1.2822266Q-4.7734375 1.2822266 -5.4414062 0.52050781Q-6.109375 -0.24121094 -6.109375 -1.5009766Q-6.109375 -2.7958984 -5.3828125 -3.5371094Q-4.65625 -4.2783203 -3.3613281 -4.2783203Q-1.984375 -4.2783203 -1.2753906 -3.2587891Q-0.56640625 -2.2392578 -0.56640625 -0.19433594ZM-1.7148438 -1.2138672Q-1.7148438 -2.2099609 -2.171875 -2.8164062Q-2.6289062 -3.4228516 -3.3964844 -3.4228516Q-4.1582031 -3.4228516 -4.5976562 -2.9042969Q-5.0371094 -2.3857422 -5.0371094 -1.5009766Q-5.0371094 -0.59863281 -4.5976562 -0.07421875Q-4.1582031 0.45019531 -3.4082031 0.45019531Q-2.9511719 0.45019531 -2.5585938 0.2421875Q-2.1660156 0.034179688 -1.9404297 -0.34667969Q-1.7148438 -0.72753906 -1.7148438 -1.2138672Z"/>
	</g>
	<clipPath id="cl_170">
		<rect width="49.75" height="800"/>
	</clipPath>
	<g clip-path="url(#cl_170)">
		<path fill="#666" transform="translate(38.75 71.2)" d="M-12.429688 4.1005859L-12.429688 3.2041016L-10.326172 3.2041016L-10.326172 -3.1474609L-12.189453 -1.8173828L-12.189453 -2.8134766L-10.238281 -4.1552734L-9.265625 -4.1552734L-9.265625 3.2041016L-7.2558594 3.2041016L-7.2558594 4.1005859L-12.429688 4.1005859ZM-0.46484375 -0.030273438Q-0.46484375 2.0380859 -1.1943359 3.1279297Q-1.9238281 4.2177734 -3.3476562 4.2177734Q-4.7714844 4.2177734 -5.4863281 3.1337891Q-6.2011719 2.0498047 -6.2011719 -0.030273438Q-6.2011719 -2.1572266 -5.5068359 -3.2177734Q-4.8125 -4.2783203 -3.3125 -4.2783203Q-1.8535156 -4.2783203 -1.1591797 -3.2060547Q-0.46484375 -2.1337891 -0.46484375 -0.030273438ZM-1.5371094 -0.030273438Q-1.5371094 -1.8173828 -1.9501953 -2.6201172Q-2.3632812 -3.4228516 -3.3125 -3.4228516Q-4.2851562 -3.4228516 -4.7099609 -2.6318359Q-5.1347656 -1.8408203 -5.1347656 -0.030273438Q-5.1347656 1.7275391 -4.7041016 2.5419922Q-4.2734375 3.3564453 -3.3359375 3.3564453Q-2.4042969 3.3564453 -1.9707031 2.5244141Q-1.5371094 1.6923828 -1.5371094 -0.030273438Z"/>
	</g>
	<clipPath id="cl_172">
		<rect x="43.75" y="65.199997" width="1156.25" height="690"/>
	</clipPath>
	<g clip-path="url(#cl_172)">
		<path fill="none" stroke="#C32222" stroke-width="2" stroke-miterlimit="10" d=""/>
	</g>
	<clipPath id="cl_173">
		<rect x="43.75" y="65.199997" width="1156.25" height="690"/>
	</clipPath>
	<g clip-path="url(#cl_173)">
		<path fill="#C32222" fill-opacity="0.2" d="M52.75 613.59998Q52.75 613.74744 52.73555 613.89404Q52.721107 614.04071 52.692352 614.18518Q52.663601 614.32977 52.620815 614.47083Q52.578033 614.61182 52.521633 614.74792Q52.465233 614.88409 52.39576 615.01404Q52.326286 615.14404 52.244404 615.2666Q52.162525 615.38916 52.069027 615.50311Q51.975533 615.61707 51.871319 615.72125Q51.767105 615.82544 51.653179 615.91895Q51.539253 616.01245 51.416706 616.09436Q51.294167 616.17627 51.164188 616.24573Q51.03421 616.31519 50.898048 616.37158Q50.76189 616.42804 50.620857 616.47083Q50.47982 616.51367 50.33527 616.54236Q50.19072 616.57117 50.044052 616.58557Q49.897381 616.59998 49.75 616.59998Q49.602619 616.59998 49.455948 616.58557Q49.309277 616.57117 49.164726 616.54236Q49.02018 616.51367 48.879143 616.47083Q48.73811 616.42804 48.601944 616.37158Q48.465782 616.31519 48.335808 616.24573Q48.205826 616.17627 48.083282 616.09436Q47.960747 616.01245 47.846817 615.91895Q47.732895 615.82544 47.628677 615.72125Q47.524467 615.61707 47.430969 615.50311Q47.337471 615.38916 47.255585 615.2666Q47.173706 615.14404 47.104233 615.0141Q47.03476 614.88409 46.978359 614.74792Q46.921963 614.61182 46.879177 614.47076Q46.836395 614.32977 46.80764 614.18518Q46.778893 614.04071 46.76445 613.89404Q46.75 613.74744 46.75 613.59998Q46.75 613.45264 46.76445 613.30591Q46.778896 613.15918 46.807648 613.01465Q46.836403 612.87012 46.879181 612.72906Q46.921963 612.58801 46.978359 612.45184Q47.03476 612.31567 47.104233 612.18573Q47.173706 612.05579 47.255585 611.93317Q47.337471 611.81067 47.430969 611.69678Q47.524467 611.58289 47.628677 611.47864Q47.732895 611.37445 47.846817 611.28094Q47.960747 611.18744 48.083282 611.10553Q48.205826 611.02368 48.335808 610.95422Q48.465782 610.88477 48.601944 610.82831Q48.73811 610.77197 48.879143 610.72913Q49.02018 610.6864 49.164726 610.65759Q49.309277 610.62891 49.455948 610.61444Q49.602619 610.59998 49.75 610.59998Q49.897381 610.59998 50.044052 610.61444Q50.19072 610.62891 50.335266 610.65759Q50.479816 610.6864 50.620853 610.72913Q50.761887 610.77191 50.898045 610.82825Q51.03421 610.8847 51.164188 610.95416Q51.294167 611.02368 51.416706 611.10547Q51.539253 611.18738 51.653179 611.28088Q51.767105 611.37439 51.871315 611.47858Q51.975533 611.58282 52.069023 611.69678Q52.162521 611.81067 52.2444 611.93311Q52.326279 612.05573 52.395756 612.18573Q52.465233 612.31567 52.521633 612.45184Q52.578033 612.58801 52.620815 612.72906Q52.663597 612.87012 52.692348 613.01465Q52.721107 613.15918 52.73555 613.30591Q52.75 613.45264 52.75 613.59998Z"/>
		<path fill="none" stroke="#C32222" stroke-width="2" stroke-miterlimit="10" d="M52.75 613.59998Q52.75 613.74744 52.73555 613.89404Q52.721107 614.04071 52.692352 614.18518Q52.663601 614.32977 52.620815 614.47083Q52.578033 614.61182 52.521633 614.74792Q52.465233 614.88409 52.39576 615.01404Q52.326286 615.14404 52.244404 615.2666Q52.162525 615.38916 52.069027 615.50311Q51.975533 615.61707 51.871319 615.72125Q51.767105 615.82544 51.653179 615.91895Q51.539253 616.01245 51.416706 616.09436Q51.294167 616.17627 51.164188 616.24573Q51.03421 616.31519 50.898048 616.37158Q50.76189 616.42804 50.620857 616.47083Q50.47982 616.51367 50.33527 616.54236Q50.19072 616.57117 50.044052 616.58557Q49.897381 616.59998 49.75 616.59998Q49.602619 616.59998 49.455948 616.58557Q49.309277 616.57117 49.164726 616.54236Q49.02018 616.51367 48.879143 616.47083Q48.73811 616.42804 48.601944 616.37158Q48.465782 616.31519 48.335808 616.24573Q48.205826 616.17627 48.083282 616.09436Q47.960747 616.01245 47.846817 615.91895Q47.732895 615.82544 47.628677 615.72125Q47.524467 615.61707 47.430969 615.50311Q47.337471 615.38916 47.255585 615.2666Q47.173706 615.14404 47.104233 615.0141Q47.03476 614.88409 46.978359 614.74792Q46.921963 614.61182 46.879177 614.47076Q46.836395 614.32977 46.80764 614.18518Q46.778893 614.04071 46.76445 613.89404Q46.75 613.74744 46.75 613.59998Q46.75 613.45264 46.76445 613.30591Q46.778896 613.15918 46.807648 613.01465Q46.836403 612.87012 46.879181 612.72906Q46.921963 612.58801 46.978359 612.45184Q47.03476 612.31567 47.104233 612.18573Q47.173706 612.05579 47.255585 611.93317Q47.337471 611.81067 47.430969 611.69678Q47.524467 611.58289 47.628677 611.47864Q47.732895 611.37445 47.846817 611.28094Q47.960747 611.18744 48.083282 611.10553Q48.205826 611.02368 48.335808 610.95422Q48.465782 610.88477 48.601944 610.82831Q48.73811 610.77197 48.879143 610.72913Q49.02018 610.6864 49.164726 610.65759Q49.309277 610.62891 49.455948 610.61444Q49.602619 610.59998 49.75 610.59998Q49.897381 610.59998 50.044052 610.61444Q50.19072 610.62891 50.335266 610.65759Q50.479816 610.6864 50.620853 610.72913Q50.761887 610.77191 50.898045 610.82825Q51.03421 610.8847 51.164188 610.95416Q51.294167 611.02368 51.416706 611.10547Q51.539253 611.18738 51.653179 611.28088Q51.767105 611.37439 51.871315 611.47858Q51.975533 611.58282 52.069023 611.69678Q52.162521 611.81067 52.2444 611.93311Q52.326279 612.05573 52.395756 612.18573Q52.465233 612.31567 52.521633 612.45184Q52.578033 612.58801 52.620815 612.72906Q52.663597 612.87012 52.692348 613.01465Q52.721107 613.15918 52.73555 613.30591Q52.75 613.45264 52.75 613.59998Z"/>
	</g>
</svg>
