<?xml version="1.0" encoding="utf-8" ?>
<svg xmlns="http://www.w3.org/2000/svg" xmlns:xlink="http://www.w3.org/1999/xlink" width="1200" height="800">
	<rect fill="white" width="1200" height="800"/>
	<path fill="none" stroke="black" stroke-width="1" stroke-miterlimit="10" stroke-opacity="0.10196079" d="M49.5 71.199997L49.5 749"/>
	<path fill="none" stroke="black" stroke-width="1" stroke-miterlimit="10" stroke-opacity="0.10196079" d="M49.5 750L49.5 757.20001"/>
	<path fill="#666" transform="translate(621.875 788.8)" d="M-26.550781 4.1005859L-28.695312 0.67285156L-31.267578 0.67285156L-31.267578 4.1005859L-32.386719 4.1005859L-32.386719 -4.1552734L-28.501953 -4.1552734Q-27.107422 -4.1552734 -26.348633 -3.53125Q-25.589844 -2.9072266 -25.589844 -1.7939453Q-25.589844 -0.87402344 -26.125977 -0.24707031Q-26.662109 0.37988281 -27.605469 0.54394531L-25.261719 4.1005859L-26.550781 4.1005859ZM-26.714844 -1.7822266Q-26.714844 -2.5029297 -27.204102 -2.8808594Q-27.693359 -3.2587891 -28.613281 -3.2587891L-31.267578 -3.2587891L-31.267578 -0.21191406L-28.566406 -0.21191406Q-27.681641 -0.21191406 -27.198242 -0.625Q-26.714844 -1.0380859 -26.714844 -1.7822266ZM-23.087891 1.1533203Q-23.087891 2.2431641 -22.636719 2.8349609Q-22.185547 3.4267578 -21.318359 3.4267578Q-20.632812 3.4267578 -20.219727 3.1513672Q-19.806641 2.8759766 -19.660156 2.4541016L-18.734375 2.7177734Q-19.302734 4.2177734 -21.318359 4.2177734Q-22.724609 4.2177734 -23.459961 3.3798828Q-24.195312 2.5419922 -24.195312 0.88964844Q-24.195312 -0.68066406 -23.459961 -1.5185547Q-22.724609 -2.3564453 -21.359375 -2.3564453Q-18.564453 -2.3564453 -18.564453 1.0126953L-18.564453 1.1533203L-23.087891 1.1533203ZM-19.654297 0.34472656Q-19.742188 -0.65722656 -20.164062 -1.1171875Q-20.585938 -1.5771484 -21.376953 -1.5771484Q-22.144531 -1.5771484 -22.592773 -1.0644531Q-23.041016 -0.55175781 -23.076172 0.34472656L-19.654297 0.34472656ZM-17.222656 4.1005859L-17.222656 -4.5947266L-16.167969 -4.5947266L-16.167969 4.1005859L-17.222656 4.1005859ZM-13.748047 1.1533203Q-13.748047 2.2431641 -13.296875 2.8349609Q-12.845703 3.4267578 -11.978516 3.4267578Q-11.292969 3.4267578 -10.879883 3.1513672Q-10.466797 2.8759766 -10.320312 2.4541016L-9.3945312 2.7177734Q-9.9628906 4.2177734 -11.978516 4.2177734Q-13.384766 4.2177734 -14.120117 3.3798828Q-14.855469 2.5419922 -14.855469 0.88964844Q-14.855469 -0.68066406 -14.120117 -1.5185547Q-13.384766 -2.3564453 -12.019531 -2.3564453Q-9.2246094 -2.3564453 -9.2246094 1.0126953L-9.2246094 1.1533203L-13.748047 1.1533203ZM-10.314453 0.34472656Q-10.402344 -0.65722656 -10.824219 -1.1171875Q-11.246094 -1.5771484 -12.037109 -1.5771484Q-12.804688 -1.5771484 -13.25293 -1.0644531Q-13.701172 -0.55175781 -13.736328 0.34472656L-10.314453 0.34472656ZM-6.265625 4.2177734Q-7.2207031 4.2177734 -7.7011719 3.7138672Q-8.1816406 3.2099609 -8.1816406 2.3310547Q-8.1816406 1.3466797 -7.5341797 0.81933594Q-6.8867188 0.29199219 -5.4453125 0.25683594L-4.0214844 0.23339844L-4.0214844 -0.11230469Q-4.0214844 -0.88574219 -4.3496094 -1.2197266Q-4.6777344 -1.5537109 -5.3808594 -1.5537109Q-6.0898438 -1.5537109 -6.4121094 -1.3134766Q-6.734375 -1.0732422 -6.7988281 -0.54589844L-7.9003906 -0.64550781Q-7.6308594 -2.3564453 -5.3574219 -2.3564453Q-4.1621094 -2.3564453 -3.5585938 -1.8085938Q-2.9550781 -1.2607422 -2.9550781 -0.22363281L-2.9550781 2.5068359Q-2.9550781 2.9755859 -2.8320312 3.2128906Q-2.7089844 3.4501953 -2.3632812 3.4501953Q-2.2109375 3.4501953 -2.0175781 3.4091797L-2.0175781 4.0654297Q-2.4160156 4.1591797 -2.8320312 4.1591797Q-3.4179688 4.1591797 -3.6845703 3.8515625Q-3.9511719 3.5439453 -3.9863281 2.8876953L-4.0214844 2.8876953Q-4.4257812 3.6142578 -4.9619141 3.9160156Q-5.4980469 4.2177734 -6.265625 4.2177734ZM-6.0253906 3.4267578Q-5.4453125 3.4267578 -4.9941406 3.1630859Q-4.5429688 2.8994141 -4.2822266 2.4394531Q-4.0214844 1.9794922 -4.0214844 1.4931641L-4.0214844 0.97167969L-5.1757812 0.99511719Q-5.9199219 1.0068359 -6.3037109 1.1474609Q-6.6875 1.2880859 -6.8925781 1.5810547Q-7.0976562 1.8740234 -7.0976562 2.3486328Q-7.0976562 2.8642578 -6.8193359 3.1455078Q-6.5410156 3.4267578 -6.0253906 3.4267578ZM3.5488281 2.3486328Q3.5488281 3.2451172 2.8720703 3.7314453Q2.1953125 4.2177734 0.9765625 4.2177734Q-0.20703125 4.2177734 -0.84863281 3.828125Q-1.4902344 3.4384766 -1.6835938 2.6123047L-0.75195312 2.4306641Q-0.6171875 2.9404297 -0.1953125 3.1777344Q0.2265625 3.4150391 0.9765625 3.4150391Q1.7792969 3.4150391 2.1513672 3.1689453Q2.5234375 2.9228516 2.5234375 2.4306641Q2.5234375 2.0556641 2.265625 1.8212891Q2.0078125 1.5869141 1.4335938 1.4345703L0.67773438 1.2353516Q-0.23046875 1.0009766 -0.61425781 0.77539062Q-0.99804688 0.54980469 -1.2148438 0.22753906Q-1.4316406 -0.094726562 -1.4316406 -0.56347656Q-1.4316406 -1.4306641 -0.81347656 -1.8847656Q-0.1953125 -2.3388672 0.98828125 -2.3388672Q2.0371094 -2.3388672 2.6552734 -1.9697266Q3.2734375 -1.6005859 3.4375 -0.78613281L2.4882812 -0.66894531Q2.4003906 -1.0908203 2.0166016 -1.3164062Q1.6328125 -1.5419922 0.98828125 -1.5419922Q0.2734375 -1.5419922 -0.06640625 -1.3251953Q-0.40625 -1.1083984 -0.40625 -0.66894531Q-0.40625 -0.39941406 -0.265625 -0.22363281Q-0.125 -0.047851562 0.15039062 0.075195312Q0.42578125 0.19824219 1.3105469 0.41503906Q2.1484375 0.62597656 2.5175781 0.8046875Q2.8867188 0.98339844 3.1005859 1.2001953Q3.3144531 1.4169922 3.4316406 1.7011719Q3.5488281 1.9853516 3.5488281 2.3486328ZM5.5996094 1.1533203Q5.5996094 2.2431641 6.0507812 2.8349609Q6.5019531 3.4267578 7.3691406 3.4267578Q8.0546875 3.4267578 8.4677734 3.1513672Q8.8808594 2.8759766 9.0273438 2.4541016L9.953125 2.7177734Q9.3847656 4.2177734 7.3691406 4.2177734Q5.9628906 4.2177734 5.2275391 3.3798828Q4.4921875 2.5419922 4.4921875 0.88964844Q4.4921875 -0.68066406 5.2275391 -1.5185547Q5.9628906 -2.3564453 7.328125 -2.3564453Q10.123047 -2.3564453 10.123047 1.0126953L10.123047 1.1533203L5.5996094 1.1533203ZM9.0332031 0.34472656Q8.9453125 -0.65722656 8.5234375 -1.1171875Q8.1015625 -1.5771484 7.3105469 -1.5771484Q6.5429688 -1.5771484 6.0947266 -1.0644531Q5.6464844 -0.55175781 5.6113281 0.34472656L9.0332031 0.34472656ZM17.992188 -3.2412109L17.992188 4.1005859L16.878906 4.1005859L16.878906 -3.2412109L14.042969 -3.2412109L14.042969 -4.1552734L20.828125 -4.1552734L20.828125 -3.2412109L17.992188 -3.2412109ZM22.199219 4.2177734Q21.244141 4.2177734 20.763672 3.7138672Q20.283203 3.2099609 20.283203 2.3310547Q20.283203 1.3466797 20.930664 0.81933594Q21.578125 0.29199219 23.019531 0.25683594L24.443359 0.23339844L24.443359 -0.11230469Q24.443359 -0.88574219 24.115234 -1.2197266Q23.787109 -1.5537109 23.083984 -1.5537109Q22.375 -1.5537109 22.052734 -1.3134766Q21.730469 -1.0732422 21.666016 -0.54589844L20.564453 -0.64550781Q20.833984 -2.3564453 23.107422 -2.3564453Q24.302734 -2.3564453 24.90625 -1.8085938Q25.509766 -1.2607422 25.509766 -0.22363281L25.509766 2.5068359Q25.509766 2.9755859 25.632812 3.2128906Q25.755859 3.4501953 26.101562 3.4501953Q26.253906 3.4501953 26.447266 3.4091797L26.447266 4.0654297Q26.048828 4.1591797 25.632812 4.1591797Q25.046875 4.1591797 24.780273 3.8515625Q24.513672 3.5439453 24.478516 2.8876953L24.443359 2.8876953Q24.039062 3.6142578 23.50293 3.9160156Q22.966797 4.2177734 22.199219 4.2177734ZM22.439453 3.4267578Q23.019531 3.4267578 23.470703 3.1630859Q23.921875 2.8994141 24.182617 2.4394531Q24.443359 1.9794922 24.443359 1.4931641L24.443359 0.97167969L23.289062 0.99511719Q22.544922 1.0068359 22.161133 1.1474609Q21.777344 1.2880859 21.572266 1.5810547Q21.367188 1.8740234 21.367188 2.3486328Q21.367188 2.8642578 21.645508 3.1455078Q21.923828 3.4267578 22.439453 3.4267578ZM29.658203 6.5908203Q28.621094 6.5908203 28.005859 6.1835938Q27.390625 5.7763672 27.214844 5.0263672L28.275391 4.8740234Q28.380859 5.3134766 28.741211 5.5507812Q29.101562 5.7880859 29.6875 5.7880859Q31.263672 5.7880859 31.263672 3.9423828L31.263672 2.9228516L31.251953 2.9228516Q30.953125 3.5322266 30.431641 3.8398438Q29.910156 4.1474609 29.212891 4.1474609Q28.046875 4.1474609 27.499023 3.3740234Q26.951172 2.6005859 26.951172 0.94238281Q26.951172 -0.73925781 27.540039 -1.5390625Q28.128906 -2.3388672 29.330078 -2.3388672Q30.003906 -2.3388672 30.499023 -2.03125Q30.994141 -1.7236328 31.263672 -1.1552734L31.275391 -1.1552734Q31.275391 -1.3310547 31.298828 -1.7646484Q31.322266 -2.1982422 31.345703 -2.2392578L32.347656 -2.2392578Q32.3125 -1.9228516 32.3125 -0.92675781L32.3125 3.9189453Q32.3125 6.5908203 29.658203 6.5908203ZM31.263672 0.93066406Q31.263672 0.15722656 31.052734 -0.40234375Q30.841797 -0.96191406 30.458008 -1.2578125Q30.074219 -1.5537109 29.587891 -1.5537109Q28.779297 -1.5537109 28.410156 -0.96777344Q28.041016 -0.38183594 28.041016 0.93066406Q28.041016 2.2314453 28.386719 2.7998047Q28.732422 3.3681641 29.570312 3.3681641Q30.068359 3.3681641 30.455078 3.0751953Q30.841797 2.7822266 31.052734 2.234375Q31.263672 1.6865234 31.263672 0.93066406Z"/>
	<path fill="none" stroke="black" stroke-width="1" stroke-miterlimit="10" stroke-opacity="0.10196079" d="M50 749.5L1194 749.5"/>
	<path fill="none" stroke="black" stroke-width="1" stroke-miterlimit="10" stroke-opacity="0.10196079" d="M41.75 749.5L49 749.5"/>
	<path fill="none" stroke="black" stroke-width="1" stroke-miterlimit="10" stroke-opacity="0.10196079" d="M50 681.5L1194 681.5"/>
	<path fill="none" stroke="black" stroke-width="1" stroke-miterlimit="10" stroke-opacity="0.10196079" d="M41.75 681.5L49 681.5"/>
	<path fill="none" stroke="black" stroke-width="1" stroke-miterlimit="10" stroke-opacity="0.10196079" d="M50 613.5L1194 613.5"/>
	<path fill="none" stroke="black" stroke-width="1" stroke-miterlimit="10" stroke-opacity="0.10196079" d="M41.75 613.5L49 613.5"/>
	<path fill="none" stroke="black" stroke-width="1" stroke-miterlimit="10" stroke-opacity="0.10196079" d="M50 545.5L1194 545.5"/>
	<path fill="none" stroke="black" stroke-width="1" stroke-miterlimit="10" stroke-opacity="0.10196079" d="M41.75 545.5L49 545.5"/>
	<path fill="none" stroke="black" stroke-width="1" stroke-miterlimit="10" stroke-opacity="0.10196079" d="M50 478.5L1194 478.5"/>
	<path fill="none" stroke="black" stroke-width="1" stroke-miterlimit="10" stroke-opacity="0.10196079" d="M41.75 478.5L49 478.5"/>
	<path fill="none" stroke="black" stroke-width="1" stroke-miterlimit="10" stroke-opacity="0.10196079" d="M50 410.5L1194 410.5"/>
	<path fill="none" stroke="black" stroke-width="1" stroke-miterlimit="10" stroke-opacity="0.10196079" d="M41.75 410.5L49 410.5"/>
	<path fill="none" stroke="black" stroke-width="1" stroke-miterlimit="10" stroke-opacity="0.10196079" d="M50 342.5L1194 342.5"/>
	<path fill="none" stroke="black" stroke-width="1" stroke-miterlimit="10" stroke-opacity="0.10196079" d="M41.75 342.5L49 342.5"/>
	<path fill="none" stroke="black" stroke-width="1" stroke-miterlimit="10" stroke-opacity="0.10196079" d="M50 274.5L1194 274.5"/>
	<path fill="none" stroke="black" stroke-width="1" stroke-miterlimit="10" stroke-opacity="0.10196079" d="M41.75 274.5L49 274.5"/>
	<path fill="none" stroke="black" stroke-width="1" stroke-miterlimit="10" stroke-opacity="0.10196079" d="M50 206.5L1194 206.5"/>
	<path fill="none" stroke="black" stroke-width="1" stroke-miterlimit="10" stroke-opacity="0.10196079" d="M41.75 206.5L49 206.5"/>
	<path fill="none" stroke="black" stroke-width="1" stroke-miterlimit="10" stroke-opacity="0.10196079" d="M50 139.5L1194 139.5"/>
	<path fill="none" stroke="black" stroke-width="1" stroke-miterlimit="10" stroke-opacity="0.10196079" d="M41.75 139.5L49 139.5"/>
	<path fill="none" stroke="black" stroke-width="1" stroke-miterlimit="10" stroke-opacity="0.10196079" d="M50 71.5L1194 71.5"/>
	<path fill="none" stroke="black" stroke-width="1" stroke-miterlimit="10" stroke-opacity="0.10196079" d="M41.75 71.5L49 71.5"/>
	<path fill="#666" transform="matrix(0 -1 1 0 11.2 410.2)" d="M-21.591797 -0.11230469Q-21.591797 1.1650391 -22.089844 2.1230469Q-22.587891 3.0810547 -23.501953 3.5908203Q-24.416016 4.1005859 -25.611328 4.1005859L-28.699219 4.1005859L-28.699219 -4.1552734L-25.96875 -4.1552734Q-23.871094 -4.1552734 -22.731445 -3.1035156Q-21.591797 -2.0517578 -21.591797 -0.11230469ZM-22.716797 -0.11230469Q-22.716797 -1.6474609 -23.557617 -2.453125Q-24.398438 -3.2587891 -25.992188 -3.2587891L-27.580078 -3.2587891L-27.580078 3.2041016L-25.740234 3.2041016Q-24.832031 3.2041016 -24.143555 2.8056641Q-23.455078 2.4072266 -23.085938 1.6572266Q-22.716797 0.90722656 -22.716797 -0.11230469ZM-14.847656 0.92480469Q-14.847656 2.5888672 -15.580078 3.4033203Q-16.3125 4.2177734 -17.707031 4.2177734Q-19.095703 4.2177734 -19.804688 3.3710938Q-20.513672 2.5244141 -20.513672 0.92480469Q-20.513672 -2.3564453 -17.671875 -2.3564453Q-16.21875 -2.3564453 -15.533203 -1.5566406Q-14.847656 -0.75683594 -14.847656 0.92480469ZM-15.955078 0.92480469Q-15.955078 -0.38769531 -16.344727 -0.98242188Q-16.734375 -1.5771484 -17.654297 -1.5771484Q-18.580078 -1.5771484 -18.993164 -0.97070312Q-19.40625 -0.36425781 -19.40625 0.92480469Q-19.40625 2.1787109 -18.999023 2.8085938Q-18.591797 3.4384766 -17.71875 3.4384766Q-16.769531 3.4384766 -16.362305 2.8291016Q-15.955078 2.2197266 -15.955078 0.92480469ZM-7.4648438 4.1005859L-8.6894531 4.1005859L-9.796875 -0.38183594L-10.007812 -1.3720703Q-10.060547 -1.1083984 -10.171875 -0.61328125Q-10.283203 -0.11816406 -11.367188 4.1005859L-12.585938 4.1005859L-14.361328 -2.2392578L-13.318359 -2.2392578L-12.246094 2.0673828Q-12.205078 2.2080078 -11.994141 3.2275391L-11.894531 2.7939453L-10.570312 -2.2392578L-9.4394531 -2.2392578L-8.3320312 2.1142578L-8.0625 3.2275391L-7.8808594 2.4130859L-6.6796875 -2.2392578L-5.6484375 -2.2392578L-7.4648438 4.1005859ZM-0.84375 4.1005859L-0.84375 0.081054688Q-0.84375 -0.54589844 -0.96679688 -0.89160156Q-1.0898438 -1.2373047 -1.359375 -1.3896484Q-1.6289062 -1.5419922 -2.1503906 -1.5419922Q-2.9121094 -1.5419922 -3.3515625 -1.0205078Q-3.7910156 -0.49902344 -3.7910156 0.42675781L-3.7910156 4.1005859L-4.8457031 4.1005859L-4.8457031 -0.88574219Q-4.8457031 -1.9931641 -4.8808594 -2.2392578L-3.8847656 -2.2392578Q-3.8789062 -2.2099609 -3.8730469 -2.0810547Q-3.8671875 -1.9521484 -3.8583984 -1.7851562Q-3.8496094 -1.6181641 -3.8378906 -1.1552734L-3.8203125 -1.1552734Q-3.4570312 -1.8115234 -2.9794922 -2.0839844Q-2.5019531 -2.3564453 -1.7929688 -2.3564453Q-0.75 -2.3564453 -0.26660156 -1.8378906Q0.21679688 -1.3193359 0.21679688 -0.12402344L0.21679688 4.1005859L-0.84375 4.1005859ZM1.8046875 4.1005859L1.8046875 -4.5947266L2.859375 -4.5947266L2.859375 4.1005859L1.8046875 4.1005859ZM9.8320312 0.92480469Q9.8320312 2.5888672 9.0996094 3.4033203Q8.3671875 4.2177734 6.9726562 4.2177734Q5.5839844 4.2177734 4.875 3.3710938Q4.1660156 2.5244141 4.1660156 0.92480469Q4.1660156 -2.3564453 7.0078125 -2.3564453Q8.4609375 -2.3564453 9.1464844 -1.5566406Q9.8320312 -0.75683594 9.8320312 0.92480469ZM8.7246094 0.92480469Q8.7246094 -0.38769531 8.3349609 -0.98242188Q7.9453125 -1.5771484 7.0253906 -1.5771484Q6.0996094 -1.5771484 5.6865234 -0.97070312Q5.2734375 -0.36425781 5.2734375 0.92480469Q5.2734375 2.1787109 5.6806641 2.8085938Q6.0878906 3.4384766 6.9609375 3.4384766Q7.9101562 3.4384766 8.3173828 2.8291016Q8.7246094 2.2197266 8.7246094 0.92480469ZM12.761719 4.2177734Q11.806641 4.2177734 11.326172 3.7138672Q10.845703 3.2099609 10.845703 2.3310547Q10.845703 1.3466797 11.493164 0.81933594Q12.140625 0.29199219 13.582031 0.25683594L15.005859 0.23339844L15.005859 -0.11230469Q15.005859 -0.88574219 14.677734 -1.2197266Q14.349609 -1.5537109 13.646484 -1.5537109Q12.9375 -1.5537109 12.615234 -1.3134766Q12.292969 -1.0732422 12.228516 -0.54589844L11.126953 -0.64550781Q11.396484 -2.3564453 13.669922 -2.3564453Q14.865234 -2.3564453 15.46875 -1.8085938Q16.072266 -1.2607422 16.072266 -0.22363281L16.072266 2.5068359Q16.072266 2.9755859 16.195312 3.2128906Q16.318359 3.4501953 16.664062 3.4501953Q16.816406 3.4501953 17.009766 3.4091797L17.009766 4.0654297Q16.611328 4.1591797 16.195312 4.1591797Q15.609375 4.1591797 15.342773 3.8515625Q15.076172 3.5439453 15.041016 2.8876953L15.005859 2.8876953Q14.601562 3.6142578 14.06543 3.9160156Q13.529297 4.2177734 12.761719 4.2177734ZM13.001953 3.4267578Q13.582031 3.4267578 14.033203 3.1630859Q14.484375 2.8994141 14.745117 2.4394531Q15.005859 1.9794922 15.005859 1.4931641L15.005859 0.97167969L13.851562 0.99511719Q13.107422 1.0068359 12.723633 1.1474609Q12.339844 1.2880859 12.134766 1.5810547Q11.929688 1.8740234 11.929688 2.3486328Q11.929688 2.8642578 12.208008 3.1455078Q12.486328 3.4267578 13.001953 3.4267578ZM21.820312 3.0810547Q21.527344 3.6904297 21.043945 3.9541016Q20.560547 4.2177734 19.845703 4.2177734Q18.644531 4.2177734 18.079102 3.4091797Q17.513672 2.6005859 17.513672 0.95996094Q17.513672 -2.3564453 19.845703 -2.3564453Q20.566406 -2.3564453 21.046875 -2.0927734Q21.527344 -1.8291016 21.820312 -1.2548828L21.832031 -1.2548828L21.820312 -1.9638672L21.820312 -4.5947266L22.875 -4.5947266L22.875 2.7939453Q22.875 3.7841797 22.910156 4.1005859L21.902344 4.1005859Q21.884766 4.0068359 21.864258 3.6669922Q21.84375 3.3271484 21.84375 3.0810547L21.820312 3.0810547ZM18.621094 0.92480469Q18.621094 2.2548828 18.972656 2.8291016Q19.324219 3.4033203 20.115234 3.4033203Q21.011719 3.4033203 21.416016 2.7822266Q21.820312 2.1611328 21.820312 0.85449219Q21.820312 -0.40527344 21.416016 -0.99121094Q21.011719 -1.5771484 20.126953 -1.5771484Q19.330078 -1.5771484 18.975586 -0.98828125Q18.621094 -0.39941406 18.621094 0.92480469ZM29.25 2.3486328Q29.25 3.2451172 28.573242 3.7314453Q27.896484 4.2177734 26.677734 4.2177734Q25.494141 4.2177734 24.852539 3.828125Q24.210938 3.4384766 24.017578 2.6123047L24.949219 2.4306641Q25.083984 2.9404297 25.505859 3.1777344Q25.927734 3.4150391 26.677734 3.4150391Q27.480469 3.4150391 27.852539 3.1689453Q28.224609 2.9228516 28.224609 2.4306641Q28.224609 2.0556641 27.966797 1.8212891Q27.708984 1.5869141 27.134766 1.4345703L26.378906 1.2353516Q25.470703 1.0009766 25.086914 0.77539062Q24.703125 0.54980469 24.486328 0.22753906Q24.269531 -0.094726562 24.269531 -0.56347656Q24.269531 -1.4306641 24.887695 -1.8847656Q25.505859 -2.3388672 26.689453 -2.3388672Q27.738281 -2.3388672 28.356445 -1.9697266Q28.974609 -1.6005859 29.138672 -0.78613281L28.189453 -0.66894531Q28.101562 -1.0908203 27.717773 -1.3164062Q27.333984 -1.5419922 26.689453 -1.5419922Q25.974609 -1.5419922 25.634766 -1.3251953Q25.294922 -1.1083984 25.294922 -0.66894531Q25.294922 -0.39941406 25.435547 -0.22363281Q25.576172 -0.047851562 25.851562 0.075195312Q26.126953 0.19824219 27.011719 0.41503906Q27.849609 0.62597656 28.21875 0.8046875Q28.587891 0.98339844 28.801758 1.2001953Q29.015625 1.4169922 29.132812 1.7011719Q29.25 1.9853516 29.25 2.3486328Z"/>
	<clipPath id="cl_347">
		<rect y="39.200001" width="1200" height="31.999996"/>
	</clipPath>
	<g clip-path="url(#cl_347)">
		<path fill="#C32222" fill-opacity="0.2" d="M569.33002 49.200001L609.33002 49.200001L609.33002 61.200001L569.33002 61.200001L569.33002 49.200001Z"/>
		<path fill="none" stroke="#C32222" stroke-width="2" stroke-miterlimit="10" d="M569.33002 49.200001L609.33002 49.200001L609.33002 61.200001L569.33002 61.200001L569.33002 49.200001Z"/>
	</g>
	<clipPath id="cl_348">
		<rect y="39.200001" width="1200" height="31.999996"/>
	</clipPath>
	<g clip-path="url(#cl_348)">
		<path fill="#666" d="M615.81635 59.300587L615.81635 58.497852L619.36127 53.775196L616.01556 53.775196L616.01556 52.960743L620.60931 52.960743L620.60931 53.763477L617.05853 58.486134L620.73236 58.486134L620.73236 59.300587L615.81635 59.300587ZM622.13275 51.613087L622.13275 50.605274L623.18744 50.605274L623.18744 51.613087L622.13275 51.613087ZM622.13275 59.300587L622.13275 52.960743L623.18744 52.960743L623.18744 59.300587L622.13275 59.300587ZM630.16595 56.101368Q630.16595 59.417774 627.83392 59.417774Q626.36908 59.417774 625.86517 58.316212L625.83588 58.316212Q625.85931 58.363087 625.85931 59.312305L625.85931 61.790821L624.80463 61.790821L624.80463 54.255665Q624.80463 53.277149 624.76947 52.960743L625.789 52.960743Q625.79486 52.98418 625.80658 53.127735Q625.8183 53.27129 625.83295 53.570118Q625.8476 53.868946 625.8476 53.980274L625.87103 53.980274Q626.15228 53.394337 626.61517 53.121876Q627.07806 52.849415 627.83392 52.849415Q629.0058 52.849415 629.58588 53.634571Q630.16595 54.419727 630.16595 56.101368ZM629.05853 56.124805Q629.05853 54.800587 628.70111 54.232227Q628.34369 53.663868 627.56439 53.663868Q626.93744 53.663868 626.58295 53.92754Q626.22845 54.191212 626.04388 54.750782Q625.85931 55.310352 625.85931 56.206837Q625.85931 57.454884 626.25775 58.04668Q626.65619 58.638477 627.55267 58.638477Q628.33783 58.638477 628.69818 58.061329Q629.05853 57.48418 629.05853 56.124805Z"/>
	</g>
	<path fill="#666" transform="translate(600 19.6)" d="M-282.28516 3.3320312Q-282.28516 4.5585938 -283.28906 5.2578125Q-284.29297 5.9570312 -286.06641 5.9570312Q-287.80859 5.9570312 -288.73438 5.40625Q-289.66016 4.8554688 -289.96484 3.6914062L-288.03516 3.4023438Q-287.87109 4.0039062 -287.46875 4.2539062Q-287.06641 4.5039062 -286.06641 4.5039062Q-285.14453 4.5039062 -284.72266 4.2695312Q-284.30078 4.0351562 -284.30078 3.5351562Q-284.30078 3.1289062 -284.64062 2.890625Q-284.98047 2.6523438 -285.79297 2.4882812Q-287.65234 2.1210938 -288.30078 1.8046875Q-288.94922 1.4882812 -289.28906 0.984375Q-289.62891 0.48046875 -289.62891 -0.25390625Q-289.62891 -1.4648438 -288.69531 -2.140625Q-287.76172 -2.8164062 -286.05078 -2.8164062Q-284.54297 -2.8164062 -283.625 -2.2304688Q-282.70703 -1.6445312 -282.48047 -0.53515625L-284.42578 -0.33203125Q-284.51953 -0.84765625 -284.88672 -1.1015625Q-285.25391 -1.3554688 -286.05078 -1.3554688Q-286.83203 -1.3554688 -287.22266 -1.15625Q-287.61328 -0.95703125 -287.61328 -0.48828125Q-287.61328 -0.12109375 -287.3125 0.09375Q-287.01172 0.30859375 -286.30078 0.44921875Q-285.30859 0.65234375 -284.53906 0.8671875Q-283.76953 1.0820312 -283.30469 1.3789062Q-282.83984 1.6757812 -282.5625 2.140625Q-282.28516 2.6054688 -282.28516 3.3320312ZM-278.55859 5.9570312Q-279.78516 5.9570312 -280.47266 5.2890625Q-281.16016 4.6210938 -281.16016 3.4101562Q-281.16016 2.0976562 -280.30469 1.4101562Q-279.44922 0.72265625 -277.82422 0.70703125L-276.00391 0.67578125L-276.00391 0.24609375Q-276.00391 -0.58203125 -276.29297 -0.984375Q-276.58203 -1.3867188 -277.23828 -1.3867188Q-277.84766 -1.3867188 -278.13281 -1.109375Q-278.41797 -0.83203125 -278.48828 -0.19140625L-280.77734 -0.30078125Q-280.56641 -1.5351562 -279.64844 -2.171875Q-278.73047 -2.8085938 -277.14453 -2.8085938Q-275.54297 -2.8085938 -274.67578 -2.0195312Q-273.80859 -1.2304688 -273.80859 0.22265625L-273.80859 3.3007812Q-273.80859 4.0117188 -273.64844 4.28125Q-273.48828 4.5507812 -273.11328 4.5507812Q-272.86328 4.5507812 -272.62891 4.5039062L-272.62891 5.6914062Q-272.82422 5.7382812 -272.98047 5.7773438Q-273.13672 5.8164062 -273.29297 5.8398438Q-273.44922 5.8632812 -273.625 5.8789062Q-273.80078 5.8945312 -274.03516 5.8945312Q-274.86328 5.8945312 -275.25781 5.4882812Q-275.65234 5.0820312 -275.73047 4.2929688L-275.77734 4.2929688Q-276.69922 5.9570312 -278.55859 5.9570312ZM-276.00391 1.8867188L-277.12891 1.9023438Q-277.89453 1.9335938 -278.21484 2.0703125Q-278.53516 2.2070312 -278.70312 2.4882812Q-278.87109 2.7695312 -278.87109 3.2382812Q-278.87109 3.8398438 -278.59375 4.1328125Q-278.31641 4.4257812 -277.85547 4.4257812Q-277.33984 4.4257812 -276.91406 4.1445312Q-276.48828 3.8632812 -276.24609 3.3671875Q-276.00391 2.8710938 -276.00391 2.3164062L-276.00391 1.8867188ZM-271.61328 -4.1757812L-271.61328 -5.7929688L-269.41797 -5.7929688L-269.41797 -4.1757812L-271.61328 -4.1757812ZM-271.61328 5.8007812L-271.61328 -2.6523438L-269.41797 -2.6523438L-269.41797 5.8007812L-271.61328 5.8007812ZM-267.16797 5.8007812L-267.16797 -5.7929688L-264.97266 -5.7929688L-264.97266 5.8007812L-267.16797 5.8007812ZM-254.72266 1.5351562Q-254.72266 3.6523438 -255.57031 4.8046875Q-256.41797 5.9570312 -257.96484 5.9570312Q-258.85547 5.9570312 -259.51562 5.5703125Q-260.17578 5.1835938 -260.52734 4.4570312L-260.57422 4.4570312Q-260.52734 4.6914062 -260.52734 5.8789062L-260.52734 9.1210938L-262.72266 9.1210938L-262.72266 -0.70703125Q-262.72266 -1.9023438 -262.78516 -2.6523438L-260.65234 -2.6523438Q-260.61328 -2.5117188 -260.58594 -2.0976562Q-260.55859 -1.6835938 -260.55859 -1.2773438L-260.52734 -1.2773438Q-259.78516 -2.8320312 -257.82422 -2.8320312Q-256.34766 -2.8320312 -255.53516 -1.6953125Q-254.72266 -0.55859375 -254.72266 1.5351562ZM-257.01172 1.5351562Q-257.01172 -1.3085938 -258.75391 -1.3085938Q-259.62891 -1.3085938 -260.09375 -0.54296875Q-260.55859 0.22265625 -260.55859 1.5976562Q-260.55859 2.9648438 -260.09375 3.7109375Q-259.62891 4.4570312 -258.76953 4.4570312Q-257.01172 4.4570312 -257.01172 1.5351562ZM-244.91797 1.5664062Q-244.91797 3.6210938 -246.05859 4.7890625Q-247.19922 5.9570312 -249.21484 5.9570312Q-251.19141 5.9570312 -252.31641 4.7851562Q-253.44141 3.6132812 -253.44141 1.5664062Q-253.44141 -0.47265625 -252.31641 -1.640625Q-251.19141 -2.8085938 -249.16797 -2.8085938Q-247.09766 -2.8085938 -246.00781 -1.6796875Q-244.91797 -0.55078125 -244.91797 1.5664062ZM-247.21484 1.5664062Q-247.21484 0.05859375 -247.70703 -0.62109375Q-248.19922 -1.3007812 -249.13672 -1.3007812Q-251.13672 -1.3007812 -251.13672 1.5664062Q-251.13672 2.9804688 -250.64844 3.71875Q-250.16016 4.4570312 -249.23828 4.4570312Q-247.21484 4.4570312 -247.21484 1.5664062ZM-243.17578 -4.1757812L-243.17578 -5.7929688L-240.98047 -5.7929688L-240.98047 -4.1757812L-243.17578 -4.1757812ZM-243.17578 5.8007812L-243.17578 -2.6523438L-240.98047 -2.6523438L-240.98047 5.8007812L-243.17578 5.8007812ZM-233.25391 5.8007812L-233.25391 1.0585938Q-233.25391 -1.1679688 -234.76172 -1.1679688Q-235.55859 -1.1679688 -236.04688 -0.484375Q-236.53516 0.19921875 -236.53516 1.2695312L-236.53516 5.8007812L-238.73047 5.8007812L-238.73047 -0.76171875Q-238.73047 -1.4414062 -238.75 -1.875Q-238.76953 -2.3085938 -238.79297 -2.6523438L-236.69922 -2.6523438Q-236.67578 -2.5039062 -236.63672 -1.859375Q-236.59766 -1.2148438 -236.59766 -0.97265625L-236.56641 -0.97265625Q-236.12109 -1.9414062 -235.44922 -2.3789062Q-234.77734 -2.8164062 -233.84766 -2.8164062Q-232.50391 -2.8164062 -231.78516 -1.9882812Q-231.06641 -1.1601562 -231.06641 0.43359375L-231.06641 5.8007812L-233.25391 5.8007812ZM-226.79297 5.9414062Q-227.76172 5.9414062 -228.28516 5.4140625Q-228.80859 4.8867188 -228.80859 3.8164062L-228.80859 -1.1679688L-229.87891 -1.1679688L-229.87891 -2.6523438L-228.69922 -2.6523438L-228.01172 -4.6367188L-226.63672 -4.6367188L-226.63672 -2.6523438L-225.03516 -2.6523438L-225.03516 -1.1679688L-226.63672 -1.1679688L-226.63672 3.2226562Q-226.63672 3.8398438 -226.40234 4.1328125Q-226.16797 4.4257812 -225.67578 4.4257812Q-225.41797 4.4257812 -224.94141 4.3164062L-224.94141 5.6757812Q-225.75391 5.9414062 -226.79297 5.9414062ZM-224.12109 2.6054688L-224.12109 0.69921875L-220.05859 0.69921875L-220.05859 2.6054688L-224.12109 2.6054688ZM-210.26953 1.5664062Q-210.26953 3.6210938 -211.41016 4.7890625Q-212.55078 5.9570312 -214.56641 5.9570312Q-216.54297 5.9570312 -217.66797 4.7851562Q-218.79297 3.6132812 -218.79297 1.5664062Q-218.79297 -0.47265625 -217.66797 -1.640625Q-216.54297 -2.8085938 -214.51953 -2.8085938Q-212.44922 -2.8085938 -211.35938 -1.6796875Q-210.26953 -0.55078125 -210.26953 1.5664062ZM-212.56641 1.5664062Q-212.56641 0.05859375 -213.05859 -0.62109375Q-213.55078 -1.3007812 -214.48828 -1.3007812Q-216.48828 -1.3007812 -216.48828 1.5664062Q-216.48828 2.9804688 -216 3.71875Q-215.51172 4.4570312 -214.58984 4.4570312Q-212.56641 4.4570312 -212.56641 1.5664062ZM-201.40234 3.3320312Q-201.40234 4.5585938 -202.40625 5.2578125Q-203.41016 5.9570312 -205.18359 5.9570312Q-206.92578 5.9570312 -207.85156 5.40625Q-208.77734 4.8554688 -209.08203 3.6914062L-207.15234 3.4023438Q-206.98828 4.0039062 -206.58594 4.2539062Q-206.18359 4.5039062 -205.18359 4.5039062Q-204.26172 4.5039062 -203.83984 4.2695312Q-203.41797 4.0351562 -203.41797 3.5351562Q-203.41797 3.1289062 -203.75781 2.890625Q-204.09766 2.6523438 -204.91016 2.4882812Q-206.76953 2.1210938 -207.41797 1.8046875Q-208.06641 1.4882812 -208.40625 0.984375Q-208.74609 0.48046875 -208.74609 -0.25390625Q-208.74609 -1.4648438 -207.8125 -2.140625Q-206.87891 -2.8164062 -205.16797 -2.8164062Q-203.66016 -2.8164062 -202.74219 -2.2304688Q-201.82422 -1.6445312 -201.59766 -0.53515625L-203.54297 -0.33203125Q-203.63672 -0.84765625 -204.00391 -1.1015625Q-204.37109 -1.3554688 -205.16797 -1.3554688Q-205.94922 -1.3554688 -206.33984 -1.15625Q-206.73047 -0.95703125 -206.73047 -0.48828125Q-206.73047 -0.12109375 -206.42969 0.09375Q-206.12891 0.30859375 -205.41797 0.44921875Q-204.42578 0.65234375 -203.65625 0.8671875Q-202.88672 1.0820312 -202.42188 1.3789062Q-201.95703 1.6757812 -201.67969 2.140625Q-201.40234 2.6054688 -201.40234 3.3320312ZM-192.50391 3.3320312Q-192.50391 4.5585938 -193.50781 5.2578125Q-194.51172 5.9570312 -196.28516 5.9570312Q-198.02734 5.9570312 -198.95312 5.40625Q-199.87891 4.8554688 -200.18359 3.6914062L-198.25391 3.4023438Q-198.08984 4.0039062 -197.6875 4.2539062Q-197.28516 4.5039062 -196.28516 4.5039062Q-195.36328 4.5039062 -194.94141 4.2695312Q-194.51953 4.0351562 -194.51953 3.5351562Q-194.51953 3.1289062 -194.85938 2.890625Q-195.19922 2.6523438 -196.01172 2.4882812Q-197.87109 2.1210938 -198.51953 1.8046875Q-199.16797 1.4882812 -199.50781 0.984375Q-199.84766 0.48046875 -199.84766 -0.25390625Q-199.84766 -1.4648438 -198.91406 -2.140625Q-197.98047 -2.8164062 -196.26953 -2.8164062Q-194.76172 -2.8164062 -193.84375 -2.2304688Q-192.92578 -1.6445312 -192.69922 -0.53515625L-194.64453 -0.33203125Q-194.73828 -0.84765625 -195.10547 -1.1015625Q-195.47266 -1.3554688 -196.26953 -1.3554688Q-197.05078 -1.3554688 -197.44141 -1.15625Q-197.83203 -0.95703125 -197.83203 -0.48828125Q-197.83203 -0.12109375 -197.53125 0.09375Q-197.23047 0.30859375 -196.51953 0.44921875Q-195.52734 0.65234375 -194.75781 0.8671875Q-193.98828 1.0820312 -193.52344 1.3789062Q-193.05859 1.6757812 -192.78125 2.140625Q-192.50391 2.6054688 -192.50391 3.3320312ZM-191.69141 6.1210938L-189.41797 -5.7929688L-187.55859 -5.7929688L-189.79297 6.1210938L-191.69141 6.1210938ZM-182.76172 5.9570312Q-184.68359 5.9570312 -185.73047 4.8125Q-186.77734 3.6679688 -186.77734 1.6210938Q-186.77734 -0.47265625 -185.72266 -1.640625Q-184.66797 -2.8085938 -182.73047 -2.8085938Q-181.23828 -2.8085938 -180.26172 -2.0585938Q-179.28516 -1.3085938 -179.03516 0.01171875L-181.24609 0.12109375Q-181.33984 -0.52734375 -181.71484 -0.9140625Q-182.08984 -1.3007812 -182.77734 -1.3007812Q-184.47266 -1.3007812 -184.47266 1.5351562Q-184.47266 4.4570312 -182.74609 4.4570312Q-182.12109 4.4570312 -181.69922 4.0625Q-181.27734 3.6679688 -181.17578 2.8867188L-178.97266 2.9882812Q-179.08984 3.8554688 -179.59375 4.5351562Q-180.09766 5.2148438 -180.91797 5.5859375Q-181.73828 5.9570312 -182.76172 5.9570312ZM-169.35547 1.5664062Q-169.35547 3.6210938 -170.49609 4.7890625Q-171.63672 5.9570312 -173.65234 5.9570312Q-175.62891 5.9570312 -176.75391 4.7851562Q-177.87891 3.6132812 -177.87891 1.5664062Q-177.87891 -0.47265625 -176.75391 -1.640625Q-175.62891 -2.8085938 -173.60547 -2.8085938Q-171.53516 -2.8085938 -170.44531 -1.6796875Q-169.35547 -0.55078125 -169.35547 1.5664062ZM-171.65234 1.5664062Q-171.65234 0.05859375 -172.14453 -0.62109375Q-172.63672 -1.3007812 -173.57422 -1.3007812Q-175.57422 -1.3007812 -175.57422 1.5664062Q-175.57422 2.9804688 -175.08594 3.71875Q-174.59766 4.4570312 -173.67578 4.4570312Q-171.65234 4.4570312 -171.65234 1.5664062ZM-167.61328 5.8007812L-167.61328 -5.7929688L-165.41797 -5.7929688L-165.41797 5.8007812L-167.61328 5.8007812ZM-161.21484 5.9570312Q-162.44141 5.9570312 -163.12891 5.2890625Q-163.81641 4.6210938 -163.81641 3.4101562Q-163.81641 2.0976562 -162.96094 1.4101562Q-162.10547 0.72265625 -160.48047 0.70703125L-158.66016 0.67578125L-158.66016 0.24609375Q-158.66016 -0.58203125 -158.94922 -0.984375Q-159.23828 -1.3867188 -159.89453 -1.3867188Q-160.50391 -1.3867188 -160.78906 -1.109375Q-161.07422 -0.83203125 -161.14453 -0.19140625L-163.43359 -0.30078125Q-163.22266 -1.5351562 -162.30469 -2.171875Q-161.38672 -2.8085938 -159.80078 -2.8085938Q-158.19922 -2.8085938 -157.33203 -2.0195312Q-156.46484 -1.2304688 -156.46484 0.22265625L-156.46484 3.3007812Q-156.46484 4.0117188 -156.30469 4.28125Q-156.14453 4.5507812 -155.76953 4.5507812Q-155.51953 4.5507812 -155.28516 4.5039062L-155.28516 5.6914062Q-155.48047 5.7382812 -155.63672 5.7773438Q-155.79297 5.8164062 -155.94922 5.8398438Q-156.10547 5.8632812 -156.28125 5.8789062Q-156.45703 5.8945312 -156.69141 5.8945312Q-157.51953 5.8945312 -157.91406 5.4882812Q-158.30859 5.0820312 -158.38672 4.2929688L-158.43359 4.2929688Q-159.35547 5.9570312 -161.21484 5.9570312ZM-158.66016 1.8867188L-159.78516 1.9023438Q-160.55078 1.9335938 -160.87109 2.0703125Q-161.19141 2.2070312 -161.35938 2.4882812Q-161.52734 2.7695312 -161.52734 3.2382812Q-161.52734 3.8398438 -161.25 4.1328125Q-160.97266 4.4257812 -160.51172 4.4257812Q-159.99609 4.4257812 -159.57031 4.1445312Q-159.14453 3.8632812 -158.90234 3.3671875Q-158.66016 2.8710938 -158.66016 2.3164062L-158.66016 1.8867188ZM-146.26953 1.5429688Q-146.26953 3.6367188 -147.10938 4.796875Q-147.94922 5.9570312 -149.51172 5.9570312Q-150.41016 5.9570312 -151.06641 5.5664062Q-151.72266 5.1757812 -152.07422 4.4414062L-152.08984 4.4414062Q-152.08984 4.7148438 -152.125 5.1914062Q-152.16016 5.6679688 -152.19922 5.8007812L-154.33203 5.8007812Q-154.26953 5.0742188 -154.26953 3.8710938L-154.26953 -5.7929688L-152.07422 -5.7929688L-152.07422 -2.5585938L-152.10547 -1.1835938L-152.07422 -1.1835938Q-151.33203 -2.8085938 -149.37109 -2.8085938Q-147.87109 -2.8085938 -147.07031 -1.671875Q-146.26953 -0.53515625 -146.26953 1.5429688ZM-148.55859 1.5429688Q-148.55859 0.10546875 -148.98047 -0.58984375Q-149.40234 -1.2851562 -150.28516 -1.2851562Q-151.17578 -1.2851562 -151.64062 -0.5390625Q-152.10547 0.20703125 -152.10547 1.6132812Q-152.10547 2.9570312 -151.64844 3.7070312Q-151.19141 4.4570312 -150.30078 4.4570312Q-148.55859 4.4570312 -148.55859 1.5429688ZM-144.98828 2.6054688L-144.98828 0.69921875L-140.92578 0.69921875L-140.92578 2.6054688L-144.98828 2.6054688ZM-132.04297 3.3320312Q-132.04297 4.5585938 -133.04688 5.2578125Q-134.05078 5.9570312 -135.82422 5.9570312Q-137.56641 5.9570312 -138.49219 5.40625Q-139.41797 4.8554688 -139.72266 3.6914062L-137.79297 3.4023438Q-137.62891 4.0039062 -137.22656 4.2539062Q-136.82422 4.5039062 -135.82422 4.5039062Q-134.90234 4.5039062 -134.48047 4.2695312Q-134.05859 4.0351562 -134.05859 3.5351562Q-134.05859 3.1289062 -134.39844 2.890625Q-134.73828 2.6523438 -135.55078 2.4882812Q-137.41016 2.1210938 -138.05859 1.8046875Q-138.70703 1.4882812 -139.04688 0.984375Q-139.38672 0.48046875 -139.38672 -0.25390625Q-139.38672 -1.4648438 -138.45312 -2.140625Q-137.51953 -2.8164062 -135.80859 -2.8164062Q-134.30078 -2.8164062 -133.38281 -2.2304688Q-132.46484 -1.6445312 -132.23828 -0.53515625L-134.18359 -0.33203125Q-134.27734 -0.84765625 -134.64453 -1.1015625Q-135.01172 -1.3554688 -135.80859 -1.3554688Q-136.58984 -1.3554688 -136.98047 -1.15625Q-137.37109 -0.95703125 -137.37109 -0.48828125Q-137.37109 -0.12109375 -137.07031 0.09375Q-136.76953 0.30859375 -136.05859 0.44921875Q-135.06641 0.65234375 -134.29688 0.8671875Q-133.52734 1.0820312 -133.0625 1.3789062Q-132.59766 1.6757812 -132.32031 2.140625Q-132.04297 2.6054688 -132.04297 3.3320312ZM-128.31641 5.9570312Q-129.54297 5.9570312 -130.23047 5.2890625Q-130.91797 4.6210938 -130.91797 3.4101562Q-130.91797 2.0976562 -130.0625 1.4101562Q-129.20703 0.72265625 -127.58203 0.70703125L-125.76172 0.67578125L-125.76172 0.24609375Q-125.76172 -0.58203125 -126.05078 -0.984375Q-126.33984 -1.3867188 -126.99609 -1.3867188Q-127.60547 -1.3867188 -127.89062 -1.109375Q-128.17578 -0.83203125 -128.24609 -0.19140625L-130.53516 -0.30078125Q-130.32422 -1.5351562 -129.40625 -2.171875Q-128.48828 -2.8085938 -126.90234 -2.8085938Q-125.30078 -2.8085938 -124.43359 -2.0195312Q-123.56641 -1.2304688 -123.56641 0.22265625L-123.56641 3.3007812Q-123.56641 4.0117188 -123.40625 4.28125Q-123.24609 4.5507812 -122.87109 4.5507812Q-122.62109 4.5507812 -122.38672 4.5039062L-122.38672 5.6914062Q-122.58203 5.7382812 -122.73828 5.7773438Q-122.89453 5.8164062 -123.05078 5.8398438Q-123.20703 5.8632812 -123.38281 5.8789062Q-123.55859 5.8945312 -123.79297 5.8945312Q-124.62109 5.8945312 -125.01562 5.4882812Q-125.41016 5.0820312 -125.48828 4.2929688L-125.53516 4.2929688Q-126.45703 5.9570312 -128.31641 5.9570312ZM-125.76172 1.8867188L-126.88672 1.9023438Q-127.65234 1.9335938 -127.97266 2.0703125Q-128.29297 2.2070312 -128.46094 2.4882812Q-128.62891 2.7695312 -128.62891 3.2382812Q-128.62891 3.8398438 -128.35156 4.1328125Q-128.07422 4.4257812 -127.61328 4.4257812Q-127.09766 4.4257812 -126.67188 4.1445312Q-126.24609 3.8632812 -126.00391 3.3671875Q-125.76172 2.8710938 -125.76172 2.3164062L-125.76172 1.8867188ZM-119.41797 5.9570312Q-120.64453 5.9570312 -121.33203 5.2890625Q-122.01953 4.6210938 -122.01953 3.4101562Q-122.01953 2.0976562 -121.16406 1.4101562Q-120.30859 0.72265625 -118.68359 0.70703125L-116.86328 0.67578125L-116.86328 0.24609375Q-116.86328 -0.58203125 -117.15234 -0.984375Q-117.44141 -1.3867188 -118.09766 -1.3867188Q-118.70703 -1.3867188 -118.99219 -1.109375Q-119.27734 -0.83203125 -119.34766 -0.19140625L-121.63672 -0.30078125Q-121.42578 -1.5351562 -120.50781 -2.171875Q-119.58984 -2.8085938 -118.00391 -2.8085938Q-116.40234 -2.8085938 -115.53516 -2.0195312Q-114.66797 -1.2304688 -114.66797 0.22265625L-114.66797 3.3007812Q-114.66797 4.0117188 -114.50781 4.28125Q-114.34766 4.5507812 -113.97266 4.5507812Q-113.72266 4.5507812 -113.48828 4.5039062L-113.48828 5.6914062Q-113.68359 5.7382812 -113.83984 5.7773438Q-113.99609 5.8164062 -114.15234 5.8398438Q-114.30859 5.8632812 -114.48438 5.8789062Q-114.66016 5.8945312 -114.89453 5.8945312Q-115.72266 5.8945312 -116.11719 5.4882812Q-116.51172 5.0820312 -116.58984 4.2929688L-116.63672 4.2929688Q-117.55859 5.9570312 -119.41797 5.9570312ZM-116.86328 1.8867188L-117.98828 1.9023438Q-118.75391 1.9335938 -119.07422 2.0703125Q-119.39453 2.2070312 -119.5625 2.4882812Q-119.73047 2.7695312 -119.73047 3.2382812Q-119.73047 3.8398438 -119.45312 4.1328125Q-119.17578 4.4257812 -118.71484 4.4257812Q-118.19922 4.4257812 -117.77344 4.1445312Q-117.34766 3.8632812 -117.10547 3.3671875Q-116.86328 2.8710938 -116.86328 2.3164062L-116.86328 1.8867188ZM-105.34766 3.3320312Q-105.34766 4.5585938 -106.35156 5.2578125Q-107.35547 5.9570312 -109.12891 5.9570312Q-110.87109 5.9570312 -111.79688 5.40625Q-112.72266 4.8554688 -113.02734 3.6914062L-111.09766 3.4023438Q-110.93359 4.0039062 -110.53125 4.2539062Q-110.12891 4.5039062 -109.12891 4.5039062Q-108.20703 4.5039062 -107.78516 4.2695312Q-107.36328 4.0351562 -107.36328 3.5351562Q-107.36328 3.1289062 -107.70312 2.890625Q-108.04297 2.6523438 -108.85547 2.4882812Q-110.71484 2.1210938 -111.36328 1.8046875Q-112.01172 1.4882812 -112.35156 0.984375Q-112.69141 0.48046875 -112.69141 -0.25390625Q-112.69141 -1.4648438 -111.75781 -2.140625Q-110.82422 -2.8164062 -109.11328 -2.8164062Q-107.60547 -2.8164062 -106.6875 -2.2304688Q-105.76953 -1.6445312 -105.54297 -0.53515625L-107.48828 -0.33203125Q-107.58203 -0.84765625 -107.94922 -1.1015625Q-108.31641 -1.3554688 -109.11328 -1.3554688Q-109.89453 -1.3554688 -110.28516 -1.15625Q-110.67578 -0.95703125 -110.67578 -0.48828125Q-110.67578 -0.12109375 -110.375 0.09375Q-110.07422 0.30859375 -109.36328 0.44921875Q-108.37109 0.65234375 -107.60156 0.8671875Q-106.83203 1.0820312 -106.36719 1.3789062Q-105.90234 1.6757812 -105.625 2.140625Q-105.34766 2.6054688 -105.34766 3.3320312ZM-104.06641 2.6054688L-104.06641 0.69921875L-100.00391 0.69921875L-100.00391 2.6054688L-104.06641 2.6054688ZM-94.722656 5.9570312Q-96.644531 5.9570312 -97.691406 4.8125Q-98.738281 3.6679688 -98.738281 1.6210938Q-98.738281 -0.47265625 -97.683594 -1.640625Q-96.628906 -2.8085938 -94.691406 -2.8085938Q-93.199219 -2.8085938 -92.222656 -2.0585938Q-91.246094 -1.3085938 -90.996094 0.01171875L-93.207031 0.12109375Q-93.300781 -0.52734375 -93.675781 -0.9140625Q-94.050781 -1.3007812 -94.738281 -1.3007812Q-96.433594 -1.3007812 -96.433594 1.5351562Q-96.433594 4.4570312 -94.707031 4.4570312Q-94.082031 4.4570312 -93.660156 4.0625Q-93.238281 3.6679688 -93.136719 2.8867188L-90.933594 2.9882812Q-91.050781 3.8554688 -91.554688 4.5351562Q-92.058594 5.2148438 -92.878906 5.5859375Q-93.699219 5.9570312 -94.722656 5.9570312ZM-81.316406 1.5664062Q-81.316406 3.6210938 -82.457031 4.7890625Q-83.597656 5.9570312 -85.613281 5.9570312Q-87.589844 5.9570312 -88.714844 4.7851562Q-89.839844 3.6132812 -89.839844 1.5664062Q-89.839844 -0.47265625 -88.714844 -1.640625Q-87.589844 -2.8085938 -85.566406 -2.8085938Q-83.496094 -2.8085938 -82.40625 -1.6796875Q-81.316406 -0.55078125 -81.316406 1.5664062ZM-83.613281 1.5664062Q-83.613281 0.05859375 -84.105469 -0.62109375Q-84.597656 -1.3007812 -85.535156 -1.3007812Q-87.535156 -1.3007812 -87.535156 1.5664062Q-87.535156 2.9804688 -87.046875 3.71875Q-86.558594 4.4570312 -85.636719 4.4570312Q-83.613281 4.4570312 -83.613281 1.5664062ZM-74.097656 5.8007812L-74.097656 1.0585938Q-74.097656 -1.1679688 -75.605469 -1.1679688Q-76.402344 -1.1679688 -76.890625 -0.484375Q-77.378906 0.19921875 -77.378906 1.2695312L-77.378906 5.8007812L-79.574219 5.8007812L-79.574219 -0.76171875Q-79.574219 -1.4414062 -79.59375 -1.875Q-79.613281 -2.3085938 -79.636719 -2.6523438L-77.542969 -2.6523438Q-77.519531 -2.5039062 -77.480469 -1.859375Q-77.441406 -1.2148438 -77.441406 -0.97265625L-77.410156 -0.97265625Q-76.964844 -1.9414062 -76.292969 -2.3789062Q-75.621094 -2.8164062 -74.691406 -2.8164062Q-73.347656 -2.8164062 -72.628906 -1.9882812Q-71.910156 -1.1601562 -71.910156 0.43359375L-71.910156 5.8007812L-74.097656 5.8007812ZM-64.324219 5.8007812L-64.324219 1.0585938Q-64.324219 -1.1679688 -65.832031 -1.1679688Q-66.628906 -1.1679688 -67.117188 -0.484375Q-67.605469 0.19921875 -67.605469 1.2695312L-67.605469 5.8007812L-69.800781 5.8007812L-69.800781 -0.76171875Q-69.800781 -1.4414062 -69.820312 -1.875Q-69.839844 -2.3085938 -69.863281 -2.6523438L-67.769531 -2.6523438Q-67.746094 -2.5039062 -67.707031 -1.859375Q-67.667969 -1.2148438 -67.667969 -0.97265625L-67.636719 -0.97265625Q-67.191406 -1.9414062 -66.519531 -2.3789062Q-65.847656 -2.8164062 -64.917969 -2.8164062Q-63.574219 -2.8164062 -62.855469 -1.9882812Q-62.136719 -1.1601562 -62.136719 0.43359375L-62.136719 5.8007812L-64.324219 5.8007812ZM-60.519531 2.6054688L-60.519531 0.69921875L-56.457031 0.69921875L-56.457031 2.6054688L-60.519531 2.6054688ZM-46.699219 1.5351562Q-46.699219 3.6523438 -47.546875 4.8046875Q-48.394531 5.9570312 -49.941406 5.9570312Q-50.832031 5.9570312 -51.492188 5.5703125Q-52.152344 5.1835938 -52.503906 4.4570312L-52.550781 4.4570312Q-52.503906 4.6914062 -52.503906 5.8789062L-52.503906 9.1210938L-54.699219 9.1210938L-54.699219 -0.70703125Q-54.699219 -1.9023438 -54.761719 -2.6523438L-52.628906 -2.6523438Q-52.589844 -2.5117188 -52.5625 -2.0976562Q-52.535156 -1.6835938 -52.535156 -1.2773438L-52.503906 -1.2773438Q-51.761719 -2.8320312 -49.800781 -2.8320312Q-48.324219 -2.8320312 -47.511719 -1.6953125Q-46.699219 -0.55859375 -46.699219 1.5351562ZM-48.988281 1.5351562Q-48.988281 -1.3085938 -50.730469 -1.3085938Q-51.605469 -1.3085938 -52.070312 -0.54296875Q-52.535156 0.22265625 -52.535156 1.5976562Q-52.535156 2.9648438 -52.070312 3.7109375Q-51.605469 4.4570312 -50.746094 4.4570312Q-48.988281 4.4570312 -48.988281 1.5351562ZM-41.464844 5.9570312Q-43.371094 5.9570312 -44.394531 4.828125Q-45.417969 3.6992188 -45.417969 1.5351562Q-45.417969 -0.55859375 -44.378906 -1.6835938Q-43.339844 -2.8085938 -41.433594 -2.8085938Q-39.613281 -2.8085938 -38.652344 -1.6015625Q-37.691406 -0.39453125 -37.691406 1.9335938L-37.691406 1.9960938L-43.113281 1.9960938Q-43.113281 3.2304688 -42.65625 3.859375Q-42.199219 4.4882812 -41.355469 4.4882812Q-40.191406 4.4882812 -39.886719 3.4804688L-37.816406 3.6601562Q-38.714844 5.9570312 -41.464844 5.9570312ZM-41.464844 -1.4257812Q-42.238281 -1.4257812 -42.65625 -0.88671875Q-43.074219 -0.34765625 -43.097656 0.62109375L-39.816406 0.62109375Q-39.878906 -0.40234375 -40.308594 -0.9140625Q-40.738281 -1.4257812 -41.464844 -1.4257812ZM-36.027344 5.8007812L-36.027344 -5.7929688L-33.832031 -5.7929688L-33.832031 5.8007812L-36.027344 5.8007812ZM-23.550781 1.5664062Q-23.550781 3.6210938 -24.691406 4.7890625Q-25.832031 5.9570312 -27.847656 5.9570312Q-29.824219 5.9570312 -30.949219 4.7851562Q-32.074219 3.6132812 -32.074219 1.5664062Q-32.074219 -0.47265625 -30.949219 -1.640625Q-29.824219 -2.8085938 -27.800781 -2.8085938Q-25.730469 -2.8085938 -24.640625 -1.6796875Q-23.550781 -0.55078125 -23.550781 1.5664062ZM-25.847656 1.5664062Q-25.847656 0.05859375 -26.339844 -0.62109375Q-26.832031 -1.3007812 -27.769531 -1.3007812Q-29.769531 -1.3007812 -29.769531 1.5664062Q-29.769531 2.9804688 -29.28125 3.71875Q-28.792969 4.4570312 -27.871094 4.4570312Q-25.847656 4.4570312 -25.847656 1.5664062ZM-19.644531 5.9414062Q-20.613281 5.9414062 -21.136719 5.4140625Q-21.660156 4.8867188 -21.660156 3.8164062L-21.660156 -1.1679688L-22.730469 -1.1679688L-22.730469 -2.6523438L-21.550781 -2.6523438L-20.863281 -4.6367188L-19.488281 -4.6367188L-19.488281 -2.6523438L-17.886719 -2.6523438L-17.886719 -1.1679688L-19.488281 -1.1679688L-19.488281 3.2226562Q-19.488281 3.8398438 -19.253906 4.1328125Q-19.019531 4.4257812 -18.527344 4.4257812Q-18.269531 4.4257812 -17.792969 4.3164062L-17.792969 5.6757812Q-18.605469 5.9414062 -19.644531 5.9414062ZM-8.4492188 1.5664062Q-8.4492188 3.6210938 -9.5898438 4.7890625Q-10.730469 5.9570312 -12.746094 5.9570312Q-14.722656 5.9570312 -15.847656 4.7851562Q-16.972656 3.6132812 -16.972656 1.5664062Q-16.972656 -0.47265625 -15.847656 -1.640625Q-14.722656 -2.8085938 -12.699219 -2.8085938Q-10.628906 -2.8085938 -9.5390625 -1.6796875Q-8.4492188 -0.55078125 -8.4492188 1.5664062ZM-10.746094 1.5664062Q-10.746094 0.05859375 -11.238281 -0.62109375Q-11.730469 -1.3007812 -12.667969 -1.3007812Q-14.667969 -1.3007812 -14.667969 1.5664062Q-14.667969 2.9804688 -14.179688 3.71875Q-13.691406 4.4570312 -12.769531 4.4570312Q-10.746094 4.4570312 -10.746094 1.5664062ZM-1.2304688 5.8007812L-1.2304688 1.0585938Q-1.2304688 -1.1679688 -2.7382812 -1.1679688Q-3.5351562 -1.1679688 -4.0234375 -0.484375Q-4.5117188 0.19921875 -4.5117188 1.2695312L-4.5117188 5.8007812L-6.7070312 5.8007812L-6.7070312 -0.76171875Q-6.7070312 -1.4414062 -6.7265625 -1.875Q-6.7460938 -2.3085938 -6.7695312 -2.6523438L-4.6757812 -2.6523438Q-4.6523438 -2.5039062 -4.6132812 -1.859375Q-4.5742188 -1.2148438 -4.5742188 -0.97265625L-4.5429688 -0.97265625Q-4.0976562 -1.9414062 -3.4257812 -2.3789062Q-2.7539062 -2.8164062 -1.8242188 -2.8164062Q-0.48046875 -2.8164062 0.23828125 -1.9882812Q0.95703125 -1.1601562 0.95703125 0.43359375L0.95703125 5.8007812L-1.2304688 5.8007812ZM2.5742188 2.6054688L2.5742188 0.69921875L6.6367188 0.69921875L6.6367188 2.6054688L2.5742188 2.6054688ZM16.394531 1.5351562Q16.394531 3.6523438 15.546875 4.8046875Q14.699219 5.9570312 13.152344 5.9570312Q12.261719 5.9570312 11.601562 5.5703125Q10.941406 5.1835938 10.589844 4.4570312L10.542969 4.4570312Q10.589844 4.6914062 10.589844 5.8789062L10.589844 9.1210938L8.3945312 9.1210938L8.3945312 -0.70703125Q8.3945312 -1.9023438 8.3320312 -2.6523438L10.464844 -2.6523438Q10.503906 -2.5117188 10.53125 -2.0976562Q10.558594 -1.6835938 10.558594 -1.2773438L10.589844 -1.2773438Q11.332031 -2.8320312 13.292969 -2.8320312Q14.769531 -2.8320312 15.582031 -1.6953125Q16.394531 -0.55859375 16.394531 1.5351562ZM14.105469 1.5351562Q14.105469 -1.3085938 12.363281 -1.3085938Q11.488281 -1.3085938 11.023438 -0.54296875Q10.558594 0.22265625 10.558594 1.5976562Q10.558594 2.9648438 11.023438 3.7109375Q11.488281 4.4570312 12.347656 4.4570312Q14.105469 4.4570312 14.105469 1.5351562ZM18.167969 5.8007812L18.167969 -5.7929688L20.363281 -5.7929688L20.363281 5.8007812L18.167969 5.8007812ZM24.566406 5.9570312Q23.339844 5.9570312 22.652344 5.2890625Q21.964844 4.6210938 21.964844 3.4101562Q21.964844 2.0976562 22.820312 1.4101562Q23.675781 0.72265625 25.300781 0.70703125L27.121094 0.67578125L27.121094 0.24609375Q27.121094 -0.58203125 26.832031 -0.984375Q26.542969 -1.3867188 25.886719 -1.3867188Q25.277344 -1.3867188 24.992188 -1.109375Q24.707031 -0.83203125 24.636719 -0.19140625L22.347656 -0.30078125Q22.558594 -1.5351562 23.476562 -2.171875Q24.394531 -2.8085938 25.980469 -2.8085938Q27.582031 -2.8085938 28.449219 -2.0195312Q29.316406 -1.2304688 29.316406 0.22265625L29.316406 3.3007812Q29.316406 4.0117188 29.476562 4.28125Q29.636719 4.5507812 30.011719 4.5507812Q30.261719 4.5507812 30.496094 4.5039062L30.496094 5.6914062Q30.300781 5.7382812 30.144531 5.7773438Q29.988281 5.8164062 29.832031 5.8398438Q29.675781 5.8632812 29.5 5.8789062Q29.324219 5.8945312 29.089844 5.8945312Q28.261719 5.8945312 27.867188 5.4882812Q27.472656 5.0820312 27.394531 4.2929688L27.347656 4.2929688Q26.425781 5.9570312 24.566406 5.9570312ZM27.121094 1.8867188L25.996094 1.9023438Q25.230469 1.9335938 24.910156 2.0703125Q24.589844 2.2070312 24.421875 2.4882812Q24.253906 2.7695312 24.253906 3.2382812Q24.253906 3.8398438 24.53125 4.1328125Q24.808594 4.4257812 25.269531 4.4257812Q25.785156 4.4257812 26.210938 4.1445312Q26.636719 3.8632812 26.878906 3.3671875Q27.121094 2.8710938 27.121094 2.3164062L27.121094 1.8867188ZM33.675781 5.9414062Q32.707031 5.9414062 32.183594 5.4140625Q31.660156 4.8867188 31.660156 3.8164062L31.660156 -1.1679688L30.589844 -1.1679688L30.589844 -2.6523438L31.769531 -2.6523438L32.457031 -4.6367188L33.832031 -4.6367188L33.832031 -2.6523438L35.433594 -2.6523438L35.433594 -1.1679688L33.832031 -1.1679688L33.832031 3.2226562Q33.832031 3.8398438 34.066406 4.1328125Q34.300781 4.4257812 34.792969 4.4257812Q35.050781 4.4257812 35.527344 4.3164062L35.527344 5.6757812Q34.714844 5.9414062 33.675781 5.9414062ZM39.417969 -1.1679688L39.417969 5.8007812L37.230469 5.8007812L37.230469 -1.1679688L35.996094 -1.1679688L35.996094 -2.6523438L37.230469 -2.6523438L37.230469 -3.5351562Q37.230469 -4.6835938 37.839844 -5.2382812Q38.449219 -5.7929688 39.691406 -5.7929688Q40.308594 -5.7929688 41.082031 -5.6679688L41.082031 -4.2539062Q40.761719 -4.3242188 40.441406 -4.3242188Q39.878906 -4.3242188 39.648438 -4.1015625Q39.417969 -3.8789062 39.417969 -3.3164062L39.417969 -2.6523438L41.082031 -2.6523438L41.082031 -1.1679688L39.417969 -1.1679688ZM50.199219 1.5664062Q50.199219 3.6210938 49.058594 4.7890625Q47.917969 5.9570312 45.902344 5.9570312Q43.925781 5.9570312 42.800781 4.7851562Q41.675781 3.6132812 41.675781 1.5664062Q41.675781 -0.47265625 42.800781 -1.640625Q43.925781 -2.8085938 45.949219 -2.8085938Q48.019531 -2.8085938 49.109375 -1.6796875Q50.199219 -0.55078125 50.199219 1.5664062ZM47.902344 1.5664062Q47.902344 0.05859375 47.410156 -0.62109375Q46.917969 -1.3007812 45.980469 -1.3007812Q43.980469 -1.3007812 43.980469 1.5664062Q43.980469 2.9804688 44.46875 3.71875Q44.957031 4.4570312 45.878906 4.4570312Q47.902344 4.4570312 47.902344 1.5664062ZM51.941406 5.8007812L51.941406 -0.66796875Q51.941406 -1.3632812 51.921875 -1.828125Q51.902344 -2.2929688 51.878906 -2.6523438L53.972656 -2.6523438Q53.996094 -2.5117188 54.035156 -1.796875Q54.074219 -1.0820312 54.074219 -0.84765625L54.105469 -0.84765625Q54.425781 -1.7382812 54.675781 -2.1015625Q54.925781 -2.4648438 55.269531 -2.640625Q55.613281 -2.8164062 56.128906 -2.8164062Q56.550781 -2.8164062 56.808594 -2.6992188L56.808594 -0.86328125Q56.277344 -0.98046875 55.871094 -0.98046875Q55.050781 -0.98046875 54.59375 -0.31640625Q54.136719 0.34765625 54.136719 1.6523438L54.136719 5.8007812L51.941406 5.8007812ZM63.144531 5.8007812L63.144531 1.0585938Q63.144531 -1.1679688 61.863281 -1.1679688Q61.199219 -1.1679688 60.78125 -0.48828125Q60.363281 0.19140625 60.363281 1.2695312L60.363281 5.8007812L58.167969 5.8007812L58.167969 -0.76171875Q58.167969 -1.4414062 58.148438 -1.875Q58.128906 -2.3085938 58.105469 -2.6523438L60.199219 -2.6523438Q60.222656 -2.5039062 60.261719 -1.859375Q60.300781 -1.2148438 60.300781 -0.97265625L60.332031 -0.97265625Q60.738281 -1.9414062 61.34375 -2.3789062Q61.949219 -2.8164062 62.792969 -2.8164062Q64.730469 -2.8164062 65.144531 -0.97265625L65.191406 -0.97265625Q65.621094 -1.9570312 66.222656 -2.3867188Q66.824219 -2.8164062 67.753906 -2.8164062Q68.988281 -2.8164062 69.636719 -1.9765625Q70.285156 -1.1367188 70.285156 0.43359375L70.285156 5.8007812L68.105469 5.8007812L68.105469 1.0585938Q68.105469 -1.1679688 66.824219 -1.1679688Q66.183594 -1.1679688 65.773438 -0.546875Q65.363281 0.07421875 65.324219 1.1679688L65.324219 5.8007812L63.144531 5.8007812ZM76.347656 2.6054688L76.347656 0.69921875L80.410156 0.69921875L80.410156 2.6054688L76.347656 2.6054688ZM88.871094 -3.4257812L88.871094 -0.01953125L94.503906 -0.01953125L94.503906 1.7617188L88.871094 1.7617188L88.871094 5.8007812L86.566406 5.8007812L86.566406 -5.2070312L94.683594 -5.2070312L94.683594 -3.4257812L88.871094 -3.4257812ZM107.04297 0.24609375Q107.04297 1.9648438 106.36328 3.2695312Q105.68359 4.5742188 104.41797 5.265625Q103.15234 5.9570312 101.46484 5.9570312Q98.871094 5.9570312 97.398438 4.4296875Q95.925781 2.9023438 95.925781 0.24609375Q95.925781 -2.4023438 97.394531 -3.8867188Q98.863281 -5.3710938 101.48047 -5.3710938Q104.09766 -5.3710938 105.57031 -3.8710938Q107.04297 -2.3710938 107.04297 0.24609375ZM104.69141 0.24609375Q104.69141 -1.5351562 103.84766 -2.546875Q103.00391 -3.5585938 101.48047 -3.5585938Q99.933594 -3.5585938 99.089844 -2.5546875Q98.246094 -1.5507812 98.246094 0.24609375Q98.246094 2.0585938 99.109375 3.1015625Q99.972656 4.1445312 101.46484 4.1445312Q103.01172 4.1445312 103.85156 3.1289062Q104.69141 2.1132812 104.69141 0.24609375ZM116.34766 5.8007812L113.79297 1.6210938L111.08984 1.6210938L111.08984 5.8007812L108.78516 5.8007812L108.78516 -5.2070312L114.28516 -5.2070312Q116.25391 -5.2070312 117.32422 -4.359375Q118.39453 -3.5117188 118.39453 -1.9257812Q118.39453 -0.76953125 117.73828 0.0703125Q117.08203 0.91015625 115.96484 1.1757812L118.94141 5.8007812L116.34766 5.8007812ZM116.07422 -1.8320312Q116.07422 -3.4179688 114.04297 -3.4179688L111.08984 -3.4179688L111.08984 -0.16796875L114.10547 -0.16796875Q115.07422 -0.16796875 115.57422 -0.60546875Q116.07422 -1.0429688 116.07422 -1.8320312ZM129.48047 5.8007812L129.48047 -0.87109375Q129.48047 -1.0976562 129.48438 -1.3242188Q129.48828 -1.5507812 129.55859 -3.2695312Q129.00391 -1.1679688 128.73828 -0.33984375L126.75391 5.8007812L125.11328 5.8007812L123.12891 -0.33984375L122.29297 -3.2695312Q122.38672 -1.4570312 122.38672 -0.87109375L122.38672 5.8007812L120.33984 5.8007812L120.33984 -5.2070312L123.42578 -5.2070312L125.39453 0.94921875L125.56641 1.5429688L125.94141 3.0195312L126.43359 1.2539062L128.45703 -5.2070312L131.52734 -5.2070312L131.52734 5.8007812L129.48047 5.8007812ZM141.44922 5.8007812L140.47266 2.9882812L136.27734 2.9882812L135.30078 5.8007812L132.99609 5.8007812L137.01172 -5.2070312L139.73047 -5.2070312L143.73047 5.8007812L141.44922 5.8007812ZM138.37109 -3.5117188L138.32422 -3.3398438Q138.24609 -3.0585938 138.13672 -2.6992188Q138.02734 -2.3398438 136.79297 1.2539062L139.95703 1.2539062L138.87109 -1.9101562L138.53516 -2.9726562L138.37109 -3.5117188ZM149.00391 -3.4257812L149.00391 5.8007812L146.69922 5.8007812L146.69922 -3.4257812L143.14453 -3.4257812L143.14453 -5.2070312L152.56641 -5.2070312L152.56641 -3.4257812L149.00391 -3.4257812ZM168.06641 0.21484375Q168.06641 1.9179688 167.39844 3.1875Q166.73047 4.4570312 165.50781 5.1289062Q164.28516 5.8007812 162.70703 5.8007812L158.25391 5.8007812L158.25391 -5.2070312L162.23828 -5.2070312Q165.01953 -5.2070312 166.54297 -3.8046875Q168.06641 -2.4023438 168.06641 0.21484375ZM165.74609 0.21484375Q165.74609 -1.5585938 164.82422 -2.4921875Q163.90234 -3.4257812 162.19141 -3.4257812L160.55859 -3.4257812L160.55859 4.0195312L162.51172 4.0195312Q163.99609 4.0195312 164.87109 2.9960938Q165.74609 1.9726562 165.74609 0.21484375ZM177.88672 1.5664062Q177.88672 3.6210938 176.74609 4.7890625Q175.60547 5.9570312 173.58984 5.9570312Q171.61328 5.9570312 170.48828 4.7851562Q169.36328 3.6132812 169.36328 1.5664062Q169.36328 -0.47265625 170.48828 -1.640625Q171.61328 -2.8085938 173.63672 -2.8085938Q175.70703 -2.8085938 176.79688 -1.6796875Q177.88672 -0.55078125 177.88672 1.5664062ZM175.58984 1.5664062Q175.58984 0.05859375 175.09766 -0.62109375Q174.60547 -1.3007812 173.66797 -1.3007812Q171.66797 -1.3007812 171.66797 1.5664062Q171.66797 2.9804688 172.15625 3.71875Q172.64453 4.4570312 173.56641 4.4570312Q175.58984 4.4570312 175.58984 1.5664062ZM188.76953 5.8007812L186.44922 5.8007812L185.10547 0.64453125Q185.01172 0.29296875 184.73828 -1.0898438L184.33203 0.66015625L182.97266 5.8007812L180.65234 5.8007812L178.46484 -2.6523438L180.52734 -2.6523438L181.91797 3.8085938L182.02734 3.2304688L182.22266 2.3164062L183.55078 -2.6523438L185.90234 -2.6523438L187.19922 2.3164062Q187.30859 2.7226562 187.51953 3.8085938L187.73828 2.7773438L188.95703 -2.6523438L190.98828 -2.6523438L188.76953 5.8007812ZM197.55078 5.8007812L197.55078 1.0585938Q197.55078 -1.1679688 196.04297 -1.1679688Q195.24609 -1.1679688 194.75781 -0.484375Q194.26953 0.19921875 194.26953 1.2695312L194.26953 5.8007812L192.07422 5.8007812L192.07422 -0.76171875Q192.07422 -1.4414062 192.05469 -1.875Q192.03516 -2.3085938 192.01172 -2.6523438L194.10547 -2.6523438Q194.12891 -2.5039062 194.16797 -1.859375Q194.20703 -1.2148438 194.20703 -0.97265625L194.23828 -0.97265625Q194.68359 -1.9414062 195.35547 -2.3789062Q196.02734 -2.8164062 196.95703 -2.8164062Q198.30078 -2.8164062 199.01953 -1.9882812Q199.73828 -1.1601562 199.73828 0.43359375L199.73828 5.8007812L197.55078 5.8007812ZM201.84766 5.8007812L201.84766 -5.7929688L204.04297 -5.7929688L204.04297 5.8007812L201.84766 5.8007812ZM214.32422 1.5664062Q214.32422 3.6210938 213.18359 4.7890625Q212.04297 5.9570312 210.02734 5.9570312Q208.05078 5.9570312 206.92578 4.7851562Q205.80078 3.6132812 205.80078 1.5664062Q205.80078 -0.47265625 206.92578 -1.640625Q208.05078 -2.8085938 210.07422 -2.8085938Q212.14453 -2.8085938 213.23438 -1.6796875Q214.32422 -0.55078125 214.32422 1.5664062ZM212.02734 1.5664062Q212.02734 0.05859375 211.53516 -0.62109375Q211.04297 -1.3007812 210.10547 -1.3007812Q208.10547 -1.3007812 208.10547 1.5664062Q208.10547 2.9804688 208.59375 3.71875Q209.08203 4.4570312 210.00391 4.4570312Q212.02734 4.4570312 212.02734 1.5664062ZM218.01953 5.9570312Q216.79297 5.9570312 216.10547 5.2890625Q215.41797 4.6210938 215.41797 3.4101562Q215.41797 2.0976562 216.27344 1.4101562Q217.12891 0.72265625 218.75391 0.70703125L220.57422 0.67578125L220.57422 0.24609375Q220.57422 -0.58203125 220.28516 -0.984375Q219.99609 -1.3867188 219.33984 -1.3867188Q218.73047 -1.3867188 218.44531 -1.109375Q218.16016 -0.83203125 218.08984 -0.19140625L215.80078 -0.30078125Q216.01172 -1.5351562 216.92969 -2.171875Q217.84766 -2.8085938 219.43359 -2.8085938Q221.03516 -2.8085938 221.90234 -2.0195312Q222.76953 -1.2304688 222.76953 0.22265625L222.76953 3.3007812Q222.76953 4.0117188 222.92969 4.28125Q223.08984 4.5507812 223.46484 4.5507812Q223.71484 4.5507812 223.94922 4.5039062L223.94922 5.6914062Q223.75391 5.7382812 223.59766 5.7773438Q223.44141 5.8164062 223.28516 5.8398438Q223.12891 5.8632812 222.95312 5.8789062Q222.77734 5.8945312 222.54297 5.8945312Q221.71484 5.8945312 221.32031 5.4882812Q220.92578 5.0820312 220.84766 4.2929688L220.80078 4.2929688Q219.87891 5.9570312 218.01953 5.9570312ZM220.57422 1.8867188L219.44922 1.9023438Q218.68359 1.9335938 218.36328 2.0703125Q218.04297 2.2070312 217.875 2.4882812Q217.70703 2.7695312 217.70703 3.2382812Q217.70703 3.8398438 217.98438 4.1328125Q218.26172 4.4257812 218.72266 4.4257812Q219.23828 4.4257812 219.66406 4.1445312Q220.08984 3.8632812 220.33203 3.3671875Q220.57422 2.8710938 220.57422 2.3164062L220.57422 1.8867188ZM230.44141 5.8007812Q230.41016 5.6835938 230.36719 5.2109375Q230.32422 4.7382812 230.32422 4.4257812L230.29297 4.4257812Q229.58203 5.9570312 227.58984 5.9570312Q226.11328 5.9570312 225.30859 4.8046875Q224.50391 3.6523438 224.50391 1.5820312Q224.50391 -0.51953125 225.35156 -1.6640625Q226.19922 -2.8085938 227.75391 -2.8085938Q228.65234 -2.8085938 229.30469 -2.4335938Q229.95703 -2.0585938 230.30859 -1.3164062L230.32422 -1.3164062L230.30859 -2.7070312L230.30859 -5.7929688L232.50391 -5.7929688L232.50391 3.9570312Q232.50391 4.7382812 232.56641 5.8007812L230.44141 5.8007812ZM230.33984 1.5273438Q230.33984 0.16015625 229.88281 -0.578125Q229.42578 -1.3164062 228.53516 -1.3164062Q227.65234 -1.3164062 227.22266 -0.6015625Q226.79297 0.11328125 226.79297 1.5820312Q226.79297 4.4570312 228.51953 4.4570312Q229.38672 4.4570312 229.86328 3.6953125Q230.33984 2.9335938 230.33984 1.5273438ZM244.10547 -3.4257812L244.10547 5.8007812L241.80078 5.8007812L241.80078 -3.4257812L238.24609 -3.4257812L238.24609 -5.2070312L247.66797 -5.2070312L247.66797 -3.4257812L244.10547 -3.4257812ZM248.07422 5.8007812L248.07422 -0.66796875Q248.07422 -1.3632812 248.05469 -1.828125Q248.03516 -2.2929688 248.01172 -2.6523438L250.10547 -2.6523438Q250.12891 -2.5117188 250.16797 -1.796875Q250.20703 -1.0820312 250.20703 -0.84765625L250.23828 -0.84765625Q250.55859 -1.7382812 250.80859 -2.1015625Q251.05859 -2.4648438 251.40234 -2.640625Q251.74609 -2.8164062 252.26172 -2.8164062Q252.68359 -2.8164062 252.94141 -2.6992188L252.94141 -0.86328125Q252.41016 -0.98046875 252.00391 -0.98046875Q251.18359 -0.98046875 250.72656 -0.31640625Q250.26953 0.34765625 250.26953 1.6523438L250.26953 5.8007812L248.07422 5.8007812ZM257.76172 5.9570312Q255.85547 5.9570312 254.83203 4.828125Q253.80859 3.6992188 253.80859 1.5351562Q253.80859 -0.55859375 254.84766 -1.6835938Q255.88672 -2.8085938 257.79297 -2.8085938Q259.61328 -2.8085938 260.57422 -1.6015625Q261.53516 -0.39453125 261.53516 1.9335938L261.53516 1.9960938L256.11328 1.9960938Q256.11328 3.2304688 256.57031 3.859375Q257.02734 4.4882812 257.87109 4.4882812Q259.03516 4.4882812 259.33984 3.4804688L261.41016 3.6601562Q260.51172 5.9570312 257.76172 5.9570312ZM257.76172 -1.4257812Q256.98828 -1.4257812 256.57031 -0.88671875Q256.15234 -0.34765625 256.12891 0.62109375L259.41016 0.62109375Q259.34766 -0.40234375 258.91797 -0.9140625Q258.48828 -1.4257812 257.76172 -1.4257812ZM268.67578 5.8007812L268.67578 1.0585938Q268.67578 -1.1679688 267.16797 -1.1679688Q266.37109 -1.1679688 265.88281 -0.484375Q265.39453 0.19921875 265.39453 1.2695312L265.39453 5.8007812L263.19922 5.8007812L263.19922 -0.76171875Q263.19922 -1.4414062 263.17969 -1.875Q263.16016 -2.3085938 263.13672 -2.6523438L265.23047 -2.6523438Q265.25391 -2.5039062 265.29297 -1.859375Q265.33203 -1.2148438 265.33203 -0.97265625L265.36328 -0.97265625Q265.80859 -1.9414062 266.48047 -2.3789062Q267.15234 -2.8164062 268.08203 -2.8164062Q269.42578 -2.8164062 270.14453 -1.9882812Q270.86328 -1.1601562 270.86328 0.43359375L270.86328 5.8007812L268.67578 5.8007812ZM278.44922 5.8007812Q278.41797 5.6835938 278.375 5.2109375Q278.33203 4.7382812 278.33203 4.4257812L278.30078 4.4257812Q277.58984 5.9570312 275.59766 5.9570312Q274.12109 5.9570312 273.31641 4.8046875Q272.51172 3.6523438 272.51172 1.5820312Q272.51172 -0.51953125 273.35938 -1.6640625Q274.20703 -2.8085938 275.76172 -2.8085938Q276.66016 -2.8085938 277.3125 -2.4335938Q277.96484 -2.0585938 278.31641 -1.3164062L278.33203 -1.3164062L278.31641 -2.7070312L278.31641 -5.7929688L280.51172 -5.7929688L280.51172 3.9570312Q280.51172 4.7382812 280.57422 5.8007812L278.44922 5.8007812ZM278.34766 1.5273438Q278.34766 0.16015625 277.89062 -0.578125Q277.43359 -1.3164062 276.54297 -1.3164062Q275.66016 -1.3164062 275.23047 -0.6015625Q274.80078 0.11328125 274.80078 1.5820312Q274.80078 4.4570312 276.52734 4.4570312Q277.39453 4.4570312 277.87109 3.6953125Q278.34766 2.9335938 278.34766 1.5273438ZM289.87109 3.3320312Q289.87109 4.5585938 288.86719 5.2578125Q287.86328 5.9570312 286.08984 5.9570312Q284.34766 5.9570312 283.42188 5.40625Q282.49609 4.8554688 282.19141 3.6914062L284.12109 3.4023438Q284.28516 4.0039062 284.6875 4.2539062Q285.08984 4.5039062 286.08984 4.5039062Q287.01172 4.5039062 287.43359 4.2695312Q287.85547 4.0351562 287.85547 3.5351562Q287.85547 3.1289062 287.51562 2.890625Q287.17578 2.6523438 286.36328 2.4882812Q284.50391 2.1210938 283.85547 1.8046875Q283.20703 1.4882812 282.86719 0.984375Q282.52734 0.48046875 282.52734 -0.25390625Q282.52734 -1.4648438 283.46094 -2.140625Q284.39453 -2.8164062 286.10547 -2.8164062Q287.61328 -2.8164062 288.53125 -2.2304688Q289.44922 -1.6445312 289.67578 -0.53515625L287.73047 -0.33203125Q287.63672 -0.84765625 287.26953 -1.1015625Q286.90234 -1.3554688 286.10547 -1.3554688Q285.32422 -1.3554688 284.93359 -1.15625Q284.54297 -0.95703125 284.54297 -0.48828125Q284.54297 -0.12109375 284.84375 0.09375Q285.14453 0.30859375 285.85547 0.44921875Q286.84766 0.65234375 287.61719 0.8671875Q288.38672 1.0820312 288.85156 1.3789062Q289.31641 1.6757812 289.59375 2.140625Q289.87109 2.6054688 289.87109 3.3320312Z"/>
	<path fill="none" stroke="black" stroke-width="1" stroke-miterlimit="10" stroke-opacity="0.10196079" d="M49 749.5L1195 749.5"/>
	<clipPath id="cl_34a">
		<rect y="749.20001" width="1200" height="50.799988"/>
	</clipPath>
	<g clip-path="url(#cl_34a)">
		<path fill="#666" transform="translate(49.75 760.2)" d="M-12.751953 11.300586L-14 11.300586L-16.302734 4.960742L-15.177734 4.960742L-13.783203 9.085742Q-13.707031 9.320117 -13.378906 10.474414L-13.173828 9.788867L-12.945312 9.0974607L-11.503906 4.960742L-10.384766 4.960742L-12.751953 11.300586ZM-4.1386719 7.1697264Q-4.1386719 9.2380857 -4.8681641 10.327929Q-5.5976562 11.417773 -7.0214844 11.417773Q-8.4453125 11.417773 -9.1601562 10.333789Q-9.875 9.2498045 -9.875 7.1697264Q-9.875 5.0427732 -9.1806641 3.9822264Q-8.4863281 2.9216795 -6.9863281 2.9216795Q-5.5273438 2.9216795 -4.8330078 3.9939451Q-4.1386719 5.0662107 -4.1386719 7.1697264ZM-5.2109375 7.1697264Q-5.2109375 5.382617 -5.6240234 4.5798826Q-6.0371094 3.7771482 -6.9863281 3.7771482Q-7.9589844 3.7771482 -8.3837891 4.5681639Q-8.8085938 5.3591795 -8.8085938 7.1697264Q-8.8085938 8.9275389 -8.3779297 9.741992Q-7.9472656 10.556445 -7.0097656 10.556445Q-6.078125 10.556445 -5.6445312 9.7244139Q-5.2109375 8.8923826 -5.2109375 7.1697264ZM-2.5742188 11.300586L-2.5742188 10.017383L-1.4316406 10.017383L-1.4316406 11.300586L-2.5742188 11.300586ZM0.578125 11.300586L0.578125 10.404101L2.6816406 10.404101L2.6816406 4.0525389L0.81835938 5.382617L0.81835938 4.3865232L2.7695312 3.0447264L3.7421875 3.0447264L3.7421875 10.404101L5.7519531 10.404101L5.7519531 11.300586L0.578125 11.300586ZM7.4335938 11.300586L7.4335938 10.017383L8.5761719 10.017383L8.5761719 11.300586L7.4335938 11.300586ZM15.876953 7.1697264Q15.876953 9.2380857 15.147461 10.327929Q14.417969 11.417773 12.994141 11.417773Q11.570312 11.417773 10.855469 10.333789Q10.140625 9.2498045 10.140625 7.1697264Q10.140625 5.0427732 10.834961 3.9822264Q11.529297 2.9216795 13.029297 2.9216795Q14.488281 2.9216795 15.182617 3.9939451Q15.876953 5.0662107 15.876953 7.1697264ZM14.804688 7.1697264Q14.804688 5.382617 14.391602 4.5798826Q13.978516 3.7771482 13.029297 3.7771482Q12.056641 3.7771482 11.631836 4.5681639Q11.207031 5.3591795 11.207031 7.1697264Q11.207031 8.9275389 11.637695 9.741992Q12.068359 10.556445 13.005859 10.556445Q13.9375 10.556445 14.371094 9.7244139Q14.804688 8.8923826 14.804688 7.1697264Z"/>
	</g>
	<path fill="none" stroke="black" stroke-width="1" stroke-miterlimit="10" stroke-opacity="0.10196079" d="M49.5 71L49.5 750"/>
	<clipPath id="cl_34c">
		<rect width="49.75" height="800"/>
	</clipPath>
	<g clip-path="url(#cl_34c)">
		<path fill="#666" transform="translate(38.75 749.2)" d="M-0.46679688 -0.030273438Q-0.46679688 2.0380859 -1.1962891 3.1279297Q-1.9257812 4.2177734 -3.3496094 4.2177734Q-4.7734375 4.2177734 -5.4882812 3.1337891Q-6.203125 2.0498047 -6.203125 -0.030273438Q-6.203125 -2.1572266 -5.5087891 -3.2177734Q-4.8144531 -4.2783203 -3.3144531 -4.2783203Q-1.8554688 -4.2783203 -1.1611328 -3.2060547Q-0.46679688 -2.1337891 -0.46679688 -0.030273438ZM-1.5390625 -0.030273438Q-1.5390625 -1.8173828 -1.9521484 -2.6201172Q-2.3652344 -3.4228516 -3.3144531 -3.4228516Q-4.2871094 -3.4228516 -4.7119141 -2.6318359Q-5.1367188 -1.8408203 -5.1367188 -0.030273438Q-5.1367188 1.7275391 -4.7060547 2.5419922Q-4.2753906 3.3564453 -3.3378906 3.3564453Q-2.40625 3.3564453 -1.9726562 2.5244141Q-1.5390625 1.6923828 -1.5390625 -0.030273438Z"/>
	</g>
	<clipPath id="cl_34d">
		<rect width="49.75" height="800"/>
	</clipPath>
	<g clip-path="url(#cl_34d)">
		<path fill="#666" transform="translate(38.75 681.4)" d="M-5.7578125 4.1005859L-5.7578125 3.2041016L-3.6542969 3.2041016L-3.6542969 -3.1474609L-5.5175781 -1.8173828L-5.5175781 -2.8134766L-3.5664062 -4.1552734L-2.59375 -4.1552734L-2.59375 3.2041016L-0.58398438 3.2041016L-0.58398438 4.1005859L-5.7578125 4.1005859Z"/>
	</g>
	<clipPath id="cl_34e">
		<rect width="49.75" height="800"/>
	</clipPath>
	<g clip-path="url(#cl_34e)">
		<path fill="#666" transform="translate(38.75 613.6)" d="M-6.0683594 4.1005859L-6.0683594 3.3564453Q-5.7695312 2.6708984 -5.3388672 2.1464844Q-4.9082031 1.6220703 -4.4335938 1.1972656Q-3.9589844 0.77246094 -3.4931641 0.40917969Q-3.0273438 0.045898438 -2.6523438 -0.31738281Q-2.2773438 -0.68066406 -2.0458984 -1.0791016Q-1.8144531 -1.4775391 -1.8144531 -1.9814453Q-1.8144531 -2.6611328 -2.2128906 -3.0361328Q-2.6113281 -3.4111328 -3.3203125 -3.4111328Q-3.9941406 -3.4111328 -4.4306641 -3.0449219Q-4.8671875 -2.6787109 -4.9433594 -2.0166016L-6.0214844 -2.1162109Q-5.9042969 -3.1064453 -5.1806641 -3.6923828Q-4.4570312 -4.2783203 -3.3203125 -4.2783203Q-2.0722656 -4.2783203 -1.4013672 -3.6894531Q-0.73046875 -3.1005859 -0.73046875 -2.0166016Q-0.73046875 -1.5361328 -0.95019531 -1.0615234Q-1.1699219 -0.58691406 -1.6035156 -0.11230469Q-2.0371094 0.36230469 -3.2617188 1.3583984Q-3.9355469 1.9091797 -4.3339844 2.3515625Q-4.7324219 2.7939453 -4.9082031 3.2041016L-0.6015625 3.2041016L-0.6015625 4.1005859L-6.0683594 4.1005859Z"/>
	</g>
	<clipPath id="cl_34f">
		<rect width="49.75" height="800"/>
	</clipPath>
	<g clip-path="url(#cl_34f)">
		<path fill="#666" transform="translate(38.75 545.8)" d="M-0.52539062 1.8212891Q-0.52539062 2.9638672 -1.2519531 3.5908203Q-1.9785156 4.2177734 -3.3261719 4.2177734Q-4.5800781 4.2177734 -5.3271484 3.6523438Q-6.0742188 3.0869141 -6.2148438 1.9794922L-5.125 1.8798828Q-4.9140625 3.3447266 -3.3261719 3.3447266Q-2.5292969 3.3447266 -2.0751953 2.9521484Q-1.6210938 2.5595703 -1.6210938 1.7861328Q-1.6210938 1.1123047 -2.1396484 0.734375Q-2.6582031 0.35644531 -3.6367188 0.35644531L-4.234375 0.35644531L-4.234375 -0.55761719L-3.6601562 -0.55761719Q-2.7929688 -0.55761719 -2.3154297 -0.93554688Q-1.8378906 -1.3134766 -1.8378906 -1.9814453Q-1.8378906 -2.6435547 -2.2275391 -3.0273438Q-2.6171875 -3.4111328 -3.3847656 -3.4111328Q-4.0820312 -3.4111328 -4.5126953 -3.0537109Q-4.9433594 -2.6962891 -5.0136719 -2.0458984L-6.0742188 -2.1279297Q-5.9570312 -3.1416016 -5.2333984 -3.7099609Q-4.5097656 -4.2783203 -3.3730469 -4.2783203Q-2.1308594 -4.2783203 -1.4423828 -3.7011719Q-0.75390625 -3.1240234 -0.75390625 -2.0927734Q-0.75390625 -1.3017578 -1.1962891 -0.80664062Q-1.6386719 -0.31152344 -2.4824219 -0.13574219L-2.4824219 -0.11230469Q-1.5566406 -0.012695312 -1.0410156 0.50878906Q-0.52539062 1.0302734 -0.52539062 1.8212891Z"/>
	</g>
	<clipPath id="cl_350">
		<rect width="49.75" height="800"/>
	</clipPath>
	<g clip-path="url(#cl_350)">
		<path fill="#666" transform="translate(38.75 478)" d="M-1.5097656 2.2314453L-1.5097656 4.1005859L-2.5058594 4.1005859L-2.5058594 2.2314453L-6.3964844 2.2314453L-6.3964844 1.4111328L-2.6171875 -4.1552734L-1.5097656 -4.1552734L-1.5097656 1.3994141L-0.34960938 1.3994141L-0.34960938 2.2314453L-1.5097656 2.2314453ZM-2.5058594 -2.9658203Q-2.5175781 -2.9306641 -2.6699219 -2.6552734Q-2.8222656 -2.3798828 -2.8984375 -2.2685547L-5.0136719 0.84863281L-5.3300781 1.2822266L-5.4238281 1.3994141L-2.5058594 1.3994141L-2.5058594 -2.9658203Z"/>
	</g>
	<clipPath id="cl_351">
		<rect width="49.75" height="800"/>
	</clipPath>
	<g clip-path="url(#cl_351)">
		<path fill="#666" transform="translate(38.75 410.2)" d="M-0.50195312 1.4111328Q-0.50195312 2.7177734 -1.2783203 3.4677734Q-2.0546875 4.2177734 -3.4316406 4.2177734Q-4.5859375 4.2177734 -5.2949219 3.7138672Q-6.0039062 3.2099609 -6.1914062 2.2548828L-5.125 2.1318359Q-4.7910156 3.3564453 -3.4082031 3.3564453Q-2.5585938 3.3564453 -2.078125 2.84375Q-1.5976562 2.3310547 -1.5976562 1.4345703Q-1.5976562 0.65527344 -2.0810547 0.17480469Q-2.5644531 -0.30566406 -3.3847656 -0.30566406Q-3.8125 -0.30566406 -4.1816406 -0.17089844Q-4.5507812 -0.036132812 -4.9199219 0.28613281L-5.9511719 0.28613281L-5.6757812 -4.1552734L-0.98242188 -4.1552734L-0.98242188 -3.2587891L-4.7148438 -3.2587891L-4.8730469 -0.63964844Q-4.1875 -1.1669922 -3.1679688 -1.1669922Q-1.9492188 -1.1669922 -1.2255859 -0.45214844Q-0.50195312 0.26269531 -0.50195312 1.4111328Z"/>
	</g>
	<clipPath id="cl_352">
		<rect width="49.75" height="800"/>
	</clipPath>
	<g clip-path="url(#cl_352)">
		<path fill="#666" transform="translate(38.75 342.4)" d="M-0.52539062 1.3994141Q-0.52539062 2.7060547 -1.234375 3.4619141Q-1.9433594 4.2177734 -3.1914062 4.2177734Q-4.5859375 4.2177734 -5.3242188 3.1806641Q-6.0625 2.1435547 -6.0625 0.16308594Q-6.0625 -1.9814453 -5.2949219 -3.1298828Q-4.5273438 -4.2783203 -3.109375 -4.2783203Q-1.2402344 -4.2783203 -0.75390625 -2.5966797L-1.7617188 -2.4150391Q-2.0722656 -3.4228516 -3.1210938 -3.4228516Q-4.0234375 -3.4228516 -4.5185547 -2.5820312Q-5.0136719 -1.7412109 -5.0136719 -0.14746094Q-4.7265625 -0.68066406 -4.2050781 -0.95898438Q-3.6835938 -1.2373047 -3.0097656 -1.2373047Q-1.8671875 -1.2373047 -1.1962891 -0.52246094Q-0.52539062 0.19238281 -0.52539062 1.3994141ZM-1.5976562 1.4462891Q-1.5976562 0.54980469 -2.0371094 0.063476562Q-2.4765625 -0.42285156 -3.2617188 -0.42285156Q-4 -0.42285156 -4.4541016 0.0078125Q-4.9082031 0.43847656 -4.9082031 1.1943359Q-4.9082031 2.1494141 -4.4365234 2.7587891Q-3.9648438 3.3681641 -3.2265625 3.3681641Q-2.4648438 3.3681641 -2.03125 2.8554688Q-1.5976562 2.3427734 -1.5976562 1.4462891Z"/>
	</g>
	<clipPath id="cl_353">
		<rect width="49.75" height="800"/>
	</clipPath>
	<g clip-path="url(#cl_353)">
		<path fill="#666" transform="translate(38.75 274.6)" d="M-0.6015625 -3.2998047Q-1.8671875 -1.3662109 -2.3886719 -0.27050781Q-2.9101562 0.82519531 -3.1708984 1.8916016Q-3.4316406 2.9580078 -3.4316406 4.1005859L-4.5332031 4.1005859Q-4.5332031 2.5185547 -3.8623047 0.76953125Q-3.1914062 -0.97949219 -1.6210938 -3.2587891L-6.0566406 -3.2587891L-6.0566406 -4.1552734L-0.6015625 -4.1552734L-0.6015625 -3.2998047Z"/>
	</g>
	<clipPath id="cl_354">
		<rect width="49.75" height="800"/>
	</clipPath>
	<g clip-path="url(#cl_354)">
		<path fill="#666" transform="translate(38.75 206.8)" d="M-0.51953125 1.7978516Q-0.51953125 2.9404297 -1.2460938 3.5791016Q-1.9726562 4.2177734 -3.3320312 4.2177734Q-4.65625 4.2177734 -5.4033203 3.5908203Q-6.1503906 2.9638672 -6.1503906 1.8095703Q-6.1503906 1.0009766 -5.6875 0.45019531Q-5.2246094 -0.10058594 -4.5039062 -0.21777344L-4.5039062 -0.24121094Q-5.1777344 -0.39941406 -5.5673828 -0.92675781Q-5.9570312 -1.4541016 -5.9570312 -2.1630859Q-5.9570312 -3.1064453 -5.2509766 -3.6923828Q-4.5449219 -4.2783203 -3.3554688 -4.2783203Q-2.1367188 -4.2783203 -1.4306641 -3.7041016Q-0.72460938 -3.1298828 -0.72460938 -2.1513672Q-0.72460938 -1.4423828 -1.1171875 -0.91503906Q-1.5097656 -0.38769531 -2.1894531 -0.25292969L-2.1894531 -0.22949219Q-1.3984375 -0.10058594 -0.95898438 0.44140625Q-0.51953125 0.98339844 -0.51953125 1.7978516ZM-1.8203125 -2.0927734Q-1.8203125 -3.4931641 -3.3554688 -3.4931641Q-4.0996094 -3.4931641 -4.4892578 -3.1416016Q-4.8789062 -2.7900391 -4.8789062 -2.0927734Q-4.8789062 -1.3837891 -4.4775391 -1.0117188Q-4.0761719 -0.63964844 -3.34375 -0.63964844Q-2.5996094 -0.63964844 -2.2099609 -0.98242188Q-1.8203125 -1.3251953 -1.8203125 -2.0927734ZM-1.6152344 1.6982422Q-1.6152344 0.93066406 -2.0722656 0.54101562Q-2.5292969 0.15136719 -3.3554688 0.15136719Q-4.1582031 0.15136719 -4.609375 0.5703125Q-5.0605469 0.98925781 -5.0605469 1.7216797Q-5.0605469 3.4267578 -3.3203125 3.4267578Q-2.4589844 3.4267578 -2.0371094 3.0136719Q-1.6152344 2.6005859 -1.6152344 1.6982422Z"/>
	</g>
	<clipPath id="cl_355">
		<rect width="49.75" height="800"/>
	</clipPath>
	<g clip-path="url(#cl_355)">
		<path fill="#666" transform="translate(38.75 139)" d="M-0.56640625 -0.19433594Q-0.56640625 1.9326172 -1.3427734 3.0751953Q-2.1191406 4.2177734 -3.5546875 4.2177734Q-4.5214844 4.2177734 -5.1044922 3.8105469Q-5.6875 3.4033203 -5.9394531 2.4951172L-4.9316406 2.3369141Q-4.6152344 3.3681641 -3.5371094 3.3681641Q-2.6289062 3.3681641 -2.1308594 2.5244141Q-1.6328125 1.6806641 -1.609375 0.11621094Q-1.84375 0.64355469 -2.4121094 0.96289062Q-2.9804688 1.2822266 -3.6601562 1.2822266Q-4.7734375 1.2822266 -5.4414062 0.52050781Q-6.109375 -0.24121094 -6.109375 -1.5009766Q-6.109375 -2.7958984 -5.3828125 -3.5371094Q-4.65625 -4.2783203 -3.3613281 -4.2783203Q-1.984375 -4.2783203 -1.2753906 -3.2587891Q-0.56640625 -2.2392578 -0.56640625 -0.19433594ZM-1.7148438 -1.2138672Q-1.7148438 -2.2099609 -2.171875 -2.8164062Q-2.6289062 -3.4228516 -3.3964844 -3.4228516Q-4.1582031 -3.4228516 -4.5976562 -2.9042969Q-5.0371094 -2.3857422 -5.0371094 -1.5009766Q-5.0371094 -0.59863281 -4.5976562 -0.07421875Q-4.1582031 0.45019531 -3.4082031 0.45019531Q-2.9511719 0.45019531 -2.5585938 0.2421875Q-2.1660156 0.034179688 -1.9404297 -0.34667969Q-1.7148438 -0.72753906 -1.7148438 -1.2138672Z"/>
	</g>
	<clipPath id="cl_356">
		<rect width="49.75" height="800"/>
	</clipPath>
	<g clip-path="url(#cl_356)">
		<path fill="#666" transform="translate(38.75 71.2)" d="M-12.429688 4.1005859L-12.429688 3.2041016L-10.326172 3.2041016L-10.326172 -3.1474609L-12.189453 -1.8173828L-12.189453 -2.8134766L-10.238281 -4.1552734L-9.265625 -4.1552734L-9.265625 3.2041016L-7.2558594 3.2041016L-7.2558594 4.1005859L-12.429688 4.1005859ZM-0.46484375 -0.030273438Q-0.46484375 2.0380859 -1.1943359 3.1279297Q-1.9238281 4.2177734 -3.3476562 4.2177734Q-4.7714844 4.2177734 -5.4863281 3.1337891Q-6.2011719 2.0498047 -6.2011719 -0.030273438Q-6.2011719 -2.1572266 -5.5068359 -3.2177734Q-4.8125 -4.2783203 -3.3125 -4.2783203Q-1.8535156 -4.2783203 -1.1591797 -3.2060547Q-0.46484375 -2.1337891 -0.46484375 -0.030273438ZM-1.5371094 -0.030273438Q-1.5371094 -1.8173828 -1.9501953 -2.6201172Q-2.3632812 -3.4228516 -3.3125 -3.4228516Q-4.2851562 -3.4228516 -4.7099609 -2.6318359Q-5.1347656 -1.8408203 -5.1347656 -0.030273438Q-5.1347656 1.7275391 -4.7041016 2.5419922Q-4.2734375 3.3564453 -3.3359375 3.3564453Q-2.4042969 3.3564453 -1.9707031 2.5244141Q-1.5371094 1.6923828 -1.5371094 -0.030273438Z"/>
	</g>
	<clipPath id="cl_358">
		<rect x="43.75" y="65.199997" width="1156.25" height="690"/>
	</clipPath>
	<g clip-path="url(#cl_358)">
		<path fill="none" stroke="#C32222" stroke-width="2" stroke-miterlimit="10" d=""/>
	</g>
	<clipPath id="cl_359">
		<rect x="43.75" y="65.199997" width="1156.25" height="690"/>
	</clipPath>
	<g clip-path="url(#cl_359)">
		<path fill="#C32222" fill-opacity="0.2" d="M52.75 749.20001Q52.75 749.34741 52.73555 749.49414Q52.721107 749.64075 52.692352 749.78522Q52.663601 749.92981 52.620815 750.0708Q52.578033 750.21179 52.521633 750.34796Q52.465233 750.48419 52.39576 750.61414Q52.326286 750.74414 52.244404 750.86658Q52.162525 750.98914 52.069027 751.10309Q51.975533 751.21704 51.871319 751.32129Q51.767105 751.42554 51.653179 751.51898Q51.539253 751.61249 51.416706 751.69434Q51.294167 751.77625 51.164188 751.84583Q51.03421 751.91528 50.898048 751.97162Q50.76189 752.02808 50.620857 752.0708Q50.47982 752.11365 50.33527 752.14233Q50.19072 752.17114 50.044052 752.18555Q49.897381 752.20001 49.75 752.20001Q49.602619 752.20001 49.455948 752.18555Q49.309277 752.17114 49.164726 752.14233Q49.02018 752.11365 48.879143 752.0708Q48.73811 752.02802 48.601944 751.97156Q48.465782 751.91522 48.335808 751.84576Q48.205826 751.77631 48.083282 751.6944Q47.960747 751.61255 47.846817 751.51904Q47.732895 751.4256 47.628677 751.32135Q47.524467 751.21716 47.430969 751.10321Q47.337471 750.98926 47.255585 750.8667Q47.173706 750.74414 47.104233 750.6142Q47.03476 750.48425 46.978359 750.34802Q46.921963 750.21191 46.879177 750.07092Q46.836395 749.92987 46.80764 749.78528Q46.778893 749.64075 46.76445 749.49414Q46.75 749.34741 46.75 749.20001Q46.75 749.05273 46.76445 748.90601Q46.778896 748.75928 46.807648 748.61469Q46.836403 748.47015 46.879181 748.3291Q46.921963 748.18811 46.978359 748.05188Q47.03476 747.91577 47.104233 747.78577Q47.173706 747.65582 47.255585 747.5332Q47.337471 747.41071 47.430969 747.29675Q47.524467 747.18286 47.628677 747.07861Q47.732895 746.97443 47.846817 746.88092Q47.960747 746.78735 48.083282 746.70544Q48.205826 746.62366 48.335808 746.5542Q48.465782 746.48474 48.601944 746.42828Q48.73811 746.37195 48.879143 746.32922Q49.02018 746.28644 49.164726 746.25763Q49.309277 746.22888 49.455948 746.21448Q49.602619 746.20007 49.75 746.20001Q49.897381 746.20007 50.044052 746.21454Q50.19072 746.22894 50.335266 746.25769Q50.479816 746.2865 50.620853 746.32922Q50.761887 746.37201 50.898045 746.42834Q51.03421 746.48474 51.164188 746.55426Q51.294167 746.62372 51.416706 746.70557Q51.539253 746.78748 51.653179 746.88104Q51.767105 746.97449 51.871315 747.07867Q51.975533 747.18292 52.069023 747.29681Q52.162521 747.41077 52.2444 747.53326Q52.326279 747.65588 52.395756 747.78577Q52.465233 747.91577 52.521633 748.05188Q52.578033 748.18811 52.620815 748.3291Q52.663597 748.47021 52.692348 748.61475Q52.721107 748.75934 52.73555 748.90601Q52.75 749.05273 52.75 749.20001Z"/>
		<path fill="none" stroke="#C32222" stroke-width="2" stroke-miterlimit="10" d="M52.75 749.20001Q52.75 749.34741 52.73555 749.49414Q52.721107 749.64075 52.692352 749.78522Q52.663601 749.92981 52.620815 750.0708Q52.578033 750.21179 52.521633 750.34796Q52.465233 750.48419 52.39576 750.61414Q52.326286 750.74414 52.244404 750.86658Q52.162525 750.98914 52.069027 751.10309Q51.975533 751.21704 51.871319 751.32129Q51.767105 751.42554 51.653179 751.51898Q51.539253 751.61249 51.416706 751.69434Q51.294167 751.77625 51.164188 751.84583Q51.03421 751.91528 50.898048 751.97162Q50.76189 752.02808 50.620857 752.0708Q50.47982 752.11365 50.33527 752.14233Q50.19072 752.17114 50.044052 752.18555Q49.897381 752.20001 49.75 752.20001Q49.602619 752.20001 49.455948 752.18555Q49.309277 752.17114 49.164726 752.14233Q49.02018 752.11365 48.879143 752.0708Q48.73811 752.02802 48.601944 751.97156Q48.465782 751.91522 48.335808 751.84576Q48.205826 751.77631 48.083282 751.6944Q47.960747 751.61255 47.846817 751.51904Q47.732895 751.4256 47.628677 751.32135Q47.524467 751.21716 47.430969 751.10321Q47.337471 750.98926 47.255585 750.8667Q47.173706 750.74414 47.104233 750.6142Q47.03476 750.48425 46.978359 750.34802Q46.921963 750.21191 46.879177 750.07092Q46.836395 749.92987 46.80764 749.78528Q46.778893 749.64075 46.76445 749.49414Q46.75 749.34741 46.75 749.20001Q46.75 749.05273 46.76445 748.90601Q46.778896 748.75928 46.807648 748.61469Q46.836403 748.47015 46.879181 748.3291Q46.921963 748.18811 46.978359 748.05188Q47.03476 747.91577 47.104233 747.78577Q47.173706 747.65582 47.255585 747.5332Q47.337471 747.41071 47.430969 747.29675Q47.524467 747.18286 47.628677 747.07861Q47.732895 746.97443 47.846817 746.88092Q47.960747 746.78735 48.083282 746.70544Q48.205826 746.62366 48.335808 746.5542Q48.465782 746.48474 48.601944 746.42828Q48.73811 746.37195 48.879143 746.32922Q49.02018 746.28644 49.164726 746.25763Q49.309277 746.22888 49.455948 746.21448Q49.602619 746.20007 49.75 746.20001Q49.897381 746.20007 50.044052 746.21454Q50.19072 746.22894 50.335266 746.25769Q50.479816 746.2865 50.620853 746.32922Q50.761887 746.37201 50.898045 746.42834Q51.03421 746.48474 51.164188 746.55426Q51.294167 746.62372 51.416706 746.70557Q51.539253 746.78748 51.653179 746.88104Q51.767105 746.97449 51.871315 747.07867Q51.975533 747.18292 52.069023 747.29681Q52.162521 747.41077 52.2444 747.53326Q52.326279 747.65588 52.395756 747.78577Q52.465233 747.91577 52.521633 748.05188Q52.578033 748.18811 52.620815 748.3291Q52.663597 748.47021 52.692348 748.61475Q52.721107 748.75934 52.73555 748.90601Q52.75 749.05273 52.75 749.20001Z"/>
	</g>
</svg>
