<?xml version="1.0" encoding="utf-8" ?>
<svg xmlns="http://www.w3.org/2000/svg" xmlns:xlink="http://www.w3.org/1999/xlink" width="1200" height="800">
	<rect fill="white" width="1200" height="800"/>
	<path fill="none" stroke="black" stroke-width="1" stroke-miterlimit="10" stroke-opacity="0.10196079" d="M49.5 71.199997L49.5 749"/>
	<path fill="none" stroke="black" stroke-width="1" stroke-miterlimit="10" stroke-opacity="0.10196079" d="M49.5 750L49.5 757.20001"/>
	<path fill="#666" transform="translate(621.875 788.8)" d="M-26.550781 4.1005859L-28.695312 0.67285156L-31.267578 0.67285156L-31.267578 4.1005859L-32.386719 4.1005859L-32.386719 -4.1552734L-28.501953 -4.1552734Q-27.107422 -4.1552734 -26.348633 -3.53125Q-25.589844 -2.9072266 -25.589844 -1.7939453Q-25.589844 -0.87402344 -26.125977 -0.24707031Q-26.662109 0.37988281 -27.605469 0.54394531L-25.261719 4.1005859L-26.550781 4.1005859ZM-26.714844 -1.7822266Q-26.714844 -2.5029297 -27.204102 -2.8808594Q-27.693359 -3.2587891 -28.613281 -3.2587891L-31.267578 -3.2587891L-31.267578 -0.21191406L-28.566406 -0.21191406Q-27.681641 -0.21191406 -27.198242 -0.625Q-26.714844 -1.0380859 -26.714844 -1.7822266ZM-23.087891 1.1533203Q-23.087891 2.2431641 -22.636719 2.8349609Q-22.185547 3.4267578 -21.318359 3.4267578Q-20.632812 3.4267578 -20.219727 3.1513672Q-19.806641 2.8759766 -19.660156 2.4541016L-18.734375 2.7177734Q-19.302734 4.2177734 -21.318359 4.2177734Q-22.724609 4.2177734 -23.459961 3.3798828Q-24.195312 2.5419922 -24.195312 0.88964844Q-24.195312 -0.68066406 -23.459961 -1.5185547Q-22.724609 -2.3564453 -21.359375 -2.3564453Q-18.564453 -2.3564453 -18.564453 1.0126953L-18.564453 1.1533203L-23.087891 1.1533203ZM-19.654297 0.34472656Q-19.742188 -0.65722656 -20.164062 -1.1171875Q-20.585938 -1.5771484 -21.376953 -1.5771484Q-22.144531 -1.5771484 -22.592773 -1.0644531Q-23.041016 -0.55175781 -23.076172 0.34472656L-19.654297 0.34472656ZM-17.222656 4.1005859L-17.222656 -4.5947266L-16.167969 -4.5947266L-16.167969 4.1005859L-17.222656 4.1005859ZM-13.748047 1.1533203Q-13.748047 2.2431641 -13.296875 2.8349609Q-12.845703 3.4267578 -11.978516 3.4267578Q-11.292969 3.4267578 -10.879883 3.1513672Q-10.466797 2.8759766 -10.320312 2.4541016L-9.3945312 2.7177734Q-9.9628906 4.2177734 -11.978516 4.2177734Q-13.384766 4.2177734 -14.120117 3.3798828Q-14.855469 2.5419922 -14.855469 0.88964844Q-14.855469 -0.68066406 -14.120117 -1.5185547Q-13.384766 -2.3564453 -12.019531 -2.3564453Q-9.2246094 -2.3564453 -9.2246094 1.0126953L-9.2246094 1.1533203L-13.748047 1.1533203ZM-10.314453 0.34472656Q-10.402344 -0.65722656 -10.824219 -1.1171875Q-11.246094 -1.5771484 -12.037109 -1.5771484Q-12.804688 -1.5771484 -13.25293 -1.0644531Q-13.701172 -0.55175781 -13.736328 0.34472656L-10.314453 0.34472656ZM-6.265625 4.2177734Q-7.2207031 4.2177734 -7.7011719 3.7138672Q-8.1816406 3.2099609 -8.1816406 2.3310547Q-8.1816406 1.3466797 -7.5341797 0.81933594Q-6.8867188 0.29199219 -5.4453125 0.25683594L-4.0214844 0.23339844L-4.0214844 -0.11230469Q-4.0214844 -0.88574219 -4.3496094 -1.2197266Q-4.6777344 -1.5537109 -5.3808594 -1.5537109Q-6.0898438 -1.5537109 -6.4121094 -1.3134766Q-6.734375 -1.0732422 -6.7988281 -0.54589844L-7.9003906 -0.64550781Q-7.6308594 -2.3564453 -5.3574219 -2.3564453Q-4.1621094 -2.3564453 -3.5585938 -1.8085938Q-2.9550781 -1.2607422 -2.9550781 -0.22363281L-2.9550781 2.5068359Q-2.9550781 2.9755859 -2.8320312 3.2128906Q-2.7089844 3.4501953 -2.3632812 3.4501953Q-2.2109375 3.4501953 -2.0175781 3.4091797L-2.0175781 4.0654297Q-2.4160156 4.1591797 -2.8320312 4.1591797Q-3.4179688 4.1591797 -3.6845703 3.8515625Q-3.9511719 3.5439453 -3.9863281 2.8876953L-4.0214844 2.8876953Q-4.4257812 3.6142578 -4.9619141 3.9160156Q-5.4980469 4.2177734 -6.265625 4.2177734ZM-6.0253906 3.4267578Q-5.4453125 3.4267578 -4.9941406 3.1630859Q-4.5429688 2.8994141 -4.2822266 2.4394531Q-4.0214844 1.9794922 -4.0214844 1.4931641L-4.0214844 0.97167969L-5.1757812 0.99511719Q-5.9199219 1.0068359 -6.3037109 1.1474609Q-6.6875 1.2880859 -6.8925781 1.5810547Q-7.0976562 1.8740234 -7.0976562 2.3486328Q-7.0976562 2.8642578 -6.8193359 3.1455078Q-6.5410156 3.4267578 -6.0253906 3.4267578ZM3.5488281 2.3486328Q3.5488281 3.2451172 2.8720703 3.7314453Q2.1953125 4.2177734 0.9765625 4.2177734Q-0.20703125 4.2177734 -0.84863281 3.828125Q-1.4902344 3.4384766 -1.6835938 2.6123047L-0.75195312 2.4306641Q-0.6171875 2.9404297 -0.1953125 3.1777344Q0.2265625 3.4150391 0.9765625 3.4150391Q1.7792969 3.4150391 2.1513672 3.1689453Q2.5234375 2.9228516 2.5234375 2.4306641Q2.5234375 2.0556641 2.265625 1.8212891Q2.0078125 1.5869141 1.4335938 1.4345703L0.67773438 1.2353516Q-0.23046875 1.0009766 -0.61425781 0.77539062Q-0.99804688 0.54980469 -1.2148438 0.22753906Q-1.4316406 -0.094726562 -1.4316406 -0.56347656Q-1.4316406 -1.4306641 -0.81347656 -1.8847656Q-0.1953125 -2.3388672 0.98828125 -2.3388672Q2.0371094 -2.3388672 2.6552734 -1.9697266Q3.2734375 -1.6005859 3.4375 -0.78613281L2.4882812 -0.66894531Q2.4003906 -1.0908203 2.0166016 -1.3164062Q1.6328125 -1.5419922 0.98828125 -1.5419922Q0.2734375 -1.5419922 -0.06640625 -1.3251953Q-0.40625 -1.1083984 -0.40625 -0.66894531Q-0.40625 -0.39941406 -0.265625 -0.22363281Q-0.125 -0.047851562 0.15039062 0.075195312Q0.42578125 0.19824219 1.3105469 0.41503906Q2.1484375 0.62597656 2.5175781 0.8046875Q2.8867188 0.98339844 3.1005859 1.2001953Q3.3144531 1.4169922 3.4316406 1.7011719Q3.5488281 1.9853516 3.5488281 2.3486328ZM5.5996094 1.1533203Q5.5996094 2.2431641 6.0507812 2.8349609Q6.5019531 3.4267578 7.3691406 3.4267578Q8.0546875 3.4267578 8.4677734 3.1513672Q8.8808594 2.8759766 9.0273438 2.4541016L9.953125 2.7177734Q9.3847656 4.2177734 7.3691406 4.2177734Q5.9628906 4.2177734 5.2275391 3.3798828Q4.4921875 2.5419922 4.4921875 0.88964844Q4.4921875 -0.68066406 5.2275391 -1.5185547Q5.9628906 -2.3564453 7.328125 -2.3564453Q10.123047 -2.3564453 10.123047 1.0126953L10.123047 1.1533203L5.5996094 1.1533203ZM9.0332031 0.34472656Q8.9453125 -0.65722656 8.5234375 -1.1171875Q8.1015625 -1.5771484 7.3105469 -1.5771484Q6.5429688 -1.5771484 6.0947266 -1.0644531Q5.6464844 -0.55175781 5.6113281 0.34472656L9.0332031 0.34472656ZM17.992188 -3.2412109L17.992188 4.1005859L16.878906 4.1005859L16.878906 -3.2412109L14.042969 -3.2412109L14.042969 -4.1552734L20.828125 -4.1552734L20.828125 -3.2412109L17.992188 -3.2412109ZM22.199219 4.2177734Q21.244141 4.2177734 20.763672 3.7138672Q20.283203 3.2099609 20.283203 2.3310547Q20.283203 1.3466797 20.930664 0.81933594Q21.578125 0.29199219 23.019531 0.25683594L24.443359 0.23339844L24.443359 -0.11230469Q24.443359 -0.88574219 24.115234 -1.2197266Q23.787109 -1.5537109 23.083984 -1.5537109Q22.375 -1.5537109 22.052734 -1.3134766Q21.730469 -1.0732422 21.666016 -0.54589844L20.564453 -0.64550781Q20.833984 -2.3564453 23.107422 -2.3564453Q24.302734 -2.3564453 24.90625 -1.8085938Q25.509766 -1.2607422 25.509766 -0.22363281L25.509766 2.5068359Q25.509766 2.9755859 25.632812 3.2128906Q25.755859 3.4501953 26.101562 3.4501953Q26.253906 3.4501953 26.447266 3.4091797L26.447266 4.0654297Q26.048828 4.1591797 25.632812 4.1591797Q25.046875 4.1591797 24.780273 3.8515625Q24.513672 3.5439453 24.478516 2.8876953L24.443359 2.8876953Q24.039062 3.6142578 23.50293 3.9160156Q22.966797 4.2177734 22.199219 4.2177734ZM22.439453 3.4267578Q23.019531 3.4267578 23.470703 3.1630859Q23.921875 2.8994141 24.182617 2.4394531Q24.443359 1.9794922 24.443359 1.4931641L24.443359 0.97167969L23.289062 0.99511719Q22.544922 1.0068359 22.161133 1.1474609Q21.777344 1.2880859 21.572266 1.5810547Q21.367188 1.8740234 21.367188 2.3486328Q21.367188 2.8642578 21.645508 3.1455078Q21.923828 3.4267578 22.439453 3.4267578ZM29.658203 6.5908203Q28.621094 6.5908203 28.005859 6.1835938Q27.390625 5.7763672 27.214844 5.0263672L28.275391 4.8740234Q28.380859 5.3134766 28.741211 5.5507812Q29.101562 5.7880859 29.6875 5.7880859Q31.263672 5.7880859 31.263672 3.9423828L31.263672 2.9228516L31.251953 2.9228516Q30.953125 3.5322266 30.431641 3.8398438Q29.910156 4.1474609 29.212891 4.1474609Q28.046875 4.1474609 27.499023 3.3740234Q26.951172 2.6005859 26.951172 0.94238281Q26.951172 -0.73925781 27.540039 -1.5390625Q28.128906 -2.3388672 29.330078 -2.3388672Q30.003906 -2.3388672 30.499023 -2.03125Q30.994141 -1.7236328 31.263672 -1.1552734L31.275391 -1.1552734Q31.275391 -1.3310547 31.298828 -1.7646484Q31.322266 -2.1982422 31.345703 -2.2392578L32.347656 -2.2392578Q32.3125 -1.9228516 32.3125 -0.92675781L32.3125 3.9189453Q32.3125 6.5908203 29.658203 6.5908203ZM31.263672 0.93066406Q31.263672 0.15722656 31.052734 -0.40234375Q30.841797 -0.96191406 30.458008 -1.2578125Q30.074219 -1.5537109 29.587891 -1.5537109Q28.779297 -1.5537109 28.410156 -0.96777344Q28.041016 -0.38183594 28.041016 0.93066406Q28.041016 2.2314453 28.386719 2.7998047Q28.732422 3.3681641 29.570312 3.3681641Q30.068359 3.3681641 30.455078 3.0751953Q30.841797 2.7822266 31.052734 2.234375Q31.263672 1.6865234 31.263672 0.93066406Z"/>
	<path fill="none" stroke="black" stroke-width="1" stroke-miterlimit="10" stroke-opacity="0.10196079" d="M50 749.5L1194 749.5"/>
	<path fill="none" stroke="black" stroke-width="1" stroke-miterlimit="10" stroke-opacity="0.10196079" d="M41.75 749.5L49 749.5"/>
	<path fill="none" stroke="black" stroke-width="1" stroke-miterlimit="10" stroke-opacity="0.10196079" d="M50 681.5L1194 681.5"/>
	<path fill="none" stroke="black" stroke-width="1" stroke-miterlimit="10" stroke-opacity="0.10196079" d="M41.75 681.5L49 681.5"/>
	<path fill="none" stroke="black" stroke-width="1" stroke-miterlimit="10" stroke-opacity="0.10196079" d="M50 613.5L1194 613.5"/>
	<path fill="none" stroke="black" stroke-width="1" stroke-miterlimit="10" stroke-opacity="0.10196079" d="M41.75 613.5L49 613.5"/>
	<path fill="none" stroke="black" stroke-width="1" stroke-miterlimit="10" stroke-opacity="0.10196079" d="M50 545.5L1194 545.5"/>
	<path fill="none" stroke="black" stroke-width="1" stroke-miterlimit="10" stroke-opacity="0.10196079" d="M41.75 545.5L49 545.5"/>
	<path fill="none" stroke="black" stroke-width="1" stroke-miterlimit="10" stroke-opacity="0.10196079" d="M50 478.5L1194 478.5"/>
	<path fill="none" stroke="black" stroke-width="1" stroke-miterlimit="10" stroke-opacity="0.10196079" d="M41.75 478.5L49 478.5"/>
	<path fill="none" stroke="black" stroke-width="1" stroke-miterlimit="10" stroke-opacity="0.10196079" d="M50 410.5L1194 410.5"/>
	<path fill="none" stroke="black" stroke-width="1" stroke-miterlimit="10" stroke-opacity="0.10196079" d="M41.75 410.5L49 410.5"/>
	<path fill="none" stroke="black" stroke-width="1" stroke-miterlimit="10" stroke-opacity="0.10196079" d="M50 342.5L1194 342.5"/>
	<path fill="none" stroke="black" stroke-width="1" stroke-miterlimit="10" stroke-opacity="0.10196079" d="M41.75 342.5L49 342.5"/>
	<path fill="none" stroke="black" stroke-width="1" stroke-miterlimit="10" stroke-opacity="0.10196079" d="M50 274.5L1194 274.5"/>
	<path fill="none" stroke="black" stroke-width="1" stroke-miterlimit="10" stroke-opacity="0.10196079" d="M41.75 274.5L49 274.5"/>
	<path fill="none" stroke="black" stroke-width="1" stroke-miterlimit="10" stroke-opacity="0.10196079" d="M50 206.5L1194 206.5"/>
	<path fill="none" stroke="black" stroke-width="1" stroke-miterlimit="10" stroke-opacity="0.10196079" d="M41.75 206.5L49 206.5"/>
	<path fill="none" stroke="black" stroke-width="1" stroke-miterlimit="10" stroke-opacity="0.10196079" d="M50 139.5L1194 139.5"/>
	<path fill="none" stroke="black" stroke-width="1" stroke-miterlimit="10" stroke-opacity="0.10196079" d="M41.75 139.5L49 139.5"/>
	<path fill="none" stroke="black" stroke-width="1" stroke-miterlimit="10" stroke-opacity="0.10196079" d="M50 71.5L1194 71.5"/>
	<path fill="none" stroke="black" stroke-width="1" stroke-miterlimit="10" stroke-opacity="0.10196079" d="M41.75 71.5L49 71.5"/>
	<path fill="#666" transform="matrix(0 -1 1 0 11.2 410.2)" d="M-21.591797 -0.11230469Q-21.591797 1.1650391 -22.089844 2.1230469Q-22.587891 3.0810547 -23.501953 3.5908203Q-24.416016 4.1005859 -25.611328 4.1005859L-28.699219 4.1005859L-28.699219 -4.1552734L-25.96875 -4.1552734Q-23.871094 -4.1552734 -22.731445 -3.1035156Q-21.591797 -2.0517578 -21.591797 -0.11230469ZM-22.716797 -0.11230469Q-22.716797 -1.6474609 -23.557617 -2.453125Q-24.398438 -3.2587891 -25.992188 -3.2587891L-27.580078 -3.2587891L-27.580078 3.2041016L-25.740234 3.2041016Q-24.832031 3.2041016 -24.143555 2.8056641Q-23.455078 2.4072266 -23.085938 1.6572266Q-22.716797 0.90722656 -22.716797 -0.11230469ZM-14.847656 0.92480469Q-14.847656 2.5888672 -15.580078 3.4033203Q-16.3125 4.2177734 -17.707031 4.2177734Q-19.095703 4.2177734 -19.804688 3.3710938Q-20.513672 2.5244141 -20.513672 0.92480469Q-20.513672 -2.3564453 -17.671875 -2.3564453Q-16.21875 -2.3564453 -15.533203 -1.5566406Q-14.847656 -0.75683594 -14.847656 0.92480469ZM-15.955078 0.92480469Q-15.955078 -0.38769531 -16.344727 -0.98242188Q-16.734375 -1.5771484 -17.654297 -1.5771484Q-18.580078 -1.5771484 -18.993164 -0.97070312Q-19.40625 -0.36425781 -19.40625 0.92480469Q-19.40625 2.1787109 -18.999023 2.8085938Q-18.591797 3.4384766 -17.71875 3.4384766Q-16.769531 3.4384766 -16.362305 2.8291016Q-15.955078 2.2197266 -15.955078 0.92480469ZM-7.4648438 4.1005859L-8.6894531 4.1005859L-9.796875 -0.38183594L-10.007812 -1.3720703Q-10.060547 -1.1083984 -10.171875 -0.61328125Q-10.283203 -0.11816406 -11.367188 4.1005859L-12.585938 4.1005859L-14.361328 -2.2392578L-13.318359 -2.2392578L-12.246094 2.0673828Q-12.205078 2.2080078 -11.994141 3.2275391L-11.894531 2.7939453L-10.570312 -2.2392578L-9.4394531 -2.2392578L-8.3320312 2.1142578L-8.0625 3.2275391L-7.8808594 2.4130859L-6.6796875 -2.2392578L-5.6484375 -2.2392578L-7.4648438 4.1005859ZM-0.84375 4.1005859L-0.84375 0.081054688Q-0.84375 -0.54589844 -0.96679688 -0.89160156Q-1.0898438 -1.2373047 -1.359375 -1.3896484Q-1.6289062 -1.5419922 -2.1503906 -1.5419922Q-2.9121094 -1.5419922 -3.3515625 -1.0205078Q-3.7910156 -0.49902344 -3.7910156 0.42675781L-3.7910156 4.1005859L-4.8457031 4.1005859L-4.8457031 -0.88574219Q-4.8457031 -1.9931641 -4.8808594 -2.2392578L-3.8847656 -2.2392578Q-3.8789062 -2.2099609 -3.8730469 -2.0810547Q-3.8671875 -1.9521484 -3.8583984 -1.7851562Q-3.8496094 -1.6181641 -3.8378906 -1.1552734L-3.8203125 -1.1552734Q-3.4570312 -1.8115234 -2.9794922 -2.0839844Q-2.5019531 -2.3564453 -1.7929688 -2.3564453Q-0.75 -2.3564453 -0.26660156 -1.8378906Q0.21679688 -1.3193359 0.21679688 -0.12402344L0.21679688 4.1005859L-0.84375 4.1005859ZM1.8046875 4.1005859L1.8046875 -4.5947266L2.859375 -4.5947266L2.859375 4.1005859L1.8046875 4.1005859ZM9.8320312 0.92480469Q9.8320312 2.5888672 9.0996094 3.4033203Q8.3671875 4.2177734 6.9726562 4.2177734Q5.5839844 4.2177734 4.875 3.3710938Q4.1660156 2.5244141 4.1660156 0.92480469Q4.1660156 -2.3564453 7.0078125 -2.3564453Q8.4609375 -2.3564453 9.1464844 -1.5566406Q9.8320312 -0.75683594 9.8320312 0.92480469ZM8.7246094 0.92480469Q8.7246094 -0.38769531 8.3349609 -0.98242188Q7.9453125 -1.5771484 7.0253906 -1.5771484Q6.0996094 -1.5771484 5.6865234 -0.97070312Q5.2734375 -0.36425781 5.2734375 0.92480469Q5.2734375 2.1787109 5.6806641 2.8085938Q6.0878906 3.4384766 6.9609375 3.4384766Q7.9101562 3.4384766 8.3173828 2.8291016Q8.7246094 2.2197266 8.7246094 0.92480469ZM12.761719 4.2177734Q11.806641 4.2177734 11.326172 3.7138672Q10.845703 3.2099609 10.845703 2.3310547Q10.845703 1.3466797 11.493164 0.81933594Q12.140625 0.29199219 13.582031 0.25683594L15.005859 0.23339844L15.005859 -0.11230469Q15.005859 -0.88574219 14.677734 -1.2197266Q14.349609 -1.5537109 13.646484 -1.5537109Q12.9375 -1.5537109 12.615234 -1.3134766Q12.292969 -1.0732422 12.228516 -0.54589844L11.126953 -0.64550781Q11.396484 -2.3564453 13.669922 -2.3564453Q14.865234 -2.3564453 15.46875 -1.8085938Q16.072266 -1.2607422 16.072266 -0.22363281L16.072266 2.5068359Q16.072266 2.9755859 16.195312 3.2128906Q16.318359 3.4501953 16.664062 3.4501953Q16.816406 3.4501953 17.009766 3.4091797L17.009766 4.0654297Q16.611328 4.1591797 16.195312 4.1591797Q15.609375 4.1591797 15.342773 3.8515625Q15.076172 3.5439453 15.041016 2.8876953L15.005859 2.8876953Q14.601562 3.6142578 14.06543 3.9160156Q13.529297 4.2177734 12.761719 4.2177734ZM13.001953 3.4267578Q13.582031 3.4267578 14.033203 3.1630859Q14.484375 2.8994141 14.745117 2.4394531Q15.005859 1.9794922 15.005859 1.4931641L15.005859 0.97167969L13.851562 0.99511719Q13.107422 1.0068359 12.723633 1.1474609Q12.339844 1.2880859 12.134766 1.5810547Q11.929688 1.8740234 11.929688 2.3486328Q11.929688 2.8642578 12.208008 3.1455078Q12.486328 3.4267578 13.001953 3.4267578ZM21.820312 3.0810547Q21.527344 3.6904297 21.043945 3.9541016Q20.560547 4.2177734 19.845703 4.2177734Q18.644531 4.2177734 18.079102 3.4091797Q17.513672 2.6005859 17.513672 0.95996094Q17.513672 -2.3564453 19.845703 -2.3564453Q20.566406 -2.3564453 21.046875 -2.0927734Q21.527344 -1.8291016 21.820312 -1.2548828L21.832031 -1.2548828L21.820312 -1.9638672L21.820312 -4.5947266L22.875 -4.5947266L22.875 2.7939453Q22.875 3.7841797 22.910156 4.1005859L21.902344 4.1005859Q21.884766 4.0068359 21.864258 3.6669922Q21.84375 3.3271484 21.84375 3.0810547L21.820312 3.0810547ZM18.621094 0.92480469Q18.621094 2.2548828 18.972656 2.8291016Q19.324219 3.4033203 20.115234 3.4033203Q21.011719 3.4033203 21.416016 2.7822266Q21.820312 2.1611328 21.820312 0.85449219Q21.820312 -0.40527344 21.416016 -0.99121094Q21.011719 -1.5771484 20.126953 -1.5771484Q19.330078 -1.5771484 18.975586 -0.98828125Q18.621094 -0.39941406 18.621094 0.92480469ZM29.25 2.3486328Q29.25 3.2451172 28.573242 3.7314453Q27.896484 4.2177734 26.677734 4.2177734Q25.494141 4.2177734 24.852539 3.828125Q24.210938 3.4384766 24.017578 2.6123047L24.949219 2.4306641Q25.083984 2.9404297 25.505859 3.1777344Q25.927734 3.4150391 26.677734 3.4150391Q27.480469 3.4150391 27.852539 3.1689453Q28.224609 2.9228516 28.224609 2.4306641Q28.224609 2.0556641 27.966797 1.8212891Q27.708984 1.5869141 27.134766 1.4345703L26.378906 1.2353516Q25.470703 1.0009766 25.086914 0.77539062Q24.703125 0.54980469 24.486328 0.22753906Q24.269531 -0.094726562 24.269531 -0.56347656Q24.269531 -1.4306641 24.887695 -1.8847656Q25.505859 -2.3388672 26.689453 -2.3388672Q27.738281 -2.3388672 28.356445 -1.9697266Q28.974609 -1.6005859 29.138672 -0.78613281L28.189453 -0.66894531Q28.101562 -1.0908203 27.717773 -1.3164062Q27.333984 -1.5419922 26.689453 -1.5419922Q25.974609 -1.5419922 25.634766 -1.3251953Q25.294922 -1.1083984 25.294922 -0.66894531Q25.294922 -0.39941406 25.435547 -0.22363281Q25.576172 -0.047851562 25.851562 0.075195312Q26.126953 0.19824219 27.011719 0.41503906Q27.849609 0.62597656 28.21875 0.8046875Q28.587891 0.98339844 28.801758 1.2001953Q29.015625 1.4169922 29.132812 1.7011719Q29.25 1.9853516 29.25 2.3486328Z"/>
	<clipPath id="cl_1dc">
		<rect y="39.200001" width="1200" height="31.999996"/>
	</clipPath>
	<g clip-path="url(#cl_1dc)">
		<path fill="#C32222" fill-opacity="0.2" d="M569.33002 49.200001L609.33002 49.200001L609.33002 61.200001L569.33002 61.200001L569.33002 49.200001Z"/>
		<path fill="none" stroke="#C32222" stroke-width="2" stroke-miterlimit="10" d="M569.33002 49.200001L609.33002 49.200001L609.33002 61.200001L569.33002 61.200001L569.33002 49.200001Z"/>
	</g>
	<clipPath id="cl_1dd">
		<rect y="39.200001" width="1200" height="31.999996"/>
	</clipPath>
	<g clip-path="url(#cl_1dd)">
		<path fill="#666" d="M615.81635 59.300587L615.81635 58.497852L619.36127 53.775196L616.01556 53.775196L616.01556 52.960743L620.60931 52.960743L620.60931 53.763477L617.05853 58.486134L620.73236 58.486134L620.73236 59.300587L615.81635 59.300587ZM622.13275 51.613087L622.13275 50.605274L623.18744 50.605274L623.18744 51.613087L622.13275 51.613087ZM622.13275 59.300587L622.13275 52.960743L623.18744 52.960743L623.18744 59.300587L622.13275 59.300587ZM630.16595 56.101368Q630.16595 59.417774 627.83392 59.417774Q626.36908 59.417774 625.86517 58.316212L625.83588 58.316212Q625.85931 58.363087 625.85931 59.312305L625.85931 61.790821L624.80463 61.790821L624.80463 54.255665Q624.80463 53.277149 624.76947 52.960743L625.789 52.960743Q625.79486 52.98418 625.80658 53.127735Q625.8183 53.27129 625.83295 53.570118Q625.8476 53.868946 625.8476 53.980274L625.87103 53.980274Q626.15228 53.394337 626.61517 53.121876Q627.07806 52.849415 627.83392 52.849415Q629.0058 52.849415 629.58588 53.634571Q630.16595 54.419727 630.16595 56.101368ZM629.05853 56.124805Q629.05853 54.800587 628.70111 54.232227Q628.34369 53.663868 627.56439 53.663868Q626.93744 53.663868 626.58295 53.92754Q626.22845 54.191212 626.04388 54.750782Q625.85931 55.310352 625.85931 56.206837Q625.85931 57.454884 626.25775 58.04668Q626.65619 58.638477 627.55267 58.638477Q628.33783 58.638477 628.69818 58.061329Q629.05853 57.48418 629.05853 56.124805Z"/>
	</g>
	<path fill="#666" transform="translate(600 19.6)" d="M-330.73828 3.3320312Q-330.73828 4.5585938 -331.74219 5.2578125Q-332.74609 5.9570312 -334.51953 5.9570312Q-336.26172 5.9570312 -337.1875 5.40625Q-338.11328 4.8554688 -338.41797 3.6914062L-336.48828 3.4023438Q-336.32422 4.0039062 -335.92188 4.2539062Q-335.51953 4.5039062 -334.51953 4.5039062Q-333.59766 4.5039062 -333.17578 4.2695312Q-332.75391 4.0351562 -332.75391 3.5351562Q-332.75391 3.1289062 -333.09375 2.890625Q-333.43359 2.6523438 -334.24609 2.4882812Q-336.10547 2.1210938 -336.75391 1.8046875Q-337.40234 1.4882812 -337.74219 0.984375Q-338.08203 0.48046875 -338.08203 -0.25390625Q-338.08203 -1.4648438 -337.14844 -2.140625Q-336.21484 -2.8164062 -334.50391 -2.8164062Q-332.99609 -2.8164062 -332.07812 -2.2304688Q-331.16016 -1.6445312 -330.93359 -0.53515625L-332.87891 -0.33203125Q-332.97266 -0.84765625 -333.33984 -1.1015625Q-333.70703 -1.3554688 -334.50391 -1.3554688Q-335.28516 -1.3554688 -335.67578 -1.15625Q-336.06641 -0.95703125 -336.06641 -0.48828125Q-336.06641 -0.12109375 -335.76562 0.09375Q-335.46484 0.30859375 -334.75391 0.44921875Q-333.76172 0.65234375 -332.99219 0.8671875Q-332.22266 1.0820312 -331.75781 1.3789062Q-331.29297 1.6757812 -331.01562 2.140625Q-330.73828 2.6054688 -330.73828 3.3320312ZM-327.01172 5.9570312Q-328.23828 5.9570312 -328.92578 5.2890625Q-329.61328 4.6210938 -329.61328 3.4101562Q-329.61328 2.0976562 -328.75781 1.4101562Q-327.90234 0.72265625 -326.27734 0.70703125L-324.45703 0.67578125L-324.45703 0.24609375Q-324.45703 -0.58203125 -324.74609 -0.984375Q-325.03516 -1.3867188 -325.69141 -1.3867188Q-326.30078 -1.3867188 -326.58594 -1.109375Q-326.87109 -0.83203125 -326.94141 -0.19140625L-329.23047 -0.30078125Q-329.01953 -1.5351562 -328.10156 -2.171875Q-327.18359 -2.8085938 -325.59766 -2.8085938Q-323.99609 -2.8085938 -323.12891 -2.0195312Q-322.26172 -1.2304688 -322.26172 0.22265625L-322.26172 3.3007812Q-322.26172 4.0117188 -322.10156 4.28125Q-321.94141 4.5507812 -321.56641 4.5507812Q-321.31641 4.5507812 -321.08203 4.5039062L-321.08203 5.6914062Q-321.27734 5.7382812 -321.43359 5.7773438Q-321.58984 5.8164062 -321.74609 5.8398438Q-321.90234 5.8632812 -322.07812 5.8789062Q-322.25391 5.8945312 -322.48828 5.8945312Q-323.31641 5.8945312 -323.71094 5.4882812Q-324.10547 5.0820312 -324.18359 4.2929688L-324.23047 4.2929688Q-325.15234 5.9570312 -327.01172 5.9570312ZM-324.45703 1.8867188L-325.58203 1.9023438Q-326.34766 1.9335938 -326.66797 2.0703125Q-326.98828 2.2070312 -327.15625 2.4882812Q-327.32422 2.7695312 -327.32422 3.2382812Q-327.32422 3.8398438 -327.04688 4.1328125Q-326.76953 4.4257812 -326.30859 4.4257812Q-325.79297 4.4257812 -325.36719 4.1445312Q-324.94141 3.8632812 -324.69922 3.3671875Q-324.45703 2.8710938 -324.45703 2.3164062L-324.45703 1.8867188ZM-320.06641 -4.1757812L-320.06641 -5.7929688L-317.87109 -5.7929688L-317.87109 -4.1757812L-320.06641 -4.1757812ZM-320.06641 5.8007812L-320.06641 -2.6523438L-317.87109 -2.6523438L-317.87109 5.8007812L-320.06641 5.8007812ZM-315.62109 5.8007812L-315.62109 -5.7929688L-313.42578 -5.7929688L-313.42578 5.8007812L-315.62109 5.8007812ZM-303.17578 1.5351562Q-303.17578 3.6523438 -304.02344 4.8046875Q-304.87109 5.9570312 -306.41797 5.9570312Q-307.30859 5.9570312 -307.96875 5.5703125Q-308.62891 5.1835938 -308.98047 4.4570312L-309.02734 4.4570312Q-308.98047 4.6914062 -308.98047 5.8789062L-308.98047 9.1210938L-311.17578 9.1210938L-311.17578 -0.70703125Q-311.17578 -1.9023438 -311.23828 -2.6523438L-309.10547 -2.6523438Q-309.06641 -2.5117188 -309.03906 -2.0976562Q-309.01172 -1.6835938 -309.01172 -1.2773438L-308.98047 -1.2773438Q-308.23828 -2.8320312 -306.27734 -2.8320312Q-304.80078 -2.8320312 -303.98828 -1.6953125Q-303.17578 -0.55859375 -303.17578 1.5351562ZM-305.46484 1.5351562Q-305.46484 -1.3085938 -307.20703 -1.3085938Q-308.08203 -1.3085938 -308.54688 -0.54296875Q-309.01172 0.22265625 -309.01172 1.5976562Q-309.01172 2.9648438 -308.54688 3.7109375Q-308.08203 4.4570312 -307.22266 4.4570312Q-305.46484 4.4570312 -305.46484 1.5351562ZM-293.37109 1.5664062Q-293.37109 3.6210938 -294.51172 4.7890625Q-295.65234 5.9570312 -297.66797 5.9570312Q-299.64453 5.9570312 -300.76953 4.7851562Q-301.89453 3.6132812 -301.89453 1.5664062Q-301.89453 -0.47265625 -300.76953 -1.640625Q-299.64453 -2.8085938 -297.62109 -2.8085938Q-295.55078 -2.8085938 -294.46094 -1.6796875Q-293.37109 -0.55078125 -293.37109 1.5664062ZM-295.66797 1.5664062Q-295.66797 0.05859375 -296.16016 -0.62109375Q-296.65234 -1.3007812 -297.58984 -1.3007812Q-299.58984 -1.3007812 -299.58984 1.5664062Q-299.58984 2.9804688 -299.10156 3.71875Q-298.61328 4.4570312 -297.69141 4.4570312Q-295.66797 4.4570312 -295.66797 1.5664062ZM-291.62891 -4.1757812L-291.62891 -5.7929688L-289.43359 -5.7929688L-289.43359 -4.1757812L-291.62891 -4.1757812ZM-291.62891 5.8007812L-291.62891 -2.6523438L-289.43359 -2.6523438L-289.43359 5.8007812L-291.62891 5.8007812ZM-281.70703 5.8007812L-281.70703 1.0585938Q-281.70703 -1.1679688 -283.21484 -1.1679688Q-284.01172 -1.1679688 -284.5 -0.484375Q-284.98828 0.19921875 -284.98828 1.2695312L-284.98828 5.8007812L-287.18359 5.8007812L-287.18359 -0.76171875Q-287.18359 -1.4414062 -287.20312 -1.875Q-287.22266 -2.3085938 -287.24609 -2.6523438L-285.15234 -2.6523438Q-285.12891 -2.5039062 -285.08984 -1.859375Q-285.05078 -1.2148438 -285.05078 -0.97265625L-285.01953 -0.97265625Q-284.57422 -1.9414062 -283.90234 -2.3789062Q-283.23047 -2.8164062 -282.30078 -2.8164062Q-280.95703 -2.8164062 -280.23828 -1.9882812Q-279.51953 -1.1601562 -279.51953 0.43359375L-279.51953 5.8007812L-281.70703 5.8007812ZM-275.24609 5.9414062Q-276.21484 5.9414062 -276.73828 5.4140625Q-277.26172 4.8867188 -277.26172 3.8164062L-277.26172 -1.1679688L-278.33203 -1.1679688L-278.33203 -2.6523438L-277.15234 -2.6523438L-276.46484 -4.6367188L-275.08984 -4.6367188L-275.08984 -2.6523438L-273.48828 -2.6523438L-273.48828 -1.1679688L-275.08984 -1.1679688L-275.08984 3.2226562Q-275.08984 3.8398438 -274.85547 4.1328125Q-274.62109 4.4257812 -274.12891 4.4257812Q-273.87109 4.4257812 -273.39453 4.3164062L-273.39453 5.6757812Q-274.20703 5.9414062 -275.24609 5.9414062ZM-272.57422 2.6054688L-272.57422 0.69921875L-268.51172 0.69921875L-268.51172 2.6054688L-272.57422 2.6054688ZM-258.72266 1.5664062Q-258.72266 3.6210938 -259.86328 4.7890625Q-261.00391 5.9570312 -263.01953 5.9570312Q-264.99609 5.9570312 -266.12109 4.7851562Q-267.24609 3.6132812 -267.24609 1.5664062Q-267.24609 -0.47265625 -266.12109 -1.640625Q-264.99609 -2.8085938 -262.97266 -2.8085938Q-260.90234 -2.8085938 -259.8125 -1.6796875Q-258.72266 -0.55078125 -258.72266 1.5664062ZM-261.01953 1.5664062Q-261.01953 0.05859375 -261.51172 -0.62109375Q-262.00391 -1.3007812 -262.94141 -1.3007812Q-264.94141 -1.3007812 -264.94141 1.5664062Q-264.94141 2.9804688 -264.45312 3.71875Q-263.96484 4.4570312 -263.04297 4.4570312Q-261.01953 4.4570312 -261.01953 1.5664062ZM-249.85547 3.3320312Q-249.85547 4.5585938 -250.85938 5.2578125Q-251.86328 5.9570312 -253.63672 5.9570312Q-255.37891 5.9570312 -256.30469 5.40625Q-257.23047 4.8554688 -257.53516 3.6914062L-255.60547 3.4023438Q-255.44141 4.0039062 -255.03906 4.2539062Q-254.63672 4.5039062 -253.63672 4.5039062Q-252.71484 4.5039062 -252.29297 4.2695312Q-251.87109 4.0351562 -251.87109 3.5351562Q-251.87109 3.1289062 -252.21094 2.890625Q-252.55078 2.6523438 -253.36328 2.4882812Q-255.22266 2.1210938 -255.87109 1.8046875Q-256.51953 1.4882812 -256.85938 0.984375Q-257.19922 0.48046875 -257.19922 -0.25390625Q-257.19922 -1.4648438 -256.26562 -2.140625Q-255.33203 -2.8164062 -253.62109 -2.8164062Q-252.11328 -2.8164062 -251.19531 -2.2304688Q-250.27734 -1.6445312 -250.05078 -0.53515625L-251.99609 -0.33203125Q-252.08984 -0.84765625 -252.45703 -1.1015625Q-252.82422 -1.3554688 -253.62109 -1.3554688Q-254.40234 -1.3554688 -254.79297 -1.15625Q-255.18359 -0.95703125 -255.18359 -0.48828125Q-255.18359 -0.12109375 -254.88281 0.09375Q-254.58203 0.30859375 -253.87109 0.44921875Q-252.87891 0.65234375 -252.10938 0.8671875Q-251.33984 1.0820312 -250.875 1.3789062Q-250.41016 1.6757812 -250.13281 2.140625Q-249.85547 2.6054688 -249.85547 3.3320312ZM-240.95703 3.3320312Q-240.95703 4.5585938 -241.96094 5.2578125Q-242.96484 5.9570312 -244.73828 5.9570312Q-246.48047 5.9570312 -247.40625 5.40625Q-248.33203 4.8554688 -248.63672 3.6914062L-246.70703 3.4023438Q-246.54297 4.0039062 -246.14062 4.2539062Q-245.73828 4.5039062 -244.73828 4.5039062Q-243.81641 4.5039062 -243.39453 4.2695312Q-242.97266 4.0351562 -242.97266 3.5351562Q-242.97266 3.1289062 -243.3125 2.890625Q-243.65234 2.6523438 -244.46484 2.4882812Q-246.32422 2.1210938 -246.97266 1.8046875Q-247.62109 1.4882812 -247.96094 0.984375Q-248.30078 0.48046875 -248.30078 -0.25390625Q-248.30078 -1.4648438 -247.36719 -2.140625Q-246.43359 -2.8164062 -244.72266 -2.8164062Q-243.21484 -2.8164062 -242.29688 -2.2304688Q-241.37891 -1.6445312 -241.15234 -0.53515625L-243.09766 -0.33203125Q-243.19141 -0.84765625 -243.55859 -1.1015625Q-243.92578 -1.3554688 -244.72266 -1.3554688Q-245.50391 -1.3554688 -245.89453 -1.15625Q-246.28516 -0.95703125 -246.28516 -0.48828125Q-246.28516 -0.12109375 -245.98438 0.09375Q-245.68359 0.30859375 -244.97266 0.44921875Q-243.98047 0.65234375 -243.21094 0.8671875Q-242.44141 1.0820312 -241.97656 1.3789062Q-241.51172 1.6757812 -241.23438 2.140625Q-240.95703 2.6054688 -240.95703 3.3320312ZM-240.14453 6.1210938L-237.87109 -5.7929688L-236.01172 -5.7929688L-238.24609 6.1210938L-240.14453 6.1210938ZM-231.21484 5.9570312Q-233.13672 5.9570312 -234.18359 4.8125Q-235.23047 3.6679688 -235.23047 1.6210938Q-235.23047 -0.47265625 -234.17578 -1.640625Q-233.12109 -2.8085938 -231.18359 -2.8085938Q-229.69141 -2.8085938 -228.71484 -2.0585938Q-227.73828 -1.3085938 -227.48828 0.01171875L-229.69922 0.12109375Q-229.79297 -0.52734375 -230.16797 -0.9140625Q-230.54297 -1.3007812 -231.23047 -1.3007812Q-232.92578 -1.3007812 -232.92578 1.5351562Q-232.92578 4.4570312 -231.19922 4.4570312Q-230.57422 4.4570312 -230.15234 4.0625Q-229.73047 3.6679688 -229.62891 2.8867188L-227.42578 2.9882812Q-227.54297 3.8554688 -228.04688 4.5351562Q-228.55078 5.2148438 -229.37109 5.5859375Q-230.19141 5.9570312 -231.21484 5.9570312ZM-217.80859 1.5664062Q-217.80859 3.6210938 -218.94922 4.7890625Q-220.08984 5.9570312 -222.10547 5.9570312Q-224.08203 5.9570312 -225.20703 4.7851562Q-226.33203 3.6132812 -226.33203 1.5664062Q-226.33203 -0.47265625 -225.20703 -1.640625Q-224.08203 -2.8085938 -222.05859 -2.8085938Q-219.98828 -2.8085938 -218.89844 -1.6796875Q-217.80859 -0.55078125 -217.80859 1.5664062ZM-220.10547 1.5664062Q-220.10547 0.05859375 -220.59766 -0.62109375Q-221.08984 -1.3007812 -222.02734 -1.3007812Q-224.02734 -1.3007812 -224.02734 1.5664062Q-224.02734 2.9804688 -223.53906 3.71875Q-223.05078 4.4570312 -222.12891 4.4570312Q-220.10547 4.4570312 -220.10547 1.5664062ZM-216.06641 5.8007812L-216.06641 -5.7929688L-213.87109 -5.7929688L-213.87109 5.8007812L-216.06641 5.8007812ZM-209.66797 5.9570312Q-210.89453 5.9570312 -211.58203 5.2890625Q-212.26953 4.6210938 -212.26953 3.4101562Q-212.26953 2.0976562 -211.41406 1.4101562Q-210.55859 0.72265625 -208.93359 0.70703125L-207.11328 0.67578125L-207.11328 0.24609375Q-207.11328 -0.58203125 -207.40234 -0.984375Q-207.69141 -1.3867188 -208.34766 -1.3867188Q-208.95703 -1.3867188 -209.24219 -1.109375Q-209.52734 -0.83203125 -209.59766 -0.19140625L-211.88672 -0.30078125Q-211.67578 -1.5351562 -210.75781 -2.171875Q-209.83984 -2.8085938 -208.25391 -2.8085938Q-206.65234 -2.8085938 -205.78516 -2.0195312Q-204.91797 -1.2304688 -204.91797 0.22265625L-204.91797 3.3007812Q-204.91797 4.0117188 -204.75781 4.28125Q-204.59766 4.5507812 -204.22266 4.5507812Q-203.97266 4.5507812 -203.73828 4.5039062L-203.73828 5.6914062Q-203.93359 5.7382812 -204.08984 5.7773438Q-204.24609 5.8164062 -204.40234 5.8398438Q-204.55859 5.8632812 -204.73438 5.8789062Q-204.91016 5.8945312 -205.14453 5.8945312Q-205.97266 5.8945312 -206.36719 5.4882812Q-206.76172 5.0820312 -206.83984 4.2929688L-206.88672 4.2929688Q-207.80859 5.9570312 -209.66797 5.9570312ZM-207.11328 1.8867188L-208.23828 1.9023438Q-209.00391 1.9335938 -209.32422 2.0703125Q-209.64453 2.2070312 -209.8125 2.4882812Q-209.98047 2.7695312 -209.98047 3.2382812Q-209.98047 3.8398438 -209.70312 4.1328125Q-209.42578 4.4257812 -208.96484 4.4257812Q-208.44922 4.4257812 -208.02344 4.1445312Q-207.59766 3.8632812 -207.35547 3.3671875Q-207.11328 2.8710938 -207.11328 2.3164062L-207.11328 1.8867188ZM-194.72266 1.5429688Q-194.72266 3.6367188 -195.5625 4.796875Q-196.40234 5.9570312 -197.96484 5.9570312Q-198.86328 5.9570312 -199.51953 5.5664062Q-200.17578 5.1757812 -200.52734 4.4414062L-200.54297 4.4414062Q-200.54297 4.7148438 -200.57812 5.1914062Q-200.61328 5.6679688 -200.65234 5.8007812L-202.78516 5.8007812Q-202.72266 5.0742188 -202.72266 3.8710938L-202.72266 -5.7929688L-200.52734 -5.7929688L-200.52734 -2.5585938L-200.55859 -1.1835938L-200.52734 -1.1835938Q-199.78516 -2.8085938 -197.82422 -2.8085938Q-196.32422 -2.8085938 -195.52344 -1.671875Q-194.72266 -0.53515625 -194.72266 1.5429688ZM-197.01172 1.5429688Q-197.01172 0.10546875 -197.43359 -0.58984375Q-197.85547 -1.2851562 -198.73828 -1.2851562Q-199.62891 -1.2851562 -200.09375 -0.5390625Q-200.55859 0.20703125 -200.55859 1.6132812Q-200.55859 2.9570312 -200.10156 3.7070312Q-199.64453 4.4570312 -198.75391 4.4570312Q-197.01172 4.4570312 -197.01172 1.5429688ZM-193.44141 2.6054688L-193.44141 0.69921875L-189.37891 0.69921875L-189.37891 2.6054688L-193.44141 2.6054688ZM-180.49609 3.3320312Q-180.49609 4.5585938 -181.5 5.2578125Q-182.50391 5.9570312 -184.27734 5.9570312Q-186.01953 5.9570312 -186.94531 5.40625Q-187.87109 4.8554688 -188.17578 3.6914062L-186.24609 3.4023438Q-186.08203 4.0039062 -185.67969 4.2539062Q-185.27734 4.5039062 -184.27734 4.5039062Q-183.35547 4.5039062 -182.93359 4.2695312Q-182.51172 4.0351562 -182.51172 3.5351562Q-182.51172 3.1289062 -182.85156 2.890625Q-183.19141 2.6523438 -184.00391 2.4882812Q-185.86328 2.1210938 -186.51172 1.8046875Q-187.16016 1.4882812 -187.5 0.984375Q-187.83984 0.48046875 -187.83984 -0.25390625Q-187.83984 -1.4648438 -186.90625 -2.140625Q-185.97266 -2.8164062 -184.26172 -2.8164062Q-182.75391 -2.8164062 -181.83594 -2.2304688Q-180.91797 -1.6445312 -180.69141 -0.53515625L-182.63672 -0.33203125Q-182.73047 -0.84765625 -183.09766 -1.1015625Q-183.46484 -1.3554688 -184.26172 -1.3554688Q-185.04297 -1.3554688 -185.43359 -1.15625Q-185.82422 -0.95703125 -185.82422 -0.48828125Q-185.82422 -0.12109375 -185.52344 0.09375Q-185.22266 0.30859375 -184.51172 0.44921875Q-183.51953 0.65234375 -182.75 0.8671875Q-181.98047 1.0820312 -181.51562 1.3789062Q-181.05078 1.6757812 -180.77344 2.140625Q-180.49609 2.6054688 -180.49609 3.3320312ZM-176.76953 5.9570312Q-177.99609 5.9570312 -178.68359 5.2890625Q-179.37109 4.6210938 -179.37109 3.4101562Q-179.37109 2.0976562 -178.51562 1.4101562Q-177.66016 0.72265625 -176.03516 0.70703125L-174.21484 0.67578125L-174.21484 0.24609375Q-174.21484 -0.58203125 -174.50391 -0.984375Q-174.79297 -1.3867188 -175.44922 -1.3867188Q-176.05859 -1.3867188 -176.34375 -1.109375Q-176.62891 -0.83203125 -176.69922 -0.19140625L-178.98828 -0.30078125Q-178.77734 -1.5351562 -177.85938 -2.171875Q-176.94141 -2.8085938 -175.35547 -2.8085938Q-173.75391 -2.8085938 -172.88672 -2.0195312Q-172.01953 -1.2304688 -172.01953 0.22265625L-172.01953 3.3007812Q-172.01953 4.0117188 -171.85938 4.28125Q-171.69922 4.5507812 -171.32422 4.5507812Q-171.07422 4.5507812 -170.83984 4.5039062L-170.83984 5.6914062Q-171.03516 5.7382812 -171.19141 5.7773438Q-171.34766 5.8164062 -171.50391 5.8398438Q-171.66016 5.8632812 -171.83594 5.8789062Q-172.01172 5.8945312 -172.24609 5.8945312Q-173.07422 5.8945312 -173.46875 5.4882812Q-173.86328 5.0820312 -173.94141 4.2929688L-173.98828 4.2929688Q-174.91016 5.9570312 -176.76953 5.9570312ZM-174.21484 1.8867188L-175.33984 1.9023438Q-176.10547 1.9335938 -176.42578 2.0703125Q-176.74609 2.2070312 -176.91406 2.4882812Q-177.08203 2.7695312 -177.08203 3.2382812Q-177.08203 3.8398438 -176.80469 4.1328125Q-176.52734 4.4257812 -176.06641 4.4257812Q-175.55078 4.4257812 -175.125 4.1445312Q-174.69922 3.8632812 -174.45703 3.3671875Q-174.21484 2.8710938 -174.21484 2.3164062L-174.21484 1.8867188ZM-167.87109 5.9570312Q-169.09766 5.9570312 -169.78516 5.2890625Q-170.47266 4.6210938 -170.47266 3.4101562Q-170.47266 2.0976562 -169.61719 1.4101562Q-168.76172 0.72265625 -167.13672 0.70703125L-165.31641 0.67578125L-165.31641 0.24609375Q-165.31641 -0.58203125 -165.60547 -0.984375Q-165.89453 -1.3867188 -166.55078 -1.3867188Q-167.16016 -1.3867188 -167.44531 -1.109375Q-167.73047 -0.83203125 -167.80078 -0.19140625L-170.08984 -0.30078125Q-169.87891 -1.5351562 -168.96094 -2.171875Q-168.04297 -2.8085938 -166.45703 -2.8085938Q-164.85547 -2.8085938 -163.98828 -2.0195312Q-163.12109 -1.2304688 -163.12109 0.22265625L-163.12109 3.3007812Q-163.12109 4.0117188 -162.96094 4.28125Q-162.80078 4.5507812 -162.42578 4.5507812Q-162.17578 4.5507812 -161.94141 4.5039062L-161.94141 5.6914062Q-162.13672 5.7382812 -162.29297 5.7773438Q-162.44922 5.8164062 -162.60547 5.8398438Q-162.76172 5.8632812 -162.9375 5.8789062Q-163.11328 5.8945312 -163.34766 5.8945312Q-164.17578 5.8945312 -164.57031 5.4882812Q-164.96484 5.0820312 -165.04297 4.2929688L-165.08984 4.2929688Q-166.01172 5.9570312 -167.87109 5.9570312ZM-165.31641 1.8867188L-166.44141 1.9023438Q-167.20703 1.9335938 -167.52734 2.0703125Q-167.84766 2.2070312 -168.01562 2.4882812Q-168.18359 2.7695312 -168.18359 3.2382812Q-168.18359 3.8398438 -167.90625 4.1328125Q-167.62891 4.4257812 -167.16797 4.4257812Q-166.65234 4.4257812 -166.22656 4.1445312Q-165.80078 3.8632812 -165.55859 3.3671875Q-165.31641 2.8710938 -165.31641 2.3164062L-165.31641 1.8867188ZM-153.80078 3.3320312Q-153.80078 4.5585938 -154.80469 5.2578125Q-155.80859 5.9570312 -157.58203 5.9570312Q-159.32422 5.9570312 -160.25 5.40625Q-161.17578 4.8554688 -161.48047 3.6914062L-159.55078 3.4023438Q-159.38672 4.0039062 -158.98438 4.2539062Q-158.58203 4.5039062 -157.58203 4.5039062Q-156.66016 4.5039062 -156.23828 4.2695312Q-155.81641 4.0351562 -155.81641 3.5351562Q-155.81641 3.1289062 -156.15625 2.890625Q-156.49609 2.6523438 -157.30859 2.4882812Q-159.16797 2.1210938 -159.81641 1.8046875Q-160.46484 1.4882812 -160.80469 0.984375Q-161.14453 0.48046875 -161.14453 -0.25390625Q-161.14453 -1.4648438 -160.21094 -2.140625Q-159.27734 -2.8164062 -157.56641 -2.8164062Q-156.05859 -2.8164062 -155.14062 -2.2304688Q-154.22266 -1.6445312 -153.99609 -0.53515625L-155.94141 -0.33203125Q-156.03516 -0.84765625 -156.40234 -1.1015625Q-156.76953 -1.3554688 -157.56641 -1.3554688Q-158.34766 -1.3554688 -158.73828 -1.15625Q-159.12891 -0.95703125 -159.12891 -0.48828125Q-159.12891 -0.12109375 -158.82812 0.09375Q-158.52734 0.30859375 -157.81641 0.44921875Q-156.82422 0.65234375 -156.05469 0.8671875Q-155.28516 1.0820312 -154.82031 1.3789062Q-154.35547 1.6757812 -154.07812 2.140625Q-153.80078 2.6054688 -153.80078 3.3320312ZM-152.51953 2.6054688L-152.51953 0.69921875L-148.45703 0.69921875L-148.45703 2.6054688L-152.51953 2.6054688ZM-143.17578 5.9570312Q-145.09766 5.9570312 -146.14453 4.8125Q-147.19141 3.6679688 -147.19141 1.6210938Q-147.19141 -0.47265625 -146.13672 -1.640625Q-145.08203 -2.8085938 -143.14453 -2.8085938Q-141.65234 -2.8085938 -140.67578 -2.0585938Q-139.69922 -1.3085938 -139.44922 0.01171875L-141.66016 0.12109375Q-141.75391 -0.52734375 -142.12891 -0.9140625Q-142.50391 -1.3007812 -143.19141 -1.3007812Q-144.88672 -1.3007812 -144.88672 1.5351562Q-144.88672 4.4570312 -143.16016 4.4570312Q-142.53516 4.4570312 -142.11328 4.0625Q-141.69141 3.6679688 -141.58984 2.8867188L-139.38672 2.9882812Q-139.50391 3.8554688 -140.00781 4.5351562Q-140.51172 5.2148438 -141.33203 5.5859375Q-142.15234 5.9570312 -143.17578 5.9570312ZM-129.76953 1.5664062Q-129.76953 3.6210938 -130.91016 4.7890625Q-132.05078 5.9570312 -134.06641 5.9570312Q-136.04297 5.9570312 -137.16797 4.7851562Q-138.29297 3.6132812 -138.29297 1.5664062Q-138.29297 -0.47265625 -137.16797 -1.640625Q-136.04297 -2.8085938 -134.01953 -2.8085938Q-131.94922 -2.8085938 -130.85938 -1.6796875Q-129.76953 -0.55078125 -129.76953 1.5664062ZM-132.06641 1.5664062Q-132.06641 0.05859375 -132.55859 -0.62109375Q-133.05078 -1.3007812 -133.98828 -1.3007812Q-135.98828 -1.3007812 -135.98828 1.5664062Q-135.98828 2.9804688 -135.5 3.71875Q-135.01172 4.4570312 -134.08984 4.4570312Q-132.06641 4.4570312 -132.06641 1.5664062ZM-122.55078 5.8007812L-122.55078 1.0585938Q-122.55078 -1.1679688 -124.05859 -1.1679688Q-124.85547 -1.1679688 -125.34375 -0.484375Q-125.83203 0.19921875 -125.83203 1.2695312L-125.83203 5.8007812L-128.02734 5.8007812L-128.02734 -0.76171875Q-128.02734 -1.4414062 -128.04688 -1.875Q-128.06641 -2.3085938 -128.08984 -2.6523438L-125.99609 -2.6523438Q-125.97266 -2.5039062 -125.93359 -1.859375Q-125.89453 -1.2148438 -125.89453 -0.97265625L-125.86328 -0.97265625Q-125.41797 -1.9414062 -124.74609 -2.3789062Q-124.07422 -2.8164062 -123.14453 -2.8164062Q-121.80078 -2.8164062 -121.08203 -1.9882812Q-120.36328 -1.1601562 -120.36328 0.43359375L-120.36328 5.8007812L-122.55078 5.8007812ZM-112.77734 5.8007812L-112.77734 1.0585938Q-112.77734 -1.1679688 -114.28516 -1.1679688Q-115.08203 -1.1679688 -115.57031 -0.484375Q-116.05859 0.19921875 -116.05859 1.2695312L-116.05859 5.8007812L-118.25391 5.8007812L-118.25391 -0.76171875Q-118.25391 -1.4414062 -118.27344 -1.875Q-118.29297 -2.3085938 -118.31641 -2.6523438L-116.22266 -2.6523438Q-116.19922 -2.5039062 -116.16016 -1.859375Q-116.12109 -1.2148438 -116.12109 -0.97265625L-116.08984 -0.97265625Q-115.64453 -1.9414062 -114.97266 -2.3789062Q-114.30078 -2.8164062 -113.37109 -2.8164062Q-112.02734 -2.8164062 -111.30859 -1.9882812Q-110.58984 -1.1601562 -110.58984 0.43359375L-110.58984 5.8007812L-112.77734 5.8007812ZM-108.97266 2.6054688L-108.97266 0.69921875L-104.91016 0.69921875L-104.91016 2.6054688L-108.97266 2.6054688ZM-103.15234 -4.1757812L-103.15234 -5.7929688L-100.95703 -5.7929688L-100.95703 -4.1757812L-103.15234 -4.1757812ZM-103.15234 5.8007812L-103.15234 -2.6523438L-100.95703 -2.6523438L-100.95703 5.8007812L-103.15234 5.8007812ZM-93.230469 5.8007812Q-93.261719 5.6835938 -93.304688 5.2109375Q-93.347656 4.7382812 -93.347656 4.4257812L-93.378906 4.4257812Q-94.089844 5.9570312 -96.082031 5.9570312Q-97.558594 5.9570312 -98.363281 4.8046875Q-99.167969 3.6523438 -99.167969 1.5820312Q-99.167969 -0.51953125 -98.320312 -1.6640625Q-97.472656 -2.8085938 -95.917969 -2.8085938Q-95.019531 -2.8085938 -94.367188 -2.4335938Q-93.714844 -2.0585938 -93.363281 -1.3164062L-93.347656 -1.3164062L-93.363281 -2.7070312L-93.363281 -5.7929688L-91.167969 -5.7929688L-91.167969 3.9570312Q-91.167969 4.7382812 -91.105469 5.8007812L-93.230469 5.8007812ZM-93.332031 1.5273438Q-93.332031 0.16015625 -93.789062 -0.578125Q-94.246094 -1.3164062 -95.136719 -1.3164062Q-96.019531 -1.3164062 -96.449219 -0.6015625Q-96.878906 0.11328125 -96.878906 1.5820312Q-96.878906 4.4570312 -95.152344 4.4570312Q-94.285156 4.4570312 -93.808594 3.6953125Q-93.332031 2.9335938 -93.332031 1.5273438ZM-85.472656 5.9570312Q-87.378906 5.9570312 -88.402344 4.828125Q-89.425781 3.6992188 -89.425781 1.5351562Q-89.425781 -0.55859375 -88.386719 -1.6835938Q-87.347656 -2.8085938 -85.441406 -2.8085938Q-83.621094 -2.8085938 -82.660156 -1.6015625Q-81.699219 -0.39453125 -81.699219 1.9335938L-81.699219 1.9960938L-87.121094 1.9960938Q-87.121094 3.2304688 -86.664062 3.859375Q-86.207031 4.4882812 -85.363281 4.4882812Q-84.199219 4.4882812 -83.894531 3.4804688L-81.824219 3.6601562Q-82.722656 5.9570312 -85.472656 5.9570312ZM-85.472656 -1.4257812Q-86.246094 -1.4257812 -86.664062 -0.88671875Q-87.082031 -0.34765625 -87.105469 0.62109375L-83.824219 0.62109375Q-83.886719 -0.40234375 -84.316406 -0.9140625Q-84.746094 -1.4257812 -85.472656 -1.4257812ZM-74.558594 5.8007812L-74.558594 1.0585938Q-74.558594 -1.1679688 -76.066406 -1.1679688Q-76.863281 -1.1679688 -77.351562 -0.484375Q-77.839844 0.19921875 -77.839844 1.2695312L-77.839844 5.8007812L-80.035156 5.8007812L-80.035156 -0.76171875Q-80.035156 -1.4414062 -80.054688 -1.875Q-80.074219 -2.3085938 -80.097656 -2.6523438L-78.003906 -2.6523438Q-77.980469 -2.5039062 -77.941406 -1.859375Q-77.902344 -1.2148438 -77.902344 -0.97265625L-77.871094 -0.97265625Q-77.425781 -1.9414062 -76.753906 -2.3789062Q-76.082031 -2.8164062 -75.152344 -2.8164062Q-73.808594 -2.8164062 -73.089844 -1.9882812Q-72.371094 -1.1601562 -72.371094 0.43359375L-72.371094 5.8007812L-74.558594 5.8007812ZM-68.097656 5.9414062Q-69.066406 5.9414062 -69.589844 5.4140625Q-70.113281 4.8867188 -70.113281 3.8164062L-70.113281 -1.1679688L-71.183594 -1.1679688L-71.183594 -2.6523438L-70.003906 -2.6523438L-69.316406 -4.6367188L-67.941406 -4.6367188L-67.941406 -2.6523438L-66.339844 -2.6523438L-66.339844 -1.1679688L-67.941406 -1.1679688L-67.941406 3.2226562Q-67.941406 3.8398438 -67.707031 4.1328125Q-67.472656 4.4257812 -66.980469 4.4257812Q-66.722656 4.4257812 -66.246094 4.3164062L-66.246094 5.6757812Q-67.058594 5.9414062 -68.097656 5.9414062ZM-64.933594 -4.1757812L-64.933594 -5.7929688L-62.738281 -5.7929688L-62.738281 -4.1757812L-64.933594 -4.1757812ZM-64.933594 5.8007812L-64.933594 -2.6523438L-62.738281 -2.6523438L-62.738281 5.8007812L-64.933594 5.8007812ZM-58.324219 5.9414062Q-59.292969 5.9414062 -59.816406 5.4140625Q-60.339844 4.8867188 -60.339844 3.8164062L-60.339844 -1.1679688L-61.410156 -1.1679688L-61.410156 -2.6523438L-60.230469 -2.6523438L-59.542969 -4.6367188L-58.167969 -4.6367188L-58.167969 -2.6523438L-56.566406 -2.6523438L-56.566406 -1.1679688L-58.167969 -1.1679688L-58.167969 3.2226562Q-58.167969 3.8398438 -57.933594 4.1328125Q-57.699219 4.4257812 -57.207031 4.4257812Q-56.949219 4.4257812 -56.472656 4.3164062L-56.472656 5.6757812Q-57.285156 5.9414062 -58.324219 5.9414062ZM-54.066406 9.1210938Q-54.855469 9.1210938 -55.449219 9.0195312L-55.449219 7.4570312Q-55.035156 7.5195312 -54.691406 7.5195312Q-54.222656 7.5195312 -53.914062 7.3710938Q-53.605469 7.2226562 -53.359375 6.8789062Q-53.113281 6.5351562 -52.808594 5.7148438L-56.152344 -2.6523438L-53.832031 -2.6523438L-52.503906 1.3085938Q-52.191406 2.1601562 -51.714844 3.9179688L-51.519531 3.1757812L-51.011719 1.3398438L-49.761719 -2.6523438L-47.464844 -2.6523438L-50.808594 6.2460938Q-51.480469 7.8710938 -52.203125 8.4960938Q-52.925781 9.1210938 -54.066406 9.1210938ZM-40.785156 5.8007812L-40.785156 1.0585938Q-40.785156 -1.1679688 -42.292969 -1.1679688Q-43.089844 -1.1679688 -43.578125 -0.484375Q-44.066406 0.19921875 -44.066406 1.2695312L-44.066406 5.8007812L-46.261719 5.8007812L-46.261719 -0.76171875Q-46.261719 -1.4414062 -46.28125 -1.875Q-46.300781 -2.3085938 -46.324219 -2.6523438L-44.230469 -2.6523438Q-44.207031 -2.5039062 -44.167969 -1.859375Q-44.128906 -1.2148438 -44.128906 -0.97265625L-44.097656 -0.97265625Q-43.652344 -1.9414062 -42.980469 -2.3789062Q-42.308594 -2.8164062 -41.378906 -2.8164062Q-40.035156 -2.8164062 -39.316406 -1.9882812Q-38.597656 -1.1601562 -38.597656 0.43359375L-38.597656 5.8007812L-40.785156 5.8007812ZM-28.457031 1.5664062Q-28.457031 3.6210938 -29.597656 4.7890625Q-30.738281 5.9570312 -32.753906 5.9570312Q-34.730469 5.9570312 -35.855469 4.7851562Q-36.980469 3.6132812 -36.980469 1.5664062Q-36.980469 -0.47265625 -35.855469 -1.640625Q-34.730469 -2.8085938 -32.707031 -2.8085938Q-30.636719 -2.8085938 -29.546875 -1.6796875Q-28.457031 -0.55078125 -28.457031 1.5664062ZM-30.753906 1.5664062Q-30.753906 0.05859375 -31.246094 -0.62109375Q-31.738281 -1.3007812 -32.675781 -1.3007812Q-34.675781 -1.3007812 -34.675781 1.5664062Q-34.675781 2.9804688 -34.1875 3.71875Q-33.699219 4.4570312 -32.777344 4.4570312Q-30.753906 4.4570312 -30.753906 1.5664062ZM-17.574219 5.8007812L-19.894531 5.8007812L-21.238281 0.64453125Q-21.332031 0.29296875 -21.605469 -1.0898438L-22.011719 0.66015625L-23.371094 5.8007812L-25.691406 5.8007812L-27.878906 -2.6523438L-25.816406 -2.6523438L-24.425781 3.8085938L-24.316406 3.2304688L-24.121094 2.3164062L-22.792969 -2.6523438L-20.441406 -2.6523438L-19.144531 2.3164062Q-19.035156 2.7226562 -18.824219 3.8085938L-18.605469 2.7773438L-17.386719 -2.6523438L-15.355469 -2.6523438L-17.574219 5.8007812ZM-14.761719 2.6054688L-14.761719 0.69921875L-10.699219 0.69921875L-10.699219 2.6054688L-14.761719 2.6054688ZM-0.91015625 1.5664062Q-0.91015625 3.6210938 -2.0507812 4.7890625Q-3.1914062 5.9570312 -5.2070312 5.9570312Q-7.1835938 5.9570312 -8.3085938 4.7851562Q-9.4335938 3.6132812 -9.4335938 1.5664062Q-9.4335938 -0.47265625 -8.3085938 -1.640625Q-7.1835938 -2.8085938 -5.1601562 -2.8085938Q-3.0898438 -2.8085938 -2 -1.6796875Q-0.91015625 -0.55078125 -0.91015625 1.5664062ZM-3.2070312 1.5664062Q-3.2070312 0.05859375 -3.6992188 -0.62109375Q-4.1914062 -1.3007812 -5.1289062 -1.3007812Q-7.1289062 -1.3007812 -7.1289062 1.5664062Q-7.1289062 2.9804688 -6.640625 3.71875Q-6.1523438 4.4570312 -5.2304688 4.4570312Q-3.2070312 4.4570312 -3.2070312 1.5664062ZM0.83203125 5.8007812L0.83203125 -0.66796875Q0.83203125 -1.3632812 0.8125 -1.828125Q0.79296875 -2.2929688 0.76953125 -2.6523438L2.8632812 -2.6523438Q2.8867188 -2.5117188 2.9257812 -1.796875Q2.9648438 -1.0820312 2.9648438 -0.84765625L2.9960938 -0.84765625Q3.3164062 -1.7382812 3.5664062 -2.1015625Q3.8164062 -2.4648438 4.1601562 -2.640625Q4.5039062 -2.8164062 5.0195312 -2.8164062Q5.4414062 -2.8164062 5.6992188 -2.6992188L5.6992188 -0.86328125Q5.1679688 -0.98046875 4.7617188 -0.98046875Q3.9414062 -0.98046875 3.484375 -0.31640625Q3.0273438 0.34765625 3.0273438 1.6523438L3.0273438 5.8007812L0.83203125 5.8007812ZM15.058594 1.5351562Q15.058594 3.6523438 14.210938 4.8046875Q13.363281 5.9570312 11.816406 5.9570312Q10.925781 5.9570312 10.265625 5.5703125Q9.6054688 5.1835938 9.2539062 4.4570312L9.2070312 4.4570312Q9.2539062 4.6914062 9.2539062 5.8789062L9.2539062 9.1210938L7.0585938 9.1210938L7.0585938 -0.70703125Q7.0585938 -1.9023438 6.9960938 -2.6523438L9.1289062 -2.6523438Q9.1679688 -2.5117188 9.1953125 -2.0976562Q9.2226562 -1.6835938 9.2226562 -1.2773438L9.2539062 -1.2773438Q9.9960938 -2.8320312 11.957031 -2.8320312Q13.433594 -2.8320312 14.246094 -1.6953125Q15.058594 -0.55859375 15.058594 1.5351562ZM12.769531 1.5351562Q12.769531 -1.3085938 11.027344 -1.3085938Q10.152344 -1.3085938 9.6875 -0.54296875Q9.2226562 0.22265625 9.2226562 1.5976562Q9.2226562 2.9648438 9.6875 3.7109375Q10.152344 4.4570312 11.011719 4.4570312Q12.769531 4.4570312 12.769531 1.5351562ZM18.996094 -0.96484375Q19.441406 -1.9335938 20.113281 -2.3710938Q20.785156 -2.8085938 21.714844 -2.8085938Q23.058594 -2.8085938 23.777344 -1.9804688Q24.496094 -1.1523438 24.496094 0.44140625L24.496094 5.8007812L22.308594 5.8007812L22.308594 1.0664062Q22.308594 -1.1601562 20.800781 -1.1601562Q20.003906 -1.1601562 19.515625 -0.4765625Q19.027344 0.20703125 19.027344 1.2773438L19.027344 5.8007812L16.832031 5.8007812L16.832031 -5.7929688L19.027344 -5.7929688L19.027344 -2.6289062Q19.027344 -1.7773438 18.964844 -0.96484375L18.996094 -0.96484375ZM28.558594 5.9570312Q27.332031 5.9570312 26.644531 5.2890625Q25.957031 4.6210938 25.957031 3.4101562Q25.957031 2.0976562 26.8125 1.4101562Q27.667969 0.72265625 29.292969 0.70703125L31.113281 0.67578125L31.113281 0.24609375Q31.113281 -0.58203125 30.824219 -0.984375Q30.535156 -1.3867188 29.878906 -1.3867188Q29.269531 -1.3867188 28.984375 -1.109375Q28.699219 -0.83203125 28.628906 -0.19140625L26.339844 -0.30078125Q26.550781 -1.5351562 27.46875 -2.171875Q28.386719 -2.8085938 29.972656 -2.8085938Q31.574219 -2.8085938 32.441406 -2.0195312Q33.308594 -1.2304688 33.308594 0.22265625L33.308594 3.3007812Q33.308594 4.0117188 33.46875 4.28125Q33.628906 4.5507812 34.003906 4.5507812Q34.253906 4.5507812 34.488281 4.5039062L34.488281 5.6914062Q34.292969 5.7382812 34.136719 5.7773438Q33.980469 5.8164062 33.824219 5.8398438Q33.667969 5.8632812 33.492188 5.8789062Q33.316406 5.8945312 33.082031 5.8945312Q32.253906 5.8945312 31.859375 5.4882812Q31.464844 5.0820312 31.386719 4.2929688L31.339844 4.2929688Q30.417969 5.9570312 28.558594 5.9570312ZM31.113281 1.8867188L29.988281 1.9023438Q29.222656 1.9335938 28.902344 2.0703125Q28.582031 2.2070312 28.414062 2.4882812Q28.246094 2.7695312 28.246094 3.2382812Q28.246094 3.8398438 28.523438 4.1328125Q28.800781 4.4257812 29.261719 4.4257812Q29.777344 4.4257812 30.203125 4.1445312Q30.628906 3.8632812 30.871094 3.3671875Q31.113281 2.8710938 31.113281 2.3164062L31.113281 1.8867188ZM40.980469 5.8007812L40.980469 1.0585938Q40.980469 -1.1679688 39.472656 -1.1679688Q38.675781 -1.1679688 38.1875 -0.484375Q37.699219 0.19921875 37.699219 1.2695312L37.699219 5.8007812L35.503906 5.8007812L35.503906 -0.76171875Q35.503906 -1.4414062 35.484375 -1.875Q35.464844 -2.3085938 35.441406 -2.6523438L37.535156 -2.6523438Q37.558594 -2.5039062 37.597656 -1.859375Q37.636719 -1.2148438 37.636719 -0.97265625L37.667969 -0.97265625Q38.113281 -1.9414062 38.785156 -2.3789062Q39.457031 -2.8164062 40.386719 -2.8164062Q41.730469 -2.8164062 42.449219 -1.9882812Q43.167969 -1.1601562 43.167969 0.43359375L43.167969 5.8007812L40.980469 5.8007812ZM44.785156 2.6054688L44.785156 0.69921875L48.847656 0.69921875L48.847656 2.6054688L44.785156 2.6054688ZM52.558594 5.9570312Q51.332031 5.9570312 50.644531 5.2890625Q49.957031 4.6210938 49.957031 3.4101562Q49.957031 2.0976562 50.8125 1.4101562Q51.667969 0.72265625 53.292969 0.70703125L55.113281 0.67578125L55.113281 0.24609375Q55.113281 -0.58203125 54.824219 -0.984375Q54.535156 -1.3867188 53.878906 -1.3867188Q53.269531 -1.3867188 52.984375 -1.109375Q52.699219 -0.83203125 52.628906 -0.19140625L50.339844 -0.30078125Q50.550781 -1.5351562 51.46875 -2.171875Q52.386719 -2.8085938 53.972656 -2.8085938Q55.574219 -2.8085938 56.441406 -2.0195312Q57.308594 -1.2304688 57.308594 0.22265625L57.308594 3.3007812Q57.308594 4.0117188 57.46875 4.28125Q57.628906 4.5507812 58.003906 4.5507812Q58.253906 4.5507812 58.488281 4.5039062L58.488281 5.6914062Q58.292969 5.7382812 58.136719 5.7773438Q57.980469 5.8164062 57.824219 5.8398438Q57.667969 5.8632812 57.492188 5.8789062Q57.316406 5.8945312 57.082031 5.8945312Q56.253906 5.8945312 55.859375 5.4882812Q55.464844 5.0820312 55.386719 4.2929688L55.339844 4.2929688Q54.417969 5.9570312 52.558594 5.9570312ZM55.113281 1.8867188L53.988281 1.9023438Q53.222656 1.9335938 52.902344 2.0703125Q52.582031 2.2070312 52.414062 2.4882812Q52.246094 2.7695312 52.246094 3.2382812Q52.246094 3.8398438 52.523438 4.1328125Q52.800781 4.4257812 53.261719 4.4257812Q53.777344 4.4257812 54.203125 4.1445312Q54.628906 3.8632812 54.871094 3.3671875Q55.113281 2.8710938 55.113281 2.3164062L55.113281 1.8867188ZM63.027344 5.9570312Q61.105469 5.9570312 60.058594 4.8125Q59.011719 3.6679688 59.011719 1.6210938Q59.011719 -0.47265625 60.066406 -1.640625Q61.121094 -2.8085938 63.058594 -2.8085938Q64.550781 -2.8085938 65.527344 -2.0585938Q66.503906 -1.3085938 66.753906 0.01171875L64.542969 0.12109375Q64.449219 -0.52734375 64.074219 -0.9140625Q63.699219 -1.3007812 63.011719 -1.3007812Q61.316406 -1.3007812 61.316406 1.5351562Q61.316406 4.4570312 63.042969 4.4570312Q63.667969 4.4570312 64.089844 4.0625Q64.511719 3.6679688 64.613281 2.8867188L66.816406 2.9882812Q66.699219 3.8554688 66.195312 4.5351562Q65.691406 5.2148438 64.871094 5.5859375Q64.050781 5.9570312 63.027344 5.9570312ZM71.925781 5.9570312Q70.003906 5.9570312 68.957031 4.8125Q67.910156 3.6679688 67.910156 1.6210938Q67.910156 -0.47265625 68.964844 -1.640625Q70.019531 -2.8085938 71.957031 -2.8085938Q73.449219 -2.8085938 74.425781 -2.0585938Q75.402344 -1.3085938 75.652344 0.01171875L73.441406 0.12109375Q73.347656 -0.52734375 72.972656 -0.9140625Q72.597656 -1.3007812 71.910156 -1.3007812Q70.214844 -1.3007812 70.214844 1.5351562Q70.214844 4.4570312 71.941406 4.4570312Q72.566406 4.4570312 72.988281 4.0625Q73.410156 3.6679688 73.511719 2.8867188L75.714844 2.9882812Q75.597656 3.8554688 75.09375 4.5351562Q74.589844 5.2148438 73.769531 5.5859375Q72.949219 5.9570312 71.925781 5.9570312ZM85.332031 1.5664062Q85.332031 3.6210938 84.191406 4.7890625Q83.050781 5.9570312 81.035156 5.9570312Q79.058594 5.9570312 77.933594 4.7851562Q76.808594 3.6132812 76.808594 1.5664062Q76.808594 -0.47265625 77.933594 -1.640625Q79.058594 -2.8085938 81.082031 -2.8085938Q83.152344 -2.8085938 84.242188 -1.6796875Q85.332031 -0.55078125 85.332031 1.5664062ZM83.035156 1.5664062Q83.035156 0.05859375 82.542969 -0.62109375Q82.050781 -1.3007812 81.113281 -1.3007812Q79.113281 -1.3007812 79.113281 1.5664062Q79.113281 2.9804688 79.601562 3.71875Q80.089844 4.4570312 81.011719 4.4570312Q83.035156 4.4570312 83.035156 1.5664062ZM89.144531 -2.6523438L89.144531 2.0898438Q89.144531 4.3164062 90.644531 4.3164062Q91.441406 4.3164062 91.929688 3.6328125Q92.417969 2.9492188 92.417969 1.8789062L92.417969 -2.6523438L94.613281 -2.6523438L94.613281 3.9101562Q94.613281 4.9882812 94.675781 5.8007812L92.582031 5.8007812Q92.488281 4.6757812 92.488281 4.1210938L92.449219 4.1210938Q92.011719 5.0820312 91.335938 5.5195312Q90.660156 5.9570312 89.730469 5.9570312Q88.386719 5.9570312 87.667969 5.1328125Q86.949219 4.3085938 86.949219 2.7148438L86.949219 -2.6523438L89.144531 -2.6523438ZM102.32422 5.8007812L102.32422 1.0585938Q102.32422 -1.1679688 100.81641 -1.1679688Q100.01953 -1.1679688 99.53125 -0.484375Q99.042969 0.19921875 99.042969 1.2695312L99.042969 5.8007812L96.847656 5.8007812L96.847656 -0.76171875Q96.847656 -1.4414062 96.828125 -1.875Q96.808594 -2.3085938 96.785156 -2.6523438L98.878906 -2.6523438Q98.902344 -2.5039062 98.941406 -1.859375Q98.980469 -1.2148438 98.980469 -0.97265625L99.011719 -0.97265625Q99.457031 -1.9414062 100.12891 -2.3789062Q100.80078 -2.8164062 101.73047 -2.8164062Q103.07422 -2.8164062 103.79297 -1.9882812Q104.51172 -1.1601562 104.51172 0.43359375L104.51172 5.8007812L102.32422 5.8007812ZM108.78516 5.9414062Q107.81641 5.9414062 107.29297 5.4140625Q106.76953 4.8867188 106.76953 3.8164062L106.76953 -1.1679688L105.69922 -1.1679688L105.69922 -2.6523438L106.87891 -2.6523438L107.56641 -4.6367188L108.94141 -4.6367188L108.94141 -2.6523438L110.54297 -2.6523438L110.54297 -1.1679688L108.94141 -1.1679688L108.94141 3.2226562Q108.94141 3.8398438 109.17578 4.1328125Q109.41016 4.4257812 109.90234 4.4257812Q110.16016 4.4257812 110.63672 4.3164062L110.63672 5.6757812Q109.82422 5.9414062 108.78516 5.9414062ZM119.07422 3.3320312Q119.07422 4.5585938 118.07031 5.2578125Q117.06641 5.9570312 115.29297 5.9570312Q113.55078 5.9570312 112.625 5.40625Q111.69922 4.8554688 111.39453 3.6914062L113.32422 3.4023438Q113.48828 4.0039062 113.89062 4.2539062Q114.29297 4.5039062 115.29297 4.5039062Q116.21484 4.5039062 116.63672 4.2695312Q117.05859 4.0351562 117.05859 3.5351562Q117.05859 3.1289062 116.71875 2.890625Q116.37891 2.6523438 115.56641 2.4882812Q113.70703 2.1210938 113.05859 1.8046875Q112.41016 1.4882812 112.07031 0.984375Q111.73047 0.48046875 111.73047 -0.25390625Q111.73047 -1.4648438 112.66406 -2.140625Q113.59766 -2.8164062 115.30859 -2.8164062Q116.81641 -2.8164062 117.73438 -2.2304688Q118.65234 -1.6445312 118.87891 -0.53515625L116.93359 -0.33203125Q116.83984 -0.84765625 116.47266 -1.1015625Q116.10547 -1.3554688 115.30859 -1.3554688Q114.52734 -1.3554688 114.13672 -1.15625Q113.74609 -0.95703125 113.74609 -0.48828125Q113.74609 -0.12109375 114.04688 0.09375Q114.34766 0.30859375 115.05859 0.44921875Q116.05078 0.65234375 116.82031 0.8671875Q117.58984 1.0820312 118.05469 1.3789062Q118.51953 1.6757812 118.79688 2.140625Q119.07422 2.6054688 119.07422 3.3320312ZM124.80078 2.6054688L124.80078 0.69921875L128.86328 0.69921875L128.86328 2.6054688L124.80078 2.6054688ZM137.32422 -3.4257812L137.32422 -0.01953125L142.95703 -0.01953125L142.95703 1.7617188L137.32422 1.7617188L137.32422 5.8007812L135.01953 5.8007812L135.01953 -5.2070312L143.13672 -5.2070312L143.13672 -3.4257812L137.32422 -3.4257812ZM155.49609 0.24609375Q155.49609 1.9648438 154.81641 3.2695312Q154.13672 4.5742188 152.87109 5.265625Q151.60547 5.9570312 149.91797 5.9570312Q147.32422 5.9570312 145.85156 4.4296875Q144.37891 2.9023438 144.37891 0.24609375Q144.37891 -2.4023438 145.84766 -3.8867188Q147.31641 -5.3710938 149.93359 -5.3710938Q152.55078 -5.3710938 154.02344 -3.8710938Q155.49609 -2.3710938 155.49609 0.24609375ZM153.14453 0.24609375Q153.14453 -1.5351562 152.30078 -2.546875Q151.45703 -3.5585938 149.93359 -3.5585938Q148.38672 -3.5585938 147.54297 -2.5546875Q146.69922 -1.5507812 146.69922 0.24609375Q146.69922 2.0585938 147.5625 3.1015625Q148.42578 4.1445312 149.91797 4.1445312Q151.46484 4.1445312 152.30469 3.1289062Q153.14453 2.1132812 153.14453 0.24609375ZM164.80078 5.8007812L162.24609 1.6210938L159.54297 1.6210938L159.54297 5.8007812L157.23828 5.8007812L157.23828 -5.2070312L162.73828 -5.2070312Q164.70703 -5.2070312 165.77734 -4.359375Q166.84766 -3.5117188 166.84766 -1.9257812Q166.84766 -0.76953125 166.19141 0.0703125Q165.53516 0.91015625 164.41797 1.1757812L167.39453 5.8007812L164.80078 5.8007812ZM164.52734 -1.8320312Q164.52734 -3.4179688 162.49609 -3.4179688L159.54297 -3.4179688L159.54297 -0.16796875L162.55859 -0.16796875Q163.52734 -0.16796875 164.02734 -0.60546875Q164.52734 -1.0429688 164.52734 -1.8320312ZM177.93359 5.8007812L177.93359 -0.87109375Q177.93359 -1.0976562 177.9375 -1.3242188Q177.94141 -1.5507812 178.01172 -3.2695312Q177.45703 -1.1679688 177.19141 -0.33984375L175.20703 5.8007812L173.56641 5.8007812L171.58203 -0.33984375L170.74609 -3.2695312Q170.83984 -1.4570312 170.83984 -0.87109375L170.83984 5.8007812L168.79297 5.8007812L168.79297 -5.2070312L171.87891 -5.2070312L173.84766 0.94921875L174.01953 1.5429688L174.39453 3.0195312L174.88672 1.2539062L176.91016 -5.2070312L179.98047 -5.2070312L179.98047 5.8007812L177.93359 5.8007812ZM189.90234 5.8007812L188.92578 2.9882812L184.73047 2.9882812L183.75391 5.8007812L181.44922 5.8007812L185.46484 -5.2070312L188.18359 -5.2070312L192.18359 5.8007812L189.90234 5.8007812ZM186.82422 -3.5117188L186.77734 -3.3398438Q186.69922 -3.0585938 186.58984 -2.6992188Q186.48047 -2.3398438 185.24609 1.2539062L188.41016 1.2539062L187.32422 -1.9101562L186.98828 -2.9726562L186.82422 -3.5117188ZM197.45703 -3.4257812L197.45703 5.8007812L195.15234 5.8007812L195.15234 -3.4257812L191.59766 -3.4257812L191.59766 -5.2070312L201.01953 -5.2070312L201.01953 -3.4257812L197.45703 -3.4257812ZM216.51953 0.21484375Q216.51953 1.9179688 215.85156 3.1875Q215.18359 4.4570312 213.96094 5.1289062Q212.73828 5.8007812 211.16016 5.8007812L206.70703 5.8007812L206.70703 -5.2070312L210.69141 -5.2070312Q213.47266 -5.2070312 214.99609 -3.8046875Q216.51953 -2.4023438 216.51953 0.21484375ZM214.19922 0.21484375Q214.19922 -1.5585938 213.27734 -2.4921875Q212.35547 -3.4257812 210.64453 -3.4257812L209.01172 -3.4257812L209.01172 4.0195312L210.96484 4.0195312Q212.44922 4.0195312 213.32422 2.9960938Q214.19922 1.9726562 214.19922 0.21484375ZM226.33984 1.5664062Q226.33984 3.6210938 225.19922 4.7890625Q224.05859 5.9570312 222.04297 5.9570312Q220.06641 5.9570312 218.94141 4.7851562Q217.81641 3.6132812 217.81641 1.5664062Q217.81641 -0.47265625 218.94141 -1.640625Q220.06641 -2.8085938 222.08984 -2.8085938Q224.16016 -2.8085938 225.25 -1.6796875Q226.33984 -0.55078125 226.33984 1.5664062ZM224.04297 1.5664062Q224.04297 0.05859375 223.55078 -0.62109375Q223.05859 -1.3007812 222.12109 -1.3007812Q220.12109 -1.3007812 220.12109 1.5664062Q220.12109 2.9804688 220.60938 3.71875Q221.09766 4.4570312 222.01953 4.4570312Q224.04297 4.4570312 224.04297 1.5664062ZM237.22266 5.8007812L234.90234 5.8007812L233.55859 0.64453125Q233.46484 0.29296875 233.19141 -1.0898438L232.78516 0.66015625L231.42578 5.8007812L229.10547 5.8007812L226.91797 -2.6523438L228.98047 -2.6523438L230.37109 3.8085938L230.48047 3.2304688L230.67578 2.3164062L232.00391 -2.6523438L234.35547 -2.6523438L235.65234 2.3164062Q235.76172 2.7226562 235.97266 3.8085938L236.19141 2.7773438L237.41016 -2.6523438L239.44141 -2.6523438L237.22266 5.8007812ZM246.00391 5.8007812L246.00391 1.0585938Q246.00391 -1.1679688 244.49609 -1.1679688Q243.69922 -1.1679688 243.21094 -0.484375Q242.72266 0.19921875 242.72266 1.2695312L242.72266 5.8007812L240.52734 5.8007812L240.52734 -0.76171875Q240.52734 -1.4414062 240.50781 -1.875Q240.48828 -2.3085938 240.46484 -2.6523438L242.55859 -2.6523438Q242.58203 -2.5039062 242.62109 -1.859375Q242.66016 -1.2148438 242.66016 -0.97265625L242.69141 -0.97265625Q243.13672 -1.9414062 243.80859 -2.3789062Q244.48047 -2.8164062 245.41016 -2.8164062Q246.75391 -2.8164062 247.47266 -1.9882812Q248.19141 -1.1601562 248.19141 0.43359375L248.19141 5.8007812L246.00391 5.8007812ZM250.30078 5.8007812L250.30078 -5.7929688L252.49609 -5.7929688L252.49609 5.8007812L250.30078 5.8007812ZM262.77734 1.5664062Q262.77734 3.6210938 261.63672 4.7890625Q260.49609 5.9570312 258.48047 5.9570312Q256.50391 5.9570312 255.37891 4.7851562Q254.25391 3.6132812 254.25391 1.5664062Q254.25391 -0.47265625 255.37891 -1.640625Q256.50391 -2.8085938 258.52734 -2.8085938Q260.59766 -2.8085938 261.6875 -1.6796875Q262.77734 -0.55078125 262.77734 1.5664062ZM260.48047 1.5664062Q260.48047 0.05859375 259.98828 -0.62109375Q259.49609 -1.3007812 258.55859 -1.3007812Q256.55859 -1.3007812 256.55859 1.5664062Q256.55859 2.9804688 257.04688 3.71875Q257.53516 4.4570312 258.45703 4.4570312Q260.48047 4.4570312 260.48047 1.5664062ZM266.47266 5.9570312Q265.24609 5.9570312 264.55859 5.2890625Q263.87109 4.6210938 263.87109 3.4101562Q263.87109 2.0976562 264.72656 1.4101562Q265.58203 0.72265625 267.20703 0.70703125L269.02734 0.67578125L269.02734 0.24609375Q269.02734 -0.58203125 268.73828 -0.984375Q268.44922 -1.3867188 267.79297 -1.3867188Q267.18359 -1.3867188 266.89844 -1.109375Q266.61328 -0.83203125 266.54297 -0.19140625L264.25391 -0.30078125Q264.46484 -1.5351562 265.38281 -2.171875Q266.30078 -2.8085938 267.88672 -2.8085938Q269.48828 -2.8085938 270.35547 -2.0195312Q271.22266 -1.2304688 271.22266 0.22265625L271.22266 3.3007812Q271.22266 4.0117188 271.38281 4.28125Q271.54297 4.5507812 271.91797 4.5507812Q272.16797 4.5507812 272.40234 4.5039062L272.40234 5.6914062Q272.20703 5.7382812 272.05078 5.7773438Q271.89453 5.8164062 271.73828 5.8398438Q271.58203 5.8632812 271.40625 5.8789062Q271.23047 5.8945312 270.99609 5.8945312Q270.16797 5.8945312 269.77344 5.4882812Q269.37891 5.0820312 269.30078 4.2929688L269.25391 4.2929688Q268.33203 5.9570312 266.47266 5.9570312ZM269.02734 1.8867188L267.90234 1.9023438Q267.13672 1.9335938 266.81641 2.0703125Q266.49609 2.2070312 266.32812 2.4882812Q266.16016 2.7695312 266.16016 3.2382812Q266.16016 3.8398438 266.4375 4.1328125Q266.71484 4.4257812 267.17578 4.4257812Q267.69141 4.4257812 268.11719 4.1445312Q268.54297 3.8632812 268.78516 3.3671875Q269.02734 2.8710938 269.02734 2.3164062L269.02734 1.8867188ZM278.89453 5.8007812Q278.86328 5.6835938 278.82031 5.2109375Q278.77734 4.7382812 278.77734 4.4257812L278.74609 4.4257812Q278.03516 5.9570312 276.04297 5.9570312Q274.56641 5.9570312 273.76172 4.8046875Q272.95703 3.6523438 272.95703 1.5820312Q272.95703 -0.51953125 273.80469 -1.6640625Q274.65234 -2.8085938 276.20703 -2.8085938Q277.10547 -2.8085938 277.75781 -2.4335938Q278.41016 -2.0585938 278.76172 -1.3164062L278.77734 -1.3164062L278.76172 -2.7070312L278.76172 -5.7929688L280.95703 -5.7929688L280.95703 3.9570312Q280.95703 4.7382812 281.01953 5.8007812L278.89453 5.8007812ZM278.79297 1.5273438Q278.79297 0.16015625 278.33594 -0.578125Q277.87891 -1.3164062 276.98828 -1.3164062Q276.10547 -1.3164062 275.67578 -0.6015625Q275.24609 0.11328125 275.24609 1.5820312Q275.24609 4.4570312 276.97266 4.4570312Q277.83984 4.4570312 278.31641 3.6953125Q278.79297 2.9335938 278.79297 1.5273438ZM292.55859 -3.4257812L292.55859 5.8007812L290.25391 5.8007812L290.25391 -3.4257812L286.69922 -3.4257812L286.69922 -5.2070312L296.12109 -5.2070312L296.12109 -3.4257812L292.55859 -3.4257812ZM296.52734 5.8007812L296.52734 -0.66796875Q296.52734 -1.3632812 296.50781 -1.828125Q296.48828 -2.2929688 296.46484 -2.6523438L298.55859 -2.6523438Q298.58203 -2.5117188 298.62109 -1.796875Q298.66016 -1.0820312 298.66016 -0.84765625L298.69141 -0.84765625Q299.01172 -1.7382812 299.26172 -2.1015625Q299.51172 -2.4648438 299.85547 -2.640625Q300.19922 -2.8164062 300.71484 -2.8164062Q301.13672 -2.8164062 301.39453 -2.6992188L301.39453 -0.86328125Q300.86328 -0.98046875 300.45703 -0.98046875Q299.63672 -0.98046875 299.17969 -0.31640625Q298.72266 0.34765625 298.72266 1.6523438L298.72266 5.8007812L296.52734 5.8007812ZM306.21484 5.9570312Q304.30859 5.9570312 303.28516 4.828125Q302.26172 3.6992188 302.26172 1.5351562Q302.26172 -0.55859375 303.30078 -1.6835938Q304.33984 -2.8085938 306.24609 -2.8085938Q308.06641 -2.8085938 309.02734 -1.6015625Q309.98828 -0.39453125 309.98828 1.9335938L309.98828 1.9960938L304.56641 1.9960938Q304.56641 3.2304688 305.02344 3.859375Q305.48047 4.4882812 306.32422 4.4882812Q307.48828 4.4882812 307.79297 3.4804688L309.86328 3.6601562Q308.96484 5.9570312 306.21484 5.9570312ZM306.21484 -1.4257812Q305.44141 -1.4257812 305.02344 -0.88671875Q304.60547 -0.34765625 304.58203 0.62109375L307.86328 0.62109375Q307.80078 -0.40234375 307.37109 -0.9140625Q306.94141 -1.4257812 306.21484 -1.4257812ZM317.12891 5.8007812L317.12891 1.0585938Q317.12891 -1.1679688 315.62109 -1.1679688Q314.82422 -1.1679688 314.33594 -0.484375Q313.84766 0.19921875 313.84766 1.2695312L313.84766 5.8007812L311.65234 5.8007812L311.65234 -0.76171875Q311.65234 -1.4414062 311.63281 -1.875Q311.61328 -2.3085938 311.58984 -2.6523438L313.68359 -2.6523438Q313.70703 -2.5039062 313.74609 -1.859375Q313.78516 -1.2148438 313.78516 -0.97265625L313.81641 -0.97265625Q314.26172 -1.9414062 314.93359 -2.3789062Q315.60547 -2.8164062 316.53516 -2.8164062Q317.87891 -2.8164062 318.59766 -1.9882812Q319.31641 -1.1601562 319.31641 0.43359375L319.31641 5.8007812L317.12891 5.8007812ZM326.90234 5.8007812Q326.87109 5.6835938 326.82812 5.2109375Q326.78516 4.7382812 326.78516 4.4257812L326.75391 4.4257812Q326.04297 5.9570312 324.05078 5.9570312Q322.57422 5.9570312 321.76953 4.8046875Q320.96484 3.6523438 320.96484 1.5820312Q320.96484 -0.51953125 321.8125 -1.6640625Q322.66016 -2.8085938 324.21484 -2.8085938Q325.11328 -2.8085938 325.76562 -2.4335938Q326.41797 -2.0585938 326.76953 -1.3164062L326.78516 -1.3164062L326.76953 -2.7070312L326.76953 -5.7929688L328.96484 -5.7929688L328.96484 3.9570312Q328.96484 4.7382812 329.02734 5.8007812L326.90234 5.8007812ZM326.80078 1.5273438Q326.80078 0.16015625 326.34375 -0.578125Q325.88672 -1.3164062 324.99609 -1.3164062Q324.11328 -1.3164062 323.68359 -0.6015625Q323.25391 0.11328125 323.25391 1.5820312Q323.25391 4.4570312 324.98047 4.4570312Q325.84766 4.4570312 326.32422 3.6953125Q326.80078 2.9335938 326.80078 1.5273438ZM338.32422 3.3320312Q338.32422 4.5585938 337.32031 5.2578125Q336.31641 5.9570312 334.54297 5.9570312Q332.80078 5.9570312 331.875 5.40625Q330.94922 4.8554688 330.64453 3.6914062L332.57422 3.4023438Q332.73828 4.0039062 333.14062 4.2539062Q333.54297 4.5039062 334.54297 4.5039062Q335.46484 4.5039062 335.88672 4.2695312Q336.30859 4.0351562 336.30859 3.5351562Q336.30859 3.1289062 335.96875 2.890625Q335.62891 2.6523438 334.81641 2.4882812Q332.95703 2.1210938 332.30859 1.8046875Q331.66016 1.4882812 331.32031 0.984375Q330.98047 0.48046875 330.98047 -0.25390625Q330.98047 -1.4648438 331.91406 -2.140625Q332.84766 -2.8164062 334.55859 -2.8164062Q336.06641 -2.8164062 336.98438 -2.2304688Q337.90234 -1.6445312 338.12891 -0.53515625L336.18359 -0.33203125Q336.08984 -0.84765625 335.72266 -1.1015625Q335.35547 -1.3554688 334.55859 -1.3554688Q333.77734 -1.3554688 333.38672 -1.15625Q332.99609 -0.95703125 332.99609 -0.48828125Q332.99609 -0.12109375 333.29688 0.09375Q333.59766 0.30859375 334.30859 0.44921875Q335.30078 0.65234375 336.07031 0.8671875Q336.83984 1.0820312 337.30469 1.3789062Q337.76953 1.6757812 338.04688 2.140625Q338.32422 2.6054688 338.32422 3.3320312Z"/>
	<path fill="none" stroke="black" stroke-width="1" stroke-miterlimit="10" stroke-opacity="0.10196079" d="M49 749.5L1195 749.5"/>
	<clipPath id="cl_1df">
		<rect y="749.20001" width="1200" height="50.799988"/>
	</clipPath>
	<g clip-path="url(#cl_1df)">
		<path fill="#666" transform="translate(49.75 760.2)" d="M-12.751953 11.300586L-14 11.300586L-16.302734 4.960742L-15.177734 4.960742L-13.783203 9.085742Q-13.707031 9.320117 -13.378906 10.474414L-13.173828 9.788867L-12.945312 9.0974607L-11.503906 4.960742L-10.384766 4.960742L-12.751953 11.300586ZM-4.1386719 7.1697264Q-4.1386719 9.2380857 -4.8681641 10.327929Q-5.5976562 11.417773 -7.0214844 11.417773Q-8.4453125 11.417773 -9.1601562 10.333789Q-9.875 9.2498045 -9.875 7.1697264Q-9.875 5.0427732 -9.1806641 3.9822264Q-8.4863281 2.9216795 -6.9863281 2.9216795Q-5.5273438 2.9216795 -4.8330078 3.9939451Q-4.1386719 5.0662107 -4.1386719 7.1697264ZM-5.2109375 7.1697264Q-5.2109375 5.382617 -5.6240234 4.5798826Q-6.0371094 3.7771482 -6.9863281 3.7771482Q-7.9589844 3.7771482 -8.3837891 4.5681639Q-8.8085938 5.3591795 -8.8085938 7.1697264Q-8.8085938 8.9275389 -8.3779297 9.741992Q-7.9472656 10.556445 -7.0097656 10.556445Q-6.078125 10.556445 -5.6445312 9.7244139Q-5.2109375 8.8923826 -5.2109375 7.1697264ZM-2.5742188 11.300586L-2.5742188 10.017383L-1.4316406 10.017383L-1.4316406 11.300586L-2.5742188 11.300586ZM5.8105469 9.0212889Q5.8105469 10.163867 5.0839844 10.79082Q4.3574219 11.417773 3.0097656 11.417773Q1.7558594 11.417773 1.0087891 10.852344Q0.26171875 10.286914 0.12109375 9.179492L1.2109375 9.0798826Q1.421875 10.544726 3.0097656 10.544726Q3.8066406 10.544726 4.2607422 10.152148Q4.7148438 9.7595701 4.7148438 8.9861326Q4.7148438 8.3123045 4.1962891 7.9343748Q3.6777344 7.5564451 2.6992188 7.5564451L2.1015625 7.5564451L2.1015625 6.6423826L2.6757812 6.6423826Q3.5429688 6.6423826 4.0205078 6.2644529Q4.4980469 5.8865232 4.4980469 5.2185545Q4.4980469 4.5564451 4.1083984 4.1726561Q3.71875 3.788867 2.9511719 3.788867Q2.2539062 3.788867 1.8232422 4.1462889Q1.3925781 4.5037107 1.3222656 5.1541014L0.26171875 5.0720701Q0.37890625 4.0583982 1.1025391 3.4900389Q1.8261719 2.9216795 2.9628906 2.9216795Q4.2050781 2.9216795 4.8935547 3.4988279Q5.5820312 4.0759764 5.5820312 5.1072264Q5.5820312 5.898242 5.1396484 6.3933592Q4.6972656 6.8884764 3.8535156 7.0642576L3.8535156 7.0876951Q4.7792969 7.1873045 5.2949219 7.7087889Q5.8105469 8.2302732 5.8105469 9.0212889ZM7.4335938 11.300586L7.4335938 10.017383L8.5761719 10.017383L8.5761719 11.300586L7.4335938 11.300586ZM14.833984 9.4314451L14.833984 11.300586L13.837891 11.300586L13.837891 9.4314451L9.9472656 9.4314451L9.9472656 8.6111326L13.726562 3.0447264L14.833984 3.0447264L14.833984 8.5994139L15.994141 8.5994139L15.994141 9.4314451L14.833984 9.4314451ZM13.837891 4.2341795Q13.826172 4.2693357 13.673828 4.5447264Q13.521484 4.820117 13.445312 4.9314451L11.330078 8.0486326L11.013672 8.4822264L10.919922 8.5994139L13.837891 8.5994139L13.837891 4.2341795Z"/>
	</g>
	<path fill="none" stroke="black" stroke-width="1" stroke-miterlimit="10" stroke-opacity="0.10196079" d="M49.5 71L49.5 750"/>
	<clipPath id="cl_1e1">
		<rect width="49.75" height="800"/>
	</clipPath>
	<g clip-path="url(#cl_1e1)">
		<path fill="#666" transform="translate(38.75 749.2)" d="M-0.46679688 -0.030273438Q-0.46679688 2.0380859 -1.1962891 3.1279297Q-1.9257812 4.2177734 -3.3496094 4.2177734Q-4.7734375 4.2177734 -5.4882812 3.1337891Q-6.203125 2.0498047 -6.203125 -0.030273438Q-6.203125 -2.1572266 -5.5087891 -3.2177734Q-4.8144531 -4.2783203 -3.3144531 -4.2783203Q-1.8554688 -4.2783203 -1.1611328 -3.2060547Q-0.46679688 -2.1337891 -0.46679688 -0.030273438ZM-1.5390625 -0.030273438Q-1.5390625 -1.8173828 -1.9521484 -2.6201172Q-2.3652344 -3.4228516 -3.3144531 -3.4228516Q-4.2871094 -3.4228516 -4.7119141 -2.6318359Q-5.1367188 -1.8408203 -5.1367188 -0.030273438Q-5.1367188 1.7275391 -4.7060547 2.5419922Q-4.2753906 3.3564453 -3.3378906 3.3564453Q-2.40625 3.3564453 -1.9726562 2.5244141Q-1.5390625 1.6923828 -1.5390625 -0.030273438Z"/>
	</g>
	<clipPath id="cl_1e2">
		<rect width="49.75" height="800"/>
	</clipPath>
	<g clip-path="url(#cl_1e2)">
		<path fill="#666" transform="translate(38.75 681.4)" d="M-5.7578125 4.1005859L-5.7578125 3.2041016L-3.6542969 3.2041016L-3.6542969 -3.1474609L-5.5175781 -1.8173828L-5.5175781 -2.8134766L-3.5664062 -4.1552734L-2.59375 -4.1552734L-2.59375 3.2041016L-0.58398438 3.2041016L-0.58398438 4.1005859L-5.7578125 4.1005859Z"/>
	</g>
	<clipPath id="cl_1e3">
		<rect width="49.75" height="800"/>
	</clipPath>
	<g clip-path="url(#cl_1e3)">
		<path fill="#666" transform="translate(38.75 613.6)" d="M-6.0683594 4.1005859L-6.0683594 3.3564453Q-5.7695312 2.6708984 -5.3388672 2.1464844Q-4.9082031 1.6220703 -4.4335938 1.1972656Q-3.9589844 0.77246094 -3.4931641 0.40917969Q-3.0273438 0.045898438 -2.6523438 -0.31738281Q-2.2773438 -0.68066406 -2.0458984 -1.0791016Q-1.8144531 -1.4775391 -1.8144531 -1.9814453Q-1.8144531 -2.6611328 -2.2128906 -3.0361328Q-2.6113281 -3.4111328 -3.3203125 -3.4111328Q-3.9941406 -3.4111328 -4.4306641 -3.0449219Q-4.8671875 -2.6787109 -4.9433594 -2.0166016L-6.0214844 -2.1162109Q-5.9042969 -3.1064453 -5.1806641 -3.6923828Q-4.4570312 -4.2783203 -3.3203125 -4.2783203Q-2.0722656 -4.2783203 -1.4013672 -3.6894531Q-0.73046875 -3.1005859 -0.73046875 -2.0166016Q-0.73046875 -1.5361328 -0.95019531 -1.0615234Q-1.1699219 -0.58691406 -1.6035156 -0.11230469Q-2.0371094 0.36230469 -3.2617188 1.3583984Q-3.9355469 1.9091797 -4.3339844 2.3515625Q-4.7324219 2.7939453 -4.9082031 3.2041016L-0.6015625 3.2041016L-0.6015625 4.1005859L-6.0683594 4.1005859Z"/>
	</g>
	<clipPath id="cl_1e4">
		<rect width="49.75" height="800"/>
	</clipPath>
	<g clip-path="url(#cl_1e4)">
		<path fill="#666" transform="translate(38.75 545.8)" d="M-0.52539062 1.8212891Q-0.52539062 2.9638672 -1.2519531 3.5908203Q-1.9785156 4.2177734 -3.3261719 4.2177734Q-4.5800781 4.2177734 -5.3271484 3.6523438Q-6.0742188 3.0869141 -6.2148438 1.9794922L-5.125 1.8798828Q-4.9140625 3.3447266 -3.3261719 3.3447266Q-2.5292969 3.3447266 -2.0751953 2.9521484Q-1.6210938 2.5595703 -1.6210938 1.7861328Q-1.6210938 1.1123047 -2.1396484 0.734375Q-2.6582031 0.35644531 -3.6367188 0.35644531L-4.234375 0.35644531L-4.234375 -0.55761719L-3.6601562 -0.55761719Q-2.7929688 -0.55761719 -2.3154297 -0.93554688Q-1.8378906 -1.3134766 -1.8378906 -1.9814453Q-1.8378906 -2.6435547 -2.2275391 -3.0273438Q-2.6171875 -3.4111328 -3.3847656 -3.4111328Q-4.0820312 -3.4111328 -4.5126953 -3.0537109Q-4.9433594 -2.6962891 -5.0136719 -2.0458984L-6.0742188 -2.1279297Q-5.9570312 -3.1416016 -5.2333984 -3.7099609Q-4.5097656 -4.2783203 -3.3730469 -4.2783203Q-2.1308594 -4.2783203 -1.4423828 -3.7011719Q-0.75390625 -3.1240234 -0.75390625 -2.0927734Q-0.75390625 -1.3017578 -1.1962891 -0.80664062Q-1.6386719 -0.31152344 -2.4824219 -0.13574219L-2.4824219 -0.11230469Q-1.5566406 -0.012695312 -1.0410156 0.50878906Q-0.52539062 1.0302734 -0.52539062 1.8212891Z"/>
	</g>
	<clipPath id="cl_1e5">
		<rect width="49.75" height="800"/>
	</clipPath>
	<g clip-path="url(#cl_1e5)">
		<path fill="#666" transform="translate(38.75 478)" d="M-1.5097656 2.2314453L-1.5097656 4.1005859L-2.5058594 4.1005859L-2.5058594 2.2314453L-6.3964844 2.2314453L-6.3964844 1.4111328L-2.6171875 -4.1552734L-1.5097656 -4.1552734L-1.5097656 1.3994141L-0.34960938 1.3994141L-0.34960938 2.2314453L-1.5097656 2.2314453ZM-2.5058594 -2.9658203Q-2.5175781 -2.9306641 -2.6699219 -2.6552734Q-2.8222656 -2.3798828 -2.8984375 -2.2685547L-5.0136719 0.84863281L-5.3300781 1.2822266L-5.4238281 1.3994141L-2.5058594 1.3994141L-2.5058594 -2.9658203Z"/>
	</g>
	<clipPath id="cl_1e6">
		<rect width="49.75" height="800"/>
	</clipPath>
	<g clip-path="url(#cl_1e6)">
		<path fill="#666" transform="translate(38.75 410.2)" d="M-0.50195312 1.4111328Q-0.50195312 2.7177734 -1.2783203 3.4677734Q-2.0546875 4.2177734 -3.4316406 4.2177734Q-4.5859375 4.2177734 -5.2949219 3.7138672Q-6.0039062 3.2099609 -6.1914062 2.2548828L-5.125 2.1318359Q-4.7910156 3.3564453 -3.4082031 3.3564453Q-2.5585938 3.3564453 -2.078125 2.84375Q-1.5976562 2.3310547 -1.5976562 1.4345703Q-1.5976562 0.65527344 -2.0810547 0.17480469Q-2.5644531 -0.30566406 -3.3847656 -0.30566406Q-3.8125 -0.30566406 -4.1816406 -0.17089844Q-4.5507812 -0.036132812 -4.9199219 0.28613281L-5.9511719 0.28613281L-5.6757812 -4.1552734L-0.98242188 -4.1552734L-0.98242188 -3.2587891L-4.7148438 -3.2587891L-4.8730469 -0.63964844Q-4.1875 -1.1669922 -3.1679688 -1.1669922Q-1.9492188 -1.1669922 -1.2255859 -0.45214844Q-0.50195312 0.26269531 -0.50195312 1.4111328Z"/>
	</g>
	<clipPath id="cl_1e7">
		<rect width="49.75" height="800"/>
	</clipPath>
	<g clip-path="url(#cl_1e7)">
		<path fill="#666" transform="translate(38.75 342.4)" d="M-0.52539062 1.3994141Q-0.52539062 2.7060547 -1.234375 3.4619141Q-1.9433594 4.2177734 -3.1914062 4.2177734Q-4.5859375 4.2177734 -5.3242188 3.1806641Q-6.0625 2.1435547 -6.0625 0.16308594Q-6.0625 -1.9814453 -5.2949219 -3.1298828Q-4.5273438 -4.2783203 -3.109375 -4.2783203Q-1.2402344 -4.2783203 -0.75390625 -2.5966797L-1.7617188 -2.4150391Q-2.0722656 -3.4228516 -3.1210938 -3.4228516Q-4.0234375 -3.4228516 -4.5185547 -2.5820312Q-5.0136719 -1.7412109 -5.0136719 -0.14746094Q-4.7265625 -0.68066406 -4.2050781 -0.95898438Q-3.6835938 -1.2373047 -3.0097656 -1.2373047Q-1.8671875 -1.2373047 -1.1962891 -0.52246094Q-0.52539062 0.19238281 -0.52539062 1.3994141ZM-1.5976562 1.4462891Q-1.5976562 0.54980469 -2.0371094 0.063476562Q-2.4765625 -0.42285156 -3.2617188 -0.42285156Q-4 -0.42285156 -4.4541016 0.0078125Q-4.9082031 0.43847656 -4.9082031 1.1943359Q-4.9082031 2.1494141 -4.4365234 2.7587891Q-3.9648438 3.3681641 -3.2265625 3.3681641Q-2.4648438 3.3681641 -2.03125 2.8554688Q-1.5976562 2.3427734 -1.5976562 1.4462891Z"/>
	</g>
	<clipPath id="cl_1e8">
		<rect width="49.75" height="800"/>
	</clipPath>
	<g clip-path="url(#cl_1e8)">
		<path fill="#666" transform="translate(38.75 274.6)" d="M-0.6015625 -3.2998047Q-1.8671875 -1.3662109 -2.3886719 -0.27050781Q-2.9101562 0.82519531 -3.1708984 1.8916016Q-3.4316406 2.9580078 -3.4316406 4.1005859L-4.5332031 4.1005859Q-4.5332031 2.5185547 -3.8623047 0.76953125Q-3.1914062 -0.97949219 -1.6210938 -3.2587891L-6.0566406 -3.2587891L-6.0566406 -4.1552734L-0.6015625 -4.1552734L-0.6015625 -3.2998047Z"/>
	</g>
	<clipPath id="cl_1e9">
		<rect width="49.75" height="800"/>
	</clipPath>
	<g clip-path="url(#cl_1e9)">
		<path fill="#666" transform="translate(38.75 206.8)" d="M-0.51953125 1.7978516Q-0.51953125 2.9404297 -1.2460938 3.5791016Q-1.9726562 4.2177734 -3.3320312 4.2177734Q-4.65625 4.2177734 -5.4033203 3.5908203Q-6.1503906 2.9638672 -6.1503906 1.8095703Q-6.1503906 1.0009766 -5.6875 0.45019531Q-5.2246094 -0.10058594 -4.5039062 -0.21777344L-4.5039062 -0.24121094Q-5.1777344 -0.39941406 -5.5673828 -0.92675781Q-5.9570312 -1.4541016 -5.9570312 -2.1630859Q-5.9570312 -3.1064453 -5.2509766 -3.6923828Q-4.5449219 -4.2783203 -3.3554688 -4.2783203Q-2.1367188 -4.2783203 -1.4306641 -3.7041016Q-0.72460938 -3.1298828 -0.72460938 -2.1513672Q-0.72460938 -1.4423828 -1.1171875 -0.91503906Q-1.5097656 -0.38769531 -2.1894531 -0.25292969L-2.1894531 -0.22949219Q-1.3984375 -0.10058594 -0.95898438 0.44140625Q-0.51953125 0.98339844 -0.51953125 1.7978516ZM-1.8203125 -2.0927734Q-1.8203125 -3.4931641 -3.3554688 -3.4931641Q-4.0996094 -3.4931641 -4.4892578 -3.1416016Q-4.8789062 -2.7900391 -4.8789062 -2.0927734Q-4.8789062 -1.3837891 -4.4775391 -1.0117188Q-4.0761719 -0.63964844 -3.34375 -0.63964844Q-2.5996094 -0.63964844 -2.2099609 -0.98242188Q-1.8203125 -1.3251953 -1.8203125 -2.0927734ZM-1.6152344 1.6982422Q-1.6152344 0.93066406 -2.0722656 0.54101562Q-2.5292969 0.15136719 -3.3554688 0.15136719Q-4.1582031 0.15136719 -4.609375 0.5703125Q-5.0605469 0.98925781 -5.0605469 1.7216797Q-5.0605469 3.4267578 -3.3203125 3.4267578Q-2.4589844 3.4267578 -2.0371094 3.0136719Q-1.6152344 2.6005859 -1.6152344 1.6982422Z"/>
	</g>
	<clipPath id="cl_1ea">
		<rect width="49.75" height="800"/>
	</clipPath>
	<g clip-path="url(#cl_1ea)">
		<path fill="#666" transform="translate(38.75 139)" d="M-0.56640625 -0.19433594Q-0.56640625 1.9326172 -1.3427734 3.0751953Q-2.1191406 4.2177734 -3.5546875 4.2177734Q-4.5214844 4.2177734 -5.1044922 3.8105469Q-5.6875 3.4033203 -5.9394531 2.4951172L-4.9316406 2.3369141Q-4.6152344 3.3681641 -3.5371094 3.3681641Q-2.6289062 3.3681641 -2.1308594 2.5244141Q-1.6328125 1.6806641 -1.609375 0.11621094Q-1.84375 0.64355469 -2.4121094 0.96289062Q-2.9804688 1.2822266 -3.6601562 1.2822266Q-4.7734375 1.2822266 -5.4414062 0.52050781Q-6.109375 -0.24121094 -6.109375 -1.5009766Q-6.109375 -2.7958984 -5.3828125 -3.5371094Q-4.65625 -4.2783203 -3.3613281 -4.2783203Q-1.984375 -4.2783203 -1.2753906 -3.2587891Q-0.56640625 -2.2392578 -0.56640625 -0.19433594ZM-1.7148438 -1.2138672Q-1.7148438 -2.2099609 -2.171875 -2.8164062Q-2.6289062 -3.4228516 -3.3964844 -3.4228516Q-4.1582031 -3.4228516 -4.5976562 -2.9042969Q-5.0371094 -2.3857422 -5.0371094 -1.5009766Q-5.0371094 -0.59863281 -4.5976562 -0.07421875Q-4.1582031 0.45019531 -3.4082031 0.45019531Q-2.9511719 0.45019531 -2.5585938 0.2421875Q-2.1660156 0.034179688 -1.9404297 -0.34667969Q-1.7148438 -0.72753906 -1.7148438 -1.2138672Z"/>
	</g>
	<clipPath id="cl_1eb">
		<rect width="49.75" height="800"/>
	</clipPath>
	<g clip-path="url(#cl_1eb)">
		<path fill="#666" transform="translate(38.75 71.2)" d="M-12.429688 4.1005859L-12.429688 3.2041016L-10.326172 3.2041016L-10.326172 -3.1474609L-12.189453 -1.8173828L-12.189453 -2.8134766L-10.238281 -4.1552734L-9.265625 -4.1552734L-9.265625 3.2041016L-7.2558594 3.2041016L-7.2558594 4.1005859L-12.429688 4.1005859ZM-0.46484375 -0.030273438Q-0.46484375 2.0380859 -1.1943359 3.1279297Q-1.9238281 4.2177734 -3.3476562 4.2177734Q-4.7714844 4.2177734 -5.4863281 3.1337891Q-6.2011719 2.0498047 -6.2011719 -0.030273438Q-6.2011719 -2.1572266 -5.5068359 -3.2177734Q-4.8125 -4.2783203 -3.3125 -4.2783203Q-1.8535156 -4.2783203 -1.1591797 -3.2060547Q-0.46484375 -2.1337891 -0.46484375 -0.030273438ZM-1.5371094 -0.030273438Q-1.5371094 -1.8173828 -1.9501953 -2.6201172Q-2.3632812 -3.4228516 -3.3125 -3.4228516Q-4.2851562 -3.4228516 -4.7099609 -2.6318359Q-5.1347656 -1.8408203 -5.1347656 -0.030273438Q-5.1347656 1.7275391 -4.7041016 2.5419922Q-4.2734375 3.3564453 -3.3359375 3.3564453Q-2.4042969 3.3564453 -1.9707031 2.5244141Q-1.5371094 1.6923828 -1.5371094 -0.030273438Z"/>
	</g>
	<clipPath id="cl_1ed">
		<rect x="43.75" y="65.199997" width="1156.25" height="690"/>
	</clipPath>
	<g clip-path="url(#cl_1ed)">
		<path fill="none" stroke="#C32222" stroke-width="2" stroke-miterlimit="10" d=""/>
	</g>
	<clipPath id="cl_1ee">
		<rect x="43.75" y="65.199997" width="1156.25" height="690"/>
	</clipPath>
	<g clip-path="url(#cl_1ee)">
		<path fill="#C32222" fill-opacity="0.2" d="M52.75 681.40002Q52.75 681.54742 52.73555 681.69409Q52.721107 681.84076 52.692352 681.98529Q52.663601 682.12988 52.620815 682.27087Q52.578033 682.41187 52.521633 682.54803Q52.465233 682.68427 52.39576 682.81427Q52.326286 682.94421 52.244404 683.06671Q52.162525 683.18927 52.069027 683.30316Q51.975533 683.41711 51.871319 683.5213Q51.767105 683.62555 51.653179 683.71906Q51.539253 683.81256 51.416706 683.89441Q51.294167 683.97632 51.164188 684.04578Q51.03421 684.11523 50.898048 684.17163Q50.76189 684.22803 50.620857 684.27087Q50.47982 684.3136 50.33527 684.34235Q50.19072 684.37115 50.044052 684.38562Q49.897381 684.40002 49.75 684.40002Q49.602619 684.40002 49.455948 684.38562Q49.309277 684.37115 49.164726 684.34235Q49.02018 684.3136 48.879143 684.27087Q48.73811 684.22803 48.601944 684.17163Q48.465782 684.11523 48.335808 684.04578Q48.205826 683.97632 48.083282 683.89435Q47.960747 683.8125 47.846817 683.71899Q47.732895 683.62555 47.628677 683.5213Q47.524467 683.41711 47.430969 683.30322Q47.337471 683.18927 47.255585 683.06671Q47.173706 682.94421 47.104233 682.81421Q47.03476 682.68427 46.978359 682.54803Q46.921963 682.41187 46.879177 682.27087Q46.836395 682.12988 46.80764 681.98529Q46.778893 681.84076 46.76445 681.69409Q46.75 681.54742 46.75 681.40002Q46.75 681.25269 46.76445 681.10596Q46.778896 680.95923 46.807648 680.8147Q46.836403 680.67017 46.879181 680.52917Q46.921963 680.38812 46.978359 680.25195Q47.03476 680.11584 47.104233 679.98584Q47.173706 679.85583 47.255585 679.73328Q47.337471 679.61072 47.430969 679.49683Q47.524467 679.38293 47.628677 679.27869Q47.732895 679.1745 47.846817 679.08099Q47.960747 678.98749 48.083282 678.90558Q48.205826 678.82373 48.335808 678.75427Q48.465782 678.68481 48.601944 678.62836Q48.73811 678.57202 48.879143 678.52917Q49.02018 678.48645 49.164726 678.45764Q49.309277 678.42896 49.455948 678.41449Q49.602619 678.40002 49.75 678.40002Q49.897381 678.40002 50.044052 678.41449Q50.19072 678.42896 50.335266 678.45764Q50.479816 678.48645 50.620853 678.52917Q50.761887 678.57202 50.898045 678.62836Q51.03421 678.68481 51.164188 678.75427Q51.294167 678.82373 51.416706 678.90558Q51.539253 678.98749 51.653179 679.08099Q51.767105 679.1745 51.871315 679.27869Q51.975533 679.38293 52.069023 679.49683Q52.162521 679.61072 52.2444 679.73328Q52.326279 679.85583 52.395756 679.98584Q52.465233 680.11584 52.521633 680.25195Q52.578033 680.38812 52.620815 680.52911Q52.663597 680.67017 52.692348 680.8147Q52.721107 680.95923 52.73555 681.10596Q52.75 681.25269 52.75 681.40002Z"/>
		<path fill="none" stroke="#C32222" stroke-width="2" stroke-miterlimit="10" d="M52.75 681.40002Q52.75 681.54742 52.73555 681.69409Q52.721107 681.84076 52.692352 681.98529Q52.663601 682.12988 52.620815 682.27087Q52.578033 682.41187 52.521633 682.54803Q52.465233 682.68427 52.39576 682.81427Q52.326286 682.94421 52.244404 683.06671Q52.162525 683.18927 52.069027 683.30316Q51.975533 683.41711 51.871319 683.5213Q51.767105 683.62555 51.653179 683.71906Q51.539253 683.81256 51.416706 683.89441Q51.294167 683.97632 51.164188 684.04578Q51.03421 684.11523 50.898048 684.17163Q50.76189 684.22803 50.620857 684.27087Q50.47982 684.3136 50.33527 684.34235Q50.19072 684.37115 50.044052 684.38562Q49.897381 684.40002 49.75 684.40002Q49.602619 684.40002 49.455948 684.38562Q49.309277 684.37115 49.164726 684.34235Q49.02018 684.3136 48.879143 684.27087Q48.73811 684.22803 48.601944 684.17163Q48.465782 684.11523 48.335808 684.04578Q48.205826 683.97632 48.083282 683.89435Q47.960747 683.8125 47.846817 683.71899Q47.732895 683.62555 47.628677 683.5213Q47.524467 683.41711 47.430969 683.30322Q47.337471 683.18927 47.255585 683.06671Q47.173706 682.94421 47.104233 682.81421Q47.03476 682.68427 46.978359 682.54803Q46.921963 682.41187 46.879177 682.27087Q46.836395 682.12988 46.80764 681.98529Q46.778893 681.84076 46.76445 681.69409Q46.75 681.54742 46.75 681.40002Q46.75 681.25269 46.76445 681.10596Q46.778896 680.95923 46.807648 680.8147Q46.836403 680.67017 46.879181 680.52917Q46.921963 680.38812 46.978359 680.25195Q47.03476 680.11584 47.104233 679.98584Q47.173706 679.85583 47.255585 679.73328Q47.337471 679.61072 47.430969 679.49683Q47.524467 679.38293 47.628677 679.27869Q47.732895 679.1745 47.846817 679.08099Q47.960747 678.98749 48.083282 678.90558Q48.205826 678.82373 48.335808 678.75427Q48.465782 678.68481 48.601944 678.62836Q48.73811 678.57202 48.879143 678.52917Q49.02018 678.48645 49.164726 678.45764Q49.309277 678.42896 49.455948 678.41449Q49.602619 678.40002 49.75 678.40002Q49.897381 678.40002 50.044052 678.41449Q50.19072 678.42896 50.335266 678.45764Q50.479816 678.48645 50.620853 678.52917Q50.761887 678.57202 50.898045 678.62836Q51.03421 678.68481 51.164188 678.75427Q51.294167 678.82373 51.416706 678.90558Q51.539253 678.98749 51.653179 679.08099Q51.767105 679.1745 51.871315 679.27869Q51.975533 679.38293 52.069023 679.49683Q52.162521 679.61072 52.2444 679.73328Q52.326279 679.85583 52.395756 679.98584Q52.465233 680.11584 52.521633 680.25195Q52.578033 680.38812 52.620815 680.52911Q52.663597 680.67017 52.692348 680.8147Q52.721107 680.95923 52.73555 681.10596Q52.75 681.25269 52.75 681.40002Z"/>
	</g>
</svg>
