<?xml version="1.0" encoding="utf-8" ?>
<svg xmlns="http://www.w3.org/2000/svg" xmlns:xlink="http://www.w3.org/1999/xlink" width="1000" height="800">
	<rect fill="white" width="1000" height="800"/>
	<path fill="none" stroke="black" stroke-width="1" stroke-miterlimit="10" stroke-opacity="0.10196079" d="M53.5 71.199997L53.5 749"/>
	<path fill="none" stroke="black" stroke-width="1" stroke-miterlimit="10" stroke-opacity="0.10196079" d="M53.5 750L53.5 757.20001"/>
	<path fill="none" stroke="black" stroke-width="1" stroke-miterlimit="10" stroke-opacity="0.10196079" d="M1000.5 71.199997L1000.5 749"/>
	<path fill="none" stroke="black" stroke-width="1" stroke-miterlimit="10" stroke-opacity="0.10196079" d="M1000.5 750L1000.5 757.20001"/>
	<path fill="#666" transform="translate(526.54 788.8)" d="M-15.653351 4.1005859L-17.797882 0.67285156L-20.370148 0.67285156L-20.370148 4.1005859L-21.489288 4.1005859L-21.489288 -4.1552734L-17.604523 -4.1552734Q-16.209991 -4.1552734 -15.451202 -3.53125Q-14.692413 -2.9072266 -14.692413 -1.7939453Q-14.692413 -0.87402344 -15.228546 -0.24707031Q-15.764679 0.37988281 -16.708038 0.54394531L-14.364288 4.1005859L-15.653351 4.1005859ZM-15.817413 -1.7822266Q-15.817413 -2.5029297 -16.306671 -2.8808594Q-16.795929 -3.2587891 -17.715851 -3.2587891L-20.370148 -3.2587891L-20.370148 -0.21191406L-17.668976 -0.21191406Q-16.78421 -0.21191406 -16.300812 -0.625Q-15.817413 -1.0380859 -15.817413 -1.7822266ZM-12.19046 1.1533203Q-12.19046 2.2431641 -11.739288 2.8349609Q-11.288116 3.4267578 -10.420929 3.4267578Q-9.7353821 3.4267578 -9.3222961 3.1513672Q-8.9092102 2.8759766 -8.7627258 2.4541016L-7.8369446 2.7177734Q-8.405304 4.2177734 -10.420929 4.2177734Q-11.827179 4.2177734 -12.562531 3.3798828Q-13.297882 2.5419922 -13.297882 0.88964844Q-13.297882 -0.68066406 -12.562531 -1.5185547Q-11.827179 -2.3564453 -10.461945 -2.3564453Q-7.6670227 -2.3564453 -7.6670227 1.0126953L-7.6670227 1.1533203L-12.19046 1.1533203ZM-8.7568665 0.34472656Q-8.8447571 -0.65722656 -9.2666321 -1.1171875Q-9.6885071 -1.5771484 -10.479523 -1.5771484Q-11.247101 -1.5771484 -11.695343 -1.0644531Q-12.143585 -0.55175781 -12.178741 0.34472656L-8.7568665 0.34472656ZM-6.3252258 4.1005859L-6.3252258 -4.5947266L-5.2705383 -4.5947266L-5.2705383 4.1005859L-6.3252258 4.1005859ZM-2.8506165 1.1533203Q-2.8506165 2.2431641 -2.3994446 2.8349609Q-1.9482727 3.4267578 -1.0810852 3.4267578Q-0.39553833 3.4267578 0.017547607 3.1513672Q0.43063354 2.8759766 0.57711792 2.4541016L1.5028992 2.7177734Q0.93453979 4.2177734 -1.0810852 4.2177734Q-2.4873352 4.2177734 -3.2226868 3.3798828Q-3.9580383 2.5419922 -3.9580383 0.88964844Q-3.9580383 -0.68066406 -3.2226868 -1.5185547Q-2.4873352 -2.3564453 -1.1221008 -2.3564453Q1.672821 -2.3564453 1.672821 1.0126953L1.672821 1.1533203L-2.8506165 1.1533203ZM0.58297729 0.34472656Q0.49508667 -0.65722656 0.07321167 -1.1171875Q-0.34866333 -1.5771484 -1.139679 -1.5771484Q-1.9072571 -1.5771484 -2.3554993 -1.0644531Q-2.8037415 -0.55175781 -2.8388977 0.34472656L0.58297729 0.34472656ZM4.6318054 4.2177734Q3.6767273 4.2177734 3.1962585 3.7138672Q2.7157898 3.2099609 2.7157898 2.3310547Q2.7157898 1.3466797 3.3632507 0.81933594Q4.0107117 0.29199219 5.4521179 0.25683594L6.875946 0.23339844L6.875946 -0.11230469Q6.875946 -0.88574219 6.547821 -1.2197266Q6.219696 -1.5537109 5.516571 -1.5537109Q4.8075867 -1.5537109 4.485321 -1.3134766Q4.1630554 -1.0732422 4.0986023 -0.54589844L2.9970398 -0.64550781Q3.266571 -2.3564453 5.5400085 -2.3564453Q6.735321 -2.3564453 7.3388367 -1.8085938Q7.9423523 -1.2607422 7.9423523 -0.22363281L7.9423523 2.5068359Q7.9423523 2.9755859 8.0653992 3.2128906Q8.188446 3.4501953 8.5341492 3.4501953Q8.6864929 3.4501953 8.8798523 3.4091797L8.8798523 4.0654297Q8.4814148 4.1591797 8.0653992 4.1591797Q7.4794617 4.1591797 7.2128601 3.8515625Q6.9462585 3.5439453 6.9111023 2.8876953L6.875946 2.8876953Q6.4716492 3.6142578 5.9355164 3.9160156Q5.3993835 4.2177734 4.6318054 4.2177734ZM4.8720398 3.4267578Q5.4521179 3.4267578 5.9032898 3.1630859Q6.3544617 2.8994141 6.6152039 2.4394531Q6.875946 1.9794922 6.875946 1.4931641L6.875946 0.97167969L5.7216492 0.99511719Q4.9775085 1.0068359 4.5937195 1.1474609Q4.2099304 1.2880859 4.0048523 1.5810547Q3.7997742 1.8740234 3.7997742 2.3486328Q3.7997742 2.8642578 4.0780945 3.1455078Q4.3564148 3.4267578 4.8720398 3.4267578ZM14.446259 2.3486328Q14.446259 3.2451172 13.769501 3.7314453Q13.092743 4.2177734 11.873993 4.2177734Q10.690399 4.2177734 10.048798 3.828125Q9.407196 3.4384766 9.2138367 2.6123047L10.145477 2.4306641Q10.280243 2.9404297 10.702118 3.1777344Q11.123993 3.4150391 11.873993 3.4150391Q12.676727 3.4150391 13.048798 3.1689453Q13.420868 2.9228516 13.420868 2.4306641Q13.420868 2.0556641 13.163055 1.8212891Q12.905243 1.5869141 12.331024 1.4345703L11.575165 1.2353516Q10.666962 1.0009766 10.283173 0.77539062Q9.8993835 0.54980469 9.6825867 0.22753906Q9.4657898 -0.094726562 9.4657898 -0.56347656Q9.4657898 -1.4306641 10.083954 -1.8847656Q10.702118 -2.3388672 11.885712 -2.3388672Q12.93454 -2.3388672 13.552704 -1.9697266Q14.170868 -1.6005859 14.33493 -0.78613281L13.385712 -0.66894531Q13.297821 -1.0908203 12.914032 -1.3164062Q12.530243 -1.5419922 11.885712 -1.5419922Q11.170868 -1.5419922 10.831024 -1.3251953Q10.49118 -1.1083984 10.49118 -0.66894531Q10.49118 -0.39941406 10.631805 -0.22363281Q10.77243 -0.047851562 11.047821 0.075195312Q11.323212 0.19824219 12.207977 0.41503906Q13.045868 0.62597656 13.415009 0.8046875Q13.784149 0.98339844 13.998016 1.2001953Q14.211884 1.4169922 14.329071 1.7011719Q14.446259 1.9853516 14.446259 2.3486328ZM16.49704 1.1533203Q16.49704 2.2431641 16.948212 2.8349609Q17.399384 3.4267578 18.266571 3.4267578Q18.952118 3.4267578 19.365204 3.1513672Q19.77829 2.8759766 19.924774 2.4541016L20.850555 2.7177734Q20.282196 4.2177734 18.266571 4.2177734Q16.860321 4.2177734 16.124969 3.3798828Q15.389618 2.5419922 15.389618 0.88964844Q15.389618 -0.68066406 16.124969 -1.5185547Q16.860321 -2.3564453 18.225555 -2.3564453Q21.020477 -2.3564453 21.020477 1.0126953L21.020477 1.1533203L16.49704 1.1533203ZM19.930634 0.34472656Q19.842743 -0.65722656 19.420868 -1.1171875Q18.998993 -1.5771484 18.207977 -1.5771484Q17.440399 -1.5771484 16.992157 -1.0644531Q16.543915 -0.55175781 16.508759 0.34472656L19.930634 0.34472656Z"/>
	<path fill="none" stroke="black" stroke-width="1" stroke-miterlimit="10" stroke-opacity="0.10196079" d="M54 749.5L1000 749.5"/>
	<path fill="none" stroke="black" stroke-width="1" stroke-miterlimit="10" stroke-opacity="0.10196079" d="M45.080002 749.5L53 749.5"/>
	<path fill="none" stroke="black" stroke-width="1" stroke-miterlimit="10" stroke-opacity="0.10196079" d="M54 664.5L1000 664.5"/>
	<path fill="none" stroke="black" stroke-width="1" stroke-miterlimit="10" stroke-opacity="0.10196079" d="M45.080002 664.5L53 664.5"/>
	<path fill="none" stroke="black" stroke-width="1" stroke-miterlimit="10" stroke-opacity="0.10196079" d="M54 579.5L1000 579.5"/>
	<path fill="none" stroke="black" stroke-width="1" stroke-miterlimit="10" stroke-opacity="0.10196079" d="M45.080002 579.5L53 579.5"/>
	<path fill="none" stroke="black" stroke-width="1" stroke-miterlimit="10" stroke-opacity="0.10196079" d="M54 494.5L1000 494.5"/>
	<path fill="none" stroke="black" stroke-width="1" stroke-miterlimit="10" stroke-opacity="0.10196079" d="M45.080002 494.5L53 494.5"/>
	<path fill="none" stroke="black" stroke-width="1" stroke-miterlimit="10" stroke-opacity="0.10196079" d="M54 410.5L1000 410.5"/>
	<path fill="none" stroke="black" stroke-width="1" stroke-miterlimit="10" stroke-opacity="0.10196079" d="M45.080002 410.5L53 410.5"/>
	<path fill="none" stroke="black" stroke-width="1" stroke-miterlimit="10" stroke-opacity="0.10196079" d="M54 325.5L1000 325.5"/>
	<path fill="none" stroke="black" stroke-width="1" stroke-miterlimit="10" stroke-opacity="0.10196079" d="M45.080002 325.5L53 325.5"/>
	<path fill="none" stroke="black" stroke-width="1" stroke-miterlimit="10" stroke-opacity="0.10196079" d="M54 240.5L1000 240.5"/>
	<path fill="none" stroke="black" stroke-width="1" stroke-miterlimit="10" stroke-opacity="0.10196079" d="M45.080002 240.5L53 240.5"/>
	<path fill="none" stroke="black" stroke-width="1" stroke-miterlimit="10" stroke-opacity="0.10196079" d="M54 155.5L1000 155.5"/>
	<path fill="none" stroke="black" stroke-width="1" stroke-miterlimit="10" stroke-opacity="0.10196079" d="M45.080002 155.5L53 155.5"/>
	<path fill="none" stroke="black" stroke-width="1" stroke-miterlimit="10" stroke-opacity="0.10196079" d="M54 71.5L1000 71.5"/>
	<path fill="none" stroke="black" stroke-width="1" stroke-miterlimit="10" stroke-opacity="0.10196079" d="M45.080002 71.5L53 71.5"/>
	<path fill="#666" transform="matrix(0 -1 1 0 11.2 410.2)" d="M-21.591797 -0.11230469Q-21.591797 1.1650391 -22.089844 2.1230469Q-22.587891 3.0810547 -23.501953 3.5908203Q-24.416016 4.1005859 -25.611328 4.1005859L-28.699219 4.1005859L-28.699219 -4.1552734L-25.96875 -4.1552734Q-23.871094 -4.1552734 -22.731445 -3.1035156Q-21.591797 -2.0517578 -21.591797 -0.11230469ZM-22.716797 -0.11230469Q-22.716797 -1.6474609 -23.557617 -2.453125Q-24.398438 -3.2587891 -25.992188 -3.2587891L-27.580078 -3.2587891L-27.580078 3.2041016L-25.740234 3.2041016Q-24.832031 3.2041016 -24.143555 2.8056641Q-23.455078 2.4072266 -23.085938 1.6572266Q-22.716797 0.90722656 -22.716797 -0.11230469ZM-14.847656 0.92480469Q-14.847656 2.5888672 -15.580078 3.4033203Q-16.3125 4.2177734 -17.707031 4.2177734Q-19.095703 4.2177734 -19.804688 3.3710938Q-20.513672 2.5244141 -20.513672 0.92480469Q-20.513672 -2.3564453 -17.671875 -2.3564453Q-16.21875 -2.3564453 -15.533203 -1.5566406Q-14.847656 -0.75683594 -14.847656 0.92480469ZM-15.955078 0.92480469Q-15.955078 -0.38769531 -16.344727 -0.98242188Q-16.734375 -1.5771484 -17.654297 -1.5771484Q-18.580078 -1.5771484 -18.993164 -0.97070312Q-19.40625 -0.36425781 -19.40625 0.92480469Q-19.40625 2.1787109 -18.999023 2.8085938Q-18.591797 3.4384766 -17.71875 3.4384766Q-16.769531 3.4384766 -16.362305 2.8291016Q-15.955078 2.2197266 -15.955078 0.92480469ZM-7.4648438 4.1005859L-8.6894531 4.1005859L-9.796875 -0.38183594L-10.007812 -1.3720703Q-10.060547 -1.1083984 -10.171875 -0.61328125Q-10.283203 -0.11816406 -11.367188 4.1005859L-12.585938 4.1005859L-14.361328 -2.2392578L-13.318359 -2.2392578L-12.246094 2.0673828Q-12.205078 2.2080078 -11.994141 3.2275391L-11.894531 2.7939453L-10.570312 -2.2392578L-9.4394531 -2.2392578L-8.3320312 2.1142578L-8.0625 3.2275391L-7.8808594 2.4130859L-6.6796875 -2.2392578L-5.6484375 -2.2392578L-7.4648438 4.1005859ZM-0.84375 4.1005859L-0.84375 0.081054688Q-0.84375 -0.54589844 -0.96679688 -0.89160156Q-1.0898438 -1.2373047 -1.359375 -1.3896484Q-1.6289062 -1.5419922 -2.1503906 -1.5419922Q-2.9121094 -1.5419922 -3.3515625 -1.0205078Q-3.7910156 -0.49902344 -3.7910156 0.42675781L-3.7910156 4.1005859L-4.8457031 4.1005859L-4.8457031 -0.88574219Q-4.8457031 -1.9931641 -4.8808594 -2.2392578L-3.8847656 -2.2392578Q-3.8789062 -2.2099609 -3.8730469 -2.0810547Q-3.8671875 -1.9521484 -3.8583984 -1.7851562Q-3.8496094 -1.6181641 -3.8378906 -1.1552734L-3.8203125 -1.1552734Q-3.4570312 -1.8115234 -2.9794922 -2.0839844Q-2.5019531 -2.3564453 -1.7929688 -2.3564453Q-0.75 -2.3564453 -0.26660156 -1.8378906Q0.21679688 -1.3193359 0.21679688 -0.12402344L0.21679688 4.1005859L-0.84375 4.1005859ZM1.8046875 4.1005859L1.8046875 -4.5947266L2.859375 -4.5947266L2.859375 4.1005859L1.8046875 4.1005859ZM9.8320312 0.92480469Q9.8320312 2.5888672 9.0996094 3.4033203Q8.3671875 4.2177734 6.9726562 4.2177734Q5.5839844 4.2177734 4.875 3.3710938Q4.1660156 2.5244141 4.1660156 0.92480469Q4.1660156 -2.3564453 7.0078125 -2.3564453Q8.4609375 -2.3564453 9.1464844 -1.5566406Q9.8320312 -0.75683594 9.8320312 0.92480469ZM8.7246094 0.92480469Q8.7246094 -0.38769531 8.3349609 -0.98242188Q7.9453125 -1.5771484 7.0253906 -1.5771484Q6.0996094 -1.5771484 5.6865234 -0.97070312Q5.2734375 -0.36425781 5.2734375 0.92480469Q5.2734375 2.1787109 5.6806641 2.8085938Q6.0878906 3.4384766 6.9609375 3.4384766Q7.9101562 3.4384766 8.3173828 2.8291016Q8.7246094 2.2197266 8.7246094 0.92480469ZM12.761719 4.2177734Q11.806641 4.2177734 11.326172 3.7138672Q10.845703 3.2099609 10.845703 2.3310547Q10.845703 1.3466797 11.493164 0.81933594Q12.140625 0.29199219 13.582031 0.25683594L15.005859 0.23339844L15.005859 -0.11230469Q15.005859 -0.88574219 14.677734 -1.2197266Q14.349609 -1.5537109 13.646484 -1.5537109Q12.9375 -1.5537109 12.615234 -1.3134766Q12.292969 -1.0732422 12.228516 -0.54589844L11.126953 -0.64550781Q11.396484 -2.3564453 13.669922 -2.3564453Q14.865234 -2.3564453 15.46875 -1.8085938Q16.072266 -1.2607422 16.072266 -0.22363281L16.072266 2.5068359Q16.072266 2.9755859 16.195312 3.2128906Q16.318359 3.4501953 16.664062 3.4501953Q16.816406 3.4501953 17.009766 3.4091797L17.009766 4.0654297Q16.611328 4.1591797 16.195312 4.1591797Q15.609375 4.1591797 15.342773 3.8515625Q15.076172 3.5439453 15.041016 2.8876953L15.005859 2.8876953Q14.601562 3.6142578 14.06543 3.9160156Q13.529297 4.2177734 12.761719 4.2177734ZM13.001953 3.4267578Q13.582031 3.4267578 14.033203 3.1630859Q14.484375 2.8994141 14.745117 2.4394531Q15.005859 1.9794922 15.005859 1.4931641L15.005859 0.97167969L13.851562 0.99511719Q13.107422 1.0068359 12.723633 1.1474609Q12.339844 1.2880859 12.134766 1.5810547Q11.929688 1.8740234 11.929688 2.3486328Q11.929688 2.8642578 12.208008 3.1455078Q12.486328 3.4267578 13.001953 3.4267578ZM21.820312 3.0810547Q21.527344 3.6904297 21.043945 3.9541016Q20.560547 4.2177734 19.845703 4.2177734Q18.644531 4.2177734 18.079102 3.4091797Q17.513672 2.6005859 17.513672 0.95996094Q17.513672 -2.3564453 19.845703 -2.3564453Q20.566406 -2.3564453 21.046875 -2.0927734Q21.527344 -1.8291016 21.820312 -1.2548828L21.832031 -1.2548828L21.820312 -1.9638672L21.820312 -4.5947266L22.875 -4.5947266L22.875 2.7939453Q22.875 3.7841797 22.910156 4.1005859L21.902344 4.1005859Q21.884766 4.0068359 21.864258 3.6669922Q21.84375 3.3271484 21.84375 3.0810547L21.820312 3.0810547ZM18.621094 0.92480469Q18.621094 2.2548828 18.972656 2.8291016Q19.324219 3.4033203 20.115234 3.4033203Q21.011719 3.4033203 21.416016 2.7822266Q21.820312 2.1611328 21.820312 0.85449219Q21.820312 -0.40527344 21.416016 -0.99121094Q21.011719 -1.5771484 20.126953 -1.5771484Q19.330078 -1.5771484 18.975586 -0.98828125Q18.621094 -0.39941406 18.621094 0.92480469ZM29.25 2.3486328Q29.25 3.2451172 28.573242 3.7314453Q27.896484 4.2177734 26.677734 4.2177734Q25.494141 4.2177734 24.852539 3.828125Q24.210938 3.4384766 24.017578 2.6123047L24.949219 2.4306641Q25.083984 2.9404297 25.505859 3.1777344Q25.927734 3.4150391 26.677734 3.4150391Q27.480469 3.4150391 27.852539 3.1689453Q28.224609 2.9228516 28.224609 2.4306641Q28.224609 2.0556641 27.966797 1.8212891Q27.708984 1.5869141 27.134766 1.4345703L26.378906 1.2353516Q25.470703 1.0009766 25.086914 0.77539062Q24.703125 0.54980469 24.486328 0.22753906Q24.269531 -0.094726562 24.269531 -0.56347656Q24.269531 -1.4306641 24.887695 -1.8847656Q25.505859 -2.3388672 26.689453 -2.3388672Q27.738281 -2.3388672 28.356445 -1.9697266Q28.974609 -1.6005859 29.138672 -0.78613281L28.189453 -0.66894531Q28.101562 -1.0908203 27.717773 -1.3164062Q27.333984 -1.5419922 26.689453 -1.5419922Q25.974609 -1.5419922 25.634766 -1.3251953Q25.294922 -1.1083984 25.294922 -0.66894531Q25.294922 -0.39941406 25.435547 -0.22363281Q25.576172 -0.047851562 25.851562 0.075195312Q26.126953 0.19824219 27.011719 0.41503906Q27.849609 0.62597656 28.21875 0.8046875Q28.587891 0.98339844 28.801758 1.2001953Q29.015625 1.4169922 29.132812 1.7011719Q29.25 1.9853516 29.25 2.3486328Z"/>
	<clipPath id="cl_4a6">
		<rect y="39.200001" width="1000" height="31.999996"/>
	</clipPath>
	<g clip-path="url(#cl_4a6)">
		<path fill="#36A2EB" fill-opacity="0.80000001" d="M339.92999 49.200001L379.92999 49.200001L379.92999 61.200001L339.92999 61.200001L339.92999 49.200001Z"/>
		<path fill="none" stroke="#36A2EB" stroke-width="1" stroke-miterlimit="10" d="M339.92999 49.200001L379.92999 49.200001L379.92999 61.200001L339.92999 61.200001L339.92999 49.200001Z"/>
	</g>
	<clipPath id="cl_4a7">
		<rect y="39.200001" width="1000" height="31.999996"/>
	</clipPath>
	<g clip-path="url(#cl_4a7)">
		<path fill="#666" d="M391.4964 57.548634Q391.4964 58.445118 390.81964 58.931446Q390.14288 59.417774 388.92413 59.417774Q387.74054 59.417774 387.09894 59.028126Q386.45734 58.638477 386.26398 57.812305L387.19562 57.630665Q387.33038 58.14043 387.75226 58.377735Q388.17413 58.61504 388.92413 58.61504Q389.72687 58.61504 390.09894 58.368946Q390.47101 58.122852 390.47101 57.630665Q390.47101 57.255665 390.2132 57.02129Q389.95538 56.786915 389.38116 56.634571L388.62531 56.435352Q387.7171 56.200977 387.33331 55.975391Q386.94952 55.749805 386.73273 55.42754Q386.51593 55.105274 386.51593 54.636524Q386.51593 53.769337 387.13409 53.315235Q387.75226 52.861134 388.93585 52.861134Q389.98468 52.861134 390.60284 53.230274Q391.22101 53.599415 391.38507 54.413868L390.43585 54.531055Q390.34796 54.10918 389.96417 53.883595Q389.58038 53.658009 388.93585 53.658009Q388.22101 53.658009 387.88116 53.874805Q387.54132 54.091602 387.54132 54.531055Q387.54132 54.800587 387.68195 54.976368Q387.82257 55.152149 388.09796 55.275196Q388.37335 55.398243 389.25812 55.61504Q390.09601 55.825977 390.46515 56.004688Q390.83429 56.183399 391.04816 56.400196Q391.26202 56.616993 391.37921 56.901173Q391.4964 57.185352 391.4964 57.548634ZM394.35577 59.417774Q393.4007 59.417774 392.92023 58.913868Q392.43976 58.409962 392.43976 57.531055Q392.43976 56.54668 393.08722 56.019337Q393.73468 55.491993 395.17609 55.456837L396.59991 55.433399L396.59991 55.087696Q396.59991 54.314259 396.27179 53.980274Q395.94366 53.64629 395.24054 53.64629Q394.53156 53.64629 394.20929 53.886524Q393.88702 54.126759 393.82257 54.654102L392.72101 54.554493Q392.99054 52.843555 395.26398 52.843555Q396.45929 52.843555 397.06281 53.391407Q397.66632 53.939259 397.66632 54.976368L397.66632 57.706837Q397.66632 58.175587 397.78937 58.412891Q397.91241 58.650196 398.25812 58.650196Q398.41046 58.650196 398.60382 58.60918L398.60382 59.26543Q398.20538 59.35918 397.78937 59.35918Q397.20343 59.35918 396.93683 59.051563Q396.67023 58.743946 396.63507 58.087696L396.59991 58.087696Q396.19562 58.814259 395.65948 59.116016Q395.12335 59.417774 394.35577 59.417774ZM394.59601 58.626759Q395.17609 58.626759 395.62726 58.363087Q396.07843 58.099415 396.33917 57.639454Q396.59991 57.179493 396.59991 56.693165L396.59991 56.17168L395.44562 56.195118Q394.70148 56.206837 394.31769 56.347462Q393.9339 56.488087 393.72882 56.781055Q393.52374 57.074024 393.52374 57.548634Q393.52374 58.064259 393.80206 58.345509Q394.08038 58.626759 394.59601 58.626759ZM399.40656 51.613087L399.40656 50.605274L400.46124 50.605274L400.46124 51.613087L399.40656 51.613087ZM399.40656 59.300587L399.40656 52.960743L400.46124 52.960743L400.46124 59.300587L399.40656 59.300587ZM402.07843 59.300587L402.07843 50.605274L403.13312 50.605274L403.13312 59.300587L402.07843 59.300587ZM410.10577 56.101368Q410.10577 59.417774 407.77374 59.417774Q406.3089 59.417774 405.80499 58.316212L405.7757 58.316212Q405.79913 58.363087 405.79913 59.312305L405.79913 61.790821L404.74445 61.790821L404.74445 54.255665Q404.74445 53.277149 404.70929 52.960743L405.72882 52.960743Q405.73468 52.98418 405.7464 53.127735Q405.75812 53.27129 405.77277 53.570118Q405.78741 53.868946 405.78741 53.980274L405.81085 53.980274Q406.0921 53.394337 406.55499 53.121876Q407.01788 52.849415 407.77374 52.849415Q408.94562 52.849415 409.5257 53.634571Q410.10577 54.419727 410.10577 56.101368ZM408.99835 56.124805Q408.99835 54.800587 408.64093 54.232227Q408.28351 53.663868 407.50421 53.663868Q406.87726 53.663868 406.52277 53.92754Q406.16827 54.191212 405.9837 54.750782Q405.79913 55.310352 405.79913 56.206837Q405.79913 57.454884 406.19757 58.04668Q406.59601 58.638477 407.49249 58.638477Q408.27765 58.638477 408.638 58.061329Q408.99835 57.48418 408.99835 56.124805ZM416.7796 56.124805Q416.7796 57.788868 416.04718 58.603321Q415.31476 59.417774 413.92023 59.417774Q412.53156 59.417774 411.82257 58.571095Q411.11359 57.724415 411.11359 56.124805Q411.11359 52.843555 413.95538 52.843555Q415.40851 52.843555 416.09406 53.64336Q416.7796 54.443165 416.7796 56.124805ZM415.67218 56.124805Q415.67218 54.812305 415.28253 54.217579Q414.89288 53.622852 413.97296 53.622852Q413.04718 53.622852 412.63409 54.229298Q412.22101 54.835743 412.22101 56.124805Q412.22101 57.378712 412.62823 58.008595Q413.03546 58.638477 413.90851 58.638477Q414.85773 58.638477 415.26495 58.029102Q415.67218 57.419727 415.67218 56.124805ZM418.08624 51.613087L418.08624 50.605274L419.14093 50.605274L419.14093 51.613087L418.08624 51.613087ZM418.08624 59.300587L418.08624 52.960743L419.14093 52.960743L419.14093 59.300587L418.08624 59.300587ZM424.78351 59.300587L424.78351 55.281055Q424.78351 54.654102 424.66046 54.308399Q424.53741 53.962696 424.26788 53.810352Q423.99835 53.658009 423.47687 53.658009Q422.71515 53.658009 422.2757 54.179493Q421.83624 54.700977 421.83624 55.626759L421.83624 59.300587L420.78156 59.300587L420.78156 54.314259Q420.78156 53.206837 420.7464 52.960743L421.74249 52.960743Q421.74835 52.99004 421.75421 53.118946Q421.76007 53.247852 421.76886 53.414845Q421.77765 53.581837 421.78937 54.044727L421.80695 54.044727Q422.17023 53.388477 422.64777 53.116016Q423.12531 52.843555 423.83429 52.843555Q424.87726 52.843555 425.36066 53.36211Q425.84406 53.880665 425.84406 55.075977L425.84406 59.300587L424.78351 59.300587ZM429.86945 59.253712Q429.34796 59.394337 428.80304 59.394337Q427.53741 59.394337 427.53741 57.95879L427.53741 53.728321L426.80499 53.728321L426.80499 52.960743L427.57843 52.960743L427.88898 51.542774L428.5921 51.542774L428.5921 52.960743L429.76398 52.960743L429.76398 53.728321L428.5921 53.728321L428.5921 57.730274Q428.5921 58.187305 428.74152 58.371876Q428.89093 58.556446 429.26007 58.556446Q429.47101 58.556446 429.86945 58.474415L429.86945 59.253712ZM430.49054 56.581837L430.49054 55.644337L433.42023 55.644337L433.42023 56.581837L430.49054 56.581837ZM440.12335 56.124805Q440.12335 57.788868 439.39093 58.603321Q438.65851 59.417774 437.26398 59.417774Q435.87531 59.417774 435.16632 58.571095Q434.45734 57.724415 434.45734 56.124805Q434.45734 52.843555 437.29913 52.843555Q438.75226 52.843555 439.43781 53.64336Q440.12335 54.443165 440.12335 56.124805ZM439.01593 56.124805Q439.01593 54.812305 438.62628 54.217579Q438.23663 53.622852 437.31671 53.622852Q436.39093 53.622852 435.97784 54.229298Q435.56476 54.835743 435.56476 56.124805Q435.56476 57.378712 435.97198 58.008595Q436.37921 58.638477 437.25226 58.638477Q438.20148 58.638477 438.6087 58.029102Q439.01593 57.419727 439.01593 56.124805ZM446.19366 57.548634Q446.19366 58.445118 445.51691 58.931446Q444.84015 59.417774 443.6214 59.417774Q442.43781 59.417774 441.7962 59.028126Q441.1546 58.638477 440.96124 57.812305L441.89288 57.630665Q442.02765 58.14043 442.44952 58.377735Q442.8714 58.61504 443.6214 58.61504Q444.42413 58.61504 444.7962 58.368946Q445.16827 58.122852 445.16827 57.630665Q445.16827 57.255665 444.91046 57.02129Q444.65265 56.786915 444.07843 56.634571L443.32257 56.435352Q442.41437 56.200977 442.03058 55.975391Q441.64679 55.749805 441.42999 55.42754Q441.2132 55.105274 441.2132 54.636524Q441.2132 53.769337 441.83136 53.315235Q442.44952 52.861134 443.63312 52.861134Q444.68195 52.861134 445.30011 53.230274Q445.91827 53.599415 446.08234 54.413868L445.13312 54.531055Q445.04523 54.10918 444.66144 53.883595Q444.27765 53.658009 443.63312 53.658009Q442.91827 53.658009 442.57843 53.874805Q442.23859 54.091602 442.23859 54.531055Q442.23859 54.800587 442.37921 54.976368Q442.51984 55.152149 442.79523 55.275196Q443.07062 55.398243 443.95538 55.61504Q444.79327 55.825977 445.16241 56.004688Q445.53156 56.183399 445.74542 56.400196Q445.95929 56.616993 446.07648 56.901173Q446.19366 57.185352 446.19366 57.548634ZM452.19366 57.548634Q452.19366 58.445118 451.51691 58.931446Q450.84015 59.417774 449.6214 59.417774Q448.43781 59.417774 447.7962 59.028126Q447.1546 58.638477 446.96124 57.812305L447.89288 57.630665Q448.02765 58.14043 448.44952 58.377735Q448.8714 58.61504 449.6214 58.61504Q450.42413 58.61504 450.7962 58.368946Q451.16827 58.122852 451.16827 57.630665Q451.16827 57.255665 450.91046 57.02129Q450.65265 56.786915 450.07843 56.634571L449.32257 56.435352Q448.41437 56.200977 448.03058 55.975391Q447.64679 55.749805 447.42999 55.42754Q447.2132 55.105274 447.2132 54.636524Q447.2132 53.769337 447.83136 53.315235Q448.44952 52.861134 449.63312 52.861134Q450.68195 52.861134 451.30011 53.230274Q451.91827 53.599415 452.08234 54.413868L451.13312 54.531055Q451.04523 54.10918 450.66144 53.883595Q450.27765 53.658009 449.63312 53.658009Q448.91827 53.658009 448.57843 53.874805Q448.23859 54.091602 448.23859 54.531055Q448.23859 54.800587 448.37921 54.976368Q448.51984 55.152149 448.79523 55.275196Q449.07062 55.398243 449.95538 55.61504Q450.79327 55.825977 451.16241 56.004688Q451.53156 56.183399 451.74542 56.400196Q451.95929 56.616993 452.07648 56.901173Q452.19366 57.185352 452.19366 57.548634ZM452.62726 59.417774L455.03546 50.605274L455.96124 50.605274L453.57648 59.417774L452.62726 59.417774ZM457.57257 56.101368Q457.57257 57.366993 457.97101 57.976368Q458.36945 58.585743 459.17218 58.585743Q459.73468 58.585743 460.11261 58.281055Q460.49054 57.976368 460.57843 57.343555L461.64484 57.413868Q461.52179 58.32793 460.86554 58.872852Q460.20929 59.417774 459.20148 59.417774Q457.8714 59.417774 457.1712 58.576954Q456.47101 57.736134 456.47101 56.124805Q456.47101 54.525196 457.17413 53.684376Q457.87726 52.843555 459.18976 52.843555Q460.16241 52.843555 460.80402 53.347462Q461.44562 53.851368 461.60968 54.736134L460.5257 54.818165Q460.44366 54.290821 460.10968 53.980274Q459.7757 53.669727 459.16046 53.669727Q458.32257 53.669727 457.94757 54.226368Q457.57257 54.783009 457.57257 56.101368ZM468.13116 56.124805Q468.13116 57.788868 467.39874 58.603321Q466.66632 59.417774 465.27179 59.417774Q463.88312 59.417774 463.17413 58.571095Q462.46515 57.724415 462.46515 56.124805Q462.46515 52.843555 465.30695 52.843555Q466.76007 52.843555 467.44562 53.64336Q468.13116 54.443165 468.13116 56.124805ZM467.02374 56.124805Q467.02374 54.812305 466.63409 54.217579Q466.24445 53.622852 465.32452 53.622852Q464.39874 53.622852 463.98566 54.229298Q463.57257 54.835743 463.57257 56.124805Q463.57257 57.378712 463.9798 58.008595Q464.38702 58.638477 465.26007 58.638477Q466.20929 58.638477 466.61652 58.029102Q467.02374 57.419727 467.02374 56.124805ZM469.44366 59.300587L469.44366 50.605274L470.49835 50.605274L470.49835 59.300587L469.44366 59.300587ZM473.72687 59.417774Q472.77179 59.417774 472.29132 58.913868Q471.81085 58.409962 471.81085 57.531055Q471.81085 56.54668 472.45831 56.019337Q473.10577 55.491993 474.54718 55.456837L475.97101 55.433399L475.97101 55.087696Q475.97101 54.314259 475.64288 53.980274Q475.31476 53.64629 474.61163 53.64629Q473.90265 53.64629 473.58038 53.886524Q473.25812 54.126759 473.19366 54.654102L472.0921 54.554493Q472.36163 52.843555 474.63507 52.843555Q475.83038 52.843555 476.4339 53.391407Q477.03741 53.939259 477.03741 54.976368L477.03741 57.706837Q477.03741 58.175587 477.16046 58.412891Q477.28351 58.650196 477.62921 58.650196Q477.78156 58.650196 477.97491 58.60918L477.97491 59.26543Q477.57648 59.35918 477.16046 59.35918Q476.57452 59.35918 476.30792 59.051563Q476.04132 58.743946 476.00616 58.087696L475.97101 58.087696Q475.56671 58.814259 475.03058 59.116016Q474.49445 59.417774 473.72687 59.417774ZM473.9671 58.626759Q474.54718 58.626759 474.99835 58.363087Q475.44952 58.099415 475.71027 57.639454Q475.97101 57.179493 475.97101 56.693165L475.97101 56.17168L474.81671 56.195118Q474.07257 56.206837 473.68878 56.347462Q473.30499 56.488087 473.09991 56.781055Q472.89484 57.074024 472.89484 57.548634Q472.89484 58.064259 473.17316 58.345509Q473.45148 58.626759 473.9671 58.626759ZM484.14484 56.101368Q484.14484 59.417774 481.81281 59.417774Q481.0921 59.417774 480.61456 59.157032Q480.13702 58.89629 479.8382 58.316212L479.82648 58.316212Q479.82648 58.497852 479.80304 58.869923Q479.7796 59.241993 479.76788 59.300587L478.74835 59.300587Q478.78351 58.98418 478.78351 57.993946L478.78351 50.605274L479.8382 50.605274L479.8382 53.08379Q479.8382 53.464649 479.81476 53.980274L479.8382 53.980274Q480.13116 53.370899 480.61456 53.107227Q481.09796 52.843555 481.81281 52.843555Q483.01398 52.843555 483.57941 53.652149Q484.14484 54.460743 484.14484 56.101368ZM483.03741 56.136524Q483.03741 54.806446 482.68585 54.232227Q482.33429 53.658009 481.54327 53.658009Q480.65265 53.658009 480.24542 54.267384Q479.8382 54.876759 479.8382 56.200977Q479.8382 57.449024 480.23663 58.043751Q480.63507 58.638477 481.53156 58.638477Q482.32843 58.638477 482.68292 58.04961Q483.03741 57.460743 483.03741 56.136524ZM485.18195 56.581837L485.18195 55.644337L488.11163 55.644337L488.11163 56.581837L485.18195 56.581837ZM494.21124 57.548634Q494.21124 58.445118 493.53448 58.931446Q492.85773 59.417774 491.63898 59.417774Q490.45538 59.417774 489.81378 59.028126Q489.17218 58.638477 488.97882 57.812305L489.91046 57.630665Q490.04523 58.14043 490.4671 58.377735Q490.88898 58.61504 491.63898 58.61504Q492.44171 58.61504 492.81378 58.368946Q493.18585 58.122852 493.18585 57.630665Q493.18585 57.255665 492.92804 57.02129Q492.67023 56.786915 492.09601 56.634571L491.34015 56.435352Q490.43195 56.200977 490.04816 55.975391Q489.66437 55.749805 489.44757 55.42754Q489.23077 55.105274 489.23077 54.636524Q489.23077 53.769337 489.84894 53.315235Q490.4671 52.861134 491.6507 52.861134Q492.69952 52.861134 493.31769 53.230274Q493.93585 53.599415 494.09991 54.413868L493.1507 54.531055Q493.06281 54.10918 492.67902 53.883595Q492.29523 53.658009 491.6507 53.658009Q490.93585 53.658009 490.59601 53.874805Q490.25616 54.091602 490.25616 54.531055Q490.25616 54.800587 490.39679 54.976368Q490.53741 55.152149 490.81281 55.275196Q491.0882 55.398243 491.97296 55.61504Q492.81085 55.825977 493.17999 56.004688Q493.54913 56.183399 493.763 56.400196Q493.97687 56.616993 494.09406 56.901173Q494.21124 57.185352 494.21124 57.548634ZM495.44757 51.613087L495.44757 50.605274L496.50226 50.605274L496.50226 51.613087L495.44757 51.613087ZM495.44757 59.300587L495.44757 52.960743L496.50226 52.960743L496.50226 59.300587L495.44757 59.300587ZM498.92804 56.353321Q498.92804 57.443165 499.37921 58.034962Q499.83038 58.626759 500.69757 58.626759Q501.38312 58.626759 501.7962 58.351368Q502.20929 58.075977 502.35577 57.654102L503.28156 57.917774Q502.7132 59.417774 500.69757 59.417774Q499.29132 59.417774 498.55597 58.579884Q497.82062 57.741993 497.82062 56.089649Q497.82062 54.519337 498.55597 53.681446Q499.29132 52.843555 500.65656 52.843555Q503.45148 52.843555 503.45148 56.212696L503.45148 56.353321L498.92804 56.353321ZM502.36163 55.544727Q502.27374 54.542774 501.85187 54.082813Q501.42999 53.622852 500.63898 53.622852Q499.8714 53.622852 499.42316 54.135548Q498.97491 54.648243 498.93976 55.544727L502.36163 55.544727ZM508.48468 59.300587L508.48468 55.281055Q508.48468 54.361134 508.23273 54.009571Q507.98077 53.658009 507.32452 53.658009Q506.6507 53.658009 506.25812 54.173634Q505.86554 54.689259 505.86554 55.626759L505.86554 59.300587L504.81671 59.300587L504.81671 54.314259Q504.81671 53.206837 504.78156 52.960743L505.77765 52.960743Q505.78351 52.99004 505.78937 53.118946Q505.79523 53.247852 505.80402 53.414845Q505.81281 53.581837 505.82452 54.044727L505.8421 54.044727Q506.18195 53.370899 506.6214 53.107227Q507.06085 52.843555 507.69366 52.843555Q508.41437 52.843555 508.83331 53.130665Q509.25226 53.417774 509.41632 54.044727L509.4339 54.044727Q509.76202 53.406055 510.22784 53.124805Q510.69366 52.843555 511.35577 52.843555Q512.31671 52.843555 512.75323 53.36504Q513.18976 53.886524 513.18976 55.075977L513.18976 59.300587L512.14679 59.300587L512.14679 55.281055Q512.14679 54.361134 511.89484 54.009571Q511.64288 53.658009 510.98663 53.658009Q510.29523 53.658009 509.91144 54.170704Q509.52765 54.683399 509.52765 55.626759L509.52765 59.300587L508.48468 59.300587ZM514.51398 56.581837L514.51398 55.644337L517.44366 55.644337L517.44366 56.581837L514.51398 56.581837ZM524.14679 56.101368Q524.14679 59.417774 521.81476 59.417774Q520.34991 59.417774 519.84601 58.316212L519.81671 58.316212Q519.84015 58.363087 519.84015 59.312305L519.84015 61.790821L518.78546 61.790821L518.78546 54.255665Q518.78546 53.277149 518.75031 52.960743L519.76984 52.960743Q519.7757 52.98418 519.78741 53.127735Q519.79913 53.27129 519.81378 53.570118Q519.82843 53.868946 519.82843 53.980274L519.85187 53.980274Q520.13312 53.394337 520.59601 53.121876Q521.0589 52.849415 521.81476 52.849415Q522.98663 52.849415 523.56671 53.634571Q524.14679 54.419727 524.14679 56.101368ZM523.03937 56.124805Q523.03937 54.800587 522.68195 54.232227Q522.32452 53.663868 521.54523 53.663868Q520.91827 53.663868 520.56378 53.92754Q520.20929 54.191212 520.02472 54.750782Q519.84015 55.310352 519.84015 56.206837Q519.84015 57.454884 520.23859 58.04668Q520.63702 58.638477 521.53351 58.638477Q522.31866 58.638477 522.67902 58.061329Q523.03937 57.48418 523.03937 56.124805ZM525.45929 59.300587L525.45929 50.605274L526.51398 50.605274L526.51398 59.300587L525.45929 59.300587ZM529.15656 52.960743L529.15656 56.980274Q529.15656 57.607227 529.2796 57.95293Q529.40265 58.298634 529.67218 58.450977Q529.94171 58.603321 530.4632 58.603321Q531.22491 58.603321 531.66437 58.081837Q532.10382 57.560352 532.10382 56.634571L532.10382 52.960743L533.15851 52.960743L533.15851 57.947071Q533.15851 59.054493 533.19366 59.300587L532.19757 59.300587Q532.19171 59.27129 532.18585 59.142384Q532.17999 59.013477 532.1712 58.846485Q532.16241 58.679493 532.1507 58.216602L532.13312 58.216602Q531.76984 58.872852 531.2923 59.145313Q530.81476 59.417774 530.10577 59.417774Q529.06281 59.417774 528.57941 58.89922Q528.09601 58.380665 528.09601 57.185352L528.09601 52.960743L529.15656 52.960743ZM537.20148 61.790821Q536.16437 61.790821 535.54913 61.383595Q534.9339 60.976368 534.75812 60.226368L535.81866 60.074024Q535.92413 60.513477 536.28448 60.750782Q536.64484 60.988087 537.23077 60.988087Q538.80695 60.988087 538.80695 59.142384L538.80695 58.122852L538.79523 58.122852Q538.4964 58.732227 537.97491 59.039845Q537.45343 59.347462 536.75616 59.347462Q535.59015 59.347462 535.0423 58.574024Q534.49445 57.800587 534.49445 56.142384Q534.49445 54.460743 535.08331 53.660938Q535.67218 52.861134 536.87335 52.861134Q537.54718 52.861134 538.0423 53.168751Q538.53741 53.476368 538.80695 54.044727L538.81866 54.044727Q538.81866 53.868946 538.8421 53.435352Q538.86554 53.001759 538.88898 52.960743L539.89093 52.960743Q539.85577 53.277149 539.85577 54.273243L539.85577 59.118946Q539.85577 61.790821 537.20148 61.790821ZM538.80695 56.130665Q538.80695 55.357227 538.59601 54.797657Q538.38507 54.238087 538.00128 53.942188Q537.61749 53.64629 537.13116 53.64629Q536.32257 53.64629 535.95343 54.232227Q535.58429 54.818165 535.58429 56.130665Q535.58429 57.431446 535.92999 57.999805Q536.2757 58.568165 537.11359 58.568165Q537.61163 58.568165 537.99835 58.275196Q538.38507 57.982227 538.59601 57.434376Q538.80695 56.886524 538.80695 56.130665ZM541.4671 51.613087L541.4671 50.605274L542.52179 50.605274L542.52179 51.613087L541.4671 51.613087ZM541.4671 59.300587L541.4671 52.960743L542.52179 52.960743L542.52179 59.300587L541.4671 59.300587ZM548.16437 59.300587L548.16437 55.281055Q548.16437 54.654102 548.04132 54.308399Q547.91827 53.962696 547.64874 53.810352Q547.37921 53.658009 546.85773 53.658009Q546.09601 53.658009 545.65656 54.179493Q545.2171 54.700977 545.2171 55.626759L545.2171 59.300587L544.16241 59.300587L544.16241 54.314259Q544.16241 53.206837 544.12726 52.960743L545.12335 52.960743Q545.12921 52.99004 545.13507 53.118946Q545.14093 53.247852 545.14972 53.414845Q545.15851 53.581837 545.17023 54.044727L545.18781 54.044727Q545.55109 53.388477 546.02863 53.116016Q546.50616 52.843555 547.21515 52.843555Q548.25812 52.843555 548.74152 53.36211Q549.22491 53.880665 549.22491 55.075977L549.22491 59.300587L548.16437 59.300587ZM560.15851 59.300587L558.01398 55.872852L555.44171 55.872852L555.44171 59.300587L554.32257 59.300587L554.32257 51.044727L558.20734 51.044727Q559.60187 51.044727 560.36066 51.668751Q561.11945 52.292774 561.11945 53.406055Q561.11945 54.325977 560.58331 54.95293Q560.04718 55.579884 559.10382 55.743946L561.44757 59.300587L560.15851 59.300587ZM559.99445 53.417774Q559.99445 52.697071 559.50519 52.319141Q559.01593 51.941212 558.09601 51.941212L555.44171 51.941212L555.44171 54.988087L558.14288 54.988087Q559.02765 54.988087 559.51105 54.575001Q559.99445 54.161915 559.99445 53.417774ZM563.6214 56.353321Q563.6214 57.443165 564.07257 58.034962Q564.52374 58.626759 565.39093 58.626759Q566.07648 58.626759 566.48956 58.351368Q566.90265 58.075977 567.04913 57.654102L567.97491 57.917774Q567.40656 59.417774 565.39093 59.417774Q563.98468 59.417774 563.24933 58.579884Q562.51398 57.741993 562.51398 56.089649Q562.51398 54.519337 563.24933 53.681446Q563.98468 52.843555 565.34991 52.843555Q568.14484 52.843555 568.14484 56.212696L568.14484 56.353321L563.6214 56.353321ZM567.05499 55.544727Q566.9671 54.542774 566.54523 54.082813Q566.12335 53.622852 565.33234 53.622852Q564.56476 53.622852 564.11652 54.135548Q563.66827 54.648243 563.63312 55.544727L567.05499 55.544727ZM569.48663 59.300587L569.48663 50.605274L570.54132 50.605274L570.54132 59.300587L569.48663 59.300587ZM572.96124 56.353321Q572.96124 57.443165 573.41241 58.034962Q573.86359 58.626759 574.73077 58.626759Q575.41632 58.626759 575.82941 58.351368Q576.24249 58.075977 576.38898 57.654102L577.31476 57.917774Q576.7464 59.417774 574.73077 59.417774Q573.32452 59.417774 572.58917 58.579884Q571.85382 57.741993 571.85382 56.089649Q571.85382 54.519337 572.58917 53.681446Q573.32452 52.843555 574.68976 52.843555Q577.48468 52.843555 577.48468 56.212696L577.48468 56.353321L572.96124 56.353321ZM576.39484 55.544727Q576.30695 54.542774 575.88507 54.082813Q575.4632 53.622852 574.67218 53.622852Q573.9046 53.622852 573.45636 54.135548Q573.00812 54.648243 572.97296 55.544727L576.39484 55.544727ZM580.44366 59.417774Q579.48859 59.417774 579.00812 58.913868Q578.52765 58.409962 578.52765 57.531055Q578.52765 56.54668 579.17511 56.019337Q579.82257 55.491993 581.26398 55.456837L582.68781 55.433399L582.68781 55.087696Q582.68781 54.314259 582.35968 53.980274Q582.03156 53.64629 581.32843 53.64629Q580.61945 53.64629 580.29718 53.886524Q579.97491 54.126759 579.91046 54.654102L578.8089 54.554493Q579.07843 52.843555 581.35187 52.843555Q582.54718 52.843555 583.1507 53.391407Q583.75421 53.939259 583.75421 54.976368L583.75421 57.706837Q583.75421 58.175587 583.87726 58.412891Q584.00031 58.650196 584.34601 58.650196Q584.49835 58.650196 584.69171 58.60918L584.69171 59.26543Q584.29327 59.35918 583.87726 59.35918Q583.29132 59.35918 583.02472 59.051563Q582.75812 58.743946 582.72296 58.087696L582.68781 58.087696Q582.28351 58.814259 581.74738 59.116016Q581.21124 59.417774 580.44366 59.417774ZM580.6839 58.626759Q581.26398 58.626759 581.71515 58.363087Q582.16632 58.099415 582.42706 57.639454Q582.68781 57.179493 582.68781 56.693165L582.68781 56.17168L581.53351 56.195118Q580.78937 56.206837 580.40558 56.347462Q580.02179 56.488087 579.81671 56.781055Q579.61163 57.074024 579.61163 57.548634Q579.61163 58.064259 579.88995 58.345509Q580.16827 58.626759 580.6839 58.626759ZM590.25812 57.548634Q590.25812 58.445118 589.58136 58.931446Q588.9046 59.417774 587.68585 59.417774Q586.50226 59.417774 585.86066 59.028126Q585.21906 58.638477 585.0257 57.812305L585.95734 57.630665Q586.0921 58.14043 586.51398 58.377735Q586.93585 58.61504 587.68585 58.61504Q588.48859 58.61504 588.86066 58.368946Q589.23273 58.122852 589.23273 57.630665Q589.23273 57.255665 588.97491 57.02129Q588.7171 56.786915 588.14288 56.634571L587.38702 56.435352Q586.47882 56.200977 586.09503 55.975391Q585.71124 55.749805 585.49445 55.42754Q585.27765 55.105274 585.27765 54.636524Q585.27765 53.769337 585.89581 53.315235Q586.51398 52.861134 587.69757 52.861134Q588.7464 52.861134 589.36456 53.230274Q589.98273 53.599415 590.14679 54.413868L589.19757 54.531055Q589.10968 54.10918 588.72589 53.883595Q588.3421 53.658009 587.69757 53.658009Q586.98273 53.658009 586.64288 53.874805Q586.30304 54.091602 586.30304 54.531055Q586.30304 54.800587 586.44366 54.976368Q586.58429 55.152149 586.85968 55.275196Q587.13507 55.398243 588.01984 55.61504Q588.85773 55.825977 589.22687 56.004688Q589.59601 56.183399 589.80988 56.400196Q590.02374 56.616993 590.14093 56.901173Q590.25812 57.185352 590.25812 57.548634ZM592.3089 56.353321Q592.3089 57.443165 592.76007 58.034962Q593.21124 58.626759 594.07843 58.626759Q594.76398 58.626759 595.17706 58.351368Q595.59015 58.075977 595.73663 57.654102L596.66241 57.917774Q596.09406 59.417774 594.07843 59.417774Q592.67218 59.417774 591.93683 58.579884Q591.20148 57.741993 591.20148 56.089649Q591.20148 54.519337 591.93683 53.681446Q592.67218 52.843555 594.03741 52.843555Q596.83234 52.843555 596.83234 56.212696L596.83234 56.353321L592.3089 56.353321ZM595.74249 55.544727Q595.6546 54.542774 595.23273 54.082813Q594.81085 53.622852 594.01984 53.622852Q593.25226 53.622852 592.80402 54.135548Q592.35577 54.648243 592.32062 55.544727L595.74249 55.544727ZM608.79132 55.087696Q608.79132 56.36504 608.29327 57.323048Q607.79523 58.281055 606.88116 58.790821Q605.9671 59.300587 604.77179 59.300587L601.6839 59.300587L601.6839 51.044727L604.41437 51.044727Q606.51202 51.044727 607.65167 52.096485Q608.79132 53.148243 608.79132 55.087696ZM607.66632 55.087696Q607.66632 53.55254 606.8255 52.746876Q605.98468 51.941212 604.39093 51.941212L602.80304 51.941212L602.80304 58.404102L604.64288 58.404102Q605.55109 58.404102 606.23956 58.005665Q606.92804 57.607227 607.29718 56.857227Q607.66632 56.107227 607.66632 55.087696ZM615.53546 56.124805Q615.53546 57.788868 614.80304 58.603321Q614.07062 59.417774 612.67609 59.417774Q611.28741 59.417774 610.57843 58.571095Q609.86945 57.724415 609.86945 56.124805Q609.86945 52.843555 612.71124 52.843555Q614.16437 52.843555 614.84991 53.64336Q615.53546 54.443165 615.53546 56.124805ZM614.42804 56.124805Q614.42804 54.812305 614.03839 54.217579Q613.64874 53.622852 612.72882 53.622852Q611.80304 53.622852 611.38995 54.229298Q610.97687 54.835743 610.97687 56.124805Q610.97687 57.378712 611.38409 58.008595Q611.79132 58.638477 612.66437 58.638477Q613.61359 58.638477 614.02081 58.029102Q614.42804 57.419727 614.42804 56.124805ZM622.91827 59.300587L621.69366 59.300587L620.58624 54.818165L620.37531 53.82793Q620.32257 54.091602 620.21124 54.58672Q620.09991 55.081837 619.01593 59.300587L617.79718 59.300587L616.02179 52.960743L617.06476 52.960743L618.13702 57.267384Q618.17804 57.408009 618.38898 58.42754L618.48859 57.993946L619.81281 52.960743L620.94366 52.960743L622.05109 57.314259L622.32062 58.42754L622.50226 57.613087L623.70343 52.960743L624.73468 52.960743L622.91827 59.300587ZM629.53937 59.300587L629.53937 55.281055Q629.53937 54.654102 629.41632 54.308399Q629.29327 53.962696 629.02374 53.810352Q628.75421 53.658009 628.23273 53.658009Q627.47101 53.658009 627.03156 54.179493Q626.5921 54.700977 626.5921 55.626759L626.5921 59.300587L625.53741 59.300587L625.53741 54.314259Q625.53741 53.206837 625.50226 52.960743L626.49835 52.960743Q626.50421 52.99004 626.51007 53.118946Q626.51593 53.247852 626.52472 53.414845Q626.53351 53.581837 626.54523 54.044727L626.56281 54.044727Q626.92609 53.388477 627.40363 53.116016Q627.88116 52.843555 628.59015 52.843555Q629.63312 52.843555 630.11652 53.36211Q630.59991 53.880665 630.59991 55.075977L630.59991 59.300587L629.53937 59.300587ZM632.18781 59.300587L632.18781 50.605274L633.24249 50.605274L633.24249 59.300587L632.18781 59.300587ZM640.21515 56.124805Q640.21515 57.788868 639.48273 58.603321Q638.75031 59.417774 637.35577 59.417774Q635.9671 59.417774 635.25812 58.571095Q634.54913 57.724415 634.54913 56.124805Q634.54913 52.843555 637.39093 52.843555Q638.84406 52.843555 639.5296 53.64336Q640.21515 54.443165 640.21515 56.124805ZM639.10773 56.124805Q639.10773 54.812305 638.71808 54.217579Q638.32843 53.622852 637.40851 53.622852Q636.48273 53.622852 636.06964 54.229298Q635.65656 54.835743 635.65656 56.124805Q635.65656 57.378712 636.06378 58.008595Q636.47101 58.638477 637.34406 58.638477Q638.29327 58.638477 638.7005 58.029102Q639.10773 57.419727 639.10773 56.124805ZM643.14484 59.417774Q642.18976 59.417774 641.70929 58.913868Q641.22882 58.409962 641.22882 57.531055Q641.22882 56.54668 641.87628 56.019337Q642.52374 55.491993 643.96515 55.456837L645.38898 55.433399L645.38898 55.087696Q645.38898 54.314259 645.06085 53.980274Q644.73273 53.64629 644.0296 53.64629Q643.32062 53.64629 642.99835 53.886524Q642.67609 54.126759 642.61163 54.654102L641.51007 54.554493Q641.7796 52.843555 644.05304 52.843555Q645.24835 52.843555 645.85187 53.391407Q646.45538 53.939259 646.45538 54.976368L646.45538 57.706837Q646.45538 58.175587 646.57843 58.412891Q646.70148 58.650196 647.04718 58.650196Q647.19952 58.650196 647.39288 58.60918L647.39288 59.26543Q646.99445 59.35918 646.57843 59.35918Q645.99249 59.35918 645.72589 59.051563Q645.45929 58.743946 645.42413 58.087696L645.38898 58.087696Q644.98468 58.814259 644.44855 59.116016Q643.91241 59.417774 643.14484 59.417774ZM643.38507 58.626759Q643.96515 58.626759 644.41632 58.363087Q644.86749 58.099415 645.12823 57.639454Q645.38898 57.179493 645.38898 56.693165L645.38898 56.17168L644.23468 56.195118Q643.49054 56.206837 643.10675 56.347462Q642.72296 56.488087 642.51788 56.781055Q642.31281 57.074024 642.31281 57.548634Q642.31281 58.064259 642.59113 58.345509Q642.86945 58.626759 643.38507 58.626759ZM652.20343 58.281055Q651.91046 58.89043 651.42706 59.154102Q650.94366 59.417774 650.22882 59.417774Q649.02765 59.417774 648.46222 58.60918Q647.89679 57.800587 647.89679 56.159962Q647.89679 52.843555 650.22882 52.843555Q650.94952 52.843555 651.42999 53.107227Q651.91046 53.370899 652.20343 53.945118L652.21515 53.945118L652.20343 53.236134L652.20343 50.605274L653.25812 50.605274L653.25812 57.993946Q653.25812 58.98418 653.29327 59.300587L652.28546 59.300587Q652.26788 59.206837 652.24738 58.866993Q652.22687 58.527149 652.22687 58.281055L652.20343 58.281055ZM649.00421 56.124805Q649.00421 57.454884 649.35577 58.029102Q649.70734 58.603321 650.49835 58.603321Q651.39484 58.603321 651.79913 57.982227Q652.20343 57.361134 652.20343 56.054493Q652.20343 54.794727 651.79913 54.20879Q651.39484 53.622852 650.51007 53.622852Q649.7132 53.622852 649.3587 54.21172Q649.00421 54.800587 649.00421 56.124805ZM659.63312 57.548634Q659.63312 58.445118 658.95636 58.931446Q658.2796 59.417774 657.06085 59.417774Q655.87726 59.417774 655.23566 59.028126Q654.59406 58.638477 654.4007 57.812305L655.33234 57.630665Q655.4671 58.14043 655.88898 58.377735Q656.31085 58.61504 657.06085 58.61504Q657.86359 58.61504 658.23566 58.368946Q658.60773 58.122852 658.60773 57.630665Q658.60773 57.255665 658.34991 57.02129Q658.0921 56.786915 657.51788 56.634571L656.76202 56.435352Q655.85382 56.200977 655.47003 55.975391Q655.08624 55.749805 654.86945 55.42754Q654.65265 55.105274 654.65265 54.636524Q654.65265 53.769337 655.27081 53.315235Q655.88898 52.861134 657.07257 52.861134Q658.1214 52.861134 658.73956 53.230274Q659.35773 53.599415 659.52179 54.413868L658.57257 54.531055Q658.48468 54.10918 658.10089 53.883595Q657.7171 53.658009 657.07257 53.658009Q656.35773 53.658009 656.01788 53.874805Q655.67804 54.091602 655.67804 54.531055Q655.67804 54.800587 655.81866 54.976368Q655.95929 55.152149 656.23468 55.275196Q656.51007 55.398243 657.39484 55.61504Q658.23273 55.825977 658.60187 56.004688Q658.97101 56.183399 659.18488 56.400196Q659.39874 56.616993 659.51593 56.901173Q659.63312 57.185352 659.63312 57.548634Z"/>
	</g>
	<path fill="#666" transform="translate(500 19.6)" d="M-194.01562 3.3320312Q-194.01562 4.5585938 -195.01953 5.2578125Q-196.02344 5.9570312 -197.79688 5.9570312Q-199.53906 5.9570312 -200.46484 5.40625Q-201.39062 4.8554688 -201.69531 3.6914062L-199.76562 3.4023438Q-199.60156 4.0039062 -199.19922 4.2539062Q-198.79688 4.5039062 -197.79688 4.5039062Q-196.875 4.5039062 -196.45312 4.2695312Q-196.03125 4.0351562 -196.03125 3.5351562Q-196.03125 3.1289062 -196.37109 2.890625Q-196.71094 2.6523438 -197.52344 2.4882812Q-199.38281 2.1210938 -200.03125 1.8046875Q-200.67969 1.4882812 -201.01953 0.984375Q-201.35938 0.48046875 -201.35938 -0.25390625Q-201.35938 -1.4648438 -200.42578 -2.140625Q-199.49219 -2.8164062 -197.78125 -2.8164062Q-196.27344 -2.8164062 -195.35547 -2.2304688Q-194.4375 -1.6445312 -194.21094 -0.53515625L-196.15625 -0.33203125Q-196.25 -0.84765625 -196.61719 -1.1015625Q-196.98438 -1.3554688 -197.78125 -1.3554688Q-198.5625 -1.3554688 -198.95312 -1.15625Q-199.34375 -0.95703125 -199.34375 -0.48828125Q-199.34375 -0.12109375 -199.04297 0.09375Q-198.74219 0.30859375 -198.03125 0.44921875Q-197.03906 0.65234375 -196.26953 0.8671875Q-195.5 1.0820312 -195.03516 1.3789062Q-194.57031 1.6757812 -194.29297 2.140625Q-194.01562 2.6054688 -194.01562 3.3320312ZM-190.28906 5.9570312Q-191.51562 5.9570312 -192.20312 5.2890625Q-192.89062 4.6210938 -192.89062 3.4101562Q-192.89062 2.0976562 -192.03516 1.4101562Q-191.17969 0.72265625 -189.55469 0.70703125L-187.73438 0.67578125L-187.73438 0.24609375Q-187.73438 -0.58203125 -188.02344 -0.984375Q-188.3125 -1.3867188 -188.96875 -1.3867188Q-189.57812 -1.3867188 -189.86328 -1.109375Q-190.14844 -0.83203125 -190.21875 -0.19140625L-192.50781 -0.30078125Q-192.29688 -1.5351562 -191.37891 -2.171875Q-190.46094 -2.8085938 -188.875 -2.8085938Q-187.27344 -2.8085938 -186.40625 -2.0195312Q-185.53906 -1.2304688 -185.53906 0.22265625L-185.53906 3.3007812Q-185.53906 4.0117188 -185.37891 4.28125Q-185.21875 4.5507812 -184.84375 4.5507812Q-184.59375 4.5507812 -184.35938 4.5039062L-184.35938 5.6914062Q-184.55469 5.7382812 -184.71094 5.7773438Q-184.86719 5.8164062 -185.02344 5.8398438Q-185.17969 5.8632812 -185.35547 5.8789062Q-185.53125 5.8945312 -185.76562 5.8945312Q-186.59375 5.8945312 -186.98828 5.4882812Q-187.38281 5.0820312 -187.46094 4.2929688L-187.50781 4.2929688Q-188.42969 5.9570312 -190.28906 5.9570312ZM-187.73438 1.8867188L-188.85938 1.9023438Q-189.625 1.9335938 -189.94531 2.0703125Q-190.26562 2.2070312 -190.43359 2.4882812Q-190.60156 2.7695312 -190.60156 3.2382812Q-190.60156 3.8398438 -190.32422 4.1328125Q-190.04688 4.4257812 -189.58594 4.4257812Q-189.07031 4.4257812 -188.64453 4.1445312Q-188.21875 3.8632812 -187.97656 3.3671875Q-187.73438 2.8710938 -187.73438 2.3164062L-187.73438 1.8867188ZM-183.34375 -4.1757812L-183.34375 -5.7929688L-181.14844 -5.7929688L-181.14844 -4.1757812L-183.34375 -4.1757812ZM-183.34375 5.8007812L-183.34375 -2.6523438L-181.14844 -2.6523438L-181.14844 5.8007812L-183.34375 5.8007812ZM-178.89844 5.8007812L-178.89844 -5.7929688L-176.70312 -5.7929688L-176.70312 5.8007812L-178.89844 5.8007812ZM-166.45312 1.5351562Q-166.45312 3.6523438 -167.30078 4.8046875Q-168.14844 5.9570312 -169.69531 5.9570312Q-170.58594 5.9570312 -171.24609 5.5703125Q-171.90625 5.1835938 -172.25781 4.4570312L-172.30469 4.4570312Q-172.25781 4.6914062 -172.25781 5.8789062L-172.25781 9.1210938L-174.45312 9.1210938L-174.45312 -0.70703125Q-174.45312 -1.9023438 -174.51562 -2.6523438L-172.38281 -2.6523438Q-172.34375 -2.5117188 -172.31641 -2.0976562Q-172.28906 -1.6835938 -172.28906 -1.2773438L-172.25781 -1.2773438Q-171.51562 -2.8320312 -169.55469 -2.8320312Q-168.07812 -2.8320312 -167.26562 -1.6953125Q-166.45312 -0.55859375 -166.45312 1.5351562ZM-168.74219 1.5351562Q-168.74219 -1.3085938 -170.48438 -1.3085938Q-171.35938 -1.3085938 -171.82422 -0.54296875Q-172.28906 0.22265625 -172.28906 1.5976562Q-172.28906 2.9648438 -171.82422 3.7109375Q-171.35938 4.4570312 -170.5 4.4570312Q-168.74219 4.4570312 -168.74219 1.5351562ZM-156.64844 1.5664062Q-156.64844 3.6210938 -157.78906 4.7890625Q-158.92969 5.9570312 -160.94531 5.9570312Q-162.92188 5.9570312 -164.04688 4.7851562Q-165.17188 3.6132812 -165.17188 1.5664062Q-165.17188 -0.47265625 -164.04688 -1.640625Q-162.92188 -2.8085938 -160.89844 -2.8085938Q-158.82812 -2.8085938 -157.73828 -1.6796875Q-156.64844 -0.55078125 -156.64844 1.5664062ZM-158.94531 1.5664062Q-158.94531 0.05859375 -159.4375 -0.62109375Q-159.92969 -1.3007812 -160.86719 -1.3007812Q-162.86719 -1.3007812 -162.86719 1.5664062Q-162.86719 2.9804688 -162.37891 3.71875Q-161.89062 4.4570312 -160.96875 4.4570312Q-158.94531 4.4570312 -158.94531 1.5664062ZM-154.90625 -4.1757812L-154.90625 -5.7929688L-152.71094 -5.7929688L-152.71094 -4.1757812L-154.90625 -4.1757812ZM-154.90625 5.8007812L-154.90625 -2.6523438L-152.71094 -2.6523438L-152.71094 5.8007812L-154.90625 5.8007812ZM-144.98438 5.8007812L-144.98438 1.0585938Q-144.98438 -1.1679688 -146.49219 -1.1679688Q-147.28906 -1.1679688 -147.77734 -0.484375Q-148.26562 0.19921875 -148.26562 1.2695312L-148.26562 5.8007812L-150.46094 5.8007812L-150.46094 -0.76171875Q-150.46094 -1.4414062 -150.48047 -1.875Q-150.5 -2.3085938 -150.52344 -2.6523438L-148.42969 -2.6523438Q-148.40625 -2.5039062 -148.36719 -1.859375Q-148.32812 -1.2148438 -148.32812 -0.97265625L-148.29688 -0.97265625Q-147.85156 -1.9414062 -147.17969 -2.3789062Q-146.50781 -2.8164062 -145.57812 -2.8164062Q-144.23438 -2.8164062 -143.51562 -1.9882812Q-142.79688 -1.1601562 -142.79688 0.43359375L-142.79688 5.8007812L-144.98438 5.8007812ZM-138.52344 5.9414062Q-139.49219 5.9414062 -140.01562 5.4140625Q-140.53906 4.8867188 -140.53906 3.8164062L-140.53906 -1.1679688L-141.60938 -1.1679688L-141.60938 -2.6523438L-140.42969 -2.6523438L-139.74219 -4.6367188L-138.36719 -4.6367188L-138.36719 -2.6523438L-136.76562 -2.6523438L-136.76562 -1.1679688L-138.36719 -1.1679688L-138.36719 3.2226562Q-138.36719 3.8398438 -138.13281 4.1328125Q-137.89844 4.4257812 -137.40625 4.4257812Q-137.14844 4.4257812 -136.67188 4.3164062L-136.67188 5.6757812Q-137.48438 5.9414062 -138.52344 5.9414062ZM-135.85156 2.6054688L-135.85156 0.69921875L-131.78906 0.69921875L-131.78906 2.6054688L-135.85156 2.6054688ZM-122 1.5664062Q-122 3.6210938 -123.14062 4.7890625Q-124.28125 5.9570312 -126.29688 5.9570312Q-128.27344 5.9570312 -129.39844 4.7851562Q-130.52344 3.6132812 -130.52344 1.5664062Q-130.52344 -0.47265625 -129.39844 -1.640625Q-128.27344 -2.8085938 -126.25 -2.8085938Q-124.17969 -2.8085938 -123.08984 -1.6796875Q-122 -0.55078125 -122 1.5664062ZM-124.29688 1.5664062Q-124.29688 0.05859375 -124.78906 -0.62109375Q-125.28125 -1.3007812 -126.21875 -1.3007812Q-128.21875 -1.3007812 -128.21875 1.5664062Q-128.21875 2.9804688 -127.73047 3.71875Q-127.24219 4.4570312 -126.32031 4.4570312Q-124.29688 4.4570312 -124.29688 1.5664062ZM-113.13281 3.3320312Q-113.13281 4.5585938 -114.13672 5.2578125Q-115.14062 5.9570312 -116.91406 5.9570312Q-118.65625 5.9570312 -119.58203 5.40625Q-120.50781 4.8554688 -120.8125 3.6914062L-118.88281 3.4023438Q-118.71875 4.0039062 -118.31641 4.2539062Q-117.91406 4.5039062 -116.91406 4.5039062Q-115.99219 4.5039062 -115.57031 4.2695312Q-115.14844 4.0351562 -115.14844 3.5351562Q-115.14844 3.1289062 -115.48828 2.890625Q-115.82812 2.6523438 -116.64062 2.4882812Q-118.5 2.1210938 -119.14844 1.8046875Q-119.79688 1.4882812 -120.13672 0.984375Q-120.47656 0.48046875 -120.47656 -0.25390625Q-120.47656 -1.4648438 -119.54297 -2.140625Q-118.60938 -2.8164062 -116.89844 -2.8164062Q-115.39062 -2.8164062 -114.47266 -2.2304688Q-113.55469 -1.6445312 -113.32812 -0.53515625L-115.27344 -0.33203125Q-115.36719 -0.84765625 -115.73438 -1.1015625Q-116.10156 -1.3554688 -116.89844 -1.3554688Q-117.67969 -1.3554688 -118.07031 -1.15625Q-118.46094 -0.95703125 -118.46094 -0.48828125Q-118.46094 -0.12109375 -118.16016 0.09375Q-117.85938 0.30859375 -117.14844 0.44921875Q-116.15625 0.65234375 -115.38672 0.8671875Q-114.61719 1.0820312 -114.15234 1.3789062Q-113.6875 1.6757812 -113.41016 2.140625Q-113.13281 2.6054688 -113.13281 3.3320312ZM-104.23438 3.3320312Q-104.23438 4.5585938 -105.23828 5.2578125Q-106.24219 5.9570312 -108.01562 5.9570312Q-109.75781 5.9570312 -110.68359 5.40625Q-111.60938 4.8554688 -111.91406 3.6914062L-109.98438 3.4023438Q-109.82031 4.0039062 -109.41797 4.2539062Q-109.01562 4.5039062 -108.01562 4.5039062Q-107.09375 4.5039062 -106.67188 4.2695312Q-106.25 4.0351562 -106.25 3.5351562Q-106.25 3.1289062 -106.58984 2.890625Q-106.92969 2.6523438 -107.74219 2.4882812Q-109.60156 2.1210938 -110.25 1.8046875Q-110.89844 1.4882812 -111.23828 0.984375Q-111.57812 0.48046875 -111.57812 -0.25390625Q-111.57812 -1.4648438 -110.64453 -2.140625Q-109.71094 -2.8164062 -108 -2.8164062Q-106.49219 -2.8164062 -105.57422 -2.2304688Q-104.65625 -1.6445312 -104.42969 -0.53515625L-106.375 -0.33203125Q-106.46875 -0.84765625 -106.83594 -1.1015625Q-107.20312 -1.3554688 -108 -1.3554688Q-108.78125 -1.3554688 -109.17188 -1.15625Q-109.5625 -0.95703125 -109.5625 -0.48828125Q-109.5625 -0.12109375 -109.26172 0.09375Q-108.96094 0.30859375 -108.25 0.44921875Q-107.25781 0.65234375 -106.48828 0.8671875Q-105.71875 1.0820312 -105.25391 1.3789062Q-104.78906 1.6757812 -104.51172 2.140625Q-104.23438 2.6054688 -104.23438 3.3320312ZM-103.42188 6.1210938L-101.14844 -5.7929688L-99.289062 -5.7929688L-101.52344 6.1210938L-103.42188 6.1210938ZM-94.492188 5.9570312Q-96.414062 5.9570312 -97.460938 4.8125Q-98.507812 3.6679688 -98.507812 1.6210938Q-98.507812 -0.47265625 -97.453125 -1.640625Q-96.398438 -2.8085938 -94.460938 -2.8085938Q-92.96875 -2.8085938 -91.992188 -2.0585938Q-91.015625 -1.3085938 -90.765625 0.01171875L-92.976562 0.12109375Q-93.070312 -0.52734375 -93.445312 -0.9140625Q-93.820312 -1.3007812 -94.507812 -1.3007812Q-96.203125 -1.3007812 -96.203125 1.5351562Q-96.203125 4.4570312 -94.476562 4.4570312Q-93.851562 4.4570312 -93.429688 4.0625Q-93.007812 3.6679688 -92.90625 2.8867188L-90.703125 2.9882812Q-90.820312 3.8554688 -91.324219 4.5351562Q-91.828125 5.2148438 -92.648438 5.5859375Q-93.46875 5.9570312 -94.492188 5.9570312ZM-81.085938 1.5664062Q-81.085938 3.6210938 -82.226562 4.7890625Q-83.367188 5.9570312 -85.382812 5.9570312Q-87.359375 5.9570312 -88.484375 4.7851562Q-89.609375 3.6132812 -89.609375 1.5664062Q-89.609375 -0.47265625 -88.484375 -1.640625Q-87.359375 -2.8085938 -85.335938 -2.8085938Q-83.265625 -2.8085938 -82.175781 -1.6796875Q-81.085938 -0.55078125 -81.085938 1.5664062ZM-83.382812 1.5664062Q-83.382812 0.05859375 -83.875 -0.62109375Q-84.367188 -1.3007812 -85.304688 -1.3007812Q-87.304688 -1.3007812 -87.304688 1.5664062Q-87.304688 2.9804688 -86.816406 3.71875Q-86.328125 4.4570312 -85.40625 4.4570312Q-83.382812 4.4570312 -83.382812 1.5664062ZM-79.34375 5.8007812L-79.34375 -5.7929688L-77.148438 -5.7929688L-77.148438 5.8007812L-79.34375 5.8007812ZM-72.945312 5.9570312Q-74.171875 5.9570312 -74.859375 5.2890625Q-75.546875 4.6210938 -75.546875 3.4101562Q-75.546875 2.0976562 -74.691406 1.4101562Q-73.835938 0.72265625 -72.210938 0.70703125L-70.390625 0.67578125L-70.390625 0.24609375Q-70.390625 -0.58203125 -70.679688 -0.984375Q-70.96875 -1.3867188 -71.625 -1.3867188Q-72.234375 -1.3867188 -72.519531 -1.109375Q-72.804688 -0.83203125 -72.875 -0.19140625L-75.164062 -0.30078125Q-74.953125 -1.5351562 -74.035156 -2.171875Q-73.117188 -2.8085938 -71.53125 -2.8085938Q-69.929688 -2.8085938 -69.0625 -2.0195312Q-68.195312 -1.2304688 -68.195312 0.22265625L-68.195312 3.3007812Q-68.195312 4.0117188 -68.035156 4.28125Q-67.875 4.5507812 -67.5 4.5507812Q-67.25 4.5507812 -67.015625 4.5039062L-67.015625 5.6914062Q-67.210938 5.7382812 -67.367188 5.7773438Q-67.523438 5.8164062 -67.679688 5.8398438Q-67.835938 5.8632812 -68.011719 5.8789062Q-68.1875 5.8945312 -68.421875 5.8945312Q-69.25 5.8945312 -69.644531 5.4882812Q-70.039062 5.0820312 -70.117188 4.2929688L-70.164062 4.2929688Q-71.085938 5.9570312 -72.945312 5.9570312ZM-70.390625 1.8867188L-71.515625 1.9023438Q-72.28125 1.9335938 -72.601562 2.0703125Q-72.921875 2.2070312 -73.089844 2.4882812Q-73.257812 2.7695312 -73.257812 3.2382812Q-73.257812 3.8398438 -72.980469 4.1328125Q-72.703125 4.4257812 -72.242188 4.4257812Q-71.726562 4.4257812 -71.300781 4.1445312Q-70.875 3.8632812 -70.632812 3.3671875Q-70.390625 2.8710938 -70.390625 2.3164062L-70.390625 1.8867188ZM-58 1.5429688Q-58 3.6367188 -58.839844 4.796875Q-59.679688 5.9570312 -61.242188 5.9570312Q-62.140625 5.9570312 -62.796875 5.5664062Q-63.453125 5.1757812 -63.804688 4.4414062L-63.820312 4.4414062Q-63.820312 4.7148438 -63.855469 5.1914062Q-63.890625 5.6679688 -63.929688 5.8007812L-66.0625 5.8007812Q-66 5.0742188 -66 3.8710938L-66 -5.7929688L-63.804688 -5.7929688L-63.804688 -2.5585938L-63.835938 -1.1835938L-63.804688 -1.1835938Q-63.0625 -2.8085938 -61.101562 -2.8085938Q-59.601562 -2.8085938 -58.800781 -1.671875Q-58 -0.53515625 -58 1.5429688ZM-60.289062 1.5429688Q-60.289062 0.10546875 -60.710938 -0.58984375Q-61.132812 -1.2851562 -62.015625 -1.2851562Q-62.90625 -1.2851562 -63.371094 -0.5390625Q-63.835938 0.20703125 -63.835938 1.6132812Q-63.835938 2.9570312 -63.378906 3.7070312Q-62.921875 4.4570312 -62.03125 4.4570312Q-60.289062 4.4570312 -60.289062 1.5429688ZM-56.71875 2.6054688L-56.71875 0.69921875L-52.65625 0.69921875L-52.65625 2.6054688L-56.71875 2.6054688ZM-43.773438 3.3320312Q-43.773438 4.5585938 -44.777344 5.2578125Q-45.78125 5.9570312 -47.554688 5.9570312Q-49.296875 5.9570312 -50.222656 5.40625Q-51.148438 4.8554688 -51.453125 3.6914062L-49.523438 3.4023438Q-49.359375 4.0039062 -48.957031 4.2539062Q-48.554688 4.5039062 -47.554688 4.5039062Q-46.632812 4.5039062 -46.210938 4.2695312Q-45.789062 4.0351562 -45.789062 3.5351562Q-45.789062 3.1289062 -46.128906 2.890625Q-46.46875 2.6523438 -47.28125 2.4882812Q-49.140625 2.1210938 -49.789062 1.8046875Q-50.4375 1.4882812 -50.777344 0.984375Q-51.117188 0.48046875 -51.117188 -0.25390625Q-51.117188 -1.4648438 -50.183594 -2.140625Q-49.25 -2.8164062 -47.539062 -2.8164062Q-46.03125 -2.8164062 -45.113281 -2.2304688Q-44.195312 -1.6445312 -43.96875 -0.53515625L-45.914062 -0.33203125Q-46.007812 -0.84765625 -46.375 -1.1015625Q-46.742188 -1.3554688 -47.539062 -1.3554688Q-48.320312 -1.3554688 -48.710938 -1.15625Q-49.101562 -0.95703125 -49.101562 -0.48828125Q-49.101562 -0.12109375 -48.800781 0.09375Q-48.5 0.30859375 -47.789062 0.44921875Q-46.796875 0.65234375 -46.027344 0.8671875Q-45.257812 1.0820312 -44.792969 1.3789062Q-44.328125 1.6757812 -44.050781 2.140625Q-43.773438 2.6054688 -43.773438 3.3320312ZM-42 -4.1757812L-42 -5.7929688L-39.804688 -5.7929688L-39.804688 -4.1757812L-42 -4.1757812ZM-42 5.8007812L-42 -2.6523438L-39.804688 -2.6523438L-39.804688 5.8007812L-42 5.8007812ZM-34.09375 5.9570312Q-36 5.9570312 -37.023438 4.828125Q-38.046875 3.6992188 -38.046875 1.5351562Q-38.046875 -0.55859375 -37.007812 -1.6835938Q-35.96875 -2.8085938 -34.0625 -2.8085938Q-32.242188 -2.8085938 -31.28125 -1.6015625Q-30.320312 -0.39453125 -30.320312 1.9335938L-30.320312 1.9960938L-35.742188 1.9960938Q-35.742188 3.2304688 -35.285156 3.859375Q-34.828125 4.4882812 -33.984375 4.4882812Q-32.820312 4.4882812 -32.515625 3.4804688L-30.445312 3.6601562Q-31.34375 5.9570312 -34.09375 5.9570312ZM-34.09375 -1.4257812Q-34.867188 -1.4257812 -35.285156 -0.88671875Q-35.703125 -0.34765625 -35.726562 0.62109375L-32.445312 0.62109375Q-32.507812 -0.40234375 -32.9375 -0.9140625Q-33.367188 -1.4257812 -34.09375 -1.4257812ZM-23.679688 5.8007812L-23.679688 1.0585938Q-23.679688 -1.1679688 -24.960938 -1.1679688Q-25.625 -1.1679688 -26.042969 -0.48828125Q-26.460938 0.19140625 -26.460938 1.2695312L-26.460938 5.8007812L-28.65625 5.8007812L-28.65625 -0.76171875Q-28.65625 -1.4414062 -28.675781 -1.875Q-28.695312 -2.3085938 -28.71875 -2.6523438L-26.625 -2.6523438Q-26.601562 -2.5039062 -26.5625 -1.859375Q-26.523438 -1.2148438 -26.523438 -0.97265625L-26.492188 -0.97265625Q-26.085938 -1.9414062 -25.480469 -2.3789062Q-24.875 -2.8164062 -24.03125 -2.8164062Q-22.09375 -2.8164062 -21.679688 -0.97265625L-21.632812 -0.97265625Q-21.203125 -1.9570312 -20.601562 -2.3867188Q-20 -2.8164062 -19.070312 -2.8164062Q-17.835938 -2.8164062 -17.1875 -1.9765625Q-16.539062 -1.1367188 -16.539062 0.43359375L-16.539062 5.8007812L-18.71875 5.8007812L-18.71875 1.0585938Q-18.71875 -1.1679688 -20 -1.1679688Q-20.640625 -1.1679688 -21.050781 -0.546875Q-21.460938 0.07421875 -21.5 1.1679688L-21.5 5.8007812L-23.679688 5.8007812ZM-14.921875 2.6054688L-14.921875 0.69921875L-10.859375 0.69921875L-10.859375 2.6054688L-14.921875 2.6054688ZM-1.1015625 1.5351562Q-1.1015625 3.6523438 -1.9492188 4.8046875Q-2.796875 5.9570312 -4.34375 5.9570312Q-5.234375 5.9570312 -5.8945312 5.5703125Q-6.5546875 5.1835938 -6.90625 4.4570312L-6.953125 4.4570312Q-6.90625 4.6914062 -6.90625 5.8789062L-6.90625 9.1210938L-9.1015625 9.1210938L-9.1015625 -0.70703125Q-9.1015625 -1.9023438 -9.1640625 -2.6523438L-7.03125 -2.6523438Q-6.9921875 -2.5117188 -6.9648438 -2.0976562Q-6.9375 -1.6835938 -6.9375 -1.2773438L-6.90625 -1.2773438Q-6.1640625 -2.8320312 -4.203125 -2.8320312Q-2.7265625 -2.8320312 -1.9140625 -1.6953125Q-1.1015625 -0.55859375 -1.1015625 1.5351562ZM-3.390625 1.5351562Q-3.390625 -1.3085938 -5.1328125 -1.3085938Q-6.0078125 -1.3085938 -6.4726562 -0.54296875Q-6.9375 0.22265625 -6.9375 1.5976562Q-6.9375 2.9648438 -6.4726562 3.7109375Q-6.0078125 4.4570312 -5.1484375 4.4570312Q-3.390625 4.4570312 -3.390625 1.5351562ZM0.671875 5.8007812L0.671875 -5.7929688L2.8671875 -5.7929688L2.8671875 5.8007812L0.671875 5.8007812ZM7.1875 -2.6523438L7.1875 2.0898438Q7.1875 4.3164062 8.6875 4.3164062Q9.484375 4.3164062 9.9726562 3.6328125Q10.460938 2.9492188 10.460938 1.8789062L10.460938 -2.6523438L12.65625 -2.6523438L12.65625 3.9101562Q12.65625 4.9882812 12.71875 5.8007812L10.625 5.8007812Q10.53125 4.6757812 10.53125 4.1210938L10.492188 4.1210938Q10.054688 5.0820312 9.3789062 5.5195312Q8.703125 5.9570312 7.7734375 5.9570312Q6.4296875 5.9570312 5.7109375 5.1328125Q4.9921875 4.3085938 4.9921875 2.7148438L4.9921875 -2.6523438L7.1875 -2.6523438ZM18.429688 9.1914062Q16.882812 9.1914062 15.941406 8.6015625Q15 8.0117188 14.78125 6.9179688L16.976562 6.6601562Q17.09375 7.1679688 17.480469 7.4570312Q17.867188 7.7460938 18.492188 7.7460938Q19.40625 7.7460938 19.828125 7.1835938Q20.25 6.6210938 20.25 5.5117188L20.25 5.0664062L20.265625 4.2304688L20.25 4.2304688Q19.523438 5.7851562 17.53125 5.7851562Q16.054688 5.7851562 15.242188 4.6757812Q14.429688 3.5664062 14.429688 1.5039062Q14.429688 -0.56640625 15.265625 -1.6914062Q16.101562 -2.8164062 17.695312 -2.8164062Q19.539062 -2.8164062 20.25 -1.2929688L20.289062 -1.2929688Q20.289062 -1.5664062 20.324219 -2.0351562Q20.359375 -2.5039062 20.398438 -2.6523438L22.476562 -2.6523438Q22.429688 -1.8085938 22.429688 -0.69921875L22.429688 5.5429688Q22.429688 7.3476562 21.40625 8.2695312Q20.382812 9.1914062 18.429688 9.1914062ZM20.265625 1.4570312Q20.265625 0.15234375 19.800781 -0.578125Q19.335938 -1.3085938 18.476562 -1.3085938Q16.71875 -1.3085938 16.71875 1.5039062Q16.71875 4.2617188 18.460938 4.2617188Q19.335938 4.2617188 19.800781 3.53125Q20.265625 2.8007812 20.265625 1.4570312ZM24.664062 -4.1757812L24.664062 -5.7929688L26.859375 -5.7929688L26.859375 -4.1757812L24.664062 -4.1757812ZM24.664062 5.8007812L24.664062 -2.6523438L26.859375 -2.6523438L26.859375 5.8007812L24.664062 5.8007812ZM34.585938 5.8007812L34.585938 1.0585938Q34.585938 -1.1679688 33.078125 -1.1679688Q32.28125 -1.1679688 31.792969 -0.484375Q31.304688 0.19921875 31.304688 1.2695312L31.304688 5.8007812L29.109375 5.8007812L29.109375 -0.76171875Q29.109375 -1.4414062 29.089844 -1.875Q29.070312 -2.3085938 29.046875 -2.6523438L31.140625 -2.6523438Q31.164062 -2.5039062 31.203125 -1.859375Q31.242188 -1.2148438 31.242188 -0.97265625L31.273438 -0.97265625Q31.71875 -1.9414062 32.390625 -2.3789062Q33.0625 -2.8164062 33.992188 -2.8164062Q35.335938 -2.8164062 36.054688 -1.9882812Q36.773438 -1.1601562 36.773438 0.43359375L36.773438 5.8007812L34.585938 5.8007812ZM42.835938 2.6054688L42.835938 0.69921875L46.898438 0.69921875L46.898438 2.6054688L42.835938 2.6054688ZM60.617188 5.8007812L58.0625 1.6210938L55.359375 1.6210938L55.359375 5.8007812L53.054688 5.8007812L53.054688 -5.2070312L58.554688 -5.2070312Q60.523438 -5.2070312 61.59375 -4.359375Q62.664062 -3.5117188 62.664062 -1.9257812Q62.664062 -0.76953125 62.007812 0.0703125Q61.351562 0.91015625 60.234375 1.1757812L63.210938 5.8007812L60.617188 5.8007812ZM60.34375 -1.8320312Q60.34375 -3.4179688 58.3125 -3.4179688L55.359375 -3.4179688L55.359375 -0.16796875L58.375 -0.16796875Q59.34375 -0.16796875 59.84375 -0.60546875Q60.34375 -1.0429688 60.34375 -1.8320312ZM68.117188 5.9570312Q66.210938 5.9570312 65.1875 4.828125Q64.164062 3.6992188 64.164062 1.5351562Q64.164062 -0.55859375 65.203125 -1.6835938Q66.242188 -2.8085938 68.148438 -2.8085938Q69.96875 -2.8085938 70.929688 -1.6015625Q71.890625 -0.39453125 71.890625 1.9335938L71.890625 1.9960938L66.46875 1.9960938Q66.46875 3.2304688 66.925781 3.859375Q67.382812 4.4882812 68.226562 4.4882812Q69.390625 4.4882812 69.695312 3.4804688L71.765625 3.6601562Q70.867188 5.9570312 68.117188 5.9570312ZM68.117188 -1.4257812Q67.34375 -1.4257812 66.925781 -0.88671875Q66.507812 -0.34765625 66.484375 0.62109375L69.765625 0.62109375Q69.703125 -0.40234375 69.273438 -0.9140625Q68.84375 -1.4257812 68.117188 -1.4257812ZM73.554688 5.8007812L73.554688 -5.7929688L75.75 -5.7929688L75.75 5.8007812L73.554688 5.8007812ZM81.460938 5.9570312Q79.554688 5.9570312 78.53125 4.828125Q77.507812 3.6992188 77.507812 1.5351562Q77.507812 -0.55859375 78.546875 -1.6835938Q79.585938 -2.8085938 81.492188 -2.8085938Q83.3125 -2.8085938 84.273438 -1.6015625Q85.234375 -0.39453125 85.234375 1.9335938L85.234375 1.9960938L79.8125 1.9960938Q79.8125 3.2304688 80.269531 3.859375Q80.726562 4.4882812 81.570312 4.4882812Q82.734375 4.4882812 83.039062 3.4804688L85.109375 3.6601562Q84.210938 5.9570312 81.460938 5.9570312ZM81.460938 -1.4257812Q80.6875 -1.4257812 80.269531 -0.88671875Q79.851562 -0.34765625 79.828125 0.62109375L83.109375 0.62109375Q83.046875 -0.40234375 82.617188 -0.9140625Q82.1875 -1.4257812 81.460938 -1.4257812ZM88.851562 5.9570312Q87.625 5.9570312 86.9375 5.2890625Q86.25 4.6210938 86.25 3.4101562Q86.25 2.0976562 87.105469 1.4101562Q87.960938 0.72265625 89.585938 0.70703125L91.40625 0.67578125L91.40625 0.24609375Q91.40625 -0.58203125 91.117188 -0.984375Q90.828125 -1.3867188 90.171875 -1.3867188Q89.5625 -1.3867188 89.277344 -1.109375Q88.992188 -0.83203125 88.921875 -0.19140625L86.632812 -0.30078125Q86.84375 -1.5351562 87.761719 -2.171875Q88.679688 -2.8085938 90.265625 -2.8085938Q91.867188 -2.8085938 92.734375 -2.0195312Q93.601562 -1.2304688 93.601562 0.22265625L93.601562 3.3007812Q93.601562 4.0117188 93.761719 4.28125Q93.921875 4.5507812 94.296875 4.5507812Q94.546875 4.5507812 94.78125 4.5039062L94.78125 5.6914062Q94.585938 5.7382812 94.429688 5.7773438Q94.273438 5.8164062 94.117188 5.8398438Q93.960938 5.8632812 93.785156 5.8789062Q93.609375 5.8945312 93.375 5.8945312Q92.546875 5.8945312 92.152344 5.4882812Q91.757812 5.0820312 91.679688 4.2929688L91.632812 4.2929688Q90.710938 5.9570312 88.851562 5.9570312ZM91.40625 1.8867188L90.28125 1.9023438Q89.515625 1.9335938 89.195312 2.0703125Q88.875 2.2070312 88.707031 2.4882812Q88.539062 2.7695312 88.539062 3.2382812Q88.539062 3.8398438 88.816406 4.1328125Q89.09375 4.4257812 89.554688 4.4257812Q90.070312 4.4257812 90.496094 4.1445312Q90.921875 3.8632812 91.164062 3.3671875Q91.40625 2.8710938 91.40625 2.3164062L91.40625 1.8867188ZM102.92188 3.3320312Q102.92188 4.5585938 101.91797 5.2578125Q100.91406 5.9570312 99.140625 5.9570312Q97.398438 5.9570312 96.472656 5.40625Q95.546875 4.8554688 95.242188 3.6914062L97.171875 3.4023438Q97.335938 4.0039062 97.738281 4.2539062Q98.140625 4.5039062 99.140625 4.5039062Q100.0625 4.5039062 100.48438 4.2695312Q100.90625 4.0351562 100.90625 3.5351562Q100.90625 3.1289062 100.56641 2.890625Q100.22656 2.6523438 99.414062 2.4882812Q97.554688 2.1210938 96.90625 1.8046875Q96.257812 1.4882812 95.917969 0.984375Q95.578125 0.48046875 95.578125 -0.25390625Q95.578125 -1.4648438 96.511719 -2.140625Q97.445312 -2.8164062 99.15625 -2.8164062Q100.66406 -2.8164062 101.58203 -2.2304688Q102.5 -1.6445312 102.72656 -0.53515625L100.78125 -0.33203125Q100.6875 -0.84765625 100.32031 -1.1015625Q99.953125 -1.3554688 99.15625 -1.3554688Q98.375 -1.3554688 97.984375 -1.15625Q97.59375 -0.95703125 97.59375 -0.48828125Q97.59375 -0.12109375 97.894531 0.09375Q98.195312 0.30859375 98.90625 0.44921875Q99.898438 0.65234375 100.66797 0.8671875Q101.4375 1.0820312 101.90234 1.3789062Q102.36719 1.6757812 102.64453 2.140625Q102.92188 2.6054688 102.92188 3.3320312ZM108.15625 5.9570312Q106.25 5.9570312 105.22656 4.828125Q104.20312 3.6992188 104.20312 1.5351562Q104.20312 -0.55859375 105.24219 -1.6835938Q106.28125 -2.8085938 108.1875 -2.8085938Q110.00781 -2.8085938 110.96875 -1.6015625Q111.92969 -0.39453125 111.92969 1.9335938L111.92969 1.9960938L106.50781 1.9960938Q106.50781 3.2304688 106.96484 3.859375Q107.42188 4.4882812 108.26562 4.4882812Q109.42969 4.4882812 109.73438 3.4804688L111.80469 3.6601562Q110.90625 5.9570312 108.15625 5.9570312ZM108.15625 -1.4257812Q107.38281 -1.4257812 106.96484 -0.88671875Q106.54688 -0.34765625 106.52344 0.62109375L109.80469 0.62109375Q109.74219 -0.40234375 109.3125 -0.9140625Q108.88281 -1.4257812 108.15625 -1.4257812ZM127.80469 0.21484375Q127.80469 1.9179688 127.13672 3.1875Q126.46875 4.4570312 125.24609 5.1289062Q124.02344 5.8007812 122.44531 5.8007812L117.99219 5.8007812L117.99219 -5.2070312L121.97656 -5.2070312Q124.75781 -5.2070312 126.28125 -3.8046875Q127.80469 -2.4023438 127.80469 0.21484375ZM125.48438 0.21484375Q125.48438 -1.5585938 124.5625 -2.4921875Q123.64062 -3.4257812 121.92969 -3.4257812L120.29688 -3.4257812L120.29688 4.0195312L122.25 4.0195312Q123.73438 4.0195312 124.60938 2.9960938Q125.48438 1.9726562 125.48438 0.21484375ZM137.625 1.5664062Q137.625 3.6210938 136.48438 4.7890625Q135.34375 5.9570312 133.32812 5.9570312Q131.35156 5.9570312 130.22656 4.7851562Q129.10156 3.6132812 129.10156 1.5664062Q129.10156 -0.47265625 130.22656 -1.640625Q131.35156 -2.8085938 133.375 -2.8085938Q135.44531 -2.8085938 136.53516 -1.6796875Q137.625 -0.55078125 137.625 1.5664062ZM135.32812 1.5664062Q135.32812 0.05859375 134.83594 -0.62109375Q134.34375 -1.3007812 133.40625 -1.3007812Q131.40625 -1.3007812 131.40625 1.5664062Q131.40625 2.9804688 131.89453 3.71875Q132.38281 4.4570312 133.30469 4.4570312Q135.32812 4.4570312 135.32812 1.5664062ZM148.50781 5.8007812L146.1875 5.8007812L144.84375 0.64453125Q144.75 0.29296875 144.47656 -1.0898438L144.07031 0.66015625L142.71094 5.8007812L140.39062 5.8007812L138.20312 -2.6523438L140.26562 -2.6523438L141.65625 3.8085938L141.76562 3.2304688L141.96094 2.3164062L143.28906 -2.6523438L145.64062 -2.6523438L146.9375 2.3164062Q147.04688 2.7226562 147.25781 3.8085938L147.47656 2.7773438L148.69531 -2.6523438L150.72656 -2.6523438L148.50781 5.8007812ZM157.28906 5.8007812L157.28906 1.0585938Q157.28906 -1.1679688 155.78125 -1.1679688Q154.98438 -1.1679688 154.49609 -0.484375Q154.00781 0.19921875 154.00781 1.2695312L154.00781 5.8007812L151.8125 5.8007812L151.8125 -0.76171875Q151.8125 -1.4414062 151.79297 -1.875Q151.77344 -2.3085938 151.75 -2.6523438L153.84375 -2.6523438Q153.86719 -2.5039062 153.90625 -1.859375Q153.94531 -1.2148438 153.94531 -0.97265625L153.97656 -0.97265625Q154.42188 -1.9414062 155.09375 -2.3789062Q155.76562 -2.8164062 156.69531 -2.8164062Q158.03906 -2.8164062 158.75781 -1.9882812Q159.47656 -1.1601562 159.47656 0.43359375L159.47656 5.8007812L157.28906 5.8007812ZM161.58594 5.8007812L161.58594 -5.7929688L163.78125 -5.7929688L163.78125 5.8007812L161.58594 5.8007812ZM174.0625 1.5664062Q174.0625 3.6210938 172.92188 4.7890625Q171.78125 5.9570312 169.76562 5.9570312Q167.78906 5.9570312 166.66406 4.7851562Q165.53906 3.6132812 165.53906 1.5664062Q165.53906 -0.47265625 166.66406 -1.640625Q167.78906 -2.8085938 169.8125 -2.8085938Q171.88281 -2.8085938 172.97266 -1.6796875Q174.0625 -0.55078125 174.0625 1.5664062ZM171.76562 1.5664062Q171.76562 0.05859375 171.27344 -0.62109375Q170.78125 -1.3007812 169.84375 -1.3007812Q167.84375 -1.3007812 167.84375 1.5664062Q167.84375 2.9804688 168.33203 3.71875Q168.82031 4.4570312 169.74219 4.4570312Q171.76562 4.4570312 171.76562 1.5664062ZM177.75781 5.9570312Q176.53125 5.9570312 175.84375 5.2890625Q175.15625 4.6210938 175.15625 3.4101562Q175.15625 2.0976562 176.01172 1.4101562Q176.86719 0.72265625 178.49219 0.70703125L180.3125 0.67578125L180.3125 0.24609375Q180.3125 -0.58203125 180.02344 -0.984375Q179.73438 -1.3867188 179.07812 -1.3867188Q178.46875 -1.3867188 178.18359 -1.109375Q177.89844 -0.83203125 177.82812 -0.19140625L175.53906 -0.30078125Q175.75 -1.5351562 176.66797 -2.171875Q177.58594 -2.8085938 179.17188 -2.8085938Q180.77344 -2.8085938 181.64062 -2.0195312Q182.50781 -1.2304688 182.50781 0.22265625L182.50781 3.3007812Q182.50781 4.0117188 182.66797 4.28125Q182.82812 4.5507812 183.20312 4.5507812Q183.45312 4.5507812 183.6875 4.5039062L183.6875 5.6914062Q183.49219 5.7382812 183.33594 5.7773438Q183.17969 5.8164062 183.02344 5.8398438Q182.86719 5.8632812 182.69141 5.8789062Q182.51562 5.8945312 182.28125 5.8945312Q181.45312 5.8945312 181.05859 5.4882812Q180.66406 5.0820312 180.58594 4.2929688L180.53906 4.2929688Q179.61719 5.9570312 177.75781 5.9570312ZM180.3125 1.8867188L179.1875 1.9023438Q178.42188 1.9335938 178.10156 2.0703125Q177.78125 2.2070312 177.61328 2.4882812Q177.44531 2.7695312 177.44531 3.2382812Q177.44531 3.8398438 177.72266 4.1328125Q178 4.4257812 178.46094 4.4257812Q178.97656 4.4257812 179.40234 4.1445312Q179.82812 3.8632812 180.07031 3.3671875Q180.3125 2.8710938 180.3125 2.3164062L180.3125 1.8867188ZM190.17969 5.8007812Q190.14844 5.6835938 190.10547 5.2109375Q190.0625 4.7382812 190.0625 4.4257812L190.03125 4.4257812Q189.32031 5.9570312 187.32812 5.9570312Q185.85156 5.9570312 185.04688 4.8046875Q184.24219 3.6523438 184.24219 1.5820312Q184.24219 -0.51953125 185.08984 -1.6640625Q185.9375 -2.8085938 187.49219 -2.8085938Q188.39062 -2.8085938 189.04297 -2.4335938Q189.69531 -2.0585938 190.04688 -1.3164062L190.0625 -1.3164062L190.04688 -2.7070312L190.04688 -5.7929688L192.24219 -5.7929688L192.24219 3.9570312Q192.24219 4.7382812 192.30469 5.8007812L190.17969 5.8007812ZM190.07812 1.5273438Q190.07812 0.16015625 189.62109 -0.578125Q189.16406 -1.3164062 188.27344 -1.3164062Q187.39062 -1.3164062 186.96094 -0.6015625Q186.53125 0.11328125 186.53125 1.5820312Q186.53125 4.4570312 188.25781 4.4570312Q189.125 4.4570312 189.60156 3.6953125Q190.07812 2.9335938 190.07812 1.5273438ZM201.60156 3.3320312Q201.60156 4.5585938 200.59766 5.2578125Q199.59375 5.9570312 197.82031 5.9570312Q196.07812 5.9570312 195.15234 5.40625Q194.22656 4.8554688 193.92188 3.6914062L195.85156 3.4023438Q196.01562 4.0039062 196.41797 4.2539062Q196.82031 4.5039062 197.82031 4.5039062Q198.74219 4.5039062 199.16406 4.2695312Q199.58594 4.0351562 199.58594 3.5351562Q199.58594 3.1289062 199.24609 2.890625Q198.90625 2.6523438 198.09375 2.4882812Q196.23438 2.1210938 195.58594 1.8046875Q194.9375 1.4882812 194.59766 0.984375Q194.25781 0.48046875 194.25781 -0.25390625Q194.25781 -1.4648438 195.19141 -2.140625Q196.125 -2.8164062 197.83594 -2.8164062Q199.34375 -2.8164062 200.26172 -2.2304688Q201.17969 -1.6445312 201.40625 -0.53515625L199.46094 -0.33203125Q199.36719 -0.84765625 199 -1.1015625Q198.63281 -1.3554688 197.83594 -1.3554688Q197.05469 -1.3554688 196.66406 -1.15625Q196.27344 -0.95703125 196.27344 -0.48828125Q196.27344 -0.12109375 196.57422 0.09375Q196.875 0.30859375 197.58594 0.44921875Q198.57812 0.65234375 199.34766 0.8671875Q200.11719 1.0820312 200.58203 1.3789062Q201.04688 1.6757812 201.32422 2.140625Q201.60156 2.6054688 201.60156 3.3320312Z"/>
	<path fill="none" stroke="black" stroke-width="1" stroke-miterlimit="10" stroke-opacity="0.10196079" d="M53 749.5L1001 749.5"/>
	<clipPath id="cl_4a9">
		<rect y="749.20001" width="1000" height="50.799988"/>
	</clipPath>
	<g clip-path="url(#cl_4a9)">
		<path fill="#666" transform="translate(526.54 760.2)" d="M-12.751953 11.300586L-14 11.300586L-16.302734 4.960742L-15.177734 4.960742L-13.783203 9.085742Q-13.707031 9.320117 -13.378906 10.474414L-13.173828 9.788867L-12.945312 9.0974607L-11.503906 4.960742L-10.384766 4.960742L-12.751953 11.300586ZM-9.7402344 11.300586L-9.7402344 10.556445Q-9.4414062 9.8708982 -9.0107422 9.3464842Q-8.5800781 8.8220701 -8.1054688 8.3972654Q-7.6308594 7.9724607 -7.1650391 7.6091795Q-6.6992188 7.2458982 -6.3242188 6.882617Q-5.9492188 6.5193357 -5.7177734 6.1208982Q-5.4863281 5.7224607 -5.4863281 5.2185545Q-5.4863281 4.538867 -5.8847656 4.163867Q-6.2832031 3.788867 -6.9921875 3.788867Q-7.6660156 3.788867 -8.1025391 4.1550779Q-8.5390625 4.5212889 -8.6152344 5.1833982L-9.6933594 5.0837889Q-9.5761719 4.0935545 -8.8525391 3.507617Q-8.1289062 2.9216795 -6.9921875 2.9216795Q-5.7441406 2.9216795 -5.0732422 3.5105467Q-4.4023438 4.0994139 -4.4023438 5.1833982Q-4.4023438 5.663867 -4.6220703 6.1384764Q-4.8417969 6.6130857 -5.2753906 7.0876951Q-5.7089844 7.5623045 -6.9335938 8.5583982Q-7.6074219 9.1091795 -8.0058594 9.5515623Q-8.4042969 9.9939451 -8.5800781 10.404101L-4.2734375 10.404101L-4.2734375 11.300586L-9.7402344 11.300586ZM-2.5742188 11.300586L-2.5742188 10.017383L-1.4316406 10.017383L-1.4316406 11.300586L-2.5742188 11.300586ZM0.578125 11.300586L0.578125 10.404101L2.6816406 10.404101L2.6816406 4.0525389L0.81835938 5.382617L0.81835938 4.3865232L2.7695312 3.0447264L3.7421875 3.0447264L3.7421875 10.404101L5.7519531 10.404101L5.7519531 11.300586L0.578125 11.300586ZM7.4335938 11.300586L7.4335938 10.017383L8.5761719 10.017383L8.5761719 11.300586L7.4335938 11.300586ZM15.841797 8.6111326Q15.841797 9.9177732 15.06543 10.667773Q14.289062 11.417773 12.912109 11.417773Q11.757812 11.417773 11.048828 10.913867Q10.339844 10.409961 10.152344 9.4548826L11.21875 9.3318357Q11.552734 10.556445 12.935547 10.556445Q13.785156 10.556445 14.265625 10.04375Q14.746094 9.5310545 14.746094 8.6345701Q14.746094 7.8552732 14.262695 7.3748045Q13.779297 6.8943357 12.958984 6.8943357Q12.53125 6.8943357 12.162109 7.0291014Q11.792969 7.163867 11.423828 7.4861326L10.392578 7.4861326L10.667969 3.0447264L15.361328 3.0447264L15.361328 3.9412107L11.628906 3.9412107L11.470703 6.5603514Q12.15625 6.0330076 13.175781 6.0330076Q14.394531 6.0330076 15.118164 6.7478514Q15.841797 7.4626951 15.841797 8.6111326Z"/>
	</g>
	<path fill="none" stroke="black" stroke-width="1" stroke-miterlimit="10" stroke-opacity="0.10196079" d="M53.5 71L53.5 750"/>
	<clipPath id="cl_4ab">
		<rect width="53.080002" height="800"/>
	</clipPath>
	<g clip-path="url(#cl_4ab)">
		<path fill="#666" transform="translate(42.08 749.2)" d="M-0.46679688 -0.030273438Q-0.46679688 2.0380859 -1.1962891 3.1279297Q-1.9257812 4.2177734 -3.3496094 4.2177734Q-4.7734375 4.2177734 -5.4882812 3.1337891Q-6.203125 2.0498047 -6.203125 -0.030273438Q-6.203125 -2.1572266 -5.5087891 -3.2177734Q-4.8144531 -4.2783203 -3.3144531 -4.2783203Q-1.8554688 -4.2783203 -1.1611328 -3.2060547Q-0.46679688 -2.1337891 -0.46679688 -0.030273438ZM-1.5390625 -0.030273438Q-1.5390625 -1.8173828 -1.9521484 -2.6201172Q-2.3652344 -3.4228516 -3.3144531 -3.4228516Q-4.2871094 -3.4228516 -4.7119141 -2.6318359Q-5.1367188 -1.8408203 -5.1367188 -0.030273438Q-5.1367188 1.7275391 -4.7060547 2.5419922Q-4.2753906 3.3564453 -3.3378906 3.3564453Q-2.40625 3.3564453 -1.9726562 2.5244141Q-1.5390625 1.6923828 -1.5390625 -0.030273438Z"/>
	</g>
	<clipPath id="cl_4ac">
		<rect width="53.080002" height="800"/>
	</clipPath>
	<g clip-path="url(#cl_4ac)">
		<path fill="#666" transform="translate(42.08 664.45)" d="M-10.474609 -0.030273438Q-10.474609 2.0380859 -11.204102 3.1279297Q-11.933594 4.2177734 -13.357422 4.2177734Q-14.78125 4.2177734 -15.496094 3.1337891Q-16.210938 2.0498047 -16.210938 -0.030273438Q-16.210938 -2.1572266 -15.516602 -3.2177734Q-14.822266 -4.2783203 -13.322266 -4.2783203Q-11.863281 -4.2783203 -11.168945 -3.2060547Q-10.474609 -2.1337891 -10.474609 -0.030273438ZM-11.546875 -0.030273438Q-11.546875 -1.8173828 -11.959961 -2.6201172Q-12.373047 -3.4228516 -13.322266 -3.4228516Q-14.294922 -3.4228516 -14.719727 -2.6318359Q-15.144531 -1.8408203 -15.144531 -0.030273438Q-15.144531 1.7275391 -14.713867 2.5419922Q-14.283203 3.3564453 -13.345703 3.3564453Q-12.414062 3.3564453 -11.980469 2.5244141Q-11.546875 1.6923828 -11.546875 -0.030273438ZM-8.9101562 4.1005859L-8.9101562 2.8173828L-7.7675781 2.8173828L-7.7675781 4.1005859L-8.9101562 4.1005859ZM-0.50195312 1.4111328Q-0.50195312 2.7177734 -1.2783203 3.4677734Q-2.0546875 4.2177734 -3.4316406 4.2177734Q-4.5859375 4.2177734 -5.2949219 3.7138672Q-6.0039062 3.2099609 -6.1914062 2.2548828L-5.125 2.1318359Q-4.7910156 3.3564453 -3.4082031 3.3564453Q-2.5585938 3.3564453 -2.078125 2.84375Q-1.5976562 2.3310547 -1.5976562 1.4345703Q-1.5976562 0.65527344 -2.0810547 0.17480469Q-2.5644531 -0.30566406 -3.3847656 -0.30566406Q-3.8125 -0.30566406 -4.1816406 -0.17089844Q-4.5507812 -0.036132812 -4.9199219 0.28613281L-5.9511719 0.28613281L-5.6757812 -4.1552734L-0.98242188 -4.1552734L-0.98242188 -3.2587891L-4.7148438 -3.2587891L-4.8730469 -0.63964844Q-4.1875 -1.1669922 -3.1679688 -1.1669922Q-1.9492188 -1.1669922 -1.2255859 -0.45214844Q-0.50195312 0.26269531 -0.50195312 1.4111328Z"/>
	</g>
	<clipPath id="cl_4ad">
		<rect width="53.080002" height="800"/>
	</clipPath>
	<g clip-path="url(#cl_4ad)">
		<path fill="#666" transform="translate(42.08 579.7)" d="M-15.765625 4.1005859L-15.765625 3.2041016L-13.662109 3.2041016L-13.662109 -3.1474609L-15.525391 -1.8173828L-15.525391 -2.8134766L-13.574219 -4.1552734L-12.601562 -4.1552734L-12.601562 3.2041016L-10.591797 3.2041016L-10.591797 4.1005859L-15.765625 4.1005859ZM-8.9101562 4.1005859L-8.9101562 2.8173828L-7.7675781 2.8173828L-7.7675781 4.1005859L-8.9101562 4.1005859ZM-0.46679688 -0.030273438Q-0.46679688 2.0380859 -1.1962891 3.1279297Q-1.9257812 4.2177734 -3.3496094 4.2177734Q-4.7734375 4.2177734 -5.4882812 3.1337891Q-6.203125 2.0498047 -6.203125 -0.030273438Q-6.203125 -2.1572266 -5.5087891 -3.2177734Q-4.8144531 -4.2783203 -3.3144531 -4.2783203Q-1.8554688 -4.2783203 -1.1611328 -3.2060547Q-0.46679688 -2.1337891 -0.46679688 -0.030273438ZM-1.5390625 -0.030273438Q-1.5390625 -1.8173828 -1.9521484 -2.6201172Q-2.3652344 -3.4228516 -3.3144531 -3.4228516Q-4.2871094 -3.4228516 -4.7119141 -2.6318359Q-5.1367188 -1.8408203 -5.1367188 -0.030273438Q-5.1367188 1.7275391 -4.7060547 2.5419922Q-4.2753906 3.3564453 -3.3378906 3.3564453Q-2.40625 3.3564453 -1.9726562 2.5244141Q-1.5390625 1.6923828 -1.5390625 -0.030273438Z"/>
	</g>
	<clipPath id="cl_4ae">
		<rect width="53.080002" height="800"/>
	</clipPath>
	<g clip-path="url(#cl_4ae)">
		<path fill="#666" transform="translate(42.08 494.95)" d="M-15.765625 4.1005859L-15.765625 3.2041016L-13.662109 3.2041016L-13.662109 -3.1474609L-15.525391 -1.8173828L-15.525391 -2.8134766L-13.574219 -4.1552734L-12.601562 -4.1552734L-12.601562 3.2041016L-10.591797 3.2041016L-10.591797 4.1005859L-15.765625 4.1005859ZM-8.9101562 4.1005859L-8.9101562 2.8173828L-7.7675781 2.8173828L-7.7675781 4.1005859L-8.9101562 4.1005859ZM-0.50195312 1.4111328Q-0.50195312 2.7177734 -1.2783203 3.4677734Q-2.0546875 4.2177734 -3.4316406 4.2177734Q-4.5859375 4.2177734 -5.2949219 3.7138672Q-6.0039062 3.2099609 -6.1914062 2.2548828L-5.125 2.1318359Q-4.7910156 3.3564453 -3.4082031 3.3564453Q-2.5585938 3.3564453 -2.078125 2.84375Q-1.5976562 2.3310547 -1.5976562 1.4345703Q-1.5976562 0.65527344 -2.0810547 0.17480469Q-2.5644531 -0.30566406 -3.3847656 -0.30566406Q-3.8125 -0.30566406 -4.1816406 -0.17089844Q-4.5507812 -0.036132812 -4.9199219 0.28613281L-5.9511719 0.28613281L-5.6757812 -4.1552734L-0.98242188 -4.1552734L-0.98242188 -3.2587891L-4.7148438 -3.2587891L-4.8730469 -0.63964844Q-4.1875 -1.1669922 -3.1679688 -1.1669922Q-1.9492188 -1.1669922 -1.2255859 -0.45214844Q-0.50195312 0.26269531 -0.50195312 1.4111328Z"/>
	</g>
	<clipPath id="cl_4af">
		<rect width="53.080002" height="800"/>
	</clipPath>
	<g clip-path="url(#cl_4af)">
		<path fill="#666" transform="translate(42.08 410.2)" d="M-16.076172 4.1005859L-16.076172 3.3564453Q-15.777344 2.6708984 -15.34668 2.1464844Q-14.916016 1.6220703 -14.441406 1.1972656Q-13.966797 0.77246094 -13.500977 0.40917969Q-13.035156 0.045898438 -12.660156 -0.31738281Q-12.285156 -0.68066406 -12.053711 -1.0791016Q-11.822266 -1.4775391 -11.822266 -1.9814453Q-11.822266 -2.6611328 -12.220703 -3.0361328Q-12.619141 -3.4111328 -13.328125 -3.4111328Q-14.001953 -3.4111328 -14.438477 -3.0449219Q-14.875 -2.6787109 -14.951172 -2.0166016L-16.029297 -2.1162109Q-15.912109 -3.1064453 -15.188477 -3.6923828Q-14.464844 -4.2783203 -13.328125 -4.2783203Q-12.080078 -4.2783203 -11.40918 -3.6894531Q-10.738281 -3.1005859 -10.738281 -2.0166016Q-10.738281 -1.5361328 -10.958008 -1.0615234Q-11.177734 -0.58691406 -11.611328 -0.11230469Q-12.044922 0.36230469 -13.269531 1.3583984Q-13.943359 1.9091797 -14.341797 2.3515625Q-14.740234 2.7939453 -14.916016 3.2041016L-10.609375 3.2041016L-10.609375 4.1005859L-16.076172 4.1005859ZM-8.9101562 4.1005859L-8.9101562 2.8173828L-7.7675781 2.8173828L-7.7675781 4.1005859L-8.9101562 4.1005859ZM-0.46679688 -0.030273438Q-0.46679688 2.0380859 -1.1962891 3.1279297Q-1.9257812 4.2177734 -3.3496094 4.2177734Q-4.7734375 4.2177734 -5.4882812 3.1337891Q-6.203125 2.0498047 -6.203125 -0.030273438Q-6.203125 -2.1572266 -5.5087891 -3.2177734Q-4.8144531 -4.2783203 -3.3144531 -4.2783203Q-1.8554688 -4.2783203 -1.1611328 -3.2060547Q-0.46679688 -2.1337891 -0.46679688 -0.030273438ZM-1.5390625 -0.030273438Q-1.5390625 -1.8173828 -1.9521484 -2.6201172Q-2.3652344 -3.4228516 -3.3144531 -3.4228516Q-4.2871094 -3.4228516 -4.7119141 -2.6318359Q-5.1367188 -1.8408203 -5.1367188 -0.030273438Q-5.1367188 1.7275391 -4.7060547 2.5419922Q-4.2753906 3.3564453 -3.3378906 3.3564453Q-2.40625 3.3564453 -1.9726562 2.5244141Q-1.5390625 1.6923828 -1.5390625 -0.030273438Z"/>
	</g>
	<clipPath id="cl_4b0">
		<rect width="53.080002" height="800"/>
	</clipPath>
	<g clip-path="url(#cl_4b0)">
		<path fill="#666" transform="translate(42.08 325.45)" d="M-16.076172 4.1005859L-16.076172 3.3564453Q-15.777344 2.6708984 -15.34668 2.1464844Q-14.916016 1.6220703 -14.441406 1.1972656Q-13.966797 0.77246094 -13.500977 0.40917969Q-13.035156 0.045898438 -12.660156 -0.31738281Q-12.285156 -0.68066406 -12.053711 -1.0791016Q-11.822266 -1.4775391 -11.822266 -1.9814453Q-11.822266 -2.6611328 -12.220703 -3.0361328Q-12.619141 -3.4111328 -13.328125 -3.4111328Q-14.001953 -3.4111328 -14.438477 -3.0449219Q-14.875 -2.6787109 -14.951172 -2.0166016L-16.029297 -2.1162109Q-15.912109 -3.1064453 -15.188477 -3.6923828Q-14.464844 -4.2783203 -13.328125 -4.2783203Q-12.080078 -4.2783203 -11.40918 -3.6894531Q-10.738281 -3.1005859 -10.738281 -2.0166016Q-10.738281 -1.5361328 -10.958008 -1.0615234Q-11.177734 -0.58691406 -11.611328 -0.11230469Q-12.044922 0.36230469 -13.269531 1.3583984Q-13.943359 1.9091797 -14.341797 2.3515625Q-14.740234 2.7939453 -14.916016 3.2041016L-10.609375 3.2041016L-10.609375 4.1005859L-16.076172 4.1005859ZM-8.9101562 4.1005859L-8.9101562 2.8173828L-7.7675781 2.8173828L-7.7675781 4.1005859L-8.9101562 4.1005859ZM-0.50195312 1.4111328Q-0.50195312 2.7177734 -1.2783203 3.4677734Q-2.0546875 4.2177734 -3.4316406 4.2177734Q-4.5859375 4.2177734 -5.2949219 3.7138672Q-6.0039062 3.2099609 -6.1914062 2.2548828L-5.125 2.1318359Q-4.7910156 3.3564453 -3.4082031 3.3564453Q-2.5585938 3.3564453 -2.078125 2.84375Q-1.5976562 2.3310547 -1.5976562 1.4345703Q-1.5976562 0.65527344 -2.0810547 0.17480469Q-2.5644531 -0.30566406 -3.3847656 -0.30566406Q-3.8125 -0.30566406 -4.1816406 -0.17089844Q-4.5507812 -0.036132812 -4.9199219 0.28613281L-5.9511719 0.28613281L-5.6757812 -4.1552734L-0.98242188 -4.1552734L-0.98242188 -3.2587891L-4.7148438 -3.2587891L-4.8730469 -0.63964844Q-4.1875 -1.1669922 -3.1679688 -1.1669922Q-1.9492188 -1.1669922 -1.2255859 -0.45214844Q-0.50195312 0.26269531 -0.50195312 1.4111328Z"/>
	</g>
	<clipPath id="cl_4b1">
		<rect width="53.080002" height="800"/>
	</clipPath>
	<g clip-path="url(#cl_4b1)">
		<path fill="#666" transform="translate(42.08 240.7)" d="M-10.533203 1.8212891Q-10.533203 2.9638672 -11.259766 3.5908203Q-11.986328 4.2177734 -13.333984 4.2177734Q-14.587891 4.2177734 -15.334961 3.6523438Q-16.082031 3.0869141 -16.222656 1.9794922L-15.132812 1.8798828Q-14.921875 3.3447266 -13.333984 3.3447266Q-12.537109 3.3447266 -12.083008 2.9521484Q-11.628906 2.5595703 -11.628906 1.7861328Q-11.628906 1.1123047 -12.147461 0.734375Q-12.666016 0.35644531 -13.644531 0.35644531L-14.242188 0.35644531L-14.242188 -0.55761719L-13.667969 -0.55761719Q-12.800781 -0.55761719 -12.323242 -0.93554688Q-11.845703 -1.3134766 -11.845703 -1.9814453Q-11.845703 -2.6435547 -12.235352 -3.0273438Q-12.625 -3.4111328 -13.392578 -3.4111328Q-14.089844 -3.4111328 -14.520508 -3.0537109Q-14.951172 -2.6962891 -15.021484 -2.0458984L-16.082031 -2.1279297Q-15.964844 -3.1416016 -15.241211 -3.7099609Q-14.517578 -4.2783203 -13.380859 -4.2783203Q-12.138672 -4.2783203 -11.450195 -3.7011719Q-10.761719 -3.1240234 -10.761719 -2.0927734Q-10.761719 -1.3017578 -11.204102 -0.80664062Q-11.646484 -0.31152344 -12.490234 -0.13574219L-12.490234 -0.11230469Q-11.564453 -0.012695312 -11.048828 0.50878906Q-10.533203 1.0302734 -10.533203 1.8212891ZM-8.9101562 4.1005859L-8.9101562 2.8173828L-7.7675781 2.8173828L-7.7675781 4.1005859L-8.9101562 4.1005859ZM-0.46679688 -0.030273438Q-0.46679688 2.0380859 -1.1962891 3.1279297Q-1.9257812 4.2177734 -3.3496094 4.2177734Q-4.7734375 4.2177734 -5.4882812 3.1337891Q-6.203125 2.0498047 -6.203125 -0.030273438Q-6.203125 -2.1572266 -5.5087891 -3.2177734Q-4.8144531 -4.2783203 -3.3144531 -4.2783203Q-1.8554688 -4.2783203 -1.1611328 -3.2060547Q-0.46679688 -2.1337891 -0.46679688 -0.030273438ZM-1.5390625 -0.030273438Q-1.5390625 -1.8173828 -1.9521484 -2.6201172Q-2.3652344 -3.4228516 -3.3144531 -3.4228516Q-4.2871094 -3.4228516 -4.7119141 -2.6318359Q-5.1367188 -1.8408203 -5.1367188 -0.030273438Q-5.1367188 1.7275391 -4.7060547 2.5419922Q-4.2753906 3.3564453 -3.3378906 3.3564453Q-2.40625 3.3564453 -1.9726562 2.5244141Q-1.5390625 1.6923828 -1.5390625 -0.030273438Z"/>
	</g>
	<clipPath id="cl_4b2">
		<rect width="53.080002" height="800"/>
	</clipPath>
	<g clip-path="url(#cl_4b2)">
		<path fill="#666" transform="translate(42.08 155.95)" d="M-10.533203 1.8212891Q-10.533203 2.9638672 -11.259766 3.5908203Q-11.986328 4.2177734 -13.333984 4.2177734Q-14.587891 4.2177734 -15.334961 3.6523438Q-16.082031 3.0869141 -16.222656 1.9794922L-15.132812 1.8798828Q-14.921875 3.3447266 -13.333984 3.3447266Q-12.537109 3.3447266 -12.083008 2.9521484Q-11.628906 2.5595703 -11.628906 1.7861328Q-11.628906 1.1123047 -12.147461 0.734375Q-12.666016 0.35644531 -13.644531 0.35644531L-14.242188 0.35644531L-14.242188 -0.55761719L-13.667969 -0.55761719Q-12.800781 -0.55761719 -12.323242 -0.93554688Q-11.845703 -1.3134766 -11.845703 -1.9814453Q-11.845703 -2.6435547 -12.235352 -3.0273438Q-12.625 -3.4111328 -13.392578 -3.4111328Q-14.089844 -3.4111328 -14.520508 -3.0537109Q-14.951172 -2.6962891 -15.021484 -2.0458984L-16.082031 -2.1279297Q-15.964844 -3.1416016 -15.241211 -3.7099609Q-14.517578 -4.2783203 -13.380859 -4.2783203Q-12.138672 -4.2783203 -11.450195 -3.7011719Q-10.761719 -3.1240234 -10.761719 -2.0927734Q-10.761719 -1.3017578 -11.204102 -0.80664062Q-11.646484 -0.31152344 -12.490234 -0.13574219L-12.490234 -0.11230469Q-11.564453 -0.012695312 -11.048828 0.50878906Q-10.533203 1.0302734 -10.533203 1.8212891ZM-8.9101562 4.1005859L-8.9101562 2.8173828L-7.7675781 2.8173828L-7.7675781 4.1005859L-8.9101562 4.1005859ZM-0.50195312 1.4111328Q-0.50195312 2.7177734 -1.2783203 3.4677734Q-2.0546875 4.2177734 -3.4316406 4.2177734Q-4.5859375 4.2177734 -5.2949219 3.7138672Q-6.0039062 3.2099609 -6.1914062 2.2548828L-5.125 2.1318359Q-4.7910156 3.3564453 -3.4082031 3.3564453Q-2.5585938 3.3564453 -2.078125 2.84375Q-1.5976562 2.3310547 -1.5976562 1.4345703Q-1.5976562 0.65527344 -2.0810547 0.17480469Q-2.5644531 -0.30566406 -3.3847656 -0.30566406Q-3.8125 -0.30566406 -4.1816406 -0.17089844Q-4.5507812 -0.036132812 -4.9199219 0.28613281L-5.9511719 0.28613281L-5.6757812 -4.1552734L-0.98242188 -4.1552734L-0.98242188 -3.2587891L-4.7148438 -3.2587891L-4.8730469 -0.63964844Q-4.1875 -1.1669922 -3.1679688 -1.1669922Q-1.9492188 -1.1669922 -1.2255859 -0.45214844Q-0.50195312 0.26269531 -0.50195312 1.4111328Z"/>
	</g>
	<clipPath id="cl_4b3">
		<rect width="53.080002" height="800"/>
	</clipPath>
	<g clip-path="url(#cl_4b3)">
		<path fill="#666" transform="translate(42.08 71.2)" d="M-11.517578 2.2314453L-11.517578 4.1005859L-12.513672 4.1005859L-12.513672 2.2314453L-16.404297 2.2314453L-16.404297 1.4111328L-12.625 -4.1552734L-11.517578 -4.1552734L-11.517578 1.3994141L-10.357422 1.3994141L-10.357422 2.2314453L-11.517578 2.2314453ZM-12.513672 -2.9658203Q-12.525391 -2.9306641 -12.677734 -2.6552734Q-12.830078 -2.3798828 -12.90625 -2.2685547L-15.021484 0.84863281L-15.337891 1.2822266L-15.431641 1.3994141L-12.513672 1.3994141L-12.513672 -2.9658203ZM-8.9101562 4.1005859L-8.9101562 2.8173828L-7.7675781 2.8173828L-7.7675781 4.1005859L-8.9101562 4.1005859ZM-0.46679688 -0.030273438Q-0.46679688 2.0380859 -1.1962891 3.1279297Q-1.9257812 4.2177734 -3.3496094 4.2177734Q-4.7734375 4.2177734 -5.4882812 3.1337891Q-6.203125 2.0498047 -6.203125 -0.030273438Q-6.203125 -2.1572266 -5.5087891 -3.2177734Q-4.8144531 -4.2783203 -3.3144531 -4.2783203Q-1.8554688 -4.2783203 -1.1611328 -3.2060547Q-0.46679688 -2.1337891 -0.46679688 -0.030273438ZM-1.5390625 -0.030273438Q-1.5390625 -1.8173828 -1.9521484 -2.6201172Q-2.3652344 -3.4228516 -3.3144531 -3.4228516Q-4.2871094 -3.4228516 -4.7119141 -2.6318359Q-5.1367188 -1.8408203 -5.1367188 -0.030273438Q-5.1367188 1.7275391 -4.7060547 2.5419922Q-4.2753906 3.3564453 -3.3378906 3.3564453Q-2.40625 3.3564453 -1.9726562 2.5244141Q-1.5390625 1.6923828 -1.5390625 -0.030273438Z"/>
	</g>
	<clipPath id="cl_4b6">
		<rect x="185.6488" y="71.199997" width="681.78241" height="677.5"/>
	</clipPath>
	<g clip-path="url(#cl_4b6)">
		<path fill="#36A2EB" d="M185.6488 71.199997L867.43121 71.199997L867.43121 748.70001L185.6488 748.70001L185.6488 71.199997ZM186.6488 72.199997L866.43121 72.199997L866.43121 748.70001L186.6488 748.70001L186.6488 72.199997Z" fill-rule="evenodd"/>
		<path fill="#36A2EB" fill-opacity="0.80000001" d="M186.6488 72.199997L866.43121 72.199997L866.43121 748.70001L186.6488 748.70001L186.6488 72.199997Z"/>
	</g>
</svg>
