<?xml version="1.0" encoding="utf-8" ?>
<svg xmlns="http://www.w3.org/2000/svg" xmlns:xlink="http://www.w3.org/1999/xlink" width="1200" height="800">
	<rect fill="white" width="1200" height="800"/>
	<path fill="none" stroke="black" stroke-width="1" stroke-miterlimit="10" stroke-opacity="0.10196079" d="M49.5 71.199997L49.5 749"/>
	<path fill="none" stroke="black" stroke-width="1" stroke-miterlimit="10" stroke-opacity="0.10196079" d="M49.5 750L49.5 757.20001"/>
	<path fill="#666" transform="translate(621.875 788.8)" d="M-26.550781 4.1005859L-28.695312 0.67285156L-31.267578 0.67285156L-31.267578 4.1005859L-32.386719 4.1005859L-32.386719 -4.1552734L-28.501953 -4.1552734Q-27.107422 -4.1552734 -26.348633 -3.53125Q-25.589844 -2.9072266 -25.589844 -1.7939453Q-25.589844 -0.87402344 -26.125977 -0.24707031Q-26.662109 0.37988281 -27.605469 0.54394531L-25.261719 4.1005859L-26.550781 4.1005859ZM-26.714844 -1.7822266Q-26.714844 -2.5029297 -27.204102 -2.8808594Q-27.693359 -3.2587891 -28.613281 -3.2587891L-31.267578 -3.2587891L-31.267578 -0.21191406L-28.566406 -0.21191406Q-27.681641 -0.21191406 -27.198242 -0.625Q-26.714844 -1.0380859 -26.714844 -1.7822266ZM-23.087891 1.1533203Q-23.087891 2.2431641 -22.636719 2.8349609Q-22.185547 3.4267578 -21.318359 3.4267578Q-20.632812 3.4267578 -20.219727 3.1513672Q-19.806641 2.8759766 -19.660156 2.4541016L-18.734375 2.7177734Q-19.302734 4.2177734 -21.318359 4.2177734Q-22.724609 4.2177734 -23.459961 3.3798828Q-24.195312 2.5419922 -24.195312 0.88964844Q-24.195312 -0.68066406 -23.459961 -1.5185547Q-22.724609 -2.3564453 -21.359375 -2.3564453Q-18.564453 -2.3564453 -18.564453 1.0126953L-18.564453 1.1533203L-23.087891 1.1533203ZM-19.654297 0.34472656Q-19.742188 -0.65722656 -20.164062 -1.1171875Q-20.585938 -1.5771484 -21.376953 -1.5771484Q-22.144531 -1.5771484 -22.592773 -1.0644531Q-23.041016 -0.55175781 -23.076172 0.34472656L-19.654297 0.34472656ZM-17.222656 4.1005859L-17.222656 -4.5947266L-16.167969 -4.5947266L-16.167969 4.1005859L-17.222656 4.1005859ZM-13.748047 1.1533203Q-13.748047 2.2431641 -13.296875 2.8349609Q-12.845703 3.4267578 -11.978516 3.4267578Q-11.292969 3.4267578 -10.879883 3.1513672Q-10.466797 2.8759766 -10.320312 2.4541016L-9.3945312 2.7177734Q-9.9628906 4.2177734 -11.978516 4.2177734Q-13.384766 4.2177734 -14.120117 3.3798828Q-14.855469 2.5419922 -14.855469 0.88964844Q-14.855469 -0.68066406 -14.120117 -1.5185547Q-13.384766 -2.3564453 -12.019531 -2.3564453Q-9.2246094 -2.3564453 -9.2246094 1.0126953L-9.2246094 1.1533203L-13.748047 1.1533203ZM-10.314453 0.34472656Q-10.402344 -0.65722656 -10.824219 -1.1171875Q-11.246094 -1.5771484 -12.037109 -1.5771484Q-12.804688 -1.5771484 -13.25293 -1.0644531Q-13.701172 -0.55175781 -13.736328 0.34472656L-10.314453 0.34472656ZM-6.265625 4.2177734Q-7.2207031 4.2177734 -7.7011719 3.7138672Q-8.1816406 3.2099609 -8.1816406 2.3310547Q-8.1816406 1.3466797 -7.5341797 0.81933594Q-6.8867188 0.29199219 -5.4453125 0.25683594L-4.0214844 0.23339844L-4.0214844 -0.11230469Q-4.0214844 -0.88574219 -4.3496094 -1.2197266Q-4.6777344 -1.5537109 -5.3808594 -1.5537109Q-6.0898438 -1.5537109 -6.4121094 -1.3134766Q-6.734375 -1.0732422 -6.7988281 -0.54589844L-7.9003906 -0.64550781Q-7.6308594 -2.3564453 -5.3574219 -2.3564453Q-4.1621094 -2.3564453 -3.5585938 -1.8085938Q-2.9550781 -1.2607422 -2.9550781 -0.22363281L-2.9550781 2.5068359Q-2.9550781 2.9755859 -2.8320312 3.2128906Q-2.7089844 3.4501953 -2.3632812 3.4501953Q-2.2109375 3.4501953 -2.0175781 3.4091797L-2.0175781 4.0654297Q-2.4160156 4.1591797 -2.8320312 4.1591797Q-3.4179688 4.1591797 -3.6845703 3.8515625Q-3.9511719 3.5439453 -3.9863281 2.8876953L-4.0214844 2.8876953Q-4.4257812 3.6142578 -4.9619141 3.9160156Q-5.4980469 4.2177734 -6.265625 4.2177734ZM-6.0253906 3.4267578Q-5.4453125 3.4267578 -4.9941406 3.1630859Q-4.5429688 2.8994141 -4.2822266 2.4394531Q-4.0214844 1.9794922 -4.0214844 1.4931641L-4.0214844 0.97167969L-5.1757812 0.99511719Q-5.9199219 1.0068359 -6.3037109 1.1474609Q-6.6875 1.2880859 -6.8925781 1.5810547Q-7.0976562 1.8740234 -7.0976562 2.3486328Q-7.0976562 2.8642578 -6.8193359 3.1455078Q-6.5410156 3.4267578 -6.0253906 3.4267578ZM3.5488281 2.3486328Q3.5488281 3.2451172 2.8720703 3.7314453Q2.1953125 4.2177734 0.9765625 4.2177734Q-0.20703125 4.2177734 -0.84863281 3.828125Q-1.4902344 3.4384766 -1.6835938 2.6123047L-0.75195312 2.4306641Q-0.6171875 2.9404297 -0.1953125 3.1777344Q0.2265625 3.4150391 0.9765625 3.4150391Q1.7792969 3.4150391 2.1513672 3.1689453Q2.5234375 2.9228516 2.5234375 2.4306641Q2.5234375 2.0556641 2.265625 1.8212891Q2.0078125 1.5869141 1.4335938 1.4345703L0.67773438 1.2353516Q-0.23046875 1.0009766 -0.61425781 0.77539062Q-0.99804688 0.54980469 -1.2148438 0.22753906Q-1.4316406 -0.094726562 -1.4316406 -0.56347656Q-1.4316406 -1.4306641 -0.81347656 -1.8847656Q-0.1953125 -2.3388672 0.98828125 -2.3388672Q2.0371094 -2.3388672 2.6552734 -1.9697266Q3.2734375 -1.6005859 3.4375 -0.78613281L2.4882812 -0.66894531Q2.4003906 -1.0908203 2.0166016 -1.3164062Q1.6328125 -1.5419922 0.98828125 -1.5419922Q0.2734375 -1.5419922 -0.06640625 -1.3251953Q-0.40625 -1.1083984 -0.40625 -0.66894531Q-0.40625 -0.39941406 -0.265625 -0.22363281Q-0.125 -0.047851562 0.15039062 0.075195312Q0.42578125 0.19824219 1.3105469 0.41503906Q2.1484375 0.62597656 2.5175781 0.8046875Q2.8867188 0.98339844 3.1005859 1.2001953Q3.3144531 1.4169922 3.4316406 1.7011719Q3.5488281 1.9853516 3.5488281 2.3486328ZM5.5996094 1.1533203Q5.5996094 2.2431641 6.0507812 2.8349609Q6.5019531 3.4267578 7.3691406 3.4267578Q8.0546875 3.4267578 8.4677734 3.1513672Q8.8808594 2.8759766 9.0273438 2.4541016L9.953125 2.7177734Q9.3847656 4.2177734 7.3691406 4.2177734Q5.9628906 4.2177734 5.2275391 3.3798828Q4.4921875 2.5419922 4.4921875 0.88964844Q4.4921875 -0.68066406 5.2275391 -1.5185547Q5.9628906 -2.3564453 7.328125 -2.3564453Q10.123047 -2.3564453 10.123047 1.0126953L10.123047 1.1533203L5.5996094 1.1533203ZM9.0332031 0.34472656Q8.9453125 -0.65722656 8.5234375 -1.1171875Q8.1015625 -1.5771484 7.3105469 -1.5771484Q6.5429688 -1.5771484 6.0947266 -1.0644531Q5.6464844 -0.55175781 5.6113281 0.34472656L9.0332031 0.34472656ZM17.992188 -3.2412109L17.992188 4.1005859L16.878906 4.1005859L16.878906 -3.2412109L14.042969 -3.2412109L14.042969 -4.1552734L20.828125 -4.1552734L20.828125 -3.2412109L17.992188 -3.2412109ZM22.199219 4.2177734Q21.244141 4.2177734 20.763672 3.7138672Q20.283203 3.2099609 20.283203 2.3310547Q20.283203 1.3466797 20.930664 0.81933594Q21.578125 0.29199219 23.019531 0.25683594L24.443359 0.23339844L24.443359 -0.11230469Q24.443359 -0.88574219 24.115234 -1.2197266Q23.787109 -1.5537109 23.083984 -1.5537109Q22.375 -1.5537109 22.052734 -1.3134766Q21.730469 -1.0732422 21.666016 -0.54589844L20.564453 -0.64550781Q20.833984 -2.3564453 23.107422 -2.3564453Q24.302734 -2.3564453 24.90625 -1.8085938Q25.509766 -1.2607422 25.509766 -0.22363281L25.509766 2.5068359Q25.509766 2.9755859 25.632812 3.2128906Q25.755859 3.4501953 26.101562 3.4501953Q26.253906 3.4501953 26.447266 3.4091797L26.447266 4.0654297Q26.048828 4.1591797 25.632812 4.1591797Q25.046875 4.1591797 24.780273 3.8515625Q24.513672 3.5439453 24.478516 2.8876953L24.443359 2.8876953Q24.039062 3.6142578 23.50293 3.9160156Q22.966797 4.2177734 22.199219 4.2177734ZM22.439453 3.4267578Q23.019531 3.4267578 23.470703 3.1630859Q23.921875 2.8994141 24.182617 2.4394531Q24.443359 1.9794922 24.443359 1.4931641L24.443359 0.97167969L23.289062 0.99511719Q22.544922 1.0068359 22.161133 1.1474609Q21.777344 1.2880859 21.572266 1.5810547Q21.367188 1.8740234 21.367188 2.3486328Q21.367188 2.8642578 21.645508 3.1455078Q21.923828 3.4267578 22.439453 3.4267578ZM29.658203 6.5908203Q28.621094 6.5908203 28.005859 6.1835938Q27.390625 5.7763672 27.214844 5.0263672L28.275391 4.8740234Q28.380859 5.3134766 28.741211 5.5507812Q29.101562 5.7880859 29.6875 5.7880859Q31.263672 5.7880859 31.263672 3.9423828L31.263672 2.9228516L31.251953 2.9228516Q30.953125 3.5322266 30.431641 3.8398438Q29.910156 4.1474609 29.212891 4.1474609Q28.046875 4.1474609 27.499023 3.3740234Q26.951172 2.6005859 26.951172 0.94238281Q26.951172 -0.73925781 27.540039 -1.5390625Q28.128906 -2.3388672 29.330078 -2.3388672Q30.003906 -2.3388672 30.499023 -2.03125Q30.994141 -1.7236328 31.263672 -1.1552734L31.275391 -1.1552734Q31.275391 -1.3310547 31.298828 -1.7646484Q31.322266 -2.1982422 31.345703 -2.2392578L32.347656 -2.2392578Q32.3125 -1.9228516 32.3125 -0.92675781L32.3125 3.9189453Q32.3125 6.5908203 29.658203 6.5908203ZM31.263672 0.93066406Q31.263672 0.15722656 31.052734 -0.40234375Q30.841797 -0.96191406 30.458008 -1.2578125Q30.074219 -1.5537109 29.587891 -1.5537109Q28.779297 -1.5537109 28.410156 -0.96777344Q28.041016 -0.38183594 28.041016 0.93066406Q28.041016 2.2314453 28.386719 2.7998047Q28.732422 3.3681641 29.570312 3.3681641Q30.068359 3.3681641 30.455078 3.0751953Q30.841797 2.7822266 31.052734 2.234375Q31.263672 1.6865234 31.263672 0.93066406Z"/>
	<path fill="none" stroke="black" stroke-width="1" stroke-miterlimit="10" stroke-opacity="0.10196079" d="M50 749.5L1194 749.5"/>
	<path fill="none" stroke="black" stroke-width="1" stroke-miterlimit="10" stroke-opacity="0.10196079" d="M41.75 749.5L49 749.5"/>
	<path fill="none" stroke="black" stroke-width="1" stroke-miterlimit="10" stroke-opacity="0.10196079" d="M50 681.5L1194 681.5"/>
	<path fill="none" stroke="black" stroke-width="1" stroke-miterlimit="10" stroke-opacity="0.10196079" d="M41.75 681.5L49 681.5"/>
	<path fill="none" stroke="black" stroke-width="1" stroke-miterlimit="10" stroke-opacity="0.10196079" d="M50 613.5L1194 613.5"/>
	<path fill="none" stroke="black" stroke-width="1" stroke-miterlimit="10" stroke-opacity="0.10196079" d="M41.75 613.5L49 613.5"/>
	<path fill="none" stroke="black" stroke-width="1" stroke-miterlimit="10" stroke-opacity="0.10196079" d="M50 545.5L1194 545.5"/>
	<path fill="none" stroke="black" stroke-width="1" stroke-miterlimit="10" stroke-opacity="0.10196079" d="M41.75 545.5L49 545.5"/>
	<path fill="none" stroke="black" stroke-width="1" stroke-miterlimit="10" stroke-opacity="0.10196079" d="M50 478.5L1194 478.5"/>
	<path fill="none" stroke="black" stroke-width="1" stroke-miterlimit="10" stroke-opacity="0.10196079" d="M41.75 478.5L49 478.5"/>
	<path fill="none" stroke="black" stroke-width="1" stroke-miterlimit="10" stroke-opacity="0.10196079" d="M50 410.5L1194 410.5"/>
	<path fill="none" stroke="black" stroke-width="1" stroke-miterlimit="10" stroke-opacity="0.10196079" d="M41.75 410.5L49 410.5"/>
	<path fill="none" stroke="black" stroke-width="1" stroke-miterlimit="10" stroke-opacity="0.10196079" d="M50 342.5L1194 342.5"/>
	<path fill="none" stroke="black" stroke-width="1" stroke-miterlimit="10" stroke-opacity="0.10196079" d="M41.75 342.5L49 342.5"/>
	<path fill="none" stroke="black" stroke-width="1" stroke-miterlimit="10" stroke-opacity="0.10196079" d="M50 274.5L1194 274.5"/>
	<path fill="none" stroke="black" stroke-width="1" stroke-miterlimit="10" stroke-opacity="0.10196079" d="M41.75 274.5L49 274.5"/>
	<path fill="none" stroke="black" stroke-width="1" stroke-miterlimit="10" stroke-opacity="0.10196079" d="M50 206.5L1194 206.5"/>
	<path fill="none" stroke="black" stroke-width="1" stroke-miterlimit="10" stroke-opacity="0.10196079" d="M41.75 206.5L49 206.5"/>
	<path fill="none" stroke="black" stroke-width="1" stroke-miterlimit="10" stroke-opacity="0.10196079" d="M50 139.5L1194 139.5"/>
	<path fill="none" stroke="black" stroke-width="1" stroke-miterlimit="10" stroke-opacity="0.10196079" d="M41.75 139.5L49 139.5"/>
	<path fill="none" stroke="black" stroke-width="1" stroke-miterlimit="10" stroke-opacity="0.10196079" d="M50 71.5L1194 71.5"/>
	<path fill="none" stroke="black" stroke-width="1" stroke-miterlimit="10" stroke-opacity="0.10196079" d="M41.75 71.5L49 71.5"/>
	<path fill="#666" transform="matrix(0 -1 1 0 11.2 410.2)" d="M-21.591797 -0.11230469Q-21.591797 1.1650391 -22.089844 2.1230469Q-22.587891 3.0810547 -23.501953 3.5908203Q-24.416016 4.1005859 -25.611328 4.1005859L-28.699219 4.1005859L-28.699219 -4.1552734L-25.96875 -4.1552734Q-23.871094 -4.1552734 -22.731445 -3.1035156Q-21.591797 -2.0517578 -21.591797 -0.11230469ZM-22.716797 -0.11230469Q-22.716797 -1.6474609 -23.557617 -2.453125Q-24.398438 -3.2587891 -25.992188 -3.2587891L-27.580078 -3.2587891L-27.580078 3.2041016L-25.740234 3.2041016Q-24.832031 3.2041016 -24.143555 2.8056641Q-23.455078 2.4072266 -23.085938 1.6572266Q-22.716797 0.90722656 -22.716797 -0.11230469ZM-14.847656 0.92480469Q-14.847656 2.5888672 -15.580078 3.4033203Q-16.3125 4.2177734 -17.707031 4.2177734Q-19.095703 4.2177734 -19.804688 3.3710938Q-20.513672 2.5244141 -20.513672 0.92480469Q-20.513672 -2.3564453 -17.671875 -2.3564453Q-16.21875 -2.3564453 -15.533203 -1.5566406Q-14.847656 -0.75683594 -14.847656 0.92480469ZM-15.955078 0.92480469Q-15.955078 -0.38769531 -16.344727 -0.98242188Q-16.734375 -1.5771484 -17.654297 -1.5771484Q-18.580078 -1.5771484 -18.993164 -0.97070312Q-19.40625 -0.36425781 -19.40625 0.92480469Q-19.40625 2.1787109 -18.999023 2.8085938Q-18.591797 3.4384766 -17.71875 3.4384766Q-16.769531 3.4384766 -16.362305 2.8291016Q-15.955078 2.2197266 -15.955078 0.92480469ZM-7.4648438 4.1005859L-8.6894531 4.1005859L-9.796875 -0.38183594L-10.007812 -1.3720703Q-10.060547 -1.1083984 -10.171875 -0.61328125Q-10.283203 -0.11816406 -11.367188 4.1005859L-12.585938 4.1005859L-14.361328 -2.2392578L-13.318359 -2.2392578L-12.246094 2.0673828Q-12.205078 2.2080078 -11.994141 3.2275391L-11.894531 2.7939453L-10.570312 -2.2392578L-9.4394531 -2.2392578L-8.3320312 2.1142578L-8.0625 3.2275391L-7.8808594 2.4130859L-6.6796875 -2.2392578L-5.6484375 -2.2392578L-7.4648438 4.1005859ZM-0.84375 4.1005859L-0.84375 0.081054688Q-0.84375 -0.54589844 -0.96679688 -0.89160156Q-1.0898438 -1.2373047 -1.359375 -1.3896484Q-1.6289062 -1.5419922 -2.1503906 -1.5419922Q-2.9121094 -1.5419922 -3.3515625 -1.0205078Q-3.7910156 -0.49902344 -3.7910156 0.42675781L-3.7910156 4.1005859L-4.8457031 4.1005859L-4.8457031 -0.88574219Q-4.8457031 -1.9931641 -4.8808594 -2.2392578L-3.8847656 -2.2392578Q-3.8789062 -2.2099609 -3.8730469 -2.0810547Q-3.8671875 -1.9521484 -3.8583984 -1.7851562Q-3.8496094 -1.6181641 -3.8378906 -1.1552734L-3.8203125 -1.1552734Q-3.4570312 -1.8115234 -2.9794922 -2.0839844Q-2.5019531 -2.3564453 -1.7929688 -2.3564453Q-0.75 -2.3564453 -0.26660156 -1.8378906Q0.21679688 -1.3193359 0.21679688 -0.12402344L0.21679688 4.1005859L-0.84375 4.1005859ZM1.8046875 4.1005859L1.8046875 -4.5947266L2.859375 -4.5947266L2.859375 4.1005859L1.8046875 4.1005859ZM9.8320312 0.92480469Q9.8320312 2.5888672 9.0996094 3.4033203Q8.3671875 4.2177734 6.9726562 4.2177734Q5.5839844 4.2177734 4.875 3.3710938Q4.1660156 2.5244141 4.1660156 0.92480469Q4.1660156 -2.3564453 7.0078125 -2.3564453Q8.4609375 -2.3564453 9.1464844 -1.5566406Q9.8320312 -0.75683594 9.8320312 0.92480469ZM8.7246094 0.92480469Q8.7246094 -0.38769531 8.3349609 -0.98242188Q7.9453125 -1.5771484 7.0253906 -1.5771484Q6.0996094 -1.5771484 5.6865234 -0.97070312Q5.2734375 -0.36425781 5.2734375 0.92480469Q5.2734375 2.1787109 5.6806641 2.8085938Q6.0878906 3.4384766 6.9609375 3.4384766Q7.9101562 3.4384766 8.3173828 2.8291016Q8.7246094 2.2197266 8.7246094 0.92480469ZM12.761719 4.2177734Q11.806641 4.2177734 11.326172 3.7138672Q10.845703 3.2099609 10.845703 2.3310547Q10.845703 1.3466797 11.493164 0.81933594Q12.140625 0.29199219 13.582031 0.25683594L15.005859 0.23339844L15.005859 -0.11230469Q15.005859 -0.88574219 14.677734 -1.2197266Q14.349609 -1.5537109 13.646484 -1.5537109Q12.9375 -1.5537109 12.615234 -1.3134766Q12.292969 -1.0732422 12.228516 -0.54589844L11.126953 -0.64550781Q11.396484 -2.3564453 13.669922 -2.3564453Q14.865234 -2.3564453 15.46875 -1.8085938Q16.072266 -1.2607422 16.072266 -0.22363281L16.072266 2.5068359Q16.072266 2.9755859 16.195312 3.2128906Q16.318359 3.4501953 16.664062 3.4501953Q16.816406 3.4501953 17.009766 3.4091797L17.009766 4.0654297Q16.611328 4.1591797 16.195312 4.1591797Q15.609375 4.1591797 15.342773 3.8515625Q15.076172 3.5439453 15.041016 2.8876953L15.005859 2.8876953Q14.601562 3.6142578 14.06543 3.9160156Q13.529297 4.2177734 12.761719 4.2177734ZM13.001953 3.4267578Q13.582031 3.4267578 14.033203 3.1630859Q14.484375 2.8994141 14.745117 2.4394531Q15.005859 1.9794922 15.005859 1.4931641L15.005859 0.97167969L13.851562 0.99511719Q13.107422 1.0068359 12.723633 1.1474609Q12.339844 1.2880859 12.134766 1.5810547Q11.929688 1.8740234 11.929688 2.3486328Q11.929688 2.8642578 12.208008 3.1455078Q12.486328 3.4267578 13.001953 3.4267578ZM21.820312 3.0810547Q21.527344 3.6904297 21.043945 3.9541016Q20.560547 4.2177734 19.845703 4.2177734Q18.644531 4.2177734 18.079102 3.4091797Q17.513672 2.6005859 17.513672 0.95996094Q17.513672 -2.3564453 19.845703 -2.3564453Q20.566406 -2.3564453 21.046875 -2.0927734Q21.527344 -1.8291016 21.820312 -1.2548828L21.832031 -1.2548828L21.820312 -1.9638672L21.820312 -4.5947266L22.875 -4.5947266L22.875 2.7939453Q22.875 3.7841797 22.910156 4.1005859L21.902344 4.1005859Q21.884766 4.0068359 21.864258 3.6669922Q21.84375 3.3271484 21.84375 3.0810547L21.820312 3.0810547ZM18.621094 0.92480469Q18.621094 2.2548828 18.972656 2.8291016Q19.324219 3.4033203 20.115234 3.4033203Q21.011719 3.4033203 21.416016 2.7822266Q21.820312 2.1611328 21.820312 0.85449219Q21.820312 -0.40527344 21.416016 -0.99121094Q21.011719 -1.5771484 20.126953 -1.5771484Q19.330078 -1.5771484 18.975586 -0.98828125Q18.621094 -0.39941406 18.621094 0.92480469ZM29.25 2.3486328Q29.25 3.2451172 28.573242 3.7314453Q27.896484 4.2177734 26.677734 4.2177734Q25.494141 4.2177734 24.852539 3.828125Q24.210938 3.4384766 24.017578 2.6123047L24.949219 2.4306641Q25.083984 2.9404297 25.505859 3.1777344Q25.927734 3.4150391 26.677734 3.4150391Q27.480469 3.4150391 27.852539 3.1689453Q28.224609 2.9228516 28.224609 2.4306641Q28.224609 2.0556641 27.966797 1.8212891Q27.708984 1.5869141 27.134766 1.4345703L26.378906 1.2353516Q25.470703 1.0009766 25.086914 0.77539062Q24.703125 0.54980469 24.486328 0.22753906Q24.269531 -0.094726562 24.269531 -0.56347656Q24.269531 -1.4306641 24.887695 -1.8847656Q25.505859 -2.3388672 26.689453 -2.3388672Q27.738281 -2.3388672 28.356445 -1.9697266Q28.974609 -1.6005859 29.138672 -0.78613281L28.189453 -0.66894531Q28.101562 -1.0908203 27.717773 -1.3164062Q27.333984 -1.5419922 26.689453 -1.5419922Q25.974609 -1.5419922 25.634766 -1.3251953Q25.294922 -1.1083984 25.294922 -0.66894531Q25.294922 -0.39941406 25.435547 -0.22363281Q25.576172 -0.047851562 25.851562 0.075195312Q26.126953 0.19824219 27.011719 0.41503906Q27.849609 0.62597656 28.21875 0.8046875Q28.587891 0.98339844 28.801758 1.2001953Q29.015625 1.4169922 29.132812 1.7011719Q29.25 1.9853516 29.25 2.3486328Z"/>
	<clipPath id="cl_19e">
		<rect y="39.200001" width="1200" height="31.999996"/>
	</clipPath>
	<g clip-path="url(#cl_19e)">
		<path fill="#C32222" fill-opacity="0.2" d="M569.33002 49.200001L609.33002 49.200001L609.33002 61.200001L569.33002 61.200001L569.33002 49.200001Z"/>
		<path fill="none" stroke="#C32222" stroke-width="2" stroke-miterlimit="10" d="M569.33002 49.200001L609.33002 49.200001L609.33002 61.200001L569.33002 61.200001L569.33002 49.200001Z"/>
	</g>
	<clipPath id="cl_19f">
		<rect y="39.200001" width="1200" height="31.999996"/>
	</clipPath>
	<g clip-path="url(#cl_19f)">
		<path fill="#666" d="M615.81635 59.300587L615.81635 58.497852L619.36127 53.775196L616.01556 53.775196L616.01556 52.960743L620.60931 52.960743L620.60931 53.763477L617.05853 58.486134L620.73236 58.486134L620.73236 59.300587L615.81635 59.300587ZM622.13275 51.613087L622.13275 50.605274L623.18744 50.605274L623.18744 51.613087L622.13275 51.613087ZM622.13275 59.300587L622.13275 52.960743L623.18744 52.960743L623.18744 59.300587L622.13275 59.300587ZM630.16595 56.101368Q630.16595 59.417774 627.83392 59.417774Q626.36908 59.417774 625.86517 58.316212L625.83588 58.316212Q625.85931 58.363087 625.85931 59.312305L625.85931 61.790821L624.80463 61.790821L624.80463 54.255665Q624.80463 53.277149 624.76947 52.960743L625.789 52.960743Q625.79486 52.98418 625.80658 53.127735Q625.8183 53.27129 625.83295 53.570118Q625.8476 53.868946 625.8476 53.980274L625.87103 53.980274Q626.15228 53.394337 626.61517 53.121876Q627.07806 52.849415 627.83392 52.849415Q629.0058 52.849415 629.58588 53.634571Q630.16595 54.419727 630.16595 56.101368ZM629.05853 56.124805Q629.05853 54.800587 628.70111 54.232227Q628.34369 53.663868 627.56439 53.663868Q626.93744 53.663868 626.58295 53.92754Q626.22845 54.191212 626.04388 54.750782Q625.85931 55.310352 625.85931 56.206837Q625.85931 57.454884 626.25775 58.04668Q626.65619 58.638477 627.55267 58.638477Q628.33783 58.638477 628.69818 58.061329Q629.05853 57.48418 629.05853 56.124805Z"/>
	</g>
	<path fill="#666" transform="translate(600 19.6)" d="M-290.75781 3.3320312Q-290.75781 4.5585938 -291.76172 5.2578125Q-292.76562 5.9570312 -294.53906 5.9570312Q-296.28125 5.9570312 -297.20703 5.40625Q-298.13281 4.8554688 -298.4375 3.6914062L-296.50781 3.4023438Q-296.34375 4.0039062 -295.94141 4.2539062Q-295.53906 4.5039062 -294.53906 4.5039062Q-293.61719 4.5039062 -293.19531 4.2695312Q-292.77344 4.0351562 -292.77344 3.5351562Q-292.77344 3.1289062 -293.11328 2.890625Q-293.45312 2.6523438 -294.26562 2.4882812Q-296.125 2.1210938 -296.77344 1.8046875Q-297.42188 1.4882812 -297.76172 0.984375Q-298.10156 0.48046875 -298.10156 -0.25390625Q-298.10156 -1.4648438 -297.16797 -2.140625Q-296.23438 -2.8164062 -294.52344 -2.8164062Q-293.01562 -2.8164062 -292.09766 -2.2304688Q-291.17969 -1.6445312 -290.95312 -0.53515625L-292.89844 -0.33203125Q-292.99219 -0.84765625 -293.35938 -1.1015625Q-293.72656 -1.3554688 -294.52344 -1.3554688Q-295.30469 -1.3554688 -295.69531 -1.15625Q-296.08594 -0.95703125 -296.08594 -0.48828125Q-296.08594 -0.12109375 -295.78516 0.09375Q-295.48438 0.30859375 -294.77344 0.44921875Q-293.78125 0.65234375 -293.01172 0.8671875Q-292.24219 1.0820312 -291.77734 1.3789062Q-291.3125 1.6757812 -291.03516 2.140625Q-290.75781 2.6054688 -290.75781 3.3320312ZM-287.03125 5.9570312Q-288.25781 5.9570312 -288.94531 5.2890625Q-289.63281 4.6210938 -289.63281 3.4101562Q-289.63281 2.0976562 -288.77734 1.4101562Q-287.92188 0.72265625 -286.29688 0.70703125L-284.47656 0.67578125L-284.47656 0.24609375Q-284.47656 -0.58203125 -284.76562 -0.984375Q-285.05469 -1.3867188 -285.71094 -1.3867188Q-286.32031 -1.3867188 -286.60547 -1.109375Q-286.89062 -0.83203125 -286.96094 -0.19140625L-289.25 -0.30078125Q-289.03906 -1.5351562 -288.12109 -2.171875Q-287.20312 -2.8085938 -285.61719 -2.8085938Q-284.01562 -2.8085938 -283.14844 -2.0195312Q-282.28125 -1.2304688 -282.28125 0.22265625L-282.28125 3.3007812Q-282.28125 4.0117188 -282.12109 4.28125Q-281.96094 4.5507812 -281.58594 4.5507812Q-281.33594 4.5507812 -281.10156 4.5039062L-281.10156 5.6914062Q-281.29688 5.7382812 -281.45312 5.7773438Q-281.60938 5.8164062 -281.76562 5.8398438Q-281.92188 5.8632812 -282.09766 5.8789062Q-282.27344 5.8945312 -282.50781 5.8945312Q-283.33594 5.8945312 -283.73047 5.4882812Q-284.125 5.0820312 -284.20312 4.2929688L-284.25 4.2929688Q-285.17188 5.9570312 -287.03125 5.9570312ZM-284.47656 1.8867188L-285.60156 1.9023438Q-286.36719 1.9335938 -286.6875 2.0703125Q-287.00781 2.2070312 -287.17578 2.4882812Q-287.34375 2.7695312 -287.34375 3.2382812Q-287.34375 3.8398438 -287.06641 4.1328125Q-286.78906 4.4257812 -286.32812 4.4257812Q-285.8125 4.4257812 -285.38672 4.1445312Q-284.96094 3.8632812 -284.71875 3.3671875Q-284.47656 2.8710938 -284.47656 2.3164062L-284.47656 1.8867188ZM-280.08594 -4.1757812L-280.08594 -5.7929688L-277.89062 -5.7929688L-277.89062 -4.1757812L-280.08594 -4.1757812ZM-280.08594 5.8007812L-280.08594 -2.6523438L-277.89062 -2.6523438L-277.89062 5.8007812L-280.08594 5.8007812ZM-275.64062 5.8007812L-275.64062 -5.7929688L-273.44531 -5.7929688L-273.44531 5.8007812L-275.64062 5.8007812ZM-263.19531 1.5351562Q-263.19531 3.6523438 -264.04297 4.8046875Q-264.89062 5.9570312 -266.4375 5.9570312Q-267.32812 5.9570312 -267.98828 5.5703125Q-268.64844 5.1835938 -269 4.4570312L-269.04688 4.4570312Q-269 4.6914062 -269 5.8789062L-269 9.1210938L-271.19531 9.1210938L-271.19531 -0.70703125Q-271.19531 -1.9023438 -271.25781 -2.6523438L-269.125 -2.6523438Q-269.08594 -2.5117188 -269.05859 -2.0976562Q-269.03125 -1.6835938 -269.03125 -1.2773438L-269 -1.2773438Q-268.25781 -2.8320312 -266.29688 -2.8320312Q-264.82031 -2.8320312 -264.00781 -1.6953125Q-263.19531 -0.55859375 -263.19531 1.5351562ZM-265.48438 1.5351562Q-265.48438 -1.3085938 -267.22656 -1.3085938Q-268.10156 -1.3085938 -268.56641 -0.54296875Q-269.03125 0.22265625 -269.03125 1.5976562Q-269.03125 2.9648438 -268.56641 3.7109375Q-268.10156 4.4570312 -267.24219 4.4570312Q-265.48438 4.4570312 -265.48438 1.5351562ZM-253.39062 1.5664062Q-253.39062 3.6210938 -254.53125 4.7890625Q-255.67188 5.9570312 -257.6875 5.9570312Q-259.66406 5.9570312 -260.78906 4.7851562Q-261.91406 3.6132812 -261.91406 1.5664062Q-261.91406 -0.47265625 -260.78906 -1.640625Q-259.66406 -2.8085938 -257.64062 -2.8085938Q-255.57031 -2.8085938 -254.48047 -1.6796875Q-253.39062 -0.55078125 -253.39062 1.5664062ZM-255.6875 1.5664062Q-255.6875 0.05859375 -256.17969 -0.62109375Q-256.67188 -1.3007812 -257.60938 -1.3007812Q-259.60938 -1.3007812 -259.60938 1.5664062Q-259.60938 2.9804688 -259.12109 3.71875Q-258.63281 4.4570312 -257.71094 4.4570312Q-255.6875 4.4570312 -255.6875 1.5664062ZM-251.64844 -4.1757812L-251.64844 -5.7929688L-249.45312 -5.7929688L-249.45312 -4.1757812L-251.64844 -4.1757812ZM-251.64844 5.8007812L-251.64844 -2.6523438L-249.45312 -2.6523438L-249.45312 5.8007812L-251.64844 5.8007812ZM-241.72656 5.8007812L-241.72656 1.0585938Q-241.72656 -1.1679688 -243.23438 -1.1679688Q-244.03125 -1.1679688 -244.51953 -0.484375Q-245.00781 0.19921875 -245.00781 1.2695312L-245.00781 5.8007812L-247.20312 5.8007812L-247.20312 -0.76171875Q-247.20312 -1.4414062 -247.22266 -1.875Q-247.24219 -2.3085938 -247.26562 -2.6523438L-245.17188 -2.6523438Q-245.14844 -2.5039062 -245.10938 -1.859375Q-245.07031 -1.2148438 -245.07031 -0.97265625L-245.03906 -0.97265625Q-244.59375 -1.9414062 -243.92188 -2.3789062Q-243.25 -2.8164062 -242.32031 -2.8164062Q-240.97656 -2.8164062 -240.25781 -1.9882812Q-239.53906 -1.1601562 -239.53906 0.43359375L-239.53906 5.8007812L-241.72656 5.8007812ZM-235.26562 5.9414062Q-236.23438 5.9414062 -236.75781 5.4140625Q-237.28125 4.8867188 -237.28125 3.8164062L-237.28125 -1.1679688L-238.35156 -1.1679688L-238.35156 -2.6523438L-237.17188 -2.6523438L-236.48438 -4.6367188L-235.10938 -4.6367188L-235.10938 -2.6523438L-233.50781 -2.6523438L-233.50781 -1.1679688L-235.10938 -1.1679688L-235.10938 3.2226562Q-235.10938 3.8398438 -234.875 4.1328125Q-234.64062 4.4257812 -234.14844 4.4257812Q-233.89062 4.4257812 -233.41406 4.3164062L-233.41406 5.6757812Q-234.22656 5.9414062 -235.26562 5.9414062ZM-232.59375 2.6054688L-232.59375 0.69921875L-228.53125 0.69921875L-228.53125 2.6054688L-232.59375 2.6054688ZM-218.74219 1.5664062Q-218.74219 3.6210938 -219.88281 4.7890625Q-221.02344 5.9570312 -223.03906 5.9570312Q-225.01562 5.9570312 -226.14062 4.7851562Q-227.26562 3.6132812 -227.26562 1.5664062Q-227.26562 -0.47265625 -226.14062 -1.640625Q-225.01562 -2.8085938 -222.99219 -2.8085938Q-220.92188 -2.8085938 -219.83203 -1.6796875Q-218.74219 -0.55078125 -218.74219 1.5664062ZM-221.03906 1.5664062Q-221.03906 0.05859375 -221.53125 -0.62109375Q-222.02344 -1.3007812 -222.96094 -1.3007812Q-224.96094 -1.3007812 -224.96094 1.5664062Q-224.96094 2.9804688 -224.47266 3.71875Q-223.98438 4.4570312 -223.0625 4.4570312Q-221.03906 4.4570312 -221.03906 1.5664062ZM-209.875 3.3320312Q-209.875 4.5585938 -210.87891 5.2578125Q-211.88281 5.9570312 -213.65625 5.9570312Q-215.39844 5.9570312 -216.32422 5.40625Q-217.25 4.8554688 -217.55469 3.6914062L-215.625 3.4023438Q-215.46094 4.0039062 -215.05859 4.2539062Q-214.65625 4.5039062 -213.65625 4.5039062Q-212.73438 4.5039062 -212.3125 4.2695312Q-211.89062 4.0351562 -211.89062 3.5351562Q-211.89062 3.1289062 -212.23047 2.890625Q-212.57031 2.6523438 -213.38281 2.4882812Q-215.24219 2.1210938 -215.89062 1.8046875Q-216.53906 1.4882812 -216.87891 0.984375Q-217.21875 0.48046875 -217.21875 -0.25390625Q-217.21875 -1.4648438 -216.28516 -2.140625Q-215.35156 -2.8164062 -213.64062 -2.8164062Q-212.13281 -2.8164062 -211.21484 -2.2304688Q-210.29688 -1.6445312 -210.07031 -0.53515625L-212.01562 -0.33203125Q-212.10938 -0.84765625 -212.47656 -1.1015625Q-212.84375 -1.3554688 -213.64062 -1.3554688Q-214.42188 -1.3554688 -214.8125 -1.15625Q-215.20312 -0.95703125 -215.20312 -0.48828125Q-215.20312 -0.12109375 -214.90234 0.09375Q-214.60156 0.30859375 -213.89062 0.44921875Q-212.89844 0.65234375 -212.12891 0.8671875Q-211.35938 1.0820312 -210.89453 1.3789062Q-210.42969 1.6757812 -210.15234 2.140625Q-209.875 2.6054688 -209.875 3.3320312ZM-200.97656 3.3320312Q-200.97656 4.5585938 -201.98047 5.2578125Q-202.98438 5.9570312 -204.75781 5.9570312Q-206.5 5.9570312 -207.42578 5.40625Q-208.35156 4.8554688 -208.65625 3.6914062L-206.72656 3.4023438Q-206.5625 4.0039062 -206.16016 4.2539062Q-205.75781 4.5039062 -204.75781 4.5039062Q-203.83594 4.5039062 -203.41406 4.2695312Q-202.99219 4.0351562 -202.99219 3.5351562Q-202.99219 3.1289062 -203.33203 2.890625Q-203.67188 2.6523438 -204.48438 2.4882812Q-206.34375 2.1210938 -206.99219 1.8046875Q-207.64062 1.4882812 -207.98047 0.984375Q-208.32031 0.48046875 -208.32031 -0.25390625Q-208.32031 -1.4648438 -207.38672 -2.140625Q-206.45312 -2.8164062 -204.74219 -2.8164062Q-203.23438 -2.8164062 -202.31641 -2.2304688Q-201.39844 -1.6445312 -201.17188 -0.53515625L-203.11719 -0.33203125Q-203.21094 -0.84765625 -203.57812 -1.1015625Q-203.94531 -1.3554688 -204.74219 -1.3554688Q-205.52344 -1.3554688 -205.91406 -1.15625Q-206.30469 -0.95703125 -206.30469 -0.48828125Q-206.30469 -0.12109375 -206.00391 0.09375Q-205.70312 0.30859375 -204.99219 0.44921875Q-204 0.65234375 -203.23047 0.8671875Q-202.46094 1.0820312 -201.99609 1.3789062Q-201.53125 1.6757812 -201.25391 2.140625Q-200.97656 2.6054688 -200.97656 3.3320312ZM-200.16406 6.1210938L-197.89062 -5.7929688L-196.03125 -5.7929688L-198.26562 6.1210938L-200.16406 6.1210938ZM-191.23438 5.9570312Q-193.15625 5.9570312 -194.20312 4.8125Q-195.25 3.6679688 -195.25 1.6210938Q-195.25 -0.47265625 -194.19531 -1.640625Q-193.14062 -2.8085938 -191.20312 -2.8085938Q-189.71094 -2.8085938 -188.73438 -2.0585938Q-187.75781 -1.3085938 -187.50781 0.01171875L-189.71875 0.12109375Q-189.8125 -0.52734375 -190.1875 -0.9140625Q-190.5625 -1.3007812 -191.25 -1.3007812Q-192.94531 -1.3007812 -192.94531 1.5351562Q-192.94531 4.4570312 -191.21875 4.4570312Q-190.59375 4.4570312 -190.17188 4.0625Q-189.75 3.6679688 -189.64844 2.8867188L-187.44531 2.9882812Q-187.5625 3.8554688 -188.06641 4.5351562Q-188.57031 5.2148438 -189.39062 5.5859375Q-190.21094 5.9570312 -191.23438 5.9570312ZM-177.82812 1.5664062Q-177.82812 3.6210938 -178.96875 4.7890625Q-180.10938 5.9570312 -182.125 5.9570312Q-184.10156 5.9570312 -185.22656 4.7851562Q-186.35156 3.6132812 -186.35156 1.5664062Q-186.35156 -0.47265625 -185.22656 -1.640625Q-184.10156 -2.8085938 -182.07812 -2.8085938Q-180.00781 -2.8085938 -178.91797 -1.6796875Q-177.82812 -0.55078125 -177.82812 1.5664062ZM-180.125 1.5664062Q-180.125 0.05859375 -180.61719 -0.62109375Q-181.10938 -1.3007812 -182.04688 -1.3007812Q-184.04688 -1.3007812 -184.04688 1.5664062Q-184.04688 2.9804688 -183.55859 3.71875Q-183.07031 4.4570312 -182.14844 4.4570312Q-180.125 4.4570312 -180.125 1.5664062ZM-176.08594 5.8007812L-176.08594 -5.7929688L-173.89062 -5.7929688L-173.89062 5.8007812L-176.08594 5.8007812ZM-169.6875 5.9570312Q-170.91406 5.9570312 -171.60156 5.2890625Q-172.28906 4.6210938 -172.28906 3.4101562Q-172.28906 2.0976562 -171.43359 1.4101562Q-170.57812 0.72265625 -168.95312 0.70703125L-167.13281 0.67578125L-167.13281 0.24609375Q-167.13281 -0.58203125 -167.42188 -0.984375Q-167.71094 -1.3867188 -168.36719 -1.3867188Q-168.97656 -1.3867188 -169.26172 -1.109375Q-169.54688 -0.83203125 -169.61719 -0.19140625L-171.90625 -0.30078125Q-171.69531 -1.5351562 -170.77734 -2.171875Q-169.85938 -2.8085938 -168.27344 -2.8085938Q-166.67188 -2.8085938 -165.80469 -2.0195312Q-164.9375 -1.2304688 -164.9375 0.22265625L-164.9375 3.3007812Q-164.9375 4.0117188 -164.77734 4.28125Q-164.61719 4.5507812 -164.24219 4.5507812Q-163.99219 4.5507812 -163.75781 4.5039062L-163.75781 5.6914062Q-163.95312 5.7382812 -164.10938 5.7773438Q-164.26562 5.8164062 -164.42188 5.8398438Q-164.57812 5.8632812 -164.75391 5.8789062Q-164.92969 5.8945312 -165.16406 5.8945312Q-165.99219 5.8945312 -166.38672 5.4882812Q-166.78125 5.0820312 -166.85938 4.2929688L-166.90625 4.2929688Q-167.82812 5.9570312 -169.6875 5.9570312ZM-167.13281 1.8867188L-168.25781 1.9023438Q-169.02344 1.9335938 -169.34375 2.0703125Q-169.66406 2.2070312 -169.83203 2.4882812Q-170 2.7695312 -170 3.2382812Q-170 3.8398438 -169.72266 4.1328125Q-169.44531 4.4257812 -168.98438 4.4257812Q-168.46875 4.4257812 -168.04297 4.1445312Q-167.61719 3.8632812 -167.375 3.3671875Q-167.13281 2.8710938 -167.13281 2.3164062L-167.13281 1.8867188ZM-154.74219 1.5429688Q-154.74219 3.6367188 -155.58203 4.796875Q-156.42188 5.9570312 -157.98438 5.9570312Q-158.88281 5.9570312 -159.53906 5.5664062Q-160.19531 5.1757812 -160.54688 4.4414062L-160.5625 4.4414062Q-160.5625 4.7148438 -160.59766 5.1914062Q-160.63281 5.6679688 -160.67188 5.8007812L-162.80469 5.8007812Q-162.74219 5.0742188 -162.74219 3.8710938L-162.74219 -5.7929688L-160.54688 -5.7929688L-160.54688 -2.5585938L-160.57812 -1.1835938L-160.54688 -1.1835938Q-159.80469 -2.8085938 -157.84375 -2.8085938Q-156.34375 -2.8085938 -155.54297 -1.671875Q-154.74219 -0.53515625 -154.74219 1.5429688ZM-157.03125 1.5429688Q-157.03125 0.10546875 -157.45312 -0.58984375Q-157.875 -1.2851562 -158.75781 -1.2851562Q-159.64844 -1.2851562 -160.11328 -0.5390625Q-160.57812 0.20703125 -160.57812 1.6132812Q-160.57812 2.9570312 -160.12109 3.7070312Q-159.66406 4.4570312 -158.77344 4.4570312Q-157.03125 4.4570312 -157.03125 1.5429688ZM-153.46094 2.6054688L-153.46094 0.69921875L-149.39844 0.69921875L-149.39844 2.6054688L-153.46094 2.6054688ZM-140.51562 3.3320312Q-140.51562 4.5585938 -141.51953 5.2578125Q-142.52344 5.9570312 -144.29688 5.9570312Q-146.03906 5.9570312 -146.96484 5.40625Q-147.89062 4.8554688 -148.19531 3.6914062L-146.26562 3.4023438Q-146.10156 4.0039062 -145.69922 4.2539062Q-145.29688 4.5039062 -144.29688 4.5039062Q-143.375 4.5039062 -142.95312 4.2695312Q-142.53125 4.0351562 -142.53125 3.5351562Q-142.53125 3.1289062 -142.87109 2.890625Q-143.21094 2.6523438 -144.02344 2.4882812Q-145.88281 2.1210938 -146.53125 1.8046875Q-147.17969 1.4882812 -147.51953 0.984375Q-147.85938 0.48046875 -147.85938 -0.25390625Q-147.85938 -1.4648438 -146.92578 -2.140625Q-145.99219 -2.8164062 -144.28125 -2.8164062Q-142.77344 -2.8164062 -141.85547 -2.2304688Q-140.9375 -1.6445312 -140.71094 -0.53515625L-142.65625 -0.33203125Q-142.75 -0.84765625 -143.11719 -1.1015625Q-143.48438 -1.3554688 -144.28125 -1.3554688Q-145.0625 -1.3554688 -145.45312 -1.15625Q-145.84375 -0.95703125 -145.84375 -0.48828125Q-145.84375 -0.12109375 -145.54297 0.09375Q-145.24219 0.30859375 -144.53125 0.44921875Q-143.53906 0.65234375 -142.76953 0.8671875Q-142 1.0820312 -141.53516 1.3789062Q-141.07031 1.6757812 -140.79297 2.140625Q-140.51562 2.6054688 -140.51562 3.3320312ZM-136.78906 5.9570312Q-138.01562 5.9570312 -138.70312 5.2890625Q-139.39062 4.6210938 -139.39062 3.4101562Q-139.39062 2.0976562 -138.53516 1.4101562Q-137.67969 0.72265625 -136.05469 0.70703125L-134.23438 0.67578125L-134.23438 0.24609375Q-134.23438 -0.58203125 -134.52344 -0.984375Q-134.8125 -1.3867188 -135.46875 -1.3867188Q-136.07812 -1.3867188 -136.36328 -1.109375Q-136.64844 -0.83203125 -136.71875 -0.19140625L-139.00781 -0.30078125Q-138.79688 -1.5351562 -137.87891 -2.171875Q-136.96094 -2.8085938 -135.375 -2.8085938Q-133.77344 -2.8085938 -132.90625 -2.0195312Q-132.03906 -1.2304688 -132.03906 0.22265625L-132.03906 3.3007812Q-132.03906 4.0117188 -131.87891 4.28125Q-131.71875 4.5507812 -131.34375 4.5507812Q-131.09375 4.5507812 -130.85938 4.5039062L-130.85938 5.6914062Q-131.05469 5.7382812 -131.21094 5.7773438Q-131.36719 5.8164062 -131.52344 5.8398438Q-131.67969 5.8632812 -131.85547 5.8789062Q-132.03125 5.8945312 -132.26562 5.8945312Q-133.09375 5.8945312 -133.48828 5.4882812Q-133.88281 5.0820312 -133.96094 4.2929688L-134.00781 4.2929688Q-134.92969 5.9570312 -136.78906 5.9570312ZM-134.23438 1.8867188L-135.35938 1.9023438Q-136.125 1.9335938 -136.44531 2.0703125Q-136.76562 2.2070312 -136.93359 2.4882812Q-137.10156 2.7695312 -137.10156 3.2382812Q-137.10156 3.8398438 -136.82422 4.1328125Q-136.54688 4.4257812 -136.08594 4.4257812Q-135.57031 4.4257812 -135.14453 4.1445312Q-134.71875 3.8632812 -134.47656 3.3671875Q-134.23438 2.8710938 -134.23438 2.3164062L-134.23438 1.8867188ZM-127.89062 5.9570312Q-129.11719 5.9570312 -129.80469 5.2890625Q-130.49219 4.6210938 -130.49219 3.4101562Q-130.49219 2.0976562 -129.63672 1.4101562Q-128.78125 0.72265625 -127.15625 0.70703125L-125.33594 0.67578125L-125.33594 0.24609375Q-125.33594 -0.58203125 -125.625 -0.984375Q-125.91406 -1.3867188 -126.57031 -1.3867188Q-127.17969 -1.3867188 -127.46484 -1.109375Q-127.75 -0.83203125 -127.82031 -0.19140625L-130.10938 -0.30078125Q-129.89844 -1.5351562 -128.98047 -2.171875Q-128.0625 -2.8085938 -126.47656 -2.8085938Q-124.875 -2.8085938 -124.00781 -2.0195312Q-123.14062 -1.2304688 -123.14062 0.22265625L-123.14062 3.3007812Q-123.14062 4.0117188 -122.98047 4.28125Q-122.82031 4.5507812 -122.44531 4.5507812Q-122.19531 4.5507812 -121.96094 4.5039062L-121.96094 5.6914062Q-122.15625 5.7382812 -122.3125 5.7773438Q-122.46875 5.8164062 -122.625 5.8398438Q-122.78125 5.8632812 -122.95703 5.8789062Q-123.13281 5.8945312 -123.36719 5.8945312Q-124.19531 5.8945312 -124.58984 5.4882812Q-124.98438 5.0820312 -125.0625 4.2929688L-125.10938 4.2929688Q-126.03125 5.9570312 -127.89062 5.9570312ZM-125.33594 1.8867188L-126.46094 1.9023438Q-127.22656 1.9335938 -127.54688 2.0703125Q-127.86719 2.2070312 -128.03516 2.4882812Q-128.20312 2.7695312 -128.20312 3.2382812Q-128.20312 3.8398438 -127.92578 4.1328125Q-127.64844 4.4257812 -127.1875 4.4257812Q-126.67188 4.4257812 -126.24609 4.1445312Q-125.82031 3.8632812 -125.57812 3.3671875Q-125.33594 2.8710938 -125.33594 2.3164062L-125.33594 1.8867188ZM-113.82031 3.3320312Q-113.82031 4.5585938 -114.82422 5.2578125Q-115.82812 5.9570312 -117.60156 5.9570312Q-119.34375 5.9570312 -120.26953 5.40625Q-121.19531 4.8554688 -121.5 3.6914062L-119.57031 3.4023438Q-119.40625 4.0039062 -119.00391 4.2539062Q-118.60156 4.5039062 -117.60156 4.5039062Q-116.67969 4.5039062 -116.25781 4.2695312Q-115.83594 4.0351562 -115.83594 3.5351562Q-115.83594 3.1289062 -116.17578 2.890625Q-116.51562 2.6523438 -117.32812 2.4882812Q-119.1875 2.1210938 -119.83594 1.8046875Q-120.48438 1.4882812 -120.82422 0.984375Q-121.16406 0.48046875 -121.16406 -0.25390625Q-121.16406 -1.4648438 -120.23047 -2.140625Q-119.29688 -2.8164062 -117.58594 -2.8164062Q-116.07812 -2.8164062 -115.16016 -2.2304688Q-114.24219 -1.6445312 -114.01562 -0.53515625L-115.96094 -0.33203125Q-116.05469 -0.84765625 -116.42188 -1.1015625Q-116.78906 -1.3554688 -117.58594 -1.3554688Q-118.36719 -1.3554688 -118.75781 -1.15625Q-119.14844 -0.95703125 -119.14844 -0.48828125Q-119.14844 -0.12109375 -118.84766 0.09375Q-118.54688 0.30859375 -117.83594 0.44921875Q-116.84375 0.65234375 -116.07422 0.8671875Q-115.30469 1.0820312 -114.83984 1.3789062Q-114.375 1.6757812 -114.09766 2.140625Q-113.82031 2.6054688 -113.82031 3.3320312ZM-112.53906 2.6054688L-112.53906 0.69921875L-108.47656 0.69921875L-108.47656 2.6054688L-112.53906 2.6054688ZM-103.19531 5.9570312Q-105.11719 5.9570312 -106.16406 4.8125Q-107.21094 3.6679688 -107.21094 1.6210938Q-107.21094 -0.47265625 -106.15625 -1.640625Q-105.10156 -2.8085938 -103.16406 -2.8085938Q-101.67188 -2.8085938 -100.69531 -2.0585938Q-99.71875 -1.3085938 -99.46875 0.01171875L-101.67969 0.12109375Q-101.77344 -0.52734375 -102.14844 -0.9140625Q-102.52344 -1.3007812 -103.21094 -1.3007812Q-104.90625 -1.3007812 -104.90625 1.5351562Q-104.90625 4.4570312 -103.17969 4.4570312Q-102.55469 4.4570312 -102.13281 4.0625Q-101.71094 3.6679688 -101.60938 2.8867188L-99.40625 2.9882812Q-99.523438 3.8554688 -100.02734 4.5351562Q-100.53125 5.2148438 -101.35156 5.5859375Q-102.17188 5.9570312 -103.19531 5.9570312ZM-89.789062 1.5664062Q-89.789062 3.6210938 -90.929688 4.7890625Q-92.070312 5.9570312 -94.085938 5.9570312Q-96.0625 5.9570312 -97.1875 4.7851562Q-98.3125 3.6132812 -98.3125 1.5664062Q-98.3125 -0.47265625 -97.1875 -1.640625Q-96.0625 -2.8085938 -94.039062 -2.8085938Q-91.96875 -2.8085938 -90.878906 -1.6796875Q-89.789062 -0.55078125 -89.789062 1.5664062ZM-92.085938 1.5664062Q-92.085938 0.05859375 -92.578125 -0.62109375Q-93.070312 -1.3007812 -94.007812 -1.3007812Q-96.007812 -1.3007812 -96.007812 1.5664062Q-96.007812 2.9804688 -95.519531 3.71875Q-95.03125 4.4570312 -94.109375 4.4570312Q-92.085938 4.4570312 -92.085938 1.5664062ZM-82.570312 5.8007812L-82.570312 1.0585938Q-82.570312 -1.1679688 -84.078125 -1.1679688Q-84.875 -1.1679688 -85.363281 -0.484375Q-85.851562 0.19921875 -85.851562 1.2695312L-85.851562 5.8007812L-88.046875 5.8007812L-88.046875 -0.76171875Q-88.046875 -1.4414062 -88.066406 -1.875Q-88.085938 -2.3085938 -88.109375 -2.6523438L-86.015625 -2.6523438Q-85.992188 -2.5039062 -85.953125 -1.859375Q-85.914062 -1.2148438 -85.914062 -0.97265625L-85.882812 -0.97265625Q-85.4375 -1.9414062 -84.765625 -2.3789062Q-84.09375 -2.8164062 -83.164062 -2.8164062Q-81.820312 -2.8164062 -81.101562 -1.9882812Q-80.382812 -1.1601562 -80.382812 0.43359375L-80.382812 5.8007812L-82.570312 5.8007812ZM-72.796875 5.8007812L-72.796875 1.0585938Q-72.796875 -1.1679688 -74.304688 -1.1679688Q-75.101562 -1.1679688 -75.589844 -0.484375Q-76.078125 0.19921875 -76.078125 1.2695312L-76.078125 5.8007812L-78.273438 5.8007812L-78.273438 -0.76171875Q-78.273438 -1.4414062 -78.292969 -1.875Q-78.3125 -2.3085938 -78.335938 -2.6523438L-76.242188 -2.6523438Q-76.21875 -2.5039062 -76.179688 -1.859375Q-76.140625 -1.2148438 -76.140625 -0.97265625L-76.109375 -0.97265625Q-75.664062 -1.9414062 -74.992188 -2.3789062Q-74.320312 -2.8164062 -73.390625 -2.8164062Q-72.046875 -2.8164062 -71.328125 -1.9882812Q-70.609375 -1.1601562 -70.609375 0.43359375L-70.609375 5.8007812L-72.796875 5.8007812ZM-68.992188 2.6054688L-68.992188 0.69921875L-64.929688 0.69921875L-64.929688 2.6054688L-68.992188 2.6054688ZM-63.171875 5.8007812L-63.171875 -0.66796875Q-63.171875 -1.3632812 -63.191406 -1.828125Q-63.210938 -2.2929688 -63.234375 -2.6523438L-61.140625 -2.6523438Q-61.117188 -2.5117188 -61.078125 -1.796875Q-61.039062 -1.0820312 -61.039062 -0.84765625L-61.007812 -0.84765625Q-60.6875 -1.7382812 -60.4375 -2.1015625Q-60.1875 -2.4648438 -59.84375 -2.640625Q-59.5 -2.8164062 -58.984375 -2.8164062Q-58.5625 -2.8164062 -58.304688 -2.6992188L-58.304688 -0.86328125Q-58.835938 -0.98046875 -59.242188 -0.98046875Q-60.0625 -0.98046875 -60.519531 -0.31640625Q-60.976562 0.34765625 -60.976562 1.6523438L-60.976562 5.8007812L-63.171875 5.8007812ZM-54.992188 5.9570312Q-56.21875 5.9570312 -56.90625 5.2890625Q-57.59375 4.6210938 -57.59375 3.4101562Q-57.59375 2.0976562 -56.738281 1.4101562Q-55.882812 0.72265625 -54.257812 0.70703125L-52.4375 0.67578125L-52.4375 0.24609375Q-52.4375 -0.58203125 -52.726562 -0.984375Q-53.015625 -1.3867188 -53.671875 -1.3867188Q-54.28125 -1.3867188 -54.566406 -1.109375Q-54.851562 -0.83203125 -54.921875 -0.19140625L-57.210938 -0.30078125Q-57 -1.5351562 -56.082031 -2.171875Q-55.164062 -2.8085938 -53.578125 -2.8085938Q-51.976562 -2.8085938 -51.109375 -2.0195312Q-50.242188 -1.2304688 -50.242188 0.22265625L-50.242188 3.3007812Q-50.242188 4.0117188 -50.082031 4.28125Q-49.921875 4.5507812 -49.546875 4.5507812Q-49.296875 4.5507812 -49.0625 4.5039062L-49.0625 5.6914062Q-49.257812 5.7382812 -49.414062 5.7773438Q-49.570312 5.8164062 -49.726562 5.8398438Q-49.882812 5.8632812 -50.058594 5.8789062Q-50.234375 5.8945312 -50.46875 5.8945312Q-51.296875 5.8945312 -51.691406 5.4882812Q-52.085938 5.0820312 -52.164062 4.2929688L-52.210938 4.2929688Q-53.132812 5.9570312 -54.992188 5.9570312ZM-52.4375 1.8867188L-53.5625 1.9023438Q-54.328125 1.9335938 -54.648438 2.0703125Q-54.96875 2.2070312 -55.136719 2.4882812Q-55.304688 2.7695312 -55.304688 3.2382812Q-55.304688 3.8398438 -55.027344 4.1328125Q-54.75 4.4257812 -54.289062 4.4257812Q-53.773438 4.4257812 -53.347656 4.1445312Q-52.921875 3.8632812 -52.679688 3.3671875Q-52.4375 2.8710938 -52.4375 2.3164062L-52.4375 1.8867188ZM-43.070312 5.8007812L-43.070312 1.0585938Q-43.070312 -1.1679688 -44.351562 -1.1679688Q-45.015625 -1.1679688 -45.433594 -0.48828125Q-45.851562 0.19140625 -45.851562 1.2695312L-45.851562 5.8007812L-48.046875 5.8007812L-48.046875 -0.76171875Q-48.046875 -1.4414062 -48.066406 -1.875Q-48.085938 -2.3085938 -48.109375 -2.6523438L-46.015625 -2.6523438Q-45.992188 -2.5039062 -45.953125 -1.859375Q-45.914062 -1.2148438 -45.914062 -0.97265625L-45.882812 -0.97265625Q-45.476562 -1.9414062 -44.871094 -2.3789062Q-44.265625 -2.8164062 -43.421875 -2.8164062Q-41.484375 -2.8164062 -41.070312 -0.97265625L-41.023438 -0.97265625Q-40.59375 -1.9570312 -39.992188 -2.3867188Q-39.390625 -2.8164062 -38.460938 -2.8164062Q-37.226562 -2.8164062 -36.578125 -1.9765625Q-35.929688 -1.1367188 -35.929688 0.43359375L-35.929688 5.8007812L-38.109375 5.8007812L-38.109375 1.0585938Q-38.109375 -1.1679688 -39.390625 -1.1679688Q-40.03125 -1.1679688 -40.441406 -0.546875Q-40.851562 0.07421875 -40.890625 1.1679688L-40.890625 5.8007812L-43.070312 5.8007812ZM-25.820312 1.5429688Q-25.820312 3.6367188 -26.660156 4.796875Q-27.5 5.9570312 -29.0625 5.9570312Q-29.960938 5.9570312 -30.617188 5.5664062Q-31.273438 5.1757812 -31.625 4.4414062L-31.640625 4.4414062Q-31.640625 4.7148438 -31.675781 5.1914062Q-31.710938 5.6679688 -31.75 5.8007812L-33.882812 5.8007812Q-33.820312 5.0742188 -33.820312 3.8710938L-33.820312 -5.7929688L-31.625 -5.7929688L-31.625 -2.5585938L-31.65625 -1.1835938L-31.625 -1.1835938Q-30.882812 -2.8085938 -28.921875 -2.8085938Q-27.421875 -2.8085938 -26.621094 -1.671875Q-25.820312 -0.53515625 -25.820312 1.5429688ZM-28.109375 1.5429688Q-28.109375 0.10546875 -28.53125 -0.58984375Q-28.953125 -1.2851562 -29.835938 -1.2851562Q-30.726562 -1.2851562 -31.191406 -0.5390625Q-31.65625 0.20703125 -31.65625 1.6132812Q-31.65625 2.9570312 -31.199219 3.7070312Q-30.742188 4.4570312 -29.851562 4.4570312Q-28.109375 4.4570312 -28.109375 1.5429688ZM-22.09375 5.9570312Q-23.320312 5.9570312 -24.007812 5.2890625Q-24.695312 4.6210938 -24.695312 3.4101562Q-24.695312 2.0976562 -23.839844 1.4101562Q-22.984375 0.72265625 -21.359375 0.70703125L-19.539062 0.67578125L-19.539062 0.24609375Q-19.539062 -0.58203125 -19.828125 -0.984375Q-20.117188 -1.3867188 -20.773438 -1.3867188Q-21.382812 -1.3867188 -21.667969 -1.109375Q-21.953125 -0.83203125 -22.023438 -0.19140625L-24.3125 -0.30078125Q-24.101562 -1.5351562 -23.183594 -2.171875Q-22.265625 -2.8085938 -20.679688 -2.8085938Q-19.078125 -2.8085938 -18.210938 -2.0195312Q-17.34375 -1.2304688 -17.34375 0.22265625L-17.34375 3.3007812Q-17.34375 4.0117188 -17.183594 4.28125Q-17.023438 4.5507812 -16.648438 4.5507812Q-16.398438 4.5507812 -16.164062 4.5039062L-16.164062 5.6914062Q-16.359375 5.7382812 -16.515625 5.7773438Q-16.671875 5.8164062 -16.828125 5.8398438Q-16.984375 5.8632812 -17.160156 5.8789062Q-17.335938 5.8945312 -17.570312 5.8945312Q-18.398438 5.8945312 -18.792969 5.4882812Q-19.1875 5.0820312 -19.265625 4.2929688L-19.3125 4.2929688Q-20.234375 5.9570312 -22.09375 5.9570312ZM-19.539062 1.8867188L-20.664062 1.9023438Q-21.429688 1.9335938 -21.75 2.0703125Q-22.070312 2.2070312 -22.238281 2.4882812Q-22.40625 2.7695312 -22.40625 3.2382812Q-22.40625 3.8398438 -22.128906 4.1328125Q-21.851562 4.4257812 -21.390625 4.4257812Q-20.875 4.4257812 -20.449219 4.1445312Q-20.023438 3.8632812 -19.78125 3.3671875Q-19.539062 2.8710938 -19.539062 2.3164062L-19.539062 1.8867188ZM-8.0234375 3.3320312Q-8.0234375 4.5585938 -9.0273438 5.2578125Q-10.03125 5.9570312 -11.804688 5.9570312Q-13.546875 5.9570312 -14.472656 5.40625Q-15.398438 4.8554688 -15.703125 3.6914062L-13.773438 3.4023438Q-13.609375 4.0039062 -13.207031 4.2539062Q-12.804688 4.5039062 -11.804688 4.5039062Q-10.882812 4.5039062 -10.460938 4.2695312Q-10.039062 4.0351562 -10.039062 3.5351562Q-10.039062 3.1289062 -10.378906 2.890625Q-10.71875 2.6523438 -11.53125 2.4882812Q-13.390625 2.1210938 -14.039062 1.8046875Q-14.6875 1.4882812 -15.027344 0.984375Q-15.367188 0.48046875 -15.367188 -0.25390625Q-15.367188 -1.4648438 -14.433594 -2.140625Q-13.5 -2.8164062 -11.789062 -2.8164062Q-10.28125 -2.8164062 -9.3632812 -2.2304688Q-8.4453125 -1.6445312 -8.21875 -0.53515625L-10.164062 -0.33203125Q-10.257812 -0.84765625 -10.625 -1.1015625Q-10.992188 -1.3554688 -11.789062 -1.3554688Q-12.570312 -1.3554688 -12.960938 -1.15625Q-13.351562 -0.95703125 -13.351562 -0.48828125Q-13.351562 -0.12109375 -13.050781 0.09375Q-12.75 0.30859375 -12.039062 0.44921875Q-11.046875 0.65234375 -10.277344 0.8671875Q-9.5078125 1.0820312 -9.0429688 1.3789062Q-8.578125 1.6757812 -8.3007812 2.140625Q-8.0234375 2.6054688 -8.0234375 3.3320312ZM-2.7890625 5.9570312Q-4.6953125 5.9570312 -5.71875 4.828125Q-6.7421875 3.6992188 -6.7421875 1.5351562Q-6.7421875 -0.55859375 -5.703125 -1.6835938Q-4.6640625 -2.8085938 -2.7578125 -2.8085938Q-0.9375 -2.8085938 0.0234375 -1.6015625Q0.984375 -0.39453125 0.984375 1.9335938L0.984375 1.9960938L-4.4375 1.9960938Q-4.4375 3.2304688 -3.9804688 3.859375Q-3.5234375 4.4882812 -2.6796875 4.4882812Q-1.515625 4.4882812 -1.2109375 3.4804688L0.859375 3.6601562Q-0.0390625 5.9570312 -2.7890625 5.9570312ZM-2.7890625 -1.4257812Q-3.5625 -1.4257812 -3.9804688 -0.88671875Q-4.3984375 -0.34765625 -4.421875 0.62109375L-1.140625 0.62109375Q-1.203125 -0.40234375 -1.6328125 -0.9140625Q-2.0625 -1.4257812 -2.7890625 -1.4257812ZM2.15625 2.6054688L2.15625 0.69921875L6.21875 0.69921875L6.21875 2.6054688L2.15625 2.6054688ZM11.5 5.9570312Q9.578125 5.9570312 8.53125 4.8125Q7.484375 3.6679688 7.484375 1.6210938Q7.484375 -0.47265625 8.5390625 -1.640625Q9.59375 -2.8085938 11.53125 -2.8085938Q13.023438 -2.8085938 14 -2.0585938Q14.976562 -1.3085938 15.226562 0.01171875L13.015625 0.12109375Q12.921875 -0.52734375 12.546875 -0.9140625Q12.171875 -1.3007812 11.484375 -1.3007812Q9.7890625 -1.3007812 9.7890625 1.5351562Q9.7890625 4.4570312 11.515625 4.4570312Q12.140625 4.4570312 12.5625 4.0625Q12.984375 3.6679688 13.085938 2.8867188L15.289062 2.9882812Q15.171875 3.8554688 14.667969 4.5351562Q14.164062 5.2148438 13.34375 5.5859375Q12.523438 5.9570312 11.5 5.9570312ZM16.875 5.8007812L16.875 -5.7929688L19.070312 -5.7929688L19.070312 5.8007812L16.875 5.8007812ZM29.351562 1.5664062Q29.351562 3.6210938 28.210938 4.7890625Q27.070312 5.9570312 25.054688 5.9570312Q23.078125 5.9570312 21.953125 4.7851562Q20.828125 3.6132812 20.828125 1.5664062Q20.828125 -0.47265625 21.953125 -1.640625Q23.078125 -2.8085938 25.101562 -2.8085938Q27.171875 -2.8085938 28.261719 -1.6796875Q29.351562 -0.55078125 29.351562 1.5664062ZM27.054688 1.5664062Q27.054688 0.05859375 26.5625 -0.62109375Q26.070312 -1.3007812 25.132812 -1.3007812Q23.132812 -1.3007812 23.132812 1.5664062Q23.132812 2.9804688 23.621094 3.71875Q24.109375 4.4570312 25.03125 4.4570312Q27.054688 4.4570312 27.054688 1.5664062ZM33.164062 -2.6523438L33.164062 2.0898438Q33.164062 4.3164062 34.664062 4.3164062Q35.460938 4.3164062 35.949219 3.6328125Q36.4375 2.9492188 36.4375 1.8789062L36.4375 -2.6523438L38.632812 -2.6523438L38.632812 3.9101562Q38.632812 4.9882812 38.695312 5.8007812L36.601562 5.8007812Q36.507812 4.6757812 36.507812 4.1210938L36.46875 4.1210938Q36.03125 5.0820312 35.355469 5.5195312Q34.679688 5.9570312 33.75 5.9570312Q32.40625 5.9570312 31.6875 5.1328125Q30.96875 4.3085938 30.96875 2.7148438L30.96875 -2.6523438L33.164062 -2.6523438ZM46.34375 5.8007812Q46.3125 5.6835938 46.269531 5.2109375Q46.226562 4.7382812 46.226562 4.4257812L46.195312 4.4257812Q45.484375 5.9570312 43.492188 5.9570312Q42.015625 5.9570312 41.210938 4.8046875Q40.40625 3.6523438 40.40625 1.5820312Q40.40625 -0.51953125 41.253906 -1.6640625Q42.101562 -2.8085938 43.65625 -2.8085938Q44.554688 -2.8085938 45.207031 -2.4335938Q45.859375 -2.0585938 46.210938 -1.3164062L46.226562 -1.3164062L46.210938 -2.7070312L46.210938 -5.7929688L48.40625 -5.7929688L48.40625 3.9570312Q48.40625 4.7382812 48.46875 5.8007812L46.34375 5.8007812ZM46.242188 1.5273438Q46.242188 0.16015625 45.785156 -0.578125Q45.328125 -1.3164062 44.4375 -1.3164062Q43.554688 -1.3164062 43.125 -0.6015625Q42.695312 0.11328125 42.695312 1.5820312Q42.695312 4.4570312 44.421875 4.4570312Q45.289062 4.4570312 45.765625 3.6953125Q46.242188 2.9335938 46.242188 1.5273438ZM50.148438 2.6054688L50.148438 0.69921875L54.210938 0.69921875L54.210938 2.6054688L50.148438 2.6054688ZM59.429688 5.9570312Q57.523438 5.9570312 56.5 4.828125Q55.476562 3.6992188 55.476562 1.5351562Q55.476562 -0.55859375 56.515625 -1.6835938Q57.554688 -2.8085938 59.460938 -2.8085938Q61.28125 -2.8085938 62.242188 -1.6015625Q63.203125 -0.39453125 63.203125 1.9335938L63.203125 1.9960938L57.78125 1.9960938Q57.78125 3.2304688 58.238281 3.859375Q58.695312 4.4882812 59.539062 4.4882812Q60.703125 4.4882812 61.007812 3.4804688L63.078125 3.6601562Q62.179688 5.9570312 59.429688 5.9570312ZM59.429688 -1.4257812Q58.65625 -1.4257812 58.238281 -0.88671875Q57.820312 -0.34765625 57.796875 0.62109375L61.078125 0.62109375Q61.015625 -0.40234375 60.585938 -0.9140625Q60.15625 -1.4257812 59.429688 -1.4257812ZM64.867188 5.8007812L64.867188 -0.66796875Q64.867188 -1.3632812 64.847656 -1.828125Q64.828125 -2.2929688 64.804688 -2.6523438L66.898438 -2.6523438Q66.921875 -2.5117188 66.960938 -1.796875Q67 -1.0820312 67 -0.84765625L67.03125 -0.84765625Q67.351562 -1.7382812 67.601562 -2.1015625Q67.851562 -2.4648438 68.195312 -2.640625Q68.539062 -2.8164062 69.054688 -2.8164062Q69.476562 -2.8164062 69.734375 -2.6992188L69.734375 -0.86328125Q69.203125 -0.98046875 68.796875 -0.98046875Q67.976562 -0.98046875 67.519531 -0.31640625Q67.0625 0.34765625 67.0625 1.6523438L67.0625 5.8007812L64.867188 5.8007812ZM79.09375 1.5351562Q79.09375 3.6523438 78.246094 4.8046875Q77.398438 5.9570312 75.851562 5.9570312Q74.960938 5.9570312 74.300781 5.5703125Q73.640625 5.1835938 73.289062 4.4570312L73.242188 4.4570312Q73.289062 4.6914062 73.289062 5.8789062L73.289062 9.1210938L71.09375 9.1210938L71.09375 -0.70703125Q71.09375 -1.9023438 71.03125 -2.6523438L73.164062 -2.6523438Q73.203125 -2.5117188 73.230469 -2.0976562Q73.257812 -1.6835938 73.257812 -1.2773438L73.289062 -1.2773438Q74.03125 -2.8320312 75.992188 -2.8320312Q77.46875 -2.8320312 78.28125 -1.6953125Q79.09375 -0.55859375 79.09375 1.5351562ZM76.804688 1.5351562Q76.804688 -1.3085938 75.0625 -1.3085938Q74.1875 -1.3085938 73.722656 -0.54296875Q73.257812 0.22265625 73.257812 1.5976562Q73.257812 2.9648438 73.722656 3.7109375Q74.1875 4.4570312 75.046875 4.4570312Q76.804688 4.4570312 76.804688 1.5351562ZM84.820312 2.6054688L84.820312 0.69921875L88.882812 0.69921875L88.882812 2.6054688L84.820312 2.6054688ZM97.34375 -3.4257812L97.34375 -0.01953125L102.97656 -0.01953125L102.97656 1.7617188L97.34375 1.7617188L97.34375 5.8007812L95.039062 5.8007812L95.039062 -5.2070312L103.15625 -5.2070312L103.15625 -3.4257812L97.34375 -3.4257812ZM115.51562 0.24609375Q115.51562 1.9648438 114.83594 3.2695312Q114.15625 4.5742188 112.89062 5.265625Q111.625 5.9570312 109.9375 5.9570312Q107.34375 5.9570312 105.87109 4.4296875Q104.39844 2.9023438 104.39844 0.24609375Q104.39844 -2.4023438 105.86719 -3.8867188Q107.33594 -5.3710938 109.95312 -5.3710938Q112.57031 -5.3710938 114.04297 -3.8710938Q115.51562 -2.3710938 115.51562 0.24609375ZM113.16406 0.24609375Q113.16406 -1.5351562 112.32031 -2.546875Q111.47656 -3.5585938 109.95312 -3.5585938Q108.40625 -3.5585938 107.5625 -2.5546875Q106.71875 -1.5507812 106.71875 0.24609375Q106.71875 2.0585938 107.58203 3.1015625Q108.44531 4.1445312 109.9375 4.1445312Q111.48438 4.1445312 112.32422 3.1289062Q113.16406 2.1132812 113.16406 0.24609375ZM124.82031 5.8007812L122.26562 1.6210938L119.5625 1.6210938L119.5625 5.8007812L117.25781 5.8007812L117.25781 -5.2070312L122.75781 -5.2070312Q124.72656 -5.2070312 125.79688 -4.359375Q126.86719 -3.5117188 126.86719 -1.9257812Q126.86719 -0.76953125 126.21094 0.0703125Q125.55469 0.91015625 124.4375 1.1757812L127.41406 5.8007812L124.82031 5.8007812ZM124.54688 -1.8320312Q124.54688 -3.4179688 122.51562 -3.4179688L119.5625 -3.4179688L119.5625 -0.16796875L122.57812 -0.16796875Q123.54688 -0.16796875 124.04688 -0.60546875Q124.54688 -1.0429688 124.54688 -1.8320312ZM137.95312 5.8007812L137.95312 -0.87109375Q137.95312 -1.0976562 137.95703 -1.3242188Q137.96094 -1.5507812 138.03125 -3.2695312Q137.47656 -1.1679688 137.21094 -0.33984375L135.22656 5.8007812L133.58594 5.8007812L131.60156 -0.33984375L130.76562 -3.2695312Q130.85938 -1.4570312 130.85938 -0.87109375L130.85938 5.8007812L128.8125 5.8007812L128.8125 -5.2070312L131.89844 -5.2070312L133.86719 0.94921875L134.03906 1.5429688L134.41406 3.0195312L134.90625 1.2539062L136.92969 -5.2070312L140 -5.2070312L140 5.8007812L137.95312 5.8007812ZM149.92188 5.8007812L148.94531 2.9882812L144.75 2.9882812L143.77344 5.8007812L141.46875 5.8007812L145.48438 -5.2070312L148.20312 -5.2070312L152.20312 5.8007812L149.92188 5.8007812ZM146.84375 -3.5117188L146.79688 -3.3398438Q146.71875 -3.0585938 146.60938 -2.6992188Q146.5 -2.3398438 145.26562 1.2539062L148.42969 1.2539062L147.34375 -1.9101562L147.00781 -2.9726562L146.84375 -3.5117188ZM157.47656 -3.4257812L157.47656 5.8007812L155.17188 5.8007812L155.17188 -3.4257812L151.61719 -3.4257812L151.61719 -5.2070312L161.03906 -5.2070312L161.03906 -3.4257812L157.47656 -3.4257812ZM176.53906 0.21484375Q176.53906 1.9179688 175.87109 3.1875Q175.20312 4.4570312 173.98047 5.1289062Q172.75781 5.8007812 171.17969 5.8007812L166.72656 5.8007812L166.72656 -5.2070312L170.71094 -5.2070312Q173.49219 -5.2070312 175.01562 -3.8046875Q176.53906 -2.4023438 176.53906 0.21484375ZM174.21875 0.21484375Q174.21875 -1.5585938 173.29688 -2.4921875Q172.375 -3.4257812 170.66406 -3.4257812L169.03125 -3.4257812L169.03125 4.0195312L170.98438 4.0195312Q172.46875 4.0195312 173.34375 2.9960938Q174.21875 1.9726562 174.21875 0.21484375ZM186.35938 1.5664062Q186.35938 3.6210938 185.21875 4.7890625Q184.07812 5.9570312 182.0625 5.9570312Q180.08594 5.9570312 178.96094 4.7851562Q177.83594 3.6132812 177.83594 1.5664062Q177.83594 -0.47265625 178.96094 -1.640625Q180.08594 -2.8085938 182.10938 -2.8085938Q184.17969 -2.8085938 185.26953 -1.6796875Q186.35938 -0.55078125 186.35938 1.5664062ZM184.0625 1.5664062Q184.0625 0.05859375 183.57031 -0.62109375Q183.07812 -1.3007812 182.14062 -1.3007812Q180.14062 -1.3007812 180.14062 1.5664062Q180.14062 2.9804688 180.62891 3.71875Q181.11719 4.4570312 182.03906 4.4570312Q184.0625 4.4570312 184.0625 1.5664062ZM197.24219 5.8007812L194.92188 5.8007812L193.57812 0.64453125Q193.48438 0.29296875 193.21094 -1.0898438L192.80469 0.66015625L191.44531 5.8007812L189.125 5.8007812L186.9375 -2.6523438L189 -2.6523438L190.39062 3.8085938L190.5 3.2304688L190.69531 2.3164062L192.02344 -2.6523438L194.375 -2.6523438L195.67188 2.3164062Q195.78125 2.7226562 195.99219 3.8085938L196.21094 2.7773438L197.42969 -2.6523438L199.46094 -2.6523438L197.24219 5.8007812ZM206.02344 5.8007812L206.02344 1.0585938Q206.02344 -1.1679688 204.51562 -1.1679688Q203.71875 -1.1679688 203.23047 -0.484375Q202.74219 0.19921875 202.74219 1.2695312L202.74219 5.8007812L200.54688 5.8007812L200.54688 -0.76171875Q200.54688 -1.4414062 200.52734 -1.875Q200.50781 -2.3085938 200.48438 -2.6523438L202.57812 -2.6523438Q202.60156 -2.5039062 202.64062 -1.859375Q202.67969 -1.2148438 202.67969 -0.97265625L202.71094 -0.97265625Q203.15625 -1.9414062 203.82812 -2.3789062Q204.5 -2.8164062 205.42969 -2.8164062Q206.77344 -2.8164062 207.49219 -1.9882812Q208.21094 -1.1601562 208.21094 0.43359375L208.21094 5.8007812L206.02344 5.8007812ZM210.32031 5.8007812L210.32031 -5.7929688L212.51562 -5.7929688L212.51562 5.8007812L210.32031 5.8007812ZM222.79688 1.5664062Q222.79688 3.6210938 221.65625 4.7890625Q220.51562 5.9570312 218.5 5.9570312Q216.52344 5.9570312 215.39844 4.7851562Q214.27344 3.6132812 214.27344 1.5664062Q214.27344 -0.47265625 215.39844 -1.640625Q216.52344 -2.8085938 218.54688 -2.8085938Q220.61719 -2.8085938 221.70703 -1.6796875Q222.79688 -0.55078125 222.79688 1.5664062ZM220.5 1.5664062Q220.5 0.05859375 220.00781 -0.62109375Q219.51562 -1.3007812 218.57812 -1.3007812Q216.57812 -1.3007812 216.57812 1.5664062Q216.57812 2.9804688 217.06641 3.71875Q217.55469 4.4570312 218.47656 4.4570312Q220.5 4.4570312 220.5 1.5664062ZM226.49219 5.9570312Q225.26562 5.9570312 224.57812 5.2890625Q223.89062 4.6210938 223.89062 3.4101562Q223.89062 2.0976562 224.74609 1.4101562Q225.60156 0.72265625 227.22656 0.70703125L229.04688 0.67578125L229.04688 0.24609375Q229.04688 -0.58203125 228.75781 -0.984375Q228.46875 -1.3867188 227.8125 -1.3867188Q227.20312 -1.3867188 226.91797 -1.109375Q226.63281 -0.83203125 226.5625 -0.19140625L224.27344 -0.30078125Q224.48438 -1.5351562 225.40234 -2.171875Q226.32031 -2.8085938 227.90625 -2.8085938Q229.50781 -2.8085938 230.375 -2.0195312Q231.24219 -1.2304688 231.24219 0.22265625L231.24219 3.3007812Q231.24219 4.0117188 231.40234 4.28125Q231.5625 4.5507812 231.9375 4.5507812Q232.1875 4.5507812 232.42188 4.5039062L232.42188 5.6914062Q232.22656 5.7382812 232.07031 5.7773438Q231.91406 5.8164062 231.75781 5.8398438Q231.60156 5.8632812 231.42578 5.8789062Q231.25 5.8945312 231.01562 5.8945312Q230.1875 5.8945312 229.79297 5.4882812Q229.39844 5.0820312 229.32031 4.2929688L229.27344 4.2929688Q228.35156 5.9570312 226.49219 5.9570312ZM229.04688 1.8867188L227.92188 1.9023438Q227.15625 1.9335938 226.83594 2.0703125Q226.51562 2.2070312 226.34766 2.4882812Q226.17969 2.7695312 226.17969 3.2382812Q226.17969 3.8398438 226.45703 4.1328125Q226.73438 4.4257812 227.19531 4.4257812Q227.71094 4.4257812 228.13672 4.1445312Q228.5625 3.8632812 228.80469 3.3671875Q229.04688 2.8710938 229.04688 2.3164062L229.04688 1.8867188ZM238.91406 5.8007812Q238.88281 5.6835938 238.83984 5.2109375Q238.79688 4.7382812 238.79688 4.4257812L238.76562 4.4257812Q238.05469 5.9570312 236.0625 5.9570312Q234.58594 5.9570312 233.78125 4.8046875Q232.97656 3.6523438 232.97656 1.5820312Q232.97656 -0.51953125 233.82422 -1.6640625Q234.67188 -2.8085938 236.22656 -2.8085938Q237.125 -2.8085938 237.77734 -2.4335938Q238.42969 -2.0585938 238.78125 -1.3164062L238.79688 -1.3164062L238.78125 -2.7070312L238.78125 -5.7929688L240.97656 -5.7929688L240.97656 3.9570312Q240.97656 4.7382812 241.03906 5.8007812L238.91406 5.8007812ZM238.8125 1.5273438Q238.8125 0.16015625 238.35547 -0.578125Q237.89844 -1.3164062 237.00781 -1.3164062Q236.125 -1.3164062 235.69531 -0.6015625Q235.26562 0.11328125 235.26562 1.5820312Q235.26562 4.4570312 236.99219 4.4570312Q237.85938 4.4570312 238.33594 3.6953125Q238.8125 2.9335938 238.8125 1.5273438ZM252.57812 -3.4257812L252.57812 5.8007812L250.27344 5.8007812L250.27344 -3.4257812L246.71875 -3.4257812L246.71875 -5.2070312L256.14062 -5.2070312L256.14062 -3.4257812L252.57812 -3.4257812ZM256.54688 5.8007812L256.54688 -0.66796875Q256.54688 -1.3632812 256.52734 -1.828125Q256.50781 -2.2929688 256.48438 -2.6523438L258.57812 -2.6523438Q258.60156 -2.5117188 258.64062 -1.796875Q258.67969 -1.0820312 258.67969 -0.84765625L258.71094 -0.84765625Q259.03125 -1.7382812 259.28125 -2.1015625Q259.53125 -2.4648438 259.875 -2.640625Q260.21875 -2.8164062 260.73438 -2.8164062Q261.15625 -2.8164062 261.41406 -2.6992188L261.41406 -0.86328125Q260.88281 -0.98046875 260.47656 -0.98046875Q259.65625 -0.98046875 259.19922 -0.31640625Q258.74219 0.34765625 258.74219 1.6523438L258.74219 5.8007812L256.54688 5.8007812ZM266.23438 5.9570312Q264.32812 5.9570312 263.30469 4.828125Q262.28125 3.6992188 262.28125 1.5351562Q262.28125 -0.55859375 263.32031 -1.6835938Q264.35938 -2.8085938 266.26562 -2.8085938Q268.08594 -2.8085938 269.04688 -1.6015625Q270.00781 -0.39453125 270.00781 1.9335938L270.00781 1.9960938L264.58594 1.9960938Q264.58594 3.2304688 265.04297 3.859375Q265.5 4.4882812 266.34375 4.4882812Q267.50781 4.4882812 267.8125 3.4804688L269.88281 3.6601562Q268.98438 5.9570312 266.23438 5.9570312ZM266.23438 -1.4257812Q265.46094 -1.4257812 265.04297 -0.88671875Q264.625 -0.34765625 264.60156 0.62109375L267.88281 0.62109375Q267.82031 -0.40234375 267.39062 -0.9140625Q266.96094 -1.4257812 266.23438 -1.4257812ZM277.14844 5.8007812L277.14844 1.0585938Q277.14844 -1.1679688 275.64062 -1.1679688Q274.84375 -1.1679688 274.35547 -0.484375Q273.86719 0.19921875 273.86719 1.2695312L273.86719 5.8007812L271.67188 5.8007812L271.67188 -0.76171875Q271.67188 -1.4414062 271.65234 -1.875Q271.63281 -2.3085938 271.60938 -2.6523438L273.70312 -2.6523438Q273.72656 -2.5039062 273.76562 -1.859375Q273.80469 -1.2148438 273.80469 -0.97265625L273.83594 -0.97265625Q274.28125 -1.9414062 274.95312 -2.3789062Q275.625 -2.8164062 276.55469 -2.8164062Q277.89844 -2.8164062 278.61719 -1.9882812Q279.33594 -1.1601562 279.33594 0.43359375L279.33594 5.8007812L277.14844 5.8007812ZM286.92188 5.8007812Q286.89062 5.6835938 286.84766 5.2109375Q286.80469 4.7382812 286.80469 4.4257812L286.77344 4.4257812Q286.0625 5.9570312 284.07031 5.9570312Q282.59375 5.9570312 281.78906 4.8046875Q280.98438 3.6523438 280.98438 1.5820312Q280.98438 -0.51953125 281.83203 -1.6640625Q282.67969 -2.8085938 284.23438 -2.8085938Q285.13281 -2.8085938 285.78516 -2.4335938Q286.4375 -2.0585938 286.78906 -1.3164062L286.80469 -1.3164062L286.78906 -2.7070312L286.78906 -5.7929688L288.98438 -5.7929688L288.98438 3.9570312Q288.98438 4.7382812 289.04688 5.8007812L286.92188 5.8007812ZM286.82031 1.5273438Q286.82031 0.16015625 286.36328 -0.578125Q285.90625 -1.3164062 285.01562 -1.3164062Q284.13281 -1.3164062 283.70312 -0.6015625Q283.27344 0.11328125 283.27344 1.5820312Q283.27344 4.4570312 285 4.4570312Q285.86719 4.4570312 286.34375 3.6953125Q286.82031 2.9335938 286.82031 1.5273438ZM298.34375 3.3320312Q298.34375 4.5585938 297.33984 5.2578125Q296.33594 5.9570312 294.5625 5.9570312Q292.82031 5.9570312 291.89453 5.40625Q290.96875 4.8554688 290.66406 3.6914062L292.59375 3.4023438Q292.75781 4.0039062 293.16016 4.2539062Q293.5625 4.5039062 294.5625 4.5039062Q295.48438 4.5039062 295.90625 4.2695312Q296.32812 4.0351562 296.32812 3.5351562Q296.32812 3.1289062 295.98828 2.890625Q295.64844 2.6523438 294.83594 2.4882812Q292.97656 2.1210938 292.32812 1.8046875Q291.67969 1.4882812 291.33984 0.984375Q291 0.48046875 291 -0.25390625Q291 -1.4648438 291.93359 -2.140625Q292.86719 -2.8164062 294.57812 -2.8164062Q296.08594 -2.8164062 297.00391 -2.2304688Q297.92188 -1.6445312 298.14844 -0.53515625L296.20312 -0.33203125Q296.10938 -0.84765625 295.74219 -1.1015625Q295.375 -1.3554688 294.57812 -1.3554688Q293.79688 -1.3554688 293.40625 -1.15625Q293.01562 -0.95703125 293.01562 -0.48828125Q293.01562 -0.12109375 293.31641 0.09375Q293.61719 0.30859375 294.32812 0.44921875Q295.32031 0.65234375 296.08984 0.8671875Q296.85938 1.0820312 297.32422 1.3789062Q297.78906 1.6757812 298.06641 2.140625Q298.34375 2.6054688 298.34375 3.3320312Z"/>
	<path fill="none" stroke="black" stroke-width="1" stroke-miterlimit="10" stroke-opacity="0.10196079" d="M49 749.5L1195 749.5"/>
	<clipPath id="cl_1a1">
		<rect y="749.20001" width="1200" height="50.799988"/>
	</clipPath>
	<g clip-path="url(#cl_1a1)">
		<path fill="#666" transform="translate(49.75 760.2)" d="M-7.7480469 11.300586L-8.9960938 11.300586L-11.298828 4.960742L-10.173828 4.960742L-8.7792969 9.085742Q-8.703125 9.320117 -8.375 10.474414L-8.1699219 9.788867L-7.9414062 9.0974607L-6.5 4.960742L-5.3808594 4.960742L-7.7480469 11.300586ZM-4.4257812 11.300586L-4.4257812 10.404101L-2.3222656 10.404101L-2.3222656 4.0525389L-4.1855469 5.382617L-4.1855469 4.3865232L-2.234375 3.0447264L-1.2617188 3.0447264L-1.2617188 10.404101L0.74804688 10.404101L0.74804688 11.300586L-4.4257812 11.300586ZM2.4296875 11.300586L2.4296875 10.017383L3.5722656 10.017383L3.5722656 11.300586L2.4296875 11.300586ZM10.873047 7.1697264Q10.873047 9.2380857 10.143555 10.327929Q9.4140625 11.417773 7.9902344 11.417773Q6.5664062 11.417773 5.8515625 10.333789Q5.1367188 9.2498045 5.1367188 7.1697264Q5.1367188 5.0427732 5.8310547 3.9822264Q6.5253906 2.9216795 8.0253906 2.9216795Q9.484375 2.9216795 10.178711 3.9939451Q10.873047 5.0662107 10.873047 7.1697264ZM9.8007812 7.1697264Q9.8007812 5.382617 9.3876953 4.5798826Q8.9746094 3.7771482 8.0253906 3.7771482Q7.0527344 3.7771482 6.6279297 4.5681639Q6.203125 5.3591795 6.203125 7.1697264Q6.203125 8.9275389 6.6337891 9.741992Q7.0644531 10.556445 8.0019531 10.556445Q8.9335938 10.556445 9.3671875 9.7244139Q9.8007812 8.8923826 9.8007812 7.1697264Z"/>
	</g>
	<path fill="none" stroke="black" stroke-width="1" stroke-miterlimit="10" stroke-opacity="0.10196079" d="M49.5 71L49.5 750"/>
	<clipPath id="cl_1a3">
		<rect width="49.75" height="800"/>
	</clipPath>
	<g clip-path="url(#cl_1a3)">
		<path fill="#666" transform="translate(38.75 749.2)" d="M-0.46679688 -0.030273438Q-0.46679688 2.0380859 -1.1962891 3.1279297Q-1.9257812 4.2177734 -3.3496094 4.2177734Q-4.7734375 4.2177734 -5.4882812 3.1337891Q-6.203125 2.0498047 -6.203125 -0.030273438Q-6.203125 -2.1572266 -5.5087891 -3.2177734Q-4.8144531 -4.2783203 -3.3144531 -4.2783203Q-1.8554688 -4.2783203 -1.1611328 -3.2060547Q-0.46679688 -2.1337891 -0.46679688 -0.030273438ZM-1.5390625 -0.030273438Q-1.5390625 -1.8173828 -1.9521484 -2.6201172Q-2.3652344 -3.4228516 -3.3144531 -3.4228516Q-4.2871094 -3.4228516 -4.7119141 -2.6318359Q-5.1367188 -1.8408203 -5.1367188 -0.030273438Q-5.1367188 1.7275391 -4.7060547 2.5419922Q-4.2753906 3.3564453 -3.3378906 3.3564453Q-2.40625 3.3564453 -1.9726562 2.5244141Q-1.5390625 1.6923828 -1.5390625 -0.030273438Z"/>
	</g>
	<clipPath id="cl_1a4">
		<rect width="49.75" height="800"/>
	</clipPath>
	<g clip-path="url(#cl_1a4)">
		<path fill="#666" transform="translate(38.75 681.4)" d="M-5.7578125 4.1005859L-5.7578125 3.2041016L-3.6542969 3.2041016L-3.6542969 -3.1474609L-5.5175781 -1.8173828L-5.5175781 -2.8134766L-3.5664062 -4.1552734L-2.59375 -4.1552734L-2.59375 3.2041016L-0.58398438 3.2041016L-0.58398438 4.1005859L-5.7578125 4.1005859Z"/>
	</g>
	<clipPath id="cl_1a5">
		<rect width="49.75" height="800"/>
	</clipPath>
	<g clip-path="url(#cl_1a5)">
		<path fill="#666" transform="translate(38.75 613.6)" d="M-6.0683594 4.1005859L-6.0683594 3.3564453Q-5.7695312 2.6708984 -5.3388672 2.1464844Q-4.9082031 1.6220703 -4.4335938 1.1972656Q-3.9589844 0.77246094 -3.4931641 0.40917969Q-3.0273438 0.045898438 -2.6523438 -0.31738281Q-2.2773438 -0.68066406 -2.0458984 -1.0791016Q-1.8144531 -1.4775391 -1.8144531 -1.9814453Q-1.8144531 -2.6611328 -2.2128906 -3.0361328Q-2.6113281 -3.4111328 -3.3203125 -3.4111328Q-3.9941406 -3.4111328 -4.4306641 -3.0449219Q-4.8671875 -2.6787109 -4.9433594 -2.0166016L-6.0214844 -2.1162109Q-5.9042969 -3.1064453 -5.1806641 -3.6923828Q-4.4570312 -4.2783203 -3.3203125 -4.2783203Q-2.0722656 -4.2783203 -1.4013672 -3.6894531Q-0.73046875 -3.1005859 -0.73046875 -2.0166016Q-0.73046875 -1.5361328 -0.95019531 -1.0615234Q-1.1699219 -0.58691406 -1.6035156 -0.11230469Q-2.0371094 0.36230469 -3.2617188 1.3583984Q-3.9355469 1.9091797 -4.3339844 2.3515625Q-4.7324219 2.7939453 -4.9082031 3.2041016L-0.6015625 3.2041016L-0.6015625 4.1005859L-6.0683594 4.1005859Z"/>
	</g>
	<clipPath id="cl_1a6">
		<rect width="49.75" height="800"/>
	</clipPath>
	<g clip-path="url(#cl_1a6)">
		<path fill="#666" transform="translate(38.75 545.8)" d="M-0.52539062 1.8212891Q-0.52539062 2.9638672 -1.2519531 3.5908203Q-1.9785156 4.2177734 -3.3261719 4.2177734Q-4.5800781 4.2177734 -5.3271484 3.6523438Q-6.0742188 3.0869141 -6.2148438 1.9794922L-5.125 1.8798828Q-4.9140625 3.3447266 -3.3261719 3.3447266Q-2.5292969 3.3447266 -2.0751953 2.9521484Q-1.6210938 2.5595703 -1.6210938 1.7861328Q-1.6210938 1.1123047 -2.1396484 0.734375Q-2.6582031 0.35644531 -3.6367188 0.35644531L-4.234375 0.35644531L-4.234375 -0.55761719L-3.6601562 -0.55761719Q-2.7929688 -0.55761719 -2.3154297 -0.93554688Q-1.8378906 -1.3134766 -1.8378906 -1.9814453Q-1.8378906 -2.6435547 -2.2275391 -3.0273438Q-2.6171875 -3.4111328 -3.3847656 -3.4111328Q-4.0820312 -3.4111328 -4.5126953 -3.0537109Q-4.9433594 -2.6962891 -5.0136719 -2.0458984L-6.0742188 -2.1279297Q-5.9570312 -3.1416016 -5.2333984 -3.7099609Q-4.5097656 -4.2783203 -3.3730469 -4.2783203Q-2.1308594 -4.2783203 -1.4423828 -3.7011719Q-0.75390625 -3.1240234 -0.75390625 -2.0927734Q-0.75390625 -1.3017578 -1.1962891 -0.80664062Q-1.6386719 -0.31152344 -2.4824219 -0.13574219L-2.4824219 -0.11230469Q-1.5566406 -0.012695312 -1.0410156 0.50878906Q-0.52539062 1.0302734 -0.52539062 1.8212891Z"/>
	</g>
	<clipPath id="cl_1a7">
		<rect width="49.75" height="800"/>
	</clipPath>
	<g clip-path="url(#cl_1a7)">
		<path fill="#666" transform="translate(38.75 478)" d="M-1.5097656 2.2314453L-1.5097656 4.1005859L-2.5058594 4.1005859L-2.5058594 2.2314453L-6.3964844 2.2314453L-6.3964844 1.4111328L-2.6171875 -4.1552734L-1.5097656 -4.1552734L-1.5097656 1.3994141L-0.34960938 1.3994141L-0.34960938 2.2314453L-1.5097656 2.2314453ZM-2.5058594 -2.9658203Q-2.5175781 -2.9306641 -2.6699219 -2.6552734Q-2.8222656 -2.3798828 -2.8984375 -2.2685547L-5.0136719 0.84863281L-5.3300781 1.2822266L-5.4238281 1.3994141L-2.5058594 1.3994141L-2.5058594 -2.9658203Z"/>
	</g>
	<clipPath id="cl_1a8">
		<rect width="49.75" height="800"/>
	</clipPath>
	<g clip-path="url(#cl_1a8)">
		<path fill="#666" transform="translate(38.75 410.2)" d="M-0.50195312 1.4111328Q-0.50195312 2.7177734 -1.2783203 3.4677734Q-2.0546875 4.2177734 -3.4316406 4.2177734Q-4.5859375 4.2177734 -5.2949219 3.7138672Q-6.0039062 3.2099609 -6.1914062 2.2548828L-5.125 2.1318359Q-4.7910156 3.3564453 -3.4082031 3.3564453Q-2.5585938 3.3564453 -2.078125 2.84375Q-1.5976562 2.3310547 -1.5976562 1.4345703Q-1.5976562 0.65527344 -2.0810547 0.17480469Q-2.5644531 -0.30566406 -3.3847656 -0.30566406Q-3.8125 -0.30566406 -4.1816406 -0.17089844Q-4.5507812 -0.036132812 -4.9199219 0.28613281L-5.9511719 0.28613281L-5.6757812 -4.1552734L-0.98242188 -4.1552734L-0.98242188 -3.2587891L-4.7148438 -3.2587891L-4.8730469 -0.63964844Q-4.1875 -1.1669922 -3.1679688 -1.1669922Q-1.9492188 -1.1669922 -1.2255859 -0.45214844Q-0.50195312 0.26269531 -0.50195312 1.4111328Z"/>
	</g>
	<clipPath id="cl_1a9">
		<rect width="49.75" height="800"/>
	</clipPath>
	<g clip-path="url(#cl_1a9)">
		<path fill="#666" transform="translate(38.75 342.4)" d="M-0.52539062 1.3994141Q-0.52539062 2.7060547 -1.234375 3.4619141Q-1.9433594 4.2177734 -3.1914062 4.2177734Q-4.5859375 4.2177734 -5.3242188 3.1806641Q-6.0625 2.1435547 -6.0625 0.16308594Q-6.0625 -1.9814453 -5.2949219 -3.1298828Q-4.5273438 -4.2783203 -3.109375 -4.2783203Q-1.2402344 -4.2783203 -0.75390625 -2.5966797L-1.7617188 -2.4150391Q-2.0722656 -3.4228516 -3.1210938 -3.4228516Q-4.0234375 -3.4228516 -4.5185547 -2.5820312Q-5.0136719 -1.7412109 -5.0136719 -0.14746094Q-4.7265625 -0.68066406 -4.2050781 -0.95898438Q-3.6835938 -1.2373047 -3.0097656 -1.2373047Q-1.8671875 -1.2373047 -1.1962891 -0.52246094Q-0.52539062 0.19238281 -0.52539062 1.3994141ZM-1.5976562 1.4462891Q-1.5976562 0.54980469 -2.0371094 0.063476562Q-2.4765625 -0.42285156 -3.2617188 -0.42285156Q-4 -0.42285156 -4.4541016 0.0078125Q-4.9082031 0.43847656 -4.9082031 1.1943359Q-4.9082031 2.1494141 -4.4365234 2.7587891Q-3.9648438 3.3681641 -3.2265625 3.3681641Q-2.4648438 3.3681641 -2.03125 2.8554688Q-1.5976562 2.3427734 -1.5976562 1.4462891Z"/>
	</g>
	<clipPath id="cl_1aa">
		<rect width="49.75" height="800"/>
	</clipPath>
	<g clip-path="url(#cl_1aa)">
		<path fill="#666" transform="translate(38.75 274.6)" d="M-0.6015625 -3.2998047Q-1.8671875 -1.3662109 -2.3886719 -0.27050781Q-2.9101562 0.82519531 -3.1708984 1.8916016Q-3.4316406 2.9580078 -3.4316406 4.1005859L-4.5332031 4.1005859Q-4.5332031 2.5185547 -3.8623047 0.76953125Q-3.1914062 -0.97949219 -1.6210938 -3.2587891L-6.0566406 -3.2587891L-6.0566406 -4.1552734L-0.6015625 -4.1552734L-0.6015625 -3.2998047Z"/>
	</g>
	<clipPath id="cl_1ab">
		<rect width="49.75" height="800"/>
	</clipPath>
	<g clip-path="url(#cl_1ab)">
		<path fill="#666" transform="translate(38.75 206.8)" d="M-0.51953125 1.7978516Q-0.51953125 2.9404297 -1.2460938 3.5791016Q-1.9726562 4.2177734 -3.3320312 4.2177734Q-4.65625 4.2177734 -5.4033203 3.5908203Q-6.1503906 2.9638672 -6.1503906 1.8095703Q-6.1503906 1.0009766 -5.6875 0.45019531Q-5.2246094 -0.10058594 -4.5039062 -0.21777344L-4.5039062 -0.24121094Q-5.1777344 -0.39941406 -5.5673828 -0.92675781Q-5.9570312 -1.4541016 -5.9570312 -2.1630859Q-5.9570312 -3.1064453 -5.2509766 -3.6923828Q-4.5449219 -4.2783203 -3.3554688 -4.2783203Q-2.1367188 -4.2783203 -1.4306641 -3.7041016Q-0.72460938 -3.1298828 -0.72460938 -2.1513672Q-0.72460938 -1.4423828 -1.1171875 -0.91503906Q-1.5097656 -0.38769531 -2.1894531 -0.25292969L-2.1894531 -0.22949219Q-1.3984375 -0.10058594 -0.95898438 0.44140625Q-0.51953125 0.98339844 -0.51953125 1.7978516ZM-1.8203125 -2.0927734Q-1.8203125 -3.4931641 -3.3554688 -3.4931641Q-4.0996094 -3.4931641 -4.4892578 -3.1416016Q-4.8789062 -2.7900391 -4.8789062 -2.0927734Q-4.8789062 -1.3837891 -4.4775391 -1.0117188Q-4.0761719 -0.63964844 -3.34375 -0.63964844Q-2.5996094 -0.63964844 -2.2099609 -0.98242188Q-1.8203125 -1.3251953 -1.8203125 -2.0927734ZM-1.6152344 1.6982422Q-1.6152344 0.93066406 -2.0722656 0.54101562Q-2.5292969 0.15136719 -3.3554688 0.15136719Q-4.1582031 0.15136719 -4.609375 0.5703125Q-5.0605469 0.98925781 -5.0605469 1.7216797Q-5.0605469 3.4267578 -3.3203125 3.4267578Q-2.4589844 3.4267578 -2.0371094 3.0136719Q-1.6152344 2.6005859 -1.6152344 1.6982422Z"/>
	</g>
	<clipPath id="cl_1ac">
		<rect width="49.75" height="800"/>
	</clipPath>
	<g clip-path="url(#cl_1ac)">
		<path fill="#666" transform="translate(38.75 139)" d="M-0.56640625 -0.19433594Q-0.56640625 1.9326172 -1.3427734 3.0751953Q-2.1191406 4.2177734 -3.5546875 4.2177734Q-4.5214844 4.2177734 -5.1044922 3.8105469Q-5.6875 3.4033203 -5.9394531 2.4951172L-4.9316406 2.3369141Q-4.6152344 3.3681641 -3.5371094 3.3681641Q-2.6289062 3.3681641 -2.1308594 2.5244141Q-1.6328125 1.6806641 -1.609375 0.11621094Q-1.84375 0.64355469 -2.4121094 0.96289062Q-2.9804688 1.2822266 -3.6601562 1.2822266Q-4.7734375 1.2822266 -5.4414062 0.52050781Q-6.109375 -0.24121094 -6.109375 -1.5009766Q-6.109375 -2.7958984 -5.3828125 -3.5371094Q-4.65625 -4.2783203 -3.3613281 -4.2783203Q-1.984375 -4.2783203 -1.2753906 -3.2587891Q-0.56640625 -2.2392578 -0.56640625 -0.19433594ZM-1.7148438 -1.2138672Q-1.7148438 -2.2099609 -2.171875 -2.8164062Q-2.6289062 -3.4228516 -3.3964844 -3.4228516Q-4.1582031 -3.4228516 -4.5976562 -2.9042969Q-5.0371094 -2.3857422 -5.0371094 -1.5009766Q-5.0371094 -0.59863281 -4.5976562 -0.07421875Q-4.1582031 0.45019531 -3.4082031 0.45019531Q-2.9511719 0.45019531 -2.5585938 0.2421875Q-2.1660156 0.034179688 -1.9404297 -0.34667969Q-1.7148438 -0.72753906 -1.7148438 -1.2138672Z"/>
	</g>
	<clipPath id="cl_1ad">
		<rect width="49.75" height="800"/>
	</clipPath>
	<g clip-path="url(#cl_1ad)">
		<path fill="#666" transform="translate(38.75 71.2)" d="M-12.429688 4.1005859L-12.429688 3.2041016L-10.326172 3.2041016L-10.326172 -3.1474609L-12.189453 -1.8173828L-12.189453 -2.8134766L-10.238281 -4.1552734L-9.265625 -4.1552734L-9.265625 3.2041016L-7.2558594 3.2041016L-7.2558594 4.1005859L-12.429688 4.1005859ZM-0.46484375 -0.030273438Q-0.46484375 2.0380859 -1.1943359 3.1279297Q-1.9238281 4.2177734 -3.3476562 4.2177734Q-4.7714844 4.2177734 -5.4863281 3.1337891Q-6.2011719 2.0498047 -6.2011719 -0.030273438Q-6.2011719 -2.1572266 -5.5068359 -3.2177734Q-4.8125 -4.2783203 -3.3125 -4.2783203Q-1.8535156 -4.2783203 -1.1591797 -3.2060547Q-0.46484375 -2.1337891 -0.46484375 -0.030273438ZM-1.5371094 -0.030273438Q-1.5371094 -1.8173828 -1.9501953 -2.6201172Q-2.3632812 -3.4228516 -3.3125 -3.4228516Q-4.2851562 -3.4228516 -4.7099609 -2.6318359Q-5.1347656 -1.8408203 -5.1347656 -0.030273438Q-5.1347656 1.7275391 -4.7041016 2.5419922Q-4.2734375 3.3564453 -3.3359375 3.3564453Q-2.4042969 3.3564453 -1.9707031 2.5244141Q-1.5371094 1.6923828 -1.5371094 -0.030273438Z"/>
	</g>
	<clipPath id="cl_1af">
		<rect x="43.75" y="65.199997" width="1156.25" height="690"/>
	</clipPath>
	<g clip-path="url(#cl_1af)">
		<path fill="none" stroke="#C32222" stroke-width="2" stroke-miterlimit="10" d=""/>
	</g>
	<clipPath id="cl_1b0">
		<rect x="43.75" y="65.199997" width="1156.25" height="690"/>
	</clipPath>
	<g clip-path="url(#cl_1b0)">
		<path fill="#C32222" fill-opacity="0.2" d="M52.75 749.20001Q52.75 749.34741 52.73555 749.49414Q52.721107 749.64075 52.692352 749.78522Q52.663601 749.92981 52.620815 750.0708Q52.578033 750.21179 52.521633 750.34796Q52.465233 750.48419 52.39576 750.61414Q52.326286 750.74414 52.244404 750.86658Q52.162525 750.98914 52.069027 751.10309Q51.975533 751.21704 51.871319 751.32129Q51.767105 751.42554 51.653179 751.51898Q51.539253 751.61249 51.416706 751.69434Q51.294167 751.77625 51.164188 751.84583Q51.03421 751.91528 50.898048 751.97162Q50.76189 752.02808 50.620857 752.0708Q50.47982 752.11365 50.33527 752.14233Q50.19072 752.17114 50.044052 752.18555Q49.897381 752.20001 49.75 752.20001Q49.602619 752.20001 49.455948 752.18555Q49.309277 752.17114 49.164726 752.14233Q49.02018 752.11365 48.879143 752.0708Q48.73811 752.02802 48.601944 751.97156Q48.465782 751.91522 48.335808 751.84576Q48.205826 751.77631 48.083282 751.6944Q47.960747 751.61255 47.846817 751.51904Q47.732895 751.4256 47.628677 751.32135Q47.524467 751.21716 47.430969 751.10321Q47.337471 750.98926 47.255585 750.8667Q47.173706 750.74414 47.104233 750.6142Q47.03476 750.48425 46.978359 750.34802Q46.921963 750.21191 46.879177 750.07092Q46.836395 749.92987 46.80764 749.78528Q46.778893 749.64075 46.76445 749.49414Q46.75 749.34741 46.75 749.20001Q46.75 749.05273 46.76445 748.90601Q46.778896 748.75928 46.807648 748.61469Q46.836403 748.47015 46.879181 748.3291Q46.921963 748.18811 46.978359 748.05188Q47.03476 747.91577 47.104233 747.78577Q47.173706 747.65582 47.255585 747.5332Q47.337471 747.41071 47.430969 747.29675Q47.524467 747.18286 47.628677 747.07861Q47.732895 746.97443 47.846817 746.88092Q47.960747 746.78735 48.083282 746.70544Q48.205826 746.62366 48.335808 746.5542Q48.465782 746.48474 48.601944 746.42828Q48.73811 746.37195 48.879143 746.32922Q49.02018 746.28644 49.164726 746.25763Q49.309277 746.22888 49.455948 746.21448Q49.602619 746.20007 49.75 746.20001Q49.897381 746.20007 50.044052 746.21454Q50.19072 746.22894 50.335266 746.25769Q50.479816 746.2865 50.620853 746.32922Q50.761887 746.37201 50.898045 746.42834Q51.03421 746.48474 51.164188 746.55426Q51.294167 746.62372 51.416706 746.70557Q51.539253 746.78748 51.653179 746.88104Q51.767105 746.97449 51.871315 747.07867Q51.975533 747.18292 52.069023 747.29681Q52.162521 747.41077 52.2444 747.53326Q52.326279 747.65588 52.395756 747.78577Q52.465233 747.91577 52.521633 748.05188Q52.578033 748.18811 52.620815 748.3291Q52.663597 748.47021 52.692348 748.61475Q52.721107 748.75934 52.73555 748.90601Q52.75 749.05273 52.75 749.20001Z"/>
		<path fill="none" stroke="#C32222" stroke-width="2" stroke-miterlimit="10" d="M52.75 749.20001Q52.75 749.34741 52.73555 749.49414Q52.721107 749.64075 52.692352 749.78522Q52.663601 749.92981 52.620815 750.0708Q52.578033 750.21179 52.521633 750.34796Q52.465233 750.48419 52.39576 750.61414Q52.326286 750.74414 52.244404 750.86658Q52.162525 750.98914 52.069027 751.10309Q51.975533 751.21704 51.871319 751.32129Q51.767105 751.42554 51.653179 751.51898Q51.539253 751.61249 51.416706 751.69434Q51.294167 751.77625 51.164188 751.84583Q51.03421 751.91528 50.898048 751.97162Q50.76189 752.02808 50.620857 752.0708Q50.47982 752.11365 50.33527 752.14233Q50.19072 752.17114 50.044052 752.18555Q49.897381 752.20001 49.75 752.20001Q49.602619 752.20001 49.455948 752.18555Q49.309277 752.17114 49.164726 752.14233Q49.02018 752.11365 48.879143 752.0708Q48.73811 752.02802 48.601944 751.97156Q48.465782 751.91522 48.335808 751.84576Q48.205826 751.77631 48.083282 751.6944Q47.960747 751.61255 47.846817 751.51904Q47.732895 751.4256 47.628677 751.32135Q47.524467 751.21716 47.430969 751.10321Q47.337471 750.98926 47.255585 750.8667Q47.173706 750.74414 47.104233 750.6142Q47.03476 750.48425 46.978359 750.34802Q46.921963 750.21191 46.879177 750.07092Q46.836395 749.92987 46.80764 749.78528Q46.778893 749.64075 46.76445 749.49414Q46.75 749.34741 46.75 749.20001Q46.75 749.05273 46.76445 748.90601Q46.778896 748.75928 46.807648 748.61469Q46.836403 748.47015 46.879181 748.3291Q46.921963 748.18811 46.978359 748.05188Q47.03476 747.91577 47.104233 747.78577Q47.173706 747.65582 47.255585 747.5332Q47.337471 747.41071 47.430969 747.29675Q47.524467 747.18286 47.628677 747.07861Q47.732895 746.97443 47.846817 746.88092Q47.960747 746.78735 48.083282 746.70544Q48.205826 746.62366 48.335808 746.5542Q48.465782 746.48474 48.601944 746.42828Q48.73811 746.37195 48.879143 746.32922Q49.02018 746.28644 49.164726 746.25763Q49.309277 746.22888 49.455948 746.21448Q49.602619 746.20007 49.75 746.20001Q49.897381 746.20007 50.044052 746.21454Q50.19072 746.22894 50.335266 746.25769Q50.479816 746.2865 50.620853 746.32922Q50.761887 746.37201 50.898045 746.42834Q51.03421 746.48474 51.164188 746.55426Q51.294167 746.62372 51.416706 746.70557Q51.539253 746.78748 51.653179 746.88104Q51.767105 746.97449 51.871315 747.07867Q51.975533 747.18292 52.069023 747.29681Q52.162521 747.41077 52.2444 747.53326Q52.326279 747.65588 52.395756 747.78577Q52.465233 747.91577 52.521633 748.05188Q52.578033 748.18811 52.620815 748.3291Q52.663597 748.47021 52.692348 748.61475Q52.721107 748.75934 52.73555 748.90601Q52.75 749.05273 52.75 749.20001Z"/>
	</g>
</svg>
