<?xml version="1.0" encoding="utf-8" ?>
<svg xmlns="http://www.w3.org/2000/svg" xmlns:xlink="http://www.w3.org/1999/xlink" width="1200" height="800">
	<rect fill="white" width="1200" height="800"/>
	<path fill="none" stroke="black" stroke-width="1" stroke-miterlimit="10" stroke-opacity="0.10196079" d="M49.5 71.199997L49.5 749"/>
	<path fill="none" stroke="black" stroke-width="1" stroke-miterlimit="10" stroke-opacity="0.10196079" d="M49.5 750L49.5 757.20001"/>
	<path fill="#666" transform="translate(621.875 788.8)" d="M-26.550781 4.1005859L-28.695312 0.67285156L-31.267578 0.67285156L-31.267578 4.1005859L-32.386719 4.1005859L-32.386719 -4.1552734L-28.501953 -4.1552734Q-27.107422 -4.1552734 -26.348633 -3.53125Q-25.589844 -2.9072266 -25.589844 -1.7939453Q-25.589844 -0.87402344 -26.125977 -0.24707031Q-26.662109 0.37988281 -27.605469 0.54394531L-25.261719 4.1005859L-26.550781 4.1005859ZM-26.714844 -1.7822266Q-26.714844 -2.5029297 -27.204102 -2.8808594Q-27.693359 -3.2587891 -28.613281 -3.2587891L-31.267578 -3.2587891L-31.267578 -0.21191406L-28.566406 -0.21191406Q-27.681641 -0.21191406 -27.198242 -0.625Q-26.714844 -1.0380859 -26.714844 -1.7822266ZM-23.087891 1.1533203Q-23.087891 2.2431641 -22.636719 2.8349609Q-22.185547 3.4267578 -21.318359 3.4267578Q-20.632812 3.4267578 -20.219727 3.1513672Q-19.806641 2.8759766 -19.660156 2.4541016L-18.734375 2.7177734Q-19.302734 4.2177734 -21.318359 4.2177734Q-22.724609 4.2177734 -23.459961 3.3798828Q-24.195312 2.5419922 -24.195312 0.88964844Q-24.195312 -0.68066406 -23.459961 -1.5185547Q-22.724609 -2.3564453 -21.359375 -2.3564453Q-18.564453 -2.3564453 -18.564453 1.0126953L-18.564453 1.1533203L-23.087891 1.1533203ZM-19.654297 0.34472656Q-19.742188 -0.65722656 -20.164062 -1.1171875Q-20.585938 -1.5771484 -21.376953 -1.5771484Q-22.144531 -1.5771484 -22.592773 -1.0644531Q-23.041016 -0.55175781 -23.076172 0.34472656L-19.654297 0.34472656ZM-17.222656 4.1005859L-17.222656 -4.5947266L-16.167969 -4.5947266L-16.167969 4.1005859L-17.222656 4.1005859ZM-13.748047 1.1533203Q-13.748047 2.2431641 -13.296875 2.8349609Q-12.845703 3.4267578 -11.978516 3.4267578Q-11.292969 3.4267578 -10.879883 3.1513672Q-10.466797 2.8759766 -10.320312 2.4541016L-9.3945312 2.7177734Q-9.9628906 4.2177734 -11.978516 4.2177734Q-13.384766 4.2177734 -14.120117 3.3798828Q-14.855469 2.5419922 -14.855469 0.88964844Q-14.855469 -0.68066406 -14.120117 -1.5185547Q-13.384766 -2.3564453 -12.019531 -2.3564453Q-9.2246094 -2.3564453 -9.2246094 1.0126953L-9.2246094 1.1533203L-13.748047 1.1533203ZM-10.314453 0.34472656Q-10.402344 -0.65722656 -10.824219 -1.1171875Q-11.246094 -1.5771484 -12.037109 -1.5771484Q-12.804688 -1.5771484 -13.25293 -1.0644531Q-13.701172 -0.55175781 -13.736328 0.34472656L-10.314453 0.34472656ZM-6.265625 4.2177734Q-7.2207031 4.2177734 -7.7011719 3.7138672Q-8.1816406 3.2099609 -8.1816406 2.3310547Q-8.1816406 1.3466797 -7.5341797 0.81933594Q-6.8867188 0.29199219 -5.4453125 0.25683594L-4.0214844 0.23339844L-4.0214844 -0.11230469Q-4.0214844 -0.88574219 -4.3496094 -1.2197266Q-4.6777344 -1.5537109 -5.3808594 -1.5537109Q-6.0898438 -1.5537109 -6.4121094 -1.3134766Q-6.734375 -1.0732422 -6.7988281 -0.54589844L-7.9003906 -0.64550781Q-7.6308594 -2.3564453 -5.3574219 -2.3564453Q-4.1621094 -2.3564453 -3.5585938 -1.8085938Q-2.9550781 -1.2607422 -2.9550781 -0.22363281L-2.9550781 2.5068359Q-2.9550781 2.9755859 -2.8320312 3.2128906Q-2.7089844 3.4501953 -2.3632812 3.4501953Q-2.2109375 3.4501953 -2.0175781 3.4091797L-2.0175781 4.0654297Q-2.4160156 4.1591797 -2.8320312 4.1591797Q-3.4179688 4.1591797 -3.6845703 3.8515625Q-3.9511719 3.5439453 -3.9863281 2.8876953L-4.0214844 2.8876953Q-4.4257812 3.6142578 -4.9619141 3.9160156Q-5.4980469 4.2177734 -6.265625 4.2177734ZM-6.0253906 3.4267578Q-5.4453125 3.4267578 -4.9941406 3.1630859Q-4.5429688 2.8994141 -4.2822266 2.4394531Q-4.0214844 1.9794922 -4.0214844 1.4931641L-4.0214844 0.97167969L-5.1757812 0.99511719Q-5.9199219 1.0068359 -6.3037109 1.1474609Q-6.6875 1.2880859 -6.8925781 1.5810547Q-7.0976562 1.8740234 -7.0976562 2.3486328Q-7.0976562 2.8642578 -6.8193359 3.1455078Q-6.5410156 3.4267578 -6.0253906 3.4267578ZM3.5488281 2.3486328Q3.5488281 3.2451172 2.8720703 3.7314453Q2.1953125 4.2177734 0.9765625 4.2177734Q-0.20703125 4.2177734 -0.84863281 3.828125Q-1.4902344 3.4384766 -1.6835938 2.6123047L-0.75195312 2.4306641Q-0.6171875 2.9404297 -0.1953125 3.1777344Q0.2265625 3.4150391 0.9765625 3.4150391Q1.7792969 3.4150391 2.1513672 3.1689453Q2.5234375 2.9228516 2.5234375 2.4306641Q2.5234375 2.0556641 2.265625 1.8212891Q2.0078125 1.5869141 1.4335938 1.4345703L0.67773438 1.2353516Q-0.23046875 1.0009766 -0.61425781 0.77539062Q-0.99804688 0.54980469 -1.2148438 0.22753906Q-1.4316406 -0.094726562 -1.4316406 -0.56347656Q-1.4316406 -1.4306641 -0.81347656 -1.8847656Q-0.1953125 -2.3388672 0.98828125 -2.3388672Q2.0371094 -2.3388672 2.6552734 -1.9697266Q3.2734375 -1.6005859 3.4375 -0.78613281L2.4882812 -0.66894531Q2.4003906 -1.0908203 2.0166016 -1.3164062Q1.6328125 -1.5419922 0.98828125 -1.5419922Q0.2734375 -1.5419922 -0.06640625 -1.3251953Q-0.40625 -1.1083984 -0.40625 -0.66894531Q-0.40625 -0.39941406 -0.265625 -0.22363281Q-0.125 -0.047851562 0.15039062 0.075195312Q0.42578125 0.19824219 1.3105469 0.41503906Q2.1484375 0.62597656 2.5175781 0.8046875Q2.8867188 0.98339844 3.1005859 1.2001953Q3.3144531 1.4169922 3.4316406 1.7011719Q3.5488281 1.9853516 3.5488281 2.3486328ZM5.5996094 1.1533203Q5.5996094 2.2431641 6.0507812 2.8349609Q6.5019531 3.4267578 7.3691406 3.4267578Q8.0546875 3.4267578 8.4677734 3.1513672Q8.8808594 2.8759766 9.0273438 2.4541016L9.953125 2.7177734Q9.3847656 4.2177734 7.3691406 4.2177734Q5.9628906 4.2177734 5.2275391 3.3798828Q4.4921875 2.5419922 4.4921875 0.88964844Q4.4921875 -0.68066406 5.2275391 -1.5185547Q5.9628906 -2.3564453 7.328125 -2.3564453Q10.123047 -2.3564453 10.123047 1.0126953L10.123047 1.1533203L5.5996094 1.1533203ZM9.0332031 0.34472656Q8.9453125 -0.65722656 8.5234375 -1.1171875Q8.1015625 -1.5771484 7.3105469 -1.5771484Q6.5429688 -1.5771484 6.0947266 -1.0644531Q5.6464844 -0.55175781 5.6113281 0.34472656L9.0332031 0.34472656ZM17.992188 -3.2412109L17.992188 4.1005859L16.878906 4.1005859L16.878906 -3.2412109L14.042969 -3.2412109L14.042969 -4.1552734L20.828125 -4.1552734L20.828125 -3.2412109L17.992188 -3.2412109ZM22.199219 4.2177734Q21.244141 4.2177734 20.763672 3.7138672Q20.283203 3.2099609 20.283203 2.3310547Q20.283203 1.3466797 20.930664 0.81933594Q21.578125 0.29199219 23.019531 0.25683594L24.443359 0.23339844L24.443359 -0.11230469Q24.443359 -0.88574219 24.115234 -1.2197266Q23.787109 -1.5537109 23.083984 -1.5537109Q22.375 -1.5537109 22.052734 -1.3134766Q21.730469 -1.0732422 21.666016 -0.54589844L20.564453 -0.64550781Q20.833984 -2.3564453 23.107422 -2.3564453Q24.302734 -2.3564453 24.90625 -1.8085938Q25.509766 -1.2607422 25.509766 -0.22363281L25.509766 2.5068359Q25.509766 2.9755859 25.632812 3.2128906Q25.755859 3.4501953 26.101562 3.4501953Q26.253906 3.4501953 26.447266 3.4091797L26.447266 4.0654297Q26.048828 4.1591797 25.632812 4.1591797Q25.046875 4.1591797 24.780273 3.8515625Q24.513672 3.5439453 24.478516 2.8876953L24.443359 2.8876953Q24.039062 3.6142578 23.50293 3.9160156Q22.966797 4.2177734 22.199219 4.2177734ZM22.439453 3.4267578Q23.019531 3.4267578 23.470703 3.1630859Q23.921875 2.8994141 24.182617 2.4394531Q24.443359 1.9794922 24.443359 1.4931641L24.443359 0.97167969L23.289062 0.99511719Q22.544922 1.0068359 22.161133 1.1474609Q21.777344 1.2880859 21.572266 1.5810547Q21.367188 1.8740234 21.367188 2.3486328Q21.367188 2.8642578 21.645508 3.1455078Q21.923828 3.4267578 22.439453 3.4267578ZM29.658203 6.5908203Q28.621094 6.5908203 28.005859 6.1835938Q27.390625 5.7763672 27.214844 5.0263672L28.275391 4.8740234Q28.380859 5.3134766 28.741211 5.5507812Q29.101562 5.7880859 29.6875 5.7880859Q31.263672 5.7880859 31.263672 3.9423828L31.263672 2.9228516L31.251953 2.9228516Q30.953125 3.5322266 30.431641 3.8398438Q29.910156 4.1474609 29.212891 4.1474609Q28.046875 4.1474609 27.499023 3.3740234Q26.951172 2.6005859 26.951172 0.94238281Q26.951172 -0.73925781 27.540039 -1.5390625Q28.128906 -2.3388672 29.330078 -2.3388672Q30.003906 -2.3388672 30.499023 -2.03125Q30.994141 -1.7236328 31.263672 -1.1552734L31.275391 -1.1552734Q31.275391 -1.3310547 31.298828 -1.7646484Q31.322266 -2.1982422 31.345703 -2.2392578L32.347656 -2.2392578Q32.3125 -1.9228516 32.3125 -0.92675781L32.3125 3.9189453Q32.3125 6.5908203 29.658203 6.5908203ZM31.263672 0.93066406Q31.263672 0.15722656 31.052734 -0.40234375Q30.841797 -0.96191406 30.458008 -1.2578125Q30.074219 -1.5537109 29.587891 -1.5537109Q28.779297 -1.5537109 28.410156 -0.96777344Q28.041016 -0.38183594 28.041016 0.93066406Q28.041016 2.2314453 28.386719 2.7998047Q28.732422 3.3681641 29.570312 3.3681641Q30.068359 3.3681641 30.455078 3.0751953Q30.841797 2.7822266 31.052734 2.234375Q31.263672 1.6865234 31.263672 0.93066406Z"/>
	<path fill="none" stroke="black" stroke-width="1" stroke-miterlimit="10" stroke-opacity="0.10196079" d="M50 749.5L1194 749.5"/>
	<path fill="none" stroke="black" stroke-width="1" stroke-miterlimit="10" stroke-opacity="0.10196079" d="M41.75 749.5L49 749.5"/>
	<path fill="none" stroke="black" stroke-width="1" stroke-miterlimit="10" stroke-opacity="0.10196079" d="M50 681.5L1194 681.5"/>
	<path fill="none" stroke="black" stroke-width="1" stroke-miterlimit="10" stroke-opacity="0.10196079" d="M41.75 681.5L49 681.5"/>
	<path fill="none" stroke="black" stroke-width="1" stroke-miterlimit="10" stroke-opacity="0.10196079" d="M50 613.5L1194 613.5"/>
	<path fill="none" stroke="black" stroke-width="1" stroke-miterlimit="10" stroke-opacity="0.10196079" d="M41.75 613.5L49 613.5"/>
	<path fill="none" stroke="black" stroke-width="1" stroke-miterlimit="10" stroke-opacity="0.10196079" d="M50 545.5L1194 545.5"/>
	<path fill="none" stroke="black" stroke-width="1" stroke-miterlimit="10" stroke-opacity="0.10196079" d="M41.75 545.5L49 545.5"/>
	<path fill="none" stroke="black" stroke-width="1" stroke-miterlimit="10" stroke-opacity="0.10196079" d="M50 478.5L1194 478.5"/>
	<path fill="none" stroke="black" stroke-width="1" stroke-miterlimit="10" stroke-opacity="0.10196079" d="M41.75 478.5L49 478.5"/>
	<path fill="none" stroke="black" stroke-width="1" stroke-miterlimit="10" stroke-opacity="0.10196079" d="M50 410.5L1194 410.5"/>
	<path fill="none" stroke="black" stroke-width="1" stroke-miterlimit="10" stroke-opacity="0.10196079" d="M41.75 410.5L49 410.5"/>
	<path fill="none" stroke="black" stroke-width="1" stroke-miterlimit="10" stroke-opacity="0.10196079" d="M50 342.5L1194 342.5"/>
	<path fill="none" stroke="black" stroke-width="1" stroke-miterlimit="10" stroke-opacity="0.10196079" d="M41.75 342.5L49 342.5"/>
	<path fill="none" stroke="black" stroke-width="1" stroke-miterlimit="10" stroke-opacity="0.10196079" d="M50 274.5L1194 274.5"/>
	<path fill="none" stroke="black" stroke-width="1" stroke-miterlimit="10" stroke-opacity="0.10196079" d="M41.75 274.5L49 274.5"/>
	<path fill="none" stroke="black" stroke-width="1" stroke-miterlimit="10" stroke-opacity="0.10196079" d="M50 206.5L1194 206.5"/>
	<path fill="none" stroke="black" stroke-width="1" stroke-miterlimit="10" stroke-opacity="0.10196079" d="M41.75 206.5L49 206.5"/>
	<path fill="none" stroke="black" stroke-width="1" stroke-miterlimit="10" stroke-opacity="0.10196079" d="M50 139.5L1194 139.5"/>
	<path fill="none" stroke="black" stroke-width="1" stroke-miterlimit="10" stroke-opacity="0.10196079" d="M41.75 139.5L49 139.5"/>
	<path fill="none" stroke="black" stroke-width="1" stroke-miterlimit="10" stroke-opacity="0.10196079" d="M50 71.5L1194 71.5"/>
	<path fill="none" stroke="black" stroke-width="1" stroke-miterlimit="10" stroke-opacity="0.10196079" d="M41.75 71.5L49 71.5"/>
	<path fill="#666" transform="matrix(0 -1 1 0 11.2 410.2)" d="M-21.591797 -0.11230469Q-21.591797 1.1650391 -22.089844 2.1230469Q-22.587891 3.0810547 -23.501953 3.5908203Q-24.416016 4.1005859 -25.611328 4.1005859L-28.699219 4.1005859L-28.699219 -4.1552734L-25.96875 -4.1552734Q-23.871094 -4.1552734 -22.731445 -3.1035156Q-21.591797 -2.0517578 -21.591797 -0.11230469ZM-22.716797 -0.11230469Q-22.716797 -1.6474609 -23.557617 -2.453125Q-24.398438 -3.2587891 -25.992188 -3.2587891L-27.580078 -3.2587891L-27.580078 3.2041016L-25.740234 3.2041016Q-24.832031 3.2041016 -24.143555 2.8056641Q-23.455078 2.4072266 -23.085938 1.6572266Q-22.716797 0.90722656 -22.716797 -0.11230469ZM-14.847656 0.92480469Q-14.847656 2.5888672 -15.580078 3.4033203Q-16.3125 4.2177734 -17.707031 4.2177734Q-19.095703 4.2177734 -19.804688 3.3710938Q-20.513672 2.5244141 -20.513672 0.92480469Q-20.513672 -2.3564453 -17.671875 -2.3564453Q-16.21875 -2.3564453 -15.533203 -1.5566406Q-14.847656 -0.75683594 -14.847656 0.92480469ZM-15.955078 0.92480469Q-15.955078 -0.38769531 -16.344727 -0.98242188Q-16.734375 -1.5771484 -17.654297 -1.5771484Q-18.580078 -1.5771484 -18.993164 -0.97070312Q-19.40625 -0.36425781 -19.40625 0.92480469Q-19.40625 2.1787109 -18.999023 2.8085938Q-18.591797 3.4384766 -17.71875 3.4384766Q-16.769531 3.4384766 -16.362305 2.8291016Q-15.955078 2.2197266 -15.955078 0.92480469ZM-7.4648438 4.1005859L-8.6894531 4.1005859L-9.796875 -0.38183594L-10.007812 -1.3720703Q-10.060547 -1.1083984 -10.171875 -0.61328125Q-10.283203 -0.11816406 -11.367188 4.1005859L-12.585938 4.1005859L-14.361328 -2.2392578L-13.318359 -2.2392578L-12.246094 2.0673828Q-12.205078 2.2080078 -11.994141 3.2275391L-11.894531 2.7939453L-10.570312 -2.2392578L-9.4394531 -2.2392578L-8.3320312 2.1142578L-8.0625 3.2275391L-7.8808594 2.4130859L-6.6796875 -2.2392578L-5.6484375 -2.2392578L-7.4648438 4.1005859ZM-0.84375 4.1005859L-0.84375 0.081054688Q-0.84375 -0.54589844 -0.96679688 -0.89160156Q-1.0898438 -1.2373047 -1.359375 -1.3896484Q-1.6289062 -1.5419922 -2.1503906 -1.5419922Q-2.9121094 -1.5419922 -3.3515625 -1.0205078Q-3.7910156 -0.49902344 -3.7910156 0.42675781L-3.7910156 4.1005859L-4.8457031 4.1005859L-4.8457031 -0.88574219Q-4.8457031 -1.9931641 -4.8808594 -2.2392578L-3.8847656 -2.2392578Q-3.8789062 -2.2099609 -3.8730469 -2.0810547Q-3.8671875 -1.9521484 -3.8583984 -1.7851562Q-3.8496094 -1.6181641 -3.8378906 -1.1552734L-3.8203125 -1.1552734Q-3.4570312 -1.8115234 -2.9794922 -2.0839844Q-2.5019531 -2.3564453 -1.7929688 -2.3564453Q-0.75 -2.3564453 -0.26660156 -1.8378906Q0.21679688 -1.3193359 0.21679688 -0.12402344L0.21679688 4.1005859L-0.84375 4.1005859ZM1.8046875 4.1005859L1.8046875 -4.5947266L2.859375 -4.5947266L2.859375 4.1005859L1.8046875 4.1005859ZM9.8320312 0.92480469Q9.8320312 2.5888672 9.0996094 3.4033203Q8.3671875 4.2177734 6.9726562 4.2177734Q5.5839844 4.2177734 4.875 3.3710938Q4.1660156 2.5244141 4.1660156 0.92480469Q4.1660156 -2.3564453 7.0078125 -2.3564453Q8.4609375 -2.3564453 9.1464844 -1.5566406Q9.8320312 -0.75683594 9.8320312 0.92480469ZM8.7246094 0.92480469Q8.7246094 -0.38769531 8.3349609 -0.98242188Q7.9453125 -1.5771484 7.0253906 -1.5771484Q6.0996094 -1.5771484 5.6865234 -0.97070312Q5.2734375 -0.36425781 5.2734375 0.92480469Q5.2734375 2.1787109 5.6806641 2.8085938Q6.0878906 3.4384766 6.9609375 3.4384766Q7.9101562 3.4384766 8.3173828 2.8291016Q8.7246094 2.2197266 8.7246094 0.92480469ZM12.761719 4.2177734Q11.806641 4.2177734 11.326172 3.7138672Q10.845703 3.2099609 10.845703 2.3310547Q10.845703 1.3466797 11.493164 0.81933594Q12.140625 0.29199219 13.582031 0.25683594L15.005859 0.23339844L15.005859 -0.11230469Q15.005859 -0.88574219 14.677734 -1.2197266Q14.349609 -1.5537109 13.646484 -1.5537109Q12.9375 -1.5537109 12.615234 -1.3134766Q12.292969 -1.0732422 12.228516 -0.54589844L11.126953 -0.64550781Q11.396484 -2.3564453 13.669922 -2.3564453Q14.865234 -2.3564453 15.46875 -1.8085938Q16.072266 -1.2607422 16.072266 -0.22363281L16.072266 2.5068359Q16.072266 2.9755859 16.195312 3.2128906Q16.318359 3.4501953 16.664062 3.4501953Q16.816406 3.4501953 17.009766 3.4091797L17.009766 4.0654297Q16.611328 4.1591797 16.195312 4.1591797Q15.609375 4.1591797 15.342773 3.8515625Q15.076172 3.5439453 15.041016 2.8876953L15.005859 2.8876953Q14.601562 3.6142578 14.06543 3.9160156Q13.529297 4.2177734 12.761719 4.2177734ZM13.001953 3.4267578Q13.582031 3.4267578 14.033203 3.1630859Q14.484375 2.8994141 14.745117 2.4394531Q15.005859 1.9794922 15.005859 1.4931641L15.005859 0.97167969L13.851562 0.99511719Q13.107422 1.0068359 12.723633 1.1474609Q12.339844 1.2880859 12.134766 1.5810547Q11.929688 1.8740234 11.929688 2.3486328Q11.929688 2.8642578 12.208008 3.1455078Q12.486328 3.4267578 13.001953 3.4267578ZM21.820312 3.0810547Q21.527344 3.6904297 21.043945 3.9541016Q20.560547 4.2177734 19.845703 4.2177734Q18.644531 4.2177734 18.079102 3.4091797Q17.513672 2.6005859 17.513672 0.95996094Q17.513672 -2.3564453 19.845703 -2.3564453Q20.566406 -2.3564453 21.046875 -2.0927734Q21.527344 -1.8291016 21.820312 -1.2548828L21.832031 -1.2548828L21.820312 -1.9638672L21.820312 -4.5947266L22.875 -4.5947266L22.875 2.7939453Q22.875 3.7841797 22.910156 4.1005859L21.902344 4.1005859Q21.884766 4.0068359 21.864258 3.6669922Q21.84375 3.3271484 21.84375 3.0810547L21.820312 3.0810547ZM18.621094 0.92480469Q18.621094 2.2548828 18.972656 2.8291016Q19.324219 3.4033203 20.115234 3.4033203Q21.011719 3.4033203 21.416016 2.7822266Q21.820312 2.1611328 21.820312 0.85449219Q21.820312 -0.40527344 21.416016 -0.99121094Q21.011719 -1.5771484 20.126953 -1.5771484Q19.330078 -1.5771484 18.975586 -0.98828125Q18.621094 -0.39941406 18.621094 0.92480469ZM29.25 2.3486328Q29.25 3.2451172 28.573242 3.7314453Q27.896484 4.2177734 26.677734 4.2177734Q25.494141 4.2177734 24.852539 3.828125Q24.210938 3.4384766 24.017578 2.6123047L24.949219 2.4306641Q25.083984 2.9404297 25.505859 3.1777344Q25.927734 3.4150391 26.677734 3.4150391Q27.480469 3.4150391 27.852539 3.1689453Q28.224609 2.9228516 28.224609 2.4306641Q28.224609 2.0556641 27.966797 1.8212891Q27.708984 1.5869141 27.134766 1.4345703L26.378906 1.2353516Q25.470703 1.0009766 25.086914 0.77539062Q24.703125 0.54980469 24.486328 0.22753906Q24.269531 -0.094726562 24.269531 -0.56347656Q24.269531 -1.4306641 24.887695 -1.8847656Q25.505859 -2.3388672 26.689453 -2.3388672Q27.738281 -2.3388672 28.356445 -1.9697266Q28.974609 -1.6005859 29.138672 -0.78613281L28.189453 -0.66894531Q28.101562 -1.0908203 27.717773 -1.3164062Q27.333984 -1.5419922 26.689453 -1.5419922Q25.974609 -1.5419922 25.634766 -1.3251953Q25.294922 -1.1083984 25.294922 -0.66894531Q25.294922 -0.39941406 25.435547 -0.22363281Q25.576172 -0.047851562 25.851562 0.075195312Q26.126953 0.19824219 27.011719 0.41503906Q27.849609 0.62597656 28.21875 0.8046875Q28.587891 0.98339844 28.801758 1.2001953Q29.015625 1.4169922 29.132812 1.7011719Q29.25 1.9853516 29.25 2.3486328Z"/>
	<clipPath id="cl_455">
		<rect y="39.200001" width="1200" height="31.999996"/>
	</clipPath>
	<g clip-path="url(#cl_455)">
		<path fill="#C32222" fill-opacity="0.2" d="M569.33002 49.200001L609.33002 49.200001L609.33002 61.200001L569.33002 61.200001L569.33002 49.200001Z"/>
		<path fill="none" stroke="#C32222" stroke-width="2" stroke-miterlimit="10" d="M569.33002 49.200001L609.33002 49.200001L609.33002 61.200001L569.33002 61.200001L569.33002 49.200001Z"/>
	</g>
	<clipPath id="cl_456">
		<rect y="39.200001" width="1200" height="31.999996"/>
	</clipPath>
	<g clip-path="url(#cl_456)">
		<path fill="#666" d="M615.81635 59.300587L615.81635 58.497852L619.36127 53.775196L616.01556 53.775196L616.01556 52.960743L620.60931 52.960743L620.60931 53.763477L617.05853 58.486134L620.73236 58.486134L620.73236 59.300587L615.81635 59.300587ZM622.13275 51.613087L622.13275 50.605274L623.18744 50.605274L623.18744 51.613087L622.13275 51.613087ZM622.13275 59.300587L622.13275 52.960743L623.18744 52.960743L623.18744 59.300587L622.13275 59.300587ZM630.16595 56.101368Q630.16595 59.417774 627.83392 59.417774Q626.36908 59.417774 625.86517 58.316212L625.83588 58.316212Q625.85931 58.363087 625.85931 59.312305L625.85931 61.790821L624.80463 61.790821L624.80463 54.255665Q624.80463 53.277149 624.76947 52.960743L625.789 52.960743Q625.79486 52.98418 625.80658 53.127735Q625.8183 53.27129 625.83295 53.570118Q625.8476 53.868946 625.8476 53.980274L625.87103 53.980274Q626.15228 53.394337 626.61517 53.121876Q627.07806 52.849415 627.83392 52.849415Q629.0058 52.849415 629.58588 53.634571Q630.16595 54.419727 630.16595 56.101368ZM629.05853 56.124805Q629.05853 54.800587 628.70111 54.232227Q628.34369 53.663868 627.56439 53.663868Q626.93744 53.663868 626.58295 53.92754Q626.22845 54.191212 626.04388 54.750782Q625.85931 55.310352 625.85931 56.206837Q625.85931 57.454884 626.25775 58.04668Q626.65619 58.638477 627.55267 58.638477Q628.33783 58.638477 628.69818 58.061329Q629.05853 57.48418 629.05853 56.124805Z"/>
	</g>
	<path fill="#666" transform="translate(600 19.6)" d="M-344.51953 3.3320312Q-344.51953 4.5585938 -345.52344 5.2578125Q-346.52734 5.9570312 -348.30078 5.9570312Q-350.04297 5.9570312 -350.96875 5.40625Q-351.89453 4.8554688 -352.19922 3.6914062L-350.26953 3.4023438Q-350.10547 4.0039062 -349.70312 4.2539062Q-349.30078 4.5039062 -348.30078 4.5039062Q-347.37891 4.5039062 -346.95703 4.2695312Q-346.53516 4.0351562 -346.53516 3.5351562Q-346.53516 3.1289062 -346.875 2.890625Q-347.21484 2.6523438 -348.02734 2.4882812Q-349.88672 2.1210938 -350.53516 1.8046875Q-351.18359 1.4882812 -351.52344 0.984375Q-351.86328 0.48046875 -351.86328 -0.25390625Q-351.86328 -1.4648438 -350.92969 -2.140625Q-349.99609 -2.8164062 -348.28516 -2.8164062Q-346.77734 -2.8164062 -345.85938 -2.2304688Q-344.94141 -1.6445312 -344.71484 -0.53515625L-346.66016 -0.33203125Q-346.75391 -0.84765625 -347.12109 -1.1015625Q-347.48828 -1.3554688 -348.28516 -1.3554688Q-349.06641 -1.3554688 -349.45703 -1.15625Q-349.84766 -0.95703125 -349.84766 -0.48828125Q-349.84766 -0.12109375 -349.54688 0.09375Q-349.24609 0.30859375 -348.53516 0.44921875Q-347.54297 0.65234375 -346.77344 0.8671875Q-346.00391 1.0820312 -345.53906 1.3789062Q-345.07422 1.6757812 -344.79688 2.140625Q-344.51953 2.6054688 -344.51953 3.3320312ZM-340.79297 5.9570312Q-342.01953 5.9570312 -342.70703 5.2890625Q-343.39453 4.6210938 -343.39453 3.4101562Q-343.39453 2.0976562 -342.53906 1.4101562Q-341.68359 0.72265625 -340.05859 0.70703125L-338.23828 0.67578125L-338.23828 0.24609375Q-338.23828 -0.58203125 -338.52734 -0.984375Q-338.81641 -1.3867188 -339.47266 -1.3867188Q-340.08203 -1.3867188 -340.36719 -1.109375Q-340.65234 -0.83203125 -340.72266 -0.19140625L-343.01172 -0.30078125Q-342.80078 -1.5351562 -341.88281 -2.171875Q-340.96484 -2.8085938 -339.37891 -2.8085938Q-337.77734 -2.8085938 -336.91016 -2.0195312Q-336.04297 -1.2304688 -336.04297 0.22265625L-336.04297 3.3007812Q-336.04297 4.0117188 -335.88281 4.28125Q-335.72266 4.5507812 -335.34766 4.5507812Q-335.09766 4.5507812 -334.86328 4.5039062L-334.86328 5.6914062Q-335.05859 5.7382812 -335.21484 5.7773438Q-335.37109 5.8164062 -335.52734 5.8398438Q-335.68359 5.8632812 -335.85938 5.8789062Q-336.03516 5.8945312 -336.26953 5.8945312Q-337.09766 5.8945312 -337.49219 5.4882812Q-337.88672 5.0820312 -337.96484 4.2929688L-338.01172 4.2929688Q-338.93359 5.9570312 -340.79297 5.9570312ZM-338.23828 1.8867188L-339.36328 1.9023438Q-340.12891 1.9335938 -340.44922 2.0703125Q-340.76953 2.2070312 -340.9375 2.4882812Q-341.10547 2.7695312 -341.10547 3.2382812Q-341.10547 3.8398438 -340.82812 4.1328125Q-340.55078 4.4257812 -340.08984 4.4257812Q-339.57422 4.4257812 -339.14844 4.1445312Q-338.72266 3.8632812 -338.48047 3.3671875Q-338.23828 2.8710938 -338.23828 2.3164062L-338.23828 1.8867188ZM-333.84766 -4.1757812L-333.84766 -5.7929688L-331.65234 -5.7929688L-331.65234 -4.1757812L-333.84766 -4.1757812ZM-333.84766 5.8007812L-333.84766 -2.6523438L-331.65234 -2.6523438L-331.65234 5.8007812L-333.84766 5.8007812ZM-329.40234 5.8007812L-329.40234 -5.7929688L-327.20703 -5.7929688L-327.20703 5.8007812L-329.40234 5.8007812ZM-316.95703 1.5351562Q-316.95703 3.6523438 -317.80469 4.8046875Q-318.65234 5.9570312 -320.19922 5.9570312Q-321.08984 5.9570312 -321.75 5.5703125Q-322.41016 5.1835938 -322.76172 4.4570312L-322.80859 4.4570312Q-322.76172 4.6914062 -322.76172 5.8789062L-322.76172 9.1210938L-324.95703 9.1210938L-324.95703 -0.70703125Q-324.95703 -1.9023438 -325.01953 -2.6523438L-322.88672 -2.6523438Q-322.84766 -2.5117188 -322.82031 -2.0976562Q-322.79297 -1.6835938 -322.79297 -1.2773438L-322.76172 -1.2773438Q-322.01953 -2.8320312 -320.05859 -2.8320312Q-318.58203 -2.8320312 -317.76953 -1.6953125Q-316.95703 -0.55859375 -316.95703 1.5351562ZM-319.24609 1.5351562Q-319.24609 -1.3085938 -320.98828 -1.3085938Q-321.86328 -1.3085938 -322.32812 -0.54296875Q-322.79297 0.22265625 -322.79297 1.5976562Q-322.79297 2.9648438 -322.32812 3.7109375Q-321.86328 4.4570312 -321.00391 4.4570312Q-319.24609 4.4570312 -319.24609 1.5351562ZM-307.15234 1.5664062Q-307.15234 3.6210938 -308.29297 4.7890625Q-309.43359 5.9570312 -311.44922 5.9570312Q-313.42578 5.9570312 -314.55078 4.7851562Q-315.67578 3.6132812 -315.67578 1.5664062Q-315.67578 -0.47265625 -314.55078 -1.640625Q-313.42578 -2.8085938 -311.40234 -2.8085938Q-309.33203 -2.8085938 -308.24219 -1.6796875Q-307.15234 -0.55078125 -307.15234 1.5664062ZM-309.44922 1.5664062Q-309.44922 0.05859375 -309.94141 -0.62109375Q-310.43359 -1.3007812 -311.37109 -1.3007812Q-313.37109 -1.3007812 -313.37109 1.5664062Q-313.37109 2.9804688 -312.88281 3.71875Q-312.39453 4.4570312 -311.47266 4.4570312Q-309.44922 4.4570312 -309.44922 1.5664062ZM-305.41016 -4.1757812L-305.41016 -5.7929688L-303.21484 -5.7929688L-303.21484 -4.1757812L-305.41016 -4.1757812ZM-305.41016 5.8007812L-305.41016 -2.6523438L-303.21484 -2.6523438L-303.21484 5.8007812L-305.41016 5.8007812ZM-295.48828 5.8007812L-295.48828 1.0585938Q-295.48828 -1.1679688 -296.99609 -1.1679688Q-297.79297 -1.1679688 -298.28125 -0.484375Q-298.76953 0.19921875 -298.76953 1.2695312L-298.76953 5.8007812L-300.96484 5.8007812L-300.96484 -0.76171875Q-300.96484 -1.4414062 -300.98438 -1.875Q-301.00391 -2.3085938 -301.02734 -2.6523438L-298.93359 -2.6523438Q-298.91016 -2.5039062 -298.87109 -1.859375Q-298.83203 -1.2148438 -298.83203 -0.97265625L-298.80078 -0.97265625Q-298.35547 -1.9414062 -297.68359 -2.3789062Q-297.01172 -2.8164062 -296.08203 -2.8164062Q-294.73828 -2.8164062 -294.01953 -1.9882812Q-293.30078 -1.1601562 -293.30078 0.43359375L-293.30078 5.8007812L-295.48828 5.8007812ZM-289.02734 5.9414062Q-289.99609 5.9414062 -290.51953 5.4140625Q-291.04297 4.8867188 -291.04297 3.8164062L-291.04297 -1.1679688L-292.11328 -1.1679688L-292.11328 -2.6523438L-290.93359 -2.6523438L-290.24609 -4.6367188L-288.87109 -4.6367188L-288.87109 -2.6523438L-287.26953 -2.6523438L-287.26953 -1.1679688L-288.87109 -1.1679688L-288.87109 3.2226562Q-288.87109 3.8398438 -288.63672 4.1328125Q-288.40234 4.4257812 -287.91016 4.4257812Q-287.65234 4.4257812 -287.17578 4.3164062L-287.17578 5.6757812Q-287.98828 5.9414062 -289.02734 5.9414062ZM-286.35547 2.6054688L-286.35547 0.69921875L-282.29297 0.69921875L-282.29297 2.6054688L-286.35547 2.6054688ZM-272.50391 1.5664062Q-272.50391 3.6210938 -273.64453 4.7890625Q-274.78516 5.9570312 -276.80078 5.9570312Q-278.77734 5.9570312 -279.90234 4.7851562Q-281.02734 3.6132812 -281.02734 1.5664062Q-281.02734 -0.47265625 -279.90234 -1.640625Q-278.77734 -2.8085938 -276.75391 -2.8085938Q-274.68359 -2.8085938 -273.59375 -1.6796875Q-272.50391 -0.55078125 -272.50391 1.5664062ZM-274.80078 1.5664062Q-274.80078 0.05859375 -275.29297 -0.62109375Q-275.78516 -1.3007812 -276.72266 -1.3007812Q-278.72266 -1.3007812 -278.72266 1.5664062Q-278.72266 2.9804688 -278.23438 3.71875Q-277.74609 4.4570312 -276.82422 4.4570312Q-274.80078 4.4570312 -274.80078 1.5664062ZM-263.63672 3.3320312Q-263.63672 4.5585938 -264.64062 5.2578125Q-265.64453 5.9570312 -267.41797 5.9570312Q-269.16016 5.9570312 -270.08594 5.40625Q-271.01172 4.8554688 -271.31641 3.6914062L-269.38672 3.4023438Q-269.22266 4.0039062 -268.82031 4.2539062Q-268.41797 4.5039062 -267.41797 4.5039062Q-266.49609 4.5039062 -266.07422 4.2695312Q-265.65234 4.0351562 -265.65234 3.5351562Q-265.65234 3.1289062 -265.99219 2.890625Q-266.33203 2.6523438 -267.14453 2.4882812Q-269.00391 2.1210938 -269.65234 1.8046875Q-270.30078 1.4882812 -270.64062 0.984375Q-270.98047 0.48046875 -270.98047 -0.25390625Q-270.98047 -1.4648438 -270.04688 -2.140625Q-269.11328 -2.8164062 -267.40234 -2.8164062Q-265.89453 -2.8164062 -264.97656 -2.2304688Q-264.05859 -1.6445312 -263.83203 -0.53515625L-265.77734 -0.33203125Q-265.87109 -0.84765625 -266.23828 -1.1015625Q-266.60547 -1.3554688 -267.40234 -1.3554688Q-268.18359 -1.3554688 -268.57422 -1.15625Q-268.96484 -0.95703125 -268.96484 -0.48828125Q-268.96484 -0.12109375 -268.66406 0.09375Q-268.36328 0.30859375 -267.65234 0.44921875Q-266.66016 0.65234375 -265.89062 0.8671875Q-265.12109 1.0820312 -264.65625 1.3789062Q-264.19141 1.6757812 -263.91406 2.140625Q-263.63672 2.6054688 -263.63672 3.3320312ZM-254.73828 3.3320312Q-254.73828 4.5585938 -255.74219 5.2578125Q-256.74609 5.9570312 -258.51953 5.9570312Q-260.26172 5.9570312 -261.1875 5.40625Q-262.11328 4.8554688 -262.41797 3.6914062L-260.48828 3.4023438Q-260.32422 4.0039062 -259.92188 4.2539062Q-259.51953 4.5039062 -258.51953 4.5039062Q-257.59766 4.5039062 -257.17578 4.2695312Q-256.75391 4.0351562 -256.75391 3.5351562Q-256.75391 3.1289062 -257.09375 2.890625Q-257.43359 2.6523438 -258.24609 2.4882812Q-260.10547 2.1210938 -260.75391 1.8046875Q-261.40234 1.4882812 -261.74219 0.984375Q-262.08203 0.48046875 -262.08203 -0.25390625Q-262.08203 -1.4648438 -261.14844 -2.140625Q-260.21484 -2.8164062 -258.50391 -2.8164062Q-256.99609 -2.8164062 -256.07812 -2.2304688Q-255.16016 -1.6445312 -254.93359 -0.53515625L-256.87891 -0.33203125Q-256.97266 -0.84765625 -257.33984 -1.1015625Q-257.70703 -1.3554688 -258.50391 -1.3554688Q-259.28516 -1.3554688 -259.67578 -1.15625Q-260.06641 -0.95703125 -260.06641 -0.48828125Q-260.06641 -0.12109375 -259.76562 0.09375Q-259.46484 0.30859375 -258.75391 0.44921875Q-257.76172 0.65234375 -256.99219 0.8671875Q-256.22266 1.0820312 -255.75781 1.3789062Q-255.29297 1.6757812 -255.01562 2.140625Q-254.73828 2.6054688 -254.73828 3.3320312ZM-253.92578 6.1210938L-251.65234 -5.7929688L-249.79297 -5.7929688L-252.02734 6.1210938L-253.92578 6.1210938ZM-244.99609 5.9570312Q-246.91797 5.9570312 -247.96484 4.8125Q-249.01172 3.6679688 -249.01172 1.6210938Q-249.01172 -0.47265625 -247.95703 -1.640625Q-246.90234 -2.8085938 -244.96484 -2.8085938Q-243.47266 -2.8085938 -242.49609 -2.0585938Q-241.51953 -1.3085938 -241.26953 0.01171875L-243.48047 0.12109375Q-243.57422 -0.52734375 -243.94922 -0.9140625Q-244.32422 -1.3007812 -245.01172 -1.3007812Q-246.70703 -1.3007812 -246.70703 1.5351562Q-246.70703 4.4570312 -244.98047 4.4570312Q-244.35547 4.4570312 -243.93359 4.0625Q-243.51172 3.6679688 -243.41016 2.8867188L-241.20703 2.9882812Q-241.32422 3.8554688 -241.82812 4.5351562Q-242.33203 5.2148438 -243.15234 5.5859375Q-243.97266 5.9570312 -244.99609 5.9570312ZM-231.58984 1.5664062Q-231.58984 3.6210938 -232.73047 4.7890625Q-233.87109 5.9570312 -235.88672 5.9570312Q-237.86328 5.9570312 -238.98828 4.7851562Q-240.11328 3.6132812 -240.11328 1.5664062Q-240.11328 -0.47265625 -238.98828 -1.640625Q-237.86328 -2.8085938 -235.83984 -2.8085938Q-233.76953 -2.8085938 -232.67969 -1.6796875Q-231.58984 -0.55078125 -231.58984 1.5664062ZM-233.88672 1.5664062Q-233.88672 0.05859375 -234.37891 -0.62109375Q-234.87109 -1.3007812 -235.80859 -1.3007812Q-237.80859 -1.3007812 -237.80859 1.5664062Q-237.80859 2.9804688 -237.32031 3.71875Q-236.83203 4.4570312 -235.91016 4.4570312Q-233.88672 4.4570312 -233.88672 1.5664062ZM-229.84766 5.8007812L-229.84766 -5.7929688L-227.65234 -5.7929688L-227.65234 5.8007812L-229.84766 5.8007812ZM-223.44922 5.9570312Q-224.67578 5.9570312 -225.36328 5.2890625Q-226.05078 4.6210938 -226.05078 3.4101562Q-226.05078 2.0976562 -225.19531 1.4101562Q-224.33984 0.72265625 -222.71484 0.70703125L-220.89453 0.67578125L-220.89453 0.24609375Q-220.89453 -0.58203125 -221.18359 -0.984375Q-221.47266 -1.3867188 -222.12891 -1.3867188Q-222.73828 -1.3867188 -223.02344 -1.109375Q-223.30859 -0.83203125 -223.37891 -0.19140625L-225.66797 -0.30078125Q-225.45703 -1.5351562 -224.53906 -2.171875Q-223.62109 -2.8085938 -222.03516 -2.8085938Q-220.43359 -2.8085938 -219.56641 -2.0195312Q-218.69922 -1.2304688 -218.69922 0.22265625L-218.69922 3.3007812Q-218.69922 4.0117188 -218.53906 4.28125Q-218.37891 4.5507812 -218.00391 4.5507812Q-217.75391 4.5507812 -217.51953 4.5039062L-217.51953 5.6914062Q-217.71484 5.7382812 -217.87109 5.7773438Q-218.02734 5.8164062 -218.18359 5.8398438Q-218.33984 5.8632812 -218.51562 5.8789062Q-218.69141 5.8945312 -218.92578 5.8945312Q-219.75391 5.8945312 -220.14844 5.4882812Q-220.54297 5.0820312 -220.62109 4.2929688L-220.66797 4.2929688Q-221.58984 5.9570312 -223.44922 5.9570312ZM-220.89453 1.8867188L-222.01953 1.9023438Q-222.78516 1.9335938 -223.10547 2.0703125Q-223.42578 2.2070312 -223.59375 2.4882812Q-223.76172 2.7695312 -223.76172 3.2382812Q-223.76172 3.8398438 -223.48438 4.1328125Q-223.20703 4.4257812 -222.74609 4.4257812Q-222.23047 4.4257812 -221.80469 4.1445312Q-221.37891 3.8632812 -221.13672 3.3671875Q-220.89453 2.8710938 -220.89453 2.3164062L-220.89453 1.8867188ZM-208.50391 1.5429688Q-208.50391 3.6367188 -209.34375 4.796875Q-210.18359 5.9570312 -211.74609 5.9570312Q-212.64453 5.9570312 -213.30078 5.5664062Q-213.95703 5.1757812 -214.30859 4.4414062L-214.32422 4.4414062Q-214.32422 4.7148438 -214.35938 5.1914062Q-214.39453 5.6679688 -214.43359 5.8007812L-216.56641 5.8007812Q-216.50391 5.0742188 -216.50391 3.8710938L-216.50391 -5.7929688L-214.30859 -5.7929688L-214.30859 -2.5585938L-214.33984 -1.1835938L-214.30859 -1.1835938Q-213.56641 -2.8085938 -211.60547 -2.8085938Q-210.10547 -2.8085938 -209.30469 -1.671875Q-208.50391 -0.53515625 -208.50391 1.5429688ZM-210.79297 1.5429688Q-210.79297 0.10546875 -211.21484 -0.58984375Q-211.63672 -1.2851562 -212.51953 -1.2851562Q-213.41016 -1.2851562 -213.875 -0.5390625Q-214.33984 0.20703125 -214.33984 1.6132812Q-214.33984 2.9570312 -213.88281 3.7070312Q-213.42578 4.4570312 -212.53516 4.4570312Q-210.79297 4.4570312 -210.79297 1.5429688ZM-207.22266 2.6054688L-207.22266 0.69921875L-203.16016 0.69921875L-203.16016 2.6054688L-207.22266 2.6054688ZM-194.27734 3.3320312Q-194.27734 4.5585938 -195.28125 5.2578125Q-196.28516 5.9570312 -198.05859 5.9570312Q-199.80078 5.9570312 -200.72656 5.40625Q-201.65234 4.8554688 -201.95703 3.6914062L-200.02734 3.4023438Q-199.86328 4.0039062 -199.46094 4.2539062Q-199.05859 4.5039062 -198.05859 4.5039062Q-197.13672 4.5039062 -196.71484 4.2695312Q-196.29297 4.0351562 -196.29297 3.5351562Q-196.29297 3.1289062 -196.63281 2.890625Q-196.97266 2.6523438 -197.78516 2.4882812Q-199.64453 2.1210938 -200.29297 1.8046875Q-200.94141 1.4882812 -201.28125 0.984375Q-201.62109 0.48046875 -201.62109 -0.25390625Q-201.62109 -1.4648438 -200.6875 -2.140625Q-199.75391 -2.8164062 -198.04297 -2.8164062Q-196.53516 -2.8164062 -195.61719 -2.2304688Q-194.69922 -1.6445312 -194.47266 -0.53515625L-196.41797 -0.33203125Q-196.51172 -0.84765625 -196.87891 -1.1015625Q-197.24609 -1.3554688 -198.04297 -1.3554688Q-198.82422 -1.3554688 -199.21484 -1.15625Q-199.60547 -0.95703125 -199.60547 -0.48828125Q-199.60547 -0.12109375 -199.30469 0.09375Q-199.00391 0.30859375 -198.29297 0.44921875Q-197.30078 0.65234375 -196.53125 0.8671875Q-195.76172 1.0820312 -195.29688 1.3789062Q-194.83203 1.6757812 -194.55469 2.140625Q-194.27734 2.6054688 -194.27734 3.3320312ZM-190.55078 5.9570312Q-191.77734 5.9570312 -192.46484 5.2890625Q-193.15234 4.6210938 -193.15234 3.4101562Q-193.15234 2.0976562 -192.29688 1.4101562Q-191.44141 0.72265625 -189.81641 0.70703125L-187.99609 0.67578125L-187.99609 0.24609375Q-187.99609 -0.58203125 -188.28516 -0.984375Q-188.57422 -1.3867188 -189.23047 -1.3867188Q-189.83984 -1.3867188 -190.125 -1.109375Q-190.41016 -0.83203125 -190.48047 -0.19140625L-192.76953 -0.30078125Q-192.55859 -1.5351562 -191.64062 -2.171875Q-190.72266 -2.8085938 -189.13672 -2.8085938Q-187.53516 -2.8085938 -186.66797 -2.0195312Q-185.80078 -1.2304688 -185.80078 0.22265625L-185.80078 3.3007812Q-185.80078 4.0117188 -185.64062 4.28125Q-185.48047 4.5507812 -185.10547 4.5507812Q-184.85547 4.5507812 -184.62109 4.5039062L-184.62109 5.6914062Q-184.81641 5.7382812 -184.97266 5.7773438Q-185.12891 5.8164062 -185.28516 5.8398438Q-185.44141 5.8632812 -185.61719 5.8789062Q-185.79297 5.8945312 -186.02734 5.8945312Q-186.85547 5.8945312 -187.25 5.4882812Q-187.64453 5.0820312 -187.72266 4.2929688L-187.76953 4.2929688Q-188.69141 5.9570312 -190.55078 5.9570312ZM-187.99609 1.8867188L-189.12109 1.9023438Q-189.88672 1.9335938 -190.20703 2.0703125Q-190.52734 2.2070312 -190.69531 2.4882812Q-190.86328 2.7695312 -190.86328 3.2382812Q-190.86328 3.8398438 -190.58594 4.1328125Q-190.30859 4.4257812 -189.84766 4.4257812Q-189.33203 4.4257812 -188.90625 4.1445312Q-188.48047 3.8632812 -188.23828 3.3671875Q-187.99609 2.8710938 -187.99609 2.3164062L-187.99609 1.8867188ZM-181.65234 5.9570312Q-182.87891 5.9570312 -183.56641 5.2890625Q-184.25391 4.6210938 -184.25391 3.4101562Q-184.25391 2.0976562 -183.39844 1.4101562Q-182.54297 0.72265625 -180.91797 0.70703125L-179.09766 0.67578125L-179.09766 0.24609375Q-179.09766 -0.58203125 -179.38672 -0.984375Q-179.67578 -1.3867188 -180.33203 -1.3867188Q-180.94141 -1.3867188 -181.22656 -1.109375Q-181.51172 -0.83203125 -181.58203 -0.19140625L-183.87109 -0.30078125Q-183.66016 -1.5351562 -182.74219 -2.171875Q-181.82422 -2.8085938 -180.23828 -2.8085938Q-178.63672 -2.8085938 -177.76953 -2.0195312Q-176.90234 -1.2304688 -176.90234 0.22265625L-176.90234 3.3007812Q-176.90234 4.0117188 -176.74219 4.28125Q-176.58203 4.5507812 -176.20703 4.5507812Q-175.95703 4.5507812 -175.72266 4.5039062L-175.72266 5.6914062Q-175.91797 5.7382812 -176.07422 5.7773438Q-176.23047 5.8164062 -176.38672 5.8398438Q-176.54297 5.8632812 -176.71875 5.8789062Q-176.89453 5.8945312 -177.12891 5.8945312Q-177.95703 5.8945312 -178.35156 5.4882812Q-178.74609 5.0820312 -178.82422 4.2929688L-178.87109 4.2929688Q-179.79297 5.9570312 -181.65234 5.9570312ZM-179.09766 1.8867188L-180.22266 1.9023438Q-180.98828 1.9335938 -181.30859 2.0703125Q-181.62891 2.2070312 -181.79688 2.4882812Q-181.96484 2.7695312 -181.96484 3.2382812Q-181.96484 3.8398438 -181.6875 4.1328125Q-181.41016 4.4257812 -180.94922 4.4257812Q-180.43359 4.4257812 -180.00781 4.1445312Q-179.58203 3.8632812 -179.33984 3.3671875Q-179.09766 2.8710938 -179.09766 2.3164062L-179.09766 1.8867188ZM-167.58203 3.3320312Q-167.58203 4.5585938 -168.58594 5.2578125Q-169.58984 5.9570312 -171.36328 5.9570312Q-173.10547 5.9570312 -174.03125 5.40625Q-174.95703 4.8554688 -175.26172 3.6914062L-173.33203 3.4023438Q-173.16797 4.0039062 -172.76562 4.2539062Q-172.36328 4.5039062 -171.36328 4.5039062Q-170.44141 4.5039062 -170.01953 4.2695312Q-169.59766 4.0351562 -169.59766 3.5351562Q-169.59766 3.1289062 -169.9375 2.890625Q-170.27734 2.6523438 -171.08984 2.4882812Q-172.94922 2.1210938 -173.59766 1.8046875Q-174.24609 1.4882812 -174.58594 0.984375Q-174.92578 0.48046875 -174.92578 -0.25390625Q-174.92578 -1.4648438 -173.99219 -2.140625Q-173.05859 -2.8164062 -171.34766 -2.8164062Q-169.83984 -2.8164062 -168.92188 -2.2304688Q-168.00391 -1.6445312 -167.77734 -0.53515625L-169.72266 -0.33203125Q-169.81641 -0.84765625 -170.18359 -1.1015625Q-170.55078 -1.3554688 -171.34766 -1.3554688Q-172.12891 -1.3554688 -172.51953 -1.15625Q-172.91016 -0.95703125 -172.91016 -0.48828125Q-172.91016 -0.12109375 -172.60938 0.09375Q-172.30859 0.30859375 -171.59766 0.44921875Q-170.60547 0.65234375 -169.83594 0.8671875Q-169.06641 1.0820312 -168.60156 1.3789062Q-168.13672 1.6757812 -167.85938 2.140625Q-167.58203 2.6054688 -167.58203 3.3320312ZM-166.30078 2.6054688L-166.30078 0.69921875L-162.23828 0.69921875L-162.23828 2.6054688L-166.30078 2.6054688ZM-156.95703 5.9570312Q-158.87891 5.9570312 -159.92578 4.8125Q-160.97266 3.6679688 -160.97266 1.6210938Q-160.97266 -0.47265625 -159.91797 -1.640625Q-158.86328 -2.8085938 -156.92578 -2.8085938Q-155.43359 -2.8085938 -154.45703 -2.0585938Q-153.48047 -1.3085938 -153.23047 0.01171875L-155.44141 0.12109375Q-155.53516 -0.52734375 -155.91016 -0.9140625Q-156.28516 -1.3007812 -156.97266 -1.3007812Q-158.66797 -1.3007812 -158.66797 1.5351562Q-158.66797 4.4570312 -156.94141 4.4570312Q-156.31641 4.4570312 -155.89453 4.0625Q-155.47266 3.6679688 -155.37109 2.8867188L-153.16797 2.9882812Q-153.28516 3.8554688 -153.78906 4.5351562Q-154.29297 5.2148438 -155.11328 5.5859375Q-155.93359 5.9570312 -156.95703 5.9570312ZM-143.55078 1.5664062Q-143.55078 3.6210938 -144.69141 4.7890625Q-145.83203 5.9570312 -147.84766 5.9570312Q-149.82422 5.9570312 -150.94922 4.7851562Q-152.07422 3.6132812 -152.07422 1.5664062Q-152.07422 -0.47265625 -150.94922 -1.640625Q-149.82422 -2.8085938 -147.80078 -2.8085938Q-145.73047 -2.8085938 -144.64062 -1.6796875Q-143.55078 -0.55078125 -143.55078 1.5664062ZM-145.84766 1.5664062Q-145.84766 0.05859375 -146.33984 -0.62109375Q-146.83203 -1.3007812 -147.76953 -1.3007812Q-149.76953 -1.3007812 -149.76953 1.5664062Q-149.76953 2.9804688 -149.28125 3.71875Q-148.79297 4.4570312 -147.87109 4.4570312Q-145.84766 4.4570312 -145.84766 1.5664062ZM-136.33203 5.8007812L-136.33203 1.0585938Q-136.33203 -1.1679688 -137.83984 -1.1679688Q-138.63672 -1.1679688 -139.125 -0.484375Q-139.61328 0.19921875 -139.61328 1.2695312L-139.61328 5.8007812L-141.80859 5.8007812L-141.80859 -0.76171875Q-141.80859 -1.4414062 -141.82812 -1.875Q-141.84766 -2.3085938 -141.87109 -2.6523438L-139.77734 -2.6523438Q-139.75391 -2.5039062 -139.71484 -1.859375Q-139.67578 -1.2148438 -139.67578 -0.97265625L-139.64453 -0.97265625Q-139.19922 -1.9414062 -138.52734 -2.3789062Q-137.85547 -2.8164062 -136.92578 -2.8164062Q-135.58203 -2.8164062 -134.86328 -1.9882812Q-134.14453 -1.1601562 -134.14453 0.43359375L-134.14453 5.8007812L-136.33203 5.8007812ZM-126.55859 5.8007812L-126.55859 1.0585938Q-126.55859 -1.1679688 -128.06641 -1.1679688Q-128.86328 -1.1679688 -129.35156 -0.484375Q-129.83984 0.19921875 -129.83984 1.2695312L-129.83984 5.8007812L-132.03516 5.8007812L-132.03516 -0.76171875Q-132.03516 -1.4414062 -132.05469 -1.875Q-132.07422 -2.3085938 -132.09766 -2.6523438L-130.00391 -2.6523438Q-129.98047 -2.5039062 -129.94141 -1.859375Q-129.90234 -1.2148438 -129.90234 -0.97265625L-129.87109 -0.97265625Q-129.42578 -1.9414062 -128.75391 -2.3789062Q-128.08203 -2.8164062 -127.15234 -2.8164062Q-125.80859 -2.8164062 -125.08984 -1.9882812Q-124.37109 -1.1601562 -124.37109 0.43359375L-124.37109 5.8007812L-126.55859 5.8007812ZM-122.75391 2.6054688L-122.75391 0.69921875L-118.69141 0.69921875L-118.69141 2.6054688L-122.75391 2.6054688ZM-108.93359 1.5429688Q-108.93359 3.6367188 -109.77344 4.796875Q-110.61328 5.9570312 -112.17578 5.9570312Q-113.07422 5.9570312 -113.73047 5.5664062Q-114.38672 5.1757812 -114.73828 4.4414062L-114.75391 4.4414062Q-114.75391 4.7148438 -114.78906 5.1914062Q-114.82422 5.6679688 -114.86328 5.8007812L-116.99609 5.8007812Q-116.93359 5.0742188 -116.93359 3.8710938L-116.93359 -5.7929688L-114.73828 -5.7929688L-114.73828 -2.5585938L-114.76953 -1.1835938L-114.73828 -1.1835938Q-113.99609 -2.8085938 -112.03516 -2.8085938Q-110.53516 -2.8085938 -109.73438 -1.671875Q-108.93359 -0.53515625 -108.93359 1.5429688ZM-111.22266 1.5429688Q-111.22266 0.10546875 -111.64453 -0.58984375Q-112.06641 -1.2851562 -112.94922 -1.2851562Q-113.83984 -1.2851562 -114.30469 -0.5390625Q-114.76953 0.20703125 -114.76953 1.6132812Q-114.76953 2.9570312 -114.3125 3.7070312Q-113.85547 4.4570312 -112.96484 4.4570312Q-111.22266 4.4570312 -111.22266 1.5429688ZM-103.69922 5.9570312Q-105.60547 5.9570312 -106.62891 4.828125Q-107.65234 3.6992188 -107.65234 1.5351562Q-107.65234 -0.55859375 -106.61328 -1.6835938Q-105.57422 -2.8085938 -103.66797 -2.8085938Q-101.84766 -2.8085938 -100.88672 -1.6015625Q-99.925781 -0.39453125 -99.925781 1.9335938L-99.925781 1.9960938L-105.34766 1.9960938Q-105.34766 3.2304688 -104.89062 3.859375Q-104.43359 4.4882812 -103.58984 4.4882812Q-102.42578 4.4882812 -102.12109 3.4804688L-100.05078 3.6601562Q-100.94922 5.9570312 -103.69922 5.9570312ZM-103.69922 -1.4257812Q-104.47266 -1.4257812 -104.89062 -0.88671875Q-105.30859 -0.34765625 -105.33203 0.62109375L-102.05078 0.62109375Q-102.11328 -0.40234375 -102.54297 -0.9140625Q-102.97266 -1.4257812 -103.69922 -1.4257812ZM-97.167969 9.1210938Q-97.957031 9.1210938 -98.550781 9.0195312L-98.550781 7.4570312Q-98.136719 7.5195312 -97.792969 7.5195312Q-97.324219 7.5195312 -97.015625 7.3710938Q-96.707031 7.2226562 -96.460938 6.8789062Q-96.214844 6.5351562 -95.910156 5.7148438L-99.253906 -2.6523438L-96.933594 -2.6523438L-95.605469 1.3085938Q-95.292969 2.1601562 -94.816406 3.9179688L-94.621094 3.1757812L-94.113281 1.3398438L-92.863281 -2.6523438L-90.566406 -2.6523438L-93.910156 6.2460938Q-94.582031 7.8710938 -95.304688 8.4960938Q-96.027344 9.1210938 -97.167969 9.1210938ZM-81.332031 1.5664062Q-81.332031 3.6210938 -82.472656 4.7890625Q-83.613281 5.9570312 -85.628906 5.9570312Q-87.605469 5.9570312 -88.730469 4.7851562Q-89.855469 3.6132812 -89.855469 1.5664062Q-89.855469 -0.47265625 -88.730469 -1.640625Q-87.605469 -2.8085938 -85.582031 -2.8085938Q-83.511719 -2.8085938 -82.421875 -1.6796875Q-81.332031 -0.55078125 -81.332031 1.5664062ZM-83.628906 1.5664062Q-83.628906 0.05859375 -84.121094 -0.62109375Q-84.613281 -1.3007812 -85.550781 -1.3007812Q-87.550781 -1.3007812 -87.550781 1.5664062Q-87.550781 2.9804688 -87.0625 3.71875Q-86.574219 4.4570312 -85.652344 4.4570312Q-83.628906 4.4570312 -83.628906 1.5664062ZM-74.113281 5.8007812L-74.113281 1.0585938Q-74.113281 -1.1679688 -75.621094 -1.1679688Q-76.417969 -1.1679688 -76.90625 -0.484375Q-77.394531 0.19921875 -77.394531 1.2695312L-77.394531 5.8007812L-79.589844 5.8007812L-79.589844 -0.76171875Q-79.589844 -1.4414062 -79.609375 -1.875Q-79.628906 -2.3085938 -79.652344 -2.6523438L-77.558594 -2.6523438Q-77.535156 -2.5039062 -77.496094 -1.859375Q-77.457031 -1.2148438 -77.457031 -0.97265625L-77.425781 -0.97265625Q-76.980469 -1.9414062 -76.308594 -2.3789062Q-75.636719 -2.8164062 -74.707031 -2.8164062Q-73.363281 -2.8164062 -72.644531 -1.9882812Q-71.925781 -1.1601562 -71.925781 0.43359375L-71.925781 5.8007812L-74.113281 5.8007812ZM-64.339844 5.8007812Q-64.371094 5.6835938 -64.414062 5.2109375Q-64.457031 4.7382812 -64.457031 4.4257812L-64.488281 4.4257812Q-65.199219 5.9570312 -67.191406 5.9570312Q-68.667969 5.9570312 -69.472656 4.8046875Q-70.277344 3.6523438 -70.277344 1.5820312Q-70.277344 -0.51953125 -69.429688 -1.6640625Q-68.582031 -2.8085938 -67.027344 -2.8085938Q-66.128906 -2.8085938 -65.476562 -2.4335938Q-64.824219 -2.0585938 -64.472656 -1.3164062L-64.457031 -1.3164062L-64.472656 -2.7070312L-64.472656 -5.7929688L-62.277344 -5.7929688L-62.277344 3.9570312Q-62.277344 4.7382812 -62.214844 5.8007812L-64.339844 5.8007812ZM-64.441406 1.5273438Q-64.441406 0.16015625 -64.898438 -0.578125Q-65.355469 -1.3164062 -66.246094 -1.3164062Q-67.128906 -1.3164062 -67.558594 -0.6015625Q-67.988281 0.11328125 -67.988281 1.5820312Q-67.988281 4.4570312 -66.261719 4.4570312Q-65.394531 4.4570312 -64.917969 3.6953125Q-64.441406 2.9335938 -64.441406 1.5273438ZM-57.878906 5.9414062Q-58.847656 5.9414062 -59.371094 5.4140625Q-59.894531 4.8867188 -59.894531 3.8164062L-59.894531 -1.1679688L-60.964844 -1.1679688L-60.964844 -2.6523438L-59.785156 -2.6523438L-59.097656 -4.6367188L-57.722656 -4.6367188L-57.722656 -2.6523438L-56.121094 -2.6523438L-56.121094 -1.1679688L-57.722656 -1.1679688L-57.722656 3.2226562Q-57.722656 3.8398438 -57.488281 4.1328125Q-57.253906 4.4257812 -56.761719 4.4257812Q-56.503906 4.4257812 -56.027344 4.3164062L-56.027344 5.6757812Q-56.839844 5.9414062 -57.878906 5.9414062ZM-54.714844 5.8007812L-54.714844 -0.66796875Q-54.714844 -1.3632812 -54.734375 -1.828125Q-54.753906 -2.2929688 -54.777344 -2.6523438L-52.683594 -2.6523438Q-52.660156 -2.5117188 -52.621094 -1.796875Q-52.582031 -1.0820312 -52.582031 -0.84765625L-52.550781 -0.84765625Q-52.230469 -1.7382812 -51.980469 -2.1015625Q-51.730469 -2.4648438 -51.386719 -2.640625Q-51.042969 -2.8164062 -50.527344 -2.8164062Q-50.105469 -2.8164062 -49.847656 -2.6992188L-49.847656 -0.86328125Q-50.378906 -0.98046875 -50.785156 -0.98046875Q-51.605469 -0.98046875 -52.0625 -0.31640625Q-52.519531 0.34765625 -52.519531 1.6523438L-52.519531 5.8007812L-54.714844 5.8007812ZM-46.417969 -2.6523438L-46.417969 2.0898438Q-46.417969 4.3164062 -44.917969 4.3164062Q-44.121094 4.3164062 -43.632812 3.6328125Q-43.144531 2.9492188 -43.144531 1.8789062L-43.144531 -2.6523438L-40.949219 -2.6523438L-40.949219 3.9101562Q-40.949219 4.9882812 -40.886719 5.8007812L-42.980469 5.8007812Q-43.074219 4.6757812 -43.074219 4.1210938L-43.113281 4.1210938Q-43.550781 5.0820312 -44.226562 5.5195312Q-44.902344 5.9570312 -45.832031 5.9570312Q-47.175781 5.9570312 -47.894531 5.1328125Q-48.613281 4.3085938 -48.613281 2.7148438L-48.613281 -2.6523438L-46.417969 -2.6523438ZM-31.589844 3.3320312Q-31.589844 4.5585938 -32.59375 5.2578125Q-33.597656 5.9570312 -35.371094 5.9570312Q-37.113281 5.9570312 -38.039062 5.40625Q-38.964844 4.8554688 -39.269531 3.6914062L-37.339844 3.4023438Q-37.175781 4.0039062 -36.773438 4.2539062Q-36.371094 4.5039062 -35.371094 4.5039062Q-34.449219 4.5039062 -34.027344 4.2695312Q-33.605469 4.0351562 -33.605469 3.5351562Q-33.605469 3.1289062 -33.945312 2.890625Q-34.285156 2.6523438 -35.097656 2.4882812Q-36.957031 2.1210938 -37.605469 1.8046875Q-38.253906 1.4882812 -38.59375 0.984375Q-38.933594 0.48046875 -38.933594 -0.25390625Q-38.933594 -1.4648438 -38 -2.140625Q-37.066406 -2.8164062 -35.355469 -2.8164062Q-33.847656 -2.8164062 -32.929688 -2.2304688Q-32.011719 -1.6445312 -31.785156 -0.53515625L-33.730469 -0.33203125Q-33.824219 -0.84765625 -34.191406 -1.1015625Q-34.558594 -1.3554688 -35.355469 -1.3554688Q-36.136719 -1.3554688 -36.527344 -1.15625Q-36.917969 -0.95703125 -36.917969 -0.48828125Q-36.917969 -0.12109375 -36.617188 0.09375Q-36.316406 0.30859375 -35.605469 0.44921875Q-34.613281 0.65234375 -33.84375 0.8671875Q-33.074219 1.0820312 -32.609375 1.3789062Q-32.144531 1.6757812 -31.867188 2.140625Q-31.589844 2.6054688 -31.589844 3.3320312ZM-27.652344 5.9414062Q-28.621094 5.9414062 -29.144531 5.4140625Q-29.667969 4.8867188 -29.667969 3.8164062L-29.667969 -1.1679688L-30.738281 -1.1679688L-30.738281 -2.6523438L-29.558594 -2.6523438L-28.871094 -4.6367188L-27.496094 -4.6367188L-27.496094 -2.6523438L-25.894531 -2.6523438L-25.894531 -1.1679688L-27.496094 -1.1679688L-27.496094 3.2226562Q-27.496094 3.8398438 -27.261719 4.1328125Q-27.027344 4.4257812 -26.535156 4.4257812Q-26.277344 4.4257812 -25.800781 4.3164062L-25.800781 5.6757812Q-26.613281 5.9414062 -27.652344 5.9414062ZM-24.980469 2.6054688L-24.980469 0.69921875L-20.917969 0.69921875L-20.917969 2.6054688L-24.980469 2.6054688ZM-11.160156 1.5351562Q-11.160156 3.6523438 -12.007812 4.8046875Q-12.855469 5.9570312 -14.402344 5.9570312Q-15.292969 5.9570312 -15.953125 5.5703125Q-16.613281 5.1835938 -16.964844 4.4570312L-17.011719 4.4570312Q-16.964844 4.6914062 -16.964844 5.8789062L-16.964844 9.1210938L-19.160156 9.1210938L-19.160156 -0.70703125Q-19.160156 -1.9023438 -19.222656 -2.6523438L-17.089844 -2.6523438Q-17.050781 -2.5117188 -17.023438 -2.0976562Q-16.996094 -1.6835938 -16.996094 -1.2773438L-16.964844 -1.2773438Q-16.222656 -2.8320312 -14.261719 -2.8320312Q-12.785156 -2.8320312 -11.972656 -1.6953125Q-11.160156 -0.55859375 -11.160156 1.5351562ZM-13.449219 1.5351562Q-13.449219 -1.3085938 -15.191406 -1.3085938Q-16.066406 -1.3085938 -16.53125 -0.54296875Q-16.996094 0.22265625 -16.996094 1.5976562Q-16.996094 2.9648438 -16.53125 3.7109375Q-16.066406 4.4570312 -15.207031 4.4570312Q-13.449219 4.4570312 -13.449219 1.5351562ZM-4.4101562 5.8007812L-4.4101562 1.0585938Q-4.4101562 -1.1679688 -5.6914062 -1.1679688Q-6.3554688 -1.1679688 -6.7734375 -0.48828125Q-7.1914062 0.19140625 -7.1914062 1.2695312L-7.1914062 5.8007812L-9.3867188 5.8007812L-9.3867188 -0.76171875Q-9.3867188 -1.4414062 -9.40625 -1.875Q-9.4257812 -2.3085938 -9.4492188 -2.6523438L-7.3554688 -2.6523438Q-7.3320312 -2.5039062 -7.2929688 -1.859375Q-7.2539062 -1.2148438 -7.2539062 -0.97265625L-7.2226562 -0.97265625Q-6.8164062 -1.9414062 -6.2109375 -2.3789062Q-5.6054688 -2.8164062 -4.7617188 -2.8164062Q-2.8242188 -2.8164062 -2.4101562 -0.97265625L-2.3632812 -0.97265625Q-1.9335938 -1.9570312 -1.3320312 -2.3867188Q-0.73046875 -2.8164062 0.19921875 -2.8164062Q1.4335938 -2.8164062 2.0820312 -1.9765625Q2.7304688 -1.1367188 2.7304688 0.43359375L2.7304688 5.8007812L0.55078125 5.8007812L0.55078125 1.0585938Q0.55078125 -1.1679688 -0.73046875 -1.1679688Q-1.3710938 -1.1679688 -1.78125 -0.546875Q-2.1914062 0.07421875 -2.2304688 1.1679688L-2.2304688 5.8007812L-4.4101562 5.8007812ZM8.3632812 5.9570312Q6.4414062 5.9570312 5.3945312 4.8125Q4.3476562 3.6679688 4.3476562 1.6210938Q4.3476562 -0.47265625 5.4023438 -1.640625Q6.4570312 -2.8085938 8.3945312 -2.8085938Q9.8867188 -2.8085938 10.863281 -2.0585938Q11.839844 -1.3085938 12.089844 0.01171875L9.8789062 0.12109375Q9.7851562 -0.52734375 9.4101562 -0.9140625Q9.0351562 -1.3007812 8.3476562 -1.3007812Q6.6523438 -1.3007812 6.6523438 1.5351562Q6.6523438 4.4570312 8.3789062 4.4570312Q9.0039062 4.4570312 9.4257812 4.0625Q9.8476562 3.6679688 9.9492188 2.8867188L12.152344 2.9882812Q12.035156 3.8554688 11.53125 4.5351562Q11.027344 5.2148438 10.207031 5.5859375Q9.3867188 5.9570312 8.3632812 5.9570312ZM13.738281 5.8007812L13.738281 -5.7929688L15.933594 -5.7929688L15.933594 5.8007812L13.738281 5.8007812ZM26.214844 1.5664062Q26.214844 3.6210938 25.074219 4.7890625Q23.933594 5.9570312 21.917969 5.9570312Q19.941406 5.9570312 18.816406 4.7851562Q17.691406 3.6132812 17.691406 1.5664062Q17.691406 -0.47265625 18.816406 -1.640625Q19.941406 -2.8085938 21.964844 -2.8085938Q24.035156 -2.8085938 25.125 -1.6796875Q26.214844 -0.55078125 26.214844 1.5664062ZM23.917969 1.5664062Q23.917969 0.05859375 23.425781 -0.62109375Q22.933594 -1.3007812 21.996094 -1.3007812Q19.996094 -1.3007812 19.996094 1.5664062Q19.996094 2.9804688 20.484375 3.71875Q20.972656 4.4570312 21.894531 4.4570312Q23.917969 4.4570312 23.917969 1.5664062ZM30.027344 -2.6523438L30.027344 2.0898438Q30.027344 4.3164062 31.527344 4.3164062Q32.324219 4.3164062 32.8125 3.6328125Q33.300781 2.9492188 33.300781 1.8789062L33.300781 -2.6523438L35.496094 -2.6523438L35.496094 3.9101562Q35.496094 4.9882812 35.558594 5.8007812L33.464844 5.8007812Q33.371094 4.6757812 33.371094 4.1210938L33.332031 4.1210938Q32.894531 5.0820312 32.21875 5.5195312Q31.542969 5.9570312 30.613281 5.9570312Q29.269531 5.9570312 28.550781 5.1328125Q27.832031 4.3085938 27.832031 2.7148438L27.832031 -2.6523438L30.027344 -2.6523438ZM43.207031 5.8007812Q43.175781 5.6835938 43.132812 5.2109375Q43.089844 4.7382812 43.089844 4.4257812L43.058594 4.4257812Q42.347656 5.9570312 40.355469 5.9570312Q38.878906 5.9570312 38.074219 4.8046875Q37.269531 3.6523438 37.269531 1.5820312Q37.269531 -0.51953125 38.117188 -1.6640625Q38.964844 -2.8085938 40.519531 -2.8085938Q41.417969 -2.8085938 42.070312 -2.4335938Q42.722656 -2.0585938 43.074219 -1.3164062L43.089844 -1.3164062L43.074219 -2.7070312L43.074219 -5.7929688L45.269531 -5.7929688L45.269531 3.9570312Q45.269531 4.7382812 45.332031 5.8007812L43.207031 5.8007812ZM43.105469 1.5273438Q43.105469 0.16015625 42.648438 -0.578125Q42.191406 -1.3164062 41.300781 -1.3164062Q40.417969 -1.3164062 39.988281 -0.6015625Q39.558594 0.11328125 39.558594 1.5820312Q39.558594 4.4570312 41.285156 4.4570312Q42.152344 4.4570312 42.628906 3.6953125Q43.105469 2.9335938 43.105469 1.5273438ZM47.011719 2.6054688L47.011719 0.69921875L51.074219 0.69921875L51.074219 2.6054688L47.011719 2.6054688ZM56.355469 5.9570312Q54.433594 5.9570312 53.386719 4.8125Q52.339844 3.6679688 52.339844 1.6210938Q52.339844 -0.47265625 53.394531 -1.640625Q54.449219 -2.8085938 56.386719 -2.8085938Q57.878906 -2.8085938 58.855469 -2.0585938Q59.832031 -1.3085938 60.082031 0.01171875L57.871094 0.12109375Q57.777344 -0.52734375 57.402344 -0.9140625Q57.027344 -1.3007812 56.339844 -1.3007812Q54.644531 -1.3007812 54.644531 1.5351562Q54.644531 4.4570312 56.371094 4.4570312Q56.996094 4.4570312 57.417969 4.0625Q57.839844 3.6679688 57.941406 2.8867188L60.144531 2.9882812Q60.027344 3.8554688 59.523438 4.5351562Q59.019531 5.2148438 58.199219 5.5859375Q57.378906 5.9570312 56.355469 5.9570312ZM69.761719 1.5664062Q69.761719 3.6210938 68.621094 4.7890625Q67.480469 5.9570312 65.464844 5.9570312Q63.488281 5.9570312 62.363281 4.7851562Q61.238281 3.6132812 61.238281 1.5664062Q61.238281 -0.47265625 62.363281 -1.640625Q63.488281 -2.8085938 65.511719 -2.8085938Q67.582031 -2.8085938 68.671875 -1.6796875Q69.761719 -0.55078125 69.761719 1.5664062ZM67.464844 1.5664062Q67.464844 0.05859375 66.972656 -0.62109375Q66.480469 -1.3007812 65.542969 -1.3007812Q63.542969 -1.3007812 63.542969 1.5664062Q63.542969 2.9804688 64.03125 3.71875Q64.519531 4.4570312 65.441406 4.4570312Q67.464844 4.4570312 67.464844 1.5664062ZM76.480469 5.8007812L76.480469 1.0585938Q76.480469 -1.1679688 75.199219 -1.1679688Q74.535156 -1.1679688 74.117188 -0.48828125Q73.699219 0.19140625 73.699219 1.2695312L73.699219 5.8007812L71.503906 5.8007812L71.503906 -0.76171875Q71.503906 -1.4414062 71.484375 -1.875Q71.464844 -2.3085938 71.441406 -2.6523438L73.535156 -2.6523438Q73.558594 -2.5039062 73.597656 -1.859375Q73.636719 -1.2148438 73.636719 -0.97265625L73.667969 -0.97265625Q74.074219 -1.9414062 74.679688 -2.3789062Q75.285156 -2.8164062 76.128906 -2.8164062Q78.066406 -2.8164062 78.480469 -0.97265625L78.527344 -0.97265625Q78.957031 -1.9570312 79.558594 -2.3867188Q80.160156 -2.8164062 81.089844 -2.8164062Q82.324219 -2.8164062 82.972656 -1.9765625Q83.621094 -1.1367188 83.621094 0.43359375L83.621094 5.8007812L81.441406 5.8007812L81.441406 1.0585938Q81.441406 -1.1679688 80.160156 -1.1679688Q79.519531 -1.1679688 79.109375 -0.546875Q78.699219 0.07421875 78.660156 1.1679688L78.660156 5.8007812L76.480469 5.8007812ZM93.730469 1.5351562Q93.730469 3.6523438 92.882812 4.8046875Q92.035156 5.9570312 90.488281 5.9570312Q89.597656 5.9570312 88.9375 5.5703125Q88.277344 5.1835938 87.925781 4.4570312L87.878906 4.4570312Q87.925781 4.6914062 87.925781 5.8789062L87.925781 9.1210938L85.730469 9.1210938L85.730469 -0.70703125Q85.730469 -1.9023438 85.667969 -2.6523438L87.800781 -2.6523438Q87.839844 -2.5117188 87.867188 -2.0976562Q87.894531 -1.6835938 87.894531 -1.2773438L87.925781 -1.2773438Q88.667969 -2.8320312 90.628906 -2.8320312Q92.105469 -2.8320312 92.917969 -1.6953125Q93.730469 -0.55859375 93.730469 1.5351562ZM91.441406 1.5351562Q91.441406 -1.3085938 89.699219 -1.3085938Q88.824219 -1.3085938 88.359375 -0.54296875Q87.894531 0.22265625 87.894531 1.5976562Q87.894531 2.9648438 88.359375 3.7109375Q88.824219 4.4570312 89.683594 4.4570312Q91.441406 4.4570312 91.441406 1.5351562ZM97.574219 -2.6523438L97.574219 2.0898438Q97.574219 4.3164062 99.074219 4.3164062Q99.871094 4.3164062 100.35938 3.6328125Q100.84766 2.9492188 100.84766 1.8789062L100.84766 -2.6523438L103.04297 -2.6523438L103.04297 3.9101562Q103.04297 4.9882812 103.10547 5.8007812L101.01172 5.8007812Q100.91797 4.6757812 100.91797 4.1210938L100.87891 4.1210938Q100.44141 5.0820312 99.765625 5.5195312Q99.089844 5.9570312 98.160156 5.9570312Q96.816406 5.9570312 96.097656 5.1328125Q95.378906 4.3085938 95.378906 2.7148438L95.378906 -2.6523438L97.574219 -2.6523438ZM107.44141 5.9414062Q106.47266 5.9414062 105.94922 5.4140625Q105.42578 4.8867188 105.42578 3.8164062L105.42578 -1.1679688L104.35547 -1.1679688L104.35547 -2.6523438L105.53516 -2.6523438L106.22266 -4.6367188L107.59766 -4.6367188L107.59766 -2.6523438L109.19922 -2.6523438L109.19922 -1.1679688L107.59766 -1.1679688L107.59766 3.2226562Q107.59766 3.8398438 107.83203 4.1328125Q108.06641 4.4257812 108.55859 4.4257812Q108.81641 4.4257812 109.29297 4.3164062L109.29297 5.6757812Q108.48047 5.9414062 107.44141 5.9414062ZM114.06641 5.9570312Q112.16016 5.9570312 111.13672 4.828125Q110.11328 3.6992188 110.11328 1.5351562Q110.11328 -0.55859375 111.15234 -1.6835938Q112.19141 -2.8085938 114.09766 -2.8085938Q115.91797 -2.8085938 116.87891 -1.6015625Q117.83984 -0.39453125 117.83984 1.9335938L117.83984 1.9960938L112.41797 1.9960938Q112.41797 3.2304688 112.875 3.859375Q113.33203 4.4882812 114.17578 4.4882812Q115.33984 4.4882812 115.64453 3.4804688L117.71484 3.6601562Q116.81641 5.9570312 114.06641 5.9570312ZM114.06641 -1.4257812Q113.29297 -1.4257812 112.875 -0.88671875Q112.45703 -0.34765625 112.43359 0.62109375L115.71484 0.62109375Q115.65234 -0.40234375 115.22266 -0.9140625Q114.79297 -1.4257812 114.06641 -1.4257812ZM119.50391 5.8007812L119.50391 -0.66796875Q119.50391 -1.3632812 119.48438 -1.828125Q119.46484 -2.2929688 119.44141 -2.6523438L121.53516 -2.6523438Q121.55859 -2.5117188 121.59766 -1.796875Q121.63672 -1.0820312 121.63672 -0.84765625L121.66797 -0.84765625Q121.98828 -1.7382812 122.23828 -2.1015625Q122.48828 -2.4648438 122.83203 -2.640625Q123.17578 -2.8164062 123.69141 -2.8164062Q124.11328 -2.8164062 124.37109 -2.6992188L124.37109 -0.86328125Q123.83984 -0.98046875 123.43359 -0.98046875Q122.61328 -0.98046875 122.15625 -0.31640625Q121.69922 0.34765625 121.69922 1.6523438L121.69922 5.8007812L119.50391 5.8007812ZM132.85547 3.3320312Q132.85547 4.5585938 131.85156 5.2578125Q130.84766 5.9570312 129.07422 5.9570312Q127.33203 5.9570312 126.40625 5.40625Q125.48047 4.8554688 125.17578 3.6914062L127.10547 3.4023438Q127.26953 4.0039062 127.67188 4.2539062Q128.07422 4.5039062 129.07422 4.5039062Q129.99609 4.5039062 130.41797 4.2695312Q130.83984 4.0351562 130.83984 3.5351562Q130.83984 3.1289062 130.5 2.890625Q130.16016 2.6523438 129.34766 2.4882812Q127.48828 2.1210938 126.83984 1.8046875Q126.19141 1.4882812 125.85156 0.984375Q125.51172 0.48046875 125.51172 -0.25390625Q125.51172 -1.4648438 126.44531 -2.140625Q127.37891 -2.8164062 129.08984 -2.8164062Q130.59766 -2.8164062 131.51562 -2.2304688Q132.43359 -1.6445312 132.66016 -0.53515625L130.71484 -0.33203125Q130.62109 -0.84765625 130.25391 -1.1015625Q129.88672 -1.3554688 129.08984 -1.3554688Q128.30859 -1.3554688 127.91797 -1.15625Q127.52734 -0.95703125 127.52734 -0.48828125Q127.52734 -0.12109375 127.82812 0.09375Q128.12891 0.30859375 128.83984 0.44921875Q129.83203 0.65234375 130.60156 0.8671875Q131.37109 1.0820312 131.83594 1.3789062Q132.30078 1.6757812 132.57812 2.140625Q132.85547 2.6054688 132.85547 3.3320312ZM138.58203 2.6054688L138.58203 0.69921875L142.64453 0.69921875L142.64453 2.6054688L138.58203 2.6054688ZM151.10547 -3.4257812L151.10547 -0.01953125L156.73828 -0.01953125L156.73828 1.7617188L151.10547 1.7617188L151.10547 5.8007812L148.80078 5.8007812L148.80078 -5.2070312L156.91797 -5.2070312L156.91797 -3.4257812L151.10547 -3.4257812ZM169.27734 0.24609375Q169.27734 1.9648438 168.59766 3.2695312Q167.91797 4.5742188 166.65234 5.265625Q165.38672 5.9570312 163.69922 5.9570312Q161.10547 5.9570312 159.63281 4.4296875Q158.16016 2.9023438 158.16016 0.24609375Q158.16016 -2.4023438 159.62891 -3.8867188Q161.09766 -5.3710938 163.71484 -5.3710938Q166.33203 -5.3710938 167.80469 -3.8710938Q169.27734 -2.3710938 169.27734 0.24609375ZM166.92578 0.24609375Q166.92578 -1.5351562 166.08203 -2.546875Q165.23828 -3.5585938 163.71484 -3.5585938Q162.16797 -3.5585938 161.32422 -2.5546875Q160.48047 -1.5507812 160.48047 0.24609375Q160.48047 2.0585938 161.34375 3.1015625Q162.20703 4.1445312 163.69922 4.1445312Q165.24609 4.1445312 166.08594 3.1289062Q166.92578 2.1132812 166.92578 0.24609375ZM178.58203 5.8007812L176.02734 1.6210938L173.32422 1.6210938L173.32422 5.8007812L171.01953 5.8007812L171.01953 -5.2070312L176.51953 -5.2070312Q178.48828 -5.2070312 179.55859 -4.359375Q180.62891 -3.5117188 180.62891 -1.9257812Q180.62891 -0.76953125 179.97266 0.0703125Q179.31641 0.91015625 178.19922 1.1757812L181.17578 5.8007812L178.58203 5.8007812ZM178.30859 -1.8320312Q178.30859 -3.4179688 176.27734 -3.4179688L173.32422 -3.4179688L173.32422 -0.16796875L176.33984 -0.16796875Q177.30859 -0.16796875 177.80859 -0.60546875Q178.30859 -1.0429688 178.30859 -1.8320312ZM191.71484 5.8007812L191.71484 -0.87109375Q191.71484 -1.0976562 191.71875 -1.3242188Q191.72266 -1.5507812 191.79297 -3.2695312Q191.23828 -1.1679688 190.97266 -0.33984375L188.98828 5.8007812L187.34766 5.8007812L185.36328 -0.33984375L184.52734 -3.2695312Q184.62109 -1.4570312 184.62109 -0.87109375L184.62109 5.8007812L182.57422 5.8007812L182.57422 -5.2070312L185.66016 -5.2070312L187.62891 0.94921875L187.80078 1.5429688L188.17578 3.0195312L188.66797 1.2539062L190.69141 -5.2070312L193.76172 -5.2070312L193.76172 5.8007812L191.71484 5.8007812ZM203.68359 5.8007812L202.70703 2.9882812L198.51172 2.9882812L197.53516 5.8007812L195.23047 5.8007812L199.24609 -5.2070312L201.96484 -5.2070312L205.96484 5.8007812L203.68359 5.8007812ZM200.60547 -3.5117188L200.55859 -3.3398438Q200.48047 -3.0585938 200.37109 -2.6992188Q200.26172 -2.3398438 199.02734 1.2539062L202.19141 1.2539062L201.10547 -1.9101562L200.76953 -2.9726562L200.60547 -3.5117188ZM211.23828 -3.4257812L211.23828 5.8007812L208.93359 5.8007812L208.93359 -3.4257812L205.37891 -3.4257812L205.37891 -5.2070312L214.80078 -5.2070312L214.80078 -3.4257812L211.23828 -3.4257812ZM230.30078 0.21484375Q230.30078 1.9179688 229.63281 3.1875Q228.96484 4.4570312 227.74219 5.1289062Q226.51953 5.8007812 224.94141 5.8007812L220.48828 5.8007812L220.48828 -5.2070312L224.47266 -5.2070312Q227.25391 -5.2070312 228.77734 -3.8046875Q230.30078 -2.4023438 230.30078 0.21484375ZM227.98047 0.21484375Q227.98047 -1.5585938 227.05859 -2.4921875Q226.13672 -3.4257812 224.42578 -3.4257812L222.79297 -3.4257812L222.79297 4.0195312L224.74609 4.0195312Q226.23047 4.0195312 227.10547 2.9960938Q227.98047 1.9726562 227.98047 0.21484375ZM240.12109 1.5664062Q240.12109 3.6210938 238.98047 4.7890625Q237.83984 5.9570312 235.82422 5.9570312Q233.84766 5.9570312 232.72266 4.7851562Q231.59766 3.6132812 231.59766 1.5664062Q231.59766 -0.47265625 232.72266 -1.640625Q233.84766 -2.8085938 235.87109 -2.8085938Q237.94141 -2.8085938 239.03125 -1.6796875Q240.12109 -0.55078125 240.12109 1.5664062ZM237.82422 1.5664062Q237.82422 0.05859375 237.33203 -0.62109375Q236.83984 -1.3007812 235.90234 -1.3007812Q233.90234 -1.3007812 233.90234 1.5664062Q233.90234 2.9804688 234.39062 3.71875Q234.87891 4.4570312 235.80078 4.4570312Q237.82422 4.4570312 237.82422 1.5664062ZM251.00391 5.8007812L248.68359 5.8007812L247.33984 0.64453125Q247.24609 0.29296875 246.97266 -1.0898438L246.56641 0.66015625L245.20703 5.8007812L242.88672 5.8007812L240.69922 -2.6523438L242.76172 -2.6523438L244.15234 3.8085938L244.26172 3.2304688L244.45703 2.3164062L245.78516 -2.6523438L248.13672 -2.6523438L249.43359 2.3164062Q249.54297 2.7226562 249.75391 3.8085938L249.97266 2.7773438L251.19141 -2.6523438L253.22266 -2.6523438L251.00391 5.8007812ZM259.78516 5.8007812L259.78516 1.0585938Q259.78516 -1.1679688 258.27734 -1.1679688Q257.48047 -1.1679688 256.99219 -0.484375Q256.50391 0.19921875 256.50391 1.2695312L256.50391 5.8007812L254.30859 5.8007812L254.30859 -0.76171875Q254.30859 -1.4414062 254.28906 -1.875Q254.26953 -2.3085938 254.24609 -2.6523438L256.33984 -2.6523438Q256.36328 -2.5039062 256.40234 -1.859375Q256.44141 -1.2148438 256.44141 -0.97265625L256.47266 -0.97265625Q256.91797 -1.9414062 257.58984 -2.3789062Q258.26172 -2.8164062 259.19141 -2.8164062Q260.53516 -2.8164062 261.25391 -1.9882812Q261.97266 -1.1601562 261.97266 0.43359375L261.97266 5.8007812L259.78516 5.8007812ZM264.08203 5.8007812L264.08203 -5.7929688L266.27734 -5.7929688L266.27734 5.8007812L264.08203 5.8007812ZM276.55859 1.5664062Q276.55859 3.6210938 275.41797 4.7890625Q274.27734 5.9570312 272.26172 5.9570312Q270.28516 5.9570312 269.16016 4.7851562Q268.03516 3.6132812 268.03516 1.5664062Q268.03516 -0.47265625 269.16016 -1.640625Q270.28516 -2.8085938 272.30859 -2.8085938Q274.37891 -2.8085938 275.46875 -1.6796875Q276.55859 -0.55078125 276.55859 1.5664062ZM274.26172 1.5664062Q274.26172 0.05859375 273.76953 -0.62109375Q273.27734 -1.3007812 272.33984 -1.3007812Q270.33984 -1.3007812 270.33984 1.5664062Q270.33984 2.9804688 270.82812 3.71875Q271.31641 4.4570312 272.23828 4.4570312Q274.26172 4.4570312 274.26172 1.5664062ZM280.25391 5.9570312Q279.02734 5.9570312 278.33984 5.2890625Q277.65234 4.6210938 277.65234 3.4101562Q277.65234 2.0976562 278.50781 1.4101562Q279.36328 0.72265625 280.98828 0.70703125L282.80859 0.67578125L282.80859 0.24609375Q282.80859 -0.58203125 282.51953 -0.984375Q282.23047 -1.3867188 281.57422 -1.3867188Q280.96484 -1.3867188 280.67969 -1.109375Q280.39453 -0.83203125 280.32422 -0.19140625L278.03516 -0.30078125Q278.24609 -1.5351562 279.16406 -2.171875Q280.08203 -2.8085938 281.66797 -2.8085938Q283.26953 -2.8085938 284.13672 -2.0195312Q285.00391 -1.2304688 285.00391 0.22265625L285.00391 3.3007812Q285.00391 4.0117188 285.16406 4.28125Q285.32422 4.5507812 285.69922 4.5507812Q285.94922 4.5507812 286.18359 4.5039062L286.18359 5.6914062Q285.98828 5.7382812 285.83203 5.7773438Q285.67578 5.8164062 285.51953 5.8398438Q285.36328 5.8632812 285.1875 5.8789062Q285.01172 5.8945312 284.77734 5.8945312Q283.94922 5.8945312 283.55469 5.4882812Q283.16016 5.0820312 283.08203 4.2929688L283.03516 4.2929688Q282.11328 5.9570312 280.25391 5.9570312ZM282.80859 1.8867188L281.68359 1.9023438Q280.91797 1.9335938 280.59766 2.0703125Q280.27734 2.2070312 280.10938 2.4882812Q279.94141 2.7695312 279.94141 3.2382812Q279.94141 3.8398438 280.21875 4.1328125Q280.49609 4.4257812 280.95703 4.4257812Q281.47266 4.4257812 281.89844 4.1445312Q282.32422 3.8632812 282.56641 3.3671875Q282.80859 2.8710938 282.80859 2.3164062L282.80859 1.8867188ZM292.67578 5.8007812Q292.64453 5.6835938 292.60156 5.2109375Q292.55859 4.7382812 292.55859 4.4257812L292.52734 4.4257812Q291.81641 5.9570312 289.82422 5.9570312Q288.34766 5.9570312 287.54297 4.8046875Q286.73828 3.6523438 286.73828 1.5820312Q286.73828 -0.51953125 287.58594 -1.6640625Q288.43359 -2.8085938 289.98828 -2.8085938Q290.88672 -2.8085938 291.53906 -2.4335938Q292.19141 -2.0585938 292.54297 -1.3164062L292.55859 -1.3164062L292.54297 -2.7070312L292.54297 -5.7929688L294.73828 -5.7929688L294.73828 3.9570312Q294.73828 4.7382812 294.80078 5.8007812L292.67578 5.8007812ZM292.57422 1.5273438Q292.57422 0.16015625 292.11719 -0.578125Q291.66016 -1.3164062 290.76953 -1.3164062Q289.88672 -1.3164062 289.45703 -0.6015625Q289.02734 0.11328125 289.02734 1.5820312Q289.02734 4.4570312 290.75391 4.4570312Q291.62109 4.4570312 292.09766 3.6953125Q292.57422 2.9335938 292.57422 1.5273438ZM306.33984 -3.4257812L306.33984 5.8007812L304.03516 5.8007812L304.03516 -3.4257812L300.48047 -3.4257812L300.48047 -5.2070312L309.90234 -5.2070312L309.90234 -3.4257812L306.33984 -3.4257812ZM310.30859 5.8007812L310.30859 -0.66796875Q310.30859 -1.3632812 310.28906 -1.828125Q310.26953 -2.2929688 310.24609 -2.6523438L312.33984 -2.6523438Q312.36328 -2.5117188 312.40234 -1.796875Q312.44141 -1.0820312 312.44141 -0.84765625L312.47266 -0.84765625Q312.79297 -1.7382812 313.04297 -2.1015625Q313.29297 -2.4648438 313.63672 -2.640625Q313.98047 -2.8164062 314.49609 -2.8164062Q314.91797 -2.8164062 315.17578 -2.6992188L315.17578 -0.86328125Q314.64453 -0.98046875 314.23828 -0.98046875Q313.41797 -0.98046875 312.96094 -0.31640625Q312.50391 0.34765625 312.50391 1.6523438L312.50391 5.8007812L310.30859 5.8007812ZM319.99609 5.9570312Q318.08984 5.9570312 317.06641 4.828125Q316.04297 3.6992188 316.04297 1.5351562Q316.04297 -0.55859375 317.08203 -1.6835938Q318.12109 -2.8085938 320.02734 -2.8085938Q321.84766 -2.8085938 322.80859 -1.6015625Q323.76953 -0.39453125 323.76953 1.9335938L323.76953 1.9960938L318.34766 1.9960938Q318.34766 3.2304688 318.80469 3.859375Q319.26172 4.4882812 320.10547 4.4882812Q321.26953 4.4882812 321.57422 3.4804688L323.64453 3.6601562Q322.74609 5.9570312 319.99609 5.9570312ZM319.99609 -1.4257812Q319.22266 -1.4257812 318.80469 -0.88671875Q318.38672 -0.34765625 318.36328 0.62109375L321.64453 0.62109375Q321.58203 -0.40234375 321.15234 -0.9140625Q320.72266 -1.4257812 319.99609 -1.4257812ZM330.91016 5.8007812L330.91016 1.0585938Q330.91016 -1.1679688 329.40234 -1.1679688Q328.60547 -1.1679688 328.11719 -0.484375Q327.62891 0.19921875 327.62891 1.2695312L327.62891 5.8007812L325.43359 5.8007812L325.43359 -0.76171875Q325.43359 -1.4414062 325.41406 -1.875Q325.39453 -2.3085938 325.37109 -2.6523438L327.46484 -2.6523438Q327.48828 -2.5039062 327.52734 -1.859375Q327.56641 -1.2148438 327.56641 -0.97265625L327.59766 -0.97265625Q328.04297 -1.9414062 328.71484 -2.3789062Q329.38672 -2.8164062 330.31641 -2.8164062Q331.66016 -2.8164062 332.37891 -1.9882812Q333.09766 -1.1601562 333.09766 0.43359375L333.09766 5.8007812L330.91016 5.8007812ZM340.68359 5.8007812Q340.65234 5.6835938 340.60938 5.2109375Q340.56641 4.7382812 340.56641 4.4257812L340.53516 4.4257812Q339.82422 5.9570312 337.83203 5.9570312Q336.35547 5.9570312 335.55078 4.8046875Q334.74609 3.6523438 334.74609 1.5820312Q334.74609 -0.51953125 335.59375 -1.6640625Q336.44141 -2.8085938 337.99609 -2.8085938Q338.89453 -2.8085938 339.54688 -2.4335938Q340.19922 -2.0585938 340.55078 -1.3164062L340.56641 -1.3164062L340.55078 -2.7070312L340.55078 -5.7929688L342.74609 -5.7929688L342.74609 3.9570312Q342.74609 4.7382812 342.80859 5.8007812L340.68359 5.8007812ZM340.58203 1.5273438Q340.58203 0.16015625 340.125 -0.578125Q339.66797 -1.3164062 338.77734 -1.3164062Q337.89453 -1.3164062 337.46484 -0.6015625Q337.03516 0.11328125 337.03516 1.5820312Q337.03516 4.4570312 338.76172 4.4570312Q339.62891 4.4570312 340.10547 3.6953125Q340.58203 2.9335938 340.58203 1.5273438ZM352.10547 3.3320312Q352.10547 4.5585938 351.10156 5.2578125Q350.09766 5.9570312 348.32422 5.9570312Q346.58203 5.9570312 345.65625 5.40625Q344.73047 4.8554688 344.42578 3.6914062L346.35547 3.4023438Q346.51953 4.0039062 346.92188 4.2539062Q347.32422 4.5039062 348.32422 4.5039062Q349.24609 4.5039062 349.66797 4.2695312Q350.08984 4.0351562 350.08984 3.5351562Q350.08984 3.1289062 349.75 2.890625Q349.41016 2.6523438 348.59766 2.4882812Q346.73828 2.1210938 346.08984 1.8046875Q345.44141 1.4882812 345.10156 0.984375Q344.76172 0.48046875 344.76172 -0.25390625Q344.76172 -1.4648438 345.69531 -2.140625Q346.62891 -2.8164062 348.33984 -2.8164062Q349.84766 -2.8164062 350.76562 -2.2304688Q351.68359 -1.6445312 351.91016 -0.53515625L349.96484 -0.33203125Q349.87109 -0.84765625 349.50391 -1.1015625Q349.13672 -1.3554688 348.33984 -1.3554688Q347.55859 -1.3554688 347.16797 -1.15625Q346.77734 -0.95703125 346.77734 -0.48828125Q346.77734 -0.12109375 347.07812 0.09375Q347.37891 0.30859375 348.08984 0.44921875Q349.08203 0.65234375 349.85156 0.8671875Q350.62109 1.0820312 351.08594 1.3789062Q351.55078 1.6757812 351.82812 2.140625Q352.10547 2.6054688 352.10547 3.3320312Z"/>
	<path fill="none" stroke="black" stroke-width="1" stroke-miterlimit="10" stroke-opacity="0.10196079" d="M49 749.5L1195 749.5"/>
	<clipPath id="cl_458">
		<rect y="749.20001" width="1200" height="50.799988"/>
	</clipPath>
	<g clip-path="url(#cl_458)">
		<path fill="#666" transform="translate(49.75 760.2)" d="M-12.751953 11.300586L-14 11.300586L-16.302734 4.960742L-15.177734 4.960742L-13.783203 9.085742Q-13.707031 9.320117 -13.378906 10.474414L-13.173828 9.788867L-12.945312 9.0974607L-11.503906 4.960742L-10.384766 4.960742L-12.751953 11.300586ZM-4.1386719 7.1697264Q-4.1386719 9.2380857 -4.8681641 10.327929Q-5.5976562 11.417773 -7.0214844 11.417773Q-8.4453125 11.417773 -9.1601562 10.333789Q-9.875 9.2498045 -9.875 7.1697264Q-9.875 5.0427732 -9.1806641 3.9822264Q-8.4863281 2.9216795 -6.9863281 2.9216795Q-5.5273438 2.9216795 -4.8330078 3.9939451Q-4.1386719 5.0662107 -4.1386719 7.1697264ZM-5.2109375 7.1697264Q-5.2109375 5.382617 -5.6240234 4.5798826Q-6.0371094 3.7771482 -6.9863281 3.7771482Q-7.9589844 3.7771482 -8.3837891 4.5681639Q-8.8085938 5.3591795 -8.8085938 7.1697264Q-8.8085938 8.9275389 -8.3779297 9.741992Q-7.9472656 10.556445 -7.0097656 10.556445Q-6.078125 10.556445 -5.6445312 9.7244139Q-5.2109375 8.8923826 -5.2109375 7.1697264ZM-2.5742188 11.300586L-2.5742188 10.017383L-1.4316406 10.017383L-1.4316406 11.300586L-2.5742188 11.300586ZM0.578125 11.300586L0.578125 10.404101L2.6816406 10.404101L2.6816406 4.0525389L0.81835938 5.382617L0.81835938 4.3865232L2.7695312 3.0447264L3.7421875 3.0447264L3.7421875 10.404101L5.7519531 10.404101L5.7519531 11.300586L0.578125 11.300586ZM7.4335938 11.300586L7.4335938 10.017383L8.5761719 10.017383L8.5761719 11.300586L7.4335938 11.300586ZM15.876953 7.1697264Q15.876953 9.2380857 15.147461 10.327929Q14.417969 11.417773 12.994141 11.417773Q11.570312 11.417773 10.855469 10.333789Q10.140625 9.2498045 10.140625 7.1697264Q10.140625 5.0427732 10.834961 3.9822264Q11.529297 2.9216795 13.029297 2.9216795Q14.488281 2.9216795 15.182617 3.9939451Q15.876953 5.0662107 15.876953 7.1697264ZM14.804688 7.1697264Q14.804688 5.382617 14.391602 4.5798826Q13.978516 3.7771482 13.029297 3.7771482Q12.056641 3.7771482 11.631836 4.5681639Q11.207031 5.3591795 11.207031 7.1697264Q11.207031 8.9275389 11.637695 9.741992Q12.068359 10.556445 13.005859 10.556445Q13.9375 10.556445 14.371094 9.7244139Q14.804688 8.8923826 14.804688 7.1697264Z"/>
	</g>
	<path fill="none" stroke="black" stroke-width="1" stroke-miterlimit="10" stroke-opacity="0.10196079" d="M49.5 71L49.5 750"/>
	<clipPath id="cl_45a">
		<rect width="49.75" height="800"/>
	</clipPath>
	<g clip-path="url(#cl_45a)">
		<path fill="#666" transform="translate(38.75 749.2)" d="M-0.46679688 -0.030273438Q-0.46679688 2.0380859 -1.1962891 3.1279297Q-1.9257812 4.2177734 -3.3496094 4.2177734Q-4.7734375 4.2177734 -5.4882812 3.1337891Q-6.203125 2.0498047 -6.203125 -0.030273438Q-6.203125 -2.1572266 -5.5087891 -3.2177734Q-4.8144531 -4.2783203 -3.3144531 -4.2783203Q-1.8554688 -4.2783203 -1.1611328 -3.2060547Q-0.46679688 -2.1337891 -0.46679688 -0.030273438ZM-1.5390625 -0.030273438Q-1.5390625 -1.8173828 -1.9521484 -2.6201172Q-2.3652344 -3.4228516 -3.3144531 -3.4228516Q-4.2871094 -3.4228516 -4.7119141 -2.6318359Q-5.1367188 -1.8408203 -5.1367188 -0.030273438Q-5.1367188 1.7275391 -4.7060547 2.5419922Q-4.2753906 3.3564453 -3.3378906 3.3564453Q-2.40625 3.3564453 -1.9726562 2.5244141Q-1.5390625 1.6923828 -1.5390625 -0.030273438Z"/>
	</g>
	<clipPath id="cl_45b">
		<rect width="49.75" height="800"/>
	</clipPath>
	<g clip-path="url(#cl_45b)">
		<path fill="#666" transform="translate(38.75 681.4)" d="M-5.7578125 4.1005859L-5.7578125 3.2041016L-3.6542969 3.2041016L-3.6542969 -3.1474609L-5.5175781 -1.8173828L-5.5175781 -2.8134766L-3.5664062 -4.1552734L-2.59375 -4.1552734L-2.59375 3.2041016L-0.58398438 3.2041016L-0.58398438 4.1005859L-5.7578125 4.1005859Z"/>
	</g>
	<clipPath id="cl_45c">
		<rect width="49.75" height="800"/>
	</clipPath>
	<g clip-path="url(#cl_45c)">
		<path fill="#666" transform="translate(38.75 613.6)" d="M-6.0683594 4.1005859L-6.0683594 3.3564453Q-5.7695312 2.6708984 -5.3388672 2.1464844Q-4.9082031 1.6220703 -4.4335938 1.1972656Q-3.9589844 0.77246094 -3.4931641 0.40917969Q-3.0273438 0.045898438 -2.6523438 -0.31738281Q-2.2773438 -0.68066406 -2.0458984 -1.0791016Q-1.8144531 -1.4775391 -1.8144531 -1.9814453Q-1.8144531 -2.6611328 -2.2128906 -3.0361328Q-2.6113281 -3.4111328 -3.3203125 -3.4111328Q-3.9941406 -3.4111328 -4.4306641 -3.0449219Q-4.8671875 -2.6787109 -4.9433594 -2.0166016L-6.0214844 -2.1162109Q-5.9042969 -3.1064453 -5.1806641 -3.6923828Q-4.4570312 -4.2783203 -3.3203125 -4.2783203Q-2.0722656 -4.2783203 -1.4013672 -3.6894531Q-0.73046875 -3.1005859 -0.73046875 -2.0166016Q-0.73046875 -1.5361328 -0.95019531 -1.0615234Q-1.1699219 -0.58691406 -1.6035156 -0.11230469Q-2.0371094 0.36230469 -3.2617188 1.3583984Q-3.9355469 1.9091797 -4.3339844 2.3515625Q-4.7324219 2.7939453 -4.9082031 3.2041016L-0.6015625 3.2041016L-0.6015625 4.1005859L-6.0683594 4.1005859Z"/>
	</g>
	<clipPath id="cl_45d">
		<rect width="49.75" height="800"/>
	</clipPath>
	<g clip-path="url(#cl_45d)">
		<path fill="#666" transform="translate(38.75 545.8)" d="M-0.52539062 1.8212891Q-0.52539062 2.9638672 -1.2519531 3.5908203Q-1.9785156 4.2177734 -3.3261719 4.2177734Q-4.5800781 4.2177734 -5.3271484 3.6523438Q-6.0742188 3.0869141 -6.2148438 1.9794922L-5.125 1.8798828Q-4.9140625 3.3447266 -3.3261719 3.3447266Q-2.5292969 3.3447266 -2.0751953 2.9521484Q-1.6210938 2.5595703 -1.6210938 1.7861328Q-1.6210938 1.1123047 -2.1396484 0.734375Q-2.6582031 0.35644531 -3.6367188 0.35644531L-4.234375 0.35644531L-4.234375 -0.55761719L-3.6601562 -0.55761719Q-2.7929688 -0.55761719 -2.3154297 -0.93554688Q-1.8378906 -1.3134766 -1.8378906 -1.9814453Q-1.8378906 -2.6435547 -2.2275391 -3.0273438Q-2.6171875 -3.4111328 -3.3847656 -3.4111328Q-4.0820312 -3.4111328 -4.5126953 -3.0537109Q-4.9433594 -2.6962891 -5.0136719 -2.0458984L-6.0742188 -2.1279297Q-5.9570312 -3.1416016 -5.2333984 -3.7099609Q-4.5097656 -4.2783203 -3.3730469 -4.2783203Q-2.1308594 -4.2783203 -1.4423828 -3.7011719Q-0.75390625 -3.1240234 -0.75390625 -2.0927734Q-0.75390625 -1.3017578 -1.1962891 -0.80664062Q-1.6386719 -0.31152344 -2.4824219 -0.13574219L-2.4824219 -0.11230469Q-1.5566406 -0.012695312 -1.0410156 0.50878906Q-0.52539062 1.0302734 -0.52539062 1.8212891Z"/>
	</g>
	<clipPath id="cl_45e">
		<rect width="49.75" height="800"/>
	</clipPath>
	<g clip-path="url(#cl_45e)">
		<path fill="#666" transform="translate(38.75 478)" d="M-1.5097656 2.2314453L-1.5097656 4.1005859L-2.5058594 4.1005859L-2.5058594 2.2314453L-6.3964844 2.2314453L-6.3964844 1.4111328L-2.6171875 -4.1552734L-1.5097656 -4.1552734L-1.5097656 1.3994141L-0.34960938 1.3994141L-0.34960938 2.2314453L-1.5097656 2.2314453ZM-2.5058594 -2.9658203Q-2.5175781 -2.9306641 -2.6699219 -2.6552734Q-2.8222656 -2.3798828 -2.8984375 -2.2685547L-5.0136719 0.84863281L-5.3300781 1.2822266L-5.4238281 1.3994141L-2.5058594 1.3994141L-2.5058594 -2.9658203Z"/>
	</g>
	<clipPath id="cl_45f">
		<rect width="49.75" height="800"/>
	</clipPath>
	<g clip-path="url(#cl_45f)">
		<path fill="#666" transform="translate(38.75 410.2)" d="M-0.50195312 1.4111328Q-0.50195312 2.7177734 -1.2783203 3.4677734Q-2.0546875 4.2177734 -3.4316406 4.2177734Q-4.5859375 4.2177734 -5.2949219 3.7138672Q-6.0039062 3.2099609 -6.1914062 2.2548828L-5.125 2.1318359Q-4.7910156 3.3564453 -3.4082031 3.3564453Q-2.5585938 3.3564453 -2.078125 2.84375Q-1.5976562 2.3310547 -1.5976562 1.4345703Q-1.5976562 0.65527344 -2.0810547 0.17480469Q-2.5644531 -0.30566406 -3.3847656 -0.30566406Q-3.8125 -0.30566406 -4.1816406 -0.17089844Q-4.5507812 -0.036132812 -4.9199219 0.28613281L-5.9511719 0.28613281L-5.6757812 -4.1552734L-0.98242188 -4.1552734L-0.98242188 -3.2587891L-4.7148438 -3.2587891L-4.8730469 -0.63964844Q-4.1875 -1.1669922 -3.1679688 -1.1669922Q-1.9492188 -1.1669922 -1.2255859 -0.45214844Q-0.50195312 0.26269531 -0.50195312 1.4111328Z"/>
	</g>
	<clipPath id="cl_460">
		<rect width="49.75" height="800"/>
	</clipPath>
	<g clip-path="url(#cl_460)">
		<path fill="#666" transform="translate(38.75 342.4)" d="M-0.52539062 1.3994141Q-0.52539062 2.7060547 -1.234375 3.4619141Q-1.9433594 4.2177734 -3.1914062 4.2177734Q-4.5859375 4.2177734 -5.3242188 3.1806641Q-6.0625 2.1435547 -6.0625 0.16308594Q-6.0625 -1.9814453 -5.2949219 -3.1298828Q-4.5273438 -4.2783203 -3.109375 -4.2783203Q-1.2402344 -4.2783203 -0.75390625 -2.5966797L-1.7617188 -2.4150391Q-2.0722656 -3.4228516 -3.1210938 -3.4228516Q-4.0234375 -3.4228516 -4.5185547 -2.5820312Q-5.0136719 -1.7412109 -5.0136719 -0.14746094Q-4.7265625 -0.68066406 -4.2050781 -0.95898438Q-3.6835938 -1.2373047 -3.0097656 -1.2373047Q-1.8671875 -1.2373047 -1.1962891 -0.52246094Q-0.52539062 0.19238281 -0.52539062 1.3994141ZM-1.5976562 1.4462891Q-1.5976562 0.54980469 -2.0371094 0.063476562Q-2.4765625 -0.42285156 -3.2617188 -0.42285156Q-4 -0.42285156 -4.4541016 0.0078125Q-4.9082031 0.43847656 -4.9082031 1.1943359Q-4.9082031 2.1494141 -4.4365234 2.7587891Q-3.9648438 3.3681641 -3.2265625 3.3681641Q-2.4648438 3.3681641 -2.03125 2.8554688Q-1.5976562 2.3427734 -1.5976562 1.4462891Z"/>
	</g>
	<clipPath id="cl_461">
		<rect width="49.75" height="800"/>
	</clipPath>
	<g clip-path="url(#cl_461)">
		<path fill="#666" transform="translate(38.75 274.6)" d="M-0.6015625 -3.2998047Q-1.8671875 -1.3662109 -2.3886719 -0.27050781Q-2.9101562 0.82519531 -3.1708984 1.8916016Q-3.4316406 2.9580078 -3.4316406 4.1005859L-4.5332031 4.1005859Q-4.5332031 2.5185547 -3.8623047 0.76953125Q-3.1914062 -0.97949219 -1.6210938 -3.2587891L-6.0566406 -3.2587891L-6.0566406 -4.1552734L-0.6015625 -4.1552734L-0.6015625 -3.2998047Z"/>
	</g>
	<clipPath id="cl_462">
		<rect width="49.75" height="800"/>
	</clipPath>
	<g clip-path="url(#cl_462)">
		<path fill="#666" transform="translate(38.75 206.8)" d="M-0.51953125 1.7978516Q-0.51953125 2.9404297 -1.2460938 3.5791016Q-1.9726562 4.2177734 -3.3320312 4.2177734Q-4.65625 4.2177734 -5.4033203 3.5908203Q-6.1503906 2.9638672 -6.1503906 1.8095703Q-6.1503906 1.0009766 -5.6875 0.45019531Q-5.2246094 -0.10058594 -4.5039062 -0.21777344L-4.5039062 -0.24121094Q-5.1777344 -0.39941406 -5.5673828 -0.92675781Q-5.9570312 -1.4541016 -5.9570312 -2.1630859Q-5.9570312 -3.1064453 -5.2509766 -3.6923828Q-4.5449219 -4.2783203 -3.3554688 -4.2783203Q-2.1367188 -4.2783203 -1.4306641 -3.7041016Q-0.72460938 -3.1298828 -0.72460938 -2.1513672Q-0.72460938 -1.4423828 -1.1171875 -0.91503906Q-1.5097656 -0.38769531 -2.1894531 -0.25292969L-2.1894531 -0.22949219Q-1.3984375 -0.10058594 -0.95898438 0.44140625Q-0.51953125 0.98339844 -0.51953125 1.7978516ZM-1.8203125 -2.0927734Q-1.8203125 -3.4931641 -3.3554688 -3.4931641Q-4.0996094 -3.4931641 -4.4892578 -3.1416016Q-4.8789062 -2.7900391 -4.8789062 -2.0927734Q-4.8789062 -1.3837891 -4.4775391 -1.0117188Q-4.0761719 -0.63964844 -3.34375 -0.63964844Q-2.5996094 -0.63964844 -2.2099609 -0.98242188Q-1.8203125 -1.3251953 -1.8203125 -2.0927734ZM-1.6152344 1.6982422Q-1.6152344 0.93066406 -2.0722656 0.54101562Q-2.5292969 0.15136719 -3.3554688 0.15136719Q-4.1582031 0.15136719 -4.609375 0.5703125Q-5.0605469 0.98925781 -5.0605469 1.7216797Q-5.0605469 3.4267578 -3.3203125 3.4267578Q-2.4589844 3.4267578 -2.0371094 3.0136719Q-1.6152344 2.6005859 -1.6152344 1.6982422Z"/>
	</g>
	<clipPath id="cl_463">
		<rect width="49.75" height="800"/>
	</clipPath>
	<g clip-path="url(#cl_463)">
		<path fill="#666" transform="translate(38.75 139)" d="M-0.56640625 -0.19433594Q-0.56640625 1.9326172 -1.3427734 3.0751953Q-2.1191406 4.2177734 -3.5546875 4.2177734Q-4.5214844 4.2177734 -5.1044922 3.8105469Q-5.6875 3.4033203 -5.9394531 2.4951172L-4.9316406 2.3369141Q-4.6152344 3.3681641 -3.5371094 3.3681641Q-2.6289062 3.3681641 -2.1308594 2.5244141Q-1.6328125 1.6806641 -1.609375 0.11621094Q-1.84375 0.64355469 -2.4121094 0.96289062Q-2.9804688 1.2822266 -3.6601562 1.2822266Q-4.7734375 1.2822266 -5.4414062 0.52050781Q-6.109375 -0.24121094 -6.109375 -1.5009766Q-6.109375 -2.7958984 -5.3828125 -3.5371094Q-4.65625 -4.2783203 -3.3613281 -4.2783203Q-1.984375 -4.2783203 -1.2753906 -3.2587891Q-0.56640625 -2.2392578 -0.56640625 -0.19433594ZM-1.7148438 -1.2138672Q-1.7148438 -2.2099609 -2.171875 -2.8164062Q-2.6289062 -3.4228516 -3.3964844 -3.4228516Q-4.1582031 -3.4228516 -4.5976562 -2.9042969Q-5.0371094 -2.3857422 -5.0371094 -1.5009766Q-5.0371094 -0.59863281 -4.5976562 -0.07421875Q-4.1582031 0.45019531 -3.4082031 0.45019531Q-2.9511719 0.45019531 -2.5585938 0.2421875Q-2.1660156 0.034179688 -1.9404297 -0.34667969Q-1.7148438 -0.72753906 -1.7148438 -1.2138672Z"/>
	</g>
	<clipPath id="cl_464">
		<rect width="49.75" height="800"/>
	</clipPath>
	<g clip-path="url(#cl_464)">
		<path fill="#666" transform="translate(38.75 71.2)" d="M-12.429688 4.1005859L-12.429688 3.2041016L-10.326172 3.2041016L-10.326172 -3.1474609L-12.189453 -1.8173828L-12.189453 -2.8134766L-10.238281 -4.1552734L-9.265625 -4.1552734L-9.265625 3.2041016L-7.2558594 3.2041016L-7.2558594 4.1005859L-12.429688 4.1005859ZM-0.46484375 -0.030273438Q-0.46484375 2.0380859 -1.1943359 3.1279297Q-1.9238281 4.2177734 -3.3476562 4.2177734Q-4.7714844 4.2177734 -5.4863281 3.1337891Q-6.2011719 2.0498047 -6.2011719 -0.030273438Q-6.2011719 -2.1572266 -5.5068359 -3.2177734Q-4.8125 -4.2783203 -3.3125 -4.2783203Q-1.8535156 -4.2783203 -1.1591797 -3.2060547Q-0.46484375 -2.1337891 -0.46484375 -0.030273438ZM-1.5371094 -0.030273438Q-1.5371094 -1.8173828 -1.9501953 -2.6201172Q-2.3632812 -3.4228516 -3.3125 -3.4228516Q-4.2851562 -3.4228516 -4.7099609 -2.6318359Q-5.1347656 -1.8408203 -5.1347656 -0.030273438Q-5.1347656 1.7275391 -4.7041016 2.5419922Q-4.2734375 3.3564453 -3.3359375 3.3564453Q-2.4042969 3.3564453 -1.9707031 2.5244141Q-1.5371094 1.6923828 -1.5371094 -0.030273438Z"/>
	</g>
	<clipPath id="cl_466">
		<rect x="43.75" y="65.199997" width="1156.25" height="690"/>
	</clipPath>
	<g clip-path="url(#cl_466)">
		<path fill="none" stroke="#C32222" stroke-width="2" stroke-miterlimit="10" d=""/>
	</g>
	<clipPath id="cl_467">
		<rect x="43.75" y="65.199997" width="1156.25" height="690"/>
	</clipPath>
	<g clip-path="url(#cl_467)">
		<path fill="#C32222" fill-opacity="0.2" d="M52.75 749.20001Q52.75 749.34741 52.73555 749.49414Q52.721107 749.64075 52.692352 749.78522Q52.663601 749.92981 52.620815 750.0708Q52.578033 750.21179 52.521633 750.34796Q52.465233 750.48419 52.39576 750.61414Q52.326286 750.74414 52.244404 750.86658Q52.162525 750.98914 52.069027 751.10309Q51.975533 751.21704 51.871319 751.32129Q51.767105 751.42554 51.653179 751.51898Q51.539253 751.61249 51.416706 751.69434Q51.294167 751.77625 51.164188 751.84583Q51.03421 751.91528 50.898048 751.97162Q50.76189 752.02808 50.620857 752.0708Q50.47982 752.11365 50.33527 752.14233Q50.19072 752.17114 50.044052 752.18555Q49.897381 752.20001 49.75 752.20001Q49.602619 752.20001 49.455948 752.18555Q49.309277 752.17114 49.164726 752.14233Q49.02018 752.11365 48.879143 752.0708Q48.73811 752.02802 48.601944 751.97156Q48.465782 751.91522 48.335808 751.84576Q48.205826 751.77631 48.083282 751.6944Q47.960747 751.61255 47.846817 751.51904Q47.732895 751.4256 47.628677 751.32135Q47.524467 751.21716 47.430969 751.10321Q47.337471 750.98926 47.255585 750.8667Q47.173706 750.74414 47.104233 750.6142Q47.03476 750.48425 46.978359 750.34802Q46.921963 750.21191 46.879177 750.07092Q46.836395 749.92987 46.80764 749.78528Q46.778893 749.64075 46.76445 749.49414Q46.75 749.34741 46.75 749.20001Q46.75 749.05273 46.76445 748.90601Q46.778896 748.75928 46.807648 748.61469Q46.836403 748.47015 46.879181 748.3291Q46.921963 748.18811 46.978359 748.05188Q47.03476 747.91577 47.104233 747.78577Q47.173706 747.65582 47.255585 747.5332Q47.337471 747.41071 47.430969 747.29675Q47.524467 747.18286 47.628677 747.07861Q47.732895 746.97443 47.846817 746.88092Q47.960747 746.78735 48.083282 746.70544Q48.205826 746.62366 48.335808 746.5542Q48.465782 746.48474 48.601944 746.42828Q48.73811 746.37195 48.879143 746.32922Q49.02018 746.28644 49.164726 746.25763Q49.309277 746.22888 49.455948 746.21448Q49.602619 746.20007 49.75 746.20001Q49.897381 746.20007 50.044052 746.21454Q50.19072 746.22894 50.335266 746.25769Q50.479816 746.2865 50.620853 746.32922Q50.761887 746.37201 50.898045 746.42834Q51.03421 746.48474 51.164188 746.55426Q51.294167 746.62372 51.416706 746.70557Q51.539253 746.78748 51.653179 746.88104Q51.767105 746.97449 51.871315 747.07867Q51.975533 747.18292 52.069023 747.29681Q52.162521 747.41077 52.2444 747.53326Q52.326279 747.65588 52.395756 747.78577Q52.465233 747.91577 52.521633 748.05188Q52.578033 748.18811 52.620815 748.3291Q52.663597 748.47021 52.692348 748.61475Q52.721107 748.75934 52.73555 748.90601Q52.75 749.05273 52.75 749.20001Z"/>
		<path fill="none" stroke="#C32222" stroke-width="2" stroke-miterlimit="10" d="M52.75 749.20001Q52.75 749.34741 52.73555 749.49414Q52.721107 749.64075 52.692352 749.78522Q52.663601 749.92981 52.620815 750.0708Q52.578033 750.21179 52.521633 750.34796Q52.465233 750.48419 52.39576 750.61414Q52.326286 750.74414 52.244404 750.86658Q52.162525 750.98914 52.069027 751.10309Q51.975533 751.21704 51.871319 751.32129Q51.767105 751.42554 51.653179 751.51898Q51.539253 751.61249 51.416706 751.69434Q51.294167 751.77625 51.164188 751.84583Q51.03421 751.91528 50.898048 751.97162Q50.76189 752.02808 50.620857 752.0708Q50.47982 752.11365 50.33527 752.14233Q50.19072 752.17114 50.044052 752.18555Q49.897381 752.20001 49.75 752.20001Q49.602619 752.20001 49.455948 752.18555Q49.309277 752.17114 49.164726 752.14233Q49.02018 752.11365 48.879143 752.0708Q48.73811 752.02802 48.601944 751.97156Q48.465782 751.91522 48.335808 751.84576Q48.205826 751.77631 48.083282 751.6944Q47.960747 751.61255 47.846817 751.51904Q47.732895 751.4256 47.628677 751.32135Q47.524467 751.21716 47.430969 751.10321Q47.337471 750.98926 47.255585 750.8667Q47.173706 750.74414 47.104233 750.6142Q47.03476 750.48425 46.978359 750.34802Q46.921963 750.21191 46.879177 750.07092Q46.836395 749.92987 46.80764 749.78528Q46.778893 749.64075 46.76445 749.49414Q46.75 749.34741 46.75 749.20001Q46.75 749.05273 46.76445 748.90601Q46.778896 748.75928 46.807648 748.61469Q46.836403 748.47015 46.879181 748.3291Q46.921963 748.18811 46.978359 748.05188Q47.03476 747.91577 47.104233 747.78577Q47.173706 747.65582 47.255585 747.5332Q47.337471 747.41071 47.430969 747.29675Q47.524467 747.18286 47.628677 747.07861Q47.732895 746.97443 47.846817 746.88092Q47.960747 746.78735 48.083282 746.70544Q48.205826 746.62366 48.335808 746.5542Q48.465782 746.48474 48.601944 746.42828Q48.73811 746.37195 48.879143 746.32922Q49.02018 746.28644 49.164726 746.25763Q49.309277 746.22888 49.455948 746.21448Q49.602619 746.20007 49.75 746.20001Q49.897381 746.20007 50.044052 746.21454Q50.19072 746.22894 50.335266 746.25769Q50.479816 746.2865 50.620853 746.32922Q50.761887 746.37201 50.898045 746.42834Q51.03421 746.48474 51.164188 746.55426Q51.294167 746.62372 51.416706 746.70557Q51.539253 746.78748 51.653179 746.88104Q51.767105 746.97449 51.871315 747.07867Q51.975533 747.18292 52.069023 747.29681Q52.162521 747.41077 52.2444 747.53326Q52.326279 747.65588 52.395756 747.78577Q52.465233 747.91577 52.521633 748.05188Q52.578033 748.18811 52.620815 748.3291Q52.663597 748.47021 52.692348 748.61475Q52.721107 748.75934 52.73555 748.90601Q52.75 749.05273 52.75 749.20001Z"/>
	</g>
</svg>
