<?xml version="1.0" encoding="utf-8" ?>
<svg xmlns="http://www.w3.org/2000/svg" xmlns:xlink="http://www.w3.org/1999/xlink" width="1200" height="800">
	<rect fill="white" width="1200" height="800"/>
	<path fill="none" stroke="black" stroke-width="1" stroke-miterlimit="10" stroke-opacity="0.10196079" d="M49.5 71.199997L49.5 749"/>
	<path fill="none" stroke="black" stroke-width="1" stroke-miterlimit="10" stroke-opacity="0.10196079" d="M49.5 750L49.5 757.20001"/>
	<path fill="#666" transform="translate(621.875 788.8)" d="M-26.550781 4.1005859L-28.695312 0.67285156L-31.267578 0.67285156L-31.267578 4.1005859L-32.386719 4.1005859L-32.386719 -4.1552734L-28.501953 -4.1552734Q-27.107422 -4.1552734 -26.348633 -3.53125Q-25.589844 -2.9072266 -25.589844 -1.7939453Q-25.589844 -0.87402344 -26.125977 -0.24707031Q-26.662109 0.37988281 -27.605469 0.54394531L-25.261719 4.1005859L-26.550781 4.1005859ZM-26.714844 -1.7822266Q-26.714844 -2.5029297 -27.204102 -2.8808594Q-27.693359 -3.2587891 -28.613281 -3.2587891L-31.267578 -3.2587891L-31.267578 -0.21191406L-28.566406 -0.21191406Q-27.681641 -0.21191406 -27.198242 -0.625Q-26.714844 -1.0380859 -26.714844 -1.7822266ZM-23.087891 1.1533203Q-23.087891 2.2431641 -22.636719 2.8349609Q-22.185547 3.4267578 -21.318359 3.4267578Q-20.632812 3.4267578 -20.219727 3.1513672Q-19.806641 2.8759766 -19.660156 2.4541016L-18.734375 2.7177734Q-19.302734 4.2177734 -21.318359 4.2177734Q-22.724609 4.2177734 -23.459961 3.3798828Q-24.195312 2.5419922 -24.195312 0.88964844Q-24.195312 -0.68066406 -23.459961 -1.5185547Q-22.724609 -2.3564453 -21.359375 -2.3564453Q-18.564453 -2.3564453 -18.564453 1.0126953L-18.564453 1.1533203L-23.087891 1.1533203ZM-19.654297 0.34472656Q-19.742188 -0.65722656 -20.164062 -1.1171875Q-20.585938 -1.5771484 -21.376953 -1.5771484Q-22.144531 -1.5771484 -22.592773 -1.0644531Q-23.041016 -0.55175781 -23.076172 0.34472656L-19.654297 0.34472656ZM-17.222656 4.1005859L-17.222656 -4.5947266L-16.167969 -4.5947266L-16.167969 4.1005859L-17.222656 4.1005859ZM-13.748047 1.1533203Q-13.748047 2.2431641 -13.296875 2.8349609Q-12.845703 3.4267578 -11.978516 3.4267578Q-11.292969 3.4267578 -10.879883 3.1513672Q-10.466797 2.8759766 -10.320312 2.4541016L-9.3945312 2.7177734Q-9.9628906 4.2177734 -11.978516 4.2177734Q-13.384766 4.2177734 -14.120117 3.3798828Q-14.855469 2.5419922 -14.855469 0.88964844Q-14.855469 -0.68066406 -14.120117 -1.5185547Q-13.384766 -2.3564453 -12.019531 -2.3564453Q-9.2246094 -2.3564453 -9.2246094 1.0126953L-9.2246094 1.1533203L-13.748047 1.1533203ZM-10.314453 0.34472656Q-10.402344 -0.65722656 -10.824219 -1.1171875Q-11.246094 -1.5771484 -12.037109 -1.5771484Q-12.804688 -1.5771484 -13.25293 -1.0644531Q-13.701172 -0.55175781 -13.736328 0.34472656L-10.314453 0.34472656ZM-6.265625 4.2177734Q-7.2207031 4.2177734 -7.7011719 3.7138672Q-8.1816406 3.2099609 -8.1816406 2.3310547Q-8.1816406 1.3466797 -7.5341797 0.81933594Q-6.8867188 0.29199219 -5.4453125 0.25683594L-4.0214844 0.23339844L-4.0214844 -0.11230469Q-4.0214844 -0.88574219 -4.3496094 -1.2197266Q-4.6777344 -1.5537109 -5.3808594 -1.5537109Q-6.0898438 -1.5537109 -6.4121094 -1.3134766Q-6.734375 -1.0732422 -6.7988281 -0.54589844L-7.9003906 -0.64550781Q-7.6308594 -2.3564453 -5.3574219 -2.3564453Q-4.1621094 -2.3564453 -3.5585938 -1.8085938Q-2.9550781 -1.2607422 -2.9550781 -0.22363281L-2.9550781 2.5068359Q-2.9550781 2.9755859 -2.8320312 3.2128906Q-2.7089844 3.4501953 -2.3632812 3.4501953Q-2.2109375 3.4501953 -2.0175781 3.4091797L-2.0175781 4.0654297Q-2.4160156 4.1591797 -2.8320312 4.1591797Q-3.4179688 4.1591797 -3.6845703 3.8515625Q-3.9511719 3.5439453 -3.9863281 2.8876953L-4.0214844 2.8876953Q-4.4257812 3.6142578 -4.9619141 3.9160156Q-5.4980469 4.2177734 -6.265625 4.2177734ZM-6.0253906 3.4267578Q-5.4453125 3.4267578 -4.9941406 3.1630859Q-4.5429688 2.8994141 -4.2822266 2.4394531Q-4.0214844 1.9794922 -4.0214844 1.4931641L-4.0214844 0.97167969L-5.1757812 0.99511719Q-5.9199219 1.0068359 -6.3037109 1.1474609Q-6.6875 1.2880859 -6.8925781 1.5810547Q-7.0976562 1.8740234 -7.0976562 2.3486328Q-7.0976562 2.8642578 -6.8193359 3.1455078Q-6.5410156 3.4267578 -6.0253906 3.4267578ZM3.5488281 2.3486328Q3.5488281 3.2451172 2.8720703 3.7314453Q2.1953125 4.2177734 0.9765625 4.2177734Q-0.20703125 4.2177734 -0.84863281 3.828125Q-1.4902344 3.4384766 -1.6835938 2.6123047L-0.75195312 2.4306641Q-0.6171875 2.9404297 -0.1953125 3.1777344Q0.2265625 3.4150391 0.9765625 3.4150391Q1.7792969 3.4150391 2.1513672 3.1689453Q2.5234375 2.9228516 2.5234375 2.4306641Q2.5234375 2.0556641 2.265625 1.8212891Q2.0078125 1.5869141 1.4335938 1.4345703L0.67773438 1.2353516Q-0.23046875 1.0009766 -0.61425781 0.77539062Q-0.99804688 0.54980469 -1.2148438 0.22753906Q-1.4316406 -0.094726562 -1.4316406 -0.56347656Q-1.4316406 -1.4306641 -0.81347656 -1.8847656Q-0.1953125 -2.3388672 0.98828125 -2.3388672Q2.0371094 -2.3388672 2.6552734 -1.9697266Q3.2734375 -1.6005859 3.4375 -0.78613281L2.4882812 -0.66894531Q2.4003906 -1.0908203 2.0166016 -1.3164062Q1.6328125 -1.5419922 0.98828125 -1.5419922Q0.2734375 -1.5419922 -0.06640625 -1.3251953Q-0.40625 -1.1083984 -0.40625 -0.66894531Q-0.40625 -0.39941406 -0.265625 -0.22363281Q-0.125 -0.047851562 0.15039062 0.075195312Q0.42578125 0.19824219 1.3105469 0.41503906Q2.1484375 0.62597656 2.5175781 0.8046875Q2.8867188 0.98339844 3.1005859 1.2001953Q3.3144531 1.4169922 3.4316406 1.7011719Q3.5488281 1.9853516 3.5488281 2.3486328ZM5.5996094 1.1533203Q5.5996094 2.2431641 6.0507812 2.8349609Q6.5019531 3.4267578 7.3691406 3.4267578Q8.0546875 3.4267578 8.4677734 3.1513672Q8.8808594 2.8759766 9.0273438 2.4541016L9.953125 2.7177734Q9.3847656 4.2177734 7.3691406 4.2177734Q5.9628906 4.2177734 5.2275391 3.3798828Q4.4921875 2.5419922 4.4921875 0.88964844Q4.4921875 -0.68066406 5.2275391 -1.5185547Q5.9628906 -2.3564453 7.328125 -2.3564453Q10.123047 -2.3564453 10.123047 1.0126953L10.123047 1.1533203L5.5996094 1.1533203ZM9.0332031 0.34472656Q8.9453125 -0.65722656 8.5234375 -1.1171875Q8.1015625 -1.5771484 7.3105469 -1.5771484Q6.5429688 -1.5771484 6.0947266 -1.0644531Q5.6464844 -0.55175781 5.6113281 0.34472656L9.0332031 0.34472656ZM17.992188 -3.2412109L17.992188 4.1005859L16.878906 4.1005859L16.878906 -3.2412109L14.042969 -3.2412109L14.042969 -4.1552734L20.828125 -4.1552734L20.828125 -3.2412109L17.992188 -3.2412109ZM22.199219 4.2177734Q21.244141 4.2177734 20.763672 3.7138672Q20.283203 3.2099609 20.283203 2.3310547Q20.283203 1.3466797 20.930664 0.81933594Q21.578125 0.29199219 23.019531 0.25683594L24.443359 0.23339844L24.443359 -0.11230469Q24.443359 -0.88574219 24.115234 -1.2197266Q23.787109 -1.5537109 23.083984 -1.5537109Q22.375 -1.5537109 22.052734 -1.3134766Q21.730469 -1.0732422 21.666016 -0.54589844L20.564453 -0.64550781Q20.833984 -2.3564453 23.107422 -2.3564453Q24.302734 -2.3564453 24.90625 -1.8085938Q25.509766 -1.2607422 25.509766 -0.22363281L25.509766 2.5068359Q25.509766 2.9755859 25.632812 3.2128906Q25.755859 3.4501953 26.101562 3.4501953Q26.253906 3.4501953 26.447266 3.4091797L26.447266 4.0654297Q26.048828 4.1591797 25.632812 4.1591797Q25.046875 4.1591797 24.780273 3.8515625Q24.513672 3.5439453 24.478516 2.8876953L24.443359 2.8876953Q24.039062 3.6142578 23.50293 3.9160156Q22.966797 4.2177734 22.199219 4.2177734ZM22.439453 3.4267578Q23.019531 3.4267578 23.470703 3.1630859Q23.921875 2.8994141 24.182617 2.4394531Q24.443359 1.9794922 24.443359 1.4931641L24.443359 0.97167969L23.289062 0.99511719Q22.544922 1.0068359 22.161133 1.1474609Q21.777344 1.2880859 21.572266 1.5810547Q21.367188 1.8740234 21.367188 2.3486328Q21.367188 2.8642578 21.645508 3.1455078Q21.923828 3.4267578 22.439453 3.4267578ZM29.658203 6.5908203Q28.621094 6.5908203 28.005859 6.1835938Q27.390625 5.7763672 27.214844 5.0263672L28.275391 4.8740234Q28.380859 5.3134766 28.741211 5.5507812Q29.101562 5.7880859 29.6875 5.7880859Q31.263672 5.7880859 31.263672 3.9423828L31.263672 2.9228516L31.251953 2.9228516Q30.953125 3.5322266 30.431641 3.8398438Q29.910156 4.1474609 29.212891 4.1474609Q28.046875 4.1474609 27.499023 3.3740234Q26.951172 2.6005859 26.951172 0.94238281Q26.951172 -0.73925781 27.540039 -1.5390625Q28.128906 -2.3388672 29.330078 -2.3388672Q30.003906 -2.3388672 30.499023 -2.03125Q30.994141 -1.7236328 31.263672 -1.1552734L31.275391 -1.1552734Q31.275391 -1.3310547 31.298828 -1.7646484Q31.322266 -2.1982422 31.345703 -2.2392578L32.347656 -2.2392578Q32.3125 -1.9228516 32.3125 -0.92675781L32.3125 3.9189453Q32.3125 6.5908203 29.658203 6.5908203ZM31.263672 0.93066406Q31.263672 0.15722656 31.052734 -0.40234375Q30.841797 -0.96191406 30.458008 -1.2578125Q30.074219 -1.5537109 29.587891 -1.5537109Q28.779297 -1.5537109 28.410156 -0.96777344Q28.041016 -0.38183594 28.041016 0.93066406Q28.041016 2.2314453 28.386719 2.7998047Q28.732422 3.3681641 29.570312 3.3681641Q30.068359 3.3681641 30.455078 3.0751953Q30.841797 2.7822266 31.052734 2.234375Q31.263672 1.6865234 31.263672 0.93066406Z"/>
	<path fill="none" stroke="black" stroke-width="1" stroke-miterlimit="10" stroke-opacity="0.10196079" d="M50 749.5L1194 749.5"/>
	<path fill="none" stroke="black" stroke-width="1" stroke-miterlimit="10" stroke-opacity="0.10196079" d="M41.75 749.5L49 749.5"/>
	<path fill="none" stroke="black" stroke-width="1" stroke-miterlimit="10" stroke-opacity="0.10196079" d="M50 681.5L1194 681.5"/>
	<path fill="none" stroke="black" stroke-width="1" stroke-miterlimit="10" stroke-opacity="0.10196079" d="M41.75 681.5L49 681.5"/>
	<path fill="none" stroke="black" stroke-width="1" stroke-miterlimit="10" stroke-opacity="0.10196079" d="M50 613.5L1194 613.5"/>
	<path fill="none" stroke="black" stroke-width="1" stroke-miterlimit="10" stroke-opacity="0.10196079" d="M41.75 613.5L49 613.5"/>
	<path fill="none" stroke="black" stroke-width="1" stroke-miterlimit="10" stroke-opacity="0.10196079" d="M50 545.5L1194 545.5"/>
	<path fill="none" stroke="black" stroke-width="1" stroke-miterlimit="10" stroke-opacity="0.10196079" d="M41.75 545.5L49 545.5"/>
	<path fill="none" stroke="black" stroke-width="1" stroke-miterlimit="10" stroke-opacity="0.10196079" d="M50 478.5L1194 478.5"/>
	<path fill="none" stroke="black" stroke-width="1" stroke-miterlimit="10" stroke-opacity="0.10196079" d="M41.75 478.5L49 478.5"/>
	<path fill="none" stroke="black" stroke-width="1" stroke-miterlimit="10" stroke-opacity="0.10196079" d="M50 410.5L1194 410.5"/>
	<path fill="none" stroke="black" stroke-width="1" stroke-miterlimit="10" stroke-opacity="0.10196079" d="M41.75 410.5L49 410.5"/>
	<path fill="none" stroke="black" stroke-width="1" stroke-miterlimit="10" stroke-opacity="0.10196079" d="M50 342.5L1194 342.5"/>
	<path fill="none" stroke="black" stroke-width="1" stroke-miterlimit="10" stroke-opacity="0.10196079" d="M41.75 342.5L49 342.5"/>
	<path fill="none" stroke="black" stroke-width="1" stroke-miterlimit="10" stroke-opacity="0.10196079" d="M50 274.5L1194 274.5"/>
	<path fill="none" stroke="black" stroke-width="1" stroke-miterlimit="10" stroke-opacity="0.10196079" d="M41.75 274.5L49 274.5"/>
	<path fill="none" stroke="black" stroke-width="1" stroke-miterlimit="10" stroke-opacity="0.10196079" d="M50 206.5L1194 206.5"/>
	<path fill="none" stroke="black" stroke-width="1" stroke-miterlimit="10" stroke-opacity="0.10196079" d="M41.75 206.5L49 206.5"/>
	<path fill="none" stroke="black" stroke-width="1" stroke-miterlimit="10" stroke-opacity="0.10196079" d="M50 139.5L1194 139.5"/>
	<path fill="none" stroke="black" stroke-width="1" stroke-miterlimit="10" stroke-opacity="0.10196079" d="M41.75 139.5L49 139.5"/>
	<path fill="none" stroke="black" stroke-width="1" stroke-miterlimit="10" stroke-opacity="0.10196079" d="M50 71.5L1194 71.5"/>
	<path fill="none" stroke="black" stroke-width="1" stroke-miterlimit="10" stroke-opacity="0.10196079" d="M41.75 71.5L49 71.5"/>
	<path fill="#666" transform="matrix(0 -1 1 0 11.2 410.2)" d="M-21.591797 -0.11230469Q-21.591797 1.1650391 -22.089844 2.1230469Q-22.587891 3.0810547 -23.501953 3.5908203Q-24.416016 4.1005859 -25.611328 4.1005859L-28.699219 4.1005859L-28.699219 -4.1552734L-25.96875 -4.1552734Q-23.871094 -4.1552734 -22.731445 -3.1035156Q-21.591797 -2.0517578 -21.591797 -0.11230469ZM-22.716797 -0.11230469Q-22.716797 -1.6474609 -23.557617 -2.453125Q-24.398438 -3.2587891 -25.992188 -3.2587891L-27.580078 -3.2587891L-27.580078 3.2041016L-25.740234 3.2041016Q-24.832031 3.2041016 -24.143555 2.8056641Q-23.455078 2.4072266 -23.085938 1.6572266Q-22.716797 0.90722656 -22.716797 -0.11230469ZM-14.847656 0.92480469Q-14.847656 2.5888672 -15.580078 3.4033203Q-16.3125 4.2177734 -17.707031 4.2177734Q-19.095703 4.2177734 -19.804688 3.3710938Q-20.513672 2.5244141 -20.513672 0.92480469Q-20.513672 -2.3564453 -17.671875 -2.3564453Q-16.21875 -2.3564453 -15.533203 -1.5566406Q-14.847656 -0.75683594 -14.847656 0.92480469ZM-15.955078 0.92480469Q-15.955078 -0.38769531 -16.344727 -0.98242188Q-16.734375 -1.5771484 -17.654297 -1.5771484Q-18.580078 -1.5771484 -18.993164 -0.97070312Q-19.40625 -0.36425781 -19.40625 0.92480469Q-19.40625 2.1787109 -18.999023 2.8085938Q-18.591797 3.4384766 -17.71875 3.4384766Q-16.769531 3.4384766 -16.362305 2.8291016Q-15.955078 2.2197266 -15.955078 0.92480469ZM-7.4648438 4.1005859L-8.6894531 4.1005859L-9.796875 -0.38183594L-10.007812 -1.3720703Q-10.060547 -1.1083984 -10.171875 -0.61328125Q-10.283203 -0.11816406 -11.367188 4.1005859L-12.585938 4.1005859L-14.361328 -2.2392578L-13.318359 -2.2392578L-12.246094 2.0673828Q-12.205078 2.2080078 -11.994141 3.2275391L-11.894531 2.7939453L-10.570312 -2.2392578L-9.4394531 -2.2392578L-8.3320312 2.1142578L-8.0625 3.2275391L-7.8808594 2.4130859L-6.6796875 -2.2392578L-5.6484375 -2.2392578L-7.4648438 4.1005859ZM-0.84375 4.1005859L-0.84375 0.081054688Q-0.84375 -0.54589844 -0.96679688 -0.89160156Q-1.0898438 -1.2373047 -1.359375 -1.3896484Q-1.6289062 -1.5419922 -2.1503906 -1.5419922Q-2.9121094 -1.5419922 -3.3515625 -1.0205078Q-3.7910156 -0.49902344 -3.7910156 0.42675781L-3.7910156 4.1005859L-4.8457031 4.1005859L-4.8457031 -0.88574219Q-4.8457031 -1.9931641 -4.8808594 -2.2392578L-3.8847656 -2.2392578Q-3.8789062 -2.2099609 -3.8730469 -2.0810547Q-3.8671875 -1.9521484 -3.8583984 -1.7851562Q-3.8496094 -1.6181641 -3.8378906 -1.1552734L-3.8203125 -1.1552734Q-3.4570312 -1.8115234 -2.9794922 -2.0839844Q-2.5019531 -2.3564453 -1.7929688 -2.3564453Q-0.75 -2.3564453 -0.26660156 -1.8378906Q0.21679688 -1.3193359 0.21679688 -0.12402344L0.21679688 4.1005859L-0.84375 4.1005859ZM1.8046875 4.1005859L1.8046875 -4.5947266L2.859375 -4.5947266L2.859375 4.1005859L1.8046875 4.1005859ZM9.8320312 0.92480469Q9.8320312 2.5888672 9.0996094 3.4033203Q8.3671875 4.2177734 6.9726562 4.2177734Q5.5839844 4.2177734 4.875 3.3710938Q4.1660156 2.5244141 4.1660156 0.92480469Q4.1660156 -2.3564453 7.0078125 -2.3564453Q8.4609375 -2.3564453 9.1464844 -1.5566406Q9.8320312 -0.75683594 9.8320312 0.92480469ZM8.7246094 0.92480469Q8.7246094 -0.38769531 8.3349609 -0.98242188Q7.9453125 -1.5771484 7.0253906 -1.5771484Q6.0996094 -1.5771484 5.6865234 -0.97070312Q5.2734375 -0.36425781 5.2734375 0.92480469Q5.2734375 2.1787109 5.6806641 2.8085938Q6.0878906 3.4384766 6.9609375 3.4384766Q7.9101562 3.4384766 8.3173828 2.8291016Q8.7246094 2.2197266 8.7246094 0.92480469ZM12.761719 4.2177734Q11.806641 4.2177734 11.326172 3.7138672Q10.845703 3.2099609 10.845703 2.3310547Q10.845703 1.3466797 11.493164 0.81933594Q12.140625 0.29199219 13.582031 0.25683594L15.005859 0.23339844L15.005859 -0.11230469Q15.005859 -0.88574219 14.677734 -1.2197266Q14.349609 -1.5537109 13.646484 -1.5537109Q12.9375 -1.5537109 12.615234 -1.3134766Q12.292969 -1.0732422 12.228516 -0.54589844L11.126953 -0.64550781Q11.396484 -2.3564453 13.669922 -2.3564453Q14.865234 -2.3564453 15.46875 -1.8085938Q16.072266 -1.2607422 16.072266 -0.22363281L16.072266 2.5068359Q16.072266 2.9755859 16.195312 3.2128906Q16.318359 3.4501953 16.664062 3.4501953Q16.816406 3.4501953 17.009766 3.4091797L17.009766 4.0654297Q16.611328 4.1591797 16.195312 4.1591797Q15.609375 4.1591797 15.342773 3.8515625Q15.076172 3.5439453 15.041016 2.8876953L15.005859 2.8876953Q14.601562 3.6142578 14.06543 3.9160156Q13.529297 4.2177734 12.761719 4.2177734ZM13.001953 3.4267578Q13.582031 3.4267578 14.033203 3.1630859Q14.484375 2.8994141 14.745117 2.4394531Q15.005859 1.9794922 15.005859 1.4931641L15.005859 0.97167969L13.851562 0.99511719Q13.107422 1.0068359 12.723633 1.1474609Q12.339844 1.2880859 12.134766 1.5810547Q11.929688 1.8740234 11.929688 2.3486328Q11.929688 2.8642578 12.208008 3.1455078Q12.486328 3.4267578 13.001953 3.4267578ZM21.820312 3.0810547Q21.527344 3.6904297 21.043945 3.9541016Q20.560547 4.2177734 19.845703 4.2177734Q18.644531 4.2177734 18.079102 3.4091797Q17.513672 2.6005859 17.513672 0.95996094Q17.513672 -2.3564453 19.845703 -2.3564453Q20.566406 -2.3564453 21.046875 -2.0927734Q21.527344 -1.8291016 21.820312 -1.2548828L21.832031 -1.2548828L21.820312 -1.9638672L21.820312 -4.5947266L22.875 -4.5947266L22.875 2.7939453Q22.875 3.7841797 22.910156 4.1005859L21.902344 4.1005859Q21.884766 4.0068359 21.864258 3.6669922Q21.84375 3.3271484 21.84375 3.0810547L21.820312 3.0810547ZM18.621094 0.92480469Q18.621094 2.2548828 18.972656 2.8291016Q19.324219 3.4033203 20.115234 3.4033203Q21.011719 3.4033203 21.416016 2.7822266Q21.820312 2.1611328 21.820312 0.85449219Q21.820312 -0.40527344 21.416016 -0.99121094Q21.011719 -1.5771484 20.126953 -1.5771484Q19.330078 -1.5771484 18.975586 -0.98828125Q18.621094 -0.39941406 18.621094 0.92480469ZM29.25 2.3486328Q29.25 3.2451172 28.573242 3.7314453Q27.896484 4.2177734 26.677734 4.2177734Q25.494141 4.2177734 24.852539 3.828125Q24.210938 3.4384766 24.017578 2.6123047L24.949219 2.4306641Q25.083984 2.9404297 25.505859 3.1777344Q25.927734 3.4150391 26.677734 3.4150391Q27.480469 3.4150391 27.852539 3.1689453Q28.224609 2.9228516 28.224609 2.4306641Q28.224609 2.0556641 27.966797 1.8212891Q27.708984 1.5869141 27.134766 1.4345703L26.378906 1.2353516Q25.470703 1.0009766 25.086914 0.77539062Q24.703125 0.54980469 24.486328 0.22753906Q24.269531 -0.094726562 24.269531 -0.56347656Q24.269531 -1.4306641 24.887695 -1.8847656Q25.505859 -2.3388672 26.689453 -2.3388672Q27.738281 -2.3388672 28.356445 -1.9697266Q28.974609 -1.6005859 29.138672 -0.78613281L28.189453 -0.66894531Q28.101562 -1.0908203 27.717773 -1.3164062Q27.333984 -1.5419922 26.689453 -1.5419922Q25.974609 -1.5419922 25.634766 -1.3251953Q25.294922 -1.1083984 25.294922 -0.66894531Q25.294922 -0.39941406 25.435547 -0.22363281Q25.576172 -0.047851562 25.851562 0.075195312Q26.126953 0.19824219 27.011719 0.41503906Q27.849609 0.62597656 28.21875 0.8046875Q28.587891 0.98339844 28.801758 1.2001953Q29.015625 1.4169922 29.132812 1.7011719Q29.25 1.9853516 29.25 2.3486328Z"/>
	<clipPath id="cl_409">
		<rect y="39.200001" width="1200" height="31.999996"/>
	</clipPath>
	<g clip-path="url(#cl_409)">
		<path fill="#C32222" fill-opacity="0.2" d="M569.33002 49.200001L609.33002 49.200001L609.33002 61.200001L569.33002 61.200001L569.33002 49.200001Z"/>
		<path fill="none" stroke="#C32222" stroke-width="2" stroke-miterlimit="10" d="M569.33002 49.200001L609.33002 49.200001L609.33002 61.200001L569.33002 61.200001L569.33002 49.200001Z"/>
	</g>
	<clipPath id="cl_40a">
		<rect y="39.200001" width="1200" height="31.999996"/>
	</clipPath>
	<g clip-path="url(#cl_40a)">
		<path fill="#666" d="M615.81635 59.300587L615.81635 58.497852L619.36127 53.775196L616.01556 53.775196L616.01556 52.960743L620.60931 52.960743L620.60931 53.763477L617.05853 58.486134L620.73236 58.486134L620.73236 59.300587L615.81635 59.300587ZM622.13275 51.613087L622.13275 50.605274L623.18744 50.605274L623.18744 51.613087L622.13275 51.613087ZM622.13275 59.300587L622.13275 52.960743L623.18744 52.960743L623.18744 59.300587L622.13275 59.300587ZM630.16595 56.101368Q630.16595 59.417774 627.83392 59.417774Q626.36908 59.417774 625.86517 58.316212L625.83588 58.316212Q625.85931 58.363087 625.85931 59.312305L625.85931 61.790821L624.80463 61.790821L624.80463 54.255665Q624.80463 53.277149 624.76947 52.960743L625.789 52.960743Q625.79486 52.98418 625.80658 53.127735Q625.8183 53.27129 625.83295 53.570118Q625.8476 53.868946 625.8476 53.980274L625.87103 53.980274Q626.15228 53.394337 626.61517 53.121876Q627.07806 52.849415 627.83392 52.849415Q629.0058 52.849415 629.58588 53.634571Q630.16595 54.419727 630.16595 56.101368ZM629.05853 56.124805Q629.05853 54.800587 628.70111 54.232227Q628.34369 53.663868 627.56439 53.663868Q626.93744 53.663868 626.58295 53.92754Q626.22845 54.191212 626.04388 54.750782Q625.85931 55.310352 625.85931 56.206837Q625.85931 57.454884 626.25775 58.04668Q626.65619 58.638477 627.55267 58.638477Q628.33783 58.638477 628.69818 58.061329Q629.05853 57.48418 629.05853 56.124805Z"/>
	</g>
	<path fill="#666" transform="translate(600 19.6)" d="M-315.19141 3.3320312Q-315.19141 4.5585938 -316.19531 5.2578125Q-317.19922 5.9570312 -318.97266 5.9570312Q-320.71484 5.9570312 -321.64062 5.40625Q-322.56641 4.8554688 -322.87109 3.6914062L-320.94141 3.4023438Q-320.77734 4.0039062 -320.375 4.2539062Q-319.97266 4.5039062 -318.97266 4.5039062Q-318.05078 4.5039062 -317.62891 4.2695312Q-317.20703 4.0351562 -317.20703 3.5351562Q-317.20703 3.1289062 -317.54688 2.890625Q-317.88672 2.6523438 -318.69922 2.4882812Q-320.55859 2.1210938 -321.20703 1.8046875Q-321.85547 1.4882812 -322.19531 0.984375Q-322.53516 0.48046875 -322.53516 -0.25390625Q-322.53516 -1.4648438 -321.60156 -2.140625Q-320.66797 -2.8164062 -318.95703 -2.8164062Q-317.44922 -2.8164062 -316.53125 -2.2304688Q-315.61328 -1.6445312 -315.38672 -0.53515625L-317.33203 -0.33203125Q-317.42578 -0.84765625 -317.79297 -1.1015625Q-318.16016 -1.3554688 -318.95703 -1.3554688Q-319.73828 -1.3554688 -320.12891 -1.15625Q-320.51953 -0.95703125 -320.51953 -0.48828125Q-320.51953 -0.12109375 -320.21875 0.09375Q-319.91797 0.30859375 -319.20703 0.44921875Q-318.21484 0.65234375 -317.44531 0.8671875Q-316.67578 1.0820312 -316.21094 1.3789062Q-315.74609 1.6757812 -315.46875 2.140625Q-315.19141 2.6054688 -315.19141 3.3320312ZM-311.46484 5.9570312Q-312.69141 5.9570312 -313.37891 5.2890625Q-314.06641 4.6210938 -314.06641 3.4101562Q-314.06641 2.0976562 -313.21094 1.4101562Q-312.35547 0.72265625 -310.73047 0.70703125L-308.91016 0.67578125L-308.91016 0.24609375Q-308.91016 -0.58203125 -309.19922 -0.984375Q-309.48828 -1.3867188 -310.14453 -1.3867188Q-310.75391 -1.3867188 -311.03906 -1.109375Q-311.32422 -0.83203125 -311.39453 -0.19140625L-313.68359 -0.30078125Q-313.47266 -1.5351562 -312.55469 -2.171875Q-311.63672 -2.8085938 -310.05078 -2.8085938Q-308.44922 -2.8085938 -307.58203 -2.0195312Q-306.71484 -1.2304688 -306.71484 0.22265625L-306.71484 3.3007812Q-306.71484 4.0117188 -306.55469 4.28125Q-306.39453 4.5507812 -306.01953 4.5507812Q-305.76953 4.5507812 -305.53516 4.5039062L-305.53516 5.6914062Q-305.73047 5.7382812 -305.88672 5.7773438Q-306.04297 5.8164062 -306.19922 5.8398438Q-306.35547 5.8632812 -306.53125 5.8789062Q-306.70703 5.8945312 -306.94141 5.8945312Q-307.76953 5.8945312 -308.16406 5.4882812Q-308.55859 5.0820312 -308.63672 4.2929688L-308.68359 4.2929688Q-309.60547 5.9570312 -311.46484 5.9570312ZM-308.91016 1.8867188L-310.03516 1.9023438Q-310.80078 1.9335938 -311.12109 2.0703125Q-311.44141 2.2070312 -311.60938 2.4882812Q-311.77734 2.7695312 -311.77734 3.2382812Q-311.77734 3.8398438 -311.5 4.1328125Q-311.22266 4.4257812 -310.76172 4.4257812Q-310.24609 4.4257812 -309.82031 4.1445312Q-309.39453 3.8632812 -309.15234 3.3671875Q-308.91016 2.8710938 -308.91016 2.3164062L-308.91016 1.8867188ZM-304.51953 -4.1757812L-304.51953 -5.7929688L-302.32422 -5.7929688L-302.32422 -4.1757812L-304.51953 -4.1757812ZM-304.51953 5.8007812L-304.51953 -2.6523438L-302.32422 -2.6523438L-302.32422 5.8007812L-304.51953 5.8007812ZM-300.07422 5.8007812L-300.07422 -5.7929688L-297.87891 -5.7929688L-297.87891 5.8007812L-300.07422 5.8007812ZM-287.62891 1.5351562Q-287.62891 3.6523438 -288.47656 4.8046875Q-289.32422 5.9570312 -290.87109 5.9570312Q-291.76172 5.9570312 -292.42188 5.5703125Q-293.08203 5.1835938 -293.43359 4.4570312L-293.48047 4.4570312Q-293.43359 4.6914062 -293.43359 5.8789062L-293.43359 9.1210938L-295.62891 9.1210938L-295.62891 -0.70703125Q-295.62891 -1.9023438 -295.69141 -2.6523438L-293.55859 -2.6523438Q-293.51953 -2.5117188 -293.49219 -2.0976562Q-293.46484 -1.6835938 -293.46484 -1.2773438L-293.43359 -1.2773438Q-292.69141 -2.8320312 -290.73047 -2.8320312Q-289.25391 -2.8320312 -288.44141 -1.6953125Q-287.62891 -0.55859375 -287.62891 1.5351562ZM-289.91797 1.5351562Q-289.91797 -1.3085938 -291.66016 -1.3085938Q-292.53516 -1.3085938 -293 -0.54296875Q-293.46484 0.22265625 -293.46484 1.5976562Q-293.46484 2.9648438 -293 3.7109375Q-292.53516 4.4570312 -291.67578 4.4570312Q-289.91797 4.4570312 -289.91797 1.5351562ZM-277.82422 1.5664062Q-277.82422 3.6210938 -278.96484 4.7890625Q-280.10547 5.9570312 -282.12109 5.9570312Q-284.09766 5.9570312 -285.22266 4.7851562Q-286.34766 3.6132812 -286.34766 1.5664062Q-286.34766 -0.47265625 -285.22266 -1.640625Q-284.09766 -2.8085938 -282.07422 -2.8085938Q-280.00391 -2.8085938 -278.91406 -1.6796875Q-277.82422 -0.55078125 -277.82422 1.5664062ZM-280.12109 1.5664062Q-280.12109 0.05859375 -280.61328 -0.62109375Q-281.10547 -1.3007812 -282.04297 -1.3007812Q-284.04297 -1.3007812 -284.04297 1.5664062Q-284.04297 2.9804688 -283.55469 3.71875Q-283.06641 4.4570312 -282.14453 4.4570312Q-280.12109 4.4570312 -280.12109 1.5664062ZM-276.08203 -4.1757812L-276.08203 -5.7929688L-273.88672 -5.7929688L-273.88672 -4.1757812L-276.08203 -4.1757812ZM-276.08203 5.8007812L-276.08203 -2.6523438L-273.88672 -2.6523438L-273.88672 5.8007812L-276.08203 5.8007812ZM-266.16016 5.8007812L-266.16016 1.0585938Q-266.16016 -1.1679688 -267.66797 -1.1679688Q-268.46484 -1.1679688 -268.95312 -0.484375Q-269.44141 0.19921875 -269.44141 1.2695312L-269.44141 5.8007812L-271.63672 5.8007812L-271.63672 -0.76171875Q-271.63672 -1.4414062 -271.65625 -1.875Q-271.67578 -2.3085938 -271.69922 -2.6523438L-269.60547 -2.6523438Q-269.58203 -2.5039062 -269.54297 -1.859375Q-269.50391 -1.2148438 -269.50391 -0.97265625L-269.47266 -0.97265625Q-269.02734 -1.9414062 -268.35547 -2.3789062Q-267.68359 -2.8164062 -266.75391 -2.8164062Q-265.41016 -2.8164062 -264.69141 -1.9882812Q-263.97266 -1.1601562 -263.97266 0.43359375L-263.97266 5.8007812L-266.16016 5.8007812ZM-259.69922 5.9414062Q-260.66797 5.9414062 -261.19141 5.4140625Q-261.71484 4.8867188 -261.71484 3.8164062L-261.71484 -1.1679688L-262.78516 -1.1679688L-262.78516 -2.6523438L-261.60547 -2.6523438L-260.91797 -4.6367188L-259.54297 -4.6367188L-259.54297 -2.6523438L-257.94141 -2.6523438L-257.94141 -1.1679688L-259.54297 -1.1679688L-259.54297 3.2226562Q-259.54297 3.8398438 -259.30859 4.1328125Q-259.07422 4.4257812 -258.58203 4.4257812Q-258.32422 4.4257812 -257.84766 4.3164062L-257.84766 5.6757812Q-258.66016 5.9414062 -259.69922 5.9414062ZM-257.02734 2.6054688L-257.02734 0.69921875L-252.96484 0.69921875L-252.96484 2.6054688L-257.02734 2.6054688ZM-243.17578 1.5664062Q-243.17578 3.6210938 -244.31641 4.7890625Q-245.45703 5.9570312 -247.47266 5.9570312Q-249.44922 5.9570312 -250.57422 4.7851562Q-251.69922 3.6132812 -251.69922 1.5664062Q-251.69922 -0.47265625 -250.57422 -1.640625Q-249.44922 -2.8085938 -247.42578 -2.8085938Q-245.35547 -2.8085938 -244.26562 -1.6796875Q-243.17578 -0.55078125 -243.17578 1.5664062ZM-245.47266 1.5664062Q-245.47266 0.05859375 -245.96484 -0.62109375Q-246.45703 -1.3007812 -247.39453 -1.3007812Q-249.39453 -1.3007812 -249.39453 1.5664062Q-249.39453 2.9804688 -248.90625 3.71875Q-248.41797 4.4570312 -247.49609 4.4570312Q-245.47266 4.4570312 -245.47266 1.5664062ZM-234.30859 3.3320312Q-234.30859 4.5585938 -235.3125 5.2578125Q-236.31641 5.9570312 -238.08984 5.9570312Q-239.83203 5.9570312 -240.75781 5.40625Q-241.68359 4.8554688 -241.98828 3.6914062L-240.05859 3.4023438Q-239.89453 4.0039062 -239.49219 4.2539062Q-239.08984 4.5039062 -238.08984 4.5039062Q-237.16797 4.5039062 -236.74609 4.2695312Q-236.32422 4.0351562 -236.32422 3.5351562Q-236.32422 3.1289062 -236.66406 2.890625Q-237.00391 2.6523438 -237.81641 2.4882812Q-239.67578 2.1210938 -240.32422 1.8046875Q-240.97266 1.4882812 -241.3125 0.984375Q-241.65234 0.48046875 -241.65234 -0.25390625Q-241.65234 -1.4648438 -240.71875 -2.140625Q-239.78516 -2.8164062 -238.07422 -2.8164062Q-236.56641 -2.8164062 -235.64844 -2.2304688Q-234.73047 -1.6445312 -234.50391 -0.53515625L-236.44922 -0.33203125Q-236.54297 -0.84765625 -236.91016 -1.1015625Q-237.27734 -1.3554688 -238.07422 -1.3554688Q-238.85547 -1.3554688 -239.24609 -1.15625Q-239.63672 -0.95703125 -239.63672 -0.48828125Q-239.63672 -0.12109375 -239.33594 0.09375Q-239.03516 0.30859375 -238.32422 0.44921875Q-237.33203 0.65234375 -236.5625 0.8671875Q-235.79297 1.0820312 -235.32812 1.3789062Q-234.86328 1.6757812 -234.58594 2.140625Q-234.30859 2.6054688 -234.30859 3.3320312ZM-225.41016 3.3320312Q-225.41016 4.5585938 -226.41406 5.2578125Q-227.41797 5.9570312 -229.19141 5.9570312Q-230.93359 5.9570312 -231.85938 5.40625Q-232.78516 4.8554688 -233.08984 3.6914062L-231.16016 3.4023438Q-230.99609 4.0039062 -230.59375 4.2539062Q-230.19141 4.5039062 -229.19141 4.5039062Q-228.26953 4.5039062 -227.84766 4.2695312Q-227.42578 4.0351562 -227.42578 3.5351562Q-227.42578 3.1289062 -227.76562 2.890625Q-228.10547 2.6523438 -228.91797 2.4882812Q-230.77734 2.1210938 -231.42578 1.8046875Q-232.07422 1.4882812 -232.41406 0.984375Q-232.75391 0.48046875 -232.75391 -0.25390625Q-232.75391 -1.4648438 -231.82031 -2.140625Q-230.88672 -2.8164062 -229.17578 -2.8164062Q-227.66797 -2.8164062 -226.75 -2.2304688Q-225.83203 -1.6445312 -225.60547 -0.53515625L-227.55078 -0.33203125Q-227.64453 -0.84765625 -228.01172 -1.1015625Q-228.37891 -1.3554688 -229.17578 -1.3554688Q-229.95703 -1.3554688 -230.34766 -1.15625Q-230.73828 -0.95703125 -230.73828 -0.48828125Q-230.73828 -0.12109375 -230.4375 0.09375Q-230.13672 0.30859375 -229.42578 0.44921875Q-228.43359 0.65234375 -227.66406 0.8671875Q-226.89453 1.0820312 -226.42969 1.3789062Q-225.96484 1.6757812 -225.6875 2.140625Q-225.41016 2.6054688 -225.41016 3.3320312ZM-224.59766 6.1210938L-222.32422 -5.7929688L-220.46484 -5.7929688L-222.69922 6.1210938L-224.59766 6.1210938ZM-215.66797 5.9570312Q-217.58984 5.9570312 -218.63672 4.8125Q-219.68359 3.6679688 -219.68359 1.6210938Q-219.68359 -0.47265625 -218.62891 -1.640625Q-217.57422 -2.8085938 -215.63672 -2.8085938Q-214.14453 -2.8085938 -213.16797 -2.0585938Q-212.19141 -1.3085938 -211.94141 0.01171875L-214.15234 0.12109375Q-214.24609 -0.52734375 -214.62109 -0.9140625Q-214.99609 -1.3007812 -215.68359 -1.3007812Q-217.37891 -1.3007812 -217.37891 1.5351562Q-217.37891 4.4570312 -215.65234 4.4570312Q-215.02734 4.4570312 -214.60547 4.0625Q-214.18359 3.6679688 -214.08203 2.8867188L-211.87891 2.9882812Q-211.99609 3.8554688 -212.5 4.5351562Q-213.00391 5.2148438 -213.82422 5.5859375Q-214.64453 5.9570312 -215.66797 5.9570312ZM-202.26172 1.5664062Q-202.26172 3.6210938 -203.40234 4.7890625Q-204.54297 5.9570312 -206.55859 5.9570312Q-208.53516 5.9570312 -209.66016 4.7851562Q-210.78516 3.6132812 -210.78516 1.5664062Q-210.78516 -0.47265625 -209.66016 -1.640625Q-208.53516 -2.8085938 -206.51172 -2.8085938Q-204.44141 -2.8085938 -203.35156 -1.6796875Q-202.26172 -0.55078125 -202.26172 1.5664062ZM-204.55859 1.5664062Q-204.55859 0.05859375 -205.05078 -0.62109375Q-205.54297 -1.3007812 -206.48047 -1.3007812Q-208.48047 -1.3007812 -208.48047 1.5664062Q-208.48047 2.9804688 -207.99219 3.71875Q-207.50391 4.4570312 -206.58203 4.4570312Q-204.55859 4.4570312 -204.55859 1.5664062ZM-200.51953 5.8007812L-200.51953 -5.7929688L-198.32422 -5.7929688L-198.32422 5.8007812L-200.51953 5.8007812ZM-194.12109 5.9570312Q-195.34766 5.9570312 -196.03516 5.2890625Q-196.72266 4.6210938 -196.72266 3.4101562Q-196.72266 2.0976562 -195.86719 1.4101562Q-195.01172 0.72265625 -193.38672 0.70703125L-191.56641 0.67578125L-191.56641 0.24609375Q-191.56641 -0.58203125 -191.85547 -0.984375Q-192.14453 -1.3867188 -192.80078 -1.3867188Q-193.41016 -1.3867188 -193.69531 -1.109375Q-193.98047 -0.83203125 -194.05078 -0.19140625L-196.33984 -0.30078125Q-196.12891 -1.5351562 -195.21094 -2.171875Q-194.29297 -2.8085938 -192.70703 -2.8085938Q-191.10547 -2.8085938 -190.23828 -2.0195312Q-189.37109 -1.2304688 -189.37109 0.22265625L-189.37109 3.3007812Q-189.37109 4.0117188 -189.21094 4.28125Q-189.05078 4.5507812 -188.67578 4.5507812Q-188.42578 4.5507812 -188.19141 4.5039062L-188.19141 5.6914062Q-188.38672 5.7382812 -188.54297 5.7773438Q-188.69922 5.8164062 -188.85547 5.8398438Q-189.01172 5.8632812 -189.1875 5.8789062Q-189.36328 5.8945312 -189.59766 5.8945312Q-190.42578 5.8945312 -190.82031 5.4882812Q-191.21484 5.0820312 -191.29297 4.2929688L-191.33984 4.2929688Q-192.26172 5.9570312 -194.12109 5.9570312ZM-191.56641 1.8867188L-192.69141 1.9023438Q-193.45703 1.9335938 -193.77734 2.0703125Q-194.09766 2.2070312 -194.26562 2.4882812Q-194.43359 2.7695312 -194.43359 3.2382812Q-194.43359 3.8398438 -194.15625 4.1328125Q-193.87891 4.4257812 -193.41797 4.4257812Q-192.90234 4.4257812 -192.47656 4.1445312Q-192.05078 3.8632812 -191.80859 3.3671875Q-191.56641 2.8710938 -191.56641 2.3164062L-191.56641 1.8867188ZM-179.17578 1.5429688Q-179.17578 3.6367188 -180.01562 4.796875Q-180.85547 5.9570312 -182.41797 5.9570312Q-183.31641 5.9570312 -183.97266 5.5664062Q-184.62891 5.1757812 -184.98047 4.4414062L-184.99609 4.4414062Q-184.99609 4.7148438 -185.03125 5.1914062Q-185.06641 5.6679688 -185.10547 5.8007812L-187.23828 5.8007812Q-187.17578 5.0742188 -187.17578 3.8710938L-187.17578 -5.7929688L-184.98047 -5.7929688L-184.98047 -2.5585938L-185.01172 -1.1835938L-184.98047 -1.1835938Q-184.23828 -2.8085938 -182.27734 -2.8085938Q-180.77734 -2.8085938 -179.97656 -1.671875Q-179.17578 -0.53515625 -179.17578 1.5429688ZM-181.46484 1.5429688Q-181.46484 0.10546875 -181.88672 -0.58984375Q-182.30859 -1.2851562 -183.19141 -1.2851562Q-184.08203 -1.2851562 -184.54688 -0.5390625Q-185.01172 0.20703125 -185.01172 1.6132812Q-185.01172 2.9570312 -184.55469 3.7070312Q-184.09766 4.4570312 -183.20703 4.4570312Q-181.46484 4.4570312 -181.46484 1.5429688ZM-177.89453 2.6054688L-177.89453 0.69921875L-173.83203 0.69921875L-173.83203 2.6054688L-177.89453 2.6054688ZM-164.94922 3.3320312Q-164.94922 4.5585938 -165.95312 5.2578125Q-166.95703 5.9570312 -168.73047 5.9570312Q-170.47266 5.9570312 -171.39844 5.40625Q-172.32422 4.8554688 -172.62891 3.6914062L-170.69922 3.4023438Q-170.53516 4.0039062 -170.13281 4.2539062Q-169.73047 4.5039062 -168.73047 4.5039062Q-167.80859 4.5039062 -167.38672 4.2695312Q-166.96484 4.0351562 -166.96484 3.5351562Q-166.96484 3.1289062 -167.30469 2.890625Q-167.64453 2.6523438 -168.45703 2.4882812Q-170.31641 2.1210938 -170.96484 1.8046875Q-171.61328 1.4882812 -171.95312 0.984375Q-172.29297 0.48046875 -172.29297 -0.25390625Q-172.29297 -1.4648438 -171.35938 -2.140625Q-170.42578 -2.8164062 -168.71484 -2.8164062Q-167.20703 -2.8164062 -166.28906 -2.2304688Q-165.37109 -1.6445312 -165.14453 -0.53515625L-167.08984 -0.33203125Q-167.18359 -0.84765625 -167.55078 -1.1015625Q-167.91797 -1.3554688 -168.71484 -1.3554688Q-169.49609 -1.3554688 -169.88672 -1.15625Q-170.27734 -0.95703125 -170.27734 -0.48828125Q-170.27734 -0.12109375 -169.97656 0.09375Q-169.67578 0.30859375 -168.96484 0.44921875Q-167.97266 0.65234375 -167.20312 0.8671875Q-166.43359 1.0820312 -165.96875 1.3789062Q-165.50391 1.6757812 -165.22656 2.140625Q-164.94922 2.6054688 -164.94922 3.3320312ZM-161.22266 5.9570312Q-162.44922 5.9570312 -163.13672 5.2890625Q-163.82422 4.6210938 -163.82422 3.4101562Q-163.82422 2.0976562 -162.96875 1.4101562Q-162.11328 0.72265625 -160.48828 0.70703125L-158.66797 0.67578125L-158.66797 0.24609375Q-158.66797 -0.58203125 -158.95703 -0.984375Q-159.24609 -1.3867188 -159.90234 -1.3867188Q-160.51172 -1.3867188 -160.79688 -1.109375Q-161.08203 -0.83203125 -161.15234 -0.19140625L-163.44141 -0.30078125Q-163.23047 -1.5351562 -162.3125 -2.171875Q-161.39453 -2.8085938 -159.80859 -2.8085938Q-158.20703 -2.8085938 -157.33984 -2.0195312Q-156.47266 -1.2304688 -156.47266 0.22265625L-156.47266 3.3007812Q-156.47266 4.0117188 -156.3125 4.28125Q-156.15234 4.5507812 -155.77734 4.5507812Q-155.52734 4.5507812 -155.29297 4.5039062L-155.29297 5.6914062Q-155.48828 5.7382812 -155.64453 5.7773438Q-155.80078 5.8164062 -155.95703 5.8398438Q-156.11328 5.8632812 -156.28906 5.8789062Q-156.46484 5.8945312 -156.69922 5.8945312Q-157.52734 5.8945312 -157.92188 5.4882812Q-158.31641 5.0820312 -158.39453 4.2929688L-158.44141 4.2929688Q-159.36328 5.9570312 -161.22266 5.9570312ZM-158.66797 1.8867188L-159.79297 1.9023438Q-160.55859 1.9335938 -160.87891 2.0703125Q-161.19922 2.2070312 -161.36719 2.4882812Q-161.53516 2.7695312 -161.53516 3.2382812Q-161.53516 3.8398438 -161.25781 4.1328125Q-160.98047 4.4257812 -160.51953 4.4257812Q-160.00391 4.4257812 -159.57812 4.1445312Q-159.15234 3.8632812 -158.91016 3.3671875Q-158.66797 2.8710938 -158.66797 2.3164062L-158.66797 1.8867188ZM-152.32422 5.9570312Q-153.55078 5.9570312 -154.23828 5.2890625Q-154.92578 4.6210938 -154.92578 3.4101562Q-154.92578 2.0976562 -154.07031 1.4101562Q-153.21484 0.72265625 -151.58984 0.70703125L-149.76953 0.67578125L-149.76953 0.24609375Q-149.76953 -0.58203125 -150.05859 -0.984375Q-150.34766 -1.3867188 -151.00391 -1.3867188Q-151.61328 -1.3867188 -151.89844 -1.109375Q-152.18359 -0.83203125 -152.25391 -0.19140625L-154.54297 -0.30078125Q-154.33203 -1.5351562 -153.41406 -2.171875Q-152.49609 -2.8085938 -150.91016 -2.8085938Q-149.30859 -2.8085938 -148.44141 -2.0195312Q-147.57422 -1.2304688 -147.57422 0.22265625L-147.57422 3.3007812Q-147.57422 4.0117188 -147.41406 4.28125Q-147.25391 4.5507812 -146.87891 4.5507812Q-146.62891 4.5507812 -146.39453 4.5039062L-146.39453 5.6914062Q-146.58984 5.7382812 -146.74609 5.7773438Q-146.90234 5.8164062 -147.05859 5.8398438Q-147.21484 5.8632812 -147.39062 5.8789062Q-147.56641 5.8945312 -147.80078 5.8945312Q-148.62891 5.8945312 -149.02344 5.4882812Q-149.41797 5.0820312 -149.49609 4.2929688L-149.54297 4.2929688Q-150.46484 5.9570312 -152.32422 5.9570312ZM-149.76953 1.8867188L-150.89453 1.9023438Q-151.66016 1.9335938 -151.98047 2.0703125Q-152.30078 2.2070312 -152.46875 2.4882812Q-152.63672 2.7695312 -152.63672 3.2382812Q-152.63672 3.8398438 -152.35938 4.1328125Q-152.08203 4.4257812 -151.62109 4.4257812Q-151.10547 4.4257812 -150.67969 4.1445312Q-150.25391 3.8632812 -150.01172 3.3671875Q-149.76953 2.8710938 -149.76953 2.3164062L-149.76953 1.8867188ZM-138.25391 3.3320312Q-138.25391 4.5585938 -139.25781 5.2578125Q-140.26172 5.9570312 -142.03516 5.9570312Q-143.77734 5.9570312 -144.70312 5.40625Q-145.62891 4.8554688 -145.93359 3.6914062L-144.00391 3.4023438Q-143.83984 4.0039062 -143.4375 4.2539062Q-143.03516 4.5039062 -142.03516 4.5039062Q-141.11328 4.5039062 -140.69141 4.2695312Q-140.26953 4.0351562 -140.26953 3.5351562Q-140.26953 3.1289062 -140.60938 2.890625Q-140.94922 2.6523438 -141.76172 2.4882812Q-143.62109 2.1210938 -144.26953 1.8046875Q-144.91797 1.4882812 -145.25781 0.984375Q-145.59766 0.48046875 -145.59766 -0.25390625Q-145.59766 -1.4648438 -144.66406 -2.140625Q-143.73047 -2.8164062 -142.01953 -2.8164062Q-140.51172 -2.8164062 -139.59375 -2.2304688Q-138.67578 -1.6445312 -138.44922 -0.53515625L-140.39453 -0.33203125Q-140.48828 -0.84765625 -140.85547 -1.1015625Q-141.22266 -1.3554688 -142.01953 -1.3554688Q-142.80078 -1.3554688 -143.19141 -1.15625Q-143.58203 -0.95703125 -143.58203 -0.48828125Q-143.58203 -0.12109375 -143.28125 0.09375Q-142.98047 0.30859375 -142.26953 0.44921875Q-141.27734 0.65234375 -140.50781 0.8671875Q-139.73828 1.0820312 -139.27344 1.3789062Q-138.80859 1.6757812 -138.53125 2.140625Q-138.25391 2.6054688 -138.25391 3.3320312ZM-136.97266 2.6054688L-136.97266 0.69921875L-132.91016 0.69921875L-132.91016 2.6054688L-136.97266 2.6054688ZM-127.62891 5.9570312Q-129.55078 5.9570312 -130.59766 4.8125Q-131.64453 3.6679688 -131.64453 1.6210938Q-131.64453 -0.47265625 -130.58984 -1.640625Q-129.53516 -2.8085938 -127.59766 -2.8085938Q-126.10547 -2.8085938 -125.12891 -2.0585938Q-124.15234 -1.3085938 -123.90234 0.01171875L-126.11328 0.12109375Q-126.20703 -0.52734375 -126.58203 -0.9140625Q-126.95703 -1.3007812 -127.64453 -1.3007812Q-129.33984 -1.3007812 -129.33984 1.5351562Q-129.33984 4.4570312 -127.61328 4.4570312Q-126.98828 4.4570312 -126.56641 4.0625Q-126.14453 3.6679688 -126.04297 2.8867188L-123.83984 2.9882812Q-123.95703 3.8554688 -124.46094 4.5351562Q-124.96484 5.2148438 -125.78516 5.5859375Q-126.60547 5.9570312 -127.62891 5.9570312ZM-114.22266 1.5664062Q-114.22266 3.6210938 -115.36328 4.7890625Q-116.50391 5.9570312 -118.51953 5.9570312Q-120.49609 5.9570312 -121.62109 4.7851562Q-122.74609 3.6132812 -122.74609 1.5664062Q-122.74609 -0.47265625 -121.62109 -1.640625Q-120.49609 -2.8085938 -118.47266 -2.8085938Q-116.40234 -2.8085938 -115.3125 -1.6796875Q-114.22266 -0.55078125 -114.22266 1.5664062ZM-116.51953 1.5664062Q-116.51953 0.05859375 -117.01172 -0.62109375Q-117.50391 -1.3007812 -118.44141 -1.3007812Q-120.44141 -1.3007812 -120.44141 1.5664062Q-120.44141 2.9804688 -119.95312 3.71875Q-119.46484 4.4570312 -118.54297 4.4570312Q-116.51953 4.4570312 -116.51953 1.5664062ZM-107.00391 5.8007812L-107.00391 1.0585938Q-107.00391 -1.1679688 -108.51172 -1.1679688Q-109.30859 -1.1679688 -109.79688 -0.484375Q-110.28516 0.19921875 -110.28516 1.2695312L-110.28516 5.8007812L-112.48047 5.8007812L-112.48047 -0.76171875Q-112.48047 -1.4414062 -112.5 -1.875Q-112.51953 -2.3085938 -112.54297 -2.6523438L-110.44922 -2.6523438Q-110.42578 -2.5039062 -110.38672 -1.859375Q-110.34766 -1.2148438 -110.34766 -0.97265625L-110.31641 -0.97265625Q-109.87109 -1.9414062 -109.19922 -2.3789062Q-108.52734 -2.8164062 -107.59766 -2.8164062Q-106.25391 -2.8164062 -105.53516 -1.9882812Q-104.81641 -1.1601562 -104.81641 0.43359375L-104.81641 5.8007812L-107.00391 5.8007812ZM-97.230469 5.8007812L-97.230469 1.0585938Q-97.230469 -1.1679688 -98.738281 -1.1679688Q-99.535156 -1.1679688 -100.02344 -0.484375Q-100.51172 0.19921875 -100.51172 1.2695312L-100.51172 5.8007812L-102.70703 5.8007812L-102.70703 -0.76171875Q-102.70703 -1.4414062 -102.72656 -1.875Q-102.74609 -2.3085938 -102.76953 -2.6523438L-100.67578 -2.6523438Q-100.65234 -2.5039062 -100.61328 -1.859375Q-100.57422 -1.2148438 -100.57422 -0.97265625L-100.54297 -0.97265625Q-100.09766 -1.9414062 -99.425781 -2.3789062Q-98.753906 -2.8164062 -97.824219 -2.8164062Q-96.480469 -2.8164062 -95.761719 -1.9882812Q-95.042969 -1.1601562 -95.042969 0.43359375L-95.042969 5.8007812L-97.230469 5.8007812ZM-93.425781 2.6054688L-93.425781 0.69921875L-89.363281 0.69921875L-89.363281 2.6054688L-93.425781 2.6054688ZM-87.605469 -4.1757812L-87.605469 -5.7929688L-85.410156 -5.7929688L-85.410156 -4.1757812L-87.605469 -4.1757812ZM-87.605469 5.8007812L-87.605469 -2.6523438L-85.410156 -2.6523438L-85.410156 5.8007812L-87.605469 5.8007812ZM-77.683594 5.8007812Q-77.714844 5.6835938 -77.757812 5.2109375Q-77.800781 4.7382812 -77.800781 4.4257812L-77.832031 4.4257812Q-78.542969 5.9570312 -80.535156 5.9570312Q-82.011719 5.9570312 -82.816406 4.8046875Q-83.621094 3.6523438 -83.621094 1.5820312Q-83.621094 -0.51953125 -82.773438 -1.6640625Q-81.925781 -2.8085938 -80.371094 -2.8085938Q-79.472656 -2.8085938 -78.820312 -2.4335938Q-78.167969 -2.0585938 -77.816406 -1.3164062L-77.800781 -1.3164062L-77.816406 -2.7070312L-77.816406 -5.7929688L-75.621094 -5.7929688L-75.621094 3.9570312Q-75.621094 4.7382812 -75.558594 5.8007812L-77.683594 5.8007812ZM-77.785156 1.5273438Q-77.785156 0.16015625 -78.242188 -0.578125Q-78.699219 -1.3164062 -79.589844 -1.3164062Q-80.472656 -1.3164062 -80.902344 -0.6015625Q-81.332031 0.11328125 -81.332031 1.5820312Q-81.332031 4.4570312 -79.605469 4.4570312Q-78.738281 4.4570312 -78.261719 3.6953125Q-77.785156 2.9335938 -77.785156 1.5273438ZM-69.925781 5.9570312Q-71.832031 5.9570312 -72.855469 4.828125Q-73.878906 3.6992188 -73.878906 1.5351562Q-73.878906 -0.55859375 -72.839844 -1.6835938Q-71.800781 -2.8085938 -69.894531 -2.8085938Q-68.074219 -2.8085938 -67.113281 -1.6015625Q-66.152344 -0.39453125 -66.152344 1.9335938L-66.152344 1.9960938L-71.574219 1.9960938Q-71.574219 3.2304688 -71.117188 3.859375Q-70.660156 4.4882812 -69.816406 4.4882812Q-68.652344 4.4882812 -68.347656 3.4804688L-66.277344 3.6601562Q-67.175781 5.9570312 -69.925781 5.9570312ZM-69.925781 -1.4257812Q-70.699219 -1.4257812 -71.117188 -0.88671875Q-71.535156 -0.34765625 -71.558594 0.62109375L-68.277344 0.62109375Q-68.339844 -0.40234375 -68.769531 -0.9140625Q-69.199219 -1.4257812 -69.925781 -1.4257812ZM-59.011719 5.8007812L-59.011719 1.0585938Q-59.011719 -1.1679688 -60.519531 -1.1679688Q-61.316406 -1.1679688 -61.804688 -0.484375Q-62.292969 0.19921875 -62.292969 1.2695312L-62.292969 5.8007812L-64.488281 5.8007812L-64.488281 -0.76171875Q-64.488281 -1.4414062 -64.507812 -1.875Q-64.527344 -2.3085938 -64.550781 -2.6523438L-62.457031 -2.6523438Q-62.433594 -2.5039062 -62.394531 -1.859375Q-62.355469 -1.2148438 -62.355469 -0.97265625L-62.324219 -0.97265625Q-61.878906 -1.9414062 -61.207031 -2.3789062Q-60.535156 -2.8164062 -59.605469 -2.8164062Q-58.261719 -2.8164062 -57.542969 -1.9882812Q-56.824219 -1.1601562 -56.824219 0.43359375L-56.824219 5.8007812L-59.011719 5.8007812ZM-52.550781 5.9414062Q-53.519531 5.9414062 -54.042969 5.4140625Q-54.566406 4.8867188 -54.566406 3.8164062L-54.566406 -1.1679688L-55.636719 -1.1679688L-55.636719 -2.6523438L-54.457031 -2.6523438L-53.769531 -4.6367188L-52.394531 -4.6367188L-52.394531 -2.6523438L-50.792969 -2.6523438L-50.792969 -1.1679688L-52.394531 -1.1679688L-52.394531 3.2226562Q-52.394531 3.8398438 -52.160156 4.1328125Q-51.925781 4.4257812 -51.433594 4.4257812Q-51.175781 4.4257812 -50.699219 4.3164062L-50.699219 5.6757812Q-51.511719 5.9414062 -52.550781 5.9414062ZM-49.386719 -4.1757812L-49.386719 -5.7929688L-47.191406 -5.7929688L-47.191406 -4.1757812L-49.386719 -4.1757812ZM-49.386719 5.8007812L-49.386719 -2.6523438L-47.191406 -2.6523438L-47.191406 5.8007812L-49.386719 5.8007812ZM-42.777344 5.9414062Q-43.746094 5.9414062 -44.269531 5.4140625Q-44.792969 4.8867188 -44.792969 3.8164062L-44.792969 -1.1679688L-45.863281 -1.1679688L-45.863281 -2.6523438L-44.683594 -2.6523438L-43.996094 -4.6367188L-42.621094 -4.6367188L-42.621094 -2.6523438L-41.019531 -2.6523438L-41.019531 -1.1679688L-42.621094 -1.1679688L-42.621094 3.2226562Q-42.621094 3.8398438 -42.386719 4.1328125Q-42.152344 4.4257812 -41.660156 4.4257812Q-41.402344 4.4257812 -40.925781 4.3164062L-40.925781 5.6757812Q-41.738281 5.9414062 -42.777344 5.9414062ZM-38.519531 9.1210938Q-39.308594 9.1210938 -39.902344 9.0195312L-39.902344 7.4570312Q-39.488281 7.5195312 -39.144531 7.5195312Q-38.675781 7.5195312 -38.367188 7.3710938Q-38.058594 7.2226562 -37.8125 6.8789062Q-37.566406 6.5351562 -37.261719 5.7148438L-40.605469 -2.6523438L-38.285156 -2.6523438L-36.957031 1.3085938Q-36.644531 2.1601562 -36.167969 3.9179688L-35.972656 3.1757812L-35.464844 1.3398438L-34.214844 -2.6523438L-31.917969 -2.6523438L-35.261719 6.2460938Q-35.933594 7.8710938 -36.65625 8.4960938Q-37.378906 9.1210938 -38.519531 9.1210938ZM-25.238281 5.8007812L-25.238281 1.0585938Q-25.238281 -1.1679688 -26.746094 -1.1679688Q-27.542969 -1.1679688 -28.03125 -0.484375Q-28.519531 0.19921875 -28.519531 1.2695312L-28.519531 5.8007812L-30.714844 5.8007812L-30.714844 -0.76171875Q-30.714844 -1.4414062 -30.734375 -1.875Q-30.753906 -2.3085938 -30.777344 -2.6523438L-28.683594 -2.6523438Q-28.660156 -2.5039062 -28.621094 -1.859375Q-28.582031 -1.2148438 -28.582031 -0.97265625L-28.550781 -0.97265625Q-28.105469 -1.9414062 -27.433594 -2.3789062Q-26.761719 -2.8164062 -25.832031 -2.8164062Q-24.488281 -2.8164062 -23.769531 -1.9882812Q-23.050781 -1.1601562 -23.050781 0.43359375L-23.050781 5.8007812L-25.238281 5.8007812ZM-12.910156 1.5664062Q-12.910156 3.6210938 -14.050781 4.7890625Q-15.191406 5.9570312 -17.207031 5.9570312Q-19.183594 5.9570312 -20.308594 4.7851562Q-21.433594 3.6132812 -21.433594 1.5664062Q-21.433594 -0.47265625 -20.308594 -1.640625Q-19.183594 -2.8085938 -17.160156 -2.8085938Q-15.089844 -2.8085938 -14 -1.6796875Q-12.910156 -0.55078125 -12.910156 1.5664062ZM-15.207031 1.5664062Q-15.207031 0.05859375 -15.699219 -0.62109375Q-16.191406 -1.3007812 -17.128906 -1.3007812Q-19.128906 -1.3007812 -19.128906 1.5664062Q-19.128906 2.9804688 -18.640625 3.71875Q-18.152344 4.4570312 -17.230469 4.4570312Q-15.207031 4.4570312 -15.207031 1.5664062ZM-2.0273438 5.8007812L-4.3476562 5.8007812L-5.6914062 0.64453125Q-5.7851562 0.29296875 -6.0585938 -1.0898438L-6.4648438 0.66015625L-7.8242188 5.8007812L-10.144531 5.8007812L-12.332031 -2.6523438L-10.269531 -2.6523438L-8.8789062 3.8085938L-8.7695312 3.2304688L-8.5742188 2.3164062L-7.2460938 -2.6523438L-4.8945312 -2.6523438L-3.5976562 2.3164062Q-3.4882812 2.7226562 -3.2773438 3.8085938L-3.0585938 2.7773438L-1.8398438 -2.6523438L0.19140625 -2.6523438L-2.0273438 5.8007812ZM0.78515625 2.6054688L0.78515625 0.69921875L4.8476562 0.69921875L4.8476562 2.6054688L0.78515625 2.6054688ZM11.582031 5.8007812L11.582031 1.0585938Q11.582031 -1.1679688 10.300781 -1.1679688Q9.6367188 -1.1679688 9.21875 -0.48828125Q8.8007812 0.19140625 8.8007812 1.2695312L8.8007812 5.8007812L6.6054688 5.8007812L6.6054688 -0.76171875Q6.6054688 -1.4414062 6.5859375 -1.875Q6.5664062 -2.3085938 6.5429688 -2.6523438L8.6367188 -2.6523438Q8.6601562 -2.5039062 8.6992188 -1.859375Q8.7382812 -1.2148438 8.7382812 -0.97265625L8.7695312 -0.97265625Q9.1757812 -1.9414062 9.78125 -2.3789062Q10.386719 -2.8164062 11.230469 -2.8164062Q13.167969 -2.8164062 13.582031 -0.97265625L13.628906 -0.97265625Q14.058594 -1.9570312 14.660156 -2.3867188Q15.261719 -2.8164062 16.191406 -2.8164062Q17.425781 -2.8164062 18.074219 -1.9765625Q18.722656 -1.1367188 18.722656 0.43359375L18.722656 5.8007812L16.542969 5.8007812L16.542969 1.0585938Q16.542969 -1.1679688 15.261719 -1.1679688Q14.621094 -1.1679688 14.210938 -0.546875Q13.800781 0.07421875 13.761719 1.1679688L13.761719 5.8007812L11.582031 5.8007812ZM22.785156 5.9570312Q21.558594 5.9570312 20.871094 5.2890625Q20.183594 4.6210938 20.183594 3.4101562Q20.183594 2.0976562 21.039062 1.4101562Q21.894531 0.72265625 23.519531 0.70703125L25.339844 0.67578125L25.339844 0.24609375Q25.339844 -0.58203125 25.050781 -0.984375Q24.761719 -1.3867188 24.105469 -1.3867188Q23.496094 -1.3867188 23.210938 -1.109375Q22.925781 -0.83203125 22.855469 -0.19140625L20.566406 -0.30078125Q20.777344 -1.5351562 21.695312 -2.171875Q22.613281 -2.8085938 24.199219 -2.8085938Q25.800781 -2.8085938 26.667969 -2.0195312Q27.535156 -1.2304688 27.535156 0.22265625L27.535156 3.3007812Q27.535156 4.0117188 27.695312 4.28125Q27.855469 4.5507812 28.230469 4.5507812Q28.480469 4.5507812 28.714844 4.5039062L28.714844 5.6914062Q28.519531 5.7382812 28.363281 5.7773438Q28.207031 5.8164062 28.050781 5.8398438Q27.894531 5.8632812 27.71875 5.8789062Q27.542969 5.8945312 27.308594 5.8945312Q26.480469 5.8945312 26.085938 5.4882812Q25.691406 5.0820312 25.613281 4.2929688L25.566406 4.2929688Q24.644531 5.9570312 22.785156 5.9570312ZM25.339844 1.8867188L24.214844 1.9023438Q23.449219 1.9335938 23.128906 2.0703125Q22.808594 2.2070312 22.640625 2.4882812Q22.472656 2.7695312 22.472656 3.2382812Q22.472656 3.8398438 22.75 4.1328125Q23.027344 4.4257812 23.488281 4.4257812Q24.003906 4.4257812 24.429688 4.1445312Q24.855469 3.8632812 25.097656 3.3671875Q25.339844 2.8710938 25.339844 2.3164062L25.339844 1.8867188ZM35.207031 5.8007812L35.207031 1.0585938Q35.207031 -1.1679688 33.699219 -1.1679688Q32.902344 -1.1679688 32.414062 -0.484375Q31.925781 0.19921875 31.925781 1.2695312L31.925781 5.8007812L29.730469 5.8007812L29.730469 -0.76171875Q29.730469 -1.4414062 29.710938 -1.875Q29.691406 -2.3085938 29.667969 -2.6523438L31.761719 -2.6523438Q31.785156 -2.5039062 31.824219 -1.859375Q31.863281 -1.2148438 31.863281 -0.97265625L31.894531 -0.97265625Q32.339844 -1.9414062 33.011719 -2.3789062Q33.683594 -2.8164062 34.613281 -2.8164062Q35.957031 -2.8164062 36.675781 -1.9882812Q37.394531 -1.1601562 37.394531 0.43359375L37.394531 5.8007812L35.207031 5.8007812ZM41.457031 5.9570312Q40.230469 5.9570312 39.542969 5.2890625Q38.855469 4.6210938 38.855469 3.4101562Q38.855469 2.0976562 39.710938 1.4101562Q40.566406 0.72265625 42.191406 0.70703125L44.011719 0.67578125L44.011719 0.24609375Q44.011719 -0.58203125 43.722656 -0.984375Q43.433594 -1.3867188 42.777344 -1.3867188Q42.167969 -1.3867188 41.882812 -1.109375Q41.597656 -0.83203125 41.527344 -0.19140625L39.238281 -0.30078125Q39.449219 -1.5351562 40.367188 -2.171875Q41.285156 -2.8085938 42.871094 -2.8085938Q44.472656 -2.8085938 45.339844 -2.0195312Q46.207031 -1.2304688 46.207031 0.22265625L46.207031 3.3007812Q46.207031 4.0117188 46.367188 4.28125Q46.527344 4.5507812 46.902344 4.5507812Q47.152344 4.5507812 47.386719 4.5039062L47.386719 5.6914062Q47.191406 5.7382812 47.035156 5.7773438Q46.878906 5.8164062 46.722656 5.8398438Q46.566406 5.8632812 46.390625 5.8789062Q46.214844 5.8945312 45.980469 5.8945312Q45.152344 5.8945312 44.757812 5.4882812Q44.363281 5.0820312 44.285156 4.2929688L44.238281 4.2929688Q43.316406 5.9570312 41.457031 5.9570312ZM44.011719 1.8867188L42.886719 1.9023438Q42.121094 1.9335938 41.800781 2.0703125Q41.480469 2.2070312 41.3125 2.4882812Q41.144531 2.7695312 41.144531 3.2382812Q41.144531 3.8398438 41.421875 4.1328125Q41.699219 4.4257812 42.160156 4.4257812Q42.675781 4.4257812 43.101562 4.1445312Q43.527344 3.8632812 43.769531 3.3671875Q44.011719 2.8710938 44.011719 2.3164062L44.011719 1.8867188ZM51.941406 9.1914062Q50.394531 9.1914062 49.453125 8.6015625Q48.511719 8.0117188 48.292969 6.9179688L50.488281 6.6601562Q50.605469 7.1679688 50.992188 7.4570312Q51.378906 7.7460938 52.003906 7.7460938Q52.917969 7.7460938 53.339844 7.1835938Q53.761719 6.6210938 53.761719 5.5117188L53.761719 5.0664062L53.777344 4.2304688L53.761719 4.2304688Q53.035156 5.7851562 51.042969 5.7851562Q49.566406 5.7851562 48.753906 4.6757812Q47.941406 3.5664062 47.941406 1.5039062Q47.941406 -0.56640625 48.777344 -1.6914062Q49.613281 -2.8164062 51.207031 -2.8164062Q53.050781 -2.8164062 53.761719 -1.2929688L53.800781 -1.2929688Q53.800781 -1.5664062 53.835938 -2.0351562Q53.871094 -2.5039062 53.910156 -2.6523438L55.988281 -2.6523438Q55.941406 -1.8085938 55.941406 -0.69921875L55.941406 5.5429688Q55.941406 7.3476562 54.917969 8.2695312Q53.894531 9.1914062 51.941406 9.1914062ZM53.777344 1.4570312Q53.777344 0.15234375 53.3125 -0.578125Q52.847656 -1.3085938 51.988281 -1.3085938Q50.230469 -1.3085938 50.230469 1.5039062Q50.230469 4.2617188 51.972656 4.2617188Q52.847656 4.2617188 53.3125 3.53125Q53.777344 2.8007812 53.777344 1.4570312ZM61.636719 5.9570312Q59.730469 5.9570312 58.707031 4.828125Q57.683594 3.6992188 57.683594 1.5351562Q57.683594 -0.55859375 58.722656 -1.6835938Q59.761719 -2.8085938 61.667969 -2.8085938Q63.488281 -2.8085938 64.449219 -1.6015625Q65.410156 -0.39453125 65.410156 1.9335938L65.410156 1.9960938L59.988281 1.9960938Q59.988281 3.2304688 60.445312 3.859375Q60.902344 4.4882812 61.746094 4.4882812Q62.910156 4.4882812 63.214844 3.4804688L65.285156 3.6601562Q64.386719 5.9570312 61.636719 5.9570312ZM61.636719 -1.4257812Q60.863281 -1.4257812 60.445312 -0.88671875Q60.027344 -0.34765625 60.003906 0.62109375L63.285156 0.62109375Q63.222656 -0.40234375 62.792969 -0.9140625Q62.363281 -1.4257812 61.636719 -1.4257812ZM72.050781 5.8007812L72.050781 1.0585938Q72.050781 -1.1679688 70.769531 -1.1679688Q70.105469 -1.1679688 69.6875 -0.48828125Q69.269531 0.19140625 69.269531 1.2695312L69.269531 5.8007812L67.074219 5.8007812L67.074219 -0.76171875Q67.074219 -1.4414062 67.054688 -1.875Q67.035156 -2.3085938 67.011719 -2.6523438L69.105469 -2.6523438Q69.128906 -2.5039062 69.167969 -1.859375Q69.207031 -1.2148438 69.207031 -0.97265625L69.238281 -0.97265625Q69.644531 -1.9414062 70.25 -2.3789062Q70.855469 -2.8164062 71.699219 -2.8164062Q73.636719 -2.8164062 74.050781 -0.97265625L74.097656 -0.97265625Q74.527344 -1.9570312 75.128906 -2.3867188Q75.730469 -2.8164062 76.660156 -2.8164062Q77.894531 -2.8164062 78.542969 -1.9765625Q79.191406 -1.1367188 79.191406 0.43359375L79.191406 5.8007812L77.011719 5.8007812L77.011719 1.0585938Q77.011719 -1.1679688 75.730469 -1.1679688Q75.089844 -1.1679688 74.679688 -0.546875Q74.269531 0.07421875 74.230469 1.1679688L74.230469 5.8007812L72.050781 5.8007812ZM84.761719 5.9570312Q82.855469 5.9570312 81.832031 4.828125Q80.808594 3.6992188 80.808594 1.5351562Q80.808594 -0.55859375 81.847656 -1.6835938Q82.886719 -2.8085938 84.792969 -2.8085938Q86.613281 -2.8085938 87.574219 -1.6015625Q88.535156 -0.39453125 88.535156 1.9335938L88.535156 1.9960938L83.113281 1.9960938Q83.113281 3.2304688 83.570312 3.859375Q84.027344 4.4882812 84.871094 4.4882812Q86.035156 4.4882812 86.339844 3.4804688L88.410156 3.6601562Q87.511719 5.9570312 84.761719 5.9570312ZM84.761719 -1.4257812Q83.988281 -1.4257812 83.570312 -0.88671875Q83.152344 -0.34765625 83.128906 0.62109375L86.410156 0.62109375Q86.347656 -0.40234375 85.917969 -0.9140625Q85.488281 -1.4257812 84.761719 -1.4257812ZM95.675781 5.8007812L95.675781 1.0585938Q95.675781 -1.1679688 94.167969 -1.1679688Q93.371094 -1.1679688 92.882812 -0.484375Q92.394531 0.19921875 92.394531 1.2695312L92.394531 5.8007812L90.199219 5.8007812L90.199219 -0.76171875Q90.199219 -1.4414062 90.179688 -1.875Q90.160156 -2.3085938 90.136719 -2.6523438L92.230469 -2.6523438Q92.253906 -2.5039062 92.292969 -1.859375Q92.332031 -1.2148438 92.332031 -0.97265625L92.363281 -0.97265625Q92.808594 -1.9414062 93.480469 -2.3789062Q94.152344 -2.8164062 95.082031 -2.8164062Q96.425781 -2.8164062 97.144531 -1.9882812Q97.863281 -1.1601562 97.863281 0.43359375L97.863281 5.8007812L95.675781 5.8007812ZM102.13672 5.9414062Q101.16797 5.9414062 100.64453 5.4140625Q100.12109 4.8867188 100.12109 3.8164062L100.12109 -1.1679688L99.050781 -1.1679688L99.050781 -2.6523438L100.23047 -2.6523438L100.91797 -4.6367188L102.29297 -4.6367188L102.29297 -2.6523438L103.89453 -2.6523438L103.89453 -1.1679688L102.29297 -1.1679688L102.29297 3.2226562Q102.29297 3.8398438 102.52734 4.1328125Q102.76172 4.4257812 103.25391 4.4257812Q103.51172 4.4257812 103.98828 4.3164062L103.98828 5.6757812Q103.17578 5.9414062 102.13672 5.9414062ZM109.25391 2.6054688L109.25391 0.69921875L113.31641 0.69921875L113.31641 2.6054688L109.25391 2.6054688ZM121.77734 -3.4257812L121.77734 -0.01953125L127.41016 -0.01953125L127.41016 1.7617188L121.77734 1.7617188L121.77734 5.8007812L119.47266 5.8007812L119.47266 -5.2070312L127.58984 -5.2070312L127.58984 -3.4257812L121.77734 -3.4257812ZM139.94922 0.24609375Q139.94922 1.9648438 139.26953 3.2695312Q138.58984 4.5742188 137.32422 5.265625Q136.05859 5.9570312 134.37109 5.9570312Q131.77734 5.9570312 130.30469 4.4296875Q128.83203 2.9023438 128.83203 0.24609375Q128.83203 -2.4023438 130.30078 -3.8867188Q131.76953 -5.3710938 134.38672 -5.3710938Q137.00391 -5.3710938 138.47656 -3.8710938Q139.94922 -2.3710938 139.94922 0.24609375ZM137.59766 0.24609375Q137.59766 -1.5351562 136.75391 -2.546875Q135.91016 -3.5585938 134.38672 -3.5585938Q132.83984 -3.5585938 131.99609 -2.5546875Q131.15234 -1.5507812 131.15234 0.24609375Q131.15234 2.0585938 132.01562 3.1015625Q132.87891 4.1445312 134.37109 4.1445312Q135.91797 4.1445312 136.75781 3.1289062Q137.59766 2.1132812 137.59766 0.24609375ZM149.25391 5.8007812L146.69922 1.6210938L143.99609 1.6210938L143.99609 5.8007812L141.69141 5.8007812L141.69141 -5.2070312L147.19141 -5.2070312Q149.16016 -5.2070312 150.23047 -4.359375Q151.30078 -3.5117188 151.30078 -1.9257812Q151.30078 -0.76953125 150.64453 0.0703125Q149.98828 0.91015625 148.87109 1.1757812L151.84766 5.8007812L149.25391 5.8007812ZM148.98047 -1.8320312Q148.98047 -3.4179688 146.94922 -3.4179688L143.99609 -3.4179688L143.99609 -0.16796875L147.01172 -0.16796875Q147.98047 -0.16796875 148.48047 -0.60546875Q148.98047 -1.0429688 148.98047 -1.8320312ZM162.38672 5.8007812L162.38672 -0.87109375Q162.38672 -1.0976562 162.39062 -1.3242188Q162.39453 -1.5507812 162.46484 -3.2695312Q161.91016 -1.1679688 161.64453 -0.33984375L159.66016 5.8007812L158.01953 5.8007812L156.03516 -0.33984375L155.19922 -3.2695312Q155.29297 -1.4570312 155.29297 -0.87109375L155.29297 5.8007812L153.24609 5.8007812L153.24609 -5.2070312L156.33203 -5.2070312L158.30078 0.94921875L158.47266 1.5429688L158.84766 3.0195312L159.33984 1.2539062L161.36328 -5.2070312L164.43359 -5.2070312L164.43359 5.8007812L162.38672 5.8007812ZM174.35547 5.8007812L173.37891 2.9882812L169.18359 2.9882812L168.20703 5.8007812L165.90234 5.8007812L169.91797 -5.2070312L172.63672 -5.2070312L176.63672 5.8007812L174.35547 5.8007812ZM171.27734 -3.5117188L171.23047 -3.3398438Q171.15234 -3.0585938 171.04297 -2.6992188Q170.93359 -2.3398438 169.69922 1.2539062L172.86328 1.2539062L171.77734 -1.9101562L171.44141 -2.9726562L171.27734 -3.5117188ZM181.91016 -3.4257812L181.91016 5.8007812L179.60547 5.8007812L179.60547 -3.4257812L176.05078 -3.4257812L176.05078 -5.2070312L185.47266 -5.2070312L185.47266 -3.4257812L181.91016 -3.4257812ZM200.97266 0.21484375Q200.97266 1.9179688 200.30469 3.1875Q199.63672 4.4570312 198.41406 5.1289062Q197.19141 5.8007812 195.61328 5.8007812L191.16016 5.8007812L191.16016 -5.2070312L195.14453 -5.2070312Q197.92578 -5.2070312 199.44922 -3.8046875Q200.97266 -2.4023438 200.97266 0.21484375ZM198.65234 0.21484375Q198.65234 -1.5585938 197.73047 -2.4921875Q196.80859 -3.4257812 195.09766 -3.4257812L193.46484 -3.4257812L193.46484 4.0195312L195.41797 4.0195312Q196.90234 4.0195312 197.77734 2.9960938Q198.65234 1.9726562 198.65234 0.21484375ZM210.79297 1.5664062Q210.79297 3.6210938 209.65234 4.7890625Q208.51172 5.9570312 206.49609 5.9570312Q204.51953 5.9570312 203.39453 4.7851562Q202.26953 3.6132812 202.26953 1.5664062Q202.26953 -0.47265625 203.39453 -1.640625Q204.51953 -2.8085938 206.54297 -2.8085938Q208.61328 -2.8085938 209.70312 -1.6796875Q210.79297 -0.55078125 210.79297 1.5664062ZM208.49609 1.5664062Q208.49609 0.05859375 208.00391 -0.62109375Q207.51172 -1.3007812 206.57422 -1.3007812Q204.57422 -1.3007812 204.57422 1.5664062Q204.57422 2.9804688 205.0625 3.71875Q205.55078 4.4570312 206.47266 4.4570312Q208.49609 4.4570312 208.49609 1.5664062ZM221.67578 5.8007812L219.35547 5.8007812L218.01172 0.64453125Q217.91797 0.29296875 217.64453 -1.0898438L217.23828 0.66015625L215.87891 5.8007812L213.55859 5.8007812L211.37109 -2.6523438L213.43359 -2.6523438L214.82422 3.8085938L214.93359 3.2304688L215.12891 2.3164062L216.45703 -2.6523438L218.80859 -2.6523438L220.10547 2.3164062Q220.21484 2.7226562 220.42578 3.8085938L220.64453 2.7773438L221.86328 -2.6523438L223.89453 -2.6523438L221.67578 5.8007812ZM230.45703 5.8007812L230.45703 1.0585938Q230.45703 -1.1679688 228.94922 -1.1679688Q228.15234 -1.1679688 227.66406 -0.484375Q227.17578 0.19921875 227.17578 1.2695312L227.17578 5.8007812L224.98047 5.8007812L224.98047 -0.76171875Q224.98047 -1.4414062 224.96094 -1.875Q224.94141 -2.3085938 224.91797 -2.6523438L227.01172 -2.6523438Q227.03516 -2.5039062 227.07422 -1.859375Q227.11328 -1.2148438 227.11328 -0.97265625L227.14453 -0.97265625Q227.58984 -1.9414062 228.26172 -2.3789062Q228.93359 -2.8164062 229.86328 -2.8164062Q231.20703 -2.8164062 231.92578 -1.9882812Q232.64453 -1.1601562 232.64453 0.43359375L232.64453 5.8007812L230.45703 5.8007812ZM234.75391 5.8007812L234.75391 -5.7929688L236.94922 -5.7929688L236.94922 5.8007812L234.75391 5.8007812ZM247.23047 1.5664062Q247.23047 3.6210938 246.08984 4.7890625Q244.94922 5.9570312 242.93359 5.9570312Q240.95703 5.9570312 239.83203 4.7851562Q238.70703 3.6132812 238.70703 1.5664062Q238.70703 -0.47265625 239.83203 -1.640625Q240.95703 -2.8085938 242.98047 -2.8085938Q245.05078 -2.8085938 246.14062 -1.6796875Q247.23047 -0.55078125 247.23047 1.5664062ZM244.93359 1.5664062Q244.93359 0.05859375 244.44141 -0.62109375Q243.94922 -1.3007812 243.01172 -1.3007812Q241.01172 -1.3007812 241.01172 1.5664062Q241.01172 2.9804688 241.5 3.71875Q241.98828 4.4570312 242.91016 4.4570312Q244.93359 4.4570312 244.93359 1.5664062ZM250.92578 5.9570312Q249.69922 5.9570312 249.01172 5.2890625Q248.32422 4.6210938 248.32422 3.4101562Q248.32422 2.0976562 249.17969 1.4101562Q250.03516 0.72265625 251.66016 0.70703125L253.48047 0.67578125L253.48047 0.24609375Q253.48047 -0.58203125 253.19141 -0.984375Q252.90234 -1.3867188 252.24609 -1.3867188Q251.63672 -1.3867188 251.35156 -1.109375Q251.06641 -0.83203125 250.99609 -0.19140625L248.70703 -0.30078125Q248.91797 -1.5351562 249.83594 -2.171875Q250.75391 -2.8085938 252.33984 -2.8085938Q253.94141 -2.8085938 254.80859 -2.0195312Q255.67578 -1.2304688 255.67578 0.22265625L255.67578 3.3007812Q255.67578 4.0117188 255.83594 4.28125Q255.99609 4.5507812 256.37109 4.5507812Q256.62109 4.5507812 256.85547 4.5039062L256.85547 5.6914062Q256.66016 5.7382812 256.50391 5.7773438Q256.34766 5.8164062 256.19141 5.8398438Q256.03516 5.8632812 255.85938 5.8789062Q255.68359 5.8945312 255.44922 5.8945312Q254.62109 5.8945312 254.22656 5.4882812Q253.83203 5.0820312 253.75391 4.2929688L253.70703 4.2929688Q252.78516 5.9570312 250.92578 5.9570312ZM253.48047 1.8867188L252.35547 1.9023438Q251.58984 1.9335938 251.26953 2.0703125Q250.94922 2.2070312 250.78125 2.4882812Q250.61328 2.7695312 250.61328 3.2382812Q250.61328 3.8398438 250.89062 4.1328125Q251.16797 4.4257812 251.62891 4.4257812Q252.14453 4.4257812 252.57031 4.1445312Q252.99609 3.8632812 253.23828 3.3671875Q253.48047 2.8710938 253.48047 2.3164062L253.48047 1.8867188ZM263.34766 5.8007812Q263.31641 5.6835938 263.27344 5.2109375Q263.23047 4.7382812 263.23047 4.4257812L263.19922 4.4257812Q262.48828 5.9570312 260.49609 5.9570312Q259.01953 5.9570312 258.21484 4.8046875Q257.41016 3.6523438 257.41016 1.5820312Q257.41016 -0.51953125 258.25781 -1.6640625Q259.10547 -2.8085938 260.66016 -2.8085938Q261.55859 -2.8085938 262.21094 -2.4335938Q262.86328 -2.0585938 263.21484 -1.3164062L263.23047 -1.3164062L263.21484 -2.7070312L263.21484 -5.7929688L265.41016 -5.7929688L265.41016 3.9570312Q265.41016 4.7382812 265.47266 5.8007812L263.34766 5.8007812ZM263.24609 1.5273438Q263.24609 0.16015625 262.78906 -0.578125Q262.33203 -1.3164062 261.44141 -1.3164062Q260.55859 -1.3164062 260.12891 -0.6015625Q259.69922 0.11328125 259.69922 1.5820312Q259.69922 4.4570312 261.42578 4.4570312Q262.29297 4.4570312 262.76953 3.6953125Q263.24609 2.9335938 263.24609 1.5273438ZM277.01172 -3.4257812L277.01172 5.8007812L274.70703 5.8007812L274.70703 -3.4257812L271.15234 -3.4257812L271.15234 -5.2070312L280.57422 -5.2070312L280.57422 -3.4257812L277.01172 -3.4257812ZM280.98047 5.8007812L280.98047 -0.66796875Q280.98047 -1.3632812 280.96094 -1.828125Q280.94141 -2.2929688 280.91797 -2.6523438L283.01172 -2.6523438Q283.03516 -2.5117188 283.07422 -1.796875Q283.11328 -1.0820312 283.11328 -0.84765625L283.14453 -0.84765625Q283.46484 -1.7382812 283.71484 -2.1015625Q283.96484 -2.4648438 284.30859 -2.640625Q284.65234 -2.8164062 285.16797 -2.8164062Q285.58984 -2.8164062 285.84766 -2.6992188L285.84766 -0.86328125Q285.31641 -0.98046875 284.91016 -0.98046875Q284.08984 -0.98046875 283.63281 -0.31640625Q283.17578 0.34765625 283.17578 1.6523438L283.17578 5.8007812L280.98047 5.8007812ZM290.66797 5.9570312Q288.76172 5.9570312 287.73828 4.828125Q286.71484 3.6992188 286.71484 1.5351562Q286.71484 -0.55859375 287.75391 -1.6835938Q288.79297 -2.8085938 290.69922 -2.8085938Q292.51953 -2.8085938 293.48047 -1.6015625Q294.44141 -0.39453125 294.44141 1.9335938L294.44141 1.9960938L289.01953 1.9960938Q289.01953 3.2304688 289.47656 3.859375Q289.93359 4.4882812 290.77734 4.4882812Q291.94141 4.4882812 292.24609 3.4804688L294.31641 3.6601562Q293.41797 5.9570312 290.66797 5.9570312ZM290.66797 -1.4257812Q289.89453 -1.4257812 289.47656 -0.88671875Q289.05859 -0.34765625 289.03516 0.62109375L292.31641 0.62109375Q292.25391 -0.40234375 291.82422 -0.9140625Q291.39453 -1.4257812 290.66797 -1.4257812ZM301.58203 5.8007812L301.58203 1.0585938Q301.58203 -1.1679688 300.07422 -1.1679688Q299.27734 -1.1679688 298.78906 -0.484375Q298.30078 0.19921875 298.30078 1.2695312L298.30078 5.8007812L296.10547 5.8007812L296.10547 -0.76171875Q296.10547 -1.4414062 296.08594 -1.875Q296.06641 -2.3085938 296.04297 -2.6523438L298.13672 -2.6523438Q298.16016 -2.5039062 298.19922 -1.859375Q298.23828 -1.2148438 298.23828 -0.97265625L298.26953 -0.97265625Q298.71484 -1.9414062 299.38672 -2.3789062Q300.05859 -2.8164062 300.98828 -2.8164062Q302.33203 -2.8164062 303.05078 -1.9882812Q303.76953 -1.1601562 303.76953 0.43359375L303.76953 5.8007812L301.58203 5.8007812ZM311.35547 5.8007812Q311.32422 5.6835938 311.28125 5.2109375Q311.23828 4.7382812 311.23828 4.4257812L311.20703 4.4257812Q310.49609 5.9570312 308.50391 5.9570312Q307.02734 5.9570312 306.22266 4.8046875Q305.41797 3.6523438 305.41797 1.5820312Q305.41797 -0.51953125 306.26562 -1.6640625Q307.11328 -2.8085938 308.66797 -2.8085938Q309.56641 -2.8085938 310.21875 -2.4335938Q310.87109 -2.0585938 311.22266 -1.3164062L311.23828 -1.3164062L311.22266 -2.7070312L311.22266 -5.7929688L313.41797 -5.7929688L313.41797 3.9570312Q313.41797 4.7382812 313.48047 5.8007812L311.35547 5.8007812ZM311.25391 1.5273438Q311.25391 0.16015625 310.79688 -0.578125Q310.33984 -1.3164062 309.44922 -1.3164062Q308.56641 -1.3164062 308.13672 -0.6015625Q307.70703 0.11328125 307.70703 1.5820312Q307.70703 4.4570312 309.43359 4.4570312Q310.30078 4.4570312 310.77734 3.6953125Q311.25391 2.9335938 311.25391 1.5273438ZM322.77734 3.3320312Q322.77734 4.5585938 321.77344 5.2578125Q320.76953 5.9570312 318.99609 5.9570312Q317.25391 5.9570312 316.32812 5.40625Q315.40234 4.8554688 315.09766 3.6914062L317.02734 3.4023438Q317.19141 4.0039062 317.59375 4.2539062Q317.99609 4.5039062 318.99609 4.5039062Q319.91797 4.5039062 320.33984 4.2695312Q320.76172 4.0351562 320.76172 3.5351562Q320.76172 3.1289062 320.42188 2.890625Q320.08203 2.6523438 319.26953 2.4882812Q317.41016 2.1210938 316.76172 1.8046875Q316.11328 1.4882812 315.77344 0.984375Q315.43359 0.48046875 315.43359 -0.25390625Q315.43359 -1.4648438 316.36719 -2.140625Q317.30078 -2.8164062 319.01172 -2.8164062Q320.51953 -2.8164062 321.4375 -2.2304688Q322.35547 -1.6445312 322.58203 -0.53515625L320.63672 -0.33203125Q320.54297 -0.84765625 320.17578 -1.1015625Q319.80859 -1.3554688 319.01172 -1.3554688Q318.23047 -1.3554688 317.83984 -1.15625Q317.44922 -0.95703125 317.44922 -0.48828125Q317.44922 -0.12109375 317.75 0.09375Q318.05078 0.30859375 318.76172 0.44921875Q319.75391 0.65234375 320.52344 0.8671875Q321.29297 1.0820312 321.75781 1.3789062Q322.22266 1.6757812 322.5 2.140625Q322.77734 2.6054688 322.77734 3.3320312Z"/>
	<path fill="none" stroke="black" stroke-width="1" stroke-miterlimit="10" stroke-opacity="0.10196079" d="M49 749.5L1195 749.5"/>
	<clipPath id="cl_40c">
		<rect y="749.20001" width="1200" height="50.799988"/>
	</clipPath>
	<g clip-path="url(#cl_40c)">
		<path fill="#666" transform="translate(49.75 760.2)" d="M-12.751953 11.300586L-14 11.300586L-16.302734 4.960742L-15.177734 4.960742L-13.783203 9.085742Q-13.707031 9.320117 -13.378906 10.474414L-13.173828 9.788867L-12.945312 9.0974607L-11.503906 4.960742L-10.384766 4.960742L-12.751953 11.300586ZM-9.7402344 11.300586L-9.7402344 10.556445Q-9.4414062 9.8708982 -9.0107422 9.3464842Q-8.5800781 8.8220701 -8.1054688 8.3972654Q-7.6308594 7.9724607 -7.1650391 7.6091795Q-6.6992188 7.2458982 -6.3242188 6.882617Q-5.9492188 6.5193357 -5.7177734 6.1208982Q-5.4863281 5.7224607 -5.4863281 5.2185545Q-5.4863281 4.538867 -5.8847656 4.163867Q-6.2832031 3.788867 -6.9921875 3.788867Q-7.6660156 3.788867 -8.1025391 4.1550779Q-8.5390625 4.5212889 -8.6152344 5.1833982L-9.6933594 5.0837889Q-9.5761719 4.0935545 -8.8525391 3.507617Q-8.1289062 2.9216795 -6.9921875 2.9216795Q-5.7441406 2.9216795 -5.0732422 3.5105467Q-4.4023438 4.0994139 -4.4023438 5.1833982Q-4.4023438 5.663867 -4.6220703 6.1384764Q-4.8417969 6.6130857 -5.2753906 7.0876951Q-5.7089844 7.5623045 -6.9335938 8.5583982Q-7.6074219 9.1091795 -8.0058594 9.5515623Q-8.4042969 9.9939451 -8.5800781 10.404101L-4.2734375 10.404101L-4.2734375 11.300586L-9.7402344 11.300586ZM-2.5742188 11.300586L-2.5742188 10.017383L-1.4316406 10.017383L-1.4316406 11.300586L-2.5742188 11.300586ZM0.578125 11.300586L0.578125 10.404101L2.6816406 10.404101L2.6816406 4.0525389L0.81835938 5.382617L0.81835938 4.3865232L2.7695312 3.0447264L3.7421875 3.0447264L3.7421875 10.404101L5.7519531 10.404101L5.7519531 11.300586L0.578125 11.300586ZM7.4335938 11.300586L7.4335938 10.017383L8.5761719 10.017383L8.5761719 11.300586L7.4335938 11.300586ZM15.742188 3.9001951Q14.476562 5.8337889 13.955078 6.929492Q13.433594 8.0251951 13.172852 9.0916014Q12.912109 10.158008 12.912109 11.300586L11.810547 11.300586Q11.810547 9.7185545 12.481445 7.9695311Q13.152344 6.2205076 14.722656 3.9412107L10.287109 3.9412107L10.287109 3.0447264L15.742188 3.0447264L15.742188 3.9001951Z"/>
	</g>
	<path fill="none" stroke="black" stroke-width="1" stroke-miterlimit="10" stroke-opacity="0.10196079" d="M49.5 71L49.5 750"/>
	<clipPath id="cl_40e">
		<rect width="49.75" height="800"/>
	</clipPath>
	<g clip-path="url(#cl_40e)">
		<path fill="#666" transform="translate(38.75 749.2)" d="M-0.46679688 -0.030273438Q-0.46679688 2.0380859 -1.1962891 3.1279297Q-1.9257812 4.2177734 -3.3496094 4.2177734Q-4.7734375 4.2177734 -5.4882812 3.1337891Q-6.203125 2.0498047 -6.203125 -0.030273438Q-6.203125 -2.1572266 -5.5087891 -3.2177734Q-4.8144531 -4.2783203 -3.3144531 -4.2783203Q-1.8554688 -4.2783203 -1.1611328 -3.2060547Q-0.46679688 -2.1337891 -0.46679688 -0.030273438ZM-1.5390625 -0.030273438Q-1.5390625 -1.8173828 -1.9521484 -2.6201172Q-2.3652344 -3.4228516 -3.3144531 -3.4228516Q-4.2871094 -3.4228516 -4.7119141 -2.6318359Q-5.1367188 -1.8408203 -5.1367188 -0.030273438Q-5.1367188 1.7275391 -4.7060547 2.5419922Q-4.2753906 3.3564453 -3.3378906 3.3564453Q-2.40625 3.3564453 -1.9726562 2.5244141Q-1.5390625 1.6923828 -1.5390625 -0.030273438Z"/>
	</g>
	<clipPath id="cl_40f">
		<rect width="49.75" height="800"/>
	</clipPath>
	<g clip-path="url(#cl_40f)">
		<path fill="#666" transform="translate(38.75 681.4)" d="M-5.7578125 4.1005859L-5.7578125 3.2041016L-3.6542969 3.2041016L-3.6542969 -3.1474609L-5.5175781 -1.8173828L-5.5175781 -2.8134766L-3.5664062 -4.1552734L-2.59375 -4.1552734L-2.59375 3.2041016L-0.58398438 3.2041016L-0.58398438 4.1005859L-5.7578125 4.1005859Z"/>
	</g>
	<clipPath id="cl_410">
		<rect width="49.75" height="800"/>
	</clipPath>
	<g clip-path="url(#cl_410)">
		<path fill="#666" transform="translate(38.75 613.6)" d="M-6.0683594 4.1005859L-6.0683594 3.3564453Q-5.7695312 2.6708984 -5.3388672 2.1464844Q-4.9082031 1.6220703 -4.4335938 1.1972656Q-3.9589844 0.77246094 -3.4931641 0.40917969Q-3.0273438 0.045898438 -2.6523438 -0.31738281Q-2.2773438 -0.68066406 -2.0458984 -1.0791016Q-1.8144531 -1.4775391 -1.8144531 -1.9814453Q-1.8144531 -2.6611328 -2.2128906 -3.0361328Q-2.6113281 -3.4111328 -3.3203125 -3.4111328Q-3.9941406 -3.4111328 -4.4306641 -3.0449219Q-4.8671875 -2.6787109 -4.9433594 -2.0166016L-6.0214844 -2.1162109Q-5.9042969 -3.1064453 -5.1806641 -3.6923828Q-4.4570312 -4.2783203 -3.3203125 -4.2783203Q-2.0722656 -4.2783203 -1.4013672 -3.6894531Q-0.73046875 -3.1005859 -0.73046875 -2.0166016Q-0.73046875 -1.5361328 -0.95019531 -1.0615234Q-1.1699219 -0.58691406 -1.6035156 -0.11230469Q-2.0371094 0.36230469 -3.2617188 1.3583984Q-3.9355469 1.9091797 -4.3339844 2.3515625Q-4.7324219 2.7939453 -4.9082031 3.2041016L-0.6015625 3.2041016L-0.6015625 4.1005859L-6.0683594 4.1005859Z"/>
	</g>
	<clipPath id="cl_411">
		<rect width="49.75" height="800"/>
	</clipPath>
	<g clip-path="url(#cl_411)">
		<path fill="#666" transform="translate(38.75 545.8)" d="M-0.52539062 1.8212891Q-0.52539062 2.9638672 -1.2519531 3.5908203Q-1.9785156 4.2177734 -3.3261719 4.2177734Q-4.5800781 4.2177734 -5.3271484 3.6523438Q-6.0742188 3.0869141 -6.2148438 1.9794922L-5.125 1.8798828Q-4.9140625 3.3447266 -3.3261719 3.3447266Q-2.5292969 3.3447266 -2.0751953 2.9521484Q-1.6210938 2.5595703 -1.6210938 1.7861328Q-1.6210938 1.1123047 -2.1396484 0.734375Q-2.6582031 0.35644531 -3.6367188 0.35644531L-4.234375 0.35644531L-4.234375 -0.55761719L-3.6601562 -0.55761719Q-2.7929688 -0.55761719 -2.3154297 -0.93554688Q-1.8378906 -1.3134766 -1.8378906 -1.9814453Q-1.8378906 -2.6435547 -2.2275391 -3.0273438Q-2.6171875 -3.4111328 -3.3847656 -3.4111328Q-4.0820312 -3.4111328 -4.5126953 -3.0537109Q-4.9433594 -2.6962891 -5.0136719 -2.0458984L-6.0742188 -2.1279297Q-5.9570312 -3.1416016 -5.2333984 -3.7099609Q-4.5097656 -4.2783203 -3.3730469 -4.2783203Q-2.1308594 -4.2783203 -1.4423828 -3.7011719Q-0.75390625 -3.1240234 -0.75390625 -2.0927734Q-0.75390625 -1.3017578 -1.1962891 -0.80664062Q-1.6386719 -0.31152344 -2.4824219 -0.13574219L-2.4824219 -0.11230469Q-1.5566406 -0.012695312 -1.0410156 0.50878906Q-0.52539062 1.0302734 -0.52539062 1.8212891Z"/>
	</g>
	<clipPath id="cl_412">
		<rect width="49.75" height="800"/>
	</clipPath>
	<g clip-path="url(#cl_412)">
		<path fill="#666" transform="translate(38.75 478)" d="M-1.5097656 2.2314453L-1.5097656 4.1005859L-2.5058594 4.1005859L-2.5058594 2.2314453L-6.3964844 2.2314453L-6.3964844 1.4111328L-2.6171875 -4.1552734L-1.5097656 -4.1552734L-1.5097656 1.3994141L-0.34960938 1.3994141L-0.34960938 2.2314453L-1.5097656 2.2314453ZM-2.5058594 -2.9658203Q-2.5175781 -2.9306641 -2.6699219 -2.6552734Q-2.8222656 -2.3798828 -2.8984375 -2.2685547L-5.0136719 0.84863281L-5.3300781 1.2822266L-5.4238281 1.3994141L-2.5058594 1.3994141L-2.5058594 -2.9658203Z"/>
	</g>
	<clipPath id="cl_413">
		<rect width="49.75" height="800"/>
	</clipPath>
	<g clip-path="url(#cl_413)">
		<path fill="#666" transform="translate(38.75 410.2)" d="M-0.50195312 1.4111328Q-0.50195312 2.7177734 -1.2783203 3.4677734Q-2.0546875 4.2177734 -3.4316406 4.2177734Q-4.5859375 4.2177734 -5.2949219 3.7138672Q-6.0039062 3.2099609 -6.1914062 2.2548828L-5.125 2.1318359Q-4.7910156 3.3564453 -3.4082031 3.3564453Q-2.5585938 3.3564453 -2.078125 2.84375Q-1.5976562 2.3310547 -1.5976562 1.4345703Q-1.5976562 0.65527344 -2.0810547 0.17480469Q-2.5644531 -0.30566406 -3.3847656 -0.30566406Q-3.8125 -0.30566406 -4.1816406 -0.17089844Q-4.5507812 -0.036132812 -4.9199219 0.28613281L-5.9511719 0.28613281L-5.6757812 -4.1552734L-0.98242188 -4.1552734L-0.98242188 -3.2587891L-4.7148438 -3.2587891L-4.8730469 -0.63964844Q-4.1875 -1.1669922 -3.1679688 -1.1669922Q-1.9492188 -1.1669922 -1.2255859 -0.45214844Q-0.50195312 0.26269531 -0.50195312 1.4111328Z"/>
	</g>
	<clipPath id="cl_414">
		<rect width="49.75" height="800"/>
	</clipPath>
	<g clip-path="url(#cl_414)">
		<path fill="#666" transform="translate(38.75 342.4)" d="M-0.52539062 1.3994141Q-0.52539062 2.7060547 -1.234375 3.4619141Q-1.9433594 4.2177734 -3.1914062 4.2177734Q-4.5859375 4.2177734 -5.3242188 3.1806641Q-6.0625 2.1435547 -6.0625 0.16308594Q-6.0625 -1.9814453 -5.2949219 -3.1298828Q-4.5273438 -4.2783203 -3.109375 -4.2783203Q-1.2402344 -4.2783203 -0.75390625 -2.5966797L-1.7617188 -2.4150391Q-2.0722656 -3.4228516 -3.1210938 -3.4228516Q-4.0234375 -3.4228516 -4.5185547 -2.5820312Q-5.0136719 -1.7412109 -5.0136719 -0.14746094Q-4.7265625 -0.68066406 -4.2050781 -0.95898438Q-3.6835938 -1.2373047 -3.0097656 -1.2373047Q-1.8671875 -1.2373047 -1.1962891 -0.52246094Q-0.52539062 0.19238281 -0.52539062 1.3994141ZM-1.5976562 1.4462891Q-1.5976562 0.54980469 -2.0371094 0.063476562Q-2.4765625 -0.42285156 -3.2617188 -0.42285156Q-4 -0.42285156 -4.4541016 0.0078125Q-4.9082031 0.43847656 -4.9082031 1.1943359Q-4.9082031 2.1494141 -4.4365234 2.7587891Q-3.9648438 3.3681641 -3.2265625 3.3681641Q-2.4648438 3.3681641 -2.03125 2.8554688Q-1.5976562 2.3427734 -1.5976562 1.4462891Z"/>
	</g>
	<clipPath id="cl_415">
		<rect width="49.75" height="800"/>
	</clipPath>
	<g clip-path="url(#cl_415)">
		<path fill="#666" transform="translate(38.75 274.6)" d="M-0.6015625 -3.2998047Q-1.8671875 -1.3662109 -2.3886719 -0.27050781Q-2.9101562 0.82519531 -3.1708984 1.8916016Q-3.4316406 2.9580078 -3.4316406 4.1005859L-4.5332031 4.1005859Q-4.5332031 2.5185547 -3.8623047 0.76953125Q-3.1914062 -0.97949219 -1.6210938 -3.2587891L-6.0566406 -3.2587891L-6.0566406 -4.1552734L-0.6015625 -4.1552734L-0.6015625 -3.2998047Z"/>
	</g>
	<clipPath id="cl_416">
		<rect width="49.75" height="800"/>
	</clipPath>
	<g clip-path="url(#cl_416)">
		<path fill="#666" transform="translate(38.75 206.8)" d="M-0.51953125 1.7978516Q-0.51953125 2.9404297 -1.2460938 3.5791016Q-1.9726562 4.2177734 -3.3320312 4.2177734Q-4.65625 4.2177734 -5.4033203 3.5908203Q-6.1503906 2.9638672 -6.1503906 1.8095703Q-6.1503906 1.0009766 -5.6875 0.45019531Q-5.2246094 -0.10058594 -4.5039062 -0.21777344L-4.5039062 -0.24121094Q-5.1777344 -0.39941406 -5.5673828 -0.92675781Q-5.9570312 -1.4541016 -5.9570312 -2.1630859Q-5.9570312 -3.1064453 -5.2509766 -3.6923828Q-4.5449219 -4.2783203 -3.3554688 -4.2783203Q-2.1367188 -4.2783203 -1.4306641 -3.7041016Q-0.72460938 -3.1298828 -0.72460938 -2.1513672Q-0.72460938 -1.4423828 -1.1171875 -0.91503906Q-1.5097656 -0.38769531 -2.1894531 -0.25292969L-2.1894531 -0.22949219Q-1.3984375 -0.10058594 -0.95898438 0.44140625Q-0.51953125 0.98339844 -0.51953125 1.7978516ZM-1.8203125 -2.0927734Q-1.8203125 -3.4931641 -3.3554688 -3.4931641Q-4.0996094 -3.4931641 -4.4892578 -3.1416016Q-4.8789062 -2.7900391 -4.8789062 -2.0927734Q-4.8789062 -1.3837891 -4.4775391 -1.0117188Q-4.0761719 -0.63964844 -3.34375 -0.63964844Q-2.5996094 -0.63964844 -2.2099609 -0.98242188Q-1.8203125 -1.3251953 -1.8203125 -2.0927734ZM-1.6152344 1.6982422Q-1.6152344 0.93066406 -2.0722656 0.54101562Q-2.5292969 0.15136719 -3.3554688 0.15136719Q-4.1582031 0.15136719 -4.609375 0.5703125Q-5.0605469 0.98925781 -5.0605469 1.7216797Q-5.0605469 3.4267578 -3.3203125 3.4267578Q-2.4589844 3.4267578 -2.0371094 3.0136719Q-1.6152344 2.6005859 -1.6152344 1.6982422Z"/>
	</g>
	<clipPath id="cl_417">
		<rect width="49.75" height="800"/>
	</clipPath>
	<g clip-path="url(#cl_417)">
		<path fill="#666" transform="translate(38.75 139)" d="M-0.56640625 -0.19433594Q-0.56640625 1.9326172 -1.3427734 3.0751953Q-2.1191406 4.2177734 -3.5546875 4.2177734Q-4.5214844 4.2177734 -5.1044922 3.8105469Q-5.6875 3.4033203 -5.9394531 2.4951172L-4.9316406 2.3369141Q-4.6152344 3.3681641 -3.5371094 3.3681641Q-2.6289062 3.3681641 -2.1308594 2.5244141Q-1.6328125 1.6806641 -1.609375 0.11621094Q-1.84375 0.64355469 -2.4121094 0.96289062Q-2.9804688 1.2822266 -3.6601562 1.2822266Q-4.7734375 1.2822266 -5.4414062 0.52050781Q-6.109375 -0.24121094 -6.109375 -1.5009766Q-6.109375 -2.7958984 -5.3828125 -3.5371094Q-4.65625 -4.2783203 -3.3613281 -4.2783203Q-1.984375 -4.2783203 -1.2753906 -3.2587891Q-0.56640625 -2.2392578 -0.56640625 -0.19433594ZM-1.7148438 -1.2138672Q-1.7148438 -2.2099609 -2.171875 -2.8164062Q-2.6289062 -3.4228516 -3.3964844 -3.4228516Q-4.1582031 -3.4228516 -4.5976562 -2.9042969Q-5.0371094 -2.3857422 -5.0371094 -1.5009766Q-5.0371094 -0.59863281 -4.5976562 -0.07421875Q-4.1582031 0.45019531 -3.4082031 0.45019531Q-2.9511719 0.45019531 -2.5585938 0.2421875Q-2.1660156 0.034179688 -1.9404297 -0.34667969Q-1.7148438 -0.72753906 -1.7148438 -1.2138672Z"/>
	</g>
	<clipPath id="cl_418">
		<rect width="49.75" height="800"/>
	</clipPath>
	<g clip-path="url(#cl_418)">
		<path fill="#666" transform="translate(38.75 71.2)" d="M-12.429688 4.1005859L-12.429688 3.2041016L-10.326172 3.2041016L-10.326172 -3.1474609L-12.189453 -1.8173828L-12.189453 -2.8134766L-10.238281 -4.1552734L-9.265625 -4.1552734L-9.265625 3.2041016L-7.2558594 3.2041016L-7.2558594 4.1005859L-12.429688 4.1005859ZM-0.46484375 -0.030273438Q-0.46484375 2.0380859 -1.1943359 3.1279297Q-1.9238281 4.2177734 -3.3476562 4.2177734Q-4.7714844 4.2177734 -5.4863281 3.1337891Q-6.2011719 2.0498047 -6.2011719 -0.030273438Q-6.2011719 -2.1572266 -5.5068359 -3.2177734Q-4.8125 -4.2783203 -3.3125 -4.2783203Q-1.8535156 -4.2783203 -1.1591797 -3.2060547Q-0.46484375 -2.1337891 -0.46484375 -0.030273438ZM-1.5371094 -0.030273438Q-1.5371094 -1.8173828 -1.9501953 -2.6201172Q-2.3632812 -3.4228516 -3.3125 -3.4228516Q-4.2851562 -3.4228516 -4.7099609 -2.6318359Q-5.1347656 -1.8408203 -5.1347656 -0.030273438Q-5.1347656 1.7275391 -4.7041016 2.5419922Q-4.2734375 3.3564453 -3.3359375 3.3564453Q-2.4042969 3.3564453 -1.9707031 2.5244141Q-1.5371094 1.6923828 -1.5371094 -0.030273438Z"/>
	</g>
	<clipPath id="cl_41a">
		<rect x="43.75" y="65.199997" width="1156.25" height="690"/>
	</clipPath>
	<g clip-path="url(#cl_41a)">
		<path fill="none" stroke="#C32222" stroke-width="2" stroke-miterlimit="10" d=""/>
	</g>
	<clipPath id="cl_41b">
		<rect x="43.75" y="65.199997" width="1156.25" height="690"/>
	</clipPath>
	<g clip-path="url(#cl_41b)">
		<path fill="#C32222" fill-opacity="0.2" d="M52.75 613.59998Q52.75 613.74744 52.73555 613.89404Q52.721107 614.04071 52.692352 614.18518Q52.663601 614.32977 52.620815 614.47083Q52.578033 614.61182 52.521633 614.74792Q52.465233 614.88409 52.39576 615.01404Q52.326286 615.14404 52.244404 615.2666Q52.162525 615.38916 52.069027 615.50311Q51.975533 615.61707 51.871319 615.72125Q51.767105 615.82544 51.653179 615.91895Q51.539253 616.01245 51.416706 616.09436Q51.294167 616.17627 51.164188 616.24573Q51.03421 616.31519 50.898048 616.37158Q50.76189 616.42804 50.620857 616.47083Q50.47982 616.51367 50.33527 616.54236Q50.19072 616.57117 50.044052 616.58557Q49.897381 616.59998 49.75 616.59998Q49.602619 616.59998 49.455948 616.58557Q49.309277 616.57117 49.164726 616.54236Q49.02018 616.51367 48.879143 616.47083Q48.73811 616.42804 48.601944 616.37158Q48.465782 616.31519 48.335808 616.24573Q48.205826 616.17627 48.083282 616.09436Q47.960747 616.01245 47.846817 615.91895Q47.732895 615.82544 47.628677 615.72125Q47.524467 615.61707 47.430969 615.50311Q47.337471 615.38916 47.255585 615.2666Q47.173706 615.14404 47.104233 615.0141Q47.03476 614.88409 46.978359 614.74792Q46.921963 614.61182 46.879177 614.47076Q46.836395 614.32977 46.80764 614.18518Q46.778893 614.04071 46.76445 613.89404Q46.75 613.74744 46.75 613.59998Q46.75 613.45264 46.76445 613.30591Q46.778896 613.15918 46.807648 613.01465Q46.836403 612.87012 46.879181 612.72906Q46.921963 612.58801 46.978359 612.45184Q47.03476 612.31567 47.104233 612.18573Q47.173706 612.05579 47.255585 611.93317Q47.337471 611.81067 47.430969 611.69678Q47.524467 611.58289 47.628677 611.47864Q47.732895 611.37445 47.846817 611.28094Q47.960747 611.18744 48.083282 611.10553Q48.205826 611.02368 48.335808 610.95422Q48.465782 610.88477 48.601944 610.82831Q48.73811 610.77197 48.879143 610.72913Q49.02018 610.6864 49.164726 610.65759Q49.309277 610.62891 49.455948 610.61444Q49.602619 610.59998 49.75 610.59998Q49.897381 610.59998 50.044052 610.61444Q50.19072 610.62891 50.335266 610.65759Q50.479816 610.6864 50.620853 610.72913Q50.761887 610.77191 50.898045 610.82825Q51.03421 610.8847 51.164188 610.95416Q51.294167 611.02368 51.416706 611.10547Q51.539253 611.18738 51.653179 611.28088Q51.767105 611.37439 51.871315 611.47858Q51.975533 611.58282 52.069023 611.69678Q52.162521 611.81067 52.2444 611.93311Q52.326279 612.05573 52.395756 612.18573Q52.465233 612.31567 52.521633 612.45184Q52.578033 612.58801 52.620815 612.72906Q52.663597 612.87012 52.692348 613.01465Q52.721107 613.15918 52.73555 613.30591Q52.75 613.45264 52.75 613.59998Z"/>
		<path fill="none" stroke="#C32222" stroke-width="2" stroke-miterlimit="10" d="M52.75 613.59998Q52.75 613.74744 52.73555 613.89404Q52.721107 614.04071 52.692352 614.18518Q52.663601 614.32977 52.620815 614.47083Q52.578033 614.61182 52.521633 614.74792Q52.465233 614.88409 52.39576 615.01404Q52.326286 615.14404 52.244404 615.2666Q52.162525 615.38916 52.069027 615.50311Q51.975533 615.61707 51.871319 615.72125Q51.767105 615.82544 51.653179 615.91895Q51.539253 616.01245 51.416706 616.09436Q51.294167 616.17627 51.164188 616.24573Q51.03421 616.31519 50.898048 616.37158Q50.76189 616.42804 50.620857 616.47083Q50.47982 616.51367 50.33527 616.54236Q50.19072 616.57117 50.044052 616.58557Q49.897381 616.59998 49.75 616.59998Q49.602619 616.59998 49.455948 616.58557Q49.309277 616.57117 49.164726 616.54236Q49.02018 616.51367 48.879143 616.47083Q48.73811 616.42804 48.601944 616.37158Q48.465782 616.31519 48.335808 616.24573Q48.205826 616.17627 48.083282 616.09436Q47.960747 616.01245 47.846817 615.91895Q47.732895 615.82544 47.628677 615.72125Q47.524467 615.61707 47.430969 615.50311Q47.337471 615.38916 47.255585 615.2666Q47.173706 615.14404 47.104233 615.0141Q47.03476 614.88409 46.978359 614.74792Q46.921963 614.61182 46.879177 614.47076Q46.836395 614.32977 46.80764 614.18518Q46.778893 614.04071 46.76445 613.89404Q46.75 613.74744 46.75 613.59998Q46.75 613.45264 46.76445 613.30591Q46.778896 613.15918 46.807648 613.01465Q46.836403 612.87012 46.879181 612.72906Q46.921963 612.58801 46.978359 612.45184Q47.03476 612.31567 47.104233 612.18573Q47.173706 612.05579 47.255585 611.93317Q47.337471 611.81067 47.430969 611.69678Q47.524467 611.58289 47.628677 611.47864Q47.732895 611.37445 47.846817 611.28094Q47.960747 611.18744 48.083282 611.10553Q48.205826 611.02368 48.335808 610.95422Q48.465782 610.88477 48.601944 610.82831Q48.73811 610.77197 48.879143 610.72913Q49.02018 610.6864 49.164726 610.65759Q49.309277 610.62891 49.455948 610.61444Q49.602619 610.59998 49.75 610.59998Q49.897381 610.59998 50.044052 610.61444Q50.19072 610.62891 50.335266 610.65759Q50.479816 610.6864 50.620853 610.72913Q50.761887 610.77191 50.898045 610.82825Q51.03421 610.8847 51.164188 610.95416Q51.294167 611.02368 51.416706 611.10547Q51.539253 611.18738 51.653179 611.28088Q51.767105 611.37439 51.871315 611.47858Q51.975533 611.58282 52.069023 611.69678Q52.162521 611.81067 52.2444 611.93311Q52.326279 612.05573 52.395756 612.18573Q52.465233 612.31567 52.521633 612.45184Q52.578033 612.58801 52.620815 612.72906Q52.663597 612.87012 52.692348 613.01465Q52.721107 613.15918 52.73555 613.30591Q52.75 613.45264 52.75 613.59998Z"/>
	</g>
</svg>
