<?xml version="1.0" encoding="utf-8" ?>
<svg xmlns="http://www.w3.org/2000/svg" xmlns:xlink="http://www.w3.org/1999/xlink" width="1200" height="800">
	<rect fill="white" width="1200" height="800"/>
	<path fill="none" stroke="black" stroke-width="1" stroke-miterlimit="10" stroke-opacity="0.10196079" d="M49.5 71.199997L49.5 749"/>
	<path fill="none" stroke="black" stroke-width="1" stroke-miterlimit="10" stroke-opacity="0.10196079" d="M49.5 750L49.5 757.20001"/>
	<path fill="#666" transform="translate(621.875 788.8)" d="M-26.550781 4.1005859L-28.695312 0.67285156L-31.267578 0.67285156L-31.267578 4.1005859L-32.386719 4.1005859L-32.386719 -4.1552734L-28.501953 -4.1552734Q-27.107422 -4.1552734 -26.348633 -3.53125Q-25.589844 -2.9072266 -25.589844 -1.7939453Q-25.589844 -0.87402344 -26.125977 -0.24707031Q-26.662109 0.37988281 -27.605469 0.54394531L-25.261719 4.1005859L-26.550781 4.1005859ZM-26.714844 -1.7822266Q-26.714844 -2.5029297 -27.204102 -2.8808594Q-27.693359 -3.2587891 -28.613281 -3.2587891L-31.267578 -3.2587891L-31.267578 -0.21191406L-28.566406 -0.21191406Q-27.681641 -0.21191406 -27.198242 -0.625Q-26.714844 -1.0380859 -26.714844 -1.7822266ZM-23.087891 1.1533203Q-23.087891 2.2431641 -22.636719 2.8349609Q-22.185547 3.4267578 -21.318359 3.4267578Q-20.632812 3.4267578 -20.219727 3.1513672Q-19.806641 2.8759766 -19.660156 2.4541016L-18.734375 2.7177734Q-19.302734 4.2177734 -21.318359 4.2177734Q-22.724609 4.2177734 -23.459961 3.3798828Q-24.195312 2.5419922 -24.195312 0.88964844Q-24.195312 -0.68066406 -23.459961 -1.5185547Q-22.724609 -2.3564453 -21.359375 -2.3564453Q-18.564453 -2.3564453 -18.564453 1.0126953L-18.564453 1.1533203L-23.087891 1.1533203ZM-19.654297 0.34472656Q-19.742188 -0.65722656 -20.164062 -1.1171875Q-20.585938 -1.5771484 -21.376953 -1.5771484Q-22.144531 -1.5771484 -22.592773 -1.0644531Q-23.041016 -0.55175781 -23.076172 0.34472656L-19.654297 0.34472656ZM-17.222656 4.1005859L-17.222656 -4.5947266L-16.167969 -4.5947266L-16.167969 4.1005859L-17.222656 4.1005859ZM-13.748047 1.1533203Q-13.748047 2.2431641 -13.296875 2.8349609Q-12.845703 3.4267578 -11.978516 3.4267578Q-11.292969 3.4267578 -10.879883 3.1513672Q-10.466797 2.8759766 -10.320312 2.4541016L-9.3945312 2.7177734Q-9.9628906 4.2177734 -11.978516 4.2177734Q-13.384766 4.2177734 -14.120117 3.3798828Q-14.855469 2.5419922 -14.855469 0.88964844Q-14.855469 -0.68066406 -14.120117 -1.5185547Q-13.384766 -2.3564453 -12.019531 -2.3564453Q-9.2246094 -2.3564453 -9.2246094 1.0126953L-9.2246094 1.1533203L-13.748047 1.1533203ZM-10.314453 0.34472656Q-10.402344 -0.65722656 -10.824219 -1.1171875Q-11.246094 -1.5771484 -12.037109 -1.5771484Q-12.804688 -1.5771484 -13.25293 -1.0644531Q-13.701172 -0.55175781 -13.736328 0.34472656L-10.314453 0.34472656ZM-6.265625 4.2177734Q-7.2207031 4.2177734 -7.7011719 3.7138672Q-8.1816406 3.2099609 -8.1816406 2.3310547Q-8.1816406 1.3466797 -7.5341797 0.81933594Q-6.8867188 0.29199219 -5.4453125 0.25683594L-4.0214844 0.23339844L-4.0214844 -0.11230469Q-4.0214844 -0.88574219 -4.3496094 -1.2197266Q-4.6777344 -1.5537109 -5.3808594 -1.5537109Q-6.0898438 -1.5537109 -6.4121094 -1.3134766Q-6.734375 -1.0732422 -6.7988281 -0.54589844L-7.9003906 -0.64550781Q-7.6308594 -2.3564453 -5.3574219 -2.3564453Q-4.1621094 -2.3564453 -3.5585938 -1.8085938Q-2.9550781 -1.2607422 -2.9550781 -0.22363281L-2.9550781 2.5068359Q-2.9550781 2.9755859 -2.8320312 3.2128906Q-2.7089844 3.4501953 -2.3632812 3.4501953Q-2.2109375 3.4501953 -2.0175781 3.4091797L-2.0175781 4.0654297Q-2.4160156 4.1591797 -2.8320312 4.1591797Q-3.4179688 4.1591797 -3.6845703 3.8515625Q-3.9511719 3.5439453 -3.9863281 2.8876953L-4.0214844 2.8876953Q-4.4257812 3.6142578 -4.9619141 3.9160156Q-5.4980469 4.2177734 -6.265625 4.2177734ZM-6.0253906 3.4267578Q-5.4453125 3.4267578 -4.9941406 3.1630859Q-4.5429688 2.8994141 -4.2822266 2.4394531Q-4.0214844 1.9794922 -4.0214844 1.4931641L-4.0214844 0.97167969L-5.1757812 0.99511719Q-5.9199219 1.0068359 -6.3037109 1.1474609Q-6.6875 1.2880859 -6.8925781 1.5810547Q-7.0976562 1.8740234 -7.0976562 2.3486328Q-7.0976562 2.8642578 -6.8193359 3.1455078Q-6.5410156 3.4267578 -6.0253906 3.4267578ZM3.5488281 2.3486328Q3.5488281 3.2451172 2.8720703 3.7314453Q2.1953125 4.2177734 0.9765625 4.2177734Q-0.20703125 4.2177734 -0.84863281 3.828125Q-1.4902344 3.4384766 -1.6835938 2.6123047L-0.75195312 2.4306641Q-0.6171875 2.9404297 -0.1953125 3.1777344Q0.2265625 3.4150391 0.9765625 3.4150391Q1.7792969 3.4150391 2.1513672 3.1689453Q2.5234375 2.9228516 2.5234375 2.4306641Q2.5234375 2.0556641 2.265625 1.8212891Q2.0078125 1.5869141 1.4335938 1.4345703L0.67773438 1.2353516Q-0.23046875 1.0009766 -0.61425781 0.77539062Q-0.99804688 0.54980469 -1.2148438 0.22753906Q-1.4316406 -0.094726562 -1.4316406 -0.56347656Q-1.4316406 -1.4306641 -0.81347656 -1.8847656Q-0.1953125 -2.3388672 0.98828125 -2.3388672Q2.0371094 -2.3388672 2.6552734 -1.9697266Q3.2734375 -1.6005859 3.4375 -0.78613281L2.4882812 -0.66894531Q2.4003906 -1.0908203 2.0166016 -1.3164062Q1.6328125 -1.5419922 0.98828125 -1.5419922Q0.2734375 -1.5419922 -0.06640625 -1.3251953Q-0.40625 -1.1083984 -0.40625 -0.66894531Q-0.40625 -0.39941406 -0.265625 -0.22363281Q-0.125 -0.047851562 0.15039062 0.075195312Q0.42578125 0.19824219 1.3105469 0.41503906Q2.1484375 0.62597656 2.5175781 0.8046875Q2.8867188 0.98339844 3.1005859 1.2001953Q3.3144531 1.4169922 3.4316406 1.7011719Q3.5488281 1.9853516 3.5488281 2.3486328ZM5.5996094 1.1533203Q5.5996094 2.2431641 6.0507812 2.8349609Q6.5019531 3.4267578 7.3691406 3.4267578Q8.0546875 3.4267578 8.4677734 3.1513672Q8.8808594 2.8759766 9.0273438 2.4541016L9.953125 2.7177734Q9.3847656 4.2177734 7.3691406 4.2177734Q5.9628906 4.2177734 5.2275391 3.3798828Q4.4921875 2.5419922 4.4921875 0.88964844Q4.4921875 -0.68066406 5.2275391 -1.5185547Q5.9628906 -2.3564453 7.328125 -2.3564453Q10.123047 -2.3564453 10.123047 1.0126953L10.123047 1.1533203L5.5996094 1.1533203ZM9.0332031 0.34472656Q8.9453125 -0.65722656 8.5234375 -1.1171875Q8.1015625 -1.5771484 7.3105469 -1.5771484Q6.5429688 -1.5771484 6.0947266 -1.0644531Q5.6464844 -0.55175781 5.6113281 0.34472656L9.0332031 0.34472656ZM17.992188 -3.2412109L17.992188 4.1005859L16.878906 4.1005859L16.878906 -3.2412109L14.042969 -3.2412109L14.042969 -4.1552734L20.828125 -4.1552734L20.828125 -3.2412109L17.992188 -3.2412109ZM22.199219 4.2177734Q21.244141 4.2177734 20.763672 3.7138672Q20.283203 3.2099609 20.283203 2.3310547Q20.283203 1.3466797 20.930664 0.81933594Q21.578125 0.29199219 23.019531 0.25683594L24.443359 0.23339844L24.443359 -0.11230469Q24.443359 -0.88574219 24.115234 -1.2197266Q23.787109 -1.5537109 23.083984 -1.5537109Q22.375 -1.5537109 22.052734 -1.3134766Q21.730469 -1.0732422 21.666016 -0.54589844L20.564453 -0.64550781Q20.833984 -2.3564453 23.107422 -2.3564453Q24.302734 -2.3564453 24.90625 -1.8085938Q25.509766 -1.2607422 25.509766 -0.22363281L25.509766 2.5068359Q25.509766 2.9755859 25.632812 3.2128906Q25.755859 3.4501953 26.101562 3.4501953Q26.253906 3.4501953 26.447266 3.4091797L26.447266 4.0654297Q26.048828 4.1591797 25.632812 4.1591797Q25.046875 4.1591797 24.780273 3.8515625Q24.513672 3.5439453 24.478516 2.8876953L24.443359 2.8876953Q24.039062 3.6142578 23.50293 3.9160156Q22.966797 4.2177734 22.199219 4.2177734ZM22.439453 3.4267578Q23.019531 3.4267578 23.470703 3.1630859Q23.921875 2.8994141 24.182617 2.4394531Q24.443359 1.9794922 24.443359 1.4931641L24.443359 0.97167969L23.289062 0.99511719Q22.544922 1.0068359 22.161133 1.1474609Q21.777344 1.2880859 21.572266 1.5810547Q21.367188 1.8740234 21.367188 2.3486328Q21.367188 2.8642578 21.645508 3.1455078Q21.923828 3.4267578 22.439453 3.4267578ZM29.658203 6.5908203Q28.621094 6.5908203 28.005859 6.1835938Q27.390625 5.7763672 27.214844 5.0263672L28.275391 4.8740234Q28.380859 5.3134766 28.741211 5.5507812Q29.101562 5.7880859 29.6875 5.7880859Q31.263672 5.7880859 31.263672 3.9423828L31.263672 2.9228516L31.251953 2.9228516Q30.953125 3.5322266 30.431641 3.8398438Q29.910156 4.1474609 29.212891 4.1474609Q28.046875 4.1474609 27.499023 3.3740234Q26.951172 2.6005859 26.951172 0.94238281Q26.951172 -0.73925781 27.540039 -1.5390625Q28.128906 -2.3388672 29.330078 -2.3388672Q30.003906 -2.3388672 30.499023 -2.03125Q30.994141 -1.7236328 31.263672 -1.1552734L31.275391 -1.1552734Q31.275391 -1.3310547 31.298828 -1.7646484Q31.322266 -2.1982422 31.345703 -2.2392578L32.347656 -2.2392578Q32.3125 -1.9228516 32.3125 -0.92675781L32.3125 3.9189453Q32.3125 6.5908203 29.658203 6.5908203ZM31.263672 0.93066406Q31.263672 0.15722656 31.052734 -0.40234375Q30.841797 -0.96191406 30.458008 -1.2578125Q30.074219 -1.5537109 29.587891 -1.5537109Q28.779297 -1.5537109 28.410156 -0.96777344Q28.041016 -0.38183594 28.041016 0.93066406Q28.041016 2.2314453 28.386719 2.7998047Q28.732422 3.3681641 29.570312 3.3681641Q30.068359 3.3681641 30.455078 3.0751953Q30.841797 2.7822266 31.052734 2.234375Q31.263672 1.6865234 31.263672 0.93066406Z"/>
	<path fill="none" stroke="black" stroke-width="1" stroke-miterlimit="10" stroke-opacity="0.10196079" d="M50 749.5L1194 749.5"/>
	<path fill="none" stroke="black" stroke-width="1" stroke-miterlimit="10" stroke-opacity="0.10196079" d="M41.75 749.5L49 749.5"/>
	<path fill="none" stroke="black" stroke-width="1" stroke-miterlimit="10" stroke-opacity="0.10196079" d="M50 681.5L1194 681.5"/>
	<path fill="none" stroke="black" stroke-width="1" stroke-miterlimit="10" stroke-opacity="0.10196079" d="M41.75 681.5L49 681.5"/>
	<path fill="none" stroke="black" stroke-width="1" stroke-miterlimit="10" stroke-opacity="0.10196079" d="M50 613.5L1194 613.5"/>
	<path fill="none" stroke="black" stroke-width="1" stroke-miterlimit="10" stroke-opacity="0.10196079" d="M41.75 613.5L49 613.5"/>
	<path fill="none" stroke="black" stroke-width="1" stroke-miterlimit="10" stroke-opacity="0.10196079" d="M50 545.5L1194 545.5"/>
	<path fill="none" stroke="black" stroke-width="1" stroke-miterlimit="10" stroke-opacity="0.10196079" d="M41.75 545.5L49 545.5"/>
	<path fill="none" stroke="black" stroke-width="1" stroke-miterlimit="10" stroke-opacity="0.10196079" d="M50 478.5L1194 478.5"/>
	<path fill="none" stroke="black" stroke-width="1" stroke-miterlimit="10" stroke-opacity="0.10196079" d="M41.75 478.5L49 478.5"/>
	<path fill="none" stroke="black" stroke-width="1" stroke-miterlimit="10" stroke-opacity="0.10196079" d="M50 410.5L1194 410.5"/>
	<path fill="none" stroke="black" stroke-width="1" stroke-miterlimit="10" stroke-opacity="0.10196079" d="M41.75 410.5L49 410.5"/>
	<path fill="none" stroke="black" stroke-width="1" stroke-miterlimit="10" stroke-opacity="0.10196079" d="M50 342.5L1194 342.5"/>
	<path fill="none" stroke="black" stroke-width="1" stroke-miterlimit="10" stroke-opacity="0.10196079" d="M41.75 342.5L49 342.5"/>
	<path fill="none" stroke="black" stroke-width="1" stroke-miterlimit="10" stroke-opacity="0.10196079" d="M50 274.5L1194 274.5"/>
	<path fill="none" stroke="black" stroke-width="1" stroke-miterlimit="10" stroke-opacity="0.10196079" d="M41.75 274.5L49 274.5"/>
	<path fill="none" stroke="black" stroke-width="1" stroke-miterlimit="10" stroke-opacity="0.10196079" d="M50 206.5L1194 206.5"/>
	<path fill="none" stroke="black" stroke-width="1" stroke-miterlimit="10" stroke-opacity="0.10196079" d="M41.75 206.5L49 206.5"/>
	<path fill="none" stroke="black" stroke-width="1" stroke-miterlimit="10" stroke-opacity="0.10196079" d="M50 139.5L1194 139.5"/>
	<path fill="none" stroke="black" stroke-width="1" stroke-miterlimit="10" stroke-opacity="0.10196079" d="M41.75 139.5L49 139.5"/>
	<path fill="none" stroke="black" stroke-width="1" stroke-miterlimit="10" stroke-opacity="0.10196079" d="M50 71.5L1194 71.5"/>
	<path fill="none" stroke="black" stroke-width="1" stroke-miterlimit="10" stroke-opacity="0.10196079" d="M41.75 71.5L49 71.5"/>
	<path fill="#666" transform="matrix(0 -1 1 0 11.2 410.2)" d="M-21.591797 -0.11230469Q-21.591797 1.1650391 -22.089844 2.1230469Q-22.587891 3.0810547 -23.501953 3.5908203Q-24.416016 4.1005859 -25.611328 4.1005859L-28.699219 4.1005859L-28.699219 -4.1552734L-25.96875 -4.1552734Q-23.871094 -4.1552734 -22.731445 -3.1035156Q-21.591797 -2.0517578 -21.591797 -0.11230469ZM-22.716797 -0.11230469Q-22.716797 -1.6474609 -23.557617 -2.453125Q-24.398438 -3.2587891 -25.992188 -3.2587891L-27.580078 -3.2587891L-27.580078 3.2041016L-25.740234 3.2041016Q-24.832031 3.2041016 -24.143555 2.8056641Q-23.455078 2.4072266 -23.085938 1.6572266Q-22.716797 0.90722656 -22.716797 -0.11230469ZM-14.847656 0.92480469Q-14.847656 2.5888672 -15.580078 3.4033203Q-16.3125 4.2177734 -17.707031 4.2177734Q-19.095703 4.2177734 -19.804688 3.3710938Q-20.513672 2.5244141 -20.513672 0.92480469Q-20.513672 -2.3564453 -17.671875 -2.3564453Q-16.21875 -2.3564453 -15.533203 -1.5566406Q-14.847656 -0.75683594 -14.847656 0.92480469ZM-15.955078 0.92480469Q-15.955078 -0.38769531 -16.344727 -0.98242188Q-16.734375 -1.5771484 -17.654297 -1.5771484Q-18.580078 -1.5771484 -18.993164 -0.97070312Q-19.40625 -0.36425781 -19.40625 0.92480469Q-19.40625 2.1787109 -18.999023 2.8085938Q-18.591797 3.4384766 -17.71875 3.4384766Q-16.769531 3.4384766 -16.362305 2.8291016Q-15.955078 2.2197266 -15.955078 0.92480469ZM-7.4648438 4.1005859L-8.6894531 4.1005859L-9.796875 -0.38183594L-10.007812 -1.3720703Q-10.060547 -1.1083984 -10.171875 -0.61328125Q-10.283203 -0.11816406 -11.367188 4.1005859L-12.585938 4.1005859L-14.361328 -2.2392578L-13.318359 -2.2392578L-12.246094 2.0673828Q-12.205078 2.2080078 -11.994141 3.2275391L-11.894531 2.7939453L-10.570312 -2.2392578L-9.4394531 -2.2392578L-8.3320312 2.1142578L-8.0625 3.2275391L-7.8808594 2.4130859L-6.6796875 -2.2392578L-5.6484375 -2.2392578L-7.4648438 4.1005859ZM-0.84375 4.1005859L-0.84375 0.081054688Q-0.84375 -0.54589844 -0.96679688 -0.89160156Q-1.0898438 -1.2373047 -1.359375 -1.3896484Q-1.6289062 -1.5419922 -2.1503906 -1.5419922Q-2.9121094 -1.5419922 -3.3515625 -1.0205078Q-3.7910156 -0.49902344 -3.7910156 0.42675781L-3.7910156 4.1005859L-4.8457031 4.1005859L-4.8457031 -0.88574219Q-4.8457031 -1.9931641 -4.8808594 -2.2392578L-3.8847656 -2.2392578Q-3.8789062 -2.2099609 -3.8730469 -2.0810547Q-3.8671875 -1.9521484 -3.8583984 -1.7851562Q-3.8496094 -1.6181641 -3.8378906 -1.1552734L-3.8203125 -1.1552734Q-3.4570312 -1.8115234 -2.9794922 -2.0839844Q-2.5019531 -2.3564453 -1.7929688 -2.3564453Q-0.75 -2.3564453 -0.26660156 -1.8378906Q0.21679688 -1.3193359 0.21679688 -0.12402344L0.21679688 4.1005859L-0.84375 4.1005859ZM1.8046875 4.1005859L1.8046875 -4.5947266L2.859375 -4.5947266L2.859375 4.1005859L1.8046875 4.1005859ZM9.8320312 0.92480469Q9.8320312 2.5888672 9.0996094 3.4033203Q8.3671875 4.2177734 6.9726562 4.2177734Q5.5839844 4.2177734 4.875 3.3710938Q4.1660156 2.5244141 4.1660156 0.92480469Q4.1660156 -2.3564453 7.0078125 -2.3564453Q8.4609375 -2.3564453 9.1464844 -1.5566406Q9.8320312 -0.75683594 9.8320312 0.92480469ZM8.7246094 0.92480469Q8.7246094 -0.38769531 8.3349609 -0.98242188Q7.9453125 -1.5771484 7.0253906 -1.5771484Q6.0996094 -1.5771484 5.6865234 -0.97070312Q5.2734375 -0.36425781 5.2734375 0.92480469Q5.2734375 2.1787109 5.6806641 2.8085938Q6.0878906 3.4384766 6.9609375 3.4384766Q7.9101562 3.4384766 8.3173828 2.8291016Q8.7246094 2.2197266 8.7246094 0.92480469ZM12.761719 4.2177734Q11.806641 4.2177734 11.326172 3.7138672Q10.845703 3.2099609 10.845703 2.3310547Q10.845703 1.3466797 11.493164 0.81933594Q12.140625 0.29199219 13.582031 0.25683594L15.005859 0.23339844L15.005859 -0.11230469Q15.005859 -0.88574219 14.677734 -1.2197266Q14.349609 -1.5537109 13.646484 -1.5537109Q12.9375 -1.5537109 12.615234 -1.3134766Q12.292969 -1.0732422 12.228516 -0.54589844L11.126953 -0.64550781Q11.396484 -2.3564453 13.669922 -2.3564453Q14.865234 -2.3564453 15.46875 -1.8085938Q16.072266 -1.2607422 16.072266 -0.22363281L16.072266 2.5068359Q16.072266 2.9755859 16.195312 3.2128906Q16.318359 3.4501953 16.664062 3.4501953Q16.816406 3.4501953 17.009766 3.4091797L17.009766 4.0654297Q16.611328 4.1591797 16.195312 4.1591797Q15.609375 4.1591797 15.342773 3.8515625Q15.076172 3.5439453 15.041016 2.8876953L15.005859 2.8876953Q14.601562 3.6142578 14.06543 3.9160156Q13.529297 4.2177734 12.761719 4.2177734ZM13.001953 3.4267578Q13.582031 3.4267578 14.033203 3.1630859Q14.484375 2.8994141 14.745117 2.4394531Q15.005859 1.9794922 15.005859 1.4931641L15.005859 0.97167969L13.851562 0.99511719Q13.107422 1.0068359 12.723633 1.1474609Q12.339844 1.2880859 12.134766 1.5810547Q11.929688 1.8740234 11.929688 2.3486328Q11.929688 2.8642578 12.208008 3.1455078Q12.486328 3.4267578 13.001953 3.4267578ZM21.820312 3.0810547Q21.527344 3.6904297 21.043945 3.9541016Q20.560547 4.2177734 19.845703 4.2177734Q18.644531 4.2177734 18.079102 3.4091797Q17.513672 2.6005859 17.513672 0.95996094Q17.513672 -2.3564453 19.845703 -2.3564453Q20.566406 -2.3564453 21.046875 -2.0927734Q21.527344 -1.8291016 21.820312 -1.2548828L21.832031 -1.2548828L21.820312 -1.9638672L21.820312 -4.5947266L22.875 -4.5947266L22.875 2.7939453Q22.875 3.7841797 22.910156 4.1005859L21.902344 4.1005859Q21.884766 4.0068359 21.864258 3.6669922Q21.84375 3.3271484 21.84375 3.0810547L21.820312 3.0810547ZM18.621094 0.92480469Q18.621094 2.2548828 18.972656 2.8291016Q19.324219 3.4033203 20.115234 3.4033203Q21.011719 3.4033203 21.416016 2.7822266Q21.820312 2.1611328 21.820312 0.85449219Q21.820312 -0.40527344 21.416016 -0.99121094Q21.011719 -1.5771484 20.126953 -1.5771484Q19.330078 -1.5771484 18.975586 -0.98828125Q18.621094 -0.39941406 18.621094 0.92480469ZM29.25 2.3486328Q29.25 3.2451172 28.573242 3.7314453Q27.896484 4.2177734 26.677734 4.2177734Q25.494141 4.2177734 24.852539 3.828125Q24.210938 3.4384766 24.017578 2.6123047L24.949219 2.4306641Q25.083984 2.9404297 25.505859 3.1777344Q25.927734 3.4150391 26.677734 3.4150391Q27.480469 3.4150391 27.852539 3.1689453Q28.224609 2.9228516 28.224609 2.4306641Q28.224609 2.0556641 27.966797 1.8212891Q27.708984 1.5869141 27.134766 1.4345703L26.378906 1.2353516Q25.470703 1.0009766 25.086914 0.77539062Q24.703125 0.54980469 24.486328 0.22753906Q24.269531 -0.094726562 24.269531 -0.56347656Q24.269531 -1.4306641 24.887695 -1.8847656Q25.505859 -2.3388672 26.689453 -2.3388672Q27.738281 -2.3388672 28.356445 -1.9697266Q28.974609 -1.6005859 29.138672 -0.78613281L28.189453 -0.66894531Q28.101562 -1.0908203 27.717773 -1.3164062Q27.333984 -1.5419922 26.689453 -1.5419922Q25.974609 -1.5419922 25.634766 -1.3251953Q25.294922 -1.1083984 25.294922 -0.66894531Q25.294922 -0.39941406 25.435547 -0.22363281Q25.576172 -0.047851562 25.851562 0.075195312Q26.126953 0.19824219 27.011719 0.41503906Q27.849609 0.62597656 28.21875 0.8046875Q28.587891 0.98339844 28.801758 1.2001953Q29.015625 1.4169922 29.132812 1.7011719Q29.25 1.9853516 29.25 2.3486328Z"/>
	<clipPath id="cl_161">
		<rect y="39.200001" width="1200" height="31.999996"/>
	</clipPath>
	<g clip-path="url(#cl_161)">
		<path fill="#C32222" fill-opacity="0.2" d="M569.33002 49.200001L609.33002 49.200001L609.33002 61.200001L569.33002 61.200001L569.33002 49.200001Z"/>
		<path fill="none" stroke="#C32222" stroke-width="2" stroke-miterlimit="10" d="M569.33002 49.200001L609.33002 49.200001L609.33002 61.200001L569.33002 61.200001L569.33002 49.200001Z"/>
	</g>
	<clipPath id="cl_162">
		<rect y="39.200001" width="1200" height="31.999996"/>
	</clipPath>
	<g clip-path="url(#cl_162)">
		<path fill="#666" d="M615.81635 59.300587L615.81635 58.497852L619.36127 53.775196L616.01556 53.775196L616.01556 52.960743L620.60931 52.960743L620.60931 53.763477L617.05853 58.486134L620.73236 58.486134L620.73236 59.300587L615.81635 59.300587ZM622.13275 51.613087L622.13275 50.605274L623.18744 50.605274L623.18744 51.613087L622.13275 51.613087ZM622.13275 59.300587L622.13275 52.960743L623.18744 52.960743L623.18744 59.300587L622.13275 59.300587ZM630.16595 56.101368Q630.16595 59.417774 627.83392 59.417774Q626.36908 59.417774 625.86517 58.316212L625.83588 58.316212Q625.85931 58.363087 625.85931 59.312305L625.85931 61.790821L624.80463 61.790821L624.80463 54.255665Q624.80463 53.277149 624.76947 52.960743L625.789 52.960743Q625.79486 52.98418 625.80658 53.127735Q625.8183 53.27129 625.83295 53.570118Q625.8476 53.868946 625.8476 53.980274L625.87103 53.980274Q626.15228 53.394337 626.61517 53.121876Q627.07806 52.849415 627.83392 52.849415Q629.0058 52.849415 629.58588 53.634571Q630.16595 54.419727 630.16595 56.101368ZM629.05853 56.124805Q629.05853 54.800587 628.70111 54.232227Q628.34369 53.663868 627.56439 53.663868Q626.93744 53.663868 626.58295 53.92754Q626.22845 54.191212 626.04388 54.750782Q625.85931 55.310352 625.85931 56.206837Q625.85931 57.454884 626.25775 58.04668Q626.65619 58.638477 627.55267 58.638477Q628.33783 58.638477 628.69818 58.061329Q629.05853 57.48418 629.05853 56.124805Z"/>
	</g>
	<path fill="#666" transform="translate(600 19.6)" d="M-376.53516 3.3320312Q-376.53516 4.5585938 -377.53906 5.2578125Q-378.54297 5.9570312 -380.31641 5.9570312Q-382.05859 5.9570312 -382.98438 5.40625Q-383.91016 4.8554688 -384.21484 3.6914062L-382.28516 3.4023438Q-382.12109 4.0039062 -381.71875 4.2539062Q-381.31641 4.5039062 -380.31641 4.5039062Q-379.39453 4.5039062 -378.97266 4.2695312Q-378.55078 4.0351562 -378.55078 3.5351562Q-378.55078 3.1289062 -378.89062 2.890625Q-379.23047 2.6523438 -380.04297 2.4882812Q-381.90234 2.1210938 -382.55078 1.8046875Q-383.19922 1.4882812 -383.53906 0.984375Q-383.87891 0.48046875 -383.87891 -0.25390625Q-383.87891 -1.4648438 -382.94531 -2.140625Q-382.01172 -2.8164062 -380.30078 -2.8164062Q-378.79297 -2.8164062 -377.875 -2.2304688Q-376.95703 -1.6445312 -376.73047 -0.53515625L-378.67578 -0.33203125Q-378.76953 -0.84765625 -379.13672 -1.1015625Q-379.50391 -1.3554688 -380.30078 -1.3554688Q-381.08203 -1.3554688 -381.47266 -1.15625Q-381.86328 -0.95703125 -381.86328 -0.48828125Q-381.86328 -0.12109375 -381.5625 0.09375Q-381.26172 0.30859375 -380.55078 0.44921875Q-379.55859 0.65234375 -378.78906 0.8671875Q-378.01953 1.0820312 -377.55469 1.3789062Q-377.08984 1.6757812 -376.8125 2.140625Q-376.53516 2.6054688 -376.53516 3.3320312ZM-372.80859 5.9570312Q-374.03516 5.9570312 -374.72266 5.2890625Q-375.41016 4.6210938 -375.41016 3.4101562Q-375.41016 2.0976562 -374.55469 1.4101562Q-373.69922 0.72265625 -372.07422 0.70703125L-370.25391 0.67578125L-370.25391 0.24609375Q-370.25391 -0.58203125 -370.54297 -0.984375Q-370.83203 -1.3867188 -371.48828 -1.3867188Q-372.09766 -1.3867188 -372.38281 -1.109375Q-372.66797 -0.83203125 -372.73828 -0.19140625L-375.02734 -0.30078125Q-374.81641 -1.5351562 -373.89844 -2.171875Q-372.98047 -2.8085938 -371.39453 -2.8085938Q-369.79297 -2.8085938 -368.92578 -2.0195312Q-368.05859 -1.2304688 -368.05859 0.22265625L-368.05859 3.3007812Q-368.05859 4.0117188 -367.89844 4.28125Q-367.73828 4.5507812 -367.36328 4.5507812Q-367.11328 4.5507812 -366.87891 4.5039062L-366.87891 5.6914062Q-367.07422 5.7382812 -367.23047 5.7773438Q-367.38672 5.8164062 -367.54297 5.8398438Q-367.69922 5.8632812 -367.875 5.8789062Q-368.05078 5.8945312 -368.28516 5.8945312Q-369.11328 5.8945312 -369.50781 5.4882812Q-369.90234 5.0820312 -369.98047 4.2929688L-370.02734 4.2929688Q-370.94922 5.9570312 -372.80859 5.9570312ZM-370.25391 1.8867188L-371.37891 1.9023438Q-372.14453 1.9335938 -372.46484 2.0703125Q-372.78516 2.2070312 -372.95312 2.4882812Q-373.12109 2.7695312 -373.12109 3.2382812Q-373.12109 3.8398438 -372.84375 4.1328125Q-372.56641 4.4257812 -372.10547 4.4257812Q-371.58984 4.4257812 -371.16406 4.1445312Q-370.73828 3.8632812 -370.49609 3.3671875Q-370.25391 2.8710938 -370.25391 2.3164062L-370.25391 1.8867188ZM-365.86328 -4.1757812L-365.86328 -5.7929688L-363.66797 -5.7929688L-363.66797 -4.1757812L-365.86328 -4.1757812ZM-365.86328 5.8007812L-365.86328 -2.6523438L-363.66797 -2.6523438L-363.66797 5.8007812L-365.86328 5.8007812ZM-361.41797 5.8007812L-361.41797 -5.7929688L-359.22266 -5.7929688L-359.22266 5.8007812L-361.41797 5.8007812ZM-348.97266 1.5351562Q-348.97266 3.6523438 -349.82031 4.8046875Q-350.66797 5.9570312 -352.21484 5.9570312Q-353.10547 5.9570312 -353.76562 5.5703125Q-354.42578 5.1835938 -354.77734 4.4570312L-354.82422 4.4570312Q-354.77734 4.6914062 -354.77734 5.8789062L-354.77734 9.1210938L-356.97266 9.1210938L-356.97266 -0.70703125Q-356.97266 -1.9023438 -357.03516 -2.6523438L-354.90234 -2.6523438Q-354.86328 -2.5117188 -354.83594 -2.0976562Q-354.80859 -1.6835938 -354.80859 -1.2773438L-354.77734 -1.2773438Q-354.03516 -2.8320312 -352.07422 -2.8320312Q-350.59766 -2.8320312 -349.78516 -1.6953125Q-348.97266 -0.55859375 -348.97266 1.5351562ZM-351.26172 1.5351562Q-351.26172 -1.3085938 -353.00391 -1.3085938Q-353.87891 -1.3085938 -354.34375 -0.54296875Q-354.80859 0.22265625 -354.80859 1.5976562Q-354.80859 2.9648438 -354.34375 3.7109375Q-353.87891 4.4570312 -353.01953 4.4570312Q-351.26172 4.4570312 -351.26172 1.5351562ZM-339.16797 1.5664062Q-339.16797 3.6210938 -340.30859 4.7890625Q-341.44922 5.9570312 -343.46484 5.9570312Q-345.44141 5.9570312 -346.56641 4.7851562Q-347.69141 3.6132812 -347.69141 1.5664062Q-347.69141 -0.47265625 -346.56641 -1.640625Q-345.44141 -2.8085938 -343.41797 -2.8085938Q-341.34766 -2.8085938 -340.25781 -1.6796875Q-339.16797 -0.55078125 -339.16797 1.5664062ZM-341.46484 1.5664062Q-341.46484 0.05859375 -341.95703 -0.62109375Q-342.44922 -1.3007812 -343.38672 -1.3007812Q-345.38672 -1.3007812 -345.38672 1.5664062Q-345.38672 2.9804688 -344.89844 3.71875Q-344.41016 4.4570312 -343.48828 4.4570312Q-341.46484 4.4570312 -341.46484 1.5664062ZM-337.42578 -4.1757812L-337.42578 -5.7929688L-335.23047 -5.7929688L-335.23047 -4.1757812L-337.42578 -4.1757812ZM-337.42578 5.8007812L-337.42578 -2.6523438L-335.23047 -2.6523438L-335.23047 5.8007812L-337.42578 5.8007812ZM-327.50391 5.8007812L-327.50391 1.0585938Q-327.50391 -1.1679688 -329.01172 -1.1679688Q-329.80859 -1.1679688 -330.29688 -0.484375Q-330.78516 0.19921875 -330.78516 1.2695312L-330.78516 5.8007812L-332.98047 5.8007812L-332.98047 -0.76171875Q-332.98047 -1.4414062 -333 -1.875Q-333.01953 -2.3085938 -333.04297 -2.6523438L-330.94922 -2.6523438Q-330.92578 -2.5039062 -330.88672 -1.859375Q-330.84766 -1.2148438 -330.84766 -0.97265625L-330.81641 -0.97265625Q-330.37109 -1.9414062 -329.69922 -2.3789062Q-329.02734 -2.8164062 -328.09766 -2.8164062Q-326.75391 -2.8164062 -326.03516 -1.9882812Q-325.31641 -1.1601562 -325.31641 0.43359375L-325.31641 5.8007812L-327.50391 5.8007812ZM-321.04297 5.9414062Q-322.01172 5.9414062 -322.53516 5.4140625Q-323.05859 4.8867188 -323.05859 3.8164062L-323.05859 -1.1679688L-324.12891 -1.1679688L-324.12891 -2.6523438L-322.94922 -2.6523438L-322.26172 -4.6367188L-320.88672 -4.6367188L-320.88672 -2.6523438L-319.28516 -2.6523438L-319.28516 -1.1679688L-320.88672 -1.1679688L-320.88672 3.2226562Q-320.88672 3.8398438 -320.65234 4.1328125Q-320.41797 4.4257812 -319.92578 4.4257812Q-319.66797 4.4257812 -319.19141 4.3164062L-319.19141 5.6757812Q-320.00391 5.9414062 -321.04297 5.9414062ZM-318.37109 2.6054688L-318.37109 0.69921875L-314.30859 0.69921875L-314.30859 2.6054688L-318.37109 2.6054688ZM-304.51953 1.5664062Q-304.51953 3.6210938 -305.66016 4.7890625Q-306.80078 5.9570312 -308.81641 5.9570312Q-310.79297 5.9570312 -311.91797 4.7851562Q-313.04297 3.6132812 -313.04297 1.5664062Q-313.04297 -0.47265625 -311.91797 -1.640625Q-310.79297 -2.8085938 -308.76953 -2.8085938Q-306.69922 -2.8085938 -305.60938 -1.6796875Q-304.51953 -0.55078125 -304.51953 1.5664062ZM-306.81641 1.5664062Q-306.81641 0.05859375 -307.30859 -0.62109375Q-307.80078 -1.3007812 -308.73828 -1.3007812Q-310.73828 -1.3007812 -310.73828 1.5664062Q-310.73828 2.9804688 -310.25 3.71875Q-309.76172 4.4570312 -308.83984 4.4570312Q-306.81641 4.4570312 -306.81641 1.5664062ZM-295.65234 3.3320312Q-295.65234 4.5585938 -296.65625 5.2578125Q-297.66016 5.9570312 -299.43359 5.9570312Q-301.17578 5.9570312 -302.10156 5.40625Q-303.02734 4.8554688 -303.33203 3.6914062L-301.40234 3.4023438Q-301.23828 4.0039062 -300.83594 4.2539062Q-300.43359 4.5039062 -299.43359 4.5039062Q-298.51172 4.5039062 -298.08984 4.2695312Q-297.66797 4.0351562 -297.66797 3.5351562Q-297.66797 3.1289062 -298.00781 2.890625Q-298.34766 2.6523438 -299.16016 2.4882812Q-301.01953 2.1210938 -301.66797 1.8046875Q-302.31641 1.4882812 -302.65625 0.984375Q-302.99609 0.48046875 -302.99609 -0.25390625Q-302.99609 -1.4648438 -302.0625 -2.140625Q-301.12891 -2.8164062 -299.41797 -2.8164062Q-297.91016 -2.8164062 -296.99219 -2.2304688Q-296.07422 -1.6445312 -295.84766 -0.53515625L-297.79297 -0.33203125Q-297.88672 -0.84765625 -298.25391 -1.1015625Q-298.62109 -1.3554688 -299.41797 -1.3554688Q-300.19922 -1.3554688 -300.58984 -1.15625Q-300.98047 -0.95703125 -300.98047 -0.48828125Q-300.98047 -0.12109375 -300.67969 0.09375Q-300.37891 0.30859375 -299.66797 0.44921875Q-298.67578 0.65234375 -297.90625 0.8671875Q-297.13672 1.0820312 -296.67188 1.3789062Q-296.20703 1.6757812 -295.92969 2.140625Q-295.65234 2.6054688 -295.65234 3.3320312ZM-286.75391 3.3320312Q-286.75391 4.5585938 -287.75781 5.2578125Q-288.76172 5.9570312 -290.53516 5.9570312Q-292.27734 5.9570312 -293.20312 5.40625Q-294.12891 4.8554688 -294.43359 3.6914062L-292.50391 3.4023438Q-292.33984 4.0039062 -291.9375 4.2539062Q-291.53516 4.5039062 -290.53516 4.5039062Q-289.61328 4.5039062 -289.19141 4.2695312Q-288.76953 4.0351562 -288.76953 3.5351562Q-288.76953 3.1289062 -289.10938 2.890625Q-289.44922 2.6523438 -290.26172 2.4882812Q-292.12109 2.1210938 -292.76953 1.8046875Q-293.41797 1.4882812 -293.75781 0.984375Q-294.09766 0.48046875 -294.09766 -0.25390625Q-294.09766 -1.4648438 -293.16406 -2.140625Q-292.23047 -2.8164062 -290.51953 -2.8164062Q-289.01172 -2.8164062 -288.09375 -2.2304688Q-287.17578 -1.6445312 -286.94922 -0.53515625L-288.89453 -0.33203125Q-288.98828 -0.84765625 -289.35547 -1.1015625Q-289.72266 -1.3554688 -290.51953 -1.3554688Q-291.30078 -1.3554688 -291.69141 -1.15625Q-292.08203 -0.95703125 -292.08203 -0.48828125Q-292.08203 -0.12109375 -291.78125 0.09375Q-291.48047 0.30859375 -290.76953 0.44921875Q-289.77734 0.65234375 -289.00781 0.8671875Q-288.23828 1.0820312 -287.77344 1.3789062Q-287.30859 1.6757812 -287.03125 2.140625Q-286.75391 2.6054688 -286.75391 3.3320312ZM-285.94141 6.1210938L-283.66797 -5.7929688L-281.80859 -5.7929688L-284.04297 6.1210938L-285.94141 6.1210938ZM-277.01172 5.9570312Q-278.93359 5.9570312 -279.98047 4.8125Q-281.02734 3.6679688 -281.02734 1.6210938Q-281.02734 -0.47265625 -279.97266 -1.640625Q-278.91797 -2.8085938 -276.98047 -2.8085938Q-275.48828 -2.8085938 -274.51172 -2.0585938Q-273.53516 -1.3085938 -273.28516 0.01171875L-275.49609 0.12109375Q-275.58984 -0.52734375 -275.96484 -0.9140625Q-276.33984 -1.3007812 -277.02734 -1.3007812Q-278.72266 -1.3007812 -278.72266 1.5351562Q-278.72266 4.4570312 -276.99609 4.4570312Q-276.37109 4.4570312 -275.94922 4.0625Q-275.52734 3.6679688 -275.42578 2.8867188L-273.22266 2.9882812Q-273.33984 3.8554688 -273.84375 4.5351562Q-274.34766 5.2148438 -275.16797 5.5859375Q-275.98828 5.9570312 -277.01172 5.9570312ZM-263.60547 1.5664062Q-263.60547 3.6210938 -264.74609 4.7890625Q-265.88672 5.9570312 -267.90234 5.9570312Q-269.87891 5.9570312 -271.00391 4.7851562Q-272.12891 3.6132812 -272.12891 1.5664062Q-272.12891 -0.47265625 -271.00391 -1.640625Q-269.87891 -2.8085938 -267.85547 -2.8085938Q-265.78516 -2.8085938 -264.69531 -1.6796875Q-263.60547 -0.55078125 -263.60547 1.5664062ZM-265.90234 1.5664062Q-265.90234 0.05859375 -266.39453 -0.62109375Q-266.88672 -1.3007812 -267.82422 -1.3007812Q-269.82422 -1.3007812 -269.82422 1.5664062Q-269.82422 2.9804688 -269.33594 3.71875Q-268.84766 4.4570312 -267.92578 4.4570312Q-265.90234 4.4570312 -265.90234 1.5664062ZM-261.86328 5.8007812L-261.86328 -5.7929688L-259.66797 -5.7929688L-259.66797 5.8007812L-261.86328 5.8007812ZM-255.46484 5.9570312Q-256.69141 5.9570312 -257.37891 5.2890625Q-258.06641 4.6210938 -258.06641 3.4101562Q-258.06641 2.0976562 -257.21094 1.4101562Q-256.35547 0.72265625 -254.73047 0.70703125L-252.91016 0.67578125L-252.91016 0.24609375Q-252.91016 -0.58203125 -253.19922 -0.984375Q-253.48828 -1.3867188 -254.14453 -1.3867188Q-254.75391 -1.3867188 -255.03906 -1.109375Q-255.32422 -0.83203125 -255.39453 -0.19140625L-257.68359 -0.30078125Q-257.47266 -1.5351562 -256.55469 -2.171875Q-255.63672 -2.8085938 -254.05078 -2.8085938Q-252.44922 -2.8085938 -251.58203 -2.0195312Q-250.71484 -1.2304688 -250.71484 0.22265625L-250.71484 3.3007812Q-250.71484 4.0117188 -250.55469 4.28125Q-250.39453 4.5507812 -250.01953 4.5507812Q-249.76953 4.5507812 -249.53516 4.5039062L-249.53516 5.6914062Q-249.73047 5.7382812 -249.88672 5.7773438Q-250.04297 5.8164062 -250.19922 5.8398438Q-250.35547 5.8632812 -250.53125 5.8789062Q-250.70703 5.8945312 -250.94141 5.8945312Q-251.76953 5.8945312 -252.16406 5.4882812Q-252.55859 5.0820312 -252.63672 4.2929688L-252.68359 4.2929688Q-253.60547 5.9570312 -255.46484 5.9570312ZM-252.91016 1.8867188L-254.03516 1.9023438Q-254.80078 1.9335938 -255.12109 2.0703125Q-255.44141 2.2070312 -255.60938 2.4882812Q-255.77734 2.7695312 -255.77734 3.2382812Q-255.77734 3.8398438 -255.5 4.1328125Q-255.22266 4.4257812 -254.76172 4.4257812Q-254.24609 4.4257812 -253.82031 4.1445312Q-253.39453 3.8632812 -253.15234 3.3671875Q-252.91016 2.8710938 -252.91016 2.3164062L-252.91016 1.8867188ZM-240.51953 1.5429688Q-240.51953 3.6367188 -241.35938 4.796875Q-242.19922 5.9570312 -243.76172 5.9570312Q-244.66016 5.9570312 -245.31641 5.5664062Q-245.97266 5.1757812 -246.32422 4.4414062L-246.33984 4.4414062Q-246.33984 4.7148438 -246.375 5.1914062Q-246.41016 5.6679688 -246.44922 5.8007812L-248.58203 5.8007812Q-248.51953 5.0742188 -248.51953 3.8710938L-248.51953 -5.7929688L-246.32422 -5.7929688L-246.32422 -2.5585938L-246.35547 -1.1835938L-246.32422 -1.1835938Q-245.58203 -2.8085938 -243.62109 -2.8085938Q-242.12109 -2.8085938 -241.32031 -1.671875Q-240.51953 -0.53515625 -240.51953 1.5429688ZM-242.80859 1.5429688Q-242.80859 0.10546875 -243.23047 -0.58984375Q-243.65234 -1.2851562 -244.53516 -1.2851562Q-245.42578 -1.2851562 -245.89062 -0.5390625Q-246.35547 0.20703125 -246.35547 1.6132812Q-246.35547 2.9570312 -245.89844 3.7070312Q-245.44141 4.4570312 -244.55078 4.4570312Q-242.80859 4.4570312 -242.80859 1.5429688ZM-239.23828 2.6054688L-239.23828 0.69921875L-235.17578 0.69921875L-235.17578 2.6054688L-239.23828 2.6054688ZM-226.29297 3.3320312Q-226.29297 4.5585938 -227.29688 5.2578125Q-228.30078 5.9570312 -230.07422 5.9570312Q-231.81641 5.9570312 -232.74219 5.40625Q-233.66797 4.8554688 -233.97266 3.6914062L-232.04297 3.4023438Q-231.87891 4.0039062 -231.47656 4.2539062Q-231.07422 4.5039062 -230.07422 4.5039062Q-229.15234 4.5039062 -228.73047 4.2695312Q-228.30859 4.0351562 -228.30859 3.5351562Q-228.30859 3.1289062 -228.64844 2.890625Q-228.98828 2.6523438 -229.80078 2.4882812Q-231.66016 2.1210938 -232.30859 1.8046875Q-232.95703 1.4882812 -233.29688 0.984375Q-233.63672 0.48046875 -233.63672 -0.25390625Q-233.63672 -1.4648438 -232.70312 -2.140625Q-231.76953 -2.8164062 -230.05859 -2.8164062Q-228.55078 -2.8164062 -227.63281 -2.2304688Q-226.71484 -1.6445312 -226.48828 -0.53515625L-228.43359 -0.33203125Q-228.52734 -0.84765625 -228.89453 -1.1015625Q-229.26172 -1.3554688 -230.05859 -1.3554688Q-230.83984 -1.3554688 -231.23047 -1.15625Q-231.62109 -0.95703125 -231.62109 -0.48828125Q-231.62109 -0.12109375 -231.32031 0.09375Q-231.01953 0.30859375 -230.30859 0.44921875Q-229.31641 0.65234375 -228.54688 0.8671875Q-227.77734 1.0820312 -227.3125 1.3789062Q-226.84766 1.6757812 -226.57031 2.140625Q-226.29297 2.6054688 -226.29297 3.3320312ZM-222.56641 5.9570312Q-223.79297 5.9570312 -224.48047 5.2890625Q-225.16797 4.6210938 -225.16797 3.4101562Q-225.16797 2.0976562 -224.3125 1.4101562Q-223.45703 0.72265625 -221.83203 0.70703125L-220.01172 0.67578125L-220.01172 0.24609375Q-220.01172 -0.58203125 -220.30078 -0.984375Q-220.58984 -1.3867188 -221.24609 -1.3867188Q-221.85547 -1.3867188 -222.14062 -1.109375Q-222.42578 -0.83203125 -222.49609 -0.19140625L-224.78516 -0.30078125Q-224.57422 -1.5351562 -223.65625 -2.171875Q-222.73828 -2.8085938 -221.15234 -2.8085938Q-219.55078 -2.8085938 -218.68359 -2.0195312Q-217.81641 -1.2304688 -217.81641 0.22265625L-217.81641 3.3007812Q-217.81641 4.0117188 -217.65625 4.28125Q-217.49609 4.5507812 -217.12109 4.5507812Q-216.87109 4.5507812 -216.63672 4.5039062L-216.63672 5.6914062Q-216.83203 5.7382812 -216.98828 5.7773438Q-217.14453 5.8164062 -217.30078 5.8398438Q-217.45703 5.8632812 -217.63281 5.8789062Q-217.80859 5.8945312 -218.04297 5.8945312Q-218.87109 5.8945312 -219.26562 5.4882812Q-219.66016 5.0820312 -219.73828 4.2929688L-219.78516 4.2929688Q-220.70703 5.9570312 -222.56641 5.9570312ZM-220.01172 1.8867188L-221.13672 1.9023438Q-221.90234 1.9335938 -222.22266 2.0703125Q-222.54297 2.2070312 -222.71094 2.4882812Q-222.87891 2.7695312 -222.87891 3.2382812Q-222.87891 3.8398438 -222.60156 4.1328125Q-222.32422 4.4257812 -221.86328 4.4257812Q-221.34766 4.4257812 -220.92188 4.1445312Q-220.49609 3.8632812 -220.25391 3.3671875Q-220.01172 2.8710938 -220.01172 2.3164062L-220.01172 1.8867188ZM-213.66797 5.9570312Q-214.89453 5.9570312 -215.58203 5.2890625Q-216.26953 4.6210938 -216.26953 3.4101562Q-216.26953 2.0976562 -215.41406 1.4101562Q-214.55859 0.72265625 -212.93359 0.70703125L-211.11328 0.67578125L-211.11328 0.24609375Q-211.11328 -0.58203125 -211.40234 -0.984375Q-211.69141 -1.3867188 -212.34766 -1.3867188Q-212.95703 -1.3867188 -213.24219 -1.109375Q-213.52734 -0.83203125 -213.59766 -0.19140625L-215.88672 -0.30078125Q-215.67578 -1.5351562 -214.75781 -2.171875Q-213.83984 -2.8085938 -212.25391 -2.8085938Q-210.65234 -2.8085938 -209.78516 -2.0195312Q-208.91797 -1.2304688 -208.91797 0.22265625L-208.91797 3.3007812Q-208.91797 4.0117188 -208.75781 4.28125Q-208.59766 4.5507812 -208.22266 4.5507812Q-207.97266 4.5507812 -207.73828 4.5039062L-207.73828 5.6914062Q-207.93359 5.7382812 -208.08984 5.7773438Q-208.24609 5.8164062 -208.40234 5.8398438Q-208.55859 5.8632812 -208.73438 5.8789062Q-208.91016 5.8945312 -209.14453 5.8945312Q-209.97266 5.8945312 -210.36719 5.4882812Q-210.76172 5.0820312 -210.83984 4.2929688L-210.88672 4.2929688Q-211.80859 5.9570312 -213.66797 5.9570312ZM-211.11328 1.8867188L-212.23828 1.9023438Q-213.00391 1.9335938 -213.32422 2.0703125Q-213.64453 2.2070312 -213.8125 2.4882812Q-213.98047 2.7695312 -213.98047 3.2382812Q-213.98047 3.8398438 -213.70312 4.1328125Q-213.42578 4.4257812 -212.96484 4.4257812Q-212.44922 4.4257812 -212.02344 4.1445312Q-211.59766 3.8632812 -211.35547 3.3671875Q-211.11328 2.8710938 -211.11328 2.3164062L-211.11328 1.8867188ZM-199.59766 3.3320312Q-199.59766 4.5585938 -200.60156 5.2578125Q-201.60547 5.9570312 -203.37891 5.9570312Q-205.12109 5.9570312 -206.04688 5.40625Q-206.97266 4.8554688 -207.27734 3.6914062L-205.34766 3.4023438Q-205.18359 4.0039062 -204.78125 4.2539062Q-204.37891 4.5039062 -203.37891 4.5039062Q-202.45703 4.5039062 -202.03516 4.2695312Q-201.61328 4.0351562 -201.61328 3.5351562Q-201.61328 3.1289062 -201.95312 2.890625Q-202.29297 2.6523438 -203.10547 2.4882812Q-204.96484 2.1210938 -205.61328 1.8046875Q-206.26172 1.4882812 -206.60156 0.984375Q-206.94141 0.48046875 -206.94141 -0.25390625Q-206.94141 -1.4648438 -206.00781 -2.140625Q-205.07422 -2.8164062 -203.36328 -2.8164062Q-201.85547 -2.8164062 -200.9375 -2.2304688Q-200.01953 -1.6445312 -199.79297 -0.53515625L-201.73828 -0.33203125Q-201.83203 -0.84765625 -202.19922 -1.1015625Q-202.56641 -1.3554688 -203.36328 -1.3554688Q-204.14453 -1.3554688 -204.53516 -1.15625Q-204.92578 -0.95703125 -204.92578 -0.48828125Q-204.92578 -0.12109375 -204.625 0.09375Q-204.32422 0.30859375 -203.61328 0.44921875Q-202.62109 0.65234375 -201.85156 0.8671875Q-201.08203 1.0820312 -200.61719 1.3789062Q-200.15234 1.6757812 -199.875 2.140625Q-199.59766 2.6054688 -199.59766 3.3320312ZM-198.31641 2.6054688L-198.31641 0.69921875L-194.25391 0.69921875L-194.25391 2.6054688L-198.31641 2.6054688ZM-188.97266 5.9570312Q-190.89453 5.9570312 -191.94141 4.8125Q-192.98828 3.6679688 -192.98828 1.6210938Q-192.98828 -0.47265625 -191.93359 -1.640625Q-190.87891 -2.8085938 -188.94141 -2.8085938Q-187.44922 -2.8085938 -186.47266 -2.0585938Q-185.49609 -1.3085938 -185.24609 0.01171875L-187.45703 0.12109375Q-187.55078 -0.52734375 -187.92578 -0.9140625Q-188.30078 -1.3007812 -188.98828 -1.3007812Q-190.68359 -1.3007812 -190.68359 1.5351562Q-190.68359 4.4570312 -188.95703 4.4570312Q-188.33203 4.4570312 -187.91016 4.0625Q-187.48828 3.6679688 -187.38672 2.8867188L-185.18359 2.9882812Q-185.30078 3.8554688 -185.80469 4.5351562Q-186.30859 5.2148438 -187.12891 5.5859375Q-187.94922 5.9570312 -188.97266 5.9570312ZM-175.56641 1.5664062Q-175.56641 3.6210938 -176.70703 4.7890625Q-177.84766 5.9570312 -179.86328 5.9570312Q-181.83984 5.9570312 -182.96484 4.7851562Q-184.08984 3.6132812 -184.08984 1.5664062Q-184.08984 -0.47265625 -182.96484 -1.640625Q-181.83984 -2.8085938 -179.81641 -2.8085938Q-177.74609 -2.8085938 -176.65625 -1.6796875Q-175.56641 -0.55078125 -175.56641 1.5664062ZM-177.86328 1.5664062Q-177.86328 0.05859375 -178.35547 -0.62109375Q-178.84766 -1.3007812 -179.78516 -1.3007812Q-181.78516 -1.3007812 -181.78516 1.5664062Q-181.78516 2.9804688 -181.29688 3.71875Q-180.80859 4.4570312 -179.88672 4.4570312Q-177.86328 4.4570312 -177.86328 1.5664062ZM-168.34766 5.8007812L-168.34766 1.0585938Q-168.34766 -1.1679688 -169.85547 -1.1679688Q-170.65234 -1.1679688 -171.14062 -0.484375Q-171.62891 0.19921875 -171.62891 1.2695312L-171.62891 5.8007812L-173.82422 5.8007812L-173.82422 -0.76171875Q-173.82422 -1.4414062 -173.84375 -1.875Q-173.86328 -2.3085938 -173.88672 -2.6523438L-171.79297 -2.6523438Q-171.76953 -2.5039062 -171.73047 -1.859375Q-171.69141 -1.2148438 -171.69141 -0.97265625L-171.66016 -0.97265625Q-171.21484 -1.9414062 -170.54297 -2.3789062Q-169.87109 -2.8164062 -168.94141 -2.8164062Q-167.59766 -2.8164062 -166.87891 -1.9882812Q-166.16016 -1.1601562 -166.16016 0.43359375L-166.16016 5.8007812L-168.34766 5.8007812ZM-158.57422 5.8007812L-158.57422 1.0585938Q-158.57422 -1.1679688 -160.08203 -1.1679688Q-160.87891 -1.1679688 -161.36719 -0.484375Q-161.85547 0.19921875 -161.85547 1.2695312L-161.85547 5.8007812L-164.05078 5.8007812L-164.05078 -0.76171875Q-164.05078 -1.4414062 -164.07031 -1.875Q-164.08984 -2.3085938 -164.11328 -2.6523438L-162.01953 -2.6523438Q-161.99609 -2.5039062 -161.95703 -1.859375Q-161.91797 -1.2148438 -161.91797 -0.97265625L-161.88672 -0.97265625Q-161.44141 -1.9414062 -160.76953 -2.3789062Q-160.09766 -2.8164062 -159.16797 -2.8164062Q-157.82422 -2.8164062 -157.10547 -1.9882812Q-156.38672 -1.1601562 -156.38672 0.43359375L-156.38672 5.8007812L-158.57422 5.8007812ZM-154.76953 2.6054688L-154.76953 0.69921875L-150.70703 0.69921875L-150.70703 2.6054688L-154.76953 2.6054688ZM-140.94922 1.5429688Q-140.94922 3.6367188 -141.78906 4.796875Q-142.62891 5.9570312 -144.19141 5.9570312Q-145.08984 5.9570312 -145.74609 5.5664062Q-146.40234 5.1757812 -146.75391 4.4414062L-146.76953 4.4414062Q-146.76953 4.7148438 -146.80469 5.1914062Q-146.83984 5.6679688 -146.87891 5.8007812L-149.01172 5.8007812Q-148.94922 5.0742188 -148.94922 3.8710938L-148.94922 -5.7929688L-146.75391 -5.7929688L-146.75391 -2.5585938L-146.78516 -1.1835938L-146.75391 -1.1835938Q-146.01172 -2.8085938 -144.05078 -2.8085938Q-142.55078 -2.8085938 -141.75 -1.671875Q-140.94922 -0.53515625 -140.94922 1.5429688ZM-143.23828 1.5429688Q-143.23828 0.10546875 -143.66016 -0.58984375Q-144.08203 -1.2851562 -144.96484 -1.2851562Q-145.85547 -1.2851562 -146.32031 -0.5390625Q-146.78516 0.20703125 -146.78516 1.6132812Q-146.78516 2.9570312 -146.32812 3.7070312Q-145.87109 4.4570312 -144.98047 4.4570312Q-143.23828 4.4570312 -143.23828 1.5429688ZM-135.71484 5.9570312Q-137.62109 5.9570312 -138.64453 4.828125Q-139.66797 3.6992188 -139.66797 1.5351562Q-139.66797 -0.55859375 -138.62891 -1.6835938Q-137.58984 -2.8085938 -135.68359 -2.8085938Q-133.86328 -2.8085938 -132.90234 -1.6015625Q-131.94141 -0.39453125 -131.94141 1.9335938L-131.94141 1.9960938L-137.36328 1.9960938Q-137.36328 3.2304688 -136.90625 3.859375Q-136.44922 4.4882812 -135.60547 4.4882812Q-134.44141 4.4882812 -134.13672 3.4804688L-132.06641 3.6601562Q-132.96484 5.9570312 -135.71484 5.9570312ZM-135.71484 -1.4257812Q-136.48828 -1.4257812 -136.90625 -0.88671875Q-137.32422 -0.34765625 -137.34766 0.62109375L-134.06641 0.62109375Q-134.12891 -0.40234375 -134.55859 -0.9140625Q-134.98828 -1.4257812 -135.71484 -1.4257812ZM-129.18359 9.1210938Q-129.97266 9.1210938 -130.56641 9.0195312L-130.56641 7.4570312Q-130.15234 7.5195312 -129.80859 7.5195312Q-129.33984 7.5195312 -129.03125 7.3710938Q-128.72266 7.2226562 -128.47656 6.8789062Q-128.23047 6.5351562 -127.92578 5.7148438L-131.26953 -2.6523438L-128.94922 -2.6523438L-127.62109 1.3085938Q-127.30859 2.1601562 -126.83203 3.9179688L-126.63672 3.1757812L-126.12891 1.3398438L-124.87891 -2.6523438L-122.58203 -2.6523438L-125.92578 6.2460938Q-126.59766 7.8710938 -127.32031 8.4960938Q-128.04297 9.1210938 -129.18359 9.1210938ZM-113.34766 1.5664062Q-113.34766 3.6210938 -114.48828 4.7890625Q-115.62891 5.9570312 -117.64453 5.9570312Q-119.62109 5.9570312 -120.74609 4.7851562Q-121.87109 3.6132812 -121.87109 1.5664062Q-121.87109 -0.47265625 -120.74609 -1.640625Q-119.62109 -2.8085938 -117.59766 -2.8085938Q-115.52734 -2.8085938 -114.4375 -1.6796875Q-113.34766 -0.55078125 -113.34766 1.5664062ZM-115.64453 1.5664062Q-115.64453 0.05859375 -116.13672 -0.62109375Q-116.62891 -1.3007812 -117.56641 -1.3007812Q-119.56641 -1.3007812 -119.56641 1.5664062Q-119.56641 2.9804688 -119.07812 3.71875Q-118.58984 4.4570312 -117.66797 4.4570312Q-115.64453 4.4570312 -115.64453 1.5664062ZM-106.12891 5.8007812L-106.12891 1.0585938Q-106.12891 -1.1679688 -107.63672 -1.1679688Q-108.43359 -1.1679688 -108.92188 -0.484375Q-109.41016 0.19921875 -109.41016 1.2695312L-109.41016 5.8007812L-111.60547 5.8007812L-111.60547 -0.76171875Q-111.60547 -1.4414062 -111.625 -1.875Q-111.64453 -2.3085938 -111.66797 -2.6523438L-109.57422 -2.6523438Q-109.55078 -2.5039062 -109.51172 -1.859375Q-109.47266 -1.2148438 -109.47266 -0.97265625L-109.44141 -0.97265625Q-108.99609 -1.9414062 -108.32422 -2.3789062Q-107.65234 -2.8164062 -106.72266 -2.8164062Q-105.37891 -2.8164062 -104.66016 -1.9882812Q-103.94141 -1.1601562 -103.94141 0.43359375L-103.94141 5.8007812L-106.12891 5.8007812ZM-96.355469 5.8007812Q-96.386719 5.6835938 -96.429688 5.2109375Q-96.472656 4.7382812 -96.472656 4.4257812L-96.503906 4.4257812Q-97.214844 5.9570312 -99.207031 5.9570312Q-100.68359 5.9570312 -101.48828 4.8046875Q-102.29297 3.6523438 -102.29297 1.5820312Q-102.29297 -0.51953125 -101.44531 -1.6640625Q-100.59766 -2.8085938 -99.042969 -2.8085938Q-98.144531 -2.8085938 -97.492188 -2.4335938Q-96.839844 -2.0585938 -96.488281 -1.3164062L-96.472656 -1.3164062L-96.488281 -2.7070312L-96.488281 -5.7929688L-94.292969 -5.7929688L-94.292969 3.9570312Q-94.292969 4.7382812 -94.230469 5.8007812L-96.355469 5.8007812ZM-96.457031 1.5273438Q-96.457031 0.16015625 -96.914062 -0.578125Q-97.371094 -1.3164062 -98.261719 -1.3164062Q-99.144531 -1.3164062 -99.574219 -0.6015625Q-100.00391 0.11328125 -100.00391 1.5820312Q-100.00391 4.4570312 -98.277344 4.4570312Q-97.410156 4.4570312 -96.933594 3.6953125Q-96.457031 2.9335938 -96.457031 1.5273438ZM-89.894531 5.9414062Q-90.863281 5.9414062 -91.386719 5.4140625Q-91.910156 4.8867188 -91.910156 3.8164062L-91.910156 -1.1679688L-92.980469 -1.1679688L-92.980469 -2.6523438L-91.800781 -2.6523438L-91.113281 -4.6367188L-89.738281 -4.6367188L-89.738281 -2.6523438L-88.136719 -2.6523438L-88.136719 -1.1679688L-89.738281 -1.1679688L-89.738281 3.2226562Q-89.738281 3.8398438 -89.503906 4.1328125Q-89.269531 4.4257812 -88.777344 4.4257812Q-88.519531 4.4257812 -88.042969 4.3164062L-88.042969 5.6757812Q-88.855469 5.9414062 -89.894531 5.9414062ZM-86.730469 5.8007812L-86.730469 -0.66796875Q-86.730469 -1.3632812 -86.75 -1.828125Q-86.769531 -2.2929688 -86.792969 -2.6523438L-84.699219 -2.6523438Q-84.675781 -2.5117188 -84.636719 -1.796875Q-84.597656 -1.0820312 -84.597656 -0.84765625L-84.566406 -0.84765625Q-84.246094 -1.7382812 -83.996094 -2.1015625Q-83.746094 -2.4648438 -83.402344 -2.640625Q-83.058594 -2.8164062 -82.542969 -2.8164062Q-82.121094 -2.8164062 -81.863281 -2.6992188L-81.863281 -0.86328125Q-82.394531 -0.98046875 -82.800781 -0.98046875Q-83.621094 -0.98046875 -84.078125 -0.31640625Q-84.535156 0.34765625 -84.535156 1.6523438L-84.535156 5.8007812L-86.730469 5.8007812ZM-78.433594 -2.6523438L-78.433594 2.0898438Q-78.433594 4.3164062 -76.933594 4.3164062Q-76.136719 4.3164062 -75.648438 3.6328125Q-75.160156 2.9492188 -75.160156 1.8789062L-75.160156 -2.6523438L-72.964844 -2.6523438L-72.964844 3.9101562Q-72.964844 4.9882812 -72.902344 5.8007812L-74.996094 5.8007812Q-75.089844 4.6757812 -75.089844 4.1210938L-75.128906 4.1210938Q-75.566406 5.0820312 -76.242188 5.5195312Q-76.917969 5.9570312 -77.847656 5.9570312Q-79.191406 5.9570312 -79.910156 5.1328125Q-80.628906 4.3085938 -80.628906 2.7148438L-80.628906 -2.6523438L-78.433594 -2.6523438ZM-63.605469 3.3320312Q-63.605469 4.5585938 -64.609375 5.2578125Q-65.613281 5.9570312 -67.386719 5.9570312Q-69.128906 5.9570312 -70.054688 5.40625Q-70.980469 4.8554688 -71.285156 3.6914062L-69.355469 3.4023438Q-69.191406 4.0039062 -68.789062 4.2539062Q-68.386719 4.5039062 -67.386719 4.5039062Q-66.464844 4.5039062 -66.042969 4.2695312Q-65.621094 4.0351562 -65.621094 3.5351562Q-65.621094 3.1289062 -65.960938 2.890625Q-66.300781 2.6523438 -67.113281 2.4882812Q-68.972656 2.1210938 -69.621094 1.8046875Q-70.269531 1.4882812 -70.609375 0.984375Q-70.949219 0.48046875 -70.949219 -0.25390625Q-70.949219 -1.4648438 -70.015625 -2.140625Q-69.082031 -2.8164062 -67.371094 -2.8164062Q-65.863281 -2.8164062 -64.945312 -2.2304688Q-64.027344 -1.6445312 -63.800781 -0.53515625L-65.746094 -0.33203125Q-65.839844 -0.84765625 -66.207031 -1.1015625Q-66.574219 -1.3554688 -67.371094 -1.3554688Q-68.152344 -1.3554688 -68.542969 -1.15625Q-68.933594 -0.95703125 -68.933594 -0.48828125Q-68.933594 -0.12109375 -68.632812 0.09375Q-68.332031 0.30859375 -67.621094 0.44921875Q-66.628906 0.65234375 -65.859375 0.8671875Q-65.089844 1.0820312 -64.625 1.3789062Q-64.160156 1.6757812 -63.882812 2.140625Q-63.605469 2.6054688 -63.605469 3.3320312ZM-59.667969 5.9414062Q-60.636719 5.9414062 -61.160156 5.4140625Q-61.683594 4.8867188 -61.683594 3.8164062L-61.683594 -1.1679688L-62.753906 -1.1679688L-62.753906 -2.6523438L-61.574219 -2.6523438L-60.886719 -4.6367188L-59.511719 -4.6367188L-59.511719 -2.6523438L-57.910156 -2.6523438L-57.910156 -1.1679688L-59.511719 -1.1679688L-59.511719 3.2226562Q-59.511719 3.8398438 -59.277344 4.1328125Q-59.042969 4.4257812 -58.550781 4.4257812Q-58.292969 4.4257812 -57.816406 4.3164062L-57.816406 5.6757812Q-58.628906 5.9414062 -59.667969 5.9414062ZM-56.996094 2.6054688L-56.996094 0.69921875L-52.933594 0.69921875L-52.933594 2.6054688L-56.996094 2.6054688ZM-43.175781 1.5351562Q-43.175781 3.6523438 -44.023438 4.8046875Q-44.871094 5.9570312 -46.417969 5.9570312Q-47.308594 5.9570312 -47.96875 5.5703125Q-48.628906 5.1835938 -48.980469 4.4570312L-49.027344 4.4570312Q-48.980469 4.6914062 -48.980469 5.8789062L-48.980469 9.1210938L-51.175781 9.1210938L-51.175781 -0.70703125Q-51.175781 -1.9023438 -51.238281 -2.6523438L-49.105469 -2.6523438Q-49.066406 -2.5117188 -49.039062 -2.0976562Q-49.011719 -1.6835938 -49.011719 -1.2773438L-48.980469 -1.2773438Q-48.238281 -2.8320312 -46.277344 -2.8320312Q-44.800781 -2.8320312 -43.988281 -1.6953125Q-43.175781 -0.55859375 -43.175781 1.5351562ZM-45.464844 1.5351562Q-45.464844 -1.3085938 -47.207031 -1.3085938Q-48.082031 -1.3085938 -48.546875 -0.54296875Q-49.011719 0.22265625 -49.011719 1.5976562Q-49.011719 2.9648438 -48.546875 3.7109375Q-48.082031 4.4570312 -47.222656 4.4570312Q-45.464844 4.4570312 -45.464844 1.5351562ZM-41.402344 5.8007812L-41.402344 -0.66796875Q-41.402344 -1.3632812 -41.421875 -1.828125Q-41.441406 -2.2929688 -41.464844 -2.6523438L-39.371094 -2.6523438Q-39.347656 -2.5117188 -39.308594 -1.796875Q-39.269531 -1.0820312 -39.269531 -0.84765625L-39.238281 -0.84765625Q-38.917969 -1.7382812 -38.667969 -2.1015625Q-38.417969 -2.4648438 -38.074219 -2.640625Q-37.730469 -2.8164062 -37.214844 -2.8164062Q-36.792969 -2.8164062 -36.535156 -2.6992188L-36.535156 -0.86328125Q-37.066406 -0.98046875 -37.472656 -0.98046875Q-38.292969 -0.98046875 -38.75 -0.31640625Q-39.207031 0.34765625 -39.207031 1.6523438L-39.207031 5.8007812L-41.402344 5.8007812ZM-35.175781 -4.1757812L-35.175781 -5.7929688L-32.980469 -5.7929688L-32.980469 -4.1757812L-35.175781 -4.1757812ZM-35.175781 5.8007812L-35.175781 -2.6523438L-32.980469 -2.6523438L-32.980469 5.8007812L-35.175781 5.8007812ZM-26.136719 5.8007812L-28.761719 5.8007812L-31.785156 -2.6523438L-29.464844 -2.6523438L-27.988281 2.0742188Q-27.871094 2.4648438 -27.433594 4.0273438Q-27.355469 3.7070312 -27.113281 2.9023438Q-26.871094 2.0976562 -25.316406 -2.6523438L-23.019531 -2.6523438L-26.136719 5.8007812ZM-21.832031 -4.1757812L-21.832031 -5.7929688L-19.636719 -5.7929688L-19.636719 -4.1757812L-21.832031 -4.1757812ZM-21.832031 5.8007812L-21.832031 -2.6523438L-19.636719 -2.6523438L-19.636719 5.8007812L-21.832031 5.8007812ZM-17.386719 5.8007812L-17.386719 -5.7929688L-15.191406 -5.7929688L-15.191406 5.8007812L-17.386719 5.8007812ZM-9.4804688 5.9570312Q-11.386719 5.9570312 -12.410156 4.828125Q-13.433594 3.6992188 -13.433594 1.5351562Q-13.433594 -0.55859375 -12.394531 -1.6835938Q-11.355469 -2.8085938 -9.4492188 -2.8085938Q-7.6289062 -2.8085938 -6.6679688 -1.6015625Q-5.7070312 -0.39453125 -5.7070312 1.9335938L-5.7070312 1.9960938L-11.128906 1.9960938Q-11.128906 3.2304688 -10.671875 3.859375Q-10.214844 4.4882812 -9.3710938 4.4882812Q-8.2070312 4.4882812 -7.9023438 3.4804688L-5.8320312 3.6601562Q-6.7304688 5.9570312 -9.4804688 5.9570312ZM-9.4804688 -1.4257812Q-10.253906 -1.4257812 -10.671875 -0.88671875Q-11.089844 -0.34765625 -11.113281 0.62109375L-7.8320312 0.62109375Q-7.8945312 -0.40234375 -8.3242188 -0.9140625Q-8.7539062 -1.4257812 -9.4804688 -1.4257812ZM-0.50390625 9.1914062Q-2.0507812 9.1914062 -2.9921875 8.6015625Q-3.9335938 8.0117188 -4.1523438 6.9179688L-1.9570312 6.6601562Q-1.8398438 7.1679688 -1.453125 7.4570312Q-1.0664062 7.7460938 -0.44140625 7.7460938Q0.47265625 7.7460938 0.89453125 7.1835938Q1.3164062 6.6210938 1.3164062 5.5117188L1.3164062 5.0664062L1.3320312 4.2304688L1.3164062 4.2304688Q0.58984375 5.7851562 -1.4023438 5.7851562Q-2.8789062 5.7851562 -3.6914062 4.6757812Q-4.5039062 3.5664062 -4.5039062 1.5039062Q-4.5039062 -0.56640625 -3.6679688 -1.6914062Q-2.8320312 -2.8164062 -1.2382812 -2.8164062Q0.60546875 -2.8164062 1.3164062 -1.2929688L1.3554688 -1.2929688Q1.3554688 -1.5664062 1.390625 -2.0351562Q1.4257812 -2.5039062 1.4648438 -2.6523438L3.5429688 -2.6523438Q3.4960938 -1.8085938 3.4960938 -0.69921875L3.4960938 5.5429688Q3.4960938 7.3476562 2.4726562 8.2695312Q1.4492188 9.1914062 -0.50390625 9.1914062ZM1.3320312 1.4570312Q1.3320312 0.15234375 0.8671875 -0.578125Q0.40234375 -1.3085938 -0.45703125 -1.3085938Q-2.2148438 -1.3085938 -2.2148438 1.5039062Q-2.2148438 4.2617188 -0.47265625 4.2617188Q0.40234375 4.2617188 0.8671875 3.53125Q1.3320312 2.8007812 1.3320312 1.4570312ZM9.1914062 5.9570312Q7.2851562 5.9570312 6.2617188 4.828125Q5.2382812 3.6992188 5.2382812 1.5351562Q5.2382812 -0.55859375 6.2773438 -1.6835938Q7.3164062 -2.8085938 9.2226562 -2.8085938Q11.042969 -2.8085938 12.003906 -1.6015625Q12.964844 -0.39453125 12.964844 1.9335938L12.964844 1.9960938L7.5429688 1.9960938Q7.5429688 3.2304688 8 3.859375Q8.4570312 4.4882812 9.3007812 4.4882812Q10.464844 4.4882812 10.769531 3.4804688L12.839844 3.6601562Q11.941406 5.9570312 9.1914062 5.9570312ZM9.1914062 -1.4257812Q8.4179688 -1.4257812 8 -0.88671875Q7.5820312 -0.34765625 7.5585938 0.62109375L10.839844 0.62109375Q10.777344 -0.40234375 10.347656 -0.9140625Q9.9179688 -1.4257812 9.1914062 -1.4257812ZM14.136719 2.6054688L14.136719 0.69921875L18.199219 0.69921875L18.199219 2.6054688L14.136719 2.6054688ZM24.933594 5.8007812L24.933594 1.0585938Q24.933594 -1.1679688 23.652344 -1.1679688Q22.988281 -1.1679688 22.570312 -0.48828125Q22.152344 0.19140625 22.152344 1.2695312L22.152344 5.8007812L19.957031 5.8007812L19.957031 -0.76171875Q19.957031 -1.4414062 19.9375 -1.875Q19.917969 -2.3085938 19.894531 -2.6523438L21.988281 -2.6523438Q22.011719 -2.5039062 22.050781 -1.859375Q22.089844 -1.2148438 22.089844 -0.97265625L22.121094 -0.97265625Q22.527344 -1.9414062 23.132812 -2.3789062Q23.738281 -2.8164062 24.582031 -2.8164062Q26.519531 -2.8164062 26.933594 -0.97265625L26.980469 -0.97265625Q27.410156 -1.9570312 28.011719 -2.3867188Q28.613281 -2.8164062 29.542969 -2.8164062Q30.777344 -2.8164062 31.425781 -1.9765625Q32.074219 -1.1367188 32.074219 0.43359375L32.074219 5.8007812L29.894531 5.8007812L29.894531 1.0585938Q29.894531 -1.1679688 28.613281 -1.1679688Q27.972656 -1.1679688 27.5625 -0.546875Q27.152344 0.07421875 27.113281 1.1679688L27.113281 5.8007812L24.933594 5.8007812ZM36.136719 5.9570312Q34.910156 5.9570312 34.222656 5.2890625Q33.535156 4.6210938 33.535156 3.4101562Q33.535156 2.0976562 34.390625 1.4101562Q35.246094 0.72265625 36.871094 0.70703125L38.691406 0.67578125L38.691406 0.24609375Q38.691406 -0.58203125 38.402344 -0.984375Q38.113281 -1.3867188 37.457031 -1.3867188Q36.847656 -1.3867188 36.5625 -1.109375Q36.277344 -0.83203125 36.207031 -0.19140625L33.917969 -0.30078125Q34.128906 -1.5351562 35.046875 -2.171875Q35.964844 -2.8085938 37.550781 -2.8085938Q39.152344 -2.8085938 40.019531 -2.0195312Q40.886719 -1.2304688 40.886719 0.22265625L40.886719 3.3007812Q40.886719 4.0117188 41.046875 4.28125Q41.207031 4.5507812 41.582031 4.5507812Q41.832031 4.5507812 42.066406 4.5039062L42.066406 5.6914062Q41.871094 5.7382812 41.714844 5.7773438Q41.558594 5.8164062 41.402344 5.8398438Q41.246094 5.8632812 41.070312 5.8789062Q40.894531 5.8945312 40.660156 5.8945312Q39.832031 5.8945312 39.4375 5.4882812Q39.042969 5.0820312 38.964844 4.2929688L38.917969 4.2929688Q37.996094 5.9570312 36.136719 5.9570312ZM38.691406 1.8867188L37.566406 1.9023438Q36.800781 1.9335938 36.480469 2.0703125Q36.160156 2.2070312 35.992188 2.4882812Q35.824219 2.7695312 35.824219 3.2382812Q35.824219 3.8398438 36.101562 4.1328125Q36.378906 4.4257812 36.839844 4.4257812Q37.355469 4.4257812 37.78125 4.1445312Q38.207031 3.8632812 38.449219 3.3671875Q38.691406 2.8710938 38.691406 2.3164062L38.691406 1.8867188ZM48.558594 5.8007812L48.558594 1.0585938Q48.558594 -1.1679688 47.050781 -1.1679688Q46.253906 -1.1679688 45.765625 -0.484375Q45.277344 0.19921875 45.277344 1.2695312L45.277344 5.8007812L43.082031 5.8007812L43.082031 -0.76171875Q43.082031 -1.4414062 43.0625 -1.875Q43.042969 -2.3085938 43.019531 -2.6523438L45.113281 -2.6523438Q45.136719 -2.5039062 45.175781 -1.859375Q45.214844 -1.2148438 45.214844 -0.97265625L45.246094 -0.97265625Q45.691406 -1.9414062 46.363281 -2.3789062Q47.035156 -2.8164062 47.964844 -2.8164062Q49.308594 -2.8164062 50.027344 -1.9882812Q50.746094 -1.1601562 50.746094 0.43359375L50.746094 5.8007812L48.558594 5.8007812ZM54.808594 5.9570312Q53.582031 5.9570312 52.894531 5.2890625Q52.207031 4.6210938 52.207031 3.4101562Q52.207031 2.0976562 53.0625 1.4101562Q53.917969 0.72265625 55.542969 0.70703125L57.363281 0.67578125L57.363281 0.24609375Q57.363281 -0.58203125 57.074219 -0.984375Q56.785156 -1.3867188 56.128906 -1.3867188Q55.519531 -1.3867188 55.234375 -1.109375Q54.949219 -0.83203125 54.878906 -0.19140625L52.589844 -0.30078125Q52.800781 -1.5351562 53.71875 -2.171875Q54.636719 -2.8085938 56.222656 -2.8085938Q57.824219 -2.8085938 58.691406 -2.0195312Q59.558594 -1.2304688 59.558594 0.22265625L59.558594 3.3007812Q59.558594 4.0117188 59.71875 4.28125Q59.878906 4.5507812 60.253906 4.5507812Q60.503906 4.5507812 60.738281 4.5039062L60.738281 5.6914062Q60.542969 5.7382812 60.386719 5.7773438Q60.230469 5.8164062 60.074219 5.8398438Q59.917969 5.8632812 59.742188 5.8789062Q59.566406 5.8945312 59.332031 5.8945312Q58.503906 5.8945312 58.109375 5.4882812Q57.714844 5.0820312 57.636719 4.2929688L57.589844 4.2929688Q56.667969 5.9570312 54.808594 5.9570312ZM57.363281 1.8867188L56.238281 1.9023438Q55.472656 1.9335938 55.152344 2.0703125Q54.832031 2.2070312 54.664062 2.4882812Q54.496094 2.7695312 54.496094 3.2382812Q54.496094 3.8398438 54.773438 4.1328125Q55.050781 4.4257812 55.511719 4.4257812Q56.027344 4.4257812 56.453125 4.1445312Q56.878906 3.8632812 57.121094 3.3671875Q57.363281 2.8710938 57.363281 2.3164062L57.363281 1.8867188ZM65.292969 9.1914062Q63.746094 9.1914062 62.804688 8.6015625Q61.863281 8.0117188 61.644531 6.9179688L63.839844 6.6601562Q63.957031 7.1679688 64.34375 7.4570312Q64.730469 7.7460938 65.355469 7.7460938Q66.269531 7.7460938 66.691406 7.1835938Q67.113281 6.6210938 67.113281 5.5117188L67.113281 5.0664062L67.128906 4.2304688L67.113281 4.2304688Q66.386719 5.7851562 64.394531 5.7851562Q62.917969 5.7851562 62.105469 4.6757812Q61.292969 3.5664062 61.292969 1.5039062Q61.292969 -0.56640625 62.128906 -1.6914062Q62.964844 -2.8164062 64.558594 -2.8164062Q66.402344 -2.8164062 67.113281 -1.2929688L67.152344 -1.2929688Q67.152344 -1.5664062 67.1875 -2.0351562Q67.222656 -2.5039062 67.261719 -2.6523438L69.339844 -2.6523438Q69.292969 -1.8085938 69.292969 -0.69921875L69.292969 5.5429688Q69.292969 7.3476562 68.269531 8.2695312Q67.246094 9.1914062 65.292969 9.1914062ZM67.128906 1.4570312Q67.128906 0.15234375 66.664062 -0.578125Q66.199219 -1.3085938 65.339844 -1.3085938Q63.582031 -1.3085938 63.582031 1.5039062Q63.582031 4.2617188 65.324219 4.2617188Q66.199219 4.2617188 66.664062 3.53125Q67.128906 2.8007812 67.128906 1.4570312ZM74.988281 5.9570312Q73.082031 5.9570312 72.058594 4.828125Q71.035156 3.6992188 71.035156 1.5351562Q71.035156 -0.55859375 72.074219 -1.6835938Q73.113281 -2.8085938 75.019531 -2.8085938Q76.839844 -2.8085938 77.800781 -1.6015625Q78.761719 -0.39453125 78.761719 1.9335938L78.761719 1.9960938L73.339844 1.9960938Q73.339844 3.2304688 73.796875 3.859375Q74.253906 4.4882812 75.097656 4.4882812Q76.261719 4.4882812 76.566406 3.4804688L78.636719 3.6601562Q77.738281 5.9570312 74.988281 5.9570312ZM74.988281 -1.4257812Q74.214844 -1.4257812 73.796875 -0.88671875Q73.378906 -0.34765625 73.355469 0.62109375L76.636719 0.62109375Q76.574219 -0.40234375 76.144531 -0.9140625Q75.714844 -1.4257812 74.988281 -1.4257812ZM85.402344 5.8007812L85.402344 1.0585938Q85.402344 -1.1679688 84.121094 -1.1679688Q83.457031 -1.1679688 83.039062 -0.48828125Q82.621094 0.19140625 82.621094 1.2695312L82.621094 5.8007812L80.425781 5.8007812L80.425781 -0.76171875Q80.425781 -1.4414062 80.40625 -1.875Q80.386719 -2.3085938 80.363281 -2.6523438L82.457031 -2.6523438Q82.480469 -2.5039062 82.519531 -1.859375Q82.558594 -1.2148438 82.558594 -0.97265625L82.589844 -0.97265625Q82.996094 -1.9414062 83.601562 -2.3789062Q84.207031 -2.8164062 85.050781 -2.8164062Q86.988281 -2.8164062 87.402344 -0.97265625L87.449219 -0.97265625Q87.878906 -1.9570312 88.480469 -2.3867188Q89.082031 -2.8164062 90.011719 -2.8164062Q91.246094 -2.8164062 91.894531 -1.9765625Q92.542969 -1.1367188 92.542969 0.43359375L92.542969 5.8007812L90.363281 5.8007812L90.363281 1.0585938Q90.363281 -1.1679688 89.082031 -1.1679688Q88.441406 -1.1679688 88.03125 -0.546875Q87.621094 0.07421875 87.582031 1.1679688L87.582031 5.8007812L85.402344 5.8007812ZM98.113281 5.9570312Q96.207031 5.9570312 95.183594 4.828125Q94.160156 3.6992188 94.160156 1.5351562Q94.160156 -0.55859375 95.199219 -1.6835938Q96.238281 -2.8085938 98.144531 -2.8085938Q99.964844 -2.8085938 100.92578 -1.6015625Q101.88672 -0.39453125 101.88672 1.9335938L101.88672 1.9960938L96.464844 1.9960938Q96.464844 3.2304688 96.921875 3.859375Q97.378906 4.4882812 98.222656 4.4882812Q99.386719 4.4882812 99.691406 3.4804688L101.76172 3.6601562Q100.86328 5.9570312 98.113281 5.9570312ZM98.113281 -1.4257812Q97.339844 -1.4257812 96.921875 -0.88671875Q96.503906 -0.34765625 96.480469 0.62109375L99.761719 0.62109375Q99.699219 -0.40234375 99.269531 -0.9140625Q98.839844 -1.4257812 98.113281 -1.4257812ZM109.02734 5.8007812L109.02734 1.0585938Q109.02734 -1.1679688 107.51953 -1.1679688Q106.72266 -1.1679688 106.23438 -0.484375Q105.74609 0.19921875 105.74609 1.2695312L105.74609 5.8007812L103.55078 5.8007812L103.55078 -0.76171875Q103.55078 -1.4414062 103.53125 -1.875Q103.51172 -2.3085938 103.48828 -2.6523438L105.58203 -2.6523438Q105.60547 -2.5039062 105.64453 -1.859375Q105.68359 -1.2148438 105.68359 -0.97265625L105.71484 -0.97265625Q106.16016 -1.9414062 106.83203 -2.3789062Q107.50391 -2.8164062 108.43359 -2.8164062Q109.77734 -2.8164062 110.49609 -1.9882812Q111.21484 -1.1601562 111.21484 0.43359375L111.21484 5.8007812L109.02734 5.8007812ZM115.48828 5.9414062Q114.51953 5.9414062 113.99609 5.4140625Q113.47266 4.8867188 113.47266 3.8164062L113.47266 -1.1679688L112.40234 -1.1679688L112.40234 -2.6523438L113.58203 -2.6523438L114.26953 -4.6367188L115.64453 -4.6367188L115.64453 -2.6523438L117.24609 -2.6523438L117.24609 -1.1679688L115.64453 -1.1679688L115.64453 3.2226562Q115.64453 3.8398438 115.87891 4.1328125Q116.11328 4.4257812 116.60547 4.4257812Q116.86328 4.4257812 117.33984 4.3164062L117.33984 5.6757812Q116.52734 5.9414062 115.48828 5.9414062ZM118.16016 2.6054688L118.16016 0.69921875L122.22266 0.69921875L122.22266 2.6054688L118.16016 2.6054688ZM127.50391 5.9570312Q125.58203 5.9570312 124.53516 4.8125Q123.48828 3.6679688 123.48828 1.6210938Q123.48828 -0.47265625 124.54297 -1.640625Q125.59766 -2.8085938 127.53516 -2.8085938Q129.02734 -2.8085938 130.00391 -2.0585938Q130.98047 -1.3085938 131.23047 0.01171875L129.01953 0.12109375Q128.92578 -0.52734375 128.55078 -0.9140625Q128.17578 -1.3007812 127.48828 -1.3007812Q125.79297 -1.3007812 125.79297 1.5351562Q125.79297 4.4570312 127.51953 4.4570312Q128.14453 4.4570312 128.56641 4.0625Q128.98828 3.6679688 129.08984 2.8867188L131.29297 2.9882812Q131.17578 3.8554688 130.67188 4.5351562Q130.16797 5.2148438 129.34766 5.5859375Q128.52734 5.9570312 127.50391 5.9570312ZM132.87891 5.8007812L132.87891 -5.7929688L135.07422 -5.7929688L135.07422 5.8007812L132.87891 5.8007812ZM145.35547 1.5664062Q145.35547 3.6210938 144.21484 4.7890625Q143.07422 5.9570312 141.05859 5.9570312Q139.08203 5.9570312 137.95703 4.7851562Q136.83203 3.6132812 136.83203 1.5664062Q136.83203 -0.47265625 137.95703 -1.640625Q139.08203 -2.8085938 141.10547 -2.8085938Q143.17578 -2.8085938 144.26562 -1.6796875Q145.35547 -0.55078125 145.35547 1.5664062ZM143.05859 1.5664062Q143.05859 0.05859375 142.56641 -0.62109375Q142.07422 -1.3007812 141.13672 -1.3007812Q139.13672 -1.3007812 139.13672 1.5664062Q139.13672 2.9804688 139.625 3.71875Q140.11328 4.4570312 141.03516 4.4570312Q143.05859 4.4570312 143.05859 1.5664062ZM149.16797 -2.6523438L149.16797 2.0898438Q149.16797 4.3164062 150.66797 4.3164062Q151.46484 4.3164062 151.95312 3.6328125Q152.44141 2.9492188 152.44141 1.8789062L152.44141 -2.6523438L154.63672 -2.6523438L154.63672 3.9101562Q154.63672 4.9882812 154.69922 5.8007812L152.60547 5.8007812Q152.51172 4.6757812 152.51172 4.1210938L152.47266 4.1210938Q152.03516 5.0820312 151.35938 5.5195312Q150.68359 5.9570312 149.75391 5.9570312Q148.41016 5.9570312 147.69141 5.1328125Q146.97266 4.3085938 146.97266 2.7148438L146.97266 -2.6523438L149.16797 -2.6523438ZM162.34766 5.8007812Q162.31641 5.6835938 162.27344 5.2109375Q162.23047 4.7382812 162.23047 4.4257812L162.19922 4.4257812Q161.48828 5.9570312 159.49609 5.9570312Q158.01953 5.9570312 157.21484 4.8046875Q156.41016 3.6523438 156.41016 1.5820312Q156.41016 -0.51953125 157.25781 -1.6640625Q158.10547 -2.8085938 159.66016 -2.8085938Q160.55859 -2.8085938 161.21094 -2.4335938Q161.86328 -2.0585938 162.21484 -1.3164062L162.23047 -1.3164062L162.21484 -2.7070312L162.21484 -5.7929688L164.41016 -5.7929688L164.41016 3.9570312Q164.41016 4.7382812 164.47266 5.8007812L162.34766 5.8007812ZM162.24609 1.5273438Q162.24609 0.16015625 161.78906 -0.578125Q161.33203 -1.3164062 160.44141 -1.3164062Q159.55859 -1.3164062 159.12891 -0.6015625Q158.69922 0.11328125 158.69922 1.5820312Q158.69922 4.4570312 160.42578 4.4570312Q161.29297 4.4570312 161.76953 3.6953125Q162.24609 2.9335938 162.24609 1.5273438ZM170.59766 2.6054688L170.59766 0.69921875L174.66016 0.69921875L174.66016 2.6054688L170.59766 2.6054688ZM183.12109 -3.4257812L183.12109 -0.01953125L188.75391 -0.01953125L188.75391 1.7617188L183.12109 1.7617188L183.12109 5.8007812L180.81641 5.8007812L180.81641 -5.2070312L188.93359 -5.2070312L188.93359 -3.4257812L183.12109 -3.4257812ZM201.29297 0.24609375Q201.29297 1.9648438 200.61328 3.2695312Q199.93359 4.5742188 198.66797 5.265625Q197.40234 5.9570312 195.71484 5.9570312Q193.12109 5.9570312 191.64844 4.4296875Q190.17578 2.9023438 190.17578 0.24609375Q190.17578 -2.4023438 191.64453 -3.8867188Q193.11328 -5.3710938 195.73047 -5.3710938Q198.34766 -5.3710938 199.82031 -3.8710938Q201.29297 -2.3710938 201.29297 0.24609375ZM198.94141 0.24609375Q198.94141 -1.5351562 198.09766 -2.546875Q197.25391 -3.5585938 195.73047 -3.5585938Q194.18359 -3.5585938 193.33984 -2.5546875Q192.49609 -1.5507812 192.49609 0.24609375Q192.49609 2.0585938 193.35938 3.1015625Q194.22266 4.1445312 195.71484 4.1445312Q197.26172 4.1445312 198.10156 3.1289062Q198.94141 2.1132812 198.94141 0.24609375ZM210.59766 5.8007812L208.04297 1.6210938L205.33984 1.6210938L205.33984 5.8007812L203.03516 5.8007812L203.03516 -5.2070312L208.53516 -5.2070312Q210.50391 -5.2070312 211.57422 -4.359375Q212.64453 -3.5117188 212.64453 -1.9257812Q212.64453 -0.76953125 211.98828 0.0703125Q211.33203 0.91015625 210.21484 1.1757812L213.19141 5.8007812L210.59766 5.8007812ZM210.32422 -1.8320312Q210.32422 -3.4179688 208.29297 -3.4179688L205.33984 -3.4179688L205.33984 -0.16796875L208.35547 -0.16796875Q209.32422 -0.16796875 209.82422 -0.60546875Q210.32422 -1.0429688 210.32422 -1.8320312ZM223.73047 5.8007812L223.73047 -0.87109375Q223.73047 -1.0976562 223.73438 -1.3242188Q223.73828 -1.5507812 223.80859 -3.2695312Q223.25391 -1.1679688 222.98828 -0.33984375L221.00391 5.8007812L219.36328 5.8007812L217.37891 -0.33984375L216.54297 -3.2695312Q216.63672 -1.4570312 216.63672 -0.87109375L216.63672 5.8007812L214.58984 5.8007812L214.58984 -5.2070312L217.67578 -5.2070312L219.64453 0.94921875L219.81641 1.5429688L220.19141 3.0195312L220.68359 1.2539062L222.70703 -5.2070312L225.77734 -5.2070312L225.77734 5.8007812L223.73047 5.8007812ZM235.69922 5.8007812L234.72266 2.9882812L230.52734 2.9882812L229.55078 5.8007812L227.24609 5.8007812L231.26172 -5.2070312L233.98047 -5.2070312L237.98047 5.8007812L235.69922 5.8007812ZM232.62109 -3.5117188L232.57422 -3.3398438Q232.49609 -3.0585938 232.38672 -2.6992188Q232.27734 -2.3398438 231.04297 1.2539062L234.20703 1.2539062L233.12109 -1.9101562L232.78516 -2.9726562L232.62109 -3.5117188ZM243.25391 -3.4257812L243.25391 5.8007812L240.94922 5.8007812L240.94922 -3.4257812L237.39453 -3.4257812L237.39453 -5.2070312L246.81641 -5.2070312L246.81641 -3.4257812L243.25391 -3.4257812ZM262.31641 0.21484375Q262.31641 1.9179688 261.64844 3.1875Q260.98047 4.4570312 259.75781 5.1289062Q258.53516 5.8007812 256.95703 5.8007812L252.50391 5.8007812L252.50391 -5.2070312L256.48828 -5.2070312Q259.26953 -5.2070312 260.79297 -3.8046875Q262.31641 -2.4023438 262.31641 0.21484375ZM259.99609 0.21484375Q259.99609 -1.5585938 259.07422 -2.4921875Q258.15234 -3.4257812 256.44141 -3.4257812L254.80859 -3.4257812L254.80859 4.0195312L256.76172 4.0195312Q258.24609 4.0195312 259.12109 2.9960938Q259.99609 1.9726562 259.99609 0.21484375ZM272.13672 1.5664062Q272.13672 3.6210938 270.99609 4.7890625Q269.85547 5.9570312 267.83984 5.9570312Q265.86328 5.9570312 264.73828 4.7851562Q263.61328 3.6132812 263.61328 1.5664062Q263.61328 -0.47265625 264.73828 -1.640625Q265.86328 -2.8085938 267.88672 -2.8085938Q269.95703 -2.8085938 271.04688 -1.6796875Q272.13672 -0.55078125 272.13672 1.5664062ZM269.83984 1.5664062Q269.83984 0.05859375 269.34766 -0.62109375Q268.85547 -1.3007812 267.91797 -1.3007812Q265.91797 -1.3007812 265.91797 1.5664062Q265.91797 2.9804688 266.40625 3.71875Q266.89453 4.4570312 267.81641 4.4570312Q269.83984 4.4570312 269.83984 1.5664062ZM283.01953 5.8007812L280.69922 5.8007812L279.35547 0.64453125Q279.26172 0.29296875 278.98828 -1.0898438L278.58203 0.66015625L277.22266 5.8007812L274.90234 5.8007812L272.71484 -2.6523438L274.77734 -2.6523438L276.16797 3.8085938L276.27734 3.2304688L276.47266 2.3164062L277.80078 -2.6523438L280.15234 -2.6523438L281.44922 2.3164062Q281.55859 2.7226562 281.76953 3.8085938L281.98828 2.7773438L283.20703 -2.6523438L285.23828 -2.6523438L283.01953 5.8007812ZM291.80078 5.8007812L291.80078 1.0585938Q291.80078 -1.1679688 290.29297 -1.1679688Q289.49609 -1.1679688 289.00781 -0.484375Q288.51953 0.19921875 288.51953 1.2695312L288.51953 5.8007812L286.32422 5.8007812L286.32422 -0.76171875Q286.32422 -1.4414062 286.30469 -1.875Q286.28516 -2.3085938 286.26172 -2.6523438L288.35547 -2.6523438Q288.37891 -2.5039062 288.41797 -1.859375Q288.45703 -1.2148438 288.45703 -0.97265625L288.48828 -0.97265625Q288.93359 -1.9414062 289.60547 -2.3789062Q290.27734 -2.8164062 291.20703 -2.8164062Q292.55078 -2.8164062 293.26953 -1.9882812Q293.98828 -1.1601562 293.98828 0.43359375L293.98828 5.8007812L291.80078 5.8007812ZM296.09766 5.8007812L296.09766 -5.7929688L298.29297 -5.7929688L298.29297 5.8007812L296.09766 5.8007812ZM308.57422 1.5664062Q308.57422 3.6210938 307.43359 4.7890625Q306.29297 5.9570312 304.27734 5.9570312Q302.30078 5.9570312 301.17578 4.7851562Q300.05078 3.6132812 300.05078 1.5664062Q300.05078 -0.47265625 301.17578 -1.640625Q302.30078 -2.8085938 304.32422 -2.8085938Q306.39453 -2.8085938 307.48438 -1.6796875Q308.57422 -0.55078125 308.57422 1.5664062ZM306.27734 1.5664062Q306.27734 0.05859375 305.78516 -0.62109375Q305.29297 -1.3007812 304.35547 -1.3007812Q302.35547 -1.3007812 302.35547 1.5664062Q302.35547 2.9804688 302.84375 3.71875Q303.33203 4.4570312 304.25391 4.4570312Q306.27734 4.4570312 306.27734 1.5664062ZM312.26953 5.9570312Q311.04297 5.9570312 310.35547 5.2890625Q309.66797 4.6210938 309.66797 3.4101562Q309.66797 2.0976562 310.52344 1.4101562Q311.37891 0.72265625 313.00391 0.70703125L314.82422 0.67578125L314.82422 0.24609375Q314.82422 -0.58203125 314.53516 -0.984375Q314.24609 -1.3867188 313.58984 -1.3867188Q312.98047 -1.3867188 312.69531 -1.109375Q312.41016 -0.83203125 312.33984 -0.19140625L310.05078 -0.30078125Q310.26172 -1.5351562 311.17969 -2.171875Q312.09766 -2.8085938 313.68359 -2.8085938Q315.28516 -2.8085938 316.15234 -2.0195312Q317.01953 -1.2304688 317.01953 0.22265625L317.01953 3.3007812Q317.01953 4.0117188 317.17969 4.28125Q317.33984 4.5507812 317.71484 4.5507812Q317.96484 4.5507812 318.19922 4.5039062L318.19922 5.6914062Q318.00391 5.7382812 317.84766 5.7773438Q317.69141 5.8164062 317.53516 5.8398438Q317.37891 5.8632812 317.20312 5.8789062Q317.02734 5.8945312 316.79297 5.8945312Q315.96484 5.8945312 315.57031 5.4882812Q315.17578 5.0820312 315.09766 4.2929688L315.05078 4.2929688Q314.12891 5.9570312 312.26953 5.9570312ZM314.82422 1.8867188L313.69922 1.9023438Q312.93359 1.9335938 312.61328 2.0703125Q312.29297 2.2070312 312.125 2.4882812Q311.95703 2.7695312 311.95703 3.2382812Q311.95703 3.8398438 312.23438 4.1328125Q312.51172 4.4257812 312.97266 4.4257812Q313.48828 4.4257812 313.91406 4.1445312Q314.33984 3.8632812 314.58203 3.3671875Q314.82422 2.8710938 314.82422 2.3164062L314.82422 1.8867188ZM324.69141 5.8007812Q324.66016 5.6835938 324.61719 5.2109375Q324.57422 4.7382812 324.57422 4.4257812L324.54297 4.4257812Q323.83203 5.9570312 321.83984 5.9570312Q320.36328 5.9570312 319.55859 4.8046875Q318.75391 3.6523438 318.75391 1.5820312Q318.75391 -0.51953125 319.60156 -1.6640625Q320.44922 -2.8085938 322.00391 -2.8085938Q322.90234 -2.8085938 323.55469 -2.4335938Q324.20703 -2.0585938 324.55859 -1.3164062L324.57422 -1.3164062L324.55859 -2.7070312L324.55859 -5.7929688L326.75391 -5.7929688L326.75391 3.9570312Q326.75391 4.7382812 326.81641 5.8007812L324.69141 5.8007812ZM324.58984 1.5273438Q324.58984 0.16015625 324.13281 -0.578125Q323.67578 -1.3164062 322.78516 -1.3164062Q321.90234 -1.3164062 321.47266 -0.6015625Q321.04297 0.11328125 321.04297 1.5820312Q321.04297 4.4570312 322.76953 4.4570312Q323.63672 4.4570312 324.11328 3.6953125Q324.58984 2.9335938 324.58984 1.5273438ZM338.35547 -3.4257812L338.35547 5.8007812L336.05078 5.8007812L336.05078 -3.4257812L332.49609 -3.4257812L332.49609 -5.2070312L341.91797 -5.2070312L341.91797 -3.4257812L338.35547 -3.4257812ZM342.32422 5.8007812L342.32422 -0.66796875Q342.32422 -1.3632812 342.30469 -1.828125Q342.28516 -2.2929688 342.26172 -2.6523438L344.35547 -2.6523438Q344.37891 -2.5117188 344.41797 -1.796875Q344.45703 -1.0820312 344.45703 -0.84765625L344.48828 -0.84765625Q344.80859 -1.7382812 345.05859 -2.1015625Q345.30859 -2.4648438 345.65234 -2.640625Q345.99609 -2.8164062 346.51172 -2.8164062Q346.93359 -2.8164062 347.19141 -2.6992188L347.19141 -0.86328125Q346.66016 -0.98046875 346.25391 -0.98046875Q345.43359 -0.98046875 344.97656 -0.31640625Q344.51953 0.34765625 344.51953 1.6523438L344.51953 5.8007812L342.32422 5.8007812ZM352.01172 5.9570312Q350.10547 5.9570312 349.08203 4.828125Q348.05859 3.6992188 348.05859 1.5351562Q348.05859 -0.55859375 349.09766 -1.6835938Q350.13672 -2.8085938 352.04297 -2.8085938Q353.86328 -2.8085938 354.82422 -1.6015625Q355.78516 -0.39453125 355.78516 1.9335938L355.78516 1.9960938L350.36328 1.9960938Q350.36328 3.2304688 350.82031 3.859375Q351.27734 4.4882812 352.12109 4.4882812Q353.28516 4.4882812 353.58984 3.4804688L355.66016 3.6601562Q354.76172 5.9570312 352.01172 5.9570312ZM352.01172 -1.4257812Q351.23828 -1.4257812 350.82031 -0.88671875Q350.40234 -0.34765625 350.37891 0.62109375L353.66016 0.62109375Q353.59766 -0.40234375 353.16797 -0.9140625Q352.73828 -1.4257812 352.01172 -1.4257812ZM362.92578 5.8007812L362.92578 1.0585938Q362.92578 -1.1679688 361.41797 -1.1679688Q360.62109 -1.1679688 360.13281 -0.484375Q359.64453 0.19921875 359.64453 1.2695312L359.64453 5.8007812L357.44922 5.8007812L357.44922 -0.76171875Q357.44922 -1.4414062 357.42969 -1.875Q357.41016 -2.3085938 357.38672 -2.6523438L359.48047 -2.6523438Q359.50391 -2.5039062 359.54297 -1.859375Q359.58203 -1.2148438 359.58203 -0.97265625L359.61328 -0.97265625Q360.05859 -1.9414062 360.73047 -2.3789062Q361.40234 -2.8164062 362.33203 -2.8164062Q363.67578 -2.8164062 364.39453 -1.9882812Q365.11328 -1.1601562 365.11328 0.43359375L365.11328 5.8007812L362.92578 5.8007812ZM372.69922 5.8007812Q372.66797 5.6835938 372.625 5.2109375Q372.58203 4.7382812 372.58203 4.4257812L372.55078 4.4257812Q371.83984 5.9570312 369.84766 5.9570312Q368.37109 5.9570312 367.56641 4.8046875Q366.76172 3.6523438 366.76172 1.5820312Q366.76172 -0.51953125 367.60938 -1.6640625Q368.45703 -2.8085938 370.01172 -2.8085938Q370.91016 -2.8085938 371.5625 -2.4335938Q372.21484 -2.0585938 372.56641 -1.3164062L372.58203 -1.3164062L372.56641 -2.7070312L372.56641 -5.7929688L374.76172 -5.7929688L374.76172 3.9570312Q374.76172 4.7382812 374.82422 5.8007812L372.69922 5.8007812ZM372.59766 1.5273438Q372.59766 0.16015625 372.14062 -0.578125Q371.68359 -1.3164062 370.79297 -1.3164062Q369.91016 -1.3164062 369.48047 -0.6015625Q369.05078 0.11328125 369.05078 1.5820312Q369.05078 4.4570312 370.77734 4.4570312Q371.64453 4.4570312 372.12109 3.6953125Q372.59766 2.9335938 372.59766 1.5273438ZM384.12109 3.3320312Q384.12109 4.5585938 383.11719 5.2578125Q382.11328 5.9570312 380.33984 5.9570312Q378.59766 5.9570312 377.67188 5.40625Q376.74609 4.8554688 376.44141 3.6914062L378.37109 3.4023438Q378.53516 4.0039062 378.9375 4.2539062Q379.33984 4.5039062 380.33984 4.5039062Q381.26172 4.5039062 381.68359 4.2695312Q382.10547 4.0351562 382.10547 3.5351562Q382.10547 3.1289062 381.76562 2.890625Q381.42578 2.6523438 380.61328 2.4882812Q378.75391 2.1210938 378.10547 1.8046875Q377.45703 1.4882812 377.11719 0.984375Q376.77734 0.48046875 376.77734 -0.25390625Q376.77734 -1.4648438 377.71094 -2.140625Q378.64453 -2.8164062 380.35547 -2.8164062Q381.86328 -2.8164062 382.78125 -2.2304688Q383.69922 -1.6445312 383.92578 -0.53515625L381.98047 -0.33203125Q381.88672 -0.84765625 381.51953 -1.1015625Q381.15234 -1.3554688 380.35547 -1.3554688Q379.57422 -1.3554688 379.18359 -1.15625Q378.79297 -0.95703125 378.79297 -0.48828125Q378.79297 -0.12109375 379.09375 0.09375Q379.39453 0.30859375 380.10547 0.44921875Q381.09766 0.65234375 381.86719 0.8671875Q382.63672 1.0820312 383.10156 1.3789062Q383.56641 1.6757812 383.84375 2.140625Q384.12109 2.6054688 384.12109 3.3320312Z"/>
	<path fill="none" stroke="black" stroke-width="1" stroke-miterlimit="10" stroke-opacity="0.10196079" d="M49 749.5L1195 749.5"/>
	<clipPath id="cl_164">
		<rect y="749.20001" width="1200" height="50.799988"/>
	</clipPath>
	<g clip-path="url(#cl_164)">
		<path fill="#666" transform="translate(49.75 760.2)" d="M-12.751953 11.300586L-14 11.300586L-16.302734 4.960742L-15.177734 4.960742L-13.783203 9.085742Q-13.707031 9.320117 -13.378906 10.474414L-13.173828 9.788867L-12.945312 9.0974607L-11.503906 4.960742L-10.384766 4.960742L-12.751953 11.300586ZM-4.1386719 7.1697264Q-4.1386719 9.2380857 -4.8681641 10.327929Q-5.5976562 11.417773 -7.0214844 11.417773Q-8.4453125 11.417773 -9.1601562 10.333789Q-9.875 9.2498045 -9.875 7.1697264Q-9.875 5.0427732 -9.1806641 3.9822264Q-8.4863281 2.9216795 -6.9863281 2.9216795Q-5.5273438 2.9216795 -4.8330078 3.9939451Q-4.1386719 5.0662107 -4.1386719 7.1697264ZM-5.2109375 7.1697264Q-5.2109375 5.382617 -5.6240234 4.5798826Q-6.0371094 3.7771482 -6.9863281 3.7771482Q-7.9589844 3.7771482 -8.3837891 4.5681639Q-8.8085938 5.3591795 -8.8085938 7.1697264Q-8.8085938 8.9275389 -8.3779297 9.741992Q-7.9472656 10.556445 -7.0097656 10.556445Q-6.078125 10.556445 -5.6445312 9.7244139Q-5.2109375 8.8923826 -5.2109375 7.1697264ZM-2.5742188 11.300586L-2.5742188 10.017383L-1.4316406 10.017383L-1.4316406 11.300586L-2.5742188 11.300586ZM0.578125 11.300586L0.578125 10.404101L2.6816406 10.404101L2.6816406 4.0525389L0.81835938 5.382617L0.81835938 4.3865232L2.7695312 3.0447264L3.7421875 3.0447264L3.7421875 10.404101L5.7519531 10.404101L5.7519531 11.300586L0.578125 11.300586ZM7.4335938 11.300586L7.4335938 10.017383L8.5761719 10.017383L8.5761719 11.300586L7.4335938 11.300586ZM15.876953 7.1697264Q15.876953 9.2380857 15.147461 10.327929Q14.417969 11.417773 12.994141 11.417773Q11.570312 11.417773 10.855469 10.333789Q10.140625 9.2498045 10.140625 7.1697264Q10.140625 5.0427732 10.834961 3.9822264Q11.529297 2.9216795 13.029297 2.9216795Q14.488281 2.9216795 15.182617 3.9939451Q15.876953 5.0662107 15.876953 7.1697264ZM14.804688 7.1697264Q14.804688 5.382617 14.391602 4.5798826Q13.978516 3.7771482 13.029297 3.7771482Q12.056641 3.7771482 11.631836 4.5681639Q11.207031 5.3591795 11.207031 7.1697264Q11.207031 8.9275389 11.637695 9.741992Q12.068359 10.556445 13.005859 10.556445Q13.9375 10.556445 14.371094 9.7244139Q14.804688 8.8923826 14.804688 7.1697264Z"/>
	</g>
	<path fill="none" stroke="black" stroke-width="1" stroke-miterlimit="10" stroke-opacity="0.10196079" d="M49.5 71L49.5 750"/>
	<clipPath id="cl_166">
		<rect width="49.75" height="800"/>
	</clipPath>
	<g clip-path="url(#cl_166)">
		<path fill="#666" transform="translate(38.75 749.2)" d="M-0.46679688 -0.030273438Q-0.46679688 2.0380859 -1.1962891 3.1279297Q-1.9257812 4.2177734 -3.3496094 4.2177734Q-4.7734375 4.2177734 -5.4882812 3.1337891Q-6.203125 2.0498047 -6.203125 -0.030273438Q-6.203125 -2.1572266 -5.5087891 -3.2177734Q-4.8144531 -4.2783203 -3.3144531 -4.2783203Q-1.8554688 -4.2783203 -1.1611328 -3.2060547Q-0.46679688 -2.1337891 -0.46679688 -0.030273438ZM-1.5390625 -0.030273438Q-1.5390625 -1.8173828 -1.9521484 -2.6201172Q-2.3652344 -3.4228516 -3.3144531 -3.4228516Q-4.2871094 -3.4228516 -4.7119141 -2.6318359Q-5.1367188 -1.8408203 -5.1367188 -0.030273438Q-5.1367188 1.7275391 -4.7060547 2.5419922Q-4.2753906 3.3564453 -3.3378906 3.3564453Q-2.40625 3.3564453 -1.9726562 2.5244141Q-1.5390625 1.6923828 -1.5390625 -0.030273438Z"/>
	</g>
	<clipPath id="cl_167">
		<rect width="49.75" height="800"/>
	</clipPath>
	<g clip-path="url(#cl_167)">
		<path fill="#666" transform="translate(38.75 681.4)" d="M-5.7578125 4.1005859L-5.7578125 3.2041016L-3.6542969 3.2041016L-3.6542969 -3.1474609L-5.5175781 -1.8173828L-5.5175781 -2.8134766L-3.5664062 -4.1552734L-2.59375 -4.1552734L-2.59375 3.2041016L-0.58398438 3.2041016L-0.58398438 4.1005859L-5.7578125 4.1005859Z"/>
	</g>
	<clipPath id="cl_168">
		<rect width="49.75" height="800"/>
	</clipPath>
	<g clip-path="url(#cl_168)">
		<path fill="#666" transform="translate(38.75 613.6)" d="M-6.0683594 4.1005859L-6.0683594 3.3564453Q-5.7695312 2.6708984 -5.3388672 2.1464844Q-4.9082031 1.6220703 -4.4335938 1.1972656Q-3.9589844 0.77246094 -3.4931641 0.40917969Q-3.0273438 0.045898438 -2.6523438 -0.31738281Q-2.2773438 -0.68066406 -2.0458984 -1.0791016Q-1.8144531 -1.4775391 -1.8144531 -1.9814453Q-1.8144531 -2.6611328 -2.2128906 -3.0361328Q-2.6113281 -3.4111328 -3.3203125 -3.4111328Q-3.9941406 -3.4111328 -4.4306641 -3.0449219Q-4.8671875 -2.6787109 -4.9433594 -2.0166016L-6.0214844 -2.1162109Q-5.9042969 -3.1064453 -5.1806641 -3.6923828Q-4.4570312 -4.2783203 -3.3203125 -4.2783203Q-2.0722656 -4.2783203 -1.4013672 -3.6894531Q-0.73046875 -3.1005859 -0.73046875 -2.0166016Q-0.73046875 -1.5361328 -0.95019531 -1.0615234Q-1.1699219 -0.58691406 -1.6035156 -0.11230469Q-2.0371094 0.36230469 -3.2617188 1.3583984Q-3.9355469 1.9091797 -4.3339844 2.3515625Q-4.7324219 2.7939453 -4.9082031 3.2041016L-0.6015625 3.2041016L-0.6015625 4.1005859L-6.0683594 4.1005859Z"/>
	</g>
	<clipPath id="cl_169">
		<rect width="49.75" height="800"/>
	</clipPath>
	<g clip-path="url(#cl_169)">
		<path fill="#666" transform="translate(38.75 545.8)" d="M-0.52539062 1.8212891Q-0.52539062 2.9638672 -1.2519531 3.5908203Q-1.9785156 4.2177734 -3.3261719 4.2177734Q-4.5800781 4.2177734 -5.3271484 3.6523438Q-6.0742188 3.0869141 -6.2148438 1.9794922L-5.125 1.8798828Q-4.9140625 3.3447266 -3.3261719 3.3447266Q-2.5292969 3.3447266 -2.0751953 2.9521484Q-1.6210938 2.5595703 -1.6210938 1.7861328Q-1.6210938 1.1123047 -2.1396484 0.734375Q-2.6582031 0.35644531 -3.6367188 0.35644531L-4.234375 0.35644531L-4.234375 -0.55761719L-3.6601562 -0.55761719Q-2.7929688 -0.55761719 -2.3154297 -0.93554688Q-1.8378906 -1.3134766 -1.8378906 -1.9814453Q-1.8378906 -2.6435547 -2.2275391 -3.0273438Q-2.6171875 -3.4111328 -3.3847656 -3.4111328Q-4.0820312 -3.4111328 -4.5126953 -3.0537109Q-4.9433594 -2.6962891 -5.0136719 -2.0458984L-6.0742188 -2.1279297Q-5.9570312 -3.1416016 -5.2333984 -3.7099609Q-4.5097656 -4.2783203 -3.3730469 -4.2783203Q-2.1308594 -4.2783203 -1.4423828 -3.7011719Q-0.75390625 -3.1240234 -0.75390625 -2.0927734Q-0.75390625 -1.3017578 -1.1962891 -0.80664062Q-1.6386719 -0.31152344 -2.4824219 -0.13574219L-2.4824219 -0.11230469Q-1.5566406 -0.012695312 -1.0410156 0.50878906Q-0.52539062 1.0302734 -0.52539062 1.8212891Z"/>
	</g>
	<clipPath id="cl_16a">
		<rect width="49.75" height="800"/>
	</clipPath>
	<g clip-path="url(#cl_16a)">
		<path fill="#666" transform="translate(38.75 478)" d="M-1.5097656 2.2314453L-1.5097656 4.1005859L-2.5058594 4.1005859L-2.5058594 2.2314453L-6.3964844 2.2314453L-6.3964844 1.4111328L-2.6171875 -4.1552734L-1.5097656 -4.1552734L-1.5097656 1.3994141L-0.34960938 1.3994141L-0.34960938 2.2314453L-1.5097656 2.2314453ZM-2.5058594 -2.9658203Q-2.5175781 -2.9306641 -2.6699219 -2.6552734Q-2.8222656 -2.3798828 -2.8984375 -2.2685547L-5.0136719 0.84863281L-5.3300781 1.2822266L-5.4238281 1.3994141L-2.5058594 1.3994141L-2.5058594 -2.9658203Z"/>
	</g>
	<clipPath id="cl_16b">
		<rect width="49.75" height="800"/>
	</clipPath>
	<g clip-path="url(#cl_16b)">
		<path fill="#666" transform="translate(38.75 410.2)" d="M-0.50195312 1.4111328Q-0.50195312 2.7177734 -1.2783203 3.4677734Q-2.0546875 4.2177734 -3.4316406 4.2177734Q-4.5859375 4.2177734 -5.2949219 3.7138672Q-6.0039062 3.2099609 -6.1914062 2.2548828L-5.125 2.1318359Q-4.7910156 3.3564453 -3.4082031 3.3564453Q-2.5585938 3.3564453 -2.078125 2.84375Q-1.5976562 2.3310547 -1.5976562 1.4345703Q-1.5976562 0.65527344 -2.0810547 0.17480469Q-2.5644531 -0.30566406 -3.3847656 -0.30566406Q-3.8125 -0.30566406 -4.1816406 -0.17089844Q-4.5507812 -0.036132812 -4.9199219 0.28613281L-5.9511719 0.28613281L-5.6757812 -4.1552734L-0.98242188 -4.1552734L-0.98242188 -3.2587891L-4.7148438 -3.2587891L-4.8730469 -0.63964844Q-4.1875 -1.1669922 -3.1679688 -1.1669922Q-1.9492188 -1.1669922 -1.2255859 -0.45214844Q-0.50195312 0.26269531 -0.50195312 1.4111328Z"/>
	</g>
	<clipPath id="cl_16c">
		<rect width="49.75" height="800"/>
	</clipPath>
	<g clip-path="url(#cl_16c)">
		<path fill="#666" transform="translate(38.75 342.4)" d="M-0.52539062 1.3994141Q-0.52539062 2.7060547 -1.234375 3.4619141Q-1.9433594 4.2177734 -3.1914062 4.2177734Q-4.5859375 4.2177734 -5.3242188 3.1806641Q-6.0625 2.1435547 -6.0625 0.16308594Q-6.0625 -1.9814453 -5.2949219 -3.1298828Q-4.5273438 -4.2783203 -3.109375 -4.2783203Q-1.2402344 -4.2783203 -0.75390625 -2.5966797L-1.7617188 -2.4150391Q-2.0722656 -3.4228516 -3.1210938 -3.4228516Q-4.0234375 -3.4228516 -4.5185547 -2.5820312Q-5.0136719 -1.7412109 -5.0136719 -0.14746094Q-4.7265625 -0.68066406 -4.2050781 -0.95898438Q-3.6835938 -1.2373047 -3.0097656 -1.2373047Q-1.8671875 -1.2373047 -1.1962891 -0.52246094Q-0.52539062 0.19238281 -0.52539062 1.3994141ZM-1.5976562 1.4462891Q-1.5976562 0.54980469 -2.0371094 0.063476562Q-2.4765625 -0.42285156 -3.2617188 -0.42285156Q-4 -0.42285156 -4.4541016 0.0078125Q-4.9082031 0.43847656 -4.9082031 1.1943359Q-4.9082031 2.1494141 -4.4365234 2.7587891Q-3.9648438 3.3681641 -3.2265625 3.3681641Q-2.4648438 3.3681641 -2.03125 2.8554688Q-1.5976562 2.3427734 -1.5976562 1.4462891Z"/>
	</g>
	<clipPath id="cl_16d">
		<rect width="49.75" height="800"/>
	</clipPath>
	<g clip-path="url(#cl_16d)">
		<path fill="#666" transform="translate(38.75 274.6)" d="M-0.6015625 -3.2998047Q-1.8671875 -1.3662109 -2.3886719 -0.27050781Q-2.9101562 0.82519531 -3.1708984 1.8916016Q-3.4316406 2.9580078 -3.4316406 4.1005859L-4.5332031 4.1005859Q-4.5332031 2.5185547 -3.8623047 0.76953125Q-3.1914062 -0.97949219 -1.6210938 -3.2587891L-6.0566406 -3.2587891L-6.0566406 -4.1552734L-0.6015625 -4.1552734L-0.6015625 -3.2998047Z"/>
	</g>
	<clipPath id="cl_16e">
		<rect width="49.75" height="800"/>
	</clipPath>
	<g clip-path="url(#cl_16e)">
		<path fill="#666" transform="translate(38.75 206.8)" d="M-0.51953125 1.7978516Q-0.51953125 2.9404297 -1.2460938 3.5791016Q-1.9726562 4.2177734 -3.3320312 4.2177734Q-4.65625 4.2177734 -5.4033203 3.5908203Q-6.1503906 2.9638672 -6.1503906 1.8095703Q-6.1503906 1.0009766 -5.6875 0.45019531Q-5.2246094 -0.10058594 -4.5039062 -0.21777344L-4.5039062 -0.24121094Q-5.1777344 -0.39941406 -5.5673828 -0.92675781Q-5.9570312 -1.4541016 -5.9570312 -2.1630859Q-5.9570312 -3.1064453 -5.2509766 -3.6923828Q-4.5449219 -4.2783203 -3.3554688 -4.2783203Q-2.1367188 -4.2783203 -1.4306641 -3.7041016Q-0.72460938 -3.1298828 -0.72460938 -2.1513672Q-0.72460938 -1.4423828 -1.1171875 -0.91503906Q-1.5097656 -0.38769531 -2.1894531 -0.25292969L-2.1894531 -0.22949219Q-1.3984375 -0.10058594 -0.95898438 0.44140625Q-0.51953125 0.98339844 -0.51953125 1.7978516ZM-1.8203125 -2.0927734Q-1.8203125 -3.4931641 -3.3554688 -3.4931641Q-4.0996094 -3.4931641 -4.4892578 -3.1416016Q-4.8789062 -2.7900391 -4.8789062 -2.0927734Q-4.8789062 -1.3837891 -4.4775391 -1.0117188Q-4.0761719 -0.63964844 -3.34375 -0.63964844Q-2.5996094 -0.63964844 -2.2099609 -0.98242188Q-1.8203125 -1.3251953 -1.8203125 -2.0927734ZM-1.6152344 1.6982422Q-1.6152344 0.93066406 -2.0722656 0.54101562Q-2.5292969 0.15136719 -3.3554688 0.15136719Q-4.1582031 0.15136719 -4.609375 0.5703125Q-5.0605469 0.98925781 -5.0605469 1.7216797Q-5.0605469 3.4267578 -3.3203125 3.4267578Q-2.4589844 3.4267578 -2.0371094 3.0136719Q-1.6152344 2.6005859 -1.6152344 1.6982422Z"/>
	</g>
	<clipPath id="cl_16f">
		<rect width="49.75" height="800"/>
	</clipPath>
	<g clip-path="url(#cl_16f)">
		<path fill="#666" transform="translate(38.75 139)" d="M-0.56640625 -0.19433594Q-0.56640625 1.9326172 -1.3427734 3.0751953Q-2.1191406 4.2177734 -3.5546875 4.2177734Q-4.5214844 4.2177734 -5.1044922 3.8105469Q-5.6875 3.4033203 -5.9394531 2.4951172L-4.9316406 2.3369141Q-4.6152344 3.3681641 -3.5371094 3.3681641Q-2.6289062 3.3681641 -2.1308594 2.5244141Q-1.6328125 1.6806641 -1.609375 0.11621094Q-1.84375 0.64355469 -2.4121094 0.96289062Q-2.9804688 1.2822266 -3.6601562 1.2822266Q-4.7734375 1.2822266 -5.4414062 0.52050781Q-6.109375 -0.24121094 -6.109375 -1.5009766Q-6.109375 -2.7958984 -5.3828125 -3.5371094Q-4.65625 -4.2783203 -3.3613281 -4.2783203Q-1.984375 -4.2783203 -1.2753906 -3.2587891Q-0.56640625 -2.2392578 -0.56640625 -0.19433594ZM-1.7148438 -1.2138672Q-1.7148438 -2.2099609 -2.171875 -2.8164062Q-2.6289062 -3.4228516 -3.3964844 -3.4228516Q-4.1582031 -3.4228516 -4.5976562 -2.9042969Q-5.0371094 -2.3857422 -5.0371094 -1.5009766Q-5.0371094 -0.59863281 -4.5976562 -0.07421875Q-4.1582031 0.45019531 -3.4082031 0.45019531Q-2.9511719 0.45019531 -2.5585938 0.2421875Q-2.1660156 0.034179688 -1.9404297 -0.34667969Q-1.7148438 -0.72753906 -1.7148438 -1.2138672Z"/>
	</g>
	<clipPath id="cl_170">
		<rect width="49.75" height="800"/>
	</clipPath>
	<g clip-path="url(#cl_170)">
		<path fill="#666" transform="translate(38.75 71.2)" d="M-12.429688 4.1005859L-12.429688 3.2041016L-10.326172 3.2041016L-10.326172 -3.1474609L-12.189453 -1.8173828L-12.189453 -2.8134766L-10.238281 -4.1552734L-9.265625 -4.1552734L-9.265625 3.2041016L-7.2558594 3.2041016L-7.2558594 4.1005859L-12.429688 4.1005859ZM-0.46484375 -0.030273438Q-0.46484375 2.0380859 -1.1943359 3.1279297Q-1.9238281 4.2177734 -3.3476562 4.2177734Q-4.7714844 4.2177734 -5.4863281 3.1337891Q-6.2011719 2.0498047 -6.2011719 -0.030273438Q-6.2011719 -2.1572266 -5.5068359 -3.2177734Q-4.8125 -4.2783203 -3.3125 -4.2783203Q-1.8535156 -4.2783203 -1.1591797 -3.2060547Q-0.46484375 -2.1337891 -0.46484375 -0.030273438ZM-1.5371094 -0.030273438Q-1.5371094 -1.8173828 -1.9501953 -2.6201172Q-2.3632812 -3.4228516 -3.3125 -3.4228516Q-4.2851562 -3.4228516 -4.7099609 -2.6318359Q-5.1347656 -1.8408203 -5.1347656 -0.030273438Q-5.1347656 1.7275391 -4.7041016 2.5419922Q-4.2734375 3.3564453 -3.3359375 3.3564453Q-2.4042969 3.3564453 -1.9707031 2.5244141Q-1.5371094 1.6923828 -1.5371094 -0.030273438Z"/>
	</g>
	<clipPath id="cl_172">
		<rect x="43.75" y="65.199997" width="1156.25" height="690"/>
	</clipPath>
	<g clip-path="url(#cl_172)">
		<path fill="none" stroke="#C32222" stroke-width="2" stroke-miterlimit="10" d=""/>
	</g>
	<clipPath id="cl_173">
		<rect x="43.75" y="65.199997" width="1156.25" height="690"/>
	</clipPath>
	<g clip-path="url(#cl_173)">
		<path fill="#C32222" fill-opacity="0.2" d="M52.75 613.59998Q52.75 613.74744 52.73555 613.89404Q52.721107 614.04071 52.692352 614.18518Q52.663601 614.32977 52.620815 614.47083Q52.578033 614.61182 52.521633 614.74792Q52.465233 614.88409 52.39576 615.01404Q52.326286 615.14404 52.244404 615.2666Q52.162525 615.38916 52.069027 615.50311Q51.975533 615.61707 51.871319 615.72125Q51.767105 615.82544 51.653179 615.91895Q51.539253 616.01245 51.416706 616.09436Q51.294167 616.17627 51.164188 616.24573Q51.03421 616.31519 50.898048 616.37158Q50.76189 616.42804 50.620857 616.47083Q50.47982 616.51367 50.33527 616.54236Q50.19072 616.57117 50.044052 616.58557Q49.897381 616.59998 49.75 616.59998Q49.602619 616.59998 49.455948 616.58557Q49.309277 616.57117 49.164726 616.54236Q49.02018 616.51367 48.879143 616.47083Q48.73811 616.42804 48.601944 616.37158Q48.465782 616.31519 48.335808 616.24573Q48.205826 616.17627 48.083282 616.09436Q47.960747 616.01245 47.846817 615.91895Q47.732895 615.82544 47.628677 615.72125Q47.524467 615.61707 47.430969 615.50311Q47.337471 615.38916 47.255585 615.2666Q47.173706 615.14404 47.104233 615.0141Q47.03476 614.88409 46.978359 614.74792Q46.921963 614.61182 46.879177 614.47076Q46.836395 614.32977 46.80764 614.18518Q46.778893 614.04071 46.76445 613.89404Q46.75 613.74744 46.75 613.59998Q46.75 613.45264 46.76445 613.30591Q46.778896 613.15918 46.807648 613.01465Q46.836403 612.87012 46.879181 612.72906Q46.921963 612.58801 46.978359 612.45184Q47.03476 612.31567 47.104233 612.18573Q47.173706 612.05579 47.255585 611.93317Q47.337471 611.81067 47.430969 611.69678Q47.524467 611.58289 47.628677 611.47864Q47.732895 611.37445 47.846817 611.28094Q47.960747 611.18744 48.083282 611.10553Q48.205826 611.02368 48.335808 610.95422Q48.465782 610.88477 48.601944 610.82831Q48.73811 610.77197 48.879143 610.72913Q49.02018 610.6864 49.164726 610.65759Q49.309277 610.62891 49.455948 610.61444Q49.602619 610.59998 49.75 610.59998Q49.897381 610.59998 50.044052 610.61444Q50.19072 610.62891 50.335266 610.65759Q50.479816 610.6864 50.620853 610.72913Q50.761887 610.77191 50.898045 610.82825Q51.03421 610.8847 51.164188 610.95416Q51.294167 611.02368 51.416706 611.10547Q51.539253 611.18738 51.653179 611.28088Q51.767105 611.37439 51.871315 611.47858Q51.975533 611.58282 52.069023 611.69678Q52.162521 611.81067 52.2444 611.93311Q52.326279 612.05573 52.395756 612.18573Q52.465233 612.31567 52.521633 612.45184Q52.578033 612.58801 52.620815 612.72906Q52.663597 612.87012 52.692348 613.01465Q52.721107 613.15918 52.73555 613.30591Q52.75 613.45264 52.75 613.59998Z"/>
		<path fill="none" stroke="#C32222" stroke-width="2" stroke-miterlimit="10" d="M52.75 613.59998Q52.75 613.74744 52.73555 613.89404Q52.721107 614.04071 52.692352 614.18518Q52.663601 614.32977 52.620815 614.47083Q52.578033 614.61182 52.521633 614.74792Q52.465233 614.88409 52.39576 615.01404Q52.326286 615.14404 52.244404 615.2666Q52.162525 615.38916 52.069027 615.50311Q51.975533 615.61707 51.871319 615.72125Q51.767105 615.82544 51.653179 615.91895Q51.539253 616.01245 51.416706 616.09436Q51.294167 616.17627 51.164188 616.24573Q51.03421 616.31519 50.898048 616.37158Q50.76189 616.42804 50.620857 616.47083Q50.47982 616.51367 50.33527 616.54236Q50.19072 616.57117 50.044052 616.58557Q49.897381 616.59998 49.75 616.59998Q49.602619 616.59998 49.455948 616.58557Q49.309277 616.57117 49.164726 616.54236Q49.02018 616.51367 48.879143 616.47083Q48.73811 616.42804 48.601944 616.37158Q48.465782 616.31519 48.335808 616.24573Q48.205826 616.17627 48.083282 616.09436Q47.960747 616.01245 47.846817 615.91895Q47.732895 615.82544 47.628677 615.72125Q47.524467 615.61707 47.430969 615.50311Q47.337471 615.38916 47.255585 615.2666Q47.173706 615.14404 47.104233 615.0141Q47.03476 614.88409 46.978359 614.74792Q46.921963 614.61182 46.879177 614.47076Q46.836395 614.32977 46.80764 614.18518Q46.778893 614.04071 46.76445 613.89404Q46.75 613.74744 46.75 613.59998Q46.75 613.45264 46.76445 613.30591Q46.778896 613.15918 46.807648 613.01465Q46.836403 612.87012 46.879181 612.72906Q46.921963 612.58801 46.978359 612.45184Q47.03476 612.31567 47.104233 612.18573Q47.173706 612.05579 47.255585 611.93317Q47.337471 611.81067 47.430969 611.69678Q47.524467 611.58289 47.628677 611.47864Q47.732895 611.37445 47.846817 611.28094Q47.960747 611.18744 48.083282 611.10553Q48.205826 611.02368 48.335808 610.95422Q48.465782 610.88477 48.601944 610.82831Q48.73811 610.77197 48.879143 610.72913Q49.02018 610.6864 49.164726 610.65759Q49.309277 610.62891 49.455948 610.61444Q49.602619 610.59998 49.75 610.59998Q49.897381 610.59998 50.044052 610.61444Q50.19072 610.62891 50.335266 610.65759Q50.479816 610.6864 50.620853 610.72913Q50.761887 610.77191 50.898045 610.82825Q51.03421 610.8847 51.164188 610.95416Q51.294167 611.02368 51.416706 611.10547Q51.539253 611.18738 51.653179 611.28088Q51.767105 611.37439 51.871315 611.47858Q51.975533 611.58282 52.069023 611.69678Q52.162521 611.81067 52.2444 611.93311Q52.326279 612.05573 52.395756 612.18573Q52.465233 612.31567 52.521633 612.45184Q52.578033 612.58801 52.620815 612.72906Q52.663597 612.87012 52.692348 613.01465Q52.721107 613.15918 52.73555 613.30591Q52.75 613.45264 52.75 613.59998Z"/>
	</g>
</svg>
