<?xml version="1.0" encoding="utf-8" ?>
<svg xmlns="http://www.w3.org/2000/svg" xmlns:xlink="http://www.w3.org/1999/xlink" width="1200" height="800">
	<rect fill="white" width="1200" height="800"/>
	<path fill="none" stroke="black" stroke-width="1" stroke-miterlimit="10" stroke-opacity="0.10196079" d="M49.5 71.199997L49.5 749"/>
	<path fill="none" stroke="black" stroke-width="1" stroke-miterlimit="10" stroke-opacity="0.10196079" d="M49.5 750L49.5 757.20001"/>
	<path fill="#666" transform="translate(621.875 788.8)" d="M-26.550781 4.1005859L-28.695312 0.67285156L-31.267578 0.67285156L-31.267578 4.1005859L-32.386719 4.1005859L-32.386719 -4.1552734L-28.501953 -4.1552734Q-27.107422 -4.1552734 -26.348633 -3.53125Q-25.589844 -2.9072266 -25.589844 -1.7939453Q-25.589844 -0.87402344 -26.125977 -0.24707031Q-26.662109 0.37988281 -27.605469 0.54394531L-25.261719 4.1005859L-26.550781 4.1005859ZM-26.714844 -1.7822266Q-26.714844 -2.5029297 -27.204102 -2.8808594Q-27.693359 -3.2587891 -28.613281 -3.2587891L-31.267578 -3.2587891L-31.267578 -0.21191406L-28.566406 -0.21191406Q-27.681641 -0.21191406 -27.198242 -0.625Q-26.714844 -1.0380859 -26.714844 -1.7822266ZM-23.087891 1.1533203Q-23.087891 2.2431641 -22.636719 2.8349609Q-22.185547 3.4267578 -21.318359 3.4267578Q-20.632812 3.4267578 -20.219727 3.1513672Q-19.806641 2.8759766 -19.660156 2.4541016L-18.734375 2.7177734Q-19.302734 4.2177734 -21.318359 4.2177734Q-22.724609 4.2177734 -23.459961 3.3798828Q-24.195312 2.5419922 -24.195312 0.88964844Q-24.195312 -0.68066406 -23.459961 -1.5185547Q-22.724609 -2.3564453 -21.359375 -2.3564453Q-18.564453 -2.3564453 -18.564453 1.0126953L-18.564453 1.1533203L-23.087891 1.1533203ZM-19.654297 0.34472656Q-19.742188 -0.65722656 -20.164062 -1.1171875Q-20.585938 -1.5771484 -21.376953 -1.5771484Q-22.144531 -1.5771484 -22.592773 -1.0644531Q-23.041016 -0.55175781 -23.076172 0.34472656L-19.654297 0.34472656ZM-17.222656 4.1005859L-17.222656 -4.5947266L-16.167969 -4.5947266L-16.167969 4.1005859L-17.222656 4.1005859ZM-13.748047 1.1533203Q-13.748047 2.2431641 -13.296875 2.8349609Q-12.845703 3.4267578 -11.978516 3.4267578Q-11.292969 3.4267578 -10.879883 3.1513672Q-10.466797 2.8759766 -10.320312 2.4541016L-9.3945312 2.7177734Q-9.9628906 4.2177734 -11.978516 4.2177734Q-13.384766 4.2177734 -14.120117 3.3798828Q-14.855469 2.5419922 -14.855469 0.88964844Q-14.855469 -0.68066406 -14.120117 -1.5185547Q-13.384766 -2.3564453 -12.019531 -2.3564453Q-9.2246094 -2.3564453 -9.2246094 1.0126953L-9.2246094 1.1533203L-13.748047 1.1533203ZM-10.314453 0.34472656Q-10.402344 -0.65722656 -10.824219 -1.1171875Q-11.246094 -1.5771484 -12.037109 -1.5771484Q-12.804688 -1.5771484 -13.25293 -1.0644531Q-13.701172 -0.55175781 -13.736328 0.34472656L-10.314453 0.34472656ZM-6.265625 4.2177734Q-7.2207031 4.2177734 -7.7011719 3.7138672Q-8.1816406 3.2099609 -8.1816406 2.3310547Q-8.1816406 1.3466797 -7.5341797 0.81933594Q-6.8867188 0.29199219 -5.4453125 0.25683594L-4.0214844 0.23339844L-4.0214844 -0.11230469Q-4.0214844 -0.88574219 -4.3496094 -1.2197266Q-4.6777344 -1.5537109 -5.3808594 -1.5537109Q-6.0898438 -1.5537109 -6.4121094 -1.3134766Q-6.734375 -1.0732422 -6.7988281 -0.54589844L-7.9003906 -0.64550781Q-7.6308594 -2.3564453 -5.3574219 -2.3564453Q-4.1621094 -2.3564453 -3.5585938 -1.8085938Q-2.9550781 -1.2607422 -2.9550781 -0.22363281L-2.9550781 2.5068359Q-2.9550781 2.9755859 -2.8320312 3.2128906Q-2.7089844 3.4501953 -2.3632812 3.4501953Q-2.2109375 3.4501953 -2.0175781 3.4091797L-2.0175781 4.0654297Q-2.4160156 4.1591797 -2.8320312 4.1591797Q-3.4179688 4.1591797 -3.6845703 3.8515625Q-3.9511719 3.5439453 -3.9863281 2.8876953L-4.0214844 2.8876953Q-4.4257812 3.6142578 -4.9619141 3.9160156Q-5.4980469 4.2177734 -6.265625 4.2177734ZM-6.0253906 3.4267578Q-5.4453125 3.4267578 -4.9941406 3.1630859Q-4.5429688 2.8994141 -4.2822266 2.4394531Q-4.0214844 1.9794922 -4.0214844 1.4931641L-4.0214844 0.97167969L-5.1757812 0.99511719Q-5.9199219 1.0068359 -6.3037109 1.1474609Q-6.6875 1.2880859 -6.8925781 1.5810547Q-7.0976562 1.8740234 -7.0976562 2.3486328Q-7.0976562 2.8642578 -6.8193359 3.1455078Q-6.5410156 3.4267578 -6.0253906 3.4267578ZM3.5488281 2.3486328Q3.5488281 3.2451172 2.8720703 3.7314453Q2.1953125 4.2177734 0.9765625 4.2177734Q-0.20703125 4.2177734 -0.84863281 3.828125Q-1.4902344 3.4384766 -1.6835938 2.6123047L-0.75195312 2.4306641Q-0.6171875 2.9404297 -0.1953125 3.1777344Q0.2265625 3.4150391 0.9765625 3.4150391Q1.7792969 3.4150391 2.1513672 3.1689453Q2.5234375 2.9228516 2.5234375 2.4306641Q2.5234375 2.0556641 2.265625 1.8212891Q2.0078125 1.5869141 1.4335938 1.4345703L0.67773438 1.2353516Q-0.23046875 1.0009766 -0.61425781 0.77539062Q-0.99804688 0.54980469 -1.2148438 0.22753906Q-1.4316406 -0.094726562 -1.4316406 -0.56347656Q-1.4316406 -1.4306641 -0.81347656 -1.8847656Q-0.1953125 -2.3388672 0.98828125 -2.3388672Q2.0371094 -2.3388672 2.6552734 -1.9697266Q3.2734375 -1.6005859 3.4375 -0.78613281L2.4882812 -0.66894531Q2.4003906 -1.0908203 2.0166016 -1.3164062Q1.6328125 -1.5419922 0.98828125 -1.5419922Q0.2734375 -1.5419922 -0.06640625 -1.3251953Q-0.40625 -1.1083984 -0.40625 -0.66894531Q-0.40625 -0.39941406 -0.265625 -0.22363281Q-0.125 -0.047851562 0.15039062 0.075195312Q0.42578125 0.19824219 1.3105469 0.41503906Q2.1484375 0.62597656 2.5175781 0.8046875Q2.8867188 0.98339844 3.1005859 1.2001953Q3.3144531 1.4169922 3.4316406 1.7011719Q3.5488281 1.9853516 3.5488281 2.3486328ZM5.5996094 1.1533203Q5.5996094 2.2431641 6.0507812 2.8349609Q6.5019531 3.4267578 7.3691406 3.4267578Q8.0546875 3.4267578 8.4677734 3.1513672Q8.8808594 2.8759766 9.0273438 2.4541016L9.953125 2.7177734Q9.3847656 4.2177734 7.3691406 4.2177734Q5.9628906 4.2177734 5.2275391 3.3798828Q4.4921875 2.5419922 4.4921875 0.88964844Q4.4921875 -0.68066406 5.2275391 -1.5185547Q5.9628906 -2.3564453 7.328125 -2.3564453Q10.123047 -2.3564453 10.123047 1.0126953L10.123047 1.1533203L5.5996094 1.1533203ZM9.0332031 0.34472656Q8.9453125 -0.65722656 8.5234375 -1.1171875Q8.1015625 -1.5771484 7.3105469 -1.5771484Q6.5429688 -1.5771484 6.0947266 -1.0644531Q5.6464844 -0.55175781 5.6113281 0.34472656L9.0332031 0.34472656ZM17.992188 -3.2412109L17.992188 4.1005859L16.878906 4.1005859L16.878906 -3.2412109L14.042969 -3.2412109L14.042969 -4.1552734L20.828125 -4.1552734L20.828125 -3.2412109L17.992188 -3.2412109ZM22.199219 4.2177734Q21.244141 4.2177734 20.763672 3.7138672Q20.283203 3.2099609 20.283203 2.3310547Q20.283203 1.3466797 20.930664 0.81933594Q21.578125 0.29199219 23.019531 0.25683594L24.443359 0.23339844L24.443359 -0.11230469Q24.443359 -0.88574219 24.115234 -1.2197266Q23.787109 -1.5537109 23.083984 -1.5537109Q22.375 -1.5537109 22.052734 -1.3134766Q21.730469 -1.0732422 21.666016 -0.54589844L20.564453 -0.64550781Q20.833984 -2.3564453 23.107422 -2.3564453Q24.302734 -2.3564453 24.90625 -1.8085938Q25.509766 -1.2607422 25.509766 -0.22363281L25.509766 2.5068359Q25.509766 2.9755859 25.632812 3.2128906Q25.755859 3.4501953 26.101562 3.4501953Q26.253906 3.4501953 26.447266 3.4091797L26.447266 4.0654297Q26.048828 4.1591797 25.632812 4.1591797Q25.046875 4.1591797 24.780273 3.8515625Q24.513672 3.5439453 24.478516 2.8876953L24.443359 2.8876953Q24.039062 3.6142578 23.50293 3.9160156Q22.966797 4.2177734 22.199219 4.2177734ZM22.439453 3.4267578Q23.019531 3.4267578 23.470703 3.1630859Q23.921875 2.8994141 24.182617 2.4394531Q24.443359 1.9794922 24.443359 1.4931641L24.443359 0.97167969L23.289062 0.99511719Q22.544922 1.0068359 22.161133 1.1474609Q21.777344 1.2880859 21.572266 1.5810547Q21.367188 1.8740234 21.367188 2.3486328Q21.367188 2.8642578 21.645508 3.1455078Q21.923828 3.4267578 22.439453 3.4267578ZM29.658203 6.5908203Q28.621094 6.5908203 28.005859 6.1835938Q27.390625 5.7763672 27.214844 5.0263672L28.275391 4.8740234Q28.380859 5.3134766 28.741211 5.5507812Q29.101562 5.7880859 29.6875 5.7880859Q31.263672 5.7880859 31.263672 3.9423828L31.263672 2.9228516L31.251953 2.9228516Q30.953125 3.5322266 30.431641 3.8398438Q29.910156 4.1474609 29.212891 4.1474609Q28.046875 4.1474609 27.499023 3.3740234Q26.951172 2.6005859 26.951172 0.94238281Q26.951172 -0.73925781 27.540039 -1.5390625Q28.128906 -2.3388672 29.330078 -2.3388672Q30.003906 -2.3388672 30.499023 -2.03125Q30.994141 -1.7236328 31.263672 -1.1552734L31.275391 -1.1552734Q31.275391 -1.3310547 31.298828 -1.7646484Q31.322266 -2.1982422 31.345703 -2.2392578L32.347656 -2.2392578Q32.3125 -1.9228516 32.3125 -0.92675781L32.3125 3.9189453Q32.3125 6.5908203 29.658203 6.5908203ZM31.263672 0.93066406Q31.263672 0.15722656 31.052734 -0.40234375Q30.841797 -0.96191406 30.458008 -1.2578125Q30.074219 -1.5537109 29.587891 -1.5537109Q28.779297 -1.5537109 28.410156 -0.96777344Q28.041016 -0.38183594 28.041016 0.93066406Q28.041016 2.2314453 28.386719 2.7998047Q28.732422 3.3681641 29.570312 3.3681641Q30.068359 3.3681641 30.455078 3.0751953Q30.841797 2.7822266 31.052734 2.234375Q31.263672 1.6865234 31.263672 0.93066406Z"/>
	<path fill="none" stroke="black" stroke-width="1" stroke-miterlimit="10" stroke-opacity="0.10196079" d="M50 749.5L1194 749.5"/>
	<path fill="none" stroke="black" stroke-width="1" stroke-miterlimit="10" stroke-opacity="0.10196079" d="M41.75 749.5L49 749.5"/>
	<path fill="none" stroke="black" stroke-width="1" stroke-miterlimit="10" stroke-opacity="0.10196079" d="M50 681.5L1194 681.5"/>
	<path fill="none" stroke="black" stroke-width="1" stroke-miterlimit="10" stroke-opacity="0.10196079" d="M41.75 681.5L49 681.5"/>
	<path fill="none" stroke="black" stroke-width="1" stroke-miterlimit="10" stroke-opacity="0.10196079" d="M50 613.5L1194 613.5"/>
	<path fill="none" stroke="black" stroke-width="1" stroke-miterlimit="10" stroke-opacity="0.10196079" d="M41.75 613.5L49 613.5"/>
	<path fill="none" stroke="black" stroke-width="1" stroke-miterlimit="10" stroke-opacity="0.10196079" d="M50 545.5L1194 545.5"/>
	<path fill="none" stroke="black" stroke-width="1" stroke-miterlimit="10" stroke-opacity="0.10196079" d="M41.75 545.5L49 545.5"/>
	<path fill="none" stroke="black" stroke-width="1" stroke-miterlimit="10" stroke-opacity="0.10196079" d="M50 478.5L1194 478.5"/>
	<path fill="none" stroke="black" stroke-width="1" stroke-miterlimit="10" stroke-opacity="0.10196079" d="M41.75 478.5L49 478.5"/>
	<path fill="none" stroke="black" stroke-width="1" stroke-miterlimit="10" stroke-opacity="0.10196079" d="M50 410.5L1194 410.5"/>
	<path fill="none" stroke="black" stroke-width="1" stroke-miterlimit="10" stroke-opacity="0.10196079" d="M41.75 410.5L49 410.5"/>
	<path fill="none" stroke="black" stroke-width="1" stroke-miterlimit="10" stroke-opacity="0.10196079" d="M50 342.5L1194 342.5"/>
	<path fill="none" stroke="black" stroke-width="1" stroke-miterlimit="10" stroke-opacity="0.10196079" d="M41.75 342.5L49 342.5"/>
	<path fill="none" stroke="black" stroke-width="1" stroke-miterlimit="10" stroke-opacity="0.10196079" d="M50 274.5L1194 274.5"/>
	<path fill="none" stroke="black" stroke-width="1" stroke-miterlimit="10" stroke-opacity="0.10196079" d="M41.75 274.5L49 274.5"/>
	<path fill="none" stroke="black" stroke-width="1" stroke-miterlimit="10" stroke-opacity="0.10196079" d="M50 206.5L1194 206.5"/>
	<path fill="none" stroke="black" stroke-width="1" stroke-miterlimit="10" stroke-opacity="0.10196079" d="M41.75 206.5L49 206.5"/>
	<path fill="none" stroke="black" stroke-width="1" stroke-miterlimit="10" stroke-opacity="0.10196079" d="M50 139.5L1194 139.5"/>
	<path fill="none" stroke="black" stroke-width="1" stroke-miterlimit="10" stroke-opacity="0.10196079" d="M41.75 139.5L49 139.5"/>
	<path fill="none" stroke="black" stroke-width="1" stroke-miterlimit="10" stroke-opacity="0.10196079" d="M50 71.5L1194 71.5"/>
	<path fill="none" stroke="black" stroke-width="1" stroke-miterlimit="10" stroke-opacity="0.10196079" d="M41.75 71.5L49 71.5"/>
	<path fill="#666" transform="matrix(0 -1 1 0 11.2 410.2)" d="M-21.591797 -0.11230469Q-21.591797 1.1650391 -22.089844 2.1230469Q-22.587891 3.0810547 -23.501953 3.5908203Q-24.416016 4.1005859 -25.611328 4.1005859L-28.699219 4.1005859L-28.699219 -4.1552734L-25.96875 -4.1552734Q-23.871094 -4.1552734 -22.731445 -3.1035156Q-21.591797 -2.0517578 -21.591797 -0.11230469ZM-22.716797 -0.11230469Q-22.716797 -1.6474609 -23.557617 -2.453125Q-24.398438 -3.2587891 -25.992188 -3.2587891L-27.580078 -3.2587891L-27.580078 3.2041016L-25.740234 3.2041016Q-24.832031 3.2041016 -24.143555 2.8056641Q-23.455078 2.4072266 -23.085938 1.6572266Q-22.716797 0.90722656 -22.716797 -0.11230469ZM-14.847656 0.92480469Q-14.847656 2.5888672 -15.580078 3.4033203Q-16.3125 4.2177734 -17.707031 4.2177734Q-19.095703 4.2177734 -19.804688 3.3710938Q-20.513672 2.5244141 -20.513672 0.92480469Q-20.513672 -2.3564453 -17.671875 -2.3564453Q-16.21875 -2.3564453 -15.533203 -1.5566406Q-14.847656 -0.75683594 -14.847656 0.92480469ZM-15.955078 0.92480469Q-15.955078 -0.38769531 -16.344727 -0.98242188Q-16.734375 -1.5771484 -17.654297 -1.5771484Q-18.580078 -1.5771484 -18.993164 -0.97070312Q-19.40625 -0.36425781 -19.40625 0.92480469Q-19.40625 2.1787109 -18.999023 2.8085938Q-18.591797 3.4384766 -17.71875 3.4384766Q-16.769531 3.4384766 -16.362305 2.8291016Q-15.955078 2.2197266 -15.955078 0.92480469ZM-7.4648438 4.1005859L-8.6894531 4.1005859L-9.796875 -0.38183594L-10.007812 -1.3720703Q-10.060547 -1.1083984 -10.171875 -0.61328125Q-10.283203 -0.11816406 -11.367188 4.1005859L-12.585938 4.1005859L-14.361328 -2.2392578L-13.318359 -2.2392578L-12.246094 2.0673828Q-12.205078 2.2080078 -11.994141 3.2275391L-11.894531 2.7939453L-10.570312 -2.2392578L-9.4394531 -2.2392578L-8.3320312 2.1142578L-8.0625 3.2275391L-7.8808594 2.4130859L-6.6796875 -2.2392578L-5.6484375 -2.2392578L-7.4648438 4.1005859ZM-0.84375 4.1005859L-0.84375 0.081054688Q-0.84375 -0.54589844 -0.96679688 -0.89160156Q-1.0898438 -1.2373047 -1.359375 -1.3896484Q-1.6289062 -1.5419922 -2.1503906 -1.5419922Q-2.9121094 -1.5419922 -3.3515625 -1.0205078Q-3.7910156 -0.49902344 -3.7910156 0.42675781L-3.7910156 4.1005859L-4.8457031 4.1005859L-4.8457031 -0.88574219Q-4.8457031 -1.9931641 -4.8808594 -2.2392578L-3.8847656 -2.2392578Q-3.8789062 -2.2099609 -3.8730469 -2.0810547Q-3.8671875 -1.9521484 -3.8583984 -1.7851562Q-3.8496094 -1.6181641 -3.8378906 -1.1552734L-3.8203125 -1.1552734Q-3.4570312 -1.8115234 -2.9794922 -2.0839844Q-2.5019531 -2.3564453 -1.7929688 -2.3564453Q-0.75 -2.3564453 -0.26660156 -1.8378906Q0.21679688 -1.3193359 0.21679688 -0.12402344L0.21679688 4.1005859L-0.84375 4.1005859ZM1.8046875 4.1005859L1.8046875 -4.5947266L2.859375 -4.5947266L2.859375 4.1005859L1.8046875 4.1005859ZM9.8320312 0.92480469Q9.8320312 2.5888672 9.0996094 3.4033203Q8.3671875 4.2177734 6.9726562 4.2177734Q5.5839844 4.2177734 4.875 3.3710938Q4.1660156 2.5244141 4.1660156 0.92480469Q4.1660156 -2.3564453 7.0078125 -2.3564453Q8.4609375 -2.3564453 9.1464844 -1.5566406Q9.8320312 -0.75683594 9.8320312 0.92480469ZM8.7246094 0.92480469Q8.7246094 -0.38769531 8.3349609 -0.98242188Q7.9453125 -1.5771484 7.0253906 -1.5771484Q6.0996094 -1.5771484 5.6865234 -0.97070312Q5.2734375 -0.36425781 5.2734375 0.92480469Q5.2734375 2.1787109 5.6806641 2.8085938Q6.0878906 3.4384766 6.9609375 3.4384766Q7.9101562 3.4384766 8.3173828 2.8291016Q8.7246094 2.2197266 8.7246094 0.92480469ZM12.761719 4.2177734Q11.806641 4.2177734 11.326172 3.7138672Q10.845703 3.2099609 10.845703 2.3310547Q10.845703 1.3466797 11.493164 0.81933594Q12.140625 0.29199219 13.582031 0.25683594L15.005859 0.23339844L15.005859 -0.11230469Q15.005859 -0.88574219 14.677734 -1.2197266Q14.349609 -1.5537109 13.646484 -1.5537109Q12.9375 -1.5537109 12.615234 -1.3134766Q12.292969 -1.0732422 12.228516 -0.54589844L11.126953 -0.64550781Q11.396484 -2.3564453 13.669922 -2.3564453Q14.865234 -2.3564453 15.46875 -1.8085938Q16.072266 -1.2607422 16.072266 -0.22363281L16.072266 2.5068359Q16.072266 2.9755859 16.195312 3.2128906Q16.318359 3.4501953 16.664062 3.4501953Q16.816406 3.4501953 17.009766 3.4091797L17.009766 4.0654297Q16.611328 4.1591797 16.195312 4.1591797Q15.609375 4.1591797 15.342773 3.8515625Q15.076172 3.5439453 15.041016 2.8876953L15.005859 2.8876953Q14.601562 3.6142578 14.06543 3.9160156Q13.529297 4.2177734 12.761719 4.2177734ZM13.001953 3.4267578Q13.582031 3.4267578 14.033203 3.1630859Q14.484375 2.8994141 14.745117 2.4394531Q15.005859 1.9794922 15.005859 1.4931641L15.005859 0.97167969L13.851562 0.99511719Q13.107422 1.0068359 12.723633 1.1474609Q12.339844 1.2880859 12.134766 1.5810547Q11.929688 1.8740234 11.929688 2.3486328Q11.929688 2.8642578 12.208008 3.1455078Q12.486328 3.4267578 13.001953 3.4267578ZM21.820312 3.0810547Q21.527344 3.6904297 21.043945 3.9541016Q20.560547 4.2177734 19.845703 4.2177734Q18.644531 4.2177734 18.079102 3.4091797Q17.513672 2.6005859 17.513672 0.95996094Q17.513672 -2.3564453 19.845703 -2.3564453Q20.566406 -2.3564453 21.046875 -2.0927734Q21.527344 -1.8291016 21.820312 -1.2548828L21.832031 -1.2548828L21.820312 -1.9638672L21.820312 -4.5947266L22.875 -4.5947266L22.875 2.7939453Q22.875 3.7841797 22.910156 4.1005859L21.902344 4.1005859Q21.884766 4.0068359 21.864258 3.6669922Q21.84375 3.3271484 21.84375 3.0810547L21.820312 3.0810547ZM18.621094 0.92480469Q18.621094 2.2548828 18.972656 2.8291016Q19.324219 3.4033203 20.115234 3.4033203Q21.011719 3.4033203 21.416016 2.7822266Q21.820312 2.1611328 21.820312 0.85449219Q21.820312 -0.40527344 21.416016 -0.99121094Q21.011719 -1.5771484 20.126953 -1.5771484Q19.330078 -1.5771484 18.975586 -0.98828125Q18.621094 -0.39941406 18.621094 0.92480469ZM29.25 2.3486328Q29.25 3.2451172 28.573242 3.7314453Q27.896484 4.2177734 26.677734 4.2177734Q25.494141 4.2177734 24.852539 3.828125Q24.210938 3.4384766 24.017578 2.6123047L24.949219 2.4306641Q25.083984 2.9404297 25.505859 3.1777344Q25.927734 3.4150391 26.677734 3.4150391Q27.480469 3.4150391 27.852539 3.1689453Q28.224609 2.9228516 28.224609 2.4306641Q28.224609 2.0556641 27.966797 1.8212891Q27.708984 1.5869141 27.134766 1.4345703L26.378906 1.2353516Q25.470703 1.0009766 25.086914 0.77539062Q24.703125 0.54980469 24.486328 0.22753906Q24.269531 -0.094726562 24.269531 -0.56347656Q24.269531 -1.4306641 24.887695 -1.8847656Q25.505859 -2.3388672 26.689453 -2.3388672Q27.738281 -2.3388672 28.356445 -1.9697266Q28.974609 -1.6005859 29.138672 -0.78613281L28.189453 -0.66894531Q28.101562 -1.0908203 27.717773 -1.3164062Q27.333984 -1.5419922 26.689453 -1.5419922Q25.974609 -1.5419922 25.634766 -1.3251953Q25.294922 -1.1083984 25.294922 -0.66894531Q25.294922 -0.39941406 25.435547 -0.22363281Q25.576172 -0.047851562 25.851562 0.075195312Q26.126953 0.19824219 27.011719 0.41503906Q27.849609 0.62597656 28.21875 0.8046875Q28.587891 0.98339844 28.801758 1.2001953Q29.015625 1.4169922 29.132812 1.7011719Q29.25 1.9853516 29.25 2.3486328Z"/>
	<clipPath id="cl_203">
		<rect y="39.200001" width="1200" height="31.999996"/>
	</clipPath>
	<g clip-path="url(#cl_203)">
		<path fill="#C32222" fill-opacity="0.2" d="M569.33002 49.200001L609.33002 49.200001L609.33002 61.200001L569.33002 61.200001L569.33002 49.200001Z"/>
		<path fill="none" stroke="#C32222" stroke-width="2" stroke-miterlimit="10" d="M569.33002 49.200001L609.33002 49.200001L609.33002 61.200001L569.33002 61.200001L569.33002 49.200001Z"/>
	</g>
	<clipPath id="cl_204">
		<rect y="39.200001" width="1200" height="31.999996"/>
	</clipPath>
	<g clip-path="url(#cl_204)">
		<path fill="#666" d="M615.81635 59.300587L615.81635 58.497852L619.36127 53.775196L616.01556 53.775196L616.01556 52.960743L620.60931 52.960743L620.60931 53.763477L617.05853 58.486134L620.73236 58.486134L620.73236 59.300587L615.81635 59.300587ZM622.13275 51.613087L622.13275 50.605274L623.18744 50.605274L623.18744 51.613087L622.13275 51.613087ZM622.13275 59.300587L622.13275 52.960743L623.18744 52.960743L623.18744 59.300587L622.13275 59.300587ZM630.16595 56.101368Q630.16595 59.417774 627.83392 59.417774Q626.36908 59.417774 625.86517 58.316212L625.83588 58.316212Q625.85931 58.363087 625.85931 59.312305L625.85931 61.790821L624.80463 61.790821L624.80463 54.255665Q624.80463 53.277149 624.76947 52.960743L625.789 52.960743Q625.79486 52.98418 625.80658 53.127735Q625.8183 53.27129 625.83295 53.570118Q625.8476 53.868946 625.8476 53.980274L625.87103 53.980274Q626.15228 53.394337 626.61517 53.121876Q627.07806 52.849415 627.83392 52.849415Q629.0058 52.849415 629.58588 53.634571Q630.16595 54.419727 630.16595 56.101368ZM629.05853 56.124805Q629.05853 54.800587 628.70111 54.232227Q628.34369 53.663868 627.56439 53.663868Q626.93744 53.663868 626.58295 53.92754Q626.22845 54.191212 626.04388 54.750782Q625.85931 55.310352 625.85931 56.206837Q625.85931 57.454884 626.25775 58.04668Q626.65619 58.638477 627.55267 58.638477Q628.33783 58.638477 628.69818 58.061329Q629.05853 57.48418 629.05853 56.124805Z"/>
	</g>
	<path fill="#666" transform="translate(600 19.6)" d="M-277.42969 3.3320312Q-277.42969 4.5585938 -278.43359 5.2578125Q-279.4375 5.9570312 -281.21094 5.9570312Q-282.95312 5.9570312 -283.87891 5.40625Q-284.80469 4.8554688 -285.10938 3.6914062L-283.17969 3.4023438Q-283.01562 4.0039062 -282.61328 4.2539062Q-282.21094 4.5039062 -281.21094 4.5039062Q-280.28906 4.5039062 -279.86719 4.2695312Q-279.44531 4.0351562 -279.44531 3.5351562Q-279.44531 3.1289062 -279.78516 2.890625Q-280.125 2.6523438 -280.9375 2.4882812Q-282.79688 2.1210938 -283.44531 1.8046875Q-284.09375 1.4882812 -284.43359 0.984375Q-284.77344 0.48046875 -284.77344 -0.25390625Q-284.77344 -1.4648438 -283.83984 -2.140625Q-282.90625 -2.8164062 -281.19531 -2.8164062Q-279.6875 -2.8164062 -278.76953 -2.2304688Q-277.85156 -1.6445312 -277.625 -0.53515625L-279.57031 -0.33203125Q-279.66406 -0.84765625 -280.03125 -1.1015625Q-280.39844 -1.3554688 -281.19531 -1.3554688Q-281.97656 -1.3554688 -282.36719 -1.15625Q-282.75781 -0.95703125 -282.75781 -0.48828125Q-282.75781 -0.12109375 -282.45703 0.09375Q-282.15625 0.30859375 -281.44531 0.44921875Q-280.45312 0.65234375 -279.68359 0.8671875Q-278.91406 1.0820312 -278.44922 1.3789062Q-277.98438 1.6757812 -277.70703 2.140625Q-277.42969 2.6054688 -277.42969 3.3320312ZM-273.70312 5.9570312Q-274.92969 5.9570312 -275.61719 5.2890625Q-276.30469 4.6210938 -276.30469 3.4101562Q-276.30469 2.0976562 -275.44922 1.4101562Q-274.59375 0.72265625 -272.96875 0.70703125L-271.14844 0.67578125L-271.14844 0.24609375Q-271.14844 -0.58203125 -271.4375 -0.984375Q-271.72656 -1.3867188 -272.38281 -1.3867188Q-272.99219 -1.3867188 -273.27734 -1.109375Q-273.5625 -0.83203125 -273.63281 -0.19140625L-275.92188 -0.30078125Q-275.71094 -1.5351562 -274.79297 -2.171875Q-273.875 -2.8085938 -272.28906 -2.8085938Q-270.6875 -2.8085938 -269.82031 -2.0195312Q-268.95312 -1.2304688 -268.95312 0.22265625L-268.95312 3.3007812Q-268.95312 4.0117188 -268.79297 4.28125Q-268.63281 4.5507812 -268.25781 4.5507812Q-268.00781 4.5507812 -267.77344 4.5039062L-267.77344 5.6914062Q-267.96875 5.7382812 -268.125 5.7773438Q-268.28125 5.8164062 -268.4375 5.8398438Q-268.59375 5.8632812 -268.76953 5.8789062Q-268.94531 5.8945312 -269.17969 5.8945312Q-270.00781 5.8945312 -270.40234 5.4882812Q-270.79688 5.0820312 -270.875 4.2929688L-270.92188 4.2929688Q-271.84375 5.9570312 -273.70312 5.9570312ZM-271.14844 1.8867188L-272.27344 1.9023438Q-273.03906 1.9335938 -273.35938 2.0703125Q-273.67969 2.2070312 -273.84766 2.4882812Q-274.01562 2.7695312 -274.01562 3.2382812Q-274.01562 3.8398438 -273.73828 4.1328125Q-273.46094 4.4257812 -273 4.4257812Q-272.48438 4.4257812 -272.05859 4.1445312Q-271.63281 3.8632812 -271.39062 3.3671875Q-271.14844 2.8710938 -271.14844 2.3164062L-271.14844 1.8867188ZM-266.75781 -4.1757812L-266.75781 -5.7929688L-264.5625 -5.7929688L-264.5625 -4.1757812L-266.75781 -4.1757812ZM-266.75781 5.8007812L-266.75781 -2.6523438L-264.5625 -2.6523438L-264.5625 5.8007812L-266.75781 5.8007812ZM-262.3125 5.8007812L-262.3125 -5.7929688L-260.11719 -5.7929688L-260.11719 5.8007812L-262.3125 5.8007812ZM-249.86719 1.5351562Q-249.86719 3.6523438 -250.71484 4.8046875Q-251.5625 5.9570312 -253.10938 5.9570312Q-254 5.9570312 -254.66016 5.5703125Q-255.32031 5.1835938 -255.67188 4.4570312L-255.71875 4.4570312Q-255.67188 4.6914062 -255.67188 5.8789062L-255.67188 9.1210938L-257.86719 9.1210938L-257.86719 -0.70703125Q-257.86719 -1.9023438 -257.92969 -2.6523438L-255.79688 -2.6523438Q-255.75781 -2.5117188 -255.73047 -2.0976562Q-255.70312 -1.6835938 -255.70312 -1.2773438L-255.67188 -1.2773438Q-254.92969 -2.8320312 -252.96875 -2.8320312Q-251.49219 -2.8320312 -250.67969 -1.6953125Q-249.86719 -0.55859375 -249.86719 1.5351562ZM-252.15625 1.5351562Q-252.15625 -1.3085938 -253.89844 -1.3085938Q-254.77344 -1.3085938 -255.23828 -0.54296875Q-255.70312 0.22265625 -255.70312 1.5976562Q-255.70312 2.9648438 -255.23828 3.7109375Q-254.77344 4.4570312 -253.91406 4.4570312Q-252.15625 4.4570312 -252.15625 1.5351562ZM-240.0625 1.5664062Q-240.0625 3.6210938 -241.20312 4.7890625Q-242.34375 5.9570312 -244.35938 5.9570312Q-246.33594 5.9570312 -247.46094 4.7851562Q-248.58594 3.6132812 -248.58594 1.5664062Q-248.58594 -0.47265625 -247.46094 -1.640625Q-246.33594 -2.8085938 -244.3125 -2.8085938Q-242.24219 -2.8085938 -241.15234 -1.6796875Q-240.0625 -0.55078125 -240.0625 1.5664062ZM-242.35938 1.5664062Q-242.35938 0.05859375 -242.85156 -0.62109375Q-243.34375 -1.3007812 -244.28125 -1.3007812Q-246.28125 -1.3007812 -246.28125 1.5664062Q-246.28125 2.9804688 -245.79297 3.71875Q-245.30469 4.4570312 -244.38281 4.4570312Q-242.35938 4.4570312 -242.35938 1.5664062ZM-238.32031 -4.1757812L-238.32031 -5.7929688L-236.125 -5.7929688L-236.125 -4.1757812L-238.32031 -4.1757812ZM-238.32031 5.8007812L-238.32031 -2.6523438L-236.125 -2.6523438L-236.125 5.8007812L-238.32031 5.8007812ZM-228.39844 5.8007812L-228.39844 1.0585938Q-228.39844 -1.1679688 -229.90625 -1.1679688Q-230.70312 -1.1679688 -231.19141 -0.484375Q-231.67969 0.19921875 -231.67969 1.2695312L-231.67969 5.8007812L-233.875 5.8007812L-233.875 -0.76171875Q-233.875 -1.4414062 -233.89453 -1.875Q-233.91406 -2.3085938 -233.9375 -2.6523438L-231.84375 -2.6523438Q-231.82031 -2.5039062 -231.78125 -1.859375Q-231.74219 -1.2148438 -231.74219 -0.97265625L-231.71094 -0.97265625Q-231.26562 -1.9414062 -230.59375 -2.3789062Q-229.92188 -2.8164062 -228.99219 -2.8164062Q-227.64844 -2.8164062 -226.92969 -1.9882812Q-226.21094 -1.1601562 -226.21094 0.43359375L-226.21094 5.8007812L-228.39844 5.8007812ZM-221.9375 5.9414062Q-222.90625 5.9414062 -223.42969 5.4140625Q-223.95312 4.8867188 -223.95312 3.8164062L-223.95312 -1.1679688L-225.02344 -1.1679688L-225.02344 -2.6523438L-223.84375 -2.6523438L-223.15625 -4.6367188L-221.78125 -4.6367188L-221.78125 -2.6523438L-220.17969 -2.6523438L-220.17969 -1.1679688L-221.78125 -1.1679688L-221.78125 3.2226562Q-221.78125 3.8398438 -221.54688 4.1328125Q-221.3125 4.4257812 -220.82031 4.4257812Q-220.5625 4.4257812 -220.08594 4.3164062L-220.08594 5.6757812Q-220.89844 5.9414062 -221.9375 5.9414062ZM-219.26562 2.6054688L-219.26562 0.69921875L-215.20312 0.69921875L-215.20312 2.6054688L-219.26562 2.6054688ZM-205.41406 1.5664062Q-205.41406 3.6210938 -206.55469 4.7890625Q-207.69531 5.9570312 -209.71094 5.9570312Q-211.6875 5.9570312 -212.8125 4.7851562Q-213.9375 3.6132812 -213.9375 1.5664062Q-213.9375 -0.47265625 -212.8125 -1.640625Q-211.6875 -2.8085938 -209.66406 -2.8085938Q-207.59375 -2.8085938 -206.50391 -1.6796875Q-205.41406 -0.55078125 -205.41406 1.5664062ZM-207.71094 1.5664062Q-207.71094 0.05859375 -208.20312 -0.62109375Q-208.69531 -1.3007812 -209.63281 -1.3007812Q-211.63281 -1.3007812 -211.63281 1.5664062Q-211.63281 2.9804688 -211.14453 3.71875Q-210.65625 4.4570312 -209.73438 4.4570312Q-207.71094 4.4570312 -207.71094 1.5664062ZM-196.54688 3.3320312Q-196.54688 4.5585938 -197.55078 5.2578125Q-198.55469 5.9570312 -200.32812 5.9570312Q-202.07031 5.9570312 -202.99609 5.40625Q-203.92188 4.8554688 -204.22656 3.6914062L-202.29688 3.4023438Q-202.13281 4.0039062 -201.73047 4.2539062Q-201.32812 4.5039062 -200.32812 4.5039062Q-199.40625 4.5039062 -198.98438 4.2695312Q-198.5625 4.0351562 -198.5625 3.5351562Q-198.5625 3.1289062 -198.90234 2.890625Q-199.24219 2.6523438 -200.05469 2.4882812Q-201.91406 2.1210938 -202.5625 1.8046875Q-203.21094 1.4882812 -203.55078 0.984375Q-203.89062 0.48046875 -203.89062 -0.25390625Q-203.89062 -1.4648438 -202.95703 -2.140625Q-202.02344 -2.8164062 -200.3125 -2.8164062Q-198.80469 -2.8164062 -197.88672 -2.2304688Q-196.96875 -1.6445312 -196.74219 -0.53515625L-198.6875 -0.33203125Q-198.78125 -0.84765625 -199.14844 -1.1015625Q-199.51562 -1.3554688 -200.3125 -1.3554688Q-201.09375 -1.3554688 -201.48438 -1.15625Q-201.875 -0.95703125 -201.875 -0.48828125Q-201.875 -0.12109375 -201.57422 0.09375Q-201.27344 0.30859375 -200.5625 0.44921875Q-199.57031 0.65234375 -198.80078 0.8671875Q-198.03125 1.0820312 -197.56641 1.3789062Q-197.10156 1.6757812 -196.82422 2.140625Q-196.54688 2.6054688 -196.54688 3.3320312ZM-187.64844 3.3320312Q-187.64844 4.5585938 -188.65234 5.2578125Q-189.65625 5.9570312 -191.42969 5.9570312Q-193.17188 5.9570312 -194.09766 5.40625Q-195.02344 4.8554688 -195.32812 3.6914062L-193.39844 3.4023438Q-193.23438 4.0039062 -192.83203 4.2539062Q-192.42969 4.5039062 -191.42969 4.5039062Q-190.50781 4.5039062 -190.08594 4.2695312Q-189.66406 4.0351562 -189.66406 3.5351562Q-189.66406 3.1289062 -190.00391 2.890625Q-190.34375 2.6523438 -191.15625 2.4882812Q-193.01562 2.1210938 -193.66406 1.8046875Q-194.3125 1.4882812 -194.65234 0.984375Q-194.99219 0.48046875 -194.99219 -0.25390625Q-194.99219 -1.4648438 -194.05859 -2.140625Q-193.125 -2.8164062 -191.41406 -2.8164062Q-189.90625 -2.8164062 -188.98828 -2.2304688Q-188.07031 -1.6445312 -187.84375 -0.53515625L-189.78906 -0.33203125Q-189.88281 -0.84765625 -190.25 -1.1015625Q-190.61719 -1.3554688 -191.41406 -1.3554688Q-192.19531 -1.3554688 -192.58594 -1.15625Q-192.97656 -0.95703125 -192.97656 -0.48828125Q-192.97656 -0.12109375 -192.67578 0.09375Q-192.375 0.30859375 -191.66406 0.44921875Q-190.67188 0.65234375 -189.90234 0.8671875Q-189.13281 1.0820312 -188.66797 1.3789062Q-188.20312 1.6757812 -187.92578 2.140625Q-187.64844 2.6054688 -187.64844 3.3320312ZM-186.83594 6.1210938L-184.5625 -5.7929688L-182.70312 -5.7929688L-184.9375 6.1210938L-186.83594 6.1210938ZM-177.90625 5.9570312Q-179.82812 5.9570312 -180.875 4.8125Q-181.92188 3.6679688 -181.92188 1.6210938Q-181.92188 -0.47265625 -180.86719 -1.640625Q-179.8125 -2.8085938 -177.875 -2.8085938Q-176.38281 -2.8085938 -175.40625 -2.0585938Q-174.42969 -1.3085938 -174.17969 0.01171875L-176.39062 0.12109375Q-176.48438 -0.52734375 -176.85938 -0.9140625Q-177.23438 -1.3007812 -177.92188 -1.3007812Q-179.61719 -1.3007812 -179.61719 1.5351562Q-179.61719 4.4570312 -177.89062 4.4570312Q-177.26562 4.4570312 -176.84375 4.0625Q-176.42188 3.6679688 -176.32031 2.8867188L-174.11719 2.9882812Q-174.23438 3.8554688 -174.73828 4.5351562Q-175.24219 5.2148438 -176.0625 5.5859375Q-176.88281 5.9570312 -177.90625 5.9570312ZM-164.5 1.5664062Q-164.5 3.6210938 -165.64062 4.7890625Q-166.78125 5.9570312 -168.79688 5.9570312Q-170.77344 5.9570312 -171.89844 4.7851562Q-173.02344 3.6132812 -173.02344 1.5664062Q-173.02344 -0.47265625 -171.89844 -1.640625Q-170.77344 -2.8085938 -168.75 -2.8085938Q-166.67969 -2.8085938 -165.58984 -1.6796875Q-164.5 -0.55078125 -164.5 1.5664062ZM-166.79688 1.5664062Q-166.79688 0.05859375 -167.28906 -0.62109375Q-167.78125 -1.3007812 -168.71875 -1.3007812Q-170.71875 -1.3007812 -170.71875 1.5664062Q-170.71875 2.9804688 -170.23047 3.71875Q-169.74219 4.4570312 -168.82031 4.4570312Q-166.79688 4.4570312 -166.79688 1.5664062ZM-162.75781 5.8007812L-162.75781 -5.7929688L-160.5625 -5.7929688L-160.5625 5.8007812L-162.75781 5.8007812ZM-156.35938 5.9570312Q-157.58594 5.9570312 -158.27344 5.2890625Q-158.96094 4.6210938 -158.96094 3.4101562Q-158.96094 2.0976562 -158.10547 1.4101562Q-157.25 0.72265625 -155.625 0.70703125L-153.80469 0.67578125L-153.80469 0.24609375Q-153.80469 -0.58203125 -154.09375 -0.984375Q-154.38281 -1.3867188 -155.03906 -1.3867188Q-155.64844 -1.3867188 -155.93359 -1.109375Q-156.21875 -0.83203125 -156.28906 -0.19140625L-158.57812 -0.30078125Q-158.36719 -1.5351562 -157.44922 -2.171875Q-156.53125 -2.8085938 -154.94531 -2.8085938Q-153.34375 -2.8085938 -152.47656 -2.0195312Q-151.60938 -1.2304688 -151.60938 0.22265625L-151.60938 3.3007812Q-151.60938 4.0117188 -151.44922 4.28125Q-151.28906 4.5507812 -150.91406 4.5507812Q-150.66406 4.5507812 -150.42969 4.5039062L-150.42969 5.6914062Q-150.625 5.7382812 -150.78125 5.7773438Q-150.9375 5.8164062 -151.09375 5.8398438Q-151.25 5.8632812 -151.42578 5.8789062Q-151.60156 5.8945312 -151.83594 5.8945312Q-152.66406 5.8945312 -153.05859 5.4882812Q-153.45312 5.0820312 -153.53125 4.2929688L-153.57812 4.2929688Q-154.5 5.9570312 -156.35938 5.9570312ZM-153.80469 1.8867188L-154.92969 1.9023438Q-155.69531 1.9335938 -156.01562 2.0703125Q-156.33594 2.2070312 -156.50391 2.4882812Q-156.67188 2.7695312 -156.67188 3.2382812Q-156.67188 3.8398438 -156.39453 4.1328125Q-156.11719 4.4257812 -155.65625 4.4257812Q-155.14062 4.4257812 -154.71484 4.1445312Q-154.28906 3.8632812 -154.04688 3.3671875Q-153.80469 2.8710938 -153.80469 2.3164062L-153.80469 1.8867188ZM-141.41406 1.5429688Q-141.41406 3.6367188 -142.25391 4.796875Q-143.09375 5.9570312 -144.65625 5.9570312Q-145.55469 5.9570312 -146.21094 5.5664062Q-146.86719 5.1757812 -147.21875 4.4414062L-147.23438 4.4414062Q-147.23438 4.7148438 -147.26953 5.1914062Q-147.30469 5.6679688 -147.34375 5.8007812L-149.47656 5.8007812Q-149.41406 5.0742188 -149.41406 3.8710938L-149.41406 -5.7929688L-147.21875 -5.7929688L-147.21875 -2.5585938L-147.25 -1.1835938L-147.21875 -1.1835938Q-146.47656 -2.8085938 -144.51562 -2.8085938Q-143.01562 -2.8085938 -142.21484 -1.671875Q-141.41406 -0.53515625 -141.41406 1.5429688ZM-143.70312 1.5429688Q-143.70312 0.10546875 -144.125 -0.58984375Q-144.54688 -1.2851562 -145.42969 -1.2851562Q-146.32031 -1.2851562 -146.78516 -0.5390625Q-147.25 0.20703125 -147.25 1.6132812Q-147.25 2.9570312 -146.79297 3.7070312Q-146.33594 4.4570312 -145.44531 4.4570312Q-143.70312 4.4570312 -143.70312 1.5429688ZM-140.13281 2.6054688L-140.13281 0.69921875L-136.07031 0.69921875L-136.07031 2.6054688L-140.13281 2.6054688ZM-127.1875 3.3320312Q-127.1875 4.5585938 -128.19141 5.2578125Q-129.19531 5.9570312 -130.96875 5.9570312Q-132.71094 5.9570312 -133.63672 5.40625Q-134.5625 4.8554688 -134.86719 3.6914062L-132.9375 3.4023438Q-132.77344 4.0039062 -132.37109 4.2539062Q-131.96875 4.5039062 -130.96875 4.5039062Q-130.04688 4.5039062 -129.625 4.2695312Q-129.20312 4.0351562 -129.20312 3.5351562Q-129.20312 3.1289062 -129.54297 2.890625Q-129.88281 2.6523438 -130.69531 2.4882812Q-132.55469 2.1210938 -133.20312 1.8046875Q-133.85156 1.4882812 -134.19141 0.984375Q-134.53125 0.48046875 -134.53125 -0.25390625Q-134.53125 -1.4648438 -133.59766 -2.140625Q-132.66406 -2.8164062 -130.95312 -2.8164062Q-129.44531 -2.8164062 -128.52734 -2.2304688Q-127.60938 -1.6445312 -127.38281 -0.53515625L-129.32812 -0.33203125Q-129.42188 -0.84765625 -129.78906 -1.1015625Q-130.15625 -1.3554688 -130.95312 -1.3554688Q-131.73438 -1.3554688 -132.125 -1.15625Q-132.51562 -0.95703125 -132.51562 -0.48828125Q-132.51562 -0.12109375 -132.21484 0.09375Q-131.91406 0.30859375 -131.20312 0.44921875Q-130.21094 0.65234375 -129.44141 0.8671875Q-128.67188 1.0820312 -128.20703 1.3789062Q-127.74219 1.6757812 -127.46484 2.140625Q-127.1875 2.6054688 -127.1875 3.3320312ZM-123.46094 5.9570312Q-124.6875 5.9570312 -125.375 5.2890625Q-126.0625 4.6210938 -126.0625 3.4101562Q-126.0625 2.0976562 -125.20703 1.4101562Q-124.35156 0.72265625 -122.72656 0.70703125L-120.90625 0.67578125L-120.90625 0.24609375Q-120.90625 -0.58203125 -121.19531 -0.984375Q-121.48438 -1.3867188 -122.14062 -1.3867188Q-122.75 -1.3867188 -123.03516 -1.109375Q-123.32031 -0.83203125 -123.39062 -0.19140625L-125.67969 -0.30078125Q-125.46875 -1.5351562 -124.55078 -2.171875Q-123.63281 -2.8085938 -122.04688 -2.8085938Q-120.44531 -2.8085938 -119.57812 -2.0195312Q-118.71094 -1.2304688 -118.71094 0.22265625L-118.71094 3.3007812Q-118.71094 4.0117188 -118.55078 4.28125Q-118.39062 4.5507812 -118.01562 4.5507812Q-117.76562 4.5507812 -117.53125 4.5039062L-117.53125 5.6914062Q-117.72656 5.7382812 -117.88281 5.7773438Q-118.03906 5.8164062 -118.19531 5.8398438Q-118.35156 5.8632812 -118.52734 5.8789062Q-118.70312 5.8945312 -118.9375 5.8945312Q-119.76562 5.8945312 -120.16016 5.4882812Q-120.55469 5.0820312 -120.63281 4.2929688L-120.67969 4.2929688Q-121.60156 5.9570312 -123.46094 5.9570312ZM-120.90625 1.8867188L-122.03125 1.9023438Q-122.79688 1.9335938 -123.11719 2.0703125Q-123.4375 2.2070312 -123.60547 2.4882812Q-123.77344 2.7695312 -123.77344 3.2382812Q-123.77344 3.8398438 -123.49609 4.1328125Q-123.21875 4.4257812 -122.75781 4.4257812Q-122.24219 4.4257812 -121.81641 4.1445312Q-121.39062 3.8632812 -121.14844 3.3671875Q-120.90625 2.8710938 -120.90625 2.3164062L-120.90625 1.8867188ZM-114.5625 5.9570312Q-115.78906 5.9570312 -116.47656 5.2890625Q-117.16406 4.6210938 -117.16406 3.4101562Q-117.16406 2.0976562 -116.30859 1.4101562Q-115.45312 0.72265625 -113.82812 0.70703125L-112.00781 0.67578125L-112.00781 0.24609375Q-112.00781 -0.58203125 -112.29688 -0.984375Q-112.58594 -1.3867188 -113.24219 -1.3867188Q-113.85156 -1.3867188 -114.13672 -1.109375Q-114.42188 -0.83203125 -114.49219 -0.19140625L-116.78125 -0.30078125Q-116.57031 -1.5351562 -115.65234 -2.171875Q-114.73438 -2.8085938 -113.14844 -2.8085938Q-111.54688 -2.8085938 -110.67969 -2.0195312Q-109.8125 -1.2304688 -109.8125 0.22265625L-109.8125 3.3007812Q-109.8125 4.0117188 -109.65234 4.28125Q-109.49219 4.5507812 -109.11719 4.5507812Q-108.86719 4.5507812 -108.63281 4.5039062L-108.63281 5.6914062Q-108.82812 5.7382812 -108.98438 5.7773438Q-109.14062 5.8164062 -109.29688 5.8398438Q-109.45312 5.8632812 -109.62891 5.8789062Q-109.80469 5.8945312 -110.03906 5.8945312Q-110.86719 5.8945312 -111.26172 5.4882812Q-111.65625 5.0820312 -111.73438 4.2929688L-111.78125 4.2929688Q-112.70312 5.9570312 -114.5625 5.9570312ZM-112.00781 1.8867188L-113.13281 1.9023438Q-113.89844 1.9335938 -114.21875 2.0703125Q-114.53906 2.2070312 -114.70703 2.4882812Q-114.875 2.7695312 -114.875 3.2382812Q-114.875 3.8398438 -114.59766 4.1328125Q-114.32031 4.4257812 -113.85938 4.4257812Q-113.34375 4.4257812 -112.91797 4.1445312Q-112.49219 3.8632812 -112.25 3.3671875Q-112.00781 2.8710938 -112.00781 2.3164062L-112.00781 1.8867188ZM-100.49219 3.3320312Q-100.49219 4.5585938 -101.49609 5.2578125Q-102.5 5.9570312 -104.27344 5.9570312Q-106.01562 5.9570312 -106.94141 5.40625Q-107.86719 4.8554688 -108.17188 3.6914062L-106.24219 3.4023438Q-106.07812 4.0039062 -105.67578 4.2539062Q-105.27344 4.5039062 -104.27344 4.5039062Q-103.35156 4.5039062 -102.92969 4.2695312Q-102.50781 4.0351562 -102.50781 3.5351562Q-102.50781 3.1289062 -102.84766 2.890625Q-103.1875 2.6523438 -104 2.4882812Q-105.85938 2.1210938 -106.50781 1.8046875Q-107.15625 1.4882812 -107.49609 0.984375Q-107.83594 0.48046875 -107.83594 -0.25390625Q-107.83594 -1.4648438 -106.90234 -2.140625Q-105.96875 -2.8164062 -104.25781 -2.8164062Q-102.75 -2.8164062 -101.83203 -2.2304688Q-100.91406 -1.6445312 -100.6875 -0.53515625L-102.63281 -0.33203125Q-102.72656 -0.84765625 -103.09375 -1.1015625Q-103.46094 -1.3554688 -104.25781 -1.3554688Q-105.03906 -1.3554688 -105.42969 -1.15625Q-105.82031 -0.95703125 -105.82031 -0.48828125Q-105.82031 -0.12109375 -105.51953 0.09375Q-105.21875 0.30859375 -104.50781 0.44921875Q-103.51562 0.65234375 -102.74609 0.8671875Q-101.97656 1.0820312 -101.51172 1.3789062Q-101.04688 1.6757812 -100.76953 2.140625Q-100.49219 2.6054688 -100.49219 3.3320312ZM-99.210938 2.6054688L-99.210938 0.69921875L-95.148438 0.69921875L-95.148438 2.6054688L-99.210938 2.6054688ZM-89.867188 5.9570312Q-91.789062 5.9570312 -92.835938 4.8125Q-93.882812 3.6679688 -93.882812 1.6210938Q-93.882812 -0.47265625 -92.828125 -1.640625Q-91.773438 -2.8085938 -89.835938 -2.8085938Q-88.34375 -2.8085938 -87.367188 -2.0585938Q-86.390625 -1.3085938 -86.140625 0.01171875L-88.351562 0.12109375Q-88.445312 -0.52734375 -88.820312 -0.9140625Q-89.195312 -1.3007812 -89.882812 -1.3007812Q-91.578125 -1.3007812 -91.578125 1.5351562Q-91.578125 4.4570312 -89.851562 4.4570312Q-89.226562 4.4570312 -88.804688 4.0625Q-88.382812 3.6679688 -88.28125 2.8867188L-86.078125 2.9882812Q-86.195312 3.8554688 -86.699219 4.5351562Q-87.203125 5.2148438 -88.023438 5.5859375Q-88.84375 5.9570312 -89.867188 5.9570312ZM-76.460938 1.5664062Q-76.460938 3.6210938 -77.601562 4.7890625Q-78.742188 5.9570312 -80.757812 5.9570312Q-82.734375 5.9570312 -83.859375 4.7851562Q-84.984375 3.6132812 -84.984375 1.5664062Q-84.984375 -0.47265625 -83.859375 -1.640625Q-82.734375 -2.8085938 -80.710938 -2.8085938Q-78.640625 -2.8085938 -77.550781 -1.6796875Q-76.460938 -0.55078125 -76.460938 1.5664062ZM-78.757812 1.5664062Q-78.757812 0.05859375 -79.25 -0.62109375Q-79.742188 -1.3007812 -80.679688 -1.3007812Q-82.679688 -1.3007812 -82.679688 1.5664062Q-82.679688 2.9804688 -82.191406 3.71875Q-81.703125 4.4570312 -80.78125 4.4570312Q-78.757812 4.4570312 -78.757812 1.5664062ZM-69.242188 5.8007812L-69.242188 1.0585938Q-69.242188 -1.1679688 -70.75 -1.1679688Q-71.546875 -1.1679688 -72.035156 -0.484375Q-72.523438 0.19921875 -72.523438 1.2695312L-72.523438 5.8007812L-74.71875 5.8007812L-74.71875 -0.76171875Q-74.71875 -1.4414062 -74.738281 -1.875Q-74.757812 -2.3085938 -74.78125 -2.6523438L-72.6875 -2.6523438Q-72.664062 -2.5039062 -72.625 -1.859375Q-72.585938 -1.2148438 -72.585938 -0.97265625L-72.554688 -0.97265625Q-72.109375 -1.9414062 -71.4375 -2.3789062Q-70.765625 -2.8164062 -69.835938 -2.8164062Q-68.492188 -2.8164062 -67.773438 -1.9882812Q-67.054688 -1.1601562 -67.054688 0.43359375L-67.054688 5.8007812L-69.242188 5.8007812ZM-59.46875 5.8007812L-59.46875 1.0585938Q-59.46875 -1.1679688 -60.976562 -1.1679688Q-61.773438 -1.1679688 -62.261719 -0.484375Q-62.75 0.19921875 -62.75 1.2695312L-62.75 5.8007812L-64.945312 5.8007812L-64.945312 -0.76171875Q-64.945312 -1.4414062 -64.964844 -1.875Q-64.984375 -2.3085938 -65.007812 -2.6523438L-62.914062 -2.6523438Q-62.890625 -2.5039062 -62.851562 -1.859375Q-62.8125 -1.2148438 -62.8125 -0.97265625L-62.78125 -0.97265625Q-62.335938 -1.9414062 -61.664062 -2.3789062Q-60.992188 -2.8164062 -60.0625 -2.8164062Q-58.71875 -2.8164062 -58 -1.9882812Q-57.28125 -1.1601562 -57.28125 0.43359375L-57.28125 5.8007812L-59.46875 5.8007812ZM-55.664062 2.6054688L-55.664062 0.69921875L-51.601562 0.69921875L-51.601562 2.6054688L-55.664062 2.6054688ZM-46.304688 9.1914062Q-47.851562 9.1914062 -48.792969 8.6015625Q-49.734375 8.0117188 -49.953125 6.9179688L-47.757812 6.6601562Q-47.640625 7.1679688 -47.253906 7.4570312Q-46.867188 7.7460938 -46.242188 7.7460938Q-45.328125 7.7460938 -44.90625 7.1835938Q-44.484375 6.6210938 -44.484375 5.5117188L-44.484375 5.0664062L-44.46875 4.2304688L-44.484375 4.2304688Q-45.210938 5.7851562 -47.203125 5.7851562Q-48.679688 5.7851562 -49.492188 4.6757812Q-50.304688 3.5664062 -50.304688 1.5039062Q-50.304688 -0.56640625 -49.46875 -1.6914062Q-48.632812 -2.8164062 -47.039062 -2.8164062Q-45.195312 -2.8164062 -44.484375 -1.2929688L-44.445312 -1.2929688Q-44.445312 -1.5664062 -44.410156 -2.0351562Q-44.375 -2.5039062 -44.335938 -2.6523438L-42.257812 -2.6523438Q-42.304688 -1.8085938 -42.304688 -0.69921875L-42.304688 5.5429688Q-42.304688 7.3476562 -43.328125 8.2695312Q-44.351562 9.1914062 -46.304688 9.1914062ZM-44.46875 1.4570312Q-44.46875 0.15234375 -44.933594 -0.578125Q-45.398438 -1.3085938 -46.257812 -1.3085938Q-48.015625 -1.3085938 -48.015625 1.5039062Q-48.015625 4.2617188 -46.273438 4.2617188Q-45.398438 4.2617188 -44.933594 3.53125Q-44.46875 2.8007812 -44.46875 1.4570312ZM-36.609375 5.9570312Q-38.515625 5.9570312 -39.539062 4.828125Q-40.5625 3.6992188 -40.5625 1.5351562Q-40.5625 -0.55859375 -39.523438 -1.6835938Q-38.484375 -2.8085938 -36.578125 -2.8085938Q-34.757812 -2.8085938 -33.796875 -1.6015625Q-32.835938 -0.39453125 -32.835938 1.9335938L-32.835938 1.9960938L-38.257812 1.9960938Q-38.257812 3.2304688 -37.800781 3.859375Q-37.34375 4.4882812 -36.5 4.4882812Q-35.335938 4.4882812 -35.03125 3.4804688L-32.960938 3.6601562Q-33.859375 5.9570312 -36.609375 5.9570312ZM-36.609375 -1.4257812Q-37.382812 -1.4257812 -37.800781 -0.88671875Q-38.21875 -0.34765625 -38.242188 0.62109375L-34.960938 0.62109375Q-35.023438 -0.40234375 -35.453125 -0.9140625Q-35.882812 -1.4257812 -36.609375 -1.4257812ZM-25.695312 5.8007812L-25.695312 1.0585938Q-25.695312 -1.1679688 -27.203125 -1.1679688Q-28 -1.1679688 -28.488281 -0.484375Q-28.976562 0.19921875 -28.976562 1.2695312L-28.976562 5.8007812L-31.171875 5.8007812L-31.171875 -0.76171875Q-31.171875 -1.4414062 -31.191406 -1.875Q-31.210938 -2.3085938 -31.234375 -2.6523438L-29.140625 -2.6523438Q-29.117188 -2.5039062 -29.078125 -1.859375Q-29.039062 -1.2148438 -29.039062 -0.97265625L-29.007812 -0.97265625Q-28.5625 -1.9414062 -27.890625 -2.3789062Q-27.21875 -2.8164062 -26.289062 -2.8164062Q-24.945312 -2.8164062 -24.226562 -1.9882812Q-23.507812 -1.1601562 -23.507812 0.43359375L-23.507812 5.8007812L-25.695312 5.8007812ZM-17.9375 5.9570312Q-19.84375 5.9570312 -20.867188 4.828125Q-21.890625 3.6992188 -21.890625 1.5351562Q-21.890625 -0.55859375 -20.851562 -1.6835938Q-19.8125 -2.8085938 -17.90625 -2.8085938Q-16.085938 -2.8085938 -15.125 -1.6015625Q-14.164062 -0.39453125 -14.164062 1.9335938L-14.164062 1.9960938L-19.585938 1.9960938Q-19.585938 3.2304688 -19.128906 3.859375Q-18.671875 4.4882812 -17.828125 4.4882812Q-16.664062 4.4882812 -16.359375 3.4804688L-14.289062 3.6601562Q-15.1875 5.9570312 -17.9375 5.9570312ZM-17.9375 -1.4257812Q-18.710938 -1.4257812 -19.128906 -0.88671875Q-19.546875 -0.34765625 -19.570312 0.62109375L-16.289062 0.62109375Q-16.351562 -0.40234375 -16.78125 -0.9140625Q-17.210938 -1.4257812 -17.9375 -1.4257812ZM-10.335938 5.9414062Q-11.304688 5.9414062 -11.828125 5.4140625Q-12.351562 4.8867188 -12.351562 3.8164062L-12.351562 -1.1679688L-13.421875 -1.1679688L-13.421875 -2.6523438L-12.242188 -2.6523438L-11.554688 -4.6367188L-10.179688 -4.6367188L-10.179688 -2.6523438L-8.578125 -2.6523438L-8.578125 -1.1679688L-10.179688 -1.1679688L-10.179688 3.2226562Q-10.179688 3.8398438 -9.9453125 4.1328125Q-9.7109375 4.4257812 -9.21875 4.4257812Q-8.9609375 4.4257812 -8.484375 4.3164062L-8.484375 5.6757812Q-9.296875 5.9414062 -10.335938 5.9414062ZM-3.7109375 5.9570312Q-5.6171875 5.9570312 -6.640625 4.828125Q-7.6640625 3.6992188 -7.6640625 1.5351562Q-7.6640625 -0.55859375 -6.625 -1.6835938Q-5.5859375 -2.8085938 -3.6796875 -2.8085938Q-1.859375 -2.8085938 -0.8984375 -1.6015625Q0.0625 -0.39453125 0.0625 1.9335938L0.0625 1.9960938L-5.359375 1.9960938Q-5.359375 3.2304688 -4.9023438 3.859375Q-4.4453125 4.4882812 -3.6015625 4.4882812Q-2.4375 4.4882812 -2.1328125 3.4804688L-0.0625 3.6601562Q-0.9609375 5.9570312 -3.7109375 5.9570312ZM-3.7109375 -1.4257812Q-4.484375 -1.4257812 -4.9023438 -0.88671875Q-5.3203125 -0.34765625 -5.34375 0.62109375L-2.0625 0.62109375Q-2.125 -0.40234375 -2.5546875 -0.9140625Q-2.984375 -1.4257812 -3.7109375 -1.4257812ZM5.25 5.9570312Q3.328125 5.9570312 2.28125 4.8125Q1.234375 3.6679688 1.234375 1.6210938Q1.234375 -0.47265625 2.2890625 -1.640625Q3.34375 -2.8085938 5.28125 -2.8085938Q6.7734375 -2.8085938 7.75 -2.0585938Q8.7265625 -1.3085938 8.9765625 0.01171875L6.765625 0.12109375Q6.671875 -0.52734375 6.296875 -0.9140625Q5.921875 -1.3007812 5.234375 -1.3007812Q3.5390625 -1.3007812 3.5390625 1.5351562Q3.5390625 4.4570312 5.265625 4.4570312Q5.890625 4.4570312 6.3125 4.0625Q6.734375 3.6679688 6.8359375 2.8867188L9.0390625 2.9882812Q8.921875 3.8554688 8.4179688 4.5351562Q7.9140625 5.2148438 7.09375 5.5859375Q6.2734375 5.9570312 5.25 5.9570312ZM10.132812 2.6054688L10.132812 0.69921875L14.195312 0.69921875L14.195312 2.6054688L10.132812 2.6054688ZM19.476562 5.9570312Q17.554688 5.9570312 16.507812 4.8125Q15.460938 3.6679688 15.460938 1.6210938Q15.460938 -0.47265625 16.515625 -1.640625Q17.570312 -2.8085938 19.507812 -2.8085938Q21 -2.8085938 21.976562 -2.0585938Q22.953125 -1.3085938 23.203125 0.01171875L20.992188 0.12109375Q20.898438 -0.52734375 20.523438 -0.9140625Q20.148438 -1.3007812 19.460938 -1.3007812Q17.765625 -1.3007812 17.765625 1.5351562Q17.765625 4.4570312 19.492188 4.4570312Q20.117188 4.4570312 20.539062 4.0625Q20.960938 3.6679688 21.0625 2.8867188L23.265625 2.9882812Q23.148438 3.8554688 22.644531 4.5351562Q22.140625 5.2148438 21.320312 5.5859375Q20.5 5.9570312 19.476562 5.9570312ZM24.851562 5.8007812L24.851562 -5.7929688L27.046875 -5.7929688L27.046875 5.8007812L24.851562 5.8007812ZM32.757812 5.9570312Q30.851562 5.9570312 29.828125 4.828125Q28.804688 3.6992188 28.804688 1.5351562Q28.804688 -0.55859375 29.84375 -1.6835938Q30.882812 -2.8085938 32.789062 -2.8085938Q34.609375 -2.8085938 35.570312 -1.6015625Q36.53125 -0.39453125 36.53125 1.9335938L36.53125 1.9960938L31.109375 1.9960938Q31.109375 3.2304688 31.566406 3.859375Q32.023438 4.4882812 32.867188 4.4882812Q34.03125 4.4882812 34.335938 3.4804688L36.40625 3.6601562Q35.507812 5.9570312 32.757812 5.9570312ZM32.757812 -1.4257812Q31.984375 -1.4257812 31.566406 -0.88671875Q31.148438 -0.34765625 31.125 0.62109375L34.40625 0.62109375Q34.34375 -0.40234375 33.914062 -0.9140625Q33.484375 -1.4257812 32.757812 -1.4257812ZM40.148438 5.9570312Q38.921875 5.9570312 38.234375 5.2890625Q37.546875 4.6210938 37.546875 3.4101562Q37.546875 2.0976562 38.402344 1.4101562Q39.257812 0.72265625 40.882812 0.70703125L42.703125 0.67578125L42.703125 0.24609375Q42.703125 -0.58203125 42.414062 -0.984375Q42.125 -1.3867188 41.46875 -1.3867188Q40.859375 -1.3867188 40.574219 -1.109375Q40.289062 -0.83203125 40.21875 -0.19140625L37.929688 -0.30078125Q38.140625 -1.5351562 39.058594 -2.171875Q39.976562 -2.8085938 41.5625 -2.8085938Q43.164062 -2.8085938 44.03125 -2.0195312Q44.898438 -1.2304688 44.898438 0.22265625L44.898438 3.3007812Q44.898438 4.0117188 45.058594 4.28125Q45.21875 4.5507812 45.59375 4.5507812Q45.84375 4.5507812 46.078125 4.5039062L46.078125 5.6914062Q45.882812 5.7382812 45.726562 5.7773438Q45.570312 5.8164062 45.414062 5.8398438Q45.257812 5.8632812 45.082031 5.8789062Q44.90625 5.8945312 44.671875 5.8945312Q43.84375 5.8945312 43.449219 5.4882812Q43.054688 5.0820312 42.976562 4.2929688L42.929688 4.2929688Q42.007812 5.9570312 40.148438 5.9570312ZM42.703125 1.8867188L41.578125 1.9023438Q40.8125 1.9335938 40.492188 2.0703125Q40.171875 2.2070312 40.003906 2.4882812Q39.835938 2.7695312 39.835938 3.2382812Q39.835938 3.8398438 40.113281 4.1328125Q40.390625 4.4257812 40.851562 4.4257812Q41.367188 4.4257812 41.792969 4.1445312Q42.21875 3.8632812 42.460938 3.3671875Q42.703125 2.8710938 42.703125 2.3164062L42.703125 1.8867188ZM47.09375 5.8007812L47.09375 -0.66796875Q47.09375 -1.3632812 47.074219 -1.828125Q47.054688 -2.2929688 47.03125 -2.6523438L49.125 -2.6523438Q49.148438 -2.5117188 49.1875 -1.796875Q49.226562 -1.0820312 49.226562 -0.84765625L49.257812 -0.84765625Q49.578125 -1.7382812 49.828125 -2.1015625Q50.078125 -2.4648438 50.421875 -2.640625Q50.765625 -2.8164062 51.28125 -2.8164062Q51.703125 -2.8164062 51.960938 -2.6992188L51.960938 -0.86328125Q51.429688 -0.98046875 51.023438 -0.98046875Q50.203125 -0.98046875 49.746094 -0.31640625Q49.289062 0.34765625 49.289062 1.6523438L49.289062 5.8007812L47.09375 5.8007812ZM53.320312 -4.1757812L53.320312 -5.7929688L55.515625 -5.7929688L55.515625 -4.1757812L53.320312 -4.1757812ZM53.320312 5.8007812L53.320312 -2.6523438L55.515625 -2.6523438L55.515625 5.8007812L53.320312 5.8007812ZM63.242188 5.8007812Q63.210938 5.6835938 63.167969 5.2109375Q63.125 4.7382812 63.125 4.4257812L63.09375 4.4257812Q62.382812 5.9570312 60.390625 5.9570312Q58.914062 5.9570312 58.109375 4.8046875Q57.304688 3.6523438 57.304688 1.5820312Q57.304688 -0.51953125 58.152344 -1.6640625Q59 -2.8085938 60.554688 -2.8085938Q61.453125 -2.8085938 62.105469 -2.4335938Q62.757812 -2.0585938 63.109375 -1.3164062L63.125 -1.3164062L63.109375 -2.7070312L63.109375 -5.7929688L65.304688 -5.7929688L65.304688 3.9570312Q65.304688 4.7382812 65.367188 5.8007812L63.242188 5.8007812ZM63.140625 1.5273438Q63.140625 0.16015625 62.683594 -0.578125Q62.226562 -1.3164062 61.335938 -1.3164062Q60.453125 -1.3164062 60.023438 -0.6015625Q59.59375 0.11328125 59.59375 1.5820312Q59.59375 4.4570312 61.320312 4.4570312Q62.1875 4.4570312 62.664062 3.6953125Q63.140625 2.9335938 63.140625 1.5273438ZM71.492188 2.6054688L71.492188 0.69921875L75.554688 0.69921875L75.554688 2.6054688L71.492188 2.6054688ZM84.015625 -3.4257812L84.015625 -0.01953125L89.648438 -0.01953125L89.648438 1.7617188L84.015625 1.7617188L84.015625 5.8007812L81.710938 5.8007812L81.710938 -5.2070312L89.828125 -5.2070312L89.828125 -3.4257812L84.015625 -3.4257812ZM102.1875 0.24609375Q102.1875 1.9648438 101.50781 3.2695312Q100.82812 4.5742188 99.5625 5.265625Q98.296875 5.9570312 96.609375 5.9570312Q94.015625 5.9570312 92.542969 4.4296875Q91.070312 2.9023438 91.070312 0.24609375Q91.070312 -2.4023438 92.539062 -3.8867188Q94.007812 -5.3710938 96.625 -5.3710938Q99.242188 -5.3710938 100.71484 -3.8710938Q102.1875 -2.3710938 102.1875 0.24609375ZM99.835938 0.24609375Q99.835938 -1.5351562 98.992188 -2.546875Q98.148438 -3.5585938 96.625 -3.5585938Q95.078125 -3.5585938 94.234375 -2.5546875Q93.390625 -1.5507812 93.390625 0.24609375Q93.390625 2.0585938 94.253906 3.1015625Q95.117188 4.1445312 96.609375 4.1445312Q98.15625 4.1445312 98.996094 3.1289062Q99.835938 2.1132812 99.835938 0.24609375ZM111.49219 5.8007812L108.9375 1.6210938L106.23438 1.6210938L106.23438 5.8007812L103.92969 5.8007812L103.92969 -5.2070312L109.42969 -5.2070312Q111.39844 -5.2070312 112.46875 -4.359375Q113.53906 -3.5117188 113.53906 -1.9257812Q113.53906 -0.76953125 112.88281 0.0703125Q112.22656 0.91015625 111.10938 1.1757812L114.08594 5.8007812L111.49219 5.8007812ZM111.21875 -1.8320312Q111.21875 -3.4179688 109.1875 -3.4179688L106.23438 -3.4179688L106.23438 -0.16796875L109.25 -0.16796875Q110.21875 -0.16796875 110.71875 -0.60546875Q111.21875 -1.0429688 111.21875 -1.8320312ZM124.625 5.8007812L124.625 -0.87109375Q124.625 -1.0976562 124.62891 -1.3242188Q124.63281 -1.5507812 124.70312 -3.2695312Q124.14844 -1.1679688 123.88281 -0.33984375L121.89844 5.8007812L120.25781 5.8007812L118.27344 -0.33984375L117.4375 -3.2695312Q117.53125 -1.4570312 117.53125 -0.87109375L117.53125 5.8007812L115.48438 5.8007812L115.48438 -5.2070312L118.57031 -5.2070312L120.53906 0.94921875L120.71094 1.5429688L121.08594 3.0195312L121.57812 1.2539062L123.60156 -5.2070312L126.67188 -5.2070312L126.67188 5.8007812L124.625 5.8007812ZM136.59375 5.8007812L135.61719 2.9882812L131.42188 2.9882812L130.44531 5.8007812L128.14062 5.8007812L132.15625 -5.2070312L134.875 -5.2070312L138.875 5.8007812L136.59375 5.8007812ZM133.51562 -3.5117188L133.46875 -3.3398438Q133.39062 -3.0585938 133.28125 -2.6992188Q133.17188 -2.3398438 131.9375 1.2539062L135.10156 1.2539062L134.01562 -1.9101562L133.67969 -2.9726562L133.51562 -3.5117188ZM144.14844 -3.4257812L144.14844 5.8007812L141.84375 5.8007812L141.84375 -3.4257812L138.28906 -3.4257812L138.28906 -5.2070312L147.71094 -5.2070312L147.71094 -3.4257812L144.14844 -3.4257812ZM163.21094 0.21484375Q163.21094 1.9179688 162.54297 3.1875Q161.875 4.4570312 160.65234 5.1289062Q159.42969 5.8007812 157.85156 5.8007812L153.39844 5.8007812L153.39844 -5.2070312L157.38281 -5.2070312Q160.16406 -5.2070312 161.6875 -3.8046875Q163.21094 -2.4023438 163.21094 0.21484375ZM160.89062 0.21484375Q160.89062 -1.5585938 159.96875 -2.4921875Q159.04688 -3.4257812 157.33594 -3.4257812L155.70312 -3.4257812L155.70312 4.0195312L157.65625 4.0195312Q159.14062 4.0195312 160.01562 2.9960938Q160.89062 1.9726562 160.89062 0.21484375ZM173.03125 1.5664062Q173.03125 3.6210938 171.89062 4.7890625Q170.75 5.9570312 168.73438 5.9570312Q166.75781 5.9570312 165.63281 4.7851562Q164.50781 3.6132812 164.50781 1.5664062Q164.50781 -0.47265625 165.63281 -1.640625Q166.75781 -2.8085938 168.78125 -2.8085938Q170.85156 -2.8085938 171.94141 -1.6796875Q173.03125 -0.55078125 173.03125 1.5664062ZM170.73438 1.5664062Q170.73438 0.05859375 170.24219 -0.62109375Q169.75 -1.3007812 168.8125 -1.3007812Q166.8125 -1.3007812 166.8125 1.5664062Q166.8125 2.9804688 167.30078 3.71875Q167.78906 4.4570312 168.71094 4.4570312Q170.73438 4.4570312 170.73438 1.5664062ZM183.91406 5.8007812L181.59375 5.8007812L180.25 0.64453125Q180.15625 0.29296875 179.88281 -1.0898438L179.47656 0.66015625L178.11719 5.8007812L175.79688 5.8007812L173.60938 -2.6523438L175.67188 -2.6523438L177.0625 3.8085938L177.17188 3.2304688L177.36719 2.3164062L178.69531 -2.6523438L181.04688 -2.6523438L182.34375 2.3164062Q182.45312 2.7226562 182.66406 3.8085938L182.88281 2.7773438L184.10156 -2.6523438L186.13281 -2.6523438L183.91406 5.8007812ZM192.69531 5.8007812L192.69531 1.0585938Q192.69531 -1.1679688 191.1875 -1.1679688Q190.39062 -1.1679688 189.90234 -0.484375Q189.41406 0.19921875 189.41406 1.2695312L189.41406 5.8007812L187.21875 5.8007812L187.21875 -0.76171875Q187.21875 -1.4414062 187.19922 -1.875Q187.17969 -2.3085938 187.15625 -2.6523438L189.25 -2.6523438Q189.27344 -2.5039062 189.3125 -1.859375Q189.35156 -1.2148438 189.35156 -0.97265625L189.38281 -0.97265625Q189.82812 -1.9414062 190.5 -2.3789062Q191.17188 -2.8164062 192.10156 -2.8164062Q193.44531 -2.8164062 194.16406 -1.9882812Q194.88281 -1.1601562 194.88281 0.43359375L194.88281 5.8007812L192.69531 5.8007812ZM196.99219 5.8007812L196.99219 -5.7929688L199.1875 -5.7929688L199.1875 5.8007812L196.99219 5.8007812ZM209.46875 1.5664062Q209.46875 3.6210938 208.32812 4.7890625Q207.1875 5.9570312 205.17188 5.9570312Q203.19531 5.9570312 202.07031 4.7851562Q200.94531 3.6132812 200.94531 1.5664062Q200.94531 -0.47265625 202.07031 -1.640625Q203.19531 -2.8085938 205.21875 -2.8085938Q207.28906 -2.8085938 208.37891 -1.6796875Q209.46875 -0.55078125 209.46875 1.5664062ZM207.17188 1.5664062Q207.17188 0.05859375 206.67969 -0.62109375Q206.1875 -1.3007812 205.25 -1.3007812Q203.25 -1.3007812 203.25 1.5664062Q203.25 2.9804688 203.73828 3.71875Q204.22656 4.4570312 205.14844 4.4570312Q207.17188 4.4570312 207.17188 1.5664062ZM213.16406 5.9570312Q211.9375 5.9570312 211.25 5.2890625Q210.5625 4.6210938 210.5625 3.4101562Q210.5625 2.0976562 211.41797 1.4101562Q212.27344 0.72265625 213.89844 0.70703125L215.71875 0.67578125L215.71875 0.24609375Q215.71875 -0.58203125 215.42969 -0.984375Q215.14062 -1.3867188 214.48438 -1.3867188Q213.875 -1.3867188 213.58984 -1.109375Q213.30469 -0.83203125 213.23438 -0.19140625L210.94531 -0.30078125Q211.15625 -1.5351562 212.07422 -2.171875Q212.99219 -2.8085938 214.57812 -2.8085938Q216.17969 -2.8085938 217.04688 -2.0195312Q217.91406 -1.2304688 217.91406 0.22265625L217.91406 3.3007812Q217.91406 4.0117188 218.07422 4.28125Q218.23438 4.5507812 218.60938 4.5507812Q218.85938 4.5507812 219.09375 4.5039062L219.09375 5.6914062Q218.89844 5.7382812 218.74219 5.7773438Q218.58594 5.8164062 218.42969 5.8398438Q218.27344 5.8632812 218.09766 5.8789062Q217.92188 5.8945312 217.6875 5.8945312Q216.85938 5.8945312 216.46484 5.4882812Q216.07031 5.0820312 215.99219 4.2929688L215.94531 4.2929688Q215.02344 5.9570312 213.16406 5.9570312ZM215.71875 1.8867188L214.59375 1.9023438Q213.82812 1.9335938 213.50781 2.0703125Q213.1875 2.2070312 213.01953 2.4882812Q212.85156 2.7695312 212.85156 3.2382812Q212.85156 3.8398438 213.12891 4.1328125Q213.40625 4.4257812 213.86719 4.4257812Q214.38281 4.4257812 214.80859 4.1445312Q215.23438 3.8632812 215.47656 3.3671875Q215.71875 2.8710938 215.71875 2.3164062L215.71875 1.8867188ZM225.58594 5.8007812Q225.55469 5.6835938 225.51172 5.2109375Q225.46875 4.7382812 225.46875 4.4257812L225.4375 4.4257812Q224.72656 5.9570312 222.73438 5.9570312Q221.25781 5.9570312 220.45312 4.8046875Q219.64844 3.6523438 219.64844 1.5820312Q219.64844 -0.51953125 220.49609 -1.6640625Q221.34375 -2.8085938 222.89844 -2.8085938Q223.79688 -2.8085938 224.44922 -2.4335938Q225.10156 -2.0585938 225.45312 -1.3164062L225.46875 -1.3164062L225.45312 -2.7070312L225.45312 -5.7929688L227.64844 -5.7929688L227.64844 3.9570312Q227.64844 4.7382812 227.71094 5.8007812L225.58594 5.8007812ZM225.48438 1.5273438Q225.48438 0.16015625 225.02734 -0.578125Q224.57031 -1.3164062 223.67969 -1.3164062Q222.79688 -1.3164062 222.36719 -0.6015625Q221.9375 0.11328125 221.9375 1.5820312Q221.9375 4.4570312 223.66406 4.4570312Q224.53125 4.4570312 225.00781 3.6953125Q225.48438 2.9335938 225.48438 1.5273438ZM239.25 -3.4257812L239.25 5.8007812L236.94531 5.8007812L236.94531 -3.4257812L233.39062 -3.4257812L233.39062 -5.2070312L242.8125 -5.2070312L242.8125 -3.4257812L239.25 -3.4257812ZM243.21875 5.8007812L243.21875 -0.66796875Q243.21875 -1.3632812 243.19922 -1.828125Q243.17969 -2.2929688 243.15625 -2.6523438L245.25 -2.6523438Q245.27344 -2.5117188 245.3125 -1.796875Q245.35156 -1.0820312 245.35156 -0.84765625L245.38281 -0.84765625Q245.70312 -1.7382812 245.95312 -2.1015625Q246.20312 -2.4648438 246.54688 -2.640625Q246.89062 -2.8164062 247.40625 -2.8164062Q247.82812 -2.8164062 248.08594 -2.6992188L248.08594 -0.86328125Q247.55469 -0.98046875 247.14844 -0.98046875Q246.32812 -0.98046875 245.87109 -0.31640625Q245.41406 0.34765625 245.41406 1.6523438L245.41406 5.8007812L243.21875 5.8007812ZM252.90625 5.9570312Q251 5.9570312 249.97656 4.828125Q248.95312 3.6992188 248.95312 1.5351562Q248.95312 -0.55859375 249.99219 -1.6835938Q251.03125 -2.8085938 252.9375 -2.8085938Q254.75781 -2.8085938 255.71875 -1.6015625Q256.67969 -0.39453125 256.67969 1.9335938L256.67969 1.9960938L251.25781 1.9960938Q251.25781 3.2304688 251.71484 3.859375Q252.17188 4.4882812 253.01562 4.4882812Q254.17969 4.4882812 254.48438 3.4804688L256.55469 3.6601562Q255.65625 5.9570312 252.90625 5.9570312ZM252.90625 -1.4257812Q252.13281 -1.4257812 251.71484 -0.88671875Q251.29688 -0.34765625 251.27344 0.62109375L254.55469 0.62109375Q254.49219 -0.40234375 254.0625 -0.9140625Q253.63281 -1.4257812 252.90625 -1.4257812ZM263.82031 5.8007812L263.82031 1.0585938Q263.82031 -1.1679688 262.3125 -1.1679688Q261.51562 -1.1679688 261.02734 -0.484375Q260.53906 0.19921875 260.53906 1.2695312L260.53906 5.8007812L258.34375 5.8007812L258.34375 -0.76171875Q258.34375 -1.4414062 258.32422 -1.875Q258.30469 -2.3085938 258.28125 -2.6523438L260.375 -2.6523438Q260.39844 -2.5039062 260.4375 -1.859375Q260.47656 -1.2148438 260.47656 -0.97265625L260.50781 -0.97265625Q260.95312 -1.9414062 261.625 -2.3789062Q262.29688 -2.8164062 263.22656 -2.8164062Q264.57031 -2.8164062 265.28906 -1.9882812Q266.00781 -1.1601562 266.00781 0.43359375L266.00781 5.8007812L263.82031 5.8007812ZM273.59375 5.8007812Q273.5625 5.6835938 273.51953 5.2109375Q273.47656 4.7382812 273.47656 4.4257812L273.44531 4.4257812Q272.73438 5.9570312 270.74219 5.9570312Q269.26562 5.9570312 268.46094 4.8046875Q267.65625 3.6523438 267.65625 1.5820312Q267.65625 -0.51953125 268.50391 -1.6640625Q269.35156 -2.8085938 270.90625 -2.8085938Q271.80469 -2.8085938 272.45703 -2.4335938Q273.10938 -2.0585938 273.46094 -1.3164062L273.47656 -1.3164062L273.46094 -2.7070312L273.46094 -5.7929688L275.65625 -5.7929688L275.65625 3.9570312Q275.65625 4.7382812 275.71875 5.8007812L273.59375 5.8007812ZM273.49219 1.5273438Q273.49219 0.16015625 273.03516 -0.578125Q272.57812 -1.3164062 271.6875 -1.3164062Q270.80469 -1.3164062 270.375 -0.6015625Q269.94531 0.11328125 269.94531 1.5820312Q269.94531 4.4570312 271.67188 4.4570312Q272.53906 4.4570312 273.01562 3.6953125Q273.49219 2.9335938 273.49219 1.5273438ZM285.01562 3.3320312Q285.01562 4.5585938 284.01172 5.2578125Q283.00781 5.9570312 281.23438 5.9570312Q279.49219 5.9570312 278.56641 5.40625Q277.64062 4.8554688 277.33594 3.6914062L279.26562 3.4023438Q279.42969 4.0039062 279.83203 4.2539062Q280.23438 4.5039062 281.23438 4.5039062Q282.15625 4.5039062 282.57812 4.2695312Q283 4.0351562 283 3.5351562Q283 3.1289062 282.66016 2.890625Q282.32031 2.6523438 281.50781 2.4882812Q279.64844 2.1210938 279 1.8046875Q278.35156 1.4882812 278.01172 0.984375Q277.67188 0.48046875 277.67188 -0.25390625Q277.67188 -1.4648438 278.60547 -2.140625Q279.53906 -2.8164062 281.25 -2.8164062Q282.75781 -2.8164062 283.67578 -2.2304688Q284.59375 -1.6445312 284.82031 -0.53515625L282.875 -0.33203125Q282.78125 -0.84765625 282.41406 -1.1015625Q282.04688 -1.3554688 281.25 -1.3554688Q280.46875 -1.3554688 280.07812 -1.15625Q279.6875 -0.95703125 279.6875 -0.48828125Q279.6875 -0.12109375 279.98828 0.09375Q280.28906 0.30859375 281 0.44921875Q281.99219 0.65234375 282.76172 0.8671875Q283.53125 1.0820312 283.99609 1.3789062Q284.46094 1.6757812 284.73828 2.140625Q285.01562 2.6054688 285.01562 3.3320312Z"/>
	<path fill="none" stroke="black" stroke-width="1" stroke-miterlimit="10" stroke-opacity="0.10196079" d="M49 749.5L1195 749.5"/>
	<clipPath id="cl_206">
		<rect y="749.20001" width="1200" height="50.799988"/>
	</clipPath>
	<g clip-path="url(#cl_206)">
		<path fill="#666" transform="translate(49.75 760.2)" d="M-12.751953 11.300586L-14 11.300586L-16.302734 4.960742L-15.177734 4.960742L-13.783203 9.085742Q-13.707031 9.320117 -13.378906 10.474414L-13.173828 9.788867L-12.945312 9.0974607L-11.503906 4.960742L-10.384766 4.960742L-12.751953 11.300586ZM-9.4296875 11.300586L-9.4296875 10.404101L-7.3261719 10.404101L-7.3261719 4.0525389L-9.1894531 5.382617L-9.1894531 4.3865232L-7.2382812 3.0447264L-6.265625 3.0447264L-6.265625 10.404101L-4.2558594 10.404101L-4.2558594 11.300586L-9.4296875 11.300586ZM-2.5742188 11.300586L-2.5742188 10.017383L-1.4316406 10.017383L-1.4316406 11.300586L-2.5742188 11.300586ZM0.26757812 11.300586L0.26757812 10.556445Q0.56640625 9.8708982 0.99707031 9.3464842Q1.4277344 8.8220701 1.9023438 8.3972654Q2.3769531 7.9724607 2.8427734 7.6091795Q3.3085938 7.2458982 3.6835938 6.882617Q4.0585938 6.5193357 4.2900391 6.1208982Q4.5214844 5.7224607 4.5214844 5.2185545Q4.5214844 4.538867 4.1230469 4.163867Q3.7246094 3.788867 3.015625 3.788867Q2.3417969 3.788867 1.9052734 4.1550779Q1.46875 4.5212889 1.3925781 5.1833982L0.31445312 5.0837889Q0.43164062 4.0935545 1.1552734 3.507617Q1.8789062 2.9216795 3.015625 2.9216795Q4.2636719 2.9216795 4.9345703 3.5105467Q5.6054688 4.0994139 5.6054688 5.1833982Q5.6054688 5.663867 5.3857422 6.1384764Q5.1660156 6.6130857 4.7324219 7.0876951Q4.2988281 7.5623045 3.0742188 8.5583982Q2.4003906 9.1091795 2.0019531 9.5515623Q1.6035156 9.9939451 1.4277344 10.404101L5.734375 10.404101L5.734375 11.300586L0.26757812 11.300586ZM7.4335938 11.300586L7.4335938 10.017383L8.5761719 10.017383L8.5761719 11.300586L7.4335938 11.300586ZM10.585938 11.300586L10.585938 10.404101L12.689453 10.404101L12.689453 4.0525389L10.826172 5.382617L10.826172 4.3865232L12.777344 3.0447264L13.75 3.0447264L13.75 10.404101L15.759766 10.404101L15.759766 11.300586L10.585938 11.300586Z"/>
	</g>
	<path fill="none" stroke="black" stroke-width="1" stroke-miterlimit="10" stroke-opacity="0.10196079" d="M49.5 71L49.5 750"/>
	<clipPath id="cl_208">
		<rect width="49.75" height="800"/>
	</clipPath>
	<g clip-path="url(#cl_208)">
		<path fill="#666" transform="translate(38.75 749.2)" d="M-0.46679688 -0.030273438Q-0.46679688 2.0380859 -1.1962891 3.1279297Q-1.9257812 4.2177734 -3.3496094 4.2177734Q-4.7734375 4.2177734 -5.4882812 3.1337891Q-6.203125 2.0498047 -6.203125 -0.030273438Q-6.203125 -2.1572266 -5.5087891 -3.2177734Q-4.8144531 -4.2783203 -3.3144531 -4.2783203Q-1.8554688 -4.2783203 -1.1611328 -3.2060547Q-0.46679688 -2.1337891 -0.46679688 -0.030273438ZM-1.5390625 -0.030273438Q-1.5390625 -1.8173828 -1.9521484 -2.6201172Q-2.3652344 -3.4228516 -3.3144531 -3.4228516Q-4.2871094 -3.4228516 -4.7119141 -2.6318359Q-5.1367188 -1.8408203 -5.1367188 -0.030273438Q-5.1367188 1.7275391 -4.7060547 2.5419922Q-4.2753906 3.3564453 -3.3378906 3.3564453Q-2.40625 3.3564453 -1.9726562 2.5244141Q-1.5390625 1.6923828 -1.5390625 -0.030273438Z"/>
	</g>
	<clipPath id="cl_209">
		<rect width="49.75" height="800"/>
	</clipPath>
	<g clip-path="url(#cl_209)">
		<path fill="#666" transform="translate(38.75 681.4)" d="M-5.7578125 4.1005859L-5.7578125 3.2041016L-3.6542969 3.2041016L-3.6542969 -3.1474609L-5.5175781 -1.8173828L-5.5175781 -2.8134766L-3.5664062 -4.1552734L-2.59375 -4.1552734L-2.59375 3.2041016L-0.58398438 3.2041016L-0.58398438 4.1005859L-5.7578125 4.1005859Z"/>
	</g>
	<clipPath id="cl_20a">
		<rect width="49.75" height="800"/>
	</clipPath>
	<g clip-path="url(#cl_20a)">
		<path fill="#666" transform="translate(38.75 613.6)" d="M-6.0683594 4.1005859L-6.0683594 3.3564453Q-5.7695312 2.6708984 -5.3388672 2.1464844Q-4.9082031 1.6220703 -4.4335938 1.1972656Q-3.9589844 0.77246094 -3.4931641 0.40917969Q-3.0273438 0.045898438 -2.6523438 -0.31738281Q-2.2773438 -0.68066406 -2.0458984 -1.0791016Q-1.8144531 -1.4775391 -1.8144531 -1.9814453Q-1.8144531 -2.6611328 -2.2128906 -3.0361328Q-2.6113281 -3.4111328 -3.3203125 -3.4111328Q-3.9941406 -3.4111328 -4.4306641 -3.0449219Q-4.8671875 -2.6787109 -4.9433594 -2.0166016L-6.0214844 -2.1162109Q-5.9042969 -3.1064453 -5.1806641 -3.6923828Q-4.4570312 -4.2783203 -3.3203125 -4.2783203Q-2.0722656 -4.2783203 -1.4013672 -3.6894531Q-0.73046875 -3.1005859 -0.73046875 -2.0166016Q-0.73046875 -1.5361328 -0.95019531 -1.0615234Q-1.1699219 -0.58691406 -1.6035156 -0.11230469Q-2.0371094 0.36230469 -3.2617188 1.3583984Q-3.9355469 1.9091797 -4.3339844 2.3515625Q-4.7324219 2.7939453 -4.9082031 3.2041016L-0.6015625 3.2041016L-0.6015625 4.1005859L-6.0683594 4.1005859Z"/>
	</g>
	<clipPath id="cl_20b">
		<rect width="49.75" height="800"/>
	</clipPath>
	<g clip-path="url(#cl_20b)">
		<path fill="#666" transform="translate(38.75 545.8)" d="M-0.52539062 1.8212891Q-0.52539062 2.9638672 -1.2519531 3.5908203Q-1.9785156 4.2177734 -3.3261719 4.2177734Q-4.5800781 4.2177734 -5.3271484 3.6523438Q-6.0742188 3.0869141 -6.2148438 1.9794922L-5.125 1.8798828Q-4.9140625 3.3447266 -3.3261719 3.3447266Q-2.5292969 3.3447266 -2.0751953 2.9521484Q-1.6210938 2.5595703 -1.6210938 1.7861328Q-1.6210938 1.1123047 -2.1396484 0.734375Q-2.6582031 0.35644531 -3.6367188 0.35644531L-4.234375 0.35644531L-4.234375 -0.55761719L-3.6601562 -0.55761719Q-2.7929688 -0.55761719 -2.3154297 -0.93554688Q-1.8378906 -1.3134766 -1.8378906 -1.9814453Q-1.8378906 -2.6435547 -2.2275391 -3.0273438Q-2.6171875 -3.4111328 -3.3847656 -3.4111328Q-4.0820312 -3.4111328 -4.5126953 -3.0537109Q-4.9433594 -2.6962891 -5.0136719 -2.0458984L-6.0742188 -2.1279297Q-5.9570312 -3.1416016 -5.2333984 -3.7099609Q-4.5097656 -4.2783203 -3.3730469 -4.2783203Q-2.1308594 -4.2783203 -1.4423828 -3.7011719Q-0.75390625 -3.1240234 -0.75390625 -2.0927734Q-0.75390625 -1.3017578 -1.1962891 -0.80664062Q-1.6386719 -0.31152344 -2.4824219 -0.13574219L-2.4824219 -0.11230469Q-1.5566406 -0.012695312 -1.0410156 0.50878906Q-0.52539062 1.0302734 -0.52539062 1.8212891Z"/>
	</g>
	<clipPath id="cl_20c">
		<rect width="49.75" height="800"/>
	</clipPath>
	<g clip-path="url(#cl_20c)">
		<path fill="#666" transform="translate(38.75 478)" d="M-1.5097656 2.2314453L-1.5097656 4.1005859L-2.5058594 4.1005859L-2.5058594 2.2314453L-6.3964844 2.2314453L-6.3964844 1.4111328L-2.6171875 -4.1552734L-1.5097656 -4.1552734L-1.5097656 1.3994141L-0.34960938 1.3994141L-0.34960938 2.2314453L-1.5097656 2.2314453ZM-2.5058594 -2.9658203Q-2.5175781 -2.9306641 -2.6699219 -2.6552734Q-2.8222656 -2.3798828 -2.8984375 -2.2685547L-5.0136719 0.84863281L-5.3300781 1.2822266L-5.4238281 1.3994141L-2.5058594 1.3994141L-2.5058594 -2.9658203Z"/>
	</g>
	<clipPath id="cl_20d">
		<rect width="49.75" height="800"/>
	</clipPath>
	<g clip-path="url(#cl_20d)">
		<path fill="#666" transform="translate(38.75 410.2)" d="M-0.50195312 1.4111328Q-0.50195312 2.7177734 -1.2783203 3.4677734Q-2.0546875 4.2177734 -3.4316406 4.2177734Q-4.5859375 4.2177734 -5.2949219 3.7138672Q-6.0039062 3.2099609 -6.1914062 2.2548828L-5.125 2.1318359Q-4.7910156 3.3564453 -3.4082031 3.3564453Q-2.5585938 3.3564453 -2.078125 2.84375Q-1.5976562 2.3310547 -1.5976562 1.4345703Q-1.5976562 0.65527344 -2.0810547 0.17480469Q-2.5644531 -0.30566406 -3.3847656 -0.30566406Q-3.8125 -0.30566406 -4.1816406 -0.17089844Q-4.5507812 -0.036132812 -4.9199219 0.28613281L-5.9511719 0.28613281L-5.6757812 -4.1552734L-0.98242188 -4.1552734L-0.98242188 -3.2587891L-4.7148438 -3.2587891L-4.8730469 -0.63964844Q-4.1875 -1.1669922 -3.1679688 -1.1669922Q-1.9492188 -1.1669922 -1.2255859 -0.45214844Q-0.50195312 0.26269531 -0.50195312 1.4111328Z"/>
	</g>
	<clipPath id="cl_20e">
		<rect width="49.75" height="800"/>
	</clipPath>
	<g clip-path="url(#cl_20e)">
		<path fill="#666" transform="translate(38.75 342.4)" d="M-0.52539062 1.3994141Q-0.52539062 2.7060547 -1.234375 3.4619141Q-1.9433594 4.2177734 -3.1914062 4.2177734Q-4.5859375 4.2177734 -5.3242188 3.1806641Q-6.0625 2.1435547 -6.0625 0.16308594Q-6.0625 -1.9814453 -5.2949219 -3.1298828Q-4.5273438 -4.2783203 -3.109375 -4.2783203Q-1.2402344 -4.2783203 -0.75390625 -2.5966797L-1.7617188 -2.4150391Q-2.0722656 -3.4228516 -3.1210938 -3.4228516Q-4.0234375 -3.4228516 -4.5185547 -2.5820312Q-5.0136719 -1.7412109 -5.0136719 -0.14746094Q-4.7265625 -0.68066406 -4.2050781 -0.95898438Q-3.6835938 -1.2373047 -3.0097656 -1.2373047Q-1.8671875 -1.2373047 -1.1962891 -0.52246094Q-0.52539062 0.19238281 -0.52539062 1.3994141ZM-1.5976562 1.4462891Q-1.5976562 0.54980469 -2.0371094 0.063476562Q-2.4765625 -0.42285156 -3.2617188 -0.42285156Q-4 -0.42285156 -4.4541016 0.0078125Q-4.9082031 0.43847656 -4.9082031 1.1943359Q-4.9082031 2.1494141 -4.4365234 2.7587891Q-3.9648438 3.3681641 -3.2265625 3.3681641Q-2.4648438 3.3681641 -2.03125 2.8554688Q-1.5976562 2.3427734 -1.5976562 1.4462891Z"/>
	</g>
	<clipPath id="cl_20f">
		<rect width="49.75" height="800"/>
	</clipPath>
	<g clip-path="url(#cl_20f)">
		<path fill="#666" transform="translate(38.75 274.6)" d="M-0.6015625 -3.2998047Q-1.8671875 -1.3662109 -2.3886719 -0.27050781Q-2.9101562 0.82519531 -3.1708984 1.8916016Q-3.4316406 2.9580078 -3.4316406 4.1005859L-4.5332031 4.1005859Q-4.5332031 2.5185547 -3.8623047 0.76953125Q-3.1914062 -0.97949219 -1.6210938 -3.2587891L-6.0566406 -3.2587891L-6.0566406 -4.1552734L-0.6015625 -4.1552734L-0.6015625 -3.2998047Z"/>
	</g>
	<clipPath id="cl_210">
		<rect width="49.75" height="800"/>
	</clipPath>
	<g clip-path="url(#cl_210)">
		<path fill="#666" transform="translate(38.75 206.8)" d="M-0.51953125 1.7978516Q-0.51953125 2.9404297 -1.2460938 3.5791016Q-1.9726562 4.2177734 -3.3320312 4.2177734Q-4.65625 4.2177734 -5.4033203 3.5908203Q-6.1503906 2.9638672 -6.1503906 1.8095703Q-6.1503906 1.0009766 -5.6875 0.45019531Q-5.2246094 -0.10058594 -4.5039062 -0.21777344L-4.5039062 -0.24121094Q-5.1777344 -0.39941406 -5.5673828 -0.92675781Q-5.9570312 -1.4541016 -5.9570312 -2.1630859Q-5.9570312 -3.1064453 -5.2509766 -3.6923828Q-4.5449219 -4.2783203 -3.3554688 -4.2783203Q-2.1367188 -4.2783203 -1.4306641 -3.7041016Q-0.72460938 -3.1298828 -0.72460938 -2.1513672Q-0.72460938 -1.4423828 -1.1171875 -0.91503906Q-1.5097656 -0.38769531 -2.1894531 -0.25292969L-2.1894531 -0.22949219Q-1.3984375 -0.10058594 -0.95898438 0.44140625Q-0.51953125 0.98339844 -0.51953125 1.7978516ZM-1.8203125 -2.0927734Q-1.8203125 -3.4931641 -3.3554688 -3.4931641Q-4.0996094 -3.4931641 -4.4892578 -3.1416016Q-4.8789062 -2.7900391 -4.8789062 -2.0927734Q-4.8789062 -1.3837891 -4.4775391 -1.0117188Q-4.0761719 -0.63964844 -3.34375 -0.63964844Q-2.5996094 -0.63964844 -2.2099609 -0.98242188Q-1.8203125 -1.3251953 -1.8203125 -2.0927734ZM-1.6152344 1.6982422Q-1.6152344 0.93066406 -2.0722656 0.54101562Q-2.5292969 0.15136719 -3.3554688 0.15136719Q-4.1582031 0.15136719 -4.609375 0.5703125Q-5.0605469 0.98925781 -5.0605469 1.7216797Q-5.0605469 3.4267578 -3.3203125 3.4267578Q-2.4589844 3.4267578 -2.0371094 3.0136719Q-1.6152344 2.6005859 -1.6152344 1.6982422Z"/>
	</g>
	<clipPath id="cl_211">
		<rect width="49.75" height="800"/>
	</clipPath>
	<g clip-path="url(#cl_211)">
		<path fill="#666" transform="translate(38.75 139)" d="M-0.56640625 -0.19433594Q-0.56640625 1.9326172 -1.3427734 3.0751953Q-2.1191406 4.2177734 -3.5546875 4.2177734Q-4.5214844 4.2177734 -5.1044922 3.8105469Q-5.6875 3.4033203 -5.9394531 2.4951172L-4.9316406 2.3369141Q-4.6152344 3.3681641 -3.5371094 3.3681641Q-2.6289062 3.3681641 -2.1308594 2.5244141Q-1.6328125 1.6806641 -1.609375 0.11621094Q-1.84375 0.64355469 -2.4121094 0.96289062Q-2.9804688 1.2822266 -3.6601562 1.2822266Q-4.7734375 1.2822266 -5.4414062 0.52050781Q-6.109375 -0.24121094 -6.109375 -1.5009766Q-6.109375 -2.7958984 -5.3828125 -3.5371094Q-4.65625 -4.2783203 -3.3613281 -4.2783203Q-1.984375 -4.2783203 -1.2753906 -3.2587891Q-0.56640625 -2.2392578 -0.56640625 -0.19433594ZM-1.7148438 -1.2138672Q-1.7148438 -2.2099609 -2.171875 -2.8164062Q-2.6289062 -3.4228516 -3.3964844 -3.4228516Q-4.1582031 -3.4228516 -4.5976562 -2.9042969Q-5.0371094 -2.3857422 -5.0371094 -1.5009766Q-5.0371094 -0.59863281 -4.5976562 -0.07421875Q-4.1582031 0.45019531 -3.4082031 0.45019531Q-2.9511719 0.45019531 -2.5585938 0.2421875Q-2.1660156 0.034179688 -1.9404297 -0.34667969Q-1.7148438 -0.72753906 -1.7148438 -1.2138672Z"/>
	</g>
	<clipPath id="cl_212">
		<rect width="49.75" height="800"/>
	</clipPath>
	<g clip-path="url(#cl_212)">
		<path fill="#666" transform="translate(38.75 71.2)" d="M-12.429688 4.1005859L-12.429688 3.2041016L-10.326172 3.2041016L-10.326172 -3.1474609L-12.189453 -1.8173828L-12.189453 -2.8134766L-10.238281 -4.1552734L-9.265625 -4.1552734L-9.265625 3.2041016L-7.2558594 3.2041016L-7.2558594 4.1005859L-12.429688 4.1005859ZM-0.46484375 -0.030273438Q-0.46484375 2.0380859 -1.1943359 3.1279297Q-1.9238281 4.2177734 -3.3476562 4.2177734Q-4.7714844 4.2177734 -5.4863281 3.1337891Q-6.2011719 2.0498047 -6.2011719 -0.030273438Q-6.2011719 -2.1572266 -5.5068359 -3.2177734Q-4.8125 -4.2783203 -3.3125 -4.2783203Q-1.8535156 -4.2783203 -1.1591797 -3.2060547Q-0.46484375 -2.1337891 -0.46484375 -0.030273438ZM-1.5371094 -0.030273438Q-1.5371094 -1.8173828 -1.9501953 -2.6201172Q-2.3632812 -3.4228516 -3.3125 -3.4228516Q-4.2851562 -3.4228516 -4.7099609 -2.6318359Q-5.1347656 -1.8408203 -5.1347656 -0.030273438Q-5.1347656 1.7275391 -4.7041016 2.5419922Q-4.2734375 3.3564453 -3.3359375 3.3564453Q-2.4042969 3.3564453 -1.9707031 2.5244141Q-1.5371094 1.6923828 -1.5371094 -0.030273438Z"/>
	</g>
	<clipPath id="cl_214">
		<rect x="43.75" y="65.199997" width="1156.25" height="690"/>
	</clipPath>
	<g clip-path="url(#cl_214)">
		<path fill="none" stroke="#C32222" stroke-width="2" stroke-miterlimit="10" d=""/>
	</g>
	<clipPath id="cl_215">
		<rect x="43.75" y="65.199997" width="1156.25" height="690"/>
	</clipPath>
	<g clip-path="url(#cl_215)">
		<path fill="#C32222" fill-opacity="0.2" d="M52.75 274.60001Q52.75 274.74738 52.73555 274.89404Q52.721107 275.04071 52.692352 275.18524Q52.663601 275.3298 52.620815 275.47086Q52.578033 275.61188 52.521633 275.74802Q52.465233 275.88422 52.39576 276.01419Q52.326286 276.14417 52.244404 276.26669Q52.162525 276.38928 52.069027 276.5032Q51.975533 276.61713 51.871319 276.72131Q51.767105 276.82556 51.653179 276.91904Q51.539253 277.01251 51.416706 277.09439Q51.294167 277.17627 51.164188 277.24576Q51.03421 277.31525 50.898048 277.37161Q50.76189 277.42804 50.620857 277.47079Q50.47982 277.51361 50.33527 277.54233Q50.19072 277.57111 50.044052 277.58557Q49.897381 277.60001 49.75 277.60001Q49.602619 277.60001 49.455948 277.58554Q49.309277 277.57111 49.164726 277.54233Q49.02018 277.51361 48.879143 277.47079Q48.73811 277.42804 48.601944 277.37161Q48.465782 277.31525 48.335808 277.24576Q48.205826 277.17627 48.083282 277.09439Q47.960747 277.01251 47.846817 276.91904Q47.732895 276.82556 47.628677 276.72131Q47.524467 276.61713 47.430969 276.5032Q47.337471 276.38925 47.255585 276.26666Q47.173706 276.14417 47.104233 276.01419Q47.03476 275.88422 46.978359 275.74802Q46.921963 275.61188 46.879177 275.47083Q46.836395 275.3298 46.80764 275.18524Q46.778893 275.04071 46.76445 274.89404Q46.75 274.74738 46.75 274.60001Q46.75 274.45264 46.76445 274.30594Q46.778896 274.15927 46.807648 274.01471Q46.836403 273.87018 46.879181 273.72916Q46.921963 273.5881 46.978359 273.45193Q47.03476 273.3158 47.104233 273.18582Q47.173706 273.05585 47.255585 272.93329Q47.337471 272.81076 47.430969 272.69684Q47.524467 272.58289 47.628677 272.47867Q47.732895 272.37445 47.846817 272.28094Q47.960747 272.18744 48.083282 272.10556Q48.205826 272.02368 48.335808 271.95422Q48.465782 271.88477 48.601944 271.82837Q48.73811 271.77197 48.879143 271.72919Q49.02018 271.6864 49.164726 271.65765Q49.309277 271.62891 49.455948 271.61447Q49.602619 271.60004 49.75 271.60001Q49.897381 271.60004 50.044052 271.61444Q50.19072 271.62891 50.335266 271.65765Q50.479816 271.6864 50.620853 271.72919Q50.761887 271.77197 50.898045 271.82837Q51.03421 271.88477 51.164188 271.95422Q51.294167 272.02368 51.416706 272.10556Q51.539253 272.18744 51.653179 272.28094Q51.767105 272.37445 51.871315 272.47867Q51.975533 272.58289 52.069023 272.69684Q52.162521 272.81076 52.2444 272.93329Q52.326279 273.05585 52.395756 273.18582Q52.465233 273.3158 52.521633 273.45193Q52.578033 273.5881 52.620815 273.72913Q52.663597 273.87018 52.692348 274.01471Q52.721107 274.15927 52.73555 274.30597Q52.75 274.45264 52.75 274.60001Z"/>
		<path fill="none" stroke="#C32222" stroke-width="2" stroke-miterlimit="10" d="M52.75 274.60001Q52.75 274.74738 52.73555 274.89404Q52.721107 275.04071 52.692352 275.18524Q52.663601 275.3298 52.620815 275.47086Q52.578033 275.61188 52.521633 275.74802Q52.465233 275.88422 52.39576 276.01419Q52.326286 276.14417 52.244404 276.26669Q52.162525 276.38928 52.069027 276.5032Q51.975533 276.61713 51.871319 276.72131Q51.767105 276.82556 51.653179 276.91904Q51.539253 277.01251 51.416706 277.09439Q51.294167 277.17627 51.164188 277.24576Q51.03421 277.31525 50.898048 277.37161Q50.76189 277.42804 50.620857 277.47079Q50.47982 277.51361 50.33527 277.54233Q50.19072 277.57111 50.044052 277.58557Q49.897381 277.60001 49.75 277.60001Q49.602619 277.60001 49.455948 277.58554Q49.309277 277.57111 49.164726 277.54233Q49.02018 277.51361 48.879143 277.47079Q48.73811 277.42804 48.601944 277.37161Q48.465782 277.31525 48.335808 277.24576Q48.205826 277.17627 48.083282 277.09439Q47.960747 277.01251 47.846817 276.91904Q47.732895 276.82556 47.628677 276.72131Q47.524467 276.61713 47.430969 276.5032Q47.337471 276.38925 47.255585 276.26666Q47.173706 276.14417 47.104233 276.01419Q47.03476 275.88422 46.978359 275.74802Q46.921963 275.61188 46.879177 275.47083Q46.836395 275.3298 46.80764 275.18524Q46.778893 275.04071 46.76445 274.89404Q46.75 274.74738 46.75 274.60001Q46.75 274.45264 46.76445 274.30594Q46.778896 274.15927 46.807648 274.01471Q46.836403 273.87018 46.879181 273.72916Q46.921963 273.5881 46.978359 273.45193Q47.03476 273.3158 47.104233 273.18582Q47.173706 273.05585 47.255585 272.93329Q47.337471 272.81076 47.430969 272.69684Q47.524467 272.58289 47.628677 272.47867Q47.732895 272.37445 47.846817 272.28094Q47.960747 272.18744 48.083282 272.10556Q48.205826 272.02368 48.335808 271.95422Q48.465782 271.88477 48.601944 271.82837Q48.73811 271.77197 48.879143 271.72919Q49.02018 271.6864 49.164726 271.65765Q49.309277 271.62891 49.455948 271.61447Q49.602619 271.60004 49.75 271.60001Q49.897381 271.60004 50.044052 271.61444Q50.19072 271.62891 50.335266 271.65765Q50.479816 271.6864 50.620853 271.72919Q50.761887 271.77197 50.898045 271.82837Q51.03421 271.88477 51.164188 271.95422Q51.294167 272.02368 51.416706 272.10556Q51.539253 272.18744 51.653179 272.28094Q51.767105 272.37445 51.871315 272.47867Q51.975533 272.58289 52.069023 272.69684Q52.162521 272.81076 52.2444 272.93329Q52.326279 273.05585 52.395756 273.18582Q52.465233 273.3158 52.521633 273.45193Q52.578033 273.5881 52.620815 273.72913Q52.663597 273.87018 52.692348 274.01471Q52.721107 274.15927 52.73555 274.30597Q52.75 274.45264 52.75 274.60001Z"/>
	</g>
</svg>
